<svg id="Layer_1" data-name="Layer 1" xmlns="http://www.w3.org/2000/svg" viewBox="0 0 500 500"><defs><style>.cls-1{fill:#c1272d;}.cls-2{fill:#e02f3d;}</style></defs><title>96v-Consumer</title><path class="cls-1" d="M201.49,356a91.88,91.88,0,0,1,16-1.25c8.15,0,13.17,1,17.3,3.85a12.74,12.74,0,0,1,6.27,11.29c0,5.56-3.5,10.67-10,13.09v.18c6.37,1.61,12.19,6.63,12.19,15a15.69,15.69,0,0,1-5.82,12.46c-4.31,3.76-11.39,5.65-22.41,5.65a106.26,106.26,0,0,1-13.53-.81Zm10.93,23.84h5.65c7.61,0,11.92-3.59,11.92-8.69,0-5.65-4.31-8.25-11.3-8.25a29.9,29.9,0,0,0-6.27.45Zm0,27.78a48.52,48.52,0,0,0,5.83.27c7.08,0,13.35-2.69,13.35-10.13,0-7-6.09-9.85-13.71-9.85h-5.47Z"/><path class="cls-1" d="M292.53,393.32c0,16-11.29,23.21-22.4,23.21-12.37,0-21.87-8.51-21.87-22.49,0-14.34,9.41-23.12,22.58-23.12C283.84,370.92,292.53,380.06,292.53,393.32Zm-32.89.45c0,8.42,4.12,14.79,10.84,14.79,6.28,0,10.67-6.19,10.67-15,0-6.81-3-14.61-10.58-14.61C262.78,379,259.64,386.51,259.64,393.77Z"/><path class="cls-1" d="M324.45,415.55l-.71-4.84h-.27a16.23,16.23,0,0,1-12.91,5.82c-8.78,0-13.71-6.36-13.71-13,0-11,9.77-16.58,25.9-16.49v-.72c0-2.87-1.16-7.62-8.87-7.62a23.15,23.15,0,0,0-11.74,3.23L300,374.77c3.22-2,8.87-3.85,15.77-3.85,14,0,18,8.87,18,18.37v15.77a69.71,69.71,0,0,0,.63,10.49ZM323,394.22c-7.8-.18-15.24,1.52-15.24,8.15,0,4.31,2.78,6.28,6.28,6.28a8.92,8.92,0,0,0,8.6-6,7.85,7.85,0,0,0,.36-2.42Z"/><path class="cls-1" d="M343.25,386c0-5.91-.09-10.12-.36-14.07h9.59l.36,8.34h.35c2.15-6.19,7.26-9.32,11.92-9.32a11.47,11.47,0,0,1,2.6.27v10.39a15.18,15.18,0,0,0-3.22-.36c-5.29,0-8.88,3.41-9.86,8.34a18.77,18.77,0,0,0-.36,3.4v22.59h-11Z"/><path class="cls-1" d="M413.55,351.92v51.35c0,4.48.18,9.32.36,12.28h-9.86l-.45-6.9h-.17c-2.6,4.84-7.89,7.88-14.25,7.88-10.4,0-18.65-8.87-18.65-22.31-.09-14.61,9.06-23.3,19.54-23.3,6,0,10.31,2.51,12.28,5.73h.18V351.92Zm-11,38.18a15.41,15.41,0,0,0-.27-2.87,9.66,9.66,0,0,0-9.5-7.8c-7.08,0-11,6.27-11,14.43,0,8,3.94,13.8,10.93,13.8a9.72,9.72,0,0,0,9.5-7.8,12.18,12.18,0,0,0,.36-3.22Z"/><path class="cls-1" d="M422.81,405.42a24.64,24.64,0,0,0,11.2,3.14c4.84,0,7-2,7-4.84s-1.79-4.48-7.17-6.36c-8.51-3-12.1-7.62-12-12.73,0-7.71,6.37-13.71,16.49-13.71a25.6,25.6,0,0,1,11.57,2.6l-2.16,7.79a19.63,19.63,0,0,0-9.23-2.51c-3.94,0-6.09,1.89-6.09,4.57s2.06,4.13,7.62,6.1c7.88,2.87,11.56,6.9,11.65,13.35,0,7.89-6.19,13.62-17.75,13.62a28.15,28.15,0,0,1-13.26-3Z"/><path class="cls-2" d="M322.47,150.38c-15.4-13.28-35.66-21.62-60.21-24.77l-7.94-3.22L327.07,31H258.81l-58.47,74.23c-4.75,5.85-9.13,12.54-13.15,17.88,14.49,5,27.41,13.58,38.62,24.67a104.76,104.76,0,0,1,20.84,30.27c1.17-.1,2.34,0,3.55,0,11.23,0,21.09,4.18,29.32,12.29a41.62,41.62,0,0,1-25.8,70.85A129.83,129.83,0,0,1,244.36,287,229.82,229.82,0,0,1,225.88,317,112.64,112.64,0,0,0,249,319.36c28.75,0,52.81-9.1,71.5-27.05C340,273,350,246.78,350,214.36,350,187.38,341,166.45,322.47,150.38Z"/><path class="cls-2" d="M181,226.7c0-8.87-3.2-16.38-9.79-22.94a31.47,31.47,0,0,0-19.43-9.56,115.38,115.38,0,0,0-1.93,20.94c0,15.86,2.43,30.24,7.25,43a32.25,32.25,0,0,0,14.11-8.53C177.76,243.08,181,235.58,181,226.7Z"/><path class="cls-1" d="M219.54,154.63c-18.47-18.27-42.1-27.55-70.21-27.55-28.74,0-52.8,9.19-71.49,27.3-19.58,19.08-29.51,45.18-29.51,77.54,0,27.13,9,48,27.48,63.85,15.41,13.29,35.67,21.61,60.23,24.75l7.93,1L140.36,331,71.21,421h68.28L198,344c18.31-22.55,31.24-43.86,38.42-58.44a122.68,122.68,0,0,0,12.11-53C248.49,201,238.75,173.93,219.54,154.63Zm-42.1,101.31a41,41,0,0,1-58.68,0c-8.22-8.19-12.4-18-12.4-29.24s4.18-21,12.4-29.24a41,41,0,0,1,58.68,0c8.24,8.2,12.41,18,12.41,29.24S185.68,247.74,177.44,255.94Z"/><path class="cls-1" d="M226,454.84a22.34,22.34,0,0,1-9.22,1.66c-9.84,0-17.24-6.22-17.24-17.66,0-10.92,7.4-18.33,18.22-18.33a18.72,18.72,0,0,1,8.29,1.56L225,425.74a16.38,16.38,0,0,0-7-1.45c-8.18,0-13.62,5.23-13.62,14.4,0,8.54,4.92,14,13.41,14a18,18,0,0,0,7.35-1.45Z"/><path class="cls-1" d="M253.58,443.24c0,9.27-6.42,13.31-12.48,13.31-6.78,0-12-5-12-12.89,0-8.39,5.49-13.31,12.42-13.31C248.71,430.35,253.58,435.58,253.58,443.24Zm-19.88.26c0,5.49,3.15,9.63,7.61,9.63s7.61-4.09,7.61-9.73c0-4.25-2.13-9.63-7.51-9.63S233.7,438.74,233.7,443.5Z"/><path class="cls-1" d="M259.32,437.7c0-2.59-.05-4.71-.21-6.78h4l.26,4.14h.1a9.24,9.24,0,0,1,8.29-4.71c3.47,0,8.85,2.07,8.85,10.66v15h-4.56V441.53c0-4-1.5-7.4-5.79-7.4a6.68,6.68,0,0,0-6.42,6.78V456h-4.56Z"/><path class="cls-1" d="M287.43,451.32a12,12,0,0,0,6,1.81c3.31,0,4.86-1.66,4.86-3.73s-1.29-3.36-4.66-4.61c-4.5-1.6-6.62-4.09-6.62-7.09,0-4,3.26-7.35,8.64-7.35a12.48,12.48,0,0,1,6.16,1.55l-1.14,3.32a9.73,9.73,0,0,0-5.12-1.45c-2.69,0-4.2,1.55-4.2,3.41,0,2.07,1.51,3,4.77,4.25,4.35,1.66,6.57,3.83,6.57,7.56,0,4.4-3.41,7.51-9.37,7.51a14.36,14.36,0,0,1-7-1.71Z"/><path class="cls-1" d="M329.52,449.14c0,2.59.05,4.87.21,6.84h-4l-.26-4.09h-.11a9.42,9.42,0,0,1-8.28,4.66c-3.93,0-8.65-2.18-8.65-11V430.92H313v13.87c0,4.77,1.45,8,5.59,8a6.6,6.6,0,0,0,6-4.14,6.7,6.7,0,0,0,.41-2.33V430.92h4.56Z"/><path class="cls-1" d="M337.07,437.7c0-2.59-.05-4.71-.2-6.78h4l.21,4h.15a8.65,8.65,0,0,1,7.87-4.61,7.42,7.42,0,0,1,7.1,5h.1a10.32,10.32,0,0,1,2.8-3.26,8.55,8.55,0,0,1,5.54-1.76c3.31,0,8.23,2.17,8.23,10.87V456H368.4V441.79c0-4.81-1.76-7.71-5.44-7.71a5.88,5.88,0,0,0-5.38,4.14,7.4,7.4,0,0,0-.37,2.28V456h-4.45V441c0-4-1.76-6.88-5.23-6.88-2.85,0-4.92,2.28-5.64,4.55a6.29,6.29,0,0,0-.36,2.23V456h-4.46Z"/><path class="cls-1" d="M382.78,444.28c.11,6.16,4,8.69,8.6,8.69a16.43,16.43,0,0,0,6.94-1.29l.77,3.26a20.16,20.16,0,0,1-8.33,1.56c-7.72,0-12.33-5.08-12.33-12.64s4.46-13.51,11.76-13.51c8.18,0,10.35,7.2,10.35,11.8a17.86,17.86,0,0,1-.15,2.13ZM396.14,441c.05-2.89-1.19-7.4-6.32-7.4-4.6,0-6.62,4.25-7,7.4Z"/><path class="cls-1" d="M406.18,438.74c0-2.95-.05-5.49-.21-7.82h4l.16,4.92h.2c1.14-3.37,3.89-5.49,6.94-5.49a5,5,0,0,1,1.29.15v4.3a7,7,0,0,0-1.55-.15c-3.21,0-5.49,2.43-6.11,5.85a13.11,13.11,0,0,0-.21,2.12V456h-4.5Z"/></svg>