<svg id="Layer_1" data-name="Layer 1" xmlns="http://www.w3.org/2000/svg" viewBox="0 0 500 500"><defs><style>.cls-1{fill:#f48414;}.cls-2{fill:#ff981d;}</style></defs><title>96v-IoT</title><path class="cls-1" d="M201.49,356a91.88,91.88,0,0,1,16-1.25c8.15,0,13.17,1,17.3,3.85a12.74,12.74,0,0,1,6.27,11.29c0,5.56-3.5,10.67-10,13.09v.18c6.37,1.61,12.19,6.63,12.19,15a15.69,15.69,0,0,1-5.82,12.46c-4.31,3.76-11.39,5.65-22.41,5.65a106.26,106.26,0,0,1-13.53-.81Zm10.93,23.84h5.65c7.61,0,11.92-3.59,11.92-8.69,0-5.65-4.31-8.25-11.3-8.25a29.9,29.9,0,0,0-6.27.45Zm0,27.78a48.52,48.52,0,0,0,5.83.27c7.08,0,13.35-2.69,13.35-10.13,0-7-6.09-9.85-13.71-9.85h-5.47Z"/><path class="cls-1" d="M292.53,393.32c0,16-11.29,23.21-22.4,23.21-12.37,0-21.87-8.51-21.87-22.49,0-14.34,9.41-23.12,22.58-23.12C283.84,370.92,292.53,380.06,292.53,393.32Zm-32.89.45c0,8.42,4.12,14.79,10.84,14.79,6.28,0,10.67-6.19,10.67-15,0-6.81-3-14.61-10.58-14.61C262.78,379,259.64,386.51,259.64,393.77Z"/><path class="cls-1" d="M324.45,415.55l-.71-4.84h-.27a16.23,16.23,0,0,1-12.91,5.82c-8.78,0-13.71-6.36-13.71-13,0-11,9.77-16.58,25.9-16.49v-.72c0-2.87-1.16-7.62-8.87-7.62a23.15,23.15,0,0,0-11.74,3.23L300,374.77c3.22-2,8.87-3.85,15.77-3.85,14,0,18,8.87,18,18.37v15.77a69.71,69.71,0,0,0,.63,10.49ZM323,394.22c-7.8-.18-15.24,1.52-15.24,8.15,0,4.31,2.78,6.28,6.28,6.28a8.92,8.92,0,0,0,8.6-6,7.85,7.85,0,0,0,.36-2.42Z"/><path class="cls-1" d="M343.25,386c0-5.91-.09-10.12-.36-14.07h9.59l.36,8.34h.35c2.15-6.19,7.26-9.32,11.92-9.32a11.47,11.47,0,0,1,2.6.27v10.39a15.18,15.18,0,0,0-3.22-.36c-5.29,0-8.88,3.41-9.86,8.34a18.77,18.77,0,0,0-.36,3.4v22.59h-11Z"/><path class="cls-1" d="M413.55,351.92v51.35c0,4.48.18,9.32.36,12.28h-9.86l-.45-6.9h-.17c-2.6,4.84-7.89,7.88-14.25,7.88-10.4,0-18.65-8.87-18.65-22.31-.09-14.61,9.06-23.3,19.54-23.3,6,0,10.31,2.51,12.28,5.73h.18V351.92Zm-11,38.18a15.41,15.41,0,0,0-.27-2.87,9.66,9.66,0,0,0-9.5-7.8c-7.08,0-11,6.27-11,14.43,0,8,3.94,13.8,10.93,13.8a9.72,9.72,0,0,0,9.5-7.8,12.18,12.18,0,0,0,.36-3.22Z"/><path class="cls-1" d="M422.81,405.42a24.64,24.64,0,0,0,11.2,3.14c4.84,0,7-2,7-4.84s-1.79-4.48-7.17-6.36c-8.51-3-12.1-7.62-12-12.73,0-7.71,6.37-13.71,16.49-13.71a25.6,25.6,0,0,1,11.57,2.6l-2.16,7.79a19.63,19.63,0,0,0-9.23-2.51c-3.94,0-6.09,1.89-6.09,4.57s2.06,4.13,7.62,6.1c7.88,2.87,11.56,6.9,11.65,13.35,0,7.89-6.19,13.62-17.75,13.62a28.15,28.15,0,0,1-13.26-3Z"/><path class="cls-2" d="M322.47,150.38c-15.4-13.28-35.66-21.62-60.21-24.77l-7.94-3.22L327.07,31H258.81l-58.47,74.23c-4.75,5.85-9.13,12.54-13.15,17.88,14.49,5,27.41,13.58,38.62,24.67a104.76,104.76,0,0,1,20.84,30.27c1.17-.1,2.34,0,3.55,0,11.23,0,21.09,4.18,29.32,12.29a41.62,41.62,0,0,1-25.8,70.85A129.83,129.83,0,0,1,244.36,287,229.82,229.82,0,0,1,225.88,317,112.64,112.64,0,0,0,249,319.36c28.75,0,52.81-9.1,71.5-27.05C340,273,350,246.78,350,214.36,350,187.38,341,166.45,322.47,150.38Z"/><path class="cls-2" d="M181,226.7c0-8.87-3.2-16.38-9.79-22.94a31.47,31.47,0,0,0-19.43-9.56,115.38,115.38,0,0,0-1.93,20.94c0,15.86,2.43,30.24,7.25,43a32.25,32.25,0,0,0,14.11-8.53C177.76,243.08,181,235.58,181,226.7Z"/><path class="cls-1" d="M219.54,154.63c-18.47-18.27-42.1-27.55-70.21-27.55-28.74,0-52.8,9.19-71.49,27.3-19.58,19.08-29.51,45.18-29.51,77.54,0,27.13,9,48,27.48,63.85,15.41,13.29,35.67,21.61,60.23,24.75l7.93,1L140.36,331,71.21,421h68.28L198,344c18.31-22.55,31.24-43.86,38.42-58.44a122.68,122.68,0,0,0,12.11-53C248.49,201,238.75,173.93,219.54,154.63Zm-42.1,101.31a41,41,0,0,1-58.68,0c-8.22-8.19-12.4-18-12.4-29.24s4.18-21,12.4-29.24a41,41,0,0,1,58.68,0c8.24,8.2,12.41,18,12.41,29.24S185.68,247.74,177.44,255.94Z"/><path class="cls-1" d="M206.11,421.08V456H201.6v-34.9Z"/><path class="cls-1" d="M236.49,443.24c0,9.27-6.42,13.31-12.47,13.31-6.79,0-12-5-12-12.89,0-8.39,5.48-13.31,12.42-13.31C231.63,430.35,236.49,435.58,236.49,443.24Zm-19.88.26c0,5.49,3.16,9.63,7.61,9.63s7.61-4.09,7.61-9.73c0-4.25-2.12-9.63-7.5-9.63S216.61,438.74,216.61,443.5Z"/><path class="cls-1" d="M247,424.91H236.34v-3.83h25.83v3.83H251.51V456H247Z"/><path class="cls-1" d="M295.09,439.62H281.53V452.2h15.12V456H277v-34.9h18.85v3.78H281.53v11h13.56Z"/><path class="cls-1" d="M323.77,419.22v30.29c0,2.22.05,4.76.21,6.47h-4.09l-.21-4.35h-.1a9.29,9.29,0,0,1-8.54,4.92c-6.06,0-10.72-5.13-10.72-12.74-.05-8.33,5.12-13.46,11.23-13.46,3.83,0,6.42,1.81,7.56,3.83h.1v-15Zm-4.56,21.9a8.35,8.35,0,0,0-.2-1.92,6.71,6.71,0,0,0-6.58-5.28c-4.71,0-7.5,4.14-7.5,9.68,0,5.08,2.48,9.27,7.4,9.27a6.86,6.86,0,0,0,6.68-5.44,8.14,8.14,0,0,0,.2-2Z"/><path class="cls-1" d="M336.4,423.88a2.82,2.82,0,0,1-5.64,0A2.77,2.77,0,0,1,333.6,421,2.71,2.71,0,0,1,336.4,423.88ZM331.33,456V430.92h4.55V456Z"/><path class="cls-1" d="M348.93,423.72v7.2h6.52v3.47h-6.52V447.9c0,3.11.88,4.87,3.41,4.87a10.41,10.41,0,0,0,2.65-.31l.2,3.41a11,11,0,0,1-4,.63,6.3,6.3,0,0,1-4.91-1.92c-1.3-1.35-1.77-3.57-1.77-6.52V434.39h-3.88v-3.47h3.88v-6Z"/><path class="cls-1" d="M365.65,423.88a2.83,2.83,0,0,1-5.65,0,2.78,2.78,0,0,1,2.85-2.85A2.71,2.71,0,0,1,365.65,423.88ZM360.57,456V430.92h4.56V456Z"/><path class="cls-1" d="M395.36,443.24c0,9.27-6.42,13.31-12.47,13.31-6.79,0-12-5-12-12.89,0-8.39,5.48-13.31,12.42-13.31C390.5,430.35,395.36,435.58,395.36,443.24Zm-19.88.26c0,5.49,3.16,9.63,7.61,9.63s7.62-4.09,7.62-9.73c0-4.25-2.13-9.63-7.51-9.63S375.48,438.74,375.48,443.5Z"/><path class="cls-1" d="M401.11,437.7c0-2.59-.05-4.71-.21-6.78h4l.26,4.14h.1a9.21,9.21,0,0,1,8.28-4.71c3.47,0,8.86,2.07,8.86,10.66v15h-4.56V441.53c0-4-1.5-7.4-5.8-7.4a6.48,6.48,0,0,0-6.11,4.66,6.72,6.72,0,0,0-.31,2.12V456h-4.55Z"/></svg>