<svg id="Layer_1" data-name="Layer 1" xmlns="http://www.w3.org/2000/svg" viewBox="0 0 500 500"><defs><style>.cls-1{fill:#999;}</style></defs><title>96v-Partner</title><path d="M201.49,355.8a92.87,92.87,0,0,1,16-1.25c8.15,0,13.17,1,17.3,3.85a12.75,12.75,0,0,1,6.27,11.29c0,5.56-3.5,10.67-10,13.09V383c6.37,1.61,12.19,6.63,12.19,15a15.69,15.69,0,0,1-5.82,12.46C233.12,414.15,226,416,215,416a106.26,106.26,0,0,1-13.53-.81Zm10.93,23.84h5.65c7.61,0,11.92-3.58,11.92-8.69,0-5.65-4.31-8.25-11.3-8.25a29.9,29.9,0,0,0-6.27.45Zm0,27.78a48.52,48.52,0,0,0,5.83.27c7.08,0,13.35-2.68,13.35-10.12,0-7-6.09-9.86-13.71-9.86h-5.47Z"/><path d="M292.53,393.17c0,16.05-11.29,23.22-22.4,23.22-12.37,0-21.87-8.52-21.87-22.5,0-14.34,9.41-23.12,22.58-23.12C283.84,370.77,292.53,379.91,292.53,393.17Zm-32.89.45c0,8.43,4.12,14.79,10.84,14.79,6.28,0,10.67-6.18,10.67-15,0-6.81-3-14.6-10.58-14.6C262.78,378.84,259.64,386.36,259.64,393.62Z"/><path d="M324.45,415.4l-.71-4.84h-.27a16.21,16.21,0,0,1-12.91,5.83c-8.78,0-13.71-6.37-13.71-13,0-11,9.77-16.58,25.9-16.49v-.72c0-2.86-1.16-7.61-8.87-7.61a23.14,23.14,0,0,0-11.74,3.22L300,374.62c3.22-2,8.87-3.85,15.77-3.85,14,0,18,8.87,18,18.37v15.78a69.66,69.66,0,0,0,.63,10.48ZM323,394.07c-7.8-.18-15.24,1.52-15.24,8.16,0,4.3,2.78,6.27,6.28,6.27a8.93,8.93,0,0,0,8.6-6,7.94,7.94,0,0,0,.36-2.42Z"/><path d="M343.25,385.83c0-5.92-.09-10.13-.36-14.07h9.59l.36,8.33h.35c2.15-6.18,7.26-9.32,11.92-9.32a11.47,11.47,0,0,1,2.6.27v10.39a15.26,15.26,0,0,0-3.22-.35c-5.29,0-8.88,3.4-9.86,8.33a18.88,18.88,0,0,0-.36,3.41V415.4h-11Z"/><path d="M413.55,351.77v51.35c0,4.48.18,9.32.36,12.28h-9.86l-.45-6.9h-.17c-2.6,4.84-7.89,7.89-14.25,7.89-10.4,0-18.65-8.88-18.65-22.32-.09-14.61,9.06-23.3,19.54-23.3,6,0,10.31,2.51,12.28,5.74h.18V351.77Zm-11,38.18a15.49,15.49,0,0,0-.27-2.87,9.66,9.66,0,0,0-9.5-7.8c-7.08,0-11,6.28-11,14.43,0,8,3.94,13.8,10.93,13.8a9.71,9.71,0,0,0,9.5-7.79,12.25,12.25,0,0,0,.36-3.23Z"/><path d="M422.81,405.27a24.51,24.51,0,0,0,11.2,3.14c4.84,0,7-2,7-4.84s-1.79-4.48-7.17-6.36c-8.51-3-12.1-7.62-12-12.73,0-7.71,6.37-13.71,16.49-13.71a25.6,25.6,0,0,1,11.57,2.6l-2.16,7.8a19.51,19.51,0,0,0-9.23-2.51c-3.94,0-6.09,1.88-6.09,4.57s2.06,4.12,7.62,6.09c7.88,2.87,11.56,6.9,11.65,13.35,0,7.89-6.19,13.63-17.75,13.63a28.14,28.14,0,0,1-13.26-3.05Z"/><path d="M322.47,150.18c-15.4-13.28-35.66-21.61-60.21-24.77l-7.94-3.11L327.07,31H258.81l-58.47,74.13c-4.75,5.85-9.13,12.49-13.15,17.83,14.49,5,27.41,13.55,38.62,24.65a104.81,104.81,0,0,1,20.84,30.25c1.17-.09,2.34,0,3.55,0,11.23,0,21.09,4.17,29.32,12.29A41.61,41.61,0,0,1,253.72,261a129.83,129.83,0,0,1-9.36,25.79,229.82,229.82,0,0,1-18.48,30.09A112.64,112.64,0,0,0,249,319.16c28.75,0,52.81-9.1,71.5-27.05,19.56-19.28,29.5-45.52,29.5-78C350,187.18,341,166.26,322.47,150.18Z"/><path d="M181,226.5c0-8.87-3.2-16.38-9.79-22.94A31.47,31.47,0,0,0,151.74,194a115.38,115.38,0,0,0-1.93,20.94q0,23.81,7.25,43a32.37,32.37,0,0,0,14.11-8.54C177.76,242.88,181,235.38,181,226.5Z"/><path d="M219.54,154.43c-18.47-18.27-42.1-27.55-70.21-27.55-28.74,0-52.8,9.19-71.49,27.3-19.58,19.08-29.51,45.18-29.51,77.54,0,27.13,9,48,27.48,63.85,15.41,13.29,35.67,21.61,60.23,24.75l7.93,1-3.61,9.55L71.21,421h68.28L198,343.89c18.31-22.55,31.24-43.91,38.42-58.49a122.77,122.77,0,0,0,12.11-53C248.49,200.8,238.75,173.74,219.54,154.43Zm-42.1,101.31a41,41,0,0,1-58.68,0c-8.22-8.19-12.4-18-12.4-29.24s4.18-21,12.4-29.24,18.1-12.35,29.35-12.35,21.11,4.16,29.33,12.35,12.41,18,12.41,29.24S185.68,247.54,177.44,255.74Z"/><path class="cls-1" d="M201.6,421.35a52.57,52.57,0,0,1,8.65-.67c4.45,0,7.71,1,9.78,2.9a9.35,9.35,0,0,1,3.06,7.3,10.27,10.27,0,0,1-2.7,7.45c-2.38,2.54-6.26,3.83-10.66,3.83a15.36,15.36,0,0,1-3.62-.31v14H201.6Zm4.51,16.83a15.48,15.48,0,0,0,3.72.36c5.44,0,8.75-2.64,8.75-7.46,0-4.61-3.26-6.83-8.23-6.83a18.65,18.65,0,0,0-4.24.36Z"/><path class="cls-1" d="M241.52,455.83l-.37-3.16H241a9.33,9.33,0,0,1-7.66,3.73c-5.08,0-7.67-3.57-7.67-7.2,0-6.05,5.39-9.37,15.07-9.32v-.51c0-2.08-.57-5.8-5.7-5.8a12.46,12.46,0,0,0-6.52,1.86l-1-3a15.5,15.5,0,0,1,8.23-2.23c7.66,0,9.52,5.23,9.52,10.25v9.37a35.33,35.33,0,0,0,.42,6ZM240.84,443c-5-.1-10.61.78-10.61,5.65a4,4,0,0,0,4.3,4.34,6.22,6.22,0,0,0,6.05-4.19,4.57,4.57,0,0,0,.26-1.45Z"/><path class="cls-1" d="M252.59,438.59c0-2.95-.05-5.49-.21-7.82h4l.16,4.92h.2c1.14-3.36,3.89-5.49,6.94-5.49a4.72,4.72,0,0,1,1.3.16v4.3a6.57,6.57,0,0,0-1.56-.16c-3.21,0-5.49,2.43-6.11,5.85a13.29,13.29,0,0,0-.2,2.12v13.36h-4.51Z"/><path class="cls-1" d="M276.25,423.58v7.19h6.52v3.47h-6.52v13.51c0,3.11.88,4.87,3.42,4.87a10.38,10.38,0,0,0,2.64-.31l.2,3.42a11.18,11.18,0,0,1-4,.62,6.3,6.3,0,0,1-4.91-1.92c-1.3-1.34-1.76-3.57-1.76-6.52V434.24h-3.89v-3.47h3.89v-6Z"/><path class="cls-1" d="M287.9,437.55c0-2.58-.06-4.71-.21-6.78h4l.26,4.14h.1a9.21,9.21,0,0,1,8.28-4.71c3.47,0,8.86,2.07,8.86,10.67v15h-4.56V441.39c0-4-1.5-7.41-5.8-7.41a6.48,6.48,0,0,0-6.11,4.66,6.77,6.77,0,0,0-.31,2.12v15.07H287.9Z"/><path class="cls-1" d="M319.16,444.13c.11,6.16,4,8.7,8.6,8.7a16.41,16.41,0,0,0,6.94-1.3l.77,3.26a20.16,20.16,0,0,1-8.33,1.56c-7.72,0-12.33-5.08-12.33-12.64s4.46-13.51,11.76-13.51c8.18,0,10.35,7.2,10.35,11.81a17.83,17.83,0,0,1-.15,2.12Zm13.36-3.26c.05-2.9-1.19-7.41-6.32-7.41-4.6,0-6.62,4.25-7,7.41Z"/><path class="cls-1" d="M342.56,438.59c0-2.95-.05-5.49-.21-7.82h4l.16,4.92h.2c1.14-3.36,3.89-5.49,6.94-5.49a4.6,4.6,0,0,1,1.29.16v4.3a6.42,6.42,0,0,0-1.55-.16c-3.21,0-5.49,2.43-6.11,5.85a13.29,13.29,0,0,0-.2,2.12v13.36h-4.51Z"/></svg>