<svg id="Layer_1" data-name="Layer 1" xmlns="http://www.w3.org/2000/svg" viewBox="0 0 500 500"><defs><style>.cls-1{fill:#39b54a;}.cls-2{fill:#a1cd41;}</style></defs><title>96v-Enterprise</title><path class="cls-1" d="M201.49,355.8a91.88,91.88,0,0,1,16-1.25c8.15,0,13.17,1,17.3,3.85a12.74,12.74,0,0,1,6.27,11.29c0,5.56-3.5,10.67-10,13.09V383c6.37,1.61,12.19,6.63,12.19,15a15.69,15.69,0,0,1-5.82,12.46C233.12,414.14,226,416,215,416a106.26,106.26,0,0,1-13.53-.81Zm10.93,23.84h5.65c7.61,0,11.92-3.58,11.92-8.69,0-5.65-4.31-8.25-11.3-8.25a29.9,29.9,0,0,0-6.27.45Zm0,27.78a48.52,48.52,0,0,0,5.83.27c7.08,0,13.35-2.69,13.35-10.13,0-7-6.09-9.85-13.71-9.85h-5.47Z"/><path class="cls-1" d="M292.53,393.17c0,16.05-11.29,23.22-22.4,23.22-12.37,0-21.87-8.52-21.87-22.5,0-14.34,9.41-23.12,22.58-23.12C283.84,370.77,292.53,379.91,292.53,393.17Zm-32.89.45c0,8.43,4.12,14.79,10.84,14.79,6.28,0,10.67-6.19,10.67-15,0-6.81-3-14.61-10.58-14.61C262.78,378.83,259.64,386.36,259.64,393.62Z"/><path class="cls-1" d="M324.45,415.4l-.71-4.84h-.27a16.21,16.21,0,0,1-12.91,5.83c-8.78,0-13.71-6.37-13.71-13,0-11,9.77-16.58,25.9-16.49v-.72c0-2.87-1.16-7.62-8.87-7.62a23.15,23.15,0,0,0-11.74,3.23L300,374.62c3.22-2,8.87-3.85,15.77-3.85,14,0,18,8.87,18,18.37v15.77a69.71,69.71,0,0,0,.63,10.49ZM323,394.07c-7.8-.18-15.24,1.52-15.24,8.15,0,4.31,2.78,6.28,6.28,6.28a8.92,8.92,0,0,0,8.6-6,7.85,7.85,0,0,0,.36-2.42Z"/><path class="cls-1" d="M343.25,385.82c0-5.91-.09-10.12-.36-14.07h9.59l.36,8.34h.35c2.15-6.19,7.26-9.32,11.92-9.32a11.47,11.47,0,0,1,2.6.27v10.39a15.18,15.18,0,0,0-3.22-.36c-5.29,0-8.88,3.41-9.86,8.34a18.77,18.77,0,0,0-.36,3.4V415.4h-11Z"/><path class="cls-1" d="M413.55,351.77v51.35c0,4.48.18,9.32.36,12.28h-9.86l-.45-6.9h-.17c-2.6,4.84-7.89,7.89-14.25,7.89-10.4,0-18.65-8.88-18.65-22.32-.09-14.61,9.06-23.3,19.54-23.3,6,0,10.31,2.51,12.28,5.73h.18V351.77Zm-11,38.18a15.49,15.49,0,0,0-.27-2.87,9.66,9.66,0,0,0-9.5-7.8c-7.08,0-11,6.28-11,14.43,0,8,3.94,13.8,10.93,13.8a9.71,9.71,0,0,0,9.5-7.79,12.3,12.3,0,0,0,.36-3.23Z"/><path class="cls-1" d="M422.81,405.27a24.51,24.51,0,0,0,11.2,3.14c4.84,0,7-2,7-4.84s-1.79-4.48-7.17-6.36c-8.51-3-12.1-7.62-12-12.73,0-7.71,6.37-13.71,16.49-13.71a25.6,25.6,0,0,1,11.57,2.6l-2.16,7.79a19.63,19.63,0,0,0-9.23-2.51c-3.94,0-6.09,1.89-6.09,4.58s2.06,4.12,7.62,6.09c7.88,2.87,11.56,6.9,11.65,13.35,0,7.89-6.19,13.63-17.75,13.63a28.14,28.14,0,0,1-13.26-3.05Z"/><path class="cls-2" d="M322.47,150.27c-15.4-13.28-35.66-21.62-60.21-24.77l-7.94-3.16L327.07,31H258.81l-58.47,74.17c-4.75,5.85-9.13,12.52-13.15,17.86,14.49,5,27.41,13.56,38.62,24.65a105,105,0,0,1,20.84,30.26c1.17-.09,2.34,0,3.55,0,11.23,0,21.09,4.18,29.32,12.29a41.62,41.62,0,0,1-25.8,70.85,129.83,129.83,0,0,1-9.36,25.79,229.82,229.82,0,0,1-18.48,30.09A113.34,113.34,0,0,0,249,319.25c28.75,0,52.81-9.1,71.5-27.05,19.56-19.28,29.5-45.53,29.5-78C350,187.27,341,166.34,322.47,150.27Z"/><path class="cls-2" d="M181,226.59c0-8.88-3.2-16.38-9.79-22.94a31.42,31.42,0,0,0-19.43-9.56A115.38,115.38,0,0,0,149.81,215c0,15.86,2.43,30.24,7.25,43a32.25,32.25,0,0,0,14.11-8.53C177.76,243,181,235.47,181,226.59Z"/><path class="cls-1" d="M219.54,154.52C201.07,136.25,177.44,127,149.33,127c-28.74,0-52.8,9.18-71.49,27.3-19.58,19.08-29.51,45.17-29.51,77.54,0,27.13,9,48,27.48,63.85,15.41,13.28,35.67,21.61,60.23,24.75l7.93,1-3.61,9.5L71.21,421h68.28L198,343.94c18.31-22.55,31.24-43.9,38.42-58.47a122.77,122.77,0,0,0,12.11-53C248.49,200.88,238.75,173.82,219.54,154.52Zm-42.1,101.31c-8.22,8.19-18.09,12.35-29.33,12.35S127,264,118.76,255.83s-12.4-18-12.4-29.24,4.18-21.05,12.4-29.24a41,41,0,0,1,58.68,0c8.24,8.2,12.41,18,12.41,29.24S185.68,247.63,177.44,255.83Z"/><path class="cls-1" d="M219.67,439.47H206.11v12.58h15.11v3.78H201.6v-34.9h18.85v3.78H206.11v11h13.56Z"/><path class="cls-1" d="M226.91,437.55c0-2.59,0-4.71-.2-6.78h4l.26,4.14h.11a9.21,9.21,0,0,1,8.28-4.71c3.47,0,8.85,2.07,8.85,10.67v15h-4.55V441.38c0-4-1.5-7.4-5.8-7.4a6.68,6.68,0,0,0-6.42,6.78v15.07h-4.56Z"/><path class="cls-1" d="M260.93,423.57v7.2h6.52v3.47h-6.52v13.51c0,3.11.87,4.87,3.41,4.87a10.38,10.38,0,0,0,2.64-.31l.21,3.41a11,11,0,0,1-4,.63,6.34,6.34,0,0,1-4.92-1.92c-1.29-1.35-1.76-3.57-1.76-6.52V434.24h-3.88v-3.47h3.88v-6Z"/><path class="cls-1" d="M274.8,444.13c.1,6.16,4,8.7,8.59,8.7a16.41,16.41,0,0,0,6.94-1.3l.78,3.26a20.22,20.22,0,0,1-8.34,1.56c-7.71,0-12.32-5.08-12.32-12.64s4.45-13.51,11.75-13.51c8.18,0,10.36,7.2,10.36,11.8a17.42,17.42,0,0,1-.16,2.13Zm13.36-3.26c0-2.9-1.2-7.41-6.32-7.41-4.61,0-6.63,4.25-7,7.41Z"/><path class="cls-1" d="M298.2,438.59c0-2.95-.06-5.49-.21-7.82h4l.16,4.92h.21c1.14-3.37,3.88-5.49,6.94-5.49a4.65,4.65,0,0,1,1.29.16v4.29a7.08,7.08,0,0,0-1.55-.15c-3.21,0-5.49,2.43-6.11,5.85a12.07,12.07,0,0,0-.21,2.12v13.36h-4.5Z"/><path class="cls-1" d="M315.33,439c0-3.21-.1-5.8-.21-8.18h4.09l.21,4.3h.1a9.86,9.86,0,0,1,8.91-4.87c6.06,0,10.61,5.13,10.61,12.74,0,9-5.49,13.46-11.39,13.46a8.78,8.78,0,0,1-7.71-3.94h-.11v13.62h-4.5Zm4.5,6.68a10.57,10.57,0,0,0,.21,1.86,7,7,0,0,0,6.84,5.34c4.81,0,7.61-3.94,7.61-9.69,0-5-2.64-9.32-7.46-9.32a7.27,7.27,0,0,0-6.88,5.65,7.18,7.18,0,0,0-.32,1.86Z"/><path class="cls-1" d="M344.79,438.59c0-2.95-.06-5.49-.21-7.82h4l.16,4.92h.21c1.14-3.37,3.88-5.49,6.93-5.49a4.72,4.72,0,0,1,1.3.16v4.29a7.08,7.08,0,0,0-1.55-.15c-3.22,0-5.49,2.43-6.11,5.85a12.07,12.07,0,0,0-.21,2.12v13.36h-4.5Z"/><path class="cls-1" d="M367,423.73a2.82,2.82,0,0,1-5.64,0,2.78,2.78,0,0,1,2.85-2.85A2.7,2.7,0,0,1,367,423.73Zm-5.07,32.1V430.77h4.56v25.06Z"/><path class="cls-1" d="M373.41,451.17a12,12,0,0,0,6,1.81c3.31,0,4.86-1.66,4.86-3.73s-1.29-3.36-4.66-4.6c-4.5-1.61-6.62-4.1-6.62-7.1,0-4,3.26-7.35,8.64-7.35a12.45,12.45,0,0,1,6.16,1.55l-1.13,3.32a9.8,9.8,0,0,0-5.13-1.45c-2.69,0-4.19,1.55-4.19,3.41,0,2.08,1.5,3,4.76,4.25,4.35,1.66,6.58,3.83,6.58,7.56,0,4.4-3.42,7.51-9.38,7.51a14.36,14.36,0,0,1-7-1.71Z"/><path class="cls-1" d="M397.07,444.13c.1,6.16,4,8.7,8.59,8.7a16.41,16.41,0,0,0,6.94-1.3l.78,3.26a20.22,20.22,0,0,1-8.34,1.56c-7.71,0-12.32-5.08-12.32-12.64s4.45-13.51,11.75-13.51c8.18,0,10.36,7.2,10.36,11.8a17.42,17.42,0,0,1-.16,2.13Zm13.36-3.26c.05-2.9-1.19-7.41-6.32-7.41-4.61,0-6.63,4.25-7,7.41Z"/></svg>