<svg xmlns="http://www.w3.org/2000/svg" viewBox="0 0 80.8 68.47"><g id="map"><path d="M40.72,4.66A19.45,19.45,0,0,1,59.21,17.9,14.57,14.57,0,0,1,73.43,32.75,15.07,15.07,0,0,1,58.59,47.63H22A14.58,14.58,0,0,1,7.36,32.75,15.17,15.17,0,0,1,21.82,17.9,20.23,20.23,0,0,1,40.72,4.66m0-1.62a21.88,21.88,0,0,0-20,13.33A16.72,16.72,0,0,0,5.75,32.73,16.19,16.19,0,0,0,22,49.25H58.59A16.68,16.68,0,0,0,75.05,32.78,16.18,16.18,0,0,0,60.36,16.35,21.09,21.09,0,0,0,40.72,3Z"/><path d="M16.31,38.42A2.36,2.36,0,0,1,18.57,36a2.34,2.34,0,1,1,.09,4.68A2.38,2.38,0,0,1,16.31,38.42Z"/><path d="M31.15,38.42A2.36,2.36,0,0,1,33.41,36a2.34,2.34,0,1,1,.09,4.68A2.38,2.38,0,0,1,31.15,38.42Z"/><path d="M38.69,34.29a3.49,3.49,0,0,0-3.33-3.45H32.91a1.27,1.27,0,0,0-.13-.19l-3.52-4.29a1.82,1.82,0,0,0-1.38-.63H20.25a1.78,1.78,0,0,0-1.38.64l-3.52,4.28a1.27,1.27,0,0,0-.13.19H13.11a.81.81,0,0,0-.81.81V37a.81.81,0,0,0,.81.81h2.17A3.43,3.43,0,0,1,18.53,35,3.56,3.56,0,0,1,22,37.8h8.11A3.43,3.43,0,0,1,33.37,35a3.56,3.56,0,0,1,3.48,2.85h.47a1.38,1.38,0,0,0,1.38-1.38V34.51A1.7,1.7,0,0,0,38.69,34.29ZM23.31,31.64H16.72l3.53-4.29h3.06Zm8.08,0H24.84V27.35h3.05l3.5,4.27Z"/><g id="map-2" data-name="map"><path d="M45.17,15.81H43.92v-2h0a3.53,3.53,0,0,0-7.05,0v2H35.62a.52.52,0,0,0-.51.52h0v7.15a.51.51,0,0,0,.51.51h9.55a.51.51,0,0,0,.52-.51h0V16.33a.52.52,0,0,0-.52-.52Zm-3.63,6H39.25l.61-1.92a1.21,1.21,0,0,1,1.07-2.16,1.21,1.21,0,0,1,.55,1.62,1.2,1.2,0,0,1-.55.54Zm1.23-6H38v-2a2.37,2.37,0,0,1,4.74,0Z"/></g><polygon points="48.71 42.23 48.71 33.91 49.63 33.91 49.63 41.32 62.16 41.32 62.16 33.91 63.07 33.91 63.07 42.23 48.71 42.23"/><polygon points="55.8 25.79 47.9 33.69 47.25 33.04 55.8 24.49 64.53 33.23 63.89 33.87 55.8 25.79"/><rect x="52.22" y="35.19" width="2.97" height="6.29"/><rect x="56.94" y="31.52" width="2.97" height="6.29"/><path d="M19.93,54.61a3.79,3.79,0,1,0,0,.65c0-.1,0-.21,0-.32S19.94,54.72,19.93,54.61Zm-3.76,3a2.68,2.68,0,1,1,2.65-3,1.76,1.76,0,0,1,0,.33,1.66,1.66,0,0,1,0,.32A2.67,2.67,0,0,1,16.17,57.61Z"/><path d="M63.68,51.16a3.77,3.77,0,0,0-3.75,3.45,1.76,1.76,0,0,0,0,.33,1.66,1.66,0,0,0,0,.32,3.77,3.77,0,1,0,3.75-4.1Zm0,6.45A2.67,2.67,0,0,1,61,55.26c0-.1,0-.21,0-.32s0-.22,0-.33a2.67,2.67,0,1,1,2.65,3Z"/><path d="M53.71,58.05A3.78,3.78,0,0,0,50,61.5c0,.11,0,.21,0,.33s0,.22,0,.33a3.78,3.78,0,1,0,3.76-4.11Zm0,6.45a2.66,2.66,0,0,1-2.65-2.34,1.84,1.84,0,0,1,0-.33,1.76,1.76,0,0,1,0-.33,2.67,2.67,0,1,1,2.65,3Z"/><path d="M29.87,61.5a3.79,3.79,0,1,0,0,.65c0-.11,0-.21,0-.32S29.88,61.61,29.87,61.5Zm-3.76,3a2.68,2.68,0,1,1,2.65-3,1.77,1.77,0,0,1,0,.33,1.72,1.72,0,0,1,0,.32A2.67,2.67,0,0,1,26.11,64.5Z"/><path d="M25.2,54.61v.65H18.82a1.66,1.66,0,0,0,0-.32,1.76,1.76,0,0,0,0-.33Z"/><rect x="24.86" y="48.51" width="0.65" height="6.75"/><path d="M35,61.5v.65H28.76a1.72,1.72,0,0,0,0-.32,1.77,1.77,0,0,0,0-.33Z"/><rect x="34.67" y="48.19" width="0.65" height="13.96"/><path d="M61,54.94c0,.11,0,.22,0,.32H54.69v-.65H61C61,54.72,61,54.82,61,54.94Z"/><rect x="54.39" y="48.47" width="0.65" height="6.78"/><path d="M51,61.83a1.84,1.84,0,0,0,0,.33H44.8V61.5h6.26A1.76,1.76,0,0,0,51,61.83Z"/><rect x="44.5" y="48.28" width="0.65" height="13.86"/></g></svg>