<svg xmlns="http://www.w3.org/2000/svg" viewBox="0 0 497.99 183.3"><defs><style>.cls-1{fill:#585858;}.cls-2{font-size:17px;font-family:Lato;font-weight:800;}.cls-11,.cls-2,.cls-7{fill:#fff;}.cls-3{letter-spacing:-0.01em;}.cls-4{letter-spacing:-0.01em;}.cls-5{letter-spacing:0em;}.cls-6{letter-spacing:-0.01em;}.cls-8{opacity:0.69;}.cls-10,.cls-9{fill:none;}.cls-9{stroke:#9c3;stroke-linecap:round;stroke-miterlimit:10;stroke-width:1.72px;stroke-dasharray:0.29 4.57;}.cls-11{font-size:13px;font-family:Lato-Regular, Lato;}.cls-12{letter-spacing:-0.02em;}.cls-13{letter-spacing:-0.02em;}.cls-14{letter-spacing:-0.01em;}.cls-15{letter-spacing:-0.04em;}.cls-16{letter-spacing:0em;}.cls-17{letter-spacing:-0.01em;}.cls-18{letter-spacing:-0.02em;}.cls-19{letter-spacing:-0.12em;}.cls-20{letter-spacing:-0.03em;}.cls-21{letter-spacing:-0.01em;}.cls-22{letter-spacing:-0.01em;}.cls-23{letter-spacing:-0.01em;}.cls-24{letter-spacing:-0.01em;}.cls-25{letter-spacing:0em;}.cls-26{letter-spacing:-0.01em;}.cls-27{letter-spacing:-0.02em;}</style></defs><g id="map"><rect class="cls-1" width="497.99" height="183.3" rx="6.66"/><text class="cls-2" transform="translate(13.94 26.48)"><tspan class="cls-3">A</tspan><tspan class="cls-4" x="11.86" y="0">cc</tspan><tspan x="28.09" y="0">ess </tspan><tspan class="cls-5" x="56.33" y="0">t</tspan><tspan x="62.77" y="0">o all </tspan><tspan class="cls-6" x="98.14" y="0">G</tspan><tspan class="cls-4" x="110.31" y="0">r</tspan><tspan x="116.64" y="0">oups</tspan></text><circle class="cls-7" cx="54.24" cy="89.12" r="2.1" transform="translate(-0.25 0.15) rotate(-0.16)"/><path class="cls-7" d="M57.65,92.54h0l0,0-.1.07a4.82,4.82,0,0,1-1.1.77l-.4-.81a3.9,3.9,0,0,0-.05-7l.4-.82A4.8,4.8,0,0,1,59,88.33h0A4.82,4.82,0,0,1,57.65,92.54Z"/><path class="cls-7" d="M52.52,92.63l-.41.82a4.8,4.8,0,0,1-2.62-3.53h0a4.82,4.82,0,0,1,1.35-4.2h0l.1-.07a4.91,4.91,0,0,1,1.22-.84l.4.81a3.9,3.9,0,0,0,0,7Z"/><path class="cls-7" d="M59.1,94.33h0a.36.36,0,0,1-.12.08,7,7,0,0,1-1.53,1l-.4-.81a6.18,6.18,0,0,0,3.34-6.38v-.05s0-.06,0-.1,0-.08,0-.13h0A6.23,6.23,0,0,0,57,83.57l.41-.82a7.1,7.1,0,0,1,3.82,5,.13.13,0,0,1,0,.06.36.36,0,0,1,0,.1h0v0s0,.07,0,.1v.06A7.13,7.13,0,0,1,59.1,94.33Z"/><path class="cls-7" d="M51.5,94.68l-.4.83a7.12,7.12,0,0,1-3.84-5.05V90.4s0-.07,0-.11h0l0-.11a.11.11,0,0,0,0,0,7.11,7.11,0,0,1,2.19-6.19h0l.12-.07a7.13,7.13,0,0,1,1.65-1.11l.4.81A6.2,6.2,0,0,0,48.1,90v0s0,.07,0,.1a.69.69,0,0,1,0,.13v0A6.19,6.19,0,0,0,51.5,94.68Z"/><path class="cls-7" d="M84.08,100.57h0l-.1.07a4.53,4.53,0,0,1-1.1.77l-.4-.81a3.89,3.89,0,0,0,0-7l.41-.83a4.85,4.85,0,0,1,2.61,3.53h0A4.82,4.82,0,0,1,84.08,100.57Z"/><path class="cls-7" d="M79,100.66l-.41.82A4.82,4.82,0,0,1,75.92,98h0a4.82,4.82,0,0,1,1.35-4.19h0a.31.31,0,0,1,.09-.07,4.78,4.78,0,0,1,1.23-.84l.4.81a3.9,3.9,0,0,0-.06,7Z"/><path class="cls-7" d="M85.53,102.36h0a.36.36,0,0,1-.12.08,6.71,6.71,0,0,1-1.52,1l-.4-.8a6.22,6.22,0,0,0,3.34-6.38v-.06s0-.06,0-.09a.68.68,0,0,0,0-.14h0a6.17,6.17,0,0,0-3.35-4.39l.41-.83a7.08,7.08,0,0,1,3.82,5s0,0,0,.06,0,.07,0,.1v0h0s0,.07,0,.1v.06A7.13,7.13,0,0,1,85.53,102.36Z"/><path class="cls-7" d="M77.94,102.71l-.41.83a7.12,7.12,0,0,1-3.84-5.05v-.06a.3.3,0,0,0,0-.1v0h0l0-.1v-.06A7.1,7.1,0,0,1,75.82,92h0l.11-.08a7.46,7.46,0,0,1,1.65-1.11l.4.81A6.21,6.21,0,0,0,74.53,98v.06s0,.06,0,.09l0,.14h0A6.2,6.2,0,0,0,77.94,102.71Z"/><path class="cls-7" d="M68.27,105h0l0,0-.1.07a4.82,4.82,0,0,1-1.1.77l-.4-.81a3.9,3.9,0,0,0-.05-7l.4-.82a4.8,4.8,0,0,1,2.61,3.53h0A4.82,4.82,0,0,1,68.27,105Z"/><path class="cls-7" d="M63.14,105.11l-.41.82a4.8,4.8,0,0,1-2.62-3.53h0a4.82,4.82,0,0,1,1.35-4.2h0l.1-.07a4.91,4.91,0,0,1,1.22-.84l.4.81a3.9,3.9,0,0,0,0,7Z"/><path class="cls-7" d="M69.72,106.81h0a.36.36,0,0,1-.12.08,7,7,0,0,1-1.53,1l-.4-.81A6.18,6.18,0,0,0,71,100.74v0s0-.06,0-.1,0-.08,0-.13h0a6.23,6.23,0,0,0-3.35-4.4l.41-.82a7.1,7.1,0,0,1,3.82,5,.13.13,0,0,1,0,.06.36.36,0,0,1,0,.1v0h0s0,.07,0,.1v.06A7.13,7.13,0,0,1,69.72,106.81Z"/><path class="cls-7" d="M62.12,107.16l-.4.83a7.12,7.12,0,0,1-3.84-5v-.06s0-.07,0-.11h0l0-.1a.13.13,0,0,0,0-.06A7.11,7.11,0,0,1,60,96.4h0l.12-.07a7.13,7.13,0,0,1,1.65-1.11l.4.81a6.2,6.2,0,0,0-3.46,6.44v.05s0,.07,0,.1a.69.69,0,0,1,0,.13v0A6.19,6.19,0,0,0,62.12,107.16Z"/><circle class="cls-7" cx="80.67" cy="97.15" r="2.1" transform="translate(-0.28 0.23) rotate(-0.16)"/><circle class="cls-7" cx="64.86" cy="101.6" r="2.1" transform="translate(-0.29 0.19) rotate(-0.16)"/><path class="cls-7" d="M74.5,67.27a2.85,2.85,0,0,1,2.7,3,3.05,3.05,0,0,1-1.13,2.42A19.21,19.21,0,0,0,78.13,78l5.1,7.93h0l2.45.8v.94H63.32v-1l2.62-.73h0l5.14-8.09a19.53,19.53,0,0,0,2-5,3.07,3.07,0,0,1-1.25-2.52,2.85,2.85,0,0,1,2.69-3m0,14.46,2.25-1.46-.57-.88,0-.09a27,27,0,0,1-1.58-3.43,27.67,27.67,0,0,1-1.51,3.28l0,.08-.7,1.1,2.21,1.4m5.35,3.36-2.79-4.34-2,1.31,4.82,3m-10.59,0,4.71-3-2-1.26L69.27,85.1m-.19.8h11l-5.57-3.5-5.43,3.5m-.32,0h0v0l0,0M74.5,65a5.1,5.1,0,0,0-4.94,5.23,5.45,5.45,0,0,0,1,3.16,19.53,19.53,0,0,1-1.43,3.27L64.51,84l-1.8.5-1.64.46v5H87.94V85.09l-1.55-.51L86,84.44l.21-.78H84.46l-4.39-6.83a19.18,19.18,0,0,1-1.53-3.56,5.47,5.47,0,0,0,.91-3,5.1,5.1,0,0,0-5-5.23Z"/><path class="cls-7" d="M77.22,74.65a.86.86,0,0,1,0,.23A14.87,14.87,0,0,1,84,85.2c0,.12,0,.24,0,.36h1.34c0-.19-.05-.38-.08-.56a16.21,16.21,0,0,0-5.53-9.88,15.64,15.64,0,0,0-2.85-2,3.42,3.42,0,0,1-.23.47A1.21,1.21,0,0,1,77.22,74.65Z"/><path class="cls-7" d="M91.51,95.63V95.5s0-.08,0-.11v0a.36.36,0,0,1,0-.11V95.1A10.91,10.91,0,0,0,86,87.56v.89H84.78a9.61,9.61,0,0,1,5.34,6.9s0,.05,0,.08l0,.14h0v0a.68.68,0,0,1,0,.14.22.22,0,0,1,0,.08,9.61,9.61,0,0,1-3,8.37h0a.62.62,0,0,1-.16.1,9.55,9.55,0,0,1-4.83,2.32,10.5,10.5,0,0,1-1.57.13,9.61,9.61,0,0,1-3.74-.76.66.66,0,0,1-.2-.06h0a9.87,9.87,0,0,1-2.6-1.74,9.6,9.6,0,0,1-2.69,4.45h0a.57.57,0,0,1-.16.11,9.59,9.59,0,0,1-4.83,2.32,10.61,10.61,0,0,1-1.58.12,9.42,9.42,0,0,1-3.73-.76.46.46,0,0,1-.2-.05h0a9.63,9.63,0,0,1-5.49-7,.19.19,0,0,1,0-.08l0-.14h0v0a.68.68,0,0,0,0-.14.22.22,0,0,0,0-.08,9.65,9.65,0,0,1,.38-4.33A9.7,9.7,0,0,1,50.5,98a.46.46,0,0,1-.2,0h0a9.63,9.63,0,0,1-5.49-7s0,0,0-.08a.78.78,0,0,0,0-.14h0v0a.59.59,0,0,0,0-.14s0-.06,0-.08a9.62,9.62,0,0,1,3-8.37h0l.16-.1a9.58,9.58,0,0,1,4.84-2.32,9.43,9.43,0,0,1,3.8.14,14.84,14.84,0,0,1,10.47-7,14.95,14.95,0,0,1,4.75,0,2.62,2.62,0,0,1-.06-.57,2.68,2.68,0,0,1,.11-.76,15.88,15.88,0,0,0-2.49-.2,16.2,16.2,0,0,0-13.41,7.06,10.74,10.74,0,0,0-3.39,0,10.92,10.92,0,0,0-5.39,2.54,1.46,1.46,0,0,0-.28.21h0a10.94,10.94,0,0,0-3.36,9.52v.14s0,.08,0,.11v0s0,.08,0,.12v.13a11,11,0,0,0,6.2,7.91h0l0,0a2,2,0,0,0,.39.14,10.7,10.7,0,0,0,3.9.8,11,11,0,0,0,0,3.08v.13s0,.08,0,.11v0s0,.08,0,.12v.13a11,11,0,0,0,6.2,7.91h0l0,0a1.74,1.74,0,0,0,.38.14,11,11,0,0,0,4.11.8,11.89,11.89,0,0,0,1.79-.14A10.84,10.84,0,0,0,72,109.84a2,2,0,0,0,.29-.22h0a11.25,11.25,0,0,0,2.39-3.26,11.66,11.66,0,0,0,1.39.76h0l0,0a2.23,2.23,0,0,0,.39.13,10.91,10.91,0,0,0,4.11.81,10.69,10.69,0,0,0,1.78-.15,10.84,10.84,0,0,0,5.39-2.54,1.54,1.54,0,0,0,.29-.21h0A11,11,0,0,0,91.51,95.63Z"/><rect class="cls-7" x="73.74" y="78.85" width="1.44" height="1.59"/><rect class="cls-7" x="73.45" y="83.81" width="2.36" height="1.4"/><g class="cls-8"><circle class="cls-9" cx="67.46" cy="91.65" r="37.13"/></g><path class="cls-7" d="M427.2,72a14.71,14.71,0,0,1,14,10A11,11,0,0,1,452,93.22a11.41,11.41,0,0,1-11.23,11.25H413A11,11,0,0,1,402,93.22,11.48,11.48,0,0,1,412.9,82a15.3,15.3,0,0,1,14.3-10m0-2.07A17.41,17.41,0,0,0,411.46,80a13.53,13.53,0,0,0-11.57,13.15A13.11,13.11,0,0,0,413,106.55h27.7A13.46,13.46,0,0,0,454,93.25,13,13,0,0,0,442.65,80,16.8,16.8,0,0,0,427.2,69.89Z"/><path class="cls-7" d="M436.88,99.38a.59.59,0,0,0-.58-.59h-7.39a2.62,2.62,0,0,0-1.18-1.08v-1.4h7.87A1.28,1.28,0,0,0,436.88,95v-2.7a1.28,1.28,0,0,0-1.28-1.28h-7.88v-.64h7.88a1.28,1.28,0,0,0,1.28-1.28v-2.7a1.28,1.28,0,0,0-1.28-1.28h-7.88v-.64h7.88a1.28,1.28,0,0,0,1.28-1.29v-2.7a1.28,1.28,0,0,0-1.28-1.28H418.31A1.29,1.29,0,0,0,417,80.52v2.71a1.29,1.29,0,0,0,1.28,1.28h7.37v.64h-7.37A1.28,1.28,0,0,0,417,86.43v2.7a1.28,1.28,0,0,0,1.28,1.28h7.38v.64h-7.38A1.29,1.29,0,0,0,417,92.33V95a1.29,1.29,0,0,0,1.28,1.28h7.38v1.37a2.53,2.53,0,0,0-1.26,1.11h-6.8a.58.58,0,0,0-.59.58v1.4a.58.58,0,0,0,.59.58h6.8a2.58,2.58,0,0,0,4.48,0h7.39a.58.58,0,0,0,.58-.58Zm-1.28-7.16a.12.12,0,0,1,.12.11V95a.12.12,0,0,1-.12.12h-2.88V92.22Zm0-5.91a.12.12,0,0,1,.12.12v2.7a.13.13,0,0,1-.12.12h-2.88V86.31Zm0-5.9a.12.12,0,0,1,.12.11v2.71a.12.12,0,0,1-.12.11h-2.88V80.41Z"/><g class="cls-8"><circle class="cls-9" cx="426.96" cy="91.65" r="37.13"/></g><path class="cls-7" d="M334.55,87.15h0L309.09,72.67h0a1,1,0,0,0-.47-.13,1,1,0,0,0-.35.07h0l0,0L279.8,85.43h0a1,1,0,0,0-.6.89V93.7h0a1,1,0,0,0,.54.75h0l25.69,14.32h0a.9.9,0,0,0,.46.12.88.88,0,0,0,.33-.06h0l.06,0,28.1-12.86h0a1,1,0,0,0,.64-.9V88A.94.94,0,0,0,334.55,87.15ZM282,94.64l-1.82-1V90.45l1.82,1Zm2.62,1.46-1.83-1V91.91l1.83,1Zm2.62,1.47-1.83-1V93.38l1.83,1ZM289.84,99,288,98V94.84l1.83,1Zm2.62,1.46-1.83-1V96.3l1.83,1Zm2.61,1.46-1.82-1V97.76l1.82,1Zm2.62,1.46-1.83-1V99.22l1.83,1Zm2.61,1.46-1.82-1v-3.17l1.82,1Zm2.62,1.46-1.83-1v-3.17l1.83,1Zm2.61,1.46-1.82-1V103.6l1.82,1Zm2.71-.92-2,.92v-3.15l2-.92Zm2.87-1.32-2,.92v-3.15l2-.92Zm2.87-1.33-2,.93V102l2-.93Zm2.87-1.32-2,.92v-3.14l2-.93Zm2.88-1.32-2,.92V99.35l2-.92Zm2.87-1.33-2,.93V98l2-.93Zm2.87-1.32-2,.92V96.71l2-.93Zm2.87-1.32-2,.92V95.38l2-.92Zm2.88-1.33-2,.93V94.06l2-.93ZM334.09,95l-2,.92V92.74l2-.93Zm-28.17,6L280.16,86.5l28.42-12.81,25.51,14.48Z"/><g class="cls-8"><circle class="cls-9" cx="307.12" cy="91.65" r="37.13"/></g><path class="cls-7" d="M296.87,89.14c-1,.46-2.09.93-3.14,1.38h0c-.78-.43-.71-1.1.15-1.48a3.71,3.71,0,0,1,3,.07Z"/><path class="cls-7" d="M298.72,90.15q-1.58.7-3.15,1.38l-1.42-.78,3.14-1.38Z"/><path class="cls-7" d="M301.15,91.49c-1,.47-2.1.93-3.15,1.39l-2-1.12q1.57-.7,3.15-1.38Z"/><path class="cls-7" d="M302.51,93.81a3.73,3.73,0,0,1-2.95-.08l-1.15-.63,3.16-1.37,1.1.6C303.44,92.76,303.37,93.42,302.51,93.81Z"/><path class="cls-7" d="M315.55,81.23l-2.88,1.24-.31.13-.52-.29c-.77-.42-.7-1.09.15-1.47a3.71,3.71,0,0,1,3,.07Z"/><path class="cls-7" d="M320.65,84.05a8.82,8.82,0,0,1-4.58.55H316l-3.21-1.77c1-.44,2.12-.93,3.16-1.37Z"/><path class="cls-7" d="M320.66,85.62a3.75,3.75,0,0,1-3-.08l-1.12-.62c.61,0,1.24,0,1.86.08a3,3,0,0,0,1.47-.25l1.08-.48C321.57,84.68,321.44,85.26,320.66,85.62Z"/><path class="cls-7" d="M303.26,85c0,.34-.07.68-.1,1s-.22.47-.65.65l-5.05,2.19-1.23-.68Z"/><path class="cls-7" d="M310.45,90.28a15.53,15.53,0,0,1-.19,1.79.66.66,0,0,1-.39.4c-.8.38-1.61.74-2.44,1.09h0a3.9,3.9,0,0,1-2.11-.35l-.58-.32.6-.28a1.92,1.92,0,0,1,1.29-.16,2.19,2.19,0,0,0,1.72-.35c.34-.31.3-.62-.17-.9a2.72,2.72,0,0,0-1.82-.25c-.65.14-1,.45-1,.8a1.5,1.5,0,0,0,.15.38l-1.22.53-2.17-1.2c.31-.13.62-.26.94-.41a1.75,1.75,0,0,1,.7-.06,2.66,2.66,0,0,0,2-.29c.39-.31.33-.69-.17-1a2.83,2.83,0,0,0-1.84-.2c-.71.17-1,.49-.87.93a.3.3,0,0,1-.19.34l-1,.43-2-1.13L302.2,89a5.88,5.88,0,0,1,2.84-.49c3.11.16,3.12.12,5.12,1.34A.52.52,0,0,1,310.45,90.28Z"/><path class="cls-7" d="M315.62,90.76l-.15.06-.67-.38-.59.27c-.34-.21-.3-.52.1-.7a1.86,1.86,0,0,1,1.41,0C316.07,90.26,316,90.58,315.62,90.76Z"/><path class="cls-7" d="M314.56,85.07a1.79,1.79,0,0,1-1.4-.07c-.36-.21-.31-.52.11-.69a1.85,1.85,0,0,1,1-.08h0l.58.31h0C315,84.74,314.84,85,314.56,85.07Z"/><path class="cls-7" d="M319,86.82l-3.25,1.42a2.69,2.69,0,0,1-1.34.23c-1,0-1.93,0-2.9-.11a2.81,2.81,0,0,1-.94-.24c-.83-.43-1.54-.93-2.42-1.33s-1.25-.92-1-1.53c.07-.18.09-.3.51-.38.69-.13,1-.49.89-.84s-.75-.63-1.45-.66h-.12l3.19-1.44,1.69.94c-1.08.57-1.68,1.19-1.47,2.06.06.27-.08.46-.66.6-.84.2-1,.75-.44,1.13a2.86,2.86,0,0,0,2.32.14c.7-.3.82-.9,0-1.14s-.69-.58-.64-.92A4.11,4.11,0,0,0,311,84c0-.26.2-.43.58-.6l.61-.26,1.46.8h-.09c-.7.07-1.23.38-1.26.73s.44.7,1.12.8a2.58,2.58,0,0,0,1.86-.35,1.2,1.2,0,0,1,.32-.11Z"/><path class="cls-7" d="M321.45,91.78l-.4-.22c-1-.54-1.59-1.06-1.61-1.68l1.57.87C321.53,91,321.67,91.43,321.45,91.78Z"/><path class="cls-7" d="M306,80.53l-1.58.7a1.76,1.76,0,0,1,.2.34c.13.34-.2.67-.82.83a2.85,2.85,0,0,1-1.86-.15c-.5-.25-.62-.61-.29-.93a2.07,2.07,0,0,1,1.67-.39,2,2,0,0,0,1.29-.18l.71-.31a17.7,17.7,0,0,0-4.3,0L300.34,79c0-.08-.2-.13-.36-.12a.4.4,0,0,0-.13,0c-.08,0-.12.09-.09.14l.7,1.5a14.13,14.13,0,0,0-3.57,1,7,7,0,0,0-2.43,1.66l-2.92-.5a.43.43,0,0,0-.38.1c-.06.08,0,.16.18.19l2.89.49c-1.12,1.49-.66,3.18,1.5,4.37l7.6-3.43c0-.25.05-.51.07-.76s.2-.46.6-.64l4.42-2A12.5,12.5,0,0,0,306,80.53Zm-8.89,4.41a1.38,1.38,0,0,1-1.11,0c-.29-.16-.26-.41.06-.55a1.4,1.4,0,0,1,1.12,0C297.47,84.55,297.45,84.8,297.12,84.94Z"/><path class="cls-7" d="M309.61,81.66,304,84.21c0-.13,0-.25.06-.39a.9.9,0,0,1,.54-.55l4.34-2A7.75,7.75,0,0,1,309.61,81.66Z"/><path class="cls-7" d="M303.75,82.06a1.75,1.75,0,0,1-1.4,0c-.37-.2-.36-.51,0-.7a1.79,1.79,0,0,1,1.4,0C304.16,81.57,304.15,81.87,303.75,82.06Z"/><path class="cls-7" d="M305.07,90.65a1.82,1.82,0,0,1-1.4-.07c-.35-.22-.3-.53.12-.7a1.76,1.76,0,0,1,1.39.07C305.53,90.16,305.48,90.48,305.07,90.65Z"/><path class="cls-7" d="M307.62,92.06a1.72,1.72,0,0,1-1.39,0c-.36-.2-.33-.52.06-.7a1.75,1.75,0,0,1,1.4.05C308.06,91.57,308,91.88,307.62,92.06Z"/><path class="cls-7" d="M319.34,91a.89.89,0,0,1-.52-.73,1.34,1.34,0,0,1,0-.72l-.95-.52,1.11-.5c.86-.39,1-1,.33-1.49L316,88.54a3.18,3.18,0,0,1-1.46.24c-1.1-.06-2.19-.06-3.28-.13a2.67,2.67,0,0,1-1-.25c-1.11-.59-2.16-1.22-3.26-1.81-.43-.23-.66-.46-.55-.77a3.12,3.12,0,0,0,.08-.52c.05-.21,0-.36-.45-.48s-.73-.38-.73-.64c0,0,0-.06,0-.1l-1.45.66c-.06.48-.1,1-.13,1.43,0,.3-.24.5-.69.69-1.73.75-3.46,1.49-5.18,2.25l1.43.79,3.46-1.51a3.1,3.1,0,0,1,1.11-.19c1.24,0,2.49.06,3.72.13a3.08,3.08,0,0,1,1.13.27A7.23,7.23,0,0,1,311,89.94c.36.51-.09,1.15,0,1.73s-.3.92-1.07,1.25l2.86,1.58a3.75,3.75,0,0,0,3,.07c.86-.39.92-1,.15-1.48l-3.1-1.71,1-.48a1.19,1.19,0,0,1-.23-.16c-.32-.32-.18-.71.37-.95a3,3,0,0,1,1.93-.06c.62.2.85.57.6,1a2.65,2.65,0,0,1-.17.22l2.77,1.56h0a3.6,3.6,0,0,0,1.81-.24l.32-.18Zm-6.15,2.17a3,3,0,0,1,2.28.06c.6.33.53.86-.13,1.14a2.89,2.89,0,0,1-2.22-.09C312.55,94,312.57,93.47,313.19,93.18Z"/><path class="cls-7" d="M313.55,94.08a1.79,1.79,0,0,0,1.4.07c.4-.17.44-.5.09-.71a1.9,1.9,0,0,0-1.41-.06C313.24,93.56,313.2,93.88,313.55,94.08Z"/><path class="cls-7" d="M315,94.15a1.79,1.79,0,0,1-1.4-.07c-.35-.2-.31-.52.08-.7a1.9,1.9,0,0,1,1.41.06C315.39,93.65,315.35,94,315,94.15Z"/><path class="cls-7" d="M311.19,86.55a1.86,1.86,0,0,1-1.41,0c-.37-.2-.36-.52,0-.7a1.72,1.72,0,0,1,1.39,0C311.58,86.06,311.58,86.37,311.19,86.55Z"/><path class="cls-7" d="M307.57,84.55a1.79,1.79,0,0,1-1.4-.06c-.36-.2-.31-.51.1-.69a1.72,1.72,0,0,1,1.39,0C308,84.06,308,84.37,307.57,84.55Z"/><path class="cls-7" d="M187.53,72.25a14.7,14.7,0,0,1,14,10A11,11,0,0,1,212.29,93.5a11.41,11.41,0,0,1-11.24,11.26h-27.7a11,11,0,0,1-11-11.26,11.46,11.46,0,0,1,10.94-11.23,15.27,15.27,0,0,1,14.29-10m0-2.07A17.38,17.38,0,0,0,171.8,80.32a13.53,13.53,0,0,0-11.58,13.15,13.11,13.11,0,0,0,13.13,13.36h27.7a13.47,13.47,0,0,0,13.31-13.29A13,13,0,0,0,203,80.3a16.81,16.81,0,0,0-15.46-10.12Z"/><path class="cls-7" d="M167.33,99.29a.67.67,0,0,1-.67.68.67.67,0,0,1-.68-.68,9.34,9.34,0,0,1,.74-3.65,8.77,8.77,0,0,1,2-3,9,9,0,0,1,3-2,9.4,9.4,0,0,1,7.31,0,7.28,7.28,0,0,1,1.48.8l-1.46.72a7.36,7.36,0,0,0-3.65-.93A8.07,8.07,0,0,0,167.33,99.29Z"/><path class="cls-7" d="M177.61,100.84a3.1,3.1,0,0,1-2.2.91,3.13,3.13,0,0,1-2.22-5.33,2.92,2.92,0,0,1,.93-.64l8.09-4-4,8.1A3.32,3.32,0,0,1,177.61,100.84Z"/><path class="cls-7" d="M184.12,100a.67.67,0,0,1-.68-.68A8,8,0,0,0,182,94.71l.68-1.38a9.93,9.93,0,0,1,1.37,2.29,9.44,9.44,0,0,1,.74,3.67A.67.67,0,0,1,184.12,100Z"/><path class="cls-7" d="M202.69,100.29a1.26,1.26,0,0,1-1.12,1.42,1.12,1.12,0,0,1-1,.85,1.23,1.23,0,0,1-1.15-.85,1.34,1.34,0,0,1-1.23-1.42v-1h4.55Z"/><path class="cls-7" d="M203.53,96.69a2.5,2.5,0,0,0-.83,1.83h-4.56a2.32,2.32,0,0,0-.91-1.83,5.28,5.28,0,0,1-2.13-4.49,5.39,5.39,0,0,1,5.24-5.09,5.3,5.3,0,0,1,5.39,5.32A5.08,5.08,0,0,1,203.53,96.69Z"/><path class="cls-10" d="M175.39,97.07a1.47,1.47,0,0,0-1.08.45,1.53,1.53,0,0,0,1.08,2.62,1.53,1.53,0,0,0,1.07-2.62A1.5,1.5,0,0,0,175.39,97.07Z"/><path class="cls-7" d="M189.91,90.85h-4c-.63,0-.95-.28-.72-.79l2.35-4.64c.23-.5.61-.47.83,0L190.63,90C190.86,90.55,190.53,90.85,189.91,90.85Z"/><path class="cls-7" d="M187.86,79.46a2.36,2.36,0,1,0,2.36,2.36A2.36,2.36,0,0,0,187.86,79.46Zm0,3.35a1,1,0,1,1,1-1A1,1,0,0,1,187.86,82.81Z"/><path class="cls-7" d="M185.3,85.42h0a.51.51,0,0,1-.32.91.49.49,0,0,1-.31-.11h0a5.43,5.43,0,1,1,6.32,0h0l0,0a.51.51,0,0,1-.28.08.51.51,0,0,1-.3-.91l0,0h0a4.41,4.41,0,1,0-5.13,0"/><path class="cls-7" d="M192.29,88.49h0a8,8,0,1,0-8.88,0h0a.55.55,0,0,0,.29.09.5.5,0,0,0,.5-.51.48.48,0,0,0-.22-.42h0a7,7,0,1,1,7.75,0h0a.5.5,0,0,0-.23.42.51.51,0,0,0,.51.51.54.54,0,0,0,.28-.08"/><g class="cls-8"><circle class="cls-9" cx="187.29" cy="91.65" r="37.13"/></g><text class="cls-11" transform="translate(11.56 150.57)">Lina<tspan class="cls-12" x="23.51" y="0">r</tspan><tspan x="27.98" y="0">o </tspan><tspan class="cls-13" x="38.67" y="0">E</tspan><tspan x="45.91" y="0">d</tspan><tspan class="cls-14" x="53.19" y="0">g</tspan><tspan x="59.84" y="0">e &amp; </tspan><tspan class="cls-15" x="82.62" y="0">F</tspan><tspan class="cls-16" x="89.41" y="0">o</tspan><tspan x="96.74" y="0">g</tspan><tspan class="cls-17" x="0.62" y="17">C</tspan><tspan x="9.17" y="17">omputing </tspan><tspan class="cls-14" x="67.12" y="17">G</tspan><tspan class="cls-12" x="76.51" y="17">r</tspan><tspan x="80.98" y="17">oup</tspan></text><text class="cls-11" transform="translate(150.82 150.57)">Lina<tspan class="cls-12" x="23.51" y="0">r</tspan><tspan x="27.98" y="0">o </tspan><tspan class="cls-18" x="38.67" y="0">I</tspan><tspan class="cls-19" x="42.11" y="0">o</tspan><tspan class="cls-20" x="47.88" y="0">T</tspan><tspan x="55.16" y="0" xml:space="preserve"> &amp;</tspan><tspan class="cls-21" x="-16.1" y="17">E</tspan><tspan x="-8.78" y="17">mbedded </tspan><tspan class="cls-14" x="48.09" y="17">G</tspan><tspan class="cls-12" x="57.48" y="17">r</tspan><tspan x="61.95" y="17">oup</tspan></text><text class="cls-11" transform="translate(288.4 150.57)">Lina<tspan class="cls-12" x="23.51" y="0">r</tspan><tspan x="27.98" y="0">o</tspan><tspan class="cls-17" x="-30.91" y="17">C</tspan><tspan x="-22.35" y="17">onsume</tspan><tspan class="cls-13" x="22.7" y="17">r</tspan><tspan x="27.16" y="17"> </tspan><tspan class="cls-14" x="30.49" y="17">G</tspan><tspan class="cls-12" x="39.88" y="17">r</tspan><tspan x="44.35" y="17">oup</tspan></text><text class="cls-11" transform="translate(394.51 150.57)">Lina<tspan class="cls-12" x="23.51" y="0">r</tspan><tspan x="27.98" y="0">o </tspan><tspan class="cls-22" x="38.67" y="0">D</tspan><tspan class="cls-23" x="48.39" y="0">a</tspan><tspan x="54.77" y="0">ta</tspan><tspan class="cls-17" x="-5.87" y="17">C</tspan><tspan x="2.69" y="17">e</tspan><tspan class="cls-24" x="9.55" y="17">n</tspan><tspan class="cls-25" x="16.71" y="17">t</tspan><tspan x="21.34" y="17">e</tspan><tspan class="cls-13" x="28.21" y="17">r</tspan><tspan x="32.67" y="17"> </tspan><tspan class="cls-26" x="35.99" y="17">G</tspan><tspan class="cls-27" x="45.39" y="17">r</tspan><tspan x="49.85" y="17">oup</tspan></text></g></svg>