<svg xmlns="http://www.w3.org/2000/svg" viewBox="0 0 569.42 183.3"><defs><style>.cls-1{fill:#585858;opacity:0.8;}.cls-2{fill:#fff;}.cls-3{fill:none;}</style></defs><g id="map"><rect class="cls-1" width="569.42" height="183.3" rx="7.12"/><path class="cls-2" d="M26.25,25.44H24a.93.93,0,0,1-.6-.17,1.1,1.1,0,0,1-.35-.45l-.73-2.16H17.63l-.73,2.16a1,1,0,0,1-.34.43.92.92,0,0,1-.6.19H13.72l4.79-12.38h2.94Zm-4.57-4.73-1.14-3.39c-.09-.22-.18-.47-.28-.76s-.19-.61-.29-.95q-.12.51-.27,1a8.06,8.06,0,0,1-.27.76l-1.14,3.38Z"/><path class="cls-2" d="M33.17,18.72a1.66,1.66,0,0,1-.23.23.51.51,0,0,1-.32.08.7.7,0,0,1-.35-.09l-.35-.21c-.13-.07-.29-.14-.46-.21a2.1,2.1,0,0,0-.66-.09,1.78,1.78,0,0,0-.83.18,1.61,1.61,0,0,0-.59.51,2.5,2.5,0,0,0-.34.81A5.08,5.08,0,0,0,28.93,21,3.33,3.33,0,0,0,29.42,23a1.59,1.59,0,0,0,1.35.68,2,2,0,0,0,.73-.11,2.32,2.32,0,0,0,.45-.26L32.3,23a.61.61,0,0,1,.39-.12.56.56,0,0,1,.48.23l.76.95a4.31,4.31,0,0,1-.86.76,4.4,4.4,0,0,1-.92.46,5.26,5.26,0,0,1-.95.23,7.22,7.22,0,0,1-.92.06,3.9,3.9,0,0,1-1.55-.31,3.8,3.8,0,0,1-1.29-.88A4.32,4.32,0,0,1,26.56,23,5.28,5.28,0,0,1,26.23,21a5.51,5.51,0,0,1,.29-1.79,4,4,0,0,1,.84-1.43,3.85,3.85,0,0,1,1.37-1,4.88,4.88,0,0,1,1.9-.35,4.24,4.24,0,0,1,3.23,1.3Z"/><path class="cls-2" d="M41.28,18.72a1.22,1.22,0,0,1-.22.23.51.51,0,0,1-.32.08.68.68,0,0,1-.35-.09L40,18.73l-.46-.21a2.1,2.1,0,0,0-.66-.09,1.86,1.86,0,0,0-.84.18,1.66,1.66,0,0,0-.58.51,2.5,2.5,0,0,0-.34.81A5.08,5.08,0,0,0,37.05,21,3.25,3.25,0,0,0,37.54,23a1.59,1.59,0,0,0,1.35.68,2,2,0,0,0,.72-.11,2.79,2.79,0,0,0,.46-.26l.34-.26a.65.65,0,0,1,.4-.12.53.53,0,0,1,.47.23l.77.95a4.31,4.31,0,0,1-.86.76,4.65,4.65,0,0,1-.92.46,5.47,5.47,0,0,1-1,.23,7.38,7.38,0,0,1-.93.06,3.89,3.89,0,0,1-1.54-.31,3.8,3.8,0,0,1-1.29-.88A4.16,4.16,0,0,1,34.68,23,5.28,5.28,0,0,1,34.35,21a5.5,5.5,0,0,1,.28-1.79,4,4,0,0,1,2.22-2.39,4.88,4.88,0,0,1,1.9-.35A4.24,4.24,0,0,1,42,17.79Z"/><path class="cls-2" d="M45.09,21.51a2.53,2.53,0,0,0,.67,1.6,2,2,0,0,0,1.41.5A2.64,2.64,0,0,0,48,23.5a4.76,4.76,0,0,0,.59-.25L49,23a1.07,1.07,0,0,1,.46-.11.56.56,0,0,1,.48.23l.76.95a4.14,4.14,0,0,1-.88.76,4.77,4.77,0,0,1-1,.46,5.9,5.9,0,0,1-1,.23,8.07,8.07,0,0,1-1,.06,5,5,0,0,1-1.74-.3,4,4,0,0,1-1.42-.9,4.41,4.41,0,0,1-1-1.48,5.61,5.61,0,0,1-.35-2,4.72,4.72,0,0,1,.3-1.68A4.05,4.05,0,0,1,45,16.84a4.53,4.53,0,0,1,1.81-.35,4.34,4.34,0,0,1,1.6.28,3.38,3.38,0,0,1,1.25.79,3.53,3.53,0,0,1,.82,1.27,4.77,4.77,0,0,1,.29,1.7c0,.2,0,.36,0,.49a.7.7,0,0,1-.1.29.31.31,0,0,1-.18.16,1.19,1.19,0,0,1-.29,0ZM48.41,20a2.43,2.43,0,0,0-.08-.61,1.52,1.52,0,0,0-.27-.54,1.29,1.29,0,0,0-.48-.37,1.59,1.59,0,0,0-.72-.15,1.55,1.55,0,0,0-1.17.43A2.2,2.2,0,0,0,45.13,20Z"/><path class="cls-2" d="M57.69,18.56a.7.7,0,0,1-.22.23.59.59,0,0,1-.29.07.84.84,0,0,1-.37-.09l-.41-.17a4,4,0,0,0-.49-.17,1.94,1.94,0,0,0-.62-.08,1.31,1.31,0,0,0-.77.19.59.59,0,0,0-.26.53.53.53,0,0,0,.17.41,1.81,1.81,0,0,0,.46.28,6.28,6.28,0,0,0,.66.23l.75.25a6.88,6.88,0,0,1,.74.32,2.57,2.57,0,0,1,.66.45,2,2,0,0,1,.46.65,2.16,2.16,0,0,1,.18.92,3,3,0,0,1-.24,1.21,2.73,2.73,0,0,1-.71.95,3.51,3.51,0,0,1-1.17.62,5.14,5.14,0,0,1-1.59.22,4.58,4.58,0,0,1-.9-.09,6.15,6.15,0,0,1-.87-.22,5.57,5.57,0,0,1-.78-.35,3.28,3.28,0,0,1-.61-.43l.61-1a.84.84,0,0,1,.26-.27.79.79,0,0,1,.4-.09.84.84,0,0,1,.42.1l.39.22a3.39,3.39,0,0,0,.5.22,2.12,2.12,0,0,0,.72.1,1.88,1.88,0,0,0,.51-.06.73.73,0,0,0,.34-.18.61.61,0,0,0,.19-.24.71.71,0,0,0,.06-.28.59.59,0,0,0-.18-.44,1.51,1.51,0,0,0-.47-.29,6.06,6.06,0,0,0-.65-.23l-.76-.24a6.12,6.12,0,0,1-.75-.33A2.86,2.86,0,0,1,52.4,21a2.22,2.22,0,0,1-.46-.72,2.64,2.64,0,0,1-.18-1A2.8,2.8,0,0,1,52,18.21a2.65,2.65,0,0,1,.65-.88,3.19,3.19,0,0,1,1.09-.61,4.73,4.73,0,0,1,1.53-.23,4.56,4.56,0,0,1,.92.09,3.72,3.72,0,0,1,.84.24,4,4,0,0,1,.72.36,4.35,4.35,0,0,1,.57.45Z"/><path class="cls-2" d="M65.26,18.56a.68.68,0,0,1-.21.23.66.66,0,0,1-.3.07.84.84,0,0,1-.37-.09L64,18.6a4.65,4.65,0,0,0-.49-.17,2,2,0,0,0-.62-.08,1.29,1.29,0,0,0-.77.19.6.6,0,0,0-.27.53.57.57,0,0,0,.17.41,1.72,1.72,0,0,0,.47.28,6.06,6.06,0,0,0,.65.23l.75.25a8,8,0,0,1,.75.32,2.69,2.69,0,0,1,.65.45,2.21,2.21,0,0,1,.47.65,2.32,2.32,0,0,1,.17.92,3,3,0,0,1-.24,1.21,2.61,2.61,0,0,1-.71.95,3.46,3.46,0,0,1-1.16.62,5.2,5.2,0,0,1-1.6.22,4.58,4.58,0,0,1-.9-.09,6.15,6.15,0,0,1-.87-.22,5.57,5.57,0,0,1-.78-.35,3.65,3.65,0,0,1-.61-.43l.61-1a1,1,0,0,1,.26-.27.83.83,0,0,1,.41-.09.8.8,0,0,1,.41.1l.39.22a3.93,3.93,0,0,0,.5.22,2.12,2.12,0,0,0,.72.1,2,2,0,0,0,.52-.06.85.85,0,0,0,.34-.18.69.69,0,0,0,.18-.24.71.71,0,0,0,.06-.28.62.62,0,0,0-.17-.44,1.64,1.64,0,0,0-.47-.29,5.57,5.57,0,0,0-.66-.23q-.37-.1-.75-.24a5.63,5.63,0,0,1-.76-.33A2.81,2.81,0,0,1,60,21a2.25,2.25,0,0,1-.47-.72,2.86,2.86,0,0,1,0-2.1,2.4,2.4,0,0,1,.65-.88,3.1,3.1,0,0,1,1.09-.61,4.65,4.65,0,0,1,1.53-.23,4.7,4.7,0,0,1,.92.09,3.63,3.63,0,0,1,.83.24,3.72,3.72,0,0,1,.72.36,4.35,4.35,0,0,1,.57.45Z"/><path class="cls-2" d="M74.32,25.58a3.15,3.15,0,0,1-1.11-.18,2.4,2.4,0,0,1-.81-.52,2.25,2.25,0,0,1-.5-.81A3.29,3.29,0,0,1,71.73,23V18.45H71a.56.56,0,0,1-.35-.13.53.53,0,0,1-.14-.39v-1l1.4-.27.52-2.15a.53.53,0,0,1,.58-.41h1.38v2.58h2.18v1.8H74.37v4.38a.8.8,0,0,0,.15.5.49.49,0,0,0,.42.2.9.9,0,0,0,.25,0l.17-.07.13-.07.15,0a.29.29,0,0,1,.19.05.86.86,0,0,1,.15.17l.8,1.25a3.56,3.56,0,0,1-1.15.58A4.42,4.42,0,0,1,74.32,25.58Z"/><path class="cls-2" d="M81.67,16.49a5.09,5.09,0,0,1,1.83.32,4.06,4.06,0,0,1,1.41.9,4.1,4.1,0,0,1,.92,1.42,5.58,5.58,0,0,1,0,3.78,4.09,4.09,0,0,1-.92,1.44,3.94,3.94,0,0,1-1.41.91,5.42,5.42,0,0,1-3.67,0,4,4,0,0,1-1.43-.91,4,4,0,0,1-.93-1.44,5.74,5.74,0,0,1,0-3.78,4,4,0,0,1,.93-1.42,4.14,4.14,0,0,1,1.43-.9A5.11,5.11,0,0,1,81.67,16.49Zm0,7.13A1.5,1.5,0,0,0,83,23,3.59,3.59,0,0,0,83.44,21,3.55,3.55,0,0,0,83,19.09a1.5,1.5,0,0,0-1.34-.64,1.52,1.52,0,0,0-1.37.64A3.46,3.46,0,0,0,79.87,21,3.5,3.5,0,0,0,80.3,23,1.52,1.52,0,0,0,81.67,23.62Z"/><path class="cls-2" d="M91.21,17.85A5.47,5.47,0,0,1,93,16.8a6.13,6.13,0,0,1,2.08-.34,3.81,3.81,0,0,1,1.44.26,3.05,3.05,0,0,1,1.09.72,3.21,3.21,0,0,1,.69,1.1,4.18,4.18,0,0,1,.23,1.39v5.51h-1.2a1.24,1.24,0,0,1-.57-.1.81.81,0,0,1-.32-.42l-.18-.49c-.23.19-.44.35-.64.49a3.78,3.78,0,0,1-.64.37,3.09,3.09,0,0,1-.69.22,4.18,4.18,0,0,1-.82.07,3.44,3.44,0,0,1-1.1-.16,2.28,2.28,0,0,1-.84-.46A2.17,2.17,0,0,1,91,24.2a2.85,2.85,0,0,1-.18-1.05,2.19,2.19,0,0,1,.23-1,2.47,2.47,0,0,1,.83-.89,5.21,5.21,0,0,1,1.58-.67A10,10,0,0,1,96,20.31v-.38a1.62,1.62,0,0,0-.32-1.11,1.2,1.2,0,0,0-.91-.35,2.31,2.31,0,0,0-.76.11,2.35,2.35,0,0,0-.53.23c-.16.08-.31.16-.46.22a1.22,1.22,0,0,1-.53.11A.73.73,0,0,1,92,19a1.18,1.18,0,0,1-.31-.32Zm4.75,4a8.21,8.21,0,0,0-1.3.13,3,3,0,0,0-.81.26.91.91,0,0,0-.41.35.79.79,0,0,0-.12.42.72.72,0,0,0,.25.63,1.13,1.13,0,0,0,.72.19,2,2,0,0,0,.89-.18,2.63,2.63,0,0,0,.78-.58Z"/><path class="cls-2" d="M102.84,12.72V25.44h-2.63V12.72Z"/><path class="cls-2" d="M107.26,12.72V25.44h-2.63V12.72Z"/><path class="cls-2" d="M119.23,19h4.4v5.22a6.36,6.36,0,0,1-2,1,8.24,8.24,0,0,1-2.24.31,7.78,7.78,0,0,1-2.79-.48,6.3,6.3,0,0,1-2.14-1.33,5.69,5.69,0,0,1-1.38-2,6.58,6.58,0,0,1-.49-2.52A7,7,0,0,1,113,16.7a5.82,5.82,0,0,1,1.32-2,5.91,5.91,0,0,1,2.06-1.31,7.52,7.52,0,0,1,2.71-.47,8.23,8.23,0,0,1,1.45.13,7.45,7.45,0,0,1,1.26.35,5.73,5.73,0,0,1,1.05.53,5.66,5.66,0,0,1,.85.66l-.84,1.27a.78.78,0,0,1-.5.36.86.86,0,0,1-.67-.15,6,6,0,0,0-.64-.35,4.73,4.73,0,0,0-.62-.25,4.53,4.53,0,0,0-.66-.13,6,6,0,0,0-.78-.05,3.59,3.59,0,0,0-1.46.29,3.25,3.25,0,0,0-1.1.8,3.79,3.79,0,0,0-.7,1.25,5.11,5.11,0,0,0-.24,1.62,5.27,5.27,0,0,0,.27,1.75,3.61,3.61,0,0,0,.77,1.29,3.25,3.25,0,0,0,1.19.8,4,4,0,0,0,1.53.28,3.87,3.87,0,0,0,.94-.1A6,6,0,0,0,121,23V21.12h-1.22a.59.59,0,0,1-.43-.15.48.48,0,0,1-.15-.36Z"/><path class="cls-2" d="M127.61,18a3.52,3.52,0,0,1,.94-1.12,2,2,0,0,1,1.22-.41,1.55,1.55,0,0,1,1,.28l-.17,1.94a.42.42,0,0,1-.14.25.45.45,0,0,1-.27.07H130l-.23,0-.24,0h-.23a1.31,1.31,0,0,0-.92.31,2.4,2.4,0,0,0-.58.85v5.35h-2.64V16.63h1.57a1.55,1.55,0,0,1,.33,0,.76.76,0,0,1,.22.11.43.43,0,0,1,.13.19,1.71,1.71,0,0,1,.08.29Z"/><path class="cls-2" d="M135.54,16.49a5.09,5.09,0,0,1,1.83.32,4,4,0,0,1,2.33,2.32,5.58,5.58,0,0,1,0,3.78,4,4,0,0,1-.92,1.44,3.86,3.86,0,0,1-1.41.91,5.09,5.09,0,0,1-1.83.32,5.15,5.15,0,0,1-1.84-.32,4,4,0,0,1-1.43-.91,3.83,3.83,0,0,1-.92-1.44,5.58,5.58,0,0,1,0-3.78,3.83,3.83,0,0,1,.92-1.42,4.14,4.14,0,0,1,1.43-.9A5.15,5.15,0,0,1,135.54,16.49Zm0,7.13a1.49,1.49,0,0,0,1.34-.64,3.5,3.5,0,0,0,.43-1.95,3.46,3.46,0,0,0-.43-1.94,1.49,1.49,0,0,0-1.34-.64,1.54,1.54,0,0,0-1.37.64,3.46,3.46,0,0,0-.43,1.94,3.5,3.5,0,0,0,.43,1.95A1.54,1.54,0,0,0,135.54,23.62Z"/><path class="cls-2" d="M149.26,16.63v8.81h-1.63A.61.61,0,0,1,147,25l-.15-.51a5.5,5.5,0,0,1-.53.45,3.68,3.68,0,0,1-.58.34,4.38,4.38,0,0,1-.67.22,3.91,3.91,0,0,1-.79.08,3,3,0,0,1-1.28-.25,2.73,2.73,0,0,1-.94-.7,3.15,3.15,0,0,1-.58-1.07,4.34,4.34,0,0,1-.19-1.34V16.63h2.63v5.59a1.5,1.5,0,0,0,.3,1,1.08,1.08,0,0,0,.88.36,1.85,1.85,0,0,0,.81-.18,3.06,3.06,0,0,0,.73-.5V16.63Z"/><path class="cls-2" d="M153.52,17.72a4.67,4.67,0,0,1,1.17-.91,3.37,3.37,0,0,1,1.57-.35,2.66,2.66,0,0,1,1.28.31,2.81,2.81,0,0,1,1,.88,4.5,4.5,0,0,1,.67,1.41,7,7,0,0,1,.24,1.9,5.68,5.68,0,0,1-.28,1.84,4.52,4.52,0,0,1-.77,1.46,3.47,3.47,0,0,1-1.19,1,3.38,3.38,0,0,1-1.53.35,3,3,0,0,1-1.16-.2,3.08,3.08,0,0,1-.85-.52v3.38H151V16.63h1.64a.62.62,0,0,1,.64.44Zm.16,5.33a1.89,1.89,0,0,0,.65.46,2,2,0,0,0,.73.13,1.67,1.67,0,0,0,.67-.14,1.38,1.38,0,0,0,.53-.47,2.36,2.36,0,0,0,.35-.83,4.91,4.91,0,0,0,.13-1.24,5.6,5.6,0,0,0-.1-1.17,2.53,2.53,0,0,0-.29-.77,1.1,1.1,0,0,0-.44-.42,1.32,1.32,0,0,0-.56-.13,1.84,1.84,0,0,0-1,.22,2.51,2.51,0,0,0-.71.62Z"/><path class="cls-2" d="M166.42,18.56a.7.7,0,0,1-.22.23.59.59,0,0,1-.29.07.84.84,0,0,1-.37-.09l-.41-.17a3.46,3.46,0,0,0-.49-.17,1.94,1.94,0,0,0-.62-.08,1.31,1.31,0,0,0-.77.19.61.61,0,0,0-.26.53.53.53,0,0,0,.17.41,1.81,1.81,0,0,0,.46.28c.2.08.42.16.66.23l.75.25a6.88,6.88,0,0,1,.74.32,2.57,2.57,0,0,1,.66.45,2,2,0,0,1,.46.65,2.16,2.16,0,0,1,.18.92,3,3,0,0,1-.24,1.21,2.73,2.73,0,0,1-.71.95,3.51,3.51,0,0,1-1.17.62,5.14,5.14,0,0,1-1.59.22,4.58,4.58,0,0,1-.9-.09,6.15,6.15,0,0,1-.87-.22,5.57,5.57,0,0,1-.78-.35,3.28,3.28,0,0,1-.61-.43l.61-1a.84.84,0,0,1,.26-.27.79.79,0,0,1,.4-.09.84.84,0,0,1,.42.1l.39.22a3.39,3.39,0,0,0,.5.22,2.12,2.12,0,0,0,.72.1,1.88,1.88,0,0,0,.51-.06.83.83,0,0,0,.35-.18.69.69,0,0,0,.18-.24.71.71,0,0,0,.06-.28.59.59,0,0,0-.18-.44,1.58,1.58,0,0,0-.46-.29c-.2-.08-.42-.16-.66-.23l-.76-.24a6.12,6.12,0,0,1-.75-.33,3.09,3.09,0,0,1-.66-.48,2.4,2.4,0,0,1-.46-.72,2.64,2.64,0,0,1-.18-1,2.8,2.8,0,0,1,.21-1.07,2.65,2.65,0,0,1,.65-.88,3.19,3.19,0,0,1,1.09-.61,4.73,4.73,0,0,1,1.53-.23,4.56,4.56,0,0,1,.92.09,3.72,3.72,0,0,1,.84.24,4,4,0,0,1,.72.36,4.35,4.35,0,0,1,.57.45Z"/><path class="cls-2" d="M61,82.1A16.42,16.42,0,0,1,76.62,93.28a12.3,12.3,0,0,1,12,12.54,12.73,12.73,0,0,1-12.54,12.56H45.18a12.31,12.31,0,0,1-12.34-12.56A12.8,12.8,0,0,1,45.05,93.28,17.07,17.07,0,0,1,61,82.1m0-2.31A19.42,19.42,0,0,0,43.44,91.11a15.09,15.09,0,0,0-12.91,14.67A14.62,14.62,0,0,0,45.18,120.7H76.09a15,15,0,0,0,14.85-14.84A14.51,14.51,0,0,0,78.25,91.09,18.75,18.75,0,0,0,61,79.79Z"/><path class="cls-2" d="M71.81,112.7a.65.65,0,0,0-.65-.65H62.91a2.85,2.85,0,0,0-1.32-1.2v-1.57h8.79a1.43,1.43,0,0,0,1.43-1.43v-3a1.44,1.44,0,0,0-1.43-1.43H61.59v-.71h8.79a1.43,1.43,0,0,0,1.43-1.43v-3a1.44,1.44,0,0,0-1.43-1.43H61.59V96.1h8.79a1.43,1.43,0,0,0,1.43-1.43v-3a1.44,1.44,0,0,0-1.43-1.43H51.09a1.43,1.43,0,0,0-1.43,1.43v3a1.43,1.43,0,0,0,1.43,1.43h8.23v.72H51.09a1.43,1.43,0,0,0-1.43,1.43v3a1.43,1.43,0,0,0,1.43,1.43h8.23v.71H51.09a1.43,1.43,0,0,0-1.43,1.43v3a1.43,1.43,0,0,0,1.43,1.43h8.23v1.53a2.89,2.89,0,0,0-1.41,1.24H50.32a.65.65,0,0,0-.65.65v1.56a.65.65,0,0,0,.65.65h7.59a2.88,2.88,0,0,0,5,0h8.25a.65.65,0,0,0,.65-.65Zm-1.43-8a.13.13,0,0,1,.13.13v3a.13.13,0,0,1-.13.13H67.17V104.7Zm0-6.59a.13.13,0,0,1,.13.13v3a.13.13,0,0,1-.13.13H67.17V98.12Zm0-6.59a.13.13,0,0,1,.13.13v3a.13.13,0,0,1-.13.13H67.17V91.53Z"/><path class="cls-2" d="M23.5,141.3v.88H19.08v-7.79h1.05v6.91Z"/><path class="cls-2" d="M25.67,134.94a.6.6,0,0,1-.06.27,1.07,1.07,0,0,1-.15.22.64.64,0,0,1-.22.14.66.66,0,0,1-.27.06.72.72,0,0,1-.48-.2,1.07,1.07,0,0,1-.15-.22.59.59,0,0,1-.05-.27.65.65,0,0,1,.05-.27,1.07,1.07,0,0,1,.15-.22.8.8,0,0,1,.21-.15.76.76,0,0,1,.27-.05.66.66,0,0,1,.49.2,1.07,1.07,0,0,1,.15.22A.66.66,0,0,1,25.67,134.94Zm-.21,1.73v5.51h-1v-5.51Z"/><path class="cls-2" d="M28,137.47a4.27,4.27,0,0,1,.38-.36,2.87,2.87,0,0,1,.43-.28,2,2,0,0,1,.48-.18,2.35,2.35,0,0,1,.54-.06,2,2,0,0,1,.8.15,1.63,1.63,0,0,1,.58.42,1.89,1.89,0,0,1,.35.66,2.86,2.86,0,0,1,.12.85v3.51h-1v-3.51a1.5,1.5,0,0,0-.29-1,1.06,1.06,0,0,0-.87-.34,1.62,1.62,0,0,0-.8.21,2.4,2.4,0,0,0-.69.56v4.05h-1v-5.51h.58a.25.25,0,0,1,.26.2Z"/><path class="cls-2" d="M33,137.45a3.26,3.26,0,0,1,1-.66,3.13,3.13,0,0,1,1.17-.21,2.1,2.1,0,0,1,.82.15,1.63,1.63,0,0,1,.6.42,1.64,1.64,0,0,1,.37.66,2.57,2.57,0,0,1,.13.85v3.52h-.43a.34.34,0,0,1-.22-.05.32.32,0,0,1-.12-.18l-.11-.52a4.48,4.48,0,0,1-.42.36,2.43,2.43,0,0,1-.44.26,2.46,2.46,0,0,1-.48.16,2.58,2.58,0,0,1-.58.06,2,2,0,0,1-.6-.09,1.37,1.37,0,0,1-.49-.27,1.25,1.25,0,0,1-.33-.45,1.48,1.48,0,0,1-.13-.65,1.21,1.21,0,0,1,.18-.63,1.65,1.65,0,0,1,.59-.54,3.86,3.86,0,0,1,1-.38,7.82,7.82,0,0,1,1.59-.17v-.43a1.5,1.5,0,0,0-.27-1,1,1,0,0,0-.81-.33,1.82,1.82,0,0,0-.61.09,1.74,1.74,0,0,0-.41.2l-.31.2a.43.43,0,0,1-.25.09.31.31,0,0,1-.17-.05.49.49,0,0,1-.12-.13Zm3.12,2.25a8.48,8.48,0,0,0-1.14.11,2.89,2.89,0,0,0-.76.22,1.07,1.07,0,0,0-.43.32.68.68,0,0,0-.14.41,1.07,1.07,0,0,0,.07.38.86.86,0,0,0,.2.26.87.87,0,0,0,.29.14,1.34,1.34,0,0,0,.35.05,2.26,2.26,0,0,0,.47-.05,2.74,2.74,0,0,0,.4-.15,3.75,3.75,0,0,0,.36-.24,3.13,3.13,0,0,0,.33-.31Z"/><path class="cls-2" d="M39.44,137.78a2.55,2.55,0,0,1,.64-.89,1.43,1.43,0,0,1,.93-.31,1.87,1.87,0,0,1,.34,0,1.18,1.18,0,0,1,.28.12l-.07.73a.15.15,0,0,1-.16.13l-.22,0a1.72,1.72,0,0,0-.34,0,1.31,1.31,0,0,0-.46.07,1.1,1.1,0,0,0-.37.23,1.56,1.56,0,0,0-.28.37,2.3,2.3,0,0,0-.23.5v3.48h-1v-5.51h.56a.29.29,0,0,1,.21.06.41.41,0,0,1,.09.21Z"/><path class="cls-2" d="M44.58,136.59a2.75,2.75,0,0,1,1.09.2,2.17,2.17,0,0,1,.82.57,2.4,2.4,0,0,1,.53.89,3.93,3.93,0,0,1,0,2.35,2.48,2.48,0,0,1-.53.89,2.17,2.17,0,0,1-.82.57,3.1,3.1,0,0,1-2.19,0,2.28,2.28,0,0,1-.83-.57,2.61,2.61,0,0,1-.52-.89,3.93,3.93,0,0,1,0-2.35,2.52,2.52,0,0,1,.52-.89,2.28,2.28,0,0,1,.83-.57A2.77,2.77,0,0,1,44.58,136.59Zm0,4.91A1.43,1.43,0,0,0,45.8,141a2.55,2.55,0,0,0,.4-1.53,2.51,2.51,0,0,0-.4-1.53,1.41,1.41,0,0,0-1.22-.55,1.6,1.6,0,0,0-.72.14,1.21,1.21,0,0,0-.51.41,1.71,1.71,0,0,0-.31.65,3.87,3.87,0,0,0-.1.88,2.55,2.55,0,0,0,.41,1.53A1.44,1.44,0,0,0,44.58,141.5Z"/><path class="cls-2" d="M58.19,138.29a4.28,4.28,0,0,1-.28,1.59,3.4,3.4,0,0,1-.78,1.23,3.52,3.52,0,0,1-1.22.79,4.13,4.13,0,0,1-1.56.28H51.44v-7.79h2.91a4.13,4.13,0,0,1,1.56.28,3.38,3.38,0,0,1,2,2A4.21,4.21,0,0,1,58.19,138.29Zm-1.08,0a3.86,3.86,0,0,0-.2-1.28,2.66,2.66,0,0,0-.55-1,2.42,2.42,0,0,0-.87-.6,3,3,0,0,0-1.14-.21H52.49v6.09h1.86a3,3,0,0,0,1.14-.21,2.53,2.53,0,0,0,.87-.59,2.66,2.66,0,0,0,.55-1A3.91,3.91,0,0,0,57.11,138.29Z"/><path class="cls-2" d="M59.2,137.45a3.26,3.26,0,0,1,1-.66,3.13,3.13,0,0,1,1.17-.21,2.1,2.1,0,0,1,.82.15,1.63,1.63,0,0,1,.6.42,1.64,1.64,0,0,1,.37.66,2.57,2.57,0,0,1,.13.85v3.52h-.43a.34.34,0,0,1-.22-.05.32.32,0,0,1-.12-.18l-.11-.52a4.48,4.48,0,0,1-.42.36,2.43,2.43,0,0,1-.44.26,2.46,2.46,0,0,1-.48.16,2.58,2.58,0,0,1-.58.06,2,2,0,0,1-.6-.09,1.37,1.37,0,0,1-.49-.27,1.25,1.25,0,0,1-.33-.45,1.48,1.48,0,0,1-.13-.65,1.21,1.21,0,0,1,.18-.63,1.65,1.65,0,0,1,.59-.54,3.86,3.86,0,0,1,1-.38,7.74,7.74,0,0,1,1.59-.17v-.43a1.44,1.44,0,0,0-.28-1,1,1,0,0,0-.81-.33,1.76,1.76,0,0,0-.6.09,1.74,1.74,0,0,0-.41.2l-.31.2a.43.43,0,0,1-.25.09.31.31,0,0,1-.17-.05.49.49,0,0,1-.12-.13Zm3.12,2.25a8.48,8.48,0,0,0-1.14.11,2.89,2.89,0,0,0-.76.22,1.07,1.07,0,0,0-.43.32.68.68,0,0,0-.14.41,1.07,1.07,0,0,0,.07.38.86.86,0,0,0,.2.26.78.78,0,0,0,.29.14,1.29,1.29,0,0,0,.35.05,2.26,2.26,0,0,0,.47-.05,2.74,2.74,0,0,0,.4-.15,3.75,3.75,0,0,0,.36-.24,3.13,3.13,0,0,0,.33-.31Z"/><path class="cls-2" d="M66.36,142.27a1.3,1.3,0,0,1-1-.37,1.46,1.46,0,0,1-.35-1.05v-3.37h-.66a.19.19,0,0,1-.21-.21v-.38l.9-.12.22-1.7a.2.2,0,0,1,.08-.13.2.2,0,0,1,.15-.06H66v1.9h1.59v.7H66v3.31a.7.7,0,0,0,.17.52.57.57,0,0,0,.43.16.68.68,0,0,0,.26,0,.61.61,0,0,0,.2-.09l.14-.09a.21.21,0,0,1,.1,0s.09,0,.13.1l.28.46a1.63,1.63,0,0,1-.6.36A2,2,0,0,1,66.36,142.27Z"/><path class="cls-2" d="M68.43,137.45a3.26,3.26,0,0,1,1-.66,3.13,3.13,0,0,1,1.17-.21,2.1,2.1,0,0,1,.82.15,1.75,1.75,0,0,1,.61.42,1.92,1.92,0,0,1,.37.66,2.86,2.86,0,0,1,.12.85v3.52h-.43a.36.36,0,0,1-.22-.05.32.32,0,0,1-.12-.18l-.1-.52c-.15.14-.29.25-.43.36a2.73,2.73,0,0,1-.43.26,2.81,2.81,0,0,1-.49.16,2.49,2.49,0,0,1-.57.06,2,2,0,0,1-.61-.09,1.37,1.37,0,0,1-.49-.27,1.25,1.25,0,0,1-.33-.45,1.64,1.64,0,0,1-.12-.65,1.21,1.21,0,0,1,.18-.63,1.61,1.61,0,0,1,.58-.54,4.08,4.08,0,0,1,1-.38,7.66,7.66,0,0,1,1.59-.17v-.43a1.5,1.5,0,0,0-.28-1,1,1,0,0,0-.81-.33,1.72,1.72,0,0,0-.6.09,2,2,0,0,0-.42.2l-.31.2a.43.43,0,0,1-.25.09.34.34,0,0,1-.17-.05.74.74,0,0,1-.12-.13Zm3.13,2.25a8.15,8.15,0,0,0-1.14.11,3,3,0,0,0-.77.22,1.07,1.07,0,0,0-.43.32.67.67,0,0,0-.13.41.89.89,0,0,0,.07.38.7.7,0,0,0,.19.26.87.87,0,0,0,.29.14,1.34,1.34,0,0,0,.35.05,2.19,2.19,0,0,0,.47-.05,2.37,2.37,0,0,0,.4-.15,2.25,2.25,0,0,0,.36-.24,2.45,2.45,0,0,0,.34-.31Z"/><path class="cls-2" d="M77.81,137.65l-.09.09a.16.16,0,0,1-.12,0,.41.41,0,0,1-.18-.07,1.25,1.25,0,0,0-.24-.15l-.35-.15a1.56,1.56,0,0,0-.52-.07,1.58,1.58,0,0,0-.71.15,1.3,1.3,0,0,0-.52.41,1.85,1.85,0,0,0-.32.66,3.32,3.32,0,0,0-.11.86,3,3,0,0,0,.12.89,1.85,1.85,0,0,0,.32.66,1.42,1.42,0,0,0,.51.4,1.59,1.59,0,0,0,.66.14,1.66,1.66,0,0,0,.59-.09,1.82,1.82,0,0,0,.37-.18l.25-.19a.32.32,0,0,1,.2-.09.22.22,0,0,1,.19.1l.27.35a2.1,2.1,0,0,1-.41.38,2.3,2.3,0,0,1-.49.26,2.66,2.66,0,0,1-.55.16,3.92,3.92,0,0,1-.59,0,2.57,2.57,0,0,1-1-.19,2.22,2.22,0,0,1-.77-.55,2.59,2.59,0,0,1-.51-.89,3.79,3.79,0,0,1-.19-1.21,3.43,3.43,0,0,1,.18-1.13,2.47,2.47,0,0,1,.5-.9,2.29,2.29,0,0,1,.81-.59,3,3,0,0,1,2.13,0,2.63,2.63,0,0,1,.78.53Z"/><path class="cls-2" d="M83.54,141.41a2,2,0,0,1-.43.38,3.36,3.36,0,0,1-.54.26,3.65,3.65,0,0,1-.59.16,4,4,0,0,1-.6,0,2.77,2.77,0,0,1-1-.2,2.14,2.14,0,0,1-.83-.56,2.57,2.57,0,0,1-.55-.92,3.78,3.78,0,0,1-.2-1.26,3.14,3.14,0,0,1,.18-1.08,2.7,2.7,0,0,1,.51-.87,2.37,2.37,0,0,1,.81-.57,2.67,2.67,0,0,1,1.08-.21,2.45,2.45,0,0,1,.91.16,2,2,0,0,1,.73.48,2.1,2.1,0,0,1,.48.77,2.89,2.89,0,0,1,.18,1.05.64.64,0,0,1,0,.3.23.23,0,0,1-.19.08H79.71a3,3,0,0,0,.15.91,1.71,1.71,0,0,0,.35.64,1.53,1.53,0,0,0,.55.39,2.08,2.08,0,0,0,1.33,0,1.91,1.91,0,0,0,.45-.18l.32-.18a.42.42,0,0,1,.22-.09.22.22,0,0,1,.19.1Zm-.78-2.58a2,2,0,0,0-.1-.62,1.15,1.15,0,0,0-.28-.48,1.16,1.16,0,0,0-.44-.32,1.55,1.55,0,0,0-.59-.11,1.47,1.47,0,0,0-1.1.4,2,2,0,0,0-.51,1.13Z"/><path class="cls-2" d="M85.73,137.47a3.24,3.24,0,0,1,.38-.36,2.36,2.36,0,0,1,.42-.28,2,2,0,0,1,.48-.18,2.38,2.38,0,0,1,.55-.06,2,2,0,0,1,.79.15,1.47,1.47,0,0,1,.58.42,1.74,1.74,0,0,1,.35.66,2.86,2.86,0,0,1,.12.85v3.51h-1v-3.51a1.5,1.5,0,0,0-.29-1,1.05,1.05,0,0,0-.86-.34,1.63,1.63,0,0,0-.81.21,2.5,2.5,0,0,0-.68.56v4.05h-1v-5.51h.58a.24.24,0,0,1,.26.2Z"/><path class="cls-2" d="M92.5,142.27a1.32,1.32,0,0,1-1-.37,1.46,1.46,0,0,1-.35-1.05v-3.37h-.66a.19.19,0,0,1-.21-.21v-.38l.9-.12.23-1.7a.19.19,0,0,1,.07-.13.2.2,0,0,1,.15-.06h.49v1.9H93.7v.7H92.11v3.31a.74.74,0,0,0,.17.52.59.59,0,0,0,.43.16.77.77,0,0,0,.27,0,.56.56,0,0,0,.19-.09l.14-.09a.26.26,0,0,1,.1,0s.09,0,.13.1l.29.46a1.76,1.76,0,0,1-.61.36A2,2,0,0,1,92.5,142.27Z"/><path class="cls-2" d="M99.15,141.41a2.25,2.25,0,0,1-.43.38,3.36,3.36,0,0,1-.54.26,4,4,0,0,1-.59.16,4,4,0,0,1-.6,0,2.86,2.86,0,0,1-1.06-.2,2.22,2.22,0,0,1-.83-.56,2.7,2.7,0,0,1-.54-.92,3.78,3.78,0,0,1-.2-1.26,3.14,3.14,0,0,1,.18-1.08,2.36,2.36,0,0,1,1.32-1.44,2.59,2.59,0,0,1,1.07-.21,2.51,2.51,0,0,1,.92.16,2.11,2.11,0,0,1,.73.48,2.4,2.4,0,0,1,.48.77,3.12,3.12,0,0,1,.17,1.05.53.53,0,0,1,0,.3.19.19,0,0,1-.18.08H95.32a3.41,3.41,0,0,0,.14.91,1.88,1.88,0,0,0,.36.64,1.5,1.5,0,0,0,.54.39,2.11,2.11,0,0,0,1.34,0,2.34,2.34,0,0,0,.45-.18l.32-.18a.4.4,0,0,1,.22-.09.19.19,0,0,1,.18.1Zm-.79-2.58a2,2,0,0,0-.09-.62,1.41,1.41,0,0,0-.28-.48,1.16,1.16,0,0,0-.44-.32,1.6,1.6,0,0,0-.6-.11,1.49,1.49,0,0,0-1.1.4,1.94,1.94,0,0,0-.5,1.13Z"/><path class="cls-2" d="M101.34,137.78a2.43,2.43,0,0,1,.64-.89,1.39,1.39,0,0,1,.93-.31,1.76,1.76,0,0,1,.33,0,1.26,1.26,0,0,1,.29.12l-.07.73a.16.16,0,0,1-.17.13l-.22,0a1.69,1.69,0,0,0-.33,0,1.41,1.41,0,0,0-.47.07,1.16,1.16,0,0,0-.36.23,1.59,1.59,0,0,0-.29.37,3.91,3.91,0,0,0-.23.5v3.48h-1v-5.51H101a.3.3,0,0,1,.22.06.34.34,0,0,1,.08.21Z"/><path class="cls-2" d="M32.7,155.23h-.94a.65.65,0,0,1-.26,0,.52.52,0,0,1-.21-.15l-.79-.8a4,4,0,0,1-1.18.79,3.66,3.66,0,0,1-1.46.29,2.45,2.45,0,0,1-.85-.15,2.33,2.33,0,0,1-.75-.43,2,2,0,0,1-.53-.68,1.94,1.94,0,0,1-.21-.91,2.18,2.18,0,0,1,.13-.72,2.57,2.57,0,0,1,.36-.62,2.43,2.43,0,0,1,.54-.52,3.45,3.45,0,0,1,.68-.39,3.28,3.28,0,0,1-.49-.82,2.1,2.1,0,0,1-.16-.82,2,2,0,0,1,.14-.74,1.75,1.75,0,0,1,.42-.61,2,2,0,0,1,.66-.41,2.41,2.41,0,0,1,.87-.15,2.22,2.22,0,0,1,.79.14,2,2,0,0,1,.6.37,1.76,1.76,0,0,1,.41.53,1.56,1.56,0,0,1,.17.63l-.6.12c-.12,0-.21,0-.27-.17a1,1,0,0,0-.12-.3,1.13,1.13,0,0,0-.22-.27.89.89,0,0,0-.32-.21,1.15,1.15,0,0,0-.44-.08,1.3,1.3,0,0,0-.49.09.85.85,0,0,0-.37.24.88.88,0,0,0-.24.36,1.14,1.14,0,0,0-.08.46,1.47,1.47,0,0,0,0,.36,1.7,1.7,0,0,0,.14.35,2.31,2.31,0,0,0,.24.37l.35.39L30.51,153a5.75,5.75,0,0,0,.33-.77,4.53,4.53,0,0,0,.16-.8.26.26,0,0,1,.07-.16.18.18,0,0,1,.15-.06h.59a4,4,0,0,1-.2,1.23,4.29,4.29,0,0,1-.54,1.12Zm-5-3.84a2.47,2.47,0,0,0-.87.74,1.71,1.71,0,0,0-.29,1,1.52,1.52,0,0,0,.13.62,1.43,1.43,0,0,0,.35.45,1.47,1.47,0,0,0,.48.29,1.77,1.77,0,0,0,.56.09,2.56,2.56,0,0,0,1.09-.22,2.73,2.73,0,0,0,.85-.6Z"/><path class="cls-2" d="M42,153.62a.21.21,0,0,1,.15.07l.42.45a3.44,3.44,0,0,1-1.16.87,4,4,0,0,1-1.65.31,3.89,3.89,0,0,1-1.52-.29,3.39,3.39,0,0,1-1.17-.82,3.47,3.47,0,0,1-.75-1.26,4.61,4.61,0,0,1-.27-1.61,4.45,4.45,0,0,1,.28-1.62,3.54,3.54,0,0,1,2-2.08,4.11,4.11,0,0,1,1.55-.29,3.74,3.74,0,0,1,1.47.27,3.84,3.84,0,0,1,1.12.72l-.35.49-.08.09a.29.29,0,0,1-.14,0,.4.4,0,0,1-.24-.1,2.65,2.65,0,0,0-.37-.24,2.57,2.57,0,0,0-.57-.24,2.93,2.93,0,0,0-.84-.1,2.85,2.85,0,0,0-1.11.21,2.35,2.35,0,0,0-.86.6,2.81,2.81,0,0,0-.56,1,3.72,3.72,0,0,0-.2,1.29,3.77,3.77,0,0,0,.21,1.3,2.69,2.69,0,0,0,.57,1,2.2,2.2,0,0,0,.85.6,2.67,2.67,0,0,0,1.06.21,4.09,4.09,0,0,0,.63,0,2.64,2.64,0,0,0,.52-.13,2.26,2.26,0,0,0,.44-.22,2.8,2.8,0,0,0,.4-.32A.31.31,0,0,1,42,153.62Z"/><path class="cls-2" d="M44.6,147.22v8h-1v-8Z"/><path class="cls-2" d="M48.49,149.64a2.72,2.72,0,0,1,1.09.2,2.28,2.28,0,0,1,.83.57,2.52,2.52,0,0,1,.52.89,3.93,3.93,0,0,1,0,2.35,2.61,2.61,0,0,1-.52.89,2.28,2.28,0,0,1-.83.57,3.07,3.07,0,0,1-2.18,0,2.2,2.2,0,0,1-.83-.57,2.48,2.48,0,0,1-.53-.89,3.93,3.93,0,0,1,0-2.35,2.4,2.4,0,0,1,.53-.89,2.2,2.2,0,0,1,.83-.57A2.72,2.72,0,0,1,48.49,149.64Zm0,4.91a1.42,1.42,0,0,0,1.22-.54,2.55,2.55,0,0,0,.4-1.53,2.51,2.51,0,0,0-.4-1.53,1.4,1.4,0,0,0-1.22-.55,1.81,1.81,0,0,0-.72.14,1.34,1.34,0,0,0-.51.41,1.7,1.7,0,0,0-.3.65,3.38,3.38,0,0,0-.1.88,2.55,2.55,0,0,0,.4,1.53A1.44,1.44,0,0,0,48.49,154.55Z"/><path class="cls-2" d="M56.87,149.72v5.51h-.58A.24.24,0,0,1,56,155l-.08-.59a3.22,3.22,0,0,1-.8.64,2.13,2.13,0,0,1-1,.24,2,2,0,0,1-.8-.15,1.63,1.63,0,0,1-.58-.42,1.74,1.74,0,0,1-.35-.66,2.86,2.86,0,0,1-.12-.85v-3.52h1v3.52a1.45,1.45,0,0,0,.29,1,1.07,1.07,0,0,0,.87.35,1.62,1.62,0,0,0,.8-.21,2.4,2.4,0,0,0,.69-.56v-4.06Z"/><path class="cls-2" d="M63,147.22v8h-.58a.24.24,0,0,1-.26-.2l-.09-.67a3.09,3.09,0,0,1-.8.69,2.1,2.1,0,0,1-1,.26,2,2,0,0,1-.86-.18,1.86,1.86,0,0,1-.65-.54,2.32,2.32,0,0,1-.42-.88,4.45,4.45,0,0,1-.15-1.21,3.79,3.79,0,0,1,.16-1.14,2.9,2.9,0,0,1,.47-.91,2,2,0,0,1,.75-.6,2.16,2.16,0,0,1,1-.22,1.91,1.91,0,0,1,.86.17,2.12,2.12,0,0,1,.65.47v-3.05ZM62,151a1.51,1.51,0,0,0-.59-.5,1.64,1.64,0,0,0-.71-.15,1.39,1.39,0,0,0-1.18.55,2.62,2.62,0,0,0-.41,1.57,4.09,4.09,0,0,0,.09.92,2,2,0,0,0,.27.63,1.13,1.13,0,0,0,.45.36,1.38,1.38,0,0,0,.59.11,1.57,1.57,0,0,0,.83-.21,2.4,2.4,0,0,0,.66-.62Z"/><path class="cls-2" d="M73.83,151.49v3a4.45,4.45,0,0,1-1.25.63,4.86,4.86,0,0,1-1.46.21,4.77,4.77,0,0,1-1.7-.29,3.9,3.9,0,0,1-1.29-.82,3.48,3.48,0,0,1-.82-1.26,4.19,4.19,0,0,1-.29-1.61,4.46,4.46,0,0,1,.28-1.63,3.55,3.55,0,0,1,.79-1.26,3.6,3.6,0,0,1,1.26-.81,4.53,4.53,0,0,1,1.65-.29,5.65,5.65,0,0,1,.86.07,4,4,0,0,1,.74.2,2.77,2.77,0,0,1,.62.31,3.49,3.49,0,0,1,.54.41l-.3.48a.32.32,0,0,1-.18.13.3.3,0,0,1-.25,0l-.3-.18a3.09,3.09,0,0,0-.41-.21,2.57,2.57,0,0,0-.57-.17,3.58,3.58,0,0,0-.78-.07,3.19,3.19,0,0,0-1.19.21,2.42,2.42,0,0,0-.91.62,2.56,2.56,0,0,0-.57,1,3.7,3.7,0,0,0-.21,1.28,3.79,3.79,0,0,0,.21,1.31,2.74,2.74,0,0,0,.6,1,2.59,2.59,0,0,0,.94.61,3.52,3.52,0,0,0,1.25.22,3.61,3.61,0,0,0,1-.13,3.85,3.85,0,0,0,.82-.34v-1.71H71.67a.24.24,0,0,1-.17-.06.2.2,0,0,1-.06-.15v-.59Z"/><path class="cls-2" d="M76.05,150.83a2.55,2.55,0,0,1,.64-.89,1.39,1.39,0,0,1,.93-.31,1.87,1.87,0,0,1,.34,0,1.18,1.18,0,0,1,.28.12l-.07.73a.15.15,0,0,1-.16.13l-.23,0a1.55,1.55,0,0,0-.33,0,1.31,1.31,0,0,0-.46.07,1.1,1.1,0,0,0-.37.23,1.56,1.56,0,0,0-.28.37,2.9,2.9,0,0,0-.24.5v3.48h-1v-5.51h.56a.29.29,0,0,1,.21.06A.34.34,0,0,1,76,150Z"/><path class="cls-2" d="M81.19,149.64a2.75,2.75,0,0,1,1.09.2,2.25,2.25,0,0,1,.82.57,2.4,2.4,0,0,1,.53.89,3.93,3.93,0,0,1,0,2.35,2.48,2.48,0,0,1-.53.89,2.25,2.25,0,0,1-.82.57,3.1,3.1,0,0,1-2.19,0,2.28,2.28,0,0,1-.83-.57,2.46,2.46,0,0,1-.52-.89,3.93,3.93,0,0,1,0-2.35,2.38,2.38,0,0,1,.52-.89,2.28,2.28,0,0,1,.83-.57A2.77,2.77,0,0,1,81.19,149.64Zm0,4.91a1.43,1.43,0,0,0,1.22-.54,2.62,2.62,0,0,0,.4-1.53,2.58,2.58,0,0,0-.4-1.53,1.41,1.41,0,0,0-1.22-.55,1.74,1.74,0,0,0-.72.14A1.21,1.21,0,0,0,80,151a1.71,1.71,0,0,0-.31.65,3.87,3.87,0,0,0-.1.88A2.55,2.55,0,0,0,80,154,1.44,1.44,0,0,0,81.19,154.55Z"/><path class="cls-2" d="M89.56,149.72v5.51H89a.26.26,0,0,1-.27-.2l-.07-.59a3.09,3.09,0,0,1-.81.64,2.08,2.08,0,0,1-1,.24,2,2,0,0,1-.8-.15,1.51,1.51,0,0,1-.57-.42,1.75,1.75,0,0,1-.36-.66,3.24,3.24,0,0,1-.11-.85v-3.52h1v3.52a1.45,1.45,0,0,0,.28,1,1.07,1.07,0,0,0,.87.35,1.63,1.63,0,0,0,.81-.21,2.5,2.5,0,0,0,.68-.56v-4.06Z"/><path class="cls-2" d="M92,150.58a2.75,2.75,0,0,1,.8-.69,2,2,0,0,1,1.05-.26,2,2,0,0,1,.86.18,1.72,1.72,0,0,1,.66.54,2.57,2.57,0,0,1,.42.88,4.45,4.45,0,0,1,.15,1.21,3.78,3.78,0,0,1-.17,1.14,2.57,2.57,0,0,1-.47.9,2.13,2.13,0,0,1-.75.61,2.3,2.3,0,0,1-1,.22,2.06,2.06,0,0,1-.86-.17,2.15,2.15,0,0,1-.64-.48v2.44h-1v-7.38h.59a.24.24,0,0,1,.25.2Zm0,3.32a1.61,1.61,0,0,0,.58.51,1.64,1.64,0,0,0,.71.15,1.4,1.4,0,0,0,1.18-.55,2.55,2.55,0,0,0,.42-1.57,4,4,0,0,0-.1-.92,1.79,1.79,0,0,0-.27-.64,1.17,1.17,0,0,0-.44-.36,1.64,1.64,0,0,0-.6-.11,1.54,1.54,0,0,0-.83.22,2.47,2.47,0,0,0-.65.61Z"/><path class="cls-2" d="M151.22,141.3v.88H146.8v-7.79h1v6.91Z"/><path class="cls-2" d="M153.39,134.94a.6.6,0,0,1-.06.27,1.07,1.07,0,0,1-.15.22.68.68,0,0,1-.23.14.6.6,0,0,1-.27.06.58.58,0,0,1-.26-.06.6.6,0,0,1-.21-.14.78.78,0,0,1-.15-.22.6.6,0,0,1-.06-.27.66.66,0,0,1,.06-.27.78.78,0,0,1,.15-.22.8.8,0,0,1,.21-.15.75.75,0,0,1,.26-.05.76.76,0,0,1,.27.05.91.91,0,0,1,.23.15,1.07,1.07,0,0,1,.15.22A.66.66,0,0,1,153.39,134.94Zm-.21,1.73v5.51h-1v-5.51Z"/><path class="cls-2" d="M155.68,137.47a4.27,4.27,0,0,1,.38-.36,2.87,2.87,0,0,1,.43-.28,2,2,0,0,1,.48-.18,2.29,2.29,0,0,1,.54-.06,2,2,0,0,1,.8.15,1.63,1.63,0,0,1,.58.42,1.89,1.89,0,0,1,.35.66,2.86,2.86,0,0,1,.12.85v3.51h-1v-3.51a1.49,1.49,0,0,0-.28-1,1.06,1.06,0,0,0-.87-.34,1.59,1.59,0,0,0-.8.21,2.4,2.4,0,0,0-.69.56v4.05h-1v-5.51h.58a.23.23,0,0,1,.25.2Z"/><path class="cls-2" d="M160.69,137.45a3.43,3.43,0,0,1,1-.66,3.13,3.13,0,0,1,1.17-.21,2.1,2.1,0,0,1,.82.15,1.63,1.63,0,0,1,.6.42,1.77,1.77,0,0,1,.37.66,2.86,2.86,0,0,1,.13.85v3.52h-.43a.34.34,0,0,1-.22-.05A.32.32,0,0,1,164,142l-.11-.52c-.14.14-.29.25-.42.36a2.82,2.82,0,0,1-.44.26,2.35,2.35,0,0,1-.49.16,2.49,2.49,0,0,1-.57.06,2,2,0,0,1-.6-.09,1.37,1.37,0,0,1-.49-.27,1.41,1.41,0,0,1-.34-.45,1.64,1.64,0,0,1-.12-.65,1.21,1.21,0,0,1,.18-.63,1.69,1.69,0,0,1,.58-.54,4.08,4.08,0,0,1,1-.38,7.66,7.66,0,0,1,1.59-.17v-.43a1.44,1.44,0,0,0-.28-1,1,1,0,0,0-.81-.33,1.72,1.72,0,0,0-.6.09,2,2,0,0,0-.42.2l-.3.2a.45.45,0,0,1-.25.09.29.29,0,0,1-.17-.05.49.49,0,0,1-.12-.13Zm3.13,2.25a8.48,8.48,0,0,0-1.14.11,2.89,2.89,0,0,0-.76.22,1,1,0,0,0-.43.32.68.68,0,0,0-.14.41,1.07,1.07,0,0,0,.07.38.73.73,0,0,0,.2.26.82.82,0,0,0,.28.14,1.36,1.36,0,0,0,.36.05,2.26,2.26,0,0,0,.47-.05,2.74,2.74,0,0,0,.4-.15,3.75,3.75,0,0,0,.36-.24,3.13,3.13,0,0,0,.33-.31Z"/><path class="cls-2" d="M167.16,137.78a2.55,2.55,0,0,1,.64-.89,1.39,1.39,0,0,1,.93-.31,1.69,1.69,0,0,1,.33,0,1.1,1.1,0,0,1,.29.12l-.07.73a.15.15,0,0,1-.16.13l-.23,0a1.55,1.55,0,0,0-.33,0,1.31,1.31,0,0,0-.46.07,1.1,1.1,0,0,0-.37.23,1.9,1.9,0,0,0-.29.37,3.91,3.91,0,0,0-.23.5v3.48h-1v-5.51h.55a.3.3,0,0,1,.22.06.34.34,0,0,1,.08.21Z"/><path class="cls-2" d="M172.3,136.59a2.67,2.67,0,0,1,1.08.2,2.2,2.2,0,0,1,.83.57,2.4,2.4,0,0,1,.53.89,3.93,3.93,0,0,1,0,2.35,2.48,2.48,0,0,1-.53.89,2.2,2.2,0,0,1-.83.57,2.85,2.85,0,0,1-1.08.2,3,3,0,0,1-1.1-.2,2.28,2.28,0,0,1-.83-.57,2.46,2.46,0,0,1-.52-.89,3.93,3.93,0,0,1,0-2.35,2.38,2.38,0,0,1,.52-.89,2.28,2.28,0,0,1,.83-.57A2.77,2.77,0,0,1,172.3,136.59Zm0,4.91a1.43,1.43,0,0,0,1.22-.54,2.62,2.62,0,0,0,.4-1.53,2.58,2.58,0,0,0-.4-1.53,1.41,1.41,0,0,0-1.22-.55,1.6,1.6,0,0,0-.72.14,1.21,1.21,0,0,0-.51.41,1.71,1.71,0,0,0-.31.65,3.38,3.38,0,0,0-.1.88,2.55,2.55,0,0,0,.41,1.53A1.44,1.44,0,0,0,172.3,141.5Z"/><path class="cls-2" d="M180.21,142.18h-1.06v-7.79h1.06Z"/><path class="cls-2" d="M184.12,136.59a2.68,2.68,0,0,1,1.09.2,2.28,2.28,0,0,1,.83.57,2.38,2.38,0,0,1,.52.89,3.73,3.73,0,0,1,0,2.35,2.46,2.46,0,0,1-.52.89,2.28,2.28,0,0,1-.83.57,2.86,2.86,0,0,1-1.09.2,2.9,2.9,0,0,1-1.09-.2,2.2,2.2,0,0,1-.83-.57,2.63,2.63,0,0,1-.53-.89,3.93,3.93,0,0,1,0-2.35,2.54,2.54,0,0,1,.53-.89,2.2,2.2,0,0,1,.83-.57A2.72,2.72,0,0,1,184.12,136.59Zm0,4.91a1.42,1.42,0,0,0,1.22-.54,2.55,2.55,0,0,0,.41-1.53,2.51,2.51,0,0,0-.41-1.53,1.4,1.4,0,0,0-1.22-.55,1.65,1.65,0,0,0-.72.14,1.34,1.34,0,0,0-.51.41,1.86,1.86,0,0,0-.3.65,3.38,3.38,0,0,0-.1.88,2.55,2.55,0,0,0,.4,1.53A1.44,1.44,0,0,0,184.12,141.5Z"/><path class="cls-2" d="M192.12,135.28H189.6v6.9h-1v-6.9H186v-.89h6.1Z"/><path class="cls-2" d="M202.39,142.18h-.94a.65.65,0,0,1-.26,0A.59.59,0,0,1,201,142l-.79-.8A4,4,0,0,1,199,142a3.66,3.66,0,0,1-1.46.29,2.5,2.5,0,0,1-.85-.15,2.33,2.33,0,0,1-.75-.43,2,2,0,0,1-.53-.68,1.93,1.93,0,0,1-.2-.91,2.18,2.18,0,0,1,.12-.72,2.57,2.57,0,0,1,.36-.62,2.43,2.43,0,0,1,.54-.52,3.76,3.76,0,0,1,.68-.39,3.62,3.62,0,0,1-.49-.82,2.1,2.1,0,0,1-.16-.82,1.85,1.85,0,0,1,.15-.74,1.6,1.6,0,0,1,.41-.61,2,2,0,0,1,.66-.41,2.42,2.42,0,0,1,.88-.15,2.21,2.21,0,0,1,.78.14,2.07,2.07,0,0,1,.61.37,1.73,1.73,0,0,1,.4.53,1.56,1.56,0,0,1,.17.63l-.6.12a.23.23,0,0,1-.27-.17,1,1,0,0,0-.12-.3.93.93,0,0,0-.22-.27.81.81,0,0,0-.32-.21,1.14,1.14,0,0,0-.43-.08,1.31,1.31,0,0,0-.5.09.91.91,0,0,0-.37.24,1,1,0,0,0-.24.36,1.34,1.34,0,0,0-.08.46,1.47,1.47,0,0,0,0,.36,1.7,1.7,0,0,0,.14.35c.07.12.15.24.24.37s.22.25.36.39L200.2,140a4,4,0,0,0,.33-.77,3.78,3.78,0,0,0,.16-.8.26.26,0,0,1,.07-.16.18.18,0,0,1,.15-.06h.59a4.19,4.19,0,0,1-.74,2.35Zm-5-3.84a2.31,2.31,0,0,0-.87.74,1.64,1.64,0,0,0-.29.95,1.38,1.38,0,0,0,.13.62,1.28,1.28,0,0,0,.34.45,1.29,1.29,0,0,0,.48.28,1.54,1.54,0,0,0,.56.1,2.56,2.56,0,0,0,1.09-.22,2.89,2.89,0,0,0,.86-.6Z"/><path class="cls-2" d="M138.14,154.37v.86h-4.8v-7.79h4.8v.86h-3.75v2.59h3v.82h-3v2.66Z"/><path class="cls-2" d="M139.23,155.23v-5.51h.58a.25.25,0,0,1,.26.2l.07.57a2.79,2.79,0,0,1,.68-.61,1.64,1.64,0,0,1,.88-.24,1.28,1.28,0,0,1,.9.31,1.69,1.69,0,0,1,.5.83,1.62,1.62,0,0,1,.31-.51,1.44,1.44,0,0,1,.42-.36,1.83,1.83,0,0,1,.5-.21,2.33,2.33,0,0,1,.53-.06,1.94,1.94,0,0,1,.78.14,1.44,1.44,0,0,1,.57.4,1.92,1.92,0,0,1,.37.66,2.93,2.93,0,0,1,.12.88v3.51h-1v-3.51a1.49,1.49,0,0,0-.29-1,1,1,0,0,0-.81-.33,1.44,1.44,0,0,0-.46.08,1.14,1.14,0,0,0-.63.66,1.48,1.48,0,0,0-.1.57v3.51h-1v-3.51a1.49,1.49,0,0,0-.27-1,.92.92,0,0,0-.77-.33,1.24,1.24,0,0,0-.67.19,2.32,2.32,0,0,0-.56.53v4.1Z"/><path class="cls-2" d="M149.15,150.52a2.78,2.78,0,0,1,.78-.64,2.22,2.22,0,0,1,1.88-.06,1.72,1.72,0,0,1,.66.54,2.33,2.33,0,0,1,.42.85,3.89,3.89,0,0,1,.15,1.12,4.18,4.18,0,0,1-.17,1.22,2.68,2.68,0,0,1-.47.94,2,2,0,0,1-.75.6,2.12,2.12,0,0,1-1,.22,1.83,1.83,0,0,1-.91-.21,1.79,1.79,0,0,1-.65-.58l0,.51a.23.23,0,0,1-.25.2h-.63v-8h1Zm0,3.38a1.53,1.53,0,0,0,.58.51,1.63,1.63,0,0,0,.7.15,1.41,1.41,0,0,0,1.19-.55,2.68,2.68,0,0,0,.41-1.64,2.5,2.5,0,0,0-.36-1.49,1.28,1.28,0,0,0-1-.47,1.46,1.46,0,0,0-.82.22,2.32,2.32,0,0,0-.65.61Z"/><path class="cls-2" d="M158.73,154.46a2,2,0,0,1-.43.38,2.9,2.9,0,0,1-.53.26,4,4,0,0,1-.59.16,4.3,4.3,0,0,1-.61.05,2.77,2.77,0,0,1-1-.2,2.14,2.14,0,0,1-.83-.56,2.72,2.72,0,0,1-.55-.92,3.79,3.79,0,0,1-.19-1.26,3.14,3.14,0,0,1,.18-1.08,2.51,2.51,0,0,1,.5-.87,2.37,2.37,0,0,1,.81-.57,2.67,2.67,0,0,1,1.08-.21,2.51,2.51,0,0,1,.92.16,2.11,2.11,0,0,1,.73.48,2.4,2.4,0,0,1,.48.77,3.12,3.12,0,0,1,.17,1,.64.64,0,0,1,0,.3.19.19,0,0,1-.18.08h-3.68a3.05,3.05,0,0,0,.14.91,1.6,1.6,0,0,0,.36.64,1.5,1.5,0,0,0,.54.39,2,2,0,0,0,.71.13,1.89,1.89,0,0,0,.62-.09,2.21,2.21,0,0,0,.46-.18c.13-.06.23-.13.32-.18a.37.37,0,0,1,.22-.09.19.19,0,0,1,.18.1Zm-.78-2.58a1.75,1.75,0,0,0-.1-.62,1.25,1.25,0,0,0-.27-.48,1.12,1.12,0,0,0-.45-.32,1.55,1.55,0,0,0-.59-.11,1.49,1.49,0,0,0-1.1.4,1.88,1.88,0,0,0-.5,1.13Z"/><path class="cls-2" d="M164.56,147.22v8H164a.26.26,0,0,1-.27-.2l-.08-.67a3.3,3.3,0,0,1-.81.69,2.08,2.08,0,0,1-1,.26,2,2,0,0,1-.86-.18,1.81,1.81,0,0,1-.66-.54,2.67,2.67,0,0,1-.42-.88,4.91,4.91,0,0,1-.14-1.21,3.79,3.79,0,0,1,.16-1.14,2.71,2.71,0,0,1,.47-.91,2,2,0,0,1,.75-.6,2.12,2.12,0,0,1,1-.22,1.93,1.93,0,0,1,.87.17,2,2,0,0,1,.64.47v-3.05Zm-1,3.81a1.48,1.48,0,0,0-.58-.5,1.64,1.64,0,0,0-.71-.15,1.39,1.39,0,0,0-1.18.55,2.55,2.55,0,0,0-.41,1.57,4.09,4.09,0,0,0,.09.92,1.82,1.82,0,0,0,.27.63,1.17,1.17,0,0,0,.44.36,1.41,1.41,0,0,0,.59.11,1.64,1.64,0,0,0,.84-.21,2.24,2.24,0,0,0,.65-.62Z"/><path class="cls-2" d="M170.65,147.22v8h-.57a.26.26,0,0,1-.27-.2l-.08-.67a3.3,3.3,0,0,1-.81.69,2.08,2.08,0,0,1-1,.26,2,2,0,0,1-.86-.18,1.81,1.81,0,0,1-.66-.54,2.67,2.67,0,0,1-.42-.88,4.91,4.91,0,0,1-.14-1.21,3.79,3.79,0,0,1,.16-1.14,2.71,2.71,0,0,1,.47-.91,2,2,0,0,1,.74-.6,2.19,2.19,0,0,1,1-.22,1.93,1.93,0,0,1,.87.17,2,2,0,0,1,.64.47v-3.05Zm-1,3.81a1.48,1.48,0,0,0-.58-.5,1.64,1.64,0,0,0-.71-.15,1.39,1.39,0,0,0-1.18.55,2.55,2.55,0,0,0-.41,1.57,4.09,4.09,0,0,0,.09.92,1.82,1.82,0,0,0,.27.63,1.17,1.17,0,0,0,.44.36,1.41,1.41,0,0,0,.59.11,1.64,1.64,0,0,0,.84-.21,2.24,2.24,0,0,0,.65-.62Z"/><path class="cls-2" d="M176.66,154.46a2.25,2.25,0,0,1-.43.38,3.36,3.36,0,0,1-.54.26,4,4,0,0,1-.59.16,4,4,0,0,1-.6.05,2.82,2.82,0,0,1-1.06-.2,2.22,2.22,0,0,1-.83-.56,2.7,2.7,0,0,1-.54-.92,3.78,3.78,0,0,1-.2-1.26,3.14,3.14,0,0,1,.18-1.08,2.28,2.28,0,0,1,1.32-1.44,2.59,2.59,0,0,1,1.07-.21,2.51,2.51,0,0,1,.92.16,2.11,2.11,0,0,1,.73.48,2.4,2.4,0,0,1,.48.77,3.12,3.12,0,0,1,.17,1,.53.53,0,0,1-.05.3.19.19,0,0,1-.18.08h-3.68a3.41,3.41,0,0,0,.14.91,1.73,1.73,0,0,0,.36.64,1.5,1.5,0,0,0,.54.39,2.11,2.11,0,0,0,1.34,0,2.34,2.34,0,0,0,.45-.18c.13-.06.23-.13.32-.18a.4.4,0,0,1,.22-.09.19.19,0,0,1,.18.1Zm-.79-2.58a2,2,0,0,0-.09-.62,1.41,1.41,0,0,0-.28-.48,1.16,1.16,0,0,0-.44-.32,1.64,1.64,0,0,0-.6-.11,1.49,1.49,0,0,0-1.1.4,1.88,1.88,0,0,0-.5,1.13Z"/><path class="cls-2" d="M182.48,147.22v8h-.57a.24.24,0,0,1-.26-.2l-.09-.67a3.13,3.13,0,0,1-.81.69,2.18,2.18,0,0,1-1.9.08,1.9,1.9,0,0,1-.66-.54,2.47,2.47,0,0,1-.41-.88,4.45,4.45,0,0,1-.15-1.21,3.79,3.79,0,0,1,.16-1.14,2.9,2.9,0,0,1,.47-.91,2,2,0,0,1,.75-.6,2.12,2.12,0,0,1,1-.22,1.93,1.93,0,0,1,.87.17,2.12,2.12,0,0,1,.65.47v-3.05Zm-1,3.81a1.51,1.51,0,0,0-.59-.5,1.64,1.64,0,0,0-.71-.15,1.39,1.39,0,0,0-1.18.55,2.62,2.62,0,0,0-.41,1.57,4.09,4.09,0,0,0,.09.92,1.82,1.82,0,0,0,.27.63,1.17,1.17,0,0,0,.44.36,1.46,1.46,0,0,0,.6.11,1.6,1.6,0,0,0,.83-.21,2.4,2.4,0,0,0,.66-.62Z"/><path class="cls-2" d="M193.36,151.49v3a4.45,4.45,0,0,1-1.25.63,4.91,4.91,0,0,1-1.46.21A4.77,4.77,0,0,1,189,155a3.8,3.8,0,0,1-1.29-.82,3.64,3.64,0,0,1-.83-1.26,4.39,4.39,0,0,1-.28-1.61,4.46,4.46,0,0,1,.28-1.63,3.55,3.55,0,0,1,.79-1.26,3.6,3.6,0,0,1,1.26-.81,4.53,4.53,0,0,1,1.65-.29,5.65,5.65,0,0,1,.86.07,4,4,0,0,1,.74.2,2.77,2.77,0,0,1,.62.31,3.49,3.49,0,0,1,.54.41l-.3.48a.32.32,0,0,1-.18.13.3.3,0,0,1-.25,0l-.3-.18a3.09,3.09,0,0,0-.41-.21,2.57,2.57,0,0,0-.57-.17,3.58,3.58,0,0,0-.78-.07,3.19,3.19,0,0,0-1.19.21,2.42,2.42,0,0,0-.91.62,2.71,2.71,0,0,0-.58,1,4,4,0,0,0-.2,1.28,3.79,3.79,0,0,0,.21,1.31,2.74,2.74,0,0,0,.6,1,2.51,2.51,0,0,0,.94.61,3.52,3.52,0,0,0,1.25.22,3.48,3.48,0,0,0,1-.13,3.92,3.92,0,0,0,.83-.34v-1.71H191.2a.24.24,0,0,1-.17-.06.2.2,0,0,1-.06-.15v-.59Z"/><path class="cls-2" d="M195.58,150.83a2.55,2.55,0,0,1,.64-.89,1.39,1.39,0,0,1,.93-.31,1.69,1.69,0,0,1,.33,0,1.1,1.1,0,0,1,.29.12l-.07.73a.15.15,0,0,1-.16.13l-.23,0a1.69,1.69,0,0,0-.33,0,1.31,1.31,0,0,0-.46.07,1.1,1.1,0,0,0-.37.23,1.59,1.59,0,0,0-.29.37,3.91,3.91,0,0,0-.23.5v3.48h-1v-5.51h.55a.3.3,0,0,1,.22.06.34.34,0,0,1,.08.21Z"/><path class="cls-2" d="M200.72,149.64a2.67,2.67,0,0,1,1.08.2,2.2,2.2,0,0,1,.83.57,2.54,2.54,0,0,1,.53.89,3.93,3.93,0,0,1,0,2.35,2.63,2.63,0,0,1-.53.89,2.2,2.2,0,0,1-.83.57,2.85,2.85,0,0,1-1.08.2,3,3,0,0,1-1.1-.2,2.28,2.28,0,0,1-.83-.57,2.46,2.46,0,0,1-.52-.89,3.93,3.93,0,0,1,0-2.35,2.38,2.38,0,0,1,.52-.89,2.28,2.28,0,0,1,.83-.57A2.77,2.77,0,0,1,200.72,149.64Zm0,4.91a1.4,1.4,0,0,0,1.21-.54,2.55,2.55,0,0,0,.41-1.53,2.51,2.51,0,0,0-.41-1.53,1.38,1.38,0,0,0-1.21-.55,1.74,1.74,0,0,0-.72.14,1.21,1.21,0,0,0-.51.41,1.71,1.71,0,0,0-.31.65,3.38,3.38,0,0,0-.1.88,2.48,2.48,0,0,0,.41,1.53A1.43,1.43,0,0,0,200.72,154.55Z"/><path class="cls-2" d="M209.09,149.72v5.51h-.58a.26.26,0,0,1-.26-.2l-.07-.59a3.09,3.09,0,0,1-.81.64,2.11,2.11,0,0,1-1,.24,2,2,0,0,1-.8-.15,1.63,1.63,0,0,1-.58-.42,1.89,1.89,0,0,1-.35-.66,3.24,3.24,0,0,1-.11-.85v-3.52h1v3.52a1.45,1.45,0,0,0,.29,1,1.07,1.07,0,0,0,.87.35,1.57,1.57,0,0,0,.8-.21,2.4,2.4,0,0,0,.69-.56v-4.06Z"/><path class="cls-2" d="M211.55,150.58a2.75,2.75,0,0,1,.8-.69,2.2,2.2,0,0,1,1.91-.08,1.72,1.72,0,0,1,.66.54,2.57,2.57,0,0,1,.42.88,4.47,4.47,0,0,1,.14,1.21,3.79,3.79,0,0,1-.16,1.14,2.57,2.57,0,0,1-.47.9,2.13,2.13,0,0,1-.75.61,2.33,2.33,0,0,1-1,.22,2.06,2.06,0,0,1-.86-.17,2,2,0,0,1-.64-.48v2.44h-1v-7.38h.59a.24.24,0,0,1,.25.2Zm0,3.32a1.53,1.53,0,0,0,.58.51,1.61,1.61,0,0,0,.71.15,1.41,1.41,0,0,0,1.18-.55,2.55,2.55,0,0,0,.41-1.57,4.09,4.09,0,0,0-.09-.92,1.8,1.8,0,0,0-.28-.64,1.1,1.1,0,0,0-.44-.36,1.66,1.66,0,0,0-1.42.11,2.32,2.32,0,0,0-.65.61Z"/><path class="cls-2" d="M174.42,82.42A16.4,16.4,0,0,1,190,93.6a12.31,12.31,0,0,1,12,12.54A12.73,12.73,0,0,1,189.5,118.7H158.59a12.31,12.31,0,0,1-12.34-12.56A12.8,12.8,0,0,1,158.46,93.6a17.07,17.07,0,0,1,16-11.18m0-2.31a19.41,19.41,0,0,0-17.57,11.32,15.08,15.08,0,0,0-12.91,14.67A14.62,14.62,0,0,0,158.59,121H189.5a15,15,0,0,0,14.85-14.84,14.51,14.51,0,0,0-12.69-14.77,18.75,18.75,0,0,0-17.24-11.3Z"/><path class="cls-3" d="M160.86,110.13a1.68,1.68,0,0,0-1.21.49,1.71,1.71,0,1,0,2.41,0A1.71,1.71,0,0,0,160.86,110.13Z"/><path class="cls-2" d="M154.27,110.6a2,2,0,0,1,1.91-2,2,2,0,1,1-1.91,2Z"/><path class="cls-2" d="M166.87,110.6a2,2,0,0,1,1.91-2,2,2,0,1,1,.08,4A2,2,0,0,1,166.87,110.6Z"/><path class="cls-2" d="M173.26,107.09a3,3,0,0,0-2.82-2.92h-2.08a.91.91,0,0,0-.11-.16l-3-3.64a1.56,1.56,0,0,0-1.17-.54h-6.48a1.53,1.53,0,0,0-1.17.54l-3,3.64-.11.16h-1.79a.69.69,0,0,0-.69.69v4.54a.69.69,0,0,0,.69.68h1.84a2.92,2.92,0,0,1,2.76-2.42,3,3,0,0,1,3,2.42H166a2.92,2.92,0,0,1,2.76-2.42,3,3,0,0,1,2.95,2.42h.4a1.17,1.17,0,0,0,1.17-1.17v-1.62A1.28,1.28,0,0,0,173.26,107.09Zm-13.06-2.24h-5.58l3-3.64h2.59Zm6.86,0H161.5V101.2h2.59l3,3.62Z"/><g id="map-2" data-name="map"><path class="cls-2" d="M178.77,91.41H177.7V89.72h0a3,3,0,0,0-6,0v1.66h-1.06a.44.44,0,0,0-.44.44h0v6.06a.44.44,0,0,0,.44.44h8.11a.44.44,0,0,0,.44-.44h0V91.85a.44.44,0,0,0-.44-.44Zm-3.09,5.06h-1.94l.52-1.62a1,1,0,1,1,1.37-.47,1,1,0,0,1-.46.47Zm1-5.06h-4V89.72a2,2,0,0,1,4,0Z"/></g><polygon class="cls-2" points="181.77 113.83 181.77 106.77 182.55 106.77 182.55 113.06 193.18 113.06 193.18 106.77 193.96 106.77 193.96 113.83 181.77 113.83"/><polygon class="cls-2" points="187.79 99.87 181.08 106.58 180.53 106.03 187.79 98.77 195.2 106.19 194.65 106.74 187.79 99.87"/><rect class="cls-2" x="184.75" y="107.85" width="2.52" height="5.34"/><rect class="cls-2" x="188.75" y="104.74" width="2.52" height="5.34"/><path class="cls-2" d="M363.63,141.3v.88h-4.42v-7.79h1.05v6.91Z"/><path class="cls-2" d="M365.79,134.94a.6.6,0,0,1-.06.27,1.07,1.07,0,0,1-.15.22.64.64,0,0,1-.22.14.66.66,0,0,1-.27.06.63.63,0,0,1-.27-.06.6.6,0,0,1-.21-.14,1.07,1.07,0,0,1-.15-.22.76.76,0,0,1,0-.27.86.86,0,0,1,0-.27,1.07,1.07,0,0,1,.15-.22.61.61,0,0,1,.48-.2.66.66,0,0,1,.49.2,1.07,1.07,0,0,1,.15.22A.66.66,0,0,1,365.79,134.94Zm-.21,1.73v5.51h-1v-5.51Z"/><path class="cls-2" d="M368.09,137.47a2.6,2.6,0,0,1,.38-.36,2.36,2.36,0,0,1,.42-.28,2,2,0,0,1,.48-.18,2.38,2.38,0,0,1,.55-.06,2,2,0,0,1,.79.15,1.55,1.55,0,0,1,.58.42,1.89,1.89,0,0,1,.35.66,2.86,2.86,0,0,1,.12.85v3.51h-1v-3.51a1.5,1.5,0,0,0-.29-1,1.06,1.06,0,0,0-.87-.34,1.62,1.62,0,0,0-.8.21,2.36,2.36,0,0,0-.68.56v4.05h-1v-5.51h.58a.24.24,0,0,1,.26.2Z"/><path class="cls-2" d="M373.1,137.45a3.26,3.26,0,0,1,1-.66,3.13,3.13,0,0,1,1.17-.21,2.1,2.1,0,0,1,.82.15,1.75,1.75,0,0,1,.61.42,1.92,1.92,0,0,1,.37.66,2.86,2.86,0,0,1,.12.85v3.52h-.43a.36.36,0,0,1-.22-.05.32.32,0,0,1-.12-.18l-.1-.52c-.15.14-.29.25-.43.36a2.73,2.73,0,0,1-.43.26,2.81,2.81,0,0,1-.49.16,2.49,2.49,0,0,1-.57.06,2,2,0,0,1-.61-.09,1.37,1.37,0,0,1-.49-.27,1.25,1.25,0,0,1-.33-.45,1.64,1.64,0,0,1-.12-.65,1.21,1.21,0,0,1,.18-.63,1.61,1.61,0,0,1,.58-.54,4.08,4.08,0,0,1,1.05-.38,7.66,7.66,0,0,1,1.59-.17v-.43a1.5,1.5,0,0,0-.28-1,1,1,0,0,0-.81-.33,1.72,1.72,0,0,0-.6.09,2,2,0,0,0-.42.2l-.31.2a.43.43,0,0,1-.25.09.34.34,0,0,1-.17-.05l-.12-.13Zm3.13,2.25a8.15,8.15,0,0,0-1.14.11,3,3,0,0,0-.77.22,1.07,1.07,0,0,0-.43.32.67.67,0,0,0-.13.41.89.89,0,0,0,.07.38.7.7,0,0,0,.19.26.87.87,0,0,0,.29.14,1.34,1.34,0,0,0,.35.05,2.26,2.26,0,0,0,.47-.05,2.37,2.37,0,0,0,.4-.15,2.25,2.25,0,0,0,.36-.24,3.18,3.18,0,0,0,.34-.31Z"/><path class="cls-2" d="M379.56,137.78a2.68,2.68,0,0,1,.64-.89,1.43,1.43,0,0,1,.93-.31,1.87,1.87,0,0,1,.34,0,1,1,0,0,1,.28.12l-.07.73a.15.15,0,0,1-.16.13l-.22,0a1.69,1.69,0,0,0-.33,0,1.37,1.37,0,0,0-.47.07,1,1,0,0,0-.36.23,1.36,1.36,0,0,0-.29.37,2.9,2.9,0,0,0-.23.5v3.48h-1v-5.51h.56a.32.32,0,0,1,.22.06.42.42,0,0,1,.08.21Z"/><path class="cls-2" d="M384.7,136.59a2.72,2.72,0,0,1,1.09.2,2.28,2.28,0,0,1,.83.57,2.52,2.52,0,0,1,.52.89,3.93,3.93,0,0,1,0,2.35,2.61,2.61,0,0,1-.52.89,2.28,2.28,0,0,1-.83.57,3.07,3.07,0,0,1-2.18,0,2.13,2.13,0,0,1-.83-.57,2.48,2.48,0,0,1-.53-.89,3.93,3.93,0,0,1,0-2.35,2.4,2.4,0,0,1,.53-.89,2.13,2.13,0,0,1,.83-.57A2.72,2.72,0,0,1,384.7,136.59Zm0,4.91a1.43,1.43,0,0,0,1.22-.54,2.55,2.55,0,0,0,.4-1.53,2.51,2.51,0,0,0-.4-1.53,1.41,1.41,0,0,0-1.22-.55,1.65,1.65,0,0,0-.72.14,1.34,1.34,0,0,0-.51.41,1.56,1.56,0,0,0-.3.65,3.36,3.36,0,0,0-.11.88,2.55,2.55,0,0,0,.41,1.53A1.44,1.44,0,0,0,384.7,141.5Z"/><path class="cls-2" d="M396.36,141.32v.86h-4.8v-7.79h4.8v.86h-3.75v2.59h3v.82h-3v2.66Z"/><path class="cls-2" d="M401.94,134.17v8h-.58a.25.25,0,0,1-.26-.2l-.09-.67a3.09,3.09,0,0,1-.8.69,2.1,2.1,0,0,1-1,.26,2,2,0,0,1-.85-.18,1.81,1.81,0,0,1-.66-.54,2.67,2.67,0,0,1-.42-.88,4.45,4.45,0,0,1-.15-1.21,3.78,3.78,0,0,1,.17-1.14,2.69,2.69,0,0,1,.46-.91,2.17,2.17,0,0,1,.75-.6,2.19,2.19,0,0,1,1-.22,2,2,0,0,1,.87.17,2.08,2.08,0,0,1,.64.47v-3.05ZM401,138a1.51,1.51,0,0,0-.59-.5,1.6,1.6,0,0,0-.7-.15,1.36,1.36,0,0,0-1.18.55,2.55,2.55,0,0,0-.42,1.57,3.55,3.55,0,0,0,.1.92,1.82,1.82,0,0,0,.27.63,1.1,1.1,0,0,0,.44.36,1.38,1.38,0,0,0,.59.11,1.57,1.57,0,0,0,.83-.21,2.4,2.4,0,0,0,.66-.62Z"/><path class="cls-2" d="M408.12,136.89v.36c0,.12-.08.2-.23.23l-.62.08a1.73,1.73,0,0,1,.18.79,1.7,1.7,0,0,1-.15.73,1.86,1.86,0,0,1-.43.57,2.14,2.14,0,0,1-.65.36,2.78,2.78,0,0,1-.83.12,2.86,2.86,0,0,1-.73-.09,1,1,0,0,0-.26.23.36.36,0,0,0-.1.25.32.32,0,0,0,.16.29,1.14,1.14,0,0,0,.43.15,3.42,3.42,0,0,0,.59,0l.69,0a5.05,5.05,0,0,1,.68.08,2.23,2.23,0,0,1,.6.2,1.15,1.15,0,0,1,.42.37,1.16,1.16,0,0,1,.16.62,1.42,1.42,0,0,1-.18.69,1.89,1.89,0,0,1-.51.59,2.57,2.57,0,0,1-.81.41,3.62,3.62,0,0,1-1.09.16,4.1,4.1,0,0,1-1.05-.12,2.6,2.6,0,0,1-.75-.32,1.43,1.43,0,0,1-.45-.47,1.11,1.11,0,0,1-.15-.55,1,1,0,0,1,.26-.69,1.7,1.7,0,0,1,.7-.45,1.17,1.17,0,0,1-.39-.29.78.78,0,0,1-.14-.5.67.67,0,0,1,0-.24,1.05,1.05,0,0,1,.13-.26,1.65,1.65,0,0,1,.22-.24,1.38,1.38,0,0,1,.31-.2,1.71,1.71,0,0,1-.64-.61,1.67,1.67,0,0,1-.23-.88,1.63,1.63,0,0,1,.16-.73,1.68,1.68,0,0,1,.43-.56,2,2,0,0,1,.66-.35,2.55,2.55,0,0,1,.84-.13,2.86,2.86,0,0,1,.67.08,2.2,2.2,0,0,1,.57.23Zm-1,5.59a.48.48,0,0,0-.12-.33.78.78,0,0,0-.31-.19,1.68,1.68,0,0,0-.44-.1l-.54-.05-.58,0a5,5,0,0,1-.57-.06,1.74,1.74,0,0,0-.5.36.71.71,0,0,0-.19.5.7.7,0,0,0,.09.35.9.9,0,0,0,.3.28,1.74,1.74,0,0,0,.49.18,2.91,2.91,0,0,0,.7.07,3,3,0,0,0,.7-.07,2.09,2.09,0,0,0,.52-.2.9.9,0,0,0,.33-.31A.7.7,0,0,0,407.14,142.48Zm-1.75-3a1.62,1.62,0,0,0,.52-.08,1.06,1.06,0,0,0,.37-.23.93.93,0,0,0,.23-.35,1.33,1.33,0,0,0,.08-.45,1.08,1.08,0,0,0-.31-.8,1.23,1.23,0,0,0-.89-.3,1.21,1.21,0,0,0-.89.3,1,1,0,0,0-.31.8,1.33,1.33,0,0,0,.08.45.93.93,0,0,0,.23.35,1.16,1.16,0,0,0,.37.23A1.62,1.62,0,0,0,405.39,139.49Z"/><path class="cls-2" d="M413.51,141.41a2,2,0,0,1-.43.38,3.36,3.36,0,0,1-.54.26,3.65,3.65,0,0,1-.59.16,4,4,0,0,1-.6,0,2.77,2.77,0,0,1-1.05-.2,2.14,2.14,0,0,1-.83-.56,2.57,2.57,0,0,1-.55-.92,3.78,3.78,0,0,1-.2-1.26,3.14,3.14,0,0,1,.18-1.08,2.7,2.7,0,0,1,.51-.87,2.37,2.37,0,0,1,.81-.57,2.67,2.67,0,0,1,1.08-.21,2.45,2.45,0,0,1,.91.16,2,2,0,0,1,.73.48,2.1,2.1,0,0,1,.48.77,2.89,2.89,0,0,1,.18,1.05.64.64,0,0,1-.05.3.21.21,0,0,1-.19.08h-3.68a3,3,0,0,0,.15.91,1.71,1.71,0,0,0,.35.64,1.53,1.53,0,0,0,.55.39,2.08,2.08,0,0,0,1.33,0,1.91,1.91,0,0,0,.45-.18l.32-.18a.42.42,0,0,1,.22-.09.22.22,0,0,1,.19.1Zm-.78-2.58a2,2,0,0,0-.1-.62,1.15,1.15,0,0,0-.28-.48,1.16,1.16,0,0,0-.44-.32,1.55,1.55,0,0,0-.59-.11,1.47,1.47,0,0,0-1.1.4,2,2,0,0,0-.51,1.13Z"/><path class="cls-2" d="M424.45,142.18h-.94a.65.65,0,0,1-.26,0A.59.59,0,0,1,423,142l-.79-.8a4.09,4.09,0,0,1-1.17.79,3.74,3.74,0,0,1-1.47.29,2.5,2.5,0,0,1-.85-.15,2.33,2.33,0,0,1-.75-.43,2,2,0,0,1-.53-.68,2.06,2.06,0,0,1-.2-.91,2,2,0,0,1,.13-.72,2.25,2.25,0,0,1,.35-.62,2.43,2.43,0,0,1,.54-.52,3.76,3.76,0,0,1,.68-.39,3.62,3.62,0,0,1-.49-.82,2.3,2.3,0,0,1-.16-.82,1.85,1.85,0,0,1,.15-.74,1.6,1.6,0,0,1,.41-.61,2,2,0,0,1,.66-.41,2.42,2.42,0,0,1,.88-.15,2.21,2.21,0,0,1,.78.14,2.07,2.07,0,0,1,.61.37,1.73,1.73,0,0,1,.4.53,1.56,1.56,0,0,1,.17.63l-.6.12a.23.23,0,0,1-.27-.17,1,1,0,0,0-.12-.3,1.09,1.09,0,0,0-.21-.27.93.93,0,0,0-.33-.21,1.14,1.14,0,0,0-.43-.08,1.31,1.31,0,0,0-.5.09.91.91,0,0,0-.37.24,1.13,1.13,0,0,0-.24.36,1.34,1.34,0,0,0-.08.46,2.2,2.2,0,0,0,0,.36,1.7,1.7,0,0,0,.14.35c.07.12.15.24.24.37s.22.25.36.39l2.24,2.28a4,4,0,0,0,.33-.77,3.78,3.78,0,0,0,.16-.8.26.26,0,0,1,.07-.16.2.2,0,0,1,.15-.06h.59a4.19,4.19,0,0,1-.74,2.35Zm-5-3.84a2.31,2.31,0,0,0-.87.74,1.64,1.64,0,0,0-.29.95,1.38,1.38,0,0,0,.13.62,1.28,1.28,0,0,0,.34.45,1.29,1.29,0,0,0,.48.28,1.58,1.58,0,0,0,.56.1,2.53,2.53,0,0,0,1.09-.22,2.89,2.89,0,0,0,.86-.6Z"/><path class="cls-2" d="M429.38,135.25V138h3.2v.86h-3.2v3.35h-1.06v-7.79h4.8v.86Z"/><path class="cls-2" d="M436.09,136.59a2.72,2.72,0,0,1,1.09.2,2.28,2.28,0,0,1,.83.57,2.52,2.52,0,0,1,.52.89,3.93,3.93,0,0,1,0,2.35,2.61,2.61,0,0,1-.52.89,2.28,2.28,0,0,1-.83.57,3.07,3.07,0,0,1-2.18,0,2.2,2.2,0,0,1-.83-.57,2.48,2.48,0,0,1-.53-.89,3.93,3.93,0,0,1,0-2.35,2.4,2.4,0,0,1,.53-.89,2.2,2.2,0,0,1,.83-.57A2.72,2.72,0,0,1,436.09,136.59Zm0,4.91a1.42,1.42,0,0,0,1.22-.54,2.55,2.55,0,0,0,.4-1.53,2.51,2.51,0,0,0-.4-1.53,1.4,1.4,0,0,0-1.22-.55,1.65,1.65,0,0,0-.72.14,1.34,1.34,0,0,0-.51.41,1.56,1.56,0,0,0-.3.65,3.38,3.38,0,0,0-.1.88,2.55,2.55,0,0,0,.4,1.53A1.44,1.44,0,0,0,436.09,141.5Z"/><path class="cls-2" d="M444.56,136.89v.36c0,.12-.08.2-.23.23l-.63.08a1.62,1.62,0,0,1,.19.79,1.57,1.57,0,0,1-.16.73,1.69,1.69,0,0,1-.42.57,2.08,2.08,0,0,1-.66.36,2.66,2.66,0,0,1-.82.12,2.86,2.86,0,0,1-.73-.09,1.05,1.05,0,0,0-.27.23.4.4,0,0,0-.09.25.31.31,0,0,0,.16.29,1.15,1.15,0,0,0,.42.15,3.54,3.54,0,0,0,.6,0l.68,0a5.2,5.2,0,0,1,.69.08,2,2,0,0,1,.59.2,1.11,1.11,0,0,1,.43.37,1.16,1.16,0,0,1,.16.62,1.42,1.42,0,0,1-.18.69,1.89,1.89,0,0,1-.51.59,2.57,2.57,0,0,1-.81.41,3.67,3.67,0,0,1-1.09.16,4.1,4.1,0,0,1-1.05-.12,2.6,2.6,0,0,1-.75-.32,1.43,1.43,0,0,1-.45-.47,1.11,1.11,0,0,1-.15-.55,1,1,0,0,1,.25-.69,1.74,1.74,0,0,1,.71-.45,1,1,0,0,1-.39-.29.78.78,0,0,1-.15-.5.69.69,0,0,1,.05-.24,1.05,1.05,0,0,1,.13-.26,1.23,1.23,0,0,1,.22-.24,1.38,1.38,0,0,1,.31-.2,1.64,1.64,0,0,1-.64-.61,1.67,1.67,0,0,1-.23-.88,1.63,1.63,0,0,1,.16-.73,1.56,1.56,0,0,1,.43-.56,1.89,1.89,0,0,1,.66-.35,2.47,2.47,0,0,1,.84-.13,2.86,2.86,0,0,1,.67.08,2.13,2.13,0,0,1,.56.23Zm-1,5.59a.47.47,0,0,0-.11-.33.86.86,0,0,0-.31-.19,1.87,1.87,0,0,0-.45-.1l-.54-.05-.58,0a5,5,0,0,1-.56-.06,1.61,1.61,0,0,0-.5.36.71.71,0,0,0-.19.5.7.7,0,0,0,.09.35.87.87,0,0,0,.29.28,1.81,1.81,0,0,0,.5.18,2.82,2.82,0,0,0,.69.07,3,3,0,0,0,.71-.07,2.09,2.09,0,0,0,.52-.2,1.1,1.1,0,0,0,.33-.31A.69.69,0,0,0,443.57,142.48Zm-1.74-3a1.67,1.67,0,0,0,.52-.08,1.16,1.16,0,0,0,.37-.23.93.93,0,0,0,.23-.35,1.33,1.33,0,0,0,.07-.45,1.07,1.07,0,0,0-.3-.8,1.23,1.23,0,0,0-.89-.3,1.25,1.25,0,0,0-.9.3,1.07,1.07,0,0,0-.3.8,1.12,1.12,0,0,0,.08.45.82.82,0,0,0,.23.35,1.06,1.06,0,0,0,.37.23A1.62,1.62,0,0,0,441.83,139.49Z"/><path class="cls-2" d="M365.19,153.62a.26.26,0,0,1,.16.07l.42.45a3.44,3.44,0,0,1-1.16.87,4.36,4.36,0,0,1-3.18,0,3.59,3.59,0,0,1-1.17-.82,3.77,3.77,0,0,1-.75-1.26,4.85,4.85,0,0,1-.26-1.61,4.67,4.67,0,0,1,.27-1.62,3.83,3.83,0,0,1,.78-1.26,3.65,3.65,0,0,1,1.21-.82,4.08,4.08,0,0,1,1.55-.29,3.78,3.78,0,0,1,1.47.27,4,4,0,0,1,1.12.72l-.35.49-.09.09a.25.25,0,0,1-.13,0,.4.4,0,0,1-.24-.1,3.43,3.43,0,0,0-.37-.24,3.05,3.05,0,0,0-.57-.24,3,3,0,0,0-.85-.1,2.8,2.8,0,0,0-1.1.21,2.35,2.35,0,0,0-.86.6,3,3,0,0,0-.57,1,4,4,0,0,0-.2,1.29,3.77,3.77,0,0,0,.21,1.3,2.85,2.85,0,0,0,.57,1,2.24,2.24,0,0,0,.86.6,2.67,2.67,0,0,0,1.06.21,4.09,4.09,0,0,0,.63,0,2.54,2.54,0,0,0,.51-.13,2.35,2.35,0,0,0,.45-.22,2.8,2.8,0,0,0,.4-.32A.29.29,0,0,1,365.19,153.62Z"/><path class="cls-2" d="M369,149.64a2.67,2.67,0,0,1,1.08.2,2.2,2.2,0,0,1,.83.57,2.38,2.38,0,0,1,.52.89,3.73,3.73,0,0,1,0,2.35,2.46,2.46,0,0,1-.52.89,2.2,2.2,0,0,1-.83.57,2.85,2.85,0,0,1-1.08.2,2.92,2.92,0,0,1-1.1-.2,2.2,2.2,0,0,1-.83-.57,2.63,2.63,0,0,1-.53-.89,3.93,3.93,0,0,1,0-2.35,2.54,2.54,0,0,1,.53-.89,2.2,2.2,0,0,1,.83-.57A2.73,2.73,0,0,1,369,149.64Zm0,4.91a1.41,1.41,0,0,0,1.21-.54,2.55,2.55,0,0,0,.41-1.53,2.51,2.51,0,0,0-.41-1.53,1.39,1.39,0,0,0-1.21-.55,1.83,1.83,0,0,0-.73.14,1.34,1.34,0,0,0-.51.41,1.86,1.86,0,0,0-.3.65,3.38,3.38,0,0,0-.1.88,2.55,2.55,0,0,0,.4,1.53A1.45,1.45,0,0,0,369,154.55Z"/><path class="cls-2" d="M372.82,155.23v-5.51h.58a.25.25,0,0,1,.26.2l.07.57a2.79,2.79,0,0,1,.68-.61,1.64,1.64,0,0,1,.88-.24,1.28,1.28,0,0,1,.9.31,1.69,1.69,0,0,1,.5.83,1.62,1.62,0,0,1,.31-.51,1.44,1.44,0,0,1,.42-.36,1.71,1.71,0,0,1,.5-.21,2.33,2.33,0,0,1,.53-.06,1.94,1.94,0,0,1,.78.14,1.44,1.44,0,0,1,.57.4,1.75,1.75,0,0,1,.36.66,2.63,2.63,0,0,1,.13.88v3.51h-1v-3.51a1.49,1.49,0,0,0-.29-1,1,1,0,0,0-.81-.33,1.44,1.44,0,0,0-.46.08,1.14,1.14,0,0,0-.63.66,1.48,1.48,0,0,0-.1.57v3.51h-1v-3.51a1.49,1.49,0,0,0-.27-1,.92.92,0,0,0-.77-.33,1.24,1.24,0,0,0-.67.19,2.32,2.32,0,0,0-.56.53v4.1Z"/><path class="cls-2" d="M382.69,150.58a2.75,2.75,0,0,1,.8-.69,2,2,0,0,1,1.05-.26,2,2,0,0,1,.86.18,1.72,1.72,0,0,1,.66.54,2.57,2.57,0,0,1,.42.88,4.47,4.47,0,0,1,.14,1.21,3.79,3.79,0,0,1-.16,1.14,2.57,2.57,0,0,1-.47.9,2.13,2.13,0,0,1-.75.61,2.33,2.33,0,0,1-1,.22,2.06,2.06,0,0,1-.86-.17,2,2,0,0,1-.64-.48v2.44h-1v-7.38h.59a.24.24,0,0,1,.25.2Zm.05,3.32a1.53,1.53,0,0,0,.58.51,1.6,1.6,0,0,0,.7.15,1.41,1.41,0,0,0,1.19-.55,2.55,2.55,0,0,0,.41-1.57,4.09,4.09,0,0,0-.09-.92,1.8,1.8,0,0,0-.28-.64,1.1,1.1,0,0,0-.44-.36,1.66,1.66,0,0,0-1.42.11,2.32,2.32,0,0,0-.65.61Z"/><path class="cls-2" d="M392.39,149.72v5.51h-.58a.25.25,0,0,1-.26-.2l-.07-.59a3.09,3.09,0,0,1-.81.64,2.13,2.13,0,0,1-1,.24,2,2,0,0,1-.8-.15,1.63,1.63,0,0,1-.58-.42,1.89,1.89,0,0,1-.35-.66,2.86,2.86,0,0,1-.12-.85v-3.52h1v3.52a1.45,1.45,0,0,0,.29,1,1.07,1.07,0,0,0,.87.35,1.59,1.59,0,0,0,.8-.21,2.4,2.4,0,0,0,.69-.56v-4.06Z"/><path class="cls-2" d="M399,155.23h-1v-4.7h-2.83v3.31a.7.7,0,0,0,.17.52.57.57,0,0,0,.43.16.68.68,0,0,0,.26,0,.61.61,0,0,0,.2-.09l.14-.09a.21.21,0,0,1,.1,0c.05,0,.09,0,.13.1l.28.46a1.79,1.79,0,0,1-.6.37,2.24,2.24,0,0,1-.73.13,1.3,1.3,0,0,1-1-.37,1.46,1.46,0,0,1-.35-1v-3.37h-.66a.19.19,0,0,1-.21-.21v-.38l.9-.12.22-1.7a.22.22,0,0,1,.08-.13.2.2,0,0,1,.15-.06h.49v1.9H399Zm.24-7.27a.75.75,0,0,1,0,.26.65.65,0,0,1-.16.21.48.48,0,0,1-.22.15.58.58,0,0,1-.26.06.6.6,0,0,1-.27-.06.51.51,0,0,1-.21-.15.8.8,0,0,1-.15-.21.58.58,0,0,1-.05-.26.59.59,0,0,1,.05-.27.91.91,0,0,1,.15-.23.8.8,0,0,1,.21-.15.76.76,0,0,1,.27-.05.75.75,0,0,1,.26.05.71.71,0,0,1,.22.15.73.73,0,0,1,.16.23A.76.76,0,0,1,399.27,148Z"/><path class="cls-2" d="M401.53,150.52a4.27,4.27,0,0,1,.38-.36,2.87,2.87,0,0,1,.43-.28,2,2,0,0,1,.48-.18,2.38,2.38,0,0,1,.55-.06,2,2,0,0,1,.79.15,1.55,1.55,0,0,1,.58.42,1.89,1.89,0,0,1,.35.66,2.86,2.86,0,0,1,.12.85v3.51h-1v-3.51a1.5,1.5,0,0,0-.29-1,1.06,1.06,0,0,0-.87-.34,1.62,1.62,0,0,0-.8.21,2.4,2.4,0,0,0-.69.56v4h-1v-5.51h.58a.24.24,0,0,1,.26.2Z"/><path class="cls-2" d="M411.34,149.94v.36c0,.12-.08.2-.23.23l-.63.08a1.62,1.62,0,0,1,.19.79,1.57,1.57,0,0,1-.16.73,1.69,1.69,0,0,1-.42.57,2.14,2.14,0,0,1-.65.36,2.78,2.78,0,0,1-.83.12,2.86,2.86,0,0,1-.73-.09,1.05,1.05,0,0,0-.27.23.4.4,0,0,0-.09.25.31.31,0,0,0,.16.29,1.15,1.15,0,0,0,.42.15,3.64,3.64,0,0,0,.6.05l.68,0a5,5,0,0,1,.69.08,2,2,0,0,1,.59.2,1.11,1.11,0,0,1,.43.37,1.16,1.16,0,0,1,.16.62,1.42,1.42,0,0,1-.18.69,1.89,1.89,0,0,1-.51.59,2.57,2.57,0,0,1-.81.41,3.67,3.67,0,0,1-1.09.16,4.1,4.1,0,0,1-1.05-.12,2.6,2.6,0,0,1-.75-.32,1.43,1.43,0,0,1-.45-.47,1.11,1.11,0,0,1-.15-.55,1,1,0,0,1,.26-.69,1.7,1.7,0,0,1,.7-.45,1,1,0,0,1-.39-.29.78.78,0,0,1-.15-.5.69.69,0,0,1,.05-.24,1.05,1.05,0,0,1,.13-.26,1.6,1.6,0,0,1,.22-.24,1.38,1.38,0,0,1,.31-.2,1.64,1.64,0,0,1-.64-.61,1.67,1.67,0,0,1-.23-.88,1.63,1.63,0,0,1,.16-.73,1.56,1.56,0,0,1,.43-.56,1.89,1.89,0,0,1,.66-.35,2.47,2.47,0,0,1,.84-.13,2.86,2.86,0,0,1,.67.08,2.13,2.13,0,0,1,.56.23Zm-1,5.59a.47.47,0,0,0-.11-.33.86.86,0,0,0-.31-.19,1.87,1.87,0,0,0-.45-.1l-.54,0-.58,0-.56-.05a1.54,1.54,0,0,0-.5.35.71.71,0,0,0-.19.5.7.7,0,0,0,.09.35.87.87,0,0,0,.29.28,1.81,1.81,0,0,0,.5.18,2.85,2.85,0,0,0,.7.07,3,3,0,0,0,.7-.07,2.09,2.09,0,0,0,.52-.2,1.1,1.1,0,0,0,.33-.31A.69.69,0,0,0,410.35,155.53Zm-1.74-3a1.67,1.67,0,0,0,.52-.08,1.16,1.16,0,0,0,.37-.23.93.93,0,0,0,.23-.35,1.33,1.33,0,0,0,.08-.45,1.08,1.08,0,0,0-.31-.8,1.23,1.23,0,0,0-.89-.3,1.25,1.25,0,0,0-.9.3,1.07,1.07,0,0,0-.3.8,1.12,1.12,0,0,0,.08.45.82.82,0,0,0,.23.35,1.06,1.06,0,0,0,.37.23A1.62,1.62,0,0,0,408.61,152.54Z"/><path class="cls-2" d="M421.69,151.49v3a4.51,4.51,0,0,1-1.26.63,4.81,4.81,0,0,1-1.46.21,4.75,4.75,0,0,1-1.69-.29,3.84,3.84,0,0,1-1.3-.82,3.62,3.62,0,0,1-.82-1.26,4.39,4.39,0,0,1-.29-1.61,4.68,4.68,0,0,1,.28-1.63,3.72,3.72,0,0,1,.8-1.26,3.42,3.42,0,0,1,1.26-.81,4.53,4.53,0,0,1,1.65-.29,5.76,5.76,0,0,1,.86.07,3.89,3.89,0,0,1,.73.2,2.64,2.64,0,0,1,.63.31,3.49,3.49,0,0,1,.54.41l-.3.48a.31.31,0,0,1-.19.13.28.28,0,0,1-.24,0l-.3-.18a3.09,3.09,0,0,0-.41-.21,2.57,2.57,0,0,0-.57-.17,3.58,3.58,0,0,0-.78-.07,3.19,3.19,0,0,0-1.19.21,2.42,2.42,0,0,0-.91.62,2.57,2.57,0,0,0-.58,1,4,4,0,0,0-.2,1.28,3.79,3.79,0,0,0,.21,1.31,2.74,2.74,0,0,0,.6,1,2.51,2.51,0,0,0,.94.61,3.64,3.64,0,0,0,2.21.09,3.65,3.65,0,0,0,.82-.34v-1.71h-1.21a.21.21,0,0,1-.16-.06.18.18,0,0,1-.07-.15v-.59Z"/><path class="cls-2" d="M423.9,150.83a2.57,2.57,0,0,1,.65-.89,1.39,1.39,0,0,1,.93-.31,1.84,1.84,0,0,1,.33,0,1.26,1.26,0,0,1,.29.12l-.07.73a.16.16,0,0,1-.17.13l-.22,0a1.69,1.69,0,0,0-.33,0,1.37,1.37,0,0,0-.47.07,1.16,1.16,0,0,0-.36.23,1.59,1.59,0,0,0-.29.37,3.91,3.91,0,0,0-.23.5v3.48h-1v-5.51h.55a.3.3,0,0,1,.22.06.42.42,0,0,1,.08.21Z"/><path class="cls-2" d="M429,149.64a2.72,2.72,0,0,1,1.09.2,2.28,2.28,0,0,1,.83.57,2.52,2.52,0,0,1,.52.89,3.93,3.93,0,0,1,0,2.35,2.61,2.61,0,0,1-.52.89,2.28,2.28,0,0,1-.83.57,3.07,3.07,0,0,1-2.18,0,2.2,2.2,0,0,1-.83-.57,2.48,2.48,0,0,1-.53-.89,3.93,3.93,0,0,1,0-2.35,2.4,2.4,0,0,1,.53-.89,2.2,2.2,0,0,1,.83-.57A2.72,2.72,0,0,1,429,149.64Zm0,4.91a1.42,1.42,0,0,0,1.22-.54,2.55,2.55,0,0,0,.4-1.53,2.51,2.51,0,0,0-.4-1.53,1.4,1.4,0,0,0-1.22-.55,1.81,1.81,0,0,0-.72.14,1.34,1.34,0,0,0-.51.41,1.56,1.56,0,0,0-.3.65,3.38,3.38,0,0,0-.1.88,2.55,2.55,0,0,0,.4,1.53A1.44,1.44,0,0,0,429,154.55Z"/><path class="cls-2" d="M437.42,149.72v5.51h-.58a.24.24,0,0,1-.26-.2l-.08-.59a3.22,3.22,0,0,1-.8.64,2.13,2.13,0,0,1-1,.24,2,2,0,0,1-.8-.15,1.63,1.63,0,0,1-.58-.42,1.74,1.74,0,0,1-.35-.66,2.86,2.86,0,0,1-.12-.85v-3.52h1v3.52a1.45,1.45,0,0,0,.29,1,1.07,1.07,0,0,0,.87.35,1.62,1.62,0,0,0,.8-.21,2.4,2.4,0,0,0,.69-.56v-4.06Z"/><path class="cls-2" d="M439.87,150.58a2.78,2.78,0,0,1,.81-.69,2,2,0,0,1,1-.26,2.05,2.05,0,0,1,.87.18,1.76,1.76,0,0,1,.65.54,2.4,2.4,0,0,1,.42.88,4.45,4.45,0,0,1,.15,1.21,3.79,3.79,0,0,1-.16,1.14,2.75,2.75,0,0,1-.47.9,2.15,2.15,0,0,1-1.75.83,2.08,2.08,0,0,1-.87-.17,2.29,2.29,0,0,1-.64-.48v2.44h-1v-7.38h.58a.25.25,0,0,1,.26.2Zm.05,3.32a1.61,1.61,0,0,0,.58.51,1.64,1.64,0,0,0,.71.15,1.42,1.42,0,0,0,1.19-.55,2.62,2.62,0,0,0,.41-1.57,3.55,3.55,0,0,0-.1-.92,1.79,1.79,0,0,0-.27-.64,1.17,1.17,0,0,0-.44-.36,1.55,1.55,0,0,0-.59-.11,1.49,1.49,0,0,0-.83.22,2.35,2.35,0,0,0-.66.61Z"/><path class="cls-2" d="M401.34,79.53a14.57,14.57,0,0,1,13.85,9.92,10.9,10.9,0,0,1,10.65,11.12,11.3,11.3,0,0,1-11.12,11.14H387.3a10.91,10.91,0,0,1-10.94-11.14,11.35,11.35,0,0,1,10.83-11.12,15.13,15.13,0,0,1,14.15-9.92m0-2a17.19,17.19,0,0,0-15.57,10,13.39,13.39,0,0,0-11.46,13,13,13,0,0,0,13,13.22h27.42a13.33,13.33,0,0,0,13.17-13.16,12.87,12.87,0,0,0-11.25-13.1,16.63,16.63,0,0,0-15.3-10Z"/><path class="cls-3" d="M386.18,89.22a1.67,1.67,0,0,0-1.2.5,1.74,1.74,0,0,0,0,2.43,1.71,1.71,0,0,0,2.4,0,1.72,1.72,0,0,0-1.2-2.93Z"/><path class="cls-2" d="M384.12,118.09a3.22,3.22,0,1,0,0,.55,1.18,1.18,0,0,0,0-.27A1.27,1.27,0,0,0,384.12,118.09Zm-3.19,2.55a2.27,2.27,0,1,1,2.25-2.55,1.27,1.27,0,0,1,0,.28,1.18,1.18,0,0,1,0,.27A2.26,2.26,0,0,1,380.93,120.64Z"/><path class="cls-2" d="M421.27,115.16a3.19,3.19,0,0,0-3.19,2.93,1.27,1.27,0,0,0,0,.28,1.18,1.18,0,0,0,0,.27,3.2,3.2,0,1,0,3.19-3.48Zm0,5.48a2.26,2.26,0,0,1-2.25-2,1.18,1.18,0,0,1,0-.27,1.27,1.27,0,0,1,0-.28,2.26,2.26,0,1,1,2.25,2.55Z"/><path class="cls-2" d="M412.8,121a3.19,3.19,0,0,0-3.19,2.92,1.27,1.27,0,0,0,0,.28,1.32,1.32,0,0,0,0,.28A3.21,3.21,0,1,0,412.8,121Zm0,5.47a2.27,2.27,0,0,1-2.25-2,1.32,1.32,0,0,1,0-.28,1.27,1.27,0,0,1,0-.28,2.27,2.27,0,1,1,2.25,2.55Z"/><path class="cls-2" d="M392.56,123.94a3.22,3.22,0,1,0,0,.55,1.9,1.9,0,0,0,0-.55Zm-3.19,2.55a2.27,2.27,0,1,1,2.25-2.55,1.9,1.9,0,0,1,0,.55A2.26,2.26,0,0,1,389.37,126.49Z"/><path class="cls-2" d="M388.6,118.09v.55h-5.42a1.18,1.18,0,0,0,0-.27,1.27,1.27,0,0,0,0-.28Z"/><rect class="cls-2" x="388.31" y="112.91" width="0.55" height="5.73"/><path class="cls-2" d="M396.93,123.94v.55h-5.31a1.9,1.9,0,0,0,0-.55Z"/><rect class="cls-2" x="396.63" y="112.64" width="0.55" height="11.85"/><path class="cls-2" d="M419,118.37a1.18,1.18,0,0,0,0,.27h-5.39v-.55H419A1.27,1.27,0,0,0,419,118.37Z"/><rect class="cls-2" x="413.37" y="112.88" width="0.55" height="5.76"/><path class="cls-2" d="M410.53,124.22a1.32,1.32,0,0,0,0,.28h-5.31v-.56h5.31A1.27,1.27,0,0,0,410.53,124.22Z"/><rect class="cls-2" x="404.98" y="112.72" width="0.55" height="11.77"/><path class="cls-2" d="M253.41,141.3v.88H249v-7.79h1v6.91Z"/><path class="cls-2" d="M255.58,134.94a.6.6,0,0,1-.06.27,1.07,1.07,0,0,1-.15.22.64.64,0,0,1-.22.14.66.66,0,0,1-.27.06.72.72,0,0,1-.48-.2,1.07,1.07,0,0,1-.15-.22.76.76,0,0,1-.05-.27.86.86,0,0,1,.05-.27,1.07,1.07,0,0,1,.15-.22.8.8,0,0,1,.21-.15.76.76,0,0,1,.27-.05.66.66,0,0,1,.49.2,1.07,1.07,0,0,1,.15.22A.66.66,0,0,1,255.58,134.94Zm-.21,1.73v5.51h-1v-5.51Z"/><path class="cls-2" d="M257.87,137.47a4.27,4.27,0,0,1,.38-.36,2.87,2.87,0,0,1,.43-.28,2,2,0,0,1,.48-.18,2.38,2.38,0,0,1,.55-.06,2,2,0,0,1,.79.15,1.63,1.63,0,0,1,.58.42,1.89,1.89,0,0,1,.35.66,2.86,2.86,0,0,1,.12.85v3.51h-1v-3.51a1.5,1.5,0,0,0-.29-1,1.06,1.06,0,0,0-.87-.34,1.62,1.62,0,0,0-.8.21,2.4,2.4,0,0,0-.69.56v4.05h-1v-5.51h.58a.25.25,0,0,1,.26.2Z"/><path class="cls-2" d="M262.89,137.45a3.26,3.26,0,0,1,1-.66,3.13,3.13,0,0,1,1.17-.21,2.1,2.1,0,0,1,.82.15,1.63,1.63,0,0,1,.6.42,1.64,1.64,0,0,1,.37.66,2.57,2.57,0,0,1,.13.85v3.52h-.43a.36.36,0,0,1-.22-.05.32.32,0,0,1-.12-.18l-.11-.52a4.48,4.48,0,0,1-.42.36,2.43,2.43,0,0,1-.44.26,2.46,2.46,0,0,1-.48.16,2.58,2.58,0,0,1-.58.06,2,2,0,0,1-.6-.09,1.37,1.37,0,0,1-.49-.27,1.25,1.25,0,0,1-.33-.45,1.64,1.64,0,0,1-.13-.65,1.21,1.21,0,0,1,.18-.63,1.65,1.65,0,0,1,.59-.54,3.82,3.82,0,0,1,1.05-.38,7.63,7.63,0,0,1,1.58-.17v-.43a1.5,1.5,0,0,0-.27-1,1,1,0,0,0-.81-.33,1.82,1.82,0,0,0-.61.09,1.74,1.74,0,0,0-.41.2l-.31.2a.43.43,0,0,1-.25.09.31.31,0,0,1-.17-.05.49.49,0,0,1-.12-.13ZM266,139.7a8.48,8.48,0,0,0-1.14.11,2.89,2.89,0,0,0-.76.22,1.07,1.07,0,0,0-.43.32.68.68,0,0,0-.14.41.89.89,0,0,0,.08.38.7.7,0,0,0,.19.26.87.87,0,0,0,.29.14,1.34,1.34,0,0,0,.35.05,2.26,2.26,0,0,0,.47-.05,2.74,2.74,0,0,0,.4-.15,3.75,3.75,0,0,0,.36-.24,3.13,3.13,0,0,0,.33-.31Z"/><path class="cls-2" d="M269.35,137.78a2.68,2.68,0,0,1,.64-.89,1.43,1.43,0,0,1,.93-.31,1.87,1.87,0,0,1,.34,0,1.18,1.18,0,0,1,.28.12l-.07.73a.15.15,0,0,1-.16.13l-.22,0a1.72,1.72,0,0,0-.34,0,1.35,1.35,0,0,0-.46.07,1,1,0,0,0-.36.23,1.36,1.36,0,0,0-.29.37,2.3,2.3,0,0,0-.23.5v3.48h-1v-5.51H269a.28.28,0,0,1,.21.06.41.41,0,0,1,.09.21Z"/><path class="cls-2" d="M274.49,136.59a2.72,2.72,0,0,1,1.09.2,2.17,2.17,0,0,1,.82.57,2.4,2.4,0,0,1,.53.89,3.93,3.93,0,0,1,0,2.35,2.48,2.48,0,0,1-.53.89,2.17,2.17,0,0,1-.82.57,2.9,2.9,0,0,1-1.09.2,3,3,0,0,1-1.1-.2,2.17,2.17,0,0,1-.82-.57,2.48,2.48,0,0,1-.53-.89,3.93,3.93,0,0,1,0-2.35,2.4,2.4,0,0,1,.53-.89,2.17,2.17,0,0,1,.82-.57A2.77,2.77,0,0,1,274.49,136.59Zm0,4.91a1.43,1.43,0,0,0,1.22-.54,2.55,2.55,0,0,0,.4-1.53,2.51,2.51,0,0,0-.4-1.53,1.41,1.41,0,0,0-1.22-.55,1.6,1.6,0,0,0-.72.14,1.21,1.21,0,0,0-.51.41,1.71,1.71,0,0,0-.31.65,3.87,3.87,0,0,0-.1.88,2.55,2.55,0,0,0,.41,1.53A1.44,1.44,0,0,0,274.49,141.5Z"/><path class="cls-2" d="M286.82,140.57a.21.21,0,0,1,.15.07l.42.45a3.44,3.44,0,0,1-1.16.87,4.36,4.36,0,0,1-3.18,0,3.47,3.47,0,0,1-1.91-2.08,4.61,4.61,0,0,1-.27-1.61,4.45,4.45,0,0,1,.28-1.62,3.54,3.54,0,0,1,2-2.08,4.08,4.08,0,0,1,1.55-.29,3.78,3.78,0,0,1,1.47.27,3.84,3.84,0,0,1,1.12.72l-.35.49-.08.09a.29.29,0,0,1-.14,0,.4.4,0,0,1-.24-.1,3.43,3.43,0,0,0-.37-.24,2.57,2.57,0,0,0-.57-.24,3,3,0,0,0-.85-.1,2.8,2.8,0,0,0-1.1.21,2.35,2.35,0,0,0-.86.6,2.81,2.81,0,0,0-.56,1,3.72,3.72,0,0,0-.2,1.29,4,4,0,0,0,.2,1.3,2.71,2.71,0,0,0,.58,1,2.2,2.2,0,0,0,.85.6,2.67,2.67,0,0,0,1.06.21,4.09,4.09,0,0,0,.63,0,2.64,2.64,0,0,0,.52-.13,2.58,2.58,0,0,0,.44-.22,2.8,2.8,0,0,0,.4-.32A.31.31,0,0,1,286.82,140.57Z"/><path class="cls-2" d="M290.6,136.59a2.67,2.67,0,0,1,1.08.2,2.2,2.2,0,0,1,.83.57,2.54,2.54,0,0,1,.53.89,3.93,3.93,0,0,1,0,2.35,2.63,2.63,0,0,1-.53.89,2.2,2.2,0,0,1-.83.57,2.85,2.85,0,0,1-1.08.2,3,3,0,0,1-1.1-.2,2.28,2.28,0,0,1-.83-.57,2.46,2.46,0,0,1-.52-.89,3.73,3.73,0,0,1,0-2.35,2.38,2.38,0,0,1,.52-.89,2.28,2.28,0,0,1,.83-.57A2.77,2.77,0,0,1,290.6,136.59Zm0,4.91a1.4,1.4,0,0,0,1.21-.54,2.55,2.55,0,0,0,.41-1.53,2.51,2.51,0,0,0-.41-1.53,1.38,1.38,0,0,0-1.21-.55,1.6,1.6,0,0,0-.72.14,1.3,1.3,0,0,0-.52.41,1.86,1.86,0,0,0-.3.65,3.38,3.38,0,0,0-.1.88,2.55,2.55,0,0,0,.4,1.53A1.46,1.46,0,0,0,290.6,141.5Z"/><path class="cls-2" d="M295.35,137.47a4.27,4.27,0,0,1,.38-.36,2.87,2.87,0,0,1,.43-.28,2,2,0,0,1,.48-.18,2.38,2.38,0,0,1,.55-.06,2,2,0,0,1,.79.15,1.55,1.55,0,0,1,.58.42,1.89,1.89,0,0,1,.35.66,2.86,2.86,0,0,1,.12.85v3.51h-1v-3.51a1.5,1.5,0,0,0-.29-1,1.06,1.06,0,0,0-.87-.34,1.62,1.62,0,0,0-.8.21,2.4,2.4,0,0,0-.69.56v4.05h-1v-5.51H295a.24.24,0,0,1,.26.2Z"/><path class="cls-2" d="M303.72,137.58a.22.22,0,0,1-.2.12.38.38,0,0,1-.19-.06l-.25-.13a2.08,2.08,0,0,0-.36-.14,1.77,1.77,0,0,0-.49-.06,1.51,1.51,0,0,0-.44.06,1,1,0,0,0-.33.17.73.73,0,0,0-.21.26.65.65,0,0,0-.08.31.51.51,0,0,0,.12.35,1.06,1.06,0,0,0,.33.25,2.34,2.34,0,0,0,.45.18l.53.17a4.65,4.65,0,0,1,.52.2,1.74,1.74,0,0,1,.46.27,1.13,1.13,0,0,1,.32.4,1.12,1.12,0,0,1,.13.57,1.82,1.82,0,0,1-.14.7,1.48,1.48,0,0,1-.4.56,2,2,0,0,1-.65.37,2.74,2.74,0,0,1-.9.14,2.68,2.68,0,0,1-1-.19,2.39,2.39,0,0,1-.79-.48l.23-.37a.27.27,0,0,1,.1-.11.33.33,0,0,1,.15,0,.4.4,0,0,1,.21.08l.26.17a2,2,0,0,0,.38.17,1.75,1.75,0,0,0,.55.07,1.51,1.51,0,0,0,.5-.07,1.07,1.07,0,0,0,.35-.2.66.66,0,0,0,.21-.29.81.81,0,0,0,.07-.35.57.57,0,0,0-.12-.37,1,1,0,0,0-.33-.26,2.21,2.21,0,0,0-.46-.18l-.52-.17a4.81,4.81,0,0,1-.53-.2,1.77,1.77,0,0,1-.46-.28,1.17,1.17,0,0,1-.32-.41,1.28,1.28,0,0,1-.13-.61,1.54,1.54,0,0,1,.13-.6,1.48,1.48,0,0,1,.38-.51,1.79,1.79,0,0,1,.62-.35,2.37,2.37,0,0,1,.83-.13,2.55,2.55,0,0,1,1,.17,2.18,2.18,0,0,1,.74.47Z"/><path class="cls-2" d="M309.75,136.67v5.51h-.58a.25.25,0,0,1-.26-.2l-.08-.59a3.27,3.27,0,0,1-.8.64,2.13,2.13,0,0,1-1,.24,2,2,0,0,1-.8-.15,1.63,1.63,0,0,1-.58-.42,1.89,1.89,0,0,1-.35-.66,2.86,2.86,0,0,1-.12-.85v-3.52h1v3.52a1.45,1.45,0,0,0,.29,1,1.07,1.07,0,0,0,.87.35,1.59,1.59,0,0,0,.8-.21,2.4,2.4,0,0,0,.69-.56v-4.06Z"/><path class="cls-2" d="M311.28,142.18v-5.51h.58a.24.24,0,0,1,.26.2l.07.57a2.79,2.79,0,0,1,.68-.61,1.64,1.64,0,0,1,.88-.24,1.28,1.28,0,0,1,.9.31,1.69,1.69,0,0,1,.5.83,1.62,1.62,0,0,1,.31-.51,1.44,1.44,0,0,1,.42-.36,1.83,1.83,0,0,1,.5-.21,2.33,2.33,0,0,1,.53-.06,2.13,2.13,0,0,1,.78.13,1.49,1.49,0,0,1,.57.41,1.92,1.92,0,0,1,.37.66,2.93,2.93,0,0,1,.12.88v3.51h-1v-3.51a1.55,1.55,0,0,0-.28-1,1,1,0,0,0-.82-.33,1.33,1.33,0,0,0-.45.08,1.09,1.09,0,0,0-.38.25,1.15,1.15,0,0,0-.26.41,1.7,1.7,0,0,0-.1.57v3.51h-1v-3.51a1.54,1.54,0,0,0-.27-1,.94.94,0,0,0-.77-.32,1.24,1.24,0,0,0-.67.19,2.32,2.32,0,0,0-.56.53v4.1Z"/><path class="cls-2" d="M324.69,141.41a1.93,1.93,0,0,1-.42.38,3.36,3.36,0,0,1-.54.26,4,4,0,0,1-.59.16,4,4,0,0,1-.6,0,2.82,2.82,0,0,1-1.06-.2,2.22,2.22,0,0,1-.83-.56,2.7,2.7,0,0,1-.54-.92,3.78,3.78,0,0,1-.2-1.26,3.14,3.14,0,0,1,.18-1.08,2.28,2.28,0,0,1,1.32-1.44,2.59,2.59,0,0,1,1.07-.21,2.51,2.51,0,0,1,.92.16,2.11,2.11,0,0,1,.73.48,2.4,2.4,0,0,1,.48.77,3.12,3.12,0,0,1,.17,1.05.53.53,0,0,1,0,.3.19.19,0,0,1-.18.08h-3.68a3.41,3.41,0,0,0,.14.91,1.73,1.73,0,0,0,.36.64,1.5,1.5,0,0,0,.54.39,2.11,2.11,0,0,0,1.34,0,2.34,2.34,0,0,0,.45-.18l.32-.18a.4.4,0,0,1,.22-.09.19.19,0,0,1,.18.1Zm-.78-2.58a2,2,0,0,0-.09-.62,1.41,1.41,0,0,0-.28-.48,1.16,1.16,0,0,0-.44-.32,1.64,1.64,0,0,0-.6-.11,1.49,1.49,0,0,0-1.1.4,1.88,1.88,0,0,0-.5,1.13Z"/><path class="cls-2" d="M326.89,137.78a2.43,2.43,0,0,1,.64-.89,1.39,1.39,0,0,1,.93-.31,1.76,1.76,0,0,1,.33,0,1.26,1.26,0,0,1,.29.12l-.07.73a.16.16,0,0,1-.17.13l-.22,0a1.69,1.69,0,0,0-.33,0,1.41,1.41,0,0,0-.47.07,1.16,1.16,0,0,0-.36.23,1.59,1.59,0,0,0-.29.37,3.91,3.91,0,0,0-.23.5v3.48h-1v-5.51h.55a.3.3,0,0,1,.22.06.34.34,0,0,1,.08.21Z"/><path class="cls-2" d="M280.83,151.49v3a4.45,4.45,0,0,1-1.25.63,4.86,4.86,0,0,1-1.46.21,4.77,4.77,0,0,1-1.7-.29,3.9,3.9,0,0,1-1.29-.82,3.48,3.48,0,0,1-.82-1.26,4.19,4.19,0,0,1-.29-1.61,4.46,4.46,0,0,1,.28-1.63,3.55,3.55,0,0,1,.79-1.26,3.6,3.6,0,0,1,1.26-.81,4.53,4.53,0,0,1,1.65-.29,5.65,5.65,0,0,1,.86.07,4,4,0,0,1,.74.2,2.77,2.77,0,0,1,.62.31,3.49,3.49,0,0,1,.54.41l-.3.48a.32.32,0,0,1-.18.13.3.3,0,0,1-.25,0l-.3-.18a3.09,3.09,0,0,0-.41-.21,2.57,2.57,0,0,0-.57-.17,3.58,3.58,0,0,0-.78-.07,3.19,3.19,0,0,0-1.19.21,2.42,2.42,0,0,0-.91.62,2.56,2.56,0,0,0-.57,1,3.7,3.7,0,0,0-.21,1.28,3.79,3.79,0,0,0,.21,1.31,2.74,2.74,0,0,0,.6,1,2.59,2.59,0,0,0,.94.61,3.52,3.52,0,0,0,1.25.22,3.61,3.61,0,0,0,1-.13,3.85,3.85,0,0,0,.82-.34v-1.71h-1.21a.24.24,0,0,1-.17-.06.2.2,0,0,1-.06-.15v-.59Z"/><path class="cls-2" d="M283.05,150.83a2.55,2.55,0,0,1,.64-.89,1.39,1.39,0,0,1,.93-.31,1.87,1.87,0,0,1,.34,0,1.18,1.18,0,0,1,.28.12l-.07.73a.15.15,0,0,1-.16.13l-.23,0a1.55,1.55,0,0,0-.33,0,1.31,1.31,0,0,0-.46.07,1.1,1.1,0,0,0-.37.23,1.56,1.56,0,0,0-.28.37,2.9,2.9,0,0,0-.24.5v3.48h-1v-5.51h.56a.29.29,0,0,1,.21.06.34.34,0,0,1,.08.21Z"/><path class="cls-2" d="M288.19,149.64a2.75,2.75,0,0,1,1.09.2,2.25,2.25,0,0,1,.82.57,2.4,2.4,0,0,1,.53.89,3.93,3.93,0,0,1,0,2.35,2.48,2.48,0,0,1-.53.89,2.25,2.25,0,0,1-.82.57,3.1,3.1,0,0,1-2.19,0,2.28,2.28,0,0,1-.83-.57,2.46,2.46,0,0,1-.52-.89,3.93,3.93,0,0,1,0-2.35,2.38,2.38,0,0,1,.52-.89,2.28,2.28,0,0,1,.83-.57A2.77,2.77,0,0,1,288.19,149.64Zm0,4.91a1.43,1.43,0,0,0,1.22-.54,2.62,2.62,0,0,0,.4-1.53,2.58,2.58,0,0,0-.4-1.53,1.41,1.41,0,0,0-1.22-.55,1.74,1.74,0,0,0-.72.14,1.21,1.21,0,0,0-.51.41,1.71,1.71,0,0,0-.31.65,3.87,3.87,0,0,0-.1.88A2.55,2.55,0,0,0,287,154,1.44,1.44,0,0,0,288.19,154.55Z"/><path class="cls-2" d="M296.56,149.72v5.51H296a.26.26,0,0,1-.27-.2l-.07-.59a3.09,3.09,0,0,1-.81.64,2.08,2.08,0,0,1-1,.24,2,2,0,0,1-.8-.15,1.51,1.51,0,0,1-.57-.42,1.75,1.75,0,0,1-.36-.66,3.24,3.24,0,0,1-.11-.85v-3.52h1v3.52a1.45,1.45,0,0,0,.28,1,1.07,1.07,0,0,0,.87.35,1.63,1.63,0,0,0,.81-.21,2.5,2.5,0,0,0,.68-.56v-4.06Z"/><path class="cls-2" d="M299,150.58a2.75,2.75,0,0,1,.8-.69,2,2,0,0,1,1.05-.26,2,2,0,0,1,.86.18,1.72,1.72,0,0,1,.66.54,2.57,2.57,0,0,1,.42.88,4.45,4.45,0,0,1,.15,1.21,3.78,3.78,0,0,1-.17,1.14,2.57,2.57,0,0,1-.47.9,2.13,2.13,0,0,1-.75.61,2.3,2.3,0,0,1-1,.22,2.06,2.06,0,0,1-.86-.17,2.15,2.15,0,0,1-.64-.48v2.44h-1v-7.38h.59a.24.24,0,0,1,.25.2Zm.05,3.32a1.61,1.61,0,0,0,.58.51,1.64,1.64,0,0,0,.71.15,1.4,1.4,0,0,0,1.18-.55,2.55,2.55,0,0,0,.42-1.57,4,4,0,0,0-.1-.92,1.79,1.79,0,0,0-.27-.64,1.17,1.17,0,0,0-.44-.36,1.64,1.64,0,0,0-.6-.11,1.54,1.54,0,0,0-.83.22,2.47,2.47,0,0,0-.65.61Z"/><path class="cls-2" d="M297.71,76.15h-19.5a4.37,4.37,0,0,0-4.37,4.37v40.85a4.38,4.38,0,0,0,4.37,4.38h19.5a4.38,4.38,0,0,0,4.37-4.38V80.52A4.37,4.37,0,0,0,297.71,76.15ZM285.25,77A1.28,1.28,0,1,1,284,78.24,1.27,1.27,0,0,1,285.25,77Zm14.82,44.41a2.36,2.36,0,0,1-2.36,2.36h-19.5a2.36,2.36,0,0,1-2.35-2.36V80.52a2.36,2.36,0,0,1,2.35-2.36h3.89v.9a1.34,1.34,0,0,0,1.34,1.34h9a1.35,1.35,0,0,0,1.35-1.34v-.9h3.88a2.36,2.36,0,0,1,2.36,2.36Z"/><rect class="cls-2" x="281.55" y="120.35" width="12.83" height="1.16" rx="0.58"/><path class="cls-2" d="M480.44,141.3v.88H476v-7.79h1.05v6.91Z"/><path class="cls-2" d="M482.6,134.94a.6.6,0,0,1-.06.27,1.07,1.07,0,0,1-.15.22.64.64,0,0,1-.22.14.66.66,0,0,1-.27.06.63.63,0,0,1-.27-.06.6.6,0,0,1-.21-.14,1.07,1.07,0,0,1-.15-.22.76.76,0,0,1,0-.27.86.86,0,0,1,0-.27,1.07,1.07,0,0,1,.15-.22.61.61,0,0,1,.48-.2.66.66,0,0,1,.49.2,1.07,1.07,0,0,1,.15.22A.66.66,0,0,1,482.6,134.94Zm-.21,1.73v5.51h-1v-5.51Z"/><path class="cls-2" d="M484.89,137.47a4.27,4.27,0,0,1,.38-.36,2.87,2.87,0,0,1,.43-.28,2,2,0,0,1,.48-.18,2.38,2.38,0,0,1,.55-.06,2,2,0,0,1,.79.15,1.55,1.55,0,0,1,.58.42,1.89,1.89,0,0,1,.35.66,2.86,2.86,0,0,1,.12.85v3.51h-1v-3.51a1.5,1.5,0,0,0-.29-1,1.06,1.06,0,0,0-.87-.34,1.62,1.62,0,0,0-.8.21,2.4,2.4,0,0,0-.69.56v4.05h-1v-5.51h.58a.24.24,0,0,1,.26.2Z"/><path class="cls-2" d="M489.91,137.45a3.26,3.26,0,0,1,1-.66,3.13,3.13,0,0,1,1.17-.21,2.1,2.1,0,0,1,.82.15,1.75,1.75,0,0,1,.61.42,1.92,1.92,0,0,1,.37.66,2.86,2.86,0,0,1,.12.85v3.52h-.43a.36.36,0,0,1-.22-.05.32.32,0,0,1-.12-.18l-.11-.52a4.48,4.48,0,0,1-.42.36,2.73,2.73,0,0,1-.43.26,2.81,2.81,0,0,1-.49.16,2.49,2.49,0,0,1-.57.06,2,2,0,0,1-.61-.09,1.37,1.37,0,0,1-.49-.27,1.25,1.25,0,0,1-.33-.45,1.64,1.64,0,0,1-.12-.65,1.21,1.21,0,0,1,.18-.63,1.53,1.53,0,0,1,.58-.54,4,4,0,0,1,1.05-.38,7.63,7.63,0,0,1,1.58-.17v-.43a1.5,1.5,0,0,0-.27-1,1,1,0,0,0-.81-.33,1.72,1.72,0,0,0-.6.09,1.64,1.64,0,0,0-.42.2l-.31.2a.43.43,0,0,1-.25.09.31.31,0,0,1-.17-.05.49.49,0,0,1-.12-.13ZM493,139.7a8.48,8.48,0,0,0-1.14.11,3,3,0,0,0-.76.22,1.07,1.07,0,0,0-.43.32.67.67,0,0,0-.13.41.89.89,0,0,0,.07.38.7.7,0,0,0,.19.26.87.87,0,0,0,.29.14,1.34,1.34,0,0,0,.35.05,2.26,2.26,0,0,0,.47-.05,2.37,2.37,0,0,0,.4-.15,2.25,2.25,0,0,0,.36-.24,2.38,2.38,0,0,0,.33-.31Z"/><path class="cls-2" d="M496.37,137.78a2.68,2.68,0,0,1,.64-.89,1.43,1.43,0,0,1,.93-.31,1.87,1.87,0,0,1,.34,0,1,1,0,0,1,.28.12l-.07.73a.15.15,0,0,1-.16.13l-.22,0a1.69,1.69,0,0,0-.33,0,1.37,1.37,0,0,0-.47.07,1,1,0,0,0-.36.23,1.36,1.36,0,0,0-.29.37,2.9,2.9,0,0,0-.23.5v3.48h-1v-5.51H496a.32.32,0,0,1,.22.06.42.42,0,0,1,.08.21Z"/><path class="cls-2" d="M501.51,136.59a2.72,2.72,0,0,1,1.09.2,2.28,2.28,0,0,1,.83.57,2.52,2.52,0,0,1,.52.89,3.93,3.93,0,0,1,0,2.35,2.61,2.61,0,0,1-.52.89,2.28,2.28,0,0,1-.83.57,3.07,3.07,0,0,1-2.18,0,2.13,2.13,0,0,1-.83-.57,2.48,2.48,0,0,1-.53-.89,3.93,3.93,0,0,1,0-2.35,2.4,2.4,0,0,1,.53-.89,2.13,2.13,0,0,1,.83-.57A2.72,2.72,0,0,1,501.51,136.59Zm0,4.91a1.43,1.43,0,0,0,1.22-.54,2.55,2.55,0,0,0,.4-1.53,2.51,2.51,0,0,0-.4-1.53,1.41,1.41,0,0,0-1.22-.55,1.65,1.65,0,0,0-.72.14,1.34,1.34,0,0,0-.51.41,1.56,1.56,0,0,0-.3.65,3.38,3.38,0,0,0-.1.88,2.55,2.55,0,0,0,.4,1.53A1.44,1.44,0,0,0,501.51,141.5Z"/><path class="cls-2" d="M518.32,134.39l-2.43,7.79h-.95l-2-5.94a1.05,1.05,0,0,1-.05-.19,1.17,1.17,0,0,1,0-.2l-.06.2a1.8,1.8,0,0,0,0,.19l-2,5.94h-.94l-2.43-7.79h.87a.38.38,0,0,1,.24.07.36.36,0,0,1,.12.18l1.61,5.42c0,.09.05.2.07.31a3.29,3.29,0,0,1,.07.36c0-.13.05-.25.08-.36s.06-.22.09-.31l1.83-5.42a.41.41,0,0,1,.13-.17.36.36,0,0,1,.23-.08h.3a.33.33,0,0,1,.23.07.46.46,0,0,1,.13.18l1.83,5.42.09.3c0,.11,0,.22.08.34l.06-.34a2.21,2.21,0,0,1,.07-.3l1.61-5.42a.3.3,0,0,1,.13-.17.31.31,0,0,1,.23-.08Z"/><path class="cls-2" d="M520.44,134.94a.59.59,0,0,1-.05.27,1.07,1.07,0,0,1-.15.22.68.68,0,0,1-.23.14.6.6,0,0,1-.27.06.58.58,0,0,1-.26-.06.6.6,0,0,1-.36-.36.6.6,0,0,1-.06-.27.66.66,0,0,1,.06-.27.74.74,0,0,1,.14-.22,1.07,1.07,0,0,1,.22-.15.75.75,0,0,1,.26-.05.76.76,0,0,1,.27.05.91.91,0,0,1,.23.15,1.07,1.07,0,0,1,.15.22A.65.65,0,0,1,520.44,134.94Zm-.2,1.73v5.51h-1v-5.51Z"/><path class="cls-2" d="M522.74,137.47a4.27,4.27,0,0,1,.38-.36,2.44,2.44,0,0,1,.43-.28,2,2,0,0,1,.48-.18,2.29,2.29,0,0,1,.54-.06,2,2,0,0,1,.8.15,1.63,1.63,0,0,1,.58.42,1.89,1.89,0,0,1,.35.66,2.86,2.86,0,0,1,.12.85v3.51h-1v-3.51a1.49,1.49,0,0,0-.28-1,1.06,1.06,0,0,0-.87-.34,1.59,1.59,0,0,0-.8.21,2.4,2.4,0,0,0-.69.56v4.05h-1v-5.51h.58a.23.23,0,0,1,.25.2Z"/><path class="cls-2" d="M532.45,134.17v8h-.57a.26.26,0,0,1-.27-.2l-.08-.67a3.3,3.3,0,0,1-.81.69,2.08,2.08,0,0,1-1,.26,2,2,0,0,1-.86-.18,1.81,1.81,0,0,1-.66-.54,2.67,2.67,0,0,1-.42-.88,4.47,4.47,0,0,1-.14-1.21,3.79,3.79,0,0,1,.16-1.14,2.71,2.71,0,0,1,.47-.91,2,2,0,0,1,.74-.6,2.19,2.19,0,0,1,1-.22,1.93,1.93,0,0,1,.87.17,2.08,2.08,0,0,1,.64.47v-3.05Zm-1,3.81a1.48,1.48,0,0,0-.58-.5,1.64,1.64,0,0,0-.71-.15,1.39,1.39,0,0,0-1.18.55,2.55,2.55,0,0,0-.41,1.57,4.09,4.09,0,0,0,.09.92,1.82,1.82,0,0,0,.27.63,1.17,1.17,0,0,0,.44.36,1.41,1.41,0,0,0,.59.11,1.64,1.64,0,0,0,.84-.21,2.37,2.37,0,0,0,.65-.62Z"/><path class="cls-2" d="M536.31,136.59a2.67,2.67,0,0,1,1.08.2,2.2,2.2,0,0,1,.83.57,2.54,2.54,0,0,1,.53.89,3.93,3.93,0,0,1,0,2.35,2.63,2.63,0,0,1-.53.89,2.2,2.2,0,0,1-.83.57,2.85,2.85,0,0,1-1.08.2,3,3,0,0,1-1.1-.2,2.28,2.28,0,0,1-.83-.57,2.46,2.46,0,0,1-.52-.89,3.73,3.73,0,0,1,0-2.35,2.38,2.38,0,0,1,.52-.89,2.28,2.28,0,0,1,.83-.57A2.77,2.77,0,0,1,536.31,136.59Zm0,4.91a1.4,1.4,0,0,0,1.21-.54,2.55,2.55,0,0,0,.41-1.53,2.51,2.51,0,0,0-.41-1.53,1.38,1.38,0,0,0-1.21-.55,1.6,1.6,0,0,0-.72.14,1.3,1.3,0,0,0-.52.41,1.86,1.86,0,0,0-.3.65,3.38,3.38,0,0,0-.1.88,2.55,2.55,0,0,0,.4,1.53A1.45,1.45,0,0,0,536.31,141.5Z"/><path class="cls-2" d="M547.67,136.67l-1.79,5.51h-.77c-.09,0-.15-.06-.19-.18l-1.22-3.74a2.33,2.33,0,0,1-.07-.25c0-.09,0-.17,0-.25l-.06.25c0,.08,0,.17-.07.26L542.21,142a.21.21,0,0,1-.22.18h-.73l-1.78-5.51h.76a.34.34,0,0,1,.2.06.33.33,0,0,1,.1.14l1.06,3.55c.06.26.11.51.14.74,0-.12.07-.24.1-.37l.12-.37,1.16-3.57a.3.3,0,0,1,.09-.13.25.25,0,0,1,.17-.06h.42a.24.24,0,0,1,.18.06.26.26,0,0,1,.1.13l1.14,3.57c0,.13.07.25.11.37l.09.37c0-.12,0-.24.07-.36a3,3,0,0,1,.09-.38l1.07-3.55a.36.36,0,0,1,.11-.14.28.28,0,0,1,.18-.06Z"/><path class="cls-2" d="M551.78,137.58a.22.22,0,0,1-.21.12.38.38,0,0,1-.18-.06l-.25-.13a2.08,2.08,0,0,0-.36-.14,1.77,1.77,0,0,0-.49-.06,1.51,1.51,0,0,0-.44.06,1,1,0,0,0-.33.17.77.77,0,0,0-.22.26.64.64,0,0,0-.07.31.51.51,0,0,0,.12.35,1,1,0,0,0,.33.25,2.34,2.34,0,0,0,.45.18l.53.17a4.65,4.65,0,0,1,.52.2,1.74,1.74,0,0,1,.46.27,1.26,1.26,0,0,1,.32.4,1.23,1.23,0,0,1,.13.57,1.82,1.82,0,0,1-.14.7,1.6,1.6,0,0,1-.4.56,1.92,1.92,0,0,1-.66.37,2.64,2.64,0,0,1-.89.14,2.68,2.68,0,0,1-1-.19,2.39,2.39,0,0,1-.79-.48l.22-.37a.38.38,0,0,1,.11-.11.33.33,0,0,1,.15,0,.43.43,0,0,1,.21.08l.26.17a2,2,0,0,0,.38.17,1.75,1.75,0,0,0,.55.07,1.51,1.51,0,0,0,.5-.07,1.07,1.07,0,0,0,.35-.2.86.86,0,0,0,.21-.29,1,1,0,0,0,.07-.35.52.52,0,0,0-.13-.37.94.94,0,0,0-.32-.26,2.45,2.45,0,0,0-.46-.18l-.52-.17a4.81,4.81,0,0,1-.53-.2,1.62,1.62,0,0,1-.46-.28,1.33,1.33,0,0,1-.33-.41,1.41,1.41,0,0,1-.12-.61,1.54,1.54,0,0,1,.13-.6,1.48,1.48,0,0,1,.38-.51,1.7,1.7,0,0,1,.62-.35,2.37,2.37,0,0,1,.83-.13,2.55,2.55,0,0,1,1,.17,2.28,2.28,0,0,1,.74.47Z"/><path class="cls-2" d="M506.13,151.49v3a4.45,4.45,0,0,1-1.25.63,4.86,4.86,0,0,1-1.46.21,4.77,4.77,0,0,1-1.7-.29,3.9,3.9,0,0,1-1.29-.82,3.64,3.64,0,0,1-.83-1.26,4.39,4.39,0,0,1-.28-1.61,4.46,4.46,0,0,1,.28-1.63,3.55,3.55,0,0,1,.79-1.26,3.6,3.6,0,0,1,1.26-.81,4.53,4.53,0,0,1,1.65-.29,5.65,5.65,0,0,1,.86.07,4,4,0,0,1,.74.2,2.77,2.77,0,0,1,.62.31,3.49,3.49,0,0,1,.54.41l-.3.48a.32.32,0,0,1-.18.13.3.3,0,0,1-.25,0l-.3-.18a3.09,3.09,0,0,0-.41-.21,2.57,2.57,0,0,0-.57-.17,3.58,3.58,0,0,0-.78-.07,3.19,3.19,0,0,0-1.19.21,2.42,2.42,0,0,0-.91.62,2.71,2.71,0,0,0-.58,1,4,4,0,0,0-.2,1.28,3.79,3.79,0,0,0,.21,1.31,2.74,2.74,0,0,0,.6,1,2.51,2.51,0,0,0,.94.61,3.52,3.52,0,0,0,1.25.22,3.48,3.48,0,0,0,1-.13,3.72,3.72,0,0,0,.83-.34v-1.71H504a.24.24,0,0,1-.17-.06.2.2,0,0,1-.06-.15v-.59Z"/><path class="cls-2" d="M508.35,150.83a2.55,2.55,0,0,1,.64-.89,1.39,1.39,0,0,1,.93-.31,1.69,1.69,0,0,1,.33,0,1.1,1.1,0,0,1,.29.12l-.07.73a.15.15,0,0,1-.16.13l-.23,0a1.55,1.55,0,0,0-.33,0,1.31,1.31,0,0,0-.46.07,1.1,1.1,0,0,0-.37.23,1.9,1.9,0,0,0-.29.37,3.91,3.91,0,0,0-.23.5v3.48h-1v-5.51H508a.3.3,0,0,1,.22.06.34.34,0,0,1,.08.21Z"/><path class="cls-2" d="M513.49,149.64a2.67,2.67,0,0,1,1.08.2,2.2,2.2,0,0,1,.83.57,2.54,2.54,0,0,1,.53.89,3.93,3.93,0,0,1,0,2.35,2.63,2.63,0,0,1-.53.89,2.2,2.2,0,0,1-.83.57,2.85,2.85,0,0,1-1.08.2,3,3,0,0,1-1.1-.2,2.28,2.28,0,0,1-.83-.57,2.46,2.46,0,0,1-.52-.89,3.93,3.93,0,0,1,0-2.35,2.38,2.38,0,0,1,.52-.89,2.28,2.28,0,0,1,.83-.57A2.77,2.77,0,0,1,513.49,149.64Zm0,4.91a1.43,1.43,0,0,0,1.22-.54,2.62,2.62,0,0,0,.4-1.53,2.58,2.58,0,0,0-.4-1.53,1.41,1.41,0,0,0-1.22-.55,1.74,1.74,0,0,0-.72.14,1.3,1.3,0,0,0-.52.41,1.86,1.86,0,0,0-.3.65,3.38,3.38,0,0,0-.1.88,2.62,2.62,0,0,0,.4,1.53A1.47,1.47,0,0,0,513.49,154.55Z"/><path class="cls-2" d="M521.86,149.72v5.51h-.58a.26.26,0,0,1-.26-.2l-.07-.59a3.09,3.09,0,0,1-.81.64,2.13,2.13,0,0,1-1,.24,2,2,0,0,1-.8-.15,1.63,1.63,0,0,1-.58-.42,1.89,1.89,0,0,1-.35-.66,3.24,3.24,0,0,1-.11-.85v-3.52h1v3.52a1.45,1.45,0,0,0,.28,1,1.07,1.07,0,0,0,.87.35,1.63,1.63,0,0,0,.81-.21,2.5,2.5,0,0,0,.68-.56v-4.06Z"/><path class="cls-2" d="M524.32,150.58a2.75,2.75,0,0,1,.8-.69,2,2,0,0,1,1-.26,2,2,0,0,1,.86.18,1.72,1.72,0,0,1,.66.54,2.57,2.57,0,0,1,.42.88,4.47,4.47,0,0,1,.14,1.21,3.79,3.79,0,0,1-.16,1.14,2.57,2.57,0,0,1-.47.9,2.13,2.13,0,0,1-.75.61,2.3,2.3,0,0,1-1,.22,2.06,2.06,0,0,1-.86-.17,2,2,0,0,1-.64-.48v2.44h-1v-7.38H524a.24.24,0,0,1,.25.2Zm0,3.32a1.53,1.53,0,0,0,.58.51,1.61,1.61,0,0,0,.71.15,1.4,1.4,0,0,0,1.18-.55,2.55,2.55,0,0,0,.41-1.57,4.09,4.09,0,0,0-.09-.92,1.8,1.8,0,0,0-.28-.64,1.1,1.1,0,0,0-.44-.36,1.66,1.66,0,0,0-1.42.11,2.47,2.47,0,0,0-.65.61Z"/><path class="cls-2" d="M537.3,122h-48a3.31,3.31,0,0,1-3.23-3.13l0-.55h54.53l0,.55a3.4,3.4,0,0,1-.93,2.13A3.17,3.17,0,0,1,537.3,122Zm-50.1-2.66a2.26,2.26,0,0,0,2.11,1.64h48a2.15,2.15,0,0,0,1.56-.69,2.45,2.45,0,0,0,.55-.95Z"/><path class="cls-2" d="M517,119.23a1.26,1.26,0,0,1-.11.48.34.34,0,0,1-.27.22H510c-.2,0-.36-.31-.38-.7Z"/><path class="cls-2" d="M516.64,120H510c-.26,0-.46-.33-.48-.79v-.1h7.63v.1a1.42,1.42,0,0,1-.12.52A.43.43,0,0,1,516.64,120Zm-6.94-.7c0,.3.16.51.27.51h6.67c.06,0,.13-.07.18-.17a.85.85,0,0,0,.09-.34Z"/><path class="cls-2" d="M531.68,88.08H494.93a2.35,2.35,0,0,0-2.35,2.35v24a2.35,2.35,0,0,0,2.35,2.34h36.75a2.34,2.34,0,0,0,2.34-2.34v-24A2.35,2.35,0,0,0,531.68,88.08Zm-18.38.38a.73.73,0,1,1-.72.73A.72.72,0,0,1,513.3,88.46Zm18.53,26.36H494.78V90.23h37.05Z"/></g></svg>