<svg xmlns="http://www.w3.org/2000/svg" viewBox="0 0 497.99 183.3"><defs><style>.cls-1{fill:#585858;}.cls-2{fill:#fff;}.cls-3{opacity:0.69;}.cls-4,.cls-5{fill:none;}.cls-4{stroke:#9c3;stroke-linecap:round;stroke-miterlimit:10;stroke-width:1.72px;stroke-dasharray:0.29 4.57;}</style></defs><g id="map"><rect class="cls-1" width="497.99" height="183.3" rx="6.66"/><path class="cls-2" d="M26.25,26.48H24a1,1,0,0,1-.6-.17,1.1,1.1,0,0,1-.35-.45l-.73-2.16H17.63l-.73,2.16a1,1,0,0,1-.34.43.92.92,0,0,1-.6.19H13.72L18.51,14.1h2.94Zm-4.57-4.74-1.14-3.39c-.09-.21-.18-.47-.28-.76s-.19-.61-.29-.95c-.08.35-.17.67-.27,1a8.06,8.06,0,0,1-.27.76l-1.14,3.37Z"/><path class="cls-2" d="M33.17,19.76a2.49,2.49,0,0,1-.23.23.58.58,0,0,1-.32.08.7.7,0,0,1-.35-.09l-.35-.21a2.45,2.45,0,0,0-.46-.21,2.1,2.1,0,0,0-.66-.09,1.78,1.78,0,0,0-.83.18,1.44,1.44,0,0,0-.59.51A2.5,2.5,0,0,0,29,21a5.05,5.05,0,0,0-.11,1.08A3.36,3.36,0,0,0,29.42,24a1.59,1.59,0,0,0,1.35.68,1.82,1.82,0,0,0,.73-.12,1.9,1.9,0,0,0,.45-.25l.35-.26a.61.61,0,0,1,.39-.12.56.56,0,0,1,.48.23l.76.94a4,4,0,0,1-.86.76,4,4,0,0,1-.92.46,4.54,4.54,0,0,1-.95.23,7.26,7.26,0,0,1-.92.07,4.08,4.08,0,0,1-1.55-.31,3.69,3.69,0,0,1-1.29-.89A4.27,4.27,0,0,1,26.56,24a5.33,5.33,0,0,1-.33-1.94,5.45,5.45,0,0,1,.29-1.78,4.14,4.14,0,0,1,.84-1.44,4,4,0,0,1,1.37-.95,4.7,4.7,0,0,1,1.9-.35,4.62,4.62,0,0,1,1.82.33,4.29,4.29,0,0,1,1.41,1Z"/><path class="cls-2" d="M41.28,19.76a1.63,1.63,0,0,1-.22.23.58.58,0,0,1-.32.08.68.68,0,0,1-.35-.09L40,19.77a2.78,2.78,0,0,0-.46-.21,2.1,2.1,0,0,0-.66-.09,1.86,1.86,0,0,0-.84.18,1.48,1.48,0,0,0-.58.51,2.5,2.5,0,0,0-.34.81,5.05,5.05,0,0,0-.11,1.08A3.29,3.29,0,0,0,37.54,24a1.59,1.59,0,0,0,1.35.68,1.77,1.77,0,0,0,.72-.12,2.21,2.21,0,0,0,.46-.25l.34-.26a.65.65,0,0,1,.4-.12.53.53,0,0,1,.47.23l.77.94a4,4,0,0,1-.86.76,4.16,4.16,0,0,1-.92.46,4.69,4.69,0,0,1-1,.23,7.41,7.41,0,0,1-.93.07,4.07,4.07,0,0,1-1.54-.31,3.69,3.69,0,0,1-1.29-.89A4.11,4.11,0,0,1,34.68,24a5.33,5.33,0,0,1-.33-1.94,5.44,5.44,0,0,1,.28-1.78,4,4,0,0,1,.85-1.44,4,4,0,0,1,1.37-.95,4.7,4.7,0,0,1,1.9-.35,4.65,4.65,0,0,1,1.82.33,4.29,4.29,0,0,1,1.41,1Z"/><path class="cls-2" d="M45.09,22.54a2.56,2.56,0,0,0,.67,1.61,2,2,0,0,0,1.41.49,2.36,2.36,0,0,0,.79-.11,3.62,3.62,0,0,0,.59-.24L49,24a1.07,1.07,0,0,1,.46-.11.56.56,0,0,1,.48.23l.76.94a3.87,3.87,0,0,1-.88.76,4.29,4.29,0,0,1-1,.46,5.06,5.06,0,0,1-1,.23,8.18,8.18,0,0,1-1,.07,4.76,4.76,0,0,1-1.74-.31,4.11,4.11,0,0,1-1.42-.89,4.41,4.41,0,0,1-1-1.48,5.66,5.66,0,0,1-.35-2.06,4.62,4.62,0,0,1,.3-1.67,4.09,4.09,0,0,1,.87-1.39A3.94,3.94,0,0,1,45,17.88a4.36,4.36,0,0,1,1.81-.35,4.55,4.55,0,0,1,1.6.27,3.51,3.51,0,0,1,1.25.79,3.71,3.71,0,0,1,.82,1.27,4.79,4.79,0,0,1,.29,1.71c0,.2,0,.36,0,.48a.76.76,0,0,1-.1.3.34.34,0,0,1-.18.15.85.85,0,0,1-.29,0ZM48.41,21a2.49,2.49,0,0,0-.08-.61,1.48,1.48,0,0,0-.27-.53,1.31,1.31,0,0,0-.48-.38,1.74,1.74,0,0,0-.72-.14,1.55,1.55,0,0,0-1.17.43A2.17,2.17,0,0,0,45.13,21Z"/><path class="cls-2" d="M57.69,19.59a.61.61,0,0,1-.22.23.5.5,0,0,1-.29.07.83.83,0,0,1-.37-.08l-.41-.17a3.91,3.91,0,0,0-.49-.18,2.28,2.28,0,0,0-.62-.08,1.39,1.39,0,0,0-.77.19.61.61,0,0,0-.26.53.52.52,0,0,0,.17.41,1.58,1.58,0,0,0,.46.29,6.28,6.28,0,0,0,.66.23c.24.07.49.16.75.25a5.33,5.33,0,0,1,.74.32,2.57,2.57,0,0,1,.66.45,1.92,1.92,0,0,1,.46.65,2.11,2.11,0,0,1,.18.91,3,3,0,0,1-.24,1.21,2.56,2.56,0,0,1-.71.95,3.19,3.19,0,0,1-1.17.62,5.12,5.12,0,0,1-1.59.23,4.58,4.58,0,0,1-.9-.09,6.17,6.17,0,0,1-.87-.23,5.56,5.56,0,0,1-.78-.34,3.83,3.83,0,0,1-.61-.43l.61-1a.84.84,0,0,1,.26-.27.79.79,0,0,1,.4-.1,1,1,0,0,1,.42.1l.39.23a3.39,3.39,0,0,0,.5.22,2.12,2.12,0,0,0,.72.1,1.53,1.53,0,0,0,.51-.07.83.83,0,0,0,.34-.17.58.58,0,0,0,.19-.25.67.67,0,0,0,.06-.28.57.57,0,0,0-.18-.43,1.51,1.51,0,0,0-.47-.29,6.06,6.06,0,0,0-.65-.23l-.76-.24a8.15,8.15,0,0,1-.75-.33,2.63,2.63,0,0,1-.66-.49,2.08,2.08,0,0,1-.46-.71,2.67,2.67,0,0,1-.18-1A2.76,2.76,0,0,1,52,19.25a2.69,2.69,0,0,1,.65-.89,3.36,3.36,0,0,1,1.09-.61,4.75,4.75,0,0,1,1.53-.22,5.43,5.43,0,0,1,.92.08,5.15,5.15,0,0,1,.84.24,4,4,0,0,1,.72.36,3.7,3.7,0,0,1,.57.46Z"/><path class="cls-2" d="M65.26,19.59a.6.6,0,0,1-.21.23.56.56,0,0,1-.3.07.83.83,0,0,1-.37-.08l-.4-.17a4.6,4.6,0,0,0-.49-.18,2.33,2.33,0,0,0-.62-.08,1.36,1.36,0,0,0-.77.19.62.62,0,0,0-.27.53.55.55,0,0,0,.17.41,1.51,1.51,0,0,0,.47.29,6.06,6.06,0,0,0,.65.23c.24.07.49.16.75.25a6,6,0,0,1,.75.32,2.69,2.69,0,0,1,.65.45,2.09,2.09,0,0,1,.47.65,2.27,2.27,0,0,1,.17.91,3,3,0,0,1-.24,1.21,2.45,2.45,0,0,1-.71.95,3.14,3.14,0,0,1-1.16.62,5.19,5.19,0,0,1-1.6.23,4.58,4.58,0,0,1-.9-.09,6.17,6.17,0,0,1-.87-.23,5.56,5.56,0,0,1-.78-.34,4.34,4.34,0,0,1-.61-.43l.61-1a1,1,0,0,1,.26-.27.83.83,0,0,1,.41-.1.92.92,0,0,1,.41.1l.39.23a3.93,3.93,0,0,0,.5.22,2.12,2.12,0,0,0,.72.1,1.6,1.6,0,0,0,.52-.07,1,1,0,0,0,.34-.17.64.64,0,0,0,.18-.25.67.67,0,0,0,.06-.28.6.6,0,0,0-.17-.43,1.64,1.64,0,0,0-.47-.29,5.57,5.57,0,0,0-.66-.23q-.37-.11-.75-.24a7.27,7.27,0,0,1-.76-.33,2.58,2.58,0,0,1-.65-.49,2.1,2.1,0,0,1-.47-.71,2.67,2.67,0,0,1-.18-1,2.6,2.6,0,0,1,.22-1.07,2.44,2.44,0,0,1,.65-.89,3.26,3.26,0,0,1,1.09-.61,4.66,4.66,0,0,1,1.53-.22,5.62,5.62,0,0,1,.92.08,5,5,0,0,1,.83.24,3.58,3.58,0,0,1,1.29.82Z"/><path class="cls-2" d="M74.32,26.62a3.14,3.14,0,0,1-1.11-.19,2.13,2.13,0,0,1-.81-.52,2.09,2.09,0,0,1-.5-.81A3.18,3.18,0,0,1,71.73,24V19.48H71a.47.47,0,0,1-.49-.51v-1l1.4-.28.52-2.15a.52.52,0,0,1,.58-.4h1.38v2.57h2.18v1.8H74.37v4.38a.83.83,0,0,0,.15.51.49.49,0,0,0,.42.2.9.9,0,0,0,.25,0l.17-.07.13-.07.15,0a.29.29,0,0,1,.19.06.52.52,0,0,1,.15.17l.8,1.25a3.35,3.35,0,0,1-1.15.57A4.42,4.42,0,0,1,74.32,26.62Z"/><path class="cls-2" d="M81.67,17.53a5.09,5.09,0,0,1,1.83.31,4.06,4.06,0,0,1,1.41.9,4.24,4.24,0,0,1,.92,1.43,5.08,5.08,0,0,1,.33,1.88,5.19,5.19,0,0,1-.33,1.9,4.28,4.28,0,0,1-.92,1.44,4.23,4.23,0,0,1-1.41.91,5.42,5.42,0,0,1-3.67,0,4.32,4.32,0,0,1-1.43-.91A4.16,4.16,0,0,1,77.47,24a5.19,5.19,0,0,1-.32-1.9,5.08,5.08,0,0,1,.32-1.88,4,4,0,0,1,2.36-2.33A5.11,5.11,0,0,1,81.67,17.53Zm0,7.13A1.5,1.5,0,0,0,83,24a3.61,3.61,0,0,0,.43-1.95A3.61,3.61,0,0,0,83,20.12a1.53,1.53,0,0,0-1.34-.64,1.55,1.55,0,0,0-1.37.64,3.52,3.52,0,0,0-.43,1.95A3.52,3.52,0,0,0,80.3,24,1.52,1.52,0,0,0,81.67,24.66Z"/><path class="cls-2" d="M91.21,18.89A5.47,5.47,0,0,1,93,17.84a6.14,6.14,0,0,1,2.08-.35,3.81,3.81,0,0,1,1.44.26,3.21,3.21,0,0,1,1.09.73,3.12,3.12,0,0,1,.69,1.1A4.14,4.14,0,0,1,98.52,21v5.51h-1.2a1.24,1.24,0,0,1-.57-.1.8.8,0,0,1-.32-.43l-.18-.48c-.23.18-.44.35-.64.49a4.53,4.53,0,0,1-.64.36,2.65,2.65,0,0,1-.69.22,4.15,4.15,0,0,1-.82.08,3.74,3.74,0,0,1-1.1-.16,2.29,2.29,0,0,1-.84-.47,2,2,0,0,1-.53-.76,2.82,2.82,0,0,1-.18-1.05,2.18,2.18,0,0,1,.23-1,2.39,2.39,0,0,1,.83-.89,5.2,5.2,0,0,1,1.58-.68,10.57,10.57,0,0,1,2.51-.3V21a1.65,1.65,0,0,0-.32-1.12,1.19,1.19,0,0,0-.91-.34,2.33,2.33,0,0,0-.76.1,3.82,3.82,0,0,0-.53.23c-.16.09-.31.16-.46.23a1.22,1.22,0,0,1-.53.1A.73.73,0,0,1,92,20a1.08,1.08,0,0,1-.31-.33Zm4.75,4a9.38,9.38,0,0,0-1.3.14,3.4,3.4,0,0,0-.81.25,1,1,0,0,0-.41.35.8.8,0,0,0-.12.43.72.72,0,0,0,.25.63,1.19,1.19,0,0,0,.72.18,2,2,0,0,0,.89-.18,2.58,2.58,0,0,0,.78-.57Z"/><path class="cls-2" d="M102.84,13.75V26.48h-2.63V13.75Z"/><path class="cls-2" d="M107.26,13.75V26.48h-2.63V13.75Z"/><path class="cls-2" d="M119.23,20.06h4.4v5.23a6.54,6.54,0,0,1-2,1,7.88,7.88,0,0,1-2.24.32,7.78,7.78,0,0,1-2.79-.48,6.63,6.63,0,0,1-2.14-1.33,5.64,5.64,0,0,1-1.38-2,6.51,6.51,0,0,1-.49-2.52,7,7,0,0,1,.46-2.54,5.79,5.79,0,0,1,3.38-3.31,8.08,8.08,0,0,1,4.16-.34,7.46,7.46,0,0,1,1.26.34,6.44,6.44,0,0,1,1.05.53,7.35,7.35,0,0,1,.85.66l-.84,1.27a.8.8,0,0,1-.5.37.92.92,0,0,1-.67-.16l-.64-.35a3.61,3.61,0,0,0-.62-.24,4.54,4.54,0,0,0-.66-.14,6.14,6.14,0,0,0-.78,0,3.59,3.59,0,0,0-1.46.29,3.12,3.12,0,0,0-1.1.8,3.74,3.74,0,0,0-.7,1.24,5.7,5.7,0,0,0,0,3.37,3.74,3.74,0,0,0,.77,1.3,3.38,3.38,0,0,0,1.19.8,4.17,4.17,0,0,0,1.53.28,3.85,3.85,0,0,0,.94-.11A4.92,4.92,0,0,0,121,24V22.15h-1.22a.63.63,0,0,1-.43-.14.5.5,0,0,1-.15-.37Z"/><path class="cls-2" d="M127.61,19a3.76,3.76,0,0,1,.94-1.12,2,2,0,0,1,1.22-.41,1.55,1.55,0,0,1,1,.29l-.17,1.93a.46.46,0,0,1-.14.26.54.54,0,0,1-.27.07H130l-.23,0-.24,0h-.23a1.36,1.36,0,0,0-.92.3,2.5,2.5,0,0,0-.58.85v5.36h-2.64V17.66h1.57a1.49,1.49,0,0,1,.33,0,.57.57,0,0,1,.22.11.38.38,0,0,1,.13.19,1.48,1.48,0,0,1,.08.29Z"/><path class="cls-2" d="M135.54,17.53a5.09,5.09,0,0,1,1.83.31,4,4,0,0,1,1.41.9,4.09,4.09,0,0,1,.92,1.43,5.08,5.08,0,0,1,.33,1.88,5.19,5.19,0,0,1-.33,1.9,4,4,0,0,1-2.33,2.35,5.09,5.09,0,0,1-1.83.32,5.15,5.15,0,0,1-1.84-.32,4.32,4.32,0,0,1-1.43-.91,4,4,0,0,1-.92-1.44,5.19,5.19,0,0,1-.33-1.9,5.08,5.08,0,0,1,.33-1.88,4,4,0,0,1,.92-1.43,4.14,4.14,0,0,1,1.43-.9A5.15,5.15,0,0,1,135.54,17.53Zm0,7.13a1.49,1.49,0,0,0,1.34-.64,3.52,3.52,0,0,0,.43-1.95,3.52,3.52,0,0,0-.43-1.95,1.52,1.52,0,0,0-1.34-.64,1.56,1.56,0,0,0-1.37.64,3.52,3.52,0,0,0-.43,1.95,3.52,3.52,0,0,0,.43,1.95A1.54,1.54,0,0,0,135.54,24.66Z"/><path class="cls-2" d="M149.26,17.66v8.82h-1.63A.63.63,0,0,1,147,26l-.15-.51a5.37,5.37,0,0,1-.53.44,2.59,2.59,0,0,1-.58.34,2.93,2.93,0,0,1-.67.22,3.29,3.29,0,0,1-.79.09,3,3,0,0,1-1.28-.26,2.61,2.61,0,0,1-.94-.7,3.11,3.11,0,0,1-.58-1.06,4.38,4.38,0,0,1-.19-1.34v-5.6h2.63v5.6a1.54,1.54,0,0,0,.3,1,1.08,1.08,0,0,0,.88.36,1.73,1.73,0,0,0,.81-.19,3,3,0,0,0,.73-.49V17.66Z"/><path class="cls-2" d="M153.52,18.75a4.41,4.41,0,0,1,1.17-.9,3.25,3.25,0,0,1,1.57-.36,2.78,2.78,0,0,1,1.28.31,2.91,2.91,0,0,1,1,.88,4.56,4.56,0,0,1,.67,1.42,6.9,6.9,0,0,1,.24,1.9,5.77,5.77,0,0,1-.28,1.84,4.62,4.62,0,0,1-.77,1.46,3.71,3.71,0,0,1-1.19,1,3.38,3.38,0,0,1-1.53.35,3,3,0,0,1-1.16-.2,3.11,3.11,0,0,1-.85-.53v3.39H151V17.66h1.64a.62.62,0,0,1,.64.45Zm.16,5.33a1.66,1.66,0,0,0,.65.46,2,2,0,0,0,.73.14,1.53,1.53,0,0,0,.67-.15,1.35,1.35,0,0,0,.53-.46,2.36,2.36,0,0,0,.35-.83,4.91,4.91,0,0,0,.13-1.24,5.54,5.54,0,0,0-.1-1.17,2.43,2.43,0,0,0-.29-.77,1,1,0,0,0-.44-.42,1.18,1.18,0,0,0-.56-.13,2,2,0,0,0-1,.21,2.68,2.68,0,0,0-.71.62Z"/><path class="cls-2" d="M166.42,19.59a.61.61,0,0,1-.22.23.5.5,0,0,1-.29.07.83.83,0,0,1-.37-.08l-.41-.17a3.4,3.4,0,0,0-.49-.18,2.28,2.28,0,0,0-.62-.08,1.39,1.39,0,0,0-.77.19.64.64,0,0,0-.26.53.52.52,0,0,0,.17.41,1.58,1.58,0,0,0,.46.29c.2.08.42.16.66.23s.49.16.75.25a5.33,5.33,0,0,1,.74.32,2.57,2.57,0,0,1,.66.45,1.92,1.92,0,0,1,.46.65,2.11,2.11,0,0,1,.18.91,3,3,0,0,1-.24,1.21,2.56,2.56,0,0,1-.71.95,3.19,3.19,0,0,1-1.17.62,5.12,5.12,0,0,1-1.59.23,4.58,4.58,0,0,1-.9-.09,6.17,6.17,0,0,1-.87-.23,5.56,5.56,0,0,1-.78-.34,3.83,3.83,0,0,1-.61-.43l.61-1a.84.84,0,0,1,.26-.27.79.79,0,0,1,.4-.1,1,1,0,0,1,.42.1l.39.23a3.39,3.39,0,0,0,.5.22,2.12,2.12,0,0,0,.72.1,1.53,1.53,0,0,0,.51-.07,1,1,0,0,0,.35-.17.64.64,0,0,0,.18-.25.67.67,0,0,0,.06-.28.57.57,0,0,0-.18-.43,1.58,1.58,0,0,0-.46-.29c-.2-.08-.42-.16-.66-.23l-.76-.24a8.15,8.15,0,0,1-.75-.33,2.83,2.83,0,0,1-.66-.49,2.23,2.23,0,0,1-.46-.71,2.67,2.67,0,0,1-.18-1,2.76,2.76,0,0,1,.21-1.07,2.69,2.69,0,0,1,.65-.89,3.36,3.36,0,0,1,1.09-.61,4.75,4.75,0,0,1,1.53-.22,5.43,5.43,0,0,1,.92.08,5.15,5.15,0,0,1,.84.24,4,4,0,0,1,.72.36,3.7,3.7,0,0,1,.57.46Z"/><circle class="cls-2" cx="297.36" cy="89.12" r="2.1" transform="translate(-0.25 0.85) rotate(-0.16)"/><path class="cls-2" d="M300.77,92.54h0v0l-.1.07a5,5,0,0,1-1.1.77l-.4-.81a3.9,3.9,0,0,0,0-7l.4-.82a4.8,4.8,0,0,1,2.61,3.53h0A4.82,4.82,0,0,1,300.77,92.54Z"/><path class="cls-2" d="M295.64,92.63l-.41.82a4.8,4.8,0,0,1-2.62-3.53h0A4.85,4.85,0,0,1,294,85.7h0l.1-.07a4.91,4.91,0,0,1,1.22-.84l.4.81a3.9,3.9,0,0,0-.05,7Z"/><path class="cls-2" d="M302.21,94.33h0l-.12.08a7,7,0,0,1-1.53,1l-.4-.81a6.19,6.19,0,0,0,3.34-6.38v-.05s0-.06,0-.1,0-.08,0-.13h0a6.19,6.19,0,0,0-3.34-4.4l.41-.82a7.1,7.1,0,0,1,3.82,5s0,0,0,.06,0,.07,0,.1h0v0s0,.07,0,.1v.06A7.13,7.13,0,0,1,302.21,94.33Z"/><path class="cls-2" d="M294.62,94.68l-.4.83a7.12,7.12,0,0,1-3.84-5.05V90.4s0-.07,0-.11h0l0-.11a.43.43,0,0,1,0,0,7.11,7.11,0,0,1,2.19-6.19h0l.12-.07a6.92,6.92,0,0,1,1.65-1.11l.4.81A6.2,6.2,0,0,0,291.22,90v0s0,.07,0,.1,0,.09,0,.13v0A6.19,6.19,0,0,0,294.62,94.68Z"/><path class="cls-2" d="M327.2,100.57h0l-.1.07a4.53,4.53,0,0,1-1.1.77l-.4-.81a3.9,3.9,0,0,0,2.07-4.1,3.86,3.86,0,0,0-2.12-2.86l.41-.83a4.82,4.82,0,0,1,2.6,3.53h0A4.82,4.82,0,0,1,327.2,100.57Z"/><path class="cls-2" d="M322.07,100.66l-.41.82A4.8,4.8,0,0,1,319,98h0a4.79,4.79,0,0,1,1.35-4.19h0l.1-.07a4.78,4.78,0,0,1,1.23-.84l.4.81a3.9,3.9,0,0,0-.06,7Z"/><path class="cls-2" d="M328.65,102.36h0a.36.36,0,0,1-.12.08,6.94,6.94,0,0,1-1.52,1l-.4-.8a6.22,6.22,0,0,0,3.34-6.38v-.06s0-.06,0-.09a.68.68,0,0,0,0-.14h0a6.19,6.19,0,0,0-3.35-4.39l.41-.83a7.08,7.08,0,0,1,3.82,5,.13.13,0,0,1,0,.06.36.36,0,0,1,0,.1v0h0s0,.07,0,.1v.06A7.13,7.13,0,0,1,328.65,102.36Z"/><path class="cls-2" d="M321.06,102.71l-.41.83a7.1,7.1,0,0,1-3.84-5.05v-.06a.3.3,0,0,0,0-.1v0h0l0-.1a.13.13,0,0,0,0-.06A7.13,7.13,0,0,1,318.94,92h0l.11-.08a7.46,7.46,0,0,1,1.65-1.11l.4.81A6.21,6.21,0,0,0,317.65,98v.06s0,.06,0,.09l0,.14h0A6.2,6.2,0,0,0,321.06,102.71Z"/><path class="cls-2" d="M311.39,105h0v0l-.1.07a5,5,0,0,1-1.1.77l-.4-.81a3.9,3.9,0,0,0,0-7l.4-.82a4.8,4.8,0,0,1,2.61,3.53h0A4.82,4.82,0,0,1,311.39,105Z"/><path class="cls-2" d="M306.26,105.11l-.41.82a4.8,4.8,0,0,1-2.62-3.53h0a4.85,4.85,0,0,1,1.35-4.2h0l.1-.07a4.91,4.91,0,0,1,1.22-.84l.4.81a3.9,3.9,0,0,0-.05,7Z"/><path class="cls-2" d="M312.83,106.81h0l-.12.08a7,7,0,0,1-1.53,1l-.4-.81a6.19,6.19,0,0,0,3.34-6.38v0s0-.06,0-.1,0-.08,0-.13h0a6.19,6.19,0,0,0-3.34-4.4l.41-.82a7.1,7.1,0,0,1,3.82,5s0,0,0,.06,0,.07,0,.1v0h0s0,.07,0,.1v.06A7.13,7.13,0,0,1,312.83,106.81Z"/><path class="cls-2" d="M305.24,107.16l-.4.83a7.12,7.12,0,0,1-3.84-5v-.06s0-.07,0-.11h0l0-.1s0,0,0-.06a7.11,7.11,0,0,1,2.19-6.19h0l.12-.07a6.92,6.92,0,0,1,1.65-1.11l.4.81a6.2,6.2,0,0,0-3.46,6.44v.05s0,.07,0,.1,0,.09,0,.13v0A6.19,6.19,0,0,0,305.24,107.16Z"/><circle class="cls-2" cx="323.79" cy="97.15" r="2.1" transform="translate(-0.28 0.92) rotate(-0.16)"/><circle class="cls-2" cx="307.98" cy="101.6" r="2.1" transform="translate(-0.29 0.88) rotate(-0.16)"/><path class="cls-2" d="M317.62,67.27a2.85,2.85,0,0,1,2.7,3,3.05,3.05,0,0,1-1.13,2.42,19.21,19.21,0,0,0,2.06,5.3l5.1,7.93h0l2.45.8v.94H306.44v-1l2.62-.73h0l5.14-8.09a19.53,19.53,0,0,0,2-5,3.07,3.07,0,0,1-1.25-2.52,2.85,2.85,0,0,1,2.69-3m0,14.46,2.25-1.46-.57-.88-.05-.09a27,27,0,0,1-1.58-3.43,27.67,27.67,0,0,1-1.51,3.28l-.05.08-.7,1.1,2.21,1.4M323,85.09l-2.79-4.34-2,1.31,4.82,3m-10.59,0,4.71-3-2-1.26-2.72,4.29m-.19.8h11l-5.56-3.5-5.43,3.5m-.32,0h0v0l0,0M317.62,65a5.09,5.09,0,0,0-4.94,5.22,5.45,5.45,0,0,0,1,3.16,19.53,19.53,0,0,1-1.43,3.27L307.62,84l-1.79.5-1.64.46v5h26.87V85.09l-1.55-.51-.31-.1.27-.82h-1.89l-4.39-6.83a19.18,19.18,0,0,1-1.53-3.56,5.47,5.47,0,0,0,.91-3A5.09,5.09,0,0,0,317.62,65Z"/><path class="cls-2" d="M320.34,74.65a.86.86,0,0,1,0,.23A14.9,14.9,0,0,1,327.1,85.2c0,.12,0,.24,0,.36h1.34c0-.19-.05-.38-.08-.56a16.21,16.21,0,0,0-5.53-9.88,15.71,15.71,0,0,0-2.86-2,2,2,0,0,1-.23.47A1.19,1.19,0,0,1,320.34,74.65Z"/><path class="cls-2" d="M334.63,95.63V95.5s0-.08,0-.11v0a.52.52,0,0,0,0-.11V95.1a10.94,10.94,0,0,0-5.47-7.54v.89H327.9a9.57,9.57,0,0,1,5.33,6.9s0,.05,0,.08a.59.59,0,0,1,0,.14h0v0c0,.05,0,.09,0,.14s0,.05,0,.08a9.61,9.61,0,0,1-2.95,8.37h0l-.16.1a9.55,9.55,0,0,1-4.83,2.32,10.61,10.61,0,0,1-1.57.13,9.61,9.61,0,0,1-3.74-.76.66.66,0,0,1-.2-.06h0a9.87,9.87,0,0,1-2.6-1.74,9.68,9.68,0,0,1-2.69,4.45h0a.57.57,0,0,1-.16.11,9.58,9.58,0,0,1-4.84,2.32,10.38,10.38,0,0,1-1.57.12,9.39,9.39,0,0,1-3.73-.76.46.46,0,0,1-.2-.05h0a9.61,9.61,0,0,1-5.49-7s0-.05,0-.08a.78.78,0,0,0,0-.14h0v0a.68.68,0,0,0,0-.14s0-.05,0-.08a9.65,9.65,0,0,1,.38-4.33,9.7,9.7,0,0,1-5.22-.65.46.46,0,0,1-.2,0h0a9.61,9.61,0,0,1-5.49-7s0,0,0-.08a.78.78,0,0,0,0-.14h0v0a.59.59,0,0,0,0-.14s0-.06,0-.08a9.64,9.64,0,0,1,3-8.37h0L291,82a9.58,9.58,0,0,1,4.84-2.32,9.43,9.43,0,0,1,3.8.14,14.84,14.84,0,0,1,10.47-7,14.95,14.95,0,0,1,4.75,0,2.62,2.62,0,0,1-.06-.57,2.68,2.68,0,0,1,.11-.76,15.88,15.88,0,0,0-2.49-.2A16.2,16.2,0,0,0,299,78.31a10.81,10.81,0,0,0-1.61-.12,10.69,10.69,0,0,0-1.78.15,10.92,10.92,0,0,0-5.39,2.54,1.46,1.46,0,0,0-.28.21h0a10.94,10.94,0,0,0-3.37,9.52v.14a.52.52,0,0,1,0,.11v0a.5.5,0,0,0,0,.12v.13a11,11,0,0,0,6.2,7.91h0l0,0a2,2,0,0,0,.39.14,10.7,10.7,0,0,0,3.9.8,11.35,11.35,0,0,0,0,3.08v.13a.52.52,0,0,1,0,.11v0a.5.5,0,0,0,0,.12v.13a11,11,0,0,0,6.2,7.91h0l0,0a2,2,0,0,0,.39.14,11,11,0,0,0,4.11.8,11.89,11.89,0,0,0,1.79-.14,10.92,10.92,0,0,0,5.39-2.54,1.51,1.51,0,0,0,.28-.22h0a11.1,11.1,0,0,0,2.4-3.26,10.93,10.93,0,0,0,1.39.76h0l.05,0a2.23,2.23,0,0,0,.39.13,10.91,10.91,0,0,0,4.11.81,10.69,10.69,0,0,0,1.78-.15,10.84,10.84,0,0,0,5.39-2.54,1.54,1.54,0,0,0,.29-.21h0A11,11,0,0,0,334.63,95.63Z"/><rect class="cls-2" x="316.86" y="78.85" width="1.44" height="1.59"/><rect class="cls-2" x="316.57" y="83.81" width="2.36" height="1.4"/><g class="cls-3"><circle class="cls-4" cx="310.58" cy="91.65" r="37.13"/></g><path class="cls-2" d="M261.16,149.51v1.06h-5.29v-9.31h1.26v8.25Z"/><path class="cls-2" d="M263.74,141.92a.68.68,0,0,1-.07.32.76.76,0,0,1-.18.26,1,1,0,0,1-.26.18.92.92,0,0,1-.33.06.81.81,0,0,1-.31-.06,1.2,1.2,0,0,1-.26-.18.9.9,0,0,1-.17-.26.68.68,0,0,1-.07-.32.71.71,0,0,1,.07-.32,1,1,0,0,1,.17-.27.9.9,0,0,1,.26-.17.67.67,0,0,1,.31-.07.75.75,0,0,1,.33.07.78.78,0,0,1,.26.17.8.8,0,0,1,.18.27A.71.71,0,0,1,263.74,141.92ZM263.5,144v6.58h-1.16V144Z"/><path class="cls-2" d="M266.49,145a3.11,3.11,0,0,1,.45-.44,2.78,2.78,0,0,1,.51-.33A2.32,2.32,0,0,1,268,144a2.73,2.73,0,0,1,.66-.07,2.55,2.55,0,0,1,.95.17,1.94,1.94,0,0,1,.69.51,2.38,2.38,0,0,1,.42.79,3.64,3.64,0,0,1,.14,1v4.19h-1.16v-4.19a1.76,1.76,0,0,0-.35-1.16,1.26,1.26,0,0,0-1-.41,1.91,1.91,0,0,0-1,.25,2.85,2.85,0,0,0-.82.67v4.84h-1.17V144h.7a.28.28,0,0,1,.3.24Z"/><path class="cls-2" d="M272.48,144.92a3.84,3.84,0,0,1,1.17-.79,3.71,3.71,0,0,1,1.4-.26,2.48,2.48,0,0,1,1,.18,2.28,2.28,0,0,1,.73.51,2.25,2.25,0,0,1,.44.79,3.24,3.24,0,0,1,.15,1v4.21h-.52a.48.48,0,0,1-.26,0,.37.37,0,0,1-.14-.22l-.13-.62a4.71,4.71,0,0,1-.51.42,2.11,2.11,0,0,1-.52.31,2.64,2.64,0,0,1-.58.2,2.84,2.84,0,0,1-.68.07,2.48,2.48,0,0,1-.73-.11,1.64,1.64,0,0,1-.58-.32,1.47,1.47,0,0,1-.4-.54,1.87,1.87,0,0,1-.15-.78,1.39,1.39,0,0,1,.22-.75,1.87,1.87,0,0,1,.69-.64,4.45,4.45,0,0,1,1.26-.46,9,9,0,0,1,1.9-.2v-.52a1.71,1.71,0,0,0-.34-1.16,1.19,1.19,0,0,0-1-.39,1.88,1.88,0,0,0-.72.11,2.33,2.33,0,0,0-.5.24l-.37.24a.51.51,0,0,1-.3.1.34.34,0,0,1-.2-.06.5.5,0,0,1-.14-.15Zm3.74,2.69a9.67,9.67,0,0,0-1.37.13,3.44,3.44,0,0,0-.91.26,1.38,1.38,0,0,0-.52.38.9.9,0,0,0-.16.5,1.06,1.06,0,0,0,.09.45.9.9,0,0,0,.23.31,1,1,0,0,0,.34.17,1.54,1.54,0,0,0,.43.06,2,2,0,0,0,.56-.07,2.48,2.48,0,0,0,.48-.17,4,4,0,0,0,.43-.28c.13-.11.27-.24.4-.37Z"/><path class="cls-2" d="M280.21,145.31a3,3,0,0,1,.76-1.06,1.73,1.73,0,0,1,1.12-.38,1.67,1.67,0,0,1,.39,0,1.22,1.22,0,0,1,.35.14l-.09.87a.18.18,0,0,1-.19.16,1.16,1.16,0,0,1-.27,0,1.64,1.64,0,0,0-.4,0,1.59,1.59,0,0,0-.55.09,1.34,1.34,0,0,0-.44.27,1.91,1.91,0,0,0-.34.44,4.17,4.17,0,0,0-.28.6v4.16h-1.16V144h.66a.35.35,0,0,1,.26.07.45.45,0,0,1,.1.25Z"/><path class="cls-2" d="M286.35,143.89a3.38,3.38,0,0,1,1.3.24,2.83,2.83,0,0,1,1,.68,2.9,2.9,0,0,1,.62,1.07,4.56,4.56,0,0,1,0,2.8,2.77,2.77,0,0,1-1.61,1.75,3.67,3.67,0,0,1-2.61,0,2.78,2.78,0,0,1-1-.68,3.16,3.16,0,0,1-.63-1.07,4.33,4.33,0,0,1-.22-1.4,4.37,4.37,0,0,1,.22-1.4,3.06,3.06,0,0,1,.63-1.07,2.66,2.66,0,0,1,1-.68A3.4,3.4,0,0,1,286.35,143.89Zm0,5.87a1.72,1.72,0,0,0,1.46-.65,3.73,3.73,0,0,0,0-3.66,1.7,1.7,0,0,0-1.46-.65,2.06,2.06,0,0,0-.86.16,1.64,1.64,0,0,0-.61.49,2.07,2.07,0,0,0-.37.79,4.15,4.15,0,0,0-.12,1,3,3,0,0,0,.49,1.82A1.72,1.72,0,0,0,286.35,149.76Z"/><path class="cls-2" d="M300.29,149.55v1h-5.73v-9.31h5.73v1h-4.47v3.09h3.62v1h-3.62v3.18Z"/><path class="cls-2" d="M307,141v9.57h-.68a.3.3,0,0,1-.32-.24l-.1-.8a3.55,3.55,0,0,1-1,.82,2.56,2.56,0,0,1-2.28.1,2.1,2.1,0,0,1-.78-.64,2.9,2.9,0,0,1-.5-1.06,5.27,5.27,0,0,1-.18-1.45,4.54,4.54,0,0,1,.19-1.35,3.4,3.4,0,0,1,.56-1.09,2.52,2.52,0,0,1,.9-.72,2.57,2.57,0,0,1,1.19-.27,2.38,2.38,0,0,1,1,.21,2.34,2.34,0,0,1,.77.57V141Zm-1.15,4.56a1.87,1.87,0,0,0-.7-.61,2,2,0,0,0-.85-.17,1.68,1.68,0,0,0-1.41.65,3.06,3.06,0,0,0-.49,1.87,4.53,4.53,0,0,0,.11,1.11,2.15,2.15,0,0,0,.32.75,1.22,1.22,0,0,0,.53.43,1.76,1.76,0,0,0,.71.14,1.87,1.87,0,0,0,1-.26,2.74,2.74,0,0,0,.79-.74Z"/><path class="cls-2" d="M314.34,144.25v.43q0,.21-.27.27l-.75.1a2,2,0,0,1,.23.95,2.06,2.06,0,0,1-.19.87,2,2,0,0,1-.51.68,2.43,2.43,0,0,1-.78.42,3.12,3.12,0,0,1-1,.15,3.05,3.05,0,0,1-.87-.11,1.28,1.28,0,0,0-.32.28.53.53,0,0,0-.11.3.41.41,0,0,0,.19.35,1.33,1.33,0,0,0,.51.17,4.74,4.74,0,0,0,.71.07l.82,0a7.35,7.35,0,0,1,.82.1,3,3,0,0,1,.71.23,1.36,1.36,0,0,1,.5.45,1.29,1.29,0,0,1,.19.74,1.72,1.72,0,0,1-.21.82,2.23,2.23,0,0,1-.6.71,3.21,3.21,0,0,1-1,.49,4,4,0,0,1-1.29.19,4.73,4.73,0,0,1-1.26-.15,2.87,2.87,0,0,1-.9-.38,1.69,1.69,0,0,1-.54-.56,1.31,1.31,0,0,1-.18-.66,1.19,1.19,0,0,1,.31-.82,2,2,0,0,1,.84-.54,1.21,1.21,0,0,1-.47-.35.94.94,0,0,1-.17-.59,1,1,0,0,1,.05-.29,1.53,1.53,0,0,1,.16-.31,1.45,1.45,0,0,1,.27-.29,1.61,1.61,0,0,1,.36-.24,2,2,0,0,1-.76-.72,2,2,0,0,1-.27-1.05,2.13,2.13,0,0,1,.18-.88,2,2,0,0,1,.52-.67,2.38,2.38,0,0,1,.79-.42,3.18,3.18,0,0,1,1-.15,3.38,3.38,0,0,1,.8.09,2.94,2.94,0,0,1,.68.28Zm-1.17,6.68a.56.56,0,0,0-.14-.39.81.81,0,0,0-.37-.23,2,2,0,0,0-.53-.12c-.21,0-.42-.05-.65-.06l-.69,0c-.23,0-.46,0-.68-.06a1.75,1.75,0,0,0-.59.42.88.88,0,0,0-.12,1,.93.93,0,0,0,.35.33,1.92,1.92,0,0,0,.59.22,4,4,0,0,0,.83.08A4.28,4.28,0,0,0,312,152a2.3,2.3,0,0,0,.63-.24,1.27,1.27,0,0,0,.39-.37A.92.92,0,0,0,313.17,150.93Zm-2.09-3.57a1.92,1.92,0,0,0,.62-.1,1.42,1.42,0,0,0,.45-.27,1.17,1.17,0,0,0,.27-.42,1.57,1.57,0,0,0,.09-.54,1.27,1.27,0,0,0-.37-1,1.43,1.43,0,0,0-1.06-.36,1.47,1.47,0,0,0-1.07.36,1.3,1.3,0,0,0-.36,1,1.57,1.57,0,0,0,.09.54,1.07,1.07,0,0,0,.28.42,1.48,1.48,0,0,0,.44.27A2,2,0,0,0,311.08,147.36Z"/><path class="cls-2" d="M320.79,149.65a2.25,2.25,0,0,1-.52.45,3,3,0,0,1-.64.32,4.23,4.23,0,0,1-.7.18,4.61,4.61,0,0,1-.72.07,3.22,3.22,0,0,1-1.26-.24,2.63,2.63,0,0,1-1-.67,3.24,3.24,0,0,1-.65-1.1,4.4,4.4,0,0,1-.23-1.51,3.88,3.88,0,0,1,.21-1.29,3.15,3.15,0,0,1,.6-1,2.79,2.79,0,0,1,1-.68,3.13,3.13,0,0,1,1.29-.25,3.07,3.07,0,0,1,1.1.19,2.71,2.71,0,0,1,.87.58,2.66,2.66,0,0,1,.57.92,3.49,3.49,0,0,1,.21,1.25.72.72,0,0,1-.06.36.25.25,0,0,1-.22.1h-4.4a3.82,3.82,0,0,0,.17,1.08,2.2,2.2,0,0,0,.43.77,1.65,1.65,0,0,0,.65.46,2.24,2.24,0,0,0,.84.16,2.37,2.37,0,0,0,.75-.11,4.24,4.24,0,0,0,.55-.21l.38-.22a.48.48,0,0,1,.26-.1.23.23,0,0,1,.22.11Zm-.94-3.09a2.43,2.43,0,0,0-.11-.73,1.59,1.59,0,0,0-.34-.58,1.36,1.36,0,0,0-.53-.38,1.71,1.71,0,0,0-.7-.13,1.78,1.78,0,0,0-1.32.48,2.29,2.29,0,0,0-.6,1.34Z"/><path class="cls-2" d="M333.86,150.57h-1.12a.9.9,0,0,1-.31,0,.75.75,0,0,1-.25-.19l-.94-1a4.64,4.64,0,0,1-1.41.94,4.34,4.34,0,0,1-1.75.35,3,3,0,0,1-1-.18,2.55,2.55,0,0,1-.89-.51,2.4,2.4,0,0,1-.88-1.9,2.47,2.47,0,0,1,.15-.86,2.81,2.81,0,0,1,.43-.75,3.42,3.42,0,0,1,.64-.62,4.63,4.63,0,0,1,.81-.47,4.21,4.21,0,0,1-.58-1,2.59,2.59,0,0,1-.19-1,2.35,2.35,0,0,1,.17-.89,2.16,2.16,0,0,1,.5-.73,2.52,2.52,0,0,1,.79-.49,3.11,3.11,0,0,1,1-.17,2.43,2.43,0,0,1,1.67.6,2.11,2.11,0,0,1,.48.63,2,2,0,0,1,.21.75l-.72.15c-.15,0-.25,0-.32-.2a1.54,1.54,0,0,0-.15-.36,1.35,1.35,0,0,0-.26-.33,1.23,1.23,0,0,0-.38-.24,1.25,1.25,0,0,0-.53-.1,1.54,1.54,0,0,0-.58.1,1.29,1.29,0,0,0-.74.73,1.79,1.79,0,0,0,0,1,2,2,0,0,0,.16.42,3.61,3.61,0,0,0,.29.43,4.48,4.48,0,0,0,.43.47l2.67,2.73a4.93,4.93,0,0,0,.4-.92,4.69,4.69,0,0,0,.2-1,.29.29,0,0,1,.07-.19.25.25,0,0,1,.19-.07h.7a4.84,4.84,0,0,1-.23,1.46,5,5,0,0,1-.66,1.35Zm-6-4.59a2.8,2.8,0,0,0-1,.89,2,2,0,0,0-.35,1.13,1.72,1.72,0,0,0,.16.74,1.62,1.62,0,0,0,.41.55,1.75,1.75,0,0,0,.58.33,1.88,1.88,0,0,0,.66.12,3.07,3.07,0,0,0,1.31-.27,3.37,3.37,0,0,0,1-.72Z"/><path class="cls-2" d="M339.75,142.29v3.25h3.83v1h-3.83v4h-1.26v-9.31h5.74v1Z"/><path class="cls-2" d="M347.78,143.89a3.38,3.38,0,0,1,1.3.24,2.66,2.66,0,0,1,1,.68,2.9,2.9,0,0,1,.62,1.07,4.56,4.56,0,0,1,0,2.8,3,3,0,0,1-.62,1.07,2.78,2.78,0,0,1-1,.68,3.67,3.67,0,0,1-2.61,0,2.78,2.78,0,0,1-1-.68,3.16,3.16,0,0,1-.63-1.07,4.33,4.33,0,0,1-.22-1.4,4.37,4.37,0,0,1,.22-1.4,3.06,3.06,0,0,1,.63-1.07,2.66,2.66,0,0,1,1-.68A3.4,3.4,0,0,1,347.78,143.89Zm0,5.87a1.71,1.71,0,0,0,1.46-.65,3.73,3.73,0,0,0,0-3.66,1.68,1.68,0,0,0-1.46-.65,2.06,2.06,0,0,0-.86.16,1.64,1.64,0,0,0-.61.49,2.22,2.22,0,0,0-.37.79,4.15,4.15,0,0,0-.12,1,3,3,0,0,0,.49,1.82A1.72,1.72,0,0,0,347.78,149.76Z"/><path class="cls-2" d="M357.9,144.25v.43q0,.21-.27.27l-.75.1a2,2,0,0,1,.22.95,2.05,2.05,0,0,1-.18.87,2.29,2.29,0,0,1-.51.68,2.43,2.43,0,0,1-.78.42,3.21,3.21,0,0,1-1,.15,3.05,3.05,0,0,1-.87-.11,1.13,1.13,0,0,0-.32.28.47.47,0,0,0-.11.3.39.39,0,0,0,.19.35,1.28,1.28,0,0,0,.5.17,4.88,4.88,0,0,0,.71.07l.82,0a7.07,7.07,0,0,1,.82.1,2.69,2.69,0,0,1,.71.23,1.39,1.39,0,0,1,.51.45,1.29,1.29,0,0,1,.19.74,1.72,1.72,0,0,1-.21.82,2.14,2.14,0,0,1-.61.71,3.15,3.15,0,0,1-1,.49,4,4,0,0,1-1.3.19,4.73,4.73,0,0,1-1.26-.15,2.87,2.87,0,0,1-.9-.38,1.75,1.75,0,0,1-.53-.56,1.31,1.31,0,0,1-.18-.66,1.15,1.15,0,0,1,.31-.82,2,2,0,0,1,.83-.54,1.17,1.17,0,0,1-.46-.35.88.88,0,0,1-.17-.59.77.77,0,0,1,.05-.29,1.15,1.15,0,0,1,.16-.31,1.75,1.75,0,0,1,.26-.29,2,2,0,0,1,.37-.24,2.06,2.06,0,0,1-.77-.72,2.16,2.16,0,0,1-.08-1.93,2,2,0,0,1,.51-.67,2.48,2.48,0,0,1,.79-.42,3.24,3.24,0,0,1,1-.15,3.44,3.44,0,0,1,.8.09,2.87,2.87,0,0,1,.67.28Zm-1.18,6.68a.56.56,0,0,0-.13-.39.87.87,0,0,0-.37-.23,2,2,0,0,0-.54-.12,6.33,6.33,0,0,0-.64-.06l-.69,0c-.24,0-.46,0-.68-.06a1.9,1.9,0,0,0-.6.42.91.91,0,0,0-.23.61.78.78,0,0,0,.12.41.86.86,0,0,0,.35.33,2,2,0,0,0,.58.22,4.13,4.13,0,0,0,.84.08,4.28,4.28,0,0,0,.84-.08,2.36,2.36,0,0,0,.62-.24,1.2,1.2,0,0,0,.4-.37A.91.91,0,0,0,356.72,150.93Zm-2.08-3.57a2,2,0,0,0,.62-.1,1.48,1.48,0,0,0,.44-.27,1.19,1.19,0,0,0,.28-.42,1.57,1.57,0,0,0,.09-.54,1.3,1.3,0,0,0-.37-1,1.76,1.76,0,0,0-2.13,0,1.27,1.27,0,0,0-.37,1,1.37,1.37,0,0,0,.1.54,1.17,1.17,0,0,0,.27.42,1.42,1.42,0,0,0,.45.27A1.92,1.92,0,0,0,354.64,147.36Z"/><path class="cls-2" d="M263,165.65a.25.25,0,0,1,.18.08l.5.54a3.94,3.94,0,0,1-1.38,1,4.93,4.93,0,0,1-2,.37,4.69,4.69,0,0,1-1.82-.35,4,4,0,0,1-1.39-1,4.31,4.31,0,0,1-.9-1.51,5.66,5.66,0,0,1-.32-1.93,5.43,5.43,0,0,1,.33-1.93,4.2,4.2,0,0,1,2.37-2.49,4.85,4.85,0,0,1,1.86-.34,4.55,4.55,0,0,1,1.75.31,4.49,4.49,0,0,1,1.34.87l-.42.58a.24.24,0,0,1-.1.1.25.25,0,0,1-.16,0,.56.56,0,0,1-.29-.13,4.34,4.34,0,0,0-.44-.28,3.38,3.38,0,0,0-.68-.29,3.68,3.68,0,0,0-1-.12,3.34,3.34,0,0,0-1.32.25,2.87,2.87,0,0,0-1,.72,3.31,3.31,0,0,0-.67,1.16,4.61,4.61,0,0,0-.24,1.54,4.38,4.38,0,0,0,.25,1.55,3.33,3.33,0,0,0,.68,1.16,3.05,3.05,0,0,0,1,.72,3.34,3.34,0,0,0,1.27.24,4.28,4.28,0,0,0,.75-.05,3,3,0,0,0,.62-.15,3.26,3.26,0,0,0,.53-.26,5.31,5.31,0,0,0,.48-.38A.32.32,0,0,1,263,165.65Z"/><path class="cls-2" d="M267.55,160.89a3.38,3.38,0,0,1,1.3.24,2.83,2.83,0,0,1,1,.68,2.9,2.9,0,0,1,.62,1.07,4.56,4.56,0,0,1,0,2.8,2.77,2.77,0,0,1-1.61,1.75,3.67,3.67,0,0,1-2.61,0,2.78,2.78,0,0,1-1-.68,3,3,0,0,1-.63-1.07,4.33,4.33,0,0,1-.22-1.4,4.37,4.37,0,0,1,.22-1.4,2.92,2.92,0,0,1,.63-1.07,2.66,2.66,0,0,1,1-.68A3.4,3.4,0,0,1,267.55,160.89Zm0,5.87a1.69,1.69,0,0,0,1.45-.65,3.66,3.66,0,0,0,0-3.66,1.66,1.66,0,0,0-1.45-.65,2.06,2.06,0,0,0-.86.16,1.64,1.64,0,0,0-.61.49,2.07,2.07,0,0,0-.37.79,4.15,4.15,0,0,0-.12,1,3,3,0,0,0,.49,1.82A1.72,1.72,0,0,0,267.55,166.76Z"/><path class="cls-2" d="M272.14,167.57V161h.7a.29.29,0,0,1,.31.24l.08.68a3.19,3.19,0,0,1,.82-.74,1.92,1.92,0,0,1,1.05-.28,1.56,1.56,0,0,1,1.08.37,2.07,2.07,0,0,1,.59,1,2.22,2.22,0,0,1,.37-.62,2.24,2.24,0,0,1,.5-.43,2.63,2.63,0,0,1,.6-.25,2.73,2.73,0,0,1,.64-.07,2.43,2.43,0,0,1,.92.16,1.78,1.78,0,0,1,.69.49,2.12,2.12,0,0,1,.44.78,3.45,3.45,0,0,1,.14,1.06v4.19h-1.16v-4.19a1.76,1.76,0,0,0-.34-1.17,1.18,1.18,0,0,0-1-.4,1.4,1.4,0,0,0-.54.1,1.31,1.31,0,0,0-.46.3,1.27,1.27,0,0,0-.3.49,1.76,1.76,0,0,0-.12.68v4.19H276v-4.19a1.85,1.85,0,0,0-.32-1.18,1.12,1.12,0,0,0-.93-.39,1.46,1.46,0,0,0-.79.23,2.34,2.34,0,0,0-.67.63v4.9Z"/><path class="cls-2" d="M283.94,162a3.59,3.59,0,0,1,1-.83,2.57,2.57,0,0,1,1.25-.31,2.43,2.43,0,0,1,1,.22,2.21,2.21,0,0,1,.79.64,3,3,0,0,1,.5,1.06,5.27,5.27,0,0,1,.18,1.45,4.56,4.56,0,0,1-.2,1.36,3.46,3.46,0,0,1-.56,1.08,2.44,2.44,0,0,1-.9.72,2.57,2.57,0,0,1-1.19.27,2.38,2.38,0,0,1-1-.21,2.61,2.61,0,0,1-.76-.57v2.91h-1.16V161h.69a.29.29,0,0,1,.31.24Zm.06,4a1.82,1.82,0,0,0,.69.6,2,2,0,0,0,.85.18,1.66,1.66,0,0,0,1.42-.66,3.06,3.06,0,0,0,.49-1.87,5.08,5.08,0,0,0-.11-1.11,2.26,2.26,0,0,0-.33-.75,1.22,1.22,0,0,0-.53-.43,1.58,1.58,0,0,0-.71-.14,1.92,1.92,0,0,0-1,.26,3,3,0,0,0-.78.73Z"/><path class="cls-2" d="M295.54,161v6.58h-.69a.29.29,0,0,1-.31-.24l-.1-.7a3.5,3.5,0,0,1-1,.76,2.53,2.53,0,0,1-1.22.29,2.33,2.33,0,0,1-.95-.18,1.86,1.86,0,0,1-.69-.5,2.07,2.07,0,0,1-.42-.79,3.31,3.31,0,0,1-.14-1V161h1.15v4.2a1.76,1.76,0,0,0,.35,1.16,1.27,1.27,0,0,0,1,.41,2,2,0,0,0,1-.25,3.18,3.18,0,0,0,.82-.67V161Z"/><path class="cls-2" d="M303.48,167.57h-1.16V162h-3.39v3.95a.87.87,0,0,0,.2.62.73.73,0,0,0,.52.2,1,1,0,0,0,.32,0,1.23,1.23,0,0,0,.23-.11l.16-.1a.19.19,0,0,1,.12-.05.2.2,0,0,1,.17.11l.33.55a2.18,2.18,0,0,1-.72.44,2.58,2.58,0,0,1-.87.16,1.59,1.59,0,0,1-1.2-.44,1.73,1.73,0,0,1-.42-1.25v-4H297a.28.28,0,0,1-.18-.06.3.3,0,0,1-.07-.2v-.46l1.08-.14.27-2a.26.26,0,0,1,.09-.16.24.24,0,0,1,.18-.06h.58v2.27h4.55Zm.29-8.69a.78.78,0,0,1-.07.31,1,1,0,0,1-.18.26,1,1,0,0,1-.27.17.68.68,0,0,1-.32.07.67.67,0,0,1-.31-.07.9.9,0,0,1-.26-.17.78.78,0,0,1-.17-.26.64.64,0,0,1-.07-.31.68.68,0,0,1,.07-.32.73.73,0,0,1,.17-.27.76.76,0,0,1,.26-.18.81.81,0,0,1,.31-.06.83.83,0,0,1,.32.06.8.8,0,0,1,.27.18.91.91,0,0,1,.18.27A.83.83,0,0,1,303.77,158.88Z"/><path class="cls-2" d="M306.47,162a3.17,3.17,0,0,1,.46-.44,2.78,2.78,0,0,1,.51-.33A2.32,2.32,0,0,1,308,161a2.7,2.7,0,0,1,.65-.07,2.52,2.52,0,0,1,.95.17,1.78,1.78,0,0,1,.69.51,2.07,2.07,0,0,1,.42.79,3.31,3.31,0,0,1,.14,1v4.19H309.7v-4.19a1.76,1.76,0,0,0-.34-1.16,1.28,1.28,0,0,0-1-.41,1.91,1.91,0,0,0-1,.25,3,3,0,0,0-.82.67v4.84h-1.16V161h.69a.29.29,0,0,1,.31.24Z"/><path class="cls-2" d="M318.19,161.25v.43q0,.21-.27.27l-.75.1a2,2,0,0,1,.22.95,1.92,1.92,0,0,1-.19.87,2,2,0,0,1-.51.68,2.24,2.24,0,0,1-.78.42,3.1,3.1,0,0,1-1,.15,3.05,3.05,0,0,1-.87-.11,1.13,1.13,0,0,0-.32.28.47.47,0,0,0-.11.3.39.39,0,0,0,.19.35,1.28,1.28,0,0,0,.5.17,4.88,4.88,0,0,0,.71.07l.82,0a7.07,7.07,0,0,1,.82.1,2.69,2.69,0,0,1,.71.23,1.39,1.39,0,0,1,.51.45,1.29,1.29,0,0,1,.19.74,1.72,1.72,0,0,1-.21.82,2.27,2.27,0,0,1-.61.71,3.15,3.15,0,0,1-1,.49,4.08,4.08,0,0,1-1.3.19,4.73,4.73,0,0,1-1.26-.15,2.87,2.87,0,0,1-.9-.38,1.75,1.75,0,0,1-.53-.56,1.31,1.31,0,0,1-.18-.66,1.18,1.18,0,0,1,.3-.82,2.11,2.11,0,0,1,.84-.54,1.17,1.17,0,0,1-.46-.35.88.88,0,0,1-.17-.59.77.77,0,0,1,.05-.29,1.15,1.15,0,0,1,.16-.31,1.75,1.75,0,0,1,.26-.29,1.88,1.88,0,0,1,.36-.24,2.1,2.1,0,0,1-.76-.72,2.16,2.16,0,0,1-.08-1.93,2,2,0,0,1,.51-.67,2.48,2.48,0,0,1,.79-.42,3.24,3.24,0,0,1,1-.15,3.44,3.44,0,0,1,.8.09,2.87,2.87,0,0,1,.67.28ZM317,167.93a.56.56,0,0,0-.13-.39.87.87,0,0,0-.37-.23,2,2,0,0,0-.54-.12,6.33,6.33,0,0,0-.64-.06l-.7,0c-.23,0-.46,0-.67-.06a1.9,1.9,0,0,0-.6.42.91.91,0,0,0-.23.61.78.78,0,0,0,.12.41.9.9,0,0,0,.34.33,2.14,2.14,0,0,0,.59.22,4.13,4.13,0,0,0,.84.08,4.28,4.28,0,0,0,.84-.08,2.36,2.36,0,0,0,.62-.24,1.31,1.31,0,0,0,.4-.37A.91.91,0,0,0,317,167.93Zm-2.08-3.57a1.85,1.85,0,0,0,.61-.1A1.42,1.42,0,0,0,316,164a1.34,1.34,0,0,0,.28-.42,1.57,1.57,0,0,0,.09-.54,1.3,1.3,0,0,0-.37-1,1.76,1.76,0,0,0-2.13,0,1.27,1.27,0,0,0-.37,1,1.57,1.57,0,0,0,.09.54,1.34,1.34,0,0,0,.28.42,1.42,1.42,0,0,0,.45.27A1.92,1.92,0,0,0,314.93,164.36Z"/><path class="cls-2" d="M330.56,163.1v3.57a5.31,5.31,0,0,1-1.5.76,6,6,0,0,1-1.74.25,5.65,5.65,0,0,1-2-.35,4.63,4.63,0,0,1-1.55-1,4.33,4.33,0,0,1-1-1.51,5.22,5.22,0,0,1-.35-1.93,5.45,5.45,0,0,1,.34-1.94,4.27,4.27,0,0,1,.95-1.51,4.18,4.18,0,0,1,1.5-1,5.41,5.41,0,0,1,2-.34,5.59,5.59,0,0,1,1,.08,4.62,4.62,0,0,1,.87.23,4.36,4.36,0,0,1,.75.37,4.51,4.51,0,0,1,.64.49l-.35.57a.36.36,0,0,1-.22.17.43.43,0,0,1-.3-.06l-.35-.22a3.19,3.19,0,0,0-.49-.25,4.73,4.73,0,0,0-.69-.21,5,5,0,0,0-.93-.08,3.78,3.78,0,0,0-1.42.25,3.1,3.1,0,0,0-1.09.74,3.2,3.2,0,0,0-.69,1.16,5,5,0,0,0,0,3.09,3.44,3.44,0,0,0,.72,1.18,3.07,3.07,0,0,0,1.12.73,4.16,4.16,0,0,0,1.49.26,4.08,4.08,0,0,0,1.16-.15,4.86,4.86,0,0,0,1-.41v-2H328a.32.32,0,0,1-.2-.07.24.24,0,0,1-.07-.18v-.71Z"/><path class="cls-2" d="M333.21,162.31a3,3,0,0,1,.77-1.06,1.68,1.68,0,0,1,1.11-.38,1.75,1.75,0,0,1,.4,0,1.16,1.16,0,0,1,.34.14l-.08.87a.2.2,0,0,1-.2.16,1.16,1.16,0,0,1-.27,0,1.51,1.51,0,0,0-.39,0,1.6,1.6,0,0,0-.56.09,1.21,1.21,0,0,0-.43.27,1.94,1.94,0,0,0-.35.44,4.17,4.17,0,0,0-.27.6v4.16h-1.17V161h.67a.37.37,0,0,1,.26.07.45.45,0,0,1,.09.25Z"/><path class="cls-2" d="M339.35,160.89a3.35,3.35,0,0,1,1.3.24,2.66,2.66,0,0,1,1,.68,3.06,3.06,0,0,1,.63,1.07,4.37,4.37,0,0,1,.22,1.4,4.33,4.33,0,0,1-.22,1.4,3.16,3.16,0,0,1-.63,1.07,2.78,2.78,0,0,1-1,.68,3.35,3.35,0,0,1-1.3.24,3.43,3.43,0,0,1-1.31-.24,2.77,2.77,0,0,1-1.61-1.75,4.56,4.56,0,0,1,0-2.8,2.9,2.9,0,0,1,.62-1.07,2.83,2.83,0,0,1,1-.68A3.43,3.43,0,0,1,339.35,160.89Zm0,5.87a1.71,1.71,0,0,0,1.46-.65,3.73,3.73,0,0,0,0-3.66,1.68,1.68,0,0,0-1.46-.65,2.1,2.1,0,0,0-.86.16,1.72,1.72,0,0,0-.61.49,2.21,2.21,0,0,0-.36.79,4.15,4.15,0,0,0-.12,1,3,3,0,0,0,.48,1.82A1.72,1.72,0,0,0,339.35,166.76Z"/><path class="cls-2" d="M349.36,161v6.58h-.69a.3.3,0,0,1-.31-.24l-.09-.7a3.83,3.83,0,0,1-1,.76,2.56,2.56,0,0,1-1.22.29,2.33,2.33,0,0,1-.95-.18,2,2,0,0,1-.7-.5,2.38,2.38,0,0,1-.42-.79,3.64,3.64,0,0,1-.14-1V161H345v4.2a1.76,1.76,0,0,0,.34,1.16,1.31,1.31,0,0,0,1.05.41,2,2,0,0,0,.95-.25,3.22,3.22,0,0,0,.83-.67V161Z"/><path class="cls-2" d="M352.3,162a3.59,3.59,0,0,1,1-.83,2.57,2.57,0,0,1,1.25-.31,2.43,2.43,0,0,1,1,.22,2.21,2.21,0,0,1,.79.64,3.16,3.16,0,0,1,.5,1.06,5.27,5.27,0,0,1,.18,1.45,4.56,4.56,0,0,1-.2,1.36,3.46,3.46,0,0,1-.56,1.08,2.44,2.44,0,0,1-.9.72,2.57,2.57,0,0,1-1.19.27,2.38,2.38,0,0,1-1-.21,2.61,2.61,0,0,1-.76-.57v2.91H351.2V161h.69a.29.29,0,0,1,.31.24Zm.06,4a1.78,1.78,0,0,0,.7.6,1.92,1.92,0,0,0,.84.18,1.66,1.66,0,0,0,1.42-.66,3.06,3.06,0,0,0,.49-1.87,5.08,5.08,0,0,0-.11-1.11,2.26,2.26,0,0,0-.33-.75,1.22,1.22,0,0,0-.53-.43,1.61,1.61,0,0,0-.71-.14,1.92,1.92,0,0,0-1,.26,3,3,0,0,0-.78.73Z"/><path class="cls-2" d="M433.65,72.25a14.69,14.69,0,0,1,14,10A11,11,0,0,1,458.4,93.5a11.41,11.41,0,0,1-11.23,11.26h-27.7A11,11,0,0,1,408.41,93.5a11.47,11.47,0,0,1,10.94-11.23,15.29,15.29,0,0,1,14.3-10m0-2.07a17.4,17.4,0,0,0-15.74,10.14,13.52,13.52,0,0,0-11.57,13.15,13.1,13.1,0,0,0,13.13,13.36h27.7a13.47,13.47,0,0,0,13.3-13.29A13,13,0,0,0,449.1,80.3a16.79,16.79,0,0,0-15.45-10.12Z"/><path class="cls-2" d="M413.45,99.29a.68.68,0,0,1-1.36,0,9.52,9.52,0,0,1,.74-3.65,8.91,8.91,0,0,1,2-3,9.07,9.07,0,0,1,3-2,9.42,9.42,0,0,1,7.32,0,7.47,7.47,0,0,1,1.47.8l-1.45.72a7.4,7.4,0,0,0-3.66-.93A8.06,8.06,0,0,0,413.45,99.29Z"/><path class="cls-2" d="M423.72,100.84a3.13,3.13,0,0,1-4.42-4.42,3,3,0,0,1,.93-.64l8.1-4-4,8.1A3.12,3.12,0,0,1,423.72,100.84Z"/><path class="cls-2" d="M430.23,100a.67.67,0,0,1-.68-.68,8,8,0,0,0-1.43-4.58l.67-1.38a10,10,0,0,1,1.38,2.29,9.62,9.62,0,0,1,.74,3.67A.67.67,0,0,1,430.23,100Z"/><path class="cls-2" d="M448.8,100.29a1.26,1.26,0,0,1-1.11,1.42,1.13,1.13,0,0,1-1.06.85,1.23,1.23,0,0,1-1.15-.85,1.34,1.34,0,0,1-1.22-1.42v-1h4.54Z"/><path class="cls-2" d="M449.65,96.69a2.48,2.48,0,0,0-.84,1.83h-4.56a2.32,2.32,0,0,0-.91-1.83,5.27,5.27,0,0,1-2.12-4.49,5.38,5.38,0,0,1,5.24-5.09,5.3,5.3,0,0,1,5.39,5.32A5.1,5.1,0,0,1,449.65,96.69Z"/><path class="cls-5" d="M421.5,97.07a1.51,1.51,0,0,0-1.08.45,1.53,1.53,0,1,0,2.16,0A1.54,1.54,0,0,0,421.5,97.07Z"/><path class="cls-2" d="M436,90.85h-4c-.62,0-.94-.28-.71-.79l2.35-4.64c.23-.5.6-.47.83,0L436.75,90C437,90.55,436.65,90.85,436,90.85Z"/><path class="cls-2" d="M434,79.46a2.36,2.36,0,1,0,2.36,2.36A2.36,2.36,0,0,0,434,79.46Zm0,3.35a1,1,0,1,1,1-1A1,1,0,0,1,434,82.81Z"/><path class="cls-2" d="M431.42,85.42h0a.48.48,0,0,1,.19.4.51.51,0,0,1-.82.4h0a5.44,5.44,0,1,1,6.33,0h0l0,0a.5.5,0,0,1-.27.08.51.51,0,0,1-.51-.51.51.51,0,0,1,.2-.4l0,0h0a4.41,4.41,0,1,0-5.13,0"/><path class="cls-2" d="M438.4,88.49h0a8,8,0,1,0-8.88,0h0a.55.55,0,0,0,.29.09.51.51,0,0,0,.51-.51.49.49,0,0,0-.23-.42h0a7,7,0,1,1,7.74,0h0a.5.5,0,0,0-.23.42.51.51,0,0,0,.51.51.54.54,0,0,0,.28-.08"/><g class="cls-3"><circle class="cls-4" cx="433.4" cy="91.65" r="37.13"/></g><path class="cls-2" d="M403.41,149.51v1.06h-5.29v-9.31h1.26v8.25Z"/><path class="cls-2" d="M406,141.92a.83.83,0,0,1-.07.32,1.2,1.2,0,0,1-.18.26,1.27,1.27,0,0,1-.27.18.88.88,0,0,1-.64,0,.94.94,0,0,1-.25-.18.76.76,0,0,1-.18-.26.83.83,0,0,1-.06-.32.87.87,0,0,1,.06-.32.8.8,0,0,1,.18-.27.74.74,0,0,1,.25-.17.77.77,0,0,1,.64,0,1,1,0,0,1,.27.17,1.27,1.27,0,0,1,.18.27A.88.88,0,0,1,406,141.92Zm-.25,2.07v6.58h-1.16V144Z"/><path class="cls-2" d="M408.74,145a3.11,3.11,0,0,1,.45-.44,2.78,2.78,0,0,1,.51-.33,2.25,2.25,0,0,1,.58-.22,2.7,2.7,0,0,1,.65-.07,2.52,2.52,0,0,1,.95.17,1.78,1.78,0,0,1,.69.51,2.21,2.21,0,0,1,.42.79,3.31,3.31,0,0,1,.14,1v4.19H412v-4.19a1.76,1.76,0,0,0-.34-1.16,1.28,1.28,0,0,0-1-.41,1.91,1.91,0,0,0-1,.25,3,3,0,0,0-.82.67v4.84h-1.16V144h.69a.29.29,0,0,1,.31.24Z"/><path class="cls-2" d="M414.73,144.92a4,4,0,0,1,1.18-.79,3.68,3.68,0,0,1,1.4-.26,2.55,2.55,0,0,1,1,.18,2.35,2.35,0,0,1,.72.51,2.25,2.25,0,0,1,.44.79,3.24,3.24,0,0,1,.15,1v4.21h-.51a.46.46,0,0,1-.26,0,.43.43,0,0,1-.15-.22l-.13-.62a5.87,5.87,0,0,1-.5.42,2.55,2.55,0,0,1-.52.31,2.84,2.84,0,0,1-.58.2,3,3,0,0,1-.69.07,2.36,2.36,0,0,1-.72-.11,1.68,1.68,0,0,1-.59-.32,1.47,1.47,0,0,1-.4-.54,2.05,2.05,0,0,1-.14-.78,1.47,1.47,0,0,1,.21-.75,1.91,1.91,0,0,1,.7-.64,4.49,4.49,0,0,1,1.25-.46,9.07,9.07,0,0,1,1.9-.2v-.52a1.76,1.76,0,0,0-.33-1.16,1.21,1.21,0,0,0-1-.39,1.88,1.88,0,0,0-.72.11,2.59,2.59,0,0,0-.5.24l-.36.24a.57.57,0,0,1-.31.1.36.36,0,0,1-.2-.06.67.67,0,0,1-.14-.15Zm3.74,2.69a9.52,9.52,0,0,0-1.36.13,3.52,3.52,0,0,0-.92.26,1.26,1.26,0,0,0-.51.38.83.83,0,0,0-.16.5,1.25,1.25,0,0,0,.08.45.81.81,0,0,0,.58.48,1.42,1.42,0,0,0,.42.06,2,2,0,0,0,.56-.07,2.48,2.48,0,0,0,.48-.17,4,4,0,0,0,.43-.28,4.61,4.61,0,0,0,.4-.37Z"/><path class="cls-2" d="M422.46,145.31a3,3,0,0,1,.77-1.06,1.68,1.68,0,0,1,1.11-.38,1.75,1.75,0,0,1,.4,0,1.16,1.16,0,0,1,.34.14l-.08.87a.2.2,0,0,1-.2.16,1.16,1.16,0,0,1-.27,0,1.56,1.56,0,0,0-.39,0,1.6,1.6,0,0,0-.56.09,1.21,1.21,0,0,0-.43.27,1.94,1.94,0,0,0-.35.44,4.17,4.17,0,0,0-.27.6v4.16h-1.17V144H422a.38.38,0,0,1,.27.07.45.45,0,0,1,.09.25Z"/><path class="cls-2" d="M428.6,143.89a3.35,3.35,0,0,1,1.3.24,2.66,2.66,0,0,1,1,.68,3.06,3.06,0,0,1,.63,1.07,4.37,4.37,0,0,1,.22,1.4,4.33,4.33,0,0,1-.22,1.4,3.16,3.16,0,0,1-.63,1.07,2.78,2.78,0,0,1-1,.68,3.35,3.35,0,0,1-1.3.24,3.43,3.43,0,0,1-1.31-.24,3,3,0,0,1-1-.68,3.16,3.16,0,0,1-.63-1.07,4.77,4.77,0,0,1,0-2.8,3.06,3.06,0,0,1,.63-1.07,2.83,2.83,0,0,1,1-.68A3.43,3.43,0,0,1,428.6,143.89Zm0,5.87a1.71,1.71,0,0,0,1.46-.65,3.73,3.73,0,0,0,0-3.66,1.68,1.68,0,0,0-1.46-.65,2.1,2.1,0,0,0-.86.16,1.72,1.72,0,0,0-.61.49,2.21,2.21,0,0,0-.36.79,4.15,4.15,0,0,0-.12,1,3,3,0,0,0,.48,1.82A1.72,1.72,0,0,0,428.6,149.76Z"/><path class="cls-2" d="M438.06,150.57H436.8v-9.31h1.26Z"/><path class="cls-2" d="M442.74,143.89a3.38,3.38,0,0,1,1.3.24,2.66,2.66,0,0,1,1,.68,3.06,3.06,0,0,1,.63,1.07,4.77,4.77,0,0,1,0,2.8,3.16,3.16,0,0,1-.63,1.07,2.78,2.78,0,0,1-1,.68,3.67,3.67,0,0,1-2.61,0,2.78,2.78,0,0,1-1-.68,3.16,3.16,0,0,1-.63-1.07,4.33,4.33,0,0,1-.22-1.4,4.37,4.37,0,0,1,.22-1.4,3.06,3.06,0,0,1,.63-1.07,2.66,2.66,0,0,1,1-.68A3.4,3.4,0,0,1,442.74,143.89Zm0,5.87a1.71,1.71,0,0,0,1.46-.65,3.73,3.73,0,0,0,0-3.66,1.68,1.68,0,0,0-1.46-.65,2.06,2.06,0,0,0-.86.16,1.64,1.64,0,0,0-.61.49,2.22,2.22,0,0,0-.37.79,4.15,4.15,0,0,0-.12,1,3,3,0,0,0,.49,1.82A1.72,1.72,0,0,0,442.74,149.76Z"/><path class="cls-2" d="M452.3,142.32h-3v8.25H448v-8.25h-3v-1.06h7.29Z"/><path class="cls-2" d="M464.57,150.57h-1.12a.9.9,0,0,1-.31,0,.75.75,0,0,1-.25-.19l-.94-1a4.64,4.64,0,0,1-1.41.94,4.34,4.34,0,0,1-1.75.35,3,3,0,0,1-1-.18,2.55,2.55,0,0,1-.89-.51,2.4,2.4,0,0,1-.88-1.9,2.47,2.47,0,0,1,.15-.86,2.81,2.81,0,0,1,.43-.75,3.14,3.14,0,0,1,.64-.62,4.63,4.63,0,0,1,.81-.47,4.21,4.21,0,0,1-.58-1,2.59,2.59,0,0,1-.19-1,2.35,2.35,0,0,1,.17-.89,2.16,2.16,0,0,1,.5-.73,2.52,2.52,0,0,1,.79-.49,3.11,3.11,0,0,1,1-.17,2.43,2.43,0,0,1,1.67.6,2.11,2.11,0,0,1,.48.63,2,2,0,0,1,.21.75l-.73.15c-.14,0-.24,0-.31-.2a1.54,1.54,0,0,0-.15-.36,1.35,1.35,0,0,0-.26-.33,1.23,1.23,0,0,0-.38-.24,1.25,1.25,0,0,0-.53-.1,1.54,1.54,0,0,0-.58.1,1.29,1.29,0,0,0-.74.73,1.79,1.79,0,0,0,0,1,2,2,0,0,0,.16.42,3.61,3.61,0,0,0,.29.43,4.48,4.48,0,0,0,.43.47l2.67,2.73a4.93,4.93,0,0,0,.4-.92,4.69,4.69,0,0,0,.2-1,.29.29,0,0,1,.07-.19.25.25,0,0,1,.19-.07h.7a4.84,4.84,0,0,1-.23,1.46,5,5,0,0,1-.66,1.35Zm-6-4.59a2.8,2.8,0,0,0-1,.89,2,2,0,0,0-.35,1.13,1.58,1.58,0,0,0,.16.74,1.62,1.62,0,0,0,.41.55,1.75,1.75,0,0,0,.58.33,1.88,1.88,0,0,0,.66.12,3.07,3.07,0,0,0,1.31-.27,3.37,3.37,0,0,0,1-.72Z"/><path class="cls-2" d="M387.77,166.55v1H382v-9.31h5.74v1h-4.48v3.09h3.63v1h-3.63v3.18Z"/><path class="cls-2" d="M389.07,167.57V161h.7a.28.28,0,0,1,.3.24l.09.68a3.36,3.36,0,0,1,.82-.74,1.92,1.92,0,0,1,1-.28,1.56,1.56,0,0,1,1.08.37,2.07,2.07,0,0,1,.59,1,2.22,2.22,0,0,1,.37-.62,2.24,2.24,0,0,1,.5-.43,2.63,2.63,0,0,1,.6-.25,2.73,2.73,0,0,1,.64-.07,2.43,2.43,0,0,1,.92.16,1.78,1.78,0,0,1,.69.49,2.12,2.12,0,0,1,.44.78,3.78,3.78,0,0,1,.14,1.06v4.19h-1.16v-4.19a1.76,1.76,0,0,0-.34-1.17,1.18,1.18,0,0,0-1-.4,1.4,1.4,0,0,0-.54.1,1.31,1.31,0,0,0-.46.3,1.42,1.42,0,0,0-.31.49,2,2,0,0,0-.11.68v4.19H393v-4.19a1.85,1.85,0,0,0-.32-1.18,1.12,1.12,0,0,0-.93-.39,1.46,1.46,0,0,0-.79.23,2.34,2.34,0,0,0-.67.63v4.9Z"/><path class="cls-2" d="M400.93,161.94a3.42,3.42,0,0,1,.94-.77,2.47,2.47,0,0,1,1.2-.28,2.38,2.38,0,0,1,1.05.22,2.11,2.11,0,0,1,.79.64,3.07,3.07,0,0,1,.49,1,4.69,4.69,0,0,1,.18,1.35,5.15,5.15,0,0,1-.2,1.46,3.46,3.46,0,0,1-.56,1.12,2.49,2.49,0,0,1-.89.72,2.7,2.7,0,0,1-1.19.26,2.25,2.25,0,0,1-1.09-.25,2.32,2.32,0,0,1-.78-.69l-.06.6a.27.27,0,0,1-.3.24h-.74V158h1.16Zm0,4.05a1.78,1.78,0,0,0,.7.6,1.9,1.9,0,0,0,.83.18,1.68,1.68,0,0,0,1.43-.66,3.22,3.22,0,0,0,.49-2,2.93,2.93,0,0,0-.44-1.78,1.48,1.48,0,0,0-1.25-.57,1.84,1.84,0,0,0-1,.26,3,3,0,0,0-.78.73Z"/><path class="cls-2" d="M412.39,166.65a2,2,0,0,1-.51.45,3.19,3.19,0,0,1-.64.32,4.35,4.35,0,0,1-.71.18,4.39,4.39,0,0,1-.72.07,3.22,3.22,0,0,1-1.26-.24,2.68,2.68,0,0,1-1-.67,3.26,3.26,0,0,1-.66-1.1,4.65,4.65,0,0,1-.23-1.51,3.88,3.88,0,0,1,.21-1.29,3,3,0,0,1,.61-1,2.7,2.7,0,0,1,1-.68,3.11,3.11,0,0,1,1.28-.25,3,3,0,0,1,1.1.19,2.6,2.6,0,0,1,.87.58,2.68,2.68,0,0,1,.58.92,3.72,3.72,0,0,1,.2,1.25.72.72,0,0,1-.06.36.23.23,0,0,1-.22.1h-4.4a3.81,3.81,0,0,0,.18,1.08,2.19,2.19,0,0,0,.42.77,1.65,1.65,0,0,0,.65.46,2.26,2.26,0,0,0,.85.16,2.37,2.37,0,0,0,.75-.11,3.59,3.59,0,0,0,.54-.21,3.9,3.9,0,0,0,.38-.22.48.48,0,0,1,.26-.1.23.23,0,0,1,.22.11Zm-.94-3.09a2.15,2.15,0,0,0-.11-.73,1.72,1.72,0,0,0-.33-.58,1.44,1.44,0,0,0-.53-.38,1.8,1.8,0,0,0-.71-.13,1.82,1.82,0,0,0-1.32.48,2.29,2.29,0,0,0-.6,1.34Z"/><path class="cls-2" d="M419.36,158v9.57h-.69a.29.29,0,0,1-.31-.24l-.11-.8a3.55,3.55,0,0,1-1,.82,2.45,2.45,0,0,1-1.25.32,2.42,2.42,0,0,1-1-.22,2.21,2.21,0,0,1-.79-.64,3.07,3.07,0,0,1-.5-1.06,5.27,5.27,0,0,1-.18-1.45,4.54,4.54,0,0,1,.2-1.35,3.22,3.22,0,0,1,.56-1.09,2.49,2.49,0,0,1,.89-.72,2.57,2.57,0,0,1,1.19-.27,2.32,2.32,0,0,1,1.81.78V158Zm-1.16,4.56a1.87,1.87,0,0,0-.7-.61,1.93,1.93,0,0,0-.85-.17,1.68,1.68,0,0,0-1.41.65,3.06,3.06,0,0,0-.49,1.87,5.08,5.08,0,0,0,.11,1.11,2.15,2.15,0,0,0,.32.75,1.28,1.28,0,0,0,.53.43,1.76,1.76,0,0,0,.71.14,1.93,1.93,0,0,0,1-.26,2.84,2.84,0,0,0,.78-.74Z"/><path class="cls-2" d="M426.64,158v9.57H426a.29.29,0,0,1-.31-.24l-.11-.8a3.55,3.55,0,0,1-1,.82,2.45,2.45,0,0,1-1.25.32,2.42,2.42,0,0,1-1-.22,2.21,2.21,0,0,1-.79-.64,3.07,3.07,0,0,1-.5-1.06,5.27,5.27,0,0,1-.18-1.45A4.54,4.54,0,0,1,421,163a3.22,3.22,0,0,1,.56-1.09,2.49,2.49,0,0,1,.89-.72,2.57,2.57,0,0,1,1.19-.27,2.35,2.35,0,0,1,1,.21,2.24,2.24,0,0,1,.77.57V158Zm-1.16,4.56a1.87,1.87,0,0,0-.7-.61,1.93,1.93,0,0,0-.85-.17,1.68,1.68,0,0,0-1.41.65,3.06,3.06,0,0,0-.49,1.87,5.08,5.08,0,0,0,.11,1.11,2.15,2.15,0,0,0,.32.75,1.28,1.28,0,0,0,.53.43,1.76,1.76,0,0,0,.71.14,1.93,1.93,0,0,0,1-.26,2.84,2.84,0,0,0,.78-.74Z"/><path class="cls-2" d="M433.81,166.65a2,2,0,0,1-.51.45,3,3,0,0,1-.64.32,4.1,4.1,0,0,1-.71.18,4.39,4.39,0,0,1-.72.07,3.29,3.29,0,0,1-1.26-.24,2.68,2.68,0,0,1-1-.67,3.09,3.09,0,0,1-.65-1.1,4.39,4.39,0,0,1-.24-1.51,3.88,3.88,0,0,1,.21-1.29,3.36,3.36,0,0,1,.61-1,2.79,2.79,0,0,1,1-.68,3.13,3.13,0,0,1,1.29-.25,3,3,0,0,1,1.09.19,2.51,2.51,0,0,1,.87.58,2.54,2.54,0,0,1,.58.92,3.49,3.49,0,0,1,.21,1.25.72.72,0,0,1-.06.36.25.25,0,0,1-.22.1h-4.4a3.82,3.82,0,0,0,.17,1.08,2.06,2.06,0,0,0,.43.77,1.58,1.58,0,0,0,.65.46,2.24,2.24,0,0,0,.84.16,2.37,2.37,0,0,0,.75-.11,3.59,3.59,0,0,0,.54-.21,3,3,0,0,0,.38-.22.5.5,0,0,1,.27-.1.24.24,0,0,1,.22.11Zm-.93-3.09a2.15,2.15,0,0,0-.12-.73,1.44,1.44,0,0,0-.33-.58,1.36,1.36,0,0,0-.53-.38,2,2,0,0,0-2,.35,2.23,2.23,0,0,0-.6,1.34Z"/><path class="cls-2" d="M440.78,158v9.57h-.69a.29.29,0,0,1-.31-.24l-.1-.8a3.75,3.75,0,0,1-1,.82,2.41,2.41,0,0,1-1.24.32,2.47,2.47,0,0,1-1-.22,2.21,2.21,0,0,1-.79-.64,3.26,3.26,0,0,1-.5-1.06,5.71,5.71,0,0,1-.17-1.45,4.54,4.54,0,0,1,.19-1.35,3.4,3.4,0,0,1,.56-1.09,2.49,2.49,0,0,1,.89-.72,2.65,2.65,0,0,1,1.2-.27,2.31,2.31,0,0,1,1,.21,2.24,2.24,0,0,1,.77.57V158Zm-1.16,4.56a1.8,1.8,0,0,0-.7-.61,1.91,1.91,0,0,0-.84-.17,1.68,1.68,0,0,0-1.41.65,3.06,3.06,0,0,0-.5,1.87,5.08,5.08,0,0,0,.11,1.11,2.36,2.36,0,0,0,.33.75,1.22,1.22,0,0,0,.53.43,1.71,1.71,0,0,0,.7.14,1.91,1.91,0,0,0,1-.26,2.71,2.71,0,0,0,.78-.74Z"/><path class="cls-2" d="M453.78,163.1v3.57a5.31,5.31,0,0,1-1.5.76,6,6,0,0,1-1.74.25,5.65,5.65,0,0,1-2-.35,4.49,4.49,0,0,1-1.54-1,4.22,4.22,0,0,1-1-1.51,5.22,5.22,0,0,1-.34-1.93A5.45,5.45,0,0,1,446,161a4.27,4.27,0,0,1,.95-1.51,4.31,4.31,0,0,1,1.51-1,5.32,5.32,0,0,1,2-.34,5.59,5.59,0,0,1,1,.08,4.72,4.72,0,0,1,.88.23,4.65,4.65,0,0,1,.74.37,5.26,5.26,0,0,1,.65.49l-.36.57a.36.36,0,0,1-.22.17.4.4,0,0,1-.29-.06l-.36-.22a3.19,3.19,0,0,0-.49-.25,4.58,4.58,0,0,0-.68-.21,5.15,5.15,0,0,0-.94-.08,3.78,3.78,0,0,0-1.42.25,3.1,3.1,0,0,0-1.09.74,3.2,3.2,0,0,0-.69,1.16,4.53,4.53,0,0,0-.24,1.52,4.74,4.74,0,0,0,.25,1.57,3.44,3.44,0,0,0,.72,1.18,3,3,0,0,0,1.13.73,4.44,4.44,0,0,0,2.64.11,4.86,4.86,0,0,0,1-.41v-2h-1.45A.29.29,0,0,1,451,164a.25.25,0,0,1-.08-.18v-.71Z"/><path class="cls-2" d="M456.43,162.31a3.13,3.13,0,0,1,.77-1.06,1.68,1.68,0,0,1,1.11-.38,1.75,1.75,0,0,1,.4,0,1.16,1.16,0,0,1,.34.14l-.08.87a.19.19,0,0,1-.2.16,1,1,0,0,1-.26,0,1.88,1.88,0,0,0-1,0,1.3,1.3,0,0,0-.43.27,2.26,2.26,0,0,0-.35.44,4.17,4.17,0,0,0-.27.6v4.16h-1.17V161H456a.37.37,0,0,1,.26.07.45.45,0,0,1,.1.25Z"/><path class="cls-2" d="M462.58,160.89a3.38,3.38,0,0,1,1.3.24,2.7,2.7,0,0,1,1,.68,2.79,2.79,0,0,1,.63,1.07,4.56,4.56,0,0,1,0,2.8,2.86,2.86,0,0,1-.63,1.07,2.83,2.83,0,0,1-1,.68,3.67,3.67,0,0,1-2.61,0,2.91,2.91,0,0,1-1-.68,3,3,0,0,1-.62-1.07,4.56,4.56,0,0,1,0-2.8,2.9,2.9,0,0,1,.62-1.07,2.78,2.78,0,0,1,1-.68A3.36,3.36,0,0,1,462.58,160.89Zm0,5.87a1.69,1.69,0,0,0,1.45-.65,3.73,3.73,0,0,0,0-3.66,1.66,1.66,0,0,0-1.45-.65,2.14,2.14,0,0,0-.87.16,1.81,1.81,0,0,0-.61.49,2.21,2.21,0,0,0-.36.79,4.15,4.15,0,0,0-.12,1,3,3,0,0,0,.48,1.82A1.75,1.75,0,0,0,462.58,166.76Z"/><path class="cls-2" d="M472.59,161v6.58h-.69a.3.3,0,0,1-.32-.24l-.09-.7a3.5,3.5,0,0,1-1,.76,2.53,2.53,0,0,1-1.22.29,2.33,2.33,0,0,1-.95-.18,1.86,1.86,0,0,1-.69-.5,2.07,2.07,0,0,1-.42-.79,3.31,3.31,0,0,1-.14-1V161h1.15v4.2a1.82,1.82,0,0,0,.34,1.16,1.31,1.31,0,0,0,1,.41,2,2,0,0,0,1-.25,3.18,3.18,0,0,0,.82-.67V161Z"/><path class="cls-2" d="M475.52,162a3.48,3.48,0,0,1,1-.83,2.53,2.53,0,0,1,1.24-.31,2.48,2.48,0,0,1,1,.22,2.1,2.1,0,0,1,.78.64,3,3,0,0,1,.5,1.06,5.27,5.27,0,0,1,.18,1.45,4.56,4.56,0,0,1-.2,1.36,3.26,3.26,0,0,1-.56,1.08,2.49,2.49,0,0,1-.89.72,2.65,2.65,0,0,1-1.2.27,2.31,2.31,0,0,1-1-.21,2.53,2.53,0,0,1-.77-.57v2.91h-1.16V161h.69a.29.29,0,0,1,.31.24Zm.06,4a1.85,1.85,0,0,0,.7.6,1.92,1.92,0,0,0,.84.18,1.66,1.66,0,0,0,1.42-.66,3.06,3.06,0,0,0,.49-1.87,4.53,4.53,0,0,0-.11-1.11,2.26,2.26,0,0,0-.33-.75,1.26,1.26,0,0,0-.52-.43,1.64,1.64,0,0,0-.71-.14,1.87,1.87,0,0,0-1,.26,2.84,2.84,0,0,0-.79.73Z"/><path class="cls-2" d="M92.86,87.15h0L67.4,72.67h0a1,1,0,0,0-.48-.13,1,1,0,0,0-.35.07h0l0,0L38.1,85.43h0a1,1,0,0,0-.6.89V93.7h0a1,1,0,0,0,.54.75h0l25.69,14.32h0a.9.9,0,0,0,.46.12.88.88,0,0,0,.33-.06h0l.06,0L92.72,95.94h0a1,1,0,0,0,.63-.9V88A1,1,0,0,0,92.86,87.15ZM40.3,94.64l-1.83-1V90.45l1.83,1Zm2.61,1.46-1.82-1V91.91l1.82,1Zm2.62,1.47-1.83-1V93.38l1.83,1ZM48.14,99l-1.82-1V94.84l1.82,1Zm2.62,1.46-1.83-1V96.3l1.83,1ZM53.37,102l-1.82-1V97.76l1.82,1ZM56,103.41l-1.83-1V99.22l1.83,1Zm2.61,1.46-1.82-1v-3.17l1.82,1Zm2.62,1.46-1.83-1v-3.17l1.83,1Zm2.61,1.46-1.82-1V103.6l1.82,1Zm2.71-.92-2,.92v-3.15l2-.92Zm2.87-1.32-2,.92v-3.15l2-.92Zm2.87-1.33-2,.93V102l2-.93Zm2.88-1.32-2,.92v-3.14l2-.93ZM78,101.58l-2,.92V99.35l2-.92Zm2.87-1.33-2,.93V98l2-.93Zm2.87-1.32-2,.92V96.71l2-.93Zm2.88-1.32-2,.92V95.38l2-.92Zm2.87-1.33-2,.93V94.06l2-.93ZM92.39,95l-2,.92V92.74l2-.93Zm-28.17,6L38.46,86.5,66.88,73.69,92.39,88.17Z"/><g class="cls-3"><circle class="cls-4" cx="65.43" cy="91.65" r="37.13"/></g><path class="cls-2" d="M55.18,89.14,52,90.52h0c-.77-.43-.7-1.1.16-1.48a3.69,3.69,0,0,1,3,.07Z"/><path class="cls-2" d="M57,90.15q-1.58.7-3.15,1.38l-1.42-.78,3.14-1.38Z"/><path class="cls-2" d="M59.45,91.49l-3.14,1.39-2-1.12c1-.47,2.09-.93,3.14-1.38Z"/><path class="cls-2" d="M60.82,93.81a3.75,3.75,0,0,1-3-.08l-1.15-.63,3.17-1.37,1.09.6C61.75,92.76,61.68,93.42,60.82,93.81Z"/><path class="cls-2" d="M73.85,81.23,71,82.47l-.31.13-.52-.29c-.77-.42-.7-1.09.15-1.47a3.73,3.73,0,0,1,3,.07Z"/><path class="cls-2" d="M79,84.05a8.81,8.81,0,0,1-4.58.55H74.3l-3.21-1.77c1-.44,2.13-.93,3.16-1.37Z"/><path class="cls-2" d="M79,85.62a3.75,3.75,0,0,1-3-.08l-1.12-.62c.62,0,1.25,0,1.87.08a3,3,0,0,0,1.46-.25l1.09-.48C79.87,84.68,79.74,85.26,79,85.62Z"/><path class="cls-2" d="M61.56,85c0,.34-.07.68-.1,1s-.21.47-.64.65l-5,2.19-1.24-.68Z"/><path class="cls-2" d="M68.76,90.28a15.56,15.56,0,0,1-.2,1.79.66.66,0,0,1-.39.4c-.8.38-1.61.74-2.44,1.09h0a3.9,3.9,0,0,1-2.11-.35L63,92.89l.61-.28a1.89,1.89,0,0,1,1.28-.16,2.19,2.19,0,0,0,1.72-.35c.34-.31.3-.62-.17-.9A2.72,2.72,0,0,0,64.65,91c-.65.14-1,.45-1,.8a1.5,1.5,0,0,0,.15.38l-1.22.53-2.17-1.2c.32-.13.62-.26.94-.41a1.75,1.75,0,0,1,.7-.06,2.65,2.65,0,0,0,2-.29c.4-.31.33-.69-.17-1a2.83,2.83,0,0,0-1.84-.2c-.71.17-1,.49-.87.93a.3.3,0,0,1-.19.34l-1,.43-2-1.13L60.51,89a5.82,5.82,0,0,1,2.83-.49c3.11.16,3.12.12,5.12,1.34A.56.56,0,0,1,68.76,90.28Z"/><path class="cls-2" d="M73.93,90.76l-.16.06-.67-.38-.59.27c-.34-.21-.3-.52.1-.7a1.86,1.86,0,0,1,1.41,0C74.37,90.26,74.33,90.58,73.93,90.76Z"/><path class="cls-2" d="M72.86,85.07A1.76,1.76,0,0,1,71.47,85c-.36-.21-.32-.52.1-.69a1.87,1.87,0,0,1,1-.08h0l.58.31h0C73.26,84.74,73.15,85,72.86,85.07Z"/><path class="cls-2" d="M77.26,86.82,74,88.24a2.65,2.65,0,0,1-1.33.23c-1,0-1.94,0-2.9-.11a2.81,2.81,0,0,1-1-.24c-.83-.43-1.54-.93-2.42-1.33s-1.25-.92-1-1.53c.06-.18.09-.3.5-.38.69-.13,1-.49.89-.84s-.75-.63-1.45-.66h-.12l3.19-1.44,1.7.94c-1.09.57-1.69,1.19-1.48,2.06.07.27-.08.46-.66.6-.84.2-1,.75-.44,1.13a2.86,2.86,0,0,0,2.32.14c.7-.3.82-.9,0-1.14s-.69-.58-.64-.92a4.11,4.11,0,0,0,.07-.78c0-.26.2-.43.58-.6l.61-.26,1.47.8h-.1c-.69.07-1.23.38-1.26.73s.45.7,1.12.8a2.58,2.58,0,0,0,1.86-.35,1.16,1.16,0,0,1,.33-.11Z"/><path class="cls-2" d="M79.75,91.78l-.4-.22c-1-.54-1.58-1.06-1.61-1.68l1.57.87C79.84,91,80,91.43,79.75,91.78Z"/><path class="cls-2" d="M64.31,80.53l-1.57.7a2.37,2.37,0,0,1,.19.34c.13.34-.19.67-.82.83a2.85,2.85,0,0,1-1.86-.15c-.5-.25-.61-.61-.29-.93a2.07,2.07,0,0,1,1.67-.39,2,2,0,0,0,1.29-.18l.71-.31a17.7,17.7,0,0,0-4.3,0L58.64,79c0-.08-.2-.13-.36-.12l-.13,0c-.08,0-.11.09-.09.14l.7,1.5a14.38,14.38,0,0,0-3.57,1,7.12,7.12,0,0,0-2.43,1.66l-2.92-.5a.43.43,0,0,0-.38.1c-.06.08,0,.16.18.19l2.89.49c-1.11,1.49-.66,3.18,1.5,4.37l7.6-3.43c0-.25,0-.51.07-.76s.2-.46.61-.64l4.42-2A12.6,12.6,0,0,0,64.31,80.53Zm-8.88,4.41a1.38,1.38,0,0,1-1.11,0c-.29-.16-.27-.41.06-.55a1.38,1.38,0,0,1,1.11,0C55.78,84.55,55.75,84.8,55.43,84.94Z"/><path class="cls-2" d="M67.91,81.66l-5.65,2.55.06-.39a.93.93,0,0,1,.54-.55l4.34-2A7.75,7.75,0,0,1,67.91,81.66Z"/><path class="cls-2" d="M62.05,82.06a1.72,1.72,0,0,1-1.39,0c-.38-.2-.36-.51,0-.7a1.79,1.79,0,0,1,1.4,0C62.46,81.57,62.45,81.87,62.05,82.06Z"/><path class="cls-2" d="M63.37,90.65a1.82,1.82,0,0,1-1.4-.07c-.35-.22-.29-.53.12-.7a1.75,1.75,0,0,1,1.39.07C63.83,90.16,63.78,90.48,63.37,90.65Z"/><path class="cls-2" d="M65.92,92.06a1.72,1.72,0,0,1-1.39,0c-.36-.2-.33-.52.06-.7a1.75,1.75,0,0,1,1.4.05C66.37,91.57,66.34,91.88,65.92,92.06Z"/><path class="cls-2" d="M77.64,91a.91.91,0,0,1-.52-.73,1.34,1.34,0,0,1,0-.72l-1-.52,1.12-.5c.86-.39,1-1,.32-1.49l-3.38,1.49a3.18,3.18,0,0,1-1.46.24c-1.1-.06-2.19-.06-3.28-.13a2.67,2.67,0,0,1-1-.25c-1.11-.59-2.15-1.22-3.26-1.81-.43-.23-.65-.46-.54-.77a4.63,4.63,0,0,0,.07-.52c0-.21,0-.36-.45-.48s-.72-.38-.72-.64a.38.38,0,0,1,0-.1l-1.46.66c-.06.48-.1,1-.13,1.43,0,.3-.24.5-.69.69-1.73.75-3.46,1.49-5.18,2.25l1.43.79,3.46-1.51a3.1,3.1,0,0,1,1.11-.19c1.24,0,2.49.06,3.72.13A3.18,3.18,0,0,1,67,88.6a7.29,7.29,0,0,1,2.23,1.34c.36.51-.08,1.15,0,1.73s-.31.92-1.08,1.25L71,94.5a3.75,3.75,0,0,0,3,.07c.86-.39.93-1,.15-1.48L71,91.38l1-.48a1.12,1.12,0,0,1-.22-.16c-.33-.32-.19-.71.36-.95a3,3,0,0,1,1.94-.06c.61.2.84.57.59,1a2.39,2.39,0,0,1-.16.22l2.76,1.56h0a3.66,3.66,0,0,0,1.82-.24l.31-.18Zm-6.15,2.17a3,3,0,0,1,2.29.06c.59.33.52.86-.13,1.14a2.91,2.91,0,0,1-2.23-.09C70.85,94,70.88,93.47,71.49,93.18Z"/><path class="cls-2" d="M71.85,94.08a1.79,1.79,0,0,0,1.4.07c.4-.17.45-.5.1-.71a1.9,1.9,0,0,0-1.41-.06C71.54,93.56,71.5,93.88,71.85,94.08Z"/><path class="cls-2" d="M73.25,94.15a1.79,1.79,0,0,1-1.4-.07c-.35-.2-.31-.52.09-.7a1.9,1.9,0,0,1,1.41.06C73.7,93.65,73.65,94,73.25,94.15Z"/><path class="cls-2" d="M69.49,86.55a1.86,1.86,0,0,1-1.41,0c-.37-.2-.36-.52,0-.7a1.72,1.72,0,0,1,1.39,0C69.88,86.06,69.88,86.37,69.49,86.55Z"/><path class="cls-2" d="M65.87,84.55a1.79,1.79,0,0,1-1.4-.06c-.36-.2-.31-.51.1-.69a1.72,1.72,0,0,1,1.39,0C66.31,84.06,66.28,84.37,65.87,84.55Z"/><path class="cls-2" d="M53.18,149.51v1.06H47.9v-9.31h1.25v8.25Z"/><path class="cls-2" d="M55.77,141.92a.83.83,0,0,1-.07.32,1.2,1.2,0,0,1-.18.26,1.27,1.27,0,0,1-.27.18.87.87,0,0,1-.32.06.83.83,0,0,1-.32-.06,1.14,1.14,0,0,1-.25-.18.76.76,0,0,1-.18-.26.83.83,0,0,1-.06-.32.87.87,0,0,1,.06-.32.8.8,0,0,1,.18-.27.85.85,0,0,1,.25-.17.68.68,0,0,1,.32-.07.71.71,0,0,1,.32.07,1,1,0,0,1,.27.17,1.27,1.27,0,0,1,.18.27A.88.88,0,0,1,55.77,141.92ZM55.52,144v6.58H54.36V144Z"/><path class="cls-2" d="M58.51,145a3.11,3.11,0,0,1,.45-.44,2.78,2.78,0,0,1,.51-.33,2.39,2.39,0,0,1,.58-.22,2.7,2.7,0,0,1,.65-.07,2.52,2.52,0,0,1,.95.17,1.78,1.78,0,0,1,.69.51,2.38,2.38,0,0,1,.42.79,3.31,3.31,0,0,1,.14,1v4.19H61.74v-4.19a1.76,1.76,0,0,0-.34-1.16,1.28,1.28,0,0,0-1-.41,1.91,1.91,0,0,0-1,.25,3,3,0,0,0-.82.67v4.84H57.42V144h.69a.29.29,0,0,1,.31.24Z"/><path class="cls-2" d="M64.5,144.92a4,4,0,0,1,1.18-.79,3.68,3.68,0,0,1,1.4-.26,2.55,2.55,0,0,1,1,.18,2.35,2.35,0,0,1,.72.51,2.25,2.25,0,0,1,.44.79,3.24,3.24,0,0,1,.15,1v4.21h-.51a.46.46,0,0,1-.26,0,.43.43,0,0,1-.15-.22l-.13-.62a5.87,5.87,0,0,1-.5.42,2.55,2.55,0,0,1-.52.31,2.84,2.84,0,0,1-.58.2,3,3,0,0,1-.69.07,2.36,2.36,0,0,1-.72-.11,1.68,1.68,0,0,1-.59-.32,1.47,1.47,0,0,1-.4-.54,2.05,2.05,0,0,1-.14-.78,1.47,1.47,0,0,1,.21-.75,1.91,1.91,0,0,1,.7-.64,4.49,4.49,0,0,1,1.25-.46,9.07,9.07,0,0,1,1.9-.2v-.52a1.76,1.76,0,0,0-.33-1.16,1.21,1.21,0,0,0-1-.39,1.88,1.88,0,0,0-.72.11,2.59,2.59,0,0,0-.5.24l-.36.24a.54.54,0,0,1-.31.1.36.36,0,0,1-.2-.06.67.67,0,0,1-.14-.15Zm3.74,2.69a9.52,9.52,0,0,0-1.36.13A3.52,3.52,0,0,0,66,148a1.33,1.33,0,0,0-.51.38.83.83,0,0,0-.16.5,1.25,1.25,0,0,0,.08.45.81.81,0,0,0,.58.48,1.42,1.42,0,0,0,.42.06,2,2,0,0,0,.56-.07,2.48,2.48,0,0,0,.48-.17,4,4,0,0,0,.43-.28,4.61,4.61,0,0,0,.4-.37Z"/><path class="cls-2" d="M72.23,145.31a3,3,0,0,1,.77-1.06,1.68,1.68,0,0,1,1.11-.38,1.75,1.75,0,0,1,.4,0,1.16,1.16,0,0,1,.34.14l-.08.87a.2.2,0,0,1-.2.16,1.16,1.16,0,0,1-.27,0,1.51,1.51,0,0,0-.39,0,1.6,1.6,0,0,0-.56.09,1.21,1.21,0,0,0-.43.27,1.94,1.94,0,0,0-.35.44,4.17,4.17,0,0,0-.27.6v4.16H71.13V144h.67a.37.37,0,0,1,.26.07.45.45,0,0,1,.09.25Z"/><path class="cls-2" d="M78.37,143.89a3.35,3.35,0,0,1,1.3.24,2.66,2.66,0,0,1,1,.68,3.06,3.06,0,0,1,.63,1.07,4.37,4.37,0,0,1,.22,1.4,4.33,4.33,0,0,1-.22,1.4,3.16,3.16,0,0,1-.63,1.07,2.78,2.78,0,0,1-1,.68,3.35,3.35,0,0,1-1.3.24,3.43,3.43,0,0,1-1.31-.24,3,3,0,0,1-1-.68,3.16,3.16,0,0,1-.63-1.07,4.77,4.77,0,0,1,0-2.8,3.06,3.06,0,0,1,.63-1.07,2.83,2.83,0,0,1,1-.68A3.43,3.43,0,0,1,78.37,143.89Zm0,5.87a1.71,1.71,0,0,0,1.46-.65,3.73,3.73,0,0,0,0-3.66,1.68,1.68,0,0,0-1.46-.65,2.1,2.1,0,0,0-.86.16,1.72,1.72,0,0,0-.61.49,2.21,2.21,0,0,0-.36.79,4.15,4.15,0,0,0-.12,1,3,3,0,0,0,.48,1.82A1.72,1.72,0,0,0,78.37,149.76Z"/><path class="cls-2" d="M23.53,165.65a.25.25,0,0,1,.18.08l.5.54a4,4,0,0,1-1.39,1,4.84,4.84,0,0,1-2,.37,4.61,4.61,0,0,1-1.82-.35,4.09,4.09,0,0,1-1.4-1,4.63,4.63,0,0,1-.9-1.51,5.66,5.66,0,0,1-.31-1.93,5.43,5.43,0,0,1,.33-1.93,4.37,4.37,0,0,1,.93-1.51,4.28,4.28,0,0,1,1.44-1,4.84,4.84,0,0,1,1.85-.34,4.24,4.24,0,0,1,3.1,1.18l-.42.58a.32.32,0,0,1-.1.1.29.29,0,0,1-.17,0,.56.56,0,0,1-.28-.13c-.12-.08-.26-.18-.44-.28a3.49,3.49,0,0,0-.69-.29,3.6,3.6,0,0,0-1-.12,3.27,3.27,0,0,0-1.32.25,2.78,2.78,0,0,0-1,.72,3.33,3.33,0,0,0-.68,1.16,5,5,0,0,0,0,3.09,3.5,3.5,0,0,0,.69,1.16,2.86,2.86,0,0,0,1,.72,3.3,3.3,0,0,0,1.27.24,4.43,4.43,0,0,0,.75-.05,2.72,2.72,0,0,0,.61-.15,2.9,2.9,0,0,0,.53-.26,5.41,5.41,0,0,0,.49-.38A.3.3,0,0,1,23.53,165.65Z"/><path class="cls-2" d="M28,160.89a3.31,3.31,0,0,1,1.3.24,2.66,2.66,0,0,1,1,.68,3.06,3.06,0,0,1,.63,1.07,4.37,4.37,0,0,1,.22,1.4,4.33,4.33,0,0,1-.22,1.4,3.16,3.16,0,0,1-.63,1.07,2.78,2.78,0,0,1-1,.68,3.31,3.31,0,0,1-1.3.24,3.43,3.43,0,0,1-1.31-.24,2.77,2.77,0,0,1-1.61-1.75,4.56,4.56,0,0,1,0-2.8,2.9,2.9,0,0,1,.62-1.07,2.83,2.83,0,0,1,1-.68A3.43,3.43,0,0,1,28,160.89Zm0,5.87a1.71,1.71,0,0,0,1.46-.65,3.73,3.73,0,0,0,0-3.66A1.68,1.68,0,0,0,28,161.8a2.1,2.1,0,0,0-.86.16,1.72,1.72,0,0,0-.61.49,2.21,2.21,0,0,0-.36.79,4.15,4.15,0,0,0-.12,1,3,3,0,0,0,.48,1.82A1.74,1.74,0,0,0,28,166.76Z"/><path class="cls-2" d="M33.73,162a3.17,3.17,0,0,1,.46-.44,2.78,2.78,0,0,1,.51-.33,2.32,2.32,0,0,1,.57-.22,2.7,2.7,0,0,1,.65-.07,2.52,2.52,0,0,1,.95.17,1.78,1.78,0,0,1,.69.51,2.07,2.07,0,0,1,.42.79,3.31,3.31,0,0,1,.15,1v4.19H37v-4.19a1.76,1.76,0,0,0-.34-1.16,1.28,1.28,0,0,0-1-.41,1.85,1.85,0,0,0-.95.25,2.88,2.88,0,0,0-.83.67v4.84H32.64V161h.7a.28.28,0,0,1,.3.24Z"/><path class="cls-2" d="M43.73,162.08a.26.26,0,0,1-.24.14.51.51,0,0,1-.22-.07L43,162a2.43,2.43,0,0,0-.42-.17,2.08,2.08,0,0,0-.59-.07,1.68,1.68,0,0,0-.52.07,1.17,1.17,0,0,0-.4.21,1,1,0,0,0-.26.3,1,1,0,0,0-.08.38.66.66,0,0,0,.14.42,1.32,1.32,0,0,0,.39.29,3.15,3.15,0,0,0,.55.22l.62.2a5.87,5.87,0,0,1,.63.24,2.14,2.14,0,0,1,.55.32,1.5,1.5,0,0,1,.38.48,1.42,1.42,0,0,1,.15.68,2.32,2.32,0,0,1-.16.84,1.88,1.88,0,0,1-.48.67,2.49,2.49,0,0,1-.78.45,3.49,3.49,0,0,1-1.07.16,3.34,3.34,0,0,1-2.2-.8l.28-.44a.3.3,0,0,1,.12-.13.35.35,0,0,1,.18-.05.45.45,0,0,1,.25.09l.31.2a2.85,2.85,0,0,0,.46.21,2,2,0,0,0,.66.09,1.78,1.78,0,0,0,.59-.09,1.22,1.22,0,0,0,.42-.24.91.91,0,0,0,.25-.34,1,1,0,0,0,.08-.42.73.73,0,0,0-.14-.45,1.37,1.37,0,0,0-.39-.31,4.19,4.19,0,0,0-.55-.22l-.63-.2a5.33,5.33,0,0,1-.63-.23,2,2,0,0,1-.55-.34,1.57,1.57,0,0,1-.39-.49,1.74,1.74,0,0,1-.14-.72,1.83,1.83,0,0,1,.15-.73,1.93,1.93,0,0,1,.46-.61,2.45,2.45,0,0,1,.73-.42,3.09,3.09,0,0,1,1-.15,3,3,0,0,1,1.16.2,2.74,2.74,0,0,1,.9.56Z"/><path class="cls-2" d="M50.94,161v6.58h-.69a.29.29,0,0,1-.31-.24l-.09-.7a3.7,3.7,0,0,1-1,.76,2.53,2.53,0,0,1-1.22.29,2.33,2.33,0,0,1-.95-.18A1.86,1.86,0,0,1,46,167a2.07,2.07,0,0,1-.42-.79,3.31,3.31,0,0,1-.14-1V161h1.15v4.2a1.76,1.76,0,0,0,.35,1.16,1.27,1.27,0,0,0,1,.41,2,2,0,0,0,1-.25,3.18,3.18,0,0,0,.82-.67V161Z"/><path class="cls-2" d="M52.77,167.57V161h.7a.28.28,0,0,1,.3.24l.09.68a3.32,3.32,0,0,1,.81-.74,2,2,0,0,1,1.06-.28,1.52,1.52,0,0,1,1.07.37,2,2,0,0,1,.6,1,2,2,0,0,1,.37-.62,1.87,1.87,0,0,1,.5-.43,2.55,2.55,0,0,1,.59-.25,2.79,2.79,0,0,1,.64-.07,2.45,2.45,0,0,1,.93.16,1.78,1.78,0,0,1,.69.49,2.1,2.1,0,0,1,.43.78,3.43,3.43,0,0,1,.15,1.06v4.19H60.54v-4.19a1.81,1.81,0,0,0-.34-1.17,1.2,1.2,0,0,0-1-.4,1.4,1.4,0,0,0-.54.1,1.37,1.37,0,0,0-.45.3,1.42,1.42,0,0,0-.31.49,2,2,0,0,0-.11.68v4.19H56.64v-4.19a1.85,1.85,0,0,0-.31-1.18,1.15,1.15,0,0,0-.93-.39,1.52,1.52,0,0,0-.8.23,2.63,2.63,0,0,0-.67.63v4.9Z"/><path class="cls-2" d="M68.81,166.65a2.25,2.25,0,0,1-.52.45,3,3,0,0,1-.64.32,4.23,4.23,0,0,1-.7.18,4.61,4.61,0,0,1-.72.07,3.22,3.22,0,0,1-1.26-.24,2.63,2.63,0,0,1-1-.67,3.24,3.24,0,0,1-.65-1.1,4.4,4.4,0,0,1-.23-1.51,3.88,3.88,0,0,1,.21-1.29,3.15,3.15,0,0,1,.6-1,2.79,2.79,0,0,1,1-.68,3.13,3.13,0,0,1,1.29-.25,3.07,3.07,0,0,1,1.1.19,2.71,2.71,0,0,1,.87.58,2.66,2.66,0,0,1,.57.92,3.49,3.49,0,0,1,.21,1.25.72.72,0,0,1-.06.36.25.25,0,0,1-.22.1h-4.4a3.82,3.82,0,0,0,.17,1.08,2.2,2.2,0,0,0,.43.77,1.65,1.65,0,0,0,.65.46,2.24,2.24,0,0,0,.84.16,2.37,2.37,0,0,0,.75-.11,4.24,4.24,0,0,0,.55-.21l.38-.22a.48.48,0,0,1,.26-.1.24.24,0,0,1,.22.11Zm-.94-3.09a2.43,2.43,0,0,0-.11-.73,1.59,1.59,0,0,0-.34-.58,1.36,1.36,0,0,0-.53-.38,1.71,1.71,0,0,0-.7-.13,1.78,1.78,0,0,0-1.32.48,2.29,2.29,0,0,0-.6,1.34Z"/><path class="cls-2" d="M71.42,162.31a3.13,3.13,0,0,1,.77-1.06,1.72,1.72,0,0,1,1.11-.38,1.68,1.68,0,0,1,.4,0,1.16,1.16,0,0,1,.34.14l-.08.87a.19.19,0,0,1-.19.16,1.09,1.09,0,0,1-.27,0,1.64,1.64,0,0,0-.4,0,1.55,1.55,0,0,0-.55.09,1.25,1.25,0,0,0-.44.27,1.91,1.91,0,0,0-.34.44,3.32,3.32,0,0,0-.28.6v4.16H70.33V161H71a.37.37,0,0,1,.26.07.45.45,0,0,1,.1.25Z"/><path class="cls-2" d="M86,163.1v3.57a5.31,5.31,0,0,1-1.5.76,6,6,0,0,1-1.74.25,5.65,5.65,0,0,1-2-.35,4.49,4.49,0,0,1-1.54-1,4.22,4.22,0,0,1-1-1.51,5.22,5.22,0,0,1-.34-1.93,5.45,5.45,0,0,1,.33-1.94,4.41,4.41,0,0,1,1-1.51,4.31,4.31,0,0,1,1.51-1,5.36,5.36,0,0,1,2-.34,5.59,5.59,0,0,1,1,.08,4.53,4.53,0,0,1,.88.23,4.26,4.26,0,0,1,.74.37,5.26,5.26,0,0,1,.65.49l-.36.57a.36.36,0,0,1-.22.17A.4.4,0,0,1,85,160l-.36-.22a3.19,3.19,0,0,0-.49-.25,4.24,4.24,0,0,0-.68-.21,5.15,5.15,0,0,0-.94-.08,3.78,3.78,0,0,0-1.42.25,3.19,3.19,0,0,0-1.09.74,3.33,3.33,0,0,0-.68,1.16,4.29,4.29,0,0,0-.25,1.52,4.49,4.49,0,0,0,.26,1.57,3.27,3.27,0,0,0,.71,1.18,3.11,3.11,0,0,0,1.13.73,4.12,4.12,0,0,0,1.49.26,4.06,4.06,0,0,0,1.15-.15,4.63,4.63,0,0,0,1-.41v-2H83.37a.3.3,0,0,1-.2-.07.25.25,0,0,1-.08-.18v-.71Z"/><path class="cls-2" d="M88.6,162.31a3.13,3.13,0,0,1,.77-1.06,1.7,1.7,0,0,1,1.11-.38,1.75,1.75,0,0,1,.4,0,1.16,1.16,0,0,1,.34.14l-.08.87a.19.19,0,0,1-.2.16,1,1,0,0,1-.26,0,1.64,1.64,0,0,0-.4,0,1.55,1.55,0,0,0-.55.09,1.25,1.25,0,0,0-.44.27,1.91,1.91,0,0,0-.34.44,3.32,3.32,0,0,0-.28.6v4.16H87.51V161h.66a.37.37,0,0,1,.26.07.45.45,0,0,1,.1.25Z"/><path class="cls-2" d="M94.75,160.89a3.38,3.38,0,0,1,1.3.24,2.7,2.7,0,0,1,1,.68,2.79,2.79,0,0,1,.63,1.07,4.56,4.56,0,0,1,0,2.8,2.86,2.86,0,0,1-.63,1.07,2.83,2.83,0,0,1-1,.68,3.67,3.67,0,0,1-2.61,0,2.78,2.78,0,0,1-1-.68,2.86,2.86,0,0,1-.63-1.07,4.56,4.56,0,0,1,0-2.8,2.79,2.79,0,0,1,.63-1.07,2.66,2.66,0,0,1,1-.68A3.36,3.36,0,0,1,94.75,160.89Zm0,5.87a1.69,1.69,0,0,0,1.45-.65,3.73,3.73,0,0,0,0-3.66,1.66,1.66,0,0,0-1.45-.65,2.06,2.06,0,0,0-.86.16,1.75,1.75,0,0,0-.62.49,2.21,2.21,0,0,0-.36.79,4.15,4.15,0,0,0-.12,1,3,3,0,0,0,.48,1.82A1.75,1.75,0,0,0,94.75,166.76Z"/><path class="cls-2" d="M104.76,161v6.58h-.69a.29.29,0,0,1-.31-.24l-.1-.7a3.5,3.5,0,0,1-1,.76,2.53,2.53,0,0,1-1.22.29,2.33,2.33,0,0,1-1-.18,1.86,1.86,0,0,1-.69-.5,2.07,2.07,0,0,1-.42-.79,3.31,3.31,0,0,1-.14-1V161h1.15v4.2a1.76,1.76,0,0,0,.35,1.16,1.27,1.27,0,0,0,1,.41,2,2,0,0,0,1-.25,3.18,3.18,0,0,0,.82-.67V161Z"/><path class="cls-2" d="M107.69,162a3.48,3.48,0,0,1,1-.83,2.53,2.53,0,0,1,1.24-.31,2.48,2.48,0,0,1,1,.22,2.1,2.1,0,0,1,.78.64,3.17,3.17,0,0,1,.51,1.06,5.71,5.71,0,0,1,.17,1.45,4.56,4.56,0,0,1-.19,1.36,3.28,3.28,0,0,1-.57,1.08,2.49,2.49,0,0,1-.89.72,2.62,2.62,0,0,1-1.2.27,2.34,2.34,0,0,1-1-.21,2.53,2.53,0,0,1-.77-.57v2.91h-1.16V161h.7a.28.28,0,0,1,.3.24Zm.06,4a1.81,1.81,0,0,0,1.54.78,1.66,1.66,0,0,0,1.42-.66,3.06,3.06,0,0,0,.49-1.87,4.53,4.53,0,0,0-.11-1.11,1.92,1.92,0,0,0-.33-.75,1.26,1.26,0,0,0-.52-.43,1.64,1.64,0,0,0-.71-.14,1.87,1.87,0,0,0-1,.26,2.84,2.84,0,0,0-.79.73Z"/><path class="cls-2" d="M183.51,72a14.72,14.72,0,0,1,14,10,11,11,0,0,1,10.76,11.24A11.41,11.41,0,0,1,197,104.47h-27.7a11,11,0,0,1-11.06-11.25A11.48,11.48,0,0,1,169.21,82a15.3,15.3,0,0,1,14.3-10m0-2.07A17.41,17.41,0,0,0,167.77,80,13.53,13.53,0,0,0,156.2,93.18a13.1,13.1,0,0,0,13.13,13.37H197a13.48,13.48,0,0,0,13.3-13.3A13,13,0,0,0,199,80a16.8,16.8,0,0,0-15.45-10.13Z"/><path class="cls-2" d="M193.19,99.38a.59.59,0,0,0-.58-.59h-7.39A2.6,2.6,0,0,0,184,97.72v-1.4h7.88A1.28,1.28,0,0,0,193.19,95v-2.7a1.29,1.29,0,0,0-1.28-1.28H184v-.64h7.88a1.28,1.28,0,0,0,1.28-1.28v-2.7a1.28,1.28,0,0,0-1.28-1.28H184v-.64h7.88a1.29,1.29,0,0,0,1.28-1.29v-2.7a1.29,1.29,0,0,0-1.28-1.28H174.62a1.28,1.28,0,0,0-1.28,1.28v2.71a1.28,1.28,0,0,0,1.28,1.28H182v.64h-7.37a1.28,1.28,0,0,0-1.28,1.28v2.7a1.28,1.28,0,0,0,1.28,1.28H182v.64h-7.37a1.28,1.28,0,0,0-1.28,1.28V95a1.28,1.28,0,0,0,1.28,1.28H182v1.37a2.62,2.62,0,0,0-1.26,1.11h-6.8a.58.58,0,0,0-.58.58v1.4a.58.58,0,0,0,.58.58h6.8a2.59,2.59,0,0,0,4.49,0h7.39a.58.58,0,0,0,.58-.58Zm-1.28-7.16a.11.11,0,0,1,.11.11V95a.11.11,0,0,1-.11.12H189V92.22Zm0-5.91a.11.11,0,0,1,.11.12v2.7a.12.12,0,0,1-.11.12H189V86.31Zm0-5.9a.11.11,0,0,1,.11.11v2.71a.11.11,0,0,1-.11.11H189V80.41Z"/><g class="cls-3"><circle class="cls-4" cx="183.26" cy="91.65" r="37.13"/></g><path class="cls-2" d="M139.9,149.38v1.06h-5.3V141.1h1.26v8.28Z"/><path class="cls-2" d="M142.5,141.76a.88.88,0,0,1-.07.32,1.2,1.2,0,0,1-.18.26.8.8,0,0,1-.27.18.87.87,0,0,1-.32.06.83.83,0,0,1-.32-.06.68.68,0,0,1-.26-.18,1.2,1.2,0,0,1-.18-.26.88.88,0,0,1,0-.64,1.27,1.27,0,0,1,.18-.27,1,1,0,0,1,.26-.18.83.83,0,0,1,.32-.06.87.87,0,0,1,.32.06.83.83,0,0,1,.45.45A.88.88,0,0,1,142.5,141.76Zm-.25,2.08v6.6h-1.16v-6.6Z"/><path class="cls-2" d="M145.25,144.8a2.73,2.73,0,0,1,.46-.44,3.48,3.48,0,0,1,.51-.34,2.78,2.78,0,0,1,.57-.21,2.71,2.71,0,0,1,.66-.08,2.33,2.33,0,0,1,1,.18,1.78,1.78,0,0,1,.69.51,2.07,2.07,0,0,1,.42.79,3.33,3.33,0,0,1,.15,1v4.2h-1.17v-4.2a1.79,1.79,0,0,0-.34-1.17,1.3,1.3,0,0,0-1-.41,1.86,1.86,0,0,0-1,.25,3.06,3.06,0,0,0-.83.67v4.86h-1.17v-6.6h.7a.29.29,0,0,1,.31.24Z"/><path class="cls-2" d="M151.26,144.77a3.82,3.82,0,0,1,1.18-.79,3.77,3.77,0,0,1,1.41-.26,2.52,2.52,0,0,1,1,.18,2,2,0,0,1,.73.51,2.25,2.25,0,0,1,.44.79,3.31,3.31,0,0,1,.15,1v4.22h-.52a.48.48,0,0,1-.26-.05.37.37,0,0,1-.14-.22l-.13-.63a4.85,4.85,0,0,1-.51.43,2.31,2.31,0,0,1-.52.31,2.73,2.73,0,0,1-.59.2,2.84,2.84,0,0,1-.68.07,2.48,2.48,0,0,1-.73-.11,1.77,1.77,0,0,1-.59-.32,1.59,1.59,0,0,1-.4-.55,2.05,2.05,0,0,1-.14-.78,1.47,1.47,0,0,1,.21-.75,1.91,1.91,0,0,1,.7-.64,4.45,4.45,0,0,1,1.26-.46,9.72,9.72,0,0,1,1.9-.21v-.51a1.79,1.79,0,0,0-.33-1.17,1.19,1.19,0,0,0-1-.39,1.88,1.88,0,0,0-.72.11,2.59,2.59,0,0,0-.5.24l-.37.24a.53.53,0,0,1-.3.11.27.27,0,0,1-.2-.07.54.54,0,0,1-.15-.15Zm3.75,2.7a9.52,9.52,0,0,0-1.36.13,3.52,3.52,0,0,0-.92.26,1.29,1.29,0,0,0-.52.39.84.84,0,0,0-.16.49,1,1,0,0,0,.09.45.72.72,0,0,0,.23.31,1,1,0,0,0,.35.18,1.86,1.86,0,0,0,.42,0,2.4,2.4,0,0,0,.56-.06,2,2,0,0,0,.48-.18,2.44,2.44,0,0,0,.43-.28,3.44,3.44,0,0,0,.4-.37Z"/><path class="cls-2" d="M159,145.16a2.91,2.91,0,0,1,.77-1.06,1.7,1.7,0,0,1,1.11-.38,1.84,1.84,0,0,1,.41,0,1,1,0,0,1,.34.15l-.09.87a.18.18,0,0,1-.19.16,1.16,1.16,0,0,1-.27,0,1.88,1.88,0,0,0-1,0,1.3,1.3,0,0,0-.43.27,1.8,1.8,0,0,0-.35.45,4.24,4.24,0,0,0-.28.6v4.17h-1.16v-6.6h.66c.13,0,.22,0,.26.07a.45.45,0,0,1,.1.25Z"/><path class="cls-2" d="M165.18,143.73a3.4,3.4,0,0,1,1.31.24,2.68,2.68,0,0,1,1,.69,3.06,3.06,0,0,1,.63,1.07,4.63,4.63,0,0,1,0,2.82,3.26,3.26,0,0,1-.63,1.07,2.78,2.78,0,0,1-1,.68,3.4,3.4,0,0,1-1.31.24,3.43,3.43,0,0,1-1.31-.24,2.91,2.91,0,0,1-1-.68,3.07,3.07,0,0,1-.62-1.07,4.63,4.63,0,0,1,0-2.82,2.9,2.9,0,0,1,.62-1.07,2.8,2.8,0,0,1,1-.69A3.43,3.43,0,0,1,165.18,143.73Zm0,5.9a1.71,1.71,0,0,0,1.47-.66,3,3,0,0,0,.48-1.83,3.09,3.09,0,0,0-.48-1.84,1.71,1.71,0,0,0-1.47-.66,2.09,2.09,0,0,0-.86.17,1.64,1.64,0,0,0-.61.49,2.14,2.14,0,0,0-.37.79,4.21,4.21,0,0,0-.12,1,3,3,0,0,0,.49,1.83A1.7,1.7,0,0,0,165.18,149.63Z"/><path class="cls-2" d="M181.51,145.77a5.28,5.28,0,0,1-.33,1.91,4.26,4.26,0,0,1-.94,1.48,4.2,4.2,0,0,1-1.46,1,5.15,5.15,0,0,1-1.88.33h-3.49V141.1h3.49a5.15,5.15,0,0,1,1.88.33,4.2,4.2,0,0,1,1.46.95,4.45,4.45,0,0,1,.94,1.48A5.32,5.32,0,0,1,181.51,145.77Zm-1.3,0a4.66,4.66,0,0,0-.23-1.54,3.22,3.22,0,0,0-.67-1.14,2.63,2.63,0,0,0-1-.72,3.56,3.56,0,0,0-1.37-.25h-2.22v7.3h2.22a3.56,3.56,0,0,0,1.37-.25,2.72,2.72,0,0,0,1-.71,3.17,3.17,0,0,0,.67-1.15A4.58,4.58,0,0,0,180.21,145.77Z"/><path class="cls-2" d="M182.72,144.77a3.52,3.52,0,0,1,2.58-1.05,2.57,2.57,0,0,1,1,.18,2,2,0,0,1,.72.51,2.1,2.1,0,0,1,.44.79,3.31,3.31,0,0,1,.15,1v4.22h-.51a.48.48,0,0,1-.26-.05.43.43,0,0,1-.15-.22l-.13-.63a6.08,6.08,0,0,1-.5.43,2.37,2.37,0,0,1-.53.31,2.64,2.64,0,0,1-.58.2,3,3,0,0,1-.69.07,2.36,2.36,0,0,1-.72-.11,1.53,1.53,0,0,1-1-.87,1.87,1.87,0,0,1-.15-.78,1.39,1.39,0,0,1,.22-.75,1.76,1.76,0,0,1,.7-.64,4.49,4.49,0,0,1,1.25-.46,9.83,9.83,0,0,1,1.91-.21v-.51a1.79,1.79,0,0,0-.33-1.17,1.22,1.22,0,0,0-1-.39,2,2,0,0,0-.72.11,2.59,2.59,0,0,0-.5.24l-.36.24a.58.58,0,0,1-.31.11.31.31,0,0,1-.2-.07.5.5,0,0,1-.14-.15Zm3.75,2.7a9.67,9.67,0,0,0-1.37.13,3.64,3.64,0,0,0-.92.26,1.25,1.25,0,0,0-.51.39.78.78,0,0,0-.16.49,1.17,1.17,0,0,0,.08.45.93.93,0,0,0,.23.31,1.06,1.06,0,0,0,.35.18,2,2,0,0,0,.43,0,2.47,2.47,0,0,0,.56-.06,2,2,0,0,0,.48-.18,2.87,2.87,0,0,0,.43-.28,3.44,3.44,0,0,0,.4-.37Z"/><path class="cls-2" d="M191.32,150.55a1.6,1.6,0,0,1-1.21-.44,1.74,1.74,0,0,1-.42-1.26v-4h-.79a.28.28,0,0,1-.18-.06.26.26,0,0,1-.07-.2v-.46l1.08-.14.27-2a.26.26,0,0,1,.09-.16.24.24,0,0,1,.18-.06h.58V144h1.91v.84h-1.91v4a.82.82,0,0,0,.21.62.67.67,0,0,0,.52.21,1,1,0,0,0,.31,0l.24-.11.16-.11a.28.28,0,0,1,.12-.05.22.22,0,0,1,.17.11l.33.56a2.18,2.18,0,0,1-.72.44A2.35,2.35,0,0,1,191.32,150.55Z"/><path class="cls-2" d="M193.79,144.77A3.75,3.75,0,0,1,195,144a3.68,3.68,0,0,1,1.4-.26,2.48,2.48,0,0,1,1,.18,2,2,0,0,1,.73.51,2.25,2.25,0,0,1,.44.79,3.31,3.31,0,0,1,.15,1v4.22h-.51a.52.52,0,0,1-.27-.05.42.42,0,0,1-.14-.22l-.13-.63a4.85,4.85,0,0,1-.51.43,2.31,2.31,0,0,1-.52.31,2.84,2.84,0,0,1-.58.2,3,3,0,0,1-.69.07,2.48,2.48,0,0,1-.73-.11,1.77,1.77,0,0,1-.59-.32,1.57,1.57,0,0,1-.39-.55,1.87,1.87,0,0,1-.15-.78,1.47,1.47,0,0,1,.21-.75,1.91,1.91,0,0,1,.7-.64,4.45,4.45,0,0,1,1.26-.46,9.74,9.74,0,0,1,1.91-.21v-.51a1.79,1.79,0,0,0-.34-1.17,1.19,1.19,0,0,0-1-.39,1.88,1.88,0,0,0-.72.11,2.59,2.59,0,0,0-.5.24l-.37.24a.53.53,0,0,1-.3.11.27.27,0,0,1-.2-.07.54.54,0,0,1-.15-.15Zm3.76,2.7a9.67,9.67,0,0,0-1.37.13,3.52,3.52,0,0,0-.92.26,1.29,1.29,0,0,0-.52.39.84.84,0,0,0-.16.49,1,1,0,0,0,.09.45.81.81,0,0,0,.23.31,1,1,0,0,0,.35.18,1.86,1.86,0,0,0,.42,0,2.34,2.34,0,0,0,.56-.06,2,2,0,0,0,.48-.18,2.44,2.44,0,0,0,.43-.28,3.51,3.51,0,0,0,.41-.37Z"/><path class="cls-2" d="M205.05,145a.38.38,0,0,1-.11.11.2.2,0,0,1-.14,0,.42.42,0,0,1-.22-.08,1.46,1.46,0,0,0-.29-.18,1.65,1.65,0,0,0-.42-.18,2.17,2.17,0,0,0-.62-.08,2.13,2.13,0,0,0-.86.17,1.68,1.68,0,0,0-.62.5,2.32,2.32,0,0,0-.38.79,4.11,4.11,0,0,0-.13,1,3.78,3.78,0,0,0,.14,1.06,2.25,2.25,0,0,0,.39.79,1.67,1.67,0,0,0,.61.48,1.83,1.83,0,0,0,.79.17,1.94,1.94,0,0,0,.7-.11,1.79,1.79,0,0,0,.46-.22,2.89,2.89,0,0,0,.3-.23.42.42,0,0,1,.23-.1.28.28,0,0,1,.23.11l.32.43a1.91,1.91,0,0,1-.49.45,2.59,2.59,0,0,1-.59.32,2.94,2.94,0,0,1-.66.19,4.14,4.14,0,0,1-.7.06,3,3,0,0,1-1.16-.23,2.63,2.63,0,0,1-.92-.67,3,3,0,0,1-.61-1.06,4.27,4.27,0,0,1-.22-1.44,4.32,4.32,0,0,1,.2-1.37,3.34,3.34,0,0,1,.6-1.08,2.84,2.84,0,0,1,1-.7,3.29,3.29,0,0,1,1.33-.26,3.1,3.1,0,0,1,1.23.23,2.88,2.88,0,0,1,.94.63Z"/><path class="cls-2" d="M211.92,149.52a2.22,2.22,0,0,1-.51.45,3.82,3.82,0,0,1-.64.32,4.35,4.35,0,0,1-.71.18,3.68,3.68,0,0,1-.73.07,3.29,3.29,0,0,1-1.26-.24,2.84,2.84,0,0,1-1-.67,3,3,0,0,1-.65-1.11,4.39,4.39,0,0,1-.24-1.51,4,4,0,0,1,.21-1.3,3.36,3.36,0,0,1,.61-1,2.89,2.89,0,0,1,1-.69,3.3,3.3,0,0,1,1.29-.25,3.07,3.07,0,0,1,1.1.2,2.44,2.44,0,0,1,.87.57,2.58,2.58,0,0,1,.58.93,3.54,3.54,0,0,1,.21,1.26.72.72,0,0,1-.06.36.24.24,0,0,1-.22.09h-4.42a3.84,3.84,0,0,0,.17,1.09,2.43,2.43,0,0,0,.43.78,1.75,1.75,0,0,0,.65.46,2.34,2.34,0,0,0,.85.15,2.39,2.39,0,0,0,.75-.1,3.3,3.3,0,0,0,.55-.22,3.9,3.9,0,0,0,.38-.22.56.56,0,0,1,.27-.1.28.28,0,0,1,.22.11Zm-.94-3.1a2.17,2.17,0,0,0-.11-.74,1.72,1.72,0,0,0-.33-.58,1.66,1.66,0,0,0-.53-.38,2.06,2.06,0,0,0-2,.35,2.35,2.35,0,0,0-.6,1.35Z"/><path class="cls-2" d="M214.55,144.8a3.11,3.11,0,0,1,.45-.44,3.48,3.48,0,0,1,.51-.34,2.86,2.86,0,0,1,.58-.21,2.69,2.69,0,0,1,.65-.08,2.42,2.42,0,0,1,1,.18,1.78,1.78,0,0,1,.69.51,2.07,2.07,0,0,1,.42.79,3.33,3.33,0,0,1,.14,1v4.2h-1.16v-4.2a1.79,1.79,0,0,0-.35-1.17,1.27,1.27,0,0,0-1-.41,1.91,1.91,0,0,0-1,.25,3,3,0,0,0-.82.67v4.86h-1.17v-6.6h.7a.28.28,0,0,1,.3.24Z"/><path class="cls-2" d="M222.67,150.55a1.62,1.62,0,0,1-1.21-.44,1.74,1.74,0,0,1-.42-1.26v-4h-.79a.28.28,0,0,1-.18-.06.26.26,0,0,1-.07-.2v-.46l1.08-.14.27-2a.26.26,0,0,1,.09-.16.24.24,0,0,1,.18-.06h.58V144h1.91v.84H222.2v4a.82.82,0,0,0,.21.62.67.67,0,0,0,.52.21.91.91,0,0,0,.31,0l.24-.11.16-.11a.28.28,0,0,1,.12-.05.22.22,0,0,1,.17.11l.34.56a2.22,2.22,0,0,1-.73.44A2.35,2.35,0,0,1,222.67,150.55Z"/><path class="cls-2" d="M230.64,149.52a2.22,2.22,0,0,1-.51.45,3.48,3.48,0,0,1-.64.32,4.35,4.35,0,0,1-.71.18,3.58,3.58,0,0,1-.72.07,3.3,3.3,0,0,1-1.27-.24,2.93,2.93,0,0,1-1-.67,3.19,3.19,0,0,1-.65-1.11,4.39,4.39,0,0,1-.24-1.51,4,4,0,0,1,.22-1.3,3,3,0,0,1,.61-1,2.85,2.85,0,0,1,1-.69,3.3,3.3,0,0,1,1.29-.25,3,3,0,0,1,1.1.2,2.35,2.35,0,0,1,.87.57,2.58,2.58,0,0,1,.58.93,3.54,3.54,0,0,1,.21,1.26.72.72,0,0,1-.06.36.24.24,0,0,1-.22.09h-4.42a3.82,3.82,0,0,0,.18,1.09,2.24,2.24,0,0,0,.42.78,1.84,1.84,0,0,0,.65.46,2.34,2.34,0,0,0,.85.15,2.46,2.46,0,0,0,.76-.1,3.54,3.54,0,0,0,.54-.22,3.9,3.9,0,0,0,.38-.22.56.56,0,0,1,.27-.1.27.27,0,0,1,.22.11Zm-.93-3.1a2.17,2.17,0,0,0-.12-.74,1.54,1.54,0,0,0-.86-1,2,2,0,0,0-2,.35,2.29,2.29,0,0,0-.61,1.35Z"/><path class="cls-2" d="M233.27,145.16a3,3,0,0,1,.77-1.06,1.73,1.73,0,0,1,1.12-.38,1.75,1.75,0,0,1,.4,0,1,1,0,0,1,.34.15l-.08.87a.19.19,0,0,1-.2.16,1.16,1.16,0,0,1-.27,0,1.56,1.56,0,0,0-.39,0,1.6,1.6,0,0,0-.56.09,1.34,1.34,0,0,0-.44.27,1.77,1.77,0,0,0-.34.45,2.78,2.78,0,0,0-.28.6v4.17h-1.17v-6.6h.67a.37.37,0,0,1,.26.07.45.45,0,0,1,.1.25Z"/><path class="cls-2" d="M150.93,166.1H149.8a.87.87,0,0,1-.31,0,.74.74,0,0,1-.25-.18l-1-1a4.86,4.86,0,0,1-1.41,1,4.38,4.38,0,0,1-1.76.34,3,3,0,0,1-1-.17,3.08,3.08,0,0,1-.9-.51,2.68,2.68,0,0,1-.63-.82,2.48,2.48,0,0,1-.09-2,2.77,2.77,0,0,1,.42-.75,3.48,3.48,0,0,1,.65-.62,4.38,4.38,0,0,1,.82-.47,3.86,3.86,0,0,1-.59-1,2.55,2.55,0,0,1-.19-1,2.44,2.44,0,0,1,.17-.9,2.12,2.12,0,0,1,.5-.72,2.35,2.35,0,0,1,.79-.49,2.89,2.89,0,0,1,1-.18,2.58,2.58,0,0,1,.94.16,2.63,2.63,0,0,1,.73.44,2.32,2.32,0,0,1,.49.64,2,2,0,0,1,.2.75l-.72.15c-.15,0-.25,0-.32-.2a1.38,1.38,0,0,0-.15-.36,1.35,1.35,0,0,0-.26-.33,1.47,1.47,0,0,0-.38-.25,1.43,1.43,0,0,0-.53-.1,1.59,1.59,0,0,0-.59.11,1.29,1.29,0,0,0-.45.29,1.18,1.18,0,0,0-.28.44,1.37,1.37,0,0,0-.1.54,2.12,2.12,0,0,0,0,.44,1.85,1.85,0,0,0,.17.42,2.22,2.22,0,0,0,.29.44,5.51,5.51,0,0,0,.42.47l2.69,2.73a5,5,0,0,0,.4-.92,4.66,4.66,0,0,0,.19-1,.37.37,0,0,1,.08-.19.23.23,0,0,1,.18-.07h.71a4.91,4.91,0,0,1-.23,1.47,5,5,0,0,1-.66,1.35Zm-6-4.61a2.8,2.8,0,0,0-1,.89,2,2,0,0,0-.35,1.14,1.58,1.58,0,0,0,.16.74,1.62,1.62,0,0,0,.41.55,1.59,1.59,0,0,0,.58.33,1.92,1.92,0,0,0,.66.12,3.11,3.11,0,0,0,1.32-.27,3.37,3.37,0,0,0,1-.72Z"/><path class="cls-2" d="M162.14,164.17a.27.27,0,0,1,.18.08l.5.55a4.07,4.07,0,0,1-1.39,1,4.76,4.76,0,0,1-2,.37,4.7,4.7,0,0,1-1.83-.34,4.11,4.11,0,0,1-1.4-1,4.4,4.4,0,0,1-.9-1.51,6,6,0,0,1,0-3.88,4.24,4.24,0,0,1,.94-1.51,4.14,4.14,0,0,1,1.44-1,4.67,4.67,0,0,1,1.86-.35,4.39,4.39,0,0,1,1.76.32,4.51,4.51,0,0,1,1.35.86l-.42.59a.32.32,0,0,1-.1.1.29.29,0,0,1-.17,0,.59.59,0,0,1-.29-.13,4.2,4.2,0,0,0-.44-.29,4.12,4.12,0,0,0-.68-.28,3.72,3.72,0,0,0-1-.13,3.34,3.34,0,0,0-1.32.26,2.75,2.75,0,0,0-1,.72,3.42,3.42,0,0,0-.68,1.16,4.71,4.71,0,0,0-.24,1.55,4.48,4.48,0,0,0,.25,1.56,3.5,3.5,0,0,0,.69,1.16,3.05,3.05,0,0,0,1,.72,3.36,3.36,0,0,0,1.28.25,5.78,5.78,0,0,0,.75-.05,3.74,3.74,0,0,0,.62-.16,2.61,2.61,0,0,0,.53-.26,5.31,5.31,0,0,0,.48-.38A.34.34,0,0,1,162.14,164.17Z"/><path class="cls-2" d="M165.21,156.49v9.61h-1.16v-9.61Z"/><path class="cls-2" d="M169.88,159.39a3.35,3.35,0,0,1,1.3.24,2.78,2.78,0,0,1,1,.68,2.91,2.91,0,0,1,.63,1.08,4.6,4.6,0,0,1,0,2.81,2.79,2.79,0,0,1-.63,1.07,2.66,2.66,0,0,1-1,.68,3.35,3.35,0,0,1-1.3.24,3.45,3.45,0,0,1-1.32-.24,2.66,2.66,0,0,1-1-.68,2.79,2.79,0,0,1-.63-1.07,4.6,4.6,0,0,1,0-2.81,2.91,2.91,0,0,1,.63-1.08,2.78,2.78,0,0,1,1-.68A3.45,3.45,0,0,1,169.88,159.39Zm0,5.89a1.68,1.68,0,0,0,1.46-.65,3.75,3.75,0,0,0,0-3.67,1.69,1.69,0,0,0-1.46-.66,2.14,2.14,0,0,0-.87.17,1.62,1.62,0,0,0-.61.49,2.32,2.32,0,0,0-.37.79,4.21,4.21,0,0,0-.12,1.05,3.06,3.06,0,0,0,.49,1.83A1.71,1.71,0,0,0,169.88,165.28Z"/><path class="cls-2" d="M179.92,159.49v6.61h-.69a.29.29,0,0,1-.31-.24l-.09-.71a3.51,3.51,0,0,1-1,.76,2.42,2.42,0,0,1-1.22.29,2.38,2.38,0,0,1-1-.18,1.67,1.67,0,0,1-.69-.5,2.23,2.23,0,0,1-.43-.79,3.64,3.64,0,0,1-.14-1v-4.22h1.17v4.22a1.76,1.76,0,0,0,.34,1.16,1.3,1.3,0,0,0,1,.41,1.92,1.92,0,0,0,1-.25,3,3,0,0,0,.82-.67v-4.87Z"/><path class="cls-2" d="M187.23,156.49v9.61h-.69a.3.3,0,0,1-.32-.24l-.1-.8a3.55,3.55,0,0,1-1,.82,2.48,2.48,0,0,1-1.26.31,2.32,2.32,0,0,1-1-.22,2.11,2.11,0,0,1-.79-.64,3,3,0,0,1-.5-1.06,5.27,5.27,0,0,1-.18-1.45,4.56,4.56,0,0,1,.2-1.36,3.3,3.3,0,0,1,.56-1.09,2.46,2.46,0,0,1,.9-.73,2.57,2.57,0,0,1,1.19-.27,2.4,2.4,0,0,1,1.05.21,2.8,2.8,0,0,1,.77.57v-3.66Zm-1.16,4.57a1.91,1.91,0,0,0-.71-.61,2.07,2.07,0,0,0-.84-.17,1.66,1.66,0,0,0-1.42.66,3.09,3.09,0,0,0-.5,1.88,4.35,4.35,0,0,0,.12,1.1,2.13,2.13,0,0,0,.32.76,1.32,1.32,0,0,0,.53.44,1.8,1.8,0,0,0,.71.13,1.91,1.91,0,0,0,1-.26,2.74,2.74,0,0,0,.79-.74Z"/><path class="cls-2" d="M200.28,161.61v3.58a5.11,5.11,0,0,1-1.51.76,6.24,6.24,0,0,1-3.78-.09,4.46,4.46,0,0,1-1.55-1,4.31,4.31,0,0,1-1-1.51,5.65,5.65,0,0,1,0-3.89,4.27,4.27,0,0,1,.95-1.51,4.33,4.33,0,0,1,1.51-1,5.41,5.41,0,0,1,2-.34,6.53,6.53,0,0,1,1,.08,4.63,4.63,0,0,1,.89.23,5.28,5.28,0,0,1,.75.38,4.34,4.34,0,0,1,.64.49l-.36.57a.37.37,0,0,1-.22.17.4.4,0,0,1-.29-.06l-.36-.22a3.18,3.18,0,0,0-.49-.26,4.78,4.78,0,0,0-.69-.2,4.22,4.22,0,0,0-.94-.09,3.78,3.78,0,0,0-1.42.26,3,3,0,0,0-1.09.74,3.28,3.28,0,0,0-.69,1.16,4.31,4.31,0,0,0-.25,1.53,4.74,4.74,0,0,0,.25,1.57,3.39,3.39,0,0,0,.72,1.19,3.13,3.13,0,0,0,1.13.74,4.22,4.22,0,0,0,1.5.25,4.13,4.13,0,0,0,1.16-.15,4.81,4.81,0,0,0,1-.4v-2.06h-1.45a.27.27,0,0,1-.2-.07.24.24,0,0,1-.07-.18v-.71Z"/><path class="cls-2" d="M202.94,160.82a2.83,2.83,0,0,1,.77-1.06,1.64,1.64,0,0,1,1.11-.39,1.68,1.68,0,0,1,.4,0,1.22,1.22,0,0,1,.35.14l-.09.87a.18.18,0,0,1-.19.16l-.27,0a1.88,1.88,0,0,0-1,.05,1.21,1.21,0,0,0-.43.27,1.94,1.94,0,0,0-.35.44,5,5,0,0,0-.28.61v4.17h-1.16v-6.61h.66a.4.4,0,0,1,.26.07.45.45,0,0,1,.1.25Z"/><path class="cls-2" d="M209.1,159.39a3.43,3.43,0,0,1,1.31.24,3,3,0,0,1,1,.68,3.2,3.2,0,0,1,.63,1.08,4.6,4.6,0,0,1,0,2.81,3.06,3.06,0,0,1-.63,1.07,2.83,2.83,0,0,1-1,.68,3.43,3.43,0,0,1-1.31.24,3.4,3.4,0,0,1-1.31-.24,2.78,2.78,0,0,1-1-.68,3.06,3.06,0,0,1-.63-1.07,4.6,4.6,0,0,1,0-2.81,3.2,3.2,0,0,1,.63-1.08,2.91,2.91,0,0,1,1-.68A3.4,3.4,0,0,1,209.1,159.39Zm0,5.89a1.68,1.68,0,0,0,1.46-.65,3.68,3.68,0,0,0,0-3.67,1.69,1.69,0,0,0-1.46-.66,2.06,2.06,0,0,0-.86.17,1.65,1.65,0,0,0-.62.49,2.14,2.14,0,0,0-.36.79,4.21,4.21,0,0,0-.12,1.05,3.06,3.06,0,0,0,.48,1.83A1.72,1.72,0,0,0,209.1,165.28Z"/><path class="cls-2" d="M219.15,159.49v6.61h-.69a.3.3,0,0,1-.32-.24l-.09-.71a3.62,3.62,0,0,1-1,.76,2.48,2.48,0,0,1-1.23.29,2.42,2.42,0,0,1-1-.18,1.8,1.8,0,0,1-.69-.5,2.07,2.07,0,0,1-.42-.79,3.64,3.64,0,0,1-.14-1v-4.22h1.16v4.22a1.76,1.76,0,0,0,.34,1.16,1.31,1.31,0,0,0,1,.41,1.91,1.91,0,0,0,1-.25,3,3,0,0,0,.83-.67v-4.87Z"/><path class="cls-2" d="M222.1,160.52a3.29,3.29,0,0,1,1-.83,2.59,2.59,0,0,1,2.29-.1,2.14,2.14,0,0,1,.79.65,2.9,2.9,0,0,1,.5,1.06,5.33,5.33,0,0,1,.18,1.45,4.56,4.56,0,0,1-.2,1.36,3.3,3.3,0,0,1-.56,1.09,2.57,2.57,0,0,1-2.1,1,2.24,2.24,0,0,1-1.81-.78v2.93H221v-8.85h.69a.29.29,0,0,1,.31.24Zm.05,4a2,2,0,0,0,.7.61,2.11,2.11,0,0,0,.85.17,1.66,1.66,0,0,0,1.42-.66,3.07,3.07,0,0,0,.5-1.88,4.49,4.49,0,0,0-.12-1.11,2.21,2.21,0,0,0-.32-.76,1.37,1.37,0,0,0-.53-.43,1.8,1.8,0,0,0-.71-.14,1.93,1.93,0,0,0-1,.26,3,3,0,0,0-.79.74Z"/></g></svg>