<svg xmlns="http://www.w3.org/2000/svg" viewBox="0 0 222.07 183.3"><defs><style>.cls-1{fill:#0083ad;}.cls-2,.cls-4{fill:#fff;}.cls-3{fill:none;}.cls-3,.cls-4{stroke:#fff;stroke-miterlimit:10;opacity:0.6;}</style></defs><g id="map"><rect class="cls-1" width="222.07" height="183.3" rx="4.44"/><path class="cls-2" d="M26.25,26.48H24a1,1,0,0,1-.6-.17,1.19,1.19,0,0,1-.35-.45l-.73-2.16H17.63l-.73,2.16a1,1,0,0,1-.34.43.91.91,0,0,1-.59.19H13.72l4.8-12.38h2.94Zm-4.56-4.73-1.15-3.4a7.16,7.16,0,0,1-.27-.76c-.1-.29-.2-.6-.29-.94q-.14.51-.27,1c-.1.29-.19.55-.28.76l-1.14,3.38Z"/><path class="cls-2" d="M33.17,19.76a2.49,2.49,0,0,1-.23.23.54.54,0,0,1-.31.08.74.74,0,0,1-.36-.09l-.35-.21a2.19,2.19,0,0,0-.46-.21,2,2,0,0,0-.65-.09,1.8,1.8,0,0,0-.84.18,1.5,1.5,0,0,0-.58.51,2.13,2.13,0,0,0-.34.81,4.49,4.49,0,0,0-.11,1.08A3.27,3.27,0,0,0,29.43,24a1.56,1.56,0,0,0,1.34.68,1.82,1.82,0,0,0,.73-.12,1.9,1.9,0,0,0,.45-.25l.35-.26a.62.62,0,0,1,.39-.12.56.56,0,0,1,.48.23l.76.94a3.72,3.72,0,0,1-.85.76,4,4,0,0,1-.93.46,4.6,4.6,0,0,1-.94.23,6,6,0,0,1-.93.07,3.85,3.85,0,0,1-1.54-.31,3.69,3.69,0,0,1-1.29-.89A4.13,4.13,0,0,1,26.56,24a5.33,5.33,0,0,1-.33-1.94,5.45,5.45,0,0,1,.29-1.78,4,4,0,0,1,.84-1.43,3.81,3.81,0,0,1,1.38-1,4.84,4.84,0,0,1,1.9-.35,4.69,4.69,0,0,1,1.82.33,4.45,4.45,0,0,1,1.41,1Z"/><path class="cls-2" d="M41.29,19.76a2.49,2.49,0,0,1-.23.23.58.58,0,0,1-.32.08.7.7,0,0,1-.35-.09L40,19.77a2.45,2.45,0,0,0-.46-.21,2.1,2.1,0,0,0-.66-.09,1.78,1.78,0,0,0-.83.18,1.5,1.5,0,0,0-.58.51,2.13,2.13,0,0,0-.34.81,4.46,4.46,0,0,0-.12,1.08A3.34,3.34,0,0,0,37.54,24a1.59,1.59,0,0,0,1.35.68,1.82,1.82,0,0,0,.73-.12,1.9,1.9,0,0,0,.45-.25l.35-.26a.61.61,0,0,1,.39-.12.56.56,0,0,1,.48.23l.76.94a3.76,3.76,0,0,1-.86.76,4,4,0,0,1-.92.46,4.54,4.54,0,0,1-1,.23,5.79,5.79,0,0,1-.92.07,3.94,3.94,0,0,1-1.55-.31,3.69,3.69,0,0,1-1.29-.89A4.27,4.27,0,0,1,34.68,24a5.33,5.33,0,0,1-.33-1.94,5.45,5.45,0,0,1,.29-1.78,4,4,0,0,1,.84-1.43,3.85,3.85,0,0,1,1.37-1,4.88,4.88,0,0,1,1.9-.35,4.62,4.62,0,0,1,1.82.33,4.34,4.34,0,0,1,1.41,1Z"/><path class="cls-2" d="M45.1,22.55a2.43,2.43,0,0,0,.67,1.6,2,2,0,0,0,1.4.49,2.32,2.32,0,0,0,.79-.11,3.62,3.62,0,0,0,.59-.24L49,24a1,1,0,0,1,.45-.11.56.56,0,0,1,.48.23l.76.94a3.46,3.46,0,0,1-.88.76,4.1,4.1,0,0,1-1,.46,5.06,5.06,0,0,1-1,.23,6.35,6.35,0,0,1-1,.07,4.76,4.76,0,0,1-1.74-.31,4.11,4.11,0,0,1-1.42-.89,4.41,4.41,0,0,1-1-1.48,5.66,5.66,0,0,1-.35-2.06,4.62,4.62,0,0,1,.3-1.67,4.09,4.09,0,0,1,.87-1.39A4.18,4.18,0,0,1,45,17.88a4.86,4.86,0,0,1,3.41-.08,3.42,3.42,0,0,1,1.25.79,3.71,3.71,0,0,1,.82,1.27,4.61,4.61,0,0,1,.29,1.71c0,.2,0,.36,0,.48a.7.7,0,0,1-.1.3.34.34,0,0,1-.18.15.76.76,0,0,1-.29.05ZM48.41,21a2.57,2.57,0,0,0-.08-.62,1.46,1.46,0,0,0-.26-.53,1.65,1.65,0,0,0-.48-.38,1.76,1.76,0,0,0-.73-.14,1.56,1.56,0,0,0-1.17.43A2.24,2.24,0,0,0,45.13,21Z"/><path class="cls-2" d="M57.69,19.6a1,1,0,0,1-.21.23.67.67,0,0,1-.3.06.83.83,0,0,1-.37-.08l-.41-.17-.48-.18a2.39,2.39,0,0,0-.62-.08,1.34,1.34,0,0,0-.77.19.63.63,0,0,0-.27.54.53.53,0,0,0,.17.4,1.51,1.51,0,0,0,.47.29,6.06,6.06,0,0,0,.65.23l.75.25a8,8,0,0,1,.75.32,2.69,2.69,0,0,1,.65.45,1.92,1.92,0,0,1,.46.65,2.13,2.13,0,0,1,.18.92,3,3,0,0,1-.24,1.2,2.56,2.56,0,0,1-.71,1,3.46,3.46,0,0,1-1.16.62,5.57,5.57,0,0,1-1.6.22,4.58,4.58,0,0,1-.9-.09,5.06,5.06,0,0,1-.87-.23,4.59,4.59,0,0,1-.78-.34,3.28,3.28,0,0,1-.61-.43l.61-1a1,1,0,0,1,.26-.27.83.83,0,0,1,.41-.1.81.81,0,0,1,.41.11l.39.22a3.39,3.39,0,0,0,.5.22,2.12,2.12,0,0,0,.72.1,2,2,0,0,0,.52-.06,1,1,0,0,0,.34-.18.69.69,0,0,0,.18-.24.71.71,0,0,0,.06-.28.62.62,0,0,0-.17-.44,1.64,1.64,0,0,0-.47-.29,6.28,6.28,0,0,0-.66-.23q-.37-.11-.75-.24a5.63,5.63,0,0,1-.76-.33,2.58,2.58,0,0,1-.65-.49,2.1,2.1,0,0,1-.47-.71,2.67,2.67,0,0,1-.18-1A2.6,2.6,0,0,1,52,19.25a2.44,2.44,0,0,1,.65-.89,3.3,3.3,0,0,1,1.08-.6,5.07,5.07,0,0,1,2.46-.14,4.41,4.41,0,0,1,.83.23,6,6,0,0,1,.72.36,4.4,4.4,0,0,1,.57.46Z"/><path class="cls-2" d="M65.27,19.6a.81.81,0,0,1-.22.23.62.62,0,0,1-.29.06.87.87,0,0,1-.38-.08l-.4-.17-.49-.18a2.33,2.33,0,0,0-.62-.08,1.36,1.36,0,0,0-.77.19.63.63,0,0,0-.27.54.5.5,0,0,0,.18.4,1.45,1.45,0,0,0,.46.29,6.06,6.06,0,0,0,.65.23l.75.25a6.26,6.26,0,0,1,.75.32,2.69,2.69,0,0,1,.65.45,1.94,1.94,0,0,1,.47.65,2.29,2.29,0,0,1,.17.92,3,3,0,0,1-.24,1.2,2.46,2.46,0,0,1-.71,1,3.46,3.46,0,0,1-1.16.62,5.45,5.45,0,0,1-1.59.22,4.58,4.58,0,0,1-.9-.09,4.94,4.94,0,0,1-.88-.23,4.17,4.17,0,0,1-.77-.34,3.37,3.37,0,0,1-.62-.43l.62-1a.75.75,0,0,1,.26-.27.76.76,0,0,1,.4-.1.81.81,0,0,1,.41.11l.4.22a3.24,3.24,0,0,0,.49.22,2.12,2.12,0,0,0,.72.1,1.9,1.9,0,0,0,.52-.06.91.91,0,0,0,.34-.18.61.61,0,0,0,.19-.24.71.71,0,0,0,.06-.28.59.59,0,0,0-.18-.44,1.64,1.64,0,0,0-.47-.29,5.57,5.57,0,0,0-.66-.23l-.75-.24a5.51,5.51,0,0,1-.75-.33,2.47,2.47,0,0,1-.66-.49,2.25,2.25,0,0,1-.47-.71,2.67,2.67,0,0,1-.18-1,2.77,2.77,0,0,1,.22-1.07,2.44,2.44,0,0,1,.65-.89,3.25,3.25,0,0,1,1.09-.6,5,5,0,0,1,2.45-.14,4.31,4.31,0,0,1,.84.23,5.22,5.22,0,0,1,.71.36,3.36,3.36,0,0,1,.57.46Z"/><path class="cls-2" d="M74.32,26.62a2.93,2.93,0,0,1-1.11-.19,2.24,2.24,0,0,1-.81-.51,2.35,2.35,0,0,1-.5-.82A3.18,3.18,0,0,1,71.73,24V19.49H71a.48.48,0,0,1-.35-.14.46.46,0,0,1-.15-.38v-1l1.41-.27.51-2.15a.53.53,0,0,1,.58-.41h1.38v2.57h2.18v1.81H74.37v4.37a.81.81,0,0,0,.15.51.51.51,0,0,0,.43.2.88.88,0,0,0,.24,0l.17-.07.14-.07a.35.35,0,0,1,.34,0,.9.9,0,0,1,.14.17l.8,1.25a3.61,3.61,0,0,1-1.14.58A4.9,4.9,0,0,1,74.32,26.62Z"/><path class="cls-2" d="M81.67,17.53a5.09,5.09,0,0,1,1.83.32,3.71,3.71,0,0,1,1.41.9,4,4,0,0,1,.92,1.42,5.58,5.58,0,0,1,0,3.78,4,4,0,0,1-.92,1.44,4,4,0,0,1-1.41.91,5.09,5.09,0,0,1-1.83.32,5.15,5.15,0,0,1-1.84-.32,4.16,4.16,0,0,1-1.43-.91A3.91,3.91,0,0,1,77.48,24a5.58,5.58,0,0,1,0-3.78,3.93,3.93,0,0,1,2.35-2.32A5.15,5.15,0,0,1,81.67,17.53Zm0,7.13A1.49,1.49,0,0,0,83,24a3.52,3.52,0,0,0,.43-1.95A3.52,3.52,0,0,0,83,20.12a1.51,1.51,0,0,0-1.34-.63,1.55,1.55,0,0,0-1.37.63,3.52,3.52,0,0,0-.43,1.95A3.52,3.52,0,0,0,80.3,24,1.54,1.54,0,0,0,81.67,24.66Z"/><path class="cls-2" d="M91.22,18.89A5.32,5.32,0,0,1,93,17.84a6.19,6.19,0,0,1,2.09-.34,3.69,3.69,0,0,1,1.44.26,3,3,0,0,1,1.08.72,3.12,3.12,0,0,1,.69,1.1A3.9,3.9,0,0,1,98.53,21v5.51H97.32a1.24,1.24,0,0,1-.57-.1.85.85,0,0,1-.32-.43l-.18-.48a7.85,7.85,0,0,1-.64.49,3.94,3.94,0,0,1-.63.36,2.72,2.72,0,0,1-.7.22,4.15,4.15,0,0,1-.82.08,3.79,3.79,0,0,1-1.1-.16,2.38,2.38,0,0,1-.83-.46,2,2,0,0,1-.53-.76,2.69,2.69,0,0,1-.19-1,2.2,2.2,0,0,1,.24-1,2.35,2.35,0,0,1,.82-.89,5.2,5.2,0,0,1,1.58-.68,10.57,10.57,0,0,1,2.51-.3V21a1.65,1.65,0,0,0-.32-1.12,1.19,1.19,0,0,0-.9-.34,2.36,2.36,0,0,0-.77.1,3.82,3.82,0,0,0-.53.23c-.16.09-.31.16-.46.23a1.18,1.18,0,0,1-.52.1A.76.76,0,0,1,92,20a1.08,1.08,0,0,1-.31-.33Zm4.74,4a9.38,9.38,0,0,0-1.3.14,3.4,3.4,0,0,0-.81.25,1,1,0,0,0-.41.35.82.82,0,0,0-.12.43.74.74,0,0,0,.25.63,1.21,1.21,0,0,0,.72.18,2.29,2.29,0,0,0,.9-.17,2.93,2.93,0,0,0,.77-.58Z"/><path class="cls-2" d="M102.84,13.76V26.48h-2.63V13.76Z"/><path class="cls-2" d="M107.26,13.76V26.48h-2.63V13.76Z"/><path class="cls-2" d="M115.45,18.75a4.51,4.51,0,0,1,1.18-.9,3.21,3.21,0,0,1,1.56-.35,2.77,2.77,0,0,1,1.28.3,3,3,0,0,1,1,.89,4.4,4.4,0,0,1,.67,1.41,6.9,6.9,0,0,1,.24,1.9,5.72,5.72,0,0,1-.28,1.84,4.52,4.52,0,0,1-.77,1.46,3.59,3.59,0,0,1-1.19,1,3.38,3.38,0,0,1-1.53.35,2.83,2.83,0,0,1-2-.73v3.39H113V17.67h1.63a.6.6,0,0,1,.64.44Zm.16,5.33a1.66,1.66,0,0,0,.65.46,2,2,0,0,0,.73.14,1.5,1.5,0,0,0,.67-.15,1.35,1.35,0,0,0,.53-.46,2.36,2.36,0,0,0,.35-.83,4.91,4.91,0,0,0,.13-1.24,5.6,5.6,0,0,0-.1-1.17,2.21,2.21,0,0,0-.29-.77,1,1,0,0,0-.43-.42,1.2,1.2,0,0,0-.57-.13,2,2,0,0,0-1,.21,3.06,3.06,0,0,0-.71.62Z"/><path class="cls-2" d="M125.22,19a3.81,3.81,0,0,1,.93-1.13,2,2,0,0,1,1.22-.4,1.55,1.55,0,0,1,1,.28l-.17,1.93a.36.36,0,0,1-.4.33h-.18l-.23,0-.24,0h-.23a1.3,1.3,0,0,0-.92.31,2.2,2.2,0,0,0-.58.85v5.35h-2.64V17.67h1.56a1.55,1.55,0,0,1,.33,0,.51.51,0,0,1,.22.11A.4.4,0,0,1,125,18a1.48,1.48,0,0,1,.08.29Z"/><path class="cls-2" d="M133.15,17.53a5.08,5.08,0,0,1,1.82.32,3.83,3.83,0,0,1,1.42.9,4.1,4.1,0,0,1,.92,1.42,5.74,5.74,0,0,1,0,3.78,4.19,4.19,0,0,1-.92,1.44,4.12,4.12,0,0,1-1.42.91,5.39,5.39,0,0,1-3.66,0A4,4,0,0,1,129,24a5.58,5.58,0,0,1,0-3.78,4,4,0,0,1,.93-1.42,3.79,3.79,0,0,1,1.43-.9A5.11,5.11,0,0,1,133.15,17.53Zm0,7.13a1.48,1.48,0,0,0,1.33-.64,3.52,3.52,0,0,0,.43-1.95,3.52,3.52,0,0,0-.43-1.95,1.49,1.49,0,0,0-1.33-.63,1.54,1.54,0,0,0-1.37.63,3.52,3.52,0,0,0-.44,1.95,3.52,3.52,0,0,0,.44,1.95A1.52,1.52,0,0,0,133.15,24.66Z"/><path class="cls-2" d="M141.65,17.67V26.5a4.47,4.47,0,0,1-.15,1.17,2.64,2.64,0,0,1-.52,1,2.55,2.55,0,0,1-.95.65,4,4,0,0,1-1.47.24,5.66,5.66,0,0,1-.6,0l-.57-.12.08-1.38a.38.38,0,0,1,.12-.27.77.77,0,0,1,.41-.08,2.27,2.27,0,0,0,.5-.05.73.73,0,0,0,.31-.18.71.71,0,0,0,.16-.35,2.72,2.72,0,0,0,.05-.55V17.67Zm.28-2.42a1.45,1.45,0,0,1-.13.59,1.57,1.57,0,0,1-.35.49,1.72,1.72,0,0,1-.51.33,1.68,1.68,0,0,1-.63.12,1.5,1.5,0,0,1-.6-.12,1.67,1.67,0,0,1-.5-.33,1.54,1.54,0,0,1-.34-.49,1.45,1.45,0,0,1-.12-.59,1.59,1.59,0,0,1,1-1.43,1.68,1.68,0,0,1,.6-.11,1.9,1.9,0,0,1,.63.11,1.69,1.69,0,0,1,.86.83A1.54,1.54,0,0,1,141.93,15.25Z"/><path class="cls-2" d="M145.67,22.55a2.48,2.48,0,0,0,.67,1.6,2,2,0,0,0,1.4.49,2.32,2.32,0,0,0,.79-.11,3.62,3.62,0,0,0,.59-.24l.48-.25a1,1,0,0,1,.45-.11.56.56,0,0,1,.48.23l.76.94a3.46,3.46,0,0,1-.88.76,4.1,4.1,0,0,1-1,.46,5.06,5.06,0,0,1-1,.23,6.35,6.35,0,0,1-.95.07,4.83,4.83,0,0,1-1.74-.31,4,4,0,0,1-1.41-.89,4.28,4.28,0,0,1-1-1.48,5.66,5.66,0,0,1-.35-2.06,4.62,4.62,0,0,1,.3-1.67,4.09,4.09,0,0,1,.87-1.39,4.18,4.18,0,0,1,1.37-.94,4.53,4.53,0,0,1,1.81-.35,4.61,4.61,0,0,1,1.61.27,3.6,3.6,0,0,1,1.25.79,3.69,3.69,0,0,1,.81,1.27,4.61,4.61,0,0,1,.29,1.71,3.25,3.25,0,0,1,0,.48.89.89,0,0,1-.09.3.4.4,0,0,1-.19.15.76.76,0,0,1-.29.05ZM149,21a2.57,2.57,0,0,0-.08-.62,1.46,1.46,0,0,0-.26-.53,1.42,1.42,0,0,0-.48-.38,1.76,1.76,0,0,0-.73-.14,1.56,1.56,0,0,0-1.17.43A2.24,2.24,0,0,0,145.7,21Z"/><path class="cls-2" d="M159.14,19.76a2.49,2.49,0,0,1-.23.23.54.54,0,0,1-.31.08.71.71,0,0,1-.36-.09l-.35-.21a2.19,2.19,0,0,0-.46-.21,2,2,0,0,0-.65-.09,1.8,1.8,0,0,0-.84.18,1.5,1.5,0,0,0-.58.51A2.13,2.13,0,0,0,155,21a4.49,4.49,0,0,0-.11,1.08,3.34,3.34,0,0,0,.48,1.95,1.59,1.59,0,0,0,1.35.68,1.82,1.82,0,0,0,.73-.12,1.9,1.9,0,0,0,.45-.25l.35-.26a.61.61,0,0,1,.39-.12.56.56,0,0,1,.48.23l.76.94a3.72,3.72,0,0,1-.85.76,4.23,4.23,0,0,1-.93.46,4.6,4.6,0,0,1-.94.23,6,6,0,0,1-.93.07,3.94,3.94,0,0,1-2.84-1.2,4.27,4.27,0,0,1-.88-1.43,5.33,5.33,0,0,1-.33-1.94,5.45,5.45,0,0,1,.29-1.78,4,4,0,0,1,.84-1.43,3.81,3.81,0,0,1,1.38-1,4.84,4.84,0,0,1,1.9-.35,4.69,4.69,0,0,1,1.82.33,4.45,4.45,0,0,1,1.41,1Z"/><path class="cls-2" d="M164.09,26.62a2.93,2.93,0,0,1-1.11-.19,2.24,2.24,0,0,1-.81-.51,2.35,2.35,0,0,1-.5-.82A3.18,3.18,0,0,1,161.5,24V19.49h-.75a.48.48,0,0,1-.34-.14.46.46,0,0,1-.15-.38v-1l1.4-.27.52-2.15a.52.52,0,0,1,.58-.41h1.38v2.57h2.18v1.81h-2.18v4.37a.81.81,0,0,0,.15.51.5.5,0,0,0,.43.2.88.88,0,0,0,.24,0l.17-.07.13-.07a.37.37,0,0,1,.15,0,.27.27,0,0,1,.19.06.65.65,0,0,1,.15.17l.8,1.25a3.56,3.56,0,0,1-1.15.58A4.77,4.77,0,0,1,164.09,26.62Z"/><path class="cls-2" d="M173.06,19.6a1,1,0,0,1-.21.23.67.67,0,0,1-.3.06.83.83,0,0,1-.37-.08l-.41-.17-.48-.18a2.41,2.41,0,0,0-.63-.08,1.33,1.33,0,0,0-.76.19.63.63,0,0,0-.27.54.53.53,0,0,0,.17.4,1.58,1.58,0,0,0,.46.29c.2.08.42.16.66.23l.75.25a8,8,0,0,1,.75.32,2.69,2.69,0,0,1,.65.45,1.92,1.92,0,0,1,.46.65,2.13,2.13,0,0,1,.18.92,3,3,0,0,1-.24,1.2,2.67,2.67,0,0,1-.71,1,3.46,3.46,0,0,1-1.16.62,5.57,5.57,0,0,1-1.6.22,4.58,4.58,0,0,1-.9-.09,5.06,5.06,0,0,1-.87-.23,4.59,4.59,0,0,1-.78-.34,3.28,3.28,0,0,1-.61-.43l.61-1a1,1,0,0,1,.26-.27.85.85,0,0,1,.82,0l.39.22a3.39,3.39,0,0,0,.5.22,2.12,2.12,0,0,0,.72.1,2,2,0,0,0,.52-.06,1,1,0,0,0,.34-.18.69.69,0,0,0,.18-.24.71.71,0,0,0,.06-.28.59.59,0,0,0-.18-.44,1.45,1.45,0,0,0-.46-.29c-.2-.08-.42-.16-.66-.23s-.5-.15-.75-.24a5.63,5.63,0,0,1-.76-.33,2.83,2.83,0,0,1-.66-.49,2.23,2.23,0,0,1-.46-.71,2.67,2.67,0,0,1-.18-1,2.6,2.6,0,0,1,.22-1.07,2.44,2.44,0,0,1,.65-.89,3.2,3.2,0,0,1,1.08-.6,5.07,5.07,0,0,1,2.46-.14,4.41,4.41,0,0,1,.83.23,6,6,0,0,1,.72.36,4.4,4.4,0,0,1,.57.46Z"/><rect class="cls-3" x="12.43" y="48.5" width="196.73" height="25.57" rx="4.91"/><rect class="cls-4" x="23.09" y="55.89" width="174.52" height="9.82" rx="4.91"/><rect class="cls-4" x="23.09" y="88.47" width="174.52" height="9.82" rx="4.91"/><rect class="cls-4" x="23.09" y="121.05" width="174.52" height="9.82" rx="4.91"/><rect class="cls-4" x="23.09" y="153.63" width="174.52" height="9.82" rx="4.91"/><rect class="cls-3" x="12.43" y="81.08" width="196.73" height="25.57" rx="4.91"/><rect class="cls-3" x="12.43" y="113.66" width="196.73" height="25.57" rx="4.91"/><rect class="cls-3" x="12.43" y="146.24" width="196.73" height="25.57" rx="4.91"/></g></svg>