<svg xmlns="http://www.w3.org/2000/svg" viewBox="0 0 210.87 120.87"><defs><style>.cls-1{fill:#fff;}</style></defs><g id="upper"><rect class="cls-1" x="0.44" y="0.44" width="210" height="120" rx="8.34"/><polygon points="72.22 91.69 65.63 80.31 59.01 91.69 55.18 91.69 63.76 77.33 55.73 63.67 59.63 63.67 65.63 74.34 71.63 63.67 75.54 63.67 67.47 77.33 76.12 91.69 72.22 91.69"/><rect x="78.17" y="63.67" width="3.37" height="28.02"/><polygon points="86.2 91.69 86.2 63.67 89.57 63.67 89.57 88.64 101.07 88.64 101.07 91.69 86.2 91.69"/><rect x="103.87" y="63.67" width="3.37" height="28.02"/><polygon points="129.59 91.69 115.26 70.05 115.26 91.69 111.89 91.69 111.89 63.67 115 63.67 129.34 85.24 129.34 63.67 132.7 63.67 132.7 91.69 129.59 91.69"/><polygon points="151.79 91.69 145.21 80.31 138.58 91.69 134.75 91.69 143.33 77.33 135.3 63.67 139.2 63.67 145.21 74.34 151.21 63.67 155.11 63.67 147.04 77.33 155.69 91.69 151.79 91.69"/><path d="M78.65,51.43H73.11l-1.7-4.09H62.17l-1.54,4.09H55.18l8.33-20.65h6ZM66.57,35.71l-3,8H69.9Z"/><path d="M98.78,30.78h4.48V51.43H98.11V38.53L92.54,45h-.79l-5.57-6.48v12.9H81V30.78h4.48l6.64,7.66Z"/><path d="M116.3,30.78c7.54,0,11.42,4.69,11.42,10.35,0,5.94-3.76,10.3-12,10.3h-8.54V30.78Zm-4,16.86h3.36c5.18,0,6.72-3.51,6.72-6.54,0-3.54-1.91-6.54-6.78-6.54h-3.3Z"/><polygon points="148.61 35.67 137.96 35.67 131.47 29.18 155.1 29.18 155.1 52.81 148.61 46.32 148.61 35.67"/><polygon points="137.95 46.33 137.95 36.97 131.27 43.66 131.27 53.01 140.62 53.01 147.31 46.33 137.95 46.33"/></g></svg>