<svg xmlns="http://www.w3.org/2000/svg" viewBox="0 0 100 100"><defs><style>.cls-1,.cls-2,.cls-3,.cls-4,.cls-5,.cls-8{fill:#fff;}.cls-1,.cls-2,.cls-4,.cls-5{stroke:#fff;}.cls-1,.cls-10,.cls-2,.cls-4,.cls-5,.cls-6,.cls-7,.cls-8{stroke-miterlimit:10;}.cls-1{stroke-width:1.02px;}.cls-2,.cls-8{stroke-width:1.16px;}.cls-4{stroke-width:0.12px;}.cls-10,.cls-5{stroke-width:3.01px;}.cls-6,.cls-9{fill:#9d9d9c;}.cls-10,.cls-6,.cls-7,.cls-8{stroke:#9d9d9c;}.cls-6{stroke-width:1.01px;}.cls-10,.cls-7{fill:none;}.cls-7{stroke-width:0.58px;}</style></defs><title>Antenna grey</title><g id="icons"><path class="cls-1" d="M39.22,87.73l4.41-61.58a2.09,2.09,0,0,1,2.08-2.09H57.32a2.09,2.09,0,0,1,2.08,2.09l4.52,61.58a2.08,2.08,0,0,1-2.08,2.08H41.3A2.08,2.08,0,0,1,39.22,87.73Z"/><path class="cls-2" d="M33.78,46.2V28.41a1.31,1.31,0,0,1,1.31-1.3h1c4.32,0,7.7,4.48,7.7,10.2s-3.38,10.2-7.7,10.2h-1A1.31,1.31,0,0,1,33.78,46.2Z"/><circle class="cls-3" cx="43.94" cy="55.29" r="10.57"/><path class="cls-4" d="M64.28,55.15A4.12,4.12,0,0,1,61,53.55h-.84V41.49a4.12,4.12,0,0,1,8.23,0c0,.1,0,.2,0,.3v9c0,.1,0,.2,0,.3s0,.19,0,.29v.15A4.12,4.12,0,0,1,64.28,55.15Z"/><rect class="cls-4" x="61.33" y="44.47" width="3.6" height="3.6"/><rect class="cls-4" x="38.13" y="35.51" width="3.6" height="3.6"/><path class="cls-5" d="M52.3,25.69H51.17a1.75,1.75,0,0,1-1.75-1.76V8.51a1.75,1.75,0,0,1,1.75-1.75H52.3a1.77,1.77,0,0,1,1.76,1.29V23.47C54.06,24.9,53.27,25.69,52.3,25.69Z"/><path class="cls-6" d="M46,26.38,41.68,87.12H61.74l-4.4-60.74Zm12.88,57.7H44.57l4.29-54.8h5.58Z"/><line class="cls-7" x1="48.46" y1="34.43" x2="55.76" y2="43.84"/><line class="cls-7" x1="47.35" y1="51.09" x2="57.21" y2="63.79"/><line class="cls-7" x1="45.88" y1="67.42" x2="58.78" y2="84.05"/><line class="cls-7" x1="54.86" y1="34.51" x2="47.74" y2="43.61"/><line class="cls-7" x1="56.2" y1="51.17" x2="46.37" y2="64.81"/><line class="cls-7" x1="57.51" y1="67.49" x2="44.57" y2="84.43"/><path class="cls-8" d="M41.62,37.31c0,4.35-2.41,7.88-5.38,7.88V29.42C39.21,29.42,41.62,33,41.62,37.31Z"/><circle class="cls-8" cx="44.08" cy="55.29" r="8.25"/><path class="cls-9" d="M66.2,50.84V41.69a1.34,1.34,0,0,0,0-.2,1.8,1.8,0,0,0-3.6,0v9.74h0a1.8,1.8,0,0,0,3.58,0h0a1.21,1.21,0,0,0,0-.19A1.34,1.34,0,0,0,66.2,50.84Z"/><rect class="cls-9" x="59.04" y="44.47" width="3.6" height="3.6"/><rect class="cls-9" x="41.62" y="35.51" width="3.6" height="3.6"/><line class="cls-10" x1="51.76" y1="26.38" x2="51.76" y2="7.46"/><path class="cls-9" d="M22.12,55.62a20,20,0,0,1,4.72-12.91l-.6-.56-.59-.54a21.67,21.67,0,0,0,11.24,35l.17-.8.17-.79A20.09,20.09,0,0,1,22.12,55.62Z"/><path class="cls-9" d="M27.91,55.62a14.22,14.22,0,0,1,3.21-9l-.6-.55-.6-.55A15.88,15.88,0,0,0,38.09,71l.17-.79.17-.8A14.29,14.29,0,0,1,27.91,55.62Z"/><path class="cls-9" d="M63,8.92a16.62,16.62,0,0,0-5-.61l.07.8.08.82a15,15,0,0,1,4.43.55,15.42,15.42,0,0,1,8,24.45l.63.52.61.52h0A17,17,0,0,0,63,8.92Z"/><path class="cls-9" d="M61.77,13.38a12.17,12.17,0,0,0-3.36-.44l.08.81.07.81a10.58,10.58,0,0,1,2.77.39A10.77,10.77,0,0,1,67,32l.62.52.62.52a12.24,12.24,0,0,0,2.2-4.35A12.42,12.42,0,0,0,61.77,13.38Z"/><path class="cls-9" d="M60.38,18.41a7.14,7.14,0,0,0-1.49-.25L59,19l.08.82A5,5,0,0,1,60,20a5.57,5.57,0,0,1,3.88,6.84A5.74,5.74,0,0,1,63,28.6l.62.52.62.52a7.11,7.11,0,0,0,1.17-2.39A7.19,7.19,0,0,0,60.38,18.41Z"/></g></svg>