<?xml version="1.0" encoding="UTF-8"?><svg id="map" xmlns="http://www.w3.org/2000/svg" viewBox="0 0 335.1 79.76"><defs><style>.cls-1{fill:#fff;}</style></defs><path class="cls-1" d="m21.74,16.47c1.22-2.9,2.67-5.64,5.95-5.64s4.73,2.82,5.95,5.64l20.43,48.34h-4.42l-6.48-15.55H12.21l-6.48,15.55H1.3L21.74,16.47Zm-7.93,29.13h27.75l-11.67-27.91c-.53-1.14-1.07-3.05-2.21-3.05s-1.68,1.91-2.21,3.05l-11.67,27.91Z"/><path class="cls-1" d="m62.15,77.77h-3.96V30.19c0-4.57,3.05-5.79,6.4-5.79h10.29c12.96,0,16.55,7.17,16.55,20.13s-3.58,20.28-16.55,20.28h-12.73v12.96Zm0-16.55h12.73c10.67,0,12.43-6.79,12.43-16.7s-1.75-16.55-12.43-16.55h-10.29c-1.6,0-2.44.46-2.44,2.74v30.5Z"/><path class="cls-1" d="m98.29,38.28c0-9.15,4.35-13.88,13.5-13.88h2.75v3.58h-2.75c-6.86,0-9.53,3.58-9.53,11.21v25.62h-3.96v-26.53Z"/><path class="cls-1" d="m118.65,17.38v-5.95h4.27v5.95h-4.27Zm.15,7.01h3.96v40.41h-3.96V24.4Z"/><path class="cls-1" d="m131.15,11.44h3.96v53.37h-3.96V11.44Z"/><path class="cls-1" d="m160.81,61.15c0-1.45.3-2.74,2.06-4.19l26.61-21.04c3.05-2.44,4.04-4.65,4.04-10.29s-.08-10.52-7.55-10.52h-21.2v-3.66h20.82c9.15,0,12.2,4.04,12.2,13.95,0,6.18-.99,9.68-6.02,13.65l-25.77,20.43c-.69.53-.99.84-.99,1.07,0,.61.46.61.76.61h28.97v3.66h-29.97c-3.89,0-3.96-2.52-3.96-3.66Z"/><path class="cls-1" d="m205.42,28.82c0-13.72,8.01-17.84,19.44-17.84s19.44,4.12,19.44,17.84v18.38c0,13.72-8.01,17.84-19.44,17.84s-19.44-4.12-19.44-17.84v-18.38Zm4.12,17.92c0,11.44,5.41,14.64,15.33,14.64s15.33-3.2,15.33-14.64v-17.54c0-11.44-5.41-14.56-15.33-14.56s-15.33,3.13-15.33,14.56v17.54Z"/><path class="cls-1" d="m250.4,61.15c0-1.45.3-2.74,2.06-4.19l26.61-21.04c3.05-2.44,4.04-4.65,4.04-10.29s-.08-10.52-7.55-10.52h-21.2v-3.66h20.82c9.15,0,12.2,4.04,12.2,13.95,0,6.18-.99,9.68-6.02,13.65l-25.77,20.43c-.69.53-.99.84-.99,1.07,0,.61.46.61.76.61h28.97v3.66h-29.96c-3.89,0-3.96-2.52-3.96-3.66Z"/><path class="cls-1" d="m324.29,54.44h-27.98c-1.98,0-5.11-.92-5.11-4.35,0-1.45.84-2.97,1.91-4.27l27.3-32.25c1.3-1.52,2.52-2.74,4.88-2.74,2.75,0,2.97,1.75,2.97,4.27v35.68h5.64v3.66h-5.64v10.37h-3.96v-10.37Zm0-38.96c0-.23-.08-.3-.3-.3-.15,0-.46.23-.84.76l-26.69,31.8c-.76.92-1.14,1.52-1.14,1.83,0,.99.99,1.22,1.6,1.22h27.37V15.48Z"/></svg>