<?xml version="1.0" encoding="UTF-8"?>
<svg id="Layer_1" data-name="Layer 1" xmlns="http://www.w3.org/2000/svg" version="1.1" viewBox="0 0 210.9 73.9">
  <defs>
    <style>
      .cls-1 {
        fill: #008fbe;
        stroke-width: 0px;
      }
    </style>
  </defs>
  <path class="cls-1" d="M53.1,9.3h12.8v55h-12.8v-5.7c-4.1,4.8-10.2,7.6-16.5,7.5-17.1,0-26.7-14.1-26.7-29.3S22.2,7.8,36.7,7.8c6.4-.2,12.5,2.8,16.4,7.8v-6.4ZM22.9,37c0,9.6,6,17.5,15.3,17.5s15.6-5.9,15.6-17.4-7.5-17.8-15.6-17.8-15.3,7.8-15.3,17.7M81.1,9.3h12.8v5c1.5-1.8,3.3-3.4,5.4-4.6,2.4-1.3,5.1-2,7.8-1.8,3.5,0,7,.8,10.1,2.6l-5.2,11.6c-1.9-1.3-4.2-2-6.5-2-3-.2-5.9.9-8,3-3.5,3.8-3.5,9-3.5,12.7v28.5h-12.8V9.3ZM125.4,9.3h12.8v5.1c3.3-4.2,8.3-6.6,13.6-6.5,5.9,0,11.3,3,14.3,8.1,3.8-5.2,9.9-8.3,16.3-8.1,6.4-.2,12.4,3.1,15.7,8.6,1,1.8,2.9,5.9,2.9,13.9v34h-12.8v-30.3c0-6.1-.7-8.6-1.2-9.8-1.1-3.1-4.1-5-7.3-4.8-3,0-5.8,1.6-7.6,4.1-2.2,3.1-2.5,7.8-2.5,12.6v28.3h-12.8v-30.3c0-6.1-.7-8.6-1.2-9.8-1.1-3.1-4.1-5.1-7.3-4.8-3,0-5.8,1.6-7.6,4.1-2.2,3.1-2.5,7.8-2.5,12.6v28.3h-12.8V9.3Z"/>
</svg>