<svg xmlns="http://www.w3.org/2000/svg" viewBox="0 0 210.87 120.87"><defs><style>.cls-1{fill:#fff;}.cls-2{fill:#008fbe;}</style></defs><g id="upper"><rect class="cls-1" x="0.44" y="0.44" width="210" height="120" rx="8.34"/><path class="cls-2" d="M68,40.66h9.16V80H68V75.91a15.14,15.14,0,0,1-11.79,5.33C44,81.24,37.09,71.14,37.09,60.3c0-12.81,8.79-20.67,19.17-20.67A14.36,14.36,0,0,1,68,45.24ZM46.44,60.48c0,6.83,4.3,12.53,10.94,12.53,5.8,0,11.13-4.21,11.13-12.43,0-8.61-5.33-12.72-11.13-12.72-6.64,0-10.94,5.61-10.94,12.62M88,40.66h9.16v3.56A16,16,0,0,1,101,40.94a10.59,10.59,0,0,1,5.61-1.31,13.63,13.63,0,0,1,7.2,1.87l-3.74,8.32a8.34,8.34,0,0,0-4.67-1.4,7.12,7.12,0,0,0-5.7,2.15c-2.53,2.71-2.53,6.45-2.53,9.07V80H88Zm31.72,0h9.16v3.65a12.14,12.14,0,0,1,9.73-4.68,11.58,11.58,0,0,1,10.19,5.8,13.94,13.94,0,0,1,11.68-5.8,12.61,12.61,0,0,1,11.22,6.17c.75,1.31,2.06,4.21,2.06,9.91V80h-9.16V58.33c0-4.39-.47-6.17-.84-7a5.2,5.2,0,0,0-5.24-3.46,6.77,6.77,0,0,0-5.42,2.9c-1.59,2.24-1.78,5.61-1.78,9V80h-9.16V58.33c0-4.39-.47-6.17-.84-7a5.19,5.19,0,0,0-5.24-3.46,6.77,6.77,0,0,0-5.42,2.9c-1.59,2.24-1.78,5.61-1.78,9V80h-9.16Z"/></g></svg>