<?xml version="1.0" encoding="UTF-8"?>
<svg id="Layer_1" data-name="Layer 1" xmlns="http://www.w3.org/2000/svg" viewBox="0 0 222.49 111.81">
  <defs>
    <style>
      .cls-1 {
        fill: #008fbe;
        stroke-width: 0px;
      }
    </style>
  </defs>
  <path class="cls-1" d="M73.82,36.14h9.16v39.34h-9.16v-4.09c-2.93,3.45-7.26,5.41-11.79,5.33-12.21,0-19.12-10.1-19.12-20.94,0-12.81,8.79-20.67,19.17-20.67,4.58-.11,8.95,1.97,11.74,5.61v-4.58ZM52.26,55.96c0,6.83,4.3,12.53,10.94,12.53,5.8,0,11.13-4.21,11.13-12.43s-5.33-12.72-11.13-12.72c-6.64,0-10.94,5.61-10.94,12.62M93.82,36.14h9.16v3.56c1.1-1.29,2.39-2.4,3.84-3.28,1.71-.95,3.65-1.4,5.61-1.31,2.53-.06,5.02.59,7.2,1.87l-3.74,8.32c-1.38-.92-3.01-1.41-4.67-1.4-2.13-.17-4.22.62-5.7,2.15-2.53,2.71-2.53,6.45-2.53,9.07v20.36h-9.17v-39.34ZM125.54,36.14h9.16v3.65c2.33-3,5.93-4.73,9.73-4.68,4.2-.06,8.1,2.16,10.19,5.8,2.69-3.75,7.07-5.92,11.68-5.8,4.58-.14,8.88,2.23,11.22,6.17.75,1.31,2.06,4.21,2.06,9.91v24.29h-9.16v-21.67c0-4.39-.47-6.17-.84-7-.77-2.2-2.92-3.61-5.24-3.46-2.17.04-4.18,1.12-5.42,2.9-1.59,2.24-1.78,5.61-1.78,9v20.23h-9.16v-21.67c0-4.39-.47-6.17-.84-7-.77-2.2-2.91-3.61-5.24-3.46-2.17.04-4.18,1.12-5.42,2.9-1.59,2.24-1.78,5.61-1.78,9v20.23h-9.16v-39.34Z"/>
</svg>