<svg id="Layer_1" data-name="Layer 1" xmlns="http://www.w3.org/2000/svg" viewBox="0 0 239.07 90.52"><defs><style>.cls-1{fill:none;stroke-width:2.22px;}.cls-1,.cls-2,.cls-4{stroke:#e6e6e6;stroke-miterlimit:10;}.cls-2{fill:#9c3;}.cls-2,.cls-4{stroke-width:4.37px;}.cls-3{isolation:isolate;}.cls-4{fill:#d72c2f;}.cls-5{fill:#fff;}</style></defs><line class="cls-1" x1="32.73" y1="43.96" x2="212.23" y2="43.96"/><circle class="cls-2" cx="45.03" cy="45.26" r="41.5"/><g class="cls-3"><path d="M32.93,48.36v1.5h-5.8V40H29v8.4Z"/><path d="M35.93,40.76a.6.6,0,0,1-.1.4c-.1.1-.1.2-.2.3s-.2.2-.3.2-.3.1-.4.1a.6.6,0,0,1-.4-.1c-.1-.1-.2-.1-.3-.2s-.2-.2-.2-.3a.6.6,0,0,1-.1-.4c0-.2,0-.3.1-.4s.1-.2.2-.3.2-.2.3-.2a.6.6,0,0,1,.4-.1c.2,0,.3,0,.4.1s.2.1.3.2.2.2.2.3A.6.6,0,0,1,35.93,40.76Zm-.2,2.1v7H34v-7Z"/><path d="M39,43.66l.4-.4c.2-.1.3-.2.5-.3a1.42,1.42,0,0,1,.6-.2c.2,0,.4-.1.7-.1a3,3,0,0,1,1,.2,1.79,1.79,0,0,1,.7.5,5.58,5.58,0,0,1,.5.8,3.59,3.59,0,0,1,.2,1.1v4.5h-1.7v-4.5a1.49,1.49,0,0,0-.3-1,1.27,1.27,0,0,0-.9-.4,1.88,1.88,0,0,0-.8.2,3,3,0,0,0-.7.5v5.1h-1.7v-7h1c.2,0,.4.1.4.3Z"/><path d="M45,43.76a4.36,4.36,0,0,1,2.9-1.1,3.59,3.59,0,0,1,1.1.2,1.56,1.56,0,0,1,.8.6,1.93,1.93,0,0,1,.5.9,3.59,3.59,0,0,1,.2,1.1v4.4h-.8c-.2,0-.3,0-.4-.1s-.2-.1-.2-.3L49,49c-.2.2-.4.3-.5.4s-.3.2-.5.3-.4.1-.6.2-.4.1-.7.1a2,2,0,0,1-.8-.1.92.92,0,0,1-.6-.4c-.1-.2-.3-.4-.4-.6a2,2,0,0,1-.1-.8.75.75,0,0,1,.1-.5c.1-.2.2-.3.3-.5s.3-.3.5-.5a5.94,5.94,0,0,1,.8-.4c.3-.1.7-.2,1.1-.3a6.15,6.15,0,0,1,1.4-.1v-.4a1.33,1.33,0,0,0-.3-1,1.22,1.22,0,0,0-.9-.3,1.48,1.48,0,0,0-.7.1c-.2.1-.3.1-.5.2a.76.76,0,0,1-.4.2c-.1.1-.2.1-.4.1a.37.37,0,0,1-.3-.1l-.2-.2Zm3.8,3.1c-.5,0-.9.1-1.2.1a1.88,1.88,0,0,0-.8.2,1.38,1.38,0,0,0-.4.3.78.78,0,0,0,.2,1,1.45,1.45,0,0,0,.7.2,2.92,2.92,0,0,0,.9-.2,1.34,1.34,0,0,0,.7-.6v-1Z"/></g><g class="cls-3"><path d="M53.63,44.06a3.92,3.92,0,0,1,.8-1,2.1,2.1,0,0,1,1.1-.4,1.88,1.88,0,0,1,.8.2l-.1,1.3c0,.1-.1.1-.1.2a.35.35,0,0,1-.2.1h-.7a.75.75,0,0,0-.5.1c-.1.1-.3.1-.4.2a1.38,1.38,0,0,0-.3.4c-.1.2-.2.3-.2.5V50h-1.7V43h1c.2,0,.3,0,.4.1a.37.37,0,0,1,.1.3Z"/></g><g class="cls-3"><path d="M60.13,42.76a3.19,3.19,0,0,1,1.4.3,3,3,0,0,1,1.8,1.8,3.42,3.42,0,0,1,.2,1.5,6.05,6.05,0,0,1-.2,1.5,4.13,4.13,0,0,1-.7,1.1,2.59,2.59,0,0,1-1.1.7,3.42,3.42,0,0,1-2.8,0,3,3,0,0,1-1.8-1.8,3.42,3.42,0,0,1-.2-1.5,6.8,6.8,0,0,1,.2-1.5,3,3,0,0,1,1.8-1.8A2.09,2.09,0,0,1,60.13,42.76Zm0,5.9a1.49,1.49,0,0,0,1.3-.6,2.86,2.86,0,0,0,.4-1.7,2.67,2.67,0,0,0-.4-1.7,1.71,1.71,0,0,0-2.6,0,2.86,2.86,0,0,0-.4,1.7,2.67,2.67,0,0,0,.4,1.7A1.38,1.38,0,0,0,60.13,48.66Z"/></g><circle class="cls-4" cx="194.03" cy="45.26" r="41.5"/><g class="cls-3"><path class="cls-5" d="M176.38,41.36v2.9h3.7v1.5h-3.7v4h-1.8v-9.9h6.2v1.5Z"/></g><g class="cls-3"><path class="cls-5" d="M187.58,42.86v7h-1c-.2,0-.4-.1-.4-.3l-.1-.6a3.59,3.59,0,0,1-1,.7,2.38,2.38,0,0,1-1.2.3,3,3,0,0,1-1-.2,1.34,1.34,0,0,1-.7-.6,2.18,2.18,0,0,1-.5-.8,3.59,3.59,0,0,1-.2-1.1v-4.5h1.7v4.5a1.49,1.49,0,0,0,.3,1,1.27,1.27,0,0,0,.9.4,1.88,1.88,0,0,0,.8-.2,1.79,1.79,0,0,0,.7-.5v-5.1Z"/><path class="cls-5" d="M191,42.86v7.3a2.77,2.77,0,0,1-.1.9,1.61,1.61,0,0,1-.4.7,1.79,1.79,0,0,1-.7.5,3,3,0,0,1-1,.2h-.4c-.1,0-.3-.1-.4-.1l.1-.9c0-.1.1-.1.1-.2h.3c.2,0,.3,0,.4-.1s.2-.1.3-.2a.37.37,0,0,0,.1-.3v-7.8Zm.2-2.1a.6.6,0,0,1-.1.4c-.1.1-.1.2-.2.3s-.2.2-.3.2a.85.85,0,0,1-.8,0c-.1-.1-.2-.1-.3-.2s-.2-.2-.2-.3a.6.6,0,0,1-.1-.4c0-.2,0-.3.1-.4s.1-.2.2-.3.2-.2.3-.2.3-.1.4-.1.3,0,.4.1.3.1.3.2.2.2.2.3A.6.6,0,0,1,191.18,40.76Z"/><path class="cls-5" d="M194.68,40.76a.6.6,0,0,1-.1.4c-.1.1-.1.2-.2.3s-.2.2-.3.2a.85.85,0,0,1-.8,0c-.1-.1-.2-.1-.3-.2s-.2-.2-.2-.3a.6.6,0,0,1-.1-.4c0-.2,0-.3.1-.4s.1-.2.2-.3.2-.2.3-.2.3-.1.4-.1a.6.6,0,0,1,.4.1c.1.1.2.1.3.2s.2.2.2.3A.6.6,0,0,1,194.68,40.76Zm-.2,2.1v7h-1.7v-7Z"/><path class="cls-5" d="M198.48,50a1.74,1.74,0,0,1-1.9-1.9v-3.9h-.7c-.1,0-.2,0-.2-.1s-.1-.1-.1-.3v-.7l1.1-.2.4-1.9a.35.35,0,0,1,.1-.2c.1,0,.1-.1.2-.1h.9v2.2h1.9v1.2h-1.9v3.8a.69.69,0,0,0,.6.7h.3c.1,0,.1-.1.2-.1a.1.1,0,0,0,.1-.1h.2l.1.1.5.8a2.18,2.18,0,0,1-.8.5A3,3,0,0,1,198.48,50Z"/><path class="cls-5" d="M205.58,44.16c0,.1-.1.1-.1.2h-.2a.37.37,0,0,1-.3-.1c-.1,0-.2-.1-.3-.2s-.3-.1-.4-.2-.3-.1-.6-.1a1.88,1.88,0,0,0-.8.2.6.6,0,0,0-.3.6c0,.2,0,.3.1.4a1.38,1.38,0,0,0,.4.3,4.17,4.17,0,0,0,.6.2,4.17,4.17,0,0,1,.6.2,1.42,1.42,0,0,0,.6.2.66.66,0,0,1,.5.4c.1.2.3.3.4.5a1.48,1.48,0,0,1,.1.7,2.92,2.92,0,0,1-.2.9,1.79,1.79,0,0,1-.5.7,1.93,1.93,0,0,1-.9.5,4.3,4.3,0,0,1-1.2.2,1.7,1.7,0,0,1-.7-.1,1.85,1.85,0,0,1-.7-.2l-.6-.3c-.2-.1-.3-.2-.5-.3l.4-.6c0-.1.1-.1.2-.2a.5.5,0,0,1,.6,0c.1.1.2.1.3.2s.3.1.4.2a1.27,1.27,0,0,0,.6.1.75.75,0,0,0,.5-.1c.1-.1.3-.1.4-.2s.2-.2.2-.3.1-.2.1-.3,0-.3-.1-.4a1.38,1.38,0,0,0-.4-.3,4.17,4.17,0,0,0-.6-.2c-.2-.1-.4-.1-.6-.2l-.6-.3a2.09,2.09,0,0,1-.6-.4,1.27,1.27,0,0,1-.4-.6,2,2,0,0,1-.1-.8,1.88,1.88,0,0,1,.2-.8,3,3,0,0,1,.5-.7,5.58,5.58,0,0,1,.8-.5,3.59,3.59,0,0,1,1.1-.2,5.07,5.07,0,0,1,1.3.2,3.33,3.33,0,0,1,1,.6Z"/><path class="cls-5" d="M213.28,42.86v7h-1c-.2,0-.4-.1-.4-.3l-.1-.6a3.59,3.59,0,0,1-1,.7,2.38,2.38,0,0,1-1.2.3,3,3,0,0,1-1-.2,1.34,1.34,0,0,1-.7-.6,2.18,2.18,0,0,1-.5-.8,3.59,3.59,0,0,1-.2-1.1v-4.5h1.7v4.5a1.49,1.49,0,0,0,.3,1,1.27,1.27,0,0,0,.9.4,1.88,1.88,0,0,0,.8-.2,1.79,1.79,0,0,0,.7-.5v-5.1Z"/></g></svg>