<svg id="Layer_1" data-name="Layer 1" xmlns="http://www.w3.org/2000/svg" viewBox="0 0 239.07 90.52"><defs><style>.cls-1{fill:none;stroke-width:2.22px;}.cls-1,.cls-2,.cls-4{stroke:#e6e6e6;stroke-miterlimit:10;}.cls-2{fill:#9c3;}.cls-2,.cls-4{stroke-width:4.37px;}.cls-3{isolation:isolate;}.cls-4{fill:#0083ad;}.cls-5{fill:#fff;}</style></defs><line class="cls-1" x1="32.73" y1="43.96" x2="212.23" y2="43.96"/><circle class="cls-2" cx="45.03" cy="45.26" r="41.5"/><g class="cls-3"><path d="M32.93,48.36v1.5h-5.8V40H29v8.4Z"/><path d="M35.93,40.76a.6.6,0,0,1-.1.4c-.1.1-.1.2-.2.3s-.2.2-.3.2-.3.1-.4.1a.6.6,0,0,1-.4-.1c-.1-.1-.2-.1-.3-.2s-.2-.2-.2-.3a.6.6,0,0,1-.1-.4c0-.2,0-.3.1-.4s.1-.2.2-.3.2-.2.3-.2a.6.6,0,0,1,.4-.1c.2,0,.3,0,.4.1s.2.1.3.2.2.2.2.3A.6.6,0,0,1,35.93,40.76Zm-.2,2.1v7H34v-7Z"/><path d="M39,43.66l.4-.4c.2-.1.3-.2.5-.3a1.42,1.42,0,0,1,.6-.2c.2,0,.4-.1.7-.1a3,3,0,0,1,1,.2,1.79,1.79,0,0,1,.7.5,5.58,5.58,0,0,1,.5.8,3.59,3.59,0,0,1,.2,1.1v4.5h-1.7v-4.5a1.49,1.49,0,0,0-.3-1,1.27,1.27,0,0,0-.9-.4,1.88,1.88,0,0,0-.8.2,3,3,0,0,0-.7.5v5.1h-1.7v-7h1c.2,0,.4.1.4.3Z"/><path d="M45,43.76a4.36,4.36,0,0,1,2.9-1.1,3.59,3.59,0,0,1,1.1.2,1.56,1.56,0,0,1,.8.6,1.93,1.93,0,0,1,.5.9,3.59,3.59,0,0,1,.2,1.1v4.4h-.8c-.2,0-.3,0-.4-.1s-.2-.1-.2-.3L49,49c-.2.2-.4.3-.5.4s-.3.2-.5.3-.4.1-.6.2-.4.1-.7.1a2,2,0,0,1-.8-.1.92.92,0,0,1-.6-.4c-.1-.2-.3-.4-.4-.6a2,2,0,0,1-.1-.8.75.75,0,0,1,.1-.5c.1-.2.2-.3.3-.5s.3-.3.5-.5a5.94,5.94,0,0,1,.8-.4c.3-.1.7-.2,1.1-.3a6.15,6.15,0,0,1,1.4-.1v-.4a1.33,1.33,0,0,0-.3-1,1.22,1.22,0,0,0-.9-.3,1.48,1.48,0,0,0-.7.1c-.2.1-.3.1-.5.2a.76.76,0,0,1-.4.2c-.1.1-.2.1-.4.1a.37.37,0,0,1-.3-.1l-.2-.2Zm3.8,3.1c-.5,0-.9.1-1.2.1a1.88,1.88,0,0,0-.8.2,1.38,1.38,0,0,0-.4.3.78.78,0,0,0,.2,1,1.45,1.45,0,0,0,.7.2,2.92,2.92,0,0,0,.9-.2,1.34,1.34,0,0,0,.7-.6v-1Z"/></g><g class="cls-3"><path d="M53.63,44.06a3.92,3.92,0,0,1,.8-1,2.1,2.1,0,0,1,1.1-.4,1.88,1.88,0,0,1,.8.2l-.1,1.3c0,.1-.1.1-.1.2a.35.35,0,0,1-.2.1h-.7a.75.75,0,0,0-.5.1c-.1.1-.3.1-.4.2a1.38,1.38,0,0,0-.3.4c-.1.2-.2.3-.2.5V50h-1.7V43h1c.2,0,.3,0,.4.1a.37.37,0,0,1,.1.3Z"/></g><g class="cls-3"><path d="M60.13,42.76a3.19,3.19,0,0,1,1.4.3,3,3,0,0,1,1.8,1.8,3.42,3.42,0,0,1,.2,1.5,6.05,6.05,0,0,1-.2,1.5,4.13,4.13,0,0,1-.7,1.1,2.59,2.59,0,0,1-1.1.7,3.42,3.42,0,0,1-2.8,0,3,3,0,0,1-1.8-1.8,3.42,3.42,0,0,1-.2-1.5,6.8,6.8,0,0,1,.2-1.5,3,3,0,0,1,1.8-1.8A2.09,2.09,0,0,1,60.13,42.76Zm0,5.9a1.49,1.49,0,0,0,1.3-.6,2.86,2.86,0,0,0,.4-1.7,2.67,2.67,0,0,0-.4-1.7,1.71,1.71,0,0,0-2.6,0,2.86,2.86,0,0,0-.4,1.7,2.67,2.67,0,0,0,.4,1.7A1.38,1.38,0,0,0,60.13,48.66Z"/></g><circle class="cls-4" cx="194.03" cy="45.26" r="41.5"/><g class="cls-3"><path class="cls-5" d="M191,49.86h-1.4c-.2,0-.3,0-.4-.1s-.2-.2-.2-.3l-.7-2h-4.1l-.7,2c0,.1-.1.2-.2.3s-.2.1-.4.1h-1.4l3.9-9.9h1.9Zm-3.3-3.8-1.2-3.3c-.1-.1-.1-.3-.2-.5s-.1-.4-.2-.6c-.1.2-.1.5-.2.7s-.1.4-.2.5l-1.2,3.3h3.2Z"/></g><g class="cls-3"><path class="cls-5" d="M193.33,44.06a3.92,3.92,0,0,1,.8-1,1.5,1.5,0,0,1,1.1-.4,1.88,1.88,0,0,1,.8.2l-.1,1.3c0,.1-.1.1-.1.2a.35.35,0,0,1-.2.1h-.7a.75.75,0,0,0-.5.1c-.1.1-.3.1-.4.2a1.38,1.38,0,0,0-.3.4.76.76,0,0,0-.2.5V50h-1.7V43h1c.2,0,.3,0,.4.1a.37.37,0,0,1,.1.3Z"/><path class="cls-5" d="M196.83,49.86v-7h1c.2,0,.4.1.4.3l.1.5.4-.4c.1-.1.3-.2.4-.3s.3-.1.5-.2.4-.1.6-.1a1.5,1.5,0,0,1,1.1.4,1.7,1.7,0,0,1,.6,1,2.09,2.09,0,0,1,.4-.6,1.76,1.76,0,0,1,.5-.4,1.42,1.42,0,0,1,.6-.2c.2,0,.4-.1.7-.1a3,3,0,0,1,1,.2,2.1,2.1,0,0,1,1.3,1.3,3.59,3.59,0,0,1,.2,1.1v4.5H205v-4.5a1.49,1.49,0,0,0-.3-1,1.22,1.22,0,0,0-.9-.3.9.9,0,0,0-.5.1c-.1.1-.3.1-.4.3s-.2.3-.3.4a1.27,1.27,0,0,0-.1.6V50h-1.7v-4.5a1.33,1.33,0,0,0-.3-1,1.14,1.14,0,0,0-.8-.3,1.85,1.85,0,0,0-.7.2,2.65,2.65,0,0,0-.6.5V50h-1.6Z"/></g></svg>