<svg xmlns="http://www.w3.org/2000/svg" viewBox="0 0 92.05 83.09"><defs><style>.cls-1{fill:#fff;}.cls-2{fill:#0083ad;}.cls-3{opacity:0.6;}.cls-4{fill:#9c3;}.cls-5{fill:#9d9d9c;}</style></defs><g id="upper"><path class="cls-1" d="M46.45,0a29,29,0,0,0-26.6,17.69A22.25,22.25,0,0,0,0,39.42,21.53,21.53,0,0,0,21.56,61.37H70.18A22.16,22.16,0,0,0,92.05,39.49,21.51,21.51,0,0,0,72.54,17.67,28,28,0,0,0,46.45,0Z"/><path class="cls-2" d="M14,47a3.11,3.11,0,0,1,3-3.16,3.1,3.1,0,1,1,.12,6.2A3.14,3.14,0,0,1,14,47Z"/><path class="cls-2" d="M33.75,47a3.12,3.12,0,0,1,3-3.16,3.1,3.1,0,1,1,.12,6.2A3.14,3.14,0,0,1,33.75,47Z"/><path class="cls-2" d="M43.75,41.5a4.62,4.62,0,0,0-4.41-4.58H36.08a2.2,2.2,0,0,0-.17-.25L31.23,31a2.37,2.37,0,0,0-1.83-.84H19.26a2.37,2.37,0,0,0-1.83.84l-4.67,5.69a1.84,1.84,0,0,0-.17.25H9.78A1.08,1.08,0,0,0,8.7,38v7.1a1.08,1.08,0,0,0,1.08,1.07h2.88A4.58,4.58,0,0,1,17,42.37a4.75,4.75,0,0,1,4.62,3.79H32.38a4.56,4.56,0,0,1,4.32-3.79,4.75,4.75,0,0,1,4.62,3.79h.62a1.83,1.83,0,0,0,1.83-1.84V41.79A2.83,2.83,0,0,0,43.75,41.5ZM23.32,38H14.58l4.68-5.7h4.06Zm10.74,0h-8.7v-5.7h4.05L34.06,38Z"/><g id="map-2" data-name="map" class="cls-3"><path d="M52.37,17H50.7V14.32h0a4.68,4.68,0,0,0-9.36,0V17H39.68a.69.69,0,0,0-.69.68h0v9.5a.68.68,0,0,0,.69.68H52.37a.67.67,0,0,0,.68-.68h0v-9.5a.68.68,0,0,0-.68-.68Zm-4.83,7.92h-3l.82-2.54a1.61,1.61,0,0,1-.73-2.15,1.6,1.6,0,0,1,2.87,1.42,1.61,1.61,0,0,1-.73.73ZM49.17,17H42.88V14.32a3.15,3.15,0,0,1,6.29,0Z"/></g><polygon class="cls-4" points="57.07 52.04 57.07 41 58.28 41 58.28 50.83 74.92 50.83 74.92 41 76.14 41 76.14 52.04 57.07 52.04"/><polygon class="cls-4" points="66.48 30.2 55.98 40.7 55.12 39.84 66.48 28.48 78.08 40.08 77.22 40.94 66.48 30.2"/><rect class="cls-4" x="61.73" y="42.69" width="3.94" height="8.35"/><rect class="cls-4" x="67.99" y="37.82" width="3.94" height="8.35"/><path class="cls-5" d="M70.18,61.36A22.14,22.14,0,0,0,92,39.49a21.49,21.49,0,0,0-19.5-21.82A28,28,0,0,0,46.45,0a29,29,0,0,0-26.6,17.69A22.25,22.25,0,0,0,0,39.42,21.52,21.52,0,0,0,21.56,61.36h3.82v7.13H18.84a5,5,0,1,0,0,.86h7.4v-8H38.41V77.64H32a5,5,0,1,0,0,.86h7.23V61.36h12.2V78.49h.4v0h6.84a5,5,0,1,0,0-.87H52.33V61.36H64.6v8H72a5,5,0,1,0,0-.86h-6.5V61.36Zm-52.81,8a3.55,3.55,0,1,1,0-.86,3.1,3.1,0,0,1,0,.86Zm13.2,9.15a3.55,3.55,0,1,1,0-.86,3.1,3.1,0,0,1,0,.86Zm29.61-.86a3.55,3.55,0,1,1,0,.87,3.15,3.15,0,0,1,0-.44A3,3,0,0,1,60.18,77.64ZM77,65.37a3.55,3.55,0,1,1-3.52,4h0a3.1,3.1,0,0,1,0-.86h0A3.55,3.55,0,0,1,77,65.37Zm-55-6.15h-.34A19.37,19.37,0,0,1,2.15,39.46a20.14,20.14,0,0,1,19.2-19.73A26.87,26.87,0,0,1,46.45,2.15,25.81,25.81,0,0,1,71,19.73,19.35,19.35,0,0,1,89.9,39.46,20,20,0,0,1,70.18,59.22Z"/></g></svg>