<svg id="Background" xmlns="http://www.w3.org/2000/svg" viewBox="0 0 173.39 137.9"><defs><style>.cls-1,.cls-2,.cls-3{fill:#1d1d1b;}.cls-2,.cls-3{stroke:#1d1d1b;stroke-miterlimit:10;}.cls-2{stroke-width:0.84px;}.cls-3{stroke-width:1.1px;}</style></defs><path class="cls-1" d="M166.31,64.53c4.25-1.64,7-4.83,7-8.5,0-5.42-6-9.66-13.58-9.66a16.83,16.83,0,0,0-9.68,2.84l-16.78-24A7.34,7.34,0,0,0,127.75,22l-4.5-.54C111.33,20,101,18.77,86.72,18.77h0c-14.32,0-24.61,1.24-36.52,2.68L45.64,22a7.34,7.34,0,0,0-5.55,3.26l-16.8,24a16.77,16.77,0,0,0-9.71-2.86C6,46.37,0,50.61,0,56c0,3.68,2.79,6.88,7.07,8.51A40.2,40.2,0,0,0,0,87.31v.1l.07,2v0l2,36.74v4.61a7.15,7.15,0,0,0,7.14,7.13H32.59a7.14,7.14,0,0,0,7.14-7.13v-.41c14.81-.83,30.55-1.26,46.85-1.27h.23c16.3,0,32.05.44,46.85,1.27v.41a7.15,7.15,0,0,0,7.14,7.13h23.35a7.14,7.14,0,0,0,7.14-7.13v-4.61l2-36.74v0l.07-2v-.1A40.21,40.21,0,0,0,166.31,64.53ZM36.75,132a3.68,3.68,0,0,0,.06-.58v-3H37v2.35A4.06,4.06,0,0,1,36.75,132ZM170.56,89.27l-2,36.81v4.69a4.06,4.06,0,0,1-.21,1.26,3.68,3.68,0,0,0,.06-.58v-4.69l.79-14.22H122.75a7.08,7.08,0,0,1-6.88,5.48H57.22a7.1,7.1,0,0,1-6.89-5.48H4.12L2.84,89.27l-.07-2a37.37,37.37,0,0,1,9.09-24.47C6.71,62.32,2.77,59.47,2.77,56c0-3.81,4.84-6.9,10.81-6.9,4.59,0,8.5,1.83,10.08,4.4L42.38,26.8a4.55,4.55,0,0,1,3.52-2.06c13.9-1.64,24.83-3.2,40.77-3.2h0c15.94,0,26.88,1.56,40.77,3.2A4.55,4.55,0,0,1,131,26.8l18.7,26.69c1.58-2.55,5.49-4.36,10-4.36,6,0,10.82,3.09,10.82,6.9,0,3.43-3.92,6.27-9.06,6.81a37.33,37.33,0,0,1,9.11,24.47Z"/><path class="cls-1" d="M137.79,1a32,32,0,0,0-9.4,1.66L129,4.09l.58,1.43a29.17,29.17,0,0,1,38.24,26.94,29,29,0,0,1-2,11.47l1.42.6,1.4.6h0a31.88,31.88,0,0,0,2.27-12.75A32.26,32.26,0,0,0,137.79,1Z"/><path class="cls-1" d="M138,9.78a23.09,23.09,0,0,0-6.32,1l.58,1.42.58,1.43a20.13,20.13,0,0,1,5.24-.82A20.37,20.37,0,0,1,157.68,40.5l1.42.6,1.41.6A23.45,23.45,0,0,0,138,9.78Z"/><path class="cls-1" d="M138.28,19.64a13.88,13.88,0,0,0-2.84.37l.59,1.44.59,1.45a9.86,9.86,0,0,1,1.74-.19,10.5,10.5,0,0,1,10.23,13.92l1.42.61,1.41.6a13.6,13.6,0,0,0-13.14-18.2Z"/><path class="cls-1" d="M2.53,33.11A32.43,32.43,0,0,0,3.9,42.56L5.34,42l1.45-.53A29.16,29.16,0,0,1,46.27,6.44L46.91,5l.64-1.39h0a32.22,32.22,0,0,0-45,29.46Z"/><path class="cls-1" d="M11.3,33.14a23,23,0,0,0,.85,6.35L13.59,39,15,38.41a20.39,20.39,0,0,1,27.56-24l.65-1.4.64-1.39A23.45,23.45,0,0,0,11.3,33.14Z"/><path class="cls-1" d="M21.16,33.18A14,14,0,0,0,21.45,36l1.46-.54,1.46-.54a11.27,11.27,0,0,1-.14-1.75,10.51,10.51,0,0,1,14.23-9.81L39.1,22l.65-1.4a13.79,13.79,0,0,0-5-.95A13.62,13.62,0,0,0,21.16,33.18Z"/><path class="cls-2" d="M86.67,26.86H84.19a192.08,192.08,0,0,0-38.67,3.59L28.63,56.09c16.56-1.25,35.74-2,56-2h4.07c20.29,0,39.47.77,56,2l-16.9-25.65A192.08,192.08,0,0,0,89.2,26.85H86.72"/><path class="cls-3" d="M165.34,82.69a1.58,1.58,0,0,0-1.31-.17h0L132.65,89.2a4.49,4.49,0,0,0-.1,9h.12L155.12,98v0c1.7.18,4.78-2.21,7.41-5.85C165.53,88,166.78,83.74,165.34,82.69Z"/><rect class="cls-2" x="129.67" y="101.34" width="24.34" height="3.17" rx="1.54"/><path class="cls-3" d="M8.05,82.69a1.58,1.58,0,0,1,1.31-.17h0L40.74,89.2a4.49,4.49,0,0,1,.1,9h-.12L18.27,98v0c-1.7.18-4.78-2.21-7.4-5.85C7.86,88,6.61,83.74,8.05,82.69Z"/><rect class="cls-2" x="19.38" y="101.34" width="24.34" height="3.17" rx="1.58" transform="translate(63.11 205.85) rotate(-180)"/><rect class="cls-1" x="55.04" y="91.89" width="63.31" height="19.15" rx="2.59"/></svg>