<svg xmlns="http://www.w3.org/2000/svg" viewBox="0 0 100 100"><defs><style>.cls-1,.cls-4,.cls-6{fill:#9d9d9c;}.cls-2{fill:none;stroke:#fff;stroke-width:3.45px;}.cls-2,.cls-3,.cls-4,.cls-5,.cls-6{stroke-miterlimit:10;}.cls-3,.cls-5{fill:#fff;}.cls-3,.cls-4,.cls-5,.cls-6{stroke:#9d9d9c;}.cls-3{stroke-width:0.97px;}.cls-4{stroke-width:0.4px;}.cls-5{stroke-width:0.52px;}.cls-6{stroke-width:0.1px;}</style></defs><title>Auto col copy</title><g id="icons"><path class="cls-1" d="M74.26,16a15.43,15.43,0,0,0-4.48.8l.27.67.28.69a13.39,13.39,0,0,1,4-.69,13.92,13.92,0,0,1,13.31,19l.67.29L89,37h0A15.36,15.36,0,0,0,74.26,16Z"/><path class="cls-1" d="M74.37,20.17a10.65,10.65,0,0,0-3,.49l.28.68.27.68A9.74,9.74,0,0,1,84.39,31.1a9.41,9.41,0,0,1-.64,3.72l.68.29.67.29A11.19,11.19,0,0,0,74.37,20.17Z"/><path class="cls-1" d="M74.5,24.87a6.11,6.11,0,0,0-1.36.18l.28.69.28.69a4.6,4.6,0,0,1,.84-.1,5,5,0,0,1,5.15,4.89A5.11,5.11,0,0,1,79.42,33l.67.29.68.28a6.66,6.66,0,0,0,.38-2.37A6.49,6.49,0,0,0,74.5,24.87Z"/><path class="cls-1" d="M9.74,30.64a15.28,15.28,0,0,0,.65,4.51l.69-.25.69-.26a13.56,13.56,0,0,1-.57-4A13.91,13.91,0,0,1,30.6,17.92l.31-.67.31-.66h0A15.36,15.36,0,0,0,9.74,30.64Z"/><path class="cls-1" d="M13.92,30.66a11.25,11.25,0,0,0,.4,3l.69-.26.69-.26a9.87,9.87,0,0,1-.32-2.51,9.72,9.72,0,0,1,13.47-8.94l.31-.67.3-.66a11,11,0,0,0-4.31-.88A11.2,11.2,0,0,0,13.92,30.66Z"/><path class="cls-1" d="M18.62,30.68A6.72,6.72,0,0,0,18.76,32l.7-.26.69-.26a5.59,5.59,0,0,1-.06-.83,5,5,0,0,1,5-5,4.89,4.89,0,0,1,1.75.32l.3-.67.31-.66a6.61,6.61,0,0,0-2.36-.46A6.51,6.51,0,0,0,18.62,30.68Z"/><path class="cls-2" d="M85,47c2.45-.25,4.32-1.61,4.32-3.24,0-1.82-2.31-3.29-5.16-3.29-2.17,0-4,.86-4.79,2.08L70.44,29.76a2.16,2.16,0,0,0-1.68-1,146.9,146.9,0,0,0-19.45-1.53h0a146.9,146.9,0,0,0-19.45,1.53,2.13,2.13,0,0,0-1.67,1L19.22,42.51c-.75-1.22-2.62-2.09-4.8-2.09-2.85,0-5.16,1.47-5.16,3.29,0,1.64,1.88,3,4.34,3.25A17.76,17.76,0,0,0,9.26,58.63l0,.93,1,17.56v2.24a2.09,2.09,0,0,0,2.09,2.08H23.48a2.09,2.09,0,0,0,2.09-2.08V77.92h0c7.22-.43,15.24-.67,23.69-.68h.11c8.45,0,16.47.25,23.69.68h0v1.44a2.09,2.09,0,0,0,2.09,2.08H86.25a2.08,2.08,0,0,0,2.08-2.08V77.12l1-17.56,0-.93A17.82,17.82,0,0,0,85,47Z"/><path class="cls-3" d="M84.78,47c2.45-.25,4.32-1.61,4.32-3.24,0-1.82-2.31-3.29-5.15-3.29-2.18,0-4,.86-4.8,2.08L70.23,29.76a2.16,2.16,0,0,0-1.68-1A146.9,146.9,0,0,0,49.1,27.25h0a146.92,146.92,0,0,0-19.46,1.53,2.13,2.13,0,0,0-1.67,1L19,42.51c-.75-1.22-2.62-2.09-4.8-2.09-2.85,0-5.16,1.47-5.16,3.29,0,1.64,1.88,3,4.34,3.25A17.76,17.76,0,0,0,9.05,58.63l0,.93,1,17.56v2.24a2.09,2.09,0,0,0,2.09,2.08H23.27a2.09,2.09,0,0,0,2.09-2.08V77.92h0c7.22-.43,15.24-.67,23.69-.68h.11c8.45,0,16.47.25,23.69.68h0v1.44a2.09,2.09,0,0,0,2.09,2.08H86a2.08,2.08,0,0,0,2.08-2.08V77.12l1-17.56,0-.93A17.82,17.82,0,0,0,84.78,47Z"/><path class="cls-4" d="M49.08,29.57H47.89a91.48,91.48,0,0,0-18.44,1.72L21.38,43.51c7.91-.59,17.06-1,26.74-1h1.94c9.68,0,18.83.37,26.73,1L68.73,31.28a91.65,91.65,0,0,0-18.45-1.72H49.1"/><path class="cls-5" d="M85.65,54.3a.75.75,0,0,0-.62-.09h0l-15,3.19a2.14,2.14,0,0,0,0,4.28h.06l10.71-.09h0c.81.08,2.28-1,3.53-2.79C85.74,56.81,86.34,54.8,85.65,54.3Z"/><rect class="cls-4" x="68.63" y="63.19" width="11.61" height="1.51" rx="0.73" ry="0.73"/><path class="cls-5" d="M12.52,54.3a.77.77,0,0,1,.63-.09h0l15,3.19a2.14,2.14,0,0,1,.05,4.28h-.06L17.4,61.59h0c-.81.08-2.28-1-3.53-2.79C12.43,56.81,11.83,54.8,12.52,54.3Z"/><rect class="cls-4" x="17.93" y="63.19" width="11.61" height="1.51" rx="0.75" ry="0.75" transform="translate(47.47 127.9) rotate(-180)"/><path class="cls-6" d="M88.43,70.44l-.38,6.79v2.24A2.09,2.09,0,0,1,86,81.55H74.83a2.09,2.09,0,0,1-2.09-2.08V78h0c-7.22-.43-15.24-.67-23.69-.67H49c-8.45,0-16.47.24-23.69.67h0v1.45a2.09,2.09,0,0,1-2.09,2.08H12.07A2.09,2.09,0,0,1,10,79.47V77.23L9.6,70.44H31.74A3.39,3.39,0,0,0,35,73.06H63a3.39,3.39,0,0,0,3.29-2.62Z"/></g></svg>