<svg xmlns="http://www.w3.org/2000/svg" viewBox="0 0 100 100"><defs><style>.cls-1{fill:#9ac43a;}.cls-2{fill:#fff;}.cls-3{fill:none;}.cls-4{fill:#1d1d1b;}</style></defs><title>Auto col</title><g id="icons"><path class="cls-1" d="M82.8,29.42v0l0-.07c-.77-1.53-4-3.12-8.53-4.25a78.9,78.9,0,0,0-18.12-1.91c-10,0-19.21,1.51-24,3.95l-.07,0A46.45,46.45,0,0,0,7.74,68c0,.23,0,.49,0,.74s0,.74,0,1.06c.3,1.9,4.49,3.75,8.33,4.85a86.13,86.13,0,0,0,20.44,2.78c1,0,2.09,0,3.12,0a88.44,88.44,0,0,0,14.56-1.11h0a5.47,5.47,0,0,0,4.4-4l0-.26c.12-.6.26-1.2.4-1.8a34.06,34.06,0,0,1,4.22-10.26c1.9-2.89,3.92-4.42,5.84-4.42a3.23,3.23,0,0,1,.82.1c2,.49,3.37,2.74,3.84,6.33a32.1,32.1,0,0,1-.67,10.51L85.5,67.51c.06-.91.15-1.83.25-2.76a46.35,46.35,0,0,1,1.76-8.7c.71-2.19,1.45-3.47,2.31-3.95A139.65,139.65,0,0,0,82.8,29.42Z"/><polygon class="cls-2" points="84.33 68.59 86.8 67.86 86.76 65.72 87.56 63.3 87.77 59.27 88.9 56.67 89.4 54.87 90.58 52.88 89.48 50.06 88.65 50.91 87.28 51.44 86.35 52.44 85.2 55.84 84.23 63.11 84.33 68.59"/><polygon class="cls-2" points="57.43 74.82 59.74 74.78 60.71 71.3 63.22 63.23 66.23 58.63 68.38 58.59 69.67 59.34 70.77 60.77 72.11 63.07 72.67 67.08 73.24 67.07 73.61 63.55 73.2 60.13 72.02 57.68 71.41 56.08 69.55 55.17 67.42 54.89 65.62 54.93 64.21 56.21 62.53 57.85 60.21 61.14 58.87 64.92 56.67 72.26 55.96 73.95 57.43 74.82"/><path class="cls-2" d="M95.08,55.61c-.86-3.19-2.41-4.2-3.68-4.44l-.26-1a142,142,0,0,0-7.55-23l-.06-.14-.06-.12C82,24.07,77,22.42,73.17,21.54a81.57,81.57,0,0,0-18.78-1.66c-10.57.19-19.93,1.94-25,4.69l-.05,0-.1.06A49,49,0,0,0,4.3,68.22v.68c0,.38,0,.81,0,1.2v.16l0,.16c.29,1.66,1.58,3.09,3.93,4.35a27.18,27.18,0,0,0,4.17,1.74,10.48,10.48,0,0,0,1.81,3.81,7.92,7.92,0,0,0,3.16,2A22.6,22.6,0,0,0,22,82.7h.54q.91,0,1.8-.09h0c1.29-.09,3.08-.75,4.75-3.21,2.17.15,4.39.24,6.64.26,1.05,0,2.13,0,3.19,0A92.44,92.44,0,0,0,53.9,78.24H54A8.7,8.7,0,0,0,56.91,77a11.69,11.69,0,0,0,1.92,4.66s1.76,1.79,3,2A26.15,26.15,0,0,0,66,84c.71,0,1.42-.06,2.12-.14h0c3.76-.37,5.9-5.47,6.74-10.59l8-3.44c.6,1.54,1.64,3,3.42,3.29l1.28.19.07-.06c.37,0,.74,0,1.12,0a15.34,15.34,0,0,0,1.74-.12h0c4.36-.61,5-8.38,5.16-10.75A23.18,23.18,0,0,0,95.08,55.61Zm-2,6.64c-.21,4.5-1.51,8.12-2.94,8.32a13.4,13.4,0,0,1-1.46.1,11.79,11.79,0,0,1-2-.12h0c-.74-.11-1.35-1.13-1.75-2.7l-.32-1.59-12.06,5.2h0c-.64,5.45-2.59,9.61-4.66,9.82h0c-.61.07-1.25.12-1.92.13a18.19,18.19,0,0,1-3.68-.29h0c-1.68-.3-2.92-3.26-3.27-7.34l-2.33,0a5.73,5.73,0,0,1-3.23,1.89h0A89.75,89.75,0,0,1,38.9,77.08c-1,0-2.08,0-3.12,0-2.76,0-5.47-.16-8.07-.38h0c-1,2-2.26,3.25-3.52,3.34h0c-.69.06-1.42.09-2.17.09a23.64,23.64,0,0,1-4.15-.35h0c-1.54-.28-2.71-2.32-3.26-5.29C11,73.44,7.2,71.76,6.88,70c0-.32,0-.7,0-1.07v-.74A46.48,46.48,0,0,1,30.48,26.88l.07,0c4.71-2.53,13.85-4.21,23.89-4.39A78.93,78.93,0,0,1,72.59,24c4.6,1.05,7.8,2.58,8.6,4.1l0,.07h0a139.62,139.62,0,0,1,7.42,22.56l.71,2.81a13.12,13.12,0,0,1,1.45.09h0C92.29,53.8,93.32,57.62,93.11,62.25Z"/><path class="cls-3" d="M89.87,52.12h0Z"/><path class="cls-3" d="M67.8,26.42h0S67.8,26.42,67.8,26.42Z"/><path class="cls-4" d="M70.23,35.39s0-4.83.15-5.55,1.16-2.68,2.93-2.23a43.75,43.75,0,0,1,5,1.84,13.5,13.5,0,0,1,1.82,2.71c.75,1.51,2.75,10,2.75,10l-12,.94-.21-2.73,7-.05a1.32,1.32,0,0,0,.7-1.22,2.62,2.62,0,0,0-2.31-3c-2-.12-5.64-.22-5.64-.22Z"/><ellipse class="cls-4" cx="47.79" cy="57.41" rx="4.27" ry="3.94" transform="translate(-14.17 99.13) rotate(-84.18)"/><path class="cls-4" d="M69.44,58.09h0a17.31,17.31,0,0,0-3.59-.3c-2.3,2.34-4.51,6.91-5.75,12.4-.13.6-.25,1.19-.35,1.77l-.06.3h0A5.75,5.75,0,0,1,59,73.9c.35,4.07,1.6,7,3.27,7.34h0a18.19,18.19,0,0,0,3.68.29c.67,0,1.32-.06,1.93-.13h0c2.26-.23,4.37-5.18,4.8-11.38S71.67,58.56,69.44,58.09Zm2.71,12c-.34,5-2.1,9-3.93,8.82s-3-4.28-2.69-9.27,2.1-9,3.92-8.83S72.49,65.07,72.15,70.07Z"/><path class="cls-4" d="M28,76.31c-1,2.3-2.41,3.77-3.78,3.86h0c-.69.06-1.42.09-2.17.09a23.72,23.72,0,0,1-4.15-.35h0c-1.59-.28-2.79-2.44-3.32-5.55a58.41,58.41,0,0,0,8,1.46c.51,1.11,1.2,1.79,2,1.86a2.79,2.79,0,0,0,2.27-1.44Z"/><path class="cls-3" d="M58.1,73.91s0-.09,0-.14"/><path class="cls-3" d="M64.9,57.8h-.11"/><path class="cls-4" d="M90.81,53.81h0a13.16,13.16,0,0,0-1.93-.09A37.68,37.68,0,0,0,86.69,64c-.11,1.15-.18,2.26-.23,3.32L84.93,68c.4,1.57,1,2.59,1.75,2.7h0a12.89,12.89,0,0,0,2,.12,13.4,13.4,0,0,0,1.46-.1c1.44-.2,2.73-3.82,2.94-8.32S92.3,53.93,90.81,53.81Zm2,8.39c-.16,3.52-1.21,6.33-2.34,6.28s-1.92-3-1.76-6.47S89.9,55.68,91,55.73,93,58.68,92.79,62.2Z"/><path class="cls-4" d="M38.91,77.46c-1,0-2.09,0-3.13,0a86.11,86.11,0,0,1-20.55-2.43c-1.9-.51-8.15-2.37-8.6-4.9h0v0c0-.33,0-.73,0-1.08v-.73a46.55,46.55,0,0,1,7.19-25.77A47.07,47.07,0,0,1,30.36,26.78l.07,0c4.74-2.54,13.94-4.23,24-4.41a78.9,78.9,0,0,1,18.22,1.59c4.73,1.08,7.93,2.62,8.77,4.23h0l0,.09a139.08,139.08,0,0,1,7.44,22.6L89,51l-.17.1c-.78.45-1.47,1.71-2.12,3.84a46.48,46.48,0,0,0-1.59,8.68c-.09.93-.16,1.85-.2,2.75v.16L71.94,72.13l.1-.48a31.7,31.7,0,0,0,.48-10.43c-.52-3.47-1.85-5.62-3.76-6a3.19,3.19,0,0,0-.75-.08c-1.83,0-3.75,1.56-5.55,4.41a33.74,33.74,0,0,0-4,10.25c-.14.62-.26,1.22-.37,1.8l-.05.27a5.72,5.72,0,0,1-4.52,4.26h0A89,89,0,0,1,38.91,77.46ZM8.16,69.94c.12.35.76,1,2.23,1.75a27.87,27.87,0,0,0,5.28,1.93A84.16,84.16,0,0,0,35.85,76c1,0,2.07,0,3.09,0a87.19,87.19,0,0,0,14.34-1.35h0a4.26,4.26,0,0,0,3.36-3.13l.05-.23c.1-.59.23-1.21.37-1.85a35.34,35.34,0,0,1,4.2-10.72c2.08-3.29,4.42-5.05,6.77-5.09a5.16,5.16,0,0,1,1.11.11c2.54.58,4.28,3.16,4.89,7.28a30.7,30.7,0,0,1-.11,8.69l9.56-4.12c.05-.7.1-1.39.17-2.06a47.68,47.68,0,0,1,1.64-9,10.21,10.21,0,0,1,2-4.09,135.55,135.55,0,0,0-7.16-21.6v0l0,0c-.15-.26-1.4-2-7.76-3.43A78.09,78.09,0,0,0,54.52,23.8a89.21,89.21,0,0,0-12.65,1.1c2.22-.18,4.61-.32,7.14-.41.58,0,1.17,0,1.75,0,10.17-.19,16.41,1.53,17.09,1.72l.38.11-.26.31a11.08,11.08,0,0,0-.54,1.54L65.68,33.7l-2.62,9.48h-.18s-.75,0-2.33,0c-2.95.06-9.6.14-20.86.13-12.82,0-21.2-.26-24.35-.37a45.08,45.08,0,0,0-4.13,8.1c.95.39,1.27,2.46,1.08,4.36-.27,2.65-1.25,4-2.08,4.06h-.1c-.45,0-.81-.44-1-1.11a45.5,45.5,0,0,0-.91,9.88c0,.25,0,.53,0,.77S8.15,69.67,8.16,69.94Z"/><path class="cls-4" d="M81.23,28.35h0l0-.07c-.79-1.52-4-3.05-8.59-4.1a79,79,0,0,0-18.16-1.59c-10,.18-19.18,1.86-23.88,4.38l-.08.05A46.48,46.48,0,0,0,6.87,68.3c0,.24,0,.49,0,.74s0,.75,0,1.07c.33,1.89,4.55,3.66,8.41,4.7a86.6,86.6,0,0,0,20.48,2.41c1,0,2.09,0,3.12,0a90,90,0,0,0,14.55-1.37h0a5.48,5.48,0,0,0,4.32-4.06l.05-.27c.11-.6.23-1.21.37-1.81a33.66,33.66,0,0,1,4-10.33c1.84-2.93,3.83-4.49,5.75-4.52a3.22,3.22,0,0,1,.82.08c2,.45,3.42,2.68,4,6.26a31.68,31.68,0,0,1-.48,10.52l12.32-5.31c0-.91.11-1.83.2-2.76a46.86,46.86,0,0,1,1.6-8.73c.67-2.2,1.4-3.5,2.24-4A139.62,139.62,0,0,0,81.23,28.35Zm4.32,26.27a47.94,47.94,0,0,0-1.64,8.91c-.07.74-.13,1.48-.17,2.21L73.61,70.1A31.3,31.3,0,0,0,73.79,61c-.6-4-2.27-6.52-4.7-7.06a4.07,4.07,0,0,0-1-.11c-2.26,0-4.52,1.76-6.55,5a34.82,34.82,0,0,0-4.17,10.64c-.13.61-.26,1.23-.37,1.84l-.05.24a4.52,4.52,0,0,1-3.56,3.32h0a86.9,86.9,0,0,1-14.39,1.36c-1,0-2.06,0-3.09,0a84.58,84.58,0,0,1-20.24-2.38,28,28,0,0,1-5.34-2C8.69,71.11,8,70.4,7.91,70s0-.61,0-.93v-.77A45.31,45.31,0,0,1,9.06,57.21c.14,1.18.54,2,1.08,2,.82.09,1.67-1.63,1.89-3.83s-.26-4.05-1.08-4.13h-.09a45.8,45.8,0,0,1,4.34-8.55c3.05.1,11.46.35,24.49.37,16.66,0,23.18-.17,23.18-.17l2.57-9.31L67.19,28a8.56,8.56,0,0,1,.59-1.63c-.49-.14-7.51-2.1-18.76-1.67-5.34.21-9.3.58-12,.91a78.8,78.8,0,0,1,17.5-2.1,77.61,77.61,0,0,1,17.93,1.56c5,1.15,7.41,2.63,7.94,3.57v0l0,0a137.54,137.54,0,0,1,7.21,21.78A9.43,9.43,0,0,0,85.55,54.62Z"/></g></svg>