<svg xmlns="http://www.w3.org/2000/svg" viewBox="0 0 220.96 200.67"><defs><style>.cls-1{fill:#fff;}</style></defs><g id="map"><path class="cls-1" d="M111.45,11.49a58.23,58.23,0,0,1,55.37,39.66,43.61,43.61,0,0,1,42.61,44.48C209,120,189.21,140.19,165,140.19H55.3A43.66,43.66,0,0,1,11.53,95.63,45.4,45.4,0,0,1,54.84,51.15a60.55,60.55,0,0,1,56.61-39.66m0-4.85a65.51,65.51,0,0,0-60,39.9,50.16,50.16,0,0,0-44.77,49A48.51,48.51,0,0,0,55.3,145H165c26.76,0,48.88-22.13,49.32-49.33a48.45,48.45,0,0,0-44-49.21A63.16,63.16,0,0,0,111.45,6.64Z"/><path class="cls-1" d="M38.33,112.61a7.06,7.06,0,0,1,6.76-7.13,7,7,0,1,1,.27,14A7.1,7.1,0,0,1,38.33,112.61Z"/><path class="cls-1" d="M82.79,112.61a7,7,0,0,1,6.75-7.13,7,7,0,1,1,.28,14A7.1,7.1,0,0,1,82.79,112.61Z"/><path class="cls-1" d="M105.35,100.24A10.43,10.43,0,0,0,95.4,89.9v0H88.06a5.12,5.12,0,0,0-.4-.55L77.11,76.49A5.37,5.37,0,0,0,73,74.59H50.11A5.38,5.38,0,0,0,46,76.49L35.45,89.33c-.14.18-.27.37-.39.55H28.73a2.42,2.42,0,0,0-2.42,2.43v16a2.42,2.42,0,0,0,2.42,2.42h6.51A10.29,10.29,0,0,1,45,102.21a10.66,10.66,0,0,1,10.42,8.54H79.7a10.29,10.29,0,0,1,9.74-8.54,10.67,10.67,0,0,1,10.42,8.54h1.4a4.14,4.14,0,0,0,4.14-4.14v-5.72A4.74,4.74,0,0,0,105.35,100.24ZM59.28,92.31l-19.71,0L50.11,79.45h9.17Zm24.21,0H63.86V79.45H73L83.49,92.23Z"/><g id="map-2" data-name="map"><path class="cls-1" d="M124.79,44.89H121v-6h0a10.57,10.57,0,0,0-21.12.1v5.86H96.17a1.55,1.55,0,0,0-1.55,1.54h0V67.84a1.55,1.55,0,0,0,1.55,1.55h28.62a1.54,1.54,0,0,0,1.54-1.55h0V46.43a1.54,1.54,0,0,0-1.54-1.54ZM113.9,62.74h-6.85L108.88,57a3.61,3.61,0,1,1,3.2,0Zm3.68-17.85H103.39v-6a7.09,7.09,0,0,1,14.18,0Z"/></g><polygon class="cls-1" points="135.38 124.01 135.38 99.1 138.12 99.1 138.12 121.27 175.66 121.27 175.66 99.1 178.4 99.1 178.4 124.01 135.38 124.01"/><polygon class="cls-1" points="156.62 74.75 132.94 98.43 131 96.5 156.62 70.88 182.78 97.04 180.84 98.98 156.62 74.75"/><rect class="cls-1" x="145.9" y="102.91" width="8.89" height="18.83"/><rect class="cls-1" x="160.02" y="91.93" width="8.89" height="18.83"/><path class="cls-1" d="M49.17,161.11a11.33,11.33,0,1,0,0,1.93,7.79,7.79,0,0,0,0-1.93Zm-11.26,9a8,8,0,1,1,7.94-9,6.69,6.69,0,0,1,0,1.93A8,8,0,0,1,37.91,170.08Z"/><path class="cls-1" d="M180.23,150.75A11.3,11.3,0,0,0,169,161.11a6.69,6.69,0,0,0,0,1.93,11.31,11.31,0,1,0,11.25-12.29Zm0,19.33a8,8,0,0,1-7.94-7,6.69,6.69,0,0,1,0-1.93,8,8,0,1,1,7.94,9Z"/><path class="cls-1" d="M150.35,171.41a11.31,11.31,0,0,0-11.26,10.33,7.63,7.63,0,0,0-.07,1,8.12,8.12,0,0,0,.07,1,11.31,11.31,0,1,0,11.26-12.3Zm0,19.31a8,8,0,0,1-7.94-7,6.54,6.54,0,0,1-.07-1,6.15,6.15,0,0,1,.07-1,8,8,0,1,1,7.94,9Z"/><path class="cls-1" d="M78.94,181.74a11.33,11.33,0,1,0,0,1.94,7.5,7.5,0,0,0,.07-1A7.63,7.63,0,0,0,78.94,181.74Zm-11.25,9a8,8,0,1,1,7.93-9,6.15,6.15,0,0,1,.07,1,6.07,6.07,0,0,1-.07,1A8,8,0,0,1,67.69,190.72Z"/><path class="cls-1" d="M65,161.11V163H45.85a6.69,6.69,0,0,0,0-1.93Z"/><rect class="cls-1" x="63.92" y="142.82" width="1.94" height="20.2"/><path class="cls-1" d="M94.34,181.74v1.94H75.62a6.07,6.07,0,0,0,.07-1,6.15,6.15,0,0,0-.07-1Z"/><rect class="cls-1" x="93.31" y="141.85" width="1.94" height="41.82"/><path class="cls-1" d="M172.22,162.08a7.48,7.48,0,0,0,.07,1h-19v-1.93h19A7.5,7.5,0,0,0,172.22,162.08Z"/><rect class="cls-1" x="152.38" y="142.7" width="1.95" height="20.32"/><path class="cls-1" d="M142.34,182.71a6.54,6.54,0,0,0,.07,1H123.66v-2h18.75A6.15,6.15,0,0,0,142.34,182.71Z"/><rect class="cls-1" x="122.76" y="142.14" width="1.95" height="41.53"/></g></svg>