<svg id="Layer_1" data-name="Layer 1" xmlns="http://www.w3.org/2000/svg" viewBox="0 0 302 230"><defs><style>.cls-1{fill:none;stroke-width:2.22px;}.cls-1,.cls-2,.cls-4,.cls-6,.cls-7{stroke:#e6e6e6;stroke-miterlimit:10;}.cls-2{fill:#9c3;}.cls-2,.cls-4,.cls-6,.cls-7{stroke-width:4.37px;}.cls-3{isolation:isolate;}.cls-4{fill:#0083ad;}.cls-5{fill:#fff;}.cls-6{fill:#346ab8;}.cls-7{fill:#d72c2f;}</style></defs><line class="cls-1" x1="147.7" y1="177.7" x2="253.9" y2="118.1"/><line class="cls-1" x1="46.7" y1="109.7" x2="147.2" y2="50"/><line class="cls-1" x1="47.6" y1="114.6" x2="149.9" y2="176.5"/><line class="cls-1" x1="147.2" y1="50" x2="249.5" y2="111.9"/><line class="cls-1" x1="148.8" y1="48.8" x2="148.8" y2="182.3"/><line class="cls-1" x1="43.4" y1="113.7" x2="255" y2="116.3"/><circle class="cls-2" cx="149.1" cy="47.1" r="41.5"/><g class="cls-3"><path d="M137,50.1v1.5h-5.8V41.7H133v8.4Z"/><path d="M140,42.6a.6.6,0,0,1-.1.4c-.1.1-.1.2-.2.3s-.2.2-.3.2-.3.1-.4.1a.6.6,0,0,1-.4-.1c-.1-.1-.2-.1-.3-.2s-.2-.2-.2-.3a.6.6,0,0,1-.1-.4c0-.2,0-.3.1-.4s.1-.2.2-.3.2-.2.3-.2a.6.6,0,0,1,.4-.1c.2,0,.3,0,.4.1s.2.1.3.2.2.2.2.3S140,42.4,140,42.6Zm-.2,2v7h-1.7v-7Z"/><path d="M143.1,45.5l.4-.4c.2-.1.3-.2.5-.3a1.42,1.42,0,0,1,.6-.2c.2,0,.4-.1.7-.1a3,3,0,0,1,1,.2,1.79,1.79,0,0,1,.7.5,5.58,5.58,0,0,1,.5.8,3.59,3.59,0,0,1,.2,1.1v4.5H146V47.1a1.49,1.49,0,0,0-.3-1,1.27,1.27,0,0,0-.9-.4,1.88,1.88,0,0,0-.8.2,3,3,0,0,0-.7.5v5.1h-1.7v-7h1c.2,0,.4.1.4.3Z"/><path d="M149,45.6a4.36,4.36,0,0,1,2.9-1.1,3.59,3.59,0,0,1,1.1.2,1.56,1.56,0,0,1,.8.6,1.93,1.93,0,0,1,.5.9,3.59,3.59,0,0,1,.2,1.1v4.4h-.8c-.2,0-.3,0-.4-.1s-.2-.1-.2-.3l-.2-.5c-.2.2-.4.3-.5.4s-.3.2-.5.3-.4.1-.6.2-.4.1-.7.1a2,2,0,0,1-.8-.1.92.92,0,0,1-.6-.4c-.1-.2-.3-.4-.4-.6a2,2,0,0,1-.1-.8.75.75,0,0,1,.1-.5c.1-.2.2-.3.3-.5s.3-.3.5-.5a5.94,5.94,0,0,1,.8-.4c.3-.1.7-.2,1.1-.3a6.15,6.15,0,0,1,1.4-.1v-.4a1.33,1.33,0,0,0-.3-1,1.22,1.22,0,0,0-.9-.3,1.48,1.48,0,0,0-.7.1c-.2.1-.3.1-.5.2a.76.76,0,0,1-.4.2c-.1.1-.2.1-.4.1a.37.37,0,0,1-.3-.1l-.2-.2Zm3.9,3.1c-.5,0-.9.1-1.2.1a1.88,1.88,0,0,0-.8.2,1.38,1.38,0,0,0-.4.3.78.78,0,0,0,.2,1,1.45,1.45,0,0,0,.7.2,2.92,2.92,0,0,0,.9-.2,1.34,1.34,0,0,0,.7-.6v-1Z"/></g><g class="cls-3"><path d="M157.7,45.9a3.92,3.92,0,0,1,.8-1,2.1,2.1,0,0,1,1.1-.4,1.88,1.88,0,0,1,.8.2l-.1,1.3c0,.1-.1.1-.1.2a.35.35,0,0,1-.2.1h-.7a.75.75,0,0,0-.5.1c-.1.1-.3.1-.4.2a1.38,1.38,0,0,0-.3.4c-.1.2-.2.3-.2.5v4.3h-1.7v-7h1c.2,0,.3,0,.4.1a.37.37,0,0,1,.1.3Z"/></g><g class="cls-3"><path d="M164.1,44.5a3.19,3.19,0,0,1,1.4.3,3,3,0,0,1,1.8,1.8,3.42,3.42,0,0,1,.2,1.5,6.05,6.05,0,0,1-.2,1.5,4.13,4.13,0,0,1-.7,1.1,2.59,2.59,0,0,1-1.1.7,3.42,3.42,0,0,1-2.8,0,3,3,0,0,1-1.8-1.8,3.42,3.42,0,0,1-.2-1.5,6.8,6.8,0,0,1,.2-1.5,3,3,0,0,1,1.8-1.8A3.19,3.19,0,0,1,164.1,44.5Zm0,5.9a1.49,1.49,0,0,0,1.3-.6,2.86,2.86,0,0,0,.4-1.7,2.67,2.67,0,0,0-.4-1.7,1.71,1.71,0,0,0-2.6,0,3.81,3.81,0,0,0,0,3.4A1.49,1.49,0,0,0,164.1,50.4Z"/></g><circle class="cls-4" cx="45.1" cy="115.4" r="41.5"/><g class="cls-3"><path class="cls-5" d="M42,120H40.6c-.2,0-.3,0-.4-.1s-.2-.2-.2-.3l-.7-2H35.2l-.7,2c0,.1-.1.2-.2.3s-.2.1-.4.1H32.5l3.9-9.9h1.9Zm-3.2-3.8-1.2-3.3c-.1-.1-.1-.3-.2-.5s-.1-.4-.2-.6c-.1.2-.1.5-.2.7s-.1.4-.2.5l-1.2,3.3h3.2Z"/></g><g class="cls-3"><path class="cls-5" d="M44.4,114.2a3.92,3.92,0,0,1,.8-1,1.5,1.5,0,0,1,1.1-.4,1.88,1.88,0,0,1,.8.2l-.1,1.3c0,.1-.1.1-.1.2a.35.35,0,0,1-.2.1H46a.75.75,0,0,0-.5.1c-.1.1-.3.1-.4.2a1.38,1.38,0,0,0-.3.4.76.76,0,0,0-.2.5v4.3H42.9v-7h1c.2,0,.3,0,.4.1a.37.37,0,0,1,.1.3Z"/><path class="cls-5" d="M47.9,120v-7h1c.2,0,.4.1.4.3l.1.5.4-.4c.1-.1.3-.2.4-.3s.3-.1.5-.2a1.27,1.27,0,0,1,.6-.1,1.5,1.5,0,0,1,1.1.4,1.7,1.7,0,0,1,.6,1,2.09,2.09,0,0,1,.4-.6,1.76,1.76,0,0,1,.5-.4,1.42,1.42,0,0,1,.6-.2c.2,0,.4-.1.7-.1a3,3,0,0,1,1,.2,2.1,2.1,0,0,1,1.3,1.3,3.59,3.59,0,0,1,.2,1.1V120H56v-4.5a1.49,1.49,0,0,0-.3-1,1.22,1.22,0,0,0-.9-.3.9.9,0,0,0-.5.1c-.1.1-.3.1-.4.3s-.2.3-.3.4a1.27,1.27,0,0,0-.1.6v4.5H51.8v-4.5a1.33,1.33,0,0,0-.3-1,1.14,1.14,0,0,0-.8-.3,1.85,1.85,0,0,0-.7.2,2.65,2.65,0,0,0-.6.5v5.1H47.9Z"/></g><circle class="cls-6" cx="149.1" cy="182.9" r="41.5"/><circle class="cls-7" cx="256.95" cy="115.43" r="41.5"/><g class="cls-3"><path class="cls-5" d="M241.85,110.15v9.9h-1.8v-4.3h-4.6v4.3h-1.8v-9.9h1.8v4.3h4.6v-4.3Z"/></g><g class="cls-3"><path class="cls-5" d="M249.65,113v7h-1c-.2,0-.4-.1-.4-.3l-.1-.6a3.59,3.59,0,0,1-1,.7,2.38,2.38,0,0,1-1.2.3,3,3,0,0,1-1-.2,1.34,1.34,0,0,1-.7-.6,2.18,2.18,0,0,1-.5-.8,3.59,3.59,0,0,1-.2-1.1v-4.5h1.7v4.5a1.49,1.49,0,0,0,.3,1,1.27,1.27,0,0,0,.9.4,1.88,1.88,0,0,0,.8-.2,1.79,1.79,0,0,0,.7-.5V113Z"/></g><g class="cls-3"><path class="cls-5" d="M251.15,114a4.36,4.36,0,0,1,2.9-1.1,3.59,3.59,0,0,1,1.1.2,1.56,1.56,0,0,1,.8.6,1.93,1.93,0,0,1,.5.9,3.59,3.59,0,0,1,.2,1.1v4.4h-.8c-.2,0-.3,0-.4-.1s-.2-.1-.2-.3l-.2-.5c-.2.2-.4.3-.5.4s-.3.2-.5.3-.4.1-.6.2-.4.1-.7.1a2,2,0,0,1-.8-.1.92.92,0,0,1-.6-.4c-.1-.2-.3-.4-.4-.6a1.88,1.88,0,0,1-.2-.8.75.75,0,0,1,.1-.5,2.19,2.19,0,0,0,.3-.5c.1-.2.3-.3.5-.5a5.94,5.94,0,0,1,.8-.4c.3-.1.7-.2,1.1-.3a6.15,6.15,0,0,1,1.4-.1v-.4a1.33,1.33,0,0,0-.3-1,1.22,1.22,0,0,0-.9-.3,1.48,1.48,0,0,0-.7.1c-.2.1-.3.1-.5.2a.76.76,0,0,1-.4.2c-.1.1-.2.1-.4.1a.37.37,0,0,1-.3-.1l-.2-.2Zm3.9,3c-.5,0-.9.1-1.2.1s-.6.1-.8.2a1.38,1.38,0,0,0-.4.3.78.78,0,0,0,.2,1,1.45,1.45,0,0,0,.7.2,2.92,2.92,0,0,0,.9-.2,1.34,1.34,0,0,0,.7-.6v-1Z"/></g><g class="cls-3"><path class="cls-5" d="M268.25,113l-2.2,7h-1.4a.27.27,0,0,1-.3-.3l-1.3-4.1c0-.1-.1-.3-.1-.4s-.1-.3-.1-.4c0,.1-.1.3-.1.4s-.1.3-.1.4l-1.3,4c-.1.2-.2.3-.4.3h-1.3l-2.2-7h1.3a.37.37,0,0,1,.3.1l.2.2,1,3.7a1.27,1.27,0,0,1,.1.6c0,.2.1.4.1.6.1-.2.1-.4.2-.6s.1-.4.2-.6l1.2-3.8a.22.22,0,0,1,.2-.2.37.37,0,0,1,.3-.1h.7a.37.37,0,0,1,.3.1l.2.2,1.1,3.8c.1.2.1.4.2.6s.1.4.2.6a5.27,5.27,0,0,1,.3-1.2l1-3.7a.22.22,0,0,1,.2-.2c.1,0,.2-.1.3-.1h1.2Z"/></g><g class="cls-3"><path class="cls-5" d="M270.35,116.65a2,2,0,0,0,.2.9.92.92,0,0,0,.4.6c.2.1.4.3.6.4a2.5,2.5,0,0,0,1.4,0c.2-.1.4-.1.5-.2s.3-.1.4-.2a.37.37,0,0,1,.3-.1c.1,0,.2.1.3.2l.5.6-.6.6c-.2.1-.5.3-.7.4a2.35,2.35,0,0,1-.8.2c-.3,0-.5.1-.8.1a6.75,6.75,0,0,1-1.4-.2,4.13,4.13,0,0,1-1.1-.7,2.4,2.4,0,0,1-.7-1.2,7.58,7.58,0,0,1-.3-1.6,6.75,6.75,0,0,1,.2-1.4,4.13,4.13,0,0,1,.7-1.1,2.1,2.1,0,0,1,1.1-.7,7,7,0,0,1,1.4-.3,5,5,0,0,1,1.2.2,2.4,2.4,0,0,1,1.6,1.6,3,3,0,0,1,.2,1.4c0,.3,0,.4-.1.5a.37.37,0,0,1-.3.1h-4.2Zm3.2-1a1.27,1.27,0,0,0-.1-.6,2.19,2.19,0,0,0-.3-.5.85.85,0,0,0-.5-.3,1.48,1.48,0,0,0-.7-.1,1.59,1.59,0,0,0-1.2.4,1.66,1.66,0,0,0-.5,1.2h3.3Z"/><path class="cls-5" d="M278.35,111a.6.6,0,0,1-.1.4c-.1.1-.1.2-.2.3s-.2.2-.3.2a.85.85,0,0,1-.8,0c-.1-.1-.2-.1-.3-.2s-.2-.2-.2-.3a.6.6,0,0,1-.1-.4c0-.2,0-.3.1-.4s.1-.2.2-.3.2-.2.3-.2.3-.1.4-.1a.6.6,0,0,1,.4.1c.1.1.2.1.3.2s.2.2.2.3S278.35,110.75,278.35,111Zm-.2,2v7h-1.7v-7Z"/></g><g class="cls-3"><path class="cls-5" d="M126.75,189h-1.5a1.27,1.27,0,0,1-.6-.1c-.2-.1-.3-.2-.5-.3l-1.4-1.6a1.7,1.7,0,0,1-.7.1h-.8a4.48,4.48,0,0,1-2-.4,5.72,5.72,0,0,1-1.6-1.1,5.37,5.37,0,0,1-1-1.6,6.47,6.47,0,0,1-.4-2,4.48,4.48,0,0,1,.4-2,4.35,4.35,0,0,1,1-1.6,4.57,4.57,0,0,1,1.6-1.1,4.48,4.48,0,0,1,2-.4,5.9,5.9,0,0,1,1.4.2,6.12,6.12,0,0,1,1.2.5,3.92,3.92,0,0,1,1,.8,3.59,3.59,0,0,1,.7,1,6.12,6.12,0,0,1,.5,1.2,5.9,5.9,0,0,1,.2,1.4,5.7,5.7,0,0,1-.1,1.3,3.58,3.58,0,0,1-.4,1.1,8.79,8.79,0,0,1-.6,1,3,3,0,0,1-.8.8Zm-8.7-6.9a7.72,7.72,0,0,0,.2,1.5,2.87,2.87,0,0,0,.6,1.1,3.59,3.59,0,0,0,1,.7,2.74,2.74,0,0,0,1.3.2,5.07,5.07,0,0,0,1.3-.2,3.59,3.59,0,0,0,1-.7,2.38,2.38,0,0,0,.6-1.1,6.05,6.05,0,0,0,.2-1.5,7.72,7.72,0,0,0-.2-1.5,3.88,3.88,0,0,0-.6-1.1,3.59,3.59,0,0,0-1-.7,2.74,2.74,0,0,0-1.3-.2,5.07,5.07,0,0,0-1.3.2,3.59,3.59,0,0,0-1,.7,2.38,2.38,0,0,0-.6,1.1A6.8,6.8,0,0,0,118.05,182.05Z"/></g><g class="cls-3"><path class="cls-5" d="M133.55,180v7h-1c-.2,0-.4-.1-.4-.3l-.1-.6a3.59,3.59,0,0,1-1,.7,2.38,2.38,0,0,1-1.2.3,3,3,0,0,1-1-.2,1.34,1.34,0,0,1-.7-.6,2.18,2.18,0,0,1-.5-.8,3.59,3.59,0,0,1-.2-1.1V180h1.7v4.5a1.49,1.49,0,0,0,.3,1,1.27,1.27,0,0,0,.9.4,1.88,1.88,0,0,0,.8-.2,1.79,1.79,0,0,0,.7-.5V180Z"/><path class="cls-5" d="M135.05,181a4.36,4.36,0,0,1,2.9-1.1,3.59,3.59,0,0,1,1.1.2,1.56,1.56,0,0,1,.8.6,1.93,1.93,0,0,1,.5.9,3.59,3.59,0,0,1,.2,1.1v4.4h-.8c-.2,0-.3,0-.4-.1s-.2-.1-.2-.3l-.2-.5c-.2.2-.4.3-.5.4s-.3.2-.5.3-.4.1-.6.2-.4.1-.7.1a2,2,0,0,1-.8-.1.92.92,0,0,1-.6-.4,2.09,2.09,0,0,1-.4-.6,1.88,1.88,0,0,1-.2-.8.75.75,0,0,1,.1-.5c.1-.2.2-.3.3-.5s.3-.3.5-.5a5.94,5.94,0,0,1,.8-.4c.3-.1.7-.2,1.1-.3a6.15,6.15,0,0,1,1.4-.1v-.4a1.33,1.33,0,0,0-.3-1,1.22,1.22,0,0,0-.9-.3,1.48,1.48,0,0,0-.7.1c-.2.1-.3.1-.5.2a.76.76,0,0,1-.4.2c-.1.1-.2.1-.4.1a.37.37,0,0,1-.3-.1l-.2-.2Zm3.9,3.1c-.5,0-.9.1-1.2.1a1.88,1.88,0,0,0-.8.2,1.38,1.38,0,0,0-.4.3.78.78,0,0,0,.2,1,1.45,1.45,0,0,0,.7.2,2.92,2.92,0,0,0,.9-.2,1.34,1.34,0,0,0,.7-.6v-1Z"/><path class="cls-5" d="M143.85,176.85v10.2h-1.7v-10.2Z"/></g><g class="cls-3"><path class="cls-5" d="M150.55,181.45c0,.1-.1.1-.1.2a.35.35,0,0,1-.2.1.37.37,0,0,1-.3-.1c-.1-.1-.2-.1-.3-.2s-.2-.1-.4-.2a1.27,1.27,0,0,0-.6-.1,1.88,1.88,0,0,0-.8.2,2.65,2.65,0,0,0-.6.5,1.49,1.49,0,0,0-.3.7,5.05,5.05,0,0,0,0,2,4.88,4.88,0,0,0,.3.7c.1.2.3.3.5.5a1,1,0,0,0,.7.2,1.48,1.48,0,0,0,.7-.1c.2-.1.3-.1.4-.2s.2-.2.3-.2a.37.37,0,0,1,.3-.1c.1,0,.2.1.3.2l.5.6-.6.6a4.35,4.35,0,0,1-.7.4,1.85,1.85,0,0,1-.7.2c-.2,0-.5.1-.7.1a5,5,0,0,1-1.2-.2,3.59,3.59,0,0,1-1-.7,4.13,4.13,0,0,1-.7-1.1,3.64,3.64,0,0,1-.2-1.5,5.9,5.9,0,0,1,.2-1.4,2.59,2.59,0,0,1,.7-1.1,3.13,3.13,0,0,1,1.1-.8,3.65,3.65,0,0,1,1.5-.3,3.19,3.19,0,0,1,1.4.3,6.73,6.73,0,0,1,1.1.7Z"/></g><g class="cls-3"><path class="cls-5" d="M155.15,179.85a3.19,3.19,0,0,1,1.4.3,3,3,0,0,1,1.8,1.8,3.42,3.42,0,0,1,.2,1.5,6.05,6.05,0,0,1-.2,1.5,4.13,4.13,0,0,1-.7,1.1,2.59,2.59,0,0,1-1.1.7,3.42,3.42,0,0,1-2.8,0A3,3,0,0,1,152,185a3.42,3.42,0,0,1-.2-1.5,6.8,6.8,0,0,1,.2-1.5,3,3,0,0,1,1.8-1.8A2.9,2.9,0,0,1,155.15,179.85Zm0,6a1.49,1.49,0,0,0,1.3-.6,2.86,2.86,0,0,0,.4-1.7,2.67,2.67,0,0,0-.4-1.7,1.71,1.71,0,0,0-2.6,0,2.86,2.86,0,0,0-.4,1.7,2.67,2.67,0,0,0,.4,1.7A1.38,1.38,0,0,0,155.15,185.85Z"/><path class="cls-5" d="M159.85,187.05v-7h1c.2,0,.4.1.4.3l.1.5.4-.4c.1-.1.3-.2.4-.3s.3-.1.5-.2a1.27,1.27,0,0,1,.6-.1,1.5,1.5,0,0,1,1.1.4,1.7,1.7,0,0,1,.6,1,2.09,2.09,0,0,1,.4-.6,1.76,1.76,0,0,1,.5-.4,1.42,1.42,0,0,1,.6-.2c.2,0,.4-.1.7-.1a3,3,0,0,1,1,.2,2.1,2.1,0,0,1,1.3,1.3,3.59,3.59,0,0,1,.2,1.1v4.5H168v-4.5a1.49,1.49,0,0,0-.3-1,1.22,1.22,0,0,0-.9-.3.9.9,0,0,0-.5.1c-.1.1-.3.1-.4.3s-.2.3-.3.4a1.27,1.27,0,0,0-.1.6v4.5h-1.7v-4.5a1.33,1.33,0,0,0-.3-1,1.14,1.14,0,0,0-.8-.3,1.85,1.85,0,0,0-.7.2,2.65,2.65,0,0,0-.6.5v5.1h-1.5Z"/><path class="cls-5" d="M171.35,187.05v-7h1c.2,0,.4.1.4.3l.1.5.4-.4c.1-.1.3-.2.4-.3s.3-.1.5-.2a1.27,1.27,0,0,1,.6-.1,1.5,1.5,0,0,1,1.1.4,1.7,1.7,0,0,1,.6,1,2.09,2.09,0,0,1,.4-.6,1.76,1.76,0,0,1,.5-.4,1.42,1.42,0,0,1,.6-.2c.2,0,.4-.1.7-.1a3,3,0,0,1,1,.2,2.1,2.1,0,0,1,1.3,1.3,3.59,3.59,0,0,1,.2,1.1v4.5h-1.7v-4.5a1.49,1.49,0,0,0-.3-1,1.22,1.22,0,0,0-.9-.3.9.9,0,0,0-.5.1c-.1.1-.3.1-.4.3s-.2.3-.3.4a1.27,1.27,0,0,0-.1.6v4.5h-1.7v-4.5a1.33,1.33,0,0,0-.3-1,1.14,1.14,0,0,0-.8-.3,1.85,1.85,0,0,0-.7.2,2.65,2.65,0,0,0-.6.5v5.1h-1.5Z"/></g></svg>