<svg xmlns="http://www.w3.org/2000/svg" viewBox="0 0 300 225"><defs><style>.cls-1{fill:none;stroke-width:2.22px;}.cls-1,.cls-10,.cls-14,.cls-2,.cls-5{stroke:#e6e6e6;stroke-miterlimit:10;}.cls-2{fill:#9c3;}.cls-10,.cls-14,.cls-2,.cls-5{stroke-width:4.37px;}.cls-3{font-size:13.65px;}.cls-3,.cls-6{font-family:Lato-Bold, Lato;font-weight:700;}.cls-4{letter-spacing:-0.01em;}.cls-5{fill:#346ab8;}.cls-6{font-size:13.67px;fill:#fff;}.cls-7{letter-spacing:-0.01em;}.cls-8{letter-spacing:0em;}.cls-9{letter-spacing:-0.01em;}.cls-10{fill:#d72c2f;}.cls-11{letter-spacing:-0.01em;}.cls-12{letter-spacing:0em;}.cls-13{letter-spacing:-0.01em;}.cls-14{fill:#0083ad;}.cls-15{letter-spacing:0em;}</style></defs><g id="upper"><line class="cls-1" x1="148.9" y1="177.83" x2="255.12" y2="118.16"/><line class="cls-1" x1="47.91" y1="109.82" x2="148.36" y2="50.13"/><line class="cls-1" x1="48.81" y1="114.74" x2="151.12" y2="176.58"/><line class="cls-1" x1="148.36" y1="50.13" x2="250.67" y2="111.97"/><line class="cls-1" x1="150.01" y1="48.92" x2="150.01" y2="182.4"/><line class="cls-1" x1="44.61" y1="113.84" x2="256.21" y2="116.35"/><circle class="cls-2" cx="150" cy="47.17" r="41.51"/><text class="cls-3" transform="translate(131.04 51.74)">Lina<tspan class="cls-4" x="25.18" y="0">r</tspan><tspan x="30.08" y="0">o</tspan></text><circle class="cls-5" cx="148.9" cy="177.83" r="41.51"/><text class="cls-6" transform="translate(116.2 182.4)"><tspan class="cls-7">Q</tspan><tspan class="cls-8" x="10.96" y="0">ual</tspan><tspan class="cls-9" x="29" y="0">c</tspan><tspan x="35.47" y="0">omm</tspan></text><circle class="cls-10" cx="253.76" cy="115.09" r="41.51"/><text class="cls-6" transform="translate(230.86 119.66)"><tspan class="cls-11">H</tspan><tspan class="cls-8" x="10.4" y="0">u</tspan><tspan class="cls-12" x="18.11" y="0">a</tspan><tspan class="cls-13" x="24.99" y="0">w</tspan><tspan x="35.84" y="0">ei</tspan></text><circle class="cls-14" cx="46.24" cy="113.31" r="41.51"/><text class="cls-6" transform="translate(33.63 117.89)"><tspan class="cls-15">A</tspan><tspan x="9.48" y="0">rm</tspan></text></g></svg>