<?xml version="1.0" encoding="utf-8"?>
<!-- Generator: Adobe Illustrator 25.2.3, SVG Export Plug-In . SVG Version: 6.00 Build 0)  -->
<svg version="1.1" id="Layer_1" xmlns="http://www.w3.org/2000/svg" xmlns:xlink="http://www.w3.org/1999/xlink" x="0px" y="0px"
	 viewBox="0 0 300 225" style="enable-background:new 0 0 300 225;" xml:space="preserve">
<style type="text/css">
	.st0{fill:none;stroke:#E6E6E6;stroke-width:2.22;stroke-miterlimit:10;}
	.st1{fill:#99CC33;stroke:#E6E6E6;stroke-width:4.37;stroke-miterlimit:10;}
	.st2{enable-background:new    ;}
	.st3{fill:#346AB8;stroke:#E6E6E6;stroke-width:4.37;stroke-miterlimit:10;}
	.st4{fill:#FFFFFF;}
	.st5{fill:#D72C2F;stroke:#E6E6E6;stroke-width:4.37;stroke-miterlimit:10;}
	.st6{fill:#0083AD;stroke:#E6E6E6;stroke-width:4.37;stroke-miterlimit:10;}
</style>
<g id="upper">
	<line class="st0" x1="148.9" y1="177.8" x2="255.1" y2="118.2"/>
	<line class="st0" x1="47.9" y1="109.8" x2="148.4" y2="50.1"/>
	<line class="st0" x1="48.8" y1="114.7" x2="151.1" y2="176.6"/>
	<line class="st0" x1="148.4" y1="50.1" x2="250.7" y2="112"/>
	<line class="st0" x1="150" y1="48.9" x2="150" y2="182.4"/>
	<line class="st0" x1="44.6" y1="113.8" x2="256.2" y2="116.3"/>
	<circle class="st1" cx="150" cy="47.2" r="41.5"/>
	<g class="st2">
		<path d="M137.9,50.2v1.5h-5.8v-9.9h1.8v8.4H137.9z"/>
		<path d="M140.9,42.7c0,0.1,0,0.3-0.1,0.4c-0.1,0.1-0.1,0.2-0.2,0.3c-0.1,0.1-0.2,0.2-0.3,0.2s-0.3,0.1-0.4,0.1
			c-0.1,0-0.3,0-0.4-0.1c-0.1-0.1-0.2-0.1-0.3-0.2c-0.1-0.1-0.2-0.2-0.2-0.3c-0.1-0.1-0.1-0.3-0.1-0.4c0-0.2,0-0.3,0.1-0.4
			c0.1-0.1,0.1-0.2,0.2-0.3s0.2-0.2,0.3-0.2c0.1-0.1,0.3-0.1,0.4-0.1c0.2,0,0.3,0,0.4,0.1s0.2,0.1,0.3,0.2c0.1,0.1,0.2,0.2,0.2,0.3
			C140.9,42.4,140.9,42.5,140.9,42.7z M140.7,44.7v7H139v-7H140.7z"/>
		<path d="M144,45.6c0.1-0.1,0.3-0.3,0.4-0.4c0.2-0.1,0.3-0.2,0.5-0.3s0.4-0.2,0.6-0.2s0.4-0.1,0.7-0.1c0.4,0,0.7,0.1,1,0.2
			c0.3,0.1,0.5,0.3,0.7,0.5c0.2,0.2,0.3,0.5,0.5,0.8c0.1,0.3,0.2,0.7,0.2,1.1v4.5h-1.7v-4.5c0-0.4-0.1-0.8-0.3-1
			c-0.2-0.2-0.5-0.4-0.9-0.4c-0.3,0-0.6,0.1-0.8,0.2s-0.5,0.3-0.7,0.5v5.1h-1.7v-7h1c0.2,0,0.4,0.1,0.4,0.3L144,45.6z"/>
		<path d="M150,45.7c0.8-0.7,1.8-1.1,2.9-1.1c0.4,0,0.8,0.1,1.1,0.2c0.3,0.1,0.6,0.3,0.8,0.6s0.4,0.5,0.5,0.9s0.2,0.7,0.2,1.1v4.4
			h-0.8c-0.2,0-0.3,0-0.4-0.1c-0.1,0-0.2-0.1-0.2-0.3l-0.1-0.5c-0.2,0.2-0.4,0.3-0.5,0.4c-0.2,0.1-0.3,0.2-0.5,0.3
			c-0.2,0.1-0.4,0.1-0.6,0.2c-0.2,0-0.4,0.1-0.7,0.1c-0.3,0-0.6,0-0.8-0.1c-0.3-0.1-0.5-0.2-0.6-0.4s-0.3-0.4-0.4-0.6
			c-0.1-0.2-0.1-0.5-0.1-0.8c0-0.2,0-0.4,0.1-0.5c0.1-0.2,0.2-0.3,0.3-0.5c0.1-0.2,0.3-0.3,0.5-0.5c0.2-0.1,0.5-0.3,0.8-0.4
			c0.3-0.1,0.7-0.2,1.1-0.3c0.4-0.1,0.9-0.1,1.4-0.1v-0.4c0-0.5-0.1-0.8-0.3-1c-0.2-0.2-0.5-0.3-0.9-0.3c-0.3,0-0.5,0-0.7,0.1
			c-0.2,0.1-0.3,0.1-0.5,0.2c-0.1,0.1-0.3,0.2-0.4,0.2c-0.1,0.1-0.2,0.1-0.4,0.1c-0.1,0-0.2,0-0.3-0.1s-0.1-0.1-0.2-0.2L150,45.7z
			 M153.8,48.8c-0.5,0-0.9,0.1-1.2,0.1s-0.6,0.1-0.8,0.2s-0.3,0.2-0.4,0.3c-0.1,0.1-0.1,0.3-0.1,0.4c0,0.3,0.1,0.5,0.3,0.6
			c0.2,0.1,0.4,0.2,0.7,0.2c0.3,0,0.6-0.1,0.9-0.2c0.3-0.1,0.5-0.3,0.7-0.6V48.8z"/>
	</g>
	<g class="st2">
		<path d="M158.6,46c0.2-0.4,0.5-0.7,0.8-1c0.3-0.2,0.7-0.4,1.1-0.4c0.3,0,0.6,0.1,0.8,0.2l-0.1,1.3c0,0.1-0.1,0.1-0.1,0.2
			c0,0-0.1,0.1-0.2,0.1c-0.1,0-0.2,0-0.3,0c-0.1,0-0.3,0-0.4,0c-0.2,0-0.4,0-0.5,0.1c-0.1,0.1-0.3,0.1-0.4,0.2s-0.2,0.2-0.3,0.4
			s-0.2,0.3-0.2,0.5v4.3h-1.7v-7h1c0.2,0,0.3,0,0.4,0.1s0.1,0.2,0.1,0.3L158.6,46z"/>
	</g>
	<g class="st2">
		<path d="M165.1,44.6c0.5,0,1,0.1,1.4,0.3c0.4,0.2,0.8,0.4,1.1,0.7c0.3,0.3,0.5,0.7,0.7,1.1c0.2,0.4,0.2,0.9,0.2,1.5
			c0,0.6-0.1,1.1-0.2,1.5c-0.2,0.4-0.4,0.8-0.7,1.1c-0.3,0.3-0.7,0.6-1.1,0.7c-0.4,0.2-0.9,0.3-1.4,0.3c-0.5,0-1-0.1-1.4-0.3
			c-0.4-0.2-0.8-0.4-1.1-0.7c-0.3-0.3-0.5-0.7-0.7-1.1c-0.2-0.4-0.2-0.9-0.2-1.5c0-0.6,0.1-1,0.2-1.5c0.2-0.4,0.4-0.8,0.7-1.1
			s0.7-0.5,1.1-0.7C164.1,44.7,164.5,44.6,165.1,44.6z M165.1,50.5c0.6,0,1-0.2,1.3-0.6c0.3-0.4,0.4-1,0.4-1.7
			c0-0.8-0.1-1.3-0.4-1.7c-0.3-0.4-0.7-0.6-1.3-0.6c-0.6,0-1,0.2-1.3,0.6s-0.4,1-0.4,1.7s0.1,1.3,0.4,1.7S164.5,50.5,165.1,50.5z"/>
	</g>
	<circle class="st3" cx="148.9" cy="177.8" r="41.5"/>
	<g class="st2">
		<path class="st4" d="M127.2,184.3h-1.5c-0.2,0-0.4,0-0.6-0.1c-0.2-0.1-0.3-0.2-0.5-0.3l-1.4-1.6c-0.2,0.1-0.5,0.1-0.7,0.1
			s-0.5,0-0.8,0c-0.7,0-1.4-0.1-2-0.4s-1.1-0.6-1.6-1.1c-0.4-0.5-0.8-1-1-1.6c-0.2-0.6-0.4-1.3-0.4-2s0.1-1.4,0.4-2
			c0.2-0.6,0.6-1.2,1-1.6c0.4-0.5,1-0.8,1.6-1.1s1.3-0.4,2-0.4c0.5,0,1,0.1,1.4,0.2s0.8,0.3,1.2,0.5s0.7,0.5,1,0.8
			c0.3,0.3,0.5,0.6,0.7,1c0.2,0.4,0.4,0.8,0.5,1.2s0.2,0.9,0.2,1.4c0,0.4,0,0.9-0.1,1.3s-0.2,0.8-0.4,1.1c-0.2,0.4-0.4,0.7-0.6,1
			s-0.5,0.6-0.8,0.8L127.2,184.3z M118.6,177.5c0,0.5,0.1,1,0.2,1.5s0.4,0.8,0.6,1.1c0.3,0.3,0.6,0.5,1,0.7c0.4,0.2,0.8,0.2,1.3,0.2
			s0.9-0.1,1.3-0.2c0.4-0.2,0.7-0.4,1-0.7c0.3-0.3,0.5-0.7,0.6-1.1c0.1-0.4,0.2-0.9,0.2-1.5c0-0.5-0.1-1-0.2-1.5
			c-0.1-0.4-0.4-0.8-0.6-1.1c-0.3-0.3-0.6-0.5-1-0.7c-0.4-0.2-0.8-0.2-1.3-0.2s-0.9,0.1-1.3,0.2c-0.4,0.2-0.7,0.4-1,0.7
			s-0.5,0.7-0.6,1.1S118.6,176.9,118.6,177.5z"/>
	</g>
	<g class="st2">
		<path class="st4" d="M134,175.4v7h-1c-0.2,0-0.4-0.1-0.4-0.3l-0.1-0.6c-0.3,0.3-0.6,0.5-1,0.7c-0.3,0.2-0.8,0.3-1.2,0.3
			c-0.4,0-0.7-0.1-1-0.2c-0.3-0.1-0.5-0.3-0.7-0.6c-0.2-0.2-0.4-0.5-0.5-0.8c-0.1-0.3-0.2-0.7-0.2-1.1v-4.5h1.7v4.5
			c0,0.4,0.1,0.8,0.3,1c0.2,0.2,0.5,0.4,0.9,0.4c0.3,0,0.6-0.1,0.8-0.2c0.3-0.1,0.5-0.3,0.7-0.5v-5.1H134z"/>
		<path class="st4" d="M135.5,176.4c0.8-0.7,1.8-1.1,2.9-1.1c0.4,0,0.8,0.1,1.1,0.2c0.3,0.1,0.6,0.3,0.8,0.6
			c0.2,0.2,0.4,0.5,0.5,0.9c0.1,0.3,0.2,0.7,0.2,1.1v4.4h-0.8c-0.2,0-0.3,0-0.4-0.1c-0.1,0-0.2-0.1-0.2-0.3l-0.2-0.5
			c-0.2,0.2-0.4,0.3-0.5,0.4c-0.2,0.1-0.3,0.2-0.5,0.3s-0.4,0.1-0.6,0.2c-0.2,0-0.4,0.1-0.7,0.1c-0.3,0-0.6,0-0.8-0.1
			c-0.3-0.1-0.5-0.2-0.6-0.4c-0.2-0.2-0.3-0.4-0.4-0.6c-0.1-0.2-0.2-0.5-0.2-0.8c0-0.2,0-0.4,0.1-0.5c0.1-0.2,0.2-0.3,0.3-0.5
			c0.1-0.2,0.3-0.3,0.5-0.5c0.2-0.1,0.5-0.3,0.8-0.4c0.3-0.1,0.7-0.2,1.1-0.3s0.9-0.1,1.4-0.1V178c0-0.5-0.1-0.8-0.3-1
			c-0.2-0.2-0.5-0.3-0.9-0.3c-0.3,0-0.5,0-0.7,0.1s-0.3,0.1-0.5,0.2c-0.1,0.1-0.3,0.2-0.4,0.2c-0.1,0.1-0.2,0.1-0.4,0.1
			c-0.1,0-0.2,0-0.3-0.1s-0.1-0.1-0.2-0.2L135.5,176.4z M139.4,179.4c-0.5,0-0.9,0.1-1.2,0.1s-0.6,0.1-0.8,0.2
			c-0.2,0.1-0.3,0.2-0.4,0.3c-0.1,0.1-0.1,0.3-0.1,0.4c0,0.3,0.1,0.5,0.3,0.6c0.2,0.1,0.4,0.2,0.7,0.2c0.3,0,0.6-0.1,0.9-0.2
			c0.3-0.1,0.5-0.3,0.7-0.6V179.4z"/>
		<path class="st4" d="M144.4,172.2v10.2h-1.7v-10.2H144.4z"/>
	</g>
	<g class="st2">
		<path class="st4" d="M151.1,176.9c0,0.1-0.1,0.1-0.1,0.2c0,0-0.1,0.1-0.2,0.1c-0.1,0-0.2,0-0.3-0.1c-0.1-0.1-0.2-0.1-0.3-0.2
			c-0.1-0.1-0.2-0.1-0.4-0.2c-0.2-0.1-0.4-0.1-0.6-0.1c-0.3,0-0.6,0.1-0.8,0.2c-0.2,0.1-0.4,0.3-0.6,0.5c-0.1,0.2-0.3,0.4-0.3,0.7
			c-0.1,0.3-0.1,0.6-0.1,1c0,0.4,0,0.7,0.1,1c0.1,0.3,0.2,0.5,0.3,0.7s0.3,0.3,0.5,0.5s0.5,0.2,0.7,0.2c0.3,0,0.5,0,0.7-0.1
			c0.2-0.1,0.3-0.1,0.4-0.2c0.1-0.1,0.2-0.2,0.3-0.2c0.1-0.1,0.2-0.1,0.3-0.1c0.1,0,0.2,0.1,0.3,0.2l0.5,0.6
			c-0.2,0.2-0.4,0.4-0.6,0.6c-0.2,0.1-0.4,0.3-0.7,0.4c-0.2,0.1-0.5,0.2-0.7,0.2c-0.2,0-0.5,0.1-0.7,0.1c-0.4,0-0.8-0.1-1.2-0.2
			c-0.4-0.2-0.7-0.4-1-0.7s-0.5-0.7-0.7-1.1c-0.2-0.4-0.2-1-0.2-1.5c0-0.5,0.1-1,0.2-1.4c0.1-0.4,0.4-0.8,0.7-1.1s0.6-0.6,1.1-0.8
			s0.9-0.3,1.5-0.3c0.5,0,1,0.1,1.4,0.3c0.4,0.2,0.7,0.4,1.1,0.7L151.1,176.9z"/>
	</g>
	<g class="st2">
		<path class="st4" d="M155.6,175.3c0.5,0,1,0.1,1.4,0.3s0.8,0.4,1.1,0.7c0.3,0.3,0.5,0.7,0.7,1.1c0.2,0.4,0.2,0.9,0.2,1.5
			c0,0.6-0.1,1.1-0.2,1.5c-0.2,0.4-0.4,0.8-0.7,1.1c-0.3,0.3-0.7,0.6-1.1,0.7s-0.9,0.3-1.4,0.3c-0.5,0-1-0.1-1.4-0.3
			c-0.4-0.2-0.8-0.4-1.1-0.7c-0.3-0.3-0.5-0.7-0.7-1.1c-0.2-0.4-0.2-0.9-0.2-1.5c0-0.6,0.1-1,0.2-1.5c0.2-0.4,0.4-0.8,0.7-1.1
			c0.3-0.3,0.7-0.5,1.1-0.7C154.6,175.4,155.1,175.3,155.6,175.3z M155.6,181.2c0.6,0,1-0.2,1.3-0.6c0.3-0.4,0.4-1,0.4-1.7
			c0-0.8-0.1-1.3-0.4-1.7s-0.7-0.6-1.3-0.6c-0.6,0-1,0.2-1.3,0.6c-0.3,0.4-0.4,1-0.4,1.7c0,0.8,0.1,1.3,0.4,1.7
			C154.6,181,155,181.2,155.6,181.2z"/>
		<path class="st4" d="M160.4,182.4v-7h1c0.2,0,0.4,0.1,0.4,0.3l0.1,0.5c0.1-0.1,0.3-0.3,0.4-0.4c0.1-0.1,0.3-0.2,0.4-0.3
			c0.2-0.1,0.3-0.1,0.5-0.2c0.2,0,0.4-0.1,0.6-0.1c0.4,0,0.8,0.1,1.1,0.4s0.5,0.6,0.6,1c0.1-0.2,0.2-0.4,0.4-0.6
			c0.2-0.2,0.3-0.3,0.5-0.4c0.2-0.1,0.4-0.2,0.6-0.2c0.2,0,0.4-0.1,0.7-0.1c0.4,0,0.7,0.1,1,0.2s0.6,0.3,0.8,0.5s0.4,0.5,0.5,0.8
			c0.1,0.3,0.2,0.7,0.2,1.1v4.5h-1.7v-4.5c0-0.4-0.1-0.8-0.3-1s-0.5-0.3-0.9-0.3c-0.2,0-0.3,0-0.5,0.1c-0.1,0.1-0.3,0.1-0.4,0.3
			c-0.1,0.1-0.2,0.3-0.3,0.4c-0.1,0.2-0.1,0.4-0.1,0.6v4.5h-1.7v-4.5c0-0.5-0.1-0.8-0.3-1s-0.5-0.3-0.8-0.3c-0.2,0-0.5,0.1-0.7,0.2
			c-0.2,0.1-0.4,0.3-0.6,0.5v5.1H160.4z"/>
		<path class="st4" d="M171.8,182.4v-7h1c0.2,0,0.4,0.1,0.4,0.3l0.1,0.5c0.1-0.1,0.3-0.3,0.4-0.4c0.1-0.1,0.3-0.2,0.4-0.3
			c0.2-0.1,0.3-0.1,0.5-0.2c0.2,0,0.4-0.1,0.6-0.1c0.4,0,0.8,0.1,1.1,0.4s0.5,0.6,0.6,1c0.1-0.2,0.2-0.4,0.4-0.6
			c0.2-0.2,0.3-0.3,0.5-0.4c0.2-0.1,0.4-0.2,0.6-0.2c0.2,0,0.4-0.1,0.7-0.1c0.4,0,0.7,0.1,1,0.2s0.6,0.3,0.8,0.5s0.4,0.5,0.5,0.8
			c0.1,0.3,0.2,0.7,0.2,1.1v4.5H180v-4.5c0-0.4-0.1-0.8-0.3-1s-0.5-0.3-0.9-0.3c-0.2,0-0.3,0-0.5,0.1c-0.1,0.1-0.3,0.1-0.4,0.3
			c-0.1,0.1-0.2,0.3-0.3,0.4c-0.1,0.2-0.1,0.4-0.1,0.6v4.5h-1.7v-4.5c0-0.5-0.1-0.8-0.3-1s-0.5-0.3-0.8-0.3c-0.2,0-0.5,0.1-0.7,0.2
			c-0.2,0.1-0.4,0.3-0.6,0.5v5.1H171.8z"/>
	</g>
	<circle class="st5" cx="253.8" cy="115.1" r="41.5"/>
	<g class="st2">
		<path class="st4" d="M240.3,109.8v9.9h-1.8v-4.3h-4.6v4.3H232v-9.9h1.8v4.3h4.6v-4.3H240.3z"/>
	</g>
	<g class="st2">
		<path class="st4" d="M248.1,112.6v7h-1c-0.2,0-0.4-0.1-0.4-0.3l-0.1-0.6c-0.3,0.3-0.6,0.5-1,0.7c-0.3,0.2-0.8,0.3-1.2,0.3
			c-0.4,0-0.7-0.1-1-0.2c-0.3-0.1-0.5-0.3-0.7-0.6s-0.4-0.5-0.5-0.8c-0.1-0.3-0.2-0.7-0.2-1.1v-4.5h1.7v4.5c0,0.4,0.1,0.8,0.3,1
			c0.2,0.2,0.5,0.4,0.9,0.4c0.3,0,0.6-0.1,0.8-0.2c0.3-0.1,0.5-0.3,0.7-0.5v-5.1H248.1z"/>
	</g>
	<g class="st2">
		<path class="st4" d="M249.6,113.6c0.8-0.7,1.8-1.1,2.9-1.1c0.4,0,0.8,0.1,1.1,0.2c0.3,0.1,0.6,0.3,0.8,0.6
			c0.2,0.2,0.4,0.5,0.5,0.9c0.1,0.3,0.2,0.7,0.2,1.1v4.4h-0.8c-0.2,0-0.3,0-0.4-0.1c-0.1,0-0.2-0.1-0.2-0.3l-0.2-0.5
			c-0.2,0.2-0.4,0.3-0.5,0.4c-0.2,0.1-0.3,0.2-0.5,0.3c-0.2,0.1-0.4,0.1-0.6,0.2c-0.2,0-0.4,0.1-0.7,0.1c-0.3,0-0.6,0-0.8-0.1
			s-0.5-0.2-0.6-0.4c-0.2-0.2-0.3-0.4-0.4-0.6s-0.2-0.5-0.2-0.8c0-0.2,0-0.4,0.1-0.5s0.2-0.3,0.3-0.5c0.1-0.2,0.3-0.3,0.5-0.5
			s0.5-0.3,0.8-0.4c0.3-0.1,0.7-0.2,1.1-0.3c0.4-0.1,0.9-0.1,1.4-0.1v-0.4c0-0.5-0.1-0.8-0.3-1c-0.2-0.2-0.5-0.3-0.9-0.3
			c-0.3,0-0.5,0-0.7,0.1c-0.2,0.1-0.3,0.1-0.5,0.2s-0.3,0.2-0.4,0.2c-0.1,0.1-0.2,0.1-0.4,0.1c-0.1,0-0.2,0-0.3-0.1
			c-0.1-0.1-0.1-0.1-0.2-0.2L249.6,113.6z M253.5,116.7c-0.5,0-0.9,0.1-1.2,0.1c-0.3,0.1-0.6,0.1-0.8,0.2s-0.3,0.2-0.4,0.3
			c-0.1,0.1-0.1,0.3-0.1,0.4c0,0.3,0.1,0.5,0.3,0.6c0.2,0.1,0.4,0.2,0.7,0.2c0.3,0,0.6-0.1,0.9-0.2s0.5-0.3,0.7-0.6V116.7z"/>
	</g>
	<g class="st2">
		<path class="st4" d="M266.7,112.6l-2.2,7h-1.4c-0.2,0-0.3-0.1-0.3-0.3l-1.3-4.1c0-0.1-0.1-0.3-0.1-0.4s-0.1-0.3-0.1-0.4
			c0,0.1-0.1,0.3-0.1,0.4c0,0.1-0.1,0.3-0.1,0.4l-1.3,4c-0.1,0.2-0.2,0.3-0.4,0.3h-1.3l-2.2-7h1.3c0.1,0,0.2,0,0.3,0.1
			s0.1,0.1,0.2,0.2l1,3.7c0,0.2,0.1,0.4,0.1,0.6c0,0.2,0.1,0.4,0.1,0.6c0-0.2,0.1-0.4,0.2-0.6c0.1-0.2,0.1-0.4,0.2-0.6l1.2-3.8
			c0-0.1,0.1-0.2,0.2-0.2s0.2-0.1,0.3-0.1h0.7c0.1,0,0.2,0,0.3,0.1c0.1,0.1,0.1,0.1,0.2,0.2l1.1,3.8c0.1,0.2,0.1,0.4,0.2,0.6
			c0.1,0.2,0.1,0.4,0.2,0.6c0.1-0.4,0.1-0.8,0.3-1.2l1-3.7c0-0.1,0.1-0.2,0.2-0.2s0.2-0.1,0.3-0.1H266.7z"/>
	</g>
	<g class="st2">
		<path class="st4" d="M268.8,116.4c0,0.4,0.1,0.7,0.2,0.9c0.1,0.3,0.2,0.5,0.4,0.7c0.2,0.2,0.4,0.3,0.6,0.4
			c0.2,0.1,0.5,0.1,0.7,0.1s0.5,0,0.7-0.1c0.2-0.1,0.4-0.1,0.5-0.2c0.1-0.1,0.3-0.1,0.4-0.2c0.1-0.1,0.2-0.1,0.3-0.1
			c0.1,0,0.2,0.1,0.3,0.2l0.5,0.6c-0.2,0.2-0.4,0.4-0.6,0.6c-0.2,0.1-0.5,0.3-0.7,0.4c-0.3,0.1-0.5,0.2-0.8,0.2
			c-0.3,0-0.5,0.1-0.8,0.1c-0.5,0-0.9-0.1-1.4-0.2c-0.4-0.2-0.8-0.4-1.1-0.7c-0.3-0.3-0.6-0.7-0.7-1.2s-0.3-1-0.3-1.6
			c0-0.5,0.1-0.9,0.2-1.3c0.2-0.4,0.4-0.8,0.7-1.1c0.3-0.3,0.6-0.6,1.1-0.7s0.9-0.3,1.4-0.3c0.4,0,0.8,0.1,1.2,0.2s0.7,0.3,1,0.6
			c0.3,0.3,0.5,0.6,0.6,1c0.2,0.4,0.2,0.8,0.2,1.3c0,0.3,0,0.4-0.1,0.5c-0.1,0.1-0.2,0.1-0.3,0.1H268.8z M272.1,115.3
			c0-0.2,0-0.4-0.1-0.6c-0.1-0.2-0.2-0.4-0.3-0.5c-0.1-0.1-0.3-0.3-0.5-0.3c-0.2-0.1-0.4-0.1-0.7-0.1c-0.5,0-0.9,0.1-1.2,0.4
			c-0.3,0.3-0.5,0.7-0.5,1.2H272.1z"/>
		<path class="st4" d="M276.8,110.6c0,0.1,0,0.3-0.1,0.4c-0.1,0.1-0.1,0.2-0.2,0.3s-0.2,0.2-0.3,0.2c-0.1,0.1-0.3,0.1-0.4,0.1
			c-0.1,0-0.3,0-0.4-0.1c-0.1-0.1-0.2-0.1-0.3-0.2s-0.2-0.2-0.2-0.3c-0.1-0.1-0.1-0.3-0.1-0.4c0-0.2,0-0.3,0.1-0.4
			c0.1-0.1,0.1-0.2,0.2-0.3s0.2-0.2,0.3-0.2s0.3-0.1,0.4-0.1c0.1,0,0.3,0,0.4,0.1c0.1,0.1,0.2,0.1,0.3,0.2s0.2,0.2,0.2,0.3
			C276.8,110.3,276.8,110.5,276.8,110.6z M276.6,112.6v7h-1.7v-7H276.6z"/>
	</g>
	<circle class="st6" cx="46.2" cy="113.3" r="41.5"/>
	<g class="st2">
		<path class="st4" d="M43.2,117.9h-1.4c-0.2,0-0.3,0-0.4-0.1c-0.1-0.1-0.2-0.2-0.2-0.3l-0.7-2h-4.1l-0.7,2c0,0.1-0.1,0.2-0.2,0.3
			c-0.1,0.1-0.2,0.1-0.4,0.1h-1.4l3.9-9.9h1.9L43.2,117.9z M40,114.2l-1.2-3.3c-0.1-0.1-0.1-0.3-0.2-0.5c-0.1-0.2-0.1-0.4-0.2-0.6
			c-0.1,0.2-0.1,0.5-0.2,0.7c-0.1,0.2-0.1,0.4-0.2,0.5l-1.2,3.3H40z"/>
	</g>
	<g class="st2">
		<path class="st4" d="M45.5,112.1c0.2-0.4,0.5-0.7,0.8-1s0.7-0.4,1.1-0.4c0.3,0,0.6,0.1,0.8,0.2l-0.1,1.3c0,0.1-0.1,0.1-0.1,0.2
			c0,0-0.1,0.1-0.2,0.1c-0.1,0-0.2,0-0.3,0c-0.1,0-0.3,0-0.4,0c-0.2,0-0.4,0-0.5,0.1s-0.3,0.1-0.4,0.2s-0.2,0.2-0.3,0.4
			c-0.1,0.1-0.2,0.3-0.2,0.5v4.3h-1.7v-7h1c0.2,0,0.3,0,0.4,0.1s0.1,0.2,0.1,0.3L45.5,112.1z"/>
		<path class="st4" d="M49,117.9v-7h1c0.2,0,0.4,0.1,0.4,0.3l0.1,0.5c0.1-0.1,0.3-0.3,0.4-0.4s0.3-0.2,0.4-0.3s0.3-0.1,0.5-0.2
			s0.4-0.1,0.6-0.1c0.4,0,0.8,0.1,1.1,0.4c0.3,0.2,0.5,0.6,0.6,1c0.1-0.2,0.2-0.4,0.4-0.6c0.2-0.2,0.3-0.3,0.5-0.4s0.4-0.2,0.6-0.2
			c0.2,0,0.4-0.1,0.7-0.1c0.4,0,0.7,0.1,1,0.2s0.6,0.3,0.8,0.5s0.4,0.5,0.5,0.8s0.2,0.7,0.2,1.1v4.5h-1.7v-4.5c0-0.4-0.1-0.8-0.3-1
			c-0.2-0.2-0.5-0.3-0.9-0.3c-0.2,0-0.3,0-0.5,0.1c-0.1,0.1-0.3,0.1-0.4,0.3c-0.1,0.1-0.2,0.3-0.3,0.4c-0.1,0.2-0.1,0.4-0.1,0.6v4.5
			h-1.7v-4.5c0-0.5-0.1-0.8-0.3-1c-0.2-0.2-0.5-0.3-0.8-0.3c-0.2,0-0.5,0.1-0.7,0.2c-0.2,0.1-0.4,0.3-0.6,0.5v5.1H49z"/>
	</g>
</g>
</svg>
