<svg xmlns="http://www.w3.org/2000/svg" viewBox="0 0 61.51 50.44"><g id="map"><path d="M59.36,2.66a.49.49,0,0,0-.5-.49H53.29v6h5.58a.51.51,0,0,0,.5-.5ZM53.85,7.57V2.73H58.8V7.57Z"/><polygon points="34.9 15.69 34.9 17.43 31.41 17.43 31.41 16.87 34.33 16.87 34.33 16.26 31.41 16.26 31.41 15.69 34.9 15.69"/><path d="M58.87,13H53.29v6h5.58a.51.51,0,0,0,.5-.5v-5A.51.51,0,0,0,58.87,13Zm-.07,5.41H53.85V13.59H58.8Z"/><path d="M58.87,23.91H53.29v6h5.58a.5.5,0,0,0,.35-.14.49.49,0,0,0,.15-.35v-5A.5.5,0,0,0,58.87,23.91Zm-.07,5.41H53.85V24.48H58.8Z"/><path d="M40.88,31.47v3l-.17.07a4.42,4.42,0,0,0-2.18,1.91l-.09.15h-1V36h.72a5,5,0,0,1,2.2-1.94V32H37.4v-.57Z"/><polygon points="40.88 20.59 40.88 22.33 37.4 22.33 37.4 21.76 40.32 21.76 40.32 21.15 37.4 21.15 37.4 20.59 40.88 20.59"/><path d="M44.64,10.27v.61H58.87a2.66,2.66,0,0,1,1.87.78,2.62,2.62,0,0,1,.77,1.87v5a2.63,2.63,0,0,1-2.64,2.64H44.64v.61H58.87a2.64,2.64,0,0,1,1.87.78,2.62,2.62,0,0,1,.77,1.87v5A2.64,2.64,0,0,1,58.87,32H44.64v2.13A5.23,5.23,0,0,1,46.7,36H60.16a1.36,1.36,0,0,1,1.35,1.36V40a1.36,1.36,0,0,1-1.35,1.36H46.7a5,5,0,0,1-8.58,0H25.75A1.36,1.36,0,0,1,24.39,40v-.41H25V40a.8.8,0,0,0,.8.79H38.44l.09.14a4.47,4.47,0,0,0,7.76,0l.09-.14H60.16A.79.79,0,0,0,61,40V37.39a.79.79,0,0,0-.79-.79H46.38l-.09-.15a4.46,4.46,0,0,0-2-1.85l-.18-.08V31.46h14.8A2.08,2.08,0,0,0,61,29.39v-5a2.06,2.06,0,0,0-.61-1.47,2,2,0,0,0-1.47-.61H44.07V20.59h14.8A2.08,2.08,0,0,0,61,18.51v-5a2.08,2.08,0,0,0-2.08-2.08H44.07V9.71h14.8A2.08,2.08,0,0,0,61,7.63v-5A2.08,2.08,0,0,0,58.86.56H27a2.09,2.09,0,0,0-2.09,2.08V6.47h-.56V2.65A2.65,2.65,0,0,1,27,0H58.87a2.66,2.66,0,0,1,1.87.78,2.62,2.62,0,0,1,.77,1.87v5a2.64,2.64,0,0,1-2.64,2.64Z"/><path d="M36.58,44.39a1.07,1.07,0,0,0-1.07-1.08H21.89a4.81,4.81,0,0,0-2.18-2V38.75H34.22a2.36,2.36,0,0,0,2.36-2.36v-5A2.37,2.37,0,0,0,34.22,29H19.71V27.87H34.22a2.36,2.36,0,0,0,2.36-2.36v-5a2.37,2.37,0,0,0-2.36-2.37H19.71V17H34.22a2.37,2.37,0,0,0,2.36-2.37v-5a2.37,2.37,0,0,0-2.36-2.37H2.36A2.36,2.36,0,0,0,0,9.65v5A2.36,2.36,0,0,0,2.36,17H16v1.18H2.36A2.36,2.36,0,0,0,0,20.53v5a2.36,2.36,0,0,0,2.36,2.36H16v1.18H2.36A2.36,2.36,0,0,0,0,31.41v5a2.36,2.36,0,0,0,2.36,2.36H16v2.52a4.78,4.78,0,0,0-2.32,2H1.1A1.07,1.07,0,0,0,0,44.39V47A1.07,1.07,0,0,0,1.1,48H13.63a4.75,4.75,0,0,0,8.26,0H35.51A1.07,1.07,0,0,0,36.58,47Zm-2.36-13.2a.21.21,0,0,1,.21.22v5a.21.21,0,0,1-.21.21h-5.3V31.19Zm0-10.88a.22.22,0,0,1,.21.22v5a.21.21,0,0,1-.21.21h-5.3V20.31Zm0-10.88a.22.22,0,0,1,.21.22v5a.22.22,0,0,1-.21.21h-5.3V9.43Z"/></g></svg>