<svg xmlns="http://www.w3.org/2000/svg" viewBox="0 0 63.63 41.38"><g id="map"><path d="M49.93,12.75A18.73,18.73,0,0,0,32.13,0a19.47,19.47,0,0,0-18.2,12.75A14.61,14.61,0,0,0,0,27.05,14,14,0,0,0,14.08,41.38H49.33a14.51,14.51,0,0,0,14.3-14.33A14,14,0,0,0,49.93,12.75ZM6.41,34.43a.86.86,0,0,1-1.72,0,12,12,0,0,1,.94-4.66A11.29,11.29,0,0,1,8.19,26,11.54,11.54,0,0,1,12,23.42a12,12,0,0,1,9.31,0,10,10,0,0,1,1.88,1l-1.85.92a9.36,9.36,0,0,0-4.66-1.19A10.27,10.27,0,0,0,6.41,34.43Zm13.08,2A4,4,0,1,1,15.05,30l10.3-5.06L20.3,35.21A3.89,3.89,0,0,1,19.49,36.39Zm8.29-1.1a.86.86,0,0,1-.87-.86,10.21,10.21,0,0,0-1.82-5.84L26,26.84a12.27,12.27,0,0,1,1.74,2.9,12.13,12.13,0,0,1,.95,4.69A.85.85,0,0,1,27.78,35.29Zm7.37-11.61H30c-.79,0-1.2-.36-.91-1l3-5.91c.3-.64.77-.6,1.06.05l2.9,5.83C36.36,23.3,35.94,23.68,35.15,23.68Zm-5.62-11.5a3,3,0,1,1,3,3A3,3,0,0,1,29.53,12.18Zm7,5.62,0,0a.62.62,0,0,1-.35.1.65.65,0,0,1-.65-.64.67.67,0,0,1,.25-.52l0,0h0a5.61,5.61,0,1,0-6.52,0h0v0a.63.63,0,0,1,.25.5.65.65,0,0,1-1,.52h0a6.92,6.92,0,1,1,8,0Zm1.64,2.86h0a.72.72,0,0,1-.36.1.64.64,0,0,1-.65-.64.66.66,0,0,1,.29-.54h0a8.9,8.9,0,1,0-9.86,0h0a.65.65,0,0,1-.73,1.07h0a10.2,10.2,0,1,1,11.31,0Zm13.23,15A1.62,1.62,0,0,1,50,37.51a1.44,1.44,0,0,1-1.35,1.08,1.58,1.58,0,0,1-1.46-1.08,1.72,1.72,0,0,1-1.56-1.82V34.41h5.79Zm1.07-4.58a3.18,3.18,0,0,0-1.06,2.34h-5.8a3,3,0,0,0-1.16-2.34,6.71,6.71,0,0,1-2.71-5.71,6.85,6.85,0,0,1,6.67-6.48,6.74,6.74,0,0,1,6.86,6.77A6.48,6.48,0,0,1,52.49,31.11Z"/></g></svg>