<svg xmlns="http://www.w3.org/2000/svg" viewBox="0 0 65.77 52.5"><defs><style>.cls-1{fill:none;}.cls-1,.cls-2{stroke:#000;stroke-miterlimit:10;stroke-width:0.87px;}</style></defs><g id="map"><polygon class="cls-1" points="4.88 18.91 0.51 26.5 4.88 34.08 13.64 34.08 18.02 26.5 13.64 18.91 4.88 18.91"/><polygon class="cls-2" points="20.77 9.55 16.39 17.14 20.77 24.72 29.53 24.72 33.91 17.14 29.53 9.55 20.77 9.55"/><polygon class="cls-1" points="20.77 28.08 16.39 35.67 20.77 43.25 29.53 43.25 33.91 35.67 29.53 28.08 20.77 28.08"/><polygon class="cls-1" points="36.34 18.91 31.96 26.5 36.34 34.08 45.1 34.08 49.48 26.5 45.1 18.91 36.34 18.91"/><polygon class="cls-1" points="36.34 36.89 31.96 44.48 36.34 52.06 45.1 52.06 49.48 44.48 45.1 36.89 36.34 36.89"/><polygon class="cls-1" points="36.34 0.44 31.96 8.02 36.34 15.61 45.1 15.61 49.48 8.02 45.1 0.44 36.34 0.44"/><polygon class="cls-1" points="52.13 9.55 47.75 17.14 52.13 24.72 60.89 24.72 65.27 17.14 60.89 9.55 52.13 9.55"/><polygon class="cls-1" points="52.13 28.02 47.75 35.61 52.13 43.2 60.89 43.2 65.27 35.61 60.89 28.02 52.13 28.02"/></g></svg>