<svg xmlns="http://www.w3.org/2000/svg" viewBox="0 0 48.1 54.4"><defs><style>.cls-1,.cls-3{fill:none;}.cls-1,.cls-2,.cls-3,.cls-4{stroke:#000;stroke-miterlimit:10;}.cls-1{stroke-width:0.49px;}.cls-2{stroke-width:0;}.cls-3,.cls-4{stroke-width:0.98px;}</style></defs><g id="map"><line class="cls-1" x1="12.62" y1="14.82" x2="15.34" y2="15.12"/><circle class="cls-1" cx="11.82" cy="14.73" r="0.81"/><line class="cls-1" x1="16.8" y1="9.69" x2="16.5" y2="12.42"/><polyline class="cls-1" points="18.92 12.42 19.29 9.01 20.91 6.97 21.18 4.47"/><ellipse class="cls-1" cx="16.88" cy="8.89" rx="0.81" ry="0.82" transform="translate(6.22 24.71) rotate(-83.8)"/><line class="cls-1" x1="21.28" y1="10.1" x2="20.6" y2="16.35"/><ellipse class="cls-1" cx="21.37" cy="9.29" rx="0.81" ry="0.82" transform="translate(9.82 29.54) rotate(-83.8)"/><ellipse class="cls-1" cx="21.17" cy="3.88" rx="0.81" ry="0.82" transform="translate(15.03 24.5) rotate(-83.8)"/><polyline class="cls-1" points="23.24 13.19 23.61 9.78 25.22 7.74 25.49 5.24"/><ellipse class="cls-1" cx="25.48" cy="4.65" rx="0.81" ry="0.82" transform="translate(18.11 29.48) rotate(-83.8)"/><polyline class="cls-1" points="15.05 12.84 11.65 12.47 9.31 13.58 6.8 13.3"/><circle class="cls-1" cx="6.06" cy="13.22" r="0.81"/><polyline class="cls-1" points="24.05 14.37 27.41 14.73 29.73 13.63 32.2 13.9"/><line class="cls-1" x1="27.07" y1="16.7" x2="20.89" y2="16.02"/><circle class="cls-1" cx="27.86" cy="16.78" r="0.8"/><circle class="cls-1" cx="32.94" cy="13.98" r="0.8"/><line class="cls-1" x1="12.73" y1="19.34" x2="18.98" y2="20.02"/><circle class="cls-1" cx="11.93" cy="19.26" r="0.81"/><polyline class="cls-1" points="23.81 18.54 27.18 18.91 29.49 17.81 31.96 18.08"/><circle class="cls-1" cx="32.7" cy="18.16" r="0.8"/><path class="cls-2" d="M32.93,3.11a8,8,0,0,1,4,7.83l-1.5,13.72a3.45,3.45,0,0,1-3.8,3.05l-1,9.42a3.43,3.43,0,0,1,3.05,3.79l-.88,8.14c2.06.41,4.13.82,6.22,1.06,3.8.44,5.79-2.08,4.65-5.72a2.12,2.12,0,0,1,.45-2.23c.81-.93.79-1.37,0-2.31,1-.7,1.08-1.2.69-2.4a18.76,18.76,0,0,1-.47-2.06c.81-.19,1.44-.32,2.05-.48,1-.25,1.36-.8,1.06-1.8a10.12,10.12,0,0,0-.79-1.82c-1.15-2.15-2.33-4.28-3.54-6.48,1.71-1.56,1.89-3.42,1.38-5.47a29,29,0,0,0-3-7.44A22.37,22.37,0,0,0,32.93,3.11Z"/><rect class="cls-3" x="9.45" y="48.99" width="11.77" height="4.22" transform="translate(5.75 -1.38) rotate(6.36)"/><rect class="cls-3" x="10.09" y="43.3" width="11.77" height="4.22" transform="translate(5.13 -1.49) rotate(6.36)"/><path class="cls-3" d="M43.18,24.82c1.21,2.2,2.39,4.33,3.54,6.48a10.12,10.12,0,0,1,.79,1.82c.3,1,0,1.55-1.06,1.8-.61.16-1.24.29-2.05.48.15.71.25,1.4.46,2.06.4,1.2.29,1.7-.68,2.4.79.94.81,1.38,0,2.31a2.1,2.1,0,0,0-.45,2.23c1.14,3.64-.85,6.16-4.65,5.72-2.88-.34-5.73-1-8.58-1.52-.22,0-.45-.36-.57-.6q-2.71-5.11-5.39-10.27a1.34,1.34,0,0,0-1.21-.85c-5-.5-10.09-1.06-15.13-1.56a4.72,4.72,0,0,1-3.81-2.09c-4.11-6.52-5.28-13.41-2-20.59C5.32,6.18,10.56,2.43,17.46,1A22.83,22.83,0,0,1,30.69,2a21.73,21.73,0,0,1,10.87,9.91,29.31,29.31,0,0,1,3,7.44C45.07,21.4,44.89,23.26,43.18,24.82Z"/><rect class="cls-3" x="10.72" y="37.6" width="11.77" height="4.22" transform="translate(4.5 -1.6) rotate(6.36)"/><rect class="cls-4" x="14.97" y="12.67" width="8.66" height="8.66" transform="translate(1.95 -1.99) rotate(6.2)"/><polyline class="cls-1" points="15.05 17.26 11.65 16.89 9.31 18 6.8 17.73"/><circle class="cls-1" cx="6.06" cy="17.65" r="0.81"/><line class="cls-1" x1="26.12" y1="21.01" x2="23.42" y2="20.72"/><circle class="cls-1" cx="26.91" cy="21.1" r="0.8"/><line class="cls-1" x1="15.51" y1="21.26" x2="13.88" y2="35.77"/><line class="cls-1" x1="17.7" y1="21.5" x2="16.07" y2="36"/><line class="cls-1" x1="19.87" y1="21.73" x2="18.25" y2="36.24"/><line class="cls-1" x1="22.18" y1="21.98" x2="20.56" y2="36.49"/></g></svg>