<?xml version="1.0" encoding="UTF-8"?>
<svg id="Layer_1" data-name="Layer 1" xmlns="http://www.w3.org/2000/svg" viewBox="0 0 344.47 106.16">
  <defs>
    <style>
      .cls-1 {
        fill: #020202;
      }

      .cls-1, .cls-2 {
        stroke-width: 0px;
      }

      .cls-2 {
        fill: #ec0108;
      }
    </style>
  </defs>
  <path class="cls-1" d="M50.25,17.54c.83.26,1.7.21,2.55.35,13.3,2.2,22.83,9.41,28.02,21.8,8.39,20.01-3.47,42.87-24.62,47.94-19.2,4.6-38.64-7.39-43.04-26.56-.37-1.6-.62-3.22-.77-4.86-.01-.13.06-.3-.13-.37v-5.49c.19-.08.11-.25.13-.38.12-1.14.26-2.27.47-3.39,2.84-15.06,14.98-26.64,30.1-28.7.77-.1,1.56-.06,2.3-.34h5ZM15.59,53.06c-.02,17.76,14.39,32.19,32.19,32.23,17.85.05,32.35-14.38,32.36-32.2.02-17.77-14.4-32.19-32.2-32.21-17.9-.02-32.34,14.34-32.36,32.18Z"/>
  <path class="cls-2" d="M149.15,51.97c1.16.44,2.19.86,3.13,1.47,4.03,2.57,5.61,6.33,5.26,10.96-.43,5.71-4.82,9.9-10.29,11.42-1.54.42-3.1.59-4.69.59-7.64,0-15.29,0-22.93.02-.58,0-.67-.18-.67-.7.01-15.18.01-30.36,0-45.54,0-.52.08-.7.66-.69,7.27.03,14.54.01,21.81.03,2.85,0,5.59.52,8.12,1.89,3.58,1.95,5.46,5.04,5.95,9.04.25,2.01.15,3.98-.64,5.88-1.09,2.62-2.97,4.47-5.71,5.65ZM135.42,66.57c1.27,0,2.54,0,3.81,0,.77,0,1.54-.08,2.29-.25,1.49-.35,2.71-1.07,3.28-2.58.99-2.62-.2-5.1-2.86-5.96-.47-.15-.97-.27-1.46-.31-3.18-.26-6.37-.05-9.55-.13-.38,0-.38.19-.38.46,0,2.76.01,5.53,0,8.29,0,.39.13.48.5.48,1.46-.02,2.91,0,4.37,0ZM135.33,39.23c-1.44,0-2.87.02-4.31-.01-.44,0-.55.11-.55.55,0,2.51-.02,5.03-.08,7.54-.01.55.17.65.67.64,1.71-.03,3.41,0,5.12-.01,1.16,0,2.33.07,3.49-.06,2.31-.24,3.95-2.32,3.81-4.81-.12-2.15-1.98-3.83-4.22-3.84-1.31,0-2.62,0-3.93,0Z"/>
  <path class="cls-2" d="M332.2,52.93c0,7.59,0,15.18.01,22.77,0,.54-.12.69-.67.68-3.69-.03-7.37-.03-11.06,0-.53,0-.65-.16-.64-.66.02-5.74,0-11.48.02-17.22,0-.51-.12-.65-.65-.65-4.33.02-8.66.02-13,0-.53,0-.64.15-.64.66.02,5.74,0,11.48.02,17.22,0,.51-.1.66-.64.66-3.71-.03-7.41-.02-11.12,0-.45,0-.6-.1-.6-.58.01-15.24.01-30.48,0-45.73,0-.48.14-.58.6-.58,3.73.02,7.46.02,11.18,0,.46,0,.58.11.58.58-.02,5.34,0,10.69-.02,16.03,0,.51.1.66.64.65,4.33-.02,8.66-.02,13,0,.51,0,.65-.1.65-.64-.02-5.32,0-10.65-.03-15.97,0-.51.11-.66.64-.66,3.71.02,7.41.02,11.12,0,.48,0,.61.11.61.61-.02,7.61-.01,15.22-.01,22.83Z"/>
  <path class="cls-2" d="M204.6,52.85c-.05,5.13-1,10.04-3.65,14.5-3.37,5.69-8.35,9.01-14.94,9.84-4.8.6-9.38-.07-13.61-2.51-4.53-2.61-7.51-6.52-9.18-11.4-2.66-7.78-2.52-15.54.91-23.06,2.55-5.6,6.77-9.52,12.81-11.08,7.48-1.92,14.44-.83,20.32,4.52,3.45,3.13,5.38,7.17,6.47,11.64.27,1.09.47,2.19.6,3.31.17,1.4.28,2.81.27,4.23ZM193.08,52.9c-.03-1.71-.17-3.4-.61-5.06-.7-2.63-1.87-4.98-4.15-6.62-4.68-3.36-11.19-1.56-13.69,3.85-1.94,4.21-1.99,8.61-.92,13.05.59,2.46,1.75,4.61,3.75,6.24,3.43,2.79,10.41,2.91,13.64-2.93,1.47-2.66,1.92-5.54,1.98-8.53Z"/>
  <path class="cls-2" d="M225.98,77.33c-4.08-.04-7.91-.64-11.51-2.39-2.99-1.46-5.42-3.6-7.57-6.1-.25-.29-.11-.41.08-.6,2.27-2.23,4.54-4.47,6.79-6.72.31-.31.44-.25.69.05,2.21,2.68,4.94,4.55,8.37,5.3,2.02.44,4.05.56,6.05-.06,1.68-.52,2.97-1.5,3.39-3.31.41-1.76-.22-3.24-1.8-4.12-1.6-.89-3.38-1.26-5.14-1.66-3.1-.69-6.24-1.25-9.09-2.76-3.26-1.72-5.73-4.15-6.76-7.77-1.84-6.47.31-14.03,8.33-17.35,7.34-3.04,18.38-2.14,25.18,5.23.41.44.4.64-.02,1.05-2.15,2.08-4.28,4.19-6.4,6.32-.32.32-.47.35-.81,0-2.67-2.68-5.91-4.01-9.71-3.93-1.14.02-2.21.34-3.21.9-2.31,1.31-2.96,4.87,0,6.48,1.54.84,3.22,1.21,4.9,1.59,2.85.65,5.75,1.15,8.49,2.24,3.32,1.32,6.05,3.32,7.25,6.82,2.1,6.07.9,13.78-6.43,17.99-3.46,1.98-7.22,2.81-11.05,2.79Z"/>
  <path class="cls-2" d="M270.29,77.48c-9.23-.16-15.85-4.47-19.51-12.88-3.46-7.95-3.46-16.13.09-24.07,3.27-7.31,9.1-11.29,17.1-12.03,3.81-.35,7.52.03,11.05,1.6,3.9,1.74,6.73,4.67,9.08,8.13.17.24.16.37-.1.54-2.95,1.94-5.9,3.89-8.84,5.85-.35.23-.42.02-.55-.2-.74-1.22-1.61-2.33-2.77-3.18-3.7-2.72-9.13-2.09-12.36,1.44-1.86,2.03-2.84,4.47-3.2,7.17-.46,3.39-.22,6.73,1.18,9.9,1.4,3.18,3.68,5.45,7.16,6.19,3.8.81,7-.23,9.36-3.43.23-.32.5-.62.68-.97.27-.54.51-.61,1.05-.24,2.79,1.92,5.61,3.79,8.44,5.67.37.25.44.4.15.79-1.36,1.85-2.77,3.64-4.48,5.18-2.96,2.67-6.48,3.98-10.39,4.37-1.04.1-2.08.16-3.13.17Z"/>
  <path class="cls-1" d="M47.91,63.11c-3.85,0-7.71.01-11.56-.01-.53,0-.7.09-.7.67.03,3.62,0,7.24.03,10.85,0,.5-.11.62-.63.68-1.41.17-2.49-.36-3.56-1.22-5.84-4.7-9.39-10.71-10.09-18.17-.96-10.22,2.88-18.4,11.09-24.57.64-.48,1.3-.44,2-.44,1.19,0,1.19,0,1.19,1.18,0,3.45,0,6.9-.01,10.36,0,.48.11.63.61.63,7.77-.02,15.54-.02,23.31,0,.5,0,.56-.17.56-.6-.02-3.66,0-7.32-.02-10.98,0-.49.14-.56.61-.62,1.42-.18,2.49.38,3.56,1.24,5.68,4.56,9.22,10.4,10.02,17.62,1.17,10.55-2.73,19.01-11.32,25.29-.58.42-1.2.24-1.8.26-1.05.03-1.05,0-1.05-1.02,0-3.51,0-7.03.01-10.54,0-.47-.09-.63-.6-.62-3.87.02-7.75.01-11.62.01ZM47.99,46.37c-3.92,0-7.83,0-11.75-.01-.47,0-.59.11-.59.58.02,4.08.02,8.15,0,12.23,0,.42.07.57.53.56,7.81-.02,15.62-.01,23.43,0,.41,0,.51-.11.51-.51-.02-4.1-.02-8.19,0-12.29,0-.48-.14-.57-.59-.57-3.85.02-7.71.01-11.56.01ZM32.22,70.37v-34.6c-10.67,9.46-10.03,25.94,0,34.6ZM63.52,35.78v34.53c10.33-9.28,10.16-25.45,0-34.53Z"/>
</svg>