<svg xmlns="http://www.w3.org/2000/svg" viewBox="0 0 169.05 128.79"><defs><style>.cls-1{fill:#9c3;}</style></defs><g id="map"><path class="cls-1" d="M158.06,44.42a39.31,39.31,0,0,0-24.84-12A51.44,51.44,0,0,0,85.31,0,53.34,53.34,0,0,0,36.46,32.5,40.83,40.83,0,0,0,0,72.41,39.5,39.5,0,0,0,39.6,112.7h89.29c21.79,0,39.8-18,40.15-40.17A39.42,39.42,0,0,0,158.06,44.42Zm-29.17,64.33H39.6A35.56,35.56,0,0,1,4,72.47,37,37,0,0,1,39.22,36.25,49.31,49.31,0,0,1,85.31,4a47.41,47.41,0,0,1,45.09,32.3,35.51,35.51,0,0,1,34.7,36.22C164.78,92.28,148.63,108.75,128.89,108.75Z"/><rect class="cls-1" x="46.4" y="119.1" width="10.54" height="9.69" rx="1.29"/><path class="cls-1" d="M75.07,84.85a2.94,2.94,0,0,0-2.93-2.94H54.08V78.08H72.14a2.94,2.94,0,0,0,2.93-2.94v-6.2a2.94,2.94,0,0,0-2.93-3H54.07V62.16H72.14a2.94,2.94,0,0,0,2.93-2.94V53a2.94,2.94,0,0,0-2.93-3H32.49a3,3,0,0,0-3,2.94v6.2a2.94,2.94,0,0,0,3,2.93h16.9V66H32.49a3,3,0,0,0-3,2.94v6.2a3,3,0,0,0,3,2.94h16.9v3.83H32.49a3,3,0,0,0-3,2.94v6.2a3,3,0,0,0,3,3h16.9V127.4h4.69V94H72.14a2.94,2.94,0,0,0,2.94-2.94ZM72.14,68.67a.26.26,0,0,1,.26.27v6.2a.27.27,0,0,1-.26.27h-6.6V68.67ZM65.53,52.76h6.61a.26.26,0,0,1,.26.27v6.19a.26.26,0,0,1-.26.27H65.53ZM72.4,91.05a.26.26,0,0,1-.26.27h-6.6V84.58h6.6a.26.26,0,0,1,.26.27Z"/><rect class="cls-1" x="110.83" y="119.1" width="10.54" height="9.69" rx="1.29"/><path class="cls-1" d="M139.5,84.85a2.94,2.94,0,0,0-2.94-2.94H118.5V78.08h18.06a2.94,2.94,0,0,0,2.94-2.94v-6.2a3,3,0,0,0-2.94-3H118.5V62.16h18.06a2.94,2.94,0,0,0,2.94-2.94V53a3,3,0,0,0-2.94-3H96.91A2.94,2.94,0,0,0,94,53v6.2a2.94,2.94,0,0,0,2.94,2.93h16.91V66H96.91A2.94,2.94,0,0,0,94,68.94v6.2a2.94,2.94,0,0,0,2.94,2.94h16.91v3.83H96.91A2.94,2.94,0,0,0,94,84.85v6.2a3,3,0,0,0,2.94,3h16.91V127.4h4.68V94h18.06a3,3,0,0,0,2.95-2.94Zm-2.94-16.18a.27.27,0,0,1,.27.27v6.2a.28.28,0,0,1-.27.27H130V68.67ZM130,52.76h6.6a.27.27,0,0,1,.27.27v6.19a.27.27,0,0,1-.27.27H130Zm6.87,38.29a.27.27,0,0,1-.27.27H130V84.58h6.59a.27.27,0,0,1,.27.27Z"/></g></svg>