<svg xmlns="http://www.w3.org/2000/svg" viewBox="0 0 80.8 68.47"><g id="map"><path d="M71,21.54a16.35,16.35,0,0,0-10.34-5A21.43,21.43,0,0,0,40.73,3,22.22,22.22,0,0,0,20.38,16.58,17,17,0,0,0,5.2,33.2,16.44,16.44,0,0,0,21.69,50H58.87A16.94,16.94,0,0,0,75.6,33.25,16.44,16.44,0,0,0,71,21.54ZM58.87,48.34H21.69A14.82,14.82,0,0,1,6.84,33.23,15.41,15.41,0,0,1,21.53,18.14,20.53,20.53,0,0,1,40.73,4.69,19.74,19.74,0,0,1,59.5,18.14,14.78,14.78,0,0,1,74,33.23,15.31,15.31,0,0,1,58.87,48.34Z"/><rect x="24.52" y="52.65" width="4.39" height="4.04" rx="0.54"/><path d="M36.46,38.38a1.22,1.22,0,0,0-1.22-1.22H27.72v-1.6h7.52a1.22,1.22,0,0,0,1.22-1.22V31.76a1.23,1.23,0,0,0-1.22-1.23H27.71v-1.6h7.53a1.22,1.22,0,0,0,1.22-1.22V25.13a1.23,1.23,0,0,0-1.22-1.23H18.73a1.23,1.23,0,0,0-1.23,1.22v2.58a1.22,1.22,0,0,0,1.23,1.22h7v1.6h-7a1.23,1.23,0,0,0-1.23,1.23v2.58a1.23,1.23,0,0,0,1.23,1.22h7v1.6h-7a1.23,1.23,0,0,0-1.23,1.22V41a1.23,1.23,0,0,0,1.23,1.22h7V56.1h1.95V42.19h7.52A1.22,1.22,0,0,0,36.46,41Zm-1.22-6.74a.11.11,0,0,1,.11.12v2.58a.11.11,0,0,1-.11.11H32.49V31.64ZM32.49,25h2.75a.11.11,0,0,1,.11.11v2.58a.11.11,0,0,1-.11.11H32.49Zm2.86,16a.11.11,0,0,1-.11.11H32.49V38.27h2.75a.11.11,0,0,1,.11.11Z"/><rect x="51.36" y="52.65" width="4.39" height="4.04" rx="0.54"/><path d="M63.29,38.38a1.22,1.22,0,0,0-1.22-1.22H54.55v-1.6h7.52a1.22,1.22,0,0,0,1.22-1.22V31.76a1.22,1.22,0,0,0-1.22-1.23H54.55v-1.6h7.52a1.21,1.21,0,0,0,1.22-1.22V25.13a1.22,1.22,0,0,0-1.22-1.23H45.56a1.23,1.23,0,0,0-1.23,1.22v2.58a1.22,1.22,0,0,0,1.23,1.22h7v1.6h-7a1.23,1.23,0,0,0-1.23,1.23v2.58a1.23,1.23,0,0,0,1.23,1.22h7v1.6h-7a1.23,1.23,0,0,0-1.23,1.22V41a1.23,1.23,0,0,0,1.23,1.22h7V56.1h1.95V42.19h7.52A1.23,1.23,0,0,0,63.3,41Zm-1.22-6.74a.11.11,0,0,1,.11.12v2.58a.11.11,0,0,1-.11.11H59.32V31.64ZM59.32,25h2.75a.11.11,0,0,1,.11.11v2.58a.11.11,0,0,1-.11.11H59.32Zm2.86,16a.11.11,0,0,1-.11.11H59.32V38.27h2.75a.11.11,0,0,1,.11.11Z"/></g></svg>