<svg xmlns="http://www.w3.org/2000/svg" viewBox="0 0 80.8 68.47"><g id="map"><path d="M75.05,32.78a16.82,16.82,0,0,1-6.17,12.76V43.36a15.21,15.21,0,0,0,4.55-10.6A14.55,14.55,0,0,0,59.21,17.91,19.45,19.45,0,0,0,40.72,4.66a20.22,20.22,0,0,0-18.9,13.25A15.16,15.16,0,0,0,7.36,32.76a14.66,14.66,0,0,0,4.56,10.89v2.14a16.35,16.35,0,0,1-1.52-1.37A16.12,16.12,0,0,1,5.75,32.73,16.73,16.73,0,0,1,20.69,16.37,21.88,21.88,0,0,1,40.72,3,21.09,21.09,0,0,1,60.36,16.35,16.18,16.18,0,0,1,75.05,32.78Z"/><path d="M74.3,44.36a15.93,15.93,0,0,1-10.7,9.07h-.08a16.53,16.53,0,0,1-3.44.35H58v-1h2A16.08,16.08,0,0,0,71.34,48.2,17.06,17.06,0,0,0,74.3,44.36Z"/><path d="M11.92,50.22v.89A15.06,15.06,0,0,1,6.5,44.32,16,16,0,0,0,11.92,50.22Z"/><path d="M63.77,24.3h-10a2.24,2.24,0,0,0-2.24,2.24V47.46a2.24,2.24,0,0,0,2.24,2.24h10A2.23,2.23,0,0,0,66,47.46V26.54A2.23,2.23,0,0,0,63.77,24.3Zm-6.39.42a.65.65,0,1,1-.65.65A.65.65,0,0,1,57.38,24.72ZM65,47.46a1.21,1.21,0,0,1-1.2,1.21h-10a1.21,1.21,0,0,1-1.21-1.21V26.54a1.21,1.21,0,0,1,1.21-1.21h2v.46a.69.69,0,0,0,.69.69h4.63a.69.69,0,0,0,.69-.69v-.46h2A1.21,1.21,0,0,1,65,26.54Z"/><rect x="55.49" y="46.94" width="6.57" height="0.59" rx="0.3"/><path d="M50.72,57.36h-38a2.63,2.63,0,0,1-2.56-2.48l0-.43H53.31l0,.43a2.75,2.75,0,0,1-.74,1.69A2.48,2.48,0,0,1,50.72,57.36Zm-39.63-2.1a1.78,1.78,0,0,0,1.67,1.29h38A1.68,1.68,0,0,0,52,56a2,2,0,0,0,.44-.75Z"/><path d="M34.68,55.21a1,1,0,0,1-.09.38.26.26,0,0,1-.21.18H29.1c-.16,0-.29-.25-.3-.56Z"/><path d="M34.38,55.84H29.1c-.2,0-.36-.26-.37-.62v-.08h6v.08a.88.88,0,0,1-.09.41A.32.32,0,0,1,34.38,55.84Zm-5.49-.55c0,.24.13.4.21.4h5.28s.1,0,.14-.13a.77.77,0,0,0,.07-.27Z"/><path d="M46.28,30.58H17.2a1.85,1.85,0,0,0-1.85,1.85v19a1.85,1.85,0,0,0,1.85,1.85H46.28a1.85,1.85,0,0,0,1.85-1.85v-19A1.85,1.85,0,0,0,46.28,30.58Zm-14.54.29a.58.58,0,0,1,.58.58.57.57,0,0,1-.58.57.56.56,0,0,1-.57-.57A.57.57,0,0,1,31.74,30.87ZM46.39,51.72H17.09V32.28h29.3Z"/></g></svg>