<svg xmlns="http://www.w3.org/2000/svg" viewBox="0 0 100 100"><defs><style>.cls-1,.cls-3{fill:#1d1d1b;}.cls-1{stroke:#fff;stroke-miterlimit:10;stroke-width:2.32px;}.cls-2{fill:#fff;}</style></defs><title>chip CORE_1</title><g id="icons"><path class="cls-1" d="M80,50a2.37,2.37,0,0,0-2.38-2.38V42.5a2.38,2.38,0,0,0,0-4.76V27.13a4.72,4.72,0,0,0-4.71-4.71H62.26a2.38,2.38,0,1,0-4.76,0H52.38a2.38,2.38,0,0,0-4.76,0H42.5a2.38,2.38,0,1,0-4.76,0H27.13a4.72,4.72,0,0,0-4.71,4.71V37.74a2.38,2.38,0,1,0,0,4.76v5.12a2.38,2.38,0,0,0,0,4.76V57.5a2.38,2.38,0,0,0,0,4.76V72.87a4.72,4.72,0,0,0,4.71,4.71H37.74a2.38,2.38,0,0,0,4.76,0h5.12a2.38,2.38,0,1,0,4.76,0H57.5a2.38,2.38,0,1,0,4.76,0H72.87a4.72,4.72,0,0,0,4.71-4.71V62.26a2.38,2.38,0,0,0,0-4.76V52.38A2.37,2.37,0,0,0,80,50Z"/><path class="cls-2" d="M54.48,47.7l2.19,3.38-.5.48-2.16,2a.23.23,0,0,0-.07.17c.08.5.17,1,.27,1.48,0,.05.09.09.15.12l3.24,1.31.1.05c-.08.37-.15.73-.23,1.09-.19.9-.39,1.8-.57,2.69,0,.14-.08.17-.21.16l-3.39-.12a.3.3,0,0,0-.31.16c-.23.35-.47.69-.71,1a.31.31,0,0,0,0,.35c.45,1,.89,2.08,1.33,3.12,0,.08.08.15,0,.22L50.3,67.49l-.07,0-.95-1c-.5-.53-1-1.07-1.51-1.6a.29.29,0,0,0-.23-.08c-.45.07-.9.16-1.35.24a.23.23,0,0,0-.2.19L44.67,68.5l0,.07-3.91-.83c0-.37,0-.71,0-1,0-.84.06-1.68.1-2.52a.32.32,0,0,0-.15-.31c-.37-.24-.73-.5-1.09-.75a.23.23,0,0,0-.25,0l-2.66,1.13-.68.28L33.8,61.11l1-.89,1.71-1.61a.24.24,0,0,0,.07-.16c-.08-.48-.17-1-.27-1.43a.22.22,0,0,0-.12-.15L33,55.6c-.24-.1-.24-.09-.19-.34.25-1.18.51-2.36.76-3.55,0-.13.07-.16.2-.16l3.4.12a.31.31,0,0,0,.31-.16c.24-.36.49-.71.73-1.08a.29.29,0,0,0,0-.24c-.41-1-.84-2-1.27-3l-.13-.35,3.38-2.19,1,1.06c.51.54,1,1.08,1.51,1.61a.22.22,0,0,0,.17.06c.43-.08.85-.17,1.28-.23a.4.4,0,0,0,.34-.27c.41-1,.84-2.1,1.27-3.15l0-.11,1.41.28c.79.17,1.57.35,2.36.51.16,0,.18.09.17.23l-.12,3.45a.3.3,0,0,0,.1.19l1.16.8a.34.34,0,0,0,.22,0L54,47.92Z"/><path class="cls-3" d="M45.24,51a5.14,5.14,0,1,0,5.14,5.14A5.12,5.12,0,0,0,45.24,51Z"/><path class="cls-2" d="M66.1,35.27l1.51,2.32-.34.33-1.49,1.39a.14.14,0,0,0,0,.12q.08.51.18,1s.06.06.1.08l2.24.9.06,0-.15.75c-.13.62-.27,1.23-.4,1.85,0,.09,0,.12-.14.11l-2.34-.08a.19.19,0,0,0-.21.11l-.49.71a.21.21,0,0,0,0,.24c.31.71.62,1.43.92,2.15,0,0,0,.1,0,.15L63.23,48.9l0,0-.66-.71c-.34-.37-.69-.74-1-1.1a.19.19,0,0,0-.16-.06l-.93.17a.19.19,0,0,0-.14.13l-.9,2.25,0,0-2.69-.58c0-.25,0-.49,0-.72,0-.58,0-1.16.06-1.73a.22.22,0,0,0-.1-.22c-.26-.17-.5-.34-.75-.52a.15.15,0,0,0-.17,0l-1.84.78-.46.2L51.85,44.5l.66-.61c.39-.37.79-.73,1.18-1.11a.11.11,0,0,0,0-.11c0-.33-.11-.65-.18-1a.15.15,0,0,0-.08-.11l-2.16-.87c-.17-.07-.17-.06-.13-.24.17-.81.35-1.63.51-2.44,0-.09.06-.12.15-.11l2.34.08a.22.22,0,0,0,.21-.11l.51-.74a.26.26,0,0,0,0-.17c-.29-.69-.58-1.37-.88-2.06,0-.07,0-.15-.09-.24l2.33-1.51.69.73L58,35a.17.17,0,0,0,.12,0c.3,0,.59-.12.88-.16a.25.25,0,0,0,.23-.19l.88-2.16s0,0,0-.08l1,.19,1.63.35c.1,0,.12.06.11.16,0,.79-.06,1.59-.08,2.38a.19.19,0,0,0,.07.13c.26.19.53.37.8.55a.16.16,0,0,0,.15,0l1.94-.82Z"/><path class="cls-3" d="M59.74,37.51a3.54,3.54,0,1,0,3.54,3.54A3.53,3.53,0,0,0,59.74,37.51Z"/></g></svg>