<svg xmlns="http://www.w3.org/2000/svg" viewBox="0 0 100 100"><defs><style>.cls-1,.cls-2{fill:#1d1d1b;}.cls-1,.cls-3{stroke:#fff;stroke-miterlimit:10;}.cls-1{stroke-width:2.32px;}.cls-3{fill:none;stroke-width:0.58px;}</style></defs><title>chip CORE</title><g id="icons"><path class="cls-1" d="M80,50a2.37,2.37,0,0,0-2.38-2.38V42.5a2.38,2.38,0,0,0,0-4.76V27.13a4.72,4.72,0,0,0-4.71-4.71H62.26a2.38,2.38,0,1,0-4.76,0H52.38a2.38,2.38,0,0,0-4.76,0H42.5a2.38,2.38,0,1,0-4.76,0H27.13a4.72,4.72,0,0,0-4.71,4.71V37.74a2.38,2.38,0,1,0,0,4.76v5.12a2.38,2.38,0,0,0,0,4.76V57.5a2.38,2.38,0,0,0,0,4.76V72.87a4.72,4.72,0,0,0,4.71,4.71H37.74a2.38,2.38,0,0,0,4.76,0h5.12a2.38,2.38,0,1,0,4.76,0H57.5a2.38,2.38,0,1,0,4.76,0H72.87a4.72,4.72,0,0,0,4.71-4.71V62.26a2.38,2.38,0,0,0,0-4.76V52.38A2.37,2.37,0,0,0,80,50Z"/><path class="cls-2" d="M45.24,51a5.14,5.14,0,1,0,5.14,5.14A5.12,5.12,0,0,0,45.24,51Z"/><path class="cls-2" d="M59.74,37.51a3.54,3.54,0,1,0,3.54,3.54A3.53,3.53,0,0,0,59.74,37.51Z"/><path class="cls-3" d="M35.83,44.61c-.67,0-1.19.46-1.56,1.37a10,10,0,0,0-.56,3.76c0,3.33.75,5,2.27,5a3,3,0,0,0,1.33-.32,9.84,9.84,0,0,0,1.3-.77v4a4.78,4.78,0,0,1-2.93.95,3.91,3.91,0,0,1-3.6-2.26,13.91,13.91,0,0,1-1.25-6.56,16.76,16.76,0,0,1,.6-4.72,7.08,7.08,0,0,1,1.75-3.12,3.73,3.73,0,0,1,2.67-1.09A5.13,5.13,0,0,1,39.07,42l-.86,3.68a9.11,9.11,0,0,0-1.15-.76A2.61,2.61,0,0,0,35.83,44.61Z"/><path class="cls-3" d="M50.13,49.65a13.83,13.83,0,0,1-1.28,6.63,4.23,4.23,0,0,1-7.5,0,13.59,13.59,0,0,1-1.3-6.64A13.54,13.54,0,0,1,41.34,43a4.24,4.24,0,0,1,7.51,0A13.73,13.73,0,0,1,50.13,49.65Zm-7.13,0c0,3.34.69,5,2.09,5a1.7,1.7,0,0,0,1.58-1.22,10.43,10.43,0,0,0,.51-3.79,10.35,10.35,0,0,0-.52-3.82,1.69,1.69,0,0,0-1.56-1.24Q43,44.59,43,49.65Z"/><path class="cls-3" d="M54.7,52v6.29H51.9V41h3.39c2.82,0,4.23,1.71,4.23,5.11a6,6,0,0,1-1.76,4.64l3,7.53H57.61L55.41,52Zm0-3.51h.52q1.47,0,1.47-2.16c0-1.19-.48-1.78-1.44-1.78H54.7Z"/><path class="cls-3" d="M68.38,58.31H61.83V41h6.55v3.55H64.63V47.5h3.5v3.74h-3.5v3.47h3.75Z"/></g></svg>