<svg xmlns="http://www.w3.org/2000/svg" viewBox="0 0 62.82 62.81"><defs><style>.cls-1{fill:#1d1d1b;stroke-width:2.26px;}.cls-1,.cls-2{stroke:#fff;stroke-miterlimit:10;}.cls-2{fill:none;stroke-width:0.62px;}.cls-3{font-size:6px;fill:#fff;font-family:Arial;font-weight:700;}</style></defs><title>chip CORE</title><g id="icons"><path class="cls-1" d="M60.58,31.41a2.32,2.32,0,0,0-2.32-2.32v-5a2.32,2.32,0,0,0,0-4.64V9.15a4.6,4.6,0,0,0-4.59-4.59H43.35a2.32,2.32,0,1,0-4.64,0h-5a2.32,2.32,0,1,0-4.64,0h-5a2.32,2.32,0,1,0-4.64,0H9.15A4.6,4.6,0,0,0,4.56,9.15V19.47a2.32,2.32,0,0,0,0,4.64v5a2.32,2.32,0,0,0,0,4.64v5a2.32,2.32,0,0,0,0,4.63V53.67a4.6,4.6,0,0,0,4.59,4.58H19.47a2.32,2.32,0,0,0,4.64,0h5a2.32,2.32,0,1,0,4.64,0h5a2.32,2.32,0,0,0,4.64,0H53.67a4.6,4.6,0,0,0,4.59-4.58V43.34a2.32,2.32,0,1,0,0-4.63v-5A2.32,2.32,0,0,0,60.58,31.41Z"/><path class="cls-2" d="M16.37,19.54q-1.07,0-1.68,1.47a11,11,0,0,0-.6,4q0,5.37,2.45,5.37A3.21,3.21,0,0,0,18,30.09a10.92,10.92,0,0,0,1.4-.83v4.25a5.22,5.22,0,0,1-3.17,1,4.23,4.23,0,0,1-3.87-2.45A14.86,14.86,0,0,1,11,25,18,18,0,0,1,11.64,20a7.62,7.62,0,0,1,1.88-3.37,4.05,4.05,0,0,1,2.88-1.18,5.5,5.5,0,0,1,3.46,1.31l-.92,4a8.21,8.21,0,0,0-1.24-.81A2.76,2.76,0,0,0,16.37,19.54Z"/><path class="cls-2" d="M31.78,25A14.8,14.8,0,0,1,30.4,32.1a4.55,4.55,0,0,1-8.08,0,14.75,14.75,0,0,1-1.4-7.16,14.55,14.55,0,0,1,1.4-7.09,4.57,4.57,0,0,1,8.09,0C31.33,19.44,31.78,21.82,31.78,25ZM24.1,25q0,5.4,2.25,5.4a1.81,1.81,0,0,0,1.7-1.31A11.19,11.19,0,0,0,28.61,25a11.37,11.37,0,0,0-.56-4.12,1.84,1.84,0,0,0-1.68-1.33Q24.1,19.51,24.1,25Z"/><path class="cls-2" d="M36.71,27.52v6.77h-3V15.68h3.66c3,0,4.55,1.83,4.55,5.5a6.51,6.51,0,0,1-1.89,5l3.25,8.11H39.84l-2.37-6.77Zm0-3.78h.56c1.06,0,1.59-.78,1.59-2.33q0-1.92-1.56-1.92h-.59Z"/><path class="cls-2" d="M51.45,34.29H44.39V15.68h7.06V19.5H47.4v3.14h3.78v4H47.4v3.73h4.05Z"/><text class="cls-3" transform="translate(10.41 48.75)">ENGINEERING</text></g></svg>