<svg xmlns="http://www.w3.org/2000/svg" viewBox="0 0 100 100"><defs><style>.cls-1{fill:#9d9d9c;stroke:#fff;stroke-miterlimit:10;stroke-width:2.32px;}</style></defs><title>chip grey</title><g id="icons"><path class="cls-1" d="M80,50a2.37,2.37,0,0,0-2.38-2.38V42.5a2.38,2.38,0,0,0,0-4.76V27.13a4.72,4.72,0,0,0-4.71-4.71H62.26a2.38,2.38,0,1,0-4.76,0H52.38a2.38,2.38,0,0,0-4.76,0H42.5a2.38,2.38,0,1,0-4.76,0H27.13a4.72,4.72,0,0,0-4.71,4.71V37.74a2.38,2.38,0,1,0,0,4.76v5.12a2.38,2.38,0,0,0,0,4.76V57.5a2.38,2.38,0,0,0,0,4.76V72.87a4.72,4.72,0,0,0,4.71,4.71H37.74a2.38,2.38,0,0,0,4.76,0h5.12a2.38,2.38,0,1,0,4.76,0H57.5a2.38,2.38,0,1,0,4.76,0H72.87a4.72,4.72,0,0,0,4.71-4.71V62.26a2.38,2.38,0,0,0,0-4.76V52.38A2.37,2.37,0,0,0,80,50Z"/></g></svg>