<svg xmlns="http://www.w3.org/2000/svg" viewBox="0 0 100 100"><defs><style>.cls-1{fill:#9d9d9c;stroke:#fff;stroke-miterlimit:10;stroke-width:2.32px;}.cls-2{fill:#fff;}</style></defs><title>chip CORE grey_1</title><g id="icons"><path class="cls-1" d="M80,50a2.37,2.37,0,0,0-2.38-2.38V42.5a2.38,2.38,0,0,0,0-4.76V27.13a4.72,4.72,0,0,0-4.71-4.71H62.26a2.38,2.38,0,1,0-4.76,0H52.38a2.38,2.38,0,0,0-4.76,0H42.5a2.38,2.38,0,1,0-4.76,0H27.13a4.72,4.72,0,0,0-4.71,4.71V37.74a2.38,2.38,0,1,0,0,4.76v5.12a2.38,2.38,0,0,0,0,4.76V57.5a2.38,2.38,0,0,0,0,4.76V72.87a4.72,4.72,0,0,0,4.71,4.71H37.74a2.38,2.38,0,0,0,4.76,0h5.12a2.38,2.38,0,1,0,4.76,0H57.5a2.38,2.38,0,1,0,4.76,0H72.87a4.72,4.72,0,0,0,4.71-4.71V62.26a2.38,2.38,0,0,0,0-4.76V52.38A2.37,2.37,0,0,0,80,50Z"/><path class="cls-2" d="M57.6,56.65l-3.24-1.31c-.06,0-.14-.07-.15-.12-.1-.49-.19-1-.27-1.48a.23.23,0,0,1,.07-.17l2.16-2,.5-.48c-.74-1.13-1.46-2.25-2.19-3.38l-.53.22-2.82,1.19a.34.34,0,0,1-.22,0l-1.16-.8a.3.3,0,0,1-.1-.19l.12-3.45c0-.14,0-.2-.17-.23-.79-.16-1.57-.34-2.36-.51l-1.41-.28,0,.11c-.43,1-.86,2.1-1.27,3.15a.4.4,0,0,1-.34.27c-.43.06-.85.15-1.28.23a.22.22,0,0,1-.17-.06c-.51-.53-1-1.07-1.51-1.61l-1-1.06-3.38,2.19.13.35c.43,1,.86,2,1.27,3a.29.29,0,0,1,0,.24c-.24.37-.49.72-.73,1.08a.31.31,0,0,1-.31.16l-3.4-.12c-.13,0-.18,0-.2.16-.25,1.19-.51,2.37-.76,3.55-.05.25-.05.24.19.34l3.14,1.27a.22.22,0,0,1,.12.15c.1.48.19.95.27,1.43a.24.24,0,0,1-.07.16l-1.71,1.61-1,.89L36,64.49l.68-.28,2.66-1.13a.23.23,0,0,1,.25,0c.36.25.72.51,1.09.75a.32.32,0,0,1,.15.31c0,.84-.07,1.68-.1,2.52,0,.34,0,.68,0,1l3.91.83,0-.07L46,65.24a.23.23,0,0,1,.2-.19c.45-.08.9-.17,1.35-.24a.29.29,0,0,1,.23.08c.51.53,1,1.07,1.51,1.6l.95,1,.07,0,3.24-2.09c.11-.07.07-.14,0-.22-.44-1-.88-2.08-1.33-3.12a.31.31,0,0,1,0-.35c.24-.34.48-.68.71-1a.3.3,0,0,1,.31-.16l3.39.12c.13,0,.18,0,.21-.16.18-.89.38-1.79.57-2.69.08-.36.15-.72.23-1.09ZM45.24,61.23a5.14,5.14,0,1,1,5.14-5.13A5.12,5.12,0,0,1,45.24,61.23Z"/><path class="cls-2" d="M68.26,41.43,66,40.53s-.09-.05-.1-.08q-.11-.51-.18-1a.14.14,0,0,1,0-.12l1.49-1.39.34-.33c-.5-.78-1-1.55-1.51-2.32l-.36.14-1.94.82a.16.16,0,0,1-.15,0c-.27-.18-.54-.36-.8-.55a.19.19,0,0,1-.07-.13c0-.79,0-1.59.08-2.38,0-.1,0-.14-.11-.16l-1.63-.34-1-.2s0,0,0,.08l-.88,2.16a.25.25,0,0,1-.23.19c-.29,0-.58.11-.88.16A.17.17,0,0,1,58,35L57,33.9l-.69-.73L54,34.68c0,.09.06.17.09.24.3.69.59,1.37.88,2.06a.26.26,0,0,1,0,.17l-.51.74a.22.22,0,0,1-.21.11l-2.34-.08c-.09,0-.13,0-.15.11-.16.81-.34,1.63-.51,2.44,0,.18,0,.17.13.24l2.16.87a.15.15,0,0,1,.08.11c.07.33.13.65.18,1a.11.11,0,0,1,0,.11c-.39.38-.79.74-1.18,1.11l-.66.61c.51.79,1,1.56,1.52,2.34l.46-.2,1.84-.78a.15.15,0,0,1,.17,0c.25.18.49.35.75.52a.22.22,0,0,1,.1.22c0,.57,0,1.15-.06,1.73,0,.23,0,.47,0,.72l2.69.58,0,0,.9-2.25a.19.19,0,0,1,.14-.13l.93-.17a.19.19,0,0,1,.16.06c.35.36.7.73,1,1.1l.66.71,0,0,2.23-1.44c.07-.05,0-.1,0-.15-.3-.72-.61-1.44-.92-2.15a.21.21,0,0,1,0-.24l.49-.71a.19.19,0,0,1,.21-.11l2.34.08c.09,0,.12,0,.14-.11.13-.62.27-1.23.4-1.85l.15-.75Zm-8.52,3.16a3.54,3.54,0,1,1,3.54-3.54A3.53,3.53,0,0,1,59.74,44.59Z"/></g></svg>