<svg xmlns="http://www.w3.org/2000/svg" viewBox="0 0 418.85 328.24"><defs><style>.cls-1{fill:#f0f;}</style></defs><g id="map"><path class="cls-1" d="M418.84,179.71a101.69,101.69,0,0,1-37.32,77.11V243.61a92,92,0,0,0,27.53-64.06,88,88,0,0,0-86-89.74,117.46,117.46,0,0,0-111.7-80c-52.2,0-97,33.44-114.2,80-47.84,2-86.6,41.44-87.38,89.74a88.28,88.28,0,0,0,27.52,65.8v12.94a102.88,102.88,0,0,1-9.17-8.24A97.7,97.7,0,0,1,0,179.4,101.21,101.21,0,0,1,90.33,80.51C110.87,32.11,158.73,0,211.38,0A127.42,127.42,0,0,1,330.07,80.41a97.77,97.77,0,0,1,88.77,99.3Z"/><path class="cls-1" d="M414.3,249.64c-11.88,26.83-35.61,47.84-64.66,54.83l-.47.07a101.63,101.63,0,0,1-20.8,2.14H316v-5.83h12.37a97.24,97.24,0,0,0,68-28A102,102,0,0,0,414.3,249.64Z"/><path class="cls-1" d="M37.33,285.1v5.38A91.55,91.55,0,0,1,4.56,249.41,97.63,97.63,0,0,0,37.33,285.1Z"/><path class="cls-1" d="M350.64,128.43H290.28A13.55,13.55,0,0,0,276.75,142V268.42A13.55,13.55,0,0,0,290.28,282h60.36a13.55,13.55,0,0,0,13.53-13.54V142A13.55,13.55,0,0,0,350.64,128.43ZM312.05,131a4,4,0,1,1-3.95,3.95A4,4,0,0,1,312.05,131Zm45.87,137.47a7.29,7.29,0,0,1-7.28,7.28H290.28a7.29,7.29,0,0,1-7.28-7.28V142a7.29,7.29,0,0,1,7.28-7.29h12v2.78a4.15,4.15,0,0,0,4.15,4.14h28a4.15,4.15,0,0,0,4.16-4.14v-2.78h12a7.3,7.3,0,0,1,7.28,7.29Z"/><rect class="cls-1" x="300.6" y="265.25" width="39.72" height="3.58" rx="1.79"/><path class="cls-1" d="M271.77,328.24H42.43c-8.08,0-14.88-6.58-15.47-15l-.18-2.61H287.43l-.19,2.61a16.46,16.46,0,0,1-4.46,10.19A15,15,0,0,1,271.77,328.24ZM32.33,315.54a10.76,10.76,0,0,0,10.1,7.81H271.77a10.15,10.15,0,0,0,7.46-3.27,11.32,11.32,0,0,0,2.65-4.54Z"/><path class="cls-1" d="M174.85,315.27a5.76,5.76,0,0,1-.52,2.28c-.33.65-.79,1.06-1.29,1.06H141.16c-.95,0-1.74-1.48-1.81-3.34Z"/><path class="cls-1" d="M173,319.07H141.16c-1.23,0-2.19-1.59-2.27-3.78l0-.49h36.47l0,.49a6,6,0,0,1-.58,2.47A2,2,0,0,1,173,319.07Zm-33.18-3.33c.16,1.43.78,2.4,1.3,2.4H173c.3,0,.61-.29.87-.8a4.93,4.93,0,0,0,.44-1.6Z"/><path class="cls-1" d="M244.94,166.38H69.26a11.2,11.2,0,0,0-11.19,11.19V292.29a11.2,11.2,0,0,0,11.19,11.19H244.94a11.2,11.2,0,0,0,11.19-11.19V177.57A11.2,11.2,0,0,0,244.94,166.38Zm-87.84,1.8a3.47,3.47,0,1,1-3.47,3.47A3.47,3.47,0,0,1,157.1,168.18Zm88.55,126H68.55V176.66h177.1Z"/></g></svg>