<svg xmlns="http://www.w3.org/2000/svg" viewBox="0 0 92.05 72.22"><defs><style>.cls-1{fill:#fff;}.cls-2{fill:#9d9d9c;}.cls-3{fill:#909;}.cls-4{fill:#666;}</style></defs><g id="upper"><path class="cls-1" d="M46.45,0a29.06,29.06,0,0,0-26.6,17.69A22.25,22.25,0,0,0,0,39.42,21.53,21.53,0,0,0,21.56,61.37H70.18A22.16,22.16,0,0,0,92.05,39.49,21.51,21.51,0,0,0,72.54,17.67,28,28,0,0,0,46.45,0Z"/><path class="cls-2" d="M86.07,24.19a21.41,21.41,0,0,0-13.53-6.52A28,28,0,0,0,46.45,0a29.06,29.06,0,0,0-26.6,17.69A22.25,22.25,0,0,0,0,39.43,21.53,21.53,0,0,0,21.56,61.37H70.18A22.15,22.15,0,0,0,92.05,39.49,21.49,21.49,0,0,0,86.07,24.19Zm-15.89,35H21.56A19.37,19.37,0,0,1,2.15,39.46,20.13,20.13,0,0,1,21.36,19.74,26.84,26.84,0,0,1,46.45,2.15,25.81,25.81,0,0,1,71,19.74,19.33,19.33,0,0,1,89.9,39.46,20,20,0,0,1,70.18,59.22Z"/><path class="cls-3" d="M77.06,28.31H63.79a3,3,0,0,0-3,3v27.8a3,3,0,0,0,3,3H77.06a3,3,0,0,0,3-3V31.28A3,3,0,0,0,77.06,28.31Zm-8.48.56a.87.87,0,1,1-.87.86A.86.86,0,0,1,68.58,28.87ZM78.66,59.08a1.6,1.6,0,0,1-1.6,1.6H63.79a1.6,1.6,0,0,1-1.6-1.6V31.28a1.6,1.6,0,0,1,1.6-1.6h2.65v.61a.91.91,0,0,0,.91.91H73.5a.91.91,0,0,0,.92-.91v-.61h2.64a1.6,1.6,0,0,1,1.6,1.6Z"/><rect class="cls-3" x="66.06" y="58.38" width="8.73" height="0.79" rx="0.39"/><path class="cls-2" d="M59.73,72.22H9.33a3.48,3.48,0,0,1-3.4-3.29l0-.57H63.17l0,.57a3.64,3.64,0,0,1-1,2.24A3.29,3.29,0,0,1,59.73,72.22ZM7.1,69.43a2.38,2.38,0,0,0,2.23,1.72h50.4a2.26,2.26,0,0,0,1.64-.72,2.58,2.58,0,0,0,.58-1Z"/><path class="cls-4" d="M38.43,69.37a1.19,1.19,0,0,1-.12.5c-.07.15-.17.23-.28.23H31c-.21,0-.38-.32-.39-.73Z"/><path class="cls-4" d="M38,70.21H31c-.27,0-.48-.35-.5-.84v-.1h8v.1a1.31,1.31,0,0,1-.13.55A.44.44,0,0,1,38,70.21Zm-7.29-.74c0,.32.17.53.28.53h7c.06,0,.13-.06.19-.17a1.18,1.18,0,0,0,.1-.36Z"/><path class="cls-2" d="M53.83,36.65H15.22a2.46,2.46,0,0,0-2.46,2.46V64.32a2.46,2.46,0,0,0,2.46,2.46H53.83a2.46,2.46,0,0,0,2.46-2.46V39.11A2.46,2.46,0,0,0,53.83,36.65ZM34.53,37a.77.77,0,0,1,.76.77.77.77,0,0,1-1.53,0A.77.77,0,0,1,34.53,37ZM54,64.73H15.07V38.91H54Z"/><path class="cls-1" d="M78.66,59.08a1.6,1.6,0,0,1-1.6,1.6H63.79a1.6,1.6,0,0,1-1.6-1.6V31.28a1.6,1.6,0,0,1,1.6-1.6h2.65v.61a.91.91,0,0,0,.91.91H73.5a.91.91,0,0,0,.92-.91v-.61h2.64a1.6,1.6,0,0,1,1.6,1.6Z"/><rect class="cls-1" x="15.07" y="38.91" width="38.92" height="25.83"/></g></svg>