<svg xmlns="http://www.w3.org/2000/svg" viewBox="0 0 92.05 70.08"><defs><style>.cls-1{fill:#fff;}.cls-2{fill:#9d9d9c;}.cls-3{fill:#9c3;}</style></defs><g id="upper"><path class="cls-1" d="M46.45,0a29.06,29.06,0,0,0-26.6,17.69A22.25,22.25,0,0,0,0,39.42,21.53,21.53,0,0,0,21.56,61.37H70.18A22.16,22.16,0,0,0,92.05,39.49,21.51,21.51,0,0,0,72.54,17.67,28,28,0,0,0,46.45,0Z"/><path class="cls-2" d="M86.07,24.19a21.41,21.41,0,0,0-13.53-6.52A28,28,0,0,0,46.45,0a29.06,29.06,0,0,0-26.6,17.69A22.25,22.25,0,0,0,0,39.43,21.53,21.53,0,0,0,21.56,61.37H70.18A22.15,22.15,0,0,0,92.05,39.49,21.49,21.49,0,0,0,86.07,24.19Zm-15.89,35H21.56A19.37,19.37,0,0,1,2.15,39.46,20.13,20.13,0,0,1,21.36,19.74,26.84,26.84,0,0,1,46.45,2.15,25.81,25.81,0,0,1,71,19.74,19.33,19.33,0,0,1,89.9,39.46,20,20,0,0,1,70.18,59.22Z"/><rect class="cls-3" x="25.27" y="64.81" width="5.74" height="5.28" rx="0.7"/><path class="cls-3" d="M40.88,46.16a1.6,1.6,0,0,0-1.6-1.6H29.44V42.47h9.84a1.6,1.6,0,0,0,1.6-1.6V37.49a1.6,1.6,0,0,0-1.6-1.6H29.44V33.8h9.84a1.6,1.6,0,0,0,1.6-1.6V28.83a1.61,1.61,0,0,0-1.6-1.61H17.69a1.61,1.61,0,0,0-1.61,1.6V32.2a1.61,1.61,0,0,0,1.61,1.6h9.2v2.09h-9.2a1.61,1.61,0,0,0-1.61,1.6v3.38a1.61,1.61,0,0,0,1.61,1.6h9.2v2.09h-9.2a1.6,1.6,0,0,0-1.61,1.6v3.37a1.62,1.62,0,0,0,1.61,1.61h9.2V69.32h2.55V51.13h9.84a1.6,1.6,0,0,0,1.6-1.6Zm-1.6-8.81a.14.14,0,0,1,.14.14v3.38a.14.14,0,0,1-.14.14H35.69V37.35Zm-3.6-8.67h3.6a.15.15,0,0,1,.14.15V32.2a.15.15,0,0,1-.14.15h-3.6Zm3.74,20.85a.15.15,0,0,1-.14.15H35.69V46h3.59a.14.14,0,0,1,.14.15Z"/><rect class="cls-3" x="60.35" y="64.81" width="5.74" height="5.28" rx="0.7"/><path class="cls-3" d="M76,46.16a1.6,1.6,0,0,0-1.6-1.6H64.53V42.47h9.83a1.6,1.6,0,0,0,1.6-1.6V37.49a1.6,1.6,0,0,0-1.6-1.6H64.52V33.8h9.84A1.6,1.6,0,0,0,76,32.2V28.83a1.61,1.61,0,0,0-1.6-1.61H52.77a1.6,1.6,0,0,0-1.6,1.6V32.2a1.6,1.6,0,0,0,1.6,1.6H62v2.09H52.77a1.6,1.6,0,0,0-1.6,1.6v3.38a1.6,1.6,0,0,0,1.6,1.6H62v2.09H52.77a1.6,1.6,0,0,0-1.6,1.6v3.37a1.61,1.61,0,0,0,1.6,1.61H62V69.32h2.55V51.13h9.83a1.6,1.6,0,0,0,1.6-1.6Zm-1.6-8.81a.15.15,0,0,1,.15.14v3.38a.15.15,0,0,1-.15.14H70.77V37.35Zm-3.59-8.67h3.59a.15.15,0,0,1,.15.15V32.2a.15.15,0,0,1-.15.15H70.77Zm3.74,20.85a.15.15,0,0,1-.15.15H70.77V46h3.59a.15.15,0,0,1,.15.15Z"/></g></svg>