<svg xmlns="http://www.w3.org/2000/svg" viewBox="0 0 407.89 139.44"><defs><style>.cls-1{fill:#fff;}.cls-2{fill:#9c3;}.cls-3{fill:#0083ad;}</style></defs><g id="map"><rect class="cls-1" x="101.45" y="65.22" width="211.73" height="9"/><circle class="cls-2" cx="67.76" cy="69.72" r="54.66"/><path class="cls-1" d="M67.76,127.92a58.2,58.2,0,1,1,41.18-17A58,58,0,0,1,67.76,127.92Zm0-109.28a51.08,51.08,0,1,0,36.14,15A50.91,50.91,0,0,0,67.76,18.64Z"/><circle class="cls-3" cx="340.13" cy="69.72" r="54.66"/><path class="cls-1" d="M340.13,127.94a57.8,57.8,0,0,1-41.17-17h0a58.23,58.23,0,1,1,41.17,17Zm0-109.32A51.1,51.1,0,0,0,304,105.85h0a51.1,51.1,0,1,0,72.27-72.26A50.72,50.72,0,0,0,340.13,18.62Z"/><path d="M51.88,73.74v2H44.27v-13h2.41v11Z"/><path d="M55.86,63.82a1.19,1.19,0,0,1-.12.54,1.4,1.4,0,0,1-.31.44,1.57,1.57,0,0,1-.45.31,1.51,1.51,0,0,1-.56.11,1.41,1.41,0,0,1-.54-.11,1.44,1.44,0,0,1-.45-.31,1.37,1.37,0,0,1-.3-.44,1.33,1.33,0,0,1-.11-.54,1.46,1.46,0,0,1,.11-.55,1.31,1.31,0,0,1,.3-.45,1.27,1.27,0,0,1,.45-.3,1.25,1.25,0,0,1,.54-.12,1.34,1.34,0,0,1,.56.12,1.37,1.37,0,0,1,.45.3,1.34,1.34,0,0,1,.31.45A1.3,1.3,0,0,1,55.86,63.82Zm-.31,2.69v9.22H53.32V66.51Z"/><path d="M59.89,67.64a7.19,7.19,0,0,1,.59-.51,3.8,3.8,0,0,1,.66-.41,4,4,0,0,1,.74-.26,3.85,3.85,0,0,1,.86-.09,3.34,3.34,0,0,1,1.34.25,2.72,2.72,0,0,1,1,.72,3.27,3.27,0,0,1,.59,1.11,4.85,4.85,0,0,1,.2,1.41v5.87H63.63V69.86a2,2,0,0,0-.39-1.3,1.43,1.43,0,0,0-1.17-.47,2.33,2.33,0,0,0-1.08.26,3.93,3.93,0,0,0-1,.71v6.67H57.82V66.51h1.35a.55.55,0,0,1,.57.41Z"/><path d="M67.74,67.8a5.47,5.47,0,0,1,3.83-1.46,3.66,3.66,0,0,1,1.44.27,3,3,0,0,1,1.08.73,3.06,3.06,0,0,1,.67,1.13A4.44,4.44,0,0,1,75,69.91v5.82H74a1,1,0,0,1-.48-.09.63.63,0,0,1-.27-.38l-.2-.67a6.31,6.31,0,0,1-.68.55,3.73,3.73,0,0,1-.69.4,3.85,3.85,0,0,1-.77.25,4.32,4.32,0,0,1-.91.09,3.69,3.69,0,0,1-1.07-.16,2.47,2.47,0,0,1-.86-.47,2.23,2.23,0,0,1-.56-.78,2.86,2.86,0,0,1-.19-1.09,2.38,2.38,0,0,1,.11-.7A2.05,2.05,0,0,1,67.8,72a2.86,2.86,0,0,1,.68-.59,4.57,4.57,0,0,1,1-.49A8.18,8.18,0,0,1,71,70.61a14.2,14.2,0,0,1,1.87-.16v-.54a2,2,0,0,0-.39-1.37,1.44,1.44,0,0,0-1.14-.45,2.86,2.86,0,0,0-.9.13,4,4,0,0,0-.62.28l-.49.29a1,1,0,0,1-.49.12.65.65,0,0,1-.4-.12,1.37,1.37,0,0,1-.26-.28Zm5.08,4a12.28,12.28,0,0,0-1.61.16,4.69,4.69,0,0,0-1.06.31,1.46,1.46,0,0,0-.56.44,1,1,0,0,0-.17.55,1,1,0,0,0,.34.84,1.58,1.58,0,0,0,.91.25,2.57,2.57,0,0,0,1.18-.25,3.26,3.26,0,0,0,1-.75Z"/><path d="M79.17,68.11a4.15,4.15,0,0,1,1-1.3,2.24,2.24,0,0,1,1.41-.47,1.69,1.69,0,0,1,1,.28l-.14,1.66a.45.45,0,0,1-.13.23.35.35,0,0,1-.23.07,2.67,2.67,0,0,1-.4,0,3.12,3.12,0,0,0-.52,0,1.73,1.73,0,0,0-.66.11,1.49,1.49,0,0,0-.51.31,1.81,1.81,0,0,0-.41.49,5.63,5.63,0,0,0-.32.65v5.68H77.08V66.51h1.3a.68.68,0,0,1,.47.12.72.72,0,0,1,.18.44Z"/><path d="M87.6,66.37a5,5,0,0,1,1.86.33,4.18,4.18,0,0,1,1.44.94,4.08,4.08,0,0,1,.92,1.5,5.52,5.52,0,0,1,.33,2,5.59,5.59,0,0,1-.33,2,4.08,4.08,0,0,1-.92,1.5,3.94,3.94,0,0,1-1.44,1,4.85,4.85,0,0,1-1.86.34,4.92,4.92,0,0,1-1.88-.34,3.94,3.94,0,0,1-1.44-1,4.23,4.23,0,0,1-.93-1.5,5.59,5.59,0,0,1-.33-2,5.52,5.52,0,0,1,.33-2,4.23,4.23,0,0,1,.93-1.5,4.18,4.18,0,0,1,1.44-.94A5.12,5.12,0,0,1,87.6,66.37Zm0,7.79a2,2,0,0,0,1.7-.77,5,5,0,0,0,0-4.54,1.94,1.94,0,0,0-1.7-.78,2,2,0,0,0-1.73.78,3.85,3.85,0,0,0-.56,2.27,3.79,3.79,0,0,0,.56,2.26A2,2,0,0,0,87.6,74.16Z"/><circle cx="203.41" cy="69.72" r="54.66"/><path class="cls-1" d="M203.42,127.94a57.84,57.84,0,0,1-41.18-17h0a58.23,58.23,0,1,1,41.18,17Zm0-109.32a51.1,51.1,0,0,0-36.14,87.23h0a51.1,51.1,0,1,0,72.27-72.26A50.74,50.74,0,0,0,203.42,18.62Z"/><path class="cls-1" d="M190.86,78.29h-2a2.37,2.37,0,0,1-.78-.12,1.61,1.61,0,0,1-.64-.43l-1.9-2.11a6,6,0,0,1-.94.19,8.19,8.19,0,0,1-1,.06,6.89,6.89,0,0,1-2.69-.5A6,6,0,0,1,178.82,74a6.16,6.16,0,0,1-1.35-2.11,7.13,7.13,0,0,1-.47-2.65,7.21,7.21,0,0,1,.47-2.65,6.36,6.36,0,0,1,1.35-2.11,6.13,6.13,0,0,1,2.08-1.39,7.08,7.08,0,0,1,2.69-.5,7.54,7.54,0,0,1,1.87.23,6.47,6.47,0,0,1,1.6.65,6.15,6.15,0,0,1,1.31,1,6.44,6.44,0,0,1,1,1.33,6.56,6.56,0,0,1,.62,1.6,7.75,7.75,0,0,1,.21,1.82A7.5,7.5,0,0,1,190,70.9a6.56,6.56,0,0,1-.52,1.49,6,6,0,0,1-.82,1.27,5.73,5.73,0,0,1-1.11,1Zm-11.39-9.06a6,6,0,0,0,.29,1.92,4.05,4.05,0,0,0,.82,1.44,3.52,3.52,0,0,0,1.3.91,4.9,4.9,0,0,0,3.43,0,3.56,3.56,0,0,0,1.29-.91,4.05,4.05,0,0,0,.82-1.44,6,6,0,0,0,.29-1.92,6,6,0,0,0-.29-1.92,4.05,4.05,0,0,0-.82-1.44,3.56,3.56,0,0,0-1.29-.91,4.76,4.76,0,0,0-3.43,0,3.52,3.52,0,0,0-1.3.91,4.05,4.05,0,0,0-.82,1.44A6,6,0,0,0,179.47,69.23Z"/><path class="cls-1" d="M194.73,64.65v3.61h4.56v1.86h-4.56V73.8h5.78v1.94h-8.2v-13h8.2v1.92Z"/><path class="cls-1" d="M216.77,62.73v13h-2.14V67.33a10.83,10.83,0,0,1,.06-1.09l-3.94,7.39a.89.89,0,0,1-.85.53h-.34a.9.9,0,0,1-.86-.53l-4-7.41c0,.2,0,.39.05.58s0,.37,0,.53v8.41h-2.14v-13h2.11a.65.65,0,0,1,.21,0,.38.38,0,0,1,.17.12,1,1,0,0,1,.15.21l3.9,7.23a6.36,6.36,0,0,1,.28.59l.26.63c.08-.22.17-.43.26-.64s.19-.41.29-.6l3.84-7.21a1,1,0,0,1,.15-.21.47.47,0,0,1,.18-.12.65.65,0,0,1,.21,0h2.11Z"/><path class="cls-1" d="M224.9,73.79a3.15,3.15,0,0,0,1.26-.24,2.48,2.48,0,0,0,.93-.65,3.13,3.13,0,0,0,.58-1,4.08,4.08,0,0,0,.2-1.35V62.73h2.42v7.79a6,6,0,0,1-.37,2.15,5.06,5.06,0,0,1-1.07,1.7,4.87,4.87,0,0,1-1.7,1.11,5.9,5.9,0,0,1-2.25.4,6,6,0,0,1-2.26-.4A4.83,4.83,0,0,1,221,74.37a4.77,4.77,0,0,1-1.07-1.7,6,6,0,0,1-.38-2.15V62.73h2.42v7.78a4.07,4.07,0,0,0,.21,1.35,2.88,2.88,0,0,0,.58,1,2.51,2.51,0,0,0,.94.66A3.1,3.1,0,0,0,224.9,73.79Z"/><path class="cls-1" d="M336.13,75.73h-1.87a.81.81,0,0,1-.52-.16.87.87,0,0,1-.29-.39l-1-2.65h-5.39l-1,2.65a.81.81,0,0,1-.27.38.76.76,0,0,1-.52.17h-1.88l5.11-13H331Zm-4.27-4.9-1.58-4.33c-.08-.19-.16-.42-.25-.68s-.17-.55-.25-.85c-.08.3-.16.59-.24.85l-.24.7-1.58,4.31Z"/><path class="cls-1" d="M339.2,68.11a4.15,4.15,0,0,1,1-1.3,2.24,2.24,0,0,1,1.41-.47,1.69,1.69,0,0,1,1,.28l-.14,1.66a.45.45,0,0,1-.13.23.35.35,0,0,1-.23.07,2.67,2.67,0,0,1-.4,0,3.12,3.12,0,0,0-.52,0,1.73,1.73,0,0,0-.66.11,1.49,1.49,0,0,0-.51.31,1.81,1.81,0,0,0-.41.49,5.63,5.63,0,0,0-.32.65v5.68h-2.22V66.51h1.3a.73.73,0,0,1,.48.12.72.72,0,0,1,.17.44Z"/><path class="cls-1" d="M343.81,75.73V66.51h1.36a.55.55,0,0,1,.56.41l.15.68a5.9,5.9,0,0,1,.5-.5,4.35,4.35,0,0,1,.57-.38,3.39,3.39,0,0,1,.65-.26,3,3,0,0,1,.76-.09,2.16,2.16,0,0,1,1.43.47,2.88,2.88,0,0,1,.84,1.25,2.72,2.72,0,0,1,.54-.78,3,3,0,0,1,.71-.54,3,3,0,0,1,.82-.3,3.71,3.71,0,0,1,.88-.1,3.84,3.84,0,0,1,1.36.23,2.78,2.78,0,0,1,1,.68,3,3,0,0,1,.62,1.1,4.81,4.81,0,0,1,.21,1.48v5.87h-2.22V69.86a1.94,1.94,0,0,0-.39-1.32,1.39,1.39,0,0,0-1.13-.45,1.61,1.61,0,0,0-.63.12,1.39,1.39,0,0,0-.51.34,1.41,1.41,0,0,0-.35.55,2.24,2.24,0,0,0-.13.76v5.87h-2.22V69.86a2,2,0,0,0-.38-1.34,1.35,1.35,0,0,0-1.09-.43,1.78,1.78,0,0,0-.9.24A3.14,3.14,0,0,0,346,69v6.75Z"/></g></svg>