<svg xmlns="http://www.w3.org/2000/svg" viewBox="0 0 407.89 139.44"><defs><style>.cls-1{fill:#fff;}.cls-2{fill:#9c3;}.cls-3{fill:#0083ad;}</style></defs><g id="map"><rect class="cls-1" x="101.45" y="65.22" width="211.73" height="9"/><circle class="cls-2" cx="67.76" cy="69.72" r="54.66"/><path class="cls-1" d="M67.76,127.92a58,58,0,0,1-41.17-17h0a58.29,58.29,0,1,1,41.17,17ZM31.63,105.85a51.1,51.1,0,1,0,0-72.26,51.15,51.15,0,0,0,0,72.26Z"/><circle class="cls-3" cx="340.13" cy="69.72" r="54.66"/><path class="cls-1" d="M340.13,127.92a58.2,58.2,0,1,1,41.17-17A58,58,0,0,1,340.13,127.92Zm0-109.3a51.1,51.1,0,1,0,36.13,15A50.75,50.75,0,0,0,340.13,18.62Z"/><path d="M51.88,73.83v2H44.27v-13h2.41v11Z"/><path d="M55.86,63.92a1.25,1.25,0,0,1-.12.54,1.52,1.52,0,0,1-.31.44,1.54,1.54,0,0,1-.45.3,1.51,1.51,0,0,1-.56.11,1.42,1.42,0,0,1-1-.41,1.49,1.49,0,0,1-.3-.44,1.41,1.41,0,0,1-.11-.54,1.51,1.51,0,0,1,.11-.56,1.54,1.54,0,0,1,.3-.45,1.61,1.61,0,0,1,.45-.3,1.41,1.41,0,0,1,.54-.11,1.51,1.51,0,0,1,.56.11,1.77,1.77,0,0,1,.45.3,1.57,1.57,0,0,1,.31.45A1.34,1.34,0,0,1,55.86,63.92Zm-.31,2.69v9.22H53.32V66.61Z"/><path d="M59.89,67.74a5.78,5.78,0,0,1,.59-.52,3.75,3.75,0,0,1,.66-.4,3.4,3.4,0,0,1,.74-.26,3.64,3.64,0,0,1,2.2.16,2.72,2.72,0,0,1,1,.72,3.22,3.22,0,0,1,.59,1.1,4.87,4.87,0,0,1,.2,1.42v5.87H63.63V70a2,2,0,0,0-.39-1.31,1.42,1.42,0,0,0-1.17-.46,2.21,2.21,0,0,0-1.08.26,3.68,3.68,0,0,0-1,.71v6.67H57.82V66.61h1.35a.54.54,0,0,1,.57.4Z"/><path d="M67.74,67.89a5.46,5.46,0,0,1,3.83-1.45A3.66,3.66,0,0,1,73,66.7a3,3,0,0,1,1.75,1.87A4.33,4.33,0,0,1,75,70v5.83H74a.9.9,0,0,1-.48-.1.6.6,0,0,1-.27-.38l-.2-.66a7.82,7.82,0,0,1-.68.55,4.4,4.4,0,0,1-.69.4,3.85,3.85,0,0,1-.77.25A5.14,5.14,0,0,1,70,76a3.38,3.38,0,0,1-1.07-.16,2.32,2.32,0,0,1-.86-.47,2.23,2.23,0,0,1-.56-.78,2.8,2.8,0,0,1-.19-1.09,2.37,2.37,0,0,1,.11-.69,1.86,1.86,0,0,1,.39-.66,3.13,3.13,0,0,1,.68-.6,4.57,4.57,0,0,1,1-.48A9.13,9.13,0,0,1,71,70.7a14.2,14.2,0,0,1,1.87-.16V70a2.05,2.05,0,0,0-.39-1.37,1.47,1.47,0,0,0-1.14-.44,2.88,2.88,0,0,0-.9.12,4,4,0,0,0-.62.29l-.49.28a1,1,0,0,1-.49.13.6.6,0,0,1-.4-.13,1.16,1.16,0,0,1-.26-.28Zm5.08,4a12.08,12.08,0,0,0-1.61.17,4.22,4.22,0,0,0-1.06.31,1.3,1.3,0,0,0-.56.44,1,1,0,0,0-.17.55,1,1,0,0,0,.34.83,1.51,1.51,0,0,0,.91.25,2.7,2.7,0,0,0,1.18-.24,3.63,3.63,0,0,0,1-.75Z"/><path d="M79.17,68.21a3.94,3.94,0,0,1,1-1.3,2.18,2.18,0,0,1,1.41-.47,1.76,1.76,0,0,1,1,.27l-.14,1.67a.56.56,0,0,1-.13.23.41.41,0,0,1-.23.06,2.41,2.41,0,0,1-.4,0,3.15,3.15,0,0,0-.52,0,1.94,1.94,0,0,0-.66.11A1.66,1.66,0,0,0,80,69a2.18,2.18,0,0,0-.41.49,5.09,5.09,0,0,0-.32.66v5.68H77.08V66.61h1.3a.68.68,0,0,1,.47.12.69.69,0,0,1,.18.43Z"/><path d="M87.6,66.46a5,5,0,0,1,1.86.33,4.21,4.21,0,0,1,1.44.95,4,4,0,0,1,.92,1.49,5.58,5.58,0,0,1,.33,2,5.63,5.63,0,0,1-.33,2,4.25,4.25,0,0,1-.92,1.5,4.07,4.07,0,0,1-1.44.95A5,5,0,0,1,87.6,76a5.12,5.12,0,0,1-1.88-.33,4.07,4.07,0,0,1-1.44-.95,4.42,4.42,0,0,1-.93-1.5,5.63,5.63,0,0,1-.33-2,5.58,5.58,0,0,1,.33-2,4.08,4.08,0,0,1,2.37-2.44A5.12,5.12,0,0,1,87.6,66.46Zm0,7.79a1.93,1.93,0,0,0,1.7-.77,3.85,3.85,0,0,0,.55-2.26,3.92,3.92,0,0,0-.55-2.28,1.94,1.94,0,0,0-1.7-.78,2,2,0,0,0-1.73.79,4.86,4.86,0,0,0,0,4.53A2,2,0,0,0,87.6,74.25Z"/><circle cx="203.41" cy="69.72" r="54.66"/><path class="cls-1" d="M203.42,127.92a58.09,58.09,0,0,1-41.18-17h0a58.28,58.28,0,1,1,41.18,17Zm-36.14-22.07a51.08,51.08,0,1,0-15-36.13,51.15,51.15,0,0,0,15,36.13Z"/><path class="cls-1" d="M181.13,73.88a3.33,3.33,0,0,0,1.26-.23,2.62,2.62,0,0,0,.93-.66,2.94,2.94,0,0,0,.58-1,4.35,4.35,0,0,0,.2-1.35V62.82h2.42v7.79a6,6,0,0,1-.37,2.15,5,5,0,0,1-1.07,1.7,4.89,4.89,0,0,1-1.7,1.12,6.1,6.1,0,0,1-2.25.4,6.19,6.19,0,0,1-2.26-.4,4.85,4.85,0,0,1-2.77-2.82,6.22,6.22,0,0,1-.37-2.15V62.82h2.42V70.6a4.46,4.46,0,0,0,.2,1.36,3.15,3.15,0,0,0,.59,1,2.66,2.66,0,0,0,.94.66A3.28,3.28,0,0,0,181.13,73.88Z"/><path class="cls-1" d="M188.84,69.47h4.66v1.86h-4.66Z"/><path class="cls-1" d="M200.45,62.82a8.67,8.67,0,0,1,2.19.24,4.3,4.3,0,0,1,1.49.7,2.64,2.64,0,0,1,.85,1.09,3.63,3.63,0,0,1,.27,1.44,2.82,2.82,0,0,1-.13.87,2.62,2.62,0,0,1-.42.79,3.29,3.29,0,0,1-.72.66,4.37,4.37,0,0,1-1,.5c1.79.4,2.68,1.37,2.68,2.9a3.7,3.7,0,0,1-.31,1.53,3.39,3.39,0,0,1-.92,1.21,4.6,4.6,0,0,1-1.49.8,6.55,6.55,0,0,1-2,.28H196v-13Zm-2.06,1.87v3.76h1.93A3.26,3.26,0,0,0,202.2,68a1.63,1.63,0,0,0,.63-1.43,1.7,1.7,0,0,0-.58-1.45,3.06,3.06,0,0,0-1.8-.43Zm2.45,9.25a3.44,3.44,0,0,0,1.14-.16,2.08,2.08,0,0,0,.73-.43,1.59,1.59,0,0,0,.39-.63,2.13,2.13,0,0,0,.13-.76,2.07,2.07,0,0,0-.14-.77,1.46,1.46,0,0,0-.42-.57,2.05,2.05,0,0,0-.74-.37,4.4,4.4,0,0,0-1.1-.12h-2.44v3.81Z"/><path class="cls-1" d="M211.43,66.46a5.06,5.06,0,0,1,1.87.33,4.18,4.18,0,0,1,1.44.94,4.08,4.08,0,0,1,.92,1.5,5.58,5.58,0,0,1,.33,2,5.63,5.63,0,0,1-.33,2,4.07,4.07,0,0,1-2.36,2.46,5.06,5.06,0,0,1-1.87.33,5.15,5.15,0,0,1-1.88-.33,4.09,4.09,0,0,1-1.44-1,4.23,4.23,0,0,1-.93-1.5,5.63,5.63,0,0,1-.33-2,5.58,5.58,0,0,1,.33-2,4.23,4.23,0,0,1,.93-1.5,4.18,4.18,0,0,1,1.44-.94A5.15,5.15,0,0,1,211.43,66.46Zm0,7.8a2,2,0,0,0,1.71-.78,3.85,3.85,0,0,0,.55-2.26,3.92,3.92,0,0,0-.55-2.28,2,2,0,0,0-1.71-.78,2,2,0,0,0-1.73.78,4,4,0,0,0-.56,2.28,3.86,3.86,0,0,0,.56,2.26A2,2,0,0,0,211.43,74.26Z"/><path class="cls-1" d="M221.77,66.46a5.06,5.06,0,0,1,1.87.33,4.18,4.18,0,0,1,1.44.94,4.23,4.23,0,0,1,.93,1.5,5.81,5.81,0,0,1,.32,2,5.87,5.87,0,0,1-.32,2,4.23,4.23,0,0,1-.93,1.5,4.09,4.09,0,0,1-1.44,1,5.06,5.06,0,0,1-1.87.33,5.19,5.19,0,0,1-1.88-.33,4.09,4.09,0,0,1-1.44-1,4.23,4.23,0,0,1-.93-1.5,5.63,5.63,0,0,1-.33-2,5.58,5.58,0,0,1,.33-2,4.23,4.23,0,0,1,.93-1.5,4.18,4.18,0,0,1,1.44-.94A5.19,5.19,0,0,1,221.77,66.46Zm0,7.8a2,2,0,0,0,1.71-.78,3.85,3.85,0,0,0,.55-2.26,3.92,3.92,0,0,0-.55-2.28,2,2,0,0,0-1.71-.78,2,2,0,0,0-1.73.78,4,4,0,0,0-.56,2.28,3.86,3.86,0,0,0,.56,2.26A2,2,0,0,0,221.77,74.26Z"/><path class="cls-1" d="M230.93,76a2.43,2.43,0,0,1-1.85-.68,2.61,2.61,0,0,1-.64-1.88V68.27h-.95a.45.45,0,0,1-.31-.12.48.48,0,0,1-.12-.35v-.88l1.48-.25.47-2.52a.53.53,0,0,1,.17-.28.56.56,0,0,1,.33-.1h1.15v2.91h2.46v1.59h-2.46v5a1,1,0,0,0,.21.67.7.7,0,0,0,.58.25,1.18,1.18,0,0,0,.35,0L232,74l.18-.1a.37.37,0,0,1,.17-.05.28.28,0,0,1,.16.05.5.5,0,0,1,.13.15l.67,1.08a3.38,3.38,0,0,1-1.12.61A4.07,4.07,0,0,1,230.93,76Z"/><path class="cls-1" d="M336.13,75.83h-1.87a.87.87,0,0,1-.52-.16,1,1,0,0,1-.29-.39l-1-2.65h-5.39l-1,2.65a.87.87,0,0,1-.27.38.81.81,0,0,1-.52.17h-1.88l5.11-13H331Zm-4.27-4.91-1.58-4.32c-.08-.19-.16-.42-.25-.69s-.17-.54-.25-.85c-.08.31-.16.59-.24.86l-.24.7-1.58,4.3Z"/><path class="cls-1" d="M339.2,68.21a3.94,3.94,0,0,1,1-1.3,2.18,2.18,0,0,1,1.41-.47,1.76,1.76,0,0,1,1,.27l-.14,1.67a.56.56,0,0,1-.13.23.41.41,0,0,1-.23.06,2.41,2.41,0,0,1-.4,0,3.15,3.15,0,0,0-.52,0,1.94,1.94,0,0,0-.66.11,1.66,1.66,0,0,0-.51.31,2.18,2.18,0,0,0-.41.49,5.09,5.09,0,0,0-.32.66v5.68h-2.22V66.61h1.3a.73.73,0,0,1,.48.12.69.69,0,0,1,.17.43Z"/><path class="cls-1" d="M343.81,75.83V66.61h1.36a.54.54,0,0,1,.56.4l.15.68a5.75,5.75,0,0,1,.5-.49,3.6,3.6,0,0,1,.57-.39,3.37,3.37,0,0,1,.65-.25,2.59,2.59,0,0,1,.76-.1,2.16,2.16,0,0,1,1.43.47,3,3,0,0,1,.84,1.26,2.63,2.63,0,0,1,.54-.79,2.74,2.74,0,0,1,.71-.53,3.38,3.38,0,0,1,.82-.31,4.32,4.32,0,0,1,.88-.1,3.62,3.62,0,0,1,1.36.24,2.55,2.55,0,0,1,1,.68,3,3,0,0,1,.62,1.1,4.76,4.76,0,0,1,.21,1.48v5.87h-2.22V70a2,2,0,0,0-.39-1.33,1.42,1.42,0,0,0-1.13-.44,1.81,1.81,0,0,0-.63.11,1.52,1.52,0,0,0-.51.34,1.48,1.48,0,0,0-.35.55,2.3,2.3,0,0,0-.13.77v5.87h-2.22V70a2,2,0,0,0-.38-1.35,1.38,1.38,0,0,0-1.09-.42,1.78,1.78,0,0,0-.9.24,2.76,2.76,0,0,0-.78.65v6.75Z"/></g></svg>