<svg xmlns="http://www.w3.org/2000/svg" viewBox="0 0 407.89 139.44"><defs><style>.cls-1{fill:#fff;}.cls-2{fill:#9c3;}.cls-3{fill:#e00;}</style></defs><g id="map"><rect class="cls-1" x="101.45" y="65.22" width="211.73" height="9"/><circle class="cls-2" cx="67.76" cy="69.72" r="54.66"/><path class="cls-1" d="M67.76,127.92a58.2,58.2,0,1,1,41.18-17A58,58,0,0,1,67.76,127.92Zm0-109.28a51.08,51.08,0,1,0,36.14,15A50.91,50.91,0,0,0,67.76,18.64Z"/><circle class="cls-3" cx="340.13" cy="69.72" r="54.66"/><path class="cls-1" d="M340.13,127.94a57.8,57.8,0,0,1-41.17-17h0a58.23,58.23,0,1,1,41.17,17Zm0-109.3A51.08,51.08,0,0,0,304,105.85h0a51.1,51.1,0,1,0,36.14-87.21Z"/><path d="M51.88,74.61v2H44.27v-13h2.41v11Z"/><path d="M55.86,64.7a1.25,1.25,0,0,1-.12.54,1.52,1.52,0,0,1-.31.44A1.37,1.37,0,0,1,55,66a1.33,1.33,0,0,1-.56.11,1.24,1.24,0,0,1-.54-.11,1.27,1.27,0,0,1-.45-.3,1.49,1.49,0,0,1-.3-.44A1.41,1.41,0,0,1,53,64.7a1.51,1.51,0,0,1,.11-.56,1.54,1.54,0,0,1,.3-.45,1.61,1.61,0,0,1,.45-.3,1.41,1.41,0,0,1,.54-.11,1.51,1.51,0,0,1,.56.11,1.77,1.77,0,0,1,.45.3,1.57,1.57,0,0,1,.31.45A1.34,1.34,0,0,1,55.86,64.7Zm-.31,2.69v9.22H53.32V67.39Z"/><path d="M59.89,68.52a5.78,5.78,0,0,1,.59-.52,3.75,3.75,0,0,1,.66-.4,3.4,3.4,0,0,1,.74-.26,3.64,3.64,0,0,1,2.2.16,2.72,2.72,0,0,1,1,.72,3.32,3.32,0,0,1,.59,1.1,4.87,4.87,0,0,1,.2,1.42v5.87H63.63V70.74a2,2,0,0,0-.39-1.31A1.42,1.42,0,0,0,62.07,69a2.33,2.33,0,0,0-1.08.26,3.68,3.68,0,0,0-1,.71v6.67H57.82V67.39h1.35a.54.54,0,0,1,.57.4Z"/><path d="M67.74,68.67a5.46,5.46,0,0,1,3.83-1.45,3.66,3.66,0,0,1,1.44.26,3,3,0,0,1,1.75,1.87A4.33,4.33,0,0,1,75,70.78v5.83H74a.9.9,0,0,1-.48-.1.6.6,0,0,1-.27-.38l-.2-.66a7.82,7.82,0,0,1-.68.55,4.4,4.4,0,0,1-.69.4,3.85,3.85,0,0,1-.77.25,5.14,5.14,0,0,1-.91.08,3.38,3.38,0,0,1-1.07-.16,2.32,2.32,0,0,1-.86-.47,2.23,2.23,0,0,1-.56-.78,2.8,2.8,0,0,1-.19-1.09,2.37,2.37,0,0,1,.11-.69,2.05,2.05,0,0,1,.39-.66,3.13,3.13,0,0,1,.68-.6,5,5,0,0,1,1-.48A9.13,9.13,0,0,1,71,71.48a14.2,14.2,0,0,1,1.87-.16v-.54a2.05,2.05,0,0,0-.39-1.37A1.47,1.47,0,0,0,71.29,69a2.88,2.88,0,0,0-.9.12,4,4,0,0,0-.62.29l-.49.28a1,1,0,0,1-.49.13.65.65,0,0,1-.4-.12,1.42,1.42,0,0,1-.26-.29Zm5.08,4a12.08,12.08,0,0,0-1.61.17,4.22,4.22,0,0,0-1.06.31,1.3,1.3,0,0,0-.56.44,1,1,0,0,0-.17.55,1,1,0,0,0,.34.83,1.51,1.51,0,0,0,.91.25A2.7,2.7,0,0,0,71.85,75a3.63,3.63,0,0,0,1-.75Z"/><path d="M79.17,69a4,4,0,0,1,1-1.3,2.18,2.18,0,0,1,1.41-.47,1.76,1.76,0,0,1,1,.27l-.14,1.67a.5.5,0,0,1-.13.23.41.41,0,0,1-.23.06,2.41,2.41,0,0,1-.4,0,3.15,3.15,0,0,0-.52,0,1.94,1.94,0,0,0-.66.11,1.66,1.66,0,0,0-.51.31,2.18,2.18,0,0,0-.41.49,5.09,5.09,0,0,0-.32.66v5.68H77.08V67.39h1.3a.68.68,0,0,1,.47.12.69.69,0,0,1,.18.43Z"/><path d="M87.6,67.24a4.85,4.85,0,0,1,1.86.34A4,4,0,0,1,91.82,70a5.58,5.58,0,0,1,.33,2,5.63,5.63,0,0,1-.33,2,4.25,4.25,0,0,1-.92,1.5,4.07,4.07,0,0,1-1.44,1,5,5,0,0,1-1.86.33,5.12,5.12,0,0,1-1.88-.33,4.07,4.07,0,0,1-1.44-1,4.42,4.42,0,0,1-.93-1.5A5.63,5.63,0,0,1,83,72a5.58,5.58,0,0,1,.33-2,4.19,4.19,0,0,1,.93-1.49,4,4,0,0,1,1.44-.94A4.92,4.92,0,0,1,87.6,67.24Zm0,7.79a1.93,1.93,0,0,0,1.7-.77A3.85,3.85,0,0,0,89.85,72a3.92,3.92,0,0,0-.55-2.28,1.94,1.94,0,0,0-1.7-.78,2,2,0,0,0-1.73.79,4.86,4.86,0,0,0,0,4.53A2,2,0,0,0,87.6,75Z"/><circle cx="203.41" cy="69.72" r="54.66"/><path class="cls-1" d="M203.42,127.94a57.84,57.84,0,0,1-41.18-17h0a58.23,58.23,0,1,1,41.18,17Zm0-109.3a51.08,51.08,0,0,0-36.14,87.21h0a51.1,51.1,0,1,0,36.14-87.21Z"/><path class="cls-1" d="M173.89,70.06a7.34,7.34,0,0,1-.47,2.65,6.29,6.29,0,0,1-1.34,2.11,6.15,6.15,0,0,1-2.08,1.4,7.51,7.51,0,0,1-5.39,0,6.19,6.19,0,0,1-2.09-1.4,6.29,6.29,0,0,1-1.34-2.11,7.14,7.14,0,0,1-.48-2.65,7.21,7.21,0,0,1,.48-2.65,6.49,6.49,0,0,1,1.34-2.11,6.32,6.32,0,0,1,2.09-1.39,7.08,7.08,0,0,1,2.69-.5,7.4,7.4,0,0,1,1.86.23,6.71,6.71,0,0,1,1.6.65,5.69,5.69,0,0,1,1.31,1,6.14,6.14,0,0,1,1,1.33,6.64,6.64,0,0,1,.62,1.61A7.61,7.61,0,0,1,173.89,70.06Zm-2.48,0a5.78,5.78,0,0,0-.29-1.92,4.12,4.12,0,0,0-.81-1.44,3.52,3.52,0,0,0-1.3-.91,4.38,4.38,0,0,0-1.71-.32,4.47,4.47,0,0,0-1.72.32,3.56,3.56,0,0,0-1.29.91,4,4,0,0,0-.82,1.44,6.53,6.53,0,0,0,0,3.85,4.07,4.07,0,0,0,.82,1.44,3.66,3.66,0,0,0,1.29.9,4.47,4.47,0,0,0,1.72.32,4.38,4.38,0,0,0,1.71-.32,3.61,3.61,0,0,0,1.3-.9,4.21,4.21,0,0,0,.81-1.44A5.8,5.8,0,0,0,171.41,70.06Z"/><path class="cls-1" d="M177.62,68.6a4.92,4.92,0,0,1,1.29-1,3.49,3.49,0,0,1,1.69-.39,3,3,0,0,1,1.38.31,3.13,3.13,0,0,1,1.08.91,4.23,4.23,0,0,1,.7,1.48,7.27,7.27,0,0,1,.25,2,6.23,6.23,0,0,1-.28,1.92,4.62,4.62,0,0,1-.79,1.53,3.79,3.79,0,0,1-1.25,1,3.71,3.71,0,0,1-1.65.37,3.31,3.31,0,0,1-1.32-.24,3.25,3.25,0,0,1-1-.66v3.78h-2.22V67.34h1.35a.54.54,0,0,1,.57.4Zm.12,5.58a2.19,2.19,0,0,0,.82.64,2.4,2.4,0,0,0,1,.19,2.06,2.06,0,0,0,.91-.19,1.71,1.71,0,0,0,.69-.57,2.77,2.77,0,0,0,.43-1,5.16,5.16,0,0,0,.16-1.39,6.56,6.56,0,0,0-.13-1.37,2.65,2.65,0,0,0-.38-.91,1.46,1.46,0,0,0-.59-.52,1.78,1.78,0,0,0-.78-.16,2.27,2.27,0,0,0-1.18.29,3.53,3.53,0,0,0-.92.83Z"/><path class="cls-1" d="M187.45,72.23a4.52,4.52,0,0,0,.25,1.23,2.6,2.6,0,0,0,.52.86,2.18,2.18,0,0,0,.77.5,3.16,3.16,0,0,0,1.92,0,4,4,0,0,0,.68-.28l.52-.28a.88.88,0,0,1,.43-.12.47.47,0,0,1,.41.2l.64.81a3.82,3.82,0,0,1-.83.73,5.33,5.33,0,0,1-1,.47,5.11,5.11,0,0,1-1,.24,7.1,7.1,0,0,1-1,.08,5,5,0,0,1-1.79-.32,4.11,4.11,0,0,1-1.44-1,4.33,4.33,0,0,1-1-1.55,5.8,5.8,0,0,1-.35-2.13,5.2,5.2,0,0,1,.3-1.78,4.34,4.34,0,0,1,.88-1.45,4.15,4.15,0,0,1,1.4-1,4.52,4.52,0,0,1,1.85-.36,4.61,4.61,0,0,1,1.61.28,3.44,3.44,0,0,1,1.27.82,3.74,3.74,0,0,1,.84,1.31,4.92,4.92,0,0,1,.3,1.78,1.49,1.49,0,0,1-.11.68.46.46,0,0,1-.41.17Zm4.24-1.34a2.64,2.64,0,0,0-.12-.81,1.75,1.75,0,0,0-.37-.67,1.67,1.67,0,0,0-.61-.46,2.14,2.14,0,0,0-.87-.16,2.06,2.06,0,0,0-1.52.55,2.64,2.64,0,0,0-.7,1.55Z"/><path class="cls-1" d="M197.43,68.47A5.78,5.78,0,0,1,198,68a3.75,3.75,0,0,1,.66-.4,3.6,3.6,0,0,1,.74-.26,3.64,3.64,0,0,1,2.2.16,2.63,2.63,0,0,1,1,.72,3.29,3.29,0,0,1,.6,1.11,4.85,4.85,0,0,1,.2,1.41v5.88h-2.23V70.69a2,2,0,0,0-.38-1.31,1.48,1.48,0,0,0-1.18-.46,2.36,2.36,0,0,0-1.08.26,3.74,3.74,0,0,0-.95.71v6.68h-2.23V67.34h1.36a.54.54,0,0,1,.57.4Z"/><path class="cls-1" d="M212.64,65.92a.84.84,0,0,1-.23.28.48.48,0,0,1-.3.08.72.72,0,0,1-.41-.14l-.53-.31a5.37,5.37,0,0,0-.71-.31,3.1,3.1,0,0,0-1-.14,2.59,2.59,0,0,0-.88.13,2,2,0,0,0-.64.33,1.49,1.49,0,0,0-.38.52,1.76,1.76,0,0,0-.12.66,1.17,1.17,0,0,0,.25.77,2.15,2.15,0,0,0,.68.52,7.35,7.35,0,0,0,1,.39l1.11.36a10.73,10.73,0,0,1,1.11.45,3.78,3.78,0,0,1,1,.65,2.93,2.93,0,0,1,.68,1,3.28,3.28,0,0,1,.26,1.37,4.57,4.57,0,0,1-.3,1.66,3.79,3.79,0,0,1-.89,1.34,4.16,4.16,0,0,1-1.41.9,5.22,5.22,0,0,1-1.92.33,6.81,6.81,0,0,1-2.38-.47,6,6,0,0,1-1-.54,5.46,5.46,0,0,1-.86-.7l.71-1.17a.78.78,0,0,1,.23-.21.68.68,0,0,1,.31-.08.85.85,0,0,1,.48.18l.62.41a4.69,4.69,0,0,0,.84.41,3.35,3.35,0,0,0,1.16.19,2.34,2.34,0,0,0,1.6-.5,1.73,1.73,0,0,0,.57-1.4,1.26,1.26,0,0,0-.26-.84,2,2,0,0,0-.68-.55,5.34,5.34,0,0,0-1-.37l-1.1-.33a11.2,11.2,0,0,1-1.09-.43,3.62,3.62,0,0,1-1-.66,3,3,0,0,1-.68-1,3.92,3.92,0,0,1-.25-1.5,3.52,3.52,0,0,1,.28-1.39,3.48,3.48,0,0,1,.82-1.19,4,4,0,0,1,1.34-.84,4.83,4.83,0,0,1,1.81-.32,6.1,6.1,0,0,1,2.13.36,4.73,4.73,0,0,1,1.65,1Z"/><path class="cls-1" d="M217.92,76.72a2.43,2.43,0,0,1-1.85-.68,2.63,2.63,0,0,1-.65-1.88V69h-.94a.47.47,0,0,1-.31-.11.49.49,0,0,1-.13-.36v-.88l1.49-.24.47-2.52a.48.48,0,0,1,.17-.28.47.47,0,0,1,.32-.1h1.16v2.91h2.46V69h-2.46v5a1,1,0,0,0,.21.67.73.73,0,0,0,.58.24.84.84,0,0,0,.34,0,1.18,1.18,0,0,0,.25-.1l.18-.1a.27.27,0,0,1,.16,0,.25.25,0,0,1,.17,0,.69.69,0,0,1,.13.15l.67,1.08a3.48,3.48,0,0,1-1.12.61A4.07,4.07,0,0,1,217.92,76.72Z"/><path class="cls-1" d="M221.32,68.62a5.48,5.48,0,0,1,3.83-1.45,3.71,3.71,0,0,1,1.45.26,3,3,0,0,1,1.08.74,3.11,3.11,0,0,1,.67,1.13,4.44,4.44,0,0,1,.23,1.44v5.83h-1a1,1,0,0,1-.48-.09.62.62,0,0,1-.27-.39l-.2-.66a7.89,7.89,0,0,1-.69.55,4,4,0,0,1-.69.4,3.66,3.66,0,0,1-.77.25,4.16,4.16,0,0,1-.9.09,3.71,3.71,0,0,1-1.08-.16,2.47,2.47,0,0,1-.86-.47,2.27,2.27,0,0,1-.56-.79,2.8,2.8,0,0,1-.19-1.09,2.37,2.37,0,0,1,.11-.69,2,2,0,0,1,.39-.67,3.1,3.1,0,0,1,.68-.59,4.57,4.57,0,0,1,1-.49,9.07,9.07,0,0,1,1.44-.33,14.2,14.2,0,0,1,1.87-.16v-.54a2,2,0,0,0-.39-1.37,1.46,1.46,0,0,0-1.15-.45,2.5,2.5,0,0,0-.89.13,3.71,3.71,0,0,0-.63.28l-.49.28a.92.92,0,0,1-.49.13.65.65,0,0,1-.4-.12,1.37,1.37,0,0,1-.26-.28Zm5.09,4a10.91,10.91,0,0,0-1.62.17,4,4,0,0,0-1,.31,1.33,1.33,0,0,0-.57.44,1,1,0,0,0-.17.55,1,1,0,0,0,.35.83,1.48,1.48,0,0,0,.9.25,2.67,2.67,0,0,0,1.18-.24,3.66,3.66,0,0,0,1-.75Z"/><path class="cls-1" d="M237.28,69.29a1.23,1.23,0,0,1-.19.2.41.41,0,0,1-.27.07.61.61,0,0,1-.34-.1l-.38-.24a3.5,3.5,0,0,0-.54-.23,2.44,2.44,0,0,0-.77-.1,2.4,2.4,0,0,0-1,.21,2,2,0,0,0-.73.6,3,3,0,0,0-.44,1,5.51,5.51,0,0,0-.14,1.28,4.75,4.75,0,0,0,.16,1.31,2.72,2.72,0,0,0,.45,1,1.94,1.94,0,0,0,.72.59,2.12,2.12,0,0,0,1,.2,2.32,2.32,0,0,0,.86-.13,2.82,2.82,0,0,0,.55-.28l.39-.29a.58.58,0,0,1,.37-.13.47.47,0,0,1,.41.2l.64.81a4.2,4.2,0,0,1-.8.73,4.83,4.83,0,0,1-.9.47,4.56,4.56,0,0,1-.95.24,6.48,6.48,0,0,1-1,.08,4.13,4.13,0,0,1-1.61-.32,3.94,3.94,0,0,1-1.32-.94,4.33,4.33,0,0,1-.9-1.49,6.23,6.23,0,0,1,0-3.91,4.12,4.12,0,0,1,.86-1.5,3.77,3.77,0,0,1,1.4-1,4.85,4.85,0,0,1,1.93-.36,4.43,4.43,0,0,1,1.81.34,4.51,4.51,0,0,1,1.4,1Z"/><path class="cls-1" d="M241.57,63.2v7.66H242a.9.9,0,0,0,.36-.06.8.8,0,0,0,.26-.24l2.3-2.84a.94.94,0,0,1,.32-.28.86.86,0,0,1,.45-.1h2l-2.88,3.43a2.4,2.4,0,0,1-.66.62,2,2,0,0,1,.34.31c.09.12.19.25.28.39l3.08,4.48h-2a1.25,1.25,0,0,1-.45-.08.79.79,0,0,1-.32-.31l-2.35-3.51a.84.84,0,0,0-.26-.27,1.07,1.07,0,0,0-.41-.06h-.5v4.23h-2.23V63.2Z"/><path class="cls-1" d="M324,77h-2.18a1,1,0,0,1-.9-.49l-2.73-4.16a.88.88,0,0,0-.34-.33,1.1,1.1,0,0,0-.54-.1h-1V77h-2.41V64h4a8.36,8.36,0,0,1,2.27.27,4.41,4.41,0,0,1,1.55.77,3,3,0,0,1,.9,1.19,4,4,0,0,1,.09,2.75,3.48,3.48,0,0,1-.56,1.06,3.76,3.76,0,0,1-.89.84,4.7,4.7,0,0,1-1.22.56,2.67,2.67,0,0,1,.43.32,2.29,2.29,0,0,1,.36.44Zm-6.22-6.82a3.52,3.52,0,0,0,1.19-.17,2.27,2.27,0,0,0,.84-.47,1.93,1.93,0,0,0,.49-.71,2.45,2.45,0,0,0,.16-.91,1.85,1.85,0,0,0-.65-1.52,3.13,3.13,0,0,0-2-.53h-1.55v4.31Z"/><path class="cls-1" d="M326.13,72.69a4.17,4.17,0,0,0,.25,1.23,2.45,2.45,0,0,0,.52.85,2,2,0,0,0,.77.51,2.8,2.8,0,0,0,1,.16,3.18,3.18,0,0,0,.93-.12,5.8,5.8,0,0,0,.69-.28l.51-.28a.9.9,0,0,1,.43-.12.45.45,0,0,1,.41.2l.64.81a3.52,3.52,0,0,1-.83.72,4.27,4.27,0,0,1-1,.47,5.14,5.14,0,0,1-1,.25,7,7,0,0,1-1,.07,5,5,0,0,1-1.79-.32,4.09,4.09,0,0,1-1.44-.94,4.33,4.33,0,0,1-1-1.55,5.8,5.8,0,0,1-.35-2.13,5.24,5.24,0,0,1,.3-1.78A4.39,4.39,0,0,1,325.1,69a4.11,4.11,0,0,1,1.39-1,4.61,4.61,0,0,1,1.86-.36,4.43,4.43,0,0,1,1.61.28,3.6,3.6,0,0,1,1.26.81,3.88,3.88,0,0,1,.84,1.32,4.86,4.86,0,0,1,.3,1.77,1.46,1.46,0,0,1-.11.68.43.43,0,0,1-.41.17Zm4.23-1.34a2.74,2.74,0,0,0-.12-.81,2,2,0,0,0-.36-.67,1.77,1.77,0,0,0-.62-.45,2.14,2.14,0,0,0-.87-.17,2,2,0,0,0-1.51.55,2.67,2.67,0,0,0-.71,1.55Z"/><path class="cls-1" d="M342,63.67V77h-1.36a.53.53,0,0,1-.56-.41l-.19-.89a4.5,4.5,0,0,1-1.28,1,3.37,3.37,0,0,1-1.68.4,3,3,0,0,1-2.47-1.23,4.27,4.27,0,0,1-.7-1.47,7.3,7.3,0,0,1-.25-2,6.41,6.41,0,0,1,.28-1.9,4.64,4.64,0,0,1,.8-1.53,3.7,3.7,0,0,1,1.25-1,3.63,3.63,0,0,1,1.64-.37,3.31,3.31,0,0,1,1.32.25,3.56,3.56,0,0,1,1,.65V63.67Zm-2.22,6.49a2.25,2.25,0,0,0-.83-.65,2.48,2.48,0,0,0-1-.19,2.21,2.21,0,0,0-.91.19,1.89,1.89,0,0,0-.69.57,2.8,2.8,0,0,0-.44,1,5.71,5.71,0,0,0-.16,1.39,6.56,6.56,0,0,0,.13,1.37,2.8,2.8,0,0,0,.38.92,1.36,1.36,0,0,0,.59.51,1.78,1.78,0,0,0,.78.16,2.29,2.29,0,0,0,1.18-.29,3.46,3.46,0,0,0,.92-.82Z"/><path class="cls-1" d="M346.44,68.79a5,5,0,0,1,1.18-.81,3.47,3.47,0,0,1,1.52-.32,3.3,3.3,0,0,1,1.34.26,2.63,2.63,0,0,1,1,.72,3.06,3.06,0,0,1,.59,1.1,4.56,4.56,0,0,1,.2,1.42V77H350V71.16a2,2,0,0,0-.38-1.31,1.45,1.45,0,0,0-1.18-.46,2.27,2.27,0,0,0-1.08.26,3.86,3.86,0,0,0-.95.71V77h-2.22V63.67h2.22Z"/><path class="cls-1" d="M354.14,69.09A5.48,5.48,0,0,1,358,67.63a3.71,3.71,0,0,1,1.45.27,3.08,3.08,0,0,1,1.74,1.86,4.18,4.18,0,0,1,.23,1.44V77h-1a1.06,1.06,0,0,1-.49-.1.68.68,0,0,1-.27-.38l-.2-.67a8,8,0,0,1-.68.56,4,4,0,0,1-.69.4,3.84,3.84,0,0,1-.77.24,4.16,4.16,0,0,1-.9.09,3.4,3.4,0,0,1-1.08-.16,2.32,2.32,0,0,1-.86-.47,2.09,2.09,0,0,1-.55-.78,2.83,2.83,0,0,1-.2-1.09,2.19,2.19,0,0,1,.12-.7,1.85,1.85,0,0,1,.38-.66,3.17,3.17,0,0,1,.69-.59,4.3,4.3,0,0,1,1-.48,9,9,0,0,1,1.44-.34,14,14,0,0,1,1.87-.16V71.2a2.05,2.05,0,0,0-.4-1.37,1.42,1.42,0,0,0-1.14-.44,2.77,2.77,0,0,0-.89.12,3.71,3.71,0,0,0-.63.29l-.49.28a1,1,0,0,1-.49.12.62.62,0,0,1-.39-.12.86.86,0,0,1-.26-.28Zm5.09,4a10.91,10.91,0,0,0-1.62.17,4,4,0,0,0-1.05.31A1.27,1.27,0,0,0,356,74a1,1,0,0,0-.17.54,1,1,0,0,0,.35.84,1.48,1.48,0,0,0,.9.25,2.57,2.57,0,0,0,1.18-.25,3.42,3.42,0,0,0,1-.75Z"/><path class="cls-1" d="M366.43,77.17a2.43,2.43,0,0,1-1.85-.68,2.6,2.6,0,0,1-.64-1.87V69.47H363a.41.41,0,0,1-.3-.12.43.43,0,0,1-.13-.35v-.88l1.48-.24.47-2.52a.53.53,0,0,1,.17-.28A.56.56,0,0,1,365,65h1.15v2.91h2.46v1.58h-2.46v5a1,1,0,0,0,.21.68.73.73,0,0,0,.58.24,1.11,1.11,0,0,0,.34,0,1.45,1.45,0,0,0,.24-.1,1.6,1.6,0,0,0,.19-.11.32.32,0,0,1,.16,0,.25.25,0,0,1,.16,0l.14.15.66,1.08a3.33,3.33,0,0,1-1.11.61A4.11,4.11,0,0,1,366.43,77.17Z"/></g></svg>