<svg xmlns="http://www.w3.org/2000/svg" viewBox="0 0 407.89 139.44"><defs><style>.cls-1{fill:#fff;}.cls-2{fill:#9c3;}.cls-3{fill:#03234b;}</style></defs><g id="map"><rect class="cls-1" x="101.45" y="65.22" width="211.73" height="9"/><circle class="cls-2" cx="67.76" cy="69.72" r="54.66"/><path class="cls-1" d="M67.76,127.92a58,58,0,0,1-41.17-17h0a58.29,58.29,0,1,1,41.17,17ZM31.63,105.85a51.1,51.1,0,1,0,0-72.26,51.15,51.15,0,0,0,0,72.26Z"/><circle class="cls-3" cx="340.13" cy="69.72" r="54.66"/><path class="cls-1" d="M340.13,127.94a57.8,57.8,0,0,1-41.17-17h0a58.23,58.23,0,1,1,41.17,17Zm0-109.32A51.1,51.1,0,0,0,304,105.85h0a51.1,51.1,0,1,0,72.27-72.26A50.72,50.72,0,0,0,340.13,18.62Z"/><path d="M51.88,74.61v2H44.27v-13h2.41v11Z"/><path d="M55.86,64.7a1.25,1.25,0,0,1-.12.54,1.52,1.52,0,0,1-.31.44A1.37,1.37,0,0,1,55,66a1.33,1.33,0,0,1-.56.11,1.24,1.24,0,0,1-.54-.11,1.27,1.27,0,0,1-.45-.3,1.49,1.49,0,0,1-.3-.44A1.41,1.41,0,0,1,53,64.7a1.51,1.51,0,0,1,.11-.56,1.54,1.54,0,0,1,.3-.45,1.61,1.61,0,0,1,.45-.3,1.41,1.41,0,0,1,.54-.11,1.51,1.51,0,0,1,.56.11,1.77,1.77,0,0,1,.45.3,1.57,1.57,0,0,1,.31.45A1.34,1.34,0,0,1,55.86,64.7Zm-.31,2.69v9.22H53.32V67.39Z"/><path d="M59.89,68.52a5.78,5.78,0,0,1,.59-.52,3.75,3.75,0,0,1,.66-.4,3.4,3.4,0,0,1,.74-.26,3.83,3.83,0,0,1,.86-.1,3.34,3.34,0,0,1,1.34.26,2.72,2.72,0,0,1,1,.72,3.32,3.32,0,0,1,.59,1.1,4.87,4.87,0,0,1,.2,1.42v5.87H63.63V70.74a2,2,0,0,0-.39-1.31A1.42,1.42,0,0,0,62.07,69a2.33,2.33,0,0,0-1.08.26,3.68,3.68,0,0,0-1,.71v6.67H57.82V67.39h1.35a.54.54,0,0,1,.57.4Z"/><path d="M67.74,68.67a5.46,5.46,0,0,1,3.83-1.45,3.85,3.85,0,0,1,1.44.26,3,3,0,0,1,1.75,1.87A4.33,4.33,0,0,1,75,70.78v5.83H74a.9.9,0,0,1-.48-.1.6.6,0,0,1-.27-.38l-.2-.66a7.82,7.82,0,0,1-.68.55,4.4,4.4,0,0,1-.69.4,3.85,3.85,0,0,1-.77.25,5.14,5.14,0,0,1-.91.08,3.38,3.38,0,0,1-1.07-.16,2.32,2.32,0,0,1-.86-.47,2.23,2.23,0,0,1-.56-.78,2.8,2.8,0,0,1-.19-1.09,2.37,2.37,0,0,1,.11-.69,2.05,2.05,0,0,1,.39-.66,3.13,3.13,0,0,1,.68-.6,5,5,0,0,1,1-.48A9.13,9.13,0,0,1,71,71.48a14.2,14.2,0,0,1,1.87-.16v-.54a2.05,2.05,0,0,0-.39-1.37A1.47,1.47,0,0,0,71.29,69a2.6,2.6,0,0,0-.9.13,3.22,3.22,0,0,0-.62.28l-.49.28a.92.92,0,0,1-.49.13.65.65,0,0,1-.4-.12,1.42,1.42,0,0,1-.26-.29Zm5.08,4a12.08,12.08,0,0,0-1.61.17,4.22,4.22,0,0,0-1.06.31,1.3,1.3,0,0,0-.56.44,1,1,0,0,0-.17.55,1,1,0,0,0,.34.83,1.51,1.51,0,0,0,.91.25A2.7,2.7,0,0,0,71.85,75a3.63,3.63,0,0,0,1-.75Z"/><path d="M79.17,69a4,4,0,0,1,1-1.3,2.18,2.18,0,0,1,1.41-.47,1.69,1.69,0,0,1,1,.28l-.14,1.66a.5.5,0,0,1-.13.23.41.41,0,0,1-.23.06,2.41,2.41,0,0,1-.4,0,3.12,3.12,0,0,0-.52,0,2,2,0,0,0-.66.1,1.66,1.66,0,0,0-.51.31,2.18,2.18,0,0,0-.41.49,5.09,5.09,0,0,0-.32.66v5.68H77.08V67.39h1.3a.68.68,0,0,1,.47.12A.72.72,0,0,1,79,68Z"/><path d="M87.6,67.24a4.85,4.85,0,0,1,1.86.34A4,4,0,0,1,91.82,70a6.08,6.08,0,0,1,0,3.95,4.25,4.25,0,0,1-.92,1.5,4.07,4.07,0,0,1-1.44,1,5,5,0,0,1-1.86.33,5.12,5.12,0,0,1-1.88-.33,4.07,4.07,0,0,1-1.44-1,4.42,4.42,0,0,1-.93-1.5,6.08,6.08,0,0,1,0-3.95,4.19,4.19,0,0,1,.93-1.49,4,4,0,0,1,1.44-.94A4.92,4.92,0,0,1,87.6,67.24Zm0,7.8a1.94,1.94,0,0,0,1.7-.78A3.85,3.85,0,0,0,89.85,72a3.94,3.94,0,0,0-.55-2.28,1.94,1.94,0,0,0-1.7-.78,2,2,0,0,0-1.73.79,4.86,4.86,0,0,0,0,4.53A2,2,0,0,0,87.6,75Z"/><circle cx="203.41" cy="69.72" r="54.66"/><path class="cls-1" d="M203.42,127.94a58.22,58.22,0,0,1-41.18-99.39,58.22,58.22,0,0,1,82.34,82.34A57.79,57.79,0,0,1,203.42,127.94Zm0-109.32a51.1,51.1,0,0,0-36.14,87.23,51.1,51.1,0,1,0,72.27-72.26A50.74,50.74,0,0,0,203.42,18.62Z"/><path class="cls-1" d="M173.26,52a8.58,8.58,0,0,1,2.18.24,4,4,0,0,1,1.49.69,2.7,2.7,0,0,1,.85,1.09,3.7,3.7,0,0,1,.27,1.44,2.84,2.84,0,0,1-.13.88,2.46,2.46,0,0,1-.42.78,3.1,3.1,0,0,1-.72.67,4.79,4.79,0,0,1-1,.5c1.79.4,2.68,1.37,2.68,2.9a3.7,3.7,0,0,1-.31,1.53,3.48,3.48,0,0,1-.92,1.21,4.36,4.36,0,0,1-1.48.79,6.27,6.27,0,0,1-2,.29h-4.91V52Zm-2.06,1.87v3.76h1.92a3.24,3.24,0,0,0,1.88-.45,1.63,1.63,0,0,0,.63-1.43,1.71,1.71,0,0,0-.57-1.45,3,3,0,0,0-1.8-.43Zm2.44,9.25a3.44,3.44,0,0,0,1.14-.16,2,2,0,0,0,.73-.43,1.61,1.61,0,0,0,.4-.63,2.43,2.43,0,0,0,.12-.77,2.06,2.06,0,0,0-.14-.76,1.46,1.46,0,0,0-.42-.57,2.05,2.05,0,0,0-.74-.37,4.35,4.35,0,0,0-1.1-.12H171.2v3.81Z"/><path class="cls-1" d="M188.07,55.82v9.23h-1.36a.53.53,0,0,1-.56-.4l-.15-.74a5.08,5.08,0,0,1-1.25.93,3.41,3.41,0,0,1-1.61.36,3.34,3.34,0,0,1-1.34-.26,2.68,2.68,0,0,1-1-.72,3.1,3.1,0,0,1-.6-1.12,4.54,4.54,0,0,1-.2-1.41V55.82h2.22v5.87a2,2,0,0,0,.39,1.31,1.47,1.47,0,0,0,1.17.46,2.33,2.33,0,0,0,1.08-.26,3.68,3.68,0,0,0,1-.7V55.82Z"/><path class="cls-1" d="M195.9,57.62a.61.61,0,0,1-.19.2.46.46,0,0,1-.25.06.83.83,0,0,1-.35-.09l-.42-.2a3.64,3.64,0,0,0-.56-.21,2.6,2.6,0,0,0-.73-.09,1.73,1.73,0,0,0-1,.28.87.87,0,0,0-.37.73.68.68,0,0,0,.19.5,1.85,1.85,0,0,0,.51.36,5.1,5.1,0,0,0,.73.27l.82.27a6.38,6.38,0,0,1,.82.33,2.91,2.91,0,0,1,.73.46,2.29,2.29,0,0,1,.51.68,2.19,2.19,0,0,1,.19,1,3.32,3.32,0,0,1-.23,1.23,2.8,2.8,0,0,1-.71,1,3.49,3.49,0,0,1-1.16.64,5.12,5.12,0,0,1-1.59.23,4.88,4.88,0,0,1-.93-.09,6.2,6.2,0,0,1-.87-.24,4.2,4.2,0,0,1-.77-.36,3.91,3.91,0,0,1-.63-.45l.51-.84a.78.78,0,0,1,.24-.24.72.72,0,0,1,.73,0c.12.08.27.16.43.25a3.87,3.87,0,0,0,.57.25,2.47,2.47,0,0,0,.83.12,2,2,0,0,0,.68-.1,1.38,1.38,0,0,0,.47-.24,1,1,0,0,0,.27-.36,1,1,0,0,0,.08-.42.75.75,0,0,0-.19-.53,1.66,1.66,0,0,0-.51-.36,5.1,5.1,0,0,0-.73-.27l-.84-.27a6.58,6.58,0,0,1-.83-.34,2.46,2.46,0,0,1-.73-.49,2.06,2.06,0,0,1-.52-.73,2.48,2.48,0,0,1-.19-1,2.82,2.82,0,0,1,.22-1.08,2.52,2.52,0,0,1,.67-.89,3.28,3.28,0,0,1,1.09-.62,4.55,4.55,0,0,1,1.5-.23,4.61,4.61,0,0,1,1.74.32,3.87,3.87,0,0,1,1.31.83Z"/><path class="cls-1" d="M206.39,55.82l-5,11.77a1,1,0,0,1-.26.36.81.81,0,0,1-.48.12H199l1.73-3.71L197,55.82h2a.65.65,0,0,1,.41.12.86.86,0,0,1,.22.29l2,4.79a4,4,0,0,1,.17.49c0,.16.08.32.13.49,0-.17.1-.33.16-.5a4.84,4.84,0,0,1,.18-.49L204,56.23a.64.64,0,0,1,.61-.41Z"/><path class="cls-1" d="M209.72,57A4.54,4.54,0,0,1,211,56a3.41,3.41,0,0,1,1.56-.35A3.24,3.24,0,0,1,214,56a3.08,3.08,0,0,1,1.1.9,4.54,4.54,0,0,1,.7,1.43,7.53,7.53,0,0,1,0,3.92,4.56,4.56,0,0,1-.8,1.57,3.58,3.58,0,0,1-1.24,1,3.63,3.63,0,0,1-1.62.36,3.24,3.24,0,0,1-.79-.09,2.57,2.57,0,0,1-.64-.24,2.53,2.53,0,0,1-.55-.37,5.5,5.5,0,0,1-.47-.49l-.1.62a.48.48,0,0,1-.54.43h-1.47V51.68h2.23Zm0,5.71a2.25,2.25,0,0,0,.82.65,2.5,2.5,0,0,0,.94.18,2.25,2.25,0,0,0,.92-.18,1.62,1.62,0,0,0,.7-.58,2.83,2.83,0,0,0,.44-1,6.19,6.19,0,0,0,.15-1.46,3.72,3.72,0,0,0-.5-2.2,1.71,1.71,0,0,0-1.45-.68,2.11,2.11,0,0,0-1.11.29,3.5,3.5,0,0,0-.91.83Z"/><path class="cls-1" d="M221.79,55.67a4.87,4.87,0,0,1,1.87.34A4,4,0,0,1,226,58.45a5.54,5.54,0,0,1,.33,2,5.63,5.63,0,0,1-.33,2,4,4,0,0,1-2.36,2.45,4.87,4.87,0,0,1-1.87.34,5,5,0,0,1-1.88-.34,4.07,4.07,0,0,1-1.44-.95,4.23,4.23,0,0,1-.93-1.5,5.63,5.63,0,0,1-.33-2,5.54,5.54,0,0,1,.33-2,4.23,4.23,0,0,1,.93-1.5,4,4,0,0,1,1.44-.94A5,5,0,0,1,221.79,55.67Zm0,7.81a2,2,0,0,0,1.71-.78,3.86,3.86,0,0,0,.55-2.27,3.9,3.9,0,0,0-.55-2.27,2,2,0,0,0-1.71-.78,2,2,0,0,0-1.73.78,3.94,3.94,0,0,0-.56,2.27,3.88,3.88,0,0,0,.56,2.27A2,2,0,0,0,221.79,63.48Z"/><path class="cls-1" d="M235.88,65.05h-2.14a.59.59,0,0,1-.39-.12,1.13,1.13,0,0,1-.25-.29l-1.95-3.21a2.33,2.33,0,0,1-.11.28,2.1,2.1,0,0,1-.13.26l-1.73,2.67a1.23,1.23,0,0,1-.24.28.52.52,0,0,1-.36.13h-2l3.17-4.76-3-4.47h2.14a.7.7,0,0,1,.36.07.5.5,0,0,1,.21.22l1.93,3.07a3.23,3.23,0,0,1,.28-.6l1.56-2.43a.58.58,0,0,1,.51-.33h2l-3,4.37Z"/><path class="cls-1" d="M236.89,57.41a1.35,1.35,0,0,1,.1-.53,1.28,1.28,0,0,1,.28-.43,1.35,1.35,0,0,1,.44-.29,1.36,1.36,0,0,1,1.07,0,1.3,1.3,0,0,1,.43.29,1.33,1.33,0,0,1,.3.43,1.35,1.35,0,0,1,.1.53,1.23,1.23,0,0,1-.4,1,1.3,1.3,0,0,1-.43.29,1.32,1.32,0,0,1-.53.1,1.33,1.33,0,0,1-.54-.1A1.3,1.3,0,0,1,237,58,1.4,1.4,0,0,1,236.89,57.41Zm0,6.42a1.35,1.35,0,0,1,.1-.53,1.28,1.28,0,0,1,.28-.43,1.21,1.21,0,0,1,.44-.29,1.36,1.36,0,0,1,1.07,0,1.17,1.17,0,0,1,.43.29,1.33,1.33,0,0,1,.3.43,1.35,1.35,0,0,1,.1.53,1.27,1.27,0,0,1-.4,1,1.15,1.15,0,0,1-.43.28,1.36,1.36,0,0,1-1.07,0,1.18,1.18,0,0,1-.44-.28,1.28,1.28,0,0,1-.28-.43A1.32,1.32,0,0,1,236.89,63.83Z"/><path class="cls-1" d="M172.5,72a8.72,8.72,0,0,1,2.19.24,4.2,4.2,0,0,1,1.49.69,2.79,2.79,0,0,1,.85,1.09,3.7,3.7,0,0,1,.27,1.44,2.84,2.84,0,0,1-.14.88,2.65,2.65,0,0,1-.41.78,3,3,0,0,1-.73.67,4.7,4.7,0,0,1-1,.5c1.78.4,2.68,1.37,2.68,2.9a3.71,3.71,0,0,1-.32,1.53,3.36,3.36,0,0,1-.92,1.21,4.26,4.26,0,0,1-1.48.79,6.27,6.27,0,0,1-2,.29H168V72Zm-2.06,1.87v3.76h1.93a3.23,3.23,0,0,0,1.87-.45,1.61,1.61,0,0,0,.64-1.43,1.68,1.68,0,0,0-.58-1.45,3,3,0,0,0-1.8-.43Zm2.45,9.25A3.34,3.34,0,0,0,174,83a2,2,0,0,0,.74-.43,1.59,1.59,0,0,0,.39-.63,2.43,2.43,0,0,0,.12-.77,2.06,2.06,0,0,0-.13-.76,1.39,1.39,0,0,0-.43-.57,2,2,0,0,0-.74-.37,4.26,4.26,0,0,0-1.09-.12h-2.44v3.81Z"/><path class="cls-1" d="M187.32,75.82v9.23H186a.52.52,0,0,1-.56-.4l-.15-.74a5.28,5.28,0,0,1-1.25.93,3.46,3.46,0,0,1-1.62.36,3.25,3.25,0,0,1-1.33-.26,2.63,2.63,0,0,1-1-.72,3.44,3.44,0,0,1-.6-1.12,4.85,4.85,0,0,1-.2-1.41V75.82h2.22v5.87a2,2,0,0,0,.39,1.31,1.51,1.51,0,0,0,1.18.46,2.39,2.39,0,0,0,1.08-.26,3.81,3.81,0,0,0,1-.7V75.82Z"/><path class="cls-1" d="M192.12,73.13a1.25,1.25,0,0,1-.12.54,1.35,1.35,0,0,1-.31.44,1.77,1.77,0,0,1-.45.3,1.47,1.47,0,0,1-.56.11,1.41,1.41,0,0,1-.54-.11,1.77,1.77,0,0,1-.45-.3,1.49,1.49,0,0,1-.3-.44,1.24,1.24,0,0,1-.11-.54,1.3,1.3,0,0,1,.11-.56,1.42,1.42,0,0,1,.3-.45,1.37,1.37,0,0,1,.45-.3,1.25,1.25,0,0,1,.54-.12,1.31,1.31,0,0,1,.56.12,1.37,1.37,0,0,1,.45.3,1.29,1.29,0,0,1,.31.45A1.31,1.31,0,0,1,192.12,73.13Zm-.3,2.69v9.23h-2.24V75.82Z"/><path class="cls-1" d="M196.33,71.68V85.05h-2.22V71.68Z"/><path class="cls-1" d="M206.58,71.68V85.05h-1.36a.52.52,0,0,1-.56-.4l-.19-.89a4.68,4.68,0,0,1-1.28,1,3.55,3.55,0,0,1-1.69.4,3.09,3.09,0,0,1-1.39-.32A3,3,0,0,1,199,84a4.33,4.33,0,0,1-.7-1.48,7.3,7.3,0,0,1-.25-2,6.21,6.21,0,0,1,.28-1.91,4.65,4.65,0,0,1,.8-1.53,3.7,3.7,0,0,1,1.25-1,3.66,3.66,0,0,1,1.64-.36,3.31,3.31,0,0,1,1.32.24,3.25,3.25,0,0,1,1,.66V71.68Zm-2.23,6.5a2.06,2.06,0,0,0-.82-.65,2.38,2.38,0,0,0-1-.19,2.06,2.06,0,0,0-.91.19,1.71,1.71,0,0,0-.69.57,2.72,2.72,0,0,0-.44,1,5.21,5.21,0,0,0-.16,1.39,6.56,6.56,0,0,0,.13,1.37,2.71,2.71,0,0,0,.38.92,1.46,1.46,0,0,0,.59.52,2,2,0,0,0,.78.15,2.27,2.27,0,0,0,1.18-.28,3.67,3.67,0,0,0,.92-.82Z"/><path class="cls-1" d="M210.87,77.42a4,4,0,0,1,1-1.3,2.18,2.18,0,0,1,1.41-.47,1.67,1.67,0,0,1,1,.28l-.14,1.66a.39.39,0,0,1-.13.23.33.33,0,0,1-.23.07,2.83,2.83,0,0,1-.4,0,3.12,3.12,0,0,0-.52,0,1.67,1.67,0,0,0-.65.11,1.44,1.44,0,0,0-.52.31,1.81,1.81,0,0,0-.41.49c-.11.19-.22.41-.33.65v5.69h-2.22V75.82h1.31a.53.53,0,0,1,.65.56Z"/><path class="cls-1" d="M219.31,75.67a4.9,4.9,0,0,1,1.87.34,4,4,0,0,1,1.44.94,4.21,4.21,0,0,1,.92,1.5,5.54,5.54,0,0,1,.32,2,5.64,5.64,0,0,1-.32,2,4.21,4.21,0,0,1-.92,1.5,4.07,4.07,0,0,1-1.44.95,5.34,5.34,0,0,1-3.75,0A4.11,4.11,0,0,1,216,83.9a4.21,4.21,0,0,1-.92-1.5,5.63,5.63,0,0,1-.33-2,5.54,5.54,0,0,1,.33-2A4.21,4.21,0,0,1,216,77a4.08,4.08,0,0,1,1.45-.94A4.92,4.92,0,0,1,219.31,75.67Zm0,7.81A2,2,0,0,0,221,82.7a3.94,3.94,0,0,0,.55-2.27,4,4,0,0,0-.55-2.27,2,2,0,0,0-1.71-.78,2,2,0,0,0-1.73.78,3.86,3.86,0,0,0-.57,2.27,3.8,3.8,0,0,0,.57,2.27A2,2,0,0,0,219.31,83.48Z"/><path class="cls-1" d="M229.65,75.67a4.9,4.9,0,0,1,1.87.34,4,4,0,0,1,2.36,2.44,5.54,5.54,0,0,1,.33,2,5.63,5.63,0,0,1-.33,2,4,4,0,0,1-2.36,2.45,5.34,5.34,0,0,1-3.75,0,4,4,0,0,1-1.44-.95,4.23,4.23,0,0,1-.93-1.5,5.63,5.63,0,0,1-.33-2,5.54,5.54,0,0,1,.33-2,4.23,4.23,0,0,1,.93-1.5,4,4,0,0,1,1.44-.94A4.92,4.92,0,0,1,229.65,75.67Zm0,7.81a2,2,0,0,0,1.71-.78,3.86,3.86,0,0,0,.55-2.27,3.9,3.9,0,0,0-.55-2.27,2,2,0,0,0-1.71-.78,2,2,0,0,0-1.73.78,3.87,3.87,0,0,0-.56,2.27,3.8,3.8,0,0,0,.56,2.27A2,2,0,0,0,229.65,83.48Z"/><path class="cls-1" d="M238.8,85.2a2.45,2.45,0,0,1-1.85-.68,2.68,2.68,0,0,1-.64-1.88V77.48h-.94a.47.47,0,0,1-.31-.11.49.49,0,0,1-.13-.36v-.88l1.49-.24.47-2.52a.48.48,0,0,1,.17-.28.53.53,0,0,1,.32-.1h1.15V75.9H241v1.58h-2.47v5a.93.93,0,0,0,.22.67.73.73,0,0,0,.58.25,1.11,1.11,0,0,0,.34,0l.25-.11.18-.1a.33.33,0,0,1,.16-.05.25.25,0,0,1,.16.05.51.51,0,0,1,.14.15l.66,1.08a3.33,3.33,0,0,1-1.11.61A4.13,4.13,0,0,1,238.8,85.2Z"/><path class="cls-1" d="M339,66.39a1,1,0,0,1-.23.28.5.5,0,0,1-.3.08.76.76,0,0,1-.41-.13l-.53-.32a5.37,5.37,0,0,0-.71-.31,3.16,3.16,0,0,0-1-.13A2.88,2.88,0,0,0,335,66a1.88,1.88,0,0,0-.63.33,1.4,1.4,0,0,0-.39.52,1.76,1.76,0,0,0-.12.66,1.17,1.17,0,0,0,.25.77,2.31,2.31,0,0,0,.68.52,6.62,6.62,0,0,0,1,.38l1.11.37a10.73,10.73,0,0,1,1.11.45,3.92,3.92,0,0,1,1,.64,3.08,3.08,0,0,1,.68,1,3.37,3.37,0,0,1,.25,1.38,4.46,4.46,0,0,1-.3,1.64,3.68,3.68,0,0,1-.88,1.34,4.21,4.21,0,0,1-1.42.9,5.13,5.13,0,0,1-1.91.33,6.23,6.23,0,0,1-1.22-.12,6.48,6.48,0,0,1-1.16-.35,5.92,5.92,0,0,1-1-.54,4.68,4.68,0,0,1-.87-.7l.71-1.16a.83.83,0,0,1,.24-.21.52.52,0,0,1,.3-.08.9.9,0,0,1,.49.18l.62.41a4.69,4.69,0,0,0,.84.41,3.27,3.27,0,0,0,1.15.18,2.36,2.36,0,0,0,1.6-.49,1.73,1.73,0,0,0,.57-1.4,1.34,1.34,0,0,0-.26-.84,2.06,2.06,0,0,0-.68-.54,5.33,5.33,0,0,0-1-.38l-1.09-.33a8.64,8.64,0,0,1-1.1-.43,3.57,3.57,0,0,1-1-.66,3,3,0,0,1-.68-1,3.82,3.82,0,0,1-.26-1.49,3.53,3.53,0,0,1,.29-1.39,3.43,3.43,0,0,1,.82-1.19A4,4,0,0,1,334,64.2a4.87,4.87,0,0,1,1.81-.31,6,6,0,0,1,2.12.36,4.85,4.85,0,0,1,1.66,1Z"/><path class="cls-1" d="M351,66h-3.92V77h-2.42V66h-3.91V64H351Z"/></g></svg>