<svg xmlns="http://www.w3.org/2000/svg" viewBox="0 0 407.89 139.44"><defs><style>.cls-1{fill:#fff;}.cls-2{fill:#9c3;}.cls-3{fill:#03234b;}</style></defs><g id="map"><rect class="cls-1" x="101.45" y="65.22" width="211.73" height="9"/><circle class="cls-2" cx="67.76" cy="69.72" r="54.66"/><path class="cls-1" d="M67.76,127.92a58,58,0,0,1-41.17-17h0a58.29,58.29,0,1,1,41.17,17ZM31.63,105.85a51.1,51.1,0,1,0,0-72.26,51.15,51.15,0,0,0,0,72.26Z"/><path d="M51.88,74.61v2H44.27v-13h2.41v11Z"/><path d="M55.86,64.7a1.25,1.25,0,0,1-.12.54,1.52,1.52,0,0,1-.31.44A1.37,1.37,0,0,1,55,66a1.33,1.33,0,0,1-.56.11,1.24,1.24,0,0,1-.54-.11,1.27,1.27,0,0,1-.45-.3,1.49,1.49,0,0,1-.3-.44A1.41,1.41,0,0,1,53,64.7a1.51,1.51,0,0,1,.11-.56,1.54,1.54,0,0,1,.3-.45,1.61,1.61,0,0,1,.45-.3,1.41,1.41,0,0,1,.54-.11,1.51,1.51,0,0,1,.56.11,1.77,1.77,0,0,1,.45.3,1.57,1.57,0,0,1,.31.45A1.34,1.34,0,0,1,55.86,64.7Zm-.31,2.69v9.22H53.32V67.39Z"/><path d="M59.89,68.52a5.78,5.78,0,0,1,.59-.52,3.75,3.75,0,0,1,.66-.4,3.4,3.4,0,0,1,.74-.26,3.64,3.64,0,0,1,2.2.16,2.72,2.72,0,0,1,1,.72,3.32,3.32,0,0,1,.59,1.1,4.87,4.87,0,0,1,.2,1.42v5.87H63.63V70.74a2,2,0,0,0-.39-1.31A1.42,1.42,0,0,0,62.07,69a2.33,2.33,0,0,0-1.08.26,3.68,3.68,0,0,0-1,.71v6.67H57.82V67.39h1.35a.54.54,0,0,1,.57.4Z"/><path d="M67.74,68.67a5.46,5.46,0,0,1,3.83-1.45,3.85,3.85,0,0,1,1.44.26,3,3,0,0,1,1.75,1.87A4.33,4.33,0,0,1,75,70.78v5.83H74a.9.9,0,0,1-.48-.1.6.6,0,0,1-.27-.38l-.2-.66a7.82,7.82,0,0,1-.68.55,4.4,4.4,0,0,1-.69.4,3.85,3.85,0,0,1-.77.25,5.14,5.14,0,0,1-.91.08,3.38,3.38,0,0,1-1.07-.16,2.32,2.32,0,0,1-.86-.47,2.23,2.23,0,0,1-.56-.78,2.8,2.8,0,0,1-.19-1.09,2.37,2.37,0,0,1,.11-.69,2.05,2.05,0,0,1,.39-.66,3.13,3.13,0,0,1,.68-.6,5,5,0,0,1,1-.48A9.13,9.13,0,0,1,71,71.48a14.2,14.2,0,0,1,1.87-.16v-.54a2.05,2.05,0,0,0-.39-1.37A1.47,1.47,0,0,0,71.29,69a2.88,2.88,0,0,0-.9.12,4,4,0,0,0-.62.29l-.49.28a.92.92,0,0,1-.49.13.65.65,0,0,1-.4-.12,1.42,1.42,0,0,1-.26-.29Zm5.08,4a12.08,12.08,0,0,0-1.61.17,4.22,4.22,0,0,0-1.06.31,1.3,1.3,0,0,0-.56.44,1,1,0,0,0-.17.55,1,1,0,0,0,.34.83,1.51,1.51,0,0,0,.91.25A2.7,2.7,0,0,0,71.85,75a3.63,3.63,0,0,0,1-.75Z"/><path d="M79.17,69a4,4,0,0,1,1-1.3,2.18,2.18,0,0,1,1.41-.47,1.69,1.69,0,0,1,1,.28l-.14,1.66a.5.5,0,0,1-.13.23.41.41,0,0,1-.23.06,2.41,2.41,0,0,1-.4,0,3.15,3.15,0,0,0-.52,0,1.94,1.94,0,0,0-.66.11,1.66,1.66,0,0,0-.51.31,2.18,2.18,0,0,0-.41.49,5.09,5.09,0,0,0-.32.66v5.68H77.08V67.39h1.3a.68.68,0,0,1,.47.12.69.69,0,0,1,.18.43Z"/><path d="M87.6,67.24a4.85,4.85,0,0,1,1.86.34A4,4,0,0,1,91.82,70a5.58,5.58,0,0,1,.33,2,5.63,5.63,0,0,1-.33,2,4.25,4.25,0,0,1-.92,1.5,4.07,4.07,0,0,1-1.44,1,5,5,0,0,1-1.86.33,5.12,5.12,0,0,1-1.88-.33,4.07,4.07,0,0,1-1.44-1,4.42,4.42,0,0,1-.93-1.5A5.63,5.63,0,0,1,83,72a5.58,5.58,0,0,1,.33-2,4.19,4.19,0,0,1,.93-1.49,4,4,0,0,1,1.44-.94A4.92,4.92,0,0,1,87.6,67.24Zm0,7.8a1.94,1.94,0,0,0,1.7-.78A3.85,3.85,0,0,0,89.85,72a3.94,3.94,0,0,0-.55-2.28,1.94,1.94,0,0,0-1.7-.78,2,2,0,0,0-1.73.79,4.86,4.86,0,0,0,0,4.53A2,2,0,0,0,87.6,75Z"/><circle cx="203.41" cy="69.72" r="54.66"/><path class="cls-1" d="M203.42,127.92a58.09,58.09,0,0,1-41.18-17h0a58.28,58.28,0,1,1,41.18,17Zm-36.14-22.07a51.08,51.08,0,1,0-15-36.13,51.15,51.15,0,0,0,15,36.13Z"/><path class="cls-1" d="M184.38,44h-3.92v11H178V44h-3.93V42h10.27Z"/><path class="cls-1" d="M186,47.42a4,4,0,0,1,1-1.3,2.18,2.18,0,0,1,1.41-.47,1.72,1.72,0,0,1,1,.28l-.15,1.66a.42.42,0,0,1-.13.23.39.39,0,0,1-.23.07,2.83,2.83,0,0,1-.4,0,3.12,3.12,0,0,0-.52,0,1.67,1.67,0,0,0-.65.11,1.44,1.44,0,0,0-.52.31,2,2,0,0,0-.41.49c-.11.19-.22.41-.33.65v5.69h-2.22V45.82h1.31a.53.53,0,0,1,.65.56Z"/><path class="cls-1" d="M198.59,45.82v9.23h-1.36a.53.53,0,0,1-.56-.4l-.15-.74a5.08,5.08,0,0,1-1.25.93,3.41,3.41,0,0,1-1.61.36,3.34,3.34,0,0,1-1.34-.26,2.59,2.59,0,0,1-1-.73,3,3,0,0,1-.6-1.11,4.54,4.54,0,0,1-.2-1.41V45.82h2.22v5.87a1.94,1.94,0,0,0,.39,1.3,1.44,1.44,0,0,0,1.17.47,2.33,2.33,0,0,0,1.08-.26,3.68,3.68,0,0,0,1-.7V45.82Z"/><path class="cls-1" d="M206.42,47.62a.61.61,0,0,1-.19.2.46.46,0,0,1-.25.06.83.83,0,0,1-.35-.09l-.42-.2a3.28,3.28,0,0,0-.56-.21,2.6,2.6,0,0,0-.73-.09,1.73,1.73,0,0,0-1,.28.87.87,0,0,0-.37.73.68.68,0,0,0,.19.5,1.85,1.85,0,0,0,.51.36,5.59,5.59,0,0,0,.73.27l.82.27a8.18,8.18,0,0,1,.82.32,3.26,3.26,0,0,1,.73.47,2.29,2.29,0,0,1,.51.68,2.16,2.16,0,0,1,.19,1,3.13,3.13,0,0,1-.23,1.23,2.8,2.8,0,0,1-.71,1,3.49,3.49,0,0,1-1.16.64,5.08,5.08,0,0,1-1.59.23,4.88,4.88,0,0,1-.93-.09,6.2,6.2,0,0,1-.87-.24,4.2,4.2,0,0,1-.77-.36,3.91,3.91,0,0,1-.63-.45l.51-.84a.78.78,0,0,1,.24-.24.72.72,0,0,1,.73,0c.12.08.27.16.43.25a3.87,3.87,0,0,0,.57.25,2.47,2.47,0,0,0,.83.12,2,2,0,0,0,.68-.1,1.38,1.38,0,0,0,.47-.24,1,1,0,0,0,.27-.36,1,1,0,0,0,.09-.42.76.76,0,0,0-.2-.53,1.66,1.66,0,0,0-.51-.36,5.1,5.1,0,0,0-.73-.27l-.84-.27a6.58,6.58,0,0,1-.83-.34,2.46,2.46,0,0,1-.73-.49,2.06,2.06,0,0,1-.52-.73,2.69,2.69,0,0,1,.7-3,3.45,3.45,0,0,1,1.09-.61,4.55,4.55,0,0,1,1.5-.23,4.61,4.61,0,0,1,1.74.32,3.87,3.87,0,0,1,1.31.83Z"/><path class="cls-1" d="M211.78,55.2a2.43,2.43,0,0,1-1.85-.68,2.63,2.63,0,0,1-.65-1.88V47.48h-.94a.4.4,0,0,1-.43-.47v-.88l1.48-.24.47-2.52a.53.53,0,0,1,.17-.28.47.47,0,0,1,.32-.1h1.16V45.9H214v1.58h-2.46v5a1,1,0,0,0,.21.67.73.73,0,0,0,.58.24,1.2,1.2,0,0,0,.35,0l.24-.11.18-.1a.27.27,0,0,1,.16,0,.25.25,0,0,1,.17,0,.69.69,0,0,1,.13.15l.67,1.08a3.48,3.48,0,0,1-1.12.61A4.07,4.07,0,0,1,211.78,55.2Z"/><path class="cls-1" d="M217,50.71a4.52,4.52,0,0,0,.25,1.23,2.61,2.61,0,0,0,.53.86,2,2,0,0,0,.77.5,2.76,2.76,0,0,0,1,.17,2.86,2.86,0,0,0,.93-.13,4.5,4.5,0,0,0,.69-.28l.51-.28a.9.9,0,0,1,.43-.12.47.47,0,0,1,.41.2l.64.81a3.6,3.6,0,0,1-.83.73,4.75,4.75,0,0,1-1,.47,5.11,5.11,0,0,1-1,.24,7.1,7.1,0,0,1-1,.08,5,5,0,0,1-1.79-.32,4.11,4.11,0,0,1-1.44-.95,4.48,4.48,0,0,1-1-1.55,6,6,0,0,1-.35-2.13,5,5,0,0,1,.31-1.78A4.08,4.08,0,0,1,217.4,46a4.88,4.88,0,0,1,3.47-.08,3.61,3.61,0,0,1,1.27.82,3.72,3.72,0,0,1,.83,1.31,4.92,4.92,0,0,1,.3,1.78,1.49,1.49,0,0,1-.11.68.46.46,0,0,1-.41.17Zm4.24-1.34a2.64,2.64,0,0,0-.12-.81,1.88,1.88,0,0,0-.36-.67,1.8,1.8,0,0,0-.62-.46,2.14,2.14,0,0,0-.87-.16,2.06,2.06,0,0,0-1.52.55,2.7,2.7,0,0,0-.7,1.55Z"/><path class="cls-1" d="M233,41.68V55.05h-1.36a.51.51,0,0,1-.55-.4l-.19-.89a4.58,4.58,0,0,1-1.29,1,3.48,3.48,0,0,1-1.68.4A3,3,0,0,1,225.41,54a4.34,4.34,0,0,1-.71-1.48,7.72,7.72,0,0,1-.24-2,6.21,6.21,0,0,1,.28-1.91,4.65,4.65,0,0,1,.8-1.53,3.7,3.7,0,0,1,1.25-1,3.63,3.63,0,0,1,1.64-.36,3.31,3.31,0,0,1,1.32.24,3.25,3.25,0,0,1,1,.66V41.68Zm-2.22,6.5a2.13,2.13,0,0,0-.82-.65,2.38,2.38,0,0,0-1-.19,2.06,2.06,0,0,0-.91.19,1.71,1.71,0,0,0-.69.57,2.56,2.56,0,0,0-.44,1,5.21,5.21,0,0,0-.16,1.39,6.56,6.56,0,0,0,.13,1.37,2.6,2.6,0,0,0,.38.92,1.36,1.36,0,0,0,.59.51,1.81,1.81,0,0,0,.78.16,2.18,2.18,0,0,0,1.18-.29,3.44,3.44,0,0,0,.92-.81Z"/><path class="cls-1" d="M169.83,64v3.86h4.88v1.93h-4.88v5.3H167.4V62h8.21V64Z"/><path class="cls-1" d="M179.83,63.13a1.25,1.25,0,0,1-.12.54,1.47,1.47,0,0,1-.31.44,1.77,1.77,0,0,1-.45.3,1.47,1.47,0,0,1-.56.11,1.41,1.41,0,0,1-.54-.11,1.77,1.77,0,0,1-.45-.3,1.9,1.9,0,0,1-.3-.44,1.24,1.24,0,0,1-.11-.54,1.3,1.3,0,0,1,.11-.56,1.48,1.48,0,0,1,.3-.45,1.37,1.37,0,0,1,.45-.3,1.25,1.25,0,0,1,.54-.12,1.31,1.31,0,0,1,.56.12,1.37,1.37,0,0,1,.45.3,1.21,1.21,0,0,1,.31.45A1.31,1.31,0,0,1,179.83,63.13Zm-.3,2.69v9.23h-2.24V65.82Z"/><path class="cls-1" d="M183.89,67.42a3.93,3.93,0,0,1,1-1.3,2.14,2.14,0,0,1,1.4-.47,1.7,1.7,0,0,1,1,.28l-.15,1.66a.42.42,0,0,1-.13.23.37.37,0,0,1-.23.07,2.83,2.83,0,0,1-.4,0,3,3,0,0,0-.52,0,1.67,1.67,0,0,0-.65.11,1.53,1.53,0,0,0-.52.31,1.78,1.78,0,0,0-.4.49,4.38,4.38,0,0,0-.33.65v5.69h-2.23V65.82h1.31a.73.73,0,0,1,.48.12.72.72,0,0,1,.18.44Z"/><path class="cls-1" d="M188.51,75.05V65.82h1.36a.54.54,0,0,1,.56.4l.15.69a4.81,4.81,0,0,1,.51-.5,3.12,3.12,0,0,1,.56-.39,3.37,3.37,0,0,1,.65-.25,2.64,2.64,0,0,1,.76-.1,2.16,2.16,0,0,1,1.44.48,2.88,2.88,0,0,1,.84,1.25,2.77,2.77,0,0,1,.54-.79,3.06,3.06,0,0,1,.71-.53,3.38,3.38,0,0,1,.82-.31,4.4,4.4,0,0,1,.88-.1,3.62,3.62,0,0,1,1.36.24,2.51,2.51,0,0,1,1,.68,3.18,3.18,0,0,1,.62,1.1,4.81,4.81,0,0,1,.21,1.48v5.88h-2.23V69.17a2,2,0,0,0-.38-1.32,1.43,1.43,0,0,0-1.14-.45,1.61,1.61,0,0,0-.63.12,1.39,1.39,0,0,0-.51.34,1.41,1.41,0,0,0-.35.55,2,2,0,0,0-.13.76v5.88h-2.23V69.17a2,2,0,0,0-.37-1.35,1.4,1.4,0,0,0-1.1-.42,1.78,1.78,0,0,0-.9.24,3.14,3.14,0,0,0-.78.65v6.76Z"/><path class="cls-1" d="M216.7,65.82l-2.94,9.23H212c-.2,0-.35-.13-.42-.39l-1.66-5.34-.15-.54c0-.17-.08-.35-.11-.53l-.12.54-.15.55-1.68,5.32a.47.47,0,0,1-.48.39H205.5l-2.93-9.23h1.78a.76.76,0,0,1,.41.11.56.56,0,0,1,.23.3l1.32,4.93c.07.27.12.54.17.8s.1.51.14.77c.06-.26.13-.52.21-.77s.15-.53.24-.8l1.53-5a.47.47,0,0,1,.21-.29.6.6,0,0,1,.38-.12h1a.65.65,0,0,1,.4.12.49.49,0,0,1,.22.29l1.49,5c.07.27.15.54.22.8s.13.52.2.78c.08-.51.19-1,.33-1.58l1.36-4.93a.61.61,0,0,1,.23-.3.66.66,0,0,1,.38-.11Z"/><path class="cls-1" d="M217.62,67.1a5.5,5.5,0,0,1,3.84-1.45,3.71,3.71,0,0,1,1.45.26,3.3,3.3,0,0,1,1.08.74,3.26,3.26,0,0,1,.67,1.13,4.44,4.44,0,0,1,.23,1.44v5.83h-1a1.1,1.1,0,0,1-.49-.09.71.71,0,0,1-.27-.39l-.2-.66a7.82,7.82,0,0,1-.68.55,4,4,0,0,1-.69.4,3.85,3.85,0,0,1-.77.25,4.32,4.32,0,0,1-.91.09,3.71,3.71,0,0,1-1.08-.16,2.42,2.42,0,0,1-.85-.47,2.15,2.15,0,0,1-.56-.79,2.79,2.79,0,0,1-.2-1.09,2.09,2.09,0,0,1,.12-.69,2,2,0,0,1,.38-.67,3.43,3.43,0,0,1,.69-.59,4.38,4.38,0,0,1,1-.49,9.19,9.19,0,0,1,1.43-.33,14.36,14.36,0,0,1,1.88-.16v-.54a2,2,0,0,0-.4-1.37,1.43,1.43,0,0,0-1.14-.45,2.6,2.6,0,0,0-.9.13,4,4,0,0,0-.62.28l-.49.28a.92.92,0,0,1-.49.13.65.65,0,0,1-.4-.12,1,1,0,0,1-.26-.28Zm5.1,4a10.62,10.62,0,0,0-1.62.17,4.22,4.22,0,0,0-1.06.31,1.3,1.3,0,0,0-.56.44.92.92,0,0,0-.17.55.94.94,0,0,0,.34.83,1.51,1.51,0,0,0,.91.26,2.7,2.7,0,0,0,1.18-.25,3.83,3.83,0,0,0,1-.75Z"/><path class="cls-1" d="M229.07,67.42a3.93,3.93,0,0,1,1-1.3,2.14,2.14,0,0,1,1.4-.47,1.7,1.7,0,0,1,1,.28l-.15,1.66a.42.42,0,0,1-.13.23.39.39,0,0,1-.23.07,2.83,2.83,0,0,1-.4,0,3.12,3.12,0,0,0-.52,0,1.67,1.67,0,0,0-.65.11,1.53,1.53,0,0,0-.52.31,2,2,0,0,0-.41.49,5.63,5.63,0,0,0-.32.65v5.69H227V65.82h1.31a.73.73,0,0,1,.48.12.72.72,0,0,1,.18.44Z"/><path class="cls-1" d="M235.14,70.71a4.17,4.17,0,0,0,.25,1.23,2.44,2.44,0,0,0,.52.86,2.09,2.09,0,0,0,.77.5,2.8,2.8,0,0,0,1,.17,2.92,2.92,0,0,0,.94-.13,4,4,0,0,0,.68-.28,5.58,5.58,0,0,0,.51-.28.9.9,0,0,1,.43-.12.46.46,0,0,1,.41.2l.64.81a3.77,3.77,0,0,1-.82.73,5.33,5.33,0,0,1-1,.47,5.38,5.38,0,0,1-1,.24,7,7,0,0,1-1,.08,5,5,0,0,1-1.79-.32,3.94,3.94,0,0,1-1.44-1,4.5,4.5,0,0,1-1-1.55,6,6,0,0,1-.35-2.13,5,5,0,0,1,.31-1.78A4.16,4.16,0,0,1,234.1,67a4.26,4.26,0,0,1,1.4-1A4.88,4.88,0,0,1,239,66a3.61,3.61,0,0,1,1.27.82,3.72,3.72,0,0,1,.83,1.31,4.92,4.92,0,0,1,.3,1.78,1.37,1.37,0,0,1-.11.68.46.46,0,0,1-.41.17Zm4.23-1.34a2.64,2.64,0,0,0-.12-.81,1.88,1.88,0,0,0-.36-.67,1.71,1.71,0,0,0-.62-.46,2.14,2.14,0,0,0-.87-.16,2,2,0,0,0-1.51.55,2.64,2.64,0,0,0-.71,1.55Z"/><path class="cls-1" d="M181.62,89.41a14.87,14.87,0,0,0,.45,3.64,14.7,14.7,0,0,0,1.29,3.37,1,1,0,0,1,.1.32.62.62,0,0,1,0,.24.44.44,0,0,1-.12.18.65.65,0,0,1-.16.13l-1,.61A16.36,16.36,0,0,1,181,95.83a15.33,15.33,0,0,1-.76-2.08,15.93,15.93,0,0,1-.44-2.14,17.43,17.43,0,0,1,0-4.41,15.62,15.62,0,0,1,.44-2.14A15.33,15.33,0,0,1,181,83a16.26,16.26,0,0,1,1.14-2.06l1,.6a.48.48,0,0,1,.16.13.44.44,0,0,1,.12.18.62.62,0,0,1,0,.24,1.09,1.09,0,0,1-.1.33,14.44,14.44,0,0,0-1.29,3.36A15,15,0,0,0,181.62,89.41Z"/><path class="cls-1" d="M194.52,84h-3.93v11h-2.42V84h-3.92V82h10.27Z"/><path class="cls-1" d="M198.65,84v3.86h4.88v1.93h-4.88v5.3h-2.42V82h8.2V84Z"/><path class="cls-1" d="M205.73,88.69h4.66v1.85h-4.66Z"/><path class="cls-1" d="M224,95.05h-1.88a.78.78,0,0,1-.51-.16.87.87,0,0,1-.29-.39l-1-2.65H215l-1,2.65a.84.84,0,0,1-.28.38.8.8,0,0,1-.51.17h-1.89l5.12-13h2.47Zm-4.28-4.91-1.58-4.33a6.73,6.73,0,0,1-.24-.69c-.09-.26-.17-.54-.26-.85-.07.31-.16.59-.24.86s-.16.5-.24.7l-1.58,4.31Z"/><path class="cls-1" d="M226.27,89.41a15,15,0,0,0-.45-3.65,14.42,14.42,0,0,0-1.28-3.36.91.91,0,0,1-.11-.33.47.47,0,0,1,0-.24.42.42,0,0,1,.11-.18.46.46,0,0,1,.18-.13l1-.6A16.16,16.16,0,0,1,226.86,83a15.4,15.4,0,0,1,.77,2.08,15.59,15.59,0,0,1,.43,2.14,18.77,18.77,0,0,1,0,4.41,15.9,15.9,0,0,1-.43,2.14,15.4,15.4,0,0,1-.77,2.08,16.26,16.26,0,0,1-1.13,2.07l-1-.61a.59.59,0,0,1-.18-.13.42.42,0,0,1-.11-.18.47.47,0,0,1,0-.24.81.81,0,0,1,.11-.32,14.67,14.67,0,0,0,1.28-3.37A14.87,14.87,0,0,0,226.27,89.41Z"/><circle class="cls-3" cx="340.13" cy="69.72" r="54.66"/><path class="cls-1" d="M340.13,127.92a58.2,58.2,0,1,1,41.17-17A58,58,0,0,1,340.13,127.92Zm0-109.3a51.1,51.1,0,1,0,36.13,15A50.75,50.75,0,0,0,340.13,18.62Z"/><path class="cls-1" d="M339,66.4a1.08,1.08,0,0,1-.23.27.53.53,0,0,1-.31.08.75.75,0,0,1-.4-.13c-.15-.1-.33-.2-.53-.31a3.61,3.61,0,0,0-.71-.31A3.36,3.36,0,0,0,335,66a2,2,0,0,0-.64.33,1.49,1.49,0,0,0-.38.52,1.76,1.76,0,0,0-.12.66,1.17,1.17,0,0,0,.25.77,2.31,2.31,0,0,0,.68.52,6.19,6.19,0,0,0,1,.38l1.11.37a9.74,9.74,0,0,1,1.1.45,4,4,0,0,1,1,.64,2.9,2.9,0,0,1,.67,1,3.21,3.21,0,0,1,.26,1.38,4.46,4.46,0,0,1-.3,1.64,3.68,3.68,0,0,1-.88,1.34,4.21,4.21,0,0,1-1.42.9,5.13,5.13,0,0,1-1.91.33,6.23,6.23,0,0,1-1.22-.12,6.48,6.48,0,0,1-1.16-.35,6.4,6.4,0,0,1-1-.54,5,5,0,0,1-.86-.7l.71-1.16a.83.83,0,0,1,.24-.21.61.61,0,0,1,.3-.08.9.9,0,0,1,.49.18l.62.41a4.69,4.69,0,0,0,.84.41,3.27,3.27,0,0,0,1.15.18,2.36,2.36,0,0,0,1.6-.49,1.73,1.73,0,0,0,.57-1.4,1.34,1.34,0,0,0-.26-.84,2.06,2.06,0,0,0-.68-.54,5.33,5.33,0,0,0-1-.38l-1.1-.33a9.13,9.13,0,0,1-1.09-.43,3.57,3.57,0,0,1-1-.66,2.73,2.73,0,0,1-.68-1,3.82,3.82,0,0,1-.26-1.49,3.71,3.71,0,0,1,.28-1.39,3.6,3.6,0,0,1,.83-1.19A4,4,0,0,1,334,64.2a4.84,4.84,0,0,1,1.81-.31,6,6,0,0,1,2.12.36,4.85,4.85,0,0,1,1.66,1Z"/><path class="cls-1" d="M351,66h-3.92V77h-2.42V66h-3.91V64H351Z"/></g></svg>