<svg xmlns="http://www.w3.org/2000/svg" viewBox="0 0 407.89 139.44"><defs><style>.cls-1{fill:#fff;}.cls-2{fill:#9c3;}.cls-3{fill:#03234b;}</style></defs><g id="map"><rect class="cls-1" x="101.45" y="65.22" width="211.73" height="9"/><circle class="cls-2" cx="67.76" cy="69.72" r="54.66"/><path class="cls-1" d="M67.76,127.92a58,58,0,0,1-41.17-17h0a58.29,58.29,0,1,1,41.17,17ZM31.63,105.85a51.1,51.1,0,1,0,0-72.26,51.15,51.15,0,0,0,0,72.26Z"/><circle class="cls-3" cx="340.13" cy="69.72" r="54.66"/><path class="cls-1" d="M340.13,127.92a58.2,58.2,0,1,1,41.17-17A58,58,0,0,1,340.13,127.92Zm0-109.28a51.08,51.08,0,1,0,36.13,15A50.94,50.94,0,0,0,340.13,18.64Z"/><path d="M51.88,74.61v2H44.27v-13h2.41v11Z"/><path d="M55.86,64.7a1.25,1.25,0,0,1-.12.54,1.52,1.52,0,0,1-.31.44A1.37,1.37,0,0,1,55,66a1.33,1.33,0,0,1-.56.11,1.24,1.24,0,0,1-.54-.11,1.37,1.37,0,0,1-.45-.3,1.71,1.71,0,0,1-.3-.44A1.41,1.41,0,0,1,53,64.7a1.51,1.51,0,0,1,.11-.56,1.38,1.38,0,0,1,.75-.75,1.41,1.41,0,0,1,.54-.11,1.51,1.51,0,0,1,.56.11,1.77,1.77,0,0,1,.45.3,1.57,1.57,0,0,1,.31.45A1.34,1.34,0,0,1,55.86,64.7Zm-.31,2.69v9.22H53.32V67.39Z"/><path d="M59.89,68.52a7.08,7.08,0,0,1,.59-.52,3.75,3.75,0,0,1,.66-.4,3.6,3.6,0,0,1,.74-.26,3.64,3.64,0,0,1,2.2.16,2.72,2.72,0,0,1,1,.72,3.32,3.32,0,0,1,.59,1.1,4.87,4.87,0,0,1,.2,1.42v5.87H63.63V70.74a2,2,0,0,0-.38-1.31A1.46,1.46,0,0,0,62.07,69a2.36,2.36,0,0,0-1.08.26,3.68,3.68,0,0,0-1,.71v6.67H57.82V67.39h1.35a.54.54,0,0,1,.57.4Z"/><path d="M67.74,68.67a5.48,5.48,0,0,1,3.83-1.45,3.81,3.81,0,0,1,1.44.26,3,3,0,0,1,1.75,1.87A4.33,4.33,0,0,1,75,70.78v5.83H74a.9.9,0,0,1-.48-.1.6.6,0,0,1-.27-.38l-.2-.66a7.82,7.82,0,0,1-.68.55,4,4,0,0,1-.69.4,3.85,3.85,0,0,1-.77.25,5.05,5.05,0,0,1-.91.08,3.38,3.38,0,0,1-1.07-.16,2.32,2.32,0,0,1-.86-.47,2.09,2.09,0,0,1-.55-.78,2.62,2.62,0,0,1-.2-1.09,2.09,2.09,0,0,1,.12-.69,1.85,1.85,0,0,1,.38-.66,3.13,3.13,0,0,1,.68-.6,5,5,0,0,1,1-.48A9,9,0,0,1,71,71.48a13.88,13.88,0,0,1,1.86-.16v-.54a2.05,2.05,0,0,0-.39-1.37A1.45,1.45,0,0,0,71.29,69a2.88,2.88,0,0,0-.9.12,4,4,0,0,0-.62.29l-.49.28a.92.92,0,0,1-.49.13.65.65,0,0,1-.4-.12,1.42,1.42,0,0,1-.26-.29Zm5.08,4a12.08,12.08,0,0,0-1.61.17,4,4,0,0,0-1,.31,1.27,1.27,0,0,0-.57.44,1,1,0,0,0-.17.55,1,1,0,0,0,.34.83,1.53,1.53,0,0,0,.91.25A2.7,2.7,0,0,0,71.85,75a3.63,3.63,0,0,0,1-.75Z"/><path d="M79.17,69a4,4,0,0,1,1-1.3,2.18,2.18,0,0,1,1.41-.47,1.69,1.69,0,0,1,1,.28l-.14,1.66a.5.5,0,0,1-.13.23.41.41,0,0,1-.23.06,2.41,2.41,0,0,1-.4,0,3.15,3.15,0,0,0-.52,0,2,2,0,0,0-.66.11,1.66,1.66,0,0,0-.51.31,2.18,2.18,0,0,0-.41.49,5.09,5.09,0,0,0-.32.66v5.68H77.08V67.39h1.3a.73.73,0,0,1,.48.12.75.75,0,0,1,.18.43Z"/><path d="M87.6,67.24a4.85,4.85,0,0,1,1.86.34A4,4,0,0,1,91.82,70a5.58,5.58,0,0,1,.33,2,5.63,5.63,0,0,1-.33,2,4.25,4.25,0,0,1-.92,1.5,4.07,4.07,0,0,1-1.44,1,5,5,0,0,1-1.86.33,5.12,5.12,0,0,1-1.88-.33,4.07,4.07,0,0,1-1.44-1,4.42,4.42,0,0,1-.93-1.5A5.64,5.64,0,0,1,83,72a5.58,5.58,0,0,1,.32-2,4.19,4.19,0,0,1,.93-1.49,4,4,0,0,1,1.44-.94A4.92,4.92,0,0,1,87.6,67.24Zm0,7.8a1.94,1.94,0,0,0,1.7-.78A3.85,3.85,0,0,0,89.85,72a3.94,3.94,0,0,0-.55-2.28,1.94,1.94,0,0,0-1.7-.78,2,2,0,0,0-1.73.79,4.86,4.86,0,0,0,0,4.53A2,2,0,0,0,87.6,75Z"/><circle cx="203.41" cy="69.72" r="54.66"/><path class="cls-1" d="M203.42,127.92a58.09,58.09,0,0,1-41.18-17h0a58.28,58.28,0,1,1,41.18,17Zm-36.14-22.07a51.1,51.1,0,1,0,0-72.26,51.15,51.15,0,0,0,0,72.26Z"/><path class="cls-1" d="M186.51,70.55A7.21,7.21,0,0,1,186,73.2a6,6,0,0,1-3.41,3.5,7.51,7.51,0,0,1-5.39,0,6,6,0,0,1-3.43-3.5,7.21,7.21,0,0,1-.48-2.65,7.14,7.14,0,0,1,.48-2.65,6.09,6.09,0,0,1,3.43-3.51,7,7,0,0,1,2.69-.49,7.41,7.41,0,0,1,1.86.22,6.71,6.71,0,0,1,1.6.65,5.69,5.69,0,0,1,1.31,1,6,6,0,0,1,1,1.34,6.39,6.39,0,0,1,.61,1.6A7.15,7.15,0,0,1,186.51,70.55Zm-2.48,0a5.8,5.8,0,0,0-.29-1.93,4.07,4.07,0,0,0-.82-1.44,3.4,3.4,0,0,0-1.29-.91,4.42,4.42,0,0,0-1.71-.31,4.47,4.47,0,0,0-1.72.31,3.48,3.48,0,0,0-1.29.91,4.25,4.25,0,0,0-.83,1.44,6.76,6.76,0,0,0,0,3.85,4.25,4.25,0,0,0,.83,1.44,3.58,3.58,0,0,0,1.29.9,4.47,4.47,0,0,0,1.72.32,4.42,4.42,0,0,0,1.71-.32,3.49,3.49,0,0,0,1.29-.9,4.07,4.07,0,0,0,.82-1.44A5.78,5.78,0,0,0,184,70.55Z"/><path class="cls-1" d="M192.87,64a7.26,7.26,0,0,1,2.26.31,4.22,4.22,0,0,1,1.57.85,3.46,3.46,0,0,1,.93,1.31,4.85,4.85,0,0,1,0,3.41,3.58,3.58,0,0,1-.94,1.36,4.54,4.54,0,0,1-1.58.88,7.09,7.09,0,0,1-2.22.31h-1.81v4.58h-2.42V64Zm0,6.54a3.7,3.7,0,0,0,1.16-.16,2.28,2.28,0,0,0,.82-.48,1.85,1.85,0,0,0,.49-.76,2.82,2.82,0,0,0,.17-1,2.63,2.63,0,0,0-.17-1,1.86,1.86,0,0,0-.48-.72,2.23,2.23,0,0,0-.82-.45,3.72,3.72,0,0,0-1.17-.16h-1.81v4.67Z"/><path class="cls-1" d="M199.16,70.69h4.66v1.85h-4.66Z"/><path class="cls-1" d="M214.29,66h-3.93v11h-2.42V66H204V64h10.27Z"/><path class="cls-1" d="M218.43,66v3.6H223v1.87h-4.55v3.68h5.78v1.93H216V64h8.21V66Z"/><path class="cls-1" d="M228.78,66v3.6h4.55v1.87h-4.55v3.68h5.78v1.93h-8.21V64h8.21V66Z"/><path class="cls-1" d="M339,66.4a1.08,1.08,0,0,1-.23.27.5.5,0,0,1-.3.08.76.76,0,0,1-.41-.13c-.15-.1-.33-.2-.53-.31a3.61,3.61,0,0,0-.71-.31A3.36,3.36,0,0,0,335,66a1.88,1.88,0,0,0-.63.33,1.4,1.4,0,0,0-.39.52,1.76,1.76,0,0,0-.12.66,1.17,1.17,0,0,0,.25.77,2.31,2.31,0,0,0,.68.52,6.62,6.62,0,0,0,1,.38l1.11.37a10.73,10.73,0,0,1,1.11.45,3.92,3.92,0,0,1,1,.64,3.08,3.08,0,0,1,.68,1,3.37,3.37,0,0,1,.25,1.38,4.46,4.46,0,0,1-.3,1.64,3.68,3.68,0,0,1-.88,1.34,4.21,4.21,0,0,1-1.42.9,5.13,5.13,0,0,1-1.91.33,6.23,6.23,0,0,1-1.22-.12,6.48,6.48,0,0,1-1.16-.35,5.92,5.92,0,0,1-1-.54,4.68,4.68,0,0,1-.87-.7l.71-1.16a.83.83,0,0,1,.24-.21.61.61,0,0,1,.3-.08.9.9,0,0,1,.49.18l.62.41a4.69,4.69,0,0,0,.84.41,3.27,3.27,0,0,0,1.15.18,2.36,2.36,0,0,0,1.6-.49,1.73,1.73,0,0,0,.57-1.4,1.34,1.34,0,0,0-.26-.84,2.06,2.06,0,0,0-.68-.54,5.33,5.33,0,0,0-1-.38l-1.09-.33a8.64,8.64,0,0,1-1.1-.43,3.57,3.57,0,0,1-1-.66,2.85,2.85,0,0,1-.68-1,3.82,3.82,0,0,1-.26-1.49,3.53,3.53,0,0,1,.29-1.39,3.43,3.43,0,0,1,.82-1.19A4,4,0,0,1,334,64.2a4.87,4.87,0,0,1,1.81-.31,6,6,0,0,1,2.12.36,4.85,4.85,0,0,1,1.66,1Z"/><path class="cls-1" d="M351,66h-3.92V77h-2.42V66h-3.91V64H351Z"/></g></svg>