<svg xmlns="http://www.w3.org/2000/svg" viewBox="0 0 407.89 417.01"><defs><style>.cls-1{fill:#fff;}.cls-2{fill:#0083ad;}.cls-3{fill:#9c3;}.cls-4{fill:#787878;}.cls-5{fill:#3253dc;}</style></defs><g id="map"><path class="cls-1" d="M202.64,354a146,146,0,1,1,103.23-42.76A145.06,145.06,0,0,1,202.64,354Zm0-282.94a136.58,136.58,0,0,0-96.88,40.07c-53.42,53.41-53.42,140.33,0,193.74s140.33,53.42,193.75,0,53.42-140.33,0-193.74A136.57,136.57,0,0,0,202.64,71.06Z"/><rect class="cls-1" x="101.45" y="203.01" width="211.73" height="9"/><rect class="cls-1" x="198.92" y="105.3" width="9" height="198.75"/><circle class="cls-2" cx="67.76" cy="207.51" r="54.66"/><path class="cls-1" d="M67.76,265.71a58,58,0,0,1-41.17-17h0a58.29,58.29,0,1,1,41.17,17ZM31.63,243.65a51.1,51.1,0,1,0,0-72.27,51.17,51.17,0,0,0,0,72.27Z"/><path class="cls-1" d="M62.34,213.28H60.47a.81.81,0,0,1-.51-.15,1.14,1.14,0,0,1-.3-.39l-1-2.65H53.31l-1,2.65a.87.87,0,0,1-.28.37.75.75,0,0,1-.51.17H49.66l5.11-13h2.46Zm-4.27-4.9-1.58-4.32c-.08-.2-.16-.42-.24-.69s-.17-.55-.26-.85c-.07.3-.15.59-.24.86s-.16.5-.24.69l-1.57,4.31Z"/><path class="cls-1" d="M65.41,205.66a4,4,0,0,1,1-1.3,2.19,2.19,0,0,1,1.4-.47,1.74,1.74,0,0,1,1,.28l-.14,1.66a.39.39,0,0,1-.13.23.33.33,0,0,1-.23.07,2.51,2.51,0,0,1-.4,0,3.15,3.15,0,0,0-.52-.05,1.88,1.88,0,0,0-.65.11,1.53,1.53,0,0,0-.52.31,2,2,0,0,0-.4.49,4.06,4.06,0,0,0-.33.66v5.67H63.32v-9.22h1.3a.67.67,0,0,1,.48.13.69.69,0,0,1,.18.43Z"/><path class="cls-1" d="M70,213.28v-9.22h1.36a.55.55,0,0,1,.57.41l.14.68a4.7,4.7,0,0,1,.51-.49,3.12,3.12,0,0,1,.56-.39,3.39,3.39,0,0,1,.65-.26,3,3,0,0,1,.76-.09,2.16,2.16,0,0,1,1.43.47,2.75,2.75,0,0,1,.84,1.26,3.06,3.06,0,0,1,.54-.79,3.25,3.25,0,0,1,.71-.54,3.79,3.79,0,0,1,1.7-.4,3.84,3.84,0,0,1,1.36.23,2.72,2.72,0,0,1,1,.69,3,3,0,0,1,.61,1.09,4.83,4.83,0,0,1,.21,1.49v5.86H80.75v-5.86a2,2,0,0,0-.38-1.33,1.42,1.42,0,0,0-1.14-.44,1.9,1.9,0,0,0-.63.11,1.47,1.47,0,0,0-.51.34,1.62,1.62,0,0,0-.35.55,2.26,2.26,0,0,0-.12.77v5.86H75.39v-5.86a2.05,2.05,0,0,0-.37-1.35,1.4,1.4,0,0,0-1.1-.42,1.88,1.88,0,0,0-.9.23,3,3,0,0,0-.78.66v6.74Z"/><circle class="cls-3" cx="203.41" cy="70.48" r="54.66"/><path class="cls-1" d="M203.42,128.7a58.22,58.22,0,0,1-41.18-99.39,58.22,58.22,0,1,1,82.34,82.34A57.84,57.84,0,0,1,203.42,128.7Zm0-109.32a51.09,51.09,0,1,0,36.13,15A50.78,50.78,0,0,0,203.42,19.38Z"/><path d="M188.56,72.54v2H181v-13h2.42v11Z"/><path d="M192.54,62.63a1.24,1.24,0,0,1-.11.54,1.52,1.52,0,0,1-.31.44,1.31,1.31,0,0,1-.46.3,1.43,1.43,0,0,1-1.1,0,1.23,1.23,0,0,1-.44-.3,1.32,1.32,0,0,1-.3-.44,1.25,1.25,0,0,1-.12-.54,1.34,1.34,0,0,1,.12-.56,1.37,1.37,0,0,1,.3-.45,1.55,1.55,0,0,1,.44-.3,1.43,1.43,0,0,1,1.1,0,1.66,1.66,0,0,1,.46.3,1.57,1.57,0,0,1,.31.45A1.33,1.33,0,0,1,192.54,62.63Zm-.3,2.69v9.22H190V65.32Z"/><path d="M196.58,66.45a5.78,5.78,0,0,1,.59-.52,3.58,3.58,0,0,1,1.4-.66,3.64,3.64,0,0,1,2.2.16,2.6,2.6,0,0,1,1,.72,3.34,3.34,0,0,1,.6,1.1,4.87,4.87,0,0,1,.2,1.42v5.87h-2.22V68.67a2,2,0,0,0-.39-1.31,1.44,1.44,0,0,0-1.17-.46,2.33,2.33,0,0,0-1.08.26,3.73,3.73,0,0,0-1,.71v6.67H194.5V65.32h1.36a.54.54,0,0,1,.57.4Z"/><path d="M204.43,66.6a5.45,5.45,0,0,1,3.82-1.45,3.9,3.9,0,0,1,1.45.26,3.06,3.06,0,0,1,1.08.74,3.11,3.11,0,0,1,.67,1.13,4.33,4.33,0,0,1,.23,1.43v5.83h-1a.9.9,0,0,1-.48-.1.6.6,0,0,1-.27-.38l-.2-.66c-.24.21-.46.39-.68.55a4.49,4.49,0,0,1-.7.4,3.66,3.66,0,0,1-.77.25,4.94,4.94,0,0,1-.9.08,3.4,3.4,0,0,1-1.08-.16,2.27,2.27,0,0,1-.85-.47,2.11,2.11,0,0,1-.56-.78,2.79,2.79,0,0,1-.2-1.09,2.09,2.09,0,0,1,.12-.69,2.21,2.21,0,0,1,.38-.66,3.46,3.46,0,0,1,.69-.6,4.81,4.81,0,0,1,1-.48,9.13,9.13,0,0,1,1.43-.34,14.2,14.2,0,0,1,1.87-.16v-.54a2.05,2.05,0,0,0-.39-1.37A1.48,1.48,0,0,0,208,66.9a2.88,2.88,0,0,0-.9.12,3.59,3.59,0,0,0-.62.29l-.49.28a.92.92,0,0,1-.49.13.65.65,0,0,1-.4-.12,1.18,1.18,0,0,1-.26-.29Zm5.08,4a12.44,12.44,0,0,0-1.62.17,4.26,4.26,0,0,0-1,.31,1.3,1.3,0,0,0-.56.44.92.92,0,0,0-.17.55,1,1,0,0,0,.34.83,1.48,1.48,0,0,0,.9.25,2.75,2.75,0,0,0,1.19-.24,3.79,3.79,0,0,0,1-.75Z"/><path d="M215.86,66.92a3.91,3.91,0,0,1,1-1.3,2.15,2.15,0,0,1,1.4-.47,1.7,1.7,0,0,1,1,.28l-.15,1.66a.42.42,0,0,1-.13.23.37.37,0,0,1-.23.06,2.51,2.51,0,0,1-.4,0,2.94,2.94,0,0,0-.51,0,1.9,1.9,0,0,0-.66.11,1.66,1.66,0,0,0-.51.31,2.18,2.18,0,0,0-.41.49,4.06,4.06,0,0,0-.33.66v5.68h-2.22V65.32h1.31a.72.72,0,0,1,.47.12.69.69,0,0,1,.18.43Z"/><path d="M224.29,65.17a4.85,4.85,0,0,1,1.86.34,4,4,0,0,1,1.44.94,4.17,4.17,0,0,1,.92,1.49,5.58,5.58,0,0,1,.32,2,5.64,5.64,0,0,1-.32,2,4.4,4.4,0,0,1-.92,1.5,4.07,4.07,0,0,1-1.44,1,5,5,0,0,1-1.86.33,5.12,5.12,0,0,1-1.88-.33,4,4,0,0,1-1.44-1,4.42,4.42,0,0,1-.93-1.5,5.63,5.63,0,0,1-.33-2,5.58,5.58,0,0,1,.33-2,4.19,4.19,0,0,1,.93-1.49,4,4,0,0,1,1.44-.94A4.92,4.92,0,0,1,224.29,65.17Zm0,7.8a2,2,0,0,0,1.7-.78,3.85,3.85,0,0,0,.55-2.26,3.94,3.94,0,0,0-.55-2.28,2.27,2.27,0,0,0-3.43,0,4.79,4.79,0,0,0,0,4.53A2,2,0,0,0,224.29,73Z"/><circle class="cls-4" cx="203.41" cy="346.54" r="54.66"/><path class="cls-1" d="M203.42,404.76a57.88,57.88,0,0,1-41.18-17.05h0a58.23,58.23,0,1,1,41.18,17.05Zm0-109.3a51.08,51.08,0,0,0-36.14,87.21h0a51.1,51.1,0,1,0,36.14-87.21Z"/><path class="cls-1" d="M169.49,342.69a.84.84,0,0,1-.23.28.48.48,0,0,1-.3.08.72.72,0,0,1-.41-.14l-.53-.31a5.37,5.37,0,0,0-.71-.31,3.06,3.06,0,0,0-1-.14,2.91,2.91,0,0,0-.88.13,1.88,1.88,0,0,0-.63.33,1.37,1.37,0,0,0-.38.52,1.59,1.59,0,0,0-.13.66,1.13,1.13,0,0,0,.26.76,2.17,2.17,0,0,0,.68.53,6.19,6.19,0,0,0,1,.38l1.1.37a7.59,7.59,0,0,1,1.11.45,3.74,3.74,0,0,1,1,.64,2.93,2.93,0,0,1,.68,1,3.35,3.35,0,0,1,.25,1.37,4.28,4.28,0,0,1-.3,1.65,3.68,3.68,0,0,1-.88,1.34,4.16,4.16,0,0,1-1.41.9,5.22,5.22,0,0,1-1.92.33,6.23,6.23,0,0,1-1.22-.12,6.38,6.38,0,0,1-1.15-.35,6,6,0,0,1-1-.54,4.61,4.61,0,0,1-.86-.7l.71-1.16a.78.78,0,0,1,.23-.21.56.56,0,0,1,.3-.08.85.85,0,0,1,.49.18l.62.41a4.69,4.69,0,0,0,.84.41,3.33,3.33,0,0,0,1.16.18,2.33,2.33,0,0,0,1.59-.49,1.73,1.73,0,0,0,.57-1.4,1.31,1.31,0,0,0-.25-.84,2,2,0,0,0-.68-.54,5.16,5.16,0,0,0-1-.38l-1.09-.33a9.27,9.27,0,0,1-1.1-.43,3.57,3.57,0,0,1-1-.66,3,3,0,0,1-.68-1,3.84,3.84,0,0,1-.25-1.49,3.52,3.52,0,0,1,.28-1.39,3.48,3.48,0,0,1,.82-1.19,4,4,0,0,1,1.33-.84,4.89,4.89,0,0,1,1.82-.31,6.09,6.09,0,0,1,2.12.36,4.8,4.8,0,0,1,1.65,1Z"/><path class="cls-1" d="M176.13,344a5,5,0,0,1,1.86.33,4.11,4.11,0,0,1,1.44.95,4,4,0,0,1,.92,1.49,6,6,0,0,1,0,3.94,4.2,4.2,0,0,1-.92,1.51,4,4,0,0,1-1.44.95,5,5,0,0,1-1.86.33,5.12,5.12,0,0,1-1.88-.33,4.07,4.07,0,0,1-1.44-.95,4.37,4.37,0,0,1-.93-1.51,6.22,6.22,0,0,1,0-3.94,4.1,4.1,0,0,1,.93-1.49,4.21,4.21,0,0,1,1.44-.95A5.12,5.12,0,0,1,176.13,344Zm0,7.79a1.93,1.93,0,0,0,1.7-.77,3.86,3.86,0,0,0,.56-2.26,3.91,3.91,0,0,0-.56-2.28,1.94,1.94,0,0,0-1.7-.78,2,2,0,0,0-1.73.79,4.86,4.86,0,0,0,0,4.53A2,2,0,0,0,176.13,351.75Z"/><path class="cls-1" d="M189,346.05a.92.92,0,0,1-.19.2.45.45,0,0,1-.28.07.6.6,0,0,1-.33-.1l-.38-.23a3,3,0,0,0-.54-.24,2.77,2.77,0,0,0-.77-.1,2.32,2.32,0,0,0-1,.21,1.9,1.9,0,0,0-.74.61,2.65,2.65,0,0,0-.43,1,4.89,4.89,0,0,0-.14,1.27,5.19,5.19,0,0,0,.15,1.31,3,3,0,0,0,.46,1,1.88,1.88,0,0,0,.72.59,2.21,2.21,0,0,0,.95.2,2.32,2.32,0,0,0,.86-.13,2.56,2.56,0,0,0,.55-.29l.39-.28a.59.59,0,0,1,.37-.14.46.46,0,0,1,.41.21l.64.81a4.1,4.1,0,0,1-.8.72,4.3,4.3,0,0,1-.9.47,4.43,4.43,0,0,1-1,.25,6.46,6.46,0,0,1-1,.07,4.08,4.08,0,0,1-1.6-.32,3.73,3.73,0,0,1-1.33-.93,4.63,4.63,0,0,1-.89-1.5,5.73,5.73,0,0,1-.33-2,6,6,0,0,1,.29-1.89,4.46,4.46,0,0,1,.86-1.5,4,4,0,0,1,1.4-1,4.85,4.85,0,0,1,1.93-.36,4.6,4.6,0,0,1,1.81.33,4.54,4.54,0,0,1,1.4,1Z"/><path class="cls-1" d="M193.64,341.42a1.24,1.24,0,0,1-.11.54,1.67,1.67,0,0,1-.31.44,1.77,1.77,0,0,1-.45.3,1.55,1.55,0,0,1-.56.11,1.46,1.46,0,0,1-.55-.11,1.71,1.71,0,0,1-.44-.3,1.43,1.43,0,0,1-.3-.44,1.24,1.24,0,0,1-.11-.54,1.3,1.3,0,0,1,.11-.56,1.37,1.37,0,0,1,.3-.45,1.71,1.71,0,0,1,.44-.3,1.46,1.46,0,0,1,.55-.11,1.55,1.55,0,0,1,.56.11,1.77,1.77,0,0,1,.45.3,1.57,1.57,0,0,1,.31.45A1.3,1.3,0,0,1,193.64,341.42Zm-.3,2.68v9.23h-2.23V344.1Z"/><path class="cls-1" d="M199.69,344a5,5,0,0,1,1.86.33,4.21,4.21,0,0,1,1.44.95,4.08,4.08,0,0,1,.92,1.49,6.22,6.22,0,0,1,0,3.94,4.35,4.35,0,0,1-.92,1.51,4.07,4.07,0,0,1-1.44.95,5,5,0,0,1-1.86.33,5.12,5.12,0,0,1-1.88-.33,4,4,0,0,1-1.45-.95,4.5,4.5,0,0,1-.92-1.51,6,6,0,0,1,0-3.94,4.22,4.22,0,0,1,.92-1.49,4.15,4.15,0,0,1,1.45-.95A5.12,5.12,0,0,1,199.69,344Zm0,7.79a1.94,1.94,0,0,0,1.7-.77,3.87,3.87,0,0,0,.55-2.26,3.92,3.92,0,0,0-.55-2.28,2,2,0,0,0-1.7-.78,2,2,0,0,0-1.74.79,4.86,4.86,0,0,0,0,4.53A2,2,0,0,0,199.69,351.75Z"/><path class="cls-1" d="M208,345.24a4.88,4.88,0,0,1,.59-.52,3.34,3.34,0,0,1,.65-.4,3.6,3.6,0,0,1,.74-.26,3.41,3.41,0,0,1,.87-.1,3.25,3.25,0,0,1,1.33.26,2.63,2.63,0,0,1,1,.72,3,3,0,0,1,.59,1.1,4.55,4.55,0,0,1,.21,1.42v5.87h-2.22v-5.87a2,2,0,0,0-.39-1.31,1.45,1.45,0,0,0-1.18-.46,2.27,2.27,0,0,0-1.08.26,3.86,3.86,0,0,0-.95.71v6.67h-2.22V344.1h1.36a.54.54,0,0,1,.56.41Z"/><path class="cls-1" d="M217.77,349a4.16,4.16,0,0,0,.26,1.23,2.31,2.31,0,0,0,.52.85,1.93,1.93,0,0,0,.77.51,2.76,2.76,0,0,0,1,.16,3.18,3.18,0,0,0,.93-.12,5,5,0,0,0,.68-.28l.52-.28a.86.86,0,0,1,.42-.13.46.46,0,0,1,.42.21l.63.81a3.48,3.48,0,0,1-.82.72,4.74,4.74,0,0,1-1,.47,5.07,5.07,0,0,1-1,.25,6.82,6.82,0,0,1-1,.07,5,5,0,0,1-1.79-.32,4,4,0,0,1-1.43-.94,4.5,4.5,0,0,1-1-1.55,6,6,0,0,1-.35-2.13,5.24,5.24,0,0,1,.31-1.78,4.23,4.23,0,0,1,.88-1.44,4.11,4.11,0,0,1,1.39-1A4.59,4.59,0,0,1,220,344a4.39,4.39,0,0,1,1.61.28,3.64,3.64,0,0,1,1.27.81,3.91,3.91,0,0,1,.83,1.31,4.92,4.92,0,0,1,.3,1.78,1.34,1.34,0,0,1-.11.68c-.07.12-.2.17-.41.17Zm4.24-1.34a2.74,2.74,0,0,0-.12-.81,2,2,0,0,0-.37-.67,1.65,1.65,0,0,0-.61-.45,2.14,2.14,0,0,0-.87-.17,2,2,0,0,0-1.51.55,2.67,2.67,0,0,0-.71,1.55Z"/><path class="cls-1" d="M233.76,353.33h-2.14a.61.61,0,0,1-.39-.13,1,1,0,0,1-.24-.29l-2-3.21a2,2,0,0,1-.11.29,1.46,1.46,0,0,1-.13.25l-1.72,2.67a1.68,1.68,0,0,1-.25.29.53.53,0,0,1-.36.13h-2l3.16-4.76-3-4.47h2.14a.82.82,0,0,1,.36.07.64.64,0,0,1,.21.22l1.93,3.08a3,3,0,0,1,.28-.61l1.55-2.42a.62.62,0,0,1,.52-.34h2l-3,4.37Z"/><path class="cls-1" d="M238,353.47a2.43,2.43,0,0,1-1.85-.68,2.6,2.6,0,0,1-.64-1.87v-5.15h-.95a.41.41,0,0,1-.3-.12.43.43,0,0,1-.13-.35v-.88l1.48-.24.47-2.52a.53.53,0,0,1,.17-.28.59.59,0,0,1,.33-.1h1.15v2.91h2.46v1.58h-2.46v5a1,1,0,0,0,.21.68.73.73,0,0,0,.58.24,1.06,1.06,0,0,0,.34-.05,2.16,2.16,0,0,0,.25-.1l.18-.11a.32.32,0,0,1,.16,0,.25.25,0,0,1,.16,0,1,1,0,0,1,.14.15l.66,1.08a3.33,3.33,0,0,1-1.11.61A4.07,4.07,0,0,1,238,353.47Z"/><circle cx="203.41" cy="207.51" r="54.66"/><path class="cls-1" d="M203.42,265.71a58.09,58.09,0,0,1-41.18-17h0a58.28,58.28,0,1,1,41.18,17Zm-36.14-22.06a51.1,51.1,0,1,0-15-36.14,51.17,51.17,0,0,0,15,36.14Z"/><path class="cls-1" d="M191.76,199.83v2h-7.62v-13h2.42v11Z"/><path class="cls-1" d="M195.75,189.9a1.22,1.22,0,0,1-.12.54,1.4,1.4,0,0,1-.31.44,1.49,1.49,0,0,1-.46.31,1.46,1.46,0,0,1-.55.11,1.42,1.42,0,0,1-.55-.11,1.58,1.58,0,0,1-.75-.75,1.37,1.37,0,0,1-.11-.54,1.51,1.51,0,0,1,.11-.56,1.57,1.57,0,0,1,.31-.45,1.55,1.55,0,0,1,.44-.3,1.42,1.42,0,0,1,.55-.11,1.46,1.46,0,0,1,.55.11,1.66,1.66,0,0,1,.46.3,1.57,1.57,0,0,1,.31.45A1.34,1.34,0,0,1,195.75,189.9Zm-.31,2.69v9.24h-2.23v-9.24Z"/><path class="cls-1" d="M199.79,193.73a4.88,4.88,0,0,1,.59-.52,3.34,3.34,0,0,1,.65-.4,3.51,3.51,0,0,1,.75-.27,3.85,3.85,0,0,1,.86-.09,3.34,3.34,0,0,1,1.34.26,2.63,2.63,0,0,1,1,.72,3.06,3.06,0,0,1,.59,1.1,4.56,4.56,0,0,1,.2,1.42v5.88h-2.22V196a2,2,0,0,0-.39-1.31,1.42,1.42,0,0,0-1.17-.46,2.21,2.21,0,0,0-1.08.26,3.73,3.73,0,0,0-1,.71v6.68h-2.22v-9.24h1.36a.55.55,0,0,1,.56.41Z"/><path class="cls-1" d="M215.81,192.59v9.24h-1.35a.53.53,0,0,1-.56-.41l-.15-.74a4.93,4.93,0,0,1-1.26.94,3.51,3.51,0,0,1-1.61.35,3.25,3.25,0,0,1-1.33-.25,2.77,2.77,0,0,1-1-.73,3.29,3.29,0,0,1-.6-1.11,4.87,4.87,0,0,1-.2-1.42v-5.87H210v5.87a2,2,0,0,0,.39,1.31,1.46,1.46,0,0,0,1.18.47,2.39,2.39,0,0,0,1.08-.26,3.86,3.86,0,0,0,1-.71v-6.68Z"/><path class="cls-1" d="M226.26,201.83h-2.15a.56.56,0,0,1-.39-.13,1.16,1.16,0,0,1-.25-.29l-1.95-3.21a2.47,2.47,0,0,1-.1.29,2,2,0,0,1-.13.25l-1.73,2.67a1.68,1.68,0,0,1-.24.29.57.57,0,0,1-.36.13h-2l3.17-4.76-3-4.48h2.15a.82.82,0,0,1,.36.07.72.72,0,0,1,.2.22l1.94,3.08a2.5,2.5,0,0,1,.28-.6l1.55-2.43a.6.6,0,0,1,.52-.34h2l-3,4.38Z"/><path class="cls-1" d="M182.25,214.27h.57a1.39,1.39,0,0,0,.57-.1.91.91,0,0,0,.38-.3l3.59-4.54a1.17,1.17,0,0,1,.48-.4,1.4,1.4,0,0,1,.62-.12h2.09l-4.38,5.41a2.57,2.57,0,0,1-.8.71,1.86,1.86,0,0,1,.53.3,2.28,2.28,0,0,1,.45.51l4.52,6.09h-2.13a1.32,1.32,0,0,1-.64-.12,1,1,0,0,1-.36-.36l-3.68-4.81a1,1,0,0,0-.4-.34,1.74,1.74,0,0,0-.64-.1h-.77v5.73h-2.42v-13h2.42Z"/><path class="cls-1" d="M192.86,217.49a4.69,4.69,0,0,0,.25,1.23,2.57,2.57,0,0,0,.53.85,1.93,1.93,0,0,0,.77.51,2.76,2.76,0,0,0,1,.16,3.18,3.18,0,0,0,.93-.12,5.8,5.8,0,0,0,.69-.28l.51-.28a.92.92,0,0,1,.43-.13.46.46,0,0,1,.41.21l.64.81a3.82,3.82,0,0,1-.83.73,4.24,4.24,0,0,1-1,.46,5.14,5.14,0,0,1-1,.25,7.05,7.05,0,0,1-1,.07,4.78,4.78,0,0,1-1.79-.32,4,4,0,0,1-1.44-.94,4.33,4.33,0,0,1-1-1.55,6.08,6.08,0,0,1-.35-2.14,5.14,5.14,0,0,1,.3-1.77,4.34,4.34,0,0,1,.88-1.45,4.15,4.15,0,0,1,1.4-1,4.57,4.57,0,0,1,1.86-.36,4.47,4.47,0,0,1,1.61.28,3.59,3.59,0,0,1,1.27.81,3.86,3.86,0,0,1,.83,1.32,4.9,4.9,0,0,1,.3,1.77,1.43,1.43,0,0,1-.11.68.44.44,0,0,1-.41.18Zm4.24-1.34a2.76,2.76,0,0,0-.12-.82,1.92,1.92,0,0,0-.37-.67,1.65,1.65,0,0,0-.61-.45,2.14,2.14,0,0,0-.87-.17,2.1,2.1,0,0,0-1.52.55,2.7,2.7,0,0,0-.7,1.56Z"/><path class="cls-1" d="M202.86,214.2a3.83,3.83,0,0,1,1-1.3,2.14,2.14,0,0,1,1.4-.48,1.77,1.77,0,0,1,1,.28l-.15,1.67a.47.47,0,0,1-.13.23.37.37,0,0,1-.23.06,2.51,2.51,0,0,1-.4,0,3.05,3.05,0,0,0-.52-.05,1.88,1.88,0,0,0-.65.11,1.71,1.71,0,0,0-.52.31,2.14,2.14,0,0,0-.4.49,4.51,4.51,0,0,0-.33.66v5.69h-2.23v-9.24h1.31a.67.67,0,0,1,.48.13.69.69,0,0,1,.18.43Z"/><path class="cls-1" d="M209.56,213.73a4.88,4.88,0,0,1,.59-.52,3.34,3.34,0,0,1,.65-.4,3.51,3.51,0,0,1,.75-.27,3.85,3.85,0,0,1,.86-.09,3.34,3.34,0,0,1,1.34.26,2.63,2.63,0,0,1,1,.72,3.06,3.06,0,0,1,.59,1.1,4.56,4.56,0,0,1,.2,1.42v5.88H213.3V216a2,2,0,0,0-.39-1.31,1.42,1.42,0,0,0-1.17-.46,2.21,2.21,0,0,0-1.08.26,3.73,3.73,0,0,0-1,.71v6.68h-2.22v-9.24h1.36a.54.54,0,0,1,.56.41Z"/><path class="cls-1" d="M219.34,217.49a4.69,4.69,0,0,0,.25,1.23,2.55,2.55,0,0,0,.52.85,2.08,2.08,0,0,0,.77.51,2.86,2.86,0,0,0,1,.16,3.18,3.18,0,0,0,.93-.12,5,5,0,0,0,.68-.28l.52-.28a.89.89,0,0,1,.42-.13.46.46,0,0,1,.42.21l.64.81a3.82,3.82,0,0,1-.83.73,4.69,4.69,0,0,1-1,.46,5.07,5.07,0,0,1-1,.25,6.92,6.92,0,0,1-1,.07,4.78,4.78,0,0,1-1.79-.32,4,4,0,0,1-1.44-.94,4.33,4.33,0,0,1-1-1.55,5.86,5.86,0,0,1-.35-2.14,5.14,5.14,0,0,1,.3-1.77,4.34,4.34,0,0,1,.88-1.45,4.11,4.11,0,0,1,1.39-1,4.61,4.61,0,0,1,1.86-.36,4.43,4.43,0,0,1,1.61.28,3.42,3.42,0,0,1,1.27.81,3.71,3.71,0,0,1,.83,1.32,4.69,4.69,0,0,1,.31,1.77,1.43,1.43,0,0,1-.11.68.44.44,0,0,1-.41.18Zm4.24-1.34a2.76,2.76,0,0,0-.12-.82,2.09,2.09,0,0,0-.37-.67,1.65,1.65,0,0,0-.61-.45,2.14,2.14,0,0,0-.87-.17,2.1,2.1,0,0,0-1.52.55,2.77,2.77,0,0,0-.71,1.56Z"/><path class="cls-1" d="M229.49,208.45v13.38h-2.22V208.45Z"/><circle class="cls-5" cx="340.13" cy="207.51" r="54.66"/><path class="cls-1" d="M340.13,265.71a58.2,58.2,0,1,1,41.17-17A58,58,0,0,1,340.13,265.71Zm0-109.3a51.11,51.11,0,1,0,36.13,15A50.79,50.79,0,0,0,340.13,156.41Z"/><path class="cls-1" d="M311.65,217.36h-2a2.37,2.37,0,0,1-.78-.12,1.43,1.43,0,0,1-.63-.43l-1.9-2.1a7.45,7.45,0,0,1-.94.19,8.19,8.19,0,0,1-1,.06,7,7,0,0,1-2.68-.5,6,6,0,0,1-2.08-1.39,6.21,6.21,0,0,1-1.35-2.1,7.71,7.71,0,0,1,0-5.3,6.21,6.21,0,0,1,1.35-2.1,6,6,0,0,1,2.08-1.39,6.84,6.84,0,0,1,2.68-.5,7.1,7.1,0,0,1,1.87.23,6.61,6.61,0,0,1,1.59.64,5.69,5.69,0,0,1,1.31,1,6.14,6.14,0,0,1,1,1.33,6.7,6.7,0,0,1,.61,1.6,7.75,7.75,0,0,1,.21,1.82,7.56,7.56,0,0,1-.18,1.67,7,7,0,0,1-.51,1.48,6.11,6.11,0,0,1-.83,1.28,6.28,6.28,0,0,1-1.1,1Zm-11.37-9a5.78,5.78,0,0,0,.29,1.92,4.07,4.07,0,0,0,.82,1.44,3.66,3.66,0,0,0,1.29.9,4.9,4.9,0,0,0,3.43,0,3.66,3.66,0,0,0,1.29-.9,4.21,4.21,0,0,0,.81-1.44,6.5,6.5,0,0,0,0-3.84,4,4,0,0,0-.81-1.44,3.56,3.56,0,0,0-1.29-.91,4.9,4.9,0,0,0-3.43,0,3.56,3.56,0,0,0-1.29.91,3.91,3.91,0,0,0-.82,1.44A5.78,5.78,0,0,0,300.28,208.32Z"/><path class="cls-1" d="M320.57,205.6v9.22h-1.36a.52.52,0,0,1-.55-.41l-.16-.73a5,5,0,0,1-1.24.93,3.57,3.57,0,0,1-1.61.35,3.14,3.14,0,0,1-1.34-.26,2.68,2.68,0,0,1-1-.72,3,3,0,0,1-.6-1.11,4.54,4.54,0,0,1-.2-1.41V205.6h2.22v5.86a1.94,1.94,0,0,0,.39,1.3,1.44,1.44,0,0,0,1.17.47,2.39,2.39,0,0,0,1.08-.26,3.81,3.81,0,0,0,1-.7V205.6Z"/><path class="cls-1" d="M322.55,206.88a5.48,5.48,0,0,1,3.83-1.45,3.63,3.63,0,0,1,1.44.26,3,3,0,0,1,1.75,1.87,4.33,4.33,0,0,1,.23,1.43v5.83h-1a.9.9,0,0,1-.48-.1.6.6,0,0,1-.27-.38l-.2-.66a7.82,7.82,0,0,1-.68.55,4,4,0,0,1-.69.4,3.85,3.85,0,0,1-.77.25,5.05,5.05,0,0,1-.91.08,3.38,3.38,0,0,1-1.07-.16,2.32,2.32,0,0,1-.86-.47,2.09,2.09,0,0,1-.55-.78,2.62,2.62,0,0,1-.2-1.09,2.09,2.09,0,0,1,.12-.69,1.85,1.85,0,0,1,.38-.66,3.13,3.13,0,0,1,.68-.6,5,5,0,0,1,1-.48,9,9,0,0,1,1.44-.34,13.88,13.88,0,0,1,1.86-.16V209a2.05,2.05,0,0,0-.39-1.37,1.45,1.45,0,0,0-1.14-.44,2.88,2.88,0,0,0-.9.12,4,4,0,0,0-.62.29l-.49.28a1,1,0,0,1-.49.13.6.6,0,0,1-.4-.13,1.16,1.16,0,0,1-.26-.28Zm5.08,4a12.08,12.08,0,0,0-1.61.17,4,4,0,0,0-1,.31,1.27,1.27,0,0,0-.57.44,1,1,0,0,0-.17.55,1,1,0,0,0,.34.83,1.53,1.53,0,0,0,.91.25,2.7,2.7,0,0,0,1.18-.24,3.63,3.63,0,0,0,1-.75Z"/><path class="cls-1" d="M334.13,201.46v13.36h-2.22V201.46Z"/><path class="cls-1" d="M343,207.55a.88.88,0,0,1-.2.19.41.41,0,0,1-.27.08.62.62,0,0,1-.33-.11l-.39-.23a2.91,2.91,0,0,0-.53-.23,2.46,2.46,0,0,0-.77-.11,2.4,2.4,0,0,0-1,.21,2,2,0,0,0-.73.61,2.84,2.84,0,0,0-.44,1,5.42,5.42,0,0,0-.14,1.27,4.75,4.75,0,0,0,.16,1.31,2.72,2.72,0,0,0,.45,1,1.94,1.94,0,0,0,.72.59,2.1,2.1,0,0,0,1,.2,2.29,2.29,0,0,0,.86-.13,2,2,0,0,0,.55-.29l.4-.28a.56.56,0,0,1,.37-.13.45.45,0,0,1,.4.2l.64.81a3.92,3.92,0,0,1-.8.73,4.18,4.18,0,0,1-.89.46,4.52,4.52,0,0,1-1,.25,6.33,6.33,0,0,1-1,.07,4,4,0,0,1-1.61-.32,3.78,3.78,0,0,1-1.32-.93,4.17,4.17,0,0,1-.89-1.49,5.78,5.78,0,0,1-.33-2,5.66,5.66,0,0,1,.29-1.88,4.12,4.12,0,0,1,.86-1.5,3.85,3.85,0,0,1,1.4-1,4.83,4.83,0,0,1,1.92-.36,4.4,4.4,0,0,1,1.81.34,4.24,4.24,0,0,1,1.4,1Z"/><path class="cls-1" d="M348.93,205.45a4.87,4.87,0,0,1,1.87.34,4,4,0,0,1,1.44.94,4.17,4.17,0,0,1,.92,1.49,5.81,5.81,0,0,1,.32,2,5.87,5.87,0,0,1-.32,2,4.4,4.4,0,0,1-.92,1.5,4.07,4.07,0,0,1-1.44,1,5.46,5.46,0,0,1-3.74,0,4,4,0,0,1-1.45-1,4.4,4.4,0,0,1-.92-1.5,5.63,5.63,0,0,1-.33-2,5.58,5.58,0,0,1,.33-2,4.17,4.17,0,0,1,.92-1.49,4,4,0,0,1,1.45-.94A4.87,4.87,0,0,1,348.93,205.45Zm0,7.79a2,2,0,0,0,1.71-.77,3.85,3.85,0,0,0,.55-2.26,3.92,3.92,0,0,0-.55-2.28,2.28,2.28,0,0,0-3.44,0,4.86,4.86,0,0,0,0,4.53A2,2,0,0,0,348.93,213.24Z"/><path class="cls-1" d="M355.18,214.82V205.6h1.36a.54.54,0,0,1,.56.4l.15.68a5.75,5.75,0,0,1,.5-.49,3.6,3.6,0,0,1,.57-.39,3.37,3.37,0,0,1,.65-.25,2.59,2.59,0,0,1,.76-.1,2.16,2.16,0,0,1,1.43.47,3,3,0,0,1,.84,1.26,2.63,2.63,0,0,1,.54-.79,2.8,2.8,0,0,1,.71-.53,3.38,3.38,0,0,1,.82-.31,4.32,4.32,0,0,1,.88-.1,3.54,3.54,0,0,1,1.35.24,2.51,2.51,0,0,1,1,.68,3,3,0,0,1,.62,1.1,4.76,4.76,0,0,1,.21,1.48v5.87h-2.22V209a2,2,0,0,0-.39-1.33,1.42,1.42,0,0,0-1.13-.44,1.61,1.61,0,0,0-.63.12,1.49,1.49,0,0,0-.52.33,1.56,1.56,0,0,0-.34.56,2,2,0,0,0-.13.76v5.87h-2.23V209a2,2,0,0,0-.37-1.35,1.38,1.38,0,0,0-1.09-.42,1.76,1.76,0,0,0-.9.24,2.94,2.94,0,0,0-.78.65v6.75Z"/><path class="cls-1" d="M370.23,214.82V205.6h1.36a.54.54,0,0,1,.57.4l.14.68a4.7,4.7,0,0,1,.51-.49,3.12,3.12,0,0,1,.56-.39,3.37,3.37,0,0,1,.65-.25,2.59,2.59,0,0,1,.76-.1,2.16,2.16,0,0,1,1.43.47,2.81,2.81,0,0,1,.84,1.26,3.06,3.06,0,0,1,.54-.79,3.2,3.2,0,0,1,.71-.53,3.3,3.3,0,0,1,.83-.31,4.3,4.3,0,0,1,.87-.1,3.62,3.62,0,0,1,1.36.24,2.58,2.58,0,0,1,1,.68,2.93,2.93,0,0,1,.61,1.1,4.76,4.76,0,0,1,.21,1.48v5.87H381V209a2,2,0,0,0-.38-1.33,1.45,1.45,0,0,0-1.14-.44,1.68,1.68,0,0,0-.63.12,1.45,1.45,0,0,0-.51.33,1.57,1.57,0,0,0-.35.56,2.2,2.2,0,0,0-.12.76v5.87H375.6V209a2.05,2.05,0,0,0-.37-1.35,1.4,1.4,0,0,0-1.1-.42,1.78,1.78,0,0,0-.9.24,2.94,2.94,0,0,0-.78.65v6.75Z"/></g></svg>