<?xml version="1.0" encoding="UTF-8"?>
<svg id="icons" xmlns="http://www.w3.org/2000/svg" viewBox="0 0 70 70">
  <defs>
    <style>
      .cls-1 {
        stroke: #f48414;
        stroke-width: 6px;
      }

      .cls-1, .cls-2 {
        fill: none;
        stroke-miterlimit: 10;
      }

      .cls-2 {
        opacity: .1;
        stroke: #000;
        stroke-width: 5px;
      }

      .cls-3 {
        stroke-width: 0px;
      }
    </style>
  </defs>
  <g>
    <path class="cls-3" d="M27.08,24.98c-1.61,0-2.92-1.31-2.92-2.92s1.31-2.92,2.92-2.92,2.92,1.31,2.92,2.92-1.31,2.92-2.92,2.92ZM27.08,20.11c-1.07,0-1.94.87-1.94,1.94s.87,1.94,1.94,1.94,1.94-.87,1.94-1.94-.87-1.94-1.94-1.94Z"/>
    <path class="cls-3" d="M33.54,32.99l-.27,3.73c-.09,1.05-1.27,1.94-2.41,2.21l-.71,9.58c-.05.65-.58,1.16-1.23,1.16h-1.84c.26,0,.48-.22.48-.49v-.49h1.36c.13,0,.25-.12.26-.25l.74-9.96c0-.24.2-.43.44-.45l.1-.02c.79-.11,1.78-.75,1.84-1.36l.26-3.65s.98,0,.98,0Z"/>
    <path class="cls-3" d="M33.81,29.21v.04l-.03.34h-.97l.03-.39c0-1.19-.95-2.18-2.1-2.21h-7.34c-1.15.03-2.08,1.03-2.08,2.23l.55,7.44c.05.45.65.99,1.36,1.23l.05.66c.02.25.23.45.48.45,0,0,.03,0,.04,0,.25-.02.45-.22.45-.47l.74,9.92c.02.14.14.25.26.25h1.35v.49c0,.27.22.49.49.49h-1.84c-.65,0-1.18-.52-1.23-1.16l-.71-9.58c-1.14-.26-2.31-1.15-2.41-2.19l-.55-7.36v-.17c0-1.71,1.36-3.15,3.04-3.19h7.36c1.69.04,3.06,1.47,3.06,3.2Z"/>
    <path class="cls-3" d="M27.56,38.78v10.4c0,.27-.22.49-.48.49s-.49-.22-.49-.49v-10.4c0-.26.22-.48.49-.48s.48.22.48.48Z"/>
    <path class="cls-3" d="M24.23,38.47v.05c0,.25-.2.45-.45.47,0,0-.03,0-.04,0-.25,0-.46-.2-.48-.45l-.05-.66-.57-7.64c-.02-.26.18-.5.45-.52.25-.03.51.18.53.45,0,0,.61,8.31.61,8.31Z"/>
    <path class="cls-3" d="M42.92,24.98c-1.61,0-2.92-1.31-2.92-2.92s1.31-2.92,2.92-2.92,2.92,1.31,2.92,2.92-1.31,2.92-2.92,2.92ZM42.92,20.11c-1.07,0-1.94.87-1.94,1.94s.87,1.94,1.94,1.94,1.94-.87,1.94-1.94-.87-1.94-1.94-1.94Z"/>
    <path class="cls-3" d="M42.92,49.67h-1.84c-.65,0-1.18-.52-1.23-1.16l-.71-9.58c-1.14-.26-2.31-1.15-2.41-2.19l-.14-1.8h.98l.13,1.72c.05.55.96,1.23,1.84,1.35l.1.02c.24.02.43.21.44.45l.74,9.96c.02.14.14.25.26.25h1.35v.49c0,.27.22.49.49.49Z"/>
    <path class="cls-3" d="M49.66,29.21v.04l-.55,7.47c-.09,1.05-1.27,1.94-2.41,2.21l-.71,9.58c-.05.65-.58,1.16-1.23,1.16h-1.84c.26,0,.49-.22.49-.49v-.49h1.35c.13,0,.25-.12.26-.25l.74-9.92c0,.25.2.45.45.47,0,0,.03,0,.04,0,.25,0,.46-.2.49-.45l.05-.66c.66-.23,1.31-.74,1.35-1.24l.55-7.45c0-1.19-.95-2.18-2.1-2.21h-7.34c-1.14.03-2.08,1.03-2.08,2.23l.17,2.32h-.98l-.16-2.15v-.17c0-1.71,1.36-3.15,3.04-3.19h7.36c1.7.04,3.06,1.47,3.06,3.2h0Z"/>
    <path class="cls-3" d="M43.42,38.78v10.4c0,.27-.23.49-.49.49s-.49-.22-.49-.49v-10.4c0-.26.22-.48.49-.48s.49.22.49.48Z"/>
    <path class="cls-3" d="M47.35,30.24l-.56,7.64-.05.66c-.03.25-.24.45-.49.45,0,0-.03,0-.04,0-.25-.02-.45-.22-.45-.47v-.05l.61-8.31c.02-.26.29-.46.53-.45.26.02.46.25.45.52Z"/>
    <g>
      <path class="cls-3" d="M29.67,33.75c-.11,0-.23-.04-.32-.12l-2.61-2.22c-.11-.09-.17-.23-.17-.37s.06-.28.17-.37l2.61-2.22c.2-.17.51-.15.69.05.17.21.15.51-.05.69l-2.17,1.85,2.17,1.85c.21.17.23.48.05.69-.1.11-.24.17-.37.17v-.02Z"/>
      <path class="cls-3" d="M36.75,31.53h-9.69c-.27,0-.49-.22-.49-.49s.22-.49.49-.49h9.69c.27,0,.49.22.49.49s-.22.49-.49.49Z"/>
    </g>
    <g>
      <path class="cls-3" d="M40.29,36.18c-.14,0-.27-.05-.37-.17-.17-.21-.15-.51.05-.69l2.17-1.85-2.17-1.85c-.21-.17-.23-.48-.05-.69s.48-.23.69-.05l2.61,2.22c.11.09.17.23.17.37s-.06.28-.17.37l-2.61,2.22c-.09.08-.2.12-.32.12v.02Z"/>
      <path class="cls-3" d="M42.9,33.96h-9.92c-.27,0-.49-.22-.49-.49s.22-.49.49-.49h9.92c.27,0,.49.22.49.49s-.22.49-.49.49Z"/>
    </g>
  </g>
  <circle class="cls-2" cx="35" cy="35" r="30.42"/>
  <circle class="cls-1" cx="35" cy="35" r="25.16"/>
</svg>