<svg id="background" xmlns="http://www.w3.org/2000/svg" xmlns:xlink="http://www.w3.org/1999/xlink" viewBox="0 0 609.88 500.42"><defs><style>.cls-1,.cls-3{fill:none;}.cls-2{opacity:0.2;}.cls-3{stroke:#fff;stroke-miterlimit:10;}.cls-4{clip-path:url(#clip-path);}.cls-5{fill:#8bb02d;}.cls-6{clip-path:url(#clip-path-2);}.cls-7{fill:#93b930;}.cls-8{clip-path:url(#clip-path-3);}.cls-9{clip-path:url(#clip-path-4);}.cls-10{clip-path:url(#clip-path-5);}.cls-11{fill:#698f23;}.cls-12{clip-path:url(#clip-path-6);}.cls-13{fill:#9bc331;}.cls-14{fill:#7a9727;}.cls-15{clip-path:url(#clip-path-7);}.cls-16{clip-path:url(#clip-path-8);}.cls-17{clip-path:url(#clip-path-9);}.cls-18{fill:url(#radial-gradient);}.cls-19{fill:#fff;}</style><clipPath id="clip-path"><path class="cls-1" d="M331.55,129.28l0,.88a10.68,10.68,0,0,0-.93-3.94,13.19,13.19,0,0,0-2.6-3.77,18.79,18.79,0,0,0-3.33-2.66l0-.87a17.89,17.89,0,0,1,3.32,2.65,12.94,12.94,0,0,1,2.61,3.78A10.59,10.59,0,0,1,331.55,129.28Z"/></clipPath><clipPath id="clip-path-2"><path class="cls-1" d="M342.5,128.88l0,.88c.36,9.83-8.9,19.19-23.38,22.45a48.09,48.09,0,0,1-9.18,1.13,47,47,0,0,1-10.56-.93l0-.87a47.57,47.57,0,0,0,10.56.92,48.09,48.09,0,0,0,9.18-1.13C333.6,148.07,342.85,138.71,342.5,128.88Z"/></clipPath><clipPath id="clip-path-3"><path class="cls-1" d="M318.92,173.34l-1,.21a10.89,10.89,0,0,1-2.15.21c-12.1,0-24.87-19.32-28.51-43.15a83,83,0,0,1-1-12.07,60,60,0,0,1,1.49-14.19l1-.21a61.15,61.15,0,0,0-1.49,14.19,83,83,0,0,0,1,12.07c3.64,23.83,16.4,43.15,28.5,43.15A11,11,0,0,0,318.92,173.34Z"/></clipPath><clipPath id="clip-path-4"><path class="cls-1" d="M300.41,87.66l1-.21a11,11,0,0,0-3.58,1.43,17.76,17.76,0,0,0-6.38,7.55l-1,.2a17.77,17.77,0,0,1,6.37-7.54A11.06,11.06,0,0,1,300.41,87.66Z"/></clipPath><clipPath id="clip-path-5"><path class="cls-1" d="M321.1,184.08l-1,.21a14.07,14.07,0,0,0,4.64-1.89c3.23-2,6-5.43,8.07-9.88l1-.21c-2.11,4.45-4.83,7.85-8.06,9.88A14.07,14.07,0,0,1,321.1,184.08Z"/></clipPath><clipPath id="clip-path-6"><path class="cls-1" d="M299.31,76.77l3-.27c15.13,0,30.68,24.1,35.23,53.9a104.84,104.84,0,0,1,1.21,14.71,74.81,74.81,0,0,1-2.22,19.56l-1,.2a73.89,73.89,0,0,0,2.22-19.55,103.3,103.3,0,0,0-1.2-14.71"/></clipPath><clipPath id="clip-path-7"><path class="cls-1" d="M287.77,131.72l0-.88c-.24-6.55,5.93-12.79,15.59-15a32,32,0,0,1,6-.74,31.13,31.13,0,0,1,5.74.34l0,.88a32.22,32.22,0,0,0-11.7.4C293.7,118.93,287.54,125.17,287.77,131.72Z"/></clipPath><clipPath id="clip-path-8"><path class="cls-1" d="M276.82,132.12l0-.88a15.77,15.77,0,0,0,1.39,5.89l0,.88A15.77,15.77,0,0,1,276.82,132.12Z"/></clipPath><clipPath id="clip-path-9"><path class="cls-1" d="M289.64,148.21l0,.88a27.79,27.79,0,0,1-7.68-5.55,19.78,19.78,0,0,1-3.78-5.53l0-.88a19.78,19.78,0,0,0,3.78,5.53A27.79,27.79,0,0,0,289.64,148.21Z"/></clipPath><radialGradient id="radial-gradient" cx="-1839.76" cy="-959.5" fy="-970.248298276552" r="12.15" gradientTransform="translate(2148.98 1090.78)" gradientUnits="userSpaceOnUse"><stop offset="0" stop-color="#698f23" stop-opacity="0"/><stop offset="0.13" stop-color="#698f23" stop-opacity="0.03"/><stop offset="0.26" stop-color="#698f23" stop-opacity="0.11"/><stop offset="0.39" stop-color="#698f23" stop-opacity="0.25"/><stop offset="0.52" stop-color="#698f23" stop-opacity="0.44"/><stop offset="0.64" stop-color="#698f23" stop-opacity="0.69"/><stop offset="0.77" stop-color="#698f23" stop-opacity="0.99"/><stop offset="0.77" stop-color="#698f23"/></radialGradient></defs><g class="cls-2"><ellipse class="cls-3" cx="309.96" cy="130.85" rx="40.24" ry="81.37" transform="translate(-19.15 60.97) rotate(-10.9)"/><ellipse class="cls-3" cx="309.82" cy="131.16" rx="55.26" ry="111.75" transform="translate(-19.21 60.95) rotate(-10.9)"/><ellipse class="cls-3" cx="309.47" cy="131.51" rx="78.3" ry="158.33" transform="translate(-19.29 60.89) rotate(-10.9)"/><ellipse class="cls-3" cx="308.82" cy="131.16" rx="125.58" ry="253.94" transform="translate(-19.23 60.76) rotate(-10.9)"/><ellipse class="cls-3" cx="308.31" cy="131.16" rx="239.4" ry="484.09" transform="translate(-19.24 60.67) rotate(-10.9)"/></g><g class="cls-4"><path class="cls-1" d="M331.55,129.28l0,.88a10.68,10.68,0,0,0-.93-3.94,13.19,13.19,0,0,0-2.6-3.77,18.79,18.79,0,0,0-3.33-2.66l0-.87a17.89,17.89,0,0,1,3.32,2.65,12.94,12.94,0,0,1,2.61,3.78,10.59,10.59,0,0,1,.93,3.93"/></g><path class="cls-5" d="M299.38,151.54l5.3-6.84a30.39,30.39,0,0,0,5.16.29,31.21,31.21,0,0,0,6.12-.75c11.58-2.6,18.15-11.06,14.66-18.89a12.94,12.94,0,0,0-2.61-3.78,17.89,17.89,0,0,0-3.32-2.65l5.29-6.84a28,28,0,0,1,7.22,5.25,19.7,19.7,0,0,1,3.9,5.66c5.24,11.75-4.61,24.43-22,28.34a48.09,48.09,0,0,1-9.18,1.13A47.57,47.57,0,0,1,299.38,151.54Z"/><g class="cls-6"><path class="cls-1" d="M342.5,128.88l0,.88a15.11,15.11,0,0,1-.11,2.43l0-.88a15.11,15.11,0,0,0,.11-2.43"/><path class="cls-1" d="M342.39,131.31l0,.88a15.39,15.39,0,0,1-.62,2.83l0-.87a15.67,15.67,0,0,0,.62-2.84"/><path class="cls-1" d="M341.77,134.15l0,.87a18.19,18.19,0,0,1-1.36,3.2l0-.88a17.73,17.73,0,0,0,1.37-3.19"/><path class="cls-1" d="M340.4,137.34l0,.88a21.66,21.66,0,0,1-3.16,4.33l0-.87a21.55,21.55,0,0,0,3.15-4.34"/><path class="cls-1" d="M337.25,141.68l0,.87a30.15,30.15,0,0,1-8.8,6.4l0-.88a30.31,30.31,0,0,0,8.8-6.39"/><path class="cls-1" d="M328.45,148.07l0,.88a39.72,39.72,0,0,1-6.1,2.4l0-.88a39.72,39.72,0,0,0,6.1-2.4"/><path class="cls-1" d="M322.35,150.47l0,.88c-1,.32-2.12.61-3.23.86l-1.43.29,0-.88,1.43-.29c1.11-.25,2.19-.54,3.23-.86"/><path class="cls-1" d="M317.69,151.62l0,.88c-1.37.27-2.75.47-4.12.61l0-.88c1.37-.14,2.75-.34,4.12-.61"/><path class="cls-1" d="M313.57,152.23l0,.88c-1.21.12-2.42.2-3.63.23h-.32l0-.87h.32c1.2,0,2.41-.11,3.63-.23"/><path class="cls-1" d="M309.62,152.47l0,.87q-2,0-4-.09l0-.88c1.3.09,2.62.12,4,.1"/><path class="cls-1" d="M305.66,152.37l0,.88c-1.45-.09-2.87-.25-4.27-.47l0-.88c1.39.22,2.82.38,4.27.47"/><path class="cls-1" d="M301.39,151.9l0,.88c-.68-.11-1.35-.23-2-.37l0-.87q1,.19,2,.36"/></g><polygon class="cls-7" points="282.69 96.67 283.71 96.46 288.78 104.14 287.76 104.35 282.69 96.67"/><g class="cls-8"><path class="cls-1" d="M287.76,104.35l1-.21c-.1.41-.19.84-.28,1.26l-1,.21c.09-.42.19-.85.29-1.26"/><path class="cls-1" d="M287.47,105.61l1-.21c-.1.5-.2,1-.29,1.52l-1,.2c.09-.51.19-1,.29-1.51"/><path class="cls-1" d="M287.18,107.12l1-.2c-.09.49-.17,1-.25,1.51l-1,.21c.07-.51.15-1,.24-1.52"/><path class="cls-1" d="M286.94,108.64l1-.21c-.07.5-.14,1-.2,1.52l-1,.21c.06-.52.13-1,.21-1.52"/><path class="cls-1" d="M286.73,110.16l1-.21c-.07.5-.12,1-.17,1.52l-1,.21c.05-.51.1-1,.16-1.52"/><path class="cls-1" d="M286.57,111.68l1-.21c0,.51-.09,1-.13,1.55l-1,.21c0-.52.08-1,.13-1.55"/><path class="cls-1" d="M286.44,113.23l1-.21c0,.51-.07,1-.09,1.56l-1,.21q0-.8.09-1.56"/><path class="cls-1" d="M286.35,114.79l1-.21c0,.51,0,1-.06,1.56l-1,.21q0-.8.06-1.56"/><path class="cls-1" d="M286.29,116.35l1-.21c0,.52,0,1,0,1.56l-1,.21c0-.52,0-1,0-1.56"/><path class="cls-1" d="M286.27,117.91l1-.21v.63c0,.3,0,.61,0,.91l-1,.21c0-.3,0-.61,0-.91v-.63"/><path class="cls-1" d="M286.28,119.45l1-.21c0,.5,0,1,0,1.52l-1,.2c0-.5,0-1,0-1.51"/><path class="cls-1" d="M286.32,121l1-.2c0,.47,0,.95.07,1.43l-1,.21c0-.48-.05-1-.06-1.44"/><path class="cls-1" d="M286.38,122.4l1-.21c0,.45,0,.9.08,1.35l-1,.21c0-.45-.06-.9-.09-1.35"/><path class="cls-1" d="M286.47,123.75l1-.21c0,.42.06.84.1,1.26l-1,.21-.09-1.26"/><path class="cls-1" d="M286.56,125l1-.21c0,.4.07.79.11,1.19l-1,.21-.12-1.19"/><path class="cls-1" d="M286.68,126.2l1-.21.12,1.12-1,.21c-.05-.38-.09-.75-.12-1.12"/><path class="cls-1" d="M286.8,127.32l1-.21c0,.35.08.71.13,1.06l-1,.21-.12-1.06"/><path class="cls-1" d="M286.92,128.38l1-.21c0,.34.09.69.13,1l-1,.21c-.05-.35-.09-.69-.14-1"/><path class="cls-1" d="M287.06,129.41l1-.21.15,1-1,.21c-.05-.33-.1-.66-.14-1"/><path class="cls-1" d="M287.2,130.4l1-.21,0,.21c0,.27.08.54.13.82l-1,.2c0-.27-.08-.54-.13-.81l0-.21"/><path class="cls-1" d="M287.36,131.42l1-.2c.05.34.11.68.17,1l-1,.21c0-.34-.11-.68-.17-1"/><path class="cls-1" d="M287.53,132.45l1-.21.18,1-1,.2c-.07-.33-.13-.67-.19-1"/><path class="cls-1" d="M287.72,133.46l1-.2.21,1.09-1,.21-.21-1.1"/><path class="cls-1" d="M287.93,134.56l1-.21.27,1.28-1,.21c-.09-.43-.18-.85-.26-1.28"/><path class="cls-1" d="M288.19,135.84l1-.21c.09.42.18.84.28,1.26l-1,.21c-.1-.42-.19-.84-.28-1.26"/><path class="cls-1" d="M288.47,137.1l1-.21c.16.73.34,1.46.52,2.18l-1,.21c-.18-.72-.36-1.45-.53-2.18"/><path class="cls-1" d="M289,139.28l1-.21q.66,2.53,1.43,5l-1,.2q-.78-2.41-1.43-4.95"/><path class="cls-1" d="M290.43,144.23l1-.2.54,1.62-1,.21c-.18-.54-.37-1.08-.54-1.63"/><path class="cls-1" d="M291,145.86l1-.21c.19.53.37,1,.56,1.57l-1,.21c-.19-.52-.38-1-.56-1.57"/><path class="cls-1" d="M291.53,147.43l1-.21c.15.41.3.81.46,1.2l-1,.21q-.23-.58-.45-1.2"/><path class="cls-1" d="M292,148.63l1-.21c.15.4.31.8.47,1.19l-1,.2c-.16-.39-.31-.78-.47-1.18"/><path class="cls-1" d="M292.45,149.81l1-.2c.16.4.32.79.49,1.18l-1,.21c-.16-.39-.33-.79-.49-1.19"/><path class="cls-1" d="M292.94,151l1-.21c.17.41.34.8.52,1.2l-1,.21-.53-1.2"/><path class="cls-1" d="M293.47,152.2l1-.21.54,1.17-1,.21c-.18-.39-.36-.78-.53-1.17"/><path class="cls-1" d="M294,153.37l1-.21c.21.46.43.92.65,1.36l-1,.21-.66-1.36"/><path class="cls-1" d="M294.66,154.73l1-.21c.22.45.45.89.68,1.33l-1,.21c-.22-.44-.45-.88-.67-1.33"/><path class="cls-1" d="M295.33,156.06l1-.21c.27.51.54,1,.82,1.51l-1,.21c-.27-.49-.55-1-.82-1.51"/><path class="cls-1" d="M296.15,157.57l1-.21c.28.51.57,1,.86,1.5l-1,.21-.87-1.5"/><path class="cls-1" d="M297,159.07l1-.21c.32.52.63,1,.95,1.52l-1,.21c-.32-.5-.64-1-1-1.52"/><path class="cls-1" d="M298,160.59l1-.21c.32.49.64,1,1,1.44l-1,.21q-.49-.71-1-1.44"/><path class="cls-1" d="M298.93,162l1-.21c.32.47.65.92,1,1.37l-1,.2c-.33-.44-.66-.89-1-1.36"/><path class="cls-1" d="M299.91,163.39l1-.2c.31.41.62.82.94,1.21l-1,.21c-.32-.39-.63-.8-.94-1.22"/><path class="cls-1" d="M300.85,164.61l1-.21c.31.39.63.77.94,1.14l-1,.21c-.32-.37-.63-.75-.94-1.14"/><path class="cls-1" d="M301.79,165.75l1-.21.93,1-1,.21c-.31-.34-.62-.68-.92-1"/><path class="cls-1" d="M302.71,166.78l1-.21c.3.32.6.64.91.94l-1,.21c-.31-.3-.62-.62-.92-.94"/><path class="cls-1" d="M303.63,167.72l1-.21c.3.3.6.59.91.87l-1,.21-.9-.87"/><path class="cls-1" d="M304.53,168.59l1-.21c.3.27.6.54.9.79l-1,.21c-.31-.25-.61-.52-.91-.79"/><path class="cls-1" d="M305.44,169.38l1-.21c.3.25.6.5.9.73l-1,.21-.9-.73"/><path class="cls-1" d="M306.34,170.11l1-.21c.31.23.61.45.92.66l-1,.21c-.3-.21-.61-.43-.91-.66"/><path class="cls-1" d="M307.25,170.77l1-.21c.3.22.61.42.91.61l-1,.21c-.31-.19-.61-.4-.92-.61"/><path class="cls-1" d="M308.17,171.38l1-.21c.32.19.63.38.95.55l-1,.21-.94-.55"/><path class="cls-1" d="M309.11,171.93l1-.21c.31.17.63.33.95.48l-1,.21-1-.48"/><path class="cls-1" d="M310.07,172.41l1-.21c.34.16.67.3,1,.43l-1,.21c-.33-.13-.67-.27-1-.43"/><path class="cls-1" d="M311.07,172.84l1-.21c.33.13.67.25,1,.36l-1,.21-1-.36"/><path class="cls-1" d="M312.09,173.2l1-.21c.38.11.75.21,1.12.29l-1,.21c-.38-.08-.75-.18-1.12-.29"/><path class="cls-1" d="M313.21,173.49l1-.21c.39.08.79.15,1.18.19l-1,.21c-.39,0-.78-.11-1.17-.19"/><path class="cls-1" d="M314.38,173.68l1-.21a11,11,0,0,0,1.28.08l-1,.21a11.13,11.13,0,0,1-1.28-.08"/><path class="cls-1" d="M315.66,173.76l1-.21h.07a12.48,12.48,0,0,0,1.38-.08l-1,.21a12.62,12.62,0,0,1-1.38.08h-.08"/><path class="cls-1" d="M317.12,173.68l1-.21.78-.13-1,.21-.77.13"/></g><g class="cls-9"><path class="cls-1" d="M300.41,87.66l1-.21a11,11,0,0,0-3.58,1.43,15.56,15.56,0,0,0-4.76,4.74l-1,.21a15.67,15.67,0,0,1,4.76-4.74,11.06,11.06,0,0,1,3.58-1.43"/><path class="cls-1" d="M292.07,93.83l1-.21a22.93,22.93,0,0,0-1.24,2.06l-1,.21a23.85,23.85,0,0,1,1.23-2.06"/><path class="cls-1" d="M290.84,95.89l1-.21-.38.75-1,.2c.12-.25.25-.5.38-.74"/></g><g class="cls-10"><path class="cls-1" d="M332.78,172.52l1-.21c-.23.5-.48,1-.73,1.46l-1,.21c.26-.47.5-1,.74-1.46"/><path class="cls-1" d="M332,174l1-.21a28.38,28.38,0,0,1-1.56,2.6l-1,.21c.54-.81,1.06-1.68,1.55-2.6"/><path class="cls-1" d="M330.49,176.58l1-.21a19.76,19.76,0,0,1-5.77,5.82,14.07,14.07,0,0,1-4.64,1.89l-1,.21a14.07,14.07,0,0,0,4.64-1.89,19.79,19.79,0,0,0,5.78-5.82"/></g><path class="cls-11" d="M282.69,96.67l5.07,7.68a60,60,0,0,0-1.49,14.19,83,83,0,0,0,1,12.07c3.64,23.83,16.41,43.15,28.51,43.15A10.82,10.82,0,0,0,321.6,172a17.8,17.8,0,0,0,6.11-7.2l5.07,7.68c-2.11,4.45-4.84,7.85-8.07,9.88a13.59,13.59,0,0,1-7.32,2.16c-15.13,0-31.08-24.16-35.63-53.95a103.09,103.09,0,0,1-1.21-15.09A73.77,73.77,0,0,1,282.69,96.67Z"/><polygon class="cls-7" points="327.71 164.84 328.73 164.63 333.8 172.31 332.78 172.52 327.71 164.84"/><path class="cls-11" d="M300.91,76.66c15.13,0,31.08,24.15,35.63,54a103.3,103.3,0,0,1,1.2,14.71,73.89,73.89,0,0,1-2.22,19.55l-5.06-7.67A60.83,60.83,0,0,0,332,142.37a82.87,82.87,0,0,0-1-11.76c-3.64-23.84-16.4-43.16-28.5-43.16a10.85,10.85,0,0,0-5.73,1.64,17.77,17.77,0,0,0-6.37,7.54L285.39,89c2.16-4.67,5-8.2,8.36-10.26A13.63,13.63,0,0,1,300.91,76.66Z"/><g class="cls-12"><path class="cls-1" d="M299,76.8l2.1-.19c.68,0,2-.12,2.5-.06l-1,.21c-.53-.06-1.92-.07-2.45-.07"/><path class="cls-1" d="M302.6,76.76l1-.21c.49.06,1,.14,1.47.25l-1,.2q-.74-.15-1.47-.24"/><path class="cls-1" d="M304.07,77l1-.2c.46.1.93.22,1.39.36l-1,.21c-.47-.14-.93-.27-1.4-.37"/><path class="cls-1" d="M305.47,77.37l1-.21c.43.13.85.28,1.27.44l-1,.21c-.42-.16-.85-.31-1.27-.44"/><path class="cls-1" d="M306.74,77.81l1-.21c.42.17.84.34,1.26.54l-1,.21c-.41-.2-.83-.38-1.25-.54"/><path class="cls-1" d="M308,78.35l1-.21c.4.19.8.39,1.19.61l-1,.2q-.6-.32-1.2-.6"/><path class="cls-1" d="M309.19,79l1-.2c.4.21.79.44,1.18.68l-1,.21L309.19,79"/><path class="cls-1" d="M310.37,79.64l1-.21c.38.24.77.49,1.15.76l-1,.21c-.38-.27-.76-.52-1.14-.76"/><path class="cls-1" d="M311.51,80.4l1-.21c.38.26.76.54,1.14.83l-1,.21c-.37-.29-.75-.57-1.14-.83"/><path class="cls-1" d="M312.65,81.23l1-.21c.38.29.75.59,1.13.91l-1,.21c-.37-.32-.75-.62-1.13-.91"/><path class="cls-1" d="M313.78,82.14l1-.21c.38.32.75.65,1.13,1l-1,.21c-.37-.34-.75-.68-1.13-1"/><path class="cls-1" d="M314.91,83.13l1-.21c.38.35.75.71,1.13,1.08l-1,.21c-.37-.37-.75-.73-1.13-1.08"/><path class="cls-1" d="M316,84.21l1-.21c.38.38.76.78,1.14,1.18l-1,.21c-.38-.41-.76-.8-1.15-1.18"/><path class="cls-1" d="M317.19,85.39l1-.21c.39.42.77.85,1.15,1.29l-1,.21c-.38-.44-.76-.87-1.15-1.29"/><path class="cls-1" d="M318.34,86.68l1-.21c.4.46.79.93,1.18,1.42l-1,.2c-.39-.48-.78-1-1.18-1.41"/><path class="cls-1" d="M319.52,88.09l1-.2c.4.49.79,1,1.18,1.52l-1,.21c-.39-.52-.78-1-1.18-1.53"/><path class="cls-1" d="M320.7,89.62l1-.21c.41.55.82,1.12,1.22,1.7l-1,.21c-.4-.58-.81-1.15-1.22-1.7"/><path class="cls-1" d="M321.92,91.32l1-.21q.62.89,1.2,1.8l-1,.21q-.6-.91-1.2-1.8"/><path class="cls-1" d="M323.12,93.12l1-.21c.4.62.8,1.26,1.19,1.91l-1,.21c-.39-.65-.78-1.29-1.18-1.91"/><path class="cls-1" d="M324.3,95l1-.21c.36.61.72,1.23,1.08,1.87l-1,.21c-.35-.64-.71-1.26-1.08-1.87"/><path class="cls-1" d="M325.38,96.9l1-.21c.35.62.69,1.25,1,1.89l-1,.21c-.34-.64-.68-1.27-1-1.89"/><path class="cls-1" d="M326.41,98.79l1-.21.84,1.66-1,.21c-.27-.56-.55-1.11-.84-1.66"/><path class="cls-1" d="M327.25,100.45l1-.21c.28.56.55,1.13.82,1.7l-1,.21c-.26-.58-.54-1.14-.82-1.7"/><path class="cls-1" d="M328.07,102.15l1-.21c.23.48.45,1,.67,1.47l-1,.21c-.22-.5-.45-1-.68-1.47"/><path class="cls-1" d="M328.75,103.62l1-.21c.22.49.44,1,.65,1.49l-1,.21c-.22-.5-.43-1-.65-1.49"/><path class="cls-1" d="M329.4,105.11l1-.21c.21.49.42,1,.62,1.49l-1,.2c-.2-.49-.4-1-.61-1.48"/><path class="cls-1" d="M330,106.59l1-.2c.2.48.39,1,.58,1.47l-1,.21c-.19-.49-.39-1-.59-1.48"/><path class="cls-1" d="M330.6,108.07l1-.21.57,1.51-1,.2-.57-1.5"/><path class="cls-1" d="M331.17,109.57l1-.2c.24.65.47,1.3.7,2l-1,.21c-.23-.66-.47-1.32-.7-2"/><path class="cls-1" d="M331.87,111.54l1-.21c.23.67.46,1.35.68,2l-1,.21c-.22-.68-.44-1.36-.67-2"/><path class="cls-1" d="M332.54,113.57l1-.21c.64,2,1.24,4.08,1.78,6.19l-1,.21c-.54-2.11-1.14-4.18-1.79-6.19"/><path class="cls-1" d="M334.33,119.76l1-.21c.23.91.45,1.81.66,2.73l-1,.21q-.32-1.38-.66-2.73"/><path class="cls-1" d="M335,122.49l1-.21c.12.53.24,1,.35,1.58l-1,.21c-.11-.53-.23-1.06-.35-1.58"/><path class="cls-1" d="M335.34,124.07l1-.21q.18.8.33,1.59l-1,.21-.33-1.59"/><path class="cls-1" d="M335.67,125.66l1-.21.27,1.37-1,.21c-.08-.46-.17-.92-.26-1.37"/><path class="cls-1" d="M335.93,127l1-.21c.07.43.15.85.22,1.27l-1,.21c-.07-.42-.15-.85-.23-1.27"/><path class="cls-1" d="M336.16,128.3l1-.21c.08.43.15.86.22,1.28l-1,.21c-.06-.43-.14-.85-.21-1.28"/><path class="cls-1" d="M336.37,129.58l1-.21c.05.34.11.68.16,1,0,.08,0,.16,0,.25l-1,.2,0-.24c-.06-.35-.11-.69-.17-1"/><path class="cls-1" d="M336.57,130.85l1-.2.18,1.25-1,.21c-.06-.42-.12-.84-.19-1.26"/><path class="cls-1" d="M336.76,132.11l1-.21c.06.43.12.85.17,1.28l-1,.21c-.05-.43-.11-.85-.16-1.28"/><path class="cls-1" d="M336.92,133.39l1-.21c.06.44.11.89.16,1.33l-1,.21c-.05-.44-.1-.89-.16-1.33"/><path class="cls-1" d="M337.08,134.72l1-.21.15,1.4-1,.21c0-.47-.09-.93-.15-1.4"/><path class="cls-1" d="M337.23,136.12l1-.21c.05.49.09,1,.14,1.48l-1,.21c0-.5-.09-1-.14-1.48"/><path class="cls-1" d="M337.37,137.6l1-.21.12,1.57-1,.21c0-.52-.08-1-.13-1.57"/><path class="cls-1" d="M337.5,139.17l1-.21c0,.57.08,1.13.11,1.69l-1,.21c0-.56-.06-1.12-.1-1.69"/><path class="cls-1" d="M337.6,140.86l1-.21c0,.6.05,1.2.08,1.79l-1,.21c0-.6-.05-1.19-.08-1.79"/><path class="cls-1" d="M337.68,142.65l1-.21c0,.63,0,1.26.05,1.89l-1,.21c0-.63,0-1.26-.05-1.89"/><path class="cls-1" d="M337.73,144.54l1-.21c0,.26,0,.52,0,.78v1.2l-1,.21c0-.4,0-.8,0-1.2s0-.52,0-.78"/><path class="cls-1" d="M337.75,146.52l1-.21c0,.65,0,1.3,0,1.94l-1,.21,0-1.94"/><path class="cls-1" d="M337.72,148.46l1-.21c0,.66,0,1.31-.07,1.95l-1,.21c0-.64.05-1.29.07-1.95"/><path class="cls-1" d="M337.65,150.41l1-.21c0,.66-.07,1.31-.11,2l-1,.21c.05-.65.09-1.29.12-2"/><path class="cls-1" d="M337.53,152.36l1-.21c-.05.65-.1,1.29-.16,1.92l-1,.21c.06-.63.12-1.28.16-1.92"/><path class="cls-1" d="M337.37,154.28l1-.21c-.07.65-.14,1.28-.21,1.91l-1,.21c.08-.63.15-1.26.21-1.91"/><path class="cls-1" d="M337.16,156.19l1-.21c-.08.64-.16,1.27-.26,1.9l-1,.21c.09-.63.18-1.26.25-1.9"/><path class="cls-1" d="M336.91,158.09l1-.21c-.09.64-.19,1.27-.31,1.89l-1,.21c.11-.62.21-1.25.31-1.89"/><path class="cls-1" d="M336.6,160l1-.21q-.17,1-.36,1.89l-1,.21q.19-.93.36-1.89"/><path class="cls-1" d="M336.24,161.87l1-.21c-.13.64-.28,1.28-.43,1.9l-1,.21c.15-.63.29-1.26.43-1.9"/><path class="cls-1" d="M335.81,163.77l1-.21c-.09.37-.18.74-.28,1.11l-1,.2c.1-.36.2-.73.29-1.1"/></g><path class="cls-13" d="M309.66,119.55a10.92,10.92,0,0,0-10.52,7.89,11,11,0,1,0,21.06,6.05,11,11,0,0,0-10.54-13.94Z"/><polygon class="cls-14" points="320.31 108.67 320.35 109.55 315.06 116.36 315.03 115.48 320.31 108.67"/><g class="cls-15"><path class="cls-1" d="M315,115.48l0,.88c-.89-.13-1.81-.24-2.73-.3l0-.87c.92.06,1.83.16,2.73.29"/><path class="cls-1" d="M312.3,115.19l0,.87c-.86,0-1.72-.07-2.6-.06l0-.87c.88,0,1.74,0,2.6.06"/><path class="cls-1" d="M309.7,115.13l0,.87-.41,0c-.76,0-1.52.07-2.28.14l0-.87q1.14-.12,2.28-.15h.41"/><path class="cls-1" d="M307,115.29l0,.87c-.91.1-1.82.23-2.73.4l0-.87c.91-.18,1.82-.31,2.73-.4"/><path class="cls-1" d="M304.28,115.69l0,.87-.95.2q-1.11.26-2.16.57l0-.88q1.05-.32,2.16-.57l.95-.19"/><path class="cls-1" d="M301.17,116.45l0,.88a26.4,26.4,0,0,0-4.06,1.6l0-.88a26.4,26.4,0,0,1,4.06-1.6"/><path class="cls-1" d="M297.11,118.05l0,.88a20.17,20.17,0,0,0-5.87,4.27l0-.88a20.36,20.36,0,0,1,5.87-4.27"/><path class="cls-1" d="M291.24,122.32l0,.88a14.55,14.55,0,0,0-2.1,2.89l0-.88a14.16,14.16,0,0,1,2.1-2.89"/><path class="cls-1" d="M289.14,125.21l0,.88a11.67,11.67,0,0,0-.91,2.13l0-.88a11,11,0,0,1,.91-2.13"/><path class="cls-1" d="M288.23,127.34l0,.88a10.39,10.39,0,0,0-.42,1.88l0-.87a10.31,10.31,0,0,1,.42-1.89"/><path class="cls-1" d="M287.81,129.23l0,.87a11,11,0,0,0-.07,1.62l0-.88a10.79,10.79,0,0,1,.07-1.61"/></g><g class="cls-16"><path class="cls-1" d="M278.18,137.13l0,.88a15.77,15.77,0,0,1-1.39-5.89l0-.88a15.77,15.77,0,0,0,1.39,5.89"/></g><path class="cls-5" d="M278.18,137.13c-5.23-11.74,4.61-24.43,22-28.33a47.25,47.25,0,0,1,20.14-.13L315,115.48a31.13,31.13,0,0,0-5.74-.34,32,32,0,0,0-6,.74c-11.59,2.61-18.15,11.06-14.66,18.89a13,13,0,0,0,2.52,3.69,17.43,17.43,0,0,0,3.73,2.94l-5.28,6.81a27.79,27.79,0,0,1-7.68-5.55A19.78,19.78,0,0,1,278.18,137.13Z"/><polygon class="cls-14" points="294.93 141.4 294.96 142.28 289.67 149.09 289.64 148.21 294.93 141.4"/><g class="cls-17"><path class="cls-1" d="M289.64,148.21l0,.88a27.79,27.79,0,0,1-7.68-5.55,19.78,19.78,0,0,1-3.78-5.53l0-.88a19.78,19.78,0,0,0,3.78,5.53,27.79,27.79,0,0,0,7.68,5.55"/></g><path class="cls-13" d="M309.66,119.2a11.3,11.3,0,0,0-3,.41,11,11,0,0,0,3,21.5,10.68,10.68,0,0,0,3.06-.44,11,11,0,0,0-3.06-21.47Z"/><path class="cls-18" d="M309.66,119.2a11.3,11.3,0,0,0-3,.41,11,11,0,0,0,3,21.5,10.68,10.68,0,0,0,3.06-.44,11,11,0,0,0-3.06-21.47Z"/><g class="cls-2"><circle class="cls-19" cx="306.62" cy="125.36" r="2.69"/></g><circle class="cls-19" cx="304.91" cy="123.36" r="0.98"/><g class="cls-2"><circle class="cls-19" cx="309.68" cy="125.98" r="2.06"/></g><path class="cls-19" d="M147.25,140.68c-2,0-3.65-.73-3.65-3.08V107.08h2.59v29.66c0,1.1.48,1.63,1.83,1.63h19.24v2.31Z"/><path class="cls-19" d="M169.84,110.82v-3.74h2.69v3.74Zm.1,4.42h2.5v25.44h-2.5Z"/><path class="cls-19" d="M177.71,119.27c0-2.45.77-4,3.46-4h9.36c5.27,0,7.34,2.83,7.34,7.82v17.62h-2.5V123.06c0-3.07-1-5.56-4.84-5.56h-8.79c-1,0-1.53.19-1.53,1.82v21.36h-2.5Z"/><path class="cls-19" d="M216.44,115.24c4.22,0,6.09,2.35,6.09,6.38v15.7c0,2.25-.62,3.36-3.7,3.36h-9.78c-5,0-6.87-2.4-6.87-7.68s1.88-7.54,6.87-7.54h11v-4.27c0-1.92-.9-3.69-3.59-3.69H204.1v-2.26Zm-8.07,12.48c-3.07,0-3.6,2.21-3.6,5.28s.53,5.42,3.6,5.42h10.46a1.09,1.09,0,0,0,1.2-1.15v-9.55Z"/><path class="cls-19" d="M227.71,124c0-5.75,2.74-8.73,8.49-8.73h1.73v2.26H236.2c-4.32,0-6,2.25-6,7v16.13h-2.49Z"/><path class="cls-19" d="M263.84,127.91c0,9.12-3.45,13.05-12.57,13.05S238.7,137,238.7,127.91s3.45-13,12.57-13S263.84,118.79,263.84,127.91Zm-12.57,10.8c7.2,0,10-2.64,10-10.8s-2.78-10.7-10-10.7-10,2.54-10,10.7S244.07,138.71,251.27,138.71Z"/><path class="cls-13" d="M86.51,183.6c-13.39,0-16.93-9.44-16.93-20.65S72.94,142.3,87.1,142.3h15.39v2.84H87.1c-10.62,0-14.1,6.6-14.1,17.81s3.24,17.82,13.57,17.82h16.57v2.83Z"/><path class="cls-13" d="M136.18,167.91c0,11.2-4.25,16-15.46,16s-15.45-4.84-15.45-16S109.51,152,120.72,152,136.18,156.7,136.18,167.91Zm-15.46,13.27c8.85,0,12.27-3.25,12.27-13.27s-3.42-13.16-12.27-13.16-12.27,3.13-12.27,13.16S111.87,181.18,120.72,181.18Z"/><path class="cls-13" d="M141.48,157.29c0-3,1-5,4.25-5h11.5c6.49,0,9,3.48,9,9.62V183.6h-3.07V162c0-3.78-1.24-6.84-6-6.84H146.44c-1.18,0-1.89.23-1.89,2.24V183.6h-3.07Z"/><path class="cls-13" d="M172.63,157.29c0-3,.94-5,4.25-5h11.5c6.49,0,9,3.48,9,9.62V183.6h-3.06V162c0-3.78-1.24-6.84-6-6.84h-10.8c-1.18,0-1.89.23-1.89,2.24V183.6h-3.06Z"/><path class="cls-13" d="M213.51,183.6c-8.62,0-10.8-6.49-10.8-15.4,0-10.56,2.83-16.22,13.39-16.22,7.73,0,13.45,3.07,13.45,11.91,0,3.6-.94,5.14-4.48,5.14H205.9c0,5.48.94,11.8,7.61,11.8h15.33v2.77Zm11.56-17.35a1.29,1.29,0,0,0,1.3-1.41v-.41c0-7.67-3.78-9.68-10.21-9.68-7,0-10.26,2.54-10.26,11.5Z"/><path class="cls-13" d="M247,183.6c-10.62,0-13.21-5.61-13.21-15.63,0-9.44,2.59-15.64,13.21-15.64h10.5v2.78H247c-8.26,0-10,4.6-10,12.86,0,8.84,1.77,12.86,10,12.86h11.21v2.77Z"/><path class="cls-13" d="M273.73,183.6c-8.49,0-8.49-5-8.49-9.91V155.11h-4.9v-2.78h4.9v-10h3.06v10h8.38v2.78H268.3v19.46c0,4.9,1.3,6.26,6.14,6.26h2.24v2.77Z"/></svg>