<?xml version="1.0" encoding="utf-8"?>
<!-- Generator: Adobe Illustrator 20.0.0, SVG Export Plug-In . SVG Version: 6.00 Build 0)  -->
<!DOCTYPE svg PUBLIC "-//W3C//DTD SVG 1.1//EN" "http://www.w3.org/Graphics/SVG/1.1/DTD/svg11.dtd">
<svg version="1.1" xmlns="http://www.w3.org/2000/svg" xmlns:xlink="http://www.w3.org/1999/xlink" x="0px" y="0px"
	 viewBox="0 0 492 590" style="enable-background:new 0 0 492 590;" xml:space="preserve">
<style type="text/css">
	.st0{display:none;}
	.st1{display:inline;fill:#666666;}
	.st2{fill:#343433;}
	.st3{fill:#E5E5E5;}
	.st4{fill:#99C747;}
	.st5{fill:#99CC33;}
	.st6{fill:#666666;}
	.st7{fill:#FFFFFF;}
	.st8{fill:#4C4C4C;}
	.st9{fill:#4D4D4D;}
	.st10{opacity:0.5;fill:none;stroke:#AFB3B6;stroke-width:2;stroke-miterlimit:10;}
	.st11{fill:#676969;}
	.st12{fill:#666766;}
	.st13{opacity:0.5;fill:none;stroke:#666666;stroke-width:2;stroke-miterlimit:10;}
	.st14{opacity:0.5;fill:none;stroke:#FFFFFF;stroke-width:2;stroke-miterlimit:10;}
	.st15{clip-path:url(#SVGID_2_);}
	.st16{clip-path:url(#SVGID_4_);}
	.st17{clip-path:url(#SVGID_6_);fill:#98C84A;}
	.st18{clip-path:url(#SVGID_6_);fill:#676969;}
	.st19{clip-path:url(#SVGID_6_);fill:#A581B8;}
	.st20{clip-path:url(#SVGID_6_);fill:#907A80;}
	.st21{clip-path:url(#SVGID_6_);fill:#E2496F;}
	.st22{clip-path:url(#SVGID_6_);fill:#C72A5C;}
	.st23{clip-path:url(#SVGID_6_);fill:#E78095;}
	.st24{clip-path:url(#SVGID_6_);fill:#C14C7F;}
	.st25{clip-path:url(#SVGID_6_);fill:#C8DD91;}
	.st26{clip-path:url(#SVGID_6_);fill:#BC8447;}
	.st27{clip-path:url(#SVGID_6_);fill:#8A64A7;}
	.st28{opacity:0.5;clip-path:url(#SVGID_6_);}
	.st29{clip-path:url(#SVGID_8_);fill:#D82638;}
	.st30{clip-path:url(#SVGID_10_);fill:#922E8C;}
	.st31{opacity:0.25;clip-path:url(#SVGID_6_);}
	.st32{clip-path:url(#SVGID_12_);fill:#D82638;}
	.st33{clip-path:url(#SVGID_6_);fill:#922E8C;}
	.st34{clip-path:url(#SVGID_14_);fill:#98C84A;}
	.st35{font-family:'Helvetica-Light';}
	.st36{font-size:47.0159px;}
	.st37{clip-path:url(#SVGID_16_);}
	.st38{clip-path:url(#SVGID_18_);}
	.st39{clip-path:url(#SVGID_20_);fill:#98C84A;}
	.st40{clip-path:url(#SVGID_20_);fill:#FFFFFF;}
	.st41{clip-path:url(#SVGID_20_);fill:#A581B8;}
	.st42{clip-path:url(#SVGID_20_);fill:#907A80;}
	.st43{clip-path:url(#SVGID_20_);fill:#E2496F;}
	.st44{clip-path:url(#SVGID_20_);fill:#C72A5C;}
	.st45{clip-path:url(#SVGID_20_);fill:#E78095;}
	.st46{clip-path:url(#SVGID_20_);fill:#C14C7F;}
	.st47{clip-path:url(#SVGID_20_);fill:#C8DD91;}
	.st48{clip-path:url(#SVGID_20_);fill:#BC8447;}
	.st49{clip-path:url(#SVGID_20_);fill:#8A64A7;}
	.st50{opacity:0.5;clip-path:url(#SVGID_20_);}
	.st51{clip-path:url(#SVGID_22_);fill:#D82638;}
	.st52{clip-path:url(#SVGID_24_);fill:#922E8C;}
	.st53{opacity:0.25;clip-path:url(#SVGID_20_);}
	.st54{clip-path:url(#SVGID_26_);fill:#D82638;}
	.st55{clip-path:url(#SVGID_20_);fill:#922E8C;}
	.st56{clip-path:url(#SVGID_28_);fill:#98C84A;}
	.st57{clip-path:url(#SVGID_30_);}
	.st58{clip-path:url(#SVGID_32_);}
	.st59{clip-path:url(#SVGID_34_);fill:#98C84A;}
	.st60{clip-path:url(#SVGID_34_);fill:#FFFFFF;}
	.st61{clip-path:url(#SVGID_34_);fill:#A581B8;}
	.st62{clip-path:url(#SVGID_34_);fill:#907A80;}
	.st63{clip-path:url(#SVGID_34_);fill:#E2496F;}
	.st64{clip-path:url(#SVGID_34_);fill:#C72A5C;}
	.st65{clip-path:url(#SVGID_34_);fill:#E78095;}
	.st66{clip-path:url(#SVGID_34_);fill:#C14C7F;}
	.st67{clip-path:url(#SVGID_34_);fill:#C8DD91;}
	.st68{clip-path:url(#SVGID_34_);fill:#BC8447;}
	.st69{clip-path:url(#SVGID_34_);fill:#8A64A7;}
	.st70{opacity:0.5;clip-path:url(#SVGID_34_);}
	.st71{clip-path:url(#SVGID_36_);fill:#D82638;}
	.st72{clip-path:url(#SVGID_38_);fill:#922E8C;}
	.st73{opacity:0.25;clip-path:url(#SVGID_34_);}
	.st74{clip-path:url(#SVGID_40_);fill:#D82638;}
	.st75{clip-path:url(#SVGID_34_);fill:#922E8C;}
	.st76{clip-path:url(#SVGID_42_);fill:#98C84A;}
	.st77{clip-path:url(#SVGID_44_);}
	.st78{clip-path:url(#SVGID_46_);}
	.st79{clip-path:url(#SVGID_48_);fill:#98C84A;}
	.st80{clip-path:url(#SVGID_48_);fill:#676969;}
	.st81{clip-path:url(#SVGID_48_);fill:#A581B8;}
	.st82{clip-path:url(#SVGID_48_);fill:#907A80;}
	.st83{clip-path:url(#SVGID_48_);fill:#E2496F;}
	.st84{clip-path:url(#SVGID_48_);fill:#C72A5C;}
	.st85{clip-path:url(#SVGID_48_);fill:#E78095;}
	.st86{clip-path:url(#SVGID_48_);fill:#C14C7F;}
	.st87{clip-path:url(#SVGID_48_);fill:#C8DD91;}
	.st88{clip-path:url(#SVGID_48_);fill:#BC8447;}
	.st89{clip-path:url(#SVGID_48_);fill:#8A64A7;}
	.st90{opacity:0.5;clip-path:url(#SVGID_48_);}
	.st91{clip-path:url(#SVGID_50_);fill:#D82638;}
	.st92{clip-path:url(#SVGID_52_);fill:#922E8C;}
	.st93{opacity:0.25;clip-path:url(#SVGID_48_);}
	.st94{clip-path:url(#SVGID_54_);fill:#D82638;}
	.st95{clip-path:url(#SVGID_48_);fill:#922E8C;}
	.st96{clip-path:url(#SVGID_56_);fill:#98C84A;}
</style>
<g id="Background" class="st0">
</g>
<g id="Layer_1">
	<g>
		<g>
			<g>
				<path class="st4" d="M181.1,93c10.5-8.2,22.5-14.4,35.6-18.1c9-2.5,18.5-3.9,28.3-3.9c57.3,0,103.7,46.4,103.7,103.7
					c0,9.8-1.4,19.3-3.9,28.3c-3.7,13.1-9.9,25.2-18.1,35.6l18.4,18.4c11.2-13.6,19.7-29.6,24.6-47c3.2-11.2,4.9-23.1,4.9-35.4
					C374.7,103.1,316.6,45,245,45c-12.3,0-24.1,1.7-35.4,4.9c-17.4,4.9-33.4,13.4-47,24.6L181.1,93z"/>
				<path class="st4" d="M308.1,257c-10.1,7.7-21.6,13.7-34.1,17.3c-9.2,2.7-18.9,4.1-29,4.1c-57.3,0-103.7-46.4-103.7-103.7
					c0-10.1,1.5-19.8,4.1-29c3.6-12.5,9.6-24,17.3-34.1l-18.5-18.5c-10.7,13.2-18.9,28.6-23.8,45.3c-3.3,11.5-5.2,23.7-5.2,36.3
					c0,71.6,58.1,129.7,129.7,129.7c12.6,0,24.8-1.8,36.3-5.2c16.8-4.9,32.1-13.1,45.3-23.8L308.1,257z"/>
			</g>
			<path class="st5" d="M245,148.7c-2.5,0-4.8,0.3-7.1,1c-8.6,2.4-15.3,9.1-17.8,17.7c-0.7,2.3-1,4.7-1,7.3
				c0,14.3,11.6,25.9,25.9,25.9c2.5,0,5-0.4,7.3-1c8.6-2.5,15.3-9.3,17.7-17.8c0.6-2.2,1-4.6,1-7.1
				C270.9,160.4,259.3,148.7,245,148.7z"/>
			<g>
				<path class="st4" d="M218.3,130.2c3.9-2.3,8.1-4.2,12.6-5.5c4.5-1.3,9.2-2,14.1-2c28.6,0,51.9,23.2,51.9,51.9
					c0,4.9-0.7,9.6-2,14.1c-1.3,4.5-3.1,8.7-5.5,12.6l18.7,18.7c5.2-7.2,9.2-15.4,11.7-24.2c1.9-6.7,3-13.9,3-21.2
					c0-43-34.8-77.8-77.8-77.8c-7.4,0-14.5,1-21.2,3c-8.8,2.5-17,6.5-24.2,11.7L218.3,130.2z"/>
				<path class="st4" d="M270.8,219.7c-3.5,2-7.3,3.7-11.3,4.8c-4.6,1.3-9.5,2.1-14.5,2.1c-28.6,0-51.9-23.2-51.9-51.9
					c0-5,0.7-9.9,2.1-14.5c1.2-4,2.8-7.8,4.8-11.3l-18.8-18.8c-4.8,6.9-8.6,14.6-11,22.8c-2,6.9-3.1,14.2-3.1,21.8
					c0,43,34.8,77.8,77.8,77.8c7.6,0,14.9-1.1,21.8-3.1c8.3-2.4,16-6.1,22.8-11L270.8,219.7z"/>
			</g>
		</g>
		<g>
			<path class="st7" d="M130.8,330.1h11.8v46.2h28.1v10.1h-39.9V330.1z"/>
			<path class="st7" d="M189,339.9h-11v-10.1h11V339.9z M177.9,344.8h11v41.7h-11V344.8z"/>
			<path class="st7" d="M233.1,347.2c2.7,2.3,4.1,6,4.1,11.2v28.1h-11.2v-25.3c0-2.2-0.3-3.9-0.9-5c-1.1-2.1-3.1-3.2-6.1-3.2
				c-3.7,0-6.2,1.6-7.6,4.7c-0.7,1.7-1.1,3.8-1.1,6.3v22.6h-10.9v-41.6h10.5v6.1c1.4-2.1,2.7-3.7,4-4.6c2.2-1.7,5.1-2.5,8.5-2.5
				C226.9,343.8,230.4,345,233.1,347.2z"/>
			<path class="st7" d="M263.8,361.1c2-0.3,3.5-0.6,4.4-1c1.6-0.7,2.3-1.7,2.3-3.1c0-1.7-0.6-2.9-1.8-3.5c-1.2-0.6-3-1-5.3-1
				c-2.6,0-4.5,0.6-5.5,1.9c-0.8,0.9-1.3,2.2-1.5,3.8h-10.5c0.2-3.6,1.3-6.6,3.1-9c2.9-3.7,7.9-5.5,14.9-5.5c4.6,0,8.6,0.9,12.2,2.7
				c3.6,1.8,5.3,5.2,5.3,10.2v19.1c0,1.3,0,2.9,0.1,4.8c0.1,1.4,0.3,2.4,0.6,2.9c0.4,0.5,0.9,0.9,1.6,1.3v1.6h-11.8
				c-0.3-0.8-0.6-1.6-0.7-2.4c-0.1-0.7-0.2-1.6-0.3-2.5c-1.5,1.6-3.3,3-5.2,4.2c-2.4,1.4-5,2-8,2c-3.8,0-6.9-1.1-9.4-3.2
				c-2.5-2.2-3.7-5.2-3.7-9.2c0-5.1,2-8.8,6-11.1c2.2-1.2,5.4-2.1,9.6-2.7L263.8,361.1z M270.5,366.2c-0.7,0.4-1.4,0.8-2.1,1.1
				c-0.7,0.3-1.7,0.5-2.9,0.7l-2.5,0.5c-2.3,0.4-4,0.9-5,1.5c-1.7,1-2.6,2.5-2.6,4.6c0,1.9,0.5,3.2,1.6,4c1,0.8,2.3,1.2,3.8,1.2
				c2.4,0,4.6-0.7,6.6-2.1s3-3.9,3.1-7.5V366.2z"/>
			<path class="st7" d="M314,343.9c0.1,0,0.5,0,0.9,0.1v11.2c-0.7-0.1-1.3-0.1-1.8-0.2s-1,0-1.3,0c-4.4,0-7.3,1.4-8.8,4.3
				c-0.8,1.6-1.3,4.1-1.3,7.4v19.9h-11v-41.7h10.4v7.3c1.7-2.8,3.1-4.7,4.4-5.7c2-1.7,4.7-2.6,7.9-2.6
				C313.7,343.8,313.9,343.8,314,343.9z"/>
			<path class="st7" d="M356.1,381.4c-3.5,4.3-8.9,6.5-16,6.5c-7.2,0-12.5-2.2-16-6.5c-3.5-4.3-5.3-9.6-5.3-15.7
				c0-6,1.8-11.2,5.3-15.6c3.5-4.4,8.9-6.6,16-6.6c7.2,0,12.5,2.2,16,6.6c3.5,4.4,5.3,9.6,5.3,15.6
				C361.4,371.8,359.6,377.1,356.1,381.4z M347.4,375.4c1.7-2.3,2.6-5.5,2.6-9.7c0-4.2-0.9-7.4-2.6-9.6c-1.7-2.3-4.2-3.4-7.3-3.4
				c-3.2,0-5.6,1.1-7.4,3.4c-1.7,2.3-2.6,5.5-2.6,9.6c0,4.2,0.9,7.4,2.6,9.7c1.7,2.3,4.2,3.4,7.4,3.4
				C343.2,378.8,345.7,377.6,347.4,375.4z"/>
			<path class="st7" d="M88.3,433.2c-0.3-2-0.9-3.8-2-5.5c-1.6-2.2-4.1-3.3-7.4-3.3c-4.8,0-8.1,2.4-9.8,7.1c-0.9,2.5-1.4,5.9-1.4,10
				c0,4,0.5,7.2,1.4,9.6c1.7,4.5,4.9,6.8,9.6,6.8c3.3,0,5.7-0.9,7.1-2.7c1.4-1.8,2.2-4.1,2.5-7h14.5c-0.3,4.3-1.9,8.4-4.7,12.2
				c-4.4,6.2-11,9.3-19.8,9.3c-8.7,0-15.1-2.6-19.3-7.8c-4.1-5.2-6.2-11.9-6.2-20.1c0-9.3,2.3-16.5,6.8-21.7
				c4.5-5.2,10.8-7.8,18.8-7.8c6.8,0,12.4,1.5,16.7,4.6c4.3,3.1,6.9,8.4,7.7,16.2H88.3z"/>
			<path class="st7" d="M157.7,461.4c-4.6,5.6-11.5,8.5-20.8,8.5c-9.3,0-16.3-2.8-20.8-8.5c-4.6-5.6-6.9-12.4-6.9-20.4
				c0-7.8,2.3-14.6,6.9-20.3c4.6-5.7,11.5-8.6,20.8-8.6c9.3,0,16.3,2.9,20.8,8.6c4.6,5.7,6.9,12.5,6.9,20.3
				C164.6,448.9,162.3,455.7,157.7,461.4z M146.4,453.5c2.2-2.9,3.3-7.1,3.3-12.6c0-5.4-1.1-9.6-3.3-12.5c-2.2-2.9-5.4-4.4-9.5-4.4
				s-7.3,1.5-9.6,4.4c-2.2,2.9-3.4,7.1-3.4,12.5c0,5.4,1.1,9.6,3.4,12.6c2.2,2.9,5.4,4.4,9.6,4.4S144.1,456.5,146.4,453.5z"/>
			<path class="st7" d="M218.4,416.9c3.5,2.9,5.3,7.8,5.3,14.6V468h-14.5v-33c0-2.9-0.4-5-1.1-6.6c-1.4-2.8-4-4.2-7.9-4.2
				c-4.8,0-8,2-9.8,6.1c-0.9,2.2-1.4,4.9-1.4,8.3V468h-14.2v-54.1h13.7v7.9c1.8-2.8,3.5-4.8,5.1-6c2.9-2.2,6.6-3.3,11-3.3
				C210.3,412.5,214.9,414,218.4,416.9z"/>
			<path class="st7" d="M280.6,416.9c3.5,2.9,5.3,7.8,5.3,14.6V468h-14.5v-33c0-2.9-0.4-5-1.1-6.6c-1.4-2.8-4-4.2-7.9-4.2
				c-4.8,0-8,2-9.8,6.1c-0.9,2.2-1.4,4.9-1.4,8.3V468H237v-54.1h13.7v7.9c1.8-2.8,3.5-4.8,5.1-6c2.9-2.2,6.6-3.3,11-3.3
				C272.5,412.5,277.1,414,280.6,416.9z"/>
			<path class="st7" d="M334.4,414.9c3.8,1.7,6.9,4.4,9.4,8c2.2,3.2,3.7,7,4.3,11.2c0.4,2.5,0.5,6.1,0.5,10.8h-39.5
				c0.2,5.4,2.1,9.2,5.7,11.4c2.2,1.4,4.8,2,7.8,2c3.2,0,5.9-0.8,7.9-2.5c1.1-0.9,2.1-2.1,2.9-3.7h14.5c-0.4,3.2-2.1,6.5-5.3,9.8
				c-4.9,5.3-11.7,7.9-20.4,7.9c-7.2,0-13.6-2.2-19.1-6.7c-5.5-4.4-8.3-11.7-8.3-21.7c0-9.4,2.5-16.6,7.5-21.6
				c5-5,11.4-7.5,19.4-7.5C326.4,412.4,330.7,413.2,334.4,414.9z M313.2,427.1c-2,2.1-3.3,4.9-3.8,8.4h24.4
				c-0.3-3.8-1.5-6.6-3.8-8.6c-2.3-1.9-5.1-2.9-8.4-2.9C318.1,424,315.2,425.1,313.2,427.1z"/>
			<path class="st7" d="M388.2,433.2c-0.3-2-0.9-3.8-2-5.5c-1.6-2.2-4.1-3.3-7.4-3.3c-4.8,0-8.1,2.4-9.8,7.1
				c-0.9,2.5-1.4,5.9-1.4,10c0,4,0.5,7.2,1.4,9.6c1.7,4.5,4.9,6.8,9.6,6.8c3.3,0,5.7-0.9,7.1-2.7c1.4-1.8,2.2-4.1,2.5-7h14.5
				c-0.3,4.3-1.9,8.4-4.7,12.2c-4.4,6.2-11,9.3-19.8,9.3c-8.7,0-15.1-2.6-19.3-7.8c-4.1-5.2-6.2-11.9-6.2-20.1
				c0-9.3,2.3-16.5,6.8-21.7c4.5-5.2,10.8-7.8,18.8-7.8c6.8,0,12.4,1.5,16.7,4.6c4.3,3.1,6.9,8.4,7.7,16.2H388.2z"/>
			<path class="st7" d="M406.8,424.4v-10.1h7.6v-15.1h14v15.1h8.8v10.1h-8.8V453c0,2.2,0.3,3.6,0.8,4.2c0.6,0.5,2.3,0.8,5.2,0.8
				c0.4,0,0.9,0,1.4,0c0.5,0,1,0,1.4-0.1v10.6l-6.7,0.2c-6.7,0.2-11.3-0.9-13.7-3.5c-1.6-1.6-2.4-4.1-2.4-7.5v-33.4H406.8z"/>
		</g>
		<text transform="matrix(1 0 0 1 54.2344 528.3094)" class="st7 st35 st36">connect.linaro.org</text>
	</g>
</g>
</svg>
