<svg xmlns="http://www.w3.org/2000/svg" xmlns:xlink="http://www.w3.org/1999/xlink" viewBox="0 0 343.47 50.33"><defs><style>.cls-1{fill:none;}.cls-2{isolation:isolate;}.cls-3{clip-path:url(#clip-path);}.cls-4{fill:#738f25;}.cls-5{fill:#769226;}.cls-6{fill:#789527;}.cls-7{fill:#7b9827;}.cls-8{fill:#7d9b28;}.cls-9{fill:#809e29;}.cls-10{fill:#80a12a;}.cls-11{fill:#81a42a;}.cls-12{fill:#84a72b;}.cls-13{fill:#86a92c;}.cls-14{fill:#88ac2c;}.cls-15{fill:#8aaf2d;}.cls-16{fill:#8db22e;}.cls-17{fill:#8fb52e;}.cls-18{fill:#91b72f;}.cls-19{fill:#93ba30;}.cls-20{fill:#96bd30;}.cls-21{fill:#98c031;}.cls-22{fill:#a6c64c;}.cls-23{fill:#acc958;}.cls-24{fill:#b0cb61;}.cls-25{fill:#b3cd68;}.cls-26{fill:#b6cf6e;}.cls-27{fill:#b9d174;}.cls-28{fill:#bcd27a;}.cls-29{fill:#bed47f;}.cls-30{fill:#c0d580;}.cls-31{fill:#718c24;}.cls-32{fill:#6e8923;}.cls-33{fill:#6b8623;}.cls-34{fill:#698322;}.cls-35{fill:#668021;}.cls-36{fill:#637f20;}.cls-37{fill:#9c3;}.cls-38{fill:#93b930;}.cls-39{clip-path:url(#clip-path-2);}.cls-40{fill:#617c1f;}.cls-41{clip-path:url(#clip-path-3);}.cls-42{clip-path:url(#clip-path-4);}.cls-43{fill:#9bc331;}.cls-44{fill:url(#radial-gradient);}.cls-45{opacity:0.2;}.cls-46{fill:#fff;}.cls-47{clip-path:url(#clip-path-5);}.cls-48{clip-path:url(#clip-path-6);}.cls-49{fill:#698f23;}.cls-50{clip-path:url(#clip-path-7);}.cls-51{clip-path:url(#clip-path-8);}</style><clipPath id="clip-path"><path class="cls-1" d="M5.39,31.38l-.15-.47a5.63,5.63,0,0,1-.19-1c-.52-5.71,8-12.56,19.13-15.31a40.63,40.63,0,0,1,5.65-1,29,29,0,0,1,6.76.09l.14.48A28.47,28.47,0,0,0,30,14.09a39.13,39.13,0,0,0-5.65,1C13.23,17.81,4.67,24.66,5.19,30.37A4.76,4.76,0,0,0,5.39,31.38Z"/></clipPath><clipPath id="clip-path-2"><path class="cls-1" d="M.41,32.87.27,32.4a6.73,6.73,0,0,0,1.09,2.11,11,11,0,0,0,5,3.38l.14.47A10.84,10.84,0,0,1,1.5,35,6.63,6.63,0,0,1,.41,32.87Z"/></clipPath><clipPath id="clip-path-3"><path class="cls-1" d="M45,19l.14.48a4.93,4.93,0,0,0-.83-1.63,8.4,8.4,0,0,0-3.83-2.68l-.14-.48a8.47,8.47,0,0,1,3.83,2.69A5.41,5.41,0,0,1,45,19Z"/></clipPath><clipPath id="clip-path-4"><path class="cls-1" d="M50.1,18l.26,1.41c.65,7.13-10,15.51-23.91,18.94a48.48,48.48,0,0,1-6.89,1.21,35.62,35.62,0,0,1-9.32-.2l-.14-.48a34.78,34.78,0,0,0,9.32.2,48.9,48.9,0,0,0,6.89-1.2"/></clipPath><radialGradient id="radial-gradient" cx="-1196.36" cy="2691.17" r="5.76" gradientTransform="translate(956.54 -2768.36) rotate(-5.53)" gradientUnits="userSpaceOnUse"><stop offset="0" stop-color="#698f23" stop-opacity="0"/><stop offset="0.13" stop-color="#698f23" stop-opacity="0.03"/><stop offset="0.26" stop-color="#698f23" stop-opacity="0.11"/><stop offset="0.39" stop-color="#698f23" stop-opacity="0.25"/><stop offset="0.52" stop-color="#698f23" stop-opacity="0.44"/><stop offset="0.64" stop-color="#698f23" stop-opacity="0.69"/><stop offset="0.77" stop-color="#698f23" stop-opacity="0.99"/><stop offset="0.77" stop-color="#698f23"/></radialGradient><clipPath id="clip-path-5"><path class="cls-1" d="M31.51,44.94l-.47.15a5.47,5.47,0,0,1-1,.2c-5.7.55-12.6-8-15.41-19a39.1,39.1,0,0,1-1-5.65,28.61,28.61,0,0,1,.05-6.76l.48-.14a28.57,28.57,0,0,0-.06,6.76,37.73,37.73,0,0,0,1,5.64c2.8,11.08,9.7,19.6,15.41,19.05A4.67,4.67,0,0,0,31.51,44.94Z"/></clipPath><clipPath id="clip-path-6"><path class="cls-1" d="M33,49.91l-.47.14a6.41,6.41,0,0,0,2.1-1.1,10.82,10.82,0,0,0,3.35-5l.48-.14a11,11,0,0,1-3.35,5A7,7,0,0,1,33,49.91Z"/></clipPath><clipPath id="clip-path-7"><path class="cls-1" d="M18.88,5.39l.47-.15a5.22,5.22,0,0,0-1.62.84,8.37,8.37,0,0,0-2.66,3.85l-.48.14a8.49,8.49,0,0,1,2.67-3.85A5.18,5.18,0,0,1,18.88,5.39Z"/></clipPath><clipPath id="clip-path-8"><path class="cls-1" d="M17.86.3,19.27,0C26.4-.66,34.84,10,38.35,23.84a50.29,50.29,0,0,1,1.24,6.88,35.38,35.38,0,0,1-.16,9.33l-.47.14a34.91,34.91,0,0,0,.15-9.32A48.56,48.56,0,0,0,37.87,24"/></clipPath></defs><g id="map"><g class="cls-2"><g class="cls-3"><g class="cls-2"><path class="cls-4" d="M36.59,13.7l.14.48-.61-.08L36,13.62l.61.08"/><path class="cls-5" d="M36,13.62l.14.48L35.4,14l-.14-.48.72.07"/><path class="cls-6" d="M35.26,13.55l.14.48-.73,0-.14-.48.73.05"/><path class="cls-7" d="M34.53,13.5l.14.48-.72,0-.14-.47.72,0"/><path class="cls-8" d="M33.81,13.47l.14.47h-.73l-.14-.47h.73"/><path class="cls-9" d="M33.08,13.46l.14.47h-.73l-.15-.48h.74"/><path class="cls-10" d="M32.34,13.46l.15.48-.74,0-.15-.47.74,0"/><path class="cls-11" d="M31.6,13.49l.15.47L31,14l-.15-.47.74,0"/><path class="cls-12" d="M30.86,13.53,31,14l-.74.06-.14-.47.73-.06"/><path class="cls-13" d="M30.13,13.59l.14.47-.3,0-.43,0-.14-.47.43-.05.3,0"/><path class="cls-14" d="M29.4,13.66l.14.47-.71.09-.14-.48.71-.08"/><path class="cls-15" d="M28.69,13.74l.14.48c-.22,0-.45,0-.67.09L28,13.83l.68-.09"/><path class="cls-16" d="M28,13.83l.15.48-.64.1-.14-.48.63-.1"/><path class="cls-17" d="M27.38,13.93l.14.48-.59.1L26.79,14l.59-.1"/><path class="cls-18" d="M26.79,14l.14.48-.55.1-.15-.47.56-.11"/><path class="cls-19" d="M26.23,14.14l.15.47-.53.11-.14-.48.52-.1"/><path class="cls-20" d="M25.71,14.24l.14.48-.49.1-.14-.47.49-.11"/><path class="cls-21" d="M25.22,14.35l.14.47-.48.11-.14-.47.48-.11"/><path class="cls-22" d="M24.74,14.46l.14.47-.46.11-.15-.47.47-.11"/><path class="cls-23" d="M24.27,14.57l.15.47-.1,0-.38.1-.14-.47.38-.1.09,0"/><path class="cls-24" d="M23.8,14.69l.14.47-.47.13-.15-.48.48-.12"/><path class="cls-25" d="M23.32,14.81l.15.48-.48.13-.14-.48.47-.13"/><path class="cls-26" d="M22.85,14.94l.14.48-.5.14-.15-.47.51-.15"/><path class="cls-27" d="M22.34,15.09l.15.47-.59.18-.15-.47.59-.18"/><path class="cls-28" d="M21.75,15.27l.15.47-.59.19-.14-.48.58-.18"/><path class="cls-29" d="M21.17,15.45l.14.48-1,.34-.15-.47,1-.35"/><path class="cls-30" d="M20.16,15.8l.15.47c-.78.28-1.54.58-2.28.89l-.14-.47c.74-.32,1.5-.62,2.27-.89"/><path class="cls-29" d="M17.89,16.69l.14.47-.74.32L17.15,17l.74-.32"/><path class="cls-28" d="M17.15,17l.14.47-.72.34-.14-.48.72-.33"/><path class="cls-27" d="M16.43,17.34l.14.48-.55.26-.14-.47.55-.27"/><path class="cls-26" d="M15.88,17.61l.14.47-.54.27-.14-.47.54-.27"/><path class="cls-25" d="M15.34,17.88l.14.47-.53.29-.15-.48.54-.28"/><path class="cls-24" d="M14.8,18.16l.15.48-.54.3-.15-.48.54-.3"/><path class="cls-23" d="M14.26,18.46l.15.48-.54.3-.14-.47.53-.31"/><path class="cls-22" d="M13.73,18.77l.14.47-.61.37-.14-.48.61-.36"/><path class="cls-21" d="M13.12,19.13l.14.48-.6.37-.14-.47.6-.38"/><path class="cls-20" d="M12.52,19.51l.14.47-.67.46L11.84,20l.68-.45"/><path class="cls-19" d="M11.84,20l.15.48c-.23.15-.46.31-.67.47l-.15-.47.67-.48"/><path class="cls-18" d="M11.17,20.44l.15.47-.68.51L10.5,21c.22-.18.44-.35.67-.51"/><path class="cls-17" d="M10.5,21l.14.47-.64.52-.14-.48c.2-.17.42-.34.64-.51"/><path class="cls-16" d="M9.86,21.46l.14.48c-.21.17-.41.34-.6.52L9.26,22c.19-.17.39-.35.6-.52"/><path class="cls-15" d="M9.26,22l.14.48L8.87,23l-.15-.47.54-.5"/><path class="cls-14" d="M8.72,22.48l.15.47-.5.5L8.23,23l.49-.49"/><path class="cls-13" d="M8.23,23l.14.48-.44.48-.15-.48L8.23,23"/><path class="cls-12" d="M7.78,23.45l.15.48c-.14.15-.28.31-.41.47l-.14-.47.4-.48"/><path class="cls-11" d="M7.38,23.93l.14.47c-.13.15-.25.31-.37.46L7,24.39c.12-.16.24-.31.37-.46"/><path class="cls-10" d="M7,24.39l.14.47-.34.46-.14-.47c.11-.15.22-.31.34-.46"/><path class="cls-9" d="M6.67,24.85l.14.47-.3.46-.14-.47c.09-.15.2-.31.3-.46"/><path class="cls-8" d="M6.37,25.31l.14.47c-.1.16-.19.31-.27.46l-.15-.47c.09-.16.18-.31.28-.46"/><path class="cls-7" d="M6.09,25.77l.15.47c-.09.15-.17.31-.25.46l-.14-.47c.07-.16.16-.31.24-.46"/><path class="cls-6" d="M5.85,26.23,6,26.7c-.08.16-.15.31-.22.47l-.14-.47c.07-.16.14-.32.22-.47"/><path class="cls-5" d="M5.63,26.7l.14.47c-.07.16-.13.31-.19.47l-.14-.47c.06-.16.12-.32.19-.47"/><path class="cls-4" d="M5.44,27.17l.14.47c0,.17-.11.33-.15.49l-.15-.47c0-.16.1-.33.16-.49"/><path class="cls-31" d="M5.28,27.66l.15.47c0,.17-.09.33-.13.5l-.14-.48a4.37,4.37,0,0,1,.12-.49"/><path class="cls-32" d="M5.16,28.15l.14.48a5.07,5.07,0,0,0-.09.54l-.14-.48q0-.26.09-.54"/><path class="cls-33" d="M5.07,28.69l.14.48c0,.19,0,.38,0,.56L5,29.26a5.46,5.46,0,0,1,0-.57"/><path class="cls-34" d="M5,29.26l.14.47c0,.21,0,.41,0,.61l-.14-.48a4,4,0,0,1,0-.6"/><path class="cls-35" d="M5.05,29.86l.14.48v0c0,.22.06.44.1.65l-.14-.47a4.63,4.63,0,0,1-.1-.65v0"/><path class="cls-36" d="M5.15,30.55l.14.47c0,.12.06.24.1.36l-.15-.47-.09-.36"/></g></g></g><path class="cls-37" d="M40,11,36.59,13.7a29,29,0,0,0-6.76-.09,40.63,40.63,0,0,0-5.65,1C13.09,17.34,4.53,24.19,5.05,29.9a5.16,5.16,0,0,0,1.06,2.69,8.46,8.46,0,0,0,3.67,2.57L6.37,37.89a11,11,0,0,1-5-3.38A6.43,6.43,0,0,1,0,31.14C-.62,24,10.08,15.44,23.94,12A48.61,48.61,0,0,1,31,10.78,35.8,35.8,0,0,1,40,11Z"/><polygon class="cls-38" points="40 10.98 40.14 11.45 36.73 14.18 36.59 13.7 40 10.98"/><g class="cls-2"><g class="cls-39"><g class="cls-2"><path class="cls-35" d="M6.37,37.89l.14.47-.72-.28-.14-.48.72.29"/><path class="cls-36" d="M5.65,37.6l.14.48c-.45-.2-.88-.4-1.29-.63L4.36,37a14,14,0,0,0,1.29.62"/><path class="cls-40" d="M4.36,37l.14.47A9.4,9.4,0,0,1,1.5,35,6.63,6.63,0,0,1,.41,32.87L.27,32.4a6.73,6.73,0,0,0,1.09,2.11,9.4,9.4,0,0,0,3,2.47"/></g></g></g><polygon class="cls-38" points="9.78 35.16 9.92 35.64 6.51 38.36 6.37 37.89 9.78 35.16"/><g class="cls-2"><g class="cls-41"><g class="cls-2"><path class="cls-40" d="M45,19l.14.48a4.93,4.93,0,0,0-.83-1.63,7.3,7.3,0,0,0-2.44-2l-.14-.47a7.4,7.4,0,0,1,2.44,2A5.41,5.41,0,0,1,45,19"/><path class="cls-36" d="M41.74,15.29l.14.47a9.63,9.63,0,0,0-1-.49l-.15-.48a9.84,9.84,0,0,1,1,.5"/><path class="cls-35" d="M40.71,14.79l.15.48-.37-.15-.14-.48.36.15"/></g></g></g><g class="cls-2"><g class="cls-42"><g class="cls-2"><path class="cls-34" d="M50.07,17.83l.19,1c0,.32.14.92.13,1.17l-.14-.47c0-.26,0-.91-.07-1.16"/><path class="cls-33" d="M50.25,19.52l.14.47c0,.23,0,.47,0,.7l-.15-.47c0-.24.05-.47.06-.7"/><path class="cls-32" d="M50.19,20.22l.15.47c0,.23-.07.45-.11.68l-.15-.48a5.2,5.2,0,0,0,.11-.67"/><path class="cls-31" d="M50.08,20.89l.15.48c0,.21-.1.41-.16.62l-.14-.48a6.23,6.23,0,0,0,.15-.62"/><path class="cls-4" d="M49.93,21.51l.14.48c-.06.2-.12.41-.2.61l-.14-.47c.07-.21.14-.41.2-.62"/><path class="cls-5" d="M49.73,22.13l.14.47c-.07.2-.15.4-.23.59l-.14-.47c.08-.2.16-.39.23-.59"/><path class="cls-6" d="M49.5,22.72l.14.47c-.09.2-.18.39-.28.59l-.14-.48c.1-.19.19-.39.28-.58"/><path class="cls-7" d="M49.22,23.3l.14.48q-.13.28-.3.57l-.14-.47c.1-.19.21-.38.3-.58"/><path class="cls-8" d="M48.92,23.88l.14.47c-.11.19-.22.39-.35.58l-.14-.48c.12-.19.24-.38.35-.57"/><path class="cls-9" d="M48.57,24.45l.14.48c-.12.19-.24.38-.37.57L48.19,25c.14-.19.26-.38.38-.57"/><path class="cls-10" d="M48.19,25l.15.48-.42.57-.15-.47c.15-.19.29-.38.42-.58"/><path class="cls-11" d="M47.77,25.6l.15.47c-.15.2-.31.39-.47.58l-.14-.47c.16-.19.32-.39.46-.58"/><path class="cls-12" d="M47.31,26.18l.14.47c-.16.2-.33.4-.5.59l-.15-.47c.18-.2.35-.39.51-.59"/><path class="cls-13" d="M46.8,26.77l.15.47c-.18.21-.37.41-.56.6l-.14-.47.55-.6"/><path class="cls-14" d="M46.25,27.37l.14.47-.62.62L45.63,28l.62-.62"/><path class="cls-15" d="M45.63,28l.14.47c-.21.21-.44.42-.67.62L45,28.61l.67-.62"/><path class="cls-16" d="M45,28.61l.14.47c-.24.22-.49.44-.75.65l-.14-.47c.26-.22.51-.43.75-.65"/><path class="cls-17" d="M44.21,29.26l.14.47-.79.65-.15-.48c.28-.21.54-.43.8-.64"/><path class="cls-18" d="M43.41,29.9l.15.48-.85.64-.14-.48c.28-.21.57-.42.84-.64"/><path class="cls-19" d="M42.57,30.54l.14.48c-.27.2-.55.39-.84.59l-.14-.48.84-.59"/><path class="cls-20" d="M41.73,31.13l.14.48c-.28.19-.56.38-.85.56l-.14-.47.85-.57"/><path class="cls-21" d="M40.88,31.7l.14.47-.74.47-.15-.47.75-.47"/><path class="cls-22" d="M40.13,32.17l.15.47c-.25.16-.51.31-.77.46l-.14-.47.76-.46"/><path class="cls-23" d="M39.37,32.63l.14.47-.66.38L38.7,33l.67-.38"/><path class="cls-24" d="M38.7,33l.15.47-.68.38L38,33.38,38.7,33"/><path class="cls-25" d="M38,33.38l.14.48-.67.35-.15-.47.68-.36"/><path class="cls-26" d="M37.35,33.74l.15.47-.68.34-.14-.47.67-.34"/><path class="cls-27" d="M36.68,34.08l.14.47-.68.33L36,34.41l.68-.33"/><path class="cls-28" d="M36,34.41l.14.47-.9.42-.14-.48.9-.41"/><path class="cls-29" d="M35.1,34.82l.14.48c-.3.14-.61.27-.93.4l-.14-.47.93-.41"/><path class="cls-30" d="M34.17,35.23l.14.47c-.92.4-1.87.77-2.84,1.11l-.14-.47c1-.35,1.92-.72,2.84-1.11"/><path class="cls-29" d="M31.33,36.34l.14.47c-.42.15-.83.3-1.26.43l-.14-.47,1.26-.43"/><path class="cls-28" d="M30.07,36.77l.14.47-.73.24L29.34,37l.73-.23"/><path class="cls-27" d="M29.34,37l.14.48-.73.22-.15-.47.74-.23"/><path class="cls-26" d="M28.6,37.23l.15.47-.64.18L28,37.41l.63-.18"/><path class="cls-25" d="M28,37.41l.14.47-.59.17-.14-.48.59-.16"/><path class="cls-24" d="M27.38,37.57l.14.48-.59.15-.15-.47.6-.16"/><path class="cls-23" d="M26.78,37.73l.15.47-.48.12-.12,0-.14-.47.12,0,.47-.12"/><path class="cls-22" d="M26.19,37.88l.14.47-.58.14L25.61,38l.58-.14"/><path class="cls-21" d="M25.61,38l.14.47-.6.14L25,38.15l.6-.13"/><path class="cls-20" d="M25,38.15l.14.48-.62.13-.14-.47.62-.14"/><path class="cls-19" d="M24.39,38.29l.14.47-.65.13-.14-.47.65-.13"/><path class="cls-18" d="M23.74,38.42l.14.47-.69.13-.14-.47.69-.13"/><path class="cls-17" d="M23.05,38.55l.14.47-.74.13-.14-.48.74-.12"/><path class="cls-16" d="M22.31,38.67l.14.48-.79.12-.14-.48.79-.12"/><path class="cls-15" d="M21.52,38.79l.14.48-.84.11-.14-.47c.27,0,.56-.07.84-.12"/><path class="cls-14" d="M20.68,38.91l.14.47-.89.11L19.79,39l.89-.11"/><path class="cls-13" d="M19.79,39l.14.47-.37,0-.56,0-.15-.47.57-.06.37,0"/><path class="cls-12" d="M18.85,39.11l.15.47-.92.07-.14-.47.91-.07"/><path class="cls-11" d="M17.94,39.18l.14.47-.93.05L17,39.23l.93,0"/><path class="cls-10" d="M17,39.23l.14.47c-.31,0-.61,0-.92,0l-.14-.47.92,0"/><path class="cls-9" d="M16.09,39.26l.14.47h-.91l-.15-.47h.92"/><path class="cls-8" d="M15.17,39.27l.15.47-.91,0-.15-.47.91,0"/><path class="cls-7" d="M14.26,39.25l.15.47c-.31,0-.61,0-.91,0l-.14-.48.9,0"/><path class="cls-6" d="M13.36,39.21l.14.48-.9-.07-.15-.47.91.06"/><path class="cls-5" d="M12.45,39.15l.15.47c-.31,0-.61,0-.91-.09l-.14-.47.9.09"/><path class="cls-4" d="M11.55,39.06l.14.47c-.31,0-.62-.07-.92-.12l-.14-.47.92.12"/><path class="cls-31" d="M10.63,38.94l.14.47-.53-.08-.14-.48.53.09"/></g></g></g><path class="cls-43" d="M24.69,20a5.33,5.33,0,0,0-1.39.33,5.21,5.21,0,0,0-3.21,3.87A5.12,5.12,0,0,0,20,25.67a5.18,5.18,0,0,0,5.66,4.66A5.54,5.54,0,0,0,27.12,30a5.19,5.19,0,0,0-2.43-10Z"/><path class="cls-43" d="M24.68,19.84a4.87,4.87,0,0,0-1.39.33A5.21,5.21,0,0,0,20.08,24,5.07,5.07,0,0,0,20,25.5a5.19,5.19,0,0,0,5.67,4.67,5.1,5.1,0,0,0,1.42-.35,5.18,5.18,0,0,0,3.18-3.89,4.86,4.86,0,0,0,.06-1.43A5.18,5.18,0,0,0,24.68,19.84Z"/><path class="cls-44" d="M24.68,19.84a4.87,4.87,0,0,0-1.39.33A5.21,5.21,0,0,0,20.08,24,5.07,5.07,0,0,0,20,25.5a5.19,5.19,0,0,0,5.67,4.67,5.1,5.1,0,0,0,1.42-.35,5.18,5.18,0,0,0,3.18-3.89,4.86,4.86,0,0,0,.06-1.43A5.18,5.18,0,0,0,24.68,19.84Z"/><g class="cls-45"><circle class="cls-46" cx="23.53" cy="22.88" r="1.27"/></g><circle class="cls-46" cx="22.63" cy="22.01" r="0.46"/><g class="cls-45"><circle class="cls-46" cx="25" cy="23.03" r="0.98"/></g><polygon class="cls-38" points="10.93 10.44 11.4 10.3 14.14 13.69 13.67 13.83 10.93 10.44"/><g class="cls-2"><g class="cls-47"><g class="cls-2"><path class="cls-4" d="M13.67,13.83l.48-.14c0,.2-.06.4-.08.61l-.47.14c0-.2,0-.41.07-.61"/><path class="cls-5" d="M13.6,14.44l.47-.14c0,.24-.05.48-.07.72l-.47.15c0-.25,0-.49.07-.73"/><path class="cls-6" d="M13.53,15.17,14,15c0,.24,0,.48-.05.73l-.47.14c0-.24,0-.48,0-.72"/><path class="cls-7" d="M13.48,15.89l.47-.14c0,.24,0,.48,0,.72l-.48.15,0-.73"/><path class="cls-8" d="M13.45,16.62l.48-.15c0,.24,0,.49,0,.73l-.47.15c0-.25,0-.49,0-.73"/><path class="cls-9" d="M13.45,17.35l.47-.15c0,.24,0,.49,0,.73l-.48.15v-.73"/><path class="cls-10" d="M13.45,18.08l.48-.15c0,.25,0,.49,0,.74l-.48.15,0-.74"/><path class="cls-11" d="M13.48,18.82l.48-.15c0,.25,0,.5,0,.74l-.47.15c0-.25,0-.5,0-.74"/><path class="cls-12" d="M13.53,19.56l.47-.15.06.74-.47.14c0-.24-.05-.49-.06-.73"/><path class="cls-13" d="M13.59,20.29l.47-.14,0,.3c0,.14,0,.28.05.43l-.48.14c0-.14,0-.29,0-.43l0-.3"/><path class="cls-14" d="M13.66,21l.48-.14c0,.23,0,.47.08.71l-.47.14L13.66,21"/><path class="cls-15" d="M13.75,21.73l.47-.14c0,.22.07.45.1.67l-.47.15c0-.23-.07-.45-.1-.68"/><path class="cls-16" d="M13.85,22.41l.47-.15c0,.21.07.42.1.64L14,23c0-.21-.07-.42-.1-.63"/><path class="cls-17" d="M14,23l.47-.14c0,.19.07.39.11.59l-.48.14c0-.2-.07-.39-.1-.59"/><path class="cls-18" d="M14.05,23.63l.48-.14c0,.18.07.36.1.55l-.47.14c0-.18-.07-.36-.11-.55"/><path class="cls-19" d="M14.16,24.18l.47-.14c0,.17.07.35.11.52l-.47.15c0-.18-.08-.35-.11-.53"/><path class="cls-20" d="M14.27,24.71l.47-.15c0,.17.07.33.11.5l-.47.14c0-.16-.08-.33-.11-.49"/><path class="cls-21" d="M14.38,25.2l.47-.14c0,.16.07.32.11.48l-.47.14c0-.16-.08-.32-.11-.48"/><path class="cls-22" d="M14.49,25.68l.47-.14c0,.15.07.3.11.46l-.47.14c0-.15-.08-.3-.11-.46"/><path class="cls-23" d="M14.6,26.14l.47-.14,0,.09c0,.13.06.26.1.38l-.48.15c0-.13-.06-.26-.1-.38l0-.1"/><path class="cls-24" d="M14.72,26.62l.48-.15.12.48-.47.14c0-.16-.09-.31-.13-.47"/><path class="cls-25" d="M14.85,27.09l.47-.14c0,.15.09.31.14.47l-.48.14c0-.15-.09-.31-.13-.47"/><path class="cls-26" d="M15,27.56l.48-.14a4.91,4.91,0,0,0,.15.51l-.48.14L15,27.56"/><path class="cls-27" d="M15.13,28.07l.48-.14c.05.19.12.39.18.59l-.48.14-.18-.59"/><path class="cls-28" d="M15.31,28.66l.48-.14c.06.19.12.38.19.58l-.48.14c-.06-.19-.12-.38-.19-.58"/><path class="cls-29" d="M15.5,29.24,16,29.1c.11.34.23.67.35,1l-.48.15c-.12-.33-.23-.67-.35-1"/><path class="cls-30" d="M15.85,30.25l.48-.15c.28.78.58,1.54.9,2.27l-.48.15c-.32-.74-.62-1.5-.9-2.27"/><path class="cls-29" d="M16.75,32.52l.48-.15c.1.25.21.5.32.74l-.47.15-.33-.74"/><path class="cls-28" d="M17.08,33.26l.47-.15.34.72-.47.15c-.12-.24-.23-.48-.34-.72"/><path class="cls-27" d="M17.42,34l.47-.15.27.55-.47.14L17.42,34"/><path class="cls-26" d="M17.69,34.52l.47-.14.27.53-.47.15-.27-.54"/><path class="cls-25" d="M18,35.06l.47-.15.29.54-.47.14c-.1-.17-.19-.35-.29-.53"/><path class="cls-24" d="M18.25,35.59l.47-.14L19,36l-.47.14-.3-.54"/><path class="cls-23" d="M18.55,36.13,19,36l.31.53-.48.14-.3-.53"/><path class="cls-22" d="M18.85,36.66l.48-.14c.12.21.24.41.37.61l-.47.15-.38-.62"/><path class="cls-21" d="M19.23,37.28l.47-.15c.12.2.25.4.38.59l-.48.15-.37-.59"/><path class="cls-20" d="M19.6,37.87l.48-.15.45.68-.47.15-.46-.68"/><path class="cls-19" d="M20.06,38.55l.47-.15.48.67-.47.14-.48-.66"/><path class="cls-18" d="M20.54,39.21l.47-.14c.17.23.34.45.52.67l-.48.15-.51-.68"/><path class="cls-17" d="M21.05,39.89l.48-.15c.17.22.34.43.52.64l-.48.14c-.17-.2-.35-.41-.52-.63"/><path class="cls-16" d="M21.57,40.52l.48-.14.52.6-.47.14c-.18-.19-.35-.39-.53-.6"/><path class="cls-15" d="M22.1,41.12l.47-.14c.16.18.33.36.5.53l-.48.14-.49-.53"/><path class="cls-14" d="M22.59,41.65l.48-.14.49.49-.47.14c-.17-.15-.33-.32-.5-.49"/><path class="cls-13" d="M23.09,42.14l.47-.14.49.44-.48.15-.48-.45"/><path class="cls-12" d="M23.57,42.59l.48-.15.47.41-.47.14-.48-.4"/><path class="cls-11" d="M24.05,43l.47-.14c.16.12.31.25.47.36l-.48.15L24.05,43"/><path class="cls-10" d="M24.51,43.36l.48-.15.46.34-.47.14-.47-.33"/><path class="cls-9" d="M25,43.69l.47-.14.46.3-.47.14a4.53,4.53,0,0,1-.46-.3"/><path class="cls-8" d="M25.44,44l.47-.14.46.27-.47.14a4.25,4.25,0,0,1-.46-.27"/><path class="cls-7" d="M25.9,44.26l.47-.14a5.06,5.06,0,0,0,.46.24l-.47.15-.46-.25"/><path class="cls-6" d="M26.36,44.51l.47-.15.47.22-.47.14a4,4,0,0,1-.47-.21"/><path class="cls-5" d="M26.83,44.72l.47-.14.47.18-.47.15-.47-.19"/><path class="cls-4" d="M27.3,44.91l.47-.15.5.16-.48.15-.49-.16"/><path class="cls-31" d="M27.79,45.07l.48-.15a4.37,4.37,0,0,0,.49.12l-.47.15-.5-.12"/><path class="cls-32" d="M28.29,45.19l.47-.15.54.09-.47.14-.54-.08"/><path class="cls-33" d="M28.83,45.27l.47-.14.57,0-.48.14a5.46,5.46,0,0,1-.56,0"/><path class="cls-34" d="M29.39,45.31l.48-.14.6,0-.47.14a4.1,4.1,0,0,1-.61,0"/><path class="cls-35" d="M30,45.29l.47-.14h0a4.49,4.49,0,0,0,.64-.1l-.47.14a4.64,4.64,0,0,1-.65.11h0"/><path class="cls-36" d="M30.68,45.18l.47-.14.36-.1-.47.15-.36.09"/></g></g></g><g class="cls-2"><g class="cls-48"><g class="cls-2"><path class="cls-35" d="M38,43.92l.48-.14-.28.72-.48.15c.1-.24.19-.48.28-.73"/><path class="cls-36" d="M37.73,44.65l.48-.15a14.23,14.23,0,0,1-.62,1.3l-.47.14c.22-.41.42-.84.61-1.29"/><path class="cls-40" d="M37.12,45.94l.47-.14a9.4,9.4,0,0,1-2.45,3A7,7,0,0,1,33,49.91l-.47.14a6.41,6.41,0,0,0,2.1-1.1,9.42,9.42,0,0,0,2.46-3"/></g></g></g><path class="cls-49" d="M10.93,10.44l2.74,3.39a28.61,28.61,0,0,0-.05,6.76,39.1,39.1,0,0,0,1,5.65C17.43,37.31,24.33,45.84,30,45.29a5.23,5.23,0,0,0,2.69-1.08,8.38,8.38,0,0,0,2.55-3.68L38,43.92a10.82,10.82,0,0,1-3.35,5A6.39,6.39,0,0,1,31.3,50.3C24.17,51,15.55,40.33,12,26.49a48.7,48.7,0,0,1-1.26-7.06A35.49,35.49,0,0,1,10.93,10.44Z"/><polygon class="cls-38" points="35.27 40.53 35.74 40.39 38.49 43.78 38.01 43.92 35.27 40.53"/><path class="cls-37" d="M50.22,18.71c.65,7.14-10,15.71-23.91,19.14a48.9,48.9,0,0,1-6.89,1.2,34.78,34.78,0,0,1-9.32-.2l3.4-2.72a28.86,28.86,0,0,0,7.06.1,39.62,39.62,0,0,0,5.51-1C37.16,32.52,45.72,25.67,45.2,20a5.08,5.08,0,0,0-1-2.63,8.47,8.47,0,0,0-3.83-2.69l3.4-2.72A10.88,10.88,0,0,1,49,15.43,6.43,6.43,0,0,1,50.22,18.71Z"/><g class="cls-2"><g class="cls-50"><g class="cls-2"><path class="cls-40" d="M18.88,5.39l.47-.15a5.22,5.22,0,0,0-1.62.84,7.44,7.44,0,0,0-2,2.45l-.47.15a7.34,7.34,0,0,1,2-2.46,5.18,5.18,0,0,1,1.62-.83"/><path class="cls-36" d="M15.23,8.68l.47-.15c-.17.32-.34.67-.49,1l-.47.14a9.63,9.63,0,0,1,.49-1"/><path class="cls-35" d="M14.74,9.7l.47-.14c-.05.12-.1.24-.14.37l-.48.14.15-.37"/></g></g></g><path class="cls-49" d="M18.61.18c7.13-.69,15.76,10,19.26,23.81a48.56,48.56,0,0,1,1.24,6.88A34.91,34.91,0,0,1,39,40.19l-2.74-3.38a29.07,29.07,0,0,0,.06-7.07,39.7,39.7,0,0,0-1-5.5c-2.8-11.07-9.7-19.6-15.41-19a5.06,5.06,0,0,0-2.62,1,8.49,8.49,0,0,0-2.67,3.85L11.85,6.68a10.82,10.82,0,0,1,3.48-5.21A6.29,6.29,0,0,1,18.61.18Z"/><g class="cls-2"><g class="cls-51"><g class="cls-2"><path class="cls-34" d="M17.73.33l1-.19C19,.13,19.63,0,19.89,0l-.48.15c-.25,0-.9.05-1.16.07"/><path class="cls-33" d="M19.41.15,19.89,0a5.62,5.62,0,0,1,.7.05l-.47.14c-.24,0-.47,0-.71,0"/><path class="cls-32" d="M20.12.19l.47-.14a5.65,5.65,0,0,1,.68.11L20.79.3,20.12.19"/><path class="cls-31" d="M20.79.3l.48-.14.62.15-.48.14C21.2.39,21,.34,20.79.3"/><path class="cls-4" d="M21.41.45l.48-.14c.2,0,.41.12.61.19L22,.65l-.62-.2"/><path class="cls-5" d="M22,.65,22.5.5l.59.23-.47.15L22,.65"/><path class="cls-6" d="M22.62.88l.47-.15.59.27-.47.15L22.62.88"/><path class="cls-7" d="M23.21,1.15,23.68,1l.57.31-.47.14-.57-.3"/><path class="cls-8" d="M23.78,1.45l.47-.14.58.34-.47.14-.58-.34"/><path class="cls-9" d="M24.36,1.79l.47-.14c.19.12.38.24.57.38l-.47.14-.57-.38"/><path class="cls-10" d="M24.93,2.17,25.4,2c.2.13.39.27.58.41l-.47.15c-.19-.15-.39-.29-.58-.42"/><path class="cls-11" d="M25.51,2.59,26,2.44l.58.46L26.09,3l-.58-.45"/><path class="cls-12" d="M26.09,3l.47-.14.6.5-.48.15L26.09,3"/><path class="cls-13" d="M26.68,3.55l.48-.15.6.56-.47.14-.61-.55"/><path class="cls-14" d="M27.29,4.1,27.76,4c.21.2.42.4.62.61l-.47.15-.62-.62"/><path class="cls-15" d="M27.91,4.72l.47-.15.63.67-.48.14c-.21-.23-.41-.45-.62-.66"/><path class="cls-16" d="M28.53,5.38,29,5.24l.65.74-.47.15-.66-.75"/><path class="cls-17" d="M29.19,6.13,29.66,6c.22.26.43.53.65.8l-.48.14c-.21-.27-.43-.53-.64-.79"/><path class="cls-18" d="M29.83,6.92l.48-.14c.21.27.43.55.64.84l-.47.15c-.21-.29-.43-.57-.65-.85"/><path class="cls-19" d="M30.48,7.77,31,7.62q.3.4.6.84l-.48.14c-.19-.28-.39-.56-.59-.83"/><path class="cls-20" d="M31.07,8.6l.48-.14.57.84-.47.15c-.19-.29-.38-.57-.58-.85"/><path class="cls-21" d="M31.65,9.45l.47-.15c.16.25.32.49.47.75l-.47.14-.47-.74"/><path class="cls-22" d="M32.12,10.19l.47-.14.47.76-.48.14c-.15-.25-.3-.51-.46-.76"/><path class="cls-23" d="M32.58,11l.48-.14.38.66-.47.15L32.58,11"/><path class="cls-24" d="M33,11.62l.47-.15c.13.22.25.45.38.68l-.48.14c-.12-.23-.25-.45-.37-.67"/><path class="cls-25" d="M33.34,12.29l.48-.14c.12.22.24.44.35.67L33.7,13l-.36-.67"/><path class="cls-26" d="M33.7,13l.47-.14.35.67-.48.14c-.11-.22-.22-.45-.34-.67"/><path class="cls-27" d="M34,13.63l.48-.14.33.68-.47.15c-.11-.23-.22-.46-.34-.69"/><path class="cls-28" d="M34.38,14.32l.47-.15c.15.3.29.59.42.9l-.47.14-.42-.89"/><path class="cls-29" d="M34.8,15.21l.47-.14c.14.3.28.61.41.92l-.47.15c-.13-.31-.27-.62-.41-.93"/><path class="cls-30" d="M35.21,16.14l.47-.15c.4.92.78,1.87,1.13,2.84l-.47.15c-.36-1-.73-1.92-1.13-2.84"/><path class="cls-29" d="M36.34,19l.47-.15c.15.41.29.83.44,1.26l-.48.14c-.14-.42-.28-.84-.43-1.25"/><path class="cls-28" d="M36.77,20.23l.48-.14c.08.24.16.48.23.72L37,21l-.24-.73"/><path class="cls-27" d="M37,21l.47-.15c.08.25.16.49.23.74l-.47.14c-.08-.24-.15-.49-.23-.73"/><path class="cls-26" d="M37.24,21.69l.47-.14c.06.21.13.42.19.63l-.48.15-.18-.64"/><path class="cls-25" d="M37.42,22.33l.48-.15c.05.2.11.4.16.59l-.47.15c-.05-.2-.11-.39-.17-.59"/><path class="cls-24" d="M37.59,22.92l.47-.15c.06.2.11.4.16.6l-.47.14c0-.2-.11-.39-.16-.59"/><path class="cls-23" d="M37.75,23.51l.47-.14c0,.15.09.31.13.47l0,.12-.47.14,0-.11-.12-.48"/><path class="cls-22" d="M37.9,24.1l.47-.14.15.58-.48.15c0-.2-.09-.39-.14-.59"/><path class="cls-21" d="M38,24.69l.48-.15c0,.2.09.4.14.6l-.48.14c0-.2-.09-.39-.14-.59"/><path class="cls-20" d="M38.18,25.28l.48-.14c0,.2.09.41.13.62l-.47.14c0-.2-.09-.41-.14-.62"/><path class="cls-19" d="M38.32,25.9l.47-.14c.05.21.09.43.14.65l-.48.14c0-.21-.09-.43-.13-.65"/><path class="cls-18" d="M38.45,26.55l.48-.14c0,.23.09.46.13.69l-.47.15c-.05-.23-.09-.46-.14-.7"/><path class="cls-17" d="M38.59,27.25l.47-.15c0,.25.09.49.13.74l-.47.14c0-.24-.09-.49-.13-.73"/><path class="cls-16" d="M38.72,28l.47-.14c0,.26.09.53.13.79l-.48.14L38.72,28"/><path class="cls-15" d="M38.84,28.77l.48-.14.12.84-.48.14-.12-.84"/><path class="cls-14" d="M39,29.61l.48-.14c0,.3.07.59.11.89l-.48.14c0-.29-.07-.59-.11-.89"/><path class="cls-13" d="M39.07,30.5l.48-.14c0,.12,0,.24,0,.36s0,.38,0,.57l-.47.14-.06-.56c0-.12,0-.25,0-.37"/><path class="cls-12" d="M39.17,31.43l.47-.14c0,.31.06.61.08.92l-.48.14c0-.3,0-.61-.07-.92"/><path class="cls-11" d="M39.24,32.35l.48-.14c0,.31,0,.62.05.92l-.47.15c0-.31,0-.62-.06-.93"/><path class="cls-10" d="M39.3,33.28l.47-.15c0,.31,0,.62,0,.92l-.48.15c0-.31,0-.61,0-.92"/><path class="cls-9" d="M39.33,34.2l.48-.15c0,.31,0,.62,0,.92l-.47.14c0-.3,0-.6,0-.91"/><path class="cls-8" d="M39.35,35.11l.47-.14c0,.31,0,.61,0,.91l-.47.14c0-.3,0-.6,0-.91"/><path class="cls-7" d="M39.34,36l.47-.14,0,.9-.48.15c0-.3,0-.6,0-.91"/><path class="cls-6" d="M39.3,36.93l.48-.15-.06.91-.48.14q0-.44.06-.9"/><path class="cls-5" d="M39.24,37.83l.48-.14-.09.91-.47.14c0-.3.06-.6.08-.91"/><path class="cls-4" d="M39.16,38.74l.47-.14c0,.31-.07.61-.12.91l-.47.15.12-.92"/><path class="cls-31" d="M39,39.66l.47-.15c0,.18,0,.36-.08.54l-.47.14c0-.17.06-.35.08-.53"/></g></g></g><path class="cls-46" d="M67.77,37c-1.89,0-3.42-.67-3.42-2.88V5.47h2.43V33.28c0,1,.45,1.53,1.71,1.53H86.54V37Z"/><path class="cls-46" d="M89,9V5.47h2.52V9Zm.09,4.14h2.34V37H89.05Z"/><path class="cls-46" d="M96.34,16.9c0-2.29.72-3.78,3.24-3.78h8.78c5,0,6.88,2.66,6.88,7.34V37H112.9V20.46c0-2.88-.94-5.22-4.54-5.22h-8.24c-.9,0-1.44.18-1.44,1.71V37H96.34Z"/><path class="cls-46" d="M132.66,13.12c4,0,5.71,2.21,5.71,6V33.82c0,2.12-.58,3.15-3.46,3.15h-9.18c-4.73,0-6.44-2.25-6.44-7.2s1.76-7.06,6.44-7.06H136v-4c0-1.8-.85-3.46-3.37-3.46H121.09V13.12Zm-7.56,11.7c-2.88,0-3.38,2.07-3.38,4.95s.5,5.09,3.38,5.09h9.81A1,1,0,0,0,136,33.78v-9Z"/><path class="cls-46" d="M143.23,21.31c0-5.4,2.56-8.19,8-8.19h1.62v2.12h-1.62c-4.05,0-5.62,2.11-5.62,6.61V37h-2.34Z"/><path class="cls-46" d="M177.11,25c0,8.55-3.24,12.24-11.79,12.24S153.53,33.55,153.53,25s3.24-12.15,11.79-12.15S177.11,16.45,177.11,25ZM165.32,35.13c6.75,0,9.36-2.48,9.36-10.13s-2.61-10-9.36-10S156,17.35,156,25,158.57,35.13,165.32,35.13Z"/><path class="cls-43" d="M197.49,37.17c-10.28,0-13-7.25-13-15.85s2.59-15.85,13.45-15.85h11.82V7.64H197.94c-8.15,0-10.82,5.07-10.82,13.68S189.61,35,197.53,35h12.73v2.18Z"/><path class="cls-43" d="M235.62,25.12c0,8.61-3.26,12.32-11.87,12.32s-11.86-3.71-11.86-12.32,3.26-12.22,11.86-12.22S235.62,16.52,235.62,25.12ZM223.75,35.31c6.8,0,9.42-2.49,9.42-10.19S230.55,15,223.75,15s-9.42,2.4-9.42,10.1S217,35.31,223.75,35.31Z"/><path class="cls-43" d="M239.69,17c0-2.31.73-3.8,3.26-3.8h8.83c5,0,6.93,2.67,6.93,7.38V37.17h-2.36V20.55c0-2.9-1-5.25-4.57-5.25h-8.29c-.9,0-1.45.18-1.45,1.72V37.17h-2.35Z"/><path class="cls-43" d="M263.6,17c0-2.31.72-3.8,3.26-3.8h8.83c5,0,6.93,2.67,6.93,7.38V37.17h-2.36V20.55c0-2.9-.95-5.25-4.57-5.25H267.4c-.9,0-1.45.18-1.45,1.72V37.17H263.6Z"/><path class="cls-43" d="M295,37.17c-6.61,0-8.29-5-8.29-11.82,0-8.11,2.17-12.45,10.28-12.45,5.93,0,10.32,2.35,10.32,9.14,0,2.76-.72,3.94-3.44,3.94H289.14c0,4.21.72,9.06,5.84,9.06h11.77v2.13Zm8.87-13.32a1,1,0,0,0,1-1.08v-.32c0-5.89-2.9-7.43-7.83-7.43-5.35,0-7.88,1.95-7.88,8.83Z"/><path class="cls-43" d="M320.69,37.17c-8.15,0-10.14-4.3-10.14-12,0-7.25,2-12,10.14-12h8.07V15.3h-8.07c-6.33,0-7.69,3.53-7.69,9.87C313,32,314.36,35,320.69,35h8.61v2.13Z"/><path class="cls-43" d="M341.2,37.17c-6.51,0-6.51-3.81-6.51-7.61V15.3h-3.76V13.17h3.76V5.47H337v7.7h6.43V15.3H337V30.24c0,3.76,1,4.8,4.71,4.8h1.72v2.13Z"/></g></svg>