<svg xmlns="http://www.w3.org/2000/svg" viewBox="0 0 73.5 73.5"><defs><style>.cls-1{fill:#fff;}.cls-2{fill:#9d9d9c;}.cls-3{fill:#9c3;}</style></defs><g id="upper"><rect class="cls-1" x="17.04" y="16.99" width="39.52" height="39.52"/><rect class="cls-1" x="23.89" y="69.65" width="2.47" height="3.86"/><rect class="cls-1" x="35.56" y="69.65" width="2.47" height="3.86"/><rect class="cls-1" x="47.24" y="69.65" width="2.47" height="3.86"/><rect class="cls-1" x="23.89" width="2.47" height="3.86"/><rect class="cls-1" x="35.56" width="2.47" height="3.86"/><rect class="cls-1" x="47.24" width="2.47" height="3.86"/><rect class="cls-1" y="22.09" width="3.86" height="2.47"/><rect class="cls-1" y="33.76" width="3.86" height="2.47"/><rect class="cls-1" y="45.44" width="3.86" height="2.47"/><rect class="cls-1" x="69.65" y="22.09" width="3.86" height="2.47"/><rect class="cls-1" x="69.65" y="33.76" width="3.86" height="2.47"/><rect class="cls-1" x="69.65" y="45.44" width="3.86" height="2.47"/><path class="cls-2" d="M55.27,10.31h-37a7.93,7.93,0,0,0-7.92,7.92v37a7.93,7.93,0,0,0,7.92,7.92h37a7.93,7.93,0,0,0,7.92-7.92v-37A7.93,7.93,0,0,0,55.27,10.31Zm1.24,46.2H17V17H56.51Z"/><rect class="cls-3" x="28.4" y="28.4" width="16.7" height="16.7"/></g></svg>