<svg xmlns="http://www.w3.org/2000/svg" viewBox="0 0 300 300"><defs><style>.cls-1,.cls-4{fill:#fff;}.cls-1,.cls-2,.cls-3{stroke:#fff;stroke-miterlimit:10;}.cls-1{stroke-width:7px;}.cls-2{fill:#1d1d1b;stroke-width:6.47px;}.cls-3{fill:none;stroke-width:1.81px;}.cls-4{font-size:19.64px;font-family:MyriadPro-Bold, Myriad Pro;font-weight:700;}</style></defs><title>CORE ENG</title><g id="shadow"><path class="cls-1" d="M233.59,150a6.65,6.65,0,0,0-6.65-6.65V129.08a6.65,6.65,0,1,0,0-13.29V86.21a13.18,13.18,0,0,0-13.15-13.15H184.21a6.65,6.65,0,1,0-13.29,0H156.65a6.65,6.65,0,0,0-13.3,0H129.08a6.65,6.65,0,1,0-13.29,0H86.21A13.18,13.18,0,0,0,73.06,86.21v29.58a6.65,6.65,0,1,0,0,13.29v14.27a6.65,6.65,0,0,0,0,13.3v14.27a6.65,6.65,0,1,0,0,13.29v29.58a13.18,13.18,0,0,0,13.15,13.15h29.58a6.65,6.65,0,1,0,13.29,0h14.27a6.65,6.65,0,0,0,13.3,0h14.27a6.65,6.65,0,1,0,13.29,0h29.58a13.18,13.18,0,0,0,13.15-13.15V184.21a6.65,6.65,0,1,0,0-13.29V156.65A6.65,6.65,0,0,0,233.59,150Z"/></g><g id="icons"><path class="cls-2" d="M233.59,150a6.65,6.65,0,0,0-6.65-6.65V129.08a6.65,6.65,0,1,0,0-13.29V86.21a13.18,13.18,0,0,0-13.15-13.15H184.21a6.65,6.65,0,1,0-13.29,0H156.65a6.65,6.65,0,0,0-13.3,0H129.08a6.65,6.65,0,1,0-13.29,0H86.21A13.18,13.18,0,0,0,73.06,86.21v29.58a6.65,6.65,0,1,0,0,13.29v14.27a6.65,6.65,0,0,0,0,13.3v14.27a6.65,6.65,0,1,0,0,13.29v29.58a13.18,13.18,0,0,0,13.15,13.15h29.58a6.65,6.65,0,1,0,13.29,0h14.27a6.65,6.65,0,0,0,13.3,0h14.27a6.65,6.65,0,1,0,13.29,0h29.58a13.18,13.18,0,0,0,13.15-13.15V184.21a6.65,6.65,0,1,0,0-13.29V156.65A6.65,6.65,0,0,0,233.59,150Z"/><path class="cls-3" d="M106.9,114.14q-3.12,0-4.88,4.27t-1.75,11.77q0,15.6,7.12,15.6a9.4,9.4,0,0,0,4.17-1,34.63,34.63,0,0,0,4-2.4v12.34a15.09,15.09,0,0,1-9.18,3q-7.34,0-11.25-7.09t-3.91-20.51a51.9,51.9,0,0,1,1.89-14.75,22,22,0,0,1,5.46-9.77,11.68,11.68,0,0,1,8.37-3.42,16,16,0,0,1,10,3.8l-2.68,11.5a24.66,24.66,0,0,0-3.59-2.37A8.09,8.09,0,0,0,106.9,114.14Z"/><path class="cls-3" d="M151.64,129.88q0,13.65-4,20.74t-11.75,7.09q-7.62,0-11.7-7.13t-4.06-20.77q0-13.49,4-20.6t11.77-7.12q7.72,0,11.73,7.06T151.64,129.88Zm-22.31,0q0,15.68,6.54,15.67c2.22,0,3.86-1.26,4.94-3.8s1.6-6.49,1.6-11.87-.54-9.38-1.63-11.95-2.71-3.86-4.86-3.86Q129.34,114.07,129.33,129.88Z"/><path class="cls-3" d="M165.93,137.31V157h-8.75v-54H167.8q13.22,0,13.21,16,0,9.39-5.5,14.52L185,157H175l-6.88-19.66Zm0-11h1.65q4.59,0,4.59-6.77c0-3.72-1.51-5.58-4.51-5.58h-1.73Z"/><path class="cls-3" d="M208.73,157H188.22v-54h20.51V114H197v9.13h11v11.71H197V145.7h11.75Z"/><text class="cls-4" transform="translate(90.3 197.98)">ENGINEERING</text></g></svg>