<svg xmlns="http://www.w3.org/2000/svg" viewBox="0 0 80.8 68.47"><g id="map"><rect x="30.71" y="59" width="1.86" height="2.9"/><rect x="39.5" y="59" width="1.86" height="2.9"/><rect x="48.29" y="59" width="1.86" height="2.9"/><rect x="30.71" y="6.56" width="1.86" height="2.9"/><rect x="39.5" y="6.56" width="1.86" height="2.9"/><rect x="48.29" y="6.56" width="1.86" height="2.9"/><rect x="12.72" y="23.19" width="2.9" height="1.86"/><rect x="12.72" y="31.98" width="2.9" height="1.86"/><rect x="12.72" y="40.77" width="2.9" height="1.86"/><rect x="65.17" y="23.19" width="2.9" height="1.86"/><rect x="65.17" y="31.98" width="2.9" height="1.86"/><rect x="65.17" y="40.77" width="2.9" height="1.86"/><path d="M54.34,14.33H26.45a6,6,0,0,0-6,6V48.18a6,6,0,0,0,6,6H54.34a6,6,0,0,0,6-6V20.29A6,6,0,0,0,54.34,14.33Zm.94,34.78H25.52V19.36H55.28Z"/><rect x="34.11" y="27.95" width="12.58" height="12.58"/></g></svg>