<svg xmlns="http://www.w3.org/2000/svg" viewBox="0 0 62.82 62.81"><defs><style>.cls-1{fill:#1d1d1b;stroke-width:2.32px;}.cls-1,.cls-2{stroke:#fff;stroke-miterlimit:10;}.cls-2{fill:none;stroke-width:0.58px;}</style></defs><title>chip CORE</title><g id="icons"><path class="cls-1" d="M61.37,31.32A2.38,2.38,0,0,0,59,28.94V23.82a2.38,2.38,0,0,0,0-4.76V8.45a4.73,4.73,0,0,0-4.72-4.71H43.67a2.39,2.39,0,0,0-4.77,0H33.79a2.39,2.39,0,0,0-4.77,0H23.91a2.39,2.39,0,0,0-4.77,0H8.54A4.72,4.72,0,0,0,3.83,8.45V19.06a2.38,2.38,0,1,0,0,4.76v5.12a2.38,2.38,0,1,0,0,4.76v5.12a2.38,2.38,0,1,0,0,4.76V54.19A4.72,4.72,0,0,0,8.54,58.9h10.6a2.39,2.39,0,0,0,4.77,0H29a2.39,2.39,0,0,0,4.77,0H38.9a2.39,2.39,0,0,0,4.77,0h10.6A4.73,4.73,0,0,0,59,54.19V43.58a2.38,2.38,0,0,0,0-4.76V33.7A2.39,2.39,0,0,0,61.37,31.32Z"/><path class="cls-2" d="M17.23,25.93c-.66,0-1.18.46-1.56,1.37a10.23,10.23,0,0,0-.56,3.76q0,5,2.28,5a3,3,0,0,0,1.33-.32A10.53,10.53,0,0,0,20,35v3.95a4.87,4.87,0,0,1-2.94,1,3.91,3.91,0,0,1-3.59-2.26A13.79,13.79,0,0,1,12.24,31a16.76,16.76,0,0,1,.6-4.72,7.08,7.08,0,0,1,1.75-3.12,3.71,3.71,0,0,1,2.67-1.09,5.09,5.09,0,0,1,3.21,1.21L19.61,27a8.36,8.36,0,0,0-1.14-.76A2.68,2.68,0,0,0,17.23,25.93Z"/><path class="cls-2" d="M31.54,31a13.7,13.7,0,0,1-1.29,6.63,4.22,4.22,0,0,1-7.49,0,13.58,13.58,0,0,1-1.31-6.64,13.53,13.53,0,0,1,1.3-6.58,4.24,4.24,0,0,1,7.51,0A13.73,13.73,0,0,1,31.54,31ZM24.4,31q0,5,2.1,5a1.68,1.68,0,0,0,1.57-1.22A10.21,10.21,0,0,0,28.59,31a10.67,10.67,0,0,0-.52-3.83,1.69,1.69,0,0,0-1.56-1.23C25.11,25.91,24.4,27.6,24.4,31Z"/><path class="cls-2" d="M36.11,33.34v6.29h-2.8V22.35H36.7c2.82,0,4.23,1.71,4.23,5.11a6,6,0,0,1-1.76,4.64l3,7.53H39l-2.19-6.29Zm0-3.51h.52q1.47,0,1.47-2.16c0-1.19-.48-1.78-1.44-1.78h-.55Z"/><path class="cls-2" d="M49.79,39.63H43.23V22.35h6.56V25.9H46v2.92h3.51v3.74H46V36h3.76Z"/></g></svg>