<?xml version="1.0" encoding="UTF-8"?>
<svg id="icons" xmlns="http://www.w3.org/2000/svg" viewBox="0 0 70 70">
  <defs>
    <style>
      .cls-1 {
        stroke: #0cb2dd;
        stroke-width: 6px;
      }

      .cls-1, .cls-2 {
        fill: none;
        stroke-miterlimit: 10;
      }

      .cls-2 {
        opacity: .1;
        stroke: #000;
        stroke-width: 5px;
      }

      .cls-3 {
        stroke-width: 0px;
      }
    </style>
  </defs>
  <g>
    <path class="cls-3" d="M25.13,50c-.43,0-.81-.31-.89-.73l-.51-2.37s-.07-.13-.12-.15l-1.55-.9c-.07-.05-.17-.06-.22-.05l-2.32.75c-.4.14-.85-.04-1.07-.41l-1.38-2.39c-.22-.37-.14-.85.19-1.14l1.8-1.62s.07-.13.07-.17v-1.8c0-.08-.04-.18-.07-.21l-1.81-1.63c-.32-.27-.4-.76-.18-1.14l1.37-2.38c.21-.37.68-.55,1.08-.4l2.31.75s.15,0,.18-.03l1.55-.9c.07-.04.14-.12.15-.16l.51-2.38c.08-.41.46-.73.89-.73h2.74c.43,0,.81.31.89.73l.51,2.37s.07.13.12.15l1.55.9c.07.05.17.06.22.05l2.32-.75c.39-.14.85.04,1.07.41l1.38,2.38c.21.37.14.85-.18,1.14l-1.81,1.63s-.07.13-.07.17v1.8c0,.08.04.18.07.21l1.81,1.63c.32.27.4.76.18,1.14l-1.37,2.38c-.21.37-.68.55-1.08.41l-2.31-.75s-.15,0-.18.03l-1.55.9c-.07.04-.14.12-.15.16l-.51,2.38c-.08.41-.46.73-.89.73h-2.74ZM21.89,44.82c.25,0,.51.07.7.21l1.48.85c.27.13.55.48.62.82l.51,2.37,2.68-.05.45-2.33c.06-.34.35-.68.65-.83l1.48-.86c.25-.17.69-.24,1.02-.13l2.31.75,1.3-2.34-1.8-1.55c-.25-.22-.42-.64-.39-.98v-1.72c-.03-.3.14-.72.39-.95l1.76-1.59-1.35-2.34-2.24.78c-.32.11-.76.05-1.05-.15l-1.48-.85c-.27-.13-.55-.48-.62-.82l-.51-2.37-2.68.05-.45,2.33c-.06.34-.35.68-.65.83l-1.48.86c-.25.17-.69.24-1.02.13l-2.31-.75-1.3,2.34,1.8,1.55c.25.23.42.64.39.98v1.72c.04.3-.14.72-.39.95l-1.8,1.62,1.39,2.31,2.24-.78c.11-.04.23-.05.35-.05h0ZM26.5,43.92c-.41,0-.83-.06-1.22-.19-.5-.15-.95-.41-1.36-.75s-.74-.75-.98-1.23c-.24-.46-.39-.98-.43-1.51-.05-.52.02-1.06.17-1.55.16-.5.42-.96.75-1.36.35-.41.75-.74,1.22-.97s.98-.39,1.51-.44,1.06.02,1.55.17,1,.5,1.05.54c.17.12.43.34.58.49.05.05.47.49.71.95.24.46.39.98.44,1.51s-.02,1.06-.17,1.55c-.15.5-.42.95-.75,1.36-.35.41-.75.74-1.22.98-.46.24-.98.39-1.51.44-.11,0-.23.02-.34.02h0ZM26.5,36.88c-.08,0-.17,0-.25,0-.4.04-.79.15-1.14.33-.35.18-.66.43-.93.74-.26.31-.45.65-.57,1.04-.12.37-.16.78-.13,1.18.04.4.15.79.33,1.14.18.35.43.66.74.93.31.25.65.45,1.04.57.37.12.78.16,1.17.13s.79-.15,1.14-.33c.35-.18.66-.43.93-.74s.45-.65.57-1.04c.12-.37.16-.78.13-1.17h0c-.04-.4-.15-.79-.33-1.14-.15-.28-.44-.62-.55-.72-.11-.11-.31-.28-.44-.36-.12-.08-.49-.32-.8-.41-.29-.09-.61-.15-.93-.15h.02Z"/>
    <path class="cls-3" d="M40.57,38.54c-.15,0-.29-.04-.42-.11l-2.11-1.22c-.35-.2-.52-.65-.38-1.02l.81-2.19s0-.06-.02-.09l-.77-1.34c-.03-.05-.07-.09-.1-.1l-2.27-.38c-.41-.08-.71-.45-.71-.85v-2.44c0-.4.3-.76.69-.85l2.31-.39s.05-.04.06-.06l.77-1.35c.03-.05.04-.11.04-.14l-.8-2.16c-.14-.39.03-.84.38-1.04l2.11-1.22c.35-.2.81-.13,1.07.18l1.49,1.8s.06.03.08.03h1.55c.06,0,.12-.02.14-.04l1.47-1.77c.27-.31.74-.39,1.08-.19l2.11,1.22c.35.2.52.64.38,1.02l-.81,2.19s0,.06.02.09l.77,1.35c.03.05.07.09.1.1l2.27.38c.41.08.71.45.71.85v2.44c0,.4-.3.76-.69.85h-.02l-2.29.39s-.05.04-.06.06l-.77,1.35c-.03.05-.04.11-.04.14l.8,2.16c.14.39-.03.84-.38,1.04l-2.12,1.22c-.35.2-.82.13-1.08-.18l-1.49-1.8s-.06-.03-.08-.03h-1.55c-.06,0-.11.02-.14.04l-1.47,1.77c-.17.2-.42.3-.66.3h.02ZM40.64,37.59h0ZM38.61,36.42l1.94,1.12,1.42-1.71c.22-.25.58-.4.91-.37h1.47c.28-.03.65.12.86.36l1.43,1.72,1.94-1.13-.77-2.08c-.11-.32-.05-.71.13-.98l.74-1.27c.12-.25.44-.5.75-.56l2.2-.37v-2.25l-2.19-.36c-.33-.06-.65-.31-.78-.6l-.74-1.27c-.16-.23-.22-.63-.12-.93l.77-2.09-1.94-1.12-1.42,1.71c-.23.25-.61.4-.92.37h-1.47c-.27.03-.65-.12-.86-.36l-1.42-1.72-1.94,1.13.77,2.08c.11.32.05.72-.14.98l-.73,1.27c-.12.25-.44.51-.75.56l-2.2.37v2.25l2.19.36c.33.06.65.31.78.61l.74,1.27c.16.23.22.63.12.93l-.77,2.09h0ZM40.64,22.47h0ZM43.59,33.54h-.15c-.45-.02-.92-.14-1.34-.33-.42-.19-.8-.47-1.11-.82-.31-.34-.55-.74-.71-1.17-.15-.45-.23-.9-.21-1.35s.14-.92.33-1.34c.19-.42.47-.8.82-1.11s.74-.55,1.17-.71c.45-.15.89-.23,1.35-.21.45.02.92.14,1.34.33.42.2.8.48,1.11.82s.54.82.56.87c.08.17.18.45.23.63.02.05.15.58.12,1.04-.02.45-.14.92-.33,1.34h0c-.2.42-.48.8-.82,1.11-.34.31-.74.55-1.17.71-.39.14-.79.21-1.2.21h0ZM43.59,27.47c-.29,0-.58.05-.86.15-.32.12-.6.29-.85.51-.25.22-.45.5-.59.8s-.23.64-.24.96c-.02.33.04.66.15.98s.29.6.51.85c.23.25.5.45.8.59.3.15.64.23.96.24s.66-.04.98-.15c.32-.12.61-.29.85-.51s.45-.5.59-.8.23-.64.24-.96c0-.26-.06-.63-.09-.75-.04-.13-.11-.33-.16-.45-.05-.11-.23-.45-.41-.64-.22-.25-.5-.45-.8-.59s-.64-.23-.96-.24c-.04,0-.08,0-.12,0Z"/>
  </g>
  <circle class="cls-2" cx="35" cy="35" r="30.42"/>
  <circle class="cls-1" cx="35" cy="35" r="25.16"/>
</svg>