<?xml version="1.0" encoding="utf-8"?>
<!-- Generator: Adobe Illustrator 25.2.3, SVG Export Plug-In . SVG Version: 6.00 Build 0)  -->
<svg version="1.1" id="Layer_1" xmlns="http://www.w3.org/2000/svg" xmlns:xlink="http://www.w3.org/1999/xlink" x="0px" y="0px"
	 viewBox="0 0 365.1 79.8" style="enable-background:new 0 0 365.1 79.8;" xml:space="preserve">
<style type="text/css">
	.st0{enable-background:new    ;}
	.st1{fill:#FFFFFF;}
</style>
<g id="map">
	<g class="st0">
		<path class="st1" d="M20.4,16.5c1.2-2.9,2.7-5.6,5.9-5.6c3.1,0,4.7,2.8,5.9,5.6l20.4,48.3h-4.4l-6.5-15.6h-31L4.4,64.8H0
			L20.4,16.5z M12.5,45.6h27.8L28.6,17.7c-0.5-1.1-1.1-3-2.2-3c-1.1,0-1.7,1.9-2.2,3L12.5,45.6z"/>
	</g>
	<g class="st0">
		<path class="st1" d="M60.8,77.8h-4V30.2c0-4.6,3.1-5.8,6.4-5.8h10.3c13,0,16.5,7.2,16.5,20.1s-3.6,20.3-16.5,20.3H60.8V77.8z
			 M60.8,61.2h12.7c10.7,0,12.4-6.8,12.4-16.7S84.3,28,73.6,28H63.3c-1.6,0-2.4,0.5-2.4,2.7V61.2z"/>
		<path class="st1" d="M97,38.3c0-9.2,4.3-13.9,13.5-13.9h2.7V28h-2.7c-6.9,0-9.5,3.6-9.5,11.2v25.6h-4V38.3z"/>
		<path class="st1" d="M117.3,17.4v-5.9h4.3v5.9H117.3z M117.5,24.4h4v40.4h-4V24.4z"/>
		<path class="st1" d="M129.8,11.4h4v53.4h-4V11.4z"/>
		<path class="st1" d="M159.5,61.1c0-1.4,0.3-2.7,2.1-4.2l26.6-21c3-2.4,4-4.7,4-10.3s-0.1-10.5-7.5-10.5h-21.2v-3.7h20.8
			c9.1,0,12.2,4,12.2,14c0,6.2-1,9.7-6,13.6l-25.8,20.4c-0.7,0.5-1,0.8-1,1.1c0,0.6,0.5,0.6,0.8,0.6h29v3.7h-30
			C159.6,64.8,159.5,62.3,159.5,61.1z"/>
		<path class="st1" d="M226,33.1c9.6,0,14,5.2,14,15.8c0,10.3-3.7,15.9-14.3,15.9h-7.8c-9.1,0-13.7-4.3-13.7-14.6V25.1
			c0-7.8,4.4-13.6,12-13.6h21.2v3.7H217c-5.3,0-8.8,3.7-8.8,9.7v8.3H226z M208.2,51.2c0,6.8,2.8,10,9.5,10h7.9
			c7.9,0,10.1-4.4,10.1-12.9c0-7.6-2.6-11.5-10.7-11.5h-16.8V51.2z"/>
		<path class="st1" d="M247.6,41.9h22.9v3.8h-22.9V41.9z"/>
		<path class="st1" d="M278.1,61.1c0-1.4,0.3-2.7,2.1-4.2l26.6-21c3-2.4,4-4.7,4-10.3s-0.1-10.5-7.5-10.5H282v-3.7h20.8
			c9.1,0,12.2,4,12.2,14c0,6.2-1,9.7-6,13.6l-25.8,20.4c-0.7,0.5-1,0.8-1,1.1c0,0.6,0.5,0.6,0.8,0.6h29v3.7h-30
			C278.1,64.8,278.1,62.3,278.1,61.1z"/>
		<path class="st1" d="M346.8,11.4c10.7,0,13.3,4.7,13.3,14.6c0,6.1-1.5,10.3-6.6,11.6V38c6.6,0.7,7.8,7,7.8,13.9
			c0,8.4-3.5,13-12.7,13h-13.3c-9.2,0-12.7-4.6-12.7-13c0-6.9,1.1-12.7,7.8-13.9v-0.3c-5.2-1.3-6.6-5.5-6.6-11.6
			c0-9.9,2.7-14.6,13.3-14.6H346.8z M348.6,61.1c6.9,0,8.4-4,8.4-10.1c0-7.6-1.8-11.4-9.5-11.4h-11.1c-7.6,0-9.5,3.8-9.5,11.4
			c0,6.1,1.5,10.1,8.4,10.1H348.6z M347.4,36c6.6,0,8.5-3.7,8.5-9.8c0-7.6-1.5-11.1-9.3-11.1h-9.1c-7.8,0-9.3,3.5-9.3,11.1
			c0,6.1,1.2,9.8,8.5,9.8H347.4z"/>
	</g>
</g>
</svg>
