<svg id="DSKernels" data-name="Layer 1" xmlns="http://www.w3.org/2000/svg" xmlns:xlink="http://www.w3.org/1999/xlink" viewBox="0 0 50 50"><defs><style>.cls-1,.cls-5{fill:none;}.cls-2{clip-path:url(#clip-path);}.cls-3{fill:#fff;}.cls-4{fill:#020204;}.cls-5{stroke:#000;stroke-miterlimit:10;stroke-width:0.75px;}</style><clipPath id="clip-path"><circle class="cls-1" cx="25" cy="25" r="15"/></clipPath></defs><title>DeveloperServices-icons</title><g class="cls-2"><g id="g1768"><path id="path4529" class="cls-3" d="M22.12,16.39l7,.72,2.61,9.12,5.65,10.28,1.88,8.54,1.38.45.7,1.6.14,1.18,1.14,1.23,1.52,1.15.69,1.16-.56,1.1-5.81,3.6-2.33,2.06-3,.23-2.19-1.29-.67-2.46-9.39.72-.79,2-2.14,1.14-2.6-.38L12.8,57.39l-3.38-.74L6.08,55.56l-.63-1L5.8,53.3l.6-1.78-.15-2.62,0-1.38.46-.73,1.32-.4,1.15,0,.79-.26,1.1-1.55.64-.76,4.67-11.65,3.1-3.88L19,21.88,19.2,18Z"/><path id="path1726" class="cls-4" d="M25,12.68a6.62,6.62,0,0,0-3.2.74,5.76,5.76,0,0,0-2.41,2.51,8.43,8.43,0,0,0-.76,3.42c0,1.15,0,2.31.11,3.46s.11,2.4.12,3.6a6.56,6.56,0,0,1,.08,1.16c0,.2,0,.39,0,.59v0a7.69,7.69,0,0,1-.54,1.06l-1.19,1.49L15.83,32.4a10.14,10.14,0,0,0-1.46,2.15,16.36,16.36,0,0,0-.66,2.14,16.19,16.19,0,0,1-.92,2.37c-.33.71-.7,1.4-1.07,2.09a5.25,5.25,0,0,0-.63,1.58,3.24,3.24,0,0,0,.08,1.34l0,.05-.19.2a4.8,4.8,0,0,0-.49.74,6.26,6.26,0,0,1-.37.6,1.28,1.28,0,0,1-.37.36,1.32,1.32,0,0,1-.53.14c-.22,0-.47,0-.76,0a4.12,4.12,0,0,0-1,.06A1.95,1.95,0,0,0,5.9,47.84a3.94,3.94,0,0,0,0,1c0,.7.15,1.35.18,2a4,4,0,0,1-.21,1.69c-.12.3-.35.65-.52,1.12a2.42,2.42,0,0,0-.16.79,1.72,1.72,0,0,0,.23.91,1.87,1.87,0,0,0,.88.75,5.25,5.25,0,0,0,.85.27c.54.15,1.1.35,1.69.52,1.93.58,3.86.8,5.56,1.47a8.56,8.56,0,0,0,2.9.9,3.74,3.74,0,0,0,2-.52,3.86,3.86,0,0,0,1.44-1.53,3.93,3.93,0,0,0,.38-1.11,10.21,10.21,0,0,1,1.67-.2l.52,0a9.78,9.78,0,0,0,1.45.05h.18l.38,0c.85,0,1.7.13,2.54.26s1.48.26,2.2.43l.33.08a2.77,2.77,0,0,0,.37,1,3.22,3.22,0,0,0,1.52,1.2,4.74,4.74,0,0,0,2.56.38,4.57,4.57,0,0,0,2-.82,13.46,13.46,0,0,0,1.44-1.29,11.15,11.15,0,0,1,1.6-1.27,30.67,30.67,0,0,1,2.81-1.46,5.25,5.25,0,0,0,1.73-1.23,3.23,3.23,0,0,0,.54-.9l0-.09A1.64,1.64,0,0,0,44.79,51a2,2,0,0,0-.54-.6c-.19-.15-.36-.25-.5-.35-.3-.2-.6-.45-.91-.71a6.52,6.52,0,0,1-.81-.75,1.81,1.81,0,0,1-.41-.79c0-.16,0-.38-.06-.67a3.44,3.44,0,0,0-.22-1,2,2,0,0,0-.43-.68A2.09,2.09,0,0,0,40,45h0a5.21,5.21,0,0,0,.43-1.3,9.07,9.07,0,0,0-.08-3.22,21.67,21.67,0,0,0-1.22-4.23,12.12,12.12,0,0,0-1.51-2.86c-.64-.85-1.44-1.56-2.06-2.41-.33-.45-.61-.94-.95-1.38l-.41-.86c-.41-.9-.78-1.81-1.27-2.67l-.24-.39c-.06-.82-.15-1.64-.19-2.46a23.14,23.14,0,0,0-.41-4.91,8,8,0,0,0-1-2.19A7.52,7.52,0,0,0,29.2,14,7.36,7.36,0,0,0,25,12.68Zm2.55,5.52a.93.93,0,0,1,.5.16,2.26,2.26,0,0,1,.89,1.13c0,.12.1.33,0,.39a3.18,3.18,0,0,0-1.06-1.26,2.31,2.31,0,0,0-.79-.34c0-.09.16-.08.25-.08ZM21,18.56a1.54,1.54,0,0,1,.58.13,3.09,3.09,0,0,1,.6.36.83.83,0,0,1,.2.19,1.82,1.82,0,0,1,.27.75,2.68,2.68,0,0,0-.73-.94,2.46,2.46,0,0,0-.57-.36,1.57,1.57,0,0,0-.48-.12H21Zm5.82.64.21,0a2,2,0,0,1,.79.3,2.59,2.59,0,0,1,1,1.34A4,4,0,0,1,29,22.4a3.27,3.27,0,0,1-.27,1.19,2.09,2.09,0,0,1-.32.49A4,4,0,0,0,27.9,24c-.21-.05-.43-.12-.63-.19a1.13,1.13,0,0,0,.27-.14,1.27,1.27,0,0,0,.39-.44,1.65,1.65,0,0,0,.18-.56,1.74,1.74,0,0,0-.17-1,1.43,1.43,0,0,0-.76-.69,1.13,1.13,0,0,0-.33-.07h-.11a1,1,0,0,0-.46.15,1.2,1.2,0,0,0-.35.34,1.74,1.74,0,0,0-.28.92,1.93,1.93,0,0,0,.1.72l.07.16-.37-.2L25,22.72l-.11-.24a2.15,2.15,0,0,0-.23-.38,2.6,2.6,0,0,1,.07-1.35,2.52,2.52,0,0,1,1-1.2,2.1,2.1,0,0,1,.42-.23A1.65,1.65,0,0,1,26.79,19.2Zm-5.92.34a1.22,1.22,0,0,1,.6.13A1.82,1.82,0,0,1,22,20a2.84,2.84,0,0,1,.64,1.09,4.13,4.13,0,0,1,.19,1.15l-.24.34h0a4.31,4.31,0,0,0-.5.21,2.18,2.18,0,0,0-.09-.89,1.6,1.6,0,0,0-.47-.76.93.93,0,0,0-.38-.2.71.71,0,0,0-.21,0,.61.61,0,0,0-.21.05.73.73,0,0,0-.33.33,1.52,1.52,0,0,0-.14.46,2.08,2.08,0,0,0,.06,1,1.74,1.74,0,0,0,.37.59,1.37,1.37,0,0,0,.25.22l-.24.25h0l-.4.35a1.93,1.93,0,0,1-.38-.6,4.83,4.83,0,0,1-.26-1.47,4.21,4.21,0,0,1,.1-1.64,1.67,1.67,0,0,1,.43-.7A1.2,1.2,0,0,1,20.87,19.55ZM27,21.23h.07a.73.73,0,0,1,.49.32.79.79,0,0,1,.16.68.12.12,0,0,1-.15.06c-.16-.07-.13-.36-.24-.51a.77.77,0,0,0-.22-.17c-.08,0-.19,0-.25-.11a.2.2,0,0,1,0-.18A.2.2,0,0,1,27,21.23Zm-5.77.12.12,0a.71.71,0,0,1,.33.41c.06.19.09.46-.05.59a.12.12,0,0,1-.15,0c-.12-.11,0-.33-.06-.48a.73.73,0,0,0-.14-.21c-.05-.07-.15-.09-.18-.17a.16.16,0,0,1,0-.16A.14.14,0,0,1,21.24,21.35Zm2.58,1.31a2.82,2.82,0,0,1,.76.12l.2.07h0l.06,0h0l.1,0h0l.29.14h0l.18.09.69.37h0l.09,0,.31.14.27.11h0a8,8,0,0,0,1.1.36l.34.09.11,0h0l.12,0a.69.69,0,0,1,.33.26l0,.08h0l0,.06,0,0h0a.77.77,0,0,1,.06.2h0a1.18,1.18,0,0,1,0,.34c0,.23-.1.45-.13.67a1.64,1.64,0,0,1-.1.52l0,.06,0,.05a.92.92,0,0,1-.33.25c-.17.08-.34.12-.52.19a12.78,12.78,0,0,0-2.1,1.38,5,5,0,0,1-1.21.53,3.71,3.71,0,0,1-1.41.16,2.39,2.39,0,0,1-1.13-.41,5.78,5.78,0,0,1-1.13-1.29,4.52,4.52,0,0,0-.55-.6l-.18-.15.09,0h0l.09.06.14.11c.13.11.25.26.42.39a2.53,2.53,0,0,0,1.57.51A6.59,6.59,0,0,0,24,27.61a9.27,9.27,0,0,0,1.18-.33,5.32,5.32,0,0,0,1.64-1,5.49,5.49,0,0,1,.61-.51l.24-.13h0l.06,0,.06,0,.09,0,.2-.11.08-.06a.38.38,0,0,0,.1-.13h0a.36.36,0,0,0,0-.15l-.12,0-.22,0a.67.67,0,0,0-.21,0,.75.75,0,0,0-.24.14l-.21.19-.06.06a7,7,0,0,1-.58.48,6.92,6.92,0,0,1-1.57.94,6.72,6.72,0,0,1-1.15.32,6.41,6.41,0,0,1-1.5.16A2.89,2.89,0,0,1,21,27c-.19-.12-.37-.27-.55-.4l-.08,0h0l-.1-.06h0l0,0-.09,0-.07,0-.08,0h0l-.13,0-.15,0-.06,0a.48.48,0,0,0,0,.09h0a.5.5,0,0,1-.08-.1.42.42,0,0,1,0-.1v0a.29.29,0,0,1,0-.09.89.89,0,0,1,0-.18,4,4,0,0,1,.1-.48A1.52,1.52,0,0,1,19.8,25l.1-.12L20,24.7l.07-.07h0l.23-.22a3.68,3.68,0,0,1,.33-.26,4.25,4.25,0,0,1,.37-.38l.2-.17h0l.21-.16h0l.23-.15.24-.14h0l.36-.17h0l.21-.08a3.75,3.75,0,0,1,.94-.2Zm.48.51a.42.42,0,0,0-.19,0s-.07.07-.06.1l0,0h0l.05,0h0l.06,0,.07,0h0l.09,0c.09,0,.17.15.28.16s.26,0,.27-.14-.18-.22-.3-.26A.83.83,0,0,0,24.3,23.17Zm-2.08.08a.33.33,0,0,0-.19.13.29.29,0,0,0-.05.1.12.12,0,0,0,0,.09s.08.08.12.05.12-.16.19-.21,0-.15,0-.17Zm-1.6.7.06,0h0Zm8.22,3.1c.13.29.24.59.37.89l.2.44.06.13,0,.09c.22.44.45.88.66,1.32l.19.38a12.82,12.82,0,0,1,1,3.48A9,9,0,0,1,33,36.12c1.21,2.5,1.2,5.41.87,8.16l0,.22-.53-.08a4.84,4.84,0,0,0-.56-.06h-.22a1.52,1.52,0,0,0-1.5,1.36,3.61,3.61,0,0,0,0,.84,23.68,23.68,0,0,1,0,4l-.11.11a14.69,14.69,0,0,1-3.21,2.54,8.43,8.43,0,0,1-7,.34A7,7,0,0,0,20,52.38c-.28-.38-.57-.72-.85-1.06a1.58,1.58,0,0,0,.52-.12,1.23,1.23,0,0,0,.54-.45,1.28,1.28,0,0,0,.18-.84,2,2,0,0,0-.3-.81,5.86,5.86,0,0,0-1.51-1.48q-1.51-1.17-2.93-2.45l-.57-.52-.34-.33h0a3.4,3.4,0,0,1-.5-.63,3.64,3.64,0,0,1-.41-1.19,6.59,6.59,0,0,1,.23-3.42c.15-.43.35-.83.54-1.24a15.22,15.22,0,0,1,1.09-2.08l.09-.12c-.26.76-.52,1.51-.84,2.25-.19.45-.41.89-.57,1.35a5.67,5.67,0,0,0-.2,3.31,4.86,4.86,0,0,0,.52,1.24l0,.07a13.41,13.41,0,0,1,.06-1.48,15.87,15.87,0,0,1,1.31-4.84,18.24,18.24,0,0,1,1.61-2.9,4.44,4.44,0,0,1,.16-1.72,8.78,8.78,0,0,1,1.39-2.5c.13-.18.26-.37.38-.56l.12-.2v0l.09-.18,0-.05.07-.16,0-.06c0-.07.05-.14.07-.22a6.8,6.8,0,0,0,.13-1.55v0a5.75,5.75,0,0,1,.43.44,6.1,6.1,0,0,0,1.18,1.23,2.68,2.68,0,0,0,1.24.41,4.29,4.29,0,0,0,1.49-.16,5.32,5.32,0,0,0,1.26-.51,12.56,12.56,0,0,1,2.05-1.25,5.31,5.31,0,0,0,.54-.17,1.2,1.2,0,0,0,.29-.17A.9.9,0,0,0,28.85,27.05Zm4.27,7.2A15.81,15.81,0,0,1,35,35.33a4.89,4.89,0,0,1,1.92,3.09,6.2,6.2,0,0,1-.11,2.91c-.2.73-.45,1.43-.72,2.14h.12a3.73,3.73,0,0,1,.66.06l1,.2.17,0q-.5,0-1,0l-.7,0a2.9,2.9,0,0,0-1,.22,7.44,7.44,0,0,0-.68.43l-.15.08a2.26,2.26,0,0,1,.45-.58,1.81,1.81,0,0,1,.8-.43,10.27,10.27,0,0,0,.82-5,4.93,4.93,0,0,0-1.72-3.09C34.35,35,33.68,34.71,33.12,34.25ZM36,43.48l-.17,0ZM12.71,44h0l.2,0a1.94,1.94,0,0,1,.73.31,4.65,4.65,0,0,1,1.08,1.17c.72,1,1.42,2,2,3.06.51.86,1,1.74,1.57,2.54l.15.19c.35.45.72.88,1.06,1.34.13.18.25.36.37.54a5.38,5.38,0,0,1,.3.54l0,.06.09.21,0,.1,0,.05.06.21c0,.07,0,.14,0,.21v.05c0,.07,0,.14,0,.21h0c0,.06,0,.12,0,.18s0,.14,0,.21,0,0,0,.07,0,.18,0,.27,0,.15,0,.22,0,.16,0,.24h0c0,.08,0,.15-.06.23A3.24,3.24,0,0,1,19,58.07a3.1,3.1,0,0,1-1.7.44,8.35,8.35,0,0,1-2.69-.86c-1.79-.71-3.73-.94-5.58-1.49-.57-.17-1.12-.37-1.69-.53a5,5,0,0,1-.75-.24,1.3,1.3,0,0,1-.6-.5,1.13,1.13,0,0,1-.14-.58,1.83,1.83,0,0,1,.12-.6c.14-.38.36-.73.51-1.11a4.64,4.64,0,0,0,.26-2c0-.66-.14-1.32-.19-2a3.42,3.42,0,0,1,0-.89A1.33,1.33,0,0,1,7.7,46.65a3.6,3.6,0,0,1,.82-.05,7.84,7.84,0,0,0,.82,0,1.88,1.88,0,0,0,.78-.22,1.85,1.85,0,0,0,.56-.53,6.51,6.51,0,0,0,.4-.67c.09-.16.18-.32.29-.47l.13-.18a1.61,1.61,0,0,1,.61-.47l.13,0h0l.13,0h.3Zm20.09.84a4.6,4.6,0,0,1,.49.06l.53.08h0l.49.08h0a3.4,3.4,0,0,0-.14,1.3,1.94,1.94,0,0,0,.4,1.13,1.76,1.76,0,0,0,.84.5,2.84,2.84,0,0,0,1.68,0,4.42,4.42,0,0,0,2.21-1.66,2.53,2.53,0,0,0,.37-.76l.07-.11h0a1.51,1.51,0,0,1,.64.35,1.4,1.4,0,0,1,.29.47,2.87,2.87,0,0,1,.18.81,7,7,0,0,0,.06.74,2.41,2.41,0,0,0,.54,1.07,6.93,6.93,0,0,0,.88.84c.31.26.62.52,1,.75.16.11.32.21.47.32a1.47,1.47,0,0,1,.38.42,1,1,0,0,1,.11.75h0a2.62,2.62,0,0,1-.43.73,4.74,4.74,0,0,1-1.53,1.08,30.22,30.22,0,0,0-2.85,1.5,11.67,11.67,0,0,0-1.68,1.35,13.44,13.44,0,0,1-1.36,1.24,3.92,3.92,0,0,1-1.7.72,4.07,4.07,0,0,1-2.21-.33,2.65,2.65,0,0,1-1.23-1,1.91,1.91,0,0,1-.15-.31h0l0-.13v0l0-.13v0q0-.14-.05-.28c0-.1,0-.2,0-.29v0c0-.1,0-.19,0-.29a15.94,15.94,0,0,1,.34-2.79c.14-.77.27-1.54.35-2.31,0-.14,0-.28,0-.42s0-.24,0-.35a24.77,24.77,0,0,0,0-3.47,3.23,3.23,0,0,1,0-.71.9.9,0,0,1,.92-.84Z"/></g></g><circle class="cls-5" cx="25" cy="25" r="15"/></svg>