<svg id="Layer_1" data-name="Layer 1" xmlns="http://www.w3.org/2000/svg" viewBox="0 0 50 50"><defs><style>.cls-1{fill:none;stroke:#000;stroke-miterlimit:10;stroke-width:1.5px;}</style></defs><title>DeveloperServices-icons</title><path class="cls-1" d="M28.41,36.93v-2h-1.6a4.55,4.55,0,0,0-.62-1.51l1.61-1.61-2.41-2.41L23.78,31a6.43,6.43,0,0,0-1.51-.62V28.07H18.86v2.28a6.43,6.43,0,0,0-1.51.62l-1.61-1.61-2.41,2.41,1.61,1.61a4.55,4.55,0,0,0-.62,1.51h-1.6v2"/><path class="cls-1" d="M18.22,36.93a2.39,2.39,0,0,1,4.77,0"/><path class="cls-1" d="M38,19.2h-2v1.6a4.55,4.55,0,0,0-1.51.62l-1.61-1.61-2.41,2.41L32,23.83a4.55,4.55,0,0,0-.62,1.51H29.09v3.41h2A7.24,7.24,0,0,0,32,30.26l-1.61,1.61,2.41,2.41,1.61-1.61a4.55,4.55,0,0,0,1.51.62v1.6h2"/><path class="cls-1" d="M38,29.39a2.39,2.39,0,0,1,0-4.77"/><rect class="cls-1" x="10" y="11.02" width="30" height="27.95"/><line class="cls-1" x1="10" y1="15.11" x2="40" y2="15.11"/><line class="cls-1" x1="12.05" y1="13.07" x2="13.41" y2="13.07"/><line class="cls-1" x1="14.77" y1="13.07" x2="16.14" y2="13.07"/><line class="cls-1" x1="17.5" y1="13.07" x2="18.86" y2="13.07"/></svg>