<svg id="DSConsultancy" data-name="Layer 1" xmlns="http://www.w3.org/2000/svg" viewBox="0 0 50 50"><title>DeveloperServices-icons</title><path d="M23.16,18.68a3.09,3.09,0,0,0,.54,1v.67l1.3.47,1.3-.47v-.67a3.1,3.1,0,0,0,.53-1c.16,0,.36-.19.51-.61s.17-.88,0-.94h0c.18-1.27-1-3-2.46-2.65a1,1,0,0,1,0-.29,1.49,1.49,0,0,0-.18.24.62.62,0,0,0-.58-.13.91.91,0,0,1,.31.22c-1.53,0-1.85,1.93-1.78,2.61h0c-.16.06-.13.51,0,.94S23,18.73,23.16,18.68Z"/><path d="M28.78,21.69a17.28,17.28,0,0,1-2.21-1L26.1,22,25,20.9,23.9,22l-.47-1.27a17.27,17.27,0,0,1-2.21,1A1.6,1.6,0,0,0,20.16,23a5.89,5.89,0,0,0,9.68,0A1.6,1.6,0,0,0,28.78,21.69Z"/><path d="M44.43,26.94a3.55,3.55,0,0,0-5.94-1.61l-4.44-2.59a9.59,9.59,0,1,0-18.11,0L11.5,25.33a3.56,3.56,0,1,0,1,1.87l4.37-2.55a9.6,9.6,0,0,0,7.09,4.48v3.93a3.55,3.55,0,1,0,2.11,0V29.13a9.6,9.6,0,0,0,7.09-4.48l4.37,2.55a3.55,3.55,0,1,0,6.92-.26ZM6.89,29.33a.57.57,0,0,1,.47-.54c.3-.08,1.08-.39,1.08-.39V28a1.35,1.35,0,0,1-.23-.42c-.07,0-.16-.08-.22-.26s-.07-.38,0-.41a.1.1,0,0,1,.09,0c-.06-.68.29-1.18.93-1.18s1,.5.93,1.18a.1.1,0,0,1,.09,0c.07,0,.06.22,0,.41s-.15.28-.22.26a1.35,1.35,0,0,1-.23.42v.38s.78.31,1.08.39a.57.57,0,0,1,.47.54ZM26,36.11c-.06.18-.15.28-.22.26a1.35,1.35,0,0,1-.23.42v.38s.78.31,1.08.39a.57.57,0,0,1,.47.54H22.89a.57.57,0,0,1,.47-.54c.3-.08,1.08-.39,1.08-.39V36.8a1.35,1.35,0,0,1-.23-.42c-.07,0-.16-.08-.22-.26s-.07-.38,0-.41a.1.1,0,0,1,.09,0c-.06-.68.29-1.18.93-1.18s1,.5.93,1.18a.09.09,0,0,1,.09,0C26.09,35.73,26.08,35.92,26,36.11Zm-1-9a7.49,7.49,0,1,1,7.49-7.49A7.49,7.49,0,0,1,25,27.08Zm13.89,2.26a.57.57,0,0,1,.47-.54c.3-.08,1.08-.39,1.08-.39V28a1.36,1.36,0,0,1-.23-.42c-.07,0-.16-.08-.22-.26s-.07-.38,0-.41a.1.1,0,0,1,.09,0c-.07-.68.29-1.18.93-1.18s1,.5.93,1.18a.1.1,0,0,1,.09,0c.07,0,.06.22,0,.41s-.15.28-.22.26a1.34,1.34,0,0,1-.23.42v.38s.78.31,1.08.39a.57.57,0,0,1,.47.54Z"/></svg>