<svg id="DSOptim" data-name="Layer 1" xmlns="http://www.w3.org/2000/svg" viewBox="0 0 50 50"><defs><style>.cls-1{fill:none;stroke:#000;stroke-miterlimit:10;stroke-width:1.5px;}</style></defs><title>DeveloperServices-icons</title><polyline class="cls-1" points="16.45 33.55 12.16 33.55 12.16 37.84"/><path class="cls-1" d="M11.35,31.08A15,15,0,0,1,35.61,14.39l1.93,1.93"/><path class="cls-1" d="M38.65,18.92A15,15,0,0,1,14.39,35.61l-1.93-1.93"/><polyline class="cls-1" points="33.58 16.42 37.86 16.42 37.86 12.14"/><path class="cls-1" d="M34.9,19.28A11.42,11.42,0,0,1,18.59,34.43"/><path class="cls-1" d="M15.12,30.7A11.42,11.42,0,0,1,31.44,15.55"/><polyline class="cls-1" points="21.44 22.13 18.59 24.99 21.44 27.84"/><polyline class="cls-1" points="28.58 22.13 31.43 24.99 28.58 27.84"/><line class="cls-1" x1="26.44" y1="19.99" x2="23.58" y2="29.99"/></svg>