<svg xmlns="http://www.w3.org/2000/svg" viewBox="0 0 882 232"><defs><style>.cls-1{fill:#fff;}.cls-2{fill:#696969;}.cls-3{fill:#9ac43a;}</style></defs><title>Maker Faire 2019 YouTube Banner</title><g id="Stars"><path class="cls-1" d="M114.74,216.25a22.74,22.74,0,0,1-16.19-6.7L21.18,132.19a22.95,22.95,0,0,1,0-32.39L98.55,22.44a22.94,22.94,0,0,1,32.38,0L208.3,99.81a22.94,22.94,0,0,1,0,32.38l-77.37,77.36A22.74,22.74,0,0,1,114.74,216.25Z"/><path class="cls-2" d="M114.74,210.25a16.87,16.87,0,0,1-11.95-4.94L25.42,127.94a16.94,16.94,0,0,1,0-23.89l77.37-77.37a16.95,16.95,0,0,1,23.9,0l77.37,77.37a16.94,16.94,0,0,1,0,23.89l-77.37,77.37A16.85,16.85,0,0,1,114.74,210.25Z"/><path class="cls-1" d="M27.79,125.58,105.16,203a13.58,13.58,0,0,0,19.17,0l77.36-77.37a13.58,13.58,0,0,0,0-19.17L124.33,29a13.6,13.6,0,0,0-19.17,0L27.79,106.41a13.6,13.6,0,0,0,0,19.17Z"/><rect class="cls-3" x="52.06" y="53.31" width="125.37" height="125.37" rx="10.56" transform="translate(-48.41 115.11) rotate(-45)"/><path class="cls-1" d="M87.57,104.44a16.67,16.67,0,0,1,4.17.45,7.87,7.87,0,0,1,2.81,1.28,4.82,4.82,0,0,1,1.58,2,6.79,6.79,0,0,1,.5,2.64,5.32,5.32,0,0,1-.23,1.54,4.37,4.37,0,0,1-.71,1.37,5.67,5.67,0,0,1-1.25,1.18,7.72,7.72,0,0,1-1.84.93,6.59,6.59,0,0,1,3.46,1.83A4.75,4.75,0,0,1,97.18,121a6.76,6.76,0,0,1-.58,2.81A6.48,6.48,0,0,1,94.88,126a8,8,0,0,1-2.78,1.51,12.19,12.19,0,0,1-3.78.54H78.87V104.44Zm-3.21,4.1v5.85h2.85a10,10,0,0,0,1.64-.13,3.5,3.5,0,0,0,1.25-.46,2,2,0,0,0,.77-.89,3.35,3.35,0,0,0,.27-1.43,4,4,0,0,0-.21-1.4,2,2,0,0,0-.65-.9,2.7,2.7,0,0,0-1.11-.49,7.44,7.44,0,0,0-1.6-.15ZM88.22,124a5,5,0,0,0,1.78-.28,2.79,2.79,0,0,0,1.08-.71,2.39,2.39,0,0,0,.53-1,4.31,4.31,0,0,0,.15-1.12,3.79,3.79,0,0,0-.17-1.17,2,2,0,0,0-.59-.88,2.79,2.79,0,0,0-1.09-.55,6.39,6.39,0,0,0-1.72-.2H84.36V124Z"/><path class="cls-1" d="M114.86,111.25v16.83h-3.12a1.17,1.17,0,0,1-1.23-.84l-.3-1a9.8,9.8,0,0,1-1,.85,6.86,6.86,0,0,1-1.11.65,6.5,6.5,0,0,1-1.29.42,7.06,7.06,0,0,1-1.5.15,6,6,0,0,1-2.44-.47,5,5,0,0,1-1.79-1.34,5.88,5.88,0,0,1-1.11-2,8.4,8.4,0,0,1-.37-2.57V111.25h5v10.68a2.91,2.91,0,0,0,.57,1.93,2,2,0,0,0,1.67.69,3.56,3.56,0,0,0,1.55-.35,6.08,6.08,0,0,0,1.4-1v-12Z"/><path class="cls-1" d="M123.93,106.64a2.56,2.56,0,0,1-.25,1.13,3,3,0,0,1-.66.93,3.43,3.43,0,0,1-1,.63,3,3,0,0,1-1.2.24,2.79,2.79,0,0,1-1.15-.24,3.42,3.42,0,0,1-1-.63,3.18,3.18,0,0,1-.65-.93,2.85,2.85,0,0,1-.23-1.13,3,3,0,0,1,.23-1.15,3.1,3.1,0,0,1,.65-.94,3,3,0,0,1,1-.63,3,3,0,0,1,1.15-.23,3.2,3.2,0,0,1,1.2.23,3.05,3.05,0,0,1,1,.63,3,3,0,0,1,.66.94A2.65,2.65,0,0,1,123.93,106.64Zm-.52,4.61v16.83h-5V111.25Z"/><path class="cls-1" d="M132,103.79v24.29h-5V103.79Z"/><path class="cls-1" d="M150.61,103.79v24.29H147.5a1.19,1.19,0,0,1-1.24-.84l-.39-1.28a8.68,8.68,0,0,1-1.05,1,6.76,6.76,0,0,1-1.2.76,6,6,0,0,1-1.37.48,6.83,6.83,0,0,1-1.6.17,5.2,5.2,0,0,1-2.44-.58,5.53,5.53,0,0,1-1.93-1.69,8.25,8.25,0,0,1-1.27-2.7,13.06,13.06,0,0,1-.47-3.64,11.52,11.52,0,0,1,.52-3.5,8.62,8.62,0,0,1,1.47-2.79,6.8,6.8,0,0,1,2.28-1.85,6.54,6.54,0,0,1,2.94-.66,5.74,5.74,0,0,1,2.21.37,6.2,6.2,0,0,1,1.62,1v-8.52Zm-5,12a3.16,3.16,0,0,0-1.23-.89,3.9,3.9,0,0,0-1.4-.25,2.89,2.89,0,0,0-1.28.28,2.57,2.57,0,0,0-1,.88,4.82,4.82,0,0,0-.67,1.58,10,10,0,0,0-.24,2.36,11,11,0,0,0,.19,2.24,4.41,4.41,0,0,0,.55,1.46,2.07,2.07,0,0,0,.83.81,2.45,2.45,0,0,0,1.09.24,4.4,4.4,0,0,0,1-.1,3.64,3.64,0,0,0,.82-.3,3.33,3.33,0,0,0,.7-.5,7.33,7.33,0,0,0,.66-.69Z"/><path class="cls-1" d="M767.26,216.25a22.74,22.74,0,0,1-16.19-6.7L673.7,132.19a22.95,22.95,0,0,1,0-32.39l77.37-77.36a22.94,22.94,0,0,1,32.38,0l77.37,77.37a22.94,22.94,0,0,1,0,32.38l-77.37,77.36A22.74,22.74,0,0,1,767.26,216.25Z"/><path class="cls-2" d="M767.26,210.25a16.85,16.85,0,0,1-11.94-4.94L678,127.94a16.91,16.91,0,0,1,0-23.89l77.37-77.37a16.91,16.91,0,0,1,23.89,0l77.37,77.37a16.94,16.94,0,0,1,0,23.89l-77.37,77.37A16.85,16.85,0,0,1,767.26,210.25Z"/><path class="cls-1" d="M680.31,125.58,757.68,203a13.58,13.58,0,0,0,19.17,0l77.37-77.37a13.6,13.6,0,0,0,0-19.17L776.85,29a13.58,13.58,0,0,0-19.17,0l-77.37,77.37a13.58,13.58,0,0,0,0,19.17Z"/><rect class="cls-3" x="704.57" y="53.31" width="125.37" height="125.37" rx="10.56" transform="translate(142.71 576.51) rotate(-45)"/><path class="cls-1" d="M731.14,105.92V129h-4.72V115.73c0-.31,0-.64,0-1s0-.72.08-1.09l-6.13,11.87a2,2,0,0,1-.77.84,2.12,2.12,0,0,1-1.1.28h-.73a2.12,2.12,0,0,1-1.1-.28,2,2,0,0,1-.77-.84l-6.13-11.9c0,.38.06.75.08,1.11s0,.7,0,1V129h-4.72V105.92h4.09l.61,0a1.57,1.57,0,0,1,.46.09,1.14,1.14,0,0,1,.38.25,1.9,1.9,0,0,1,.32.47L717,118.46c.21.4.42.81.61,1.25s.39.87.57,1.33c.18-.47.36-.92.56-1.36a13.62,13.62,0,0,1,.62-1.27l5.93-11.66a1.9,1.9,0,0,1,.33-.47A1,1,0,0,1,726,106a1.64,1.64,0,0,1,.47-.09l.61,0Z"/><path class="cls-1" d="M734.33,114.86a9.93,9.93,0,0,1,3.3-2,11.54,11.54,0,0,1,3.89-.64,7.16,7.16,0,0,1,2.69.48,5.69,5.69,0,0,1,3.3,3.4,7.28,7.28,0,0,1,.45,2.6V129h-2.25a2.28,2.28,0,0,1-1.06-.19,1.5,1.5,0,0,1-.59-.79l-.35-.91a14.26,14.26,0,0,1-1.19.92,7.35,7.35,0,0,1-1.18.68,6.16,6.16,0,0,1-1.3.41,8,8,0,0,1-1.53.13,6.53,6.53,0,0,1-2-.29,4.37,4.37,0,0,1-1.56-.86,3.79,3.79,0,0,1-1-1.42,5.19,5.19,0,0,1-.35-2,4.18,4.18,0,0,1,.44-1.8,4.51,4.51,0,0,1,1.54-1.66,9.85,9.85,0,0,1,3-1.26,19.48,19.48,0,0,1,4.67-.57v-.7a3,3,0,0,0-.59-2.08,2.19,2.19,0,0,0-1.69-.64,4.42,4.42,0,0,0-1.43.19,5.67,5.67,0,0,0-1,.42c-.29.16-.57.3-.84.43a2.33,2.33,0,0,1-1,.19,1.38,1.38,0,0,1-.85-.25,2.16,2.16,0,0,1-.57-.6Zm8.84,7.46a15.42,15.42,0,0,0-2.42.26,5.62,5.62,0,0,0-1.51.47,1.89,1.89,0,0,0-.77.65,1.56,1.56,0,0,0-.21.79,1.36,1.36,0,0,0,.46,1.18,2.22,2.22,0,0,0,1.35.34,3.93,3.93,0,0,0,1.66-.33,4.84,4.84,0,0,0,1.44-1.08Z"/><path class="cls-1" d="M756.63,108.08a2.59,2.59,0,0,1-.24,1.1,3,3,0,0,1-.65.9,3.23,3.23,0,0,1-1,.62,3.05,3.05,0,0,1-1.17.23,2.8,2.8,0,0,1-1.12-.23,3.09,3.09,0,0,1-.93-.62,2.82,2.82,0,0,1-.63-.9,2.74,2.74,0,0,1-.23-1.1,2.82,2.82,0,0,1,.23-1.13,2.9,2.9,0,0,1,.63-.92,3.09,3.09,0,0,1,.93-.62,3,3,0,0,1,1.12-.22,3,3,0,0,1,2.13.84,3.14,3.14,0,0,1,.65.92A2.66,2.66,0,0,1,756.63,108.08Zm-.51,4.5V129h-4.91V112.58Z"/><path class="cls-1" d="M764.09,114.35a12.52,12.52,0,0,1,1-.82,5.19,5.19,0,0,1,1.09-.64,5.92,5.92,0,0,1,1.25-.42,6.78,6.78,0,0,1,1.47-.15,5.78,5.78,0,0,1,2.38.47,5,5,0,0,1,1.75,1.3,5.5,5.5,0,0,1,1.08,2,8.35,8.35,0,0,1,.36,2.5V129h-4.91V118.57a2.87,2.87,0,0,0-.55-1.88,2,2,0,0,0-1.64-.67,3.41,3.41,0,0,0-1.51.34,5.77,5.77,0,0,0-1.37.92V129h-4.91V112.58h3a1.15,1.15,0,0,1,1.2.82Z"/><path class="cls-1" d="M783.28,129.26a5.76,5.76,0,0,1-2.07-.34,4.08,4.08,0,0,1-1.5-1,4.13,4.13,0,0,1-.93-1.52,5.87,5.87,0,0,1-.32-2V116h-1.39a.9.9,0,0,1-.65-.25.91.91,0,0,1-.27-.72v-1.92l2.61-.5,1-4a1,1,0,0,1,1.08-.76h2.57v4.8h4.07V116h-4.07v8.16a1.56,1.56,0,0,0,.27.94.93.93,0,0,0,.8.37,1.47,1.47,0,0,0,.45,0,1.63,1.63,0,0,0,.32-.13l.25-.12a.64.64,0,0,1,.28-.06.57.57,0,0,1,.36.1,1.4,1.4,0,0,1,.28.33l1.49,2.33a7,7,0,0,1-2.14,1.07A8.86,8.86,0,0,1,783.28,129.26Z"/><path class="cls-1" d="M789.21,114.86a9.93,9.93,0,0,1,3.3-2,11.54,11.54,0,0,1,3.89-.64,7.2,7.2,0,0,1,2.69.48,6,6,0,0,1,2,1.35,6.06,6.06,0,0,1,1.27,2,7.28,7.28,0,0,1,.44,2.6V129h-2.25a2.26,2.26,0,0,1-1.05-.19,1.41,1.41,0,0,1-.59-.79l-.35-.91a14.26,14.26,0,0,1-1.19.92,7.81,7.81,0,0,1-1.18.68,6.16,6.16,0,0,1-1.3.41,8,8,0,0,1-1.53.13,6.53,6.53,0,0,1-2-.29,4.33,4.33,0,0,1-1.57-.86,4,4,0,0,1-1-1.42,5.2,5.2,0,0,1-.34-2,4,4,0,0,1,.44-1.8,4.43,4.43,0,0,1,1.54-1.66,9.89,9.89,0,0,1,2.94-1.26,19.64,19.64,0,0,1,4.68-.57v-.7a3,3,0,0,0-.6-2.08,2.15,2.15,0,0,0-1.68-.64,4.42,4.42,0,0,0-1.43.19,5.67,5.67,0,0,0-1,.42c-.29.16-.57.3-.85.43a2.26,2.26,0,0,1-1,.19,1.43,1.43,0,0,1-.86-.25,2.32,2.32,0,0,1-.57-.6Zm8.84,7.46a15.71,15.71,0,0,0-2.43.26,5.66,5.66,0,0,0-1.5.47,1.83,1.83,0,0,0-.77.65,1.56,1.56,0,0,0-.21.79,1.36,1.36,0,0,0,.46,1.18,2.19,2.19,0,0,0,1.34.34,4,4,0,0,0,1.67-.33,5.1,5.1,0,0,0,1.44-1.08Z"/><path class="cls-1" d="M811.5,108.08a2.59,2.59,0,0,1-.24,1.1,2.73,2.73,0,0,1-.65.9,3,3,0,0,1-2.12.85,2.77,2.77,0,0,1-1.12-.23,3.09,3.09,0,0,1-.93-.62,2.82,2.82,0,0,1-.63-.9,2.59,2.59,0,0,1-.23-1.1,2.66,2.66,0,0,1,.23-1.13,2.9,2.9,0,0,1,.63-.92,3.09,3.09,0,0,1,.93-.62,2.94,2.94,0,0,1,1.12-.22,3.29,3.29,0,0,1,1.17.22,3.06,3.06,0,0,1,1,.62,2.8,2.8,0,0,1,.65.92A2.66,2.66,0,0,1,811.5,108.08Zm-.5,4.5V129h-4.92V112.58Z"/><path class="cls-1" d="M819,114.35a10.91,10.91,0,0,1,1-.82,5.39,5.39,0,0,1,1.08-.64,6.21,6.21,0,0,1,1.26-.42,6.62,6.62,0,0,1,1.46-.15,5.82,5.82,0,0,1,2.39.47,5,5,0,0,1,1.75,1.3,5.64,5.64,0,0,1,1.07,2,8,8,0,0,1,.37,2.5V129h-4.91V118.57a2.87,2.87,0,0,0-.56-1.88,2,2,0,0,0-1.63-.67,3.38,3.38,0,0,0-1.51.34,5.77,5.77,0,0,0-1.37.92V129h-4.92V112.58h3.05a1.15,1.15,0,0,1,1.2.82Z"/><path class="cls-1" d="M549.75,216.25a22.74,22.74,0,0,1-16.19-6.7l-77.37-77.36a22.95,22.95,0,0,1,0-32.39l77.37-77.36a22.94,22.94,0,0,1,32.38,0l77.37,77.37a22.94,22.94,0,0,1,0,32.38l-77.37,77.36A22.74,22.74,0,0,1,549.75,216.25Z"/><path class="cls-2" d="M549.75,210.25a16.89,16.89,0,0,1-12-4.94l-77.36-77.37a16.91,16.91,0,0,1,0-23.89L537.8,26.68a16.95,16.95,0,0,1,23.9,0l77.37,77.37a16.94,16.94,0,0,1,0,23.89L561.7,205.31A16.85,16.85,0,0,1,549.75,210.25Z"/><path class="cls-1" d="M462.8,125.58,540.17,203a13.58,13.58,0,0,0,19.17,0l77.37-77.37a13.6,13.6,0,0,0,0-19.17L559.34,29a13.6,13.6,0,0,0-19.17,0L462.8,106.41a13.6,13.6,0,0,0,0,19.17Z"/><rect class="cls-3" x="487.07" y="53.31" width="125.37" height="125.37" rx="10.56" transform="translate(79 422.71) rotate(-45)"/><path class="cls-1" d="M519.85,114.87a12.46,12.46,0,0,1-.89,4.74,11,11,0,0,1-2.49,3.74,11.22,11.22,0,0,1-3.87,2.47,13.67,13.67,0,0,1-5,.89h-9.19V103.06h9.19a13.67,13.67,0,0,1,5,.89,11.52,11.52,0,0,1,3.87,2.47,11,11,0,0,1,2.49,3.74A12.34,12.34,0,0,1,519.85,114.87Zm-5.62,0a10.4,10.4,0,0,0-.45-3.16,6.94,6.94,0,0,0-1.31-2.4,5.65,5.65,0,0,0-2.09-1.5,6.89,6.89,0,0,0-2.8-.53h-3.67v15.21h3.67a7.06,7.06,0,0,0,2.8-.53,5.68,5.68,0,0,0,2.09-1.51,6.89,6.89,0,0,0,1.31-2.39A10.55,10.55,0,0,0,514.23,114.87Z"/><path class="cls-1" d="M526.45,119.19a4.73,4.73,0,0,0,1.29,3.06,3.81,3.81,0,0,0,2.67,1,4.78,4.78,0,0,0,1.51-.21,8,8,0,0,0,1.13-.47l.91-.47a1.92,1.92,0,0,1,.87-.21,1,1,0,0,1,.91.44l1.46,1.8a7.54,7.54,0,0,1-1.68,1.45,8.92,8.92,0,0,1-1.85.88,10.17,10.17,0,0,1-1.9.43A12.85,12.85,0,0,1,530,127a9.53,9.53,0,0,1-3.32-.58,7.52,7.52,0,0,1-2.71-1.71,8,8,0,0,1-1.83-2.83,10.48,10.48,0,0,1-.68-3.92,8.74,8.74,0,0,1,.58-3.2,7.8,7.8,0,0,1,1.65-2.65,7.89,7.89,0,0,1,2.62-1.8,8.64,8.64,0,0,1,3.46-.66,8.77,8.77,0,0,1,3.06.51,6.72,6.72,0,0,1,2.39,1.51,7.06,7.06,0,0,1,1.56,2.43,9,9,0,0,1,.56,3.25,7.63,7.63,0,0,1,0,.93,1.74,1.74,0,0,1-.18.57.66.66,0,0,1-.35.29,1.75,1.75,0,0,1-.56.08Zm6.33-2.92a4.58,4.58,0,0,0-.15-1.17,2.74,2.74,0,0,0-.5-1,2.69,2.69,0,0,0-.92-.73,3.2,3.2,0,0,0-1.38-.27,3,3,0,0,0-2.24.82,4.22,4.22,0,0,0-1.07,2.36Z"/><path class="cls-1" d="M544.53,112a8.78,8.78,0,0,1,2.25-1.73,6.39,6.39,0,0,1,3-.67,5.31,5.31,0,0,1,2.43.58,5.64,5.64,0,0,1,1.93,1.69,8.63,8.63,0,0,1,1.28,2.71,12.93,12.93,0,0,1,.46,3.62,11.23,11.23,0,0,1-.53,3.51,8.83,8.83,0,0,1-1.47,2.79,6.87,6.87,0,0,1-2.28,1.85,6.47,6.47,0,0,1-2.93.67,5.67,5.67,0,0,1-2.2-.38,6.06,6.06,0,0,1-1.63-1v6.46h-5V109.88h3.12a1.18,1.18,0,0,1,1.23.84Zm.31,10.18a3.42,3.42,0,0,0,1.24.88,3.85,3.85,0,0,0,1.39.26,3,3,0,0,0,1.28-.28,2.65,2.65,0,0,0,1-.88,4.67,4.67,0,0,0,.67-1.59,10,10,0,0,0,.25-2.37,10.93,10.93,0,0,0-.2-2.24,4.82,4.82,0,0,0-.54-1.47,2.13,2.13,0,0,0-.84-.8,2.42,2.42,0,0,0-1.09-.24,3.62,3.62,0,0,0-1.81.4,5.13,5.13,0,0,0-1.37,1.19Z"/><path class="cls-1" d="M563.51,102.41v24.3h-5v-24.3Z"/><path class="cls-1" d="M574.67,109.62a9.72,9.72,0,0,1,3.49.6,7.49,7.49,0,0,1,4.46,4.44,9.69,9.69,0,0,1,.62,3.59,10,10,0,0,1-.62,3.63,7.56,7.56,0,0,1-4.46,4.48,9.72,9.72,0,0,1-3.49.61,9.87,9.87,0,0,1-3.51-.61,8.07,8.07,0,0,1-2.73-1.74,7.65,7.65,0,0,1-1.76-2.74,10,10,0,0,1-.63-3.63,9.69,9.69,0,0,1,.63-3.59,7.48,7.48,0,0,1,1.76-2.72,7.87,7.87,0,0,1,2.73-1.72A9.87,9.87,0,0,1,574.67,109.62Zm0,13.61a2.88,2.88,0,0,0,2.56-1.22,6.76,6.76,0,0,0,.82-3.73,6.69,6.69,0,0,0-.82-3.71,2.86,2.86,0,0,0-2.56-1.22,2.91,2.91,0,0,0-2.61,1.22,6.68,6.68,0,0,0-.83,3.71,6.76,6.76,0,0,0,.83,3.73A2.93,2.93,0,0,0,574.67,123.23Z"/><path class="cls-1" d="M601.12,109.88l-9,21.19a1.44,1.44,0,0,1-1.59,1h-3.76l3.24-6.82-6.72-15.35h4.45a1.4,1.4,0,0,1,.9.25,1.53,1.53,0,0,1,.46.62l2.76,7.26a15.45,15.45,0,0,1,.64,2c.12-.35.23-.7.35-1s.25-.69.38-1l2.5-7.22a1.24,1.24,0,0,1,.52-.62,1.41,1.41,0,0,1,.81-.25Z"/><path class="cls-1" d="M332.25,216.25a22.74,22.74,0,0,1-16.19-6.7l-77.37-77.36a22.95,22.95,0,0,1,0-32.39l77.37-77.36a22.94,22.94,0,0,1,32.38,0l77.37,77.37a22.94,22.94,0,0,1,0,32.38l-77.37,77.36A22.74,22.74,0,0,1,332.25,216.25Z"/><path class="cls-2" d="M332.24,210.25a16.87,16.87,0,0,1-11.95-4.94l-77.37-77.37a16.94,16.94,0,0,1,0-23.89l77.37-77.37a16.92,16.92,0,0,1,23.9,0l77.37,77.37a16.91,16.91,0,0,1,0,23.89l-77.37,77.37A16.85,16.85,0,0,1,332.24,210.25Z"/><path class="cls-1" d="M245.29,125.58,322.66,203a13.58,13.58,0,0,0,19.17,0l77.37-77.37a13.58,13.58,0,0,0,0-19.17L341.83,29a13.58,13.58,0,0,0-19.17,0l-77.37,77.37a13.6,13.6,0,0,0,0,19.17Z"/><rect class="cls-3" x="269.56" y="53.31" width="125.37" height="125.37" rx="10.56" transform="translate(15.29 268.91) rotate(-45)"/><path class="cls-1" d="M298.91,110.37a1.92,1.92,0,0,1-.5.57,1.12,1.12,0,0,1-.68.19,1.57,1.57,0,0,1-.78-.23l-.95-.51a9.16,9.16,0,0,0-1.21-.52,5,5,0,0,0-1.56-.22,3.33,3.33,0,0,0-2.24.64,2.17,2.17,0,0,0-.74,1.73,1.59,1.59,0,0,0,.45,1.16,3.64,3.64,0,0,0,1.16.79,12,12,0,0,0,1.65.61c.62.19,1.25.39,1.89.62a16.61,16.61,0,0,1,1.9.8,6.49,6.49,0,0,1,1.65,1.17,5.47,5.47,0,0,1,1.16,1.74,6.08,6.08,0,0,1,.44,2.46,8,8,0,0,1-.55,3,7,7,0,0,1-1.61,2.43,7.38,7.38,0,0,1-2.6,1.63,9.64,9.64,0,0,1-3.51.6,11,11,0,0,1-2.19-.23,12.26,12.26,0,0,1-2.17-.62,12.72,12.72,0,0,1-2-1,8.1,8.1,0,0,1-1.6-1.24l1.58-2.5a1.67,1.67,0,0,1,.5-.45,1.33,1.33,0,0,1,.68-.18,1.85,1.85,0,0,1,1,.3l1.09.66a8.29,8.29,0,0,0,1.4.67,5.28,5.28,0,0,0,1.87.3,3.63,3.63,0,0,0,2.27-.64,2.45,2.45,0,0,0,.81-2,1.88,1.88,0,0,0-.45-1.31,3.31,3.31,0,0,0-1.16-.84,10.08,10.08,0,0,0-1.64-.59c-.62-.17-1.24-.36-1.89-.56a14.49,14.49,0,0,1-1.88-.76,6,6,0,0,1-1.64-1.19,5.53,5.53,0,0,1-1.17-1.84,7.21,7.21,0,0,1-.44-2.72,6.4,6.4,0,0,1,.52-2.53,6.54,6.54,0,0,1,1.54-2.21,7.45,7.45,0,0,1,2.48-1.54,9.14,9.14,0,0,1,3.38-.58,12.76,12.76,0,0,1,2.07.17,10.87,10.87,0,0,1,3.6,1.26,7.79,7.79,0,0,1,1.4,1Z"/><path class="cls-1" d="M307.18,121.43a4.62,4.62,0,0,0,1.25,3,3.72,3.72,0,0,0,2.61.93,4.59,4.59,0,0,0,1.48-.21,6.62,6.62,0,0,0,1.1-.46l.89-.46a1.92,1.92,0,0,1,.84-.2,1,1,0,0,1,.89.43l1.43,1.75a7.17,7.17,0,0,1-1.64,1.42,8.53,8.53,0,0,1-1.81.86,10.31,10.31,0,0,1-1.85.43,13.85,13.85,0,0,1-1.77.12,9.12,9.12,0,0,1-3.24-.57,7.41,7.41,0,0,1-2.65-1.67,8,8,0,0,1-1.79-2.76,10.21,10.21,0,0,1-.65-3.83,8.55,8.55,0,0,1,.56-3.12,7.6,7.6,0,0,1,1.61-2.59,7.72,7.72,0,0,1,2.56-1.75,8.25,8.25,0,0,1,3.38-.65,8.45,8.45,0,0,1,3,.5,6.49,6.49,0,0,1,2.33,1.48,6.71,6.71,0,0,1,1.52,2.37,8.74,8.74,0,0,1,.54,3.17,7.67,7.67,0,0,1,0,.91,1.48,1.48,0,0,1-.18.55.69.69,0,0,1-.34.29,1.67,1.67,0,0,1-.55.07Zm6.18-2.85a4.35,4.35,0,0,0-.15-1.14,2.87,2.87,0,0,0-.49-1,2.54,2.54,0,0,0-.9-.7,3.07,3.07,0,0,0-1.35-.27,2.9,2.9,0,0,0-2.18.8,4.15,4.15,0,0,0-1.05,2.3Z"/><path class="cls-1" d="M332.29,116.24a2.88,2.88,0,0,1-.42.43,1,1,0,0,1-.59.15,1.25,1.25,0,0,1-.66-.17l-.65-.39a5.79,5.79,0,0,0-.86-.39,3.86,3.86,0,0,0-1.22-.17,3.45,3.45,0,0,0-1.56.33,2.93,2.93,0,0,0-1.09,1,4.49,4.49,0,0,0-.63,1.52,8.83,8.83,0,0,0-.21,2,6.18,6.18,0,0,0,.91,3.62,2.93,2.93,0,0,0,2.52,1.27,3.53,3.53,0,0,0,1.35-.21,3.79,3.79,0,0,0,.85-.48l.64-.48a1.18,1.18,0,0,1,.74-.22,1,1,0,0,1,.88.43l1.43,1.75a7.46,7.46,0,0,1-1.6,1.42,7.9,7.9,0,0,1-1.72.86,9.32,9.32,0,0,1-1.77.43,12.76,12.76,0,0,1-1.72.12,7.4,7.4,0,0,1-2.88-.57,7.27,7.27,0,0,1-2.41-1.66,8,8,0,0,1-1.65-2.67,10.83,10.83,0,0,1-.08-6.93,7.62,7.62,0,0,1,1.57-2.68,7.27,7.27,0,0,1,2.57-1.78,8.87,8.87,0,0,1,3.54-.65,8.66,8.66,0,0,1,3.39.61,8.2,8.2,0,0,1,2.63,1.81Z"/><path class="cls-1" d="M350.38,112.34v16.43h-3.05a1.15,1.15,0,0,1-1.2-.82l-.29-1a9.56,9.56,0,0,1-1,.83,5.85,5.85,0,0,1-1.08.63,6.2,6.2,0,0,1-1.26.41,6.11,6.11,0,0,1-1.46.16,5.79,5.79,0,0,1-2.39-.47,5,5,0,0,1-1.75-1.31,5.92,5.92,0,0,1-1.08-2,8.3,8.3,0,0,1-.36-2.5V112.34h4.91v10.43a2.85,2.85,0,0,0,.56,1.88,2,2,0,0,0,1.63.67,3.51,3.51,0,0,0,1.51-.34,6.15,6.15,0,0,0,1.37-.93V112.34Z"/><path class="cls-1" d="M358.3,114.87a7.07,7.07,0,0,1,1.75-2.09,3.67,3.67,0,0,1,2.27-.76,3,3,0,0,1,1.81.52l-.32,3.62a.73.73,0,0,1-.26.47.82.82,0,0,1-.5.13,2.19,2.19,0,0,1-.33,0l-.43,0-.45,0-.42,0a2.5,2.5,0,0,0-1.72.57,4.37,4.37,0,0,0-1.08,1.59v10H353.7V112.34h2.92a2.62,2.62,0,0,1,.61.06,1,1,0,0,1,.41.2.78.78,0,0,1,.25.36,3.57,3.57,0,0,1,.16.54Z"/><path class="cls-1" d="M369.55,121.43a4.67,4.67,0,0,0,1.25,3,3.73,3.73,0,0,0,2.62.93,4.57,4.57,0,0,0,1.47-.21,6.62,6.62,0,0,0,1.1-.46l.89-.46a1.93,1.93,0,0,1,.85-.2,1,1,0,0,1,.88.43L380,126.2a7,7,0,0,1-1.64,1.42,8.53,8.53,0,0,1-1.81.86,10.11,10.11,0,0,1-1.85.43A13.85,13.85,0,0,1,373,129a9.12,9.12,0,0,1-3.24-.57,7.29,7.29,0,0,1-2.64-1.67A7.71,7.71,0,0,1,365.3,124a10.2,10.2,0,0,1-.66-3.83,8.55,8.55,0,0,1,.56-3.12,7.47,7.47,0,0,1,1.62-2.59,7.57,7.57,0,0,1,2.55-1.75,8.29,8.29,0,0,1,3.38-.65,8.45,8.45,0,0,1,3,.5,6.49,6.49,0,0,1,2.33,1.48,6.71,6.71,0,0,1,1.52,2.37,8.74,8.74,0,0,1,.55,3.17,7.39,7.39,0,0,1-.05.91,1.32,1.32,0,0,1-.18.55.65.65,0,0,1-.34.29,1.65,1.65,0,0,1-.54.07Zm6.18-2.85a4.35,4.35,0,0,0-.15-1.14,2.7,2.7,0,0,0-.49-1,2.54,2.54,0,0,0-.9-.7,3,3,0,0,0-1.34-.27,2.92,2.92,0,0,0-2.19.8,4.15,4.15,0,0,0-1.05,2.3Z"/></g></svg>