<svg id="Layer_1" data-name="Layer 1" xmlns="http://www.w3.org/2000/svg" viewBox="0 0 50 50"><title>DeveloperServices-icons</title><path d="M21.27,35a7.09,7.09,0,0,1,1.23-.1,2.2,2.2,0,0,1,1.33.3,1,1,0,0,1,.48.87,1.08,1.08,0,0,1-.77,1h0a1.17,1.17,0,0,1,.94,1.15,1.21,1.21,0,0,1-.45,1,2.58,2.58,0,0,1-1.72.43,8.22,8.22,0,0,1-1-.06Zm.84,1.83h.43c.59,0,.92-.28.92-.67s-.33-.63-.87-.63a2.31,2.31,0,0,0-.48,0Zm0,2.14.45,0c.54,0,1-.21,1-.78s-.47-.76-1.05-.76h-.42Z"/><path d="M28.27,37.83a1.66,1.66,0,0,1-1.72,1.79,1.62,1.62,0,0,1-1.68-1.73,1.66,1.66,0,0,1,1.74-1.78A1.61,1.61,0,0,1,28.27,37.83Zm-2.53,0c0,.65.32,1.14.83,1.14s.82-.48.82-1.15c0-.52-.23-1.12-.81-1.12S25.74,37.31,25.74,37.87Z"/><path d="M30.73,39.54l-.06-.37h0a1.25,1.25,0,0,1-1,.45,1,1,0,0,1-1.05-1c0-.85.75-1.28,2-1.27V37.3c0-.22-.09-.59-.68-.59A1.78,1.78,0,0,0,29,37l-.17-.55a2.42,2.42,0,0,1,1.21-.3,1.26,1.26,0,0,1,1.39,1.41v1.21a5.39,5.39,0,0,0,0,.81Zm-.11-1.64c-.6,0-1.17.12-1.17.63a.45.45,0,0,0,.48.48.69.69,0,0,0,.66-.46.61.61,0,0,0,0-.19Z"/><path d="M32.17,37.27c0-.46,0-.78,0-1.08h.74l0,.64h0a1,1,0,0,1,.92-.72l.2,0v.8a1.18,1.18,0,0,0-.25,0,.75.75,0,0,0-.76.64,1.46,1.46,0,0,0,0,.26v1.74h-.85Z"/><path d="M37.58,34.65v4c0,.34,0,.72,0,.94h-.76l0-.53h0a1.21,1.21,0,0,1-1.1.61,1.54,1.54,0,0,1-1.43-1.72,1.6,1.6,0,0,1,1.5-1.79,1.07,1.07,0,0,1,.94.44h0v-1.9Zm-.85,2.94a1.2,1.2,0,0,0,0-.22.74.74,0,0,0-.73-.6c-.54,0-.85.48-.85,1.11s.3,1.06.84,1.06a.75.75,0,0,0,.73-.6,1,1,0,0,0,0-.25Z"/><path d="M38.29,38.76a1.89,1.89,0,0,0,.86.24c.37,0,.54-.15.54-.37s-.14-.34-.55-.49c-.65-.23-.93-.59-.92-1a1.12,1.12,0,0,1,1.27-1.05,2,2,0,0,1,.89.2l-.17.6a1.51,1.51,0,0,0-.71-.19c-.3,0-.47.14-.47.35s.16.32.59.47c.61.22.89.53.9,1s-.48,1-1.36,1a2.17,2.17,0,0,1-1-.23Z"/><path d="M30.57,19.15a8.62,8.62,0,0,0-4.63-1.91L25.33,17l5.6-7H25.68l-4.5,5.69c-.37.45-.7,1-1,1.37a7.88,7.88,0,0,1,3,1.89,8,8,0,0,1,1.6,2.33H25a3.25,3.25,0,0,1,3.21,3.22,3.06,3.06,0,0,1-1,2.25,3.12,3.12,0,0,1-2,.93,10,10,0,0,1-.72,2A17.71,17.71,0,0,1,23.14,32a8.69,8.69,0,0,0,1.78.18,7.65,7.65,0,0,0,5.5-2.08,8.08,8.08,0,0,0,2.27-6A6.14,6.14,0,0,0,30.57,19.15Z"/><path d="M19.69,25a2.39,2.39,0,0,0-.75-1.76,2.42,2.42,0,0,0-1.49-.74,8.9,8.9,0,0,0-.15,1.61,9.34,9.34,0,0,0,.56,3.31,2.49,2.49,0,0,0,1.08-.66A2.39,2.39,0,0,0,19.69,25Z"/><path d="M22.66,19.48a7.4,7.4,0,0,0-5.4-2.12,7.61,7.61,0,0,0-5.5,2.1,8,8,0,0,0-2.27,6,6.08,6.08,0,0,0,2.11,4.91,8.62,8.62,0,0,0,4.63,1.9l.61.08-.28.74L11.25,40H16.5L21,34.06a25.11,25.11,0,0,0,3-4.5,9.45,9.45,0,0,0,.93-4.08A8.27,8.27,0,0,0,22.66,19.48Zm-3.24,7.79a3.13,3.13,0,1,1,1-2.25A3.1,3.1,0,0,1,19.42,27.27Z"/></svg>