<svg id="DSLinux" data-name="Layer 1" xmlns="http://www.w3.org/2000/svg" viewBox="0 0 50 50"><defs><style>.cls-1{fill:#fff;}.cls-2{fill:#020204;}</style></defs><title>DeveloperServices-icons</title><g id="g1768"><path id="path4529" class="cls-1" d="M23.1,12.39l4.47.47,1.68,5.87,3.63,6.61,1.21,5.5.89.29.45,1,.09.76.73.79,1,.74.44.75-.36.71-3.74,2.31-1.5,1.33-1.92.15-1.41-.83-.43-1.58-6,.46L21.77,39l-1.38.73-1.67-.25-1.62-.73-2.17-.48-2.15-.7-.4-.65.22-.81L13,35l-.1-1.69,0-.89.3-.47.85-.26.74,0,.51-.16.71-1,.41-.49,3-7.49,2-2.49-.36-4.16.16-2.48Z"/><path id="path1726" class="cls-2" d="M24.94,10a4.26,4.26,0,0,0-2.06.47,3.7,3.7,0,0,0-1.55,1.61,5.42,5.42,0,0,0-.49,2.2c0,.74,0,1.49.07,2.23s.07,1.54.08,2.32a4.22,4.22,0,0,1,0,.75c0,.13,0,.25,0,.38v0a5,5,0,0,1-.35.68l-.77,1-.85,1.07a6.53,6.53,0,0,0-.94,1.38,10.52,10.52,0,0,0-.42,1.38A10.41,10.41,0,0,1,17.1,27c-.22.46-.45.9-.69,1.34a3.38,3.38,0,0,0-.41,1,2.09,2.09,0,0,0,.05.86v0l-.12.13a3.09,3.09,0,0,0-.32.48,4,4,0,0,1-.24.39.82.82,0,0,1-.24.23.85.85,0,0,1-.34.09c-.14,0-.3,0-.49,0a2.65,2.65,0,0,0-.62,0,1.25,1.25,0,0,0-1,1,2.53,2.53,0,0,0,0,.67c0,.45.1.87.12,1.26a2.6,2.6,0,0,1-.14,1.09c-.08.19-.22.42-.33.72a1.56,1.56,0,0,0-.1.51,1.11,1.11,0,0,0,.15.58,1.2,1.2,0,0,0,.57.48,3.38,3.38,0,0,0,.54.17c.35.09.71.22,1.09.34,1.24.37,2.48.51,3.58.94A5.51,5.51,0,0,0,20,40a2.41,2.41,0,0,0,1.32-.34,2.48,2.48,0,0,0,.93-1,2.53,2.53,0,0,0,.24-.71,6.57,6.57,0,0,1,1.07-.13h.34a6.29,6.29,0,0,0,.93,0h.11l.24,0c.55,0,1.09.08,1.63.17s.95.17,1.42.28l.21.05a1.78,1.78,0,0,0,.24.63,2.07,2.07,0,0,0,1,.77,3,3,0,0,0,1.65.24,2.94,2.94,0,0,0,1.27-.53,8.66,8.66,0,0,0,.93-.83,7.17,7.17,0,0,1,1-.82,19.73,19.73,0,0,1,1.8-.94,3.37,3.37,0,0,0,1.11-.79,2.08,2.08,0,0,0,.35-.58l0-.06a1.06,1.06,0,0,0-.11-.76,1.31,1.31,0,0,0-.35-.39c-.12-.09-.23-.16-.32-.22s-.39-.29-.58-.45a4.19,4.19,0,0,1-.52-.48,1.16,1.16,0,0,1-.27-.51c0-.1,0-.25,0-.43a2.21,2.21,0,0,0-.14-.63,1.27,1.27,0,0,0-.27-.44,1.34,1.34,0,0,0-.58-.33h0a3.35,3.35,0,0,0,.27-.84,5.83,5.83,0,0,0,0-2.07A13.94,13.94,0,0,0,34,25.15a7.8,7.8,0,0,0-1-1.84c-.41-.54-.92-1-1.33-1.55-.21-.29-.39-.61-.61-.89l-.26-.55c-.26-.58-.5-1.17-.82-1.72l-.15-.25c0-.53-.1-1.05-.12-1.58a14.89,14.89,0,0,0-.27-3.16,5.14,5.14,0,0,0-.63-1.41,4.84,4.84,0,0,0-1.23-1.32A4.74,4.74,0,0,0,24.94,10Zm1.64,3.55a.6.6,0,0,1,.32.1,1.45,1.45,0,0,1,.57.73c0,.08.06.21,0,.25a2,2,0,0,0-.68-.81,1.49,1.49,0,0,0-.51-.22c0-.06.1-.05.16-.05Zm-4.22.23a1,1,0,0,1,.37.08,2,2,0,0,1,.38.23.53.53,0,0,1,.13.12,1.17,1.17,0,0,1,.17.48,1.73,1.73,0,0,0-.47-.6,1.58,1.58,0,0,0-.37-.23,1,1,0,0,0-.31-.08h.09Zm3.74.41h.14a1.26,1.26,0,0,1,.51.19,1.67,1.67,0,0,1,.64.86,2.59,2.59,0,0,1,.12,1,2.1,2.1,0,0,1-.17.77,1.35,1.35,0,0,1-.21.32,2.6,2.6,0,0,0-.32-.09l-.41-.12a.73.73,0,0,0,.18-.09.81.81,0,0,0,.25-.29,1.06,1.06,0,0,0,.11-.36,1.12,1.12,0,0,0-.11-.66.92.92,0,0,0-.49-.44.72.72,0,0,0-.21,0h-.07a.64.64,0,0,0-.29.1.77.77,0,0,0-.22.22,1.12,1.12,0,0,0-.18.59,1.24,1.24,0,0,0,.06.46l0,.1-.24-.13L25,16.46l-.07-.15a1.38,1.38,0,0,0-.15-.25,1.67,1.67,0,0,1,0-.87,1.62,1.62,0,0,1,.62-.77,1.35,1.35,0,0,1,.27-.15A1.06,1.06,0,0,1,26.1,14.19Zm-3.81.22a.78.78,0,0,1,.39.08,1.17,1.17,0,0,1,.32.24,1.83,1.83,0,0,1,.41.7,2.66,2.66,0,0,1,.12.74l-.15.22h0l-.32.13A1.4,1.4,0,0,0,23,16a1,1,0,0,0-.3-.49.6.6,0,0,0-.24-.13h-.14l-.13,0a.47.47,0,0,0-.21.21,1,1,0,0,0-.09.29,1.34,1.34,0,0,0,0,.67,1.12,1.12,0,0,0,.24.38.88.88,0,0,0,.16.14l-.15.16h0l-.26.23a1.24,1.24,0,0,1-.24-.39,3.11,3.11,0,0,1-.17-.94,2.71,2.71,0,0,1,.06-1.05,1.08,1.08,0,0,1,.28-.45A.77.77,0,0,1,22.3,14.41Zm3.94,1.08h0a.47.47,0,0,1,.31.21.51.51,0,0,1,.1.44.08.08,0,0,1-.09,0c-.1,0-.08-.23-.15-.33a.5.5,0,0,0-.14-.11c-.05,0-.12,0-.16-.07a.13.13,0,0,1,0-.12A.13.13,0,0,1,26.24,15.5Zm-3.71.08.08,0a.46.46,0,0,1,.21.27c0,.12.06.29,0,.38a.08.08,0,0,1-.09,0c-.07-.07,0-.21,0-.31a.47.47,0,0,0-.09-.13s-.1-.06-.12-.11a.1.1,0,0,1,0-.1A.09.09,0,0,1,22.53,15.57Zm1.66.84a1.81,1.81,0,0,1,.49.08l.13,0h0l0,0h0l.06,0h0l.19.09h0l.11.06.45.24h0l.06,0,.2.09.17.07h0a5.11,5.11,0,0,0,.71.23l.22.05.07,0h0l.08,0a.45.45,0,0,1,.21.17l0,0h0l0,0,0,0h0a.49.49,0,0,1,0,.13h0a.76.76,0,0,1,0,.22c0,.15-.06.29-.08.43a1.05,1.05,0,0,1-.06.33l0,0,0,0a.59.59,0,0,1-.21.16c-.11.05-.22.08-.33.12a8.22,8.22,0,0,0-1.35.89,3.21,3.21,0,0,1-.78.34,2.39,2.39,0,0,1-.91.11,1.54,1.54,0,0,1-.73-.26,3.72,3.72,0,0,1-.73-.83,2.91,2.91,0,0,0-.36-.39l-.12-.1.06,0h0l.06,0,.09.07c.08.07.16.17.27.25a1.63,1.63,0,0,0,1,.33,4.24,4.24,0,0,0,1-.14,6,6,0,0,0,.76-.21,3.42,3.42,0,0,0,1.06-.63,3.53,3.53,0,0,1,.39-.33l.15-.08h0l0,0,0,0,.06,0,.13-.07.05,0A.25.25,0,0,0,27,18.1h0a.23.23,0,0,0,0-.1h-.22l-.14,0a.48.48,0,0,0-.16.09l-.13.12,0,0a4.53,4.53,0,0,1-.37.31,4.45,4.45,0,0,1-1,.6,4.32,4.32,0,0,1-.74.2,4.12,4.12,0,0,1-1,.1,1.86,1.86,0,0,1-.92-.26c-.12-.08-.23-.17-.36-.26l-.05,0h0l-.07,0h0l-.06,0,0,0,0,0h0l-.09,0h-.14a.31.31,0,0,0,0,.06h0l-.05-.07,0-.07v0a.19.19,0,0,1,0-.06.57.57,0,0,1,0-.12,2.57,2.57,0,0,1,.07-.31,1,1,0,0,1,.14-.26l.06-.08.09-.11,0,0h0l.15-.14.21-.16a2.73,2.73,0,0,1,.24-.24l.13-.11h0l.14-.1h0l.15-.1.16-.09h0l.23-.11h0l.14-.05a2.42,2.42,0,0,1,.61-.13Zm.31.33a.27.27,0,0,0-.12,0s0,0,0,.07v0h0l0,0h.09l.06,0c.06,0,.11.1.18.1s.17,0,.18-.09-.11-.14-.19-.17A.53.53,0,0,0,24.5,16.75Zm-1.34.05a.21.21,0,0,0-.12.08.19.19,0,0,0,0,.07A.08.08,0,0,0,23,17s.05.05.08,0,.07-.1.12-.13,0-.1,0-.11Zm-1,.45,0,0h0Zm5.29,2c.08.19.16.38.24.57l.13.28,0,.08,0,.06.43.85.12.25a8.24,8.24,0,0,1,.66,2.24,5.79,5.79,0,0,1,1.05,1.5,9.47,9.47,0,0,1,.56,5.25l0,.14-.34,0a3.11,3.11,0,0,0-.36,0h-.14a1,1,0,0,0-1,.88,2.32,2.32,0,0,0,0,.54,15.24,15.24,0,0,1,0,2.55l-.07.07a9.45,9.45,0,0,1-2.06,1.63,5.42,5.42,0,0,1-4.47.22,4.51,4.51,0,0,0-.46-.74c-.18-.24-.37-.46-.54-.68a1,1,0,0,0,.33-.08.79.79,0,0,0,.35-.29A.83.83,0,0,0,22,34a1.29,1.29,0,0,0-.19-.52,3.77,3.77,0,0,0-1-1q-1-.75-1.89-1.58l-.37-.33-.22-.22h0a2.19,2.19,0,0,1-.32-.41,2.34,2.34,0,0,1-.26-.76,4.24,4.24,0,0,1,.15-2.2c.1-.27.23-.54.35-.8a9.79,9.79,0,0,1,.7-1.34l.06-.08c-.17.49-.34,1-.54,1.45-.12.29-.26.57-.37.87A3.65,3.65,0,0,0,18,29.21a3.13,3.13,0,0,0,.33.8l0,0a8.63,8.63,0,0,1,0-1A10.21,10.21,0,0,1,19.24,26a11.73,11.73,0,0,1,1-1.87,2.86,2.86,0,0,1,.1-1.11,5.65,5.65,0,0,1,.9-1.61l.24-.36.08-.13h0l.06-.11,0,0,0-.1,0,0,0-.14a4.37,4.37,0,0,0,.08-1h0a3.7,3.7,0,0,1,.28.28,3.93,3.93,0,0,0,.76.79,1.72,1.72,0,0,0,.8.26,2.76,2.76,0,0,0,1-.1,3.42,3.42,0,0,0,.81-.33,8.08,8.08,0,0,1,1.32-.8,3.42,3.42,0,0,0,.34-.11.77.77,0,0,0,.19-.11Zm2.75,4.63a10.17,10.17,0,0,1,1.21.69,3.15,3.15,0,0,1,1.23,2,4,4,0,0,1-.07,1.87c-.13.47-.29.92-.46,1.37h.08a2.4,2.4,0,0,1,.43,0l.65.13.11,0q-.32,0-.65,0l-.45,0a1.86,1.86,0,0,0-.63.14,4.78,4.78,0,0,0-.44.27l-.1.05a1.45,1.45,0,0,1,.29-.37,1.17,1.17,0,0,1,.52-.28,6.6,6.6,0,0,0,.53-3.19,3.17,3.17,0,0,0-1.11-2C31,24.37,30.54,24.17,30.18,23.88ZM32,29.81l-.11,0Zm-15,.31h0l.13,0a1.25,1.25,0,0,1,.47.2,3,3,0,0,1,.7.75c.46.64.91,1.29,1.32,2s.63,1.12,1,1.63l.1.12c.22.29.46.57.68.86.08.11.16.23.24.35a3.46,3.46,0,0,1,.19.35l0,0,.06.13,0,.06v0l0,.13,0,.14v0s0,.09,0,.14h0s0,.08,0,.12,0,.09,0,.14,0,0,0,0,0,.12,0,.18,0,.1,0,.14l0,.15h0L22,38a2.09,2.09,0,0,1-.91,1.18,2,2,0,0,1-1.09.29,5.37,5.37,0,0,1-1.73-.55c-1.15-.46-2.4-.6-3.59-1-.36-.11-.72-.24-1.09-.34a3.22,3.22,0,0,1-.48-.15.83.83,0,0,1-.38-.32.72.72,0,0,1-.09-.38,1.18,1.18,0,0,1,.08-.38c.09-.25.23-.47.33-.71a3,3,0,0,0,.17-1.26c0-.43-.09-.85-.12-1.28a2.2,2.2,0,0,1,0-.57.86.86,0,0,1,.72-.73,2.31,2.31,0,0,1,.53,0,5,5,0,0,0,.53,0,1.21,1.21,0,0,0,.5-.14,1.19,1.19,0,0,0,.36-.34A4.19,4.19,0,0,0,16,30.9c.06-.1.12-.21.19-.3l.09-.12a1,1,0,0,1,.39-.3l.08,0h0l.08,0H17ZM30,30.66l.32,0,.34,0h0l.31.05h0a2.19,2.19,0,0,0-.09.83,1.25,1.25,0,0,0,.26.73,1.13,1.13,0,0,0,.54.32,1.83,1.83,0,0,0,1.08,0,2.84,2.84,0,0,0,1.42-1.07,1.63,1.63,0,0,0,.24-.49l0-.07h0a1,1,0,0,1,.41.23.9.9,0,0,1,.19.3,1.85,1.85,0,0,1,.12.52,4.52,4.52,0,0,0,0,.47,1.55,1.55,0,0,0,.35.69,4.46,4.46,0,0,0,.57.54c.2.17.4.33.61.48l.3.21a.94.94,0,0,1,.24.27.67.67,0,0,1,.07.48h0a1.68,1.68,0,0,1-.28.47,3.05,3.05,0,0,1-1,.7,19.44,19.44,0,0,0-1.83,1,7.51,7.51,0,0,0-1.08.87,8.65,8.65,0,0,1-.88.8,2.52,2.52,0,0,1-1.09.46,2.62,2.62,0,0,1-1.42-.22,1.7,1.7,0,0,1-.79-.62,1.23,1.23,0,0,1-.1-.2h0l0-.08v0l0-.08v0q0-.09,0-.18c0-.06,0-.13,0-.19v0c0-.06,0-.12,0-.19a10.26,10.26,0,0,1,.22-1.8c.09-.49.17-1,.22-1.49,0-.09,0-.18,0-.27s0-.15,0-.23a15.93,15.93,0,0,0,0-2.23,2.08,2.08,0,0,1,0-.46.58.58,0,0,1,.59-.54Z"/></g></svg>