<svg id="DSServer" data-name="Layer 1" xmlns="http://www.w3.org/2000/svg" viewBox="0 0 50 50"><defs><style>.cls-1{fill:#242424;}</style></defs><title>DeveloperServices-icons</title><path class="cls-1" d="M32.81,17.54H13.24a.61.61,0,0,1-.43-1.05l2.86-2.81a.61.61,0,0,1,.43-.18H29.95a.61.61,0,0,1,.43.18l2.86,2.81a.61.61,0,0,1-.43,1.05ZM14.74,16.31H31.31L29.7,14.73H16.35Z"/><path class="cls-1" d="M32.54,23.77H13.46a1.15,1.15,0,0,1-1.15-1.15V17.46a1.15,1.15,0,0,1,1.15-1.15H32.54a1.15,1.15,0,0,1,1.15,1.15v5.16A1.15,1.15,0,0,1,32.54,23.77Zm-19-1.23H32.46v-5H13.54Z"/><path class="cls-1" d="M16.26,21.83A1.79,1.79,0,1,1,18,20,1.79,1.79,0,0,1,16.26,21.83Zm0-2.35a.56.56,0,1,0,.56.56A.56.56,0,0,0,16.26,19.48Z"/><path class="cls-1" d="M25.24,20.65H22.4a.61.61,0,1,1,0-1.23h2.84a.61.61,0,1,1,0,1.23Z"/><path class="cls-1" d="M30,20.65H27.17a.61.61,0,1,1,0-1.23H30a.61.61,0,1,1,0,1.23Z"/><path class="cls-1" d="M32.54,30.13H13.46A1.15,1.15,0,0,1,12.31,29V23.82a1.15,1.15,0,0,1,1.15-1.15H32.54a1.15,1.15,0,0,1,1.15,1.15V29A1.15,1.15,0,0,1,32.54,30.13Zm-19-1.23H32.46v-5H13.54Z"/><path class="cls-1" d="M16.26,28.2A1.79,1.79,0,1,1,18,26.4,1.79,1.79,0,0,1,16.26,28.2Zm0-2.35a.56.56,0,1,0,.56.56A.56.56,0,0,0,16.26,25.84Z"/><path class="cls-1" d="M25.24,27H22.4a.61.61,0,1,1,0-1.23h2.84a.61.61,0,1,1,0,1.23Z"/><path class="cls-1" d="M30,27H27.17a.61.61,0,0,1,0-1.23H30A.61.61,0,1,1,30,27Z"/><path class="cls-1" d="M32.54,36.5H13.46a1.15,1.15,0,0,1-1.15-1.15V30.19A1.15,1.15,0,0,1,13.46,29H32.54a1.15,1.15,0,0,1,1.15,1.15v5.16A1.15,1.15,0,0,1,32.54,36.5Zm-19-1.23H32.46v-5H13.54Z"/><path class="cls-1" d="M16.26,34.56A1.79,1.79,0,1,1,18,32.77,1.79,1.79,0,0,1,16.26,34.56Zm0-2.35a.56.56,0,1,0,.56.56A.56.56,0,0,0,16.26,32.21Z"/><path class="cls-1" d="M25.24,33.38H22.4a.61.61,0,1,1,0-1.23h2.84a.61.61,0,1,1,0,1.23Z"/><path class="cls-1" d="M30,33.38H27.17a.61.61,0,1,1,0-1.23H30a.61.61,0,1,1,0,1.23Z"/></svg>