<svg id="DSSecurity" data-name="Layer 1" xmlns="http://www.w3.org/2000/svg" viewBox="0 0 50 50"><title>DeveloperServices-icons</title><path d="M35.24,17a10.7,10.7,0,0,0-10.07-7,11.11,11.11,0,0,0-10.28,7c-4.17.33-7.7,4.34-7.77,8.89a9.18,9.18,0,0,0,2.65,6.53,7.88,7.88,0,0,0,4.74,2.36V38a2,2,0,0,0,2.09,2H33.41a2,2,0,0,0,2.09-2V34.79c4-.51,7.31-4.43,7.38-8.86S39.42,17.3,35.24,17ZM29.43,32a.31.31,0,0,1,0,.62H29v.93h.39a.27.27,0,1,1,0,.54H29V35h.39a.27.27,0,1,1,0,.54H29v1.36c0,.19-.13.28-.32.28H27.57v.33a.31.31,0,0,1-.62,0V37.2H26v.33a.27.27,0,1,1-.54,0V37.2h-.93v.33a.31.31,0,0,1-.62,0V37.2h-.86v.33a.31.31,0,0,1-.62,0V37.2H21.2c-.19,0-.32-.09-.32-.28V35.57h-.32a.27.27,0,1,1,0-.54h.32v-.93h-.32a.27.27,0,1,1,0-.54h.32v-.93h-.32a.31.31,0,0,1,0-.62h.32v-.93h-.32a.27.27,0,1,1,0-.54h.32V29.4A.34.34,0,0,1,21.2,29h1.24v-.38a.31.31,0,0,1,.62,0V29h.86v-.38a.31.31,0,0,1,.62,0V29h.93v-.38a.27.27,0,1,1,.54,0V29h.93v-.38a.31.31,0,0,1,.62,0V29h1.16a.34.34,0,0,1,.32.36v1.12h.39a.27.27,0,1,1,0,.54H29V32ZM20.8,25.3V22.9a4.2,4.2,0,1,1,8.4,0V25.3Zm21.3.61a8.83,8.83,0,0,1-2.25,5.63A7.15,7.15,0,0,1,35.5,34V27.5a2.18,2.18,0,0,0-2.09-2.2H31.84V22.9a6.84,6.84,0,0,0-13.69,0V25.3H16.6a2.18,2.18,0,0,0-2.09,2.2V34a7,7,0,0,1-4.18-2.13,8.51,8.51,0,0,1-2.43-6c.07-4.17,3.47-8,7.28-8.14h.26l.09-.24a10.33,10.33,0,0,1,9.64-6.76,9.92,9.92,0,0,1,9.42,6.75l.09.26H35C38.83,17.89,42.17,21.69,42.1,25.92Z"/><rect x="21.53" y="29.62" width="6.94" height="6.94" rx="0.29" ry="0.29"/></svg>