<svg id="DSRots" data-name="Layer 1" xmlns="http://www.w3.org/2000/svg" viewBox="0 0 50 50"><defs><style>.cls-1{fill:none;}.cls-1,.cls-2{stroke:#000;stroke-miterlimit:10;}.cls-2{fill:#fff;}</style></defs><title>DeveloperServices-icons</title><line class="cls-1" x1="37.5" y1="30.56" x2="35.42" y2="30.56"/><line class="cls-1" x1="37.5" y1="27.78" x2="35.42" y2="27.78"/><line class="cls-1" x1="37.5" y1="25" x2="35.42" y2="25"/><line class="cls-1" x1="37.5" y1="22.22" x2="35.42" y2="22.22"/><line class="cls-1" x1="37.5" y1="19.44" x2="35.42" y2="19.44"/><line class="cls-1" x1="14.58" y1="30.56" x2="12.5" y2="30.56"/><line class="cls-1" x1="14.58" y1="27.78" x2="12.5" y2="27.78"/><line class="cls-1" x1="14.58" y1="25" x2="12.5" y2="25"/><line class="cls-1" x1="14.58" y1="22.22" x2="12.5" y2="22.22"/><line class="cls-1" x1="14.58" y1="19.44" x2="12.5" y2="19.44"/><line class="cls-1" x1="19.44" y1="37.5" x2="19.44" y2="35.42"/><line class="cls-1" x1="22.22" y1="37.5" x2="22.22" y2="35.42"/><line class="cls-1" x1="25" y1="37.5" x2="25" y2="35.42"/><line class="cls-1" x1="27.78" y1="37.5" x2="27.78" y2="35.42"/><line class="cls-1" x1="30.56" y1="37.5" x2="30.56" y2="35.42"/><line class="cls-1" x1="19.44" y1="14.58" x2="19.44" y2="12.5"/><line class="cls-1" x1="22.22" y1="14.58" x2="22.22" y2="12.5"/><line class="cls-1" x1="25" y1="14.58" x2="25" y2="12.5"/><line class="cls-1" x1="27.78" y1="14.58" x2="27.78" y2="12.5"/><line class="cls-1" x1="30.56" y1="14.58" x2="30.56" y2="12.5"/><rect class="cls-1" x="16.67" y="16.67" width="16.67" height="16.67"/><rect class="cls-2" x="22.22" y="22.22" width="5.56" height="5.56"/><line class="cls-1" x1="19.44" y1="21.53" x2="19.44" y2="22.92"/><line class="cls-1" x1="19.44" y1="24.31" x2="19.44" y2="25.69"/><line class="cls-1" x1="19.44" y1="27.08" x2="19.44" y2="28.47"/><line class="cls-1" x1="30.56" y1="21.53" x2="30.56" y2="22.92"/><line class="cls-1" x1="30.56" y1="24.31" x2="30.56" y2="25.69"/><line class="cls-1" x1="30.56" y1="27.08" x2="30.56" y2="28.47"/></svg>