<svg id="Layer_1" data-name="Layer 1" xmlns="http://www.w3.org/2000/svg" viewBox="0 0 50 50"><defs><style>.cls-1{fill:none;stroke:#000;stroke-miterlimit:10;stroke-width:1.5px;}</style></defs><title>DeveloperServices-icons</title><path class="cls-1" d="M29.68,21.75a2,2,0,0,1-2-2.14v-.71a2,2,0,1,1,4,0v.71A2,2,0,0,1,29.68,21.75Z"/><path class="cls-1" d="M27.18,37.75v-11a9.84,9.84,0,0,1-2,1,4.24,4.24,0,0,1-2-1,15.12,15.12,0,0,1-1.19-1,.72.72,0,0,1,.76-1.19l1.93.72c.75-.78,1.53-2,3.5-2h3.5c1.79,0,2.5.76,2.5,3v3c0,1.07-.43,1.5-1.5,1.5h-.5"/><line class="cls-1" x1="29.68" y1="30.75" x2="29.68" y2="37.75"/><line class="cls-1" x1="32.18" y1="26.25" x2="32.18" y2="37.75"/><polyline class="cls-1" points="25.68 32.75 13.18 32.75 13.18 14.25 36.18 14.25 36.18 32.75 33.68 32.75"/></svg>