<svg xmlns="http://www.w3.org/2000/svg" viewBox="0 0 3533 1751.84"><defs><style>.cls-1{fill:#b2b2b2;}.cls-2{fill:#c6c6c6;}.cls-3{fill:#dadada;}.cls-4{fill:none;}.cls-5{fill:#1d1d1b;stroke:#1d1d1b;stroke-miterlimit:10;stroke-width:0.55px;}.cls-6{fill:#ededed;}.cls-7{fill:#fff;}</style></defs><title>Artboard 4 copy 8</title><g id="icons"><path class="cls-1" d="M3539.65,1761.71V-9.87h-574.6c182.88,247.88,291,554.32,291,886,0,330.67-107.43,636.25-289.31,883.74h100v1.84Z"/><path class="cls-1" d="M563.18-9.87H-5.09V1761.71H275v-1.84H561.52C379.64,1512.38,272.21,1206.8,272.21,876.13,272.21,544.45,380.3,238,563.18-9.87Z"/><path class="cls-2" d="M1097.86,1760.79H561.52C379.64,1513.3,272.21,1207.72,272.21,877.05c0-331.68,108.09-638.12,291-886h537.69c-268.8,202.14-442.64,523.77-442.64,886C658.23,1237.93,830.77,1558.51,1097.86,1760.79Z"/><path class="cls-2" d="M3256,877.05c0,330.67-107.43,636.25-289.31,883.74H2430.37C2697.46,1558.51,2870,1237.93,2870,877.05c0-362.23-173.85-683.86-442.65-886h537.69C3147.93,238.93,3256,545.37,3256,877.05Z"/><path class="cls-3" d="M2431.74-8.95H1101.26c-268.81,202.14-442.65,523.77-442.65,886,0,360.88,172.55,681.46,439.64,883.74h1336.5c267.09-202.28,439.64-522.86,439.64-883.74C2874.39,514.82,2700.55,193.19,2431.74-8.95ZM1766.5,1584.33c-390.63,0-707.28-316.65-707.28-707.28s316.65-707.28,707.28-707.28,707.28,316.66,707.28,707.28S2157.12,1584.33,1766.5,1584.33Z"/><path class="cls-4" d="M1341.81,876l0-.06h0Z"/><path class="cls-4" d="M1261.8,876l-.11,0C1261.79,875.8,1261.8,876,1261.8,876Z"/><path class="cls-4" d="M1222.66,876.2c0-.19,0-.37-.05-.56"/><path class="cls-4" d="M1250.07,875.91h-.42"/><path class="cls-5" d="M2186.35,876.25v-.66A2.91,2.91,0,0,0,2186.35,876.25Z"/><path class="cls-5" d="M2184,876.25v-.66A2.91,2.91,0,0,0,2184,876.25Z"/><path class="cls-6" d="M1766.5,168.64c-390.63,0-707.28,316.66-707.28,707.28s316.65,707.28,707.28,707.28,707.28-316.66,707.28-707.28S2157.12,168.64,1766.5,168.64Zm0,1012.69c-168.67,0-305.41-136.74-305.41-305.41s136.74-305.41,305.41-305.41,305.41,136.73,305.41,305.41S1935.17,1181.33,1766.5,1181.33Z"/><circle class="cls-7" cx="2169.38" cy="875.92" r="17.31"/><circle class="cls-7" cx="2243.17" cy="875.92" r="17.31"/><circle class="cls-7" cx="2316.97" cy="875.92" r="17.31"/><circle class="cls-7" cx="2390.77" cy="875.92" r="17.31"/><circle class="cls-7" cx="2464.56" cy="875.92" r="17.31"/><circle class="cls-7" cx="2538.36" cy="875.92" r="17.31"/><circle class="cls-7" cx="2612.16" cy="875.92" r="17.31"/><circle class="cls-7" cx="2685.95" cy="875.92" r="17.31"/><circle class="cls-7" cx="2759.75" cy="875.92" r="17.31"/><circle class="cls-7" cx="2833.55" cy="875.92" r="17.31"/><circle class="cls-7" cx="2907.34" cy="875.92" r="17.31"/><circle class="cls-7" cx="2981.14" cy="875.92" r="17.31"/><circle class="cls-7" cx="3054.94" cy="875.92" r="17.31"/><circle class="cls-7" cx="3128.73" cy="875.92" r="17.31"/><circle class="cls-7" cx="3202.53" cy="875.92" r="17.31"/><circle class="cls-7" cx="3276.32" cy="875.92" r="17.31"/><circle class="cls-7" cx="3350.12" cy="875.92" r="17.31"/><circle class="cls-7" cx="3423.92" cy="875.92" r="17.31"/><circle class="cls-7" cx="3497.71" cy="875.92" r="17.31"/><circle class="cls-7" cx="40.41" cy="875.92" r="17.31"/><circle class="cls-7" cx="114.21" cy="875.92" r="17.31"/><circle class="cls-7" cx="188" cy="875.92" r="17.31"/><circle class="cls-7" cx="261.8" cy="875.92" r="17.31"/><circle class="cls-7" cx="335.6" cy="875.92" r="17.31"/><circle class="cls-7" cx="409.39" cy="875.92" r="17.31"/><circle class="cls-7" cx="483.19" cy="875.92" r="17.31"/><circle class="cls-7" cx="556.99" cy="875.92" r="17.31"/><circle class="cls-7" cx="630.78" cy="875.92" r="17.31"/><circle class="cls-7" cx="704.58" cy="875.92" r="17.31"/><circle class="cls-7" cx="778.38" cy="875.92" r="17.31"/><circle class="cls-7" cx="852.17" cy="875.92" r="17.31"/><circle class="cls-7" cx="925.97" cy="875.92" r="17.31"/><circle class="cls-7" cx="999.77" cy="875.92" r="17.31"/><circle class="cls-7" cx="1073.56" cy="875.92" r="17.31"/><circle class="cls-7" cx="1147.36" cy="875.92" r="17.31"/><circle class="cls-7" cx="1221.15" cy="875.92" r="17.31"/><circle class="cls-7" cx="1294.95" cy="875.92" r="17.31"/><circle class="cls-7" cx="1368.75" cy="875.92" r="17.31"/></g></svg>