<svg id="background" xmlns="http://www.w3.org/2000/svg" viewBox="0 0 39.09 38.86"><defs><style>.cls-1{fill:#9d9d9c;}</style></defs><rect class="cls-1" x="5.02" y="6.39" width="4.39" height="4.39"/><rect class="cls-1" x="5.02" y="12.16" width="4.39" height="4.39"/><rect class="cls-1" x="5.02" y="17.93" width="4.39" height="4.39"/><rect class="cls-1" x="5.02" y="23.7" width="4.39" height="4.39"/><rect class="cls-1" x="5.02" y="29.47" width="4.39" height="4.39"/><rect class="cls-1" x="11.24" y="6.39" width="4.39" height="4.39"/><rect class="cls-1" x="10.63" y="12.16" width="4.39" height="4.39"/><rect class="cls-1" x="10.63" y="17.93" width="4.39" height="4.39"/><rect class="cls-1" x="10.63" y="23.7" width="4.39" height="4.39"/><rect class="cls-1" x="10.63" y="29.47" width="4.39" height="4.39"/><rect class="cls-1" x="17.45" y="4.2" width="4.39" height="4.39"/><rect class="cls-1" x="16.23" y="11.07" width="4.39" height="4.39"/><rect class="cls-1" x="16.23" y="17.93" width="4.39" height="4.39"/><rect class="cls-1" x="16.23" y="23.7" width="4.39" height="4.39"/><rect class="cls-1" x="16.23" y="29.47" width="4.39" height="4.39"/><rect class="cls-1" x="22.93" y="4.2" width="4.39" height="4.39"/><rect class="cls-1" x="21.83" y="9.97" width="4.39" height="4.39"/><rect class="cls-1" x="24.03" y="16.56" width="4.39" height="4.39"/><rect class="cls-1" x="21.83" y="23.7" width="4.39" height="4.39"/><rect class="cls-1" x="21.83" y="29.47" width="4.39" height="4.39"/><rect class="cls-1" x="29.63" y="3.71" width="4.39" height="4.39"/><rect class="cls-1" x="29.63" y="12.16" width="4.39" height="4.39"/><rect class="cls-1" x="29.63" y="18.75" width="4.39" height="4.39"/><rect class="cls-1" x="27.44" y="23.7" width="4.39" height="4.39"/><rect class="cls-1" x="27.44" y="29.47" width="4.39" height="4.39"/></svg>