<svg id="background" xmlns="http://www.w3.org/2000/svg" xmlns:xlink="http://www.w3.org/1999/xlink" viewBox="0 0 39.09 38.86"><defs><style>.cls-1{fill:none;}.cls-2{fill:#9d9d9c;}.cls-3{clip-path:url(#clip-path);}</style><clipPath id="clip-path"><polygon class="cls-1" points="19.53 8.56 9.54 18.94 9.54 32.12 29.5 32.12 29.5 18.73 19.53 8.56"/></clipPath></defs><polygon class="cls-2" points="5.67 36.01 5.67 19.97 7.44 19.97 7.44 34.25 31.6 34.25 31.6 19.97 33.36 19.97 33.36 36.01 5.67 36.01"/><polygon class="cls-2" points="19.34 4.3 4.1 19.54 2.86 18.3 19.34 1.81 36.18 18.65 34.94 19.89 19.34 4.3"/><g class="cls-3"><path class="cls-2" d="M9.11,21.91c.8.78,1,1.45.61,1.87s-1,.2-1.82-.55-1-1.46-.6-1.84S8.35,21.19,9.11,21.91ZM8.15,23c.62.59,1.11.78,1.34.54s0-.75-.62-1.34-1.08-.81-1.33-.54S7.51,22.36,8.15,23Z"/><path class="cls-2" d="M10.55,20.42c.8.77,1,1.44.61,1.86s-1,.2-1.82-.54-1-1.46-.59-1.85S9.79,19.69,10.55,20.42Zm-1,1.06c.62.6,1.11.78,1.34.55s0-.76-.61-1.34S9.24,19.88,9,20.14,9,20.86,9.59,21.48Z"/><path class="cls-2" d="M10.45,18.8h0l-.1.55-.29-.19.12-.68.21-.22,2.37,2.28-.24.25Z"/><path class="cls-2" d="M11.89,17.3h0l-.1.54-.29-.18.12-.68.21-.22,2.37,2.28L14,19.3Z"/><path class="cls-2" d="M14.87,15.93c.81.78,1,1.45.62,1.87s-1,.2-1.82-.55-1-1.46-.6-1.85S14.12,15.21,14.87,15.93ZM13.92,17c.61.59,1.11.78,1.33.54s0-.75-.61-1.34-1.08-.81-1.34-.54S13.27,16.38,13.92,17Z"/><path class="cls-2" d="M14.78,14.31h0l-.09.54-.3-.18.13-.69.21-.21,2.36,2.28-.23.25Z"/><path class="cls-2" d="M17.75,12.94c.81.78,1,1.45.62,1.86s-1,.21-1.82-.54-1-1.46-.6-1.85S17,12.22,17.75,12.94ZM16.8,14c.61.59,1.11.77,1.34.54s0-.75-.62-1.34-1.08-.81-1.33-.54S16.15,13.38,16.8,14Z"/><path class="cls-2" d="M17.66,11.32h0l-.09.54-.29-.19.12-.68.21-.21L20,13.07l-.24.24Z"/><path class="cls-2" d="M20.64,10c.8.78,1,1.44.61,1.86s-1,.21-1.82-.54-1-1.46-.6-1.85S19.88,9.23,20.64,10Zm-1,1.07c.62.59,1.11.77,1.34.54s0-.76-.62-1.34-1.08-.81-1.33-.54S19,10.39,19.68,11Z"/><path class="cls-2" d="M20.54,8.33h0l-.1.54-.29-.19L20.27,8l.21-.22,2.37,2.29-.24.24Z"/><path class="cls-2" d="M7.62,30.49h0L7.52,31l-.29-.19.12-.68L7.56,30l2.37,2.28-.24.25Z"/><path class="cls-2" d="M10.6,29.12c.8.77,1,1.44.61,1.86s-1,.2-1.82-.54-1-1.46-.6-1.85S9.84,28.39,10.6,29.12Zm-1,1.06c.62.6,1.11.78,1.34.55s0-.76-.62-1.34S9.28,28.58,9,28.84,9,29.56,9.64,30.18Z"/><path class="cls-2" d="M10.5,27.5h0l-.1.55-.29-.19.12-.68.21-.22,2.37,2.28-.24.25Z"/><path class="cls-2" d="M13.48,26.13c.8.77,1,1.44.61,1.86s-1,.2-1.82-.55-1-1.46-.59-1.84S12.73,25.4,13.48,26.13Zm-1,1.06c.62.6,1.11.78,1.34.55s0-.76-.61-1.34-1.08-.81-1.34-.55S11.88,26.57,12.52,27.19Z"/><path class="cls-2" d="M14.92,24.63c.81.78,1,1.45.61,1.87s-1,.2-1.82-.55-1-1.46-.59-1.85S14.17,23.91,14.92,24.63ZM14,25.7c.61.59,1.11.78,1.33.54s0-.75-.61-1.34-1.08-.81-1.34-.54S13.32,25.08,14,25.7Z"/><path class="cls-2" d="M14.83,23h0l-.1.54-.29-.18.12-.69.22-.21,2.36,2.28-.24.25Z"/><path class="cls-2" d="M17.8,21.64c.81.78,1,1.45.62,1.86s-1,.21-1.82-.54-1-1.46-.6-1.85S17.05,20.92,17.8,21.64Zm-.95,1.07c.61.59,1.11.77,1.33.54s0-.75-.61-1.34-1.08-.81-1.34-.54S16.2,22.08,16.85,22.71Z"/><path class="cls-2" d="M17.71,20h0l-.09.54-.29-.19.12-.68.21-.21L20,21.77l-.23.24Z"/><path class="cls-2" d="M20.69,18.65c.8.78,1,1.44.61,1.86s-1,.21-1.82-.54-1-1.46-.6-1.85S19.93,17.93,20.69,18.65Zm-1,1.07c.62.59,1.11.77,1.34.54s0-.76-.62-1.34-1.08-.81-1.33-.54S19.09,19.09,19.73,19.72Z"/><path class="cls-2" d="M20.59,17h0l-.09.54-.29-.19.12-.68.21-.22,2.37,2.29-.24.24Z"/><path class="cls-2" d="M23.57,15.66c.8.78,1,1.44.61,1.86s-1,.21-1.82-.54-1-1.46-.59-1.85S22.81,14.93,23.57,15.66Zm-1,1.07c.62.59,1.11.77,1.34.54s0-.76-.61-1.34-1.09-.81-1.34-.54S22,16.1,22.61,16.73Z"/><path class="cls-2" d="M23.47,14h0l-.1.54-.29-.19.12-.68.21-.22,2.37,2.29-.24.24Z"/><path class="cls-2" d="M26.45,12.67c.81.78,1,1.44.61,1.86s-1,.21-1.82-.54-1-1.46-.59-1.85S25.7,11.94,26.45,12.67Zm-.95,1.06c.61.6,1.11.78,1.33.55s0-.76-.61-1.34-1.08-.81-1.34-.54S24.85,13.11,25.5,13.73Z"/><path class="cls-2" d="M14.87,31.71h0l-.1.54-.29-.18.12-.69.21-.21,2.37,2.28-.24.25Z"/><path class="cls-2" d="M17.85,30.34c.81.78,1,1.45.62,1.86s-1,.21-1.82-.54-1-1.46-.6-1.85S17.1,29.62,17.85,30.34Zm-1,1.07c.61.59,1.11.77,1.33.54s0-.75-.61-1.34-1.08-.81-1.34-.54S16.25,30.78,16.9,31.41Z"/><path class="cls-2" d="M19.29,28.85c.81.77,1,1.44.62,1.86s-1,.2-1.82-.55-1-1.46-.6-1.84S18.54,28.12,19.29,28.85Zm-.95,1.06c.61.59,1.11.78,1.33.55s0-.76-.61-1.34-1.08-.81-1.34-.55S17.69,29.29,18.34,29.91Z"/><path class="cls-2" d="M19.2,27.23h0l-.09.55-.3-.19.13-.68.21-.22L21.5,29l-.23.25Z"/><path class="cls-2" d="M22.17,25.86c.81.77,1,1.44.62,1.86s-1,.2-1.82-.55-1-1.46-.6-1.84S21.42,25.13,22.17,25.86Zm-1,1.06c.62.59,1.11.78,1.34.55s0-.76-.62-1.34-1.08-.81-1.33-.55S20.58,26.3,21.22,26.92Z"/><path class="cls-2" d="M22.08,24.24h0l-.09.54-.29-.18.12-.68L22,23.7,24.39,26l-.24.25Z"/><path class="cls-2" d="M25.06,22.87c.8.77,1,1.44.61,1.86s-1,.2-1.82-.55-1-1.46-.59-1.84S24.3,22.14,25.06,22.87Zm-1,1.06c.62.59,1.11.78,1.34.55s0-.76-.62-1.34-1.08-.81-1.33-.55S23.46,23.31,24.1,23.93Z"/><path class="cls-2" d="M25,21.24h0l-.1.54-.29-.18.12-.68.21-.22L27.27,23l-.24.25Z"/><path class="cls-2" d="M27.94,19.88c.8.77,1,1.44.61,1.86s-1,.2-1.82-.55-1-1.46-.59-1.84S27.19,19.15,27.94,19.88Zm-1,1.06c.62.59,1.12.78,1.34.54s0-.75-.61-1.33-1.08-.81-1.34-.55S26.34,20.32,27,20.94Z"/><path class="cls-2" d="M27.84,18.25h0l-.1.54-.29-.18.12-.68.22-.22L30.15,20l-.24.25Z"/><path class="cls-2" d="M30.82,16.88c.81.78,1,1.45.62,1.87s-1,.2-1.82-.55-1-1.46-.6-1.84S30.07,16.16,30.82,16.88ZM29.87,18c.61.59,1.11.78,1.33.54s0-.75-.61-1.33-1.08-.82-1.34-.55S29.22,17.33,29.87,18Z"/><path class="cls-2" d="M22.13,32.94h0l-.09.54-.29-.18.12-.68.21-.22,2.37,2.28-.24.25Z"/><path class="cls-2" d="M25.11,31.57c.8.77,1,1.44.61,1.86s-1,.2-1.82-.55-1-1.46-.6-1.84S24.35,30.84,25.11,31.57Zm-1,1.06c.62.59,1.11.78,1.34.55s0-.76-.62-1.34-1.08-.81-1.33-.55S23.51,32,24.15,32.63Z"/><path class="cls-2" d="M25,29.94h0l-.1.54-.29-.18.12-.68.21-.22,2.37,2.28-.24.25Z"/><path class="cls-2" d="M28,28.58c.8.77,1,1.44.61,1.86s-1,.2-1.82-.55-1-1.46-.59-1.84S27.23,27.85,28,28.58Zm-1,1.06c.62.59,1.11.78,1.34.54s0-.75-.61-1.33-1.08-.81-1.34-.55S26.39,29,27,29.64Z"/><path class="cls-2" d="M27.89,27h0l-.1.54-.29-.18.12-.68.21-.22L30.2,28.7,30,29Z"/><path class="cls-2" d="M30.87,25.58c.81.78,1,1.45.62,1.87s-1,.2-1.83-.55-1-1.46-.59-1.84S30.12,24.86,30.87,25.58Zm-.95,1.07c.61.59,1.11.78,1.33.54s0-.75-.61-1.33-1.08-.82-1.34-.55S29.27,26,29.92,26.65Z"/></g></svg>