<svg xmlns="http://www.w3.org/2000/svg" viewBox="0 0 100 100"><defs><style>.cls-1,.cls-3{fill:#9d9d9c;}.cls-1{stroke:#fff;stroke-miterlimit:10;stroke-width:0.86px;}.cls-2{fill:#fff;}</style></defs><title>HPC grey</title><g id="icons"><path class="cls-1" d="M82.14,29.13c-6.81-2.47-16.72-3.65-29-2.92-16.78,1-35,10.21-38.09,12.28,4.08-1.59,13.55-6.34,20.84-6.1A210.34,210.34,0,0,1,17.44,42.85c-8.47,4-9.08,4-14.52,4.81,17.2,2.43,22.74,3,25,3.22-3.51,3.18-10.75,4-15,4.64,9.89,2.12,19.4,3.85,23.33,9.11-4.92-1.71-13.94-1.89-14.57-1.92.91.42,14.68,7.36,16.46,8a39.65,39.65,0,0,1-10.63-.81C39.6,79.54,51.19,80.06,62.52,78.8a5.85,5.85,0,0,1-3.21-1.69l2.43-10.62s1-19.54,7.9-30.66C73.26,30,82,29.1,82.14,29.13Z"/><path class="cls-2" d="M63.27,79.34a7,7,0,0,1-5.44-2.63H45a2.92,2.92,0,0,1-2.92-2.92V71A2.92,2.92,0,0,1,45,68.05H57.83a7.33,7.33,0,0,1,1.7-1.54H46.38a4.33,4.33,0,0,1-4.33-4.33V56.72a4.29,4.29,0,0,1,1.46-3.24,4.31,4.31,0,0,1-1.46-3.24V44.77a4.31,4.31,0,0,1,1.27-3.06l.19-.18a4.29,4.29,0,0,1-1.46-3.23V32.83a4.33,4.33,0,0,1,4.33-4.33h35a4.34,4.34,0,0,1,4.33,4.33v5.46a4.29,4.29,0,0,1-1.46,3.24,4.31,4.31,0,0,1,1.46,3.24v5.47A4.31,4.31,0,0,1,84.4,53.3l-.18.18a4.32,4.32,0,0,1,1.45,3.23v5.47a4.33,4.33,0,0,1-4.33,4.33H67.15v.09a7.2,7.2,0,0,1,1.57,1.45h14A2.91,2.91,0,0,1,85.67,71v2.83a2.92,2.92,0,0,1-2.91,2.92h-14a7,7,0,0,1-5.45,2.63Zm14-18.66h2.58V58.22H77.26Zm0-11.94h2.58V46.27H77.26Zm0-12h2.58V34.33H77.26Z"/><path class="cls-3" d="M83.94,71a1.18,1.18,0,0,0-1.18-1.18h-15a5.29,5.29,0,0,0-2.4-2.18V64.77H81.34a2.59,2.59,0,0,0,2.6-2.59V56.71a2.6,2.6,0,0,0-2.6-2.59H65.41V52.83H81.34a2.6,2.6,0,0,0,2.6-2.59V44.77a2.6,2.6,0,0,0-2.6-2.59H65.41V40.89H81.34a2.6,2.6,0,0,0,2.59-2.6V32.83a2.6,2.6,0,0,0-2.59-2.6h-35a2.6,2.6,0,0,0-2.6,2.59V38.3a2.61,2.61,0,0,0,2.6,2.59H61.29v1.29H46.38a2.6,2.6,0,0,0-2.6,2.59v5.47a2.6,2.6,0,0,0,2.6,2.59H61.29v1.29H46.38a2.61,2.61,0,0,0-2.6,2.6v5.46a2.61,2.61,0,0,0,2.6,2.6H61.29v2.78a5.21,5.21,0,0,0-2.55,2.24H45A1.18,1.18,0,0,0,43.81,71v2.82A1.18,1.18,0,0,0,45,75H58.74a5.22,5.22,0,0,0,9.07,0h15a1.18,1.18,0,0,0,1.18-1.18Zm-2.6-14.48a.23.23,0,0,1,.24.23v5.47a.24.24,0,0,1-.24.24H75.53V56.48Zm0-11.95a.24.24,0,0,1,.24.24v5.47a.23.23,0,0,1-.24.23H75.52V44.54Zm0-11.94a.24.24,0,0,1,.24.24v5.46a.24.24,0,0,1-.24.24H75.52V32.59Z"/></g></svg>