<svg id="HPCIcon" data-name="Layer 1" xmlns="http://www.w3.org/2000/svg" xmlns:xlink="http://www.w3.org/1999/xlink" viewBox="0 0 440 504"><defs><style>.cls-1{fill:#0083ad;}.cls-2{fill:url(#linear-gradient);}.cls-3{fill:#fff;}</style><linearGradient id="linear-gradient" x1="258" y1="21.78" x2="399.3" y2="227.61" gradientUnits="userSpaceOnUse"><stop offset="0" stop-color="#909"/><stop offset="0.99" stop-color="#0082af"/></linearGradient></defs><title>HPC-SIG</title><path class="cls-1" d="M278.53,171.68H340a22.81,22.81,0,0,0,22.78-22.78v-48A22.81,22.81,0,0,0,340,78.08H278.53l-245.75,0A22.81,22.81,0,0,0,10,100.89v48A22.82,22.82,0,0,0,32.79,171.7h131V183h-131A22.81,22.81,0,0,0,10,205.83v48A22.81,22.81,0,0,0,32.8,276.64h131V288H32.8A22.79,22.79,0,0,0,10,310.77v48A22.81,22.81,0,0,0,32.8,381.58h131v24.35a46.26,46.26,0,0,0-22.4,19.69H20.58A10.36,10.36,0,0,0,10.22,436v24.86a10.35,10.35,0,0,0,10.36,10.35H141.43a45.87,45.87,0,0,0,79.67,0H352.46a10.35,10.35,0,0,0,10.35-10.36V436a10.35,10.35,0,0,0-10.35-10.36H221.09a46.15,46.15,0,0,0-21-19.08v-25H340a22.81,22.81,0,0,0,22.78-22.78v-48A22.81,22.81,0,0,0,340,288h-140V276.62H340a22.81,22.81,0,0,0,22.78-22.78v-48A22.82,22.82,0,0,0,340,183h-140V171.68Zm63.54-70.81v48A2.07,2.07,0,0,1,340,151H288.89V98.8H340A2.06,2.06,0,0,1,342.07,100.87Zm0,209.88v48a2.07,2.07,0,0,1-2.07,2.07H288.9V308.68H340A2.07,2.07,0,0,1,342.09,310.75Zm0-104.94v48A2.07,2.07,0,0,1,340,255.9H288.89V203.74H340A2.07,2.07,0,0,1,342.08,205.81Z"/><path class="cls-2" d="M315.92,233.42,238.9,189a24.06,24.06,0,0,1-12-20.83V79.2a24.06,24.06,0,0,1,12-20.83l77-44.46a24,24,0,0,1,24.05,0l77,44.46A24.06,24.06,0,0,1,429,79.2v88.93A24.06,24.06,0,0,1,417,189l-77,44.46A24,24,0,0,1,315.92,233.42Z"/><path class="cls-3" d="M327.94,237.63a25,25,0,0,1-12.52-3.35l-77-44.46a25.12,25.12,0,0,1-12.52-21.69V79.2A25.12,25.12,0,0,1,238.4,57.51l77-44.46a25.1,25.1,0,0,1,25,0l77,44.46A25.12,25.12,0,0,1,430,79.2v88.93a25.12,25.12,0,0,1-12.52,21.69l-77,44.46A25,25,0,0,1,327.94,237.63Zm0-225.94a23.09,23.09,0,0,0-11.53,3.08l-77,44.46a23.13,23.13,0,0,0-11.53,20v88.93a23.11,23.11,0,0,0,11.53,20l77,44.47a23.15,23.15,0,0,0,23.06,0l77-44.47a23.11,23.11,0,0,0,11.53-20V79.2a23.13,23.13,0,0,0-11.53-20l-77-44.46A23.09,23.09,0,0,0,327.94,11.69Z"/><circle class="cls-3" cx="366.3" cy="96.61" r="14.18" transform="matrix(0.16, -0.99, 0.99, 0.16, 212.27, 442.71)"/><circle class="cls-3" cx="289.75" cy="96.61" r="14.18"/><circle class="cls-3" cx="328.03" cy="72.31" r="14.18" transform="translate(182.28 374.95) rotate(-76.72)"/><path class="cls-3" d="M303.93,158a14.18,14.18,0,0,0-11.65-13.95V115.78a19.2,19.2,0,0,1-2.53.17,19.9,19.9,0,0,1-2.45-.16v28.28a14.18,14.18,0,1,0,16.63,14Z"/><path class="cls-3" d="M342.21,182.34a14.2,14.2,0,0,0-11.39-13.91v-77a19.81,19.81,0,0,1-2.79.21,19.49,19.49,0,0,1-2.18-.13v76.79a14.18,14.18,0,1,0,16.36,14Z"/><circle class="cls-3" cx="251.47" cy="127.32" r="14.18" transform="translate(37.6 310.93) rotate(-67.5)"/><path class="cls-3" d="M366.3,116a17.33,17.33,0,0,1-1.91-.1V144a14.18,14.18,0,1,0,5,.2V115.71A20.49,20.49,0,0,1,366.3,116Z"/><circle class="cls-3" cx="404.41" cy="127.32" r="14.18" transform="translate(-12.53 50.37) rotate(-7.02)"/></svg>