<svg xmlns="http://www.w3.org/2000/svg" xmlns:xlink="http://www.w3.org/1999/xlink" viewBox="0 0 300 300"><defs><style>.cls-1{fill:#1d1d1b;opacity:0.2;}.cls-2{fill:url(#linear-gradient);}.cls-3{fill:url(#linear-gradient-2);}.cls-4{fill:url(#linear-gradient-3);}.cls-5{fill:url(#linear-gradient-4);}.cls-6,.cls-7{fill:#fff;}.cls-6{stroke:#fff;stroke-miterlimit:10;stroke-width:7px;}.cls-8{fill:#0083ad;}</style><linearGradient id="linear-gradient" x1="59.53" y1="99.68" x2="145.79" y2="99.68" gradientUnits="userSpaceOnUse"><stop offset="0" stop-color="#0083ad" stop-opacity="0"/><stop offset="0.22" stop-color="#0083ad" stop-opacity="0.02"/><stop offset="0.37" stop-color="#0083ad" stop-opacity="0.07"/><stop offset="0.5" stop-color="#0083ad" stop-opacity="0.16"/><stop offset="0.63" stop-color="#0083ad" stop-opacity="0.29"/><stop offset="0.74" stop-color="#0083ad" stop-opacity="0.45"/><stop offset="0.85" stop-color="#0083ad" stop-opacity="0.66"/><stop offset="0.96" stop-color="#0083ad" stop-opacity="0.89"/><stop offset="1" stop-color="#0083ad"/></linearGradient><linearGradient id="linear-gradient-2" x1="56.37" y1="130.13" x2="142.62" y2="130.13" xlink:href="#linear-gradient"/><linearGradient id="linear-gradient-3" x1="53.22" y1="160.38" x2="139.47" y2="160.38" xlink:href="#linear-gradient"/><linearGradient id="linear-gradient-4" x1="50.5" y1="193.33" x2="135.33" y2="193.33" xlink:href="#linear-gradient"/></defs><title>HPC</title><g id="Background"><rect class="cls-1" x="-658.62" y="-387.55" width="1295.51" height="2590.82"/></g><g id="shadow"><polygon class="cls-2" points="142.99 113.14 59.53 113.13 62.33 86.23 145.78 86.24 142.99 113.14"/><polygon class="cls-3" points="139.82 143.59 56.37 143.58 59.16 116.68 142.62 116.69 139.82 143.59"/><polygon class="cls-4" points="136.67 173.84 53.22 173.83 56.02 146.93 139.47 146.94 136.67 173.84"/><polygon class="cls-5" points="133.95 199.96 50.5 199.95 51.88 186.71 135.33 186.71 133.95 199.96"/><path class="cls-6" d="M167.8,210.78A14.88,14.88,0,0,1,155,204.11H122.5a6.18,6.18,0,0,1-6.24-7.39l1.12-7.17a9,9,0,0,1,8.53-7.39h32.54a22.66,22.66,0,0,1,4.93-3.9H130a9.17,9.17,0,0,1-9.26-11l2.16-13.85a13.11,13.11,0,0,1,5-8.21,9.47,9.47,0,0,1-2.42-8.2l2.15-13.85a13.06,13.06,0,0,1,4.42-7.76l.56-.45a9.46,9.46,0,0,1-2.42-8.21l2.15-13.84A13.32,13.32,0,0,1,145,82h88.59a9.32,9.32,0,0,1,7.26,3.21,9.54,9.54,0,0,1,2,7.76l-2.15,13.85a13.13,13.13,0,0,1-5,8.2,9.52,9.52,0,0,1,2.42,8.21L236,137a13,13,0,0,1-4.42,7.76l-.55.45a9.47,9.47,0,0,1,2.42,8.2l-2.16,13.85a13.31,13.31,0,0,1-12.67,11h-36l0,.23a14.52,14.52,0,0,1,3.41,3.67h35.56a6.16,6.16,0,0,1,6.24,7.38l-1.11,7.17a8.76,8.76,0,0,1-3,5.22,8.54,8.54,0,0,1-5.56,2.17H182.64a20.94,20.94,0,0,1-14.84,6.67Zm42.79-47.28h6.54l1-6.24h-6.53Zm4.71-30.26h6.54l1-6.25h-6.54ZM220,103h6.54l1-6.24H221Z"/></g><g id="icons"><path class="cls-7" d="M167.62,210.78a14.87,14.87,0,0,1-12.77-6.67H122.32a6.18,6.18,0,0,1-6.24-7.39l1.12-7.17a9,9,0,0,1,8.53-7.39h32.54a22.66,22.66,0,0,1,4.93-3.9H129.86a9.17,9.17,0,0,1-9.26-11l2.15-13.85a13.16,13.16,0,0,1,5-8.21,9.44,9.44,0,0,1-2.42-8.2l2.15-13.85a13.06,13.06,0,0,1,4.42-7.76l.56-.45a9.46,9.46,0,0,1-2.42-8.21l2.15-13.84a13.32,13.32,0,0,1,12.68-11h88.59a9.32,9.32,0,0,1,7.26,3.21,9.54,9.54,0,0,1,2,7.76l-2.15,13.85a13.17,13.17,0,0,1-5,8.2,9.52,9.52,0,0,1,2.42,8.21L235.84,137a13,13,0,0,1-4.42,7.76l-.55.45a9.47,9.47,0,0,1,2.42,8.2l-2.16,13.85a13.31,13.31,0,0,1-12.67,11h-36l0,.23a14.3,14.3,0,0,1,3.4,3.67h35.57a6.16,6.16,0,0,1,6.24,7.38l-1.11,7.17a8.76,8.76,0,0,1-3,5.22,8.54,8.54,0,0,1-5.56,2.17H182.45a20.9,20.9,0,0,1-14.83,6.67Zm42.79-47.28H217l1-6.24h-6.53Zm4.71-30.26h6.54l1-6.25h-6.54ZM219.83,103h6.54l1-6.24H220.8Z"/><path class="cls-8" d="M223.27,189.55a2.48,2.48,0,0,0-2.52-3H182.87a10.63,10.63,0,0,0-5.21-5.5l1.12-7.2h40.36a8,8,0,0,0,7.59-6.57l2.16-13.85a5.5,5.5,0,0,0-5.55-6.57H183l.51-3.27h40.36a8,8,0,0,0,7.59-6.57l2.16-13.85a5.49,5.49,0,0,0-5.55-6.57H187.69l.51-3.27h40.36a8,8,0,0,0,7.59-6.57l2.15-13.85a5.48,5.48,0,0,0-5.54-6.57h-88.6a8,8,0,0,0-7.59,6.57l-2.15,13.84a5.48,5.48,0,0,0,5.54,6.57h37.79l-.51,3.27H139.46a8,8,0,0,0-7.6,6.57l-2.15,13.85a5.49,5.49,0,0,0,5.55,6.57H173l-.51,3.28H134.75a8,8,0,0,0-7.59,6.57L125,167.31a5.49,5.49,0,0,0,5.55,6.57h37.78l-1.09,7a16.6,16.6,0,0,0-7.35,5.67H125.05a3.62,3.62,0,0,0-3.45,3l-1.12,7.17a2.48,2.48,0,0,0,2.52,3h34.85a11,11,0,0,0,10.45,6.67,15.92,15.92,0,0,0,12.53-6.67h37.88a3.62,3.62,0,0,0,3.45-3Zm-.86-36.7a.49.49,0,0,1,.5.6l-2.15,13.85a.73.73,0,0,1-.69.6H205.33l2.34-15Zm4.71-30.26a.5.5,0,0,1,.5.6L225.47,137a.73.73,0,0,1-.69.6H210l2.34-15Zm4.71-30.26a.5.5,0,0,1,.5.6l-2.15,13.85a.72.72,0,0,1-.69.59H214.74l2.34-15Z"/></g></svg>