<svg xmlns="http://www.w3.org/2000/svg" xmlns:xlink="http://www.w3.org/1999/xlink" viewBox="0 0 100 100"><defs><style>.cls-1{fill:url(#linear-gradient);}.cls-2{fill:url(#linear-gradient-2);}.cls-3{fill:url(#linear-gradient-3);}.cls-4{fill:url(#linear-gradient-4);}.cls-5{fill:#fff;}.cls-6{fill:#9d9d9c;}</style><linearGradient id="linear-gradient" x1="6.24" y1="31.9" x2="46.37" y2="31.9" gradientUnits="userSpaceOnUse"><stop offset="0" stop-color="#9d9d9c" stop-opacity="0"/><stop offset="0.22" stop-color="#9d9d9c" stop-opacity="0.02"/><stop offset="0.38" stop-color="#9d9d9c" stop-opacity="0.08"/><stop offset="0.52" stop-color="#9d9d9c" stop-opacity="0.18"/><stop offset="0.65" stop-color="#9d9d9c" stop-opacity="0.32"/><stop offset="0.77" stop-color="#9d9d9c" stop-opacity="0.5"/><stop offset="0.89" stop-color="#9d9d9c" stop-opacity="0.72"/><stop offset="0.99" stop-color="#9d9d9c" stop-opacity="0.98"/><stop offset="1" stop-color="#9d9d9c"/></linearGradient><linearGradient id="linear-gradient-2" x1="4.77" y1="44.39" x2="44.9" y2="44.39" xlink:href="#linear-gradient"/><linearGradient id="linear-gradient-3" x1="3.3" y1="56.79" x2="43.43" y2="56.79" xlink:href="#linear-gradient"/><linearGradient id="linear-gradient-4" x1="2.04" y1="70.3" x2="41.51" y2="70.3" xlink:href="#linear-gradient"/></defs><title>HPC col copy 2</title><g id="icons"><polygon class="cls-1" points="45.07 37.42 6.24 37.41 7.54 26.39 46.37 26.39 45.07 37.42"/><polygon class="cls-2" points="43.59 49.9 4.77 49.9 6.07 38.87 44.9 38.87 43.59 49.9"/><polygon class="cls-3" points="42.13 62.3 3.3 62.3 4.61 51.27 43.43 51.27 42.13 62.3"/><polygon class="cls-4" points="40.87 73.01 2.04 73.01 2.68 67.58 41.51 67.58 40.87 73.01"/><path class="cls-5" d="M55.2,77.45A6.1,6.1,0,0,1,50,74.72H36.63a2.53,2.53,0,0,1-2.56-3l.46-2.94a3.68,3.68,0,0,1,3.5-3H51.37a9.19,9.19,0,0,1,2-1.6H39.72a3.76,3.76,0,0,1-3.8-4.49L36.81,54a5.36,5.36,0,0,1,2-3.36,3.93,3.93,0,0,1-1-3.37l.89-5.68a5.3,5.3,0,0,1,1.81-3.18l.23-.18a3.93,3.93,0,0,1-1-3.37l.89-5.67a5.45,5.45,0,0,1,5.19-4.5H82.18a3.8,3.8,0,0,1,3,1.31A3.89,3.89,0,0,1,86,29.13l-.88,5.68a5.4,5.4,0,0,1-2,3.37,3.87,3.87,0,0,1,1,3.36l-.88,5.68a5.35,5.35,0,0,1-1.81,3.18l-.23.18a3.9,3.9,0,0,1,1,3.37l-.88,5.67a5.47,5.47,0,0,1-5.2,4.5H61.3v.1a5.68,5.68,0,0,1,1.39,1.5H77.26a2.53,2.53,0,0,1,2.56,3l-.46,2.94a3.58,3.58,0,0,1-1.22,2.14,3.51,3.51,0,0,1-2.28.88H61.28a8.61,8.61,0,0,1-6.08,2.73Z"/><path class="cls-6" d="M78,68.75a1,1,0,0,0-1-1.23H61.45a4.33,4.33,0,0,0-2.13-2.25l.46-2.95H76.32a3.28,3.28,0,0,0,3.12-2.7L80.32,54A2.26,2.26,0,0,0,78,51.25H61.5l.21-1.34H78.25a3.28,3.28,0,0,0,3.12-2.69l.88-5.68A2.25,2.25,0,0,0,80,38.85H63.43l.21-1.34H80.18a3.27,3.27,0,0,0,3.12-2.69l.88-5.68a2.25,2.25,0,0,0-2.28-2.69H45.58a3.27,3.27,0,0,0-3.11,2.7l-.88,5.67a2.25,2.25,0,0,0,2.27,2.7H59.35l-.21,1.34H43.65a3.27,3.27,0,0,0-3.11,2.69l-.88,5.68a2.25,2.25,0,0,0,2.27,2.69H57.42l-.21,1.34H41.72A3.26,3.26,0,0,0,38.61,54l-.88,5.68A2.25,2.25,0,0,0,40,62.32H55.49L55,65.2a6.75,6.75,0,0,0-3,2.33H37.75a1.48,1.48,0,0,0-1.42,1.22l-.46,2.94a1,1,0,0,0,1,1.22H51.2a4.51,4.51,0,0,0,4.28,2.74,6.52,6.52,0,0,0,5.13-2.74H76.14a1.49,1.49,0,0,0,1.42-1.22Zm-.36-15a.21.21,0,0,1,.21.25L77,59.62a.3.3,0,0,1-.29.25h-6l1-6.17Zm1.93-12.4a.2.2,0,0,1,.21.24l-.88,5.68a.3.3,0,0,1-.29.24h-6l1-6.16Zm1.93-12.41a.2.2,0,0,1,.21.24l-.88,5.68a.3.3,0,0,1-.29.25h-6l1-6.17Z"/></g></svg>