<?xml version="1.0" encoding="UTF-8"?>
<svg id="icons" xmlns="http://www.w3.org/2000/svg" viewBox="0 0 70 70">
  <defs>
    <style>
      .cls-1 {
        stroke: #9c3;
        stroke-width: 6px;
      }

      .cls-1, .cls-2 {
        fill: none;
        stroke-miterlimit: 10;
      }

      .cls-2 {
        opacity: .1;
        stroke: #000;
        stroke-width: 5px;
      }

      .cls-3 {
        stroke-width: 0px;
      }
    </style>
  </defs>
  <g>
    <path class="cls-3" d="M39.59,45.44h-13.17c-.27,0-.49-.22-.49-.49s.22-.49.49-.49h12.98l10.04-9.45c-1.41-1.21-2.75-1.22-4.32-.04-2.11,1.58-5.2,3.92-5.2,3.92l-.59-.78s3.1-2.34,5.21-3.93c2.08-1.56,4.08-1.4,5.96.47.09.09.15.22.15.35s-.05.25-.15.35l-10.56,9.94c-.09.08-.21.14-.34.14h0Z"/>
    <path class="cls-3" d="M39.75,41.23h-8.26c-.27,0-.49-.22-.49-.49s.22-.49.49-.49h7.75c-.2-2.19-1.72-2.37-2.21-2.37h-3.93c-.1,0-.19-.03-.27-.08-1.77-1.19-2.81-1.4-4.84-1.4-2.44,0-4.36,1.21-6.83,4.32-.17.21-.47.25-.68.07-.21-.16-.25-.47-.07-.68,2.65-3.33,4.85-4.68,7.6-4.68,2.07,0,3.34.22,5.26,1.48h3.78c1.47,0,3.2,1,3.2,3.84,0,.27-.22.49-.49.49Z"/>
    <path class="cls-3" d="M25.21,50.67c-.11,0-.22-.04-.31-.11-.21-.17-.24-.48-.06-.69l2.49-2.99-8.8-7.33-2.49,2.99c-.17.21-.48.24-.69.06s-.24-.48-.06-.69l2.81-3.36c.17-.21.48-.24.69-.06l9.55,7.96c.1.08.16.2.17.33s-.03.25-.11.35l-2.81,3.36c-.1.12-.24.17-.37.17h0Z"/>
    <path class="cls-3" d="M18.69,42.93c-.28.35-.24.85.1,1.14.35.28.85.24,1.14-.1s.24-.85-.1-1.14c-.35-.28-.85-.24-1.14.1Z"/>
    <path class="cls-3" d="M35.5,35.16c-4.27,0-7.75-3.48-7.75-7.75s3.48-7.75,7.75-7.75,7.75,3.48,7.75,7.75-3.48,7.75-7.75,7.75ZM35.5,20.78c-3.65,0-6.63,2.97-6.63,6.63s2.97,6.63,6.63,6.63,6.63-2.97,6.63-6.63-2.97-6.63-6.63-6.63Z"/>
    <path class="cls-3" d="M32.83,28.98c.07.1.11.21.11.32s-.04.2-.11.27-.17.11-.29.11c-.07,0-.16-.02-.26-.06-.17-.13-.36-.26-.58-.43-.22-.16-.43-.32-.65-.49-.22-.16-.44-.33-.65-.49s-.41-.31-.59-.43c-.11-.11-.16-.23-.16-.35,0-.14.06-.26.2-.36.04-.03.11-.09.24-.19.12-.1.26-.21.44-.35.17-.13.35-.27.55-.43s.37-.29.55-.43.32-.25.45-.35.2-.16.23-.18c.09-.04.16-.05.23-.05.12,0,.22.04.29.12.07.07.12.17.12.28,0,.12-.05.24-.14.35-.12.1-.26.22-.45.35-.18.14-.36.28-.55.44-.19.15-.38.3-.55.44s-.33.25-.45.35c.14.1.3.22.48.35.18.14.36.27.55.42s.37.28.55.42.35.25.48.35h0Z"/>
    <path class="cls-3" d="M36.05,23.51c.08-.19.2-.3.35-.33.1-.02.2,0,.29.06s.15.15.17.27c0,.06,0,.14-.02.24-.32,1.27-.65,2.54-.97,3.8-.33,1.26-.65,2.53-.98,3.81-.05.08-.1.15-.15.19-.06.05-.13.06-.19.07-.1.02-.2,0-.28-.07-.09-.06-.15-.16-.16-.3v-.06s-.02-.05,0-.08c.32-1.27.65-2.54.97-3.8.33-1.26.65-2.53.98-3.81h0Z"/>
    <path class="cls-3" d="M38.16,28.98c.14-.1.3-.22.48-.35s.36-.27.55-.42c.18-.15.37-.28.55-.42s.35-.25.48-.35c-.12-.1-.26-.21-.45-.35-.18-.14-.36-.28-.56-.44-.19-.15-.38-.3-.55-.44-.18-.14-.33-.25-.45-.35-.09-.11-.14-.23-.14-.35,0-.11.04-.2.11-.28.07-.07.17-.12.29-.12.06,0,.14.02.23.05.04.02.11.08.24.18.12.1.26.22.44.35.17.13.35.27.55.43.19.15.37.29.55.43.17.13.32.25.44.35s.2.16.24.19c.13.1.2.23.2.36,0,.12-.05.23-.16.35-.17.13-.36.26-.58.43s-.44.33-.65.49l-.65.49c-.22.15-.41.3-.58.43-.09.05-.17.06-.26.06-.12,0-.22-.04-.29-.11s-.11-.16-.11-.27.04-.22.11-.32h0Z"/>
  </g>
  <circle class="cls-2" cx="35" cy="35" r="30.42"/>
  <circle class="cls-1" cx="35" cy="35" r="25.16"/>
</svg>