<svg id="Layer_1" data-name="Layer 1" xmlns="http://www.w3.org/2000/svg" viewBox="0 0 44 44"><defs><style>.cls-1{fill:#9ac43a;}.cls-2,.cls-3{fill:#fff;}.cls-3{stroke:#fff;stroke-miterlimit:10;stroke-width:0.2px;}</style></defs><circle class="cls-1" cx="22" cy="22" r="22"/><path class="cls-2" d="M22,1.45A20.53,20.53,0,0,0,8.79,37.71h0A20.54,20.54,0,1,0,22,1.45ZM35.18,37.22c-.16.15-.34.29-.51.43a20.1,20.1,0,0,1-25.46-.09l-.41-.34a20.16,20.16,0,1,1,26.38,0Z"/><path class="cls-2" d="M24.52,9.09l-3,9.9h11L17.89,35.42l-.15-.08,4.73-12.47H12.6L24.29,9Z"/><path class="cls-3" d="M22.85,42.44C11.05,42.2,1.57,33.05,1.57,21.8A20.54,20.54,0,0,1,13.37,3.45l3.13,6.3A17,17,0,0,0,5.42,25.46C5.42,34.68,13.18,42.2,22.85,42.44Z"/></svg>