<svg id="Layer_1" data-name="Layer 1" xmlns="http://www.w3.org/2000/svg" viewBox="0 0 44 44"><defs><style>.cls-1{fill:#9ac43a;}.cls-2,.cls-3{fill:#fff;}.cls-3{font-size:26.34px;font-family:Lato-Heavy, Lato;font-weight:800;}</style></defs><path class="cls-1" d="M22,0A22,22,0,1,0,40.48,33.93,21.19,21.19,0,0,0,42,31.25,22,22,0,0,0,22,0ZM40.23,31.45A1.14,1.14,0,0,0,40,31.1c.27-.53.52-1.07.74-1.63a1.64,1.64,0,0,0,.23.28l.06.05C40.77,30.37,40.51,30.91,40.23,31.45Z"/><path class="cls-2" d="M22,1.45A20.53,20.53,0,0,0,8.79,37.71h0a20.52,20.52,0,0,0,31.44-6.27c.28-.54.54-1.08.77-1.65A20.55,20.55,0,0,0,22,1.45Zm18.71,28c-.22.56-.47,1.1-.74,1.63a20.27,20.27,0,0,1-4.79,6.12c-.16.15-.34.29-.51.43a20.1,20.1,0,0,1-25.46-.09l-.41-.35a20.15,20.15,0,1,1,31.91-7.74Z"/><text class="cls-3" transform="translate(11.09 31.45)">Q</text></svg>