<svg id="Layer_1" data-name="Layer 1" xmlns="http://www.w3.org/2000/svg" viewBox="0 0 55.74 57.42"><defs><style>.cls-1{fill:#9ac43a;}.cls-2{fill:#fff;}.cls-3{font-size:6.88px;fill:#1d1d1b;font-family:Lato;font-weight:700;}.cls-4{letter-spacing:-0.01em;}.cls-5{letter-spacing:0em;}.cls-6{letter-spacing:-0.03em;}.cls-7{letter-spacing:-0.1em;}.cls-8{letter-spacing:-0.01em;}</style></defs><path class="cls-1" d="M27.87,0A22,22,0,1,0,46.35,33.93a22.52,22.52,0,0,0,1.48-2.68A22,22,0,0,0,27.87,0ZM46.1,31.45a1.33,1.33,0,0,0-.26-.35c.27-.53.52-1.07.74-1.63a1.64,1.64,0,0,0,.23.28l.06.05C46.64,30.37,46.38,30.91,46.1,31.45Z"/><path class="cls-2" d="M37.65,13.11a5,5,0,1,1-5.07,5A5,5,0,0,1,37.65,13.11Z"/><path class="cls-2" d="M20.14,18.53a3.3,3.3,0,1,1,3.28,3.31A3.28,3.28,0,0,1,20.14,18.53Z"/><path class="cls-2" d="M27.87,1.45A20.53,20.53,0,0,0,14.65,37.71h0A20.52,20.52,0,0,0,46.1,31.45c.28-.54.54-1.08.77-1.65a20.55,20.55,0,0,0-19-28.35Zm18.71,28c-.22.56-.47,1.1-.74,1.63a20.27,20.27,0,0,1-4.79,6.12l-.51.43a20.1,20.1,0,0,1-25.46-.09l-.41-.35a20.15,20.15,0,1,1,31.91-7.74Z"/><path class="cls-2" d="M46.58,29.47c-.22.56-.47,1.1-.74,1.63a2.06,2.06,0,0,0-1.52-.48H30.93c-1.42,0-2.06.64-2.07,2.06v3.15c0,.18,0,.36,0,.56H27.25c0-.17,0-.31,0-.46V32.42a3.44,3.44,0,0,1,1.27-2.73,1,1,0,0,0,.33-.55,5.23,5.23,0,0,1,4.62-4.46,10.75,10.75,0,0,1,1.7-.16c1.7,0,3.4,0,5.09,0a9.85,9.85,0,0,1,1.88.22A5.16,5.16,0,0,1,46.38,29,1.2,1.2,0,0,0,46.58,29.47Z"/><path class="cls-2" d="M33.93,12.27c-.46.4-.86.78-1.31,1.1a1.1,1.1,0,0,1-.64.11H14.35c-1,0-1-.07-1,1V27.75c0,.7,0,.72.7.72H27l-.26.33a5.43,5.43,0,0,0-1.42,3.65c0,.54,0,1.09,0,1.63,0,.28-.09.4-.39.4H19.84c-.27,0-.37-.08-.38-.36,0-.85,0-.85.79-.85h2.39c.6,0,.58,0,.62-.66,0-.46-.14-.58-.59-.58-3,0-6.08,0-9.11,0-1,0-1.49-.44-1.49-1.48V13.69c0-1,.43-1.44,1.41-1.44h20Z"/><path class="cls-2" d="M28.64,26.46H18.22a3.13,3.13,0,0,1,.87-2.22,4.61,4.61,0,0,1,2.37-1.31.61.61,0,0,1,.46.15c.41.41.82.84,1.19,1.29s.42.27.66,0c.37-.44.76-.85,1.16-1.26a.57.57,0,0,1,.41-.18,4,4,0,0,1,3.24,2.93A5.25,5.25,0,0,1,28.64,26.46Z"/><text class="cls-3" transform="translate(0 55.46)"><tspan class="cls-4">H</tspan><tspan class="cls-5" x="5.21" y="0">ands-on</tspan><tspan class="cls-6" x="29.93" y="0"> </tspan><tspan class="cls-7" x="31.39" y="0">T</tspan><tspan class="cls-8" x="34.82" y="0">r</tspan><tspan x="37.35" y="0">aining</tspan></text></svg>