<svg id="Layer_1" data-name="Layer 1" xmlns="http://www.w3.org/2000/svg" viewBox="0 0 44 68.01"><defs><style>.cls-1{font-size:6.88px;fill:#1d1d1b;font-family:Lato;font-weight:700;}.cls-2{letter-spacing:-0.12em;}.cls-3{letter-spacing:-0.01em;}.cls-4{letter-spacing:-0.01em;}.cls-5{fill:#9ac43a;}.cls-6{fill:#fff;}</style></defs><text class="cls-1" transform="translate(7.38 58.18)"><tspan class="cls-2">T</tspan><tspan x="3.3" y="0">oolchain</tspan><tspan class="cls-3" x="-5.47" y="7.87">O</tspan><tspan class="cls-4" x="0.03" y="7.87">p</tspan><tspan x="3.9" y="7.87">timiz</tspan><tspan class="cls-4" x="19" y="7.87">at</tspan><tspan x="22.45" y="7.87">ion</tspan></text><circle class="cls-5" cx="22" cy="22" r="22"/><path class="cls-6" d="M22,1.45A20.53,20.53,0,0,0,8.79,37.71h0A20.54,20.54,0,1,0,22,1.45ZM35.18,37.22c-.16.15-.34.29-.51.43a20.1,20.1,0,0,1-25.46-.09l-.41-.34a20.16,20.16,0,1,1,26.38,0Z"/><path class="cls-6" d="M15,13.61a2.93,2.93,0,0,0-.34-.5L12.61,11c-.2-.21-.41-.42-.59-.65s-.15-.34-.11-.37a.61.61,0,0,1,.45-.16c.47.09.94.23,1.41.35s.84.25,1.26.35a1.82,1.82,0,0,1,1,.59,2.66,2.66,0,0,0,.43.39A3.67,3.67,0,0,1,18,13.91c.12.67.3,1.33.47,2a1,1,0,0,0,.23.38L29.41,27a1,1,0,0,0,.39.22c1,.24,2,.46,3,.71a1.33,1.33,0,0,1,.58.32c.36.33.67.71,1,1a2.45,2.45,0,0,1,.82,1.42c.17.84.41,1.66.61,2.49a.58.58,0,0,1,0,.32c-.07.24-.24.3-.44.14s-.45-.4-.67-.61l-1.87-1.85a2.92,2.92,0,0,0-.38-.32.67.67,0,0,0-1,0c-.79.76-1.56,1.54-2.31,2.33a.48.48,0,0,0,0,.78c.59.64,1.2,1.26,1.8,1.88.33.35.68.7,1,1.06.08.09.14.32.1.36s-.32.25-.45.22c-1.08-.27-2.16-.57-3.23-.87a.72.72,0,0,1-.29-.2c-.5-.45-1-.9-1.48-1.37a1.58,1.58,0,0,1-.38-.65c-.24-.94-.44-1.9-.67-2.84a1.12,1.12,0,0,0-.29-.52q-5.32-5.37-10.68-10.7a1,1,0,0,0-.5-.26c-1-.25-2-.47-3-.71a1.12,1.12,0,0,1-.44-.24c-.46-.44-.9-.9-1.37-1.34a1.36,1.36,0,0,1-.43-.74c-.24-1-.5-2-.73-3a1.21,1.21,0,0,1,.1-.47,1.46,1.46,0,0,1,.43.15c.7.65,1.38,1.31,2.07,2l1,.87a.36.36,0,0,0,.54,0c.87-.86,1.74-1.72,2.6-2.59A1.42,1.42,0,0,0,15,13.61Z"/><path class="cls-6" d="M15.8,23,17,24.22c-.38.36-.81.74-1.21,1.15s-1,1-1.46,1.53a1,1,0,0,0-.22.61.59.59,0,0,0,1,.49c.71-.58,1.38-1.22,2.06-1.84.32-.28.62-.59,1-.91l1.23,1.33a7.37,7.37,0,0,0-.69.61c-.68.69-1.35,1.4-2,2.12a.61.61,0,0,0-.14.77.68.68,0,0,0,1.14.2c.65-.57,1.26-1.18,1.89-1.79.3-.29.58-.61.86-.91l1.21,1.24-1.35,1.33c-1.8,1.77-3.6,3.56-5.42,5.32a3.37,3.37,0,0,1-3.6.85,1.69,1.69,0,0,1-.65-.34,26.91,26.91,0,0,1-1.94-1.91,3.1,3.1,0,0,1,.06-3.8c.87-1,1.78-1.95,2.7-2.9,1.4-1.43,2.83-2.83,4.25-4.25Z"/><path class="cls-6" d="M33.94,8.47l2,1.91a.27.27,0,0,1,0,.42c-.62.9-1.23,1.81-1.85,2.7a.76.76,0,0,1-.34.24c-.51.18-1,.36-1.54.5a2,2,0,0,0-.94.59c-1.44,1.47-2.89,2.93-4.34,4.4-.19.19-.33.22-.53,0l-1.3-1.4L26.91,16,30,13a1.27,1.27,0,0,0,.28-.46c.2-.54.37-1.08.57-1.62a.61.61,0,0,1,.18-.3Z"/><path class="cls-6" d="M20.94,17l.85-.89,6.7,6.56-1,.95Z"/></svg>