<svg xmlns="http://www.w3.org/2000/svg" viewBox="0 0 74.47 87.68"><defs><style>.cls-1,.cls-2{fill:#fff;}.cls-2{font-size:12.05px;font-family:Lato-Regular, Lato;}.cls-3{letter-spacing:0em;}.cls-4{letter-spacing:-0.01em;}.cls-5{letter-spacing:-0.01em;}.cls-6{letter-spacing:0em;}.cls-7{letter-spacing:-0.01em;}.cls-8{letter-spacing:-0.01em;}</style></defs><g id="map"><path class="cls-1" d="M23.05,48l1.7-15.31-1.51-.15a5.14,5.14,0,0,1-4.09-2.3c-4-6.41-4.65-12.8-1.83-19A18.41,18.41,0,0,1,22.94,4.1,20.41,20.41,0,0,1,31.26.5a24.47,24.47,0,0,1,4.8-.5A19.4,19.4,0,0,1,53.45,10.51a26.69,26.69,0,0,1,2.73,6.78,5.54,5.54,0,0,1-.82,5.05l-.12.16.5.92c.78,1.4,1.51,2.74,2.24,4.1a9.74,9.74,0,0,1,.77,1.79,2.27,2.27,0,0,1-.11,1.81,2.3,2.3,0,0,1-1.54,1l-.86.21.07.3c0,.14.07.28.12.41a3.2,3.2,0,0,1,.16,1.8,2,2,0,0,1-.3.64l-.1.14.07.15a1.9,1.9,0,0,1,.14.7,2.57,2.57,0,0,1-.77,1.68.84.84,0,0,0-.19,1A5.11,5.11,0,0,1,55,43.82a4.59,4.59,0,0,1-3.83,1.73,8,8,0,0,1-.84,0c-2-.23-3.9-.62-5.77-1l-1.82-.36a1.87,1.87,0,0,1-1.21-1c-1.29-2.44-2.66-5-4-7.71L37,34.51,35.31,49.36Zm.8-.79L34.7,48.42l.48-4.28L24.33,42.93ZM37.19,33.48a1.2,1.2,0,0,1,.2.3q2.32,4.52,4.72,9c.12.23.37.61.71.68l1.81.35.67.13.81-7.44a3.33,3.33,0,0,0-2.64-3.62l.84-7.67h.06a3.31,3.31,0,0,0,3.29-3l1.32-12a7.31,7.31,0,0,0-3.57-7.09,18.66,18.66,0,0,0-2.25-1.09A19.07,19.07,0,0,0,36.06.71a23.79,23.79,0,0,0-4.66.48C25,2.48,20.51,6,18,11.53c-2.72,6-2.12,12.14,1.78,18.33a4.41,4.41,0,0,0,3.56,2l6.29.65,7,.72a.83.83,0,0,1,.61.26ZM24.41,42.22l10.85,1.21.48-4.28L24.88,37.94Zm.55-5,10.85,1.21.48-4.28L25.44,33Z"/><path class="cls-1" d="M29.3,11.13l-1,8.85,8.84,1,1-8.85Zm7.4,9.2-7.76-.84.85-7.75,7.75.84Z"/><rect class="cls-1" x="27.99" y="11.52" width="0.4" height="2.4" transform="translate(12.5 39.37) rotate(-83.8)"/><polygon class="cls-1" points="24.02 17.47 21.77 17.23 21.81 16.82 23.95 17.05 26 16.08 29.04 16.41 28.99 16.81 26.07 16.5 24.02 17.47"/><path class="cls-1" d="M26.3,13.42h-.1a.91.91,0,0,1-.81-1,.91.91,0,1,1,1.81.19h0A.91.91,0,0,1,26.3,13.42Zm0-1.41a.51.51,0,1,0,.5.56.5.5,0,0,0-.45-.55Z"/><rect class="cls-1" x="26.24" y="11.69" width="0.4" height="5.51" transform="translate(9.23 39.17) rotate(-83.8)"/><path class="cls-1" d="M23,15h-.1a.91.91,0,0,1,.19-1.81.9.9,0,0,1,.61.34.84.84,0,0,1,.2.66.93.93,0,0,1-.33.61A.94.94,0,0,1,23,15Zm0-1.41a.49.49,0,0,0-.5.45.49.49,0,0,0,.1.37.53.53,0,0,0,.34.19.53.53,0,0,0,.37-.11.53.53,0,0,0,.19-.34.54.54,0,0,0-.11-.37.58.58,0,0,0-.34-.19Z"/><path class="cls-1" d="M21.14,17.86H21a.93.93,0,0,1-.81-1,.9.9,0,0,1,.34-.61.86.86,0,0,1,.67-.2.91.91,0,0,1,.8,1h0a.91.91,0,0,1-.33.61A.94.94,0,0,1,21.14,17.86Zm0-1.41a.52.52,0,0,0-.32.11.52.52,0,0,0-.08.71.52.52,0,0,0,.34.18.48.48,0,0,0,.37-.1.53.53,0,0,0,.19-.34.51.51,0,0,0-.45-.56Z"/><polygon class="cls-1" points="23.8 19.46 21.55 19.21 21.59 18.81 23.73 19.04 25.78 18.07 28.82 18.4 28.77 18.8 25.85 18.49 23.8 19.46"/><path class="cls-1" d="M20.92,19.85h-.1a.91.91,0,0,1-.8-1,.89.89,0,0,1,.33-.61.91.91,0,0,1,1.47.81h0a.87.87,0,0,1-.33.61A.9.9,0,0,1,20.92,19.85Zm0-1.41a.51.51,0,0,0-.31.11.46.46,0,0,0-.19.34.51.51,0,0,0,.11.37.48.48,0,0,0,.34.18.5.5,0,0,0,.37-.1.52.52,0,0,0,.18-.34.45.45,0,0,0-.11-.37.49.49,0,0,0-.33-.19Z"/><rect class="cls-1" x="37.79" y="18.38" width="0.4" height="2.38" transform="translate(14.43 55.23) rotate(-83.8)"/><polygon class="cls-1" points="40.16 16.25 37.16 15.93 37.2 15.53 40.09 15.84 42.12 14.88 44.34 15.12 44.3 15.52 42.19 15.29 40.16 16.25"/><path class="cls-1" d="M39.87,20.68h-.1a.85.85,0,0,1-.6-.33.93.93,0,0,1-.2-.66h0a1,1,0,0,1,.33-.61.93.93,0,0,1,.66-.19.91.91,0,0,1,.61.33.88.88,0,0,1,.19.66A.91.91,0,0,1,39.87,20.68Zm0-1.4a.51.51,0,0,0-.5.44h0a.56.56,0,0,0,.11.37.52.52,0,0,0,.33.18.5.5,0,0,0,.55-.44.47.47,0,0,0-.11-.36.49.49,0,0,0-.33-.19Z"/><rect class="cls-1" x="39.52" y="15.15" width="0.4" height="5.44" transform="translate(17.66 55.43) rotate(-83.8)"/><path class="cls-1" d="M43.12,19.15H43a.91.91,0,0,1-.8-1h0a1,1,0,0,1,.33-.61.9.9,0,0,1,.67-.19.89.89,0,0,1,.79,1,.87.87,0,0,1-.33.61A.89.89,0,0,1,43.12,19.15Zm-.49-1a.49.49,0,0,0,.43.55.53.53,0,0,0,.37-.11.48.48,0,0,0,.18-.33.5.5,0,0,0-.44-.55.52.52,0,0,0-.36.11.44.44,0,0,0-.18.33Z"/><path class="cls-1" d="M45,16.29h-.1a.92.92,0,0,1-.8-1h0a.89.89,0,0,1,.33-.6.88.88,0,0,1,.66-.19.89.89,0,0,1,.8,1,.85.85,0,0,1-.33.6A.89.89,0,0,1,45,16.29Zm-.5-.95a.49.49,0,0,0,.44.54.5.5,0,0,0,.37-.1.54.54,0,0,0,.18-.34.47.47,0,0,0-.11-.36A.48.48,0,0,0,45,14.9a.47.47,0,0,0-.36.1.53.53,0,0,0-.19.34Z"/><polygon class="cls-1" points="40.38 14.29 37.37 13.96 37.42 13.56 40.31 13.87 42.33 12.91 44.56 13.15 44.51 13.56 42.4 13.33 40.38 14.29"/><path class="cls-1" d="M45.18,14.33h-.1a.89.89,0,0,1-.6-.33.89.89,0,0,1,.14-1.27.86.86,0,0,1,.66-.19.89.89,0,0,1,.6.33.91.91,0,0,1-.7,1.47Zm0-1.4a.51.51,0,0,0-.31.11.48.48,0,0,0-.18.33h0a.5.5,0,0,0,.1.37.54.54,0,0,0,.34.18.52.52,0,0,0,.36-.11.48.48,0,0,0,.18-.33.5.5,0,0,0-.1-.37.57.57,0,0,0-.34-.18Z"/><rect class="cls-1" x="29.69" y="10.41" width="2.4" height="0.4" transform="translate(17 40.18) rotate(-83.8)"/><rect class="cls-1" x="22.77" y="26.07" width="12.79" height="0.4" transform="translate(-0.19 52.32) rotate(-83.6)"/><rect class="cls-1" x="24.69" y="26.28" width="12.79" height="0.4" transform="translate(1.3 54.42) rotate(-83.6)"/><rect class="cls-1" x="26.59" y="26.48" width="12.79" height="0.4" transform="translate(2.79 56.49) rotate(-83.6)"/><rect class="cls-1" x="28.62" y="26.7" width="12.79" height="0.4" transform="translate(4.37 58.7) rotate(-83.6)"/><polygon class="cls-1" points="34.78 12.28 34.38 12.24 34.71 9.2 36.12 7.41 36.35 5.27 36.76 5.32 36.51 7.57 35.1 9.36 34.78 12.28"/><path class="cls-1" d="M31.1,9.63H31a.91.91,0,1,1,1-.8A.92.92,0,0,1,31.1,9.63ZM31,9.22a.52.52,0,0,0,.57-.45.52.52,0,1,0-.57.45Z"/><rect class="cls-1" x="44.19" y="11.23" width="2.4" height="0.4" transform="translate(29.13 55.33) rotate(-83.8)"/><path class="cls-1" d="M45.61,10.44H45.5a.91.91,0,1,1,.2-1.81.93.93,0,0,1,.82,1,.94.94,0,0,1-.34.61A.93.93,0,0,1,45.61,10.44ZM45.6,9a.51.51,0,0,0-.05,1h0a.57.57,0,0,0,.38-.11.58.58,0,0,0,.19-.34A.53.53,0,0,0,45.66,9Z"/><rect class="cls-1" x="30.22" y="9.08" width="5.51" height="0.4" transform="translate(20.18 41.06) rotate(-83.8)"/><path class="cls-1" d="M33.35,6.75h-.1a1,1,0,0,1-.62-.34.89.89,0,0,1-.2-.67.91.91,0,0,1,1-.8.91.91,0,0,1,.61.33.87.87,0,0,1,.2.67.85.85,0,0,1-.34.61A.9.9,0,0,1,33.35,6.75Zm0-1.41a.54.54,0,0,0-.32.11.49.49,0,0,0-.19.34.56.56,0,0,0,.11.37.54.54,0,0,0,.35.18.5.5,0,0,0,.38-.1.49.49,0,0,0,.19-.34.46.46,0,0,0-.11-.37.53.53,0,0,0-.35-.19Z"/><path class="cls-1" d="M36.63,5.55h-.1a.92.92,0,0,1-.62-.34.86.86,0,0,1-.2-.67.91.91,0,0,1,1-.8.91.91,0,0,1-.09,1.81Zm0-1.41a.52.52,0,0,0-.32.11.51.51,0,0,0-.19.34.56.56,0,0,0,.11.37.52.52,0,0,0,.35.18.5.5,0,0,0,.57-.44.51.51,0,0,0-.46-.56Z"/><polygon class="cls-1" points="36.8 12.5 36.4 12.46 36.73 9.42 38.15 7.63 38.38 5.5 38.78 5.54 38.54 7.79 37.12 9.58 36.8 12.5"/><path class="cls-1" d="M38.65,5.77h-.1a.93.93,0,0,1-.82-1,.94.94,0,0,1,.34-.61A.91.91,0,0,1,38.75,4a.93.93,0,0,1,.82,1A.91.91,0,0,1,38.65,5.77Zm0-1.41a.57.57,0,0,0-.33.11.5.5,0,0,0-.18.34.5.5,0,0,0,.46.55.49.49,0,0,0,.56-.44.51.51,0,0,0-.46-.56Z"/><text class="cls-2" transform="translate(15.08 66.05)"><tspan class="cls-3">A</tspan><tspan x="8.13" y="0">rtificial</tspan><tspan class="cls-4" x="-8.05" y="14.46">I</tspan><tspan class="cls-5" x="-4.77" y="14.46">n</tspan><tspan class="cls-6" x="1.87" y="14.46">t</tspan><tspan x="6.16" y="14.46">elli</tspan><tspan class="cls-7" x="21.1" y="14.46">g</tspan><tspan x="27.27" y="14.46">en</tspan><tspan class="cls-8" x="40.35" y="14.46">c</tspan><tspan x="46" y="14.46">e</tspan></text></g></svg>