<svg xmlns="http://www.w3.org/2000/svg" viewBox="0 0 59.01 66.73"><defs><style>.cls-1,.cls-3{fill:none;}.cls-1,.cls-2,.cls-3,.cls-4{stroke:#fff;stroke-miterlimit:10;}.cls-1{stroke-width:0.6px;}.cls-2,.cls-4{fill:#fff;}.cls-2{stroke-width:0;}.cls-3,.cls-4{stroke-width:1.2px;}</style></defs><g id="map"><line class="cls-1" x1="15.48" y1="18.18" x2="18.82" y2="18.54"/><circle class="cls-1" cx="14.49" cy="18.07" r="0.99"/><line class="cls-1" x1="20.6" y1="11.88" x2="20.24" y2="15.23"/><polyline class="cls-1" points="23.21 15.23 23.67 11.06 25.64 8.55 25.98 5.48"/><ellipse class="cls-1" cx="20.71" cy="10.9" rx="0.99" ry="1.01" transform="translate(7.63 30.31) rotate(-83.8)"/><line class="cls-1" x1="26.11" y1="12.38" x2="25.28" y2="20.05"/><ellipse class="cls-1" cx="26.22" cy="11.4" rx="0.99" ry="1.01" transform="matrix(0.11, -0.99, 0.99, 0.11, 12.05, 36.23)"/><ellipse class="cls-1" cx="25.97" cy="4.76" rx="0.99" ry="1.01" transform="translate(18.43 30.06) rotate(-83.8)"/><polyline class="cls-1" points="28.51 16.17 28.96 12 30.94 9.49 31.27 6.42"/><ellipse class="cls-1" cx="31.26" cy="5.7" rx="0.99" ry="1.01" transform="translate(22.22 36.16) rotate(-83.8)"/><polyline class="cls-1" points="18.46 15.74 14.29 15.29 11.42 16.66 8.35 16.32"/><circle class="cls-1" cx="7.43" cy="16.22" r="0.99"/><polyline class="cls-1" points="29.5 17.62 33.63 18.07 36.47 16.72 39.5 17.05"/><line class="cls-1" x1="33.2" y1="20.48" x2="25.62" y2="19.66"/><circle class="cls-1" cx="34.17" cy="20.59" r="0.98"/><circle class="cls-1" cx="40.41" cy="17.15" r="0.98"/><line class="cls-1" x1="15.61" y1="23.73" x2="23.28" y2="24.56"/><circle class="cls-1" cx="14.63" cy="23.62" r="0.99"/><polyline class="cls-1" points="29.21 22.74 33.34 23.19 36.17 21.84 39.21 22.17"/><circle class="cls-1" cx="40.11" cy="22.27" r="0.98"/><path class="cls-2" d="M40.4,3.82a9.78,9.78,0,0,1,4.92,9.6L43.48,30.25A4.22,4.22,0,0,1,38.83,34L37.56,45.54A4.22,4.22,0,0,1,41.3,50.2l-1.08,10c2.53.51,5.07,1,7.63,1.3,4.67.54,7.11-2.55,5.71-7a2.56,2.56,0,0,1,.55-2.73c1-1.14,1-1.68,0-2.83C55.3,48,55.43,47.42,55,46c-.26-.81-.38-1.66-.57-2.52,1-.24,1.76-.4,2.52-.59,1.23-.31,1.67-1,1.3-2.21a12.24,12.24,0,0,0-1-2.23c-1.41-2.64-2.86-5.25-4.34-8,2.09-1.9,2.32-4.19,1.69-6.71a35.84,35.84,0,0,0-3.69-9.13A27.54,27.54,0,0,0,40.4,3.82Z"/><rect class="cls-3" x="11.6" y="60.1" width="14.43" height="5.18" transform="translate(7.06 -1.7) rotate(6.36)"/><rect class="cls-3" x="12.38" y="53.11" width="14.43" height="5.18" transform="translate(6.29 -1.83) rotate(6.36)"/><path class="cls-3" d="M53,30.44c1.48,2.71,2.93,5.32,4.34,8a12.24,12.24,0,0,1,1,2.23c.37,1.23-.06,1.9-1.3,2.21-.75.19-1.52.35-2.52.59.19.86.31,1.71.57,2.52.49,1.47.35,2.08-.84,2.95,1,1.15,1,1.69,0,2.83a2.55,2.55,0,0,0-.54,2.73c1.39,4.47-1,7.56-5.71,7-3.54-.41-7-1.2-10.52-1.87-.28,0-.55-.43-.71-.72q-3.33-6.28-6.6-12.6a1.65,1.65,0,0,0-1.49-1c-6.19-.62-12.37-1.29-18.56-1.91a5.8,5.8,0,0,1-4.67-2.56c-5-8-6.49-16.45-2.47-25.26C6.53,7.58,13,3,21.42,1.27A28,28,0,0,1,37.65,2.45C43.6,4.83,47.84,9.13,51,14.6a35.81,35.81,0,0,1,3.68,9.13C55.29,26.25,55.07,28.54,53,30.44Z"/><rect class="cls-3" x="13.15" y="46.12" width="14.43" height="5.18" transform="translate(5.52 -1.96) rotate(6.36)"/><rect class="cls-4" x="18.36" y="15.54" width="10.62" height="10.62" transform="translate(2.39 -2.44) rotate(6.2)"/><polyline class="cls-1" points="18.46 21.17 14.29 20.71 11.42 22.08 8.35 21.74"/><circle class="cls-1" cx="7.43" cy="21.64" r="0.99"/><line class="cls-1" x1="32.04" y1="25.78" x2="28.73" y2="25.42"/><circle class="cls-1" cx="33.01" cy="25.88" r="0.98"/><line class="cls-1" x1="19.02" y1="26.08" x2="17.02" y2="43.87"/><line class="cls-1" x1="21.71" y1="26.37" x2="19.71" y2="44.17"/><line class="cls-1" x1="24.38" y1="26.66" x2="22.38" y2="44.46"/><line class="cls-1" x1="27.21" y1="26.97" x2="25.22" y2="44.77"/></g></svg>