<svg id="Layer_1" data-name="Layer 1" xmlns="http://www.w3.org/2000/svg" xmlns:xlink="http://www.w3.org/1999/xlink" viewBox="0 0 43.64 43.64"><defs><style>.cls-1{fill:none;}.cls-2{fill:#9ac43a;}.cls-3{fill:#fff;}.cls-4{opacity:0.5;}.cls-5{clip-path:url(#clip-path);}</style><clipPath id="clip-path"><circle class="cls-1" cx="21.82" cy="21.82" r="18.49"/></clipPath></defs><circle class="cls-2" cx="21.82" cy="21.82" r="21.82"/><path class="cls-3" d="M21.82,1.28A20.53,20.53,0,0,0,8.61,37.54h0a20.42,20.42,0,0,0,13.2,4.82c.29,0,.58,0,.86,0A20.57,20.57,0,0,0,40.06,31.27c.16-.32.32-.65.47-1s.2-.44.29-.66a20.55,20.55,0,0,0-19-28.35Zm18.71,28a.19.19,0,0,0,0,.07q-.33.8-.72,1.56A20.27,20.27,0,0,1,35,37l-.52.43A20,20,0,0,1,22.68,42l-.86,0A20,20,0,0,1,9,37.38L8.63,37A20.15,20.15,0,1,1,42,21.82,20,20,0,0,1,40.53,29.29Z"/><path class="cls-3" d="M19,21.82a9.5,9.5,0,0,1-.44,2.92,7.64,7.64,0,0,1-1.22,2.36,5.7,5.7,0,0,1-1.9,1.56,5.31,5.31,0,0,1-2.46.57,5.32,5.32,0,0,1-2.47-.57A5.64,5.64,0,0,1,8.63,27.1,7.45,7.45,0,0,1,7.4,24.74a10.16,10.16,0,0,1,0-5.85,7.29,7.29,0,0,1,1.23-2.35A5.64,5.64,0,0,1,10.54,15,5.32,5.32,0,0,1,13,14.41a5.31,5.31,0,0,1,2.46.57,5.86,5.86,0,0,1,1.9,1.57,7.48,7.48,0,0,1,1.22,2.35A9.45,9.45,0,0,1,19,21.82Zm-2.76,0a7.67,7.67,0,0,0-.22-1.94,4.78,4.78,0,0,0-.64-1.46A2.84,2.84,0,0,0,13,17.19a2.84,2.84,0,0,0-2.42,1.23A4.55,4.55,0,0,0,10,19.88a8.3,8.3,0,0,0,0,3.88,4.45,4.45,0,0,0,.64,1.46,2.8,2.8,0,0,0,1,.91,2.94,2.94,0,0,0,1.39.31,2.91,2.91,0,0,0,1.37-.31,2.8,2.8,0,0,0,1-.91,4.67,4.67,0,0,0,.64-1.46A7.67,7.67,0,0,0,16.27,21.82Z"/><path class="cls-3" d="M27,17.52a1.26,1.26,0,0,1-.25.35.49.49,0,0,1-.34.12.74.74,0,0,1-.39-.14l-.48-.33A4.93,4.93,0,0,0,25,17.2a2.13,2.13,0,0,0-.78-.14,1.46,1.46,0,0,0-1.13.4,1.58,1.58,0,0,0-.37,1.09,1.18,1.18,0,0,0,.23.73,1.76,1.76,0,0,0,.58.49,5.85,5.85,0,0,0,.83.39c.31.11.63.24,1,.39a7.86,7.86,0,0,1,.95.5,3.23,3.23,0,0,1,.83.74,3.53,3.53,0,0,1,.59,1.09,4.92,4.92,0,0,1,.22,1.54,6,6,0,0,1-.28,1.88,4.66,4.66,0,0,1-.81,1.53,3.74,3.74,0,0,1-1.3,1,4,4,0,0,1-1.77.37,4.67,4.67,0,0,1-1.1-.14,5.25,5.25,0,0,1-1.09-.39,6.21,6.21,0,0,1-1-.6,5.38,5.38,0,0,1-.8-.78l.8-1.57a.78.78,0,0,1,.25-.29.58.58,0,0,1,.34-.11.78.78,0,0,1,.48.19l.55.42a3.91,3.91,0,0,0,.7.41,2.13,2.13,0,0,0,.94.19,1.54,1.54,0,0,0,1.14-.4,1.76,1.76,0,0,0,.41-1.28,1.43,1.43,0,0,0-.23-.83,1.82,1.82,0,0,0-.58-.52,4.24,4.24,0,0,0-.83-.37l-.94-.35a6,6,0,0,1-.95-.48,3.25,3.25,0,0,1-.83-.75,3.76,3.76,0,0,1-.58-1.15,5.59,5.59,0,0,1-.22-1.71,4.78,4.78,0,0,1,.26-1.59,4.2,4.2,0,0,1,.77-1.39,3.71,3.71,0,0,1,2.95-1.33,5.16,5.16,0,0,1,1,.1,5.38,5.38,0,0,1,1,.31,5,5,0,0,1,.84.49,4,4,0,0,1,.71.64Z"/><path class="cls-3" d="M35.84,17.52a1.26,1.26,0,0,1-.25.35.49.49,0,0,1-.34.12.74.74,0,0,1-.39-.14l-.48-.33a4.93,4.93,0,0,0-.61-.32,2.13,2.13,0,0,0-.78-.14,1.43,1.43,0,0,0-1.12.4,1.54,1.54,0,0,0-.38,1.09,1.18,1.18,0,0,0,.23.73,1.87,1.87,0,0,0,.58.49,5.85,5.85,0,0,0,.83.39c.31.11.63.24.95.39a7.18,7.18,0,0,1,1,.5,3.07,3.07,0,0,1,.83.74,3.53,3.53,0,0,1,.59,1.09,4.64,4.64,0,0,1,.22,1.54,6,6,0,0,1-.28,1.88,4.31,4.31,0,0,1-.81,1.53,3.65,3.65,0,0,1-1.3,1,4,4,0,0,1-1.77.37,4.74,4.74,0,0,1-1.1-.14,5.46,5.46,0,0,1-1.09-.39,5.71,5.71,0,0,1-1-.6,5,5,0,0,1-.81-.78l.8-1.57a.88.88,0,0,1,.25-.29.6.6,0,0,1,.34-.11.75.75,0,0,1,.48.19L31,26a3.91,3.91,0,0,0,.7.41,2.13,2.13,0,0,0,.94.19,1.54,1.54,0,0,0,1.14-.4,1.76,1.76,0,0,0,.41-1.28,1.5,1.5,0,0,0-.22-.83,1.86,1.86,0,0,0-.59-.52,4.42,4.42,0,0,0-.82-.37l-.95-.35a6,6,0,0,1-.95-.48,3.06,3.06,0,0,1-.82-.75,3.77,3.77,0,0,1-.59-1.15A5.59,5.59,0,0,1,29,18.72a5,5,0,0,1,.26-1.59A4.39,4.39,0,0,1,30,15.74,3.71,3.71,0,0,1,33,14.41a5.1,5.1,0,0,1,1,.1,4.9,4.9,0,0,1,1,.31,5.51,5.51,0,0,1,.85.49,4.26,4.26,0,0,1,.7.64Z"/><g class="cls-4"><g class="cls-5"><path class="cls-3" d="M4.54,12.15c.5,1,.46,1.76-.08,2S3.39,14,2.9,13s-.41-1.76.09-2S4.07,11.17,4.54,12.15Zm-1.31.68c.38.8.8,1.16,1.1,1s.26-.73-.11-1.51-.75-1.18-1.1-1S2.83,12,3.23,12.83Z"/><path class="cls-3" d="M5,10.55H5L4.74,11l-.22-.28.37-.62L5.17,10l1.46,3.06-.32.15Z"/><path class="cls-3" d="M8.41,10.3c.5,1,.46,1.76-.08,2s-1.07-.18-1.56-1.19-.41-1.76.09-2S7.94,9.32,8.41,10.3ZM7.1,11c.38.8.79,1.15,1.09,1s.27-.73-.1-1.52S7.33,9.3,7,9.46,6.7,10.15,7.1,11Z"/><path class="cls-3" d="M10.34,9.37c.5,1,.47,1.77-.08,2s-1.07-.17-1.56-1.18-.41-1.76.09-2S9.88,8.4,10.34,9.37ZM9,10.06c.38.79.8,1.15,1.1,1s.26-.74-.11-1.52-.75-1.17-1.1-1S8.63,9.22,9,10.06Z"/><path class="cls-3" d="M10.84,7.77h0l-.29.49L10.32,8l.37-.61L11,7.23l1.47,3.06-.33.15Z"/><path class="cls-3" d="M14.21,7.52c.5,1,.46,1.76-.08,2s-1.07-.17-1.56-1.18-.41-1.76.09-2S13.74,6.55,14.21,7.52Zm-1.31.69c.38.79.79,1.15,1.1,1s.26-.74-.11-1.52-.76-1.17-1.1-1S12.5,7.37,12.9,8.21Z"/><path class="cls-3" d="M14.7,5.92h0l-.28.49-.22-.28.37-.61.28-.14L16.3,8.44,16,8.59Z"/><path class="cls-3" d="M18.08,5.67c.49,1,.46,1.76-.08,2s-1.07-.17-1.57-1.18-.4-1.76.09-2S17.61,4.7,18.08,5.67Zm-1.31.69c.38.79.79,1.15,1.09,1s.27-.73-.11-1.51-.75-1.18-1.09-1S16.37,5.52,16.77,6.36Z"/><path class="cls-3" d="M18.57,4.07h0l-.29.49-.21-.28.36-.61.29-.14,1.46,3.06-.32.15Z"/><path class="cls-3" d="M20.5,3.14h0l-.29.49L20,3.35l.37-.61.28-.14L22.1,5.67l-.32.15Z"/><path class="cls-3" d="M23.88,2.9c.49,1,.46,1.76-.08,2s-1.07-.18-1.56-1.19-.41-1.76.09-2S23.41,1.92,23.88,2.9Zm-1.31.68c.38.8.79,1.15,1.09,1s.27-.73-.11-1.52-.75-1.17-1.09-1S22.17,2.75,22.57,3.58Z"/><path class="cls-3" d="M24.37,1.29h0l-.29.49-.21-.29.36-.61.29-.14L26,3.82,25.65,4Z"/><path class="cls-3" d="M27.74,1.05c.5,1,.47,1.76-.07,2s-1.08-.18-1.57-1.19-.4-1.76.09-2S27.28.07,27.74,1.05Zm-1.3.68c.38.8.79,1.15,1.09,1s.27-.73-.11-1.52-.75-1.17-1.09-1S26,.9,26.44,1.73Z"/><path class="cls-3" d="M3.38,19.65c.5,1,.46,1.76-.08,2s-1.07-.17-1.56-1.18-.41-1.76.09-2S2.91,18.68,3.38,19.65Zm-1.31.69c.38.79.79,1.15,1.1,1s.26-.73-.11-1.51-.76-1.17-1.1-1S1.67,19.5,2.07,20.34Z"/><path class="cls-3" d="M3.87,18.05h0l-.28.49-.22-.28.36-.61L4,17.51l1.46,3.06-.32.15Z"/><path class="cls-3" d="M7.25,17.8c.49,1,.46,1.76-.08,2S6.1,19.65,5.6,18.64s-.4-1.76.09-2S6.78,16.83,7.25,17.8Zm-1.31.68c.38.8.79,1.16,1.09,1s.27-.73-.11-1.51-.75-1.18-1.09-1S5.54,17.65,5.94,18.48Z"/><path class="cls-3" d="M7.74,16.2h0l-.29.49-.21-.28.36-.61.28-.14,1.47,3.06L9,18.87Z"/><path class="cls-3" d="M11.11,16c.5,1,.47,1.76-.08,2S10,17.8,9.47,16.79s-.41-1.76.09-2S10.65,15,11.11,16Zm-1.3.68c.38.8.79,1.16,1.09,1s.26-.73-.11-1.51S10,15,9.7,15.12,9.41,15.8,9.81,16.63Z"/><path class="cls-3" d="M11.61,14.35h0l-.29.49-.21-.28.36-.62.28-.13,1.47,3.06-.32.15Z"/><path class="cls-3" d="M15,14.1c.5,1,.46,1.76-.08,2s-1.07-.17-1.56-1.18-.41-1.76.09-2S14.51,13.13,15,14.1Zm-1.31.68c.38.8.8,1.16,1.1,1s.26-.73-.11-1.51-.75-1.18-1.1-1S13.27,14,13.67,14.78Z"/><path class="cls-3" d="M15.47,12.5h0l-.29.49L15,12.71l.37-.62.28-.13L17.07,15l-.32.15Z"/><path class="cls-3" d="M18.85,12.25c.5,1,.46,1.76-.08,2s-1.07-.17-1.56-1.18-.41-1.76.09-2S18.38,11.28,18.85,12.25Zm-1.31.68c.38.8.79,1.16,1.09,1s.27-.73-.11-1.51-.75-1.18-1.09-1S17.14,12.1,17.54,12.93Z"/><path class="cls-3" d="M19.34,10.65h0l-.28.49-.22-.28.36-.62.29-.13,1.46,3.06-.32.15Z"/><path class="cls-3" d="M22.71,10.4c.5,1,.47,1.76-.07,2s-1.08-.17-1.57-1.18-.4-1.76.09-2S22.25,9.43,22.71,10.4Zm-1.3.68c.38.8.79,1.16,1.09,1s.27-.73-.11-1.51-.75-1.18-1.09-1S21,10.25,21.41,11.08Z"/><path class="cls-3" d="M24.65,9.47c.5,1,.46,1.77-.08,2S23.5,11.32,23,10.31s-.41-1.76.09-2S24.18,8.5,24.65,9.47Zm-1.31.69c.38.79.79,1.15,1.09,1s.27-.74-.1-1.52-.76-1.17-1.1-1S22.94,9.33,23.34,10.16Z"/><path class="cls-3" d="M25.14,7.87h0l-.28.49-.22-.29L25,7.47l.29-.14,1.46,3.06-.32.16Z"/><path class="cls-3" d="M28.52,7.62c.49,1,.46,1.77-.08,2s-1.07-.18-1.57-1.19-.4-1.76.09-2S28.05,6.65,28.52,7.62Zm-1.31.69c.38.79.79,1.15,1.09,1s.27-.74-.11-1.52-.75-1.17-1.09-1S26.81,7.47,27.21,8.31Z"/><path class="cls-3" d="M29,6h0l-.29.49-.21-.29.36-.61.28-.14,1.47,3.06-.32.16Z"/><path class="cls-3" d="M32.38,5.77c.5,1.05.47,1.77-.08,2s-1.07-.18-1.56-1.19-.41-1.76.09-2S31.92,4.8,32.38,5.77Zm-1.31.69c.39.79.8,1.15,1.1,1s.26-.74-.11-1.52-.75-1.17-1.09-1S30.68,5.62,31.07,6.46Z"/><path class="cls-3" d="M32.88,4.17h0l-.29.49-.21-.29.36-.61L33,3.63l1.47,3.06-.32.16Z"/><path class="cls-3" d="M4.15,26.23c.5,1,.46,1.76-.08,2S3,28.08,2.51,27.07s-.41-1.76.09-2S3.68,25.26,4.15,26.23Zm-1.31.68c.38.8.79,1.16,1.1,1s.26-.73-.11-1.51-.75-1.18-1.1-1S2.44,26.08,2.84,26.91Z"/><path class="cls-3" d="M4.64,24.63h0l-.29.49-.22-.28.37-.62.28-.13,1.46,3.06-.32.15Z"/><path class="cls-3" d="M8,24.38c.49,1,.46,1.76-.08,2s-1.07-.17-1.56-1.18-.41-1.76.09-2S7.55,23.41,8,24.38Zm-1.31.68c.38.8.79,1.16,1.09,1s.27-.73-.11-1.51-.75-1.18-1.09-1S6.31,24.23,6.71,25.06Z"/><path class="cls-3" d="M8.51,22.78h0l-.29.49L8,23l.36-.62.29-.13,1.46,3.06-.32.15Z"/><path class="cls-3" d="M11.88,22.53c.5,1,.47,1.76-.07,2s-1.08-.17-1.57-1.18-.4-1.76.09-2S11.42,21.56,11.88,22.53Zm-1.3.68c.38.8.79,1.16,1.09,1s.27-.73-.11-1.51-.75-1.18-1.09-1S10.18,22.38,10.58,23.21Z"/><path class="cls-3" d="M12.38,20.93h0l-.29.49-.21-.28.36-.62.28-.13L14,23.45l-.32.15Z"/><path class="cls-3" d="M15.75,20.68c.5,1,.47,1.76-.08,2s-1.07-.17-1.56-1.18-.41-1.76.09-2S15.29,19.7,15.75,20.68Zm-1.31.68c.38.8.8,1.16,1.1,1s.26-.73-.11-1.51-.75-1.18-1.1-1S14,20.53,14.44,21.36Z"/><path class="cls-3" d="M16.25,19.08h0l-.29.49-.22-.28.37-.62.28-.13,1.47,3.06-.33.15Z"/><path class="cls-3" d="M19.62,18.83c.5,1,.46,1.76-.08,2s-1.07-.17-1.56-1.18-.41-1.76.09-2S19.15,17.85,19.62,18.83Zm-1.31.68c.38.8.79,1.16,1.1,1s.26-.73-.11-1.51-.76-1.18-1.1-1S17.91,18.68,18.31,19.51Z"/><path class="cls-3" d="M20.11,17.23h0l-.28.49-.22-.28.37-.62.28-.13,1.46,3.06-.32.15Z"/><path class="cls-3" d="M23.49,17c.49,1,.46,1.76-.08,2s-1.07-.17-1.57-1.18-.4-1.76.09-2S23,16,23.49,17Zm-1.31.68c.38.8.79,1.16,1.09,1s.27-.73-.11-1.51-.75-1.18-1.09-1S21.78,16.83,22.18,17.66Z"/><path class="cls-3" d="M24,15.38h0l-.29.49-.21-.28.36-.62.29-.13,1.46,3.06-.32.15Z"/><path class="cls-3" d="M27.35,15.13c.5,1,.47,1.76-.08,2S26.2,17,25.71,16s-.41-1.76.09-2S26.89,14.15,27.35,15.13Zm-1.3.68c.38.8.79,1.16,1.09,1s.26-.73-.11-1.51-.75-1.18-1.09-1S25.65,15,26.05,15.81Z"/><path class="cls-3" d="M27.85,13.53h0l-.29.49-.21-.28.36-.62L28,13l1.47,3.06-.32.15Z"/><path class="cls-3" d="M31.22,13.28c.5,1,.46,1.76-.08,2s-1.07-.18-1.56-1.18-.41-1.77.09-2S30.75,12.3,31.22,13.28ZM29.91,14c.38.8.8,1.16,1.1,1s.26-.73-.11-1.51-.75-1.18-1.1-1S29.51,13.13,29.91,14Z"/><path class="cls-3" d="M31.71,11.68h0l-.29.49-.22-.28.37-.62.28-.13,1.46,3.06-.32.15Z"/><path class="cls-3" d="M35.09,11.43c.5,1,.46,1.76-.08,2s-1.07-.18-1.56-1.18-.41-1.77.09-2S34.62,10.45,35.09,11.43Zm-1.31.68c.38.8.79,1.16,1.09,1s.27-.73-.1-1.51-.76-1.18-1.1-1S33.38,11.28,33.78,12.11Z"/><path class="cls-3" d="M35.58,9.83h0l-.28.49L35.07,10l.36-.62.29-.13,1.46,3.06-.32.15Z"/><path class="cls-3" d="M37.52,8.9h0l-.29.5L37,9.11l.37-.61.28-.14,1.47,3.06-.33.16Z"/><path class="cls-3" d="M5.41,31.21h0l-.29.49-.22-.28.37-.62.28-.13L7,33.73l-.33.15Z"/><path class="cls-3" d="M7.35,30.28h0l-.29.49-.21-.29.36-.61.28-.14L9,32.8,8.63,33Z"/><path class="cls-3" d="M10.72,30c.5,1,.47,1.77-.08,2s-1.07-.18-1.56-1.19-.41-1.76.09-2S10.26,29.06,10.72,30Zm-1.31.69c.39.79.8,1.15,1.1,1s.26-.74-.11-1.52-.75-1.17-1.09-1S9,29.88,9.41,30.72Z"/><path class="cls-3" d="M11.22,28.43h0l-.29.49-.22-.29.37-.61.28-.14L12.82,31l-.32.16Z"/><path class="cls-3" d="M14.59,28.18c.5,1,.46,1.77-.08,2S13.44,30,13,29s-.41-1.76.09-2S14.12,27.21,14.59,28.18Zm-1.31.69c.38.79.79,1.15,1.1,1s.26-.74-.11-1.52-.75-1.17-1.1-1S12.88,28,13.28,28.87Z"/><path class="cls-3" d="M15.08,26.58h0l-.29.49-.22-.29.37-.61.28-.14,1.46,3.06-.32.16Z"/><path class="cls-3" d="M18.46,26.33c.49,1,.46,1.77-.08,2s-1.07-.18-1.56-1.19-.41-1.76.09-2S18,25.36,18.46,26.33ZM17.15,27c.38.79.79,1.15,1.09,1s.27-.74-.11-1.52-.75-1.17-1.09-1S16.75,26.18,17.15,27Z"/><path class="cls-3" d="M20.39,25.41c.5,1,.46,1.76-.08,2s-1.07-.18-1.56-1.18-.41-1.77.09-2S19.92,24.43,20.39,25.41Zm-1.31.68c.38.8.8,1.16,1.1,1s.26-.73-.11-1.51-.75-1.18-1.1-1S18.68,25.26,19.08,26.09Z"/><path class="cls-3" d="M20.88,23.81h0l-.29.49L20.37,24l.37-.62.28-.13,1.46,3.06-.32.15Z"/><path class="cls-3" d="M22.82,22.88h0l-.29.5-.21-.29.36-.61.28-.14,1.47,3.06-.32.16Z"/><path class="cls-3" d="M24.75,22h0l-.28.49-.22-.28.36-.62.29-.13,1.46,3.06-.32.15Z"/><path class="cls-3" d="M28.12,21.71c.5,1,.47,1.76-.07,2s-1.07-.18-1.57-1.18-.4-1.77.09-2S27.66,20.73,28.12,21.71Zm-1.3.68c.38.8.79,1.16,1.09,1s.27-.73-.11-1.51-.75-1.18-1.09-1S26.42,21.56,26.82,22.39Z"/><path class="cls-3" d="M28.62,20.11h0l-.29.49-.21-.28.36-.62.28-.13,1.47,3.06-.32.15Z"/><path class="cls-3" d="M32,19.86c.5,1,.47,1.76-.08,2s-1.07-.18-1.56-1.18-.41-1.77.09-2S31.53,18.88,32,19.86Zm-1.31.68c.38.8.8,1.16,1.1,1s.26-.73-.11-1.51-.75-1.18-1.1-1S30.29,19.71,30.68,20.54Z"/><path class="cls-3" d="M32.49,18.26h0l-.29.49L32,18.47l.37-.62.28-.13,1.47,3.06-.32.15Z"/><path class="cls-3" d="M35.86,18c.5,1,.46,1.76-.08,2s-1.07-.18-1.56-1.19-.41-1.76.09-2S35.39,17,35.86,18Zm-1.31.68c.38.8.79,1.16,1.1,1s.26-.73-.11-1.51-.76-1.18-1.1-1S34.15,17.86,34.55,18.69Z"/><path class="cls-3" d="M36.35,16.41h0l-.29.49-.22-.28.37-.62.28-.13L38,18.93l-.32.15Z"/><path class="cls-3" d="M38.29,15.48h0L38,16l-.21-.29.36-.61.28-.14L39.89,18l-.32.16Z"/><path class="cls-3" d="M41.66,15.23c.5,1,.46,1.77-.08,2s-1.07-.17-1.56-1.18-.41-1.76.09-2S41.19,14.26,41.66,15.23Zm-1.31.69c.38.79.8,1.15,1.1,1s.26-.74-.11-1.52-.75-1.17-1.1-1S40,15.08,40.35,15.92Z"/><path class="cls-3" d="M8.12,36.86h0l-.29.49-.21-.29L8,36.46l.29-.14,1.46,3.06-.32.16Z"/><path class="cls-3" d="M11.49,36.61c.5,1,.47,1.77-.08,2s-1.07-.18-1.56-1.19-.41-1.76.09-2S11,35.64,11.49,36.61Zm-1.3.69c.38.79.79,1.15,1.09,1s.26-.74-.11-1.52-.75-1.17-1.09-1S9.79,36.46,10.19,37.3Z"/><path class="cls-3" d="M13.43,35.69c.5,1,.46,1.76-.08,2s-1.07-.18-1.56-1.18-.41-1.77.09-2S13,34.71,13.43,35.69Zm-1.31.68c.38.8.79,1.16,1.09,1s.27-.73-.11-1.51-.75-1.18-1.09-1S11.72,35.54,12.12,36.37Z"/><path class="cls-3" d="M13.92,34.09h0l-.29.49-.21-.28.36-.62.29-.13,1.46,3.06-.32.15Z"/><path class="cls-3" d="M15.85,33.16h0l-.29.5-.22-.29.37-.61.28-.14,1.46,3.06-.32.16Z"/><path class="cls-3" d="M19.23,32.91c.5,1,.46,1.77-.08,2s-1.07-.18-1.56-1.19-.41-1.76.09-2S18.76,31.94,19.23,32.91Zm-1.31.69c.38.79.79,1.15,1.09,1s.27-.74-.1-1.52-.76-1.17-1.1-1S17.52,32.76,17.92,33.6Z"/><path class="cls-3" d="M19.72,31.31h0l-.28.5-.22-.29.36-.61.29-.14,1.46,3.06L21,34Z"/><path class="cls-3" d="M21.66,30.39h0l-.29.49-.22-.28.37-.62.28-.13,1.47,3.06-.32.15Z"/><path class="cls-3" d="M23.59,29.46h0l-.29.5-.21-.29.36-.61.28-.14L25.19,32l-.32.16Z"/><path class="cls-3" d="M27,29.21c.5,1,.47,1.77-.08,2s-1.07-.17-1.56-1.18-.41-1.76.09-2S26.5,28.24,27,29.21Zm-1.31.69c.39.79.8,1.15,1.1,1s.26-.74-.11-1.52-.75-1.17-1.09-1S25.26,29.06,25.65,29.9Z"/><path class="cls-3" d="M27.46,27.61h0l-.29.49L27,27.82l.36-.61.28-.14,1.47,3.06-.32.15Z"/><path class="cls-3" d="M30.83,27.36c.5,1,.46,1.76-.08,2s-1.07-.17-1.56-1.18-.41-1.76.09-2S30.36,26.39,30.83,27.36Zm-1.31.69c.38.79.8,1.15,1.1,1s.26-.74-.11-1.52-.75-1.17-1.1-1S29.12,27.21,29.52,28.05Z"/><path class="cls-3" d="M31.32,25.76h0l-.29.49L30.81,26l.37-.61.28-.14,1.46,3.06-.32.15Z"/><path class="cls-3" d="M34.7,25.51c.5,1,.46,1.76-.08,2s-1.07-.17-1.56-1.18-.41-1.76.09-2S34.23,24.54,34.7,25.51Zm-1.31.69c.38.79.79,1.15,1.09,1s.27-.73-.11-1.51-.75-1.17-1.09-1S33,25.36,33.39,26.2Z"/><path class="cls-3" d="M35.19,23.91h0l-.29.49-.21-.28.36-.61.29-.14,1.46,3.06-.32.15Z"/><path class="cls-3" d="M37.12,23h0l-.29.49-.22-.29.37-.61.28-.14,1.46,3.07-.32.15Z"/><path class="cls-3" d="M39.06,22.06h0l-.29.49-.21-.28.36-.61.28-.14,1.47,3.06-.32.15Z"/><path class="cls-3" d="M42.43,21.81c.5,1,.47,1.76-.08,2s-1.07-.17-1.56-1.18-.41-1.76.09-2S42,20.84,42.43,21.81Zm-1.31.68c.38.8.8,1.16,1.1,1s.26-.73-.11-1.51-.75-1.18-1.1-1S40.72,21.66,41.12,22.49Z"/><path class="cls-3" d="M16.13,41.34c.5,1,.47,1.76-.08,2s-1.07-.17-1.56-1.18-.41-1.76.09-2S15.67,40.37,16.13,41.34ZM14.82,42c.39.79.8,1.15,1.1,1s.26-.74-.11-1.52-.75-1.17-1.09-1S14.43,41.19,14.82,42Z"/><path class="cls-3" d="M16.63,39.74h0l-.29.49L16.11,40l.37-.61.28-.14,1.47,3.06-.32.15Z"/><path class="cls-3" d="M20,39.49c.5,1,.46,1.76-.08,2s-1.07-.17-1.56-1.18-.41-1.76.09-2S19.53,38.52,20,39.49Zm-1.31.69c.38.79.79,1.15,1.1,1s.26-.74-.11-1.52-.75-1.17-1.1-1S18.29,39.34,18.69,40.18Z"/><path class="cls-3" d="M20.49,37.89h0l-.29.49L20,38.1l.37-.61.28-.14,1.46,3.06-.32.15Z"/><path class="cls-3" d="M23.87,37.64c.49,1,.46,1.76-.08,2s-1.07-.17-1.56-1.18-.41-1.76.09-2S23.4,36.67,23.87,37.64Zm-1.31.68c.38.8.79,1.16,1.09,1s.27-.73-.11-1.51-.75-1.18-1.09-1S22.16,37.49,22.56,38.32Z"/><path class="cls-3" d="M25.8,36.72c.5,1,.46,1.76-.08,2s-1.07-.18-1.56-1.19-.41-1.76.09-2S25.33,35.74,25.8,36.72Zm-1.31.68c.38.8.8,1.15,1.1,1s.26-.73-.11-1.52-.75-1.17-1.1-1S24.09,36.57,24.49,37.4Z"/><path class="cls-3" d="M26.29,35.11h0l-.29.49-.22-.29.37-.61.28-.14,1.46,3.07-.32.15Z"/><path class="cls-3" d="M29.67,34.87c.5,1,.46,1.76-.08,2S28.52,36.71,28,35.7s-.41-1.76.09-2S29.2,33.89,29.67,34.87Zm-1.31.68c.38.8.79,1.15,1.09,1s.27-.73-.1-1.52-.76-1.17-1.1-1S28,34.72,28.36,35.55Z"/><path class="cls-3" d="M30.16,33.26h0l-.28.49-.22-.29.36-.61.29-.14,1.46,3.07-.32.15Z"/><path class="cls-3" d="M33.53,33c.5,1,.47,1.76-.07,2s-1.07-.18-1.57-1.19-.4-1.76.09-2S33.07,32,33.53,33Zm-1.3.68c.38.8.79,1.15,1.09,1s.27-.74-.11-1.52-.75-1.17-1.09-1S31.83,32.87,32.23,33.7Z"/><path class="cls-3" d="M34,31.41h0l-.29.49-.21-.29.36-.61.28-.14,1.47,3.07-.32.15Z"/><path class="cls-3" d="M36,30.49h0l-.28.49-.22-.28.37-.62L36.1,30,37.56,33l-.32.15Z"/><path class="cls-3" d="M39.34,30.24c.49,1,.46,1.76-.08,2s-1.07-.17-1.57-1.18-.4-1.76.09-2S38.87,29.27,39.34,30.24ZM38,30.92c.38.8.79,1.16,1.09,1s.27-.73-.11-1.51-.75-1.18-1.09-1S37.63,30.09,38,30.92Z"/><path class="cls-3" d="M39.83,28.64h0l-.29.49-.21-.28.36-.62L40,28.1l1.46,3.06-.32.15Z"/><path class="cls-3" d="M27.07,41.69h0l-.29.49-.22-.29.37-.61.28-.14,1.47,3.06-.32.16Z"/><path class="cls-3" d="M29,40.77h0l-.29.49L28.49,41l.36-.62.28-.13,1.47,3.06-.32.15Z"/><path class="cls-3" d="M32.37,40.52c.5,1,.47,1.76-.08,2s-1.07-.17-1.56-1.18-.41-1.76.09-2S31.91,39.55,32.37,40.52Zm-1.31.68c.39.8.8,1.16,1.1,1s.26-.73-.11-1.51-.75-1.18-1.09-1S30.67,40.37,31.06,41.2Z"/><path class="cls-3" d="M32.87,38.92h0l-.29.49-.21-.28.36-.62.28-.13,1.47,3.06-.32.15Z"/><path class="cls-3" d="M34.8,38h0l-.29.49-.21-.29.36-.61.29-.14,1.46,3.06-.32.16Z"/></g></g></svg>