<svg xmlns="http://www.w3.org/2000/svg" viewBox="0 0 74 74"><defs><style>.cls-1,.cls-2{fill:#666;}.cls-2{opacity:0.6;}.cls-3{fill:#9c3;}</style></defs><g id="upper"><rect class="cls-1" x="24.14" y="69.9" width="2.47" height="3.86"/><rect class="cls-1" x="35.81" y="69.9" width="2.47" height="3.86"/><rect class="cls-1" x="47.49" y="69.9" width="2.47" height="3.86"/><rect class="cls-1" x="24.14" y="0.25" width="2.47" height="3.86"/><rect class="cls-1" x="35.81" y="0.25" width="2.47" height="3.86"/><rect class="cls-1" x="47.49" y="0.25" width="2.47" height="3.86"/><rect class="cls-1" x="0.25" y="22.33" width="3.86" height="2.47"/><rect class="cls-1" x="0.25" y="34.01" width="3.86" height="2.47"/><rect class="cls-1" x="0.25" y="45.68" width="3.86" height="2.47"/><rect class="cls-1" x="69.9" y="22.33" width="3.86" height="2.47"/><rect class="cls-1" x="69.9" y="34.01" width="3.86" height="2.47"/><rect class="cls-1" x="69.9" y="45.68" width="3.86" height="2.47"/><path class="cls-2" d="M55.52,10.56h-37a7.93,7.93,0,0,0-7.92,7.92v37a7.93,7.93,0,0,0,7.92,7.92h37a7.93,7.93,0,0,0,7.92-7.92v-37A7.93,7.93,0,0,0,55.52,10.56Zm1.24,46.2H17.24V17.24H56.76Z"/><rect class="cls-3" x="28.65" y="28.65" width="16.7" height="16.7"/></g></svg>