<svg id="Layer_1" data-name="Layer 1" xmlns="http://www.w3.org/2000/svg" viewBox="0 0 44 60.14"><defs><style>.cls-1{font-size:6.88px;fill:#1d1d1b;font-family:Lato;font-weight:700;}.cls-2{letter-spacing:-0.01em;}.cls-3{letter-spacing:-0.01em;}.cls-4{fill:#9ac43a;}.cls-5{fill:#fff;}</style></defs><text class="cls-1" transform="translate(7.34 58.18)">96<tspan class="cls-2" x="7.98" y="0">B</tspan><tspan x="12.47" y="0">oa</tspan><tspan class="cls-3" x="19.92" y="0">r</tspan><tspan x="22.39" y="0">ds</tspan></text><circle class="cls-4" cx="22" cy="22" r="22"/><path class="cls-5" d="M22,1.45A20.53,20.53,0,0,0,8.79,37.71h0A20.54,20.54,0,1,0,22,1.45ZM35.18,37.22c-.16.15-.34.29-.51.43a20.1,20.1,0,0,1-25.46-.09l-.41-.34a20.16,20.16,0,1,1,26.38,0Z"/><path class="cls-5" d="M19.5,29.6a6.34,6.34,0,0,1,1.11-.09,2,2,0,0,1,1.2.27.88.88,0,0,1,.44.78,1,1,0,0,1-.7.91h0a1.08,1.08,0,0,1,.44,1.9,2.33,2.33,0,0,1-1.55.39,9.05,9.05,0,0,1-.94-.05Zm.76,1.65h.39c.53,0,.83-.25.83-.6s-.3-.57-.79-.57a2,2,0,0,0-.43,0Zm0,1.93h.4c.49,0,.93-.18.93-.7s-.42-.68-.95-.68h-.38Z"/><path class="cls-5" d="M25.81,32.19a1.5,1.5,0,0,1-1.55,1.61,1.46,1.46,0,0,1-1.52-1.56,1.49,1.49,0,0,1,1.57-1.6A1.45,1.45,0,0,1,25.81,32.19Zm-2.28,0c0,.58.29,1,.75,1s.74-.42.74-1-.21-1-.73-1S23.53,31.72,23.53,32.22Z"/><path class="cls-5" d="M28,33.73,28,33.39h0a1.13,1.13,0,0,1-.9.41.9.9,0,0,1-.95-.9c0-.77.68-1.15,1.8-1.15V31.7c0-.19-.08-.52-.62-.52a1.57,1.57,0,0,0-.81.22l-.15-.5a2.23,2.23,0,0,1,1.09-.26,1.13,1.13,0,0,1,1.25,1.27V33a5.07,5.07,0,0,0,0,.73Zm-.1-1.48c-.54,0-1.05.11-1.05.57a.4.4,0,0,0,.43.43.62.62,0,0,0,.6-.42.44.44,0,0,0,0-.16Z"/><path class="cls-5" d="M29.33,31.68c0-.41,0-.7,0-1H30l0,.58h0a.88.88,0,0,1,.82-.64H31v.72l-.22,0a.68.68,0,0,0-.69.58,1.64,1.64,0,0,0,0,.23v1.57h-.76Z"/><path class="cls-5" d="M34.2,29.32v3.56c0,.31,0,.64,0,.85h-.68l0-.48h0a1.09,1.09,0,0,1-1,.55,1.39,1.39,0,0,1-1.29-1.55,1.43,1.43,0,0,1,1.35-1.61,1,1,0,0,1,.85.39h0V29.32ZM33.43,32a1.21,1.21,0,0,0,0-.19.67.67,0,0,0-.66-.54c-.49,0-.77.43-.77,1s.28,1,.76,1a.68.68,0,0,0,.66-.54.78.78,0,0,0,0-.22Z"/><path class="cls-5" d="M34.84,33a1.75,1.75,0,0,0,.78.21c.33,0,.48-.13.48-.33s-.12-.31-.5-.44c-.59-.21-.83-.53-.83-.88,0-.54.44-.95,1.14-.95a1.73,1.73,0,0,1,.81.18l-.15.54a1.32,1.32,0,0,0-.64-.18c-.28,0-.43.13-.43.32s.15.28.53.42c.55.2.8.48.81.93s-.43.94-1.23.94a2,2,0,0,1-.92-.21Z"/><path class="cls-5" d="M27.89,15.35a7.79,7.79,0,0,0-4.18-1.72l-.55-.21,5.05-6.33H23.47l-4,5.14c-.33.4-.63.86-.91,1.23a7.14,7.14,0,0,1,2.68,1.71,7,7,0,0,1,1.44,2.1h.25a2.88,2.88,0,0,1,2,4.93,2.86,2.86,0,0,1-1.79.84,8.68,8.68,0,0,1-.65,1.78,14.6,14.6,0,0,1-1.28,2.09,8.27,8.27,0,0,0,1.6.16,6.88,6.88,0,0,0,5-1.88,7.28,7.28,0,0,0,2-5.4A5.52,5.52,0,0,0,27.89,15.35Z"/><path class="cls-5" d="M18.08,20.64a2.32,2.32,0,0,0-2-2.25,7.75,7.75,0,0,0-.14,1.45,8.51,8.51,0,0,0,.5,3,2.23,2.23,0,0,0,1-.59A2.16,2.16,0,0,0,18.08,20.64Z"/><path class="cls-5" d="M20.75,15.64a6.67,6.67,0,0,0-4.86-1.91,6.87,6.87,0,0,0-5,1.9,7.21,7.21,0,0,0-2,5.37,5.46,5.46,0,0,0,1.9,4.42A7.75,7.75,0,0,0,15,27.14l.55.07-.25.66-4.8,6.25h4.74l4.05-5.35a22.54,22.54,0,0,0,2.66-4.05,8.45,8.45,0,0,0,.84-3.67A7.47,7.47,0,0,0,20.75,15.64Zm-2.91,7a2.84,2.84,0,0,1-4.07,0,2.88,2.88,0,0,1,2-4.9,2.92,2.92,0,0,1,2.9,2.88A2.76,2.76,0,0,1,17.84,22.66Z"/></svg>