<svg xmlns="http://www.w3.org/2000/svg" viewBox="0 0 138.93 145.96"><defs><style>.cls-1{font-size:16px;font-family:Lato-Black, Lato;font-weight:800;letter-spacing:-0.01em;}.cls-1,.cls-2,.cls-4{fill:#fff;}.cls-2{opacity:0.2;}.cls-3{fill:#9c3;}</style></defs><g id="map"><text class="cls-1" transform="translate(40.65 36.67) rotate(-1)">S<tspan x="8.72" y="0.15">e</tspan><tspan x="17.21" y="0.29">c</tspan><tspan x="24.85" y="0.44">u</tspan><tspan x="33.83" y="0.57">r</tspan><tspan x="39.8" y="0.65">i</tspan><tspan x="43.93" y="0.74">t</tspan><tspan x="49.94" y="0.87">y</tspan></text><polygon class="cls-2" points="138.93 0 138.93 125.71 134.65 125.71 134.65 4.28 4.28 4.28 4.28 138.5 106.35 138.5 106.35 142.77 0 142.77 0 0 138.93 0"/><polygon class="cls-3" points="122.36 140.63 113.13 135.31 113.13 145.96 122.36 140.63"/><polygon class="cls-3" points="136.54 140.63 127.31 135.31 127.31 145.96 136.54 140.63"/><path class="cls-4" d="M90.88,112.6h-39A2.58,2.58,0,0,1,49.26,110V80.82a2.59,2.59,0,0,1,2.58-2.59h4.65V70.72a14.88,14.88,0,0,1,29.74-.15v7.66h4.65a2.59,2.59,0,0,1,2.58,2.59V110A2.58,2.58,0,0,1,90.88,112.6Zm-39-33.42a1.63,1.63,0,0,0-1.63,1.64V110a1.64,1.64,0,0,0,1.63,1.64h39A1.64,1.64,0,0,0,92.51,110V80.82a1.63,1.63,0,0,0-1.63-1.64H85.29V70.59a13.94,13.94,0,0,0-27.86.15v8.44Z"/><path class="cls-4" d="M76,103.07H66.68l2.5-7.82A4.93,4.93,0,1,1,75.78,93a5,5,0,0,1-2.23,2.23Z"/><path class="cls-4" d="M81.52,79.18H61.22V70.57a10.15,10.15,0,0,1,20.29,0Zm-19.35-1h18.4V70.6a9.2,9.2,0,0,0-18.39,0Z"/></g></svg>