<svg xmlns="http://www.w3.org/2000/svg" viewBox="0 0 74.47 76.3"><defs><style>.cls-1,.cls-2{fill:#fff;}.cls-2{font-size:12.05px;font-family:Lato-Regular, Lato;}.cls-3{letter-spacing:0em;}.cls-4{letter-spacing:-0.02em;}</style></defs><g id="map"><path class="cls-1" d="M54.74,50.49h-35a2.31,2.31,0,0,1-2.31-2.31V22a2.31,2.31,0,0,1,2.31-2.31h4.17V12.92a13.35,13.35,0,0,1,26.69-.14v6.88h4.16A2.32,2.32,0,0,1,57.06,22V48.18A2.32,2.32,0,0,1,54.74,50.49Zm-35-30A1.46,1.46,0,0,0,18.25,22V48.18a1.46,1.46,0,0,0,1.47,1.46h35a1.46,1.46,0,0,0,1.47-1.46V22a1.46,1.46,0,0,0-1.47-1.46h-5V12.79a12.5,12.5,0,0,0-25,.14v7.58Z"/><path class="cls-1" d="M41.42,41.94H33l2.25-7a4.42,4.42,0,1,1,3.91,0Z"/><path class="cls-1" d="M46.35,20.51H28.14V12.92a.33.33,0,0,1,0-.14,9.1,9.1,0,0,1,18.2,0ZM29,19.66H45.5V12.8a8.26,8.26,0,0,0-16.51,0Z"/><text class="cls-2" transform="translate(15.81 69.92)"><tspan class="cls-3">S</tspan><tspan x="6.5" y="0">ecurit</tspan><tspan class="cls-4" x="36.92" y="0">y</tspan></text></g></svg>