<svg xmlns="http://www.w3.org/2000/svg" viewBox="0 0 74.47 71.36"><defs><style>.cls-1,.cls-2{fill:#fff;}.cls-2{font-size:12.05px;font-family:Lato-Regular, Lato;}.cls-3{letter-spacing:-0.12em;}</style></defs><g id="map"><path class="cls-1" d="M34.12,45.45l-6.29-1.89,0-.34c0-.39.05-.77.1-1.14.18-1.56.37-3.13.56-4.69a1.14,1.14,0,0,0-.46-1.13c-.56-.43-1.1-.88-1.61-1.31l-.31-.26a1,1,0,0,0-.59-.26,1.07,1.07,0,0,0-.43.06l-4.22,1.4-1.78.58L16,30.64l2.32-1.83c.9-.71,1.79-1.41,2.67-2.12a1,1,0,0,0,.37-.82c-.08-.91-.16-1.83-.26-2.72a1,1,0,0,0-.53-.76l-5.37-2.7-.32-.16.41-1.33c.08-.26.16-.53.25-.8l.19-.61.49.42A10.65,10.65,0,0,0,18,18.45q.3.16.6.3a11.25,11.25,0,0,0,3.88,1,11.53,11.53,0,0,0,3.61-.26l.23-.05,1.14,1.16-.05.22A11.35,11.35,0,0,0,27.27,22a10.26,10.26,0,0,0,9.32,11.1,10.05,10.05,0,0,0,3.62-.33l.22-.06.55.44,1.77,1.35c2.37,1.77,4.8,3.42,7.21,4.92l.5.3.12.08.05.14.15.44.26.84-5.83,3.13-1.92-2.44c-.67-.85-1.32-1.68-2-2.51a1.11,1.11,0,0,0-.77-.41h-.14l-1.6.15-1,.1a1,1,0,0,0-.86.62l-2.66,5.3Zm-5.39-2.51,4.95,1.5,2.49-5a1.85,1.85,0,0,1,1.56-1.1l1-.1,1.62-.16h.28a2,2,0,0,1,1.36.72c.68.84,1.34,1.68,2,2.52l1.48,1.88L50,40.78,50,40.61a2.76,2.76,0,0,0-.08-.27l-.36-.22c-2.44-1.51-4.89-3.18-7.27-5-.6-.45-1.2-.9-1.79-1.37l-.18-.13-.05,0A11.09,11.09,0,0,1,26.42,21.91c0-.34.08-.69.14-1l-.49-.5a12.36,12.36,0,0,1-3.64.22,12.17,12.17,0,0,1-4.15-1.07c-.22-.1-.44-.21-.67-.34a11.21,11.21,0,0,1-1.45-.94l-.06.19-.2.65c1.69.85,3.38,1.69,5.07,2.55a1.86,1.86,0,0,1,1,1.41c.1.9.19,1.83.27,2.76a1.83,1.83,0,0,1-.69,1.54c-.88.72-1.78,1.42-2.67,2.12l-1.77,1.39,2.45,4.58,1.11-.36c1.4-.46,2.81-.92,4.21-1.4a2,2,0,0,1,.77-.1,2,2,0,0,1,1.07.47l.26.21c.55.47,1.08.91,1.61,1.32a2,2,0,0,1,.8,1.94c-.19,1.53-.38,3.1-.56,4.65C28.77,42.43,28.75,42.68,28.73,42.94Z"/><path class="cls-1" d="M58.3,31.93l-.5-.52L57.41,31c-1.94-1.87-4-3.75-6.28-5.57-.89-.73-1.7-1.37-2.5-2l-.27-.21.16-.41-.26.33-.39-.29-.17-.12v-.21A10.26,10.26,0,0,0,34.79,13l-.8.22.29-.77a10.54,10.54,0,0,0,.51-5.22l-.08-.49h.62l.16,0c.48,0,.94-.1,1.39-.13A1.28,1.28,0,0,0,38,5.81c.74-1.48,1.47-2.93,2.21-4.38L40.8.32l.34.1L42.92,1l2,.6,1.87.56.35.11,0,.35c-.22,1.88-.46,3.83-.7,6a1.08,1.08,0,0,0,.36.89c.69.58,1.38,1.15,2.07,1.69a1.1,1.1,0,0,0,.54.2,1.07,1.07,0,0,0,.4,0l2.37-.78,3.64-1.19,3.12,5.82-1.8,1.44C56,17.4,55,18.23,53.9,19.07a1,1,0,0,0-.37.83c.09,1,.18,1.92.28,2.81a.93.93,0,0,0,.54.68L60,26.25Zm-9.77-9.6.25.19.1.08a2.69,2.69,0,0,1,.28.22c.79.6,1.61,1.25,2.5,2,2.22,1.81,4.31,3.67,6.23,5.52L59,26.69l-5-2.53a1.76,1.76,0,0,1-1-1.33c-.11-.92-.2-1.86-.28-2.88a1.88,1.88,0,0,1,.68-1.54l3.17-2.51,1.25-1-2.46-4.57-2.95,1L50,12.09a1.74,1.74,0,0,1-.72.07,1.83,1.83,0,0,1-1-.37c-.7-.55-1.4-1.13-2.1-1.72a1.89,1.89,0,0,1-.65-1.61c.23-2,.44-3.86.66-5.63l-1.54-.47-2-.59c-.48-.16-1-.3-1.43-.44L41,1.82c-.74,1.44-1.48,2.89-2.2,4.35a2.11,2.11,0,0,1-1.87,1.24l-1.24.12A11.44,11.44,0,0,1,35.31,12a10.56,10.56,0,0,1,3-.16A11.06,11.06,0,0,1,48.53,22.33Z"/><path class="cls-1" d="M60.38,37.07a3,3,0,0,0-.26-.89h0a3.64,3.64,0,0,0-.69-1l.06,0c-.9-1-1.92-2.06-3.06-3.16l-.1-.09c-1.78-1.73-3.84-3.55-6.1-5.4-.74-.6-1.49-1.21-2.27-1.8l-.17-.13-.35-.29a104.18,104.18,0,0,0-10.06-6.85c-.69-.41-1.37-.79-2-1.15l-1.18-1.23-1.66-1.7-.15-.16A9.23,9.23,0,0,0,33.48,9.6a8.48,8.48,0,0,0-1.35-5.41c-.17-.25-.35-.5-.54-.73a2.61,2.61,0,0,0-.27-.31A9.63,9.63,0,0,0,24,0l2.39,3.72.87,1.35h0l1,1.48a2.75,2.75,0,0,1,0,2.91,2.91,2.91,0,0,1-1.06,1.06l-.87.54-2.73,1.62v0a3.27,3.27,0,0,1-2.78.24,4.39,4.39,0,0,1-.44-.21,2.59,2.59,0,0,1-1-.9L15.11,5.29a8.75,8.75,0,0,0,.32,8.92,8.94,8.94,0,0,0,3.24,3,5.2,5.2,0,0,0,.53.26,10.15,10.15,0,0,0,6.71.64q.42-.11.84-.24l.86.89,1.52,1.54c.36.43.74.88,1.17,1.32h0c.62.69,1.3,1.4,2,2.13a97.51,97.51,0,0,0,7.83,6.94c.53.44,1.1.88,1.66,1.32l.49.37,1.27,1c2,1.46,3.9,2.79,5.73,4,.47.31.93.6,1.38.88,1.57,1,3.05,1.82,4.42,2.53a.26.26,0,0,1-.09-.09,2.92,2.92,0,0,0,1.11.41h0a2.35,2.35,0,0,0,.65.06,3.55,3.55,0,0,0,2.87-1.34A3.43,3.43,0,0,0,60.38,37.07Z"/><text class="cls-2" transform="translate(12.12 64.04)"><tspan class="cls-3">T</tspan><tspan x="5.64" y="0">oolchain</tspan></text></g></svg>