<svg xmlns="http://www.w3.org/2000/svg" viewBox="0 0 55.35 55.35"><defs><style>.cls-1{fill:#fff;}</style></defs><g id="map"><rect class="cls-1" x="17.99" y="52.44" width="1.86" height="2.9"/><rect class="cls-1" x="26.78" y="52.44" width="1.86" height="2.9"/><rect class="cls-1" x="35.57" y="52.44" width="1.86" height="2.9"/><rect class="cls-1" x="17.99" width="1.86" height="2.9"/><rect class="cls-1" x="26.78" width="1.86" height="2.9"/><rect class="cls-1" x="35.57" width="1.86" height="2.9"/><rect class="cls-1" y="16.63" width="2.9" height="1.86"/><rect class="cls-1" y="25.42" width="2.9" height="1.86"/><rect class="cls-1" y="34.21" width="2.9" height="1.86"/><rect class="cls-1" x="52.44" y="16.63" width="2.9" height="1.86"/><rect class="cls-1" x="52.44" y="25.42" width="2.9" height="1.86"/><rect class="cls-1" x="52.44" y="34.21" width="2.9" height="1.86"/><path class="cls-1" d="M41.62,7.77H13.73a6,6,0,0,0-6,6V41.62a6,6,0,0,0,6,6H41.62a6,6,0,0,0,6-6V13.73A6,6,0,0,0,41.62,7.77Zm.93,34.78H12.8V12.8H42.55Z"/><rect class="cls-1" x="21.39" y="21.39" width="12.58" height="12.58"/></g></svg>