<svg xmlns="http://www.w3.org/2000/svg" viewBox="0 0 74.47 76.25"><defs><style>.cls-1,.cls-2{fill:#fff;}.cls-2{font-size:12.05px;font-family:Lato-Regular, Lato;}.cls-3{letter-spacing:-0.01em;}</style></defs><g id="map"><path class="cls-1" d="M62.88,2.39a.45.45,0,0,0-.45-.45h-5V7.29h5a.44.44,0,0,0,.44-.44Zm-4.94,4.4V2.45h4.43V6.79Z"/><polygon class="cls-1" points="40.95 14.07 40.95 15.63 37.82 15.63 37.82 15.12 40.44 15.12 40.44 14.57 37.82 14.57 37.82 14.07 40.95 14.07"/><path class="cls-1" d="M62.44,11.68h-5V17h5a.45.45,0,0,0,.44-.45V12.13A.45.45,0,0,0,62.44,11.68Zm-.06,4.85H57.94V12.19h4.44Z"/><path class="cls-1" d="M62.44,21.44h-5v5.35h5a.46.46,0,0,0,.31-.13.42.42,0,0,0,.13-.32V21.88A.44.44,0,0,0,62.44,21.44Zm-.06,4.84H57.94V22h4.44Z"/><path class="cls-1" d="M46.31,28.21V30.9l-.16.06a4,4,0,0,0-1.95,1.72l-.08.13h-.93V32.3h.64a4.6,4.6,0,0,1,2-1.74V28.72H43.19v-.51Z"/><polygon class="cls-1" points="46.31 18.46 46.31 20.02 43.19 20.02 43.19 19.51 45.8 19.51 45.8 18.96 43.19 18.96 43.19 18.46 46.31 18.46"/><path class="cls-1" d="M49.68,9.21v.55H62.44a2.37,2.37,0,0,1,2.37,2.37v4.46A2.37,2.37,0,0,1,62.44,19H49.68v.55H62.44a2.36,2.36,0,0,1,1.67.69,2.39,2.39,0,0,1,.7,1.68v4.46a2.38,2.38,0,0,1-2.37,2.37H49.68v1.91a4.75,4.75,0,0,1,1.85,1.68H63.59a1.22,1.22,0,0,1,1.22,1.22v2.31a1.22,1.22,0,0,1-1.22,1.22H51.53a4.53,4.53,0,0,1-7.7,0H32.75a1.23,1.23,0,0,1-1.23-1.22v-.37H32v.37a.71.71,0,0,0,.72.71H44.12l.08.13a4,4,0,0,0,7,0l.08-.13H63.59a.71.71,0,0,0,.71-.71V33.52a.71.71,0,0,0-.71-.71H51.24l-.08-.13A4.11,4.11,0,0,0,49.33,31L49.17,31V28.21H62.44a1.87,1.87,0,0,0,1.86-1.87V21.88A1.86,1.86,0,0,0,62.44,20H49.17V18.46H62.44a1.86,1.86,0,0,0,1.31-.55,1.82,1.82,0,0,0,.55-1.32V12.13a1.82,1.82,0,0,0-.55-1.32,1.86,1.86,0,0,0-1.31-.55H49.17V8.71H62.44A1.87,1.87,0,0,0,64.3,6.84V2.38A1.86,1.86,0,0,0,62.43.51H33.88A1.87,1.87,0,0,0,32,2.38V5.8H31.5V2.38A2.38,2.38,0,0,1,33.88,0H62.44a2.35,2.35,0,0,1,1.67.7,2.35,2.35,0,0,1,.7,1.68V6.84A2.37,2.37,0,0,1,62.44,9.2Z"/><path class="cls-1" d="M42.45,39.79a1,1,0,0,0-1-1H29.28a4.29,4.29,0,0,0-2-1.77V34.74h13a2.12,2.12,0,0,0,2.11-2.12V28.16A2.12,2.12,0,0,0,40.34,26h-13V25h13a2.12,2.12,0,0,0,2.11-2.11V18.4a2.12,2.12,0,0,0-2.12-2.12h-13V15.23h13a2.12,2.12,0,0,0,2.12-2.12V8.65a2.12,2.12,0,0,0-2.12-2.12H11.78A2.12,2.12,0,0,0,9.66,8.65v4.46a2.12,2.12,0,0,0,2.12,2.12H24v1.06H11.78A2.12,2.12,0,0,0,9.66,18.4v4.47A2.12,2.12,0,0,0,11.78,25H24V26H11.78a2.12,2.12,0,0,0-2.12,2.12v4.46a2.12,2.12,0,0,0,2.12,2.12H24V37a4.32,4.32,0,0,0-2.08,1.83H10.64a1,1,0,0,0-1,1v2.31a1,1,0,0,0,1,1H21.88a4.26,4.26,0,0,0,7.4,0H41.49a1,1,0,0,0,1-1ZM40.34,28a.2.2,0,0,1,.19.2v4.46a.19.19,0,0,1-.19.19H35.58V28Zm0-9.75a.2.2,0,0,1,.2.19v4.47a.2.2,0,0,1-.19.19H35.58V18.21Zm0-9.75a.19.19,0,0,1,.2.19v4.46a.19.19,0,0,1-.2.19H35.58V8.46Z"/><text class="cls-2" transform="translate(1.97 64.9)">Virtualiz<tspan class="cls-3" x="43.63" y="0">a</tspan><tspan x="49.54" y="0">tion</tspan></text></g></svg>