<svg xmlns="http://www.w3.org/2000/svg" viewBox="0 0 46.38 45.45"><defs><style>.cls-1{fill:#fff;}</style></defs><g id="map"><path class="cls-1" d="M20.07,45.45l-6.28-1.89,0-.34c0-.39.06-.77.1-1.14.18-1.56.38-3.13.57-4.69A1.13,1.13,0,0,0,14,36.26c-.55-.43-1.09-.88-1.6-1.31l-.31-.26a1.05,1.05,0,0,0-.59-.26,1.07,1.07,0,0,0-.43.06l-4.22,1.4-1.78.58L2,30.64l2.32-1.83c.9-.71,1.79-1.41,2.67-2.12a1,1,0,0,0,.37-.82C7.24,25,7.15,24,7.06,23.15a1,1,0,0,0-.53-.76l-5.37-2.7-.32-.16.41-1.33c.07-.26.16-.53.24-.8l.2-.61.48.42A10.73,10.73,0,0,0,4,18.45q.3.16.6.3a11.14,11.14,0,0,0,3.88,1,11.55,11.55,0,0,0,3.61-.26l.23-.05,1.14,1.16,0,.22A9.08,9.08,0,0,0,13.23,22a10.26,10.26,0,0,0,9.32,11.1,10.05,10.05,0,0,0,3.62-.33l.21-.06.56.44,1.77,1.35c2.37,1.77,4.8,3.42,7.21,4.92l.49.3.12.08,0,.14a3.26,3.26,0,0,1,.15.44l.27.84-5.83,3.13-1.92-2.44c-.67-.85-1.33-1.68-2-2.51a1.11,1.11,0,0,0-.77-.41h-.14l-1.6.15-1,.1a1,1,0,0,0-.86.62l-2.67,5.3Zm-5.38-2.51,5,1.5,2.49-5a1.83,1.83,0,0,1,1.55-1.1l1-.1,1.62-.16h.28a2,2,0,0,1,1.35.72q1,1.26,2,2.52l1.48,1.88L36,40.78l-.06-.17a1.43,1.43,0,0,0-.09-.27l-.35-.22c-2.44-1.51-4.89-3.18-7.28-5-.59-.45-1.19-.9-1.79-1.37l-.17-.13,0,0A11.09,11.09,0,0,1,12.38,21.91a9.09,9.09,0,0,1,.14-1l-.49-.5a12.36,12.36,0,0,1-3.64.22,12.17,12.17,0,0,1-4.15-1.07c-.22-.1-.44-.21-.67-.34a10.57,10.57,0,0,1-1.45-.94l-.06.19-.2.65c1.69.85,3.38,1.69,5.06,2.55a1.89,1.89,0,0,1,1,1.41c.1.9.19,1.83.27,2.76a1.83,1.83,0,0,1-.69,1.54c-.88.72-1.78,1.42-2.68,2.12L3,30.86l2.45,4.58,1.11-.36c1.4-.46,2.8-.92,4.21-1.4a2,2,0,0,1,.77-.1,2,2,0,0,1,1.07.47l.26.21c.55.47,1.08.91,1.61,1.32a2,2,0,0,1,.8,1.94c-.19,1.53-.38,3.1-.56,4.65C14.73,42.43,14.71,42.68,14.69,42.94Z"/><path class="cls-1" d="M44.26,31.93l-.51-.52L43.37,31c-1.94-1.87-4-3.75-6.29-5.57-.88-.73-1.69-1.37-2.49-2l-.27-.21.16-.41-.26.33-.39-.29-.17-.12v-.21a10.24,10.24,0,0,0-9.38-9.89,10.26,10.26,0,0,0-3.53.31l-.79.22.28-.77a10.43,10.43,0,0,0,.51-5.22l-.07-.49h.62l.16,0c.48,0,.93-.1,1.39-.13A1.29,1.29,0,0,0,24,5.81c.73-1.48,1.47-2.93,2.21-4.38L26.76.32l.34.1L28.88,1l2,.6,1.87.56.34.11,0,.35c-.23,1.88-.46,3.83-.7,6a1.08,1.08,0,0,0,.36.89c.69.58,1.38,1.15,2.07,1.69a1.1,1.1,0,0,0,.54.2,1.07,1.07,0,0,0,.4,0l2.37-.78L41.7,9.31l3.13,5.82L43,16.57l-3.16,2.5a1,1,0,0,0-.37.83c.09,1,.17,1.92.28,2.81a.93.93,0,0,0,.54.68L46,26.25Zm-9.77-9.6.25.19.1.08.28.22c.79.6,1.61,1.25,2.5,2,2.21,1.81,4.31,3.67,6.23,5.52L45,26.69l-5-2.53a1.76,1.76,0,0,1-1-1.33c-.11-.92-.2-1.86-.29-2.88a1.91,1.91,0,0,1,.69-1.54L42.5,15.9l1.25-1-2.46-4.57-3,1L36,12.09a1.77,1.77,0,0,1-.72.07,1.8,1.8,0,0,1-1-.37c-.7-.55-1.4-1.13-2.1-1.72a1.93,1.93,0,0,1-.66-1.61c.23-2,.45-3.86.67-5.63l-1.54-.47-2-.59c-.48-.16-1-.3-1.43-.44L27,1.82Q25.84,4,24.76,6.17a2.11,2.11,0,0,1-1.87,1.24l-1.25.12A11.25,11.25,0,0,1,21.27,12a10.56,10.56,0,0,1,3-.16A11.08,11.08,0,0,1,34.49,22.33Z"/><path class="cls-1" d="M46.34,37.07a3,3,0,0,0-.26-.89h0a3.64,3.64,0,0,0-.69-1l0,0c-.89-1-1.92-2.06-3.06-3.16L42.29,32c-1.79-1.73-3.84-3.55-6.1-5.4-.74-.6-1.49-1.21-2.27-1.8l-.17-.13-.35-.29a105.43,105.43,0,0,0-10.06-6.85c-.69-.41-1.37-.79-2-1.15l-1.19-1.23-1.65-1.7-.16-.16A8.91,8.91,0,0,0,19.43,9.6a8.48,8.48,0,0,0-1.34-5.41c-.17-.25-.35-.5-.54-.73l-.27-.31A9.63,9.63,0,0,0,9.91,0l2.38,3.72.88,1.35h0l1,1.48a2.75,2.75,0,0,1,0,2.91,3,3,0,0,1-1.06,1.06l-.87.54L9.48,12.68v0a3.25,3.25,0,0,1-2.77.24,3.55,3.55,0,0,1-.44-.21,2.59,2.59,0,0,1-1-.9L1.07,5.29a8.75,8.75,0,0,0,.32,8.92,8.86,8.86,0,0,0,3.24,3,5.2,5.2,0,0,0,.53.26,10.14,10.14,0,0,0,6.71.64c.28-.07.56-.15.83-.24l.87.89,1.52,1.54c.36.43.74.88,1.17,1.32h0c.62.69,1.3,1.4,2,2.13a99.12,99.12,0,0,0,7.82,6.94c.53.44,1.1.88,1.67,1.32l.48.37,1.28,1c2,1.46,3.89,2.79,5.73,4,.46.31.93.6,1.38.88,1.56,1,3.05,1.82,4.42,2.53a.43.43,0,0,1-.1-.09,3,3,0,0,0,1.11.41h0a2.35,2.35,0,0,0,.65.06,3.57,3.57,0,0,0,2.87-1.34A3.43,3.43,0,0,0,46.34,37.07Z"/></g></svg>