<svg id="Layer_1" data-name="Layer 1" xmlns="http://www.w3.org/2000/svg" viewBox="0 0 44 57.42"><defs><style>.cls-1{font-size:6.88px;fill:#1d1d1b;font-family:Lato;font-weight:700;}.cls-2{letter-spacing:-0.01em;}.cls-3{letter-spacing:0em;}.cls-4{letter-spacing:-0.01em;}.cls-5{letter-spacing:0em;}.cls-6,.cls-9{fill:#9ac43a;}.cls-7,.cls-8{fill:#fff;}.cls-10,.cls-8{stroke:#fff;}.cls-10,.cls-8,.cls-9{stroke-miterlimit:10;stroke-width:0.59px;}.cls-9{stroke:#9bc43a;}.cls-10{fill:none;}</style></defs><text class="cls-1" transform="translate(3.39 55.46)"><tspan class="cls-2">B</tspan><tspan class="cls-3" x="4.48" y="0">o</tspan><tspan class="cls-4" x="8.44" y="0">o</tspan><tspan x="12.33" y="0">tloade</tspan><tspan class="cls-5" x="31.63" y="0">r</tspan><tspan x="34.18" y="0">s</tspan></text><path class="cls-6" d="M22,0A22,22,0,1,0,40.48,33.93,21.19,21.19,0,0,0,42,31.25,22,22,0,0,0,22,0ZM40.23,31.45A1.14,1.14,0,0,0,40,31.1c.27-.53.52-1.07.74-1.63a1.64,1.64,0,0,0,.23.28l.06.05C40.77,30.37,40.51,30.91,40.23,31.45Z"/><path class="cls-7" d="M22,1.45A20.54,20.54,0,0,0,8.78,37.71h0c.4.33.8.65,1.22,1a20.52,20.52,0,0,0,30.22-7.22c.28-.54.54-1.08.77-1.65A20.55,20.55,0,0,0,22,1.45Zm18.71,28c-.22.56-.47,1.1-.74,1.63a20.15,20.15,0,0,1-4.79,6.12l-.51.43a20.1,20.1,0,0,1-24.38.74c-.37-.27-.73-.54-1.08-.83l-.41-.35A20.15,20.15,0,1,1,42.15,22,20,20,0,0,1,40.71,29.47Z"/><path class="cls-7" d="M16.17,32.51l-5.88,5.88-.28.28c-.42-.3-.82-.62-1.22-1h0a20.5,20.5,0,0,1-3.31-3.53L11.65,28Z"/><path class="cls-8" d="M33.57,15.63l-5.05-5.05a14.86,14.86,0,0,1,6.06-1A14.86,14.86,0,0,1,33.57,15.63Z"/><path class="cls-9" d="M17.1,32.31c-.37.14-.74.27-1.1.38-.83-.7-1.67-1.48-2.52-2.32s-1.41-1.47-2-2.18c.11-.37.24-.73.38-1.1.71.84,1.5,1.71,2.36,2.57S16.15,31.53,17.1,32.31Z"/><path class="cls-10" d="M24.8,27.64A28.77,28.77,0,0,1,21.59,30h0c-.28.18-.56.36-.85.52-.59.36-1.19.67-1.78,1l.38,2.5.2,1.29.21,1.35.8-.81.71-.71,1.46-1.45.71-.72,1.89-1.88Z"/><path class="cls-10" d="M13.64,23.36l.53-.85a30.12,30.12,0,0,1,2.33-3.16l-3.38-.49-1.78,1.78-.71.71L9,23l-.71.71-.7.7,1.2.18,1.31.19,2.6.38C13,24.58,13.28,24,13.64,23.36Z"/><path class="cls-10" d="M33.57,15.63l0,0-5.06-5.06a28.72,28.72,0,0,0-10.08,6.68c-.68.68-1.31,1.37-1.91,2.08a30.12,30.12,0,0,0-2.33,3.16l-.53.85c-.36.61-.68,1.22-1,1.82s-.59,1.28-.83,1.91c.71.84,1.5,1.71,2.36,2.57s2,1.87,2.91,2.65c.61-.24,1.24-.51,1.86-.82s1.19-.6,1.78-1c.29-.16.57-.34.85-.52h0a28.77,28.77,0,0,0,3.21-2.37h0c.71-.59,1.4-1.23,2.08-1.9A28.57,28.57,0,0,0,33.57,15.63ZM26.81,17a2.57,2.57,0,1,1-3.63,0A2.55,2.55,0,0,1,26.81,17Z"/></svg>