<svg id="Layer_1" data-name="Layer 1" xmlns="http://www.w3.org/2000/svg" xmlns:xlink="http://www.w3.org/1999/xlink" viewBox="0 0 43.64 65.3"><defs><style>.cls-1{fill:none;}.cls-2{font-size:6.88px;fill:#1d1d1b;font-family:Lato;font-weight:700;}.cls-3{letter-spacing:-0.01em;}.cls-4{letter-spacing:0em;}.cls-5{letter-spacing:-0.01em;}.cls-6{letter-spacing:-0.01em;}.cls-7{letter-spacing:-0.01em;}.cls-8{letter-spacing:-0.01em;}.cls-9{fill:#9ac43a;}.cls-10{fill:#fff;}.cls-11{opacity:0.5;}.cls-12{clip-path:url(#clip-path);}</style><clipPath id="clip-path"><circle class="cls-1" cx="21.82" cy="22" r="18.49"/></clipPath></defs><text class="cls-2" transform="translate(2 55.47)"><tspan class="cls-3">O</tspan><tspan x="5.5" y="0">pen </tspan><tspan class="cls-4" x="18.64" y="0">S</tspan><tspan x="22.41" y="0">ou</tspan><tspan class="cls-5" x="30.25" y="0">r</tspan><tspan class="cls-6" x="32.71" y="0">c</tspan><tspan x="35.97" y="0">e</tspan><tspan class="cls-4" x="6.01" y="7.87">S</tspan><tspan class="cls-7" x="9.78" y="7.87">o</tspan><tspan x="13.65" y="7.87">ft</tspan><tspan class="cls-8" x="18.52" y="7.87">w</tspan><tspan x="24" y="7.87">a</tspan><tspan class="cls-5" x="27.49" y="7.87">r</tspan><tspan x="29.96" y="7.87">e</tspan></text><circle class="cls-9" cx="21.82" cy="22" r="21.82"/><path class="cls-10" d="M21.82,1.46A20.53,20.53,0,0,0,8.61,37.72h0a20.47,20.47,0,0,0,13.2,4.82l.86,0A20.58,20.58,0,0,0,40.06,31.45c.16-.32.32-.64.47-1s.2-.45.29-.67a20.55,20.55,0,0,0-19-28.35Zm18.71,28a.14.14,0,0,0,0,.06q-.33.8-.72,1.56A20.31,20.31,0,0,1,35,37.23l-.52.43a20.06,20.06,0,0,1-11.81,4.48h-.86A20,20,0,0,1,9,37.56l-.4-.34a20.14,20.14,0,1,1,31.9-7.74Z"/><path class="cls-10" d="M19,22a9.57,9.57,0,0,1-.44,2.93,7.59,7.59,0,0,1-1.22,2.35,5.73,5.73,0,0,1-1.9,1.57,5.3,5.3,0,0,1-2.46.56,5.31,5.31,0,0,1-2.47-.56,5.67,5.67,0,0,1-1.91-1.57A7.4,7.4,0,0,1,7.4,24.93a10.2,10.2,0,0,1,0-5.86,7.4,7.4,0,0,1,1.23-2.35,5.76,5.76,0,0,1,1.91-1.56A5.32,5.32,0,0,1,13,14.59a5.19,5.19,0,0,1,2.46.58,5.83,5.83,0,0,1,1.9,1.56,7.59,7.59,0,0,1,1.22,2.35A9.55,9.55,0,0,1,19,22Zm-2.76,0a7.72,7.72,0,0,0-.22-1.94,4.78,4.78,0,0,0-.64-1.46A2.84,2.84,0,0,0,13,17.37a2.94,2.94,0,0,0-1.39.32,2.89,2.89,0,0,0-1,.91A4.55,4.55,0,0,0,10,20.06a8.3,8.3,0,0,0,0,3.88,4.45,4.45,0,0,0,.64,1.46,2.8,2.8,0,0,0,1,.91,3.14,3.14,0,0,0,2.76,0,2.8,2.8,0,0,0,1-.91,4.67,4.67,0,0,0,.64-1.46A7.67,7.67,0,0,0,16.27,22Z"/><path class="cls-10" d="M27,17.7a1.19,1.19,0,0,1-.25.36.49.49,0,0,1-.34.12A.69.69,0,0,1,26,18l-.48-.32a3.18,3.18,0,0,0-.61-.32,1.94,1.94,0,0,0-.78-.15,1.49,1.49,0,0,0-1.13.4,1.6,1.6,0,0,0-.37,1.09,1.14,1.14,0,0,0,.23.73,1.91,1.91,0,0,0,.58.5,4.93,4.93,0,0,0,.83.38l1,.39a7.86,7.86,0,0,1,.95.5A3.23,3.23,0,0,1,27,22a3.65,3.65,0,0,1,.59,1.09,5,5,0,0,1,.22,1.55,6.07,6.07,0,0,1-.28,1.88A4.86,4.86,0,0,1,26.76,28a3.83,3.83,0,0,1-1.3,1,4,4,0,0,1-1.77.37,4.65,4.65,0,0,1-1.1-.13,5.92,5.92,0,0,1-1.09-.4,6.21,6.21,0,0,1-1-.6,4.55,4.55,0,0,1-.8-.78l.8-1.57a.75.75,0,0,1,.25-.28.52.52,0,0,1,.34-.12.84.84,0,0,1,.48.19c.16.13.34.27.55.42a4.63,4.63,0,0,0,.7.42,2.28,2.28,0,0,0,.94.19,1.54,1.54,0,0,0,1.14-.41,1.74,1.74,0,0,0,.41-1.28,1.39,1.39,0,0,0-.23-.82,1.85,1.85,0,0,0-.58-.53,4.93,4.93,0,0,0-.83-.37c-.3-.1-.62-.22-.94-.35a6,6,0,0,1-.95-.48,3.4,3.4,0,0,1-.83-.74,3.82,3.82,0,0,1-.58-1.16,5.59,5.59,0,0,1-.22-1.71,4.82,4.82,0,0,1,.26-1.59,4.06,4.06,0,0,1,.77-1.38,3.76,3.76,0,0,1,2.95-1.34,5.17,5.17,0,0,1,1,.11,4.68,4.68,0,0,1,1,.31,4.35,4.35,0,0,1,.84.48,4,4,0,0,1,.71.65Z"/><path class="cls-10" d="M35.84,17.7a1.19,1.19,0,0,1-.25.36.49.49,0,0,1-.34.12.69.69,0,0,1-.39-.15l-.48-.32a3.18,3.18,0,0,0-.61-.32,1.94,1.94,0,0,0-.78-.15,1.47,1.47,0,0,0-1.12.4,1.55,1.55,0,0,0-.38,1.09,1.14,1.14,0,0,0,.23.73,2,2,0,0,0,.58.5,4.93,4.93,0,0,0,.83.38l.95.39a7.18,7.18,0,0,1,1,.5,3.07,3.07,0,0,1,.83.74,3.65,3.65,0,0,1,.59,1.09,4.71,4.71,0,0,1,.22,1.55,6.07,6.07,0,0,1-.28,1.88A4.49,4.49,0,0,1,35.58,28a3.74,3.74,0,0,1-1.3,1,4,4,0,0,1-1.77.37,4.71,4.71,0,0,1-1.1-.13,6.2,6.2,0,0,1-1.09-.4,5.71,5.71,0,0,1-1-.6,4.29,4.29,0,0,1-.81-.78l.8-1.57a.84.84,0,0,1,.25-.28.54.54,0,0,1,.34-.12.81.81,0,0,1,.48.19l.55.42a4.63,4.63,0,0,0,.7.42,2.28,2.28,0,0,0,.94.19,1.54,1.54,0,0,0,1.14-.41,1.74,1.74,0,0,0,.41-1.28,1.47,1.47,0,0,0-.22-.82,1.89,1.89,0,0,0-.59-.53,5.19,5.19,0,0,0-.82-.37c-.31-.1-.63-.22-.95-.35a6,6,0,0,1-.95-.48,3.19,3.19,0,0,1-.82-.74,3.83,3.83,0,0,1-.59-1.16A5.59,5.59,0,0,1,29,18.9a5.09,5.09,0,0,1,.26-1.59A4.24,4.24,0,0,1,30,15.93,3.76,3.76,0,0,1,33,14.59a5.1,5.1,0,0,1,1,.11A4.31,4.31,0,0,1,35,15a4.75,4.75,0,0,1,.85.48,4.32,4.32,0,0,1,.7.65Z"/><g class="cls-11"><g class="cls-12"><path class="cls-10" d="M4.54,12.33c.5,1,.46,1.76-.08,2s-1.07-.17-1.56-1.18-.41-1.76.09-2S4.07,11.36,4.54,12.33ZM3.23,13c.38.8.8,1.16,1.1,1s.26-.73-.11-1.51-.75-1.18-1.1-1S2.83,12.18,3.23,13Z"/><path class="cls-10" d="M5,10.73H5l-.29.49-.22-.28.37-.61.28-.14,1.46,3.06-.32.15Z"/><path class="cls-10" d="M8.41,10.48c.5,1,.46,1.76-.08,2s-1.07-.17-1.56-1.18-.41-1.76.09-2S7.94,9.51,8.41,10.48Zm-1.31.68c.38.8.79,1.16,1.09,1s.27-.73-.1-1.51-.76-1.18-1.1-1S6.7,10.33,7.1,11.16Z"/><path class="cls-10" d="M10.34,9.56c.5,1,.47,1.76-.08,2S9.19,11.4,8.7,10.39s-.41-1.76.09-2S9.88,8.58,10.34,9.56ZM9,10.24c.38.8.8,1.15,1.1,1s.26-.73-.11-1.52-.75-1.17-1.1-1S8.63,9.41,9,10.24Z"/><path class="cls-10" d="M10.84,8h0l-.29.49-.22-.29.37-.61L11,7.41l1.47,3.07-.33.15Z"/><path class="cls-10" d="M14.21,7.71c.5,1,.46,1.76-.08,2s-1.07-.18-1.56-1.19-.41-1.76.09-2S13.74,6.73,14.21,7.71Zm-1.31.68c.38.8.79,1.15,1.1,1s.26-.74-.11-1.52-.76-1.17-1.1-1S12.5,7.56,12.9,8.39Z"/><path class="cls-10" d="M14.7,6.1h0l-.28.49-.22-.29.37-.61.28-.14L16.3,8.63,16,8.78Z"/><path class="cls-10" d="M18.08,5.86c.49,1,.46,1.76-.08,2s-1.07-.18-1.57-1.19-.4-1.76.09-2S17.61,4.88,18.08,5.86Zm-1.31.68c.38.79.79,1.15,1.09,1s.27-.74-.11-1.52S17,4.86,16.66,5,16.37,5.71,16.77,6.54Z"/><path class="cls-10" d="M18.57,4.25h0l-.29.49-.21-.29.36-.61.29-.14,1.46,3.06-.32.16Z"/><path class="cls-10" d="M20.5,3.33h0l-.29.49L20,3.54l.37-.62.28-.13L22.1,5.85,21.78,6Z"/><path class="cls-10" d="M23.88,3.08c.49,1,.46,1.76-.08,2s-1.07-.17-1.56-1.18-.41-1.76.09-2S23.41,2.11,23.88,3.08Zm-1.31.68c.38.8.79,1.16,1.09,1s.27-.73-.11-1.51-.75-1.18-1.09-1S22.17,2.93,22.57,3.76Z"/><path class="cls-10" d="M24.37,1.48h0L24.07,2l-.21-.28.36-.62.29-.13L26,4l-.32.15Z"/><path class="cls-10" d="M27.74,1.23c.5,1,.47,1.76-.07,2s-1.08-.17-1.57-1.18-.4-1.76.09-2S27.28.25,27.74,1.23Zm-1.3.68c.38.8.79,1.16,1.09,1s.27-.73-.11-1.51S26.67.23,26.33.4,26,1.08,26.44,1.91Z"/><path class="cls-10" d="M3.38,19.84c.5,1,.46,1.76-.08,2s-1.07-.18-1.56-1.19-.41-1.76.09-2S2.91,18.86,3.38,19.84Zm-1.31.68c.38.79.79,1.15,1.1,1s.26-.74-.11-1.52S2.3,18.84,2,19,1.67,19.69,2.07,20.52Z"/><path class="cls-10" d="M3.87,18.23h0l-.28.49-.22-.29.36-.61L4,17.69l1.46,3.06-.32.16Z"/><path class="cls-10" d="M7.25,18c.49,1,.46,1.76-.08,2S6.1,19.83,5.6,18.82s-.4-1.76.09-2S6.78,17,7.25,18Zm-1.31.68c.38.79.79,1.15,1.09,1s.27-.74-.11-1.52-.75-1.17-1.09-1S5.54,17.84,5.94,18.67Z"/><path class="cls-10" d="M7.74,16.38h0l-.29.49-.21-.29L7.59,16l.28-.14L9.34,18.9,9,19.06Z"/><path class="cls-10" d="M11.11,16.13c.5,1.05.47,1.77-.08,2S10,18,9.47,17s-.41-1.76.09-2S10.65,15.16,11.11,16.13Zm-1.3.69c.38.79.79,1.15,1.09,1s.26-.74-.11-1.52-.75-1.17-1.09-1S9.41,16,9.81,16.82Z"/><path class="cls-10" d="M11.61,14.53h0l-.29.49-.21-.29.36-.61.28-.14,1.47,3.06-.32.16Z"/><path class="cls-10" d="M15,14.28c.5,1.05.46,1.77-.08,2s-1.07-.18-1.56-1.19-.41-1.76.09-2S14.51,13.31,15,14.28ZM13.67,15c.38.79.8,1.15,1.1,1s.26-.74-.11-1.52-.75-1.17-1.1-1S13.27,14.13,13.67,15Z"/><path class="cls-10" d="M15.47,12.68h0l-.29.49L15,12.89l.37-.61.28-.14,1.46,3.06-.32.16Z"/><path class="cls-10" d="M18.85,12.43c.5,1.05.46,1.77-.08,2s-1.07-.18-1.56-1.19-.41-1.76.09-2S18.38,11.46,18.85,12.43Zm-1.31.69c.38.79.79,1.15,1.09,1s.27-.74-.11-1.52-.75-1.17-1.09-1S17.14,12.28,17.54,13.12Z"/><path class="cls-10" d="M19.34,10.83h0l-.28.49L18.83,11l.36-.61.29-.14,1.46,3.06-.32.16Z"/><path class="cls-10" d="M22.71,10.58c.5,1,.47,1.77-.07,2s-1.08-.18-1.57-1.19-.4-1.76.09-2S22.25,9.61,22.71,10.58Zm-1.3.69c.38.79.79,1.15,1.09,1s.27-.74-.11-1.52-.75-1.17-1.09-1S21,10.43,21.41,11.27Z"/><path class="cls-10" d="M24.65,9.66c.5,1,.46,1.76-.08,2S23.5,11.51,23,10.5s-.41-1.76.09-2S24.18,8.68,24.65,9.66Zm-1.31.68c.38.8.79,1.16,1.09,1s.27-.73-.1-1.51-.76-1.18-1.1-1S22.94,9.51,23.34,10.34Z"/><path class="cls-10" d="M25.14,8.06h0l-.28.49-.22-.28L25,7.65l.29-.13,1.46,3.06-.32.15Z"/><path class="cls-10" d="M28.52,7.81c.49,1,.46,1.76-.08,2s-1.07-.18-1.57-1.18-.4-1.76.09-2S28.05,6.83,28.52,7.81Zm-1.31.68c.38.8.79,1.16,1.09,1s.27-.73-.11-1.51-.75-1.18-1.09-1S26.81,7.66,27.21,8.49Z"/><path class="cls-10" d="M29,6.21h0l-.29.49-.21-.28.36-.62.28-.13,1.47,3.06-.32.15Z"/><path class="cls-10" d="M32.38,6c.5,1,.47,1.76-.08,2S31.23,7.8,30.74,6.8s-.41-1.77.09-2S31.92,5,32.38,6Zm-1.31.68c.39.8.8,1.16,1.1,1s.26-.73-.11-1.51S31.31,5,31,5.13,30.68,5.81,31.07,6.64Z"/><path class="cls-10" d="M32.88,4.36h0l-.29.49-.21-.28L32.73,4,33,3.82l1.47,3.06L34.16,7Z"/><path class="cls-10" d="M4.15,26.41c.5,1.05.46,1.77-.08,2S3,28.26,2.51,27.25s-.41-1.76.09-2S3.68,25.44,4.15,26.41Zm-1.31.69c.38.79.79,1.15,1.1,1s.26-.74-.11-1.52-.75-1.17-1.1-1S2.44,26.26,2.84,27.1Z"/><path class="cls-10" d="M4.64,24.81h0l-.29.49L4.13,25l.37-.61.28-.14,1.46,3.06-.32.16Z"/><path class="cls-10" d="M8,24.56c.49,1,.46,1.77-.08,2s-1.07-.18-1.56-1.19-.41-1.76.09-2S7.55,23.59,8,24.56Zm-1.31.69c.38.79.79,1.15,1.09,1s.27-.74-.11-1.52-.75-1.17-1.09-1S6.31,24.41,6.71,25.25Z"/><path class="cls-10" d="M8.51,23h0l-.29.49L8,23.17l.36-.61.29-.14,1.46,3.06-.32.16Z"/><path class="cls-10" d="M11.88,22.71c.5,1,.47,1.77-.07,2s-1.08-.18-1.57-1.19-.4-1.76.09-2S11.42,21.74,11.88,22.71Zm-1.3.69c.38.79.79,1.15,1.09,1s.27-.74-.11-1.52-.75-1.17-1.09-1S10.18,22.56,10.58,23.4Z"/><path class="cls-10" d="M12.38,21.11h0l-.29.49-.21-.29.36-.61.28-.14L14,23.63l-.32.16Z"/><path class="cls-10" d="M15.75,20.86c.5,1,.47,1.77-.08,2s-1.07-.18-1.56-1.19-.41-1.76.09-2S15.29,19.89,15.75,20.86Zm-1.31.69c.38.79.8,1.15,1.1,1s.26-.74-.11-1.52-.75-1.17-1.1-1S14,20.71,14.44,21.55Z"/><path class="cls-10" d="M16.25,19.26h0l-.29.49-.22-.29.37-.61.28-.14,1.47,3.06-.33.16Z"/><path class="cls-10" d="M19.62,19c.5,1,.46,1.77-.08,2s-1.07-.18-1.56-1.19-.41-1.76.09-2S19.15,18,19.62,19Zm-1.31.69c.38.79.79,1.15,1.1,1s.26-.74-.11-1.52-.76-1.17-1.1-1S17.91,18.86,18.31,19.7Z"/><path class="cls-10" d="M20.11,17.41h0l-.28.5-.22-.29L20,17l.28-.14,1.46,3.06-.32.16Z"/><path class="cls-10" d="M23.49,17.16c.49,1,.46,1.77-.08,2S22.34,19,21.84,18s-.4-1.76.09-2S23,16.19,23.49,17.16Zm-1.31.69c.38.79.79,1.15,1.09,1s.27-.74-.11-1.52-.75-1.17-1.09-1S21.78,17,22.18,17.85Z"/><path class="cls-10" d="M24,15.56h0l-.29.5-.21-.29.36-.61.29-.14,1.46,3.06-.32.16Z"/><path class="cls-10" d="M27.35,15.31c.5,1,.47,1.77-.08,2s-1.07-.18-1.56-1.19-.41-1.76.09-2S26.89,14.34,27.35,15.31Zm-1.3.69c.38.79.79,1.15,1.09,1s.26-.74-.11-1.52-.75-1.17-1.09-1S25.65,15.16,26.05,16Z"/><path class="cls-10" d="M27.85,13.71h0l-.29.5-.21-.29.36-.61.28-.14,1.47,3.06-.32.16Z"/><path class="cls-10" d="M31.22,13.46c.5,1,.46,1.77-.08,2s-1.07-.18-1.56-1.19-.41-1.76.09-2S30.75,12.49,31.22,13.46Zm-1.31.69c.38.79.8,1.15,1.1,1s.26-.74-.11-1.52-.75-1.17-1.1-1S29.51,13.31,29.91,14.15Z"/><path class="cls-10" d="M31.71,11.86h0l-.29.5-.22-.29.37-.61.28-.14,1.46,3.06-.32.16Z"/><path class="cls-10" d="M35.09,11.61c.5,1,.46,1.77-.08,2s-1.07-.17-1.56-1.18-.41-1.76.09-2S34.62,10.64,35.09,11.61Zm-1.31.69c.38.79.79,1.15,1.09,1s.27-.74-.1-1.52-.76-1.17-1.1-1S33.38,11.46,33.78,12.3Z"/><path class="cls-10" d="M35.58,10h0l-.28.49-.22-.28.36-.61.29-.14,1.46,3.06-.32.15Z"/><path class="cls-10" d="M37.52,9.09h0l-.29.49L37,9.29l.37-.61.28-.13,1.47,3.06-.33.15Z"/><path class="cls-10" d="M5.41,31.39h0l-.29.49L4.9,31.6,5.27,31l.28-.14L7,33.91l-.33.16Z"/><path class="cls-10" d="M7.35,30.47h0L7.05,31l-.21-.28.36-.62.28-.13L9,33l-.32.15Z"/><path class="cls-10" d="M10.72,30.22c.5,1,.47,1.76-.08,2s-1.07-.18-1.56-1.18-.41-1.77.09-2S10.26,29.24,10.72,30.22Zm-1.31.68c.39.8.8,1.16,1.1,1s.26-.73-.11-1.51-.75-1.18-1.09-1S9,30.07,9.41,30.9Z"/><path class="cls-10" d="M11.22,28.62h0l-.29.49-.22-.28.37-.62.28-.13,1.47,3.06-.32.15Z"/><path class="cls-10" d="M14.59,28.37c.5,1,.46,1.76-.08,2s-1.07-.18-1.56-1.18-.41-1.77.09-2S14.12,27.39,14.59,28.37Zm-1.31.68c.38.8.79,1.16,1.1,1s.26-.73-.11-1.51-.75-1.18-1.1-1S12.88,28.22,13.28,29.05Z"/><path class="cls-10" d="M15.08,26.77h0l-.29.49L14.57,27l.37-.62.28-.13,1.46,3.06-.32.15Z"/><path class="cls-10" d="M18.46,26.52c.49,1,.46,1.76-.08,2s-1.07-.18-1.56-1.18-.41-1.77.09-2S18,25.54,18.46,26.52Zm-1.31.68c.38.8.79,1.16,1.09,1s.27-.73-.11-1.51-.75-1.18-1.09-1S16.75,26.37,17.15,27.2Z"/><path class="cls-10" d="M20.39,25.59c.5,1,.46,1.77-.08,2s-1.07-.18-1.56-1.19-.41-1.76.09-2S19.92,24.62,20.39,25.59Zm-1.31.69c.38.79.8,1.15,1.1,1s.26-.74-.11-1.52-.75-1.17-1.1-1S18.68,25.44,19.08,26.28Z"/><path class="cls-10" d="M20.88,24h0l-.29.5-.22-.29.37-.61.28-.14,1.46,3.06-.32.16Z"/><path class="cls-10" d="M22.82,23.07h0l-.29.49-.21-.28.36-.62.28-.13,1.47,3.06-.32.15Z"/><path class="cls-10" d="M24.75,22.14h0l-.28.49-.22-.28.36-.61.29-.14,1.46,3.06-.32.15Z"/><path class="cls-10" d="M28.12,21.89c.5,1,.47,1.76-.07,2s-1.07-.17-1.57-1.18-.4-1.76.09-2S27.66,20.92,28.12,21.89Zm-1.3.69c.38.79.79,1.15,1.09,1s.27-.74-.11-1.52-.75-1.17-1.09-1S26.42,21.74,26.82,22.58Z"/><path class="cls-10" d="M28.62,20.29h0l-.29.49-.21-.28.36-.61.28-.14,1.47,3.06L29.9,23Z"/><path class="cls-10" d="M32,20c.5,1,.47,1.76-.08,2s-1.07-.17-1.56-1.18-.41-1.76.09-2S31.53,19.07,32,20Zm-1.31.69c.38.79.8,1.15,1.1,1s.26-.74-.11-1.52-.75-1.17-1.1-1S30.29,19.89,30.68,20.73Z"/><path class="cls-10" d="M32.49,18.44h0l-.29.49L32,18.65l.37-.61.28-.14L34.09,21l-.32.15Z"/><path class="cls-10" d="M35.86,18.19c.5,1,.46,1.76-.08,2S34.71,20,34.22,19s-.41-1.76.09-2S35.39,17.22,35.86,18.19Zm-1.31.68c.38.8.79,1.16,1.1,1s.26-.73-.11-1.51-.76-1.18-1.1-1S34.15,18,34.55,18.87Z"/><path class="cls-10" d="M36.35,16.59h0l-.29.49-.22-.28.37-.61.28-.14L38,19.11l-.32.15Z"/><path class="cls-10" d="M38.29,15.66h0l-.29.49-.21-.29.36-.61.28-.14,1.47,3.07-.32.15Z"/><path class="cls-10" d="M41.66,15.42c.5,1,.46,1.76-.08,2s-1.07-.18-1.56-1.19-.41-1.76.09-2S41.19,14.44,41.66,15.42Zm-1.31.68c.38.8.8,1.15,1.1,1s.26-.73-.11-1.52-.75-1.17-1.1-1S40,15.27,40.35,16.1Z"/><path class="cls-10" d="M8.12,37.05h0l-.29.49-.21-.28L8,36.64l.29-.13,1.46,3.06-.32.15Z"/><path class="cls-10" d="M11.49,36.8c.5,1,.47,1.76-.08,2s-1.07-.18-1.56-1.19-.41-1.76.09-2S11,35.82,11.49,36.8Zm-1.3.68c.38.8.79,1.15,1.09,1s.26-.73-.11-1.52-.75-1.17-1.09-1S9.79,36.65,10.19,37.48Z"/><path class="cls-10" d="M13.43,35.87c.5,1,.46,1.77-.08,2s-1.07-.17-1.56-1.18-.41-1.76.09-2S13,34.9,13.43,35.87Zm-1.31.69c.38.79.79,1.15,1.09,1s.27-.74-.11-1.52-.75-1.17-1.09-1S11.72,35.72,12.12,36.56Z"/><path class="cls-10" d="M13.92,34.27h0l-.29.49-.21-.28.36-.61.29-.14,1.46,3.06-.32.15Z"/><path class="cls-10" d="M15.85,33.35h0l-.29.49-.22-.29.37-.61.28-.13,1.46,3.06-.32.15Z"/><path class="cls-10" d="M19.23,33.1c.5,1,.46,1.76-.08,2s-1.07-.18-1.56-1.19-.41-1.76.09-2S18.76,32.12,19.23,33.1Zm-1.31.68c.38.8.79,1.15,1.09,1s.27-.73-.1-1.52-.76-1.17-1.1-1S17.52,33,17.92,33.78Z"/><path class="cls-10" d="M19.72,31.49h0l-.28.49-.22-.29.36-.61.29-.13L21.32,34l-.32.15Z"/><path class="cls-10" d="M21.66,30.57h0l-.29.49-.22-.28.37-.61.28-.14,1.47,3.06-.32.15Z"/><path class="cls-10" d="M23.59,29.64h0l-.29.49-.21-.29.36-.61.28-.14,1.47,3.07-.32.15Z"/><path class="cls-10" d="M27,29.4c.5,1,.47,1.76-.08,2s-1.07-.18-1.56-1.19-.41-1.76.09-2S26.5,28.42,27,29.4Zm-1.31.68c.39.8.8,1.15,1.1,1s.26-.73-.11-1.52-.75-1.17-1.09-1S25.26,29.25,25.65,30.08Z"/><path class="cls-10" d="M27.46,27.79h0l-.29.49L27,28l.36-.61.28-.14,1.47,3.07-.32.15Z"/><path class="cls-10" d="M30.83,27.55c.5,1,.46,1.76-.08,2s-1.07-.18-1.56-1.19-.41-1.76.09-2S30.36,26.57,30.83,27.55Zm-1.31.68c.38.8.8,1.15,1.1,1s.26-.73-.11-1.52-.75-1.17-1.1-1S29.12,27.4,29.52,28.23Z"/><path class="cls-10" d="M31.32,25.94h0l-.29.49-.22-.29.37-.61.28-.14,1.46,3.07-.32.15Z"/><path class="cls-10" d="M34.7,25.7c.5,1,.46,1.76-.08,2s-1.07-.18-1.56-1.19-.41-1.76.09-2S34.23,24.72,34.7,25.7Zm-1.31.68c.38.79.79,1.15,1.09,1s.27-.74-.11-1.52-.75-1.17-1.09-1S33,25.55,33.39,26.38Z"/><path class="cls-10" d="M35.19,24.09h0l-.29.49-.21-.29.36-.61.29-.14,1.46,3.06-.32.16Z"/><path class="cls-10" d="M37.12,23.17h0l-.29.49-.22-.28.37-.62.28-.13,1.46,3.06-.32.15Z"/><path class="cls-10" d="M39.06,22.24h0l-.29.49-.21-.29.36-.61.28-.14,1.47,3.06-.32.16Z"/><path class="cls-10" d="M42.43,22c.5,1.05.47,1.77-.08,2s-1.07-.18-1.56-1.19-.41-1.76.09-2S42,21,42.43,22Zm-1.31.69c.38.79.8,1.15,1.1,1s.26-.74-.11-1.52-.75-1.17-1.1-1S40.72,21.84,41.12,22.68Z"/><path class="cls-10" d="M16.13,41.53c.5,1,.47,1.76-.08,2s-1.07-.18-1.56-1.19-.41-1.76.09-2S15.67,40.55,16.13,41.53Zm-1.31.68c.39.8.8,1.15,1.1,1s.26-.73-.11-1.52-.75-1.17-1.09-1S14.43,41.38,14.82,42.21Z"/><path class="cls-10" d="M16.63,39.92h0l-.29.49-.22-.29.37-.61.28-.14,1.47,3.07-.32.15Z"/><path class="cls-10" d="M20,39.68c.5,1,.46,1.76-.08,2s-1.07-.18-1.56-1.19-.41-1.76.09-2S19.53,38.7,20,39.68Zm-1.31.68c.38.79.79,1.15,1.1,1s.26-.74-.11-1.52-.75-1.17-1.1-1S18.29,39.53,18.69,40.36Z"/><path class="cls-10" d="M20.49,38.07h0l-.29.49L20,38.28l.37-.61.28-.14,1.46,3.07-.32.15Z"/><path class="cls-10" d="M23.87,37.83c.49,1,.46,1.76-.08,2s-1.07-.18-1.56-1.19-.41-1.76.09-2S23.4,36.85,23.87,37.83Zm-1.31.68c.38.79.79,1.15,1.09,1s.27-.74-.11-1.52-.75-1.17-1.09-1S22.16,37.68,22.56,38.51Z"/><path class="cls-10" d="M25.8,36.9c.5,1,.46,1.76-.08,2s-1.07-.17-1.56-1.18-.41-1.76.09-2S25.33,35.93,25.8,36.9Zm-1.31.68c.38.8.8,1.16,1.1,1s.26-.73-.11-1.51-.75-1.18-1.1-1S24.09,36.75,24.49,37.58Z"/><path class="cls-10" d="M26.29,35.3h0l-.29.49-.22-.28.37-.62.28-.13,1.46,3.06-.32.15Z"/><path class="cls-10" d="M29.67,35.05c.5,1,.46,1.76-.08,2S28.52,36.9,28,35.89s-.41-1.76.09-2S29.2,34.08,29.67,35.05Zm-1.31.68c.38.8.79,1.16,1.09,1s.27-.73-.1-1.51-.76-1.18-1.1-1S28,34.9,28.36,35.73Z"/><path class="cls-10" d="M30.16,33.45h0l-.28.49-.22-.28L30,33l.29-.13L31.76,36l-.32.15Z"/><path class="cls-10" d="M33.53,33.2c.5,1,.47,1.76-.07,2s-1.07-.17-1.57-1.18-.4-1.76.09-2S33.07,32.22,33.53,33.2Zm-1.3.68c.38.8.79,1.16,1.09,1s.27-.73-.11-1.51-.75-1.18-1.09-1S31.83,33.05,32.23,33.88Z"/><path class="cls-10" d="M34,31.6h0l-.29.49-.21-.28.36-.62.28-.13,1.47,3.06-.32.15Z"/><path class="cls-10" d="M36,30.67h0l-.28.49-.22-.29.37-.61.28-.14,1.46,3.06-.32.16Z"/><path class="cls-10" d="M39.34,30.42c.49,1,.46,1.77-.08,2s-1.07-.18-1.57-1.19-.4-1.76.09-2S38.87,29.45,39.34,30.42ZM38,31.11c.38.79.79,1.15,1.09,1s.27-.74-.11-1.52-.75-1.17-1.09-1S37.63,30.27,38,31.11Z"/><path class="cls-10" d="M39.83,28.82h0l-.29.49L39.32,29l.36-.61.29-.14,1.46,3.06-.32.16Z"/><path class="cls-10" d="M27.07,41.88h0l-.29.49-.22-.28.37-.62.28-.13,1.47,3.06-.32.15Z"/><path class="cls-10" d="M29,41h0l-.29.49-.21-.29.36-.61.28-.14,1.47,3.06-.32.16Z"/><path class="cls-10" d="M32.37,40.7c.5,1,.47,1.77-.08,2s-1.07-.18-1.56-1.19-.41-1.76.09-2S31.91,39.73,32.37,40.7Zm-1.31.69c.39.79.8,1.15,1.1,1s.26-.74-.11-1.52-.75-1.17-1.09-1S30.67,40.55,31.06,41.39Z"/><path class="cls-10" d="M32.87,39.1h0l-.29.49-.21-.29.36-.61.28-.14,1.47,3.06-.32.16Z"/><path class="cls-10" d="M34.8,38.18h0l-.29.49-.21-.28.36-.62.29-.13L36.4,40.7l-.32.15Z"/></g></g></svg>