<svg xmlns="http://www.w3.org/2000/svg" viewBox="0 0 138.93 145.96"><defs><style>.cls-1{font-size:16px;font-family:Lato-Black, Lato;font-weight:800;letter-spacing:-0.01em;}.cls-1,.cls-2,.cls-4{fill:#fff;}.cls-2{opacity:0.2;}.cls-3{fill:#9c3;}</style></defs><g id="map"><text class="cls-1" transform="translate(25.43 36.67) rotate(-1)">L<tspan x="8.26" y="0.11">i</tspan><tspan x="12.39" y="0.22">n</tspan><tspan x="21.37" y="0.38">u</tspan><tspan x="30.36" y="0.53">x</tspan><tspan x="38.92" y="0.64"> </tspan><tspan x="42.48" y="0.77">K</tspan><tspan x="53.64" y="0.94">e</tspan><tspan x="62.13" y="1.06">r</tspan><tspan x="68.09" y="1.19">n</tspan><tspan x="77.07" y="1.35">e</tspan><tspan x="85.56" y="1.46">l</tspan></text><polygon class="cls-2" points="138.93 0 138.93 125.71 134.65 125.71 134.65 4.28 4.28 4.28 4.28 138.5 106.35 138.5 106.35 142.77 0 142.77 0 0 138.93 0"/><polygon class="cls-3" points="122.36 140.63 113.13 135.31 113.13 145.96 122.36 140.63"/><polygon class="cls-3" points="136.54 140.63 127.31 135.31 127.31 145.96 136.54 140.63"/><path class="cls-4" d="M79.36,68.64c-.81,4.55,1.17,7.89,3.85,11a25.32,25.32,0,0,1,5.87,10.66,11.61,11.61,0,0,1,0,5.91,1.19,1.19,0,0,0,.38,1.31A10.22,10.22,0,0,1,90.9,100a25.54,25.54,0,0,0,1.65,3.36c1.53,2.19,1.35,3.65-1,4.84A20.84,20.84,0,0,0,85,112.86a6.24,6.24,0,0,1-4.45,2,4.32,4.32,0,0,1-4.46-2.56,1.31,1.31,0,0,0-1.46-.87,6.56,6.56,0,0,1-1.77-.15c-2.93-.68-5.78,0-8.64.44a.76.76,0,0,0-.5.28c-1.84,2.78-4.47,2.52-7.14,1.76-1.52-.43-2.94-1.21-4.46-1.62a42.54,42.54,0,0,0-4.24-.68c-2.42-.42-3.1-1.55-2.64-4a13.27,13.27,0,0,0,.21-3.61c-.22-2.52.27-3.6,2.66-4.36,1.71-.54,2.4-2,3.44-3.16a.85.85,0,0,0,.09-.56,16.7,16.7,0,0,1,2.71-10,64.3,64.3,0,0,1,4.31-6.3,14.2,14.2,0,0,0,2.93-9.81,37,37,0,0,1,.18-7.14,7.1,7.1,0,0,1,6.62-6.33,14.74,14.74,0,0,1,4.4.07c3.5.65,5.22,3.17,5.88,6.43C79.06,64.77,79.15,66.81,79.36,68.64Zm-21,15a16.84,16.84,0,0,0-3,6.54c-.65,3.33.31,5.47,3.14,7.33A10.6,10.6,0,0,1,60.57,99a20,20,0,0,1,2.81,3.62c.6,1.06.1,1.77-1.06,2.18-.2.07-.39.17-.94.42,1.26,1.06,2.2,2.23,3.43,2.81,4,1.86,7.67.89,11.17-1.38a1.58,1.58,0,0,0,.6-1c.33-2,.59-4,.89-6,.25-1.69.63-3.3,2.3-4.23a1.25,1.25,0,0,0,.45-.64c.56-1.41,1.33-1.91,2.76-1.44,1.86.61,4,1,4.36,3.71a1.62,1.62,0,0,0-.22-2.31A8.81,8.81,0,0,0,85,93.32c-.71-.35-.8-.74-.74-1.49.31-4-1.52-7-4.27-9.71,2.45,3,4.15,6.21,3,10.19-1.07.22-1.37-.18-1.53-1a13.54,13.54,0,0,0-.88-2.84c-.93-2.15-2-4.24-2.91-6.4-1.09-2.62-2-5.3-3-7.82-1.64.89-3.3,1.9-5,2.72a3.83,3.83,0,0,1-4.35-.63c-.58-.49-1.2-.93-1.6-1.23-1.06,3-2,6-3.15,8.79-1.45,3.44-3.17,6.77-3.47,10.59C54.78,90.55,56.71,87.12,58.32,83.61Zm.43,30c4.07,0,5.66-2.76,4-5.73-.32-.55-.72-1-1.07-1.58L56.94,99c-.2-.31-.34-.64-.54-.93-1.65-2.3-3.41-2.28-5.19-.11a7.5,7.5,0,0,1-2.6,2.13c-2.37,1.06-2.74,1.62-2.39,4.18a8,8,0,0,1-.12,2.93c-.66,2.56-.23,3.33,2.38,3.75.23,0,.47,0,.71.07a17.75,17.75,0,0,1,6.21,1.56A19.81,19.81,0,0,0,58.75,113.58ZM80,96.21a4.14,4.14,0,0,0-1.79,3.47,35.36,35.36,0,0,1-1.58,8.65,7,7,0,0,0-.3,1.76,3.66,3.66,0,0,0,4.36,4,8,8,0,0,0,3.84-1.94,22.32,22.32,0,0,1,6.62-4.58c2-1,2.19-1.94.79-3.65a9.13,9.13,0,0,1-1.8-3.83c-.61-2.59-2.29-3.19-4.42-1.64-2.76,2-4.67,1.36-5.58-1.86C80.13,96.52,80.08,96.4,80,96.21Zm-12-19.13a17.51,17.51,0,0,0,6.25-3.37c.94-.89.59-2-.66-2.59s-2.72-1.29-4.11-1.87a3.75,3.75,0,0,0-4.13.64c-.67.56-1.36,1.1-2.05,1.64-1.1.87-1.22,1.62-.21,2.56a28.51,28.51,0,0,0,3.21,2.47A6.46,6.46,0,0,0,68.05,77.08Zm2.31-8a3.22,3.22,0,0,1,.18-1.13,13.4,13.4,0,0,1,1.23-1.4c.4.52,1,1,1.14,1.57a6.59,6.59,0,0,1-.26,2.18l1.13.41A4,4,0,0,0,74.63,67,2.82,2.82,0,0,0,69,66.86C68.62,68.34,68.78,68.61,70.36,69.05ZM64,70.74a5.32,5.32,0,0,0,.06-1,11.79,11.79,0,0,1-.21-1.84c0-.33.46-.63.71-.94a4.14,4.14,0,0,1,.87.85,4.47,4.47,0,0,1,.28,1.21c1.18-.45,1.23-.46,1-1.53A5.13,5.13,0,0,0,66,65.66c-.84-1.26-2.18-1.16-3,.15A4,4,0,0,0,64,70.74Z"/></g></svg>