<svg xmlns="http://www.w3.org/2000/svg" viewBox="0 0 39.66 50.49"><defs><style>.cls-1{fill:#fff;}</style></defs><g id="map"><path class="cls-1" d="M37.34,50.49h-35A2.32,2.32,0,0,1,0,48.18V22a2.32,2.32,0,0,1,2.32-2.31H6.48V12.92a13.35,13.35,0,0,1,26.69-.14v6.88h4.17A2.32,2.32,0,0,1,39.66,22V48.18A2.32,2.32,0,0,1,37.34,50.49Zm-35-30A1.46,1.46,0,0,0,.85,22V48.18a1.46,1.46,0,0,0,1.47,1.46h35a1.46,1.46,0,0,0,1.47-1.46V22a1.46,1.46,0,0,0-1.47-1.46h-5V12.79a12.5,12.5,0,0,0-25,.14v7.58Z"/><path class="cls-1" d="M24,41.94H15.63l2.24-7a4.41,4.41,0,1,1,3.92,0Z"/><path class="cls-1" d="M28.94,20.51H10.73V12.78a9.1,9.1,0,0,1,18.2,0Zm-17.36-.85H28.09V12.8a8.25,8.25,0,0,0-16.5,0Z"/></g></svg>