<svg xmlns="http://www.w3.org/2000/svg" viewBox="0 0 138.93 145.96"><defs><style>.cls-1{font-size:16px;font-family:Lato-Black, Lato;font-weight:800;letter-spacing:-0.01em;}.cls-1,.cls-3,.cls-5{fill:#fff;}.cls-2{letter-spacing:-0.01em;}.cls-3{opacity:0.2;}.cls-4{fill:#9c3;}</style></defs><g id="map"><text class="cls-1" transform="translate(37.88 29.69) rotate(-1)">A<tspan x="11.24" y="0.15">r</tspan><tspan x="17.2" y="0.25">t</tspan><tspan x="23.21" y="0.34">i</tspan><tspan x="27.34" y="0.43">f</tspan><tspan x="33.06" y="0.52">i</tspan><tspan x="37.19" y="0.62">c</tspan><tspan x="44.84" y="0.72">i</tspan><tspan x="48.97" y="0.83">a</tspan><tspan x="57.11" y="0.93">l</tspan><tspan x="61.13" y="1"> </tspan><tspan class="cls-2"><tspan x="-9.22" y="17.79">I</tspan><tspan x="-4.38" y="17.91">n</tspan><tspan x="4.6" y="18.04">t</tspan><tspan x="10.6" y="18.16">e</tspan><tspan x="19.09" y="18.27">l</tspan><tspan x="23.11" y="18.34">l</tspan><tspan x="27.13" y="18.41">i</tspan><tspan x="31.26" y="18.52">g</tspan><tspan x="39.69" y="18.67">e</tspan><tspan x="48.18" y="18.82">n</tspan><tspan x="57.16" y="18.97">c</tspan><tspan x="64.8" y="19.11">e</tspan></tspan></text><polygon class="cls-3" points="138.93 0 138.93 125.71 134.65 125.71 134.65 4.28 4.28 4.28 4.28 138.5 106.35 138.5 106.35 142.77 0 142.77 0 0 138.93 0"/><polygon class="cls-4" points="122.36 140.63 113.13 135.31 113.13 145.96 122.36 140.63"/><polygon class="cls-4" points="136.54 140.63 127.31 135.31 127.31 145.96 136.54 140.63"/><path class="cls-5" d="M54.05,120.9l2-18.12-1.79-.19a6.06,6.06,0,0,1-4.84-2.71c-4.79-7.59-5.51-15.16-2.17-22.5a21.62,21.62,0,0,1,6.66-8.45,24,24,0,0,1,9.85-4.27,28.93,28.93,0,0,1,5.68-.59,23.38,23.38,0,0,1,8.71,1.65c5,2,8.85,5.51,11.87,10.8a31.31,31.31,0,0,1,3.24,8,6.56,6.56,0,0,1-1,6l-.15.19.59,1.09c.92,1.66,1.79,3.24,2.66,4.86a12.05,12.05,0,0,1,.91,2.11,2.67,2.67,0,0,1-.14,2.15,2.73,2.73,0,0,1-1.82,1.23l-1,.25.09.35c0,.17.08.33.13.49a3.65,3.65,0,0,1,.19,2.13,2.49,2.49,0,0,1-.35.76l-.11.16.07.18a2.24,2.24,0,0,1,.17.83,3,3,0,0,1-.92,2,1,1,0,0,0-.22,1.17,6.05,6.05,0,0,1-.58,5.5,5.41,5.41,0,0,1-4.52,2,8.68,8.68,0,0,1-1-.06c-2.31-.27-4.61-.73-6.83-1.17l-2.15-.42a2.2,2.2,0,0,1-1.43-1.23c-1.53-2.89-3.16-6-4.8-9.13l-.55-1.06-2,17.59Zm1-.93,12.85,1.44.57-5.08L55.57,114.9Zm15.8-16.26a1.49,1.49,0,0,1,.23.36q2.76,5.34,5.59,10.65c.14.27.44.73.85.81.71.13,1.43.27,2.14.42l.79.15,1-8.81A4,4,0,0,0,78.23,103l1-9.08h.07a3.93,3.93,0,0,0,3.91-3.5l1.55-14.24a8.65,8.65,0,0,0-4.22-8.39,21.19,21.19,0,0,0-2.67-1.29,22.57,22.57,0,0,0-8.4-1.59,27.42,27.42,0,0,0-5.52.58C56.4,67,51.05,71.12,48,77.73c-3.22,7.07-2.51,14.37,2.11,21.7a5.22,5.22,0,0,0,4.22,2.33l7.44.77,8.25.85a1,1,0,0,1,.73.31ZM55.66,114.06l12.85,1.44.56-5.08L56.23,109Zm.66-5.9,12.85,1.43.56-5.08-12.85-1.43Z"/><path class="cls-5" d="M61.45,77.25,60.31,87.73l10.48,1.14,1.14-10.48Zm8.76,10.9-9.18-1L62,78l9.18,1Z"/><rect class="cls-5" x="59.9" y="77.71" width="0.48" height="2.85" transform="translate(-25.03 130.38) rotate(-83.8)"/><polygon class="cls-5" points="55.2 84.76 52.54 84.47 52.59 83.99 55.12 84.27 57.54 83.11 61.14 83.5 61.09 83.98 57.63 83.6 55.2 84.76"/><path class="cls-5" d="M57.9,80h-.12A1.08,1.08,0,0,1,58,77.82,1.09,1.09,0,0,1,59,79h0A1.08,1.08,0,0,1,57.9,80Zm0-1.68a.61.61,0,0,0-.6.54.6.6,0,0,0,1.19.13A.59.59,0,0,0,58,78.3Z"/><rect class="cls-5" x="57.84" y="77.91" width="0.48" height="6.52" transform="translate(-28.89 130.13) rotate(-83.8)"/><path class="cls-5" d="M54,81.8h-.11a1.14,1.14,0,0,1-.73-.4,1.06,1.06,0,0,1-.23-.79,1,1,0,0,1,.4-.72,1.06,1.06,0,0,1,.79-.23,1.07,1.07,0,0,1,1,1.18,1.07,1.07,0,0,1-1.07,1Zm0-1.67a.59.59,0,0,0-.46,1,.62.62,0,0,0,.4.22.59.59,0,0,0,.44-.13.62.62,0,0,0,.22-.4.64.64,0,0,0-.13-.44.62.62,0,0,0-.4-.22Z"/><path class="cls-5" d="M51.79,85.22h-.12a1.07,1.07,0,0,1-1-1.18,1,1,0,0,1,.4-.72,1,1,0,0,1,.79-.23,1.07,1.07,0,0,1,1,1.18h0a1,1,0,0,1-.4.72A1,1,0,0,1,51.79,85.22Zm0-1.67a.59.59,0,0,0-.59.53.58.58,0,0,0,.12.44.64.64,0,0,0,.41.22.61.61,0,0,0,.43-.13.54.54,0,0,0,.22-.4.6.6,0,0,0-.53-.66Z"/><polygon class="cls-5" points="54.94 87.11 52.28 86.82 52.33 86.35 54.86 86.62 57.29 85.47 60.88 85.86 60.83 86.33 57.37 85.96 54.94 87.11"/><path class="cls-5" d="M51.54,87.58h-.12a1.09,1.09,0,0,1-1-1.19,1.14,1.14,0,0,1,.4-.72,1.06,1.06,0,0,1,.79-.23,1,1,0,0,1,.72.4,1.06,1.06,0,0,1,.23.79h0a1.08,1.08,0,0,1-.39.72A1.12,1.12,0,0,1,51.54,87.58Zm0-1.68a.59.59,0,0,0-.37.14.62.62,0,0,0-.22.4.57.57,0,0,0,.13.43.54.54,0,0,0,.4.22.63.63,0,0,0,.44-.12.64.64,0,0,0,.22-.41.61.61,0,0,0-.13-.43.54.54,0,0,0-.4-.22Z"/><rect class="cls-5" x="71.51" y="85.84" width="0.48" height="2.81" transform="translate(-22.74 149.15) rotate(-83.8)"/><polygon class="cls-5" points="74.32 83.32 70.76 82.93 70.81 82.45 74.23 82.83 76.63 81.69 79.27 81.97 79.21 82.45 76.72 82.18 74.32 83.32"/><path class="cls-5" d="M74,88.55h-.12a1,1,0,0,1-.71-.39,1.07,1.07,0,0,1-.23-.79h0a1,1,0,0,1,.39-.71A1.07,1.07,0,0,1,75,87.6,1.07,1.07,0,0,1,74,88.55Zm0-1.65a.59.59,0,0,0-.37.13.62.62,0,0,0-.22.39h0a.6.6,0,0,0,.13.43.58.58,0,0,0,.39.22.59.59,0,0,0,.65-.52.56.56,0,0,0-.13-.43A.57.57,0,0,0,74,86.9Z"/><rect class="cls-5" x="73.55" y="82.02" width="0.48" height="6.44" transform="translate(-18.92 149.39) rotate(-83.8)"/><path class="cls-5" d="M77.82,86.74H77.7a1.06,1.06,0,0,1-.94-1.17h0a1.08,1.08,0,0,1,.39-.72,1.05,1.05,0,0,1,.78-.23,1.08,1.08,0,0,1,.95,1.18,1.09,1.09,0,0,1-.4.72A1.06,1.06,0,0,1,77.82,86.74Zm-.59-1.13a.58.58,0,0,0,1,.52.58.58,0,0,0,.22-.39.6.6,0,0,0-.52-.65.56.56,0,0,0-.43.13.62.62,0,0,0-.22.39Z"/><path class="cls-5" d="M80,83.36h-.12a1.07,1.07,0,0,1-1-1.17h0a1.05,1.05,0,0,1,.4-.72,1,1,0,0,1,.78-.22,1.06,1.06,0,0,1,.94,1.17,1.08,1.08,0,0,1-.39.72A1.06,1.06,0,0,1,80,83.36Zm-.59-1.13a.59.59,0,0,0,.52.65.56.56,0,0,0,.43-.13.62.62,0,0,0,.22-.39.6.6,0,0,0-.13-.43.62.62,0,0,0-.39-.22.56.56,0,0,0-.43.13.58.58,0,0,0-.22.39Z"/><polygon class="cls-5" points="74.57 80.99 71.01 80.6 71.06 80.13 74.49 80.5 76.89 79.36 79.52 79.65 79.47 80.12 76.97 79.85 74.57 80.99"/><path class="cls-5" d="M80.26,81h-.12a1,1,0,0,1-.71-.39,1.07,1.07,0,0,1-.23-.79,1,1,0,0,1,.39-.71,1.05,1.05,0,0,1,.78-.23,1.08,1.08,0,0,1,.72.39,1.05,1.05,0,0,1,.23.78,1,1,0,0,1-.4.72A1.06,1.06,0,0,1,80.26,81Zm0-1.65a.59.59,0,0,0-.36.13.62.62,0,0,0-.22.39h0a.6.6,0,0,0,.13.43.58.58,0,0,0,.39.22.56.56,0,0,0,.43-.13.54.54,0,0,0,.22-.39.56.56,0,0,0-.13-.43.57.57,0,0,0-.39-.22Z"/><rect class="cls-5" x="61.91" y="76.4" width="2.85" height="0.48" transform="translate(-19.7 131.33) rotate(-83.8)"/><rect class="cls-5" x="53.72" y="94.94" width="15.14" height="0.48" transform="translate(-40.12 145.48) rotate(-83.6)"/><rect class="cls-5" x="55.99" y="95.18" width="15.14" height="0.48" transform="translate(-38.35 147.95) rotate(-83.6)"/><rect class="cls-5" x="58.25" y="95.43" width="15.14" height="0.48" transform="translate(-36.59 150.42) rotate(-83.6)"/><rect class="cls-5" x="60.65" y="95.69" width="15.14" height="0.48" transform="translate(-34.71 153.03) rotate(-83.6)"/><polygon class="cls-5" points="67.94 78.61 67.47 78.56 67.86 74.97 69.53 72.84 69.81 70.32 70.28 70.37 69.99 73.03 68.32 75.15 67.94 78.61"/><path class="cls-5" d="M63.58,75.47h-.12a1.06,1.06,0,1,1,.12,0ZM63.51,75a.6.6,0,1,0-.54-.66.6.6,0,0,0,.54.66Z"/><rect class="cls-5" x="79.09" y="77.37" width="2.85" height="0.48" transform="translate(-5.34 149.27) rotate(-83.8)"/><path class="cls-5" d="M80.76,76.44h-.12a1.08,1.08,0,1,1,1.2-1,1,1,0,0,1-.4.72A1,1,0,0,1,80.76,76.44Zm0-1.67a.6.6,0,0,0-.6.53.61.61,0,0,0,.54.66h0a.63.63,0,0,0,.45-.13.54.54,0,0,0,.22-.4.6.6,0,0,0-.54-.66Z"/><rect class="cls-5" x="62.54" y="74.82" width="6.52" height="0.48" transform="translate(-15.93 132.37) rotate(-83.8)"/><path class="cls-5" d="M66.25,72.07h-.12a1.05,1.05,0,0,1-.73-.4,1.07,1.07,0,0,1-.24-.79,1.08,1.08,0,0,1,1.2-1,1.05,1.05,0,0,1,.73.4,1,1,0,0,1,.24.79,1.05,1.05,0,0,1-.4.72A1.1,1.1,0,0,1,66.25,72.07Zm0-1.68a.59.59,0,0,0-.38.14.56.56,0,0,0-.22.39.58.58,0,0,0,.13.44.56.56,0,0,0,.41.22.55.55,0,0,0,.45-.13.52.52,0,0,0,.22-.39.54.54,0,0,0-.13-.44.56.56,0,0,0-.41-.22Z"/><path class="cls-5" d="M70.13,70.65H70a1.05,1.05,0,0,1-.73-.4,1.07,1.07,0,0,1-.24-.79,1.09,1.09,0,1,1,1.09,1.2Zm0-1.68a.59.59,0,0,0-.38.14.56.56,0,0,0-.22.39.58.58,0,0,0,.13.44.56.56,0,0,0,.41.22A.59.59,0,1,0,70.19,69Z"/><polygon class="cls-5" points="70.34 78.88 69.86 78.82 70.25 75.22 71.93 73.11 72.2 70.58 72.68 70.63 72.39 73.29 70.72 75.41 70.34 78.88"/><path class="cls-5" d="M72.53,70.91h-.12a1.09,1.09,0,0,1-1-1.19,1.05,1.05,0,0,1,.4-.72,1.09,1.09,0,0,1,1.77,1A1.08,1.08,0,0,1,72.53,70.91Zm0-1.68a.59.59,0,0,0-.38.14.54.54,0,0,0-.22.39.61.61,0,1,0,.67-.52Z"/></g></svg>