<svg xmlns="http://www.w3.org/2000/svg" viewBox="0 0 55.15 45.22"><defs><style>.cls-1{fill:#fff;}</style></defs><g id="map"><path class="cls-1" d="M53.22,2.39a.45.45,0,0,0-.45-.45h-5V7.29h5a.44.44,0,0,0,.44-.44Zm-4.94,4.4V2.45h4.43V6.79Z"/><polygon class="cls-1" points="31.29 14.07 31.29 15.63 28.16 15.63 28.16 15.12 30.78 15.12 30.78 14.57 28.16 14.57 28.16 14.07 31.29 14.07"/><path class="cls-1" d="M52.78,11.68h-5V17h5a.45.45,0,0,0,.44-.45V12.13A.45.45,0,0,0,52.78,11.68Zm-.06,4.85H48.28V12.19h4.44Z"/><path class="cls-1" d="M52.78,21.44h-5v5.35h5a.46.46,0,0,0,.31-.13.42.42,0,0,0,.13-.32V21.88A.44.44,0,0,0,52.78,21.44Zm-.06,4.84H48.28V22h4.44Z"/><path class="cls-1" d="M36.65,28.21V30.9L36.5,31a4,4,0,0,0-2,1.72l-.08.13h-.93V32.3h.64a4.6,4.6,0,0,1,2-1.74V28.72H33.53v-.51Z"/><polygon class="cls-1" points="36.65 18.46 36.65 20.02 33.53 20.02 33.53 19.51 36.14 19.51 36.14 18.96 33.53 18.96 33.53 18.46 36.65 18.46"/><path class="cls-1" d="M40,9.21v.55H52.78a2.37,2.37,0,0,1,2.37,2.37v4.46A2.37,2.37,0,0,1,52.78,19H40v.55H52.78a2.36,2.36,0,0,1,1.67.69,2.39,2.39,0,0,1,.7,1.68v4.46a2.38,2.38,0,0,1-2.37,2.37H40v1.91a4.75,4.75,0,0,1,1.85,1.68H53.93a1.22,1.22,0,0,1,1.22,1.22v2.31a1.22,1.22,0,0,1-1.22,1.22H41.87a4.53,4.53,0,0,1-7.7,0H23.09a1.22,1.22,0,0,1-1.22-1.22v-.37h.5v.37a.72.72,0,0,0,.72.71H34.46l.08.13a4,4,0,0,0,7,0l.08-.13H53.93a.71.71,0,0,0,.71-.71V33.52a.71.71,0,0,0-.71-.71H41.58l-.08-.13A4.11,4.11,0,0,0,39.67,31L39.51,31V28.21H52.78a1.87,1.87,0,0,0,1.86-1.87V21.88A1.86,1.86,0,0,0,52.78,20H39.51V18.46H52.78a1.86,1.86,0,0,0,1.31-.55,1.82,1.82,0,0,0,.55-1.32V12.13a1.82,1.82,0,0,0-.55-1.32,1.86,1.86,0,0,0-1.31-.55H39.51V8.71H52.78a1.87,1.87,0,0,0,1.86-1.86V2.38A1.86,1.86,0,0,0,52.77.51H24.22a1.87,1.87,0,0,0-1.87,1.87V5.8h-.5V2.38A2.37,2.37,0,0,1,24.22,0H52.78a2.35,2.35,0,0,1,1.67.7,2.35,2.35,0,0,1,.7,1.68V6.84A2.37,2.37,0,0,1,52.78,9.2Z"/><path class="cls-1" d="M32.79,39.79a1,1,0,0,0-1-1H19.62a4.29,4.29,0,0,0-1.95-1.77V34.74h13a2.12,2.12,0,0,0,2.11-2.12V28.16A2.12,2.12,0,0,0,30.68,26h-13V25h13a2.12,2.12,0,0,0,2.11-2.11V18.4a2.12,2.12,0,0,0-2.11-2.12h-13V15.23h13a2.12,2.12,0,0,0,2.11-2.12V8.65a2.12,2.12,0,0,0-2.12-2.12H2.12A2.12,2.12,0,0,0,0,8.65v4.46a2.12,2.12,0,0,0,2.12,2.12H14.3v1.06H2.12A2.12,2.12,0,0,0,0,18.4v4.47A2.12,2.12,0,0,0,2.12,25H14.3V26H2.12A2.12,2.12,0,0,0,0,28.16v4.46a2.12,2.12,0,0,0,2.12,2.12H14.3V37a4.32,4.32,0,0,0-2.08,1.83H1a1,1,0,0,0-1,1v2.31a1,1,0,0,0,1,1H12.22a4.26,4.26,0,0,0,7.4,0H31.83a1,1,0,0,0,1-1ZM30.68,28a.2.2,0,0,1,.19.2v4.46a.19.19,0,0,1-.19.19H25.92V28Zm0-9.75a.2.2,0,0,1,.19.19v4.47a.2.2,0,0,1-.19.19H25.92V18.21Zm0-9.75a.19.19,0,0,1,.2.19v4.46a.19.19,0,0,1-.2.19H25.92V8.46Z"/></g></svg>