<svg id="Layer_1" data-name="Layer 1" xmlns="http://www.w3.org/2000/svg" viewBox="0 0 44 57.42"><defs><style>.cls-1{font-size:6.88px;fill:#1d1d1b;font-family:Lato;font-weight:700;}.cls-2{letter-spacing:0em;}.cls-3{letter-spacing:-0.02em;}.cls-4{fill:#9ac43a;}.cls-5,.cls-6{fill:#fff;}.cls-6{stroke:#fff;stroke-miterlimit:10;stroke-width:0.39px;}</style></defs><text class="cls-1" transform="translate(9.51 55.46)"><tspan class="cls-2">S</tspan><tspan x="3.77" y="0">ecurit</tspan><tspan class="cls-3" x="21.52" y="0">y</tspan></text><circle class="cls-4" cx="22" cy="22" r="22"/><path class="cls-5" d="M22,1.45A20.53,20.53,0,0,0,8.79,37.71h0A20.54,20.54,0,1,0,22,1.45ZM35.18,37.22c-.16.15-.34.29-.51.43a20.1,20.1,0,0,1-25.46-.09l-.41-.34a20.16,20.16,0,1,1,26.38,0Z"/><path class="cls-6" d="M34.79,16.61c0,9.84-5.48,18.07-12.79,20.1-7.32-2-12.79-10.26-12.79-20.1a25.07,25.07,0,0,1,.16-2.89A18.49,18.49,0,0,0,22.48,8.07a18.52,18.52,0,0,0,12.14,5.62A25.45,25.45,0,0,1,34.79,16.61Z"/><path class="cls-4" d="M27.45,19.59h-1V18a4.47,4.47,0,0,0-8.93,0v1.58H16.48A1.36,1.36,0,0,0,15.17,21v6.86a1.3,1.3,0,0,0,1.31,1.34h11a1.35,1.35,0,0,0,1.37-1.34V21A1.42,1.42,0,0,0,27.45,19.59Zm-4.84,5.34v2.82a.61.61,0,0,1-.61.61.61.61,0,0,1-.62-.61V24.93a1.94,1.94,0,1,1,1.23,0Zm2.09-5.34H19.3V18a2.7,2.7,0,1,1,5.4,0Z"/></svg>