<svg xmlns="http://www.w3.org/2000/svg" viewBox="0 0 125.31 76.24"><defs><style>.cls-1{fill:#9c3;}</style></defs><g id="map"><polygon class="cls-1" points="88.29 34.73 46.12 10.39 46.12 59.08 88.29 34.73"/><path class="cls-1" d="M121,69.61H83.53c0-1,.11-2.07.24-3.1.84-6.59,6.41-11.24,13.07-11.54,3.55-.17,7.11-.17,10.7,0A13.86,13.86,0,0,1,121,68.14C121,68.62,121,69.12,121,69.61Z"/><path class="cls-1" d="M113.32,41.33A11.07,11.07,0,0,1,102,52.17H102A10.88,10.88,0,0,1,91.25,41.12c0-.11,0-.22,0-.33a11.09,11.09,0,0,1,11.25-10.68A11.26,11.26,0,0,1,113.32,41.33Z"/><path class="cls-1" d="M121.75,0H3.56A3.56,3.56,0,0,0,0,3.56H0V72.68a3.56,3.56,0,0,0,3.56,3.56H121.75a3.56,3.56,0,0,0,3.56-3.56V3.56A3.56,3.56,0,0,0,121.75,0Zm2,68a2,2,0,0,1-2,2H3.55a2,2,0,0,1-2-2V3.55a2,2,0,0,1,2-2H121.76a2,2,0,0,1,2,2Z"/><polygon class="cls-1" points="11.88 17.7 11.88 53.87 43.12 53.87 43.12 54.39 11.29 54.39 11.29 17.16 43.12 17.16 43.12 17.7 11.88 17.7"/><polygon class="cls-1" points="77.83 44.24 77.83 54.39 60.25 54.39 61.15 53.87 77.19 53.87 77.19 44.61 77.83 44.24"/><polygon class="cls-1" points="77.83 17.16 77.83 25.23 77.19 24.86 77.19 17.7 64.79 17.7 63.85 17.16 77.83 17.16"/><path class="cls-1" d="M40.16,35.17a12,12,0,1,1-5.22-9.9l-6.78,9.9,12-.57A3.33,3.33,0,0,1,40.16,35.17Z"/><path class="cls-1" d="M43.1,33l-3,.15V25.67A11.9,11.9,0,0,1,43.1,33Z"/><path class="cls-1" d="M40.12,25.67v7.52l-9,.44,6.78-9.91A11.79,11.79,0,0,1,40.12,25.67Z"/></g></svg>