<svg xmlns="http://www.w3.org/2000/svg" viewBox="0 0 99.6 97.26"><defs><style>.cls-1{fill:#fff;}</style></defs><g id="map"><path class="cls-1" d="M9.94,74a.25.25,0,0,1,.17.08l.47.51a3.83,3.83,0,0,1-1.31,1,4.51,4.51,0,0,1-1.86.35A4.34,4.34,0,0,1,5.7,75.6a3.7,3.7,0,0,1-1.31-.92,4,4,0,0,1-.85-1.41,5.58,5.58,0,0,1,0-3.64,4.2,4.2,0,0,1,.88-1.42,4,4,0,0,1,1.36-.92A4.42,4.42,0,0,1,7.53,67a4.22,4.22,0,0,1,1.65.3,4,4,0,0,1,1.26.82l-.39.54a.22.22,0,0,1-.09.1.25.25,0,0,1-.16,0,.51.51,0,0,1-.27-.12,2.68,2.68,0,0,0-.41-.26,3.35,3.35,0,0,0-.65-.27,3.19,3.19,0,0,0-1-.12,3.15,3.15,0,0,0-1.24.24,2.63,2.63,0,0,0-1,.68A3.16,3.16,0,0,0,4.68,70a4.37,4.37,0,0,0-.23,1.45,4.14,4.14,0,0,0,.24,1.46A3.34,3.34,0,0,0,5.33,74a2.69,2.69,0,0,0,1,.67,3,3,0,0,0,1.2.24,4.9,4.9,0,0,0,.7,0,3.4,3.4,0,0,0,.59-.14,2.82,2.82,0,0,0,.49-.25,3.61,3.61,0,0,0,.46-.36A.32.32,0,0,1,9.94,74Z"/><path class="cls-1" d="M12.82,66.82v9H11.73v-9Z"/><path class="cls-1" d="M17.2,69.53a3.16,3.16,0,0,1,1.22.23,2.46,2.46,0,0,1,.93.64,2.75,2.75,0,0,1,.59,1,4.25,4.25,0,0,1,0,2.64,2.63,2.63,0,0,1-.59,1,2.46,2.46,0,0,1-.93.64,3.38,3.38,0,0,1-2.45,0,2.58,2.58,0,0,1-.94-.64,2.91,2.91,0,0,1-.59-1,4.46,4.46,0,0,1,0-2.64,3.06,3.06,0,0,1,.59-1,2.58,2.58,0,0,1,.94-.64A3.17,3.17,0,0,1,17.2,69.53Zm0,5.53a1.59,1.59,0,0,0,1.37-.61,3.51,3.51,0,0,0,0-3.44,1.59,1.59,0,0,0-1.37-.62,1.86,1.86,0,0,0-.81.16,1.62,1.62,0,0,0-.58.46,2.11,2.11,0,0,0-.34.74,3.72,3.72,0,0,0-.11,1,2.86,2.86,0,0,0,.45,1.72A1.63,1.63,0,0,0,17.2,75.06Z"/><path class="cls-1" d="M26.62,69.63v6.2H26a.28.28,0,0,1-.29-.23l-.09-.66a3.85,3.85,0,0,1-.9.72,2.41,2.41,0,0,1-1.15.27,2.29,2.29,0,0,1-.9-.17,1.73,1.73,0,0,1-.65-.47,2.08,2.08,0,0,1-.4-.75,3.54,3.54,0,0,1-.13-1v-4h1.09v4a1.67,1.67,0,0,0,.32,1.09,1.21,1.21,0,0,0,1,.39,1.88,1.88,0,0,0,.9-.23,2.67,2.67,0,0,0,.77-.63V69.63Z"/><path class="cls-1" d="M33.47,66.82v9h-.64a.28.28,0,0,1-.3-.23l-.1-.75a3.13,3.13,0,0,1-.9.77,2.28,2.28,0,0,1-1.18.3,2.18,2.18,0,0,1-1-.21,2,2,0,0,1-.74-.6,2.84,2.84,0,0,1-.47-1A4.76,4.76,0,0,1,28,72.75a4.33,4.33,0,0,1,.18-1.27,3.23,3.23,0,0,1,.53-1,2.56,2.56,0,0,1,2.94-.74,2.52,2.52,0,0,1,.73.54V66.82Zm-1.08,4.29a1.78,1.78,0,0,0-.67-.58,2,2,0,0,0-.79-.16A1.57,1.57,0,0,0,29.6,71a2.88,2.88,0,0,0-.46,1.76,4.47,4.47,0,0,0,.1,1,1.93,1.93,0,0,0,.31.71,1.29,1.29,0,0,0,.49.41,1.78,1.78,0,0,0,.67.12,1.8,1.8,0,0,0,.94-.24,2.79,2.79,0,0,0,.74-.69Z"/><path class="cls-1" d="M44.75,74a.25.25,0,0,1,.17.08l.47.51a3.83,3.83,0,0,1-1.31,1,4.51,4.51,0,0,1-1.86.35,4.31,4.31,0,0,1-1.71-.33,3.7,3.7,0,0,1-1.31-.92,4,4,0,0,1-.85-1.41,5.58,5.58,0,0,1,0-3.64,4.2,4.2,0,0,1,.88-1.42,4,4,0,0,1,1.36-.92A4.42,4.42,0,0,1,42.34,67a4.22,4.22,0,0,1,1.65.3,4,4,0,0,1,1.26.82l-.39.54a.22.22,0,0,1-.09.1.25.25,0,0,1-.16,0,.51.51,0,0,1-.27-.12,3.3,3.3,0,0,0-.41-.26,3.35,3.35,0,0,0-.65-.27,3.19,3.19,0,0,0-1-.12,3.15,3.15,0,0,0-1.24.24,2.63,2.63,0,0,0-1,.68A3.16,3.16,0,0,0,39.49,70a4.37,4.37,0,0,0-.23,1.45,4.14,4.14,0,0,0,.24,1.46A3.34,3.34,0,0,0,40.14,74a2.69,2.69,0,0,0,1,.67,3,3,0,0,0,1.2.24,4.9,4.9,0,0,0,.7,0,3.4,3.4,0,0,0,.59-.14,2.82,2.82,0,0,0,.49-.25,3.61,3.61,0,0,0,.46-.36A.32.32,0,0,1,44.75,74Z"/><path class="cls-1" d="M49,69.53a3.16,3.16,0,0,1,1.22.23,2.62,2.62,0,0,1,.93.64,2.75,2.75,0,0,1,.59,1,4.25,4.25,0,0,1,0,2.64,2.65,2.65,0,0,1-1.52,1.64,3.38,3.38,0,0,1-2.45,0,2.58,2.58,0,0,1-.94-.64,2.76,2.76,0,0,1-.59-1,4.46,4.46,0,0,1,0-2.64,2.89,2.89,0,0,1,.59-1,2.58,2.58,0,0,1,.94-.64A3.17,3.17,0,0,1,49,69.53Zm0,5.53a1.59,1.59,0,0,0,1.37-.61,3.51,3.51,0,0,0,0-3.44A1.59,1.59,0,0,0,49,70.39a1.86,1.86,0,0,0-.81.16,1.62,1.62,0,0,0-.58.46,2,2,0,0,0-.34.74,3.72,3.72,0,0,0-.11,1,2.86,2.86,0,0,0,.45,1.72A1.63,1.63,0,0,0,49,75.06Z"/><path class="cls-1" d="M53.32,75.83v-6.2H54a.28.28,0,0,1,.29.23l.08.63a3,3,0,0,1,.77-.69,1.79,1.79,0,0,1,1-.27,1.48,1.48,0,0,1,1,.35,1.93,1.93,0,0,1,.56.94,2.24,2.24,0,0,1,.35-.58,2,2,0,0,1,.47-.4,2,2,0,0,1,.56-.23,2.47,2.47,0,0,1,.6-.08,2.33,2.33,0,0,1,.87.16,1.61,1.61,0,0,1,.65.46,1.93,1.93,0,0,1,.41.73,3.4,3.4,0,0,1,.14,1v4H60.64v-4a1.68,1.68,0,0,0-.32-1.1,1.14,1.14,0,0,0-.92-.38,1.25,1.25,0,0,0-.51.1,1.18,1.18,0,0,0-.43.28,1.25,1.25,0,0,0-.29.46,1.79,1.79,0,0,0-.1.64v4H57v-4a1.73,1.73,0,0,0-.3-1.11,1,1,0,0,0-.87-.37,1.34,1.34,0,0,0-.75.22,2.32,2.32,0,0,0-.63.59v4.62Z"/><path class="cls-1" d="M64.43,70.59a3.33,3.33,0,0,1,.9-.78,2.43,2.43,0,0,1,1.18-.29,2.19,2.19,0,0,1,1,.21,1.86,1.86,0,0,1,.74.6,2.81,2.81,0,0,1,.47,1,5.05,5.05,0,0,1,.17,1.36A4.4,4.4,0,0,1,68.68,74a3.29,3.29,0,0,1-.53,1,2.56,2.56,0,0,1-.85.68,2.53,2.53,0,0,1-1.12.25,2.25,2.25,0,0,1-1-.2,2.32,2.32,0,0,1-.72-.53v2.74H63.39v-8.3H64a.27.27,0,0,1,.29.23Zm0,3.75a1.74,1.74,0,0,0,.66.57,1.86,1.86,0,0,0,.79.16,1.56,1.56,0,0,0,1.34-.62,2.88,2.88,0,0,0,.46-1.76,4.53,4.53,0,0,0-.1-1,2,2,0,0,0-.31-.71,1.23,1.23,0,0,0-.5-.41,1.74,1.74,0,0,0-.67-.13,1.71,1.71,0,0,0-.93.25,2.65,2.65,0,0,0-.74.69Z"/><path class="cls-1" d="M75.35,69.63v6.2H74.7a.28.28,0,0,1-.3-.23l-.08-.66a3.71,3.71,0,0,1-.91.72,2.38,2.38,0,0,1-1.15.27,2.29,2.29,0,0,1-.9-.17,1.9,1.9,0,0,1-.65-.47,2.23,2.23,0,0,1-.39-.75,3.19,3.19,0,0,1-.13-1v-4h1.09v4a1.61,1.61,0,0,0,.32,1.09,1.19,1.19,0,0,0,1,.39,1.88,1.88,0,0,0,.9-.23,2.85,2.85,0,0,0,.78-.63V69.63Z"/><path class="cls-1" d="M82.82,75.83H81.73V70.54H78.54v3.72a.77.77,0,0,0,.19.58.64.64,0,0,0,.49.19.85.85,0,0,0,.29,0,1.56,1.56,0,0,0,.22-.1l.16-.1a.21.21,0,0,1,.11-.05.19.19,0,0,1,.15.1l.32.52a2,2,0,0,1-.68.42,2.29,2.29,0,0,1-.82.15,1.52,1.52,0,0,1-1.13-.41,1.66,1.66,0,0,1-.39-1.18v-3.8H76.7a.23.23,0,0,1-.16-.06c-.05,0-.07-.09-.07-.18v-.43l1-.13.25-1.91a.28.28,0,0,1,.08-.15.24.24,0,0,1,.17-.06h.55v2.13h4.28Zm.27-8.19a.73.73,0,0,1-.06.3,1,1,0,0,1-.17.24,1,1,0,0,1-.25.17.8.8,0,0,1-.3.06.73.73,0,0,1-.3-.06.87.87,0,0,1-.41-.41.73.73,0,0,1-.06-.3.8.8,0,0,1,.06-.3.74.74,0,0,1,.17-.25.81.81,0,0,1,.24-.17.73.73,0,0,1,.3-.06.8.8,0,0,1,.3.06,1,1,0,0,1,.25.17.92.92,0,0,1,.17.25A.8.8,0,0,1,83.09,67.64Z"/><path class="cls-1" d="M85.64,70.53a3.25,3.25,0,0,1,.42-.41,2.87,2.87,0,0,1,.49-.31,2.25,2.25,0,0,1,.53-.21,3,3,0,0,1,.62-.07,2.29,2.29,0,0,1,.9.17,1.69,1.69,0,0,1,.64.48,2,2,0,0,1,.4.74,3.23,3.23,0,0,1,.13,1v4H88.68v-4a1.69,1.69,0,0,0-.32-1.09,1.2,1.2,0,0,0-1-.39,1.88,1.88,0,0,0-.9.23,3.09,3.09,0,0,0-.78.64v4.56H84.61v-6.2h.65a.27.27,0,0,1,.29.23Z"/><path class="cls-1" d="M96.67,69.88v.4c0,.13-.09.22-.26.26l-.7.09a2,2,0,0,1,0,1.72,1.83,1.83,0,0,1-.48.63,2.15,2.15,0,0,1-.73.4,2.83,2.83,0,0,1-.93.14,3.07,3.07,0,0,1-.82-.1,1.12,1.12,0,0,0-.3.26.45.45,0,0,0-.11.28.37.37,0,0,0,.18.33,1.18,1.18,0,0,0,.48.16,3.33,3.33,0,0,0,.67.06l.77,0a6.48,6.48,0,0,1,.77.1,2.29,2.29,0,0,1,.67.22,1.19,1.19,0,0,1,.47.42,1.23,1.23,0,0,1,.18.7,1.65,1.65,0,0,1-.19.77,2.13,2.13,0,0,1-.58.66,2.79,2.79,0,0,1-.91.47,3.87,3.87,0,0,1-1.22.17,4.71,4.71,0,0,1-1.19-.13,2.72,2.72,0,0,1-.84-.36,1.51,1.51,0,0,1-.51-.53,1.23,1.23,0,0,1-.17-.62,1.12,1.12,0,0,1,.29-.77,1.87,1.87,0,0,1,.79-.51,1.14,1.14,0,0,1-.44-.33.94.94,0,0,1-.11-.83,1,1,0,0,1,.15-.29,1.57,1.57,0,0,1,.25-.27,1.69,1.69,0,0,1,.34-.23,2,2,0,0,1-.72-.68,1.87,1.87,0,0,1-.25-1,2,2,0,0,1,.17-.82,1.79,1.79,0,0,1,.49-.63,2.19,2.19,0,0,1,.74-.4,2.87,2.87,0,0,1,.95-.14,3,3,0,0,1,.75.09,2.39,2.39,0,0,1,.64.26Zm-1.11,6.29a.51.51,0,0,0-.13-.37.84.84,0,0,0-.34-.22,2.4,2.4,0,0,0-.51-.11c-.19,0-.39,0-.61-.06l-.65,0-.63-.06a1.58,1.58,0,0,0-.56.4.79.79,0,0,0-.22.56.68.68,0,0,0,.11.39.87.87,0,0,0,.32.31,1.82,1.82,0,0,0,.56.21,3.53,3.53,0,0,0,.78.08,3.7,3.7,0,0,0,.79-.08,1.86,1.86,0,0,0,.59-.23,1,1,0,0,0,.37-.35A.76.76,0,0,0,95.56,76.17Zm-2-3.37a1.72,1.72,0,0,0,.58-.09,1.11,1.11,0,0,0,.42-.26,1.16,1.16,0,0,0,.26-.39,1.65,1.65,0,0,0,.08-.51,1.18,1.18,0,0,0-.34-.9,1.66,1.66,0,0,0-2,0,1.18,1.18,0,0,0-.34.9,1.4,1.4,0,0,0,.08.51,1.16,1.16,0,0,0,.26.39,1.24,1.24,0,0,0,.43.26A1.68,1.68,0,0,0,93.6,72.8Z"/><path class="cls-1" d="M32.57,90.52H31.51a.76.76,0,0,1-.29,0,.83.83,0,0,1-.24-.18l-.89-.89a4.45,4.45,0,0,1-1.32.89,4.22,4.22,0,0,1-1.65.32,2.85,2.85,0,0,1-1-.16,2.7,2.7,0,0,1-.84-.48,2.39,2.39,0,0,1-.6-.77,2.25,2.25,0,0,1-.22-1,2.16,2.16,0,0,1,.14-.81,2.49,2.49,0,0,1,.4-.71,2.81,2.81,0,0,1,.61-.58,3.77,3.77,0,0,1,.76-.44,4,4,0,0,1-.55-.92,2.47,2.47,0,0,1-.18-.92,2.32,2.32,0,0,1,.16-.84,2,2,0,0,1,.47-.68,2.11,2.11,0,0,1,.75-.46,2.72,2.72,0,0,1,1-.17,2.5,2.5,0,0,1,.88.15,2.44,2.44,0,0,1,.68.42,1.85,1.85,0,0,1,.46.59,1.83,1.83,0,0,1,.19.71l-.68.14c-.13,0-.23,0-.3-.19a1.13,1.13,0,0,0-.13-.33,1.54,1.54,0,0,0-.25-.32,1.31,1.31,0,0,0-.36-.23A1.22,1.22,0,0,0,28,82.5a1.43,1.43,0,0,0-.56.1,1.17,1.17,0,0,0-.42.27,1.36,1.36,0,0,0-.36.92,1.84,1.84,0,0,0,.05.41,2.56,2.56,0,0,0,.16.4,2.88,2.88,0,0,0,.27.41,5,5,0,0,0,.4.44L30.1,88a4.38,4.38,0,0,0,.37-.86,4.13,4.13,0,0,0,.19-.9.25.25,0,0,1,.07-.18A.21.21,0,0,1,30.9,86h.67a5,5,0,0,1-.22,1.38,5.15,5.15,0,0,1-.62,1.27ZM26.91,86.2a2.43,2.43,0,0,0-1,.83,1.85,1.85,0,0,0-.33,1.06,1.54,1.54,0,0,0,.15.7,1.48,1.48,0,0,0,.38.51,1.59,1.59,0,0,0,.55.32,1.88,1.88,0,0,0,.62.11,2.85,2.85,0,0,0,1.23-.26,3,3,0,0,0,1-.67Z"/><path class="cls-1" d="M41.41,83.12a.87.87,0,0,1-.12.14.27.27,0,0,1-.16,0,.4.4,0,0,1-.24-.1c-.1-.07-.21-.15-.35-.23a2.69,2.69,0,0,0-.51-.23,2.18,2.18,0,0,0-.72-.11,2.1,2.1,0,0,0-.7.11,1.58,1.58,0,0,0-.51.29,1.18,1.18,0,0,0-.31.43,1.4,1.4,0,0,0-.1.54,1,1,0,0,0,.18.61,1.49,1.49,0,0,0,.48.41,4.2,4.2,0,0,0,.67.3l.77.26c.26.09.52.19.77.3a2.33,2.33,0,0,1,.67.43,1.89,1.89,0,0,1,.48.63,2,2,0,0,1,.18.91,2.92,2.92,0,0,1-.19,1.08,2.59,2.59,0,0,1-1.5,1.47,3.49,3.49,0,0,1-1.25.21,3.7,3.7,0,0,1-1.55-.31,3.49,3.49,0,0,1-1.19-.83l.34-.56a.34.34,0,0,1,.12-.12.28.28,0,0,1,.15,0,.32.32,0,0,1,.18.06l.23.16.3.22a2.57,2.57,0,0,0,.37.21,2.46,2.46,0,0,0,.48.16,2.32,2.32,0,0,0,.61.07,2.19,2.19,0,0,0,.75-.12,1.49,1.49,0,0,0,.56-.33,1.26,1.26,0,0,0,.35-.5,1.56,1.56,0,0,0,.13-.66,1.11,1.11,0,0,0-.18-.65,1.4,1.4,0,0,0-.48-.42,2.94,2.94,0,0,0-.67-.29l-.77-.25a7.15,7.15,0,0,1-.77-.29,2.38,2.38,0,0,1-.68-.43,2,2,0,0,1-.47-.65,2.38,2.38,0,0,1-.18-1,2.33,2.33,0,0,1,.18-.9,2.26,2.26,0,0,1,.53-.77,2.53,2.53,0,0,1,.85-.54,3.16,3.16,0,0,1,1.16-.2,3.75,3.75,0,0,1,1.33.23,3.28,3.28,0,0,1,1.07.67Z"/><path class="cls-1" d="M48.3,89.65a2.22,2.22,0,0,1-.49.42,2.8,2.8,0,0,1-.6.3,3.55,3.55,0,0,1-.66.17,4,4,0,0,1-.68.06,3.07,3.07,0,0,1-1.19-.22,2.48,2.48,0,0,1-.93-.63,2.91,2.91,0,0,1-.62-1,4.41,4.41,0,0,1-.22-1.42,3.66,3.66,0,0,1,.2-1.21,2.66,2.66,0,0,1,1.49-1.63,3.07,3.07,0,0,1,1.21-.23,2.7,2.7,0,0,1,1,.19,2.37,2.37,0,0,1,.82.53,2.56,2.56,0,0,1,.54.87A3.36,3.36,0,0,1,48.39,87a.66.66,0,0,1,0,.34.23.23,0,0,1-.21.09H44a3.76,3.76,0,0,0,.16,1,2.22,2.22,0,0,0,.4.73,1.74,1.74,0,0,0,.61.43,2.07,2.07,0,0,0,.8.14,2.5,2.5,0,0,0,.71-.09,3,3,0,0,0,.51-.21l.36-.2a.47.47,0,0,1,.24-.1.25.25,0,0,1,.21.11Zm-.88-2.91a2.17,2.17,0,0,0-.11-.69A1.64,1.64,0,0,0,47,85.5a1.46,1.46,0,0,0-.5-.35,1.6,1.6,0,0,0-.67-.13,1.67,1.67,0,0,0-1.24.46A2.11,2.11,0,0,0,44,86.74Z"/><path class="cls-1" d="M50.76,85.56a2.9,2.9,0,0,1,.72-1,1.64,1.64,0,0,1,1.05-.35,1.58,1.58,0,0,1,.38,0,1,1,0,0,1,.32.13l-.08.82a.18.18,0,0,1-.18.15,1.09,1.09,0,0,1-.26,0,2.05,2.05,0,0,0-.37,0,1.67,1.67,0,0,0-.52.08,1.19,1.19,0,0,0-.41.26,2,2,0,0,0-.33.41,5.09,5.09,0,0,0-.26.57v3.92H49.73v-6.2h.62a.4.4,0,0,1,.25.06.55.55,0,0,1,.09.24Z"/><path class="cls-1" d="M59.49,84.32,57,90.52H56l-2.53-6.2h.89a.38.38,0,0,1,.22.06.45.45,0,0,1,.12.16l1.57,4c.05.15.09.3.13.44s.07.29.1.43c0-.14.07-.28.1-.43s.09-.29.14-.44l1.59-4a.38.38,0,0,1,.12-.16.36.36,0,0,1,.2-.06Z"/><path class="cls-1" d="M65.36,89.65a2.22,2.22,0,0,1-.49.42,3.36,3.36,0,0,1-.6.3,3.76,3.76,0,0,1-.66.17,4,4,0,0,1-.68.06,3.07,3.07,0,0,1-1.19-.22,2.48,2.48,0,0,1-.93-.63,2.91,2.91,0,0,1-.62-1A4.15,4.15,0,0,1,60,87.29a3.66,3.66,0,0,1,.2-1.21,2.81,2.81,0,0,1,.57-1,2.85,2.85,0,0,1,.91-.65,3.16,3.16,0,0,1,1.22-.23,2.7,2.7,0,0,1,1,.19,2.37,2.37,0,0,1,.82.53,2.56,2.56,0,0,1,.54.87A3.36,3.36,0,0,1,65.45,87a.66.66,0,0,1,0,.34.23.23,0,0,1-.21.09H61.05a3.41,3.41,0,0,0,.16,1,2.22,2.22,0,0,0,.4.73,1.74,1.74,0,0,0,.61.43,2,2,0,0,0,.8.14,2.5,2.5,0,0,0,.71-.09,3,3,0,0,0,.51-.21,3.34,3.34,0,0,0,.35-.2.54.54,0,0,1,.25-.1.25.25,0,0,1,.21.11Zm-.89-2.91a2.17,2.17,0,0,0-.1-.69,1.64,1.64,0,0,0-.31-.55,1.46,1.46,0,0,0-.5-.35,1.6,1.6,0,0,0-.67-.13,1.65,1.65,0,0,0-1.24.46,2.11,2.11,0,0,0-.56,1.26Z"/><path class="cls-1" d="M67.82,85.56a2.9,2.9,0,0,1,.72-1,1.64,1.64,0,0,1,1-.35,1.58,1.58,0,0,1,.38,0,1.13,1.13,0,0,1,.32.13l-.08.82a.18.18,0,0,1-.19.15,1,1,0,0,1-.25,0,2.05,2.05,0,0,0-.37,0,1.62,1.62,0,0,0-.52.08,1.1,1.1,0,0,0-.41.26,2,2,0,0,0-.33.41,5.09,5.09,0,0,0-.26.57v3.92H66.79v-6.2h.62a.4.4,0,0,1,.25.06.55.55,0,0,1,.09.24Z"/><path class="cls-1" d="M74.82,85.34a.25.25,0,0,1-.23.13.48.48,0,0,1-.21-.06l-.28-.15a3,3,0,0,0-.4-.16,2.23,2.23,0,0,0-.55-.07,1.89,1.89,0,0,0-.5.07,1.15,1.15,0,0,0-.38.2.77.77,0,0,0-.23.28.73.73,0,0,0-.09.35.61.61,0,0,0,.14.4,1.15,1.15,0,0,0,.36.28,4.36,4.36,0,0,0,.52.2l.59.19.59.22a2.17,2.17,0,0,1,.51.31A1.36,1.36,0,0,1,75,88a1.41,1.41,0,0,1,.13.64,2.06,2.06,0,0,1-.15.79,1.74,1.74,0,0,1-.45.63,2.14,2.14,0,0,1-.74.42,3,3,0,0,1-1,.15,3.13,3.13,0,0,1-1.17-.21,3.08,3.08,0,0,1-.9-.54l.26-.42a.34.34,0,0,1,.12-.12.29.29,0,0,1,.17,0,.46.46,0,0,1,.23.08,2,2,0,0,0,.3.19,1.65,1.65,0,0,0,.42.19,1.91,1.91,0,0,0,.63.09,1.82,1.82,0,0,0,.55-.08,1.2,1.2,0,0,0,.4-.23.82.82,0,0,0,.24-.32,1,1,0,0,0,.07-.39.67.67,0,0,0-.13-.43,1.17,1.17,0,0,0-.37-.28,2.81,2.81,0,0,0-.52-.21l-.59-.19a6,6,0,0,1-.59-.22,2.07,2.07,0,0,1-.52-.32,1.31,1.31,0,0,1-.36-.47,1.38,1.38,0,0,1-.14-.67,1.57,1.57,0,0,1,.15-.68,1.69,1.69,0,0,1,.42-.58,2.1,2.1,0,0,1,.69-.39,2.77,2.77,0,0,1,.94-.15,3,3,0,0,1,1.1.19,2.79,2.79,0,0,1,.84.53Z"/><path class="cls-1" d="M80.44,18.5a16.38,16.38,0,0,0-10.35-5A21.41,21.41,0,0,0,50.14,0,22.21,22.21,0,0,0,29.8,13.53,17,17,0,0,0,14.62,30.16,16.44,16.44,0,0,0,31.11,46.94H68.29A17,17,0,0,0,85,30.21,16.46,16.46,0,0,0,80.44,18.5ZM68.29,45.29H31.11A14.81,14.81,0,0,1,16.26,30.18,15.4,15.4,0,0,1,31,15.1,20.54,20.54,0,0,1,50.14,1.64,19.75,19.75,0,0,1,68.92,15.1,14.78,14.78,0,0,1,83.37,30.18,15.31,15.31,0,0,1,68.29,45.29Z"/><rect class="cls-1" x="33.94" y="49.6" width="4.39" height="4.04" rx="0.54"/><path class="cls-1" d="M45.88,35.34a1.23,1.23,0,0,0-1.22-1.23H37.13V32.52h7.53a1.23,1.23,0,0,0,1.22-1.23V28.71a1.23,1.23,0,0,0-1.22-1.23H37.13v-1.6h7.53a1.23,1.23,0,0,0,1.22-1.23V22.08a1.22,1.22,0,0,0-1.22-1.22H28.14a1.22,1.22,0,0,0-1.22,1.22v2.59a1.22,1.22,0,0,0,1.22,1.22h7v1.6h-7a1.22,1.22,0,0,0-1.22,1.22v2.58a1.23,1.23,0,0,0,1.22,1.23h7v1.59h-7a1.23,1.23,0,0,0-1.22,1.23v2.58a1.23,1.23,0,0,0,1.22,1.23h7V53.06h2V39.14h7.53a1.22,1.22,0,0,0,1.22-1.22ZM44.66,28.6a.11.11,0,0,1,.11.11v2.58a.11.11,0,0,1-.11.11H41.91V28.6ZM41.91,22h2.75a.11.11,0,0,1,.11.11v2.58a.1.1,0,0,1-.11.11H41.91Zm2.86,16a.11.11,0,0,1-.11.11H41.91v-2.8h2.75a.11.11,0,0,1,.11.11Z"/><rect class="cls-1" x="60.77" y="49.6" width="4.39" height="4.04" rx="0.54"/><path class="cls-1" d="M72.71,35.34a1.23,1.23,0,0,0-1.22-1.23H64V32.52h7.52a1.23,1.23,0,0,0,1.22-1.23V28.71a1.23,1.23,0,0,0-1.22-1.23H64v-1.6h7.53a1.23,1.23,0,0,0,1.22-1.23V22.08a1.22,1.22,0,0,0-1.22-1.22H55a1.23,1.23,0,0,0-1.23,1.22v2.59A1.23,1.23,0,0,0,55,25.89h7v1.6H55a1.23,1.23,0,0,0-1.23,1.22v2.58A1.23,1.23,0,0,0,55,32.52h7v1.59H55a1.23,1.23,0,0,0-1.23,1.23v2.58A1.23,1.23,0,0,0,55,39.15h7V53.06H64V39.14h7.52a1.23,1.23,0,0,0,1.23-1.22ZM71.49,28.6a.11.11,0,0,1,.11.11v2.58a.11.11,0,0,1-.11.11H68.74V28.6ZM68.74,22h2.75a.11.11,0,0,1,.11.11v2.58a.1.1,0,0,1-.11.11H68.74Zm2.86,16a.11.11,0,0,1-.11.11H68.74v-2.8h2.75a.11.11,0,0,1,.11.11Z"/></g></svg>