<svg id="Layer_1" data-name="Layer 1" xmlns="http://www.w3.org/2000/svg" viewBox="0 0 61.6 68.01"><defs><style>.cls-1{font-size:6.88px;fill:#1d1d1b;font-family:Lato;font-weight:700;}.cls-2{letter-spacing:-0.02em;}.cls-3{letter-spacing:-0.01em;}.cls-4{letter-spacing:0em;}.cls-5{letter-spacing:-0.02em;}.cls-6{letter-spacing:-0.01em;}.cls-7{letter-spacing:-0.01em;}.cls-8{letter-spacing:-0.01em;}.cls-9{letter-spacing:-0.09em;}.cls-10{fill:#9ac43a;}.cls-11,.cls-12{fill:#fff;}.cls-12{stroke:#fff;stroke-miterlimit:10;stroke-width:0.2px;}</style></defs><text class="cls-1" transform="translate(0 58.18)"><tspan class="cls-2">P</tspan><tspan class="cls-3" x="4.1" y="0">ow</tspan><tspan class="cls-4" x="13.46" y="0">e</tspan><tspan class="cls-5" x="17.14" y="0">r</tspan><tspan class="cls-4" x="19.56" y="0"> </tspan><tspan class="cls-6" x="21.23" y="0">M</tspan><tspan x="27.65" y="0">ana</tspan><tspan class="cls-7" x="38.52" y="0">g</tspan><tspan x="42.09" y="0">eme</tspan><tspan class="cls-8" x="55.21" y="0">n</tspan><tspan x="59.04" y="0">t</tspan><tspan class="cls-9" x="20.54" y="7.87">T</tspan><tspan x="24.03" y="7.87">uning</tspan></text><circle class="cls-10" cx="30.8" cy="22" r="22"/><path class="cls-11" d="M30.8,1.45A20.53,20.53,0,0,0,17.59,37.71h0A20.54,20.54,0,1,0,30.8,1.45ZM44,37.22l-.52.43A20.1,20.1,0,0,1,18,37.56l-.41-.34a20.16,20.16,0,1,1,26.39,0Z"/><path class="cls-11" d="M33.32,9.09l-3,9.9h11L26.69,35.42l-.15-.08,4.74-12.47H21.4L33.09,9Z"/><path class="cls-12" d="M31.65,42.44c-11.8-.24-21.28-9.39-21.28-20.64A20.54,20.54,0,0,1,22.17,3.45l3.13,6.3A17,17,0,0,0,14.22,25.46C14.22,34.68,22,42.2,31.65,42.44Z"/></svg>