<svg xmlns="http://www.w3.org/2000/svg" viewBox="0 0 95 88"><defs><style>.cls-1{fill:#0083ad;}.cls-2,.cls-4{opacity:0.6;}.cls-3{fill:#9c3;}</style></defs><g id="upper"><path class="cls-1" d="M15.51,49.44a3.13,3.13,0,0,1,3-3.16,3.11,3.11,0,1,1,.12,6.21A3.15,3.15,0,0,1,15.51,49.44Z"/><path class="cls-1" d="M35.22,49.44a3.13,3.13,0,0,1,3-3.16,3.11,3.11,0,1,1-3,3.16Z"/><path class="cls-1" d="M45.23,44a4.64,4.64,0,0,0-4.42-4.59H37.56a1.44,1.44,0,0,0-.18-.25l-4.67-5.69a2.39,2.39,0,0,0-1.83-.85H20.74a2.4,2.4,0,0,0-1.84.85l-4.66,5.69a1.44,1.44,0,0,0-.18.25h-2.8a1.07,1.07,0,0,0-1.08,1.07v7.1a1.08,1.08,0,0,0,1.08,1.08h2.88a4.57,4.57,0,0,1,4.32-3.79,4.73,4.73,0,0,1,4.62,3.79H33.85a4.57,4.57,0,0,1,4.32-3.79,4.73,4.73,0,0,1,4.62,3.79h.62a1.84,1.84,0,0,0,1.84-1.84V44.25A2.64,2.64,0,0,0,45.23,44ZM24.8,40.44H16.06l4.68-5.69H24.8Zm10.73,0h-8.7v-5.7h4.05l4.65,5.67Z"/><g id="map-2" data-name="map" class="cls-2"><path d="M53.84,19.42H52.18V16.78h0a4.68,4.68,0,0,0-9.36,0v2.6H41.16a.68.68,0,0,0-.69.68h0v9.49a.69.69,0,0,0,.69.69H53.84a.69.69,0,0,0,.69-.69h0V20.1a.68.68,0,0,0-.69-.68ZM49,27.33H46l.81-2.54a1.6,1.6,0,0,1,1.42-2.87,1.61,1.61,0,0,1,.73,2.15,1.59,1.59,0,0,1-.73.72Zm1.63-7.91H44.36V16.78a3.14,3.14,0,0,1,6.28,0Z"/></g><polygon class="cls-3" points="58.54 54.5 58.54 43.45 59.76 43.45 59.76 53.28 76.4 53.28 76.4 43.45 77.61 43.45 77.61 54.5 58.54 54.5"/><polygon class="cls-3" points="67.96 32.66 57.46 43.16 56.6 42.3 67.96 30.94 79.55 42.54 78.7 43.4 67.96 32.66"/><rect class="cls-3" x="63.21" y="45.14" width="3.94" height="8.35"/><rect class="cls-3" x="69.47" y="40.27" width="3.94" height="8.35"/><path class="cls-4" d="M71.66,63.82A22.14,22.14,0,0,0,93.52,42,21.47,21.47,0,0,0,74,20.13,28,28,0,0,0,47.93,2.46a29,29,0,0,0-26.6,17.69A22.23,22.23,0,0,0,1.48,41.88,21.5,21.5,0,0,0,23,63.82h3.82v7.12H20.32a5,5,0,1,0,0,.86h7.4v-8H39.89V80.09H33.52a5,5,0,1,0,0,.86h7.23V63.82H52.94V81h7.25a5,5,0,1,0,0-.87H53.81V63.82H66.08v8h7.36a5,5,0,1,0,0-.86h-6.5V63.82ZM15.33,74.92a3.55,3.55,0,1,1,3.52-4,3.1,3.1,0,0,1,0,.86A3.55,3.55,0,0,1,15.33,74.92Zm13.2,9.15a3.55,3.55,0,1,1,3.52-4,3.1,3.1,0,0,1,0,.86A3.55,3.55,0,0,1,28.53,84.07ZM65.18,77a3.55,3.55,0,1,1-3.52,4,3.15,3.15,0,0,1,0-.44,3,3,0,0,1,0-.43A3.56,3.56,0,0,1,65.18,77Zm13.25-9.15a3.55,3.55,0,1,1-3.52,4,3.1,3.1,0,0,1,0-.86A3.55,3.55,0,0,1,78.43,67.82ZM23,61.67A19.36,19.36,0,0,1,3.63,41.91a20.14,20.14,0,0,1,19.2-19.72A26.84,26.84,0,0,1,47.93,4.61,25.81,25.81,0,0,1,72.48,22.19,19.34,19.34,0,0,1,91.37,41.91,20,20,0,0,1,71.66,61.67H23Z"/></g></svg>