<svg xmlns="http://www.w3.org/2000/svg" viewBox="0 0 91.02 95.41"><defs><style>.cls-1{font-size:12.05px;font-family:Lato-Regular, Lato;}.cls-1,.cls-6{fill:#fff;}.cls-2{letter-spacing:-0.01em;}.cls-3{letter-spacing:-0.02em;}.cls-4{letter-spacing:-0.12em;}.cls-5{letter-spacing:0em;}</style></defs><g id="map"><text class="cls-1" transform="translate(32.88 77.72)"><tspan class="cls-2">C</tspan><tspan x="7.93" y="0">o</tspan><tspan class="cls-3" x="14.76" y="0">r</tspan><tspan x="18.9" y="0">e</tspan><tspan class="cls-4" x="-21.58" y="14.46">T</tspan><tspan x="-15.93" y="14.46">echnol</tspan><tspan class="cls-5" x="19.3" y="14.46">o</tspan><tspan x="26.1" y="14.46">gies</tspan></text><rect class="cls-6" x="35.83" y="52.44" width="1.86" height="2.9"/><rect class="cls-6" x="44.62" y="52.44" width="1.86" height="2.9"/><rect class="cls-6" x="53.41" y="52.44" width="1.86" height="2.9"/><rect class="cls-6" x="35.83" width="1.86" height="2.9"/><rect class="cls-6" x="44.62" width="1.86" height="2.9"/><rect class="cls-6" x="53.41" width="1.86" height="2.9"/><rect class="cls-6" x="17.84" y="16.63" width="2.9" height="1.86"/><rect class="cls-6" x="17.84" y="25.42" width="2.9" height="1.86"/><rect class="cls-6" x="17.84" y="34.21" width="2.9" height="1.86"/><rect class="cls-6" x="70.28" y="16.63" width="2.9" height="1.86"/><rect class="cls-6" x="70.28" y="25.42" width="2.9" height="1.86"/><rect class="cls-6" x="70.28" y="34.21" width="2.9" height="1.86"/><path class="cls-6" d="M59.45,7.77H31.57a6,6,0,0,0-6,6V41.62a6,6,0,0,0,6,6H59.45a6,6,0,0,0,6-6V13.73A6,6,0,0,0,59.45,7.77Zm.94,34.78H30.63V12.8H60.39Z"/><rect class="cls-6" x="39.22" y="21.39" width="12.58" height="12.58"/></g></svg>