<svg xmlns="http://www.w3.org/2000/svg" viewBox="0 0 69.31 54.32"><defs><style>.cls-1{fill:#fff;}</style></defs><g id="map"><path class="cls-1" d="M69.31,29.74A16.83,16.83,0,0,1,63.13,42.5V40.31a15.22,15.22,0,0,0,4.56-10.6A14.56,14.56,0,0,0,53.46,14.86,19.43,19.43,0,0,0,35,1.62a20.21,20.21,0,0,0-18.9,13.24A15.16,15.16,0,0,0,1.62,29.71,14.6,14.6,0,0,0,6.18,40.6v2.14A16.21,16.21,0,0,1,0,29.69,16.76,16.76,0,0,1,15,13.32,21.87,21.87,0,0,1,35,0,21.07,21.07,0,0,1,54.62,13.31,16.18,16.18,0,0,1,69.31,29.74Z"/><path class="cls-1" d="M68.56,41.31a15.91,15.91,0,0,1-10.7,9.07l-.08,0a17.31,17.31,0,0,1-3.44.35H52.29v-1h2.05A16.11,16.11,0,0,0,65.6,45.16,17.12,17.12,0,0,0,68.56,41.31Z"/><path class="cls-1" d="M6.18,47.18v.89a15.16,15.16,0,0,1-5.43-6.8A16.23,16.23,0,0,0,6.18,47.18Z"/><path class="cls-1" d="M58,21.25H48a2.24,2.24,0,0,0-2.24,2.24V44.42A2.24,2.24,0,0,0,48,46.66H58a2.24,2.24,0,0,0,2.24-2.24V23.49A2.24,2.24,0,0,0,58,21.25Zm-6.38.42a.65.65,0,0,1,.65.65.66.66,0,0,1-.65.66.67.67,0,0,1-.66-.66A.66.66,0,0,1,51.64,21.67Zm7.59,22.75A1.21,1.21,0,0,1,58,45.62H48a1.21,1.21,0,0,1-1.21-1.2V23.49A1.21,1.21,0,0,1,48,22.29h2v.46a.68.68,0,0,0,.68.68h4.63a.69.69,0,0,0,.69-.68v-.46h2a1.21,1.21,0,0,1,1.21,1.2Z"/><rect class="cls-1" x="49.74" y="43.89" width="6.57" height="0.59" rx="0.3"/><path class="cls-1" d="M45,54.32H7a2.62,2.62,0,0,1-2.56-2.48l0-.43H47.56l0,.43a2.64,2.64,0,0,1-.74,1.68A2.49,2.49,0,0,1,45,54.32ZM5.35,52.21A1.78,1.78,0,0,0,7,53.51H45A1.69,1.69,0,0,0,46.21,53a1.86,1.86,0,0,0,.43-.76Z"/><path class="cls-1" d="M28.93,52.17a.86.86,0,0,1-.08.38c-.06.11-.13.17-.22.17H23.36c-.16,0-.29-.24-.3-.55Z"/><path class="cls-1" d="M28.63,52.8H23.36c-.21,0-.36-.26-.38-.63v-.08h6v.08a1,1,0,0,1-.09.41A.34.34,0,0,1,28.63,52.8Zm-5.49-.55c0,.24.13.4.22.4h5.27c.05,0,.11,0,.15-.14a.89.89,0,0,0,.07-.26Z"/><path class="cls-1" d="M40.53,27.53H11.46a1.85,1.85,0,0,0-1.85,1.85v19a1.85,1.85,0,0,0,1.85,1.85H40.53a1.85,1.85,0,0,0,1.85-1.85v-19A1.85,1.85,0,0,0,40.53,27.53ZM26,27.83a.58.58,0,1,1-.58.57A.58.58,0,0,1,26,27.83ZM40.65,48.68H11.34V29.23H40.65Z"/></g></svg>