<svg xmlns="http://www.w3.org/2000/svg" viewBox="0 0 43.31 49.36"><defs><style>.cls-1{fill:#fff;}</style></defs><g id="map"><path class="cls-1" d="M7.47,48l1.7-15.31-1.51-.15a5.14,5.14,0,0,1-4.09-2.3c-4-6.41-4.65-12.8-1.83-19A18.41,18.41,0,0,1,7.36,4.1,20.41,20.41,0,0,1,15.68.5a24.47,24.47,0,0,1,4.8-.5,19.82,19.82,0,0,1,7.36,1.39,20,20,0,0,1,10,9.12,26.69,26.69,0,0,1,2.73,6.78,5.54,5.54,0,0,1-.82,5.05l-.12.16.5.92c.78,1.4,1.51,2.74,2.24,4.1a9.74,9.74,0,0,1,.77,1.79,2.27,2.27,0,0,1-.11,1.81,2.3,2.3,0,0,1-1.54,1l-.86.21.07.3a2.77,2.77,0,0,0,.12.41,3.2,3.2,0,0,1,.16,1.8,2,2,0,0,1-.3.64l-.1.14.07.15a1.9,1.9,0,0,1,.14.7,2.57,2.57,0,0,1-.77,1.68.84.84,0,0,0-.19,1,5.11,5.11,0,0,1-.49,4.64,4.59,4.59,0,0,1-3.83,1.73,8,8,0,0,1-.84,0c-2-.23-3.9-.62-5.77-1l-1.82-.36a1.87,1.87,0,0,1-1.21-1c-1.29-2.44-2.66-5-4-7.71l-.46-.89L19.73,49.36Zm.8-.79,10.85,1.21.48-4.28L8.75,42.93ZM21.61,33.48a1.2,1.2,0,0,1,.2.3q2.32,4.52,4.72,9c.12.23.37.61.71.68l1.81.35.67.13.81-7.44a3.33,3.33,0,0,0-2.64-3.62l.84-7.67h.06a3.31,3.31,0,0,0,3.29-3l1.32-12a7.31,7.31,0,0,0-3.57-7.09,18.66,18.66,0,0,0-2.25-1.09A19.07,19.07,0,0,0,20.48.71a23.79,23.79,0,0,0-4.66.48C9.45,2.48,4.93,6,2.39,11.53-.33,17.5.27,23.67,4.17,29.86a4.41,4.41,0,0,0,3.56,2l6.29.65,7,.72a.83.83,0,0,1,.61.26ZM8.83,42.22l10.85,1.21.48-4.28L9.3,37.94Zm.55-5,10.85,1.21.48-4.28L9.86,33Z"/><path class="cls-1" d="M13.72,11.13l-1,8.85,8.84,1,1-8.85Zm7.4,9.2-7.76-.84.85-7.75,7.75.84Z"/><rect class="cls-1" x="12.41" y="11.52" width="0.4" height="2.4" transform="translate(-1.4 23.89) rotate(-83.8)"/><polygon class="cls-1" points="8.44 17.47 6.19 17.23 6.23 16.82 8.37 17.05 10.42 16.08 13.46 16.41 13.41 16.81 10.49 16.5 8.44 17.47"/><path class="cls-1" d="M10.72,13.42h-.1a.91.91,0,0,1-.81-1,.91.91,0,1,1,1.81.19h0A.91.91,0,0,1,10.72,13.42Zm0-1.41a.51.51,0,1,0,.51.56.5.5,0,0,0-.45-.55Z"/><rect class="cls-1" x="10.66" y="11.69" width="0.4" height="5.51" transform="translate(-4.66 23.68) rotate(-83.8)"/><path class="cls-1" d="M7.43,15h-.1a.91.91,0,0,1,.19-1.81.9.9,0,0,1,.61.34.84.84,0,0,1,.2.66.93.93,0,0,1-.33.61A.94.94,0,0,1,7.43,15Zm0-1.41a.49.49,0,0,0-.5.45.49.49,0,0,0,.1.37.53.53,0,0,0,.34.19.53.53,0,0,0,.37-.11.53.53,0,0,0,.19-.34.54.54,0,0,0-.11-.37.58.58,0,0,0-.34-.19Z"/><path class="cls-1" d="M5.56,17.86h-.1a.93.93,0,0,1-.81-1A.9.9,0,0,1,5,16.25a.84.84,0,0,1,.66-.2.91.91,0,0,1,.81,1h0a.91.91,0,0,1-.33.61A.94.94,0,0,1,5.56,17.86Zm0-1.41a.52.52,0,0,0-.32.11.52.52,0,0,0-.08.71.52.52,0,0,0,.34.18.48.48,0,0,0,.37-.1A.53.53,0,0,0,6.06,17a.51.51,0,0,0-.45-.56Z"/><polygon class="cls-1" points="8.22 19.46 5.97 19.21 6.01 18.81 8.15 19.04 10.2 18.07 13.24 18.4 13.2 18.8 10.27 18.49 8.22 19.46"/><path class="cls-1" d="M5.34,19.85h-.1a.91.91,0,0,1-.8-1,.89.89,0,0,1,.33-.61A.91.91,0,0,1,6.24,19h0a.87.87,0,0,1-.33.61A.9.9,0,0,1,5.34,19.85Zm0-1.41a.56.56,0,0,0-.32.11.48.48,0,0,0-.18.34.51.51,0,0,0,.11.37.48.48,0,0,0,.34.18.5.5,0,0,0,.37-.1A.52.52,0,0,0,5.84,19a.45.45,0,0,0-.11-.37.49.49,0,0,0-.34-.19Z"/><rect class="cls-1" x="22.21" y="18.38" width="0.4" height="2.38" transform="translate(0.53 39.74) rotate(-83.8)"/><polygon class="cls-1" points="24.58 16.25 21.58 15.93 21.62 15.53 24.51 15.84 26.54 14.88 28.76 15.12 28.72 15.52 26.61 15.29 24.58 16.25"/><path class="cls-1" d="M24.29,20.68h-.1a.85.85,0,0,1-.6-.33.88.88,0,0,1-.2-.66h0a1,1,0,0,1,.33-.61.93.93,0,0,1,.66-.19.91.91,0,0,1,.61.33.88.88,0,0,1,.19.66A.91.91,0,0,1,24.29,20.68Zm0-1.4a.51.51,0,0,0-.5.44h0a.56.56,0,0,0,.11.37.52.52,0,0,0,.33.18.5.5,0,0,0,.55-.44.47.47,0,0,0-.11-.36.49.49,0,0,0-.33-.19Z"/><rect class="cls-1" x="23.94" y="15.15" width="0.4" height="5.44" transform="translate(3.76 39.94) rotate(-83.8)"/><path class="cls-1" d="M27.54,19.15h-.1a.91.91,0,0,1-.8-1h0a1,1,0,0,1,.33-.61.9.9,0,0,1,.67-.19.89.89,0,0,1,.79,1,.87.87,0,0,1-.33.61A.89.89,0,0,1,27.54,19.15Zm-.49-1a.49.49,0,0,0,.43.55.53.53,0,0,0,.37-.11A.48.48,0,0,0,28,18.3a.5.5,0,0,0-.44-.55.52.52,0,0,0-.36.11.44.44,0,0,0-.18.33Z"/><path class="cls-1" d="M29.39,16.29h-.1a.91.91,0,0,1-.8-1h0a.89.89,0,0,1,.33-.6.88.88,0,0,1,.66-.19.9.9,0,0,1-.09,1.79Zm-.5-.95a.49.49,0,0,0,.44.54.5.5,0,0,0,.37-.1.54.54,0,0,0,.18-.34.52.52,0,0,0-.11-.36.48.48,0,0,0-.33-.18.47.47,0,0,0-.36.1.53.53,0,0,0-.19.34Z"/><polygon class="cls-1" points="24.8 14.29 21.79 13.96 21.84 13.56 24.73 13.87 26.75 12.91 28.98 13.15 28.93 13.56 26.82 13.33 24.8 14.29"/><path class="cls-1" d="M29.6,14.33h-.1a.89.89,0,0,1-.6-.33A.89.89,0,0,1,29,12.72a.86.86,0,0,1,.66-.19.89.89,0,0,1,.6.33.91.91,0,0,1-.7,1.47Zm0-1.4a.51.51,0,0,0-.31.11.48.48,0,0,0-.18.33h0a.5.5,0,0,0,.1.37.54.54,0,0,0,.34.18.52.52,0,0,0,.36-.11.48.48,0,0,0,.18-.33.5.5,0,0,0-.1-.37.57.57,0,0,0-.34-.18Z"/><rect class="cls-1" x="14.11" y="10.41" width="2.4" height="0.4" transform="translate(3.1 24.69) rotate(-83.8)"/><rect class="cls-1" x="7.19" y="26.07" width="12.79" height="0.4" transform="translate(-14.04 36.84) rotate(-83.6)"/><rect class="cls-1" x="9.11" y="26.28" width="12.79" height="0.4" transform="translate(-12.54 38.93) rotate(-83.6)"/><rect class="cls-1" x="11.01" y="26.48" width="12.79" height="0.4" transform="translate(-11.05 41.01) rotate(-83.6)"/><rect class="cls-1" x="13.04" y="26.7" width="12.79" height="0.4" transform="translate(-9.47 43.22) rotate(-83.6)"/><polygon class="cls-1" points="19.2 12.28 18.8 12.24 19.13 9.2 20.54 7.41 20.77 5.27 21.18 5.32 20.93 7.57 19.52 9.36 19.2 12.28"/><path class="cls-1" d="M15.52,9.63h-.11a.91.91,0,1,1,1-.8A.92.92,0,0,1,15.52,9.63Zm-.06-.41A.52.52,0,0,0,16,8.77a.52.52,0,1,0-.57.45Z"/><rect class="cls-1" x="28.61" y="11.23" width="2.4" height="0.4" transform="translate(15.23 39.84) rotate(-83.8)"/><path class="cls-1" d="M30,10.44h-.11a.91.91,0,1,1,.2-1.81.93.93,0,0,1,.82,1,.94.94,0,0,1-.34.61A.93.93,0,0,1,30,10.44ZM30,9A.51.51,0,0,0,30,10h0a.57.57,0,0,0,.38-.11.58.58,0,0,0,.19-.34A.53.53,0,0,0,30.08,9Z"/><rect class="cls-1" x="14.64" y="9.08" width="5.51" height="0.4" transform="translate(6.29 25.57) rotate(-83.8)"/><path class="cls-1" d="M17.77,6.75h-.1a.94.94,0,0,1-.62-.34.89.89,0,0,1-.2-.67.91.91,0,0,1,1-.8.91.91,0,0,1,.61.33.87.87,0,0,1,.2.67.85.85,0,0,1-.34.61A.9.9,0,0,1,17.77,6.75Zm0-1.41a.54.54,0,0,0-.32.11.49.49,0,0,0-.19.34.56.56,0,0,0,.11.37.52.52,0,0,0,.35.18.5.5,0,0,0,.38-.1.49.49,0,0,0,.19-.34.46.46,0,0,0-.11-.37.53.53,0,0,0-.35-.19Z"/><path class="cls-1" d="M21.05,5.55H21a.92.92,0,0,1-.62-.34.86.86,0,0,1-.2-.67.87.87,0,0,1,.34-.61.9.9,0,0,1,.67-.19.91.91,0,0,1-.09,1.81Zm0-1.41a.52.52,0,0,0-.32.11.51.51,0,0,0-.19.34.56.56,0,0,0,.11.37.52.52,0,0,0,.35.18.5.5,0,0,0,.57-.44.51.51,0,0,0-.46-.56Z"/><polygon class="cls-1" points="21.23 12.5 20.82 12.46 21.15 9.42 22.57 7.63 22.8 5.5 23.2 5.54 22.95 7.79 21.54 9.58 21.23 12.5"/><path class="cls-1" d="M23.07,5.77H23a.93.93,0,0,1-.82-1,.94.94,0,0,1,.34-.61A.91.91,0,0,1,23.17,4,.93.93,0,0,1,24,5,.91.91,0,0,1,23.07,5.77Zm0-1.41a.57.57,0,0,0-.33.11.5.5,0,0,0-.18.34.5.5,0,0,0,.46.55.49.49,0,0,0,.56-.44.51.51,0,0,0-.46-.56Z"/></g></svg>