<svg xmlns="http://www.w3.org/2000/svg" viewBox="0 0 77.27 50.25"><defs><style>.cls-1{fill:#fff;}</style></defs><g id="map"><path class="cls-1" d="M60.63,15.49A22.73,22.73,0,0,0,39,0a23.64,23.64,0,0,0-22.1,15.49A17.72,17.72,0,0,0,0,32.85a17.05,17.05,0,0,0,17.09,17.4H59.91a17.62,17.62,0,0,0,17.36-17.4A17,17,0,0,0,60.63,15.49ZM7.79,41.8a1,1,0,1,1-2.09,0,14.59,14.59,0,0,1,1.14-5.65,13.74,13.74,0,0,1,3.1-4.6,14.22,14.22,0,0,1,4.61-3.11,14.6,14.6,0,0,1,11.31,0,12.27,12.27,0,0,1,2.28,1.24l-2.25,1.11a11.46,11.46,0,0,0-5.65-1.43A12.46,12.46,0,0,0,7.79,41.8Zm15.88,2.39a4.83,4.83,0,0,1-6.83-6.83,4.66,4.66,0,0,1,1.44-1l12.51-6.14L24.65,42.75A4.78,4.78,0,0,1,23.67,44.19Zm10.06-1.34a1,1,0,0,1-1-1.05,12.33,12.33,0,0,0-2.22-7.09l1.05-2.12a15.33,15.33,0,0,1,2.12,3.53,14.74,14.74,0,0,1,1.15,5.68A1,1,0,0,1,33.73,42.85Zm9-14.09H36.47c-1,0-1.46-.44-1.1-1.22L39,20.37c.36-.79.94-.73,1.29.05l3.52,7.09C44.15,28.29,43.65,28.76,42.68,28.76Zm-6.82-14a3.65,3.65,0,1,1,3.65,3.65A3.66,3.66,0,0,1,35.86,14.8Zm8.53,6.82,0,0A.79.79,0,0,1,43.14,21a.82.82,0,0,1,.31-.63l0,0h0a6.81,6.81,0,1,0-7.92.05h0a.8.8,0,0,1-.5,1.41.73.73,0,0,1-.47-.17h0a8.39,8.39,0,1,1,9.77,0Zm2,3.47h0a.8.8,0,0,1-.43.13.79.79,0,0,1-.44-1.44h0a10.81,10.81,0,1,0-12,0h0a.8.8,0,0,1,.34.65.78.78,0,0,1-.78.79.77.77,0,0,1-.45-.14h0a12.39,12.39,0,1,1,13.73,0ZM62.44,43.34a2,2,0,0,1-1.73,2.2,1.73,1.73,0,0,1-1.63,1.32,1.92,1.92,0,0,1-1.78-1.32,2.07,2.07,0,0,1-1.89-2.2V41.79h7Zm1.3-5.56a3.87,3.87,0,0,0-1.29,2.84h-7A3.6,3.6,0,0,0,54,37.78a8.13,8.13,0,0,1-3.28-6.94A8.31,8.31,0,0,1,58.81,23a8.21,8.21,0,0,1,8.34,8.23A7.88,7.88,0,0,1,63.74,37.78Z"/></g></svg>