<svg xmlns="http://www.w3.org/2000/svg" viewBox="0 0 76.14 62.43"><defs><style>.cls-1{fill:#fff;}</style></defs><g id="map"><path class="cls-1" d="M73.47,3.3a.61.61,0,0,0-.61-.62H66v7.39h6.91a.62.62,0,0,0,.61-.61ZM66.65,9.37v-6h6.13v6Z"/><polygon class="cls-1" points="43.2 19.42 43.2 21.58 38.88 21.58 38.88 20.88 42.5 20.88 42.5 20.12 38.88 20.12 38.88 19.42 43.2 19.42"/><path class="cls-1" d="M72.87,16.13H66v7.4h6.91a.62.62,0,0,0,.61-.62V16.74A.62.62,0,0,0,72.87,16.13Zm-.08,6.7H66.65v-6h6.14Z"/><path class="cls-1" d="M72.87,29.6H66V37h6.91a.62.62,0,0,0,.43-.18.6.6,0,0,0,.18-.44V30.21A.61.61,0,0,0,72.87,29.6Zm-.08,6.69H66.65v-6h6.14Z"/><path class="cls-1" d="M50.6,39v3.71l-.21.09a5.48,5.48,0,0,0-2.7,2.37l-.11.18H46.29v-.7h.89a6.26,6.26,0,0,1,2.72-2.4V39.65H46.29V39Z"/><polygon class="cls-1" points="50.6 25.48 50.6 27.63 46.29 27.63 46.29 26.93 49.9 26.93 49.9 26.18 46.29 26.18 46.29 25.48 50.6 25.48"/><path class="cls-1" d="M55.25,12.72v.75H72.87a3.25,3.25,0,0,1,2.31,1,3.29,3.29,0,0,1,1,2.31v6.17a3.29,3.29,0,0,1-1,2.31,3.25,3.25,0,0,1-2.31,1H55.25v.76H72.87a3.28,3.28,0,0,1,2.31.95,3.33,3.33,0,0,1,1,2.32v6.16a3.27,3.27,0,0,1-3.27,3.27H55.25v2.64A6.34,6.34,0,0,1,57.8,44.6H74.46a1.68,1.68,0,0,1,1.68,1.68v3.18a1.69,1.69,0,0,1-1.68,1.69H57.8a6.24,6.24,0,0,1-10.62,0H31.87a1.68,1.68,0,0,1-1.68-1.68V49h.7v.51a1,1,0,0,0,1,1H47.58l.11.18a5.54,5.54,0,0,0,9.61,0l.1-.18H74.46a1,1,0,0,0,1-1V46.28a1,1,0,0,0-1-1H57.4l-.1-.18a5.69,5.69,0,0,0-2.53-2.3l-.22-.09V38.94H72.87a2.57,2.57,0,0,0,2.57-2.57V30.21a2.58,2.58,0,0,0-2.57-2.58H54.55V25.48H72.87a2.56,2.56,0,0,0,2.57-2.57V16.74a2.54,2.54,0,0,0-.75-1.81,2.57,2.57,0,0,0-1.82-.76H54.55V12H72.87a2.58,2.58,0,0,0,2.57-2.57V3.28a2.62,2.62,0,0,0-.75-1.83A2.62,2.62,0,0,0,72.86.7H33.44a2.57,2.57,0,0,0-2.58,2.57V8h-.7V3.28A3.27,3.27,0,0,1,33.44,0H72.87a3.25,3.25,0,0,1,2.31,1,3.29,3.29,0,0,1,1,2.32V9.44a3.27,3.27,0,0,1-3.27,3.27Z"/><path class="cls-1" d="M45.28,54.94A1.34,1.34,0,0,0,44,53.61H27.09a6,6,0,0,0-2.7-2.45V48h18A2.93,2.93,0,0,0,45.28,45V38.87A2.93,2.93,0,0,0,42.35,36h-18V34.49h18a2.93,2.93,0,0,0,2.93-2.92V25.41a2.93,2.93,0,0,0-2.93-2.93h-18V21h18a2.94,2.94,0,0,0,2.93-2.93V11.94A2.92,2.92,0,0,0,42.35,9H2.92A2.92,2.92,0,0,0,0,11.94v6.17A2.92,2.92,0,0,0,2.92,21H19.74v1.45H2.92A2.92,2.92,0,0,0,0,25.41v6.16A2.93,2.93,0,0,0,2.93,34.5H19.74V36H2.93A2.93,2.93,0,0,0,0,38.88V45A2.93,2.93,0,0,0,2.93,48H19.74v3.13a5.88,5.88,0,0,0-2.87,2.52H1.36A1.32,1.32,0,0,0,0,54.94v3.19a1.32,1.32,0,0,0,1.33,1.33H16.87a5.88,5.88,0,0,0,10.22,0H44a1.33,1.33,0,0,0,1.33-1.33ZM42.35,38.61a.27.27,0,0,1,.27.26V45a.27.27,0,0,1-.27.26H35.79V38.61Zm0-13.47a.27.27,0,0,1,.27.27v6.16a.27.27,0,0,1-.27.27H35.79v-6.7Zm0-13.47a.27.27,0,0,1,.27.27V18.1a.27.27,0,0,1-.27.27H35.79v-6.7Z"/></g></svg>