<svg xmlns="http://www.w3.org/2000/svg" viewBox="0 0 125.31 76.24"><defs><style>.cls-1{fill:#9c3;}.cls-2{fill:none;stroke:#9c3;stroke-miterlimit:10;}</style></defs><g id="map"><path class="cls-1" d="M121.75,0H3.56A3.56,3.56,0,0,0,0,3.56H0V72.68a3.56,3.56,0,0,0,3.56,3.56H121.75a3.56,3.56,0,0,0,3.56-3.56V3.56A3.56,3.56,0,0,0,121.75,0Zm2,68a2,2,0,0,1-2,2H3.55a2,2,0,0,1-2-2V3.55a2,2,0,0,1,2-2H121.76a2,2,0,0,1,2,2Z"/><rect class="cls-1" x="12.16" y="29.96" width="45.21" height="2.36"/><rect class="cls-1" x="12.16" y="10.2" width="75.62" height="5.09"/><rect class="cls-1" x="12.16" y="37.3" width="45.21" height="2.36"/><rect class="cls-1" x="12.16" y="44.63" width="45.21" height="2.36"/><rect class="cls-1" x="12.16" y="51.97" width="22.61" height="2.43"/><circle class="cls-2" cx="92.45" cy="43.95" r="13.34"/><circle class="cls-1" cx="92.45" cy="30.6" r="4.54"/><circle class="cls-1" cx="84.24" cy="54.44" r="4.54"/><circle class="cls-1" cx="100.53" cy="54.44" r="4.54"/><circle class="cls-1" cx="105.07" cy="39.99" r="4.54"/><circle class="cls-1" cx="79.7" cy="39.99" r="4.54"/></g></svg>