<svg id="Layer_1" data-name="Layer 1" xmlns="http://www.w3.org/2000/svg" viewBox="0 0 58.15 65.29"><defs><style>.cls-1{font-size:6.88px;fill:#1d1d1b;font-family:Lato;font-weight:700;}.cls-2{letter-spacing:-0.04em;}.cls-3{letter-spacing:-0.03em;}.cls-4{letter-spacing:0em;}.cls-5{letter-spacing:-0.01em;}.cls-6{fill:#9ac43a;}.cls-7,.cls-8{fill:#fff;}.cls-8{stroke:#9ac43a;stroke-miterlimit:10;stroke-width:0.79px;}</style></defs><text class="cls-1" transform="translate(12.61 55.46)"><tspan class="cls-2">K</tspan><tspan x="4.46" y="0">ernel and</tspan><tspan class="cls-3" x="-12.61" y="7.87">L</tspan><tspan x="-9.21" y="7.87">ong-</tspan><tspan class="cls-4" x="4.83" y="7.87">t</tspan><tspan x="7.36" y="7.87">erm </tspan><tspan class="cls-5" x="21.04" y="7.87">S</tspan><tspan x="24.75" y="7.87">upport</tspan></text><path class="cls-6" d="M29.07,0A22,22,0,1,0,47.56,33.93,21.12,21.12,0,0,0,49,31.25,22,22,0,0,0,29.07,0ZM47.31,31.45a1.33,1.33,0,0,0-.26-.35c.27-.53.51-1.07.73-1.63a1.31,1.31,0,0,0,.24.28l0,.05C47.84,30.37,47.59,30.91,47.31,31.45Z"/><path class="cls-7" d="M29.07,1.45A20.53,20.53,0,0,0,15.86,37.71h0a20.52,20.52,0,0,0,31.44-6.27c.28-.54.53-1.08.76-1.65A20.25,20.25,0,0,0,49.62,22,20.57,20.57,0,0,0,29.07,1.45Zm18.71,28c-.22.56-.46,1.1-.73,1.63a20.27,20.27,0,0,1-4.79,6.12l-.52.43a20.1,20.1,0,0,1-25.46-.09l-.4-.35a20.14,20.14,0,1,1,31.9-7.74Z"/><path class="cls-7" d="M40.7,33h0Z"/><path class="cls-7" d="M40.28,38.77A20.94,20.94,0,0,1,38.17,40l-.45-5A8.33,8.33,0,0,0,37,32.59a6.21,6.21,0,0,0,.72-.2l.13,0v-.06A8,8,0,0,0,38.9,33C39.42,35.29,40,37.53,40.28,38.77Z"/><path class="cls-7" d="M31.23,34.32a73.2,73.2,0,0,0-1.65,7.82H29A20.35,20.35,0,0,1,26,41.94c.44-2.12.92-4.25,1.38-6.08A16.25,16.25,0,0,0,31.23,34.32Z"/><path class="cls-7" d="M39,14.7v0l-.56.3c-2,1.06-2.09,2.45-2.09,4.9,0,2.29.59,4,1.16,6.74,0,.17.08.38.13.62a7.74,7.74,0,0,0-.89-.2c0-.22-.06-.42-.08-.59-.37-2.79-.85-4.52-.68-6.8.17-2.45.34-3.83,2.43-4.75Z"/><path class="cls-7" d="M44.84,11.86c-.05.31-.62.6-1.08.79L42,13.6a3,3,0,0,1-2.25-.11,9.58,9.58,0,0,0-3.72,0l-5.42,1.1.62-.53a14.75,14.75,0,0,1,6-2.63c4-.93,5.58-.67,5.64-.66h0a7.65,7.65,0,0,1,1.84.81A.33.33,0,0,1,44.84,11.86Z"/><path class="cls-7" d="M35.88,10.59l-3.1.94-.06-.19A2.64,2.64,0,0,0,30.58,9.8a5.63,5.63,0,0,0-3.35.35,9.6,9.6,0,0,0-4.16,2.67C21.9,14.25,21.4,16,20.84,19c-.72,3.85-1.88,9.22-2.05,10a3.17,3.17,0,0,1,.63,2.49c-.27,1.74-1.79,3.44-4.54,5.07-.2-.19-.4-.38-.59-.58a27.46,27.46,0,0,0,2.53-8.54c0-.07.86-6.61,1.32-9.63a15.13,15.13,0,0,1,2.63-7.06,10.48,10.48,0,0,1,4.41-2.81,13.17,13.17,0,0,1,4.35-.65c3.5,0,6,2.94,6.15,3.06Z"/><path class="cls-8" d="M41.48,27.8a15.94,15.94,0,0,0-.34-2.33,6.14,6.14,0,0,0-4.23,1.74.6.6,0,0,1-.08.08V27a8.78,8.78,0,0,0-.88-.21c-.29,0-.6-.08-.93-.1a8.88,8.88,0,0,0-2,.07v.39a14.85,14.85,0,0,0-7.48-3.52,18,18,0,0,0,0,11.78c.37-.08.73-.16,1.08-.26a15.49,15.49,0,0,0,3.85-1.59,14,14,0,0,0,2.55-1.88V32a8.42,8.42,0,0,0,2,0,7.88,7.88,0,0,0,1-.15,7.12,7.12,0,0,0,.77-.21v-.33a7.5,7.5,0,0,0,1.21.89,5.46,5.46,0,0,0,3.1.82,16.63,16.63,0,0,0,.34-2.35c0-.48.06-1,.06-1.46S41.52,28.28,41.48,27.8Z"/><path class="cls-7" d="M27.09,14s-.77-1.36,0-1.53,1.06-.35,1.47,0,.67.77.41,1A7.14,7.14,0,0,1,27.09,14Z"/></svg>