<svg xmlns="http://www.w3.org/2000/svg" viewBox="0 0 69.31 62.56"><defs><style>.cls-1{fill:#fff;}</style></defs><g id="map"><path class="cls-1" d="M35,1.62A19.43,19.43,0,0,1,53.46,14.86,14.56,14.56,0,0,1,67.69,29.71,15.08,15.08,0,0,1,52.84,44.59H16.23A14.58,14.58,0,0,1,1.62,29.71,15.16,15.16,0,0,1,16.08,14.86,20.21,20.21,0,0,1,35,1.62M35,0A21.87,21.87,0,0,0,15,13.32,16.76,16.76,0,0,0,0,29.68,16.21,16.21,0,0,0,16.23,46.21H52.84A16.68,16.68,0,0,0,69.31,29.74,16.18,16.18,0,0,0,54.62,13.31,21.08,21.08,0,0,0,35,0Z"/><path class="cls-1" d="M10.57,35.38A2.35,2.35,0,0,1,12.82,33a2.34,2.34,0,1,1,.1,4.67A2.37,2.37,0,0,1,10.57,35.38Z"/><path class="cls-1" d="M25.41,35.38A2.35,2.35,0,0,1,27.67,33a2.34,2.34,0,1,1,.09,4.67A2.37,2.37,0,0,1,25.41,35.38Z"/><path class="cls-1" d="M32.94,31.25a3.47,3.47,0,0,0-3.32-3.45H27.17L27,27.61l-3.52-4.29a1.81,1.81,0,0,0-1.38-.64H14.5a1.79,1.79,0,0,0-1.38.64L9.61,27.61l-.13.18H7.36a.81.81,0,0,0-.81.81V34a.82.82,0,0,0,.81.81H9.54a3.41,3.41,0,0,1,3.25-2.85,3.55,3.55,0,0,1,3.48,2.85h8.11a3.42,3.42,0,0,1,3.25-2.85,3.55,3.55,0,0,1,3.48,2.85h.47A1.38,1.38,0,0,0,33,33.37v-1.9A1.5,1.5,0,0,0,32.94,31.25ZM17.56,28.6H11l3.52-4.29h3.06Zm8.08,0H19.09V24.31h3.05l3.5,4.27Z"/><g id="map-2" data-name="map"><path class="cls-1" d="M39.43,12.77H38.18v-2h0a3.53,3.53,0,0,0-7,0v2H29.88a.52.52,0,0,0-.52.52h0v7.14a.52.52,0,0,0,.52.52h9.55a.52.52,0,0,0,.52-.52h0V13.29a.52.52,0,0,0-.52-.52Zm-3.63,6H33.51l.61-1.91a1.21,1.21,0,1,1,1.07,0Zm1.22-6H32.29v-2a2.37,2.37,0,0,1,4.73,0Z"/></g><polygon class="cls-1" points="42.97 39.19 42.97 30.87 43.88 30.87 43.88 38.27 56.41 38.27 56.41 30.87 57.33 30.87 57.33 39.19 42.97 39.19"/><polygon class="cls-1" points="50.06 22.74 42.15 30.65 41.51 30 50.06 21.45 58.79 30.18 58.14 30.83 50.06 22.74"/><rect class="cls-1" x="46.48" y="32.14" width="2.97" height="6.29"/><rect class="cls-1" x="51.19" y="28.47" width="2.97" height="6.29"/><path class="cls-1" d="M14.19,51.57a3.78,3.78,0,1,0,0,.65c0-.11,0-.21,0-.33S14.2,51.67,14.19,51.57Zm-3.76,3a2.68,2.68,0,1,1,2.65-3c0,.1,0,.21,0,.32s0,.22,0,.33A2.68,2.68,0,0,1,10.43,54.57Z"/><path class="cls-1" d="M57.94,48.11a3.78,3.78,0,0,0-3.76,3.46c0,.1,0,.21,0,.32s0,.22,0,.33a3.78,3.78,0,1,0,3.76-4.11Zm0,6.46a2.68,2.68,0,0,1-2.65-2.35c0-.11,0-.21,0-.33s0-.22,0-.32a2.67,2.67,0,1,1,2.65,3Z"/><path class="cls-1" d="M48,55a3.77,3.77,0,0,0-3.75,3.45,1.66,1.66,0,0,0,0,.32,1.76,1.76,0,0,0,0,.33A3.77,3.77,0,1,0,48,55Zm0,6.44a2.68,2.68,0,0,1-2.65-2.34c0-.1,0-.22,0-.33s0-.22,0-.32a2.67,2.67,0,1,1,2.65,3Z"/><path class="cls-1" d="M24.13,58.46a3.78,3.78,0,1,0,0,.65c0-.11,0-.22,0-.33S24.14,58.56,24.13,58.46Zm-3.76,3a2.67,2.67,0,1,1,2.65-3c0,.1,0,.21,0,.32s0,.22,0,.33A2.67,2.67,0,0,1,20.37,61.45Z"/><path class="cls-1" d="M19.46,51.57v.65H13.08c0-.11,0-.21,0-.33s0-.22,0-.32Z"/><rect class="cls-1" x="19.11" y="45.46" width="0.65" height="6.75"/><path class="cls-1" d="M29.27,58.46v.65H23c0-.11,0-.22,0-.33s0-.22,0-.32Z"/><rect class="cls-1" x="28.92" y="45.14" width="0.65" height="13.96"/><path class="cls-1" d="M55.27,51.89c0,.12,0,.22,0,.33H48.94v-.65h6.35C55.28,51.67,55.27,51.78,55.27,51.89Z"/><rect class="cls-1" x="48.64" y="45.42" width="0.65" height="6.78"/><path class="cls-1" d="M45.29,58.78c0,.11,0,.23,0,.33H39.06v-.65h6.25C45.3,58.56,45.29,58.67,45.29,58.78Z"/><rect class="cls-1" x="38.75" y="45.24" width="0.65" height="13.86"/></g></svg>