<svg xmlns="http://www.w3.org/2000/svg" viewBox="0 0 138.93 145.96"><defs><style>.cls-1{font-size:16px;font-family:Lato-Black, Lato;font-weight:800;letter-spacing:-0.01em;}.cls-1,.cls-2,.cls-4{fill:#fff;}.cls-2{opacity:0.2;}.cls-3{fill:#9c3;}</style></defs><g id="map"><text class="cls-1" transform="translate(20.55 36.69) rotate(-1)">V<tspan x="11.24" y="0.13">i</tspan><tspan x="15.37" y="0.22">r</tspan><tspan x="21.34" y="0.33">t</tspan><tspan x="27.34" y="0.46">u</tspan><tspan x="36.32" y="0.61">a</tspan><tspan x="44.46" y="0.71">l</tspan><tspan x="48.48" y="0.78">i</tspan><tspan x="52.62" y="0.88">z</tspan><tspan x="59.93" y="1.02">a</tspan><tspan x="68.07" y="1.14">t</tspan><tspan x="74.08" y="1.23">i</tspan><tspan x="78.21" y="1.35">o</tspan><tspan x="87.37" y="1.51">n</tspan></text><polygon class="cls-2" points="138.93 0 138.93 125.71 134.65 125.71 134.65 4.28 4.28 4.28 4.28 138.5 106.35 138.5 106.35 142.77 0 142.77 0 0 138.93 0"/><polygon class="cls-3" points="122.36 140.63 113.13 135.31 113.13 145.96 122.36 140.63"/><polygon class="cls-3" points="136.54 140.63 127.31 135.31 127.31 145.96 136.54 140.63"/><path class="cls-4" d="M95.3,63.78a.49.49,0,0,0-.5-.49H89.23v6h5.58a.5.5,0,0,0,.5-.5Zm-5.51,4.91V63.85h4.95v4.84Z"/><polygon class="cls-4" points="70.86 76.8 70.86 78.54 67.38 78.54 67.38 77.97 70.29 77.97 70.29 77.37 67.38 77.37 67.38 76.8 70.86 76.8"/><path class="cls-4" d="M94.81,74.14H89.23v6h5.58a.5.5,0,0,0,.5-.49v-5A.51.51,0,0,0,94.81,74.14Zm-.07,5.41H89.79V74.7h4.95Z"/><path class="cls-4" d="M94.81,85H89.23v6h5.58a.5.5,0,0,0,.35-.14.53.53,0,0,0,.15-.36v-5A.49.49,0,0,0,94.81,85Zm-.07,5.4H89.79V85.58h4.95Z"/><path class="cls-4" d="M76.84,92.57v3l-.18.07a4.49,4.49,0,0,0-2.18,1.92l-.08.14H73.35v-.56h.72a5.1,5.1,0,0,1,2.2-1.94V93.13H73.35v-.56Z"/><polygon class="cls-4" points="76.83 81.69 76.83 83.43 73.35 83.43 73.35 82.86 76.27 82.86 76.27 82.26 73.35 82.26 73.35 81.69 76.83 81.69"/><path class="cls-4" d="M80.59,71.39V72H94.81a2.63,2.63,0,0,1,2.64,2.64v5a2.65,2.65,0,0,1-2.64,2.64H80.59v.61H94.81a2.63,2.63,0,0,1,1.87.77,2.68,2.68,0,0,1,.77,1.87v5a2.64,2.64,0,0,1-2.64,2.64H80.59v2.13a5.18,5.18,0,0,1,2.06,1.88H96.1a1.35,1.35,0,0,1,1.35,1.35v2.57a1.36,1.36,0,0,1-1.35,1.36H82.65a5,5,0,0,1-8.58,0H61.72a1.36,1.36,0,0,1-1.36-1.35v-.41h.56v.41a.79.79,0,0,0,.8.79H74.4l.08.14a4.47,4.47,0,0,0,7.76,0l.09-.14H96.1a.8.8,0,0,0,.79-.8V98.48a.79.79,0,0,0-.79-.79H82.33l-.09-.14a4.43,4.43,0,0,0-2-1.86L80,95.61v-3H94.81a2.08,2.08,0,0,0,2.08-2.08v-5a2.08,2.08,0,0,0-2.08-2.08H80V81.69H94.81a2.08,2.08,0,0,0,1.47-.61,2.06,2.06,0,0,0,.61-1.46v-5a2.08,2.08,0,0,0-2.08-2.08H80V70.82H94.81a2.09,2.09,0,0,0,2.08-2.08v-5a2.07,2.07,0,0,0-2.09-2.08H63a2.08,2.08,0,0,0-2.08,2.08v3.81h-.57V63.77A2.65,2.65,0,0,1,63,61.13H94.81a2.65,2.65,0,0,1,2.64,2.65v5a2.64,2.64,0,0,1-2.64,2.64Z"/><path class="cls-4" d="M72.54,105.47a1.07,1.07,0,0,0-1.08-1.07H57.86a4.79,4.79,0,0,0-2.18-2V99.84h14.5a2.36,2.36,0,0,0,2.36-2.36v-5a2.36,2.36,0,0,0-2.36-2.36H55.68V89h14.5a2.36,2.36,0,0,0,2.36-2.36v-5a2.36,2.36,0,0,0-2.36-2.36H55.68V78.1h14.5a2.37,2.37,0,0,0,2.36-2.37v-5a2.36,2.36,0,0,0-2.36-2.36H38.35A2.36,2.36,0,0,0,36,70.76v5a2.36,2.36,0,0,0,2.36,2.36H51.92v1.17H38.35A2.36,2.36,0,0,0,36,81.63v5A2.36,2.36,0,0,0,38.35,89H51.92v1.17H38.35A2.36,2.36,0,0,0,36,92.51v5a2.36,2.36,0,0,0,2.36,2.36H51.92v2.52a4.86,4.86,0,0,0-2.32,2H37.08A1.07,1.07,0,0,0,36,105.48v2.57a1.07,1.07,0,0,0,1.07,1.07H49.6a4.75,4.75,0,0,0,8.26,0h13.6a1.07,1.07,0,0,0,1.08-1.07ZM70.18,92.29a.21.21,0,0,1,.21.21v5a.21.21,0,0,1-.21.21h-5.3v-5.4Zm0-10.87a.21.21,0,0,1,.21.21v5a.21.21,0,0,1-.21.21h-5.3v-5.4Zm0-10.87a.21.21,0,0,1,.22.21v5a.22.22,0,0,1-.22.22H64.88v-5.4Z"/></g></svg>