<svg xmlns="http://www.w3.org/2000/svg" viewBox="0 0 79.91 63.78"><defs><style>.cls-1{fill:none;}.cls-1,.cls-2{stroke:#fff;stroke-miterlimit:10;stroke-width:1.06px;}.cls-2{fill:#fff;}</style></defs><g id="map"><polygon class="cls-1" points="5.93 22.98 0.61 32.19 5.93 41.41 16.58 41.41 21.9 32.19 16.58 22.98 5.93 22.98"/><polygon class="cls-2" points="25.23 11.6 19.91 20.82 25.23 30.04 35.87 30.04 41.19 20.82 35.87 11.6 25.23 11.6"/><polygon class="cls-1" points="25.23 34.11 19.91 43.33 25.23 52.55 35.87 52.55 41.19 43.33 35.87 34.11 25.23 34.11"/><polygon class="cls-1" points="44.15 22.98 38.83 32.19 44.15 41.41 54.8 41.41 60.12 32.19 54.8 22.98 44.15 22.98"/><polygon class="cls-1" points="44.15 44.82 38.83 54.03 44.15 63.25 54.8 63.25 60.12 54.03 54.8 44.82 44.15 44.82"/><polygon class="cls-1" points="44.15 0.53 38.83 9.75 44.15 18.96 54.8 18.96 60.12 9.75 54.8 0.53 44.15 0.53"/><polygon class="cls-1" points="63.33 11.6 58.01 20.82 63.33 30.04 73.97 30.04 79.29 20.82 73.97 11.6 63.33 11.6"/><polygon class="cls-1" points="63.33 34.05 58.01 43.26 63.33 52.48 73.97 52.48 79.29 43.26 73.97 34.05 63.33 34.05"/></g></svg>