<svg xmlns="http://www.w3.org/2000/svg" viewBox="0 0 125.31 76.24"><defs><style>.cls-1{fill:#9c3;}.cls-2{fill:none;stroke:#9c3;stroke-miterlimit:10;}</style></defs><g id="map"><path class="cls-1" d="M121.75,0H3.56A3.56,3.56,0,0,0,0,3.56H0V72.68a3.56,3.56,0,0,0,3.56,3.56H121.75a3.56,3.56,0,0,0,3.56-3.56V3.56A3.56,3.56,0,0,0,121.75,0Zm2,68a2,2,0,0,1-2,2H3.55a2,2,0,0,1-2-2V3.55a2,2,0,0,1,2-2H121.76a2,2,0,0,1,2,2Z"/><rect class="cls-1" x="13.16" y="41.37" width="22.25" height="1.61"/><rect class="cls-1" x="13.16" y="15.59" width="22.25" height="18.76"/><rect class="cls-1" x="13.16" y="46.37" width="22.25" height="1.61"/><rect class="cls-1" x="13.16" y="51.37" width="22.25" height="1.61"/><rect class="cls-1" x="13.16" y="56.37" width="12.54" height="1.5"/><rect class="cls-1" x="51.53" y="41.37" width="22.25" height="1.61"/><rect class="cls-1" x="51.53" y="15.59" width="22.25" height="18.76"/><rect class="cls-1" x="51.53" y="46.37" width="22.25" height="1.61"/><rect class="cls-1" x="51.53" y="51.37" width="22.25" height="1.61"/><rect class="cls-1" x="51.53" y="56.37" width="12.54" height="1.5"/><rect class="cls-1" x="89.9" y="41.37" width="22.25" height="1.61"/><rect class="cls-1" x="89.9" y="15.59" width="22.25" height="18.76"/><rect class="cls-1" x="89.9" y="46.37" width="22.25" height="1.61"/><rect class="cls-1" x="89.9" y="51.37" width="22.25" height="1.61"/><rect class="cls-1" x="89.9" y="56.37" width="12.54" height="1.5"/><line class="cls-2" x1="43.5" y1="15.59" x2="43.5" y2="59.06"/><line class="cls-2" x1="81.84" y1="15.59" x2="81.84" y2="59.06"/></g></svg>