<svg xmlns="http://www.w3.org/2000/svg" viewBox="0 0 138.93 145.96"><defs><style>.cls-1{font-size:16px;font-family:Lato-Black, Lato;font-weight:800;letter-spacing:-0.01em;}.cls-1,.cls-2,.cls-4{fill:#fff;}.cls-2{opacity:0.2;}.cls-3{fill:#9c3;}</style></defs><g id="map"><text class="cls-1" transform="translate(34.19 36.68) rotate(-1)">T<tspan x="9.6" y="0.16">o</tspan><tspan x="18.76" y="0.32">o</tspan><tspan x="27.92" y="0.44">l</tspan><tspan x="31.94" y="0.54">c</tspan><tspan x="39.58" y="0.69">h</tspan><tspan x="48.56" y="0.83">a</tspan><tspan x="56.71" y="0.94">i</tspan><tspan x="60.84" y="1.06">n</tspan></text><polygon class="cls-2" points="138.93 0 138.93 125.71 134.65 125.71 134.65 4.28 4.28 4.28 4.28 138.5 106.35 138.5 106.35 142.77 0 142.77 0 0 138.93 0"/><polygon class="cls-3" points="122.36 140.63 113.13 135.31 113.13 145.96 122.36 140.63"/><polygon class="cls-3" points="136.54 140.63 127.31 135.31 127.31 145.96 136.54 140.63"/><path class="cls-4" d="M66.56,113l-7-2.12,0-.38c0-.43.06-.85.11-1.27.2-1.74.42-3.48.63-5.22a1.25,1.25,0,0,0-.52-1.26c-.61-.48-1.21-1-1.79-1.46l-.34-.29a1.13,1.13,0,0,0-.66-.29,1.24,1.24,0,0,0-.47.06q-2.35.8-4.71,1.56l-2,.65-3.49-6.5,2.6-2,3-2.36a1.11,1.11,0,0,0,.42-.91c-.09-1-.19-2-.3-3a1.11,1.11,0,0,0-.59-.85l-6-3-.36-.17.45-1.48c.09-.3.18-.6.28-.9l.22-.68.54.47a11.24,11.24,0,0,0,2,1.39c.23.12.44.23.67.33a12.73,12.73,0,0,0,4.32,1.13,13,13,0,0,0,4-.29l.25-.06,1.27,1.29,0,.25a9.17,9.17,0,0,0-.18,1.28A11.44,11.44,0,0,0,69.31,99.2a11.29,11.29,0,0,0,4-.38l.23-.06.62.48c.66.51,1.32,1,2,1.51,2.64,2,5.34,3.82,8,5.48l.55.35.13.08.06.15c.06.16.12.33.17.49l.29.94-6.5,3.49L76.78,109c-.74-.94-1.47-1.87-2.23-2.8a1.24,1.24,0,0,0-.86-.45.38.38,0,0,0-.15,0c-.59,0-1.17.1-1.78.17l-1.1.11a1.15,1.15,0,0,0-1,.68c-1,2-2,4-3,5.91Zm-6-2.81,5.52,1.67c.93-1.83,1.85-3.68,2.78-5.53a2.07,2.07,0,0,1,1.73-1.22l1.08-.11,1.8-.18h.31a2.24,2.24,0,0,1,1.52.8c.75.93,1.49,1.87,2.23,2.82l1.65,2.09,5.11-2.74-.06-.2-.1-.3-.39-.24c-2.72-1.68-5.45-3.54-8.11-5.53l-2-1.52-.19-.15-.05,0A12.37,12.37,0,0,1,58,86.74a11.12,11.12,0,0,1,.15-1.14L57.59,85a14.07,14.07,0,0,1-8.68-1c-.25-.11-.49-.24-.74-.37a13.3,13.3,0,0,1-1.63-1l-.06.21-.22.72,5.64,2.84A2.09,2.09,0,0,1,53,88c.11,1,.21,2,.3,3.07a2,2,0,0,1-.77,1.72c-1,.79-2,1.58-3,2.36l-2,1.55,2.73,5.1,1.24-.4,4.69-1.55a2.11,2.11,0,0,1,.86-.12,2.15,2.15,0,0,1,1.19.52l.29.24c.62.52,1.21,1,1.79,1.47a2.2,2.2,0,0,1,.9,2.16c-.21,1.71-.43,3.45-.63,5.19C60.6,109.61,60.57,109.9,60.55,110.18Z"/><path class="cls-4" d="M93.51,97.91,93,97.34c-.14-.15-.28-.29-.43-.43-2.16-2.09-4.51-4.18-7-6.21-1-.81-1.89-1.52-2.78-2.21l-.3-.23.17-.46-.28.37-.44-.32-.19-.14v-.24a11.42,11.42,0,0,0-10.46-11,11.57,11.57,0,0,0-3.93.34l-.88.24.32-.86a11.6,11.6,0,0,0,.56-5.81l-.08-.55h.69l.18,0,1.55-.15a1.43,1.43,0,0,0,1.28-.84c.82-1.65,1.64-3.27,2.46-4.88L74,62.68l.38.11,2,.6,2.21.66,2.08.63.39.11,0,.4c-.25,2.1-.51,4.27-.78,6.65a1.21,1.21,0,0,0,.4,1c.76.65,1.54,1.28,2.3,1.88a1.16,1.16,0,0,0,.6.23,1.12,1.12,0,0,0,.45,0L86.61,74l4.06-1.33,3.48,6.48-2,1.61-3.53,2.78a1.17,1.17,0,0,0-.41.93c.1,1.11.19,2.14.31,3.14a1,1,0,0,0,.6.75l6.3,3.19ZM82.63,87.22l.27.2.11.09.32.24c.88.68,1.79,1.4,2.79,2.22,2.46,2,4.8,4.08,6.94,6.15l1.22-4.05-5.57-2.82a2,2,0,0,1-1.14-1.48c-.12-1-.22-2.07-.31-3.21A2.08,2.08,0,0,1,88,82.84q1.76-1.41,3.53-2.79l1.39-1.11-2.73-5.09-3.3,1.08-2.66.87a2.16,2.16,0,0,1-.8.08,2.08,2.08,0,0,1-1.11-.42c-.77-.61-1.56-1.25-2.34-1.91a2.18,2.18,0,0,1-.72-1.8c.25-2.25.49-4.3.73-6.28L78.3,65l-2.21-.67q-.8-.26-1.59-.48l-.27.54c-.83,1.61-1.64,3.23-2.45,4.85a2.36,2.36,0,0,1-2.09,1.39c-.45,0-.92.08-1.38.13a12.72,12.72,0,0,1-.42,5,11.48,11.48,0,0,1,3.31-.18,12.36,12.36,0,0,1,11.43,11.7Z"/><path class="cls-4" d="M95.83,103.64a3.94,3.94,0,0,0-.29-1h0a3.88,3.88,0,0,0-.77-1.11l.06,0c-1-1.12-2.14-2.3-3.41-3.52l-.1-.11c-2-1.92-4.28-4-6.8-6-.82-.67-1.66-1.35-2.53-2l-.19-.15-.39-.31A114.73,114.73,0,0,0,70.2,81.82Q69,81.13,68,80.53l-1.32-1.36-1.85-1.9-.17-.18A10.21,10.21,0,0,0,65.85,73a9.49,9.49,0,0,0-1.5-6c-.2-.28-.39-.57-.61-.83l-.29-.33a10.74,10.74,0,0,0-8.22-3.51l2.66,4.13,1,1.51h0l1.07,1.65a3.05,3.05,0,0,1,0,3.25,3.33,3.33,0,0,1-1.18,1.18l-1,.59-3,1.81v0a3.59,3.59,0,0,1-3.08.27,4.52,4.52,0,0,1-.5-.23,3,3,0,0,1-1.07-1l-4.72-7.29a9.74,9.74,0,0,0,.35,9.94,9.94,9.94,0,0,0,3.61,3.33,6.54,6.54,0,0,0,.59.3,11.34,11.34,0,0,0,7.48.71c.32-.08.62-.17.93-.27l1,1L61,84.94c.4.48.83,1,1.31,1.47h0c.69.76,1.44,1.55,2.26,2.37a108.44,108.44,0,0,0,8.72,7.73c.59.5,1.23,1,1.86,1.48l.54.41,1.42,1.08c2.19,1.63,4.34,3.12,6.38,4.43l1.54,1c1.75,1.08,3.4,2,4.93,2.82a.52.52,0,0,1-.11-.1,3.44,3.44,0,0,0,1.24.46h0a3.61,3.61,0,0,0,.73.07,4,4,0,0,0,3.2-1.5A3.81,3.81,0,0,0,95.83,103.64Z"/></g></svg>