<svg id="Layer_1" data-name="Layer 1" xmlns="http://www.w3.org/2000/svg" viewBox="0 0 44 44"><defs><style>.cls-1{fill:#9ac43a;}.cls-2{fill:#fff;}</style></defs><path class="cls-1" d="M22,0A22,22,0,1,0,40.48,33.93,21.19,21.19,0,0,0,42,31.25,22,22,0,0,0,22,0ZM40.23,31.45A1.14,1.14,0,0,0,40,31.1c.27-.53.52-1.07.74-1.63a1.64,1.64,0,0,0,.23.28l.06.05C40.77,30.37,40.51,30.91,40.23,31.45Z"/><path class="cls-2" d="M31.78,13.11a5,5,0,1,1-5.07,5A5,5,0,0,1,31.78,13.11Z"/><path class="cls-2" d="M14.28,18.53a3.29,3.29,0,1,1,3.27,3.31A3.27,3.27,0,0,1,14.28,18.53Z"/><path class="cls-2" d="M22,1.45A20.53,20.53,0,0,0,8.79,37.71h0a20.52,20.52,0,0,0,31.44-6.27c.28-.54.54-1.08.77-1.65A20.55,20.55,0,0,0,22,1.45Zm18.71,28c-.22.56-.47,1.1-.74,1.63a20.27,20.27,0,0,1-4.79,6.12c-.16.15-.34.29-.51.43a20.1,20.1,0,0,1-25.46-.09l-.41-.35a20.15,20.15,0,1,1,31.91-7.74Z"/><path class="cls-2" d="M40.71,29.47c-.22.56-.47,1.1-.74,1.63a2.06,2.06,0,0,0-1.52-.48H25.06c-1.42,0-2.06.64-2.07,2.06v3.15c0,.18,0,.36,0,.56H21.38c0-.17,0-.31,0-.46V32.42a3.44,3.44,0,0,1,1.27-2.73,1,1,0,0,0,.33-.55,5.23,5.23,0,0,1,4.62-4.46,10.75,10.75,0,0,1,1.7-.16c1.7,0,3.4,0,5.09,0a9.85,9.85,0,0,1,1.88.22A5.16,5.16,0,0,1,40.51,29,1.2,1.2,0,0,0,40.71,29.47Z"/><path class="cls-2" d="M28.06,12.27c-.46.4-.86.78-1.3,1.1a1.15,1.15,0,0,1-.65.11H8.48c-1.05,0-1-.07-1,1V27.75c0,.7,0,.72.7.72h13l-.26.33a5.37,5.37,0,0,0-1.41,3.65c0,.54,0,1.09,0,1.63,0,.28-.09.4-.39.4H14c-.27,0-.37-.08-.38-.36,0-.85,0-.85.8-.85h2.38c.6,0,.58,0,.62-.66,0-.46-.14-.58-.59-.58-3,0-6.07,0-9.11,0-1,0-1.49-.44-1.49-1.48V13.69c0-1,.43-1.44,1.41-1.44h20Z"/><path class="cls-2" d="M22.77,26.46H12.35a3.13,3.13,0,0,1,.87-2.22,4.61,4.61,0,0,1,2.37-1.31.6.6,0,0,1,.46.15,16.09,16.09,0,0,1,1.19,1.29c.25.31.42.27.66,0,.37-.44.76-.85,1.16-1.26a.57.57,0,0,1,.41-.18,4,4,0,0,1,3.24,2.93A5.25,5.25,0,0,1,22.77,26.46Z"/></svg>