<svg xmlns="http://www.w3.org/2000/svg" viewBox="0 0 95 74"><defs><style>.cls-1{opacity:0.6;}.cls-2{fill:#9c3;}</style></defs><g id="upper"><path class="cls-1" d="M87.54,26.12A21.4,21.4,0,0,0,74,19.61,28,28,0,0,0,47.93,1.94a29,29,0,0,0-26.6,17.69A22.23,22.23,0,0,0,1.48,41.36,21.5,21.5,0,0,0,23,63.3H71.66A22.14,22.14,0,0,0,93.52,41.43,21.47,21.47,0,0,0,87.54,26.12Zm-15.88,35H23A19.35,19.35,0,0,1,3.63,41.4a20.14,20.14,0,0,1,19.2-19.73A26.84,26.84,0,0,1,47.93,4.09,25.81,25.81,0,0,1,72.48,21.67,19.34,19.34,0,0,1,91.37,41.4,20,20,0,0,1,71.66,61.15Z"/><rect class="cls-2" x="26.74" y="66.79" width="5.74" height="5.28" rx="0.7"/><path class="cls-2" d="M42.35,48.14a1.6,1.6,0,0,0-1.6-1.6H30.92V44.45h9.83a1.6,1.6,0,0,0,1.6-1.6V39.47a1.6,1.6,0,0,0-1.6-1.6H30.92V35.78h9.83a1.59,1.59,0,0,0,1.6-1.6V30.81a1.59,1.59,0,0,0-1.6-1.6H19.16a1.6,1.6,0,0,0-1.6,1.6v3.37a1.6,1.6,0,0,0,1.6,1.6h9.21v2.09H19.16a1.6,1.6,0,0,0-1.6,1.6v3.38a1.6,1.6,0,0,0,1.6,1.6h9.21v2.09H19.16a1.6,1.6,0,0,0-1.6,1.6v3.37a1.61,1.61,0,0,0,1.6,1.61h9.21V71.3h2.55V53.11h9.83a1.61,1.61,0,0,0,1.61-1.6Zm-1.6-8.81a.14.14,0,0,1,.15.14v3.38a.14.14,0,0,1-.15.14H37.16V39.33Zm-3.59-8.67h3.59a.15.15,0,0,1,.15.15v3.37a.15.15,0,0,1-.15.15H37.16ZM40.9,51.51a.15.15,0,0,1-.15.15H37.16V48h3.59a.15.15,0,0,1,.15.15Z"/><rect class="cls-2" x="61.83" y="66.79" width="5.74" height="5.28" rx="0.7"/><path class="cls-2" d="M77.44,48.14a1.6,1.6,0,0,0-1.6-1.6H66V44.45h9.84a1.6,1.6,0,0,0,1.6-1.6V39.47a1.6,1.6,0,0,0-1.6-1.6H66V35.78h9.84a1.6,1.6,0,0,0,1.6-1.6V30.81a1.6,1.6,0,0,0-1.6-1.6H54.25a1.61,1.61,0,0,0-1.61,1.6v3.37a1.6,1.6,0,0,0,1.61,1.6h9.2v2.09h-9.2a1.61,1.61,0,0,0-1.61,1.6v3.38a1.61,1.61,0,0,0,1.61,1.6h9.2v2.09h-9.2a1.61,1.61,0,0,0-1.61,1.6v3.37a1.61,1.61,0,0,0,1.61,1.61h9.2V71.3H66V53.11h9.84a1.6,1.6,0,0,0,1.6-1.6Zm-1.6-8.81a.14.14,0,0,1,.14.14v3.38a.14.14,0,0,1-.14.14H72.25V39.33Zm-3.6-8.67h3.6a.15.15,0,0,1,.14.15v3.37a.15.15,0,0,1-.14.15h-3.6ZM76,51.51a.15.15,0,0,1-.14.15H72.25V48h3.59a.15.15,0,0,1,.14.15Z"/></g></svg>