<svg id="Layer_1" data-name="Layer 1" xmlns="http://www.w3.org/2000/svg" viewBox="0 0 44 44"><defs><style>.cls-1{fill:#9ac43a;}.cls-2,.cls-3{fill:#fff;}.cls-3{stroke:#9ac43a;stroke-miterlimit:10;stroke-width:0.79px;}</style></defs><path class="cls-1" d="M22,0A22,22,0,1,0,40.48,33.93,21.19,21.19,0,0,0,42,31.25,22,22,0,0,0,22,0ZM40.23,31.45A1.14,1.14,0,0,0,40,31.1c.27-.53.52-1.07.74-1.63a1.64,1.64,0,0,0,.23.28l.06.05C40.77,30.37,40.51,30.91,40.23,31.45Z"/><path class="cls-2" d="M22,1.45A20.53,20.53,0,0,0,8.79,37.71h0a20.52,20.52,0,0,0,31.44-6.27c.28-.54.54-1.08.77-1.65A20.55,20.55,0,0,0,22,1.45Zm18.71,28c-.22.56-.47,1.1-.74,1.63a20.27,20.27,0,0,1-4.79,6.12c-.16.15-.34.29-.51.43a20.1,20.1,0,0,1-25.46-.09l-.41-.35a20.15,20.15,0,1,1,31.91-7.74Z"/><path class="cls-2" d="M33.62,33h0Z"/><path class="cls-2" d="M33.2,38.77A19.89,19.89,0,0,1,31.09,40l-.44-5a8.7,8.7,0,0,0-.76-2.38c.25-.06.49-.12.72-.2l.13,0v-.06a7.89,7.89,0,0,0,1.08.73C32.35,35.29,32.88,37.53,33.2,38.77Z"/><path class="cls-2" d="M24.15,34.32a78.58,78.58,0,0,0-1.65,7.82h-.6A20.59,20.59,0,0,1,19,41.94c.45-2.12.92-4.25,1.38-6.08A16.08,16.08,0,0,0,24.15,34.32Z"/><path class="cls-2" d="M31.9,14.7v0l-.57.3c-2,1.06-2.09,2.45-2.09,4.9,0,2.29.6,4,1.17,6.74,0,.17.08.38.13.62a7.47,7.47,0,0,0-.9-.2c0-.22-.06-.42-.08-.59-.37-2.79-.84-4.52-.68-6.8.18-2.45.34-3.83,2.43-4.75Z"/><path class="cls-2" d="M37.76,11.86c0,.31-.61.6-1.08.79l-1.8.95a2.92,2.92,0,0,1-2.24-.11,9.63,9.63,0,0,0-3.73,0l-5.41,1.1.62-.53a14.75,14.75,0,0,1,6-2.63c4-.93,5.57-.67,5.64-.66h0a7.82,7.82,0,0,1,1.84.81A.32.32,0,0,1,37.76,11.86Z"/><path class="cls-2" d="M28.81,10.59l-3.1.94-.07-.19A2.59,2.59,0,0,0,23.51,9.8a5.61,5.61,0,0,0-3.35.35A9.64,9.64,0,0,0,16,12.82C14.82,14.25,14.32,16,13.77,19c-.73,3.85-1.89,9.22-2.06,10a3.21,3.21,0,0,1,.64,2.49c-.27,1.74-1.8,3.44-4.55,5.07-.2-.19-.4-.38-.59-.58a26.84,26.84,0,0,0,2.53-8.54c0-.07.87-6.61,1.33-9.63a15,15,0,0,1,2.63-7.06,10.43,10.43,0,0,1,4.4-2.81,13.21,13.21,0,0,1,4.35-.65c3.51,0,6,2.94,6.15,3.06Z"/><path class="cls-3" d="M34.41,27.8a17.43,17.43,0,0,0-.34-2.33,6.1,6.1,0,0,0-4.23,1.74l-.09.08V27a8.16,8.16,0,0,0-.88-.21c-.29,0-.6-.08-.92-.1a9,9,0,0,0-2,.07v.39a14.77,14.77,0,0,0-7.48-3.52,18,18,0,0,0,0,11.78c.37-.08.73-.16,1.08-.26a15.33,15.33,0,0,0,3.85-1.59A14,14,0,0,0,26,31.64V32a8.5,8.5,0,0,0,2,0,8.13,8.13,0,0,0,1-.15,6.92,6.92,0,0,0,.76-.21v-.33a8,8,0,0,0,1.22.89,5.42,5.42,0,0,0,3.1.82,18.22,18.22,0,0,0,.34-2.35c0-.48.06-1,.06-1.46S34.45,28.28,34.41,27.8Z"/><path class="cls-2" d="M20,14s-.77-1.36,0-1.53,1.06-.35,1.47,0,.66.77.4,1A7,7,0,0,1,20,14Z"/></svg>