<svg xmlns="http://www.w3.org/2000/svg" viewBox="0 0 124.91 99.2"><defs><style>.cls-1{fill:#fff;}</style></defs><g id="map"><path class="cls-1" d="M28.87,77.57H28a.39.39,0,0,1-.25-.08.43.43,0,0,1-.15-.2l-.81-2.08H22.89l-.81,2.08a.41.41,0,0,1-.13.19.39.39,0,0,1-.26.09h-.9l3.45-8.63h1.18Zm-2.43-3.21-1.36-3.51a3.78,3.78,0,0,1-.12-.36c-.05-.14-.09-.29-.13-.44a6,6,0,0,1-.26.81l-1.35,3.5Z"/><path class="cls-1" d="M34.63,71.47v6.1H34a.27.27,0,0,1-.29-.22l-.09-.66a3.36,3.36,0,0,1-.89.71,2.3,2.3,0,0,1-1.13.27,2.19,2.19,0,0,1-.88-.17,1.69,1.69,0,0,1-.64-.47,1.77,1.77,0,0,1-.39-.73,3.1,3.1,0,0,1-.13-.94V71.47h1.07v3.89a1.63,1.63,0,0,0,.32,1.07,1.19,1.19,0,0,0,1,.38,1.82,1.82,0,0,0,.89-.23,2.6,2.6,0,0,0,.76-.62V71.47Z"/><path class="cls-1" d="M38.2,77.67a1.47,1.47,0,0,1-1.11-.41,1.6,1.6,0,0,1-.39-1.16V72.36H36a.22.22,0,0,1-.16,0,.25.25,0,0,1-.07-.18V71.7l1-.12L37,69.69a.28.28,0,0,1,.08-.15.23.23,0,0,1,.17-.05h.54v2.1h1.76v.77H37.77V76a.77.77,0,0,0,.19.57.66.66,0,0,0,.48.19.84.84,0,0,0,.29-.05,1,1,0,0,0,.21-.1l.16-.1a.19.19,0,0,1,.11,0,.17.17,0,0,1,.15.1l.31.51a2,2,0,0,1-.67.41A2.22,2.22,0,0,1,38.2,77.67Z"/><path class="cls-1" d="M43.18,71.37a3.3,3.3,0,0,1,1.21.22,2.59,2.59,0,0,1,.92.64,2.85,2.85,0,0,1,.58,1,4,4,0,0,1,.2,1.29,4.1,4.1,0,0,1-.2,1.31,2.9,2.9,0,0,1-.58,1,2.44,2.44,0,0,1-.92.63,3.11,3.11,0,0,1-1.21.22A3.14,3.14,0,0,1,42,77.43a2.44,2.44,0,0,1-.92-.63,2.9,2.9,0,0,1-.58-1,4.1,4.1,0,0,1-.2-1.31,4,4,0,0,1,.2-1.29,2.85,2.85,0,0,1,.58-1,2.59,2.59,0,0,1,.92-.64A3.34,3.34,0,0,1,43.18,71.37Zm0,5.45a1.56,1.56,0,0,0,1.35-.61A2.78,2.78,0,0,0,45,74.52a2.82,2.82,0,0,0-.45-1.7,1.56,1.56,0,0,0-1.35-.61,1.92,1.92,0,0,0-.79.16,1.59,1.59,0,0,0-.57.45,2.14,2.14,0,0,0-.34.73,4.11,4.11,0,0,0-.11,1,2.78,2.78,0,0,0,.45,1.69A1.59,1.59,0,0,0,43.18,76.82Z"/><path class="cls-1" d="M47.44,77.57v-6.1h.65a.26.26,0,0,1,.28.22l.08.63a2.86,2.86,0,0,1,.76-.68,1.75,1.75,0,0,1,1-.27,1.48,1.48,0,0,1,1,.34,1.88,1.88,0,0,1,.55.93,2,2,0,0,1,.34-.57,2,2,0,0,1,1-.63,2.38,2.38,0,0,1,.59-.07,2.28,2.28,0,0,1,.86.15,1.85,1.85,0,0,1,.64.45,1.91,1.91,0,0,1,.4.73,3.26,3.26,0,0,1,.14,1v3.89H54.64V73.68a1.62,1.62,0,0,0-.31-1.08,1.11,1.11,0,0,0-.9-.37,1.44,1.44,0,0,0-.51.09,1.17,1.17,0,0,0-.42.27,1.32,1.32,0,0,0-.28.46,1.73,1.73,0,0,0-.11.63v3.89H51V73.68a1.73,1.73,0,0,0-.29-1.09,1.06,1.06,0,0,0-.86-.36,1.38,1.38,0,0,0-.74.21,2.58,2.58,0,0,0-.62.58v4.55Z"/><path class="cls-1" d="M59.92,71.37a3.3,3.3,0,0,1,1.21.22,2.59,2.59,0,0,1,.92.64,2.85,2.85,0,0,1,.58,1,4,4,0,0,1,.2,1.29,4.1,4.1,0,0,1-.2,1.31,2.9,2.9,0,0,1-.58,1,2.44,2.44,0,0,1-.92.63,3.44,3.44,0,0,1-2.42,0,2.44,2.44,0,0,1-.92-.63,2.9,2.9,0,0,1-.58-1,4.1,4.1,0,0,1-.2-1.31,4,4,0,0,1,.2-1.29,2.85,2.85,0,0,1,.58-1,2.59,2.59,0,0,1,.92-.64A3.3,3.3,0,0,1,59.92,71.37Zm0,5.45a1.56,1.56,0,0,0,1.35-.61,2.78,2.78,0,0,0,.45-1.69,2.82,2.82,0,0,0-.45-1.7,1.56,1.56,0,0,0-1.35-.61,1.92,1.92,0,0,0-.79.16,1.59,1.59,0,0,0-.57.45,2.14,2.14,0,0,0-.34.73,4.11,4.11,0,0,0-.11,1,2.78,2.78,0,0,0,.45,1.69A1.59,1.59,0,0,0,59.92,76.82Z"/><path class="cls-1" d="M69.74,77.57H68.67V72.36H65.52V76a.77.77,0,0,0,.19.57.66.66,0,0,0,.48.19.84.84,0,0,0,.29-.05,1.12,1.12,0,0,0,.22-.1,1,1,0,0,0,.15-.1.19.19,0,0,1,.11,0,.17.17,0,0,1,.15.1l.31.51a2,2,0,0,1-.66.41,2.28,2.28,0,0,1-.81.15,1.47,1.47,0,0,1-1.11-.41,1.6,1.6,0,0,1-.39-1.16V72.36h-.74a.24.24,0,0,1-.16,0,.25.25,0,0,1-.07-.18V71.7l1-.13.25-1.88a.28.28,0,0,1,.08-.15.25.25,0,0,1,.17-.05h.54v2.1h4.22ZM70,69.51a.72.72,0,0,1-.06.29.81.81,0,0,1-.17.24.78.78,0,0,1-.24.16.77.77,0,0,1-.3.06.72.72,0,0,1-.29-.06.74.74,0,0,1-.4-.4.72.72,0,0,1-.06-.29.8.8,0,0,1,.06-.3A.82.82,0,0,1,68.7,69a.78.78,0,0,1,.24-.16.72.72,0,0,1,.29-.06.77.77,0,0,1,.3.06.78.78,0,0,1,.24.16.85.85,0,0,1,.17.25A.8.8,0,0,1,70,69.51Z"/><path class="cls-1" d="M76.73,71.47l-2.49,6.1h-1l-2.48-6.1h.87a.38.38,0,0,1,.22.06.42.42,0,0,1,.11.16l1.55,3.93c0,.15.09.29.13.43s.07.28.1.42c0-.14.06-.28.1-.42s.08-.28.13-.43l1.57-3.93a.31.31,0,0,1,.12-.16.34.34,0,0,1,.2-.06Z"/><path class="cls-1" d="M82.5,76.71a2.41,2.41,0,0,1-.48.42,2.69,2.69,0,0,1-.59.29,3.57,3.57,0,0,1-.66.18,5,5,0,0,1-.67.05,3.11,3.11,0,0,1-1.16-.21,2.44,2.44,0,0,1-.92-.63,2.86,2.86,0,0,1-.61-1,4.24,4.24,0,0,1-.22-1.4,3.58,3.58,0,0,1,.2-1.19,2.86,2.86,0,0,1,.56-1,2.78,2.78,0,0,1,.9-.64A3,3,0,0,1,80,71.37a2.8,2.8,0,0,1,1,.18,2.47,2.47,0,0,1,.81.53,2.66,2.66,0,0,1,.53.86,3.25,3.25,0,0,1,.19,1.16.83.83,0,0,1,0,.34.26.26,0,0,1-.21.08H78.25a4.11,4.11,0,0,0,.16,1,2.12,2.12,0,0,0,.4.71,1.7,1.7,0,0,0,.6.43,2.16,2.16,0,0,0,.78.14,2.38,2.38,0,0,0,.7-.09,3.42,3.42,0,0,0,.5-.21,2.9,2.9,0,0,0,.36-.2.45.45,0,0,1,.24-.09.21.21,0,0,1,.2.1Zm-.87-2.86a2.11,2.11,0,0,0-.11-.68,1.57,1.57,0,0,0-.3-.54,1.5,1.5,0,0,0-.5-.35,1.67,1.67,0,0,0-.65-.12,1.64,1.64,0,0,0-1.22.45,2.08,2.08,0,0,0-.56,1.24Z"/><path class="cls-1" d="M83.84,79,83.77,79a.29.29,0,0,1,0-.09.16.16,0,0,1,0-.09l.06-.07.16-.18c.06-.07.12-.16.19-.26a3,3,0,0,0,.18-.32,1.52,1.52,0,0,0,.11-.38H84.4a.66.66,0,0,1-.5-.21.74.74,0,0,1-.2-.53.66.66,0,0,1,.2-.48.66.66,0,0,1,.52-.2.83.83,0,0,1,.32.06.71.71,0,0,1,.23.19.87.87,0,0,1,.14.27,1.14,1.14,0,0,1,0,.33,2.37,2.37,0,0,1-.08.57,2.68,2.68,0,0,1-.22.57,3.33,3.33,0,0,1-.36.56,3.24,3.24,0,0,1-.48.5Z"/><path class="cls-1" d="M91.15,77.57H90V68.94h1.17Z"/><path class="cls-1" d="M95.48,71.37a3.3,3.3,0,0,1,1.21.22,2.66,2.66,0,0,1,1.49,1.63,3.75,3.75,0,0,1,.21,1.29,3.83,3.83,0,0,1-.21,1.31,2.61,2.61,0,0,1-.58,1,2.41,2.41,0,0,1-.91.63,3.44,3.44,0,0,1-2.42,0,2.37,2.37,0,0,1-.92-.63,2.74,2.74,0,0,1-.58-1,3.84,3.84,0,0,1-.2-1.31,3.76,3.76,0,0,1,.2-1.29,2.7,2.7,0,0,1,.58-1,2.5,2.5,0,0,1,.92-.64A3.3,3.3,0,0,1,95.48,71.37Zm0,5.45a1.59,1.59,0,0,0,1.35-.61,2.78,2.78,0,0,0,.45-1.69,2.82,2.82,0,0,0-.45-1.7,1.59,1.59,0,0,0-1.35-.61,2,2,0,0,0-.8.16,1.64,1.64,0,0,0-.56.45,2,2,0,0,0-.34.73,4.11,4.11,0,0,0-.11,1,2.78,2.78,0,0,0,.45,1.69A1.59,1.59,0,0,0,95.48,76.82Z"/><path class="cls-1" d="M104.34,69.92h-2.79v7.65h-1.16V69.92H97.58v-1h6.76Z"/><path class="cls-1" d="M29.75,92h-1a.79.79,0,0,1-.29,0,.54.54,0,0,1-.23-.17l-.87-.88A4.28,4.28,0,0,1,26,91.8a4.07,4.07,0,0,1-1.62.32,2.76,2.76,0,0,1-1.77-.63,2.32,2.32,0,0,1-.59-.76,2.21,2.21,0,0,1-.23-1,2.09,2.09,0,0,1,.15-.79,2.41,2.41,0,0,1,.39-.7,3.26,3.26,0,0,1,.6-.57,4,4,0,0,1,.75-.43,3.55,3.55,0,0,1-.54-.91,2.34,2.34,0,0,1-.18-.91,2.22,2.22,0,0,1,.16-.82,2,2,0,0,1,.46-.67,2.11,2.11,0,0,1,.73-.46,2.7,2.7,0,0,1,1-.16,2.41,2.41,0,0,1,.87.15,2,2,0,0,1,.67.41,1.85,1.85,0,0,1,.45.59,1.7,1.7,0,0,1,.19.69l-.67.13c-.13,0-.23,0-.29-.18a1.17,1.17,0,0,0-.14-.33,1.36,1.36,0,0,0-.24-.31,1.28,1.28,0,0,0-.84-.32,1.53,1.53,0,0,0-.54.1,1.22,1.22,0,0,0-.42.27,1.2,1.2,0,0,0-.26.4,1.44,1.44,0,0,0-.09.51,1.33,1.33,0,0,0,.05.4,1.56,1.56,0,0,0,.15.39,2.35,2.35,0,0,0,.27.4,4.94,4.94,0,0,0,.39.44l2.48,2.52a4.29,4.29,0,0,0,.37-.85,4.75,4.75,0,0,0,.18-.88.3.3,0,0,1,.07-.18.21.21,0,0,1,.17-.07h.66a4.83,4.83,0,0,1-.22,1.36,4.67,4.67,0,0,1-.61,1.25Zm-5.57-4.26a2.71,2.71,0,0,0-1,.82,1.88,1.88,0,0,0-.32,1,1.52,1.52,0,0,0,.15.69,1.45,1.45,0,0,0,.37.5,1.62,1.62,0,0,0,.54.31,1.87,1.87,0,0,0,.61.11A2.83,2.83,0,0,0,25.79,91a3,3,0,0,0,.94-.66Z"/><path class="cls-1" d="M39.36,91.07v1H34V83.39h5.32v1H35.21v2.86h3.36v.92H35.21v2.94Z"/><path class="cls-1" d="M45.54,83.15V92H44.9a.28.28,0,0,1-.29-.23l-.1-.74a3.06,3.06,0,0,1-.89.76,2.28,2.28,0,0,1-1.15.29,2.32,2.32,0,0,1-1-.2,2.16,2.16,0,0,1-.73-.59,3,3,0,0,1-.46-1A5,5,0,0,1,40.16,89a4.26,4.26,0,0,1,.18-1.26,3,3,0,0,1,.52-1,2.36,2.36,0,0,1,.83-.67,2.44,2.44,0,0,1,1.1-.24,2.19,2.19,0,0,1,1,.19,2.28,2.28,0,0,1,.72.52V83.15Zm-1.07,4.23a1.82,1.82,0,0,0-.66-.57,1.94,1.94,0,0,0-.78-.16,1.57,1.57,0,0,0-1.31.61A2.91,2.91,0,0,0,41.27,89a4.4,4.4,0,0,0,.1,1,2.14,2.14,0,0,0,.3.7,1.26,1.26,0,0,0,.49.4,1.67,1.67,0,0,0,.65.12,1.74,1.74,0,0,0,.93-.24,2.89,2.89,0,0,0,.73-.68Z"/><path class="cls-1" d="M52.39,86.16v.4c0,.14-.09.22-.26.26l-.69.09a1.82,1.82,0,0,1,.21.88,1.85,1.85,0,0,1-.18.81,1.79,1.79,0,0,1-.47.62,2.28,2.28,0,0,1-.72.4,3,3,0,0,1-.92.13,3,3,0,0,1-.8-.1,1.12,1.12,0,0,0-.3.26.43.43,0,0,0-.1.27.35.35,0,0,0,.18.33,1.08,1.08,0,0,0,.46.16,6.21,6.21,0,0,0,.66.06l.76,0c.26,0,.51,0,.76.09a2.44,2.44,0,0,1,.66.22,1.27,1.27,0,0,1,.47.42,1.24,1.24,0,0,1,.17.68,1.59,1.59,0,0,1-.19.76,2.17,2.17,0,0,1-.56.66,2.87,2.87,0,0,1-.91.45,3.7,3.7,0,0,1-1.2.17,4.6,4.6,0,0,1-1.17-.13,2.77,2.77,0,0,1-.83-.35,1.51,1.51,0,0,1-.49-.52,1.22,1.22,0,0,1-.17-.61,1.07,1.07,0,0,1,.28-.76,1.91,1.91,0,0,1,.78-.5,1.2,1.2,0,0,1-.43-.33.81.81,0,0,1-.16-.54,1,1,0,0,1,.05-.28,1.1,1.1,0,0,1,.15-.28,1.46,1.46,0,0,1,.24-.27,1.66,1.66,0,0,1,.34-.22,1.91,1.91,0,0,1-.71-.67,1.85,1.85,0,0,1-.25-1,1.92,1.92,0,0,1,.17-.81,2,2,0,0,1,.48-.63,2.22,2.22,0,0,1,.73-.39,3.12,3.12,0,0,1,.93-.14,2.89,2.89,0,0,1,.74.09,2.51,2.51,0,0,1,.63.25Zm-1.09,6.2a.53.53,0,0,0-.13-.36.75.75,0,0,0-.34-.22,2.18,2.18,0,0,0-.5-.11l-.6,0-.64,0a5.92,5.92,0,0,1-.62-.06,1.8,1.8,0,0,0-.56.39.83.83,0,0,0-.21.56.7.7,0,0,0,.11.38.8.8,0,0,0,.32.31,1.69,1.69,0,0,0,.54.21,3.58,3.58,0,0,0,.78.07,3,3,0,0,0,.77-.08,1.86,1.86,0,0,0,.59-.22,1.18,1.18,0,0,0,.36-.34A.87.87,0,0,0,51.3,92.36ZM49.36,89a1.62,1.62,0,0,0,.57-.09,1.09,1.09,0,0,0,.42-.25,1,1,0,0,0,.25-.39,1.3,1.3,0,0,0,.09-.49,1.22,1.22,0,0,0-.34-.9,1.65,1.65,0,0,0-2,0,1.18,1.18,0,0,0-.34.9,1.3,1.3,0,0,0,.09.49,1.14,1.14,0,0,0,.25.39,1.27,1.27,0,0,0,.42.25A1.66,1.66,0,0,0,49.36,89Z"/><path class="cls-1" d="M58.36,91.17a2.16,2.16,0,0,1-.48.42,2.49,2.49,0,0,1-.59.29,3.55,3.55,0,0,1-.66.17,3.68,3.68,0,0,1-.66.06,3.13,3.13,0,0,1-1.17-.21,2.56,2.56,0,0,1-.92-.63,3,3,0,0,1-.61-1,4.29,4.29,0,0,1-.21-1.4,3.58,3.58,0,0,1,.19-1.19,2.86,2.86,0,0,1,.56-1,2.64,2.64,0,0,1,.9-.64,2.87,2.87,0,0,1,1.19-.23,2.8,2.8,0,0,1,1,.18,2.32,2.32,0,0,1,.81.53,2.55,2.55,0,0,1,.53.86,3.21,3.21,0,0,1,.19,1.16.77.77,0,0,1-.05.33.23.23,0,0,1-.21.09H54.12a3.27,3.27,0,0,0,.16,1,1.91,1.91,0,0,0,.39.72,1.7,1.7,0,0,0,.6.43,2.22,2.22,0,0,0,.79.14,2,2,0,0,0,.69-.1,3.05,3.05,0,0,0,.5-.2l.36-.2a.45.45,0,0,1,.24-.09.21.21,0,0,1,.2.1Zm-.87-2.86a2.06,2.06,0,0,0-.11-.68,1.57,1.57,0,0,0-.3-.54,1.42,1.42,0,0,0-.49-.35,1.76,1.76,0,0,0-.66-.12,1.64,1.64,0,0,0-1.22.45,2,2,0,0,0-.56,1.24Z"/><path class="cls-1" d="M70.58,87.71a5,5,0,0,1-.3,1.77,4.07,4.07,0,0,1-.87,1.36,3.81,3.81,0,0,1-1.35.88,4.8,4.8,0,0,1-1.73.31H63.1V83.39h3.23a4.8,4.8,0,0,1,1.73.31,3.81,3.81,0,0,1,1.35.88A4.11,4.11,0,0,1,70.28,86,5,5,0,0,1,70.58,87.71Zm-1.19,0a4.45,4.45,0,0,0-.22-1.42,3,3,0,0,0-.62-1.06,2.5,2.5,0,0,0-1-.66,3.4,3.4,0,0,0-1.26-.23H64.27v6.74h2.06a3.4,3.4,0,0,0,1.26-.23,2.5,2.5,0,0,0,1-.66,3,3,0,0,0,.62-1.06A4.41,4.41,0,0,0,69.39,87.71Z"/><path class="cls-1" d="M76.88,91.17a2,2,0,0,1-.48.42,2.49,2.49,0,0,1-.59.29,3.66,3.66,0,0,1-.65.17,3.88,3.88,0,0,1-.67.06,3.2,3.2,0,0,1-1.17-.21,2.65,2.65,0,0,1-.92-.63,3,3,0,0,1-.61-1,4.29,4.29,0,0,1-.21-1.4,3.58,3.58,0,0,1,.19-1.19,2.72,2.72,0,0,1,.57-1,2.51,2.51,0,0,1,.89-.64,2.92,2.92,0,0,1,1.2-.23,2.79,2.79,0,0,1,1,.18,2.32,2.32,0,0,1,.81.53,2.41,2.41,0,0,1,.53.86,3.2,3.2,0,0,1,.2,1.16.62.62,0,0,1-.06.33.22.22,0,0,1-.2.09H72.64a3.27,3.27,0,0,0,.16,1,1.91,1.91,0,0,0,.39.72,1.7,1.7,0,0,0,.6.43,2.22,2.22,0,0,0,.79.14,2,2,0,0,0,.69-.1,3.19,3.19,0,0,0,.51-.2c.14-.07.25-.14.35-.2a.45.45,0,0,1,.24-.09.24.24,0,0,1,.21.1ZM76,88.31a2.07,2.07,0,0,0-.1-.68,1.59,1.59,0,0,0-.31-.54,1.42,1.42,0,0,0-.49-.35,1.73,1.73,0,0,0-.66-.12,1.65,1.65,0,0,0-1.22.45,2.11,2.11,0,0,0-.56,1.24Z"/><path class="cls-1" d="M83.38,85.92,80.9,92h-1l-2.48-6.11h.87a.38.38,0,0,1,.22.07.36.36,0,0,1,.11.16l1.55,3.92a4.16,4.16,0,0,1,.12.44c0,.14.07.28.11.42,0-.14.06-.28.1-.42s.08-.29.13-.44l1.57-3.92a.28.28,0,0,1,.12-.16.32.32,0,0,1,.2-.07Z"/><path class="cls-1" d="M85.73,84a.72.72,0,0,1-.06.29.81.81,0,0,1-.17.24.74.74,0,0,1-.25.17.72.72,0,0,1-.29.06.73.73,0,0,1-.3-.06.66.66,0,0,1-.23-.17.81.81,0,0,1-.17-.24A.72.72,0,0,1,84.2,84a.73.73,0,0,1,.06-.3.85.85,0,0,1,.17-.25.63.63,0,0,1,.23-.16.73.73,0,0,1,.3-.06.82.82,0,0,1,.54.22.85.85,0,0,1,.17.25A.73.73,0,0,1,85.73,84Zm-.23,1.91V92H84.43V85.92Z"/><path class="cls-1" d="M91.51,87a.32.32,0,0,1-.1.1.22.22,0,0,1-.13,0,.37.37,0,0,1-.2-.08l-.27-.16a1.85,1.85,0,0,0-1-.25,2,2,0,0,0-.79.16,1.55,1.55,0,0,0-.58.47,2.2,2.2,0,0,0-.35.72A4.08,4.08,0,0,0,88,89a3.73,3.73,0,0,0,.12,1,2.43,2.43,0,0,0,.36.72,1.74,1.74,0,0,0,.56.45,1.78,1.78,0,0,0,.74.15,1.89,1.89,0,0,0,.64-.09,2.72,2.72,0,0,0,.42-.21l.28-.21a.35.35,0,0,1,.22-.09.21.21,0,0,1,.2.1l.31.39a2,2,0,0,1-.46.42,2.35,2.35,0,0,1-.54.29,3.28,3.28,0,0,1-.61.18,4.74,4.74,0,0,1-.65,0,2.69,2.69,0,0,1-1.07-.21,2.42,2.42,0,0,1-.85-.61,3,3,0,0,1-.57-1,4.18,4.18,0,0,1-.2-1.33,4,4,0,0,1,.19-1.26,3,3,0,0,1,.55-1,2.69,2.69,0,0,1,.9-.66,3.17,3.17,0,0,1,1.23-.23,2.81,2.81,0,0,1,1.13.21,2.55,2.55,0,0,1,.87.58Z"/><path class="cls-1" d="M97.86,91.17a2,2,0,0,1-.48.42,2.49,2.49,0,0,1-.59.29,3.66,3.66,0,0,1-.65.17,3.88,3.88,0,0,1-.67.06,3.2,3.2,0,0,1-1.17-.21,2.65,2.65,0,0,1-.92-.63,2.87,2.87,0,0,1-.6-1,4,4,0,0,1-.22-1.4,3.58,3.58,0,0,1,.19-1.19,2.72,2.72,0,0,1,.57-1,2.51,2.51,0,0,1,.89-.64,2.92,2.92,0,0,1,1.2-.23,2.79,2.79,0,0,1,1,.18,2.32,2.32,0,0,1,.81.53,2.41,2.41,0,0,1,.53.86,3.2,3.2,0,0,1,.2,1.16.62.62,0,0,1-.06.33.2.2,0,0,1-.2.09H93.62a3.27,3.27,0,0,0,.16,1,1.91,1.91,0,0,0,.39.72,1.65,1.65,0,0,0,.61.43,2.13,2.13,0,0,0,.78.14,2,2,0,0,0,.69-.1,3.19,3.19,0,0,0,.51-.2c.14-.07.25-.14.35-.2a.45.45,0,0,1,.24-.09.24.24,0,0,1,.21.1ZM97,88.31a2.07,2.07,0,0,0-.1-.68,1.59,1.59,0,0,0-.31-.54,1.42,1.42,0,0,0-.49-.35,1.69,1.69,0,0,0-.66-.12,1.65,1.65,0,0,0-1.22.45,2.11,2.11,0,0,0-.56,1.24Z"/><path class="cls-1" d="M102.82,86.93a.23.23,0,0,1-.22.13.48.48,0,0,1-.21-.06,1.41,1.41,0,0,0-.28-.15,1.76,1.76,0,0,0-.39-.15,1.73,1.73,0,0,0-.54-.07,1.49,1.49,0,0,0-.49.07,1.08,1.08,0,0,0-.37.19.92.92,0,0,0-.24.28.77.77,0,0,0-.08.34.61.61,0,0,0,.14.4,1.3,1.3,0,0,0,.36.27,4,4,0,0,0,.5.2l.58.19a4.19,4.19,0,0,1,.59.22,2.29,2.29,0,0,1,.5.3,1.29,1.29,0,0,1,.36.44,1.33,1.33,0,0,1,.14.63,2,2,0,0,1-.15.78,1.83,1.83,0,0,1-.45.62,2.3,2.3,0,0,1-.72.41,3,3,0,0,1-1,.15,3.07,3.07,0,0,1-1.16-.21,2.76,2.76,0,0,1-.88-.53l.26-.41a.43.43,0,0,1,.11-.12.29.29,0,0,1,.17,0,.46.46,0,0,1,.23.08l.29.19a1.83,1.83,0,0,0,1,.27,1.82,1.82,0,0,0,.55-.08,1,1,0,0,0,.39-.22.79.79,0,0,0,.23-.32.84.84,0,0,0,.08-.38.64.64,0,0,0-.14-.42,1.26,1.26,0,0,0-.35-.29,4.18,4.18,0,0,0-.51-.2l-.59-.18L100,89a2.2,2.2,0,0,1-.51-.32,1.27,1.27,0,0,1-.36-.46A1.47,1.47,0,0,1,99,87.6a1.55,1.55,0,0,1,.14-.67,1.69,1.69,0,0,1,.42-.57,2.24,2.24,0,0,1,.68-.39,2.91,2.91,0,0,1,.92-.14,2.86,2.86,0,0,1,1.09.19,2.49,2.49,0,0,1,.82.52Z"/><path class="cls-1" d="M62.78,1.62A19.43,19.43,0,0,1,81.26,14.86,14.56,14.56,0,0,1,95.49,29.71,15.08,15.08,0,0,1,80.64,44.59H44A14.58,14.58,0,0,1,29.42,29.71,15.16,15.16,0,0,1,43.88,14.86,20.21,20.21,0,0,1,62.78,1.62m0-1.62a21.87,21.87,0,0,0-20,13.32A16.76,16.76,0,0,0,27.8,29.68,16.21,16.21,0,0,0,44,46.21H80.64A16.68,16.68,0,0,0,97.11,29.74,16.18,16.18,0,0,0,82.42,13.31,21.07,21.07,0,0,0,62.78,0Z"/><path class="cls-1" d="M38.37,35.38A2.35,2.35,0,0,1,40.63,33a2.34,2.34,0,1,1,.09,4.67A2.37,2.37,0,0,1,38.37,35.38Z"/><path class="cls-1" d="M53.21,35.38A2.35,2.35,0,0,1,55.47,33a2.34,2.34,0,1,1,.09,4.67A2.37,2.37,0,0,1,53.21,35.38Z"/><path class="cls-1" d="M60.74,31.25a3.47,3.47,0,0,0-3.32-3.45H55l-.13-.18-3.52-4.29a1.81,1.81,0,0,0-1.38-.64H42.3a1.81,1.81,0,0,0-1.38.64l-3.51,4.29-.13.18H35.17a.81.81,0,0,0-.81.81V34a.81.81,0,0,0,.81.81h2.17a3.41,3.41,0,0,1,3.25-2.85,3.55,3.55,0,0,1,3.48,2.85h8.11a3.42,3.42,0,0,1,3.25-2.85,3.55,3.55,0,0,1,3.48,2.85h.47a1.38,1.38,0,0,0,1.38-1.39v-1.9A1.5,1.5,0,0,0,60.74,31.25ZM45.36,28.6H38.78l3.52-4.29h3.06Zm8.08,0H46.89V24.31h3l3.5,4.27Z"/><g id="map-2" data-name="map"><path class="cls-1" d="M67.23,12.77H66v-2h0a3.53,3.53,0,0,0-7.05,0v2H57.68a.52.52,0,0,0-.52.52h0v7.14a.52.52,0,0,0,.52.52h9.55a.52.52,0,0,0,.52-.52h0V13.29a.52.52,0,0,0-.52-.52Zm-3.63,6H61.31l.61-1.91a1.21,1.21,0,1,1,1.62-.55,1.22,1.22,0,0,1-.55.55Zm1.23-6H60.09v-2a2.37,2.37,0,0,1,4.73,0Z"/></g><polygon class="cls-1" points="70.77 39.19 70.77 30.87 71.68 30.87 71.68 38.27 84.22 38.27 84.22 30.87 85.13 30.87 85.13 39.19 70.77 39.19"/><polygon class="cls-1" points="77.86 22.74 69.95 30.65 69.31 30 77.86 21.45 86.59 30.18 85.94 30.83 77.86 22.74"/><rect class="cls-1" x="74.28" y="32.14" width="2.97" height="6.29"/><rect class="cls-1" x="79" y="28.47" width="2.97" height="6.29"/><path class="cls-1" d="M42,51.57a3.78,3.78,0,1,0,0,.65c0-.11,0-.21,0-.33S42,51.67,42,51.57Zm-3.76,3a2.68,2.68,0,1,1,2.65-3,1.67,1.67,0,0,1,0,.32,1.77,1.77,0,0,1,0,.33A2.68,2.68,0,0,1,38.23,54.57Z"/><path class="cls-1" d="M85.74,48.11A3.78,3.78,0,0,0,82,51.57c0,.1,0,.21,0,.32s0,.22,0,.33a3.78,3.78,0,1,0,3.76-4.11Zm0,6.46a2.68,2.68,0,0,1-2.65-2.35c0-.11,0-.21,0-.33s0-.22,0-.32a2.67,2.67,0,1,1,2.65,3Z"/><path class="cls-1" d="M75.76,55A3.77,3.77,0,0,0,72,58.46a1.67,1.67,0,0,0,0,.32,1.77,1.77,0,0,0,0,.33A3.78,3.78,0,1,0,75.76,55Zm0,6.44a2.68,2.68,0,0,1-2.65-2.34c0-.1,0-.22,0-.33s0-.22,0-.32a2.67,2.67,0,1,1,2.65,3Z"/><path class="cls-1" d="M51.93,58.46a3.78,3.78,0,1,0,0,.65c0-.11,0-.22,0-.33S51.94,58.56,51.93,58.46Zm-3.76,3a2.67,2.67,0,1,1,2.65-3c0,.1,0,.21,0,.32s0,.22,0,.33A2.67,2.67,0,0,1,48.17,61.45Z"/><path class="cls-1" d="M47.26,51.57v.65H40.88a1.77,1.77,0,0,0,0-.33,1.67,1.67,0,0,0,0-.32Z"/><rect class="cls-1" x="46.91" y="45.46" width="0.65" height="6.75"/><path class="cls-1" d="M57.07,58.46v.65H50.82c0-.11,0-.22,0-.33s0-.22,0-.32Z"/><rect class="cls-1" x="56.72" y="45.14" width="0.65" height="13.96"/><path class="cls-1" d="M83.07,51.89c0,.12,0,.22,0,.33H76.74v-.65h6.35C83.08,51.67,83.07,51.78,83.07,51.89Z"/><rect class="cls-1" x="76.44" y="45.42" width="0.65" height="6.78"/><path class="cls-1" d="M73.09,58.78c0,.11,0,.23,0,.33H66.86v-.65h6.25C73.1,58.56,73.09,58.67,73.09,58.78Z"/><rect class="cls-1" x="66.56" y="45.24" width="0.65" height="13.86"/></g></svg>