<svg xmlns="http://www.w3.org/2000/svg" viewBox="0 0 91.02 95.26"><defs><style>.cls-1,.cls-2{fill:#fff;}.cls-2{font-size:12.05px;font-family:Lato-Regular, Lato;}.cls-3{letter-spacing:-0.01em;}.cls-4{letter-spacing:-0.01em;}.cls-5{letter-spacing:-0.01em;}.cls-6{letter-spacing:-0.01em;}</style></defs><g id="map"><path class="cls-1" d="M80.16,29.74A16.82,16.82,0,0,1,74,42.5V40.31a15.26,15.26,0,0,0,4.56-10.6A14.57,14.57,0,0,0,64.32,14.86,19.44,19.44,0,0,0,45.83,1.62,20.21,20.21,0,0,0,26.94,14.86,15.16,15.16,0,0,0,12.48,29.71,14.59,14.59,0,0,0,17,40.6v2.14a17.6,17.6,0,0,1-1.52-1.36,16.2,16.2,0,0,1-4.65-11.69A16.75,16.75,0,0,1,25.8,13.32,21.87,21.87,0,0,1,45.83,0,21.07,21.07,0,0,1,65.47,13.31,16.16,16.16,0,0,1,80.16,29.74Z"/><path class="cls-1" d="M79.41,41.31a15.88,15.88,0,0,1-10.7,9.07l-.07,0a17.33,17.33,0,0,1-3.45.35h-2v-1h2a16.11,16.11,0,0,0,11.26-4.62A16.83,16.83,0,0,0,79.41,41.31Z"/><path class="cls-1" d="M17,47.18v.89a15.21,15.21,0,0,1-5.42-6.8A16.29,16.29,0,0,0,17,47.18Z"/><path class="cls-1" d="M68.88,21.25h-10a2.25,2.25,0,0,0-2.24,2.24V44.42a2.25,2.25,0,0,0,2.24,2.24h10a2.25,2.25,0,0,0,2.24-2.24V23.49A2.25,2.25,0,0,0,68.88,21.25Zm-6.39.42a.66.66,0,0,1,.66.65.67.67,0,0,1-.66.66.66.66,0,0,1-.65-.66A.65.65,0,0,1,62.49,21.67Zm7.59,22.75a1.2,1.2,0,0,1-1.2,1.2h-10a1.2,1.2,0,0,1-1.2-1.2V23.49a1.2,1.2,0,0,1,1.2-1.2h2v.46a.69.69,0,0,0,.69.68H66.2a.69.69,0,0,0,.69-.68v-.46h2a1.2,1.2,0,0,1,1.2,1.2Z"/><rect class="cls-1" x="60.6" y="43.89" width="6.57" height="0.59" rx="0.3"/><path class="cls-1" d="M55.83,54.32H17.88a2.62,2.62,0,0,1-2.56-2.48l0-.43H58.42l0,.43a2.75,2.75,0,0,1-.74,1.68A2.49,2.49,0,0,1,55.83,54.32ZM16.2,52.21a1.79,1.79,0,0,0,1.68,1.3h38A1.67,1.67,0,0,0,57.06,53a1.88,1.88,0,0,0,.44-.76Z"/><path class="cls-1" d="M39.79,52.17a1,1,0,0,1-.09.38.25.25,0,0,1-.21.17H34.22c-.16,0-.29-.24-.3-.55Z"/><path class="cls-1" d="M39.49,52.8H34.22c-.21,0-.37-.26-.38-.63v-.08h6v.08a1,1,0,0,1-.1.41A.34.34,0,0,1,39.49,52.8ZM34,52.25c0,.24.13.4.22.4h5.27s.1,0,.14-.14a.66.66,0,0,0,.08-.26Z"/><path class="cls-1" d="M51.39,27.53H22.32a1.85,1.85,0,0,0-1.85,1.85v19a1.85,1.85,0,0,0,1.85,1.85H51.39a1.85,1.85,0,0,0,1.85-1.85v-19A1.85,1.85,0,0,0,51.39,27.53Zm-14.54.3a.58.58,0,1,1-.57.57A.58.58,0,0,1,36.85,27.83ZM51.51,48.68H22.2V29.23H51.51Z"/><text class="cls-2" transform="translate(7.6 77.57)">Clie<tspan class="cls-3" x="20.14" y="0">n</tspan><tspan x="26.78" y="0">t </tspan><tspan class="cls-4" x="34.18" y="0">D</tspan><tspan class="cls-5" x="43.26" y="0">e</tspan><tspan x="49.49" y="0">vi</tspan><tspan class="cls-6" x="58.6" y="0">c</tspan><tspan x="64.24" y="0">es</tspan></text></g></svg>