<svg xmlns="http://www.w3.org/2000/svg" viewBox="0 0 184.78 175.6"><g id="map"><path d="M143.84,156.78l-16.14,8.63-3.5,1.91-6.41-8.15c-2.51-3.19-5-6.35-7.55-9.49a5.91,5.91,0,0,0-4-2.12,5.34,5.34,0,0,0-.8,0c-2,.16-4,.36-6.08.58-1.23.13-2.46.26-3.67.37a5.5,5.5,0,0,0-4.57,3.27q-5,10-10,19.91l-21.19-6.4c.1-1.44.21-2.84.37-4.24.68-5.87,1.4-11.77,2.14-17.64A5.88,5.88,0,0,0,60,137.63c-2.06-1.6-4.13-3.34-6.11-5l-1-.84a5.56,5.56,0,0,0-3.1-1.35,5.73,5.73,0,0,0-2.28.3q-7.95,2.67-15.9,5.26l-5.44,1.78L15.66,118.16l7.71-6.08c3.38-2.65,6.74-5.3,10.08-8a5.28,5.28,0,0,0,2-4.41c-.31-3.49-.64-7-1-10.33a5.49,5.49,0,0,0-2.82-4.12Q21.47,80.09,11.33,75l1.14-3.71c.29-1,.6-2,.92-3a40.17,40.17,0,0,0,7.09,4.88c.8.44,1.59.85,2.4,1.2A44.26,44.26,0,0,0,38,78.3a45.42,45.42,0,0,0,14.11-1l3.07,3.12a35.55,35.55,0,0,0-.65,4.53,40.25,40.25,0,0,0,50.84,42.29c.48.39,1,.75,1.46,1.12,2.25,1.75,4.51,3.46,6.73,5.13,9.37,7,18.56,13.22,27.3,18.63.62.37,1.25.77,1.84,1.15.19.52.38,1.07.54,1.59Z"/><path d="M177.66,102l-1.35,4.57-1.77,5.81c-.71,2.39-1.44,4.78-2.15,7.16-.49-.5-1-1-1.51-1.48-7.09-6.87-15.09-14-23.78-21.09-3.35-2.75-6.42-5.18-9.44-7.5-.45-.37-.93-.73-1.28-1-.54-.41-1.09-.83-1.63-1.22a39.7,39.7,0,0,0-9.49-24.7A40.19,40.19,0,0,0,97.88,48.42l-.37,0a38.87,38.87,0,0,0-13.46,1.22,41,41,0,0,0,2-20.47c.4,0,.8-.1,1.19-.13,1.75-.18,3.49-.36,5.26-.49a6.46,6.46,0,0,0,5.67-3.8q4.11-8.25,8.29-16.44l1.52-3h0c2.23.65,4.47,1.3,6.67,2,1.94.57,3.88,1.17,5.81,1.75,2.93.89,5.83,1.78,8.76,2.64-.86,7.09-1.73,14.45-2.65,22.52a5.65,5.65,0,0,0,1.89,4.73c2.63,2.22,5.27,4.38,7.87,6.42a5.41,5.41,0,0,0,2.91,1.1,5.54,5.54,0,0,0,2.09-.22c5-1.61,10-3.28,15-4.91l6.41-2.1,10.52,19.59L172,59.85l-4.5,3.57q-6,4.69-11.93,9.42a5.47,5.47,0,0,0-2,4.45c.33,3.84.66,7.35,1.05,10.73a5.14,5.14,0,0,0,3,3.85c5.56,2.82,11.1,5.61,16.63,8.42Z"/><path d="M181,142a12.19,12.19,0,0,0-1-3.38l0,0a13.19,13.19,0,0,0-2.6-3.77,1.4,1.4,0,0,1,.22.14c-3.37-3.79-7.24-7.79-11.54-11.93l-.36-.35c-6.73-6.52-14.47-13.39-23-20.35-2.79-2.27-5.62-4.56-8.57-6.81-.2-.15-.41-.33-.63-.49l-1.34-1.06A386.6,386.6,0,0,0,94.26,68.16c-2.62-1.56-5.16-3-7.61-4.35l-4.48-4.62-6.23-6.43-.6-.62A33.93,33.93,0,0,0,79.53,38.4,32.14,32.14,0,0,0,74.47,18c-.66-.95-1.32-1.91-2.06-2.78-.31-.39-.65-.77-1-1.14A36.33,36.33,0,0,0,43.6,2.2l9,14,3.29,5.09,0,0,3.62,5.59a10.34,10.34,0,0,1,.08,11,11.46,11.46,0,0,1-4,4l-3.28,2L42,50,42,50.1A12.29,12.29,0,0,1,31.55,51a12,12,0,0,1-1.66-.79,10,10,0,0,1-3.62-3.39l-16-24.69a33,33,0,0,0,1.2,33.64A33.48,33.48,0,0,0,23.69,67.05a21.32,21.32,0,0,0,2,1A38.37,38.37,0,0,0,51,70.45c1.06-.26,2.1-.56,3.15-.92l3.27,3.37,5.71,5.8c1.36,1.64,2.81,3.33,4.43,5v0c2.34,2.57,4.89,5.25,7.64,8a367.66,367.66,0,0,0,29.52,26.18c2,1.67,4.15,3.32,6.28,5q.92.7,1.83,1.38,2.43,1.86,4.82,3.65c7.41,5.51,14.68,10.55,21.6,15,1.75,1.14,3.49,2.23,5.2,3.3,5.9,3.65,11.5,6.88,16.66,9.55a2.77,2.77,0,0,1-.35-.33,12.09,12.09,0,0,0,4.19,1.55l.05,0a10.59,10.59,0,0,0,2.45.22,13.47,13.47,0,0,0,10.83-5.05A12.93,12.93,0,0,0,181,142Z"/></g></svg>