<svg xmlns="http://www.w3.org/2000/svg" viewBox="0 0 74.47 79.25"><defs><style>.cls-1,.cls-2{fill:#fff;}.cls-2{font-size:12.05px;font-family:Lato-Regular, Lato;}.cls-3{letter-spacing:-0.04em;}</style></defs><g id="map"><path class="cls-1" d="M46.25,11.2c-.73,4.08,1,7.08,3.45,9.89A22.78,22.78,0,0,1,55,30.66,10.57,10.57,0,0,1,55,36a1,1,0,0,0,.34,1.17,9.84,9.84,0,0,1,1.31,2.23,25.61,25.61,0,0,0,1.48,3c1.37,2,1.21,3.27-.89,4.33a18.92,18.92,0,0,0-5.9,4.16,5.6,5.6,0,0,1-4,1.84,3.89,3.89,0,0,1-4-2.3,1.17,1.17,0,0,0-1.3-.77,6.15,6.15,0,0,1-1.6-.14c-2.62-.62-5.18,0-7.75.39a.7.7,0,0,0-.44.25c-1.65,2.5-4,2.26-6.41,1.59-1.36-.39-2.64-1.09-4-1.46a37.12,37.12,0,0,0-3.8-.61c-2.18-.38-2.78-1.39-2.37-3.57a12.15,12.15,0,0,0,.18-3.24c-.19-2.26.25-3.23,2.39-3.91,1.54-.48,2.15-1.8,3.09-2.84.1-.1.09-.33.08-.5a15,15,0,0,1,2.43-9A58.19,58.19,0,0,1,27.66,21a12.71,12.71,0,0,0,2.63-8.8,32.56,32.56,0,0,1,.16-6.4A6.35,6.35,0,0,1,36.39.12a13,13,0,0,1,3.94.06C43.48.76,45,3,45.62,6,46,7.72,46.06,9.55,46.25,11.2ZM27.37,24.63a15.22,15.22,0,0,0-2.7,5.86c-.59,3,.28,4.91,2.82,6.58a9.88,9.88,0,0,1,1.9,1.39,18.74,18.74,0,0,1,2.52,3.25c.54.95.09,1.59-.95,2-.18.06-.35.15-.85.37a16.35,16.35,0,0,0,3.08,2.52c3.54,1.67,6.89.81,10-1.23a1.41,1.41,0,0,0,.54-.86c.3-1.79.54-3.59.8-5.38.23-1.52.57-3,2.06-3.8a1.07,1.07,0,0,0,.41-.56c.5-1.27,1.19-1.72,2.48-1.3,1.66.55,3.58.87,3.9,3.33a1.44,1.44,0,0,0-.19-2.07,7.77,7.77,0,0,0-1.91-1.35c-.63-.31-.72-.67-.66-1.33.27-3.57-1.37-6.33-3.84-8.72,2.21,2.7,3.72,5.57,2.73,9.14-1,.21-1.23-.16-1.37-.9A12,12,0,0,0,47.37,29c-.84-1.93-1.81-3.8-2.61-5.74-1-2.35-1.83-4.75-2.7-7-1.47.8-3,1.71-4.53,2.44a3.43,3.43,0,0,1-3.9-.56c-.52-.45-1.08-.84-1.44-1.11-.95,2.69-1.76,5.34-2.83,7.89-1.3,3.08-2.84,6.07-3.11,9.5C24.19,30.86,25.93,27.78,27.37,24.63Zm.39,26.89c3.65,0,5.08-2.48,3.54-5.14-.28-.49-.64-.94-.95-1.42q-2.12-3.27-4.22-6.56c-.17-.26-.3-.57-.49-.83-1.48-2.06-3.05-2-4.65-.09a6.79,6.79,0,0,1-2.33,1.91c-2.13,1-2.46,1.45-2.15,3.75a7,7,0,0,1-.1,2.62c-.6,2.3-.21,3,2.13,3.37.21,0,.43,0,.64.06a16.15,16.15,0,0,1,5.57,1.4A17.25,17.25,0,0,0,27.76,51.52ZM46.84,35.93a3.78,3.78,0,0,0-1.61,3.12,31.49,31.49,0,0,1-1.41,7.76,6.47,6.47,0,0,0-.28,1.58A3.29,3.29,0,0,0,47.46,52a7.17,7.17,0,0,0,3.45-1.74,20.16,20.16,0,0,1,5.93-4.11c1.76-.85,2-1.74.71-3.28a8.21,8.21,0,0,1-1.61-3.43c-.55-2.33-2-2.86-4-1.48-2.47,1.8-4.19,1.23-5-1.66ZM36.1,18.77a15.71,15.71,0,0,0,5.61-3c.84-.8.53-1.77-.6-2.32s-2.44-1.16-3.68-1.68a3.4,3.4,0,0,0-3.71.57c-.6.51-1.22,1-1.84,1.48-1,.78-1.1,1.45-.18,2.29a24.68,24.68,0,0,0,2.87,2.22A5.89,5.89,0,0,0,36.1,18.77Zm2.07-7.21a2.83,2.83,0,0,1,.17-1,10.81,10.81,0,0,1,1.1-1.25c.36.46.91.89,1,1.4a6,6,0,0,1-.23,2l1,.36A3.52,3.52,0,0,0,42,9.7a2.87,2.87,0,0,0-2.53-2.51A2.89,2.89,0,0,0,37,9.6C36.61,10.93,36.75,11.17,38.17,11.56Zm-5.71,1.52a5.14,5.14,0,0,0,0-.87,10.57,10.57,0,0,1-.19-1.65c0-.3.42-.57.64-.85a3.56,3.56,0,0,1,.78.77A4,4,0,0,1,34,11.57c1.06-.41,1.11-.42.93-1.38a4.65,4.65,0,0,0-.63-1.66,1.45,1.45,0,0,0-2.66.13A3.58,3.58,0,0,0,32.46,13.08Z"/><text class="cls-2" transform="translate(4.34 68.85)">Linux <tspan class="cls-3" x="31.6" y="0">K</tspan><tspan x="39.12" y="0">ernel</tspan></text></g></svg>