<svg id="Layer_1" data-name="Layer 1" xmlns="http://www.w3.org/2000/svg" viewBox="0 0 44 68.01"><defs><style>.cls-1{font-size:6.88px;fill:#1d1d1b;font-family:Lato;font-weight:700;}.cls-2{letter-spacing:-0.02em;}.cls-3{letter-spacing:-0.01em;}.cls-4{letter-spacing:0em;}.cls-5{fill:#9ac43a;}.cls-6{fill:#fff;}</style></defs><text class="cls-1" transform="translate(2.51 58.18)">BSP<tspan class="cls-2" x="12.57" y="0">’</tspan><tspan x="13.93" y="0">s, </tspan><tspan class="cls-3" x="20.24" y="0">B</tspan><tspan x="24.71" y="0">uilds</tspan><tspan x="3.92" y="7.87">&amp; </tspan><tspan class="cls-3" x="10.57" y="7.87">S</tspan><tspan class="cls-4" x="14.28" y="7.87">upport</tspan></text><path class="cls-5" d="M22,0A22,22,0,1,0,40.48,33.93,21.19,21.19,0,0,0,42,31.25,22,22,0,0,0,22,0ZM40.23,31.45A1.14,1.14,0,0,0,40,31.1c.27-.53.52-1.07.74-1.63a1.64,1.64,0,0,0,.23.28l.06.05C40.77,30.37,40.51,30.91,40.23,31.45Z"/><path class="cls-6" d="M22,1.45A20.53,20.53,0,0,0,8.79,37.71h0a20.52,20.52,0,0,0,31.44-6.27c.28-.54.54-1.08.77-1.65A20.55,20.55,0,0,0,22,1.45Zm18.71,28c-.22.56-.47,1.1-.74,1.63a20.27,20.27,0,0,1-4.79,6.12c-.16.15-.34.29-.51.43a20.1,20.1,0,0,1-25.46-.09l-.41-.35a20.15,20.15,0,1,1,31.91-7.74Z"/><path class="cls-6" d="M15.29,18.91a6.86,6.86,0,0,1,1-.34,4.66,4.66,0,0,1,.86-.14,3.72,3.72,0,0,1,.76,0,2.89,2.89,0,0,1,.67.2.94.94,0,0,1,.28.16A.37.37,0,0,1,19,19a.29.29,0,0,1,0,.22.64.64,0,0,1-.19.24,4.23,4.23,0,0,1,1.12-.14,2.53,2.53,0,0,1,.93.19,1.33,1.33,0,0,1,.48.31.39.39,0,0,1,.11.36.66.66,0,0,1-.27.39,2.72,2.72,0,0,1-.68.39l-2,.86-5-2.14Zm.19.66,1.24.53.61-.26a2.38,2.38,0,0,0,.32-.16.52.52,0,0,0,.17-.15.14.14,0,0,0,0-.15.52.52,0,0,0-.24-.16,1.75,1.75,0,0,0-.35-.11,1.22,1.22,0,0,0-.33,0l-.33.06a2.05,2.05,0,0,0-.37.13Zm4.09,1.05a1.21,1.21,0,0,0,.32-.19.18.18,0,0,0,.07-.16.17.17,0,0,0-.09-.14L19.66,20l-.28-.09a1.06,1.06,0,0,0-.31,0,1.48,1.48,0,0,0-.35.05,2,2,0,0,0-.41.14l-.81.34,1.25.54Z"/><path class="cls-6" d="M21.85,17a.12.12,0,0,1,0,.1.22.22,0,0,1-.1.08,1,1,0,0,1-.22.05l-.32,0-.38.06a1.71,1.71,0,0,0-.38.13c-.22.09-.34.18-.35.26s.06.17.22.23a.74.74,0,0,0,.34.07,2.22,2.22,0,0,0,.43,0l.49-.09.54-.12.59-.1a6,6,0,0,1,.61,0,3.36,3.36,0,0,1,.63.06,2.52,2.52,0,0,1,.63.19,1.55,1.55,0,0,1,.53.32.56.56,0,0,1,.18.38.55.55,0,0,1-.21.39,2.22,2.22,0,0,1-.63.38,4.61,4.61,0,0,1-.53.19l-.6.14c-.21,0-.42.07-.64.09s-.42,0-.61,0l-.2-.38a.1.1,0,0,1,0-.09.21.21,0,0,1,.1-.08.9.9,0,0,1,.28-.06l.38,0,.45-.07a2.14,2.14,0,0,0,.47-.15c.21-.09.33-.18.35-.27s-.06-.17-.26-.26a1,1,0,0,0-.39-.08l-.43,0c-.15,0-.31.06-.48.1l-.54.12a4.82,4.82,0,0,1-.57.1,4.07,4.07,0,0,1-.61.05,3.8,3.8,0,0,1-.66-.07,3.11,3.11,0,0,1-.68-.21,1.24,1.24,0,0,1-.44-.28.47.47,0,0,1-.14-.35.53.53,0,0,1,.2-.37,2,2,0,0,1,.61-.37l.48-.18.52-.13.54-.08.53,0Z"/><path class="cls-6" d="M23.64,15.34a5.57,5.57,0,0,1,1-.33,4.3,4.3,0,0,1,1-.12,4.2,4.2,0,0,1,.88.06,3.38,3.38,0,0,1,.76.23,2.08,2.08,0,0,1,.57.34.46.46,0,0,1,.17.39.72.72,0,0,1-.28.42,3.42,3.42,0,0,1-.77.44l-.61.26,1.68.71-1.17.5-5-2.14Zm2.46,1.05c.3-.13.45-.25.44-.37s-.15-.23-.41-.34a2.17,2.17,0,0,0-.36-.12,2.69,2.69,0,0,0-.4,0,2.15,2.15,0,0,0-.43,0,2.68,2.68,0,0,0-.43.14L23.9,16l1.59.68Z"/><path class="cls-6" d="M4.76,27.12,10,24.88,4.76,22.64,10,20.4,4.76,18.16l17.3-7.39,17.29,7.39L34.11,20.4l5.24,2.24-5.24,2.24,5.24,2.24-17.29,7.4Zm5.94-2.5.37.16,11,4.7,11-4.7.39-.17,4.61-2-4.59-2-5.2,2.22-6.2,2.65-11.4-4.87-4.59,2ZM22.06,25l16-6.83-16-6.84-16,6.84,9.86,4.21Z"/><path class="cls-6" d="M33.83,20.4l5.24-2.24-17-7.27-17,7.27,5.24,2.24L5.05,22.64l5.24,2.24L5.05,27.12l17,7.27,17-7.27-5.24-2.24,5.24-2.24Zm-28-2.24,16.28-7,16.28,7-4.88,2.08-.37.16-4.87,2.08-.37.16-5.79,2.47-5.79-2.47-.37-.16h0L11,20.4l-.37-.16Zm27.68,6.56h0l-.37.16-11,4.72L11,24.88l-.37-.16L5.78,22.64l4.88-2.08,4.88,2.08.36.16,6.16,2.63,6.16-2.63.36-.16,4.88-2.08,4.88,2.08Z"/></svg>