<svg xmlns="http://www.w3.org/2000/svg" viewBox="0 0 78.43 44.08"><defs><style>.cls-1{fill:#fff;}</style></defs><g id="map"><path class="cls-1" d="M58.09,13.38,64.28,1.67a1.12,1.12,0,0,0,.13-.53A1.14,1.14,0,0,0,62.27.6L56.06,12.35a39.46,39.46,0,0,0-33.62,0L16.15.6a1.12,1.12,0,0,0-1-.6,1.16,1.16,0,0,0-.54.13,1.14,1.14,0,0,0-.46,1.54l6.26,11.68A39.39,39.39,0,0,0,0,44.08H78.43A39.41,39.41,0,0,0,58.09,13.38ZM21,30.85a3.77,3.77,0,1,1,3.77-3.77A3.77,3.77,0,0,1,21,30.85Zm36.47,0a3.77,3.77,0,1,1,3.76-3.77A3.77,3.77,0,0,1,57.45,30.85Z"/></g></svg>