<svg xmlns="http://www.w3.org/2000/svg" viewBox="0 0 43.47 52.71"><defs><style>.cls-1{fill:#fff;}</style></defs><g id="map"><path class="cls-1" d="M30.75,11.2c-.73,4.08,1.05,7.08,3.45,9.89a22.78,22.78,0,0,1,5.27,9.57,10.57,10.57,0,0,1,0,5.3,1,1,0,0,0,.34,1.17,9.15,9.15,0,0,1,1.31,2.23,25.61,25.61,0,0,0,1.48,3c1.38,2,1.21,3.27-.89,4.33a19,19,0,0,0-5.9,4.16,5.6,5.6,0,0,1-4,1.84,3.89,3.89,0,0,1-4-2.3,1.17,1.17,0,0,0-1.3-.77,6,6,0,0,1-1.59-.14c-2.63-.62-5.19,0-7.76.39a.7.7,0,0,0-.44.25c-1.65,2.5-4,2.26-6.41,1.59-1.36-.39-2.63-1.09-4-1.46a36.68,36.68,0,0,0-3.8-.61C.31,49.28-.29,48.27.12,46.09A12.15,12.15,0,0,0,.3,42.85c-.19-2.26.25-3.23,2.39-3.91,1.54-.48,2.16-1.8,3.09-2.84.1-.1.09-.33.08-.5a15,15,0,0,1,2.44-9A58.09,58.09,0,0,1,12.16,21a12.71,12.71,0,0,0,2.63-8.8A33.35,33.35,0,0,1,15,5.8,6.36,6.36,0,0,1,20.89.12a13.07,13.07,0,0,1,3.95.06C28,.76,29.52,3,30.12,6,30.48,7.72,30.56,9.55,30.75,11.2ZM11.87,24.63a15.22,15.22,0,0,0-2.7,5.86c-.58,3,.28,4.91,2.82,6.58a9.88,9.88,0,0,1,1.9,1.39,18.26,18.26,0,0,1,2.52,3.25c.54.95.09,1.59-.95,2-.18.06-.35.15-.85.37a16.67,16.67,0,0,0,3.08,2.52c3.55,1.67,6.89.81,10-1.23a1.4,1.4,0,0,0,.53-.86c.3-1.79.54-3.59.8-5.38.23-1.52.57-3,2.07-3.8a1.11,1.11,0,0,0,.4-.56C32,33.46,32.72,33,34,33.43c1.66.55,3.58.87,3.91,3.33a1.46,1.46,0,0,0-.19-2.07,8,8,0,0,0-1.92-1.35c-.63-.31-.71-.67-.66-1.33.27-3.57-1.37-6.33-3.83-8.72C33.51,26,35,28.86,34,32.43c-1,.21-1.24-.16-1.38-.9A12,12,0,0,0,31.87,29c-.83-1.93-1.8-3.8-2.61-5.74-1-2.35-1.83-4.75-2.7-7-1.47.8-3,1.71-4.53,2.44a3.43,3.43,0,0,1-3.9-.56c-.52-.45-1.08-.84-1.44-1.11-1,2.69-1.76,5.34-2.83,7.89C12.56,28,11,31,10.75,34.38,8.69,30.86,10.43,27.78,11.87,24.63Zm.39,26.89c3.65,0,5.08-2.48,3.55-5.14-.29-.49-.65-.94-1-1.42-1.41-2.18-2.81-4.37-4.22-6.56-.17-.26-.3-.57-.48-.83-1.49-2.06-3.06-2-4.66-.09a6.7,6.7,0,0,1-2.33,1.91C1,40.34.7,40.84,1,43.14a7,7,0,0,1-.1,2.62c-.59,2.3-.21,3,2.13,3.37.21,0,.43,0,.64.06a16.15,16.15,0,0,1,5.57,1.4A17.25,17.25,0,0,0,12.26,51.52ZM31.34,35.93a3.78,3.78,0,0,0-1.61,3.12,31.49,31.49,0,0,1-1.41,7.76,6.45,6.45,0,0,0-.27,1.58A3.28,3.28,0,0,0,32,52a7.17,7.17,0,0,0,3.45-1.74,20.16,20.16,0,0,1,5.93-4.11c1.77-.85,2-1.74.72-3.28a8.11,8.11,0,0,1-1.62-3.43c-.55-2.33-2-2.86-4-1.48-2.47,1.8-4.19,1.23-5-1.66C31.44,36.21,31.4,36.11,31.34,35.93ZM20.61,18.77a15.75,15.75,0,0,0,5.6-3c.84-.8.53-1.77-.59-2.32s-2.45-1.16-3.69-1.68a3.4,3.4,0,0,0-3.71.57c-.6.51-1.22,1-1.83,1.48-1,.78-1.1,1.45-.19,2.29a24.79,24.79,0,0,0,2.88,2.22A5.77,5.77,0,0,0,20.61,18.77Zm2.06-7.21a2.83,2.83,0,0,1,.17-1,11.85,11.85,0,0,1,1.1-1.25c.36.46.91.89,1,1.4a6.29,6.29,0,0,1-.24,2l1,.36a3.57,3.57,0,0,0,.76-3.32A2.89,2.89,0,0,0,24,7.19,2.89,2.89,0,0,0,21.45,9.6C21.11,10.93,21.25,11.17,22.67,11.56ZM17,13.08a6.47,6.47,0,0,0,.06-.87,9.49,9.49,0,0,1-.19-1.65c0-.3.41-.57.63-.85a3.56,3.56,0,0,1,.78.77,4,4,0,0,1,.25,1.09c1.06-.41,1.11-.42.93-1.38a4.3,4.3,0,0,0-.63-1.66,1.45,1.45,0,0,0-2.66.13A3.59,3.59,0,0,0,17,13.08Z"/></g></svg>