<svg xmlns="http://www.w3.org/2000/svg" viewBox="0 0 138.93 145.96"><defs><style>.cls-1,.cls-3{fill:#fff;}.cls-1{opacity:0.2;}.cls-2{fill:#9c3;}</style></defs><g id="map"><polygon class="cls-1" points="138.93 0 138.93 125.71 134.65 125.71 134.65 4.28 4.28 4.28 4.28 138.5 106.35 138.5 106.35 142.77 0 142.77 0 0 138.93 0"/><polygon class="cls-2" points="122.36 140.63 113.13 135.31 113.13 145.96 122.36 140.63"/><polygon class="cls-2" points="136.54 140.63 127.31 135.31 127.31 145.96 136.54 140.63"/><path class="cls-3" d="M90.88,112.6h-39A2.58,2.58,0,0,1,49.26,110V80.82a2.59,2.59,0,0,1,2.58-2.59h4.65V70.72a14.88,14.88,0,0,1,29.74-.15v7.66h4.65a2.59,2.59,0,0,1,2.58,2.59V110A2.58,2.58,0,0,1,90.88,112.6Zm-39-33.42a1.63,1.63,0,0,0-1.63,1.64V110a1.64,1.64,0,0,0,1.63,1.64h39A1.64,1.64,0,0,0,92.51,110V80.82a1.63,1.63,0,0,0-1.63-1.64H85.29V70.59a13.94,13.94,0,0,0-27.86.15v8.44Z"/><path class="cls-3" d="M76,103.07H66.68l2.5-7.82A4.93,4.93,0,1,1,75.78,93a5,5,0,0,1-2.23,2.23Z"/><path class="cls-3" d="M81.52,79.18H61.22V70.57a10.15,10.15,0,0,1,20.29,0Zm-19.35-1h18.4V70.6a9.2,9.2,0,0,0-18.39,0Z"/></g></svg>