<svg xmlns="http://www.w3.org/2000/svg" viewBox="0 0 70.4 53.64"><defs><style>.cls-1{fill:#fff;}</style></defs><g id="map"><path class="cls-1" d="M65.83,18.5a16.4,16.4,0,0,0-10.35-5A21.41,21.41,0,0,0,35.53,0,22.24,22.24,0,0,0,15.18,13.53,17,17,0,0,0,0,30.16,16.46,16.46,0,0,0,16.49,46.94H53.68A16.94,16.94,0,0,0,70.4,30.21,16.41,16.41,0,0,0,65.83,18.5ZM53.68,45.29H16.49A14.8,14.8,0,0,1,1.65,30.18,15.39,15.39,0,0,1,16.33,15.1,20.56,20.56,0,0,1,35.53,1.64,19.75,19.75,0,0,1,54.31,15.1,14.79,14.79,0,0,1,68.76,30.18,15.31,15.31,0,0,1,53.68,45.29Z"/><rect class="cls-1" x="19.33" y="49.6" width="4.39" height="4.04" rx="0.54"/><path class="cls-1" d="M31.27,35.34A1.23,1.23,0,0,0,30,34.11H22.52V32.52H30a1.23,1.23,0,0,0,1.23-1.23V28.71A1.23,1.23,0,0,0,30,27.48H22.52v-1.6H30a1.23,1.23,0,0,0,1.23-1.23V22.08A1.23,1.23,0,0,0,30,20.86H13.53a1.23,1.23,0,0,0-1.23,1.22v2.59a1.23,1.23,0,0,0,1.23,1.22h7v1.6h-7a1.23,1.23,0,0,0-1.23,1.22v2.58a1.23,1.23,0,0,0,1.23,1.23h7v1.59h-7a1.23,1.23,0,0,0-1.23,1.23v2.58a1.24,1.24,0,0,0,1.23,1.23h7V53.06h1.95V39.14H30a1.23,1.23,0,0,0,1.23-1.22ZM30,28.6a.11.11,0,0,1,.11.11v2.58a.11.11,0,0,1-.11.11H27.3V28.6ZM27.29,22H30a.11.11,0,0,1,.11.11v2.58a.1.1,0,0,1-.11.11H27.29Zm2.86,16A.11.11,0,0,1,30,38H27.3v-2.8H30a.11.11,0,0,1,.11.11Z"/><rect class="cls-1" x="46.16" y="49.6" width="4.39" height="4.04" rx="0.54"/><path class="cls-1" d="M58.1,35.34a1.23,1.23,0,0,0-1.22-1.23H49.35V32.52h7.53a1.23,1.23,0,0,0,1.22-1.23V28.71a1.23,1.23,0,0,0-1.22-1.23H49.35v-1.6h7.53a1.23,1.23,0,0,0,1.22-1.23V22.08a1.22,1.22,0,0,0-1.22-1.22H40.36a1.22,1.22,0,0,0-1.22,1.22v2.59a1.22,1.22,0,0,0,1.22,1.22h7v1.6h-7a1.22,1.22,0,0,0-1.22,1.22v2.58a1.22,1.22,0,0,0,1.22,1.23h7v1.59h-7a1.22,1.22,0,0,0-1.22,1.23v2.58a1.23,1.23,0,0,0,1.22,1.23h7V53.06h2V39.14h7.53a1.22,1.22,0,0,0,1.22-1.22ZM56.88,28.6a.11.11,0,0,1,.11.11v2.58a.11.11,0,0,1-.11.11H54.13V28.6ZM54.13,22h2.75a.11.11,0,0,1,.11.11v2.58a.1.1,0,0,1-.11.11H54.13Zm2.86,16a.11.11,0,0,1-.11.11H54.13v-2.8h2.75a.11.11,0,0,1,.11.11Z"/></g></svg>