<svg xmlns="http://www.w3.org/2000/svg" viewBox="0 0 95 75"><defs><style>.cls-1,.cls-3{opacity:0.6;}.cls-2{fill:#909;}.cls-4{fill:#666;}</style></defs><g id="upper"><path class="cls-1" d="M93.52,40.93a22.36,22.36,0,0,1-8.2,16.94V55a20.17,20.17,0,0,0,6.05-14.08A19.33,19.33,0,0,0,72.48,21.17,25.82,25.82,0,0,0,47.93,3.58a26.85,26.85,0,0,0-25.1,17.59A20.14,20.14,0,0,0,3.63,40.89,19.4,19.4,0,0,0,9.68,55.35v2.84a21.54,21.54,0,0,1-8.2-17.33A22.23,22.23,0,0,1,21.33,19.13a29,29,0,0,1,26.6-17.7A28,28,0,0,1,74,19.1,21.49,21.49,0,0,1,93.52,40.93Z"/><path d="M92.53,56.3a21.14,21.14,0,0,1-14.22,12l-.1,0a22.57,22.57,0,0,1-4.57.47H70.92V67.55h2.72a21.36,21.36,0,0,0,15-6.15A22.47,22.47,0,0,0,92.53,56.3Z"/><path d="M9.68,64.09v1.18a20.14,20.14,0,0,1-7.2-9A21.39,21.39,0,0,0,9.68,64.09Z"/><path class="cls-2" d="M78.53,29.66H65.27a3,3,0,0,0-3,3V60.42a3,3,0,0,0,3,3H78.53a3,3,0,0,0,3-3V32.63A3,3,0,0,0,78.53,29.66Zm-8.48.55a.87.87,0,1,1-.86.87A.87.87,0,0,1,70.05,30.21ZM80.14,60.42A1.6,1.6,0,0,1,78.53,62H65.27a1.6,1.6,0,0,1-1.6-1.6V32.63a1.6,1.6,0,0,1,1.6-1.6h2.64v.61a.92.92,0,0,0,.92.91H75a.91.91,0,0,0,.91-.91V31h2.64a1.61,1.61,0,0,1,1.61,1.6Z"/><rect class="cls-2" x="67.54" y="59.73" width="8.73" height="0.79" rx="0.39"/><g class="cls-3"><path class="cls-4" d="M61.2,73.57H10.8a3.48,3.48,0,0,1-3.4-3.29l0-.58H64.64l0,.58a3.67,3.67,0,0,1-1,2.24A3.33,3.33,0,0,1,61.2,73.57ZM8.58,70.78a2.37,2.37,0,0,0,2.22,1.71H61.2a2.25,2.25,0,0,0,1.64-.71,2.53,2.53,0,0,0,.58-1Z"/><path class="cls-4" d="M39.9,70.72a1.23,1.23,0,0,1-.11.5c-.08.14-.18.23-.29.23h-7c-.21,0-.38-.32-.4-.73Z"/><path class="cls-4" d="M39.5,71.55h-7c-.27,0-.48-.35-.5-.83v-.1h8v.1a1.43,1.43,0,0,1-.13.54A.45.45,0,0,1,39.5,71.55Zm-7.29-.73c0,.32.17.53.29.53h7c.07,0,.14-.07.19-.18a.9.9,0,0,0,.1-.35Z"/><path class="cls-4" d="M55.31,38H16.7a2.46,2.46,0,0,0-2.46,2.46V65.67a2.46,2.46,0,0,0,2.46,2.46H55.31a2.47,2.47,0,0,0,2.46-2.46V40.46A2.46,2.46,0,0,0,55.31,38ZM36,38.39a.77.77,0,1,1-.76.76A.76.76,0,0,1,36,38.39ZM55.46,66.08H16.54V40.26H55.46Z"/></g></g></svg>