<svg xmlns="http://www.w3.org/2000/svg" viewBox="0 0 72.45 70.18"><defs><style>.cls-1{fill:#fff;}</style></defs><g id="map"><path d="M57,64,50.3,67.58l-1.45.79L46.19,65c-1-1.32-2.06-2.62-3.12-3.93a2.43,2.43,0,0,0-1.68-.87h-.33c-.84.06-1.68.15-2.51.24L37,60.58a2.29,2.29,0,0,0-1.89,1.35Q33.06,66.07,31,70.18L22.2,67.53c0-.6.09-1.18.16-1.75.28-2.44.58-4.88.88-7.31a2.43,2.43,0,0,0-1-2.39c-.86-.67-1.71-1.39-2.54-2.08l-.42-.35A2.19,2.19,0,0,0,18,53.1a2.22,2.22,0,0,0-.94.12L10.51,55.4l-2.25.74L3.91,48,7.1,45.5c1.4-1.1,2.79-2.2,4.17-3.32a2.15,2.15,0,0,0,.82-1.82c-.12-1.44-.26-2.89-.42-4.28a2.27,2.27,0,0,0-1.17-1.7q-4.19-2.13-8.39-4.24l.48-1.53c.12-.42.25-.83.38-1.25a16.82,16.82,0,0,0,2.94,2,9.1,9.1,0,0,0,1,.49,18.17,18.17,0,0,0,6.24,1.64A18.9,18.9,0,0,0,19,31.09l1.27,1.29A14.42,14.42,0,0,0,20,34.26,16.68,16.68,0,0,0,41,51.77l.61.46c.93.73,1.86,1.43,2.78,2.12,3.88,2.89,7.69,5.48,11.31,7.72l.76.47c.08.22.16.45.22.66Z"/><path d="M71,41.31c-.19.64-.38,1.26-.56,1.9l-.74,2.4c-.29,1-.59,2-.89,3L68.18,48c-2.94-2.84-6.25-5.78-9.85-8.73-1.38-1.14-2.66-2.14-3.91-3.1l-.53-.41-.67-.51A16.48,16.48,0,0,0,49.29,25,16.65,16.65,0,0,0,38,19.14H37.8a16.17,16.17,0,0,0-5.58.5,15.91,15.91,0,0,0,1-4.38,16,16,0,0,0-.14-4.1l.49-.05c.73-.07,1.45-.15,2.18-.2a2.68,2.68,0,0,0,2.35-1.57c1.13-2.28,2.28-4.55,3.43-6.81l.63-1.24h0l2.76.82,2.41.72L51,3.92c-.35,2.93-.71,6-1.1,9.32a2.36,2.36,0,0,0,.79,2c1.09.92,2.18,1.81,3.26,2.66a2.27,2.27,0,0,0,1.2.45,2.5,2.5,0,0,0,.87-.09c2.08-.67,4.15-1.36,6.23-2l2.65-.86,4.35,8.11-.55.44-1.86,1.48c-1.65,1.3-3.3,2.59-4.94,3.9A2.22,2.22,0,0,0,61,31.09c.13,1.59.27,3.05.43,4.44a2.14,2.14,0,0,0,1.24,1.6q3.45,1.74,6.89,3.49Z"/><path class="cls-1" d="M72.38,57.87a5,5,0,0,0-.42-1.4h0a5.23,5.23,0,0,0-1.07-1.56L71,55c-1.4-1.57-3-3.22-4.78-4.93L66,49.87c-2.79-2.7-6-5.55-9.52-8.43-1.15-.94-2.32-1.88-3.55-2.82l-.26-.2L52.16,38A162.81,162.81,0,0,0,36.45,27.31q-1.62-1-3.15-1.8L31.45,23.6l-2.58-2.66-.25-.26A14,14,0,0,0,30.35,15a13.22,13.22,0,0,0-2.09-8.46c-.28-.39-.55-.79-.85-1.15-.13-.16-.27-.32-.41-.47A15.08,15.08,0,0,0,15.48,0l3.74,5.78,1.36,2.11h0l1.5,2.31a4.27,4.27,0,0,1,0,4.57,4.85,4.85,0,0,1-1.65,1.66l-1.36.81-4.3,2.56s0,0,0,0a5.06,5.06,0,0,1-4.31.38,4.77,4.77,0,0,1-.69-.32,4.22,4.22,0,0,1-1.5-1.41L1.67,8.27A13.66,13.66,0,0,0,2.16,22.2a13.86,13.86,0,0,0,5.07,4.65,6.89,6.89,0,0,0,.82.4,15.9,15.9,0,0,0,10.49,1c.44-.11.87-.23,1.3-.38l1.36,1.39,2.36,2.41c.56.68,1.16,1.38,1.83,2.08h0c1,1.07,2,2.18,3.17,3.31A150.21,150.21,0,0,0,40.78,47.92c.84.69,1.72,1.38,2.6,2,.25.2.5.39.76.57l2,1.52c3.07,2.28,6.08,4.36,8.95,6.21.72.47,1.44.92,2.15,1.36,2.44,1.51,4.76,2.85,6.9,4-.07-.05-.09-.1-.14-.14a5,5,0,0,0,1.73.64h0a4.33,4.33,0,0,0,1,.1,5.6,5.6,0,0,0,4.49-2.1A5.32,5.32,0,0,0,72.38,57.87Z"/></g></svg>