<svg xmlns="http://www.w3.org/2000/svg" viewBox="0 0 222.07 183.3"><defs><style>.cls-1{fill:#0cb2dd;}.cls-11,.cls-2,.cls-5{fill:#fff;}.cls-3{opacity:0.7;}.cls-4{opacity:0.4;}.cls-5{font-size:8.97px;}.cls-11,.cls-5{font-family:Lato-Heavy, Lato;font-weight:800;}.cls-6{letter-spacing:-0.06em;}.cls-7{letter-spacing:-0.03em;}.cls-8{letter-spacing:-0.03em;}.cls-9{letter-spacing:-0.01em;}.cls-10{letter-spacing:-0.05em;}.cls-11{font-size:12.29px;}</style></defs><g id="map"><rect class="cls-1" x="0.45" y="0.42" width="221.3" height="182.66" rx="4.43"/><path class="cls-2" d="M26.74,20.64a6.47,6.47,0,0,1-.47,2.47A5.66,5.66,0,0,1,25,25.06a5.84,5.84,0,0,1-2,1.29,7.07,7.07,0,0,1-2.62.46H15.54V14.47h4.79a7.07,7.07,0,0,1,2.62.47,6,6,0,0,1,2,1.28,5.6,5.6,0,0,1,1.3,2A6.38,6.38,0,0,1,26.74,20.64Zm-2.93,0A5.3,5.3,0,0,0,23.57,19a3.57,3.57,0,0,0-.68-1.25A2.86,2.86,0,0,0,21.8,17a3.78,3.78,0,0,0-1.47-.28H18.42v7.94h1.91a3.6,3.6,0,0,0,1.47-.28,3,3,0,0,0,1.09-.78,3.76,3.76,0,0,0,.68-1.25A5.37,5.37,0,0,0,23.81,20.64Z"/><path class="cls-2" d="M30.18,22.89a2.53,2.53,0,0,0,.67,1.6,2,2,0,0,0,1.4.49,2.32,2.32,0,0,0,.79-.11,4,4,0,0,0,.59-.24l.47-.25a1,1,0,0,1,.45-.11.56.56,0,0,1,.48.23l.76.94a3.91,3.91,0,0,1-.88.76,4.69,4.69,0,0,1-1,.46,5,5,0,0,1-1,.22A6.35,6.35,0,0,1,32,27a5,5,0,0,1-1.73-.3,3.87,3.87,0,0,1-1.41-.9,4,4,0,0,1-1-1.47,5.4,5.4,0,0,1-.35-2.05,4.66,4.66,0,0,1,.3-1.67,4.28,4.28,0,0,1,.86-1.38,4,4,0,0,1,1.37-.94,4.84,4.84,0,0,1,3.4-.08,3.6,3.6,0,0,1,1.25.79,3.84,3.84,0,0,1,.81,1.27,4.73,4.73,0,0,1,.29,1.7c0,.19,0,.35,0,.48a.81.81,0,0,1-.1.3.34.34,0,0,1-.18.15.81.81,0,0,1-.29,0Zm3.31-1.52a2.43,2.43,0,0,0-.08-.61,1.4,1.4,0,0,0-.27-.53,1.36,1.36,0,0,0-.47-.38,1.81,1.81,0,0,0-1.89.28,2.2,2.2,0,0,0-.56,1.24Z"/><path class="cls-2" d="M45.11,14.13V26.81H43.48a.61.61,0,0,1-.64-.44l-.21-.67a3.78,3.78,0,0,1-.55.51,3.6,3.6,0,0,1-.62.39,3.23,3.23,0,0,1-.72.26,3.64,3.64,0,0,1-.83.09,2.62,2.62,0,0,1-1.27-.31,2.81,2.81,0,0,1-1-.88A4.4,4.4,0,0,1,37,24.35a6.85,6.85,0,0,1-.24-1.9A6,6,0,0,1,37,20.62a4.46,4.46,0,0,1,.77-1.45,3.56,3.56,0,0,1,1.19-1,3.25,3.25,0,0,1,1.53-.35,2.77,2.77,0,0,1,2,.72V14.13Zm-2.63,6.25a1.7,1.7,0,0,0-.64-.46,2,2,0,0,0-.73-.13,1.64,1.64,0,0,0-.67.14,1.38,1.38,0,0,0-.53.47,2.3,2.3,0,0,0-.35.82,5.39,5.39,0,0,0-.13,1.23,6.38,6.38,0,0,0,.1,1.17,2.37,2.37,0,0,0,.29.76,1.07,1.07,0,0,0,.43.42,1.2,1.2,0,0,0,.57.13,2.7,2.7,0,0,0,.52-.05,1.82,1.82,0,0,0,.43-.16,1.78,1.78,0,0,0,.37-.26,3,3,0,0,0,.34-.36Z"/><path class="cls-2" d="M49.84,15.62a1.45,1.45,0,0,1-.12.59,1.52,1.52,0,0,1-.35.48,1.72,1.72,0,0,1-.51.33,1.51,1.51,0,0,1-.63.13,1.38,1.38,0,0,1-.6-.13,1.63,1.63,0,0,1-.49-.33,1.36,1.36,0,0,1-.34-.48,1.45,1.45,0,0,1-.13-.59,1.54,1.54,0,0,1,.13-.6,1.39,1.39,0,0,1,.34-.49,1.63,1.63,0,0,1,.49-.33,1.53,1.53,0,0,1,.6-.12,1.68,1.68,0,0,1,.63.12,1.72,1.72,0,0,1,.51.33,1.57,1.57,0,0,1,.35.49A1.53,1.53,0,0,1,49.84,15.62ZM49.57,18v8.78H47V18Z"/><path class="cls-2" d="M57.86,20.11a1.22,1.22,0,0,1-.22.23.51.51,0,0,1-.32.09.68.68,0,0,1-.35-.1l-.35-.21a2.88,2.88,0,0,0-.46-.2,1.74,1.74,0,0,0-.65-.1,1.86,1.86,0,0,0-.84.18,1.66,1.66,0,0,0-.58.51,2.3,2.3,0,0,0-.33.81,4.49,4.49,0,0,0-.11,1.08,3.33,3.33,0,0,0,.48,1.94,1.59,1.59,0,0,0,1.35.68,1.8,1.8,0,0,0,.72-.12,1.9,1.9,0,0,0,.45-.25l.35-.26a.61.61,0,0,1,.39-.12.53.53,0,0,1,.47.23l.77.94a4.31,4.31,0,0,1-.86.76,4.4,4.4,0,0,1-.92.46,4.57,4.57,0,0,1-.94.22A6,6,0,0,1,55,27a3.84,3.84,0,0,1-1.53-.31,3.8,3.8,0,0,1-1.29-.88,4.37,4.37,0,0,1-.88-1.43A5.28,5.28,0,0,1,51,22.4a5.45,5.45,0,0,1,.29-1.78,4.07,4.07,0,0,1,.83-1.43,3.91,3.91,0,0,1,1.38-1,4.79,4.79,0,0,1,1.89-.35,4.6,4.6,0,0,1,1.81.33,4.29,4.29,0,0,1,1.41,1Z"/><path class="cls-2" d="M59.46,19.25a5.38,5.38,0,0,1,1.76-1.05,6.17,6.17,0,0,1,2.08-.34,3.69,3.69,0,0,1,1.44.26,3,3,0,0,1,1.08.72,2.92,2.92,0,0,1,.68,1.09,3.94,3.94,0,0,1,.24,1.39v5.49h-1.2a1.24,1.24,0,0,1-.57-.1.8.8,0,0,1-.31-.42l-.19-.49c-.22.19-.43.35-.63.5a4.53,4.53,0,0,1-.64.36,3.49,3.49,0,0,1-.69.22,5.12,5.12,0,0,1-.82.07,3.42,3.42,0,0,1-1.09-.16,2.16,2.16,0,0,1-.83-.46,2,2,0,0,1-.53-.76,2.62,2.62,0,0,1-.19-1.05,2.19,2.19,0,0,1,.24-1,2.43,2.43,0,0,1,.82-.89A5.39,5.39,0,0,1,61.68,22a10.54,10.54,0,0,1,2.5-.3v-.38a1.62,1.62,0,0,0-.31-1.11,1.19,1.19,0,0,0-.91-.34,2.33,2.33,0,0,0-.76.1,3.25,3.25,0,0,0-.53.23l-.45.23a1.39,1.39,0,0,1-.53.1.73.73,0,0,1-.45-.14,1.18,1.18,0,0,1-.31-.32Zm4.72,4a9.6,9.6,0,0,0-1.29.13,3.35,3.35,0,0,0-.81.26,1,1,0,0,0-.41.34.92.92,0,0,0-.11.43.74.74,0,0,0,.24.63,1.24,1.24,0,0,0,.72.18,2,2,0,0,0,.89-.18,2.73,2.73,0,0,0,.77-.57Z"/><path class="cls-2" d="M71.42,27a3.13,3.13,0,0,1-1.1-.18,2.4,2.4,0,0,1-.81-.52,2.2,2.2,0,0,1-.49-.81,3.23,3.23,0,0,1-.17-1.06V19.84H68.1a.47.47,0,0,1-.34-.13.5.5,0,0,1-.15-.39v-1L69,18l.52-2.14a.52.52,0,0,1,.57-.41h1.38V18h2.17v1.8H71.48V24.2a.9.9,0,0,0,.14.51.52.52,0,0,0,.43.2.78.78,0,0,0,.24,0l.17-.07.14-.07a.33.33,0,0,1,.15,0,.29.29,0,0,1,.19.06.66.66,0,0,1,.14.17l.8,1.25a3.81,3.81,0,0,1-1.14.57A4.84,4.84,0,0,1,71.42,27Z"/><path class="cls-2" d="M76.86,22.89a2.53,2.53,0,0,0,.67,1.6,2,2,0,0,0,1.4.49,2.36,2.36,0,0,0,.79-.11,4,4,0,0,0,.59-.24l.47-.25a1,1,0,0,1,.45-.11.56.56,0,0,1,.48.23l.76.94a3.91,3.91,0,0,1-.88.76,4.69,4.69,0,0,1-1,.46,5,5,0,0,1-1,.22,6.35,6.35,0,0,1-1,.07,5,5,0,0,1-1.73-.3,3.87,3.87,0,0,1-1.41-.9,4,4,0,0,1-1-1.47,5.4,5.4,0,0,1-.35-2.05,4.66,4.66,0,0,1,.3-1.67,4.28,4.28,0,0,1,.86-1.38,4,4,0,0,1,1.37-.94,4.84,4.84,0,0,1,3.4-.08,3.6,3.6,0,0,1,1.25.79,3.84,3.84,0,0,1,.81,1.27,4.73,4.73,0,0,1,.29,1.7c0,.19,0,.35,0,.48a.81.81,0,0,1-.1.3.34.34,0,0,1-.18.15.81.81,0,0,1-.29,0Zm3.31-1.52a2.43,2.43,0,0,0-.08-.61,1.56,1.56,0,0,0-.27-.53,1.31,1.31,0,0,0-.48-.38,1.54,1.54,0,0,0-.72-.15,1.58,1.58,0,0,0-1.16.43,2.2,2.2,0,0,0-.56,1.24Z"/><path class="cls-2" d="M91.79,14.13V26.81H90.16a.61.61,0,0,1-.64-.44l-.21-.67a3.78,3.78,0,0,1-.55.51,3.6,3.6,0,0,1-.62.39,3.23,3.23,0,0,1-.72.26,3.64,3.64,0,0,1-.83.09,2.62,2.62,0,0,1-1.27-.31,2.81,2.81,0,0,1-1-.88,4.4,4.4,0,0,1-.67-1.41,6.85,6.85,0,0,1-.24-1.9,6,6,0,0,1,.27-1.83,4.46,4.46,0,0,1,.77-1.45,3.56,3.56,0,0,1,1.19-1,3.25,3.25,0,0,1,1.53-.35,2.77,2.77,0,0,1,2,.72V14.13Zm-2.63,6.25a1.7,1.7,0,0,0-.64-.46,2,2,0,0,0-.73-.13,1.64,1.64,0,0,0-.67.14,1.38,1.38,0,0,0-.53.47,2.3,2.3,0,0,0-.35.82,4.88,4.88,0,0,0-.13,1.23,6.38,6.38,0,0,0,.1,1.17,2.37,2.37,0,0,0,.29.76,1,1,0,0,0,.43.42,1.2,1.2,0,0,0,.57.13,2.7,2.7,0,0,0,.52-.05,1.82,1.82,0,0,0,.43-.16,1.78,1.78,0,0,0,.37-.26,3,3,0,0,0,.34-.36Z"/><path class="cls-2" d="M105.22,24.52v2.29H97.78V14.47h2.87v10Z"/><path class="cls-2" d="M106.18,19.25a5.38,5.38,0,0,1,1.76-1.05,6.17,6.17,0,0,1,2.08-.34,3.69,3.69,0,0,1,1.44.26,2.93,2.93,0,0,1,1.08.72,3.07,3.07,0,0,1,.69,1.09,4.18,4.18,0,0,1,.23,1.39v5.49h-1.2a1.17,1.17,0,0,1-.56-.1.76.76,0,0,1-.32-.42l-.19-.49c-.22.19-.43.35-.63.5a5.06,5.06,0,0,1-.63.36,3.81,3.81,0,0,1-.7.22,5,5,0,0,1-.82.07,3.42,3.42,0,0,1-1.09-.16,2.23,2.23,0,0,1-.83-.46,2,2,0,0,1-.53-.76,2.62,2.62,0,0,1-.19-1.05,2.19,2.19,0,0,1,.24-1,2.43,2.43,0,0,1,.82-.89,5.35,5.35,0,0,1,1.58-.67,10.45,10.45,0,0,1,2.49-.3v-.38a1.62,1.62,0,0,0-.31-1.11,1.18,1.18,0,0,0-.91-.34,2.33,2.33,0,0,0-.76.1,3.25,3.25,0,0,0-.53.23l-.45.23a1.39,1.39,0,0,1-.53.1.73.73,0,0,1-.45-.14,1.18,1.18,0,0,1-.31-.32Zm4.72,4a9.6,9.6,0,0,0-1.29.13,3.35,3.35,0,0,0-.81.26,1,1,0,0,0-.41.34.92.92,0,0,0-.11.43.74.74,0,0,0,.24.63,1.24,1.24,0,0,0,.72.18,2,2,0,0,0,.89-.18,2.73,2.73,0,0,0,.77-.57Z"/><path class="cls-2" d="M117.56,19a5.37,5.37,0,0,1,.53-.44,3.08,3.08,0,0,1,.58-.35,4,4,0,0,1,.67-.22,3.81,3.81,0,0,1,.78-.08,3.16,3.16,0,0,1,1.27.25,2.64,2.64,0,0,1,.94.7,3,3,0,0,1,.58,1.06,4.36,4.36,0,0,1,.19,1.33v5.58h-2.62V21.23a1.51,1.51,0,0,0-.3-1,1.07,1.07,0,0,0-.87-.36,1.85,1.85,0,0,0-.81.18,3.33,3.33,0,0,0-.73.49v6.27h-2.63V18h1.63a.62.62,0,0,1,.64.44Z"/><path class="cls-2" d="M132.75,14.13V26.81h-1.63a.62.62,0,0,1-.64-.44l-.2-.67a5.2,5.2,0,0,1-.55.51,3.68,3.68,0,0,1-.63.39,3.23,3.23,0,0,1-.72.26,3.58,3.58,0,0,1-.83.09,2.62,2.62,0,0,1-1.27-.31,2.81,2.81,0,0,1-1-.88,4.62,4.62,0,0,1-.67-1.41,6.85,6.85,0,0,1-.24-1.9,6,6,0,0,1,.27-1.83,4.66,4.66,0,0,1,.77-1.45,3.56,3.56,0,0,1,1.19-1,3.28,3.28,0,0,1,1.53-.35,3,3,0,0,1,1.16.19,3.06,3.06,0,0,1,.84.53V14.13Zm-2.63,6.25a1.63,1.63,0,0,0-.64-.46,2,2,0,0,0-.73-.13,1.64,1.64,0,0,0-.67.14,1.38,1.38,0,0,0-.53.47,2.5,2.5,0,0,0-.35.82,5.39,5.39,0,0,0-.13,1.23,5.54,5.54,0,0,0,.11,1.17,2.16,2.16,0,0,0,.28.76,1,1,0,0,0,.44.42,1.16,1.16,0,0,0,.56.13,2.7,2.7,0,0,0,.52-.05,1.82,1.82,0,0,0,.43-.16,1.78,1.78,0,0,0,.37-.26,2.36,2.36,0,0,0,.34-.36Z"/><path class="cls-2" d="M137.48,15.62a1.45,1.45,0,0,1-.12.59,1.52,1.52,0,0,1-.35.48,1.72,1.72,0,0,1-.51.33,1.51,1.51,0,0,1-.63.13,1.38,1.38,0,0,1-.6-.13,1.63,1.63,0,0,1-.49-.33,1.36,1.36,0,0,1-.34-.48,1.45,1.45,0,0,1-.12-.59,1.53,1.53,0,0,1,.12-.6,1.39,1.39,0,0,1,.34-.49,1.63,1.63,0,0,1,.49-.33,1.53,1.53,0,0,1,.6-.12,1.68,1.68,0,0,1,.63.12,1.72,1.72,0,0,1,.51.33,1.57,1.57,0,0,1,.35.49A1.53,1.53,0,0,1,137.48,15.62ZM137.21,18v8.78h-2.62V18Z"/><path class="cls-2" d="M141.47,19a5.37,5.37,0,0,1,.53-.44,3.08,3.08,0,0,1,.58-.35,4,4,0,0,1,.67-.22,3.81,3.81,0,0,1,.78-.08,3.21,3.21,0,0,1,1.28.25,2.6,2.6,0,0,1,.93.7,2.87,2.87,0,0,1,.58,1.06,4.36,4.36,0,0,1,.19,1.33v5.58h-2.62V21.23a1.51,1.51,0,0,0-.3-1,1.07,1.07,0,0,0-.87-.36,1.85,1.85,0,0,0-.81.18,3.33,3.33,0,0,0-.73.49v6.27h-2.63V18h1.63a.62.62,0,0,1,.64.44Z"/><path class="cls-2" d="M156.68,18.3v1a.44.44,0,0,1-.13.34.83.83,0,0,1-.41.2l-.64.14c0,.13.06.25.08.38a2.73,2.73,0,0,1,0,.41,2.46,2.46,0,0,1-.28,1.19,2.66,2.66,0,0,1-.75.89,3.53,3.53,0,0,1-1.13.57,4.83,4.83,0,0,1-1.4.2l-.4,0-.38,0a.49.49,0,0,0-.28.39.32.32,0,0,0,.23.32,2.27,2.27,0,0,0,.63.14l.88.05c.34,0,.67,0,1,.06a8.48,8.48,0,0,1,1,.15,3,3,0,0,1,.88.36,1.82,1.82,0,0,1,.63.66,2,2,0,0,1,.24,1,2.52,2.52,0,0,1-.29,1.16,2.89,2.89,0,0,1-.85,1,4.32,4.32,0,0,1-1.37.71,5.88,5.88,0,0,1-1.86.27,7.19,7.19,0,0,1-1.79-.2,4.33,4.33,0,0,1-1.24-.51,2.12,2.12,0,0,1-.73-.73,1.73,1.73,0,0,1-.24-.87,1.4,1.4,0,0,1,.34-1,2.32,2.32,0,0,1,1-.63,1.44,1.44,0,0,1-.51-.5,1.42,1.42,0,0,1-.19-.79,1.6,1.6,0,0,1,.07-.41,1.7,1.7,0,0,1,.22-.42,1.87,1.87,0,0,1,.36-.39,2.54,2.54,0,0,1,.53-.34,2.8,2.8,0,0,1-1.08-1,2.39,2.39,0,0,1-.4-1.39,2.46,2.46,0,0,1,.28-1.19,2.73,2.73,0,0,1,.76-.9,4,4,0,0,1,1.15-.57,5,5,0,0,1,1.43-.19,4.44,4.44,0,0,1,2,.42Zm-2.59,8.83a.47.47,0,0,0-.28-.45,2.46,2.46,0,0,0-.73-.2,9.81,9.81,0,0,0-1-.07c-.37,0-.73,0-1.1-.06a1.43,1.43,0,0,0-.4.37.77.77,0,0,0-.08.81.65.65,0,0,0,.28.26,1.69,1.69,0,0,0,.55.18,5.22,5.22,0,0,0,.87.06,4.76,4.76,0,0,0,.93-.07,1.81,1.81,0,0,0,.58-.18.76.76,0,0,0,.3-.29A.74.74,0,0,0,154.09,27.13Zm-2-5.17a1.22,1.22,0,0,0,.95-.33,1.24,1.24,0,0,0,.29-.84A1.17,1.17,0,0,0,153,20a1.29,1.29,0,0,0-.95-.3,1.26,1.26,0,0,0-.94.3,1.13,1.13,0,0,0-.29.84,1.45,1.45,0,0,0,.07.47,1,1,0,0,0,.22.36,1,1,0,0,0,.39.25A1.51,1.51,0,0,0,152.05,22Z"/><path class="cls-2" d="M170.35,16.74h-3.47V26.81H164V16.74h-3.47V14.47h9.81Z"/><path class="cls-2" d="M171.64,22.89a2.53,2.53,0,0,0,.67,1.6,2,2,0,0,0,1.4.49,2.32,2.32,0,0,0,.79-.11,4,4,0,0,0,.59-.24l.47-.25a1.06,1.06,0,0,1,.45-.11.56.56,0,0,1,.48.23l.76.94a3.91,3.91,0,0,1-.88.76,4.69,4.69,0,0,1-1,.46,5,5,0,0,1-1,.22,6.35,6.35,0,0,1-.95.07,5,5,0,0,1-1.73-.3,3.87,3.87,0,0,1-1.41-.9,4,4,0,0,1-1-1.47,5.61,5.61,0,0,1-.35-2.05,4.66,4.66,0,0,1,.3-1.67,4.28,4.28,0,0,1,.86-1.38,4,4,0,0,1,1.37-.94,4.84,4.84,0,0,1,3.4-.08,3.6,3.6,0,0,1,1.25.79,3.84,3.84,0,0,1,.81,1.27,4.73,4.73,0,0,1,.29,1.7c0,.19,0,.35,0,.48a.81.81,0,0,1-.1.3.34.34,0,0,1-.18.15.78.78,0,0,1-.29,0ZM175,21.37a2.43,2.43,0,0,0-.08-.61,1.4,1.4,0,0,0-.27-.53,1.36,1.36,0,0,0-.47-.38,1.81,1.81,0,0,0-1.89.28,2.2,2.2,0,0,0-.56,1.24Z"/><path class="cls-2" d="M178.42,19.25a5.32,5.32,0,0,1,1.77-1.05,6.13,6.13,0,0,1,2.08-.34,3.64,3.64,0,0,1,1.43.26,3.05,3.05,0,0,1,1.09.72,3.2,3.2,0,0,1,.68,1.09,3.94,3.94,0,0,1,.23,1.39v5.49h-1.2a1.19,1.19,0,0,1-.56-.1.81.81,0,0,1-.32-.42l-.19-.49c-.22.19-.43.35-.63.5a3.94,3.94,0,0,1-.63.36,3.81,3.81,0,0,1-.7.22,4.89,4.89,0,0,1-.81.07,3.44,3.44,0,0,1-1.1-.16,2.31,2.31,0,0,1-.83-.46,2,2,0,0,1-.53-.76,2.81,2.81,0,0,1-.19-1.05,2.19,2.19,0,0,1,.24-1,2.43,2.43,0,0,1,.82-.89,5.47,5.47,0,0,1,1.58-.67,10.47,10.47,0,0,1,2.5-.3v-.38a1.62,1.62,0,0,0-.32-1.11,1.15,1.15,0,0,0-.9-.34,2.4,2.4,0,0,0-.77.1,3.13,3.13,0,0,0-.52.23l-.46.23a1.34,1.34,0,0,1-.52.1.76.76,0,0,1-.46-.14,1.34,1.34,0,0,1-.31-.32Zm4.73,4a9.59,9.59,0,0,0-1.3.13,3.12,3.12,0,0,0-.8.26.9.9,0,0,0-.41.34.82.82,0,0,0-.12.43.72.72,0,0,0,.25.63,1.19,1.19,0,0,0,.72.18,2.08,2.08,0,0,0,.89-.18,2.88,2.88,0,0,0,.77-.57Z"/><path class="cls-2" d="M187.38,26.81V18H189a.61.61,0,0,1,.64.44l.15.47a4.47,4.47,0,0,1,.45-.42,3.84,3.84,0,0,1,.52-.33,3.43,3.43,0,0,1,.59-.22,3,3,0,0,1,.7-.08,2.05,2.05,0,0,1,1.31.41,2.58,2.58,0,0,1,.8,1.1,2.44,2.44,0,0,1,.53-.69,2.81,2.81,0,0,1,.69-.47,3.11,3.11,0,0,1,.78-.26,3.81,3.81,0,0,1,.82-.09,3.73,3.73,0,0,1,1.34.23,2.52,2.52,0,0,1,1,.65,2.59,2.59,0,0,1,.6,1.05,4.37,4.37,0,0,1,.2,1.41v5.58h-2.62V21.23c0-.91-.39-1.36-1.17-1.36a1.19,1.19,0,0,0-.89.35,1.38,1.38,0,0,0-.35,1v5.58h-2.62V21.23a1.49,1.49,0,0,0-.3-1.06,1.18,1.18,0,0,0-.87-.3,1.48,1.48,0,0,0-.68.16,2.17,2.17,0,0,0-.59.43v6.35Z"/><g class="cls-3"><path class="cls-2" d="M56.27,102.41a15.29,15.29,0,0,1-11.61,14.83,14.9,14.9,0,0,1-3.68.45,15.27,15.27,0,1,1,15.29-15.28Z"/><path class="cls-2" d="M63.93,130.19v31a7.45,7.45,0,0,1-.17,1.59H18.2a7.45,7.45,0,0,1-.17-1.59v-31a7.45,7.45,0,0,1,7.44-7.45h4.88A22.82,22.82,0,0,0,41,125.36a22.26,22.26,0,0,0,3.67-.3,22.57,22.57,0,0,0,7-2.32H56.5A7.44,7.44,0,0,1,63.93,130.19Z"/></g><g class="cls-3"><path class="cls-2" d="M113.41,102.41a15.29,15.29,0,0,1-30.57,0,14.94,14.94,0,0,1,1.33-6.21,15.28,15.28,0,0,1,29.24,6.21Z"/><path class="cls-2" d="M121.07,130.19v31a7.45,7.45,0,0,1-.17,1.59H75.34a7.45,7.45,0,0,1-.17-1.59v-31a7.45,7.45,0,0,1,7.44-7.45h4.88a21.43,21.43,0,0,0,3.06,1.33,22.62,22.62,0,0,0,7.57,1.29,23.4,23.4,0,0,0,3.67-.29,22.65,22.65,0,0,0,7-2.33h4.88A7.44,7.44,0,0,1,121.07,130.19Z"/></g><g class="cls-3"><path class="cls-2" d="M170.55,102.41a15.26,15.26,0,0,1-15.29,15.28,15.28,15.28,0,0,1-14-21.49,15.29,15.29,0,0,1,29.25,6.21Z"/><path class="cls-2" d="M178.21,130.19v31a7.45,7.45,0,0,1-.17,1.59H132.48a7.45,7.45,0,0,1-.17-1.59v-31a7.45,7.45,0,0,1,7.44-7.45h4.88a21.43,21.43,0,0,0,3.06,1.33,22.62,22.62,0,0,0,7.57,1.29,23.4,23.4,0,0,0,3.67-.29,22.65,22.65,0,0,0,7-2.33h4.88A7.44,7.44,0,0,1,178.21,130.19Z"/></g><g class="cls-4"><circle class="cls-2" cx="67.61" cy="75.79" r="15.28"/><path class="cls-2" d="M90.55,115.68v8.39a21.43,21.43,0,0,1-3.06-1.33H82.61a7.45,7.45,0,0,0-7.44,7.45v6H63.93v-6a7.44,7.44,0,0,0-7.43-7.45H51.62a22.57,22.57,0,0,1-7,2.32v-7.82A15.27,15.27,0,0,0,54.91,96.12H57a22.89,22.89,0,0,0,21.27,0h4.87a7.45,7.45,0,0,1,1.06.08,14.94,14.94,0,0,0-1.33,6.21A15.26,15.26,0,0,0,90.55,115.68Z"/><circle class="cls-2" cx="124.75" cy="75.79" r="15.28"/><path class="cls-2" d="M147.69,115.68v8.39a21.43,21.43,0,0,1-3.06-1.33h-4.88a7.45,7.45,0,0,0-7.44,7.45v6H121.07v-6a7.44,7.44,0,0,0-7.43-7.45h-4.88a22.65,22.65,0,0,1-7,2.33v-7.82a15.27,15.27,0,0,0,10.26-21.13h2.06a22.89,22.89,0,0,0,21.27,0h4.87a7.2,7.2,0,0,1,1.05.08,15.09,15.09,0,0,0-1.32,6.21A15.26,15.26,0,0,0,147.69,115.68Z"/><circle class="cls-2" cx="181.88" cy="75.79" r="15.28"/><path class="cls-2" d="M204.83,103.57v31a7.52,7.52,0,0,1-.17,1.59H178.21v-6a7.44,7.44,0,0,0-7.43-7.45H165.9a22.65,22.65,0,0,1-7,2.33v-7.82a15.27,15.27,0,0,0,10.26-21.13h2.05a22.91,22.91,0,0,0,21.28,0h4.87A7.44,7.44,0,0,1,204.83,103.57Z"/></g><text class="cls-5" transform="translate(128.2 175.47)"><tspan class="cls-6">*</tspan><tspan class="cls-7" x="3.3" y="0">A</tspan><tspan x="9.32" y="0">t an</tspan><tspan class="cls-8" x="24.51" y="0"> </tspan><tspan class="cls-9" x="26.34" y="0">A</tspan><tspan x="32.54" y="0">dditional </tspan><tspan class="cls-10" x="70.25" y="0">F</tspan><tspan x="74.92" y="0">ee</tspan></text><text class="cls-11" transform="translate(201.38 22.68)">*</text></g></svg>