<svg xmlns="http://www.w3.org/2000/svg" viewBox="0 0 221.3 182.66"><defs><style>.cls-1{fill:#0cb2dd;}.cls-2{fill:#fff;}.cls-3{opacity:0.7;}.cls-4{opacity:0.4;}</style></defs><g id="map"><rect class="cls-1" width="221.3" height="182.66" rx="4.43"/><path class="cls-2" d="M26.29,20.21a6.39,6.39,0,0,1-.47,2.47,5.6,5.6,0,0,1-1.3,2,5.93,5.93,0,0,1-2,1.29,7.27,7.27,0,0,1-2.62.46H15.09V14.05h4.79a7.07,7.07,0,0,1,2.62.46,5.93,5.93,0,0,1,2,1.29,5.66,5.66,0,0,1,1.3,1.95A6.45,6.45,0,0,1,26.29,20.21Zm-2.93,0a5.3,5.3,0,0,0-.24-1.65,3.66,3.66,0,0,0-.68-1.25,3.09,3.09,0,0,0-1.09-.79,3.78,3.78,0,0,0-1.47-.27H18v7.94h1.91a3.78,3.78,0,0,0,1.47-.28,3,3,0,0,0,1.09-.79,3.66,3.66,0,0,0,.68-1.25A5.32,5.32,0,0,0,23.36,20.21Z"/><path class="cls-2" d="M29.73,22.47a2.5,2.5,0,0,0,.67,1.59,2,2,0,0,0,1.4.5,2.64,2.64,0,0,0,.79-.11,4,4,0,0,0,.59-.25l.47-.24a.91.91,0,0,1,.45-.11.54.54,0,0,1,.48.23l.76.94a3.62,3.62,0,0,1-.88.75,4.22,4.22,0,0,1-1,.46,5.06,5.06,0,0,1-1,.23,7.94,7.94,0,0,1-.95.06,5,5,0,0,1-1.73-.3,4,4,0,0,1-1.41-.89,4.17,4.17,0,0,1-1-1.47,5.4,5.4,0,0,1-.35-2.05,4.62,4.62,0,0,1,.3-1.67,4.08,4.08,0,0,1,.86-1.38,4,4,0,0,1,1.37-.94,4.84,4.84,0,0,1,3.4-.08,3.46,3.46,0,0,1,1.25.79,3.7,3.7,0,0,1,.81,1.26,4.77,4.77,0,0,1,.29,1.7c0,.2,0,.36,0,.49a.7.7,0,0,1-.1.29.3.3,0,0,1-.18.15.79.79,0,0,1-.29,0ZM33,20.94a2.49,2.49,0,0,0-.08-.61,1.66,1.66,0,0,0-.27-.53,1.29,1.29,0,0,0-.48-.37,1.79,1.79,0,0,0-1.88.28,2.17,2.17,0,0,0-.56,1.23Z"/><path class="cls-2" d="M44.66,13.71V26.39H43a.61.61,0,0,1-.64-.44l-.21-.67a5.35,5.35,0,0,1-.55.51,3.6,3.6,0,0,1-.62.39,3.23,3.23,0,0,1-.72.26,4.33,4.33,0,0,1-.83.08,2.73,2.73,0,0,1-1.27-.3,2.91,2.91,0,0,1-1-.88,4.61,4.61,0,0,1-.67-1.41,6.9,6.9,0,0,1-.24-1.9,6,6,0,0,1,.27-1.83,4.52,4.52,0,0,1,.77-1.46,3.56,3.56,0,0,1,1.19-1A3.37,3.37,0,0,1,40,17.44a2.77,2.77,0,0,1,2,.72V13.71ZM42,20a1.7,1.7,0,0,0-.64-.46,2,2,0,0,0-.73-.13,1.49,1.49,0,0,0-.67.14,1.44,1.44,0,0,0-.53.46,2.36,2.36,0,0,0-.35.83A4.88,4.88,0,0,0,39,22a6.18,6.18,0,0,0,.1,1.16,2.43,2.43,0,0,0,.29.77,1,1,0,0,0,.43.42,1.2,1.2,0,0,0,.57.13,2.06,2.06,0,0,0,.52-.06,1.81,1.81,0,0,0,.43-.15,2.26,2.26,0,0,0,.37-.26c.11-.11.23-.23.34-.36Z"/><path class="cls-2" d="M49.39,15.2a1.48,1.48,0,0,1-.12.59,1.85,1.85,0,0,1-.35.48,1.72,1.72,0,0,1-.51.33,1.68,1.68,0,0,1-.63.12,1.53,1.53,0,0,1-.6-.12,1.63,1.63,0,0,1-.49-.33,1.45,1.45,0,0,1-.34-.48,1.49,1.49,0,0,1-.13-.59,1.47,1.47,0,0,1,.13-.6,1.39,1.39,0,0,1,.34-.49,1.63,1.63,0,0,1,.49-.33,1.53,1.53,0,0,1,.6-.12,1.68,1.68,0,0,1,.63.12,1.72,1.72,0,0,1,.51.33,1.75,1.75,0,0,1,.35.49A1.46,1.46,0,0,1,49.39,15.2Zm-.27,2.4v8.79H46.5V17.6Z"/><path class="cls-2" d="M57.41,19.69a1.66,1.66,0,0,1-.23.23.52.52,0,0,1-.31.08.68.68,0,0,1-.35-.09l-.35-.21a2.85,2.85,0,0,0-.46-.21,2,2,0,0,0-.65-.09,1.86,1.86,0,0,0-.84.18,1.66,1.66,0,0,0-.58.51,2.3,2.3,0,0,0-.33.81A4.38,4.38,0,0,0,53.2,22a3.35,3.35,0,0,0,.48,1.94,1.56,1.56,0,0,0,1.34.67,2,2,0,0,0,.73-.11,1.9,1.9,0,0,0,.45-.26l.35-.25a.61.61,0,0,1,.39-.12.51.51,0,0,1,.47.23l.77.94a4,4,0,0,1-.86.75,4.16,4.16,0,0,1-.92.46,4.6,4.6,0,0,1-.94.23,7.5,7.5,0,0,1-.93.06,4,4,0,0,1-1.53-.3,3.69,3.69,0,0,1-1.29-.89,4.22,4.22,0,0,1-.88-1.42A5.31,5.31,0,0,1,50.5,22a5.4,5.4,0,0,1,.29-1.78,3.85,3.85,0,0,1,.83-1.43A3.91,3.91,0,0,1,53,17.82a4.79,4.79,0,0,1,1.89-.35,4.6,4.6,0,0,1,1.81.33,4.29,4.29,0,0,1,1.41,1Z"/><path class="cls-2" d="M59,18.82a5.53,5.53,0,0,1,1.76-1,6.17,6.17,0,0,1,2.08-.34,3.89,3.89,0,0,1,1.44.25,3.3,3.3,0,0,1,1.08.72,3,3,0,0,1,.68,1.1,3.9,3.9,0,0,1,.24,1.39v5.49h-1.2a1.39,1.39,0,0,1-.57-.1.79.79,0,0,1-.31-.43L64,25.38a7.8,7.8,0,0,1-.63.49,4.53,4.53,0,0,1-.64.36,2.93,2.93,0,0,1-.69.22,4.18,4.18,0,0,1-.82.07,3.73,3.73,0,0,1-1.09-.15,2.29,2.29,0,0,1-.83-.46,2,2,0,0,1-.53-.76,2.62,2.62,0,0,1-.19-1,2.16,2.16,0,0,1,.24-1,2.35,2.35,0,0,1,.82-.89,5.14,5.14,0,0,1,1.57-.67,10.49,10.49,0,0,1,2.5-.31V20.9a1.55,1.55,0,0,0-.32-1.11,1.16,1.16,0,0,0-.9-.35,2.64,2.64,0,0,0-.76.1,4.43,4.43,0,0,0-.53.23c-.15.09-.31.16-.45.23a1.22,1.22,0,0,1-.53.1.73.73,0,0,1-.45-.13,1.18,1.18,0,0,1-.31-.32Zm4.72,4a9.4,9.4,0,0,0-1.29.14,3.4,3.4,0,0,0-.81.25,1,1,0,0,0-.41.35.93.93,0,0,0,.13,1.06,1.24,1.24,0,0,0,.72.18,2,2,0,0,0,.89-.18,2.6,2.6,0,0,0,.77-.58Z"/><path class="cls-2" d="M71,26.52a3.13,3.13,0,0,1-1.1-.18,2.13,2.13,0,0,1-.81-.52,2.24,2.24,0,0,1-.49-.8A3.23,3.23,0,0,1,68.4,24V19.42h-.75a.51.51,0,0,1-.34-.13.5.5,0,0,1-.15-.39v-1l1.4-.28.52-2.14a.51.51,0,0,1,.57-.4H71v2.56H73.2v1.8H71v4.36a.8.8,0,0,0,.14.5.5.5,0,0,0,.43.2.78.78,0,0,0,.24,0l.17-.06.14-.07a.33.33,0,0,1,.15,0,.38.38,0,0,1,.19.05,1,1,0,0,1,.14.18l.8,1.24a3.39,3.39,0,0,1-1.14.57A4.48,4.48,0,0,1,71,26.52Z"/><path class="cls-2" d="M76.41,22.47a2.5,2.5,0,0,0,.67,1.59,2,2,0,0,0,1.4.5,2.64,2.64,0,0,0,.79-.11,4,4,0,0,0,.59-.25l.47-.24a.91.91,0,0,1,.45-.11.54.54,0,0,1,.48.23L82,25a3.62,3.62,0,0,1-.88.75,4.22,4.22,0,0,1-1,.46,5.06,5.06,0,0,1-1,.23,7.94,7.94,0,0,1-1,.06,5,5,0,0,1-1.73-.3,4,4,0,0,1-1.41-.89,4.17,4.17,0,0,1-1-1.47,5.4,5.4,0,0,1-.35-2.05,4.62,4.62,0,0,1,.3-1.67A4.08,4.08,0,0,1,75,18.76a4,4,0,0,1,1.37-.94,4.84,4.84,0,0,1,3.4-.08,3.46,3.46,0,0,1,1.25.79,3.7,3.7,0,0,1,.81,1.26,4.77,4.77,0,0,1,.29,1.7A3.28,3.28,0,0,1,82,22a.59.59,0,0,1-.09.29.3.3,0,0,1-.18.15.79.79,0,0,1-.29,0Zm3.31-1.53a2.49,2.49,0,0,0-.08-.61,1.66,1.66,0,0,0-.27-.53,1.29,1.29,0,0,0-.48-.37,1.79,1.79,0,0,0-1.88.28,2.17,2.17,0,0,0-.56,1.23Z"/><path class="cls-2" d="M91.34,13.71V26.39H89.71a.61.61,0,0,1-.64-.44l-.21-.67a6.64,6.64,0,0,1-.55.51,3.6,3.6,0,0,1-.62.39,3.23,3.23,0,0,1-.72.26,4.33,4.33,0,0,1-.83.08,2.73,2.73,0,0,1-1.27-.3,2.91,2.91,0,0,1-1-.88,4.61,4.61,0,0,1-.67-1.41A6.9,6.9,0,0,1,83,22a6,6,0,0,1,.27-1.83A4.52,4.52,0,0,1,84,18.74a3.56,3.56,0,0,1,1.19-1,3.37,3.37,0,0,1,1.53-.34,3,3,0,0,1,1.15.19,3.11,3.11,0,0,1,.85.53V13.71ZM88.71,20a1.7,1.7,0,0,0-.64-.46,2,2,0,0,0-.73-.13,1.49,1.49,0,0,0-.67.14,1.44,1.44,0,0,0-.53.46,2.36,2.36,0,0,0-.35.83A4.88,4.88,0,0,0,85.66,22a6.18,6.18,0,0,0,.1,1.16,2.43,2.43,0,0,0,.29.77,1,1,0,0,0,.43.42,1.2,1.2,0,0,0,.57.13,2.06,2.06,0,0,0,.52-.06A1.81,1.81,0,0,0,88,24.3a2.26,2.26,0,0,0,.37-.26c.11-.11.23-.23.34-.36Z"/><path class="cls-2" d="M104.77,24.1v2.29H97.33V14.05h2.87V24.1Z"/><path class="cls-2" d="M105.73,18.82a5.53,5.53,0,0,1,1.76-1,6.17,6.17,0,0,1,2.08-.34,3.89,3.89,0,0,1,1.44.25,3.1,3.1,0,0,1,1.77,1.82A4.14,4.14,0,0,1,113,20.9v5.49h-1.2a1.3,1.3,0,0,1-.56-.1.75.75,0,0,1-.32-.43l-.19-.48a7.8,7.8,0,0,1-.63.49,5.06,5.06,0,0,1-.63.36,3.18,3.18,0,0,1-.7.22,4.11,4.11,0,0,1-.82.07,3.73,3.73,0,0,1-1.09-.15,2.38,2.38,0,0,1-.83-.46,2,2,0,0,1-.53-.76,2.62,2.62,0,0,1-.19-1,2.16,2.16,0,0,1,.24-1,2.43,2.43,0,0,1,.82-.89,5.1,5.1,0,0,1,1.58-.67,10.4,10.4,0,0,1,2.49-.31V20.9a1.6,1.6,0,0,0-.31-1.11,1.2,1.2,0,0,0-.91-.35,2.64,2.64,0,0,0-.76.1,4.43,4.43,0,0,0-.53.23,4.78,4.78,0,0,1-.45.23,1.22,1.22,0,0,1-.53.1.73.73,0,0,1-.45-.13,1.18,1.18,0,0,1-.31-.32Zm4.72,4a9.4,9.4,0,0,0-1.29.14,3.4,3.4,0,0,0-.81.25,1.12,1.12,0,0,0-.41.35.88.88,0,0,0-.11.42.77.77,0,0,0,.24.64,1.24,1.24,0,0,0,.72.18,2,2,0,0,0,.89-.18,2.6,2.6,0,0,0,.77-.58Z"/><path class="cls-2" d="M117.11,18.55l.53-.44a3,3,0,0,1,.58-.34,3.29,3.29,0,0,1,.67-.22,3.81,3.81,0,0,1,.78-.08,3,3,0,0,1,1.27.25,2.73,2.73,0,0,1,.94.69,3.11,3.11,0,0,1,.58,1.06,4.43,4.43,0,0,1,.19,1.34v5.58H120V20.81a1.54,1.54,0,0,0-.3-1,1.07,1.07,0,0,0-.87-.36,1.85,1.85,0,0,0-.81.18,3.71,3.71,0,0,0-.74.5v6.27h-2.62V17.6h1.63a.62.62,0,0,1,.64.45Z"/><path class="cls-2" d="M132.3,13.71V26.39h-1.63A.61.61,0,0,1,130,26l-.2-.67a6.77,6.77,0,0,1-.56.51,3.6,3.6,0,0,1-.62.39,3.23,3.23,0,0,1-.72.26,4.33,4.33,0,0,1-.83.08,2.73,2.73,0,0,1-1.27-.3,2.91,2.91,0,0,1-1-.88,4.86,4.86,0,0,1-.67-1.41,6.9,6.9,0,0,1-.24-1.9,6,6,0,0,1,.27-1.83,4.52,4.52,0,0,1,.77-1.46,3.56,3.56,0,0,1,1.19-1,3.37,3.37,0,0,1,1.53-.34,3,3,0,0,1,1.16.19,3.06,3.06,0,0,1,.84.53V13.71ZM129.67,20a1.63,1.63,0,0,0-.64-.46,2,2,0,0,0-.73-.13,1.49,1.49,0,0,0-.67.14,1.44,1.44,0,0,0-.53.46,2.56,2.56,0,0,0-.35.83,6,6,0,0,0,0,2.39A2.22,2.22,0,0,0,127,24a1,1,0,0,0,.44.42,1.13,1.13,0,0,0,.56.13,2.06,2.06,0,0,0,.52-.06,1.81,1.81,0,0,0,.43-.15,2.26,2.26,0,0,0,.37-.26,3.89,3.89,0,0,0,.34-.36Z"/><path class="cls-2" d="M137,15.2a1.48,1.48,0,0,1-.12.59,1.65,1.65,0,0,1-.35.48,1.72,1.72,0,0,1-.51.33,1.68,1.68,0,0,1-.63.12,1.53,1.53,0,0,1-.6-.12,1.63,1.63,0,0,1-.49-.33,1.45,1.45,0,0,1-.34-.48,1.48,1.48,0,0,1-.12-.59,1.46,1.46,0,0,1,.12-.6,1.39,1.39,0,0,1,.34-.49,1.63,1.63,0,0,1,.49-.33,1.53,1.53,0,0,1,.6-.12,1.68,1.68,0,0,1,.63.12,1.72,1.72,0,0,1,.51.33,1.57,1.57,0,0,1,.35.49A1.46,1.46,0,0,1,137,15.2Zm-.27,2.4v8.79h-2.62V17.6Z"/><path class="cls-2" d="M141,18.55l.53-.44a3,3,0,0,1,.58-.34,3.29,3.29,0,0,1,.67-.22,3.81,3.81,0,0,1,.78-.08,3,3,0,0,1,1.28.25,2.69,2.69,0,0,1,.93.69,3,3,0,0,1,.58,1.06,4.43,4.43,0,0,1,.19,1.34v5.58h-2.62V20.81a1.54,1.54,0,0,0-.3-1,1.07,1.07,0,0,0-.87-.36,1.85,1.85,0,0,0-.81.18,3.39,3.39,0,0,0-.73.5v6.27H138.6V17.6h1.63a.62.62,0,0,1,.64.45Z"/><path class="cls-2" d="M156.23,17.88v.95a.45.45,0,0,1-.13.35.83.83,0,0,1-.41.19l-.64.15c0,.12.06.25.08.38a2.73,2.73,0,0,1,0,.41,2.42,2.42,0,0,1-.28,1.18,2.7,2.7,0,0,1-.75.9A3.62,3.62,0,0,1,153,23a4.51,4.51,0,0,1-1.4.2h-.4a2.47,2.47,0,0,1-.38-.05.49.49,0,0,0-.28.4.33.33,0,0,0,.23.32,2.31,2.31,0,0,0,.63.13c.26,0,.55,0,.88.06s.67,0,1,.05.68.09,1,.16a2.55,2.55,0,0,1,.88.36,1.87,1.87,0,0,1,.63.65,2.09,2.09,0,0,1,.24,1.05,2.59,2.59,0,0,1-.29,1.16,3,3,0,0,1-.85,1,4.53,4.53,0,0,1-1.37.71,6.19,6.19,0,0,1-1.86.26,7.22,7.22,0,0,1-1.79-.19,4.06,4.06,0,0,1-1.24-.52,2,2,0,0,1-.73-.73,1.67,1.67,0,0,1-.24-.86,1.43,1.43,0,0,1,.34-1,2.31,2.31,0,0,1,.95-.62,1.44,1.44,0,0,1-.51-.5,1.47,1.47,0,0,1-.19-.79,1.22,1.22,0,0,1,.07-.41,1.31,1.31,0,0,1,.22-.42,2.21,2.21,0,0,1,.36-.4,3,3,0,0,1,.53-.33,2.91,2.91,0,0,1-1.09-1,2.49,2.49,0,0,1-.39-1.39,2.46,2.46,0,0,1,.28-1.19,2.54,2.54,0,0,1,.76-.9,3.54,3.54,0,0,1,1.15-.57,5,5,0,0,1,1.43-.2,4.31,4.31,0,0,1,2,.43Zm-2.59,8.83a.47.47,0,0,0-.28-.45,2.2,2.2,0,0,0-.73-.2,7.63,7.63,0,0,0-1-.07c-.37,0-.73,0-1.1-.07a1.63,1.63,0,0,0-.4.38.72.72,0,0,0-.16.47.77.77,0,0,0,.08.34.65.65,0,0,0,.28.26,2,2,0,0,0,.55.17,4.24,4.24,0,0,0,.87.07,4.76,4.76,0,0,0,.93-.07,2.07,2.07,0,0,0,.58-.19.69.69,0,0,0,.39-.64Zm-2-5.18a1.21,1.21,0,0,0,1-.32,1.24,1.24,0,0,0,.29-.84,1.17,1.17,0,0,0-.29-.84,1.25,1.25,0,0,0-1-.31,1.22,1.22,0,0,0-.94.31,1.13,1.13,0,0,0-.29.84,1.35,1.35,0,0,0,.07.46,1,1,0,0,0,.22.37,1.09,1.09,0,0,0,.39.25A1.52,1.52,0,0,0,151.6,21.53Z"/><path class="cls-2" d="M169.9,16.32h-3.48V26.39h-2.86V16.32h-3.47V14.05h9.81Z"/><path class="cls-2" d="M171.19,22.47a2.5,2.5,0,0,0,.67,1.59,2,2,0,0,0,1.4.5,2.6,2.6,0,0,0,.79-.11,4,4,0,0,0,.59-.25l.47-.24a.93.93,0,0,1,.45-.11.54.54,0,0,1,.48.23l.76.94a3.62,3.62,0,0,1-.88.75,4.22,4.22,0,0,1-1,.46,5.06,5.06,0,0,1-1,.23,7.94,7.94,0,0,1-.95.06,5,5,0,0,1-1.73-.3,4,4,0,0,1-1.41-.89,4.17,4.17,0,0,1-1-1.47,5.4,5.4,0,0,1-.35-2.05,4.62,4.62,0,0,1,.3-1.67,4.08,4.08,0,0,1,.86-1.38,4,4,0,0,1,1.37-.94,4.84,4.84,0,0,1,3.4-.08,3.46,3.46,0,0,1,1.25.79,3.7,3.7,0,0,1,.81,1.26,4.77,4.77,0,0,1,.29,1.7c0,.2,0,.36,0,.49a.7.7,0,0,1-.1.29.3.3,0,0,1-.18.15.79.79,0,0,1-.29,0Zm3.31-1.53a2.49,2.49,0,0,0-.08-.61,1.48,1.48,0,0,0-.27-.53,1.33,1.33,0,0,0-.47-.37,1.59,1.59,0,0,0-.72-.15,1.55,1.55,0,0,0-1.17.43,2.17,2.17,0,0,0-.56,1.23Z"/><path class="cls-2" d="M178,18.82a5.47,5.47,0,0,1,1.77-1,6.13,6.13,0,0,1,2.08-.34,3.83,3.83,0,0,1,1.43.25A3,3,0,0,1,185,19.51a4.14,4.14,0,0,1,.23,1.39v5.49h-1.2a1.33,1.33,0,0,1-.56-.1.8.8,0,0,1-.32-.43l-.19-.48a7.8,7.8,0,0,1-.63.49,4.43,4.43,0,0,1-.63.36,3.18,3.18,0,0,1-.7.22,4,4,0,0,1-.81.07,3.75,3.75,0,0,1-1.1-.15,2.47,2.47,0,0,1-.83-.46,2,2,0,0,1-.53-.76,2.81,2.81,0,0,1-.19-1,2.16,2.16,0,0,1,.24-1,2.43,2.43,0,0,1,.82-.89,5.21,5.21,0,0,1,1.58-.67,10.42,10.42,0,0,1,2.5-.31V20.9a1.6,1.6,0,0,0-.32-1.11,1.16,1.16,0,0,0-.9-.35,2.72,2.72,0,0,0-.77.1,5.27,5.27,0,0,0-.53.23,4.78,4.78,0,0,1-.45.23,1.21,1.21,0,0,1-.52.1.76.76,0,0,1-.46-.13,1.18,1.18,0,0,1-.31-.32Zm4.73,4a9.38,9.38,0,0,0-1.3.14,3.16,3.16,0,0,0-.8.25,1.09,1.09,0,0,0-.42.35.88.88,0,0,0-.11.42.75.75,0,0,0,.25.64,1.19,1.19,0,0,0,.72.18,2.11,2.11,0,0,0,.89-.18,2.73,2.73,0,0,0,.77-.58Z"/><path class="cls-2" d="M186.93,26.39V17.6h1.63a.61.61,0,0,1,.64.45l.15.47a4.47,4.47,0,0,1,.45-.42,2.55,2.55,0,0,1,.52-.33,2.76,2.76,0,0,1,.59-.22,3,3,0,0,1,.7-.08,2.05,2.05,0,0,1,1.31.41,2.6,2.6,0,0,1,.8,1.1,2.49,2.49,0,0,1,.53-.7,3.07,3.07,0,0,1,.69-.46,3.6,3.6,0,0,1,.78-.27,4.56,4.56,0,0,1,.82-.08,3.67,3.67,0,0,1,1.33.22,2.5,2.5,0,0,1,1,.66,2.7,2.7,0,0,1,.6,1,4.37,4.37,0,0,1,.2,1.41v5.58H197V20.81c0-.91-.39-1.37-1.17-1.37a1.23,1.23,0,0,0-.89.35,1.42,1.42,0,0,0-.35,1v5.58H192V20.81a1.48,1.48,0,0,0-.3-1.06,1.14,1.14,0,0,0-.87-.31,1.62,1.62,0,0,0-.68.16,2.21,2.21,0,0,0-.59.44v6.35Z"/><g class="cls-3"><path class="cls-2" d="M55.82,102a15.29,15.29,0,0,1-11.61,14.84,14.9,14.9,0,0,1-3.68.45A15.28,15.28,0,1,1,55.82,102Z"/><path class="cls-2" d="M63.48,129.76v31a7.59,7.59,0,0,1-.17,1.59H17.75a7.59,7.59,0,0,1-.17-1.59v-31A7.45,7.45,0,0,1,25,122.32H29.9a22.81,22.81,0,0,0,10.64,2.61,22.26,22.26,0,0,0,3.67-.3,22.56,22.56,0,0,0,7-2.31h4.88A7.44,7.44,0,0,1,63.48,129.76Z"/></g><g class="cls-3"><path class="cls-2" d="M113,102a15.29,15.29,0,1,1-30.57,0,15,15,0,0,1,1.33-6.21A15.28,15.28,0,0,1,113,102Z"/><path class="cls-2" d="M120.62,129.76v31a7.59,7.59,0,0,1-.17,1.59H74.89a7.59,7.59,0,0,1-.17-1.59v-31a7.45,7.45,0,0,1,7.44-7.44H87a21.43,21.43,0,0,0,3.06,1.33,22.87,22.87,0,0,0,7.57,1.28,23.4,23.4,0,0,0,3.67-.29,22.63,22.63,0,0,0,7-2.32h4.88A7.44,7.44,0,0,1,120.62,129.76Z"/></g><g class="cls-3"><path class="cls-2" d="M170.1,102a15.26,15.26,0,0,1-15.29,15.29,15.12,15.12,0,0,1-7.57-2A15.28,15.28,0,1,1,170.1,102Z"/><path class="cls-2" d="M177.76,129.76v31a7.59,7.59,0,0,1-.17,1.59H132a7.59,7.59,0,0,1-.17-1.59v-31a7.45,7.45,0,0,1,7.44-7.44h4.88a21.43,21.43,0,0,0,3.06,1.33,22.87,22.87,0,0,0,7.57,1.28,23.4,23.4,0,0,0,3.67-.29,22.63,22.63,0,0,0,7-2.32h4.87A7.44,7.44,0,0,1,177.76,129.76Z"/></g><g class="cls-4"><circle class="cls-2" cx="67.16" cy="75.36" r="15.28"/><path class="cls-2" d="M90.1,115.26v8.39A21.43,21.43,0,0,1,87,122.32H82.16a7.45,7.45,0,0,0-7.44,7.44v6H63.48v-6a7.44,7.44,0,0,0-7.43-7.44H51.17a22.56,22.56,0,0,1-7,2.31v-7.81A15.28,15.28,0,0,0,54.46,95.69h2.06a22.89,22.89,0,0,0,21.27,0h4.87a7.45,7.45,0,0,1,1.06.08A15,15,0,0,0,82.39,102,15.29,15.29,0,0,0,90.1,115.26Z"/><circle class="cls-2" cx="124.3" cy="75.36" r="15.28"/><path class="cls-2" d="M147.24,115.26v8.39a21.43,21.43,0,0,1-3.06-1.33H139.3a7.45,7.45,0,0,0-7.44,7.44v6H120.62v-6a7.44,7.44,0,0,0-7.43-7.44h-4.88a22.63,22.63,0,0,1-7,2.32v-7.81A15.28,15.28,0,0,0,111.6,95.69h2.06a22.89,22.89,0,0,0,21.27,0h4.87a7.2,7.2,0,0,1,1,.08,15.29,15.29,0,0,0,6.39,19.49Z"/><circle class="cls-2" cx="181.43" cy="75.36" r="15.28"/><path class="cls-2" d="M204.38,103.15v31a7.36,7.36,0,0,1-.17,1.58H177.76v-6a7.44,7.44,0,0,0-7.44-7.44h-4.87a22.63,22.63,0,0,1-7,2.32v-7.81a15.28,15.28,0,0,0,10.26-21.14h2a22.91,22.91,0,0,0,21.28,0h4.87A7.44,7.44,0,0,1,204.38,103.15Z"/></g><path class="cls-2" d="M130.46,169.65a.7.7,0,0,1-.17.09l-.17,0a1,1,0,0,1,.34.13l.68.41-.28.49-.69-.41-.15-.1-.13-.12a1,1,0,0,1,.05.34v.81h-.58v-.8a.91.91,0,0,1,0-.17.85.85,0,0,1,0-.17,1,1,0,0,1-.27.21l-.68.4-.3-.49.69-.4.17-.08a.48.48,0,0,1,.17-.05l-.17,0a.56.56,0,0,1-.17-.09l-.69-.4.29-.49.69.41a1,1,0,0,1,.27.21,1.16,1.16,0,0,1,0-.34v-.81h.58V169a1,1,0,0,1,0,.17.86.86,0,0,1,0,.17.46.46,0,0,1,.12-.12l.15-.09.68-.4.29.49Z"/><path class="cls-2" d="M137.43,175.05h-1.05a.49.49,0,0,1-.28-.08.5.5,0,0,1-.16-.22l-.44-1.24h-2.6l-.44,1.24a.43.43,0,0,1-.15.21.46.46,0,0,1-.29.09H131l2.54-6.51h1.38Zm-2.26-2.47-.71-2-.13-.37c0-.14-.09-.29-.13-.46,0,.17-.09.32-.13.47l-.13.37-.7,2Z"/><path class="cls-2" d="M139.17,175.12a1.55,1.55,0,0,1-.55-.09,1.15,1.15,0,0,1-.41-.26,1.17,1.17,0,0,1-.25-.42,1.53,1.53,0,0,1-.09-.54v-2.5h-.43a.25.25,0,0,1-.17-.06.22.22,0,0,1-.07-.19v-.48l.74-.14.25-1.19a.26.26,0,0,1,.28-.21h.64v1.41h1.19v.86h-1.19v2.42a.47.47,0,0,0,.09.3.31.31,0,0,0,.27.11.36.36,0,0,0,.15,0l.11,0,.08-.05.08,0,.09,0a.3.3,0,0,1,.07.08l.37.59a1.71,1.71,0,0,1-.58.31A2.13,2.13,0,0,1,139.17,175.12Z"/><path class="cls-2" d="M143,171.07a2.63,2.63,0,0,1,.9-.55,3.12,3.12,0,0,1,1.07-.18,2,2,0,0,1,.74.13,1.77,1.77,0,0,1,.55.37,2,2,0,0,1,.35.58,2.09,2.09,0,0,1,.12.72v2.91h-.57a.65.65,0,0,1-.27-.05.36.36,0,0,1-.15-.21l-.09-.29-.34.27a2.9,2.9,0,0,1-.34.19,2.11,2.11,0,0,1-.38.12,2,2,0,0,1-.44,0,1.94,1.94,0,0,1-.56-.08,1.07,1.07,0,0,1-.43-.24,1,1,0,0,1-.28-.4,1.33,1.33,0,0,1-.1-.54,1.14,1.14,0,0,1,.13-.52,1.31,1.31,0,0,1,.45-.46,2.76,2.76,0,0,1,.84-.34,5.28,5.28,0,0,1,1.32-.16v-.24a1,1,0,0,0-.18-.64.71.71,0,0,0-.53-.2,1.31,1.31,0,0,0-.43.06,2.08,2.08,0,0,0-.3.13l-.24.13a.53.53,0,0,1-.26.06.35.35,0,0,1-.21-.06.75.75,0,0,1-.15-.16Zm2.52,2.05a4.65,4.65,0,0,0-.75.08,1.62,1.62,0,0,0-.48.14.66.66,0,0,0-.25.2.46.46,0,0,0-.08.25.44.44,0,0,0,.15.38.66.66,0,0,0,.42.12,1.27,1.27,0,0,0,.54-.11,1.72,1.72,0,0,0,.45-.35Z"/><path class="cls-2" d="M148.83,171a3.07,3.07,0,0,1,.29-.24,2.14,2.14,0,0,1,.32-.2,1.9,1.9,0,0,1,.36-.12,1.88,1.88,0,0,1,.43-.05,1.78,1.78,0,0,1,.67.13,1.48,1.48,0,0,1,.49.37,1.62,1.62,0,0,1,.3.55,2.65,2.65,0,0,1,.1.71v2.94h-1.24v-2.94a1,1,0,0,0-.17-.6.66.66,0,0,0-.53-.21,1.14,1.14,0,0,0-.49.11,1.65,1.65,0,0,0-.44.32v3.32h-1.24v-4.62h.77a.3.3,0,0,1,.31.21Z"/><path class="cls-2" d="M160.46,175.05h-1a.43.43,0,0,1-.45-.3l-.44-1.24h-2.59l-.44,1.24a.54.54,0,0,1-.16.21.45.45,0,0,1-.28.09H154l2.55-6.51h1.37Zm-2.26-2.47-.7-2c-.05-.11-.09-.23-.14-.37s-.09-.29-.13-.46c0,.17-.08.32-.13.47l-.13.37-.7,2Z"/><path class="cls-2" d="M164.89,168.36v6.69h-.76a.29.29,0,0,1-.31-.22l-.1-.4a3.83,3.83,0,0,1-.29.28l-.34.22a2.46,2.46,0,0,1-.38.14,2.14,2.14,0,0,1-.45.05,1.51,1.51,0,0,1-.68-.16,1.58,1.58,0,0,1-.54-.46,2.21,2.21,0,0,1-.35-.74,3.87,3.87,0,0,1-.13-1,3.32,3.32,0,0,1,.14-1,2.31,2.31,0,0,1,.41-.76,1.79,1.79,0,0,1,.62-.51,1.86,1.86,0,0,1,.82-.18,1.48,1.48,0,0,1,.63.11,1.45,1.45,0,0,1,.47.3v-2.39Zm-1.24,3.27a1,1,0,0,0-.38-.29,1.22,1.22,0,0,0-.43-.08,1,1,0,0,0-.41.09.8.8,0,0,0-.31.27,1.31,1.31,0,0,0-.21.46,2.65,2.65,0,0,0-.07.67,3.1,3.1,0,0,0,.06.66,1.14,1.14,0,0,0,.17.43.66.66,0,0,0,.26.24.85.85,0,0,0,.35.08,1.12,1.12,0,0,0,.55-.13,1.6,1.6,0,0,0,.42-.37Z"/><path class="cls-2" d="M170,168.36v6.69h-.76a.29.29,0,0,1-.31-.22l-.1-.4a3.83,3.83,0,0,1-.29.28l-.34.22a2.46,2.46,0,0,1-.38.14,2.14,2.14,0,0,1-.45.05,1.51,1.51,0,0,1-.68-.16,1.58,1.58,0,0,1-.54-.46,2.21,2.21,0,0,1-.35-.74,3.87,3.87,0,0,1-.13-1,3.32,3.32,0,0,1,.14-1,2.31,2.31,0,0,1,.41-.76,1.79,1.79,0,0,1,.62-.51,1.86,1.86,0,0,1,.82-.18,1.56,1.56,0,0,1,.64.11,1.52,1.52,0,0,1,.46.3v-2.39Zm-1.24,3.27a1,1,0,0,0-.38-.29,1.22,1.22,0,0,0-.43-.08,1,1,0,0,0-.41.09.88.88,0,0,0-.31.27,1.31,1.31,0,0,0-.21.46,3.21,3.21,0,0,0-.07.67,3.1,3.1,0,0,0,.06.66,1.14,1.14,0,0,0,.17.43.66.66,0,0,0,.26.24.86.86,0,0,0,.36.08,1.11,1.11,0,0,0,.54-.13,1.6,1.6,0,0,0,.42-.37Z"/><path class="cls-2" d="M172.46,169.11a.68.68,0,0,1-.06.29.81.81,0,0,1-.17.24.72.72,0,0,1-.25.16.73.73,0,0,1-.3.06.72.72,0,0,1-.29-.06.74.74,0,0,1-.4-.4.68.68,0,0,1-.06-.29.72.72,0,0,1,.06-.29.74.74,0,0,1,.4-.4.72.72,0,0,1,.29-.06.73.73,0,0,1,.3.06.72.72,0,0,1,.25.16.81.81,0,0,1,.17.24A.72.72,0,0,1,172.46,169.11Zm-.15,1.32v4.62h-1.24v-4.62Z"/><path class="cls-2" d="M178.19,175.05H177v-3.74h-2v2.42a.42.42,0,0,0,.1.3.29.29,0,0,0,.26.11.34.34,0,0,0,.15,0l.11,0,.08-.05.08,0a.12.12,0,0,1,.09,0,.19.19,0,0,1,.07.08l.37.59a1.71,1.71,0,0,1-.58.31,2.07,2.07,0,0,1-.66.1,1.6,1.6,0,0,1-.56-.09,1.15,1.15,0,0,1-.41-.26,1.17,1.17,0,0,1-.25-.42,1.53,1.53,0,0,1-.08-.54v-2.5h-.44a.27.27,0,0,1-.17-.06.26.26,0,0,1-.07-.19v-.48l.74-.14.25-1.19a.26.26,0,0,1,.28-.21h.64v1.41h3.29Zm.19-6a.72.72,0,0,1-.06.29,1,1,0,0,1-.17.24.72.72,0,0,1-.25.16.73.73,0,0,1-.3.06.72.72,0,0,1-.29-.06.74.74,0,0,1-.4-.4.73.73,0,0,1,0-.58.74.74,0,0,1,.4-.4.73.73,0,0,1,.29-.07.73.73,0,0,1,.3.07.72.72,0,0,1,.25.16,1,1,0,0,1,.17.24A.72.72,0,0,1,178.38,169.1Z"/><path class="cls-2" d="M181.33,170.35a2.63,2.63,0,0,1,.95.17,2,2,0,0,1,1.2,1.22,3.14,3.14,0,0,1,0,2,2,2,0,0,1-.47.75,2.11,2.11,0,0,1-.73.48,2.63,2.63,0,0,1-.95.17,2.59,2.59,0,0,1-1-.17,2,2,0,0,1-1.21-1.23,3,3,0,0,1,0-2,2.22,2.22,0,0,1,.47-.75,2.18,2.18,0,0,1,.74-.47A2.59,2.59,0,0,1,181.33,170.35Zm0,3.84a.88.88,0,0,0,.78-.37,1.87,1.87,0,0,0,.26-1.08,1.93,1.93,0,0,0-.26-1.09.89.89,0,0,0-.78-.36.92.92,0,0,0-.8.36,1.93,1.93,0,0,0-.25,1.09,1.87,1.87,0,0,0,.25,1.08A.9.9,0,0,0,181.33,174.19Z"/><path class="cls-2" d="M185.57,171a2.17,2.17,0,0,1,.29-.24,2.14,2.14,0,0,1,.32-.2,1.9,1.9,0,0,1,.36-.12,1.88,1.88,0,0,1,.43-.05,1.69,1.69,0,0,1,.66.13,1.42,1.42,0,0,1,.5.37,1.62,1.62,0,0,1,.3.55,2.65,2.65,0,0,1,.1.71v2.94h-1.24v-2.94a.91.91,0,0,0-.18-.6.64.64,0,0,0-.52-.21,1.14,1.14,0,0,0-.49.11,1.65,1.65,0,0,0-.44.32v3.32h-1.24v-4.62h.77a.31.31,0,0,1,.31.21Z"/><path class="cls-2" d="M189.41,171.07a2.63,2.63,0,0,1,.9-.55,3.06,3.06,0,0,1,1.06-.18,1.88,1.88,0,0,1,.74.13,1.66,1.66,0,0,1,.55.37,1.8,1.8,0,0,1,.35.58,2.09,2.09,0,0,1,.12.72v2.91h-.56a.62.62,0,0,1-.27-.05.36.36,0,0,1-.15-.21l-.1-.29a4,4,0,0,1-.34.27,2.27,2.27,0,0,1-.34.19,2,2,0,0,1-.37.12,2,2,0,0,1-.45,0A1.87,1.87,0,0,1,190,175a1.18,1.18,0,0,1-.44-.24,1.15,1.15,0,0,1-.28-.4,1.53,1.53,0,0,1-.09-.54,1.14,1.14,0,0,1,.13-.52,1.19,1.19,0,0,1,.44-.46,2.73,2.73,0,0,1,.85-.34,5.28,5.28,0,0,1,1.32-.16v-.24a1,1,0,0,0-.19-.64.69.69,0,0,0-.53-.2,1.25,1.25,0,0,0-.42.06,1.42,1.42,0,0,0-.3.13l-.24.13a.55.55,0,0,1-.26.06.38.38,0,0,1-.22-.06.52.52,0,0,1-.14-.16Zm2.52,2.05a4.66,4.66,0,0,0-.76.08,1.62,1.62,0,0,0-.48.14.76.76,0,0,0-.25.2.45.45,0,0,0-.07.25.44.44,0,0,0,.15.38.66.66,0,0,0,.42.12,1.3,1.3,0,0,0,.54-.11,1.72,1.72,0,0,0,.45-.35Z"/><path class="cls-2" d="M195.35,168.36v6.69h-1.24v-6.69Z"/><path class="cls-2" d="M200,169.6v1.79h2.34v1.06H200v2.6h-1.35v-6.51h4.14v1.06Z"/><path class="cls-2" d="M204.16,172.93a1.51,1.51,0,0,0,.37.95,1.13,1.13,0,0,0,.82.3,1.42,1.42,0,0,0,.44-.06,2.52,2.52,0,0,0,.33-.14l.25-.13a.49.49,0,0,1,.23-.06.24.24,0,0,1,.22.11l.36.44a1.7,1.7,0,0,1-.43.38,2.55,2.55,0,0,1-.5.24,2.36,2.36,0,0,1-.51.12,3,3,0,0,1-.5,0,2.67,2.67,0,0,1-.91-.16,2.23,2.23,0,0,1-.73-.47,2.21,2.21,0,0,1-.49-.78,2.89,2.89,0,0,1-.18-1.07,2.42,2.42,0,0,1,.16-.89,2.06,2.06,0,0,1,1.15-1.21,2.37,2.37,0,0,1,1.76,0,1.76,1.76,0,0,1,.65.41,1.87,1.87,0,0,1,.42.66,2.48,2.48,0,0,1,.15.89,1.4,1.4,0,0,1,0,.23.26.26,0,0,1,0,.14.18.18,0,0,1-.09.08l-.13,0Zm2-.74a1.5,1.5,0,0,0-.05-.37,1.08,1.08,0,0,0-.16-.3.8.8,0,0,0-.29-.22,1,1,0,0,0-.41-.08.94.94,0,0,0-.69.26,1.21,1.21,0,0,0-.33.71Z"/><path class="cls-2" d="M209,172.93a1.46,1.46,0,0,0,.37.95,1.13,1.13,0,0,0,.81.3,1.53,1.53,0,0,0,.45-.06,1.92,1.92,0,0,0,.32-.14l.26-.13a.49.49,0,0,1,.23-.06.24.24,0,0,1,.22.11l.36.44a1.74,1.74,0,0,1-.44.38,2.23,2.23,0,0,1-.49.24,2.31,2.31,0,0,1-.52.12,2.89,2.89,0,0,1-.5,0,2.66,2.66,0,0,1-.9-.16,2.23,2.23,0,0,1-.73-.47,2.21,2.21,0,0,1-.49-.78,2.89,2.89,0,0,1-.18-1.07,2.64,2.64,0,0,1,.15-.89,2.14,2.14,0,0,1,.45-.72,2,2,0,0,1,.71-.49,2.16,2.16,0,0,1,.94-.19,2.21,2.21,0,0,1,.82.15,1.72,1.72,0,0,1,.64.41,1.87,1.87,0,0,1,.42.66,2.48,2.48,0,0,1,.15.89,1.55,1.55,0,0,1,0,.23.39.39,0,0,1,0,.14.18.18,0,0,1-.09.08l-.14,0Zm1.95-.74a1.5,1.5,0,0,0,0-.37.9.9,0,0,0-.17-.3.76.76,0,0,0-.28-.22,1,1,0,0,0-.41-.08.92.92,0,0,0-.69.26,1.21,1.21,0,0,0-.33.71Z"/><path class="cls-2" d="M204.64,14.87l-.23.11a.88.88,0,0,1-.23.07,1.38,1.38,0,0,1,.46.18l.94.56-.39.67-.94-.56-.21-.14-.18-.15a1.34,1.34,0,0,1,.08.46v1.11h-.81v-1.1a1.94,1.94,0,0,1,0-.24,1.42,1.42,0,0,1,0-.22,1.38,1.38,0,0,1-.37.28l-.93.55-.4-.67.94-.55.23-.11a.88.88,0,0,1,.23-.07.62.62,0,0,1-.23-.07l-.23-.11-.94-.56.39-.67.94.56a1.65,1.65,0,0,1,.38.29,1.34,1.34,0,0,1-.08-.46V12.92h.81V14a1.94,1.94,0,0,1,0,.24.86.86,0,0,1,0,.23,1.29,1.29,0,0,1,.17-.16l.21-.13.93-.54.4.66Z"/></g></svg>