<svg xmlns="http://www.w3.org/2000/svg" viewBox="0 0 222.07 183.3"><defs><style>.cls-1{fill:#0cb2dd;}.cls-2{fill:#fff;}.cls-3{opacity:0.7;}.cls-4{opacity:0.4;}</style></defs><g id="map"><rect class="cls-1" width="222.07" height="183.3" rx="4.44"/><path class="cls-2" d="M26.38,20.28a6.44,6.44,0,0,1-.47,2.48,5.74,5.74,0,0,1-1.3,2,6,6,0,0,1-2,1.29,7.12,7.12,0,0,1-2.63.46H15.14V14.1H20a7.12,7.12,0,0,1,2.63.46,6.15,6.15,0,0,1,2,1.3,5.66,5.66,0,0,1,1.3,1.95A6.47,6.47,0,0,1,26.38,20.28Zm-2.94,0a5.3,5.3,0,0,0-.24-1.65,3.56,3.56,0,0,0-.69-1.26,3,3,0,0,0-1.09-.79A3.78,3.78,0,0,0,20,16.31H18v8H20A3.6,3.6,0,0,0,21.42,24a2.79,2.79,0,0,0,1.09-.79A3.52,3.52,0,0,0,23.2,22,5.39,5.39,0,0,0,23.44,20.28Z"/><path class="cls-2" d="M29.84,22.55a2.48,2.48,0,0,0,.67,1.6,2,2,0,0,0,1.4.49,2.32,2.32,0,0,0,.79-.11,3.62,3.62,0,0,0,.59-.24l.48-.25a1,1,0,0,1,.45-.11.56.56,0,0,1,.48.23l.76.94a3.46,3.46,0,0,1-.88.76,4.22,4.22,0,0,1-1,.46,5.33,5.33,0,0,1-1,.23,6.35,6.35,0,0,1-.95.07,4.74,4.74,0,0,1-1.73-.31,3.93,3.93,0,0,1-1.42-.89,4.12,4.12,0,0,1-1-1.48,5.45,5.45,0,0,1-.36-2.06,4.62,4.62,0,0,1,.3-1.67,4.09,4.09,0,0,1,.87-1.39,4.18,4.18,0,0,1,1.37-.94,4.89,4.89,0,0,1,3.42-.08,3.6,3.6,0,0,1,1.25.79,3.69,3.69,0,0,1,.81,1.27,4.61,4.61,0,0,1,.3,1.71,3,3,0,0,1,0,.48.89.89,0,0,1-.09.3.4.4,0,0,1-.19.15.76.76,0,0,1-.29.05ZM33.15,21a2.15,2.15,0,0,0-.08-.62,1.46,1.46,0,0,0-.26-.53,1.42,1.42,0,0,0-.48-.38,1.74,1.74,0,0,0-.72-.14,1.59,1.59,0,0,0-1.18.43A2.24,2.24,0,0,0,29.87,21Z"/><path class="cls-2" d="M44.81,13.76V26.48H43.18a.61.61,0,0,1-.64-.44l-.21-.67a6.64,6.64,0,0,1-.55.51,3.33,3.33,0,0,1-.63.39,3.23,3.23,0,0,1-.72.26,3.64,3.64,0,0,1-.83.09,2.66,2.66,0,0,1-1.28-.31,2.91,2.91,0,0,1-1-.88A4.56,4.56,0,0,1,36.64,24a6.93,6.93,0,0,1-.24-1.91,6,6,0,0,1,.27-1.83,4.52,4.52,0,0,1,.77-1.46,3.56,3.56,0,0,1,1.19-1,3.32,3.32,0,0,1,1.54-.35,3,3,0,0,1,1.16.19,3.27,3.27,0,0,1,.85.53V13.76ZM42.18,20a1.56,1.56,0,0,0-.65-.46,2,2,0,0,0-.73-.14,1.5,1.5,0,0,0-.67.15,1.44,1.44,0,0,0-.53.46,2.36,2.36,0,0,0-.35.83,4.88,4.88,0,0,0-.13,1.23,5.64,5.64,0,0,0,.1,1.18,2.38,2.38,0,0,0,.29.77,1.15,1.15,0,0,0,.43.42,1.32,1.32,0,0,0,.57.12,2.17,2.17,0,0,0,.53-.05,2.23,2.23,0,0,0,.43-.16,1.5,1.5,0,0,0,.36-.26,2.4,2.4,0,0,0,.35-.36Z"/><path class="cls-2" d="M49.57,15.25a1.45,1.45,0,0,1-.13.59,1.57,1.57,0,0,1-.35.49,1.65,1.65,0,0,1-.52.33,1.59,1.59,0,0,1-.62.12,1.5,1.5,0,0,1-.6-.12,1.56,1.56,0,0,1-.5-.33,1.54,1.54,0,0,1-.34-.49,1.45,1.45,0,0,1-.12-.59,1.49,1.49,0,0,1,.46-1.09,1.43,1.43,0,0,1,.5-.34,1.68,1.68,0,0,1,.6-.11,1.8,1.8,0,0,1,.62.11,1.51,1.51,0,0,1,.52.34,1.57,1.57,0,0,1,.35.49A1.54,1.54,0,0,1,49.57,15.25Zm-.28,2.42v8.81H46.66V17.67Z"/><path class="cls-2" d="M57.61,19.76a1.63,1.63,0,0,1-.22.23.58.58,0,0,1-.32.08.68.68,0,0,1-.35-.09l-.35-.21a2.45,2.45,0,0,0-.46-.21,2.1,2.1,0,0,0-.66-.09,1.86,1.86,0,0,0-.84.18,1.66,1.66,0,0,0-.58.51,2.5,2.5,0,0,0-.34.81,5.05,5.05,0,0,0-.11,1.08A3.27,3.27,0,0,0,53.87,24a1.59,1.59,0,0,0,1.35.68,1.85,1.85,0,0,0,.73-.12,2.12,2.12,0,0,0,.45-.25l.34-.26a.65.65,0,0,1,.4-.12.53.53,0,0,1,.47.23l.77.94a3.76,3.76,0,0,1-.86.76,4.16,4.16,0,0,1-.92.46,4.69,4.69,0,0,1-1,.23,5.88,5.88,0,0,1-.92.07,3.9,3.9,0,0,1-1.55-.31,3.69,3.69,0,0,1-1.29-.89A4.11,4.11,0,0,1,51,24a5.33,5.33,0,0,1-.33-1.94A5.44,5.44,0,0,1,51,20.27a4,4,0,0,1,2.22-2.39,4.88,4.88,0,0,1,1.9-.35,4.65,4.65,0,0,1,1.82.33,4.45,4.45,0,0,1,1.41,1Z"/><path class="cls-2" d="M59.21,18.89A5.47,5.47,0,0,1,61,17.84a6.13,6.13,0,0,1,2.08-.34,3.69,3.69,0,0,1,1.44.26,3.05,3.05,0,0,1,1.09.72,3,3,0,0,1,.68,1.1A3.9,3.9,0,0,1,66.52,21v5.51h-1.2a1.24,1.24,0,0,1-.57-.1.8.8,0,0,1-.32-.43l-.19-.48a7.8,7.8,0,0,1-.63.49,4.53,4.53,0,0,1-.64.36,2.65,2.65,0,0,1-.69.22,4.15,4.15,0,0,1-.82.08,3.74,3.74,0,0,1-1.1-.16,2.43,2.43,0,0,1-.84-.46,2.17,2.17,0,0,1-.53-.76,2.89,2.89,0,0,1-.18-1,2.19,2.19,0,0,1,.23-1,2.47,2.47,0,0,1,.83-.89,5.2,5.2,0,0,1,1.58-.68,10.57,10.57,0,0,1,2.51-.3V21a1.65,1.65,0,0,0-.32-1.12,1.23,1.23,0,0,0-.91-.34,2.33,2.33,0,0,0-.76.1,3.82,3.82,0,0,0-.53.23c-.16.09-.31.16-.46.23a1.22,1.22,0,0,1-.53.1A.78.78,0,0,1,60,20a1.18,1.18,0,0,1-.3-.33Zm4.75,4a9.38,9.38,0,0,0-1.3.14,3.4,3.4,0,0,0-.81.25,1,1,0,0,0-.41.35.82.82,0,0,0-.12.43.72.72,0,0,0,.25.63,1.19,1.19,0,0,0,.72.18,2.21,2.21,0,0,0,.89-.17,2.81,2.81,0,0,0,.78-.58Z"/><path class="cls-2" d="M71.22,26.62a2.93,2.93,0,0,1-1.11-.19,2.11,2.11,0,0,1-1.3-1.33A3.18,3.18,0,0,1,68.64,24V19.49h-.75a.52.52,0,0,1-.35-.14A.49.49,0,0,1,67.4,19v-1l1.4-.27.52-2.15a.52.52,0,0,1,.58-.41h1.37v2.57h2.19v1.81H71.27v4.37a.81.81,0,0,0,.15.51.52.52,0,0,0,.43.2.78.78,0,0,0,.24,0,.54.54,0,0,0,.17-.07l.14-.07a.33.33,0,0,1,.15,0,.29.29,0,0,1,.19.06.65.65,0,0,1,.15.17l.8,1.25a3.56,3.56,0,0,1-1.15.58A4.79,4.79,0,0,1,71.22,26.62Z"/><path class="cls-2" d="M76.68,22.55a2.53,2.53,0,0,0,.67,1.6,2,2,0,0,0,1.4.49,2.42,2.42,0,0,0,.8-.11,4,4,0,0,0,.59-.24l.47-.25a1.07,1.07,0,0,1,.46-.11.54.54,0,0,1,.47.23l.77.94a3.64,3.64,0,0,1-.88.76,4.5,4.5,0,0,1-1,.46,5,5,0,0,1-1,.23,6.22,6.22,0,0,1-.94.07,4.76,4.76,0,0,1-1.74-.31,4,4,0,0,1-1.42-.89,4.12,4.12,0,0,1-1-1.48,5.46,5.46,0,0,1-.35-2.06,4.62,4.62,0,0,1,.3-1.67,4.22,4.22,0,0,1,.86-1.39,4.28,4.28,0,0,1,1.37-.94A4.89,4.89,0,0,1,80,17.8a3.6,3.6,0,0,1,1.25.79,3.71,3.71,0,0,1,.82,1.27,4.83,4.83,0,0,1,.29,1.71,3,3,0,0,1,0,.48.71.71,0,0,1-.09.3.43.43,0,0,1-.18.15.85.85,0,0,1-.3.05ZM80,21a2.16,2.16,0,0,0-.09-.62,1.46,1.46,0,0,0-.26-.53,1.42,1.42,0,0,0-.48-.38,1.74,1.74,0,0,0-.72-.14,1.55,1.55,0,0,0-1.17.43A2.24,2.24,0,0,0,76.71,21Z"/><path class="cls-2" d="M91.66,13.76V26.48H90a.63.63,0,0,1-.65-.44l-.2-.67a6.77,6.77,0,0,1-.56.51,3.6,3.6,0,0,1-.62.39,3.64,3.64,0,0,1-.72.26,3.73,3.73,0,0,1-.84.09,2.66,2.66,0,0,1-1.28-.31,3,3,0,0,1-1-.88A4.8,4.8,0,0,1,83.48,24a6.93,6.93,0,0,1-.24-1.91,6,6,0,0,1,.27-1.83,4.72,4.72,0,0,1,.77-1.46,3.5,3.5,0,0,1,1.2-1A3.29,3.29,0,0,1,87,17.5a3,3,0,0,1,1.15.19,3.11,3.11,0,0,1,.85.53V13.76ZM89,20a1.6,1.6,0,0,0-.64-.46,2.06,2.06,0,0,0-.73-.14,1.54,1.54,0,0,0-.68.15,1.44,1.44,0,0,0-.53.46,2.36,2.36,0,0,0-.35.83A4.88,4.88,0,0,0,86,22.1a6.41,6.41,0,0,0,.1,1.18,2.64,2.64,0,0,0,.29.77,1.17,1.17,0,0,0,.44.42,1.32,1.32,0,0,0,.57.12,2.14,2.14,0,0,0,.52-.05,2,2,0,0,0,.43-.16,1.78,1.78,0,0,0,.37-.26,3,3,0,0,0,.34-.36Z"/><path class="cls-2" d="M105.14,24.19v2.29H97.67V14.1h2.88V24.19Z"/><path class="cls-2" d="M106.1,18.89a5.32,5.32,0,0,1,1.77-1.05A6.19,6.19,0,0,1,110,17.5a3.69,3.69,0,0,1,1.44.26,3.05,3.05,0,0,1,1.09.72,3.24,3.24,0,0,1,.68,1.1,3.9,3.9,0,0,1,.24,1.39v5.51H112.2a1.17,1.17,0,0,1-.56-.1.75.75,0,0,1-.32-.43l-.19-.48a6.44,6.44,0,0,1-.64.49,3.94,3.94,0,0,1-.63.36,2.72,2.72,0,0,1-.7.22,4.07,4.07,0,0,1-.82.08,3.67,3.67,0,0,1-1.09-.16,2.43,2.43,0,0,1-.84-.46,2,2,0,0,1-.53-.76,2.69,2.69,0,0,1-.19-1,2.2,2.2,0,0,1,.24-1,2.43,2.43,0,0,1,.82-.89,5.2,5.2,0,0,1,1.58-.68,10.63,10.63,0,0,1,2.51-.3V21a1.6,1.6,0,0,0-.32-1.12,1.19,1.19,0,0,0-.9-.34,2.4,2.4,0,0,0-.77.1,4.43,4.43,0,0,0-.53.23c-.15.09-.31.16-.45.23a1.25,1.25,0,0,1-.53.1.76.76,0,0,1-.46-.13,1.22,1.22,0,0,1-.31-.33Zm4.74,4a9.38,9.38,0,0,0-1.3.14,3.4,3.4,0,0,0-.81.25,1,1,0,0,0-.41.35.81.81,0,0,0-.11.43.74.74,0,0,0,.24.63,1.25,1.25,0,0,0,.73.18,2.24,2.24,0,0,0,.89-.17,2.93,2.93,0,0,0,.77-.58Z"/><path class="cls-2" d="M117.52,18.62a5.37,5.37,0,0,1,.53-.44,3.08,3.08,0,0,1,.58-.35,3.51,3.51,0,0,1,.67-.22,3.91,3.91,0,0,1,.79-.08,3,3,0,0,1,1.28.25,2.73,2.73,0,0,1,.94.7,3.11,3.11,0,0,1,.58,1.06,4.43,4.43,0,0,1,.19,1.34v5.6h-2.63v-5.6a1.54,1.54,0,0,0-.3-1,1.08,1.08,0,0,0-.88-.36,1.85,1.85,0,0,0-.81.18,3.39,3.39,0,0,0-.73.5v6.29h-2.64V17.67h1.63a.61.61,0,0,1,.65.44Z"/><path class="cls-2" d="M132.76,13.76V26.48h-1.63a.63.63,0,0,1-.65-.44l-.2-.67a6.64,6.64,0,0,1-.55.51,3.33,3.33,0,0,1-.63.39,3.23,3.23,0,0,1-.72.26,3.73,3.73,0,0,1-.84.09,2.62,2.62,0,0,1-1.27-.31,2.91,2.91,0,0,1-1-.88,4.35,4.35,0,0,1-.67-1.42,6.93,6.93,0,0,1-.24-1.91,6,6,0,0,1,.27-1.83,4.52,4.52,0,0,1,.77-1.46,3.56,3.56,0,0,1,1.19-1,3.32,3.32,0,0,1,1.54-.35,3,3,0,0,1,1.16.19,3.27,3.27,0,0,1,.85.53V13.76ZM130.13,20a1.63,1.63,0,0,0-.65-.46,2,2,0,0,0-.73-.14,1.5,1.5,0,0,0-.67.15,1.44,1.44,0,0,0-.53.46,2.36,2.36,0,0,0-.35.83,4.88,4.88,0,0,0-.13,1.23,5.64,5.64,0,0,0,.1,1.18,2.65,2.65,0,0,0,.28.77,1.25,1.25,0,0,0,.44.42,1.32,1.32,0,0,0,.57.12,2.09,2.09,0,0,0,.52-.05,1.82,1.82,0,0,0,.43-.16,1.55,1.55,0,0,0,.37-.26,3,3,0,0,0,.35-.36Z"/><path class="cls-2" d="M137.51,15.25a1.45,1.45,0,0,1-.12.59,1.57,1.57,0,0,1-.35.49,1.65,1.65,0,0,1-.52.33,1.59,1.59,0,0,1-.62.12,1.46,1.46,0,0,1-.6-.12,1.56,1.56,0,0,1-.5-.33,1.39,1.39,0,0,1-.34-.49,1.45,1.45,0,0,1-.13-.59,1.54,1.54,0,0,1,.13-.6,1.39,1.39,0,0,1,.34-.49,1.43,1.43,0,0,1,.5-.34,1.64,1.64,0,0,1,.6-.11,1.8,1.8,0,0,1,.62.11,1.51,1.51,0,0,1,.52.34,1.57,1.57,0,0,1,.35.49A1.53,1.53,0,0,1,137.51,15.25Zm-.27,2.42v8.81h-2.63V17.67Z"/><path class="cls-2" d="M141.52,18.62a5.27,5.27,0,0,1,.52-.44,3.53,3.53,0,0,1,.59-.35,3.29,3.29,0,0,1,.67-.22,3.81,3.81,0,0,1,.78-.08,3,3,0,0,1,1.28.25,2.55,2.55,0,0,1,.94.7,3,3,0,0,1,.58,1.06,4.43,4.43,0,0,1,.2,1.34v5.6h-2.64v-5.6a1.54,1.54,0,0,0-.3-1,1.05,1.05,0,0,0-.87-.36,1.85,1.85,0,0,0-.81.18,3.44,3.44,0,0,0-.74.5v6.29h-2.63V17.67h1.63a.6.6,0,0,1,.64.44Z"/><path class="cls-2" d="M156.78,17.94v1a.5.5,0,0,1-.13.35.82.82,0,0,1-.42.19l-.64.15a2.33,2.33,0,0,1,.08.38,2.73,2.73,0,0,1,0,.41,2.57,2.57,0,0,1-.27,1.19,2.71,2.71,0,0,1-.76.89,3.43,3.43,0,0,1-1.13.57,4.62,4.62,0,0,1-1.41.2h-.4a2.47,2.47,0,0,1-.38,0,.51.51,0,0,0-.29.4.33.33,0,0,0,.24.32,2.27,2.27,0,0,0,.63.14l.89,0,1,.06a6.78,6.78,0,0,1,1,.16,2.81,2.81,0,0,1,.89.35,2,2,0,0,1,.63.66,2.09,2.09,0,0,1,.24,1.05,2.59,2.59,0,0,1-.29,1.17,3.23,3.23,0,0,1-.85,1,4.72,4.72,0,0,1-1.38.71,6,6,0,0,1-1.87.27,7.19,7.19,0,0,1-1.79-.2,4.4,4.4,0,0,1-1.25-.51,2.14,2.14,0,0,1-.73-.74,1.73,1.73,0,0,1-.24-.87,1.4,1.4,0,0,1,.34-1,2.32,2.32,0,0,1,.95-.63,1.44,1.44,0,0,1-.51-.5,1.47,1.47,0,0,1-.19-.79,1.28,1.28,0,0,1,.07-.42,1.7,1.7,0,0,1,.22-.42,2.28,2.28,0,0,1,.37-.4,2.58,2.58,0,0,1,.52-.33,2.8,2.8,0,0,1-1.08-1,2.45,2.45,0,0,1-.4-1.4,2.53,2.53,0,0,1,.28-1.2,2.65,2.65,0,0,1,.77-.9,3.86,3.86,0,0,1,1.15-.57,5,5,0,0,1,1.43-.2,4.51,4.51,0,0,1,2,.43Zm-2.61,8.86a.46.46,0,0,0-.28-.45,2.38,2.38,0,0,0-.73-.2,9.61,9.61,0,0,0-1-.07c-.37,0-.74,0-1.1-.07a1.89,1.89,0,0,0-.41.38.8.8,0,0,0-.15.47.63.63,0,0,0,.08.34.61.61,0,0,0,.28.27,2,2,0,0,0,.55.17,5.22,5.22,0,0,0,.87.06,5.85,5.85,0,0,0,.93-.06,2.15,2.15,0,0,0,.59-.19.74.74,0,0,0,.3-.28A.8.8,0,0,0,154.17,26.8Zm-2-5.19a1.08,1.08,0,0,0,1.24-1.17,1.13,1.13,0,0,0-.29-.84,1.6,1.6,0,0,0-1.89,0,1.14,1.14,0,0,0-.3.84,1.34,1.34,0,0,0,.08.46.81.81,0,0,0,.22.37,1,1,0,0,0,.39.25A1.51,1.51,0,0,0,152.13,21.61Z"/><path class="cls-2" d="M170.49,16.37H167V26.48h-2.87V16.37h-3.49V14.1h9.84Z"/><path class="cls-2" d="M171.79,22.55a2.48,2.48,0,0,0,.68,1.6,2,2,0,0,0,1.4.49,2.36,2.36,0,0,0,.79-.11,3.62,3.62,0,0,0,.59-.24l.48-.25a1,1,0,0,1,.45-.11.56.56,0,0,1,.48.23l.76.94a3.46,3.46,0,0,1-.88.76,4.29,4.29,0,0,1-1,.46,5.06,5.06,0,0,1-1,.23,6.35,6.35,0,0,1-1,.07,4.76,4.76,0,0,1-1.74-.31,4.11,4.11,0,0,1-1.42-.89,4.41,4.41,0,0,1-1-1.48,5.66,5.66,0,0,1-.35-2.06,4.62,4.62,0,0,1,.3-1.67,4.05,4.05,0,0,1,2.24-2.33,4.86,4.86,0,0,1,3.41-.08,3.51,3.51,0,0,1,1.25.79,3.71,3.71,0,0,1,.82,1.27,4.83,4.83,0,0,1,.29,1.71c0,.2,0,.36,0,.48a.7.7,0,0,1-.1.3.34.34,0,0,1-.18.15.79.79,0,0,1-.29.05ZM175.11,21a2.57,2.57,0,0,0-.08-.62,1.48,1.48,0,0,0-.27-.53,1.42,1.42,0,0,0-.48-.38,1.68,1.68,0,0,0-.72-.14,1.55,1.55,0,0,0-1.17.43,2.24,2.24,0,0,0-.56,1.24Z"/><path class="cls-2" d="M178.59,18.89a5.47,5.47,0,0,1,1.78-1.05,6.13,6.13,0,0,1,2.08-.34,3.63,3.63,0,0,1,1.44.26,3.05,3.05,0,0,1,1.09.72,3.12,3.12,0,0,1,.69,1.1A4.14,4.14,0,0,1,185.9,21v5.51h-1.2a1.24,1.24,0,0,1-.57-.1.8.8,0,0,1-.32-.43l-.18-.48c-.23.19-.44.35-.64.49a5.06,5.06,0,0,1-.63.36,2.85,2.85,0,0,1-.7.22,4.15,4.15,0,0,1-.82.08,3.79,3.79,0,0,1-1.1-.16,2.43,2.43,0,0,1-.84-.46,2.17,2.17,0,0,1-.53-.76,2.89,2.89,0,0,1-.18-1,2.33,2.33,0,0,1,.23-1,2.47,2.47,0,0,1,.83-.89,5.2,5.2,0,0,1,1.58-.68,10.57,10.57,0,0,1,2.51-.3V21a1.65,1.65,0,0,0-.32-1.12,1.21,1.21,0,0,0-.91-.34,2.33,2.33,0,0,0-.76.1,3.82,3.82,0,0,0-.53.23l-.46.23a1.22,1.22,0,0,1-.53.1.73.73,0,0,1-.45-.13,1.08,1.08,0,0,1-.31-.33Zm4.75,4A9.38,9.38,0,0,0,182,23a3.4,3.4,0,0,0-.81.25,1,1,0,0,0-.41.35.82.82,0,0,0-.12.43.72.72,0,0,0,.25.63,1.19,1.19,0,0,0,.72.18,2.21,2.21,0,0,0,.89-.17,2.81,2.81,0,0,0,.78-.58Z"/><path class="cls-2" d="M187.59,26.48V17.67h1.63a.6.6,0,0,1,.64.44l.15.47a6,6,0,0,1,.46-.42,4.45,4.45,0,0,1,.51-.33,2.85,2.85,0,0,1,.6-.22,3,3,0,0,1,.7-.08,2.1,2.1,0,0,1,1.32.41,2.66,2.66,0,0,1,.8,1.1,2.3,2.3,0,0,1,.54-.69,2.76,2.76,0,0,1,.68-.47,3.05,3.05,0,0,1,.79-.26,3.93,3.93,0,0,1,2.16.14,2.48,2.48,0,0,1,1,.65,3,3,0,0,1,.6,1.05,4.47,4.47,0,0,1,.2,1.42v5.6h-2.63v-5.6c0-.91-.39-1.37-1.17-1.37a1.21,1.21,0,0,0-.89.35,1.38,1.38,0,0,0-.36,1v5.6h-2.63v-5.6a1.49,1.49,0,0,0-.3-1.06,1.14,1.14,0,0,0-.87-.31,1.45,1.45,0,0,0-.68.16,2.43,2.43,0,0,0-.6.44v6.37Z"/><g class="cls-3"><path class="cls-2" d="M56,107.12A15.34,15.34,0,0,1,44.36,122a15,15,0,0,1-3.69.45A15.34,15.34,0,1,1,56,107.12Z"/><path class="cls-2" d="M63.7,135v31.11a7.62,7.62,0,0,1-.17,1.6H17.81a7.62,7.62,0,0,1-.17-1.6V135a7.47,7.47,0,0,1,7.47-7.47H30a23,23,0,0,0,10.68,2.62,22.38,22.38,0,0,0,3.68-.3,22.75,22.75,0,0,0,7-2.32h4.89A7.46,7.46,0,0,1,63.7,135Z"/></g><g class="cls-3"><path class="cls-2" d="M113.35,107.12a15.34,15.34,0,1,1-30.67,0A15.07,15.07,0,0,1,84,100.89a15.33,15.33,0,0,1,29.34,6.23Z"/><path class="cls-2" d="M121,135v31.11a7.62,7.62,0,0,1-.17,1.6H75.15a7.62,7.62,0,0,1-.17-1.6V135a7.47,7.47,0,0,1,7.47-7.47h4.89a22.05,22.05,0,0,0,3.07,1.33,22.8,22.8,0,0,0,7.6,1.29,23.53,23.53,0,0,0,3.68-.29,22.83,22.83,0,0,0,7-2.33h4.89A7.46,7.46,0,0,1,121,135Z"/></g><g class="cls-3"><path class="cls-2" d="M170.69,107.12a15.3,15.3,0,0,1-15.34,15.34,15.13,15.13,0,0,1-7.6-2,15.34,15.34,0,1,1,22.94-13.32Z"/><path class="cls-2" d="M178.38,135v31.11a7.62,7.62,0,0,1-.17,1.6H132.49a7.62,7.62,0,0,1-.17-1.6V135a7.47,7.47,0,0,1,7.47-7.47h4.89a22.05,22.05,0,0,0,3.07,1.33,22.8,22.8,0,0,0,7.6,1.29,23.53,23.53,0,0,0,3.68-.29,22.83,22.83,0,0,0,7-2.33h4.89A7.46,7.46,0,0,1,178.38,135Z"/></g><g class="cls-4"><circle class="cls-2" cx="67.39" cy="80.41" r="15.33"/><path class="cls-2" d="M90.41,120.44v8.42a22.05,22.05,0,0,1-3.07-1.33H82.45A7.47,7.47,0,0,0,75,135v6H63.7v-6a7.46,7.46,0,0,0-7.46-7.47H51.35a22.75,22.75,0,0,1-7,2.32V122a15.34,15.34,0,0,0,10.29-21.2h2.07a23,23,0,0,0,21.34,0H83a7.45,7.45,0,0,1,1.06.08,15.07,15.07,0,0,0-1.33,6.23A15.33,15.33,0,0,0,90.41,120.44Z"/><circle class="cls-2" cx="124.73" cy="80.41" r="15.33"/><path class="cls-2" d="M147.75,120.44v8.42a22.05,22.05,0,0,1-3.07-1.33h-4.89a7.47,7.47,0,0,0-7.47,7.47v6H121v-6a7.46,7.46,0,0,0-7.46-7.47h-4.89a22.83,22.83,0,0,1-7,2.33V122A15.34,15.34,0,0,0,112,100.81h2.07a23,23,0,0,0,21.34,0h4.89a7.2,7.2,0,0,1,1.05.08,15.35,15.35,0,0,0,6.41,19.55Z"/><circle class="cls-2" cx="182.07" cy="80.41" r="15.33"/><path class="cls-2" d="M205.09,108.29V139.4a7.52,7.52,0,0,1-.17,1.59H178.38v-6a7.46,7.46,0,0,0-7.46-7.47H166a22.83,22.83,0,0,1-7,2.33V122a15.34,15.34,0,0,0,10.3-21.21h2.06a23,23,0,0,0,21.35,0h4.89A7.46,7.46,0,0,1,205.09,108.29Z"/></g></g></svg>