<svg xmlns="http://www.w3.org/2000/svg" viewBox="0 0 222.07 183.3"><defs><style>.cls-1{fill:#0cb2dd;}.cls-2{font-size:17px;font-family:Lato;font-weight:800;}.cls-2,.cls-9{fill:#fff;}.cls-3{letter-spacing:-0.01em;}.cls-4{letter-spacing:-0.01em;}.cls-5{letter-spacing:0em;}.cls-6{letter-spacing:-0.03em;}.cls-7{letter-spacing:-0.12em;}.cls-8{opacity:0.7;}.cls-10{opacity:0.4;}</style></defs><g id="map"><rect class="cls-1" width="222.07" height="183.3" rx="4.44"/><text class="cls-2" transform="translate(13.94 26.48)"><tspan class="cls-3">D</tspan><tspan x="12.83" y="0">edic</tspan><tspan class="cls-4" x="44.57" y="0">a</tspan><tspan class="cls-5" x="53.24" y="0">t</tspan><tspan x="59.68" y="0">ed Landing</tspan><tspan class="cls-6" x="143.04" y="0"> </tspan><tspan class="cls-7" x="146.45" y="0">T</tspan><tspan x="154.79" y="0">eam</tspan></text><g class="cls-8"><path class="cls-9" d="M56,107.12A15.34,15.34,0,0,1,44.36,122a15,15,0,0,1-3.69.45A15.34,15.34,0,1,1,56,107.12Z"/><path class="cls-9" d="M63.7,135v31.11a7.62,7.62,0,0,1-.17,1.6H17.81a7.62,7.62,0,0,1-.17-1.6V135a7.47,7.47,0,0,1,7.47-7.47H30a23,23,0,0,0,10.68,2.62,22.38,22.38,0,0,0,3.68-.3,22.75,22.75,0,0,0,7-2.32h4.89A7.46,7.46,0,0,1,63.7,135Z"/></g><g class="cls-8"><path class="cls-9" d="M113.35,107.12a15.34,15.34,0,1,1-30.67,0A15.07,15.07,0,0,1,84,100.89a15.33,15.33,0,0,1,29.34,6.23Z"/><path class="cls-9" d="M121,135v31.11a7.62,7.62,0,0,1-.17,1.6H75.15a7.62,7.62,0,0,1-.17-1.6V135a7.47,7.47,0,0,1,7.47-7.47h4.89a22.05,22.05,0,0,0,3.07,1.33,22.8,22.8,0,0,0,7.6,1.29,23.53,23.53,0,0,0,3.68-.29,22.83,22.83,0,0,0,7-2.33h4.89A7.46,7.46,0,0,1,121,135Z"/></g><g class="cls-8"><path class="cls-9" d="M170.69,107.12a15.3,15.3,0,0,1-15.34,15.34,15.13,15.13,0,0,1-7.6-2,15.34,15.34,0,1,1,22.94-13.32Z"/><path class="cls-9" d="M178.38,135v31.11a7.62,7.62,0,0,1-.17,1.6H132.49a7.62,7.62,0,0,1-.17-1.6V135a7.47,7.47,0,0,1,7.47-7.47h4.89a22.05,22.05,0,0,0,3.07,1.33,22.8,22.8,0,0,0,7.6,1.29,23.53,23.53,0,0,0,3.68-.29,22.83,22.83,0,0,0,7-2.33h4.89A7.46,7.46,0,0,1,178.38,135Z"/></g><g class="cls-10"><circle class="cls-9" cx="67.39" cy="80.41" r="15.33"/><path class="cls-9" d="M90.41,120.44v8.42a22.05,22.05,0,0,1-3.07-1.33H82.45A7.47,7.47,0,0,0,75,135v6H63.7v-6a7.46,7.46,0,0,0-7.46-7.47H51.35a22.75,22.75,0,0,1-7,2.32V122a15.34,15.34,0,0,0,10.29-21.2h2.07a23,23,0,0,0,21.34,0H83a7.45,7.45,0,0,1,1.06.08,15.07,15.07,0,0,0-1.33,6.23A15.33,15.33,0,0,0,90.41,120.44Z"/><circle class="cls-9" cx="124.73" cy="80.41" r="15.33"/><path class="cls-9" d="M147.75,120.44v8.42a22.05,22.05,0,0,1-3.07-1.33h-4.89a7.47,7.47,0,0,0-7.47,7.47v6H121v-6a7.46,7.46,0,0,0-7.46-7.47h-4.89a22.83,22.83,0,0,1-7,2.33V122A15.34,15.34,0,0,0,112,100.81h2.07a23,23,0,0,0,21.34,0h4.89a7.2,7.2,0,0,1,1.05.08,15.35,15.35,0,0,0,6.41,19.55Z"/><circle class="cls-9" cx="182.07" cy="80.41" r="15.33"/><path class="cls-9" d="M205.09,108.29V139.4a7.52,7.52,0,0,1-.17,1.59H178.38v-6a7.46,7.46,0,0,0-7.46-7.47H166a22.83,22.83,0,0,1-7,2.33V122a15.34,15.34,0,0,0,10.3-21.21h2.06a23,23,0,0,0,21.35,0h4.89A7.46,7.46,0,0,1,205.09,108.29Z"/></g></g></svg>