<svg xmlns="http://www.w3.org/2000/svg" viewBox="0 0 300 300"><defs><style>.cls-1,.cls-5{fill:#fff;}.cls-2{fill:#9ac43a;}.cls-3,.cls-4{fill:#1d1d1b;}.cls-4,.cls-5{stroke:#1d1d1b;stroke-miterlimit:10;}.cls-4{stroke-width:0.84px;}.cls-5{stroke-width:1.1px;}</style></defs><title>LAVS</title><g id="shadow"><path class="cls-1" d="M204.11,221.8a9.38,9.38,0,0,1-9.22-7.66c-14.2-.75-29.24-1.14-44.78-1.15h-.23c-15.53,0-30.57.4-44.77,1.15a9.38,9.38,0,0,1-9.22,7.66H72.55a9.38,9.38,0,0,1-9.38-9.37v-4.55l-2-36.67L61.07,169a42.48,42.48,0,0,1,6.06-21.85c-3.73-2.17-6.06-5.58-6.06-9.43,0-6.67,6.95-11.89,15.81-11.89a19.84,19.84,0,0,1,9.1,2.08l15.57-22.22a9.59,9.59,0,0,1,7.17-4.24l4.46-.53c12-1.44,22.34-2.69,36.8-2.69s24.85,1.25,36.84,2.69l4.46.53a9.59,9.59,0,0,1,7.17,4.24L214,127.86a20,20,0,0,1,9.06-2.06c8.87,0,15.81,5.22,15.81,11.89,0,3.83-2.31,7.24-6,9.41A42.46,42.46,0,0,1,238.93,169l-.07,2.14-2,36.77v4.55a9.38,9.38,0,0,1-9.38,9.37Z"/><path class="cls-1" d="M150,103.2c15.95,0,26.88,1.56,40.78,3.2a4.57,4.57,0,0,1,3.51,2.06l18.7,26.7c1.59-2.56,5.49-4.36,10.06-4.36,6,0,10.81,3.08,10.81,6.89,0,3.43-3.92,6.28-9,6.81a37.33,37.33,0,0,1,9.1,24.47l-.07,2-2,36.81v4.69a4.38,4.38,0,0,1-4.38,4.37H204.11a4.38,4.38,0,0,1-4.38-4.37v-3h0c-15.13-.9-31.94-1.41-49.65-1.42h-.24c-17.71,0-34.52.52-49.65,1.42h0v3a4.38,4.38,0,0,1-4.38,4.37H72.55a4.38,4.38,0,0,1-4.38-4.37v-4.69l-2-36.81-.07-2a37.3,37.3,0,0,1,9.1-24.46c-5.16-.53-9.1-3.38-9.1-6.82,0-3.81,4.84-6.89,10.81-6.89,4.59,0,8.51,1.82,10.08,4.39l18.73-26.73a4.57,4.57,0,0,1,3.51-2.06c13.9-1.64,24.83-3.2,40.78-3.2h0m0-10h0c-14.76,0-25.24,1.26-37.39,2.73l-4.37.52a14.61,14.61,0,0,0-10.79,6.38l-13.3,19a26,26,0,0,0-7.25-1c-11.67,0-20.81,7.42-20.81,16.89a15.1,15.1,0,0,0,4.66,10.79A47.33,47.33,0,0,0,56.07,169v.36l.07,2v.19l2,36.54v4.41A14.39,14.39,0,0,0,72.55,226.8H95.89a14.39,14.39,0,0,0,12.8-7.83c13.13-.64,26.95-1,41.2-1h.23c14.24,0,28.06.34,41.19,1a14.39,14.39,0,0,0,12.8,7.83h23.34a14.39,14.39,0,0,0,14.38-14.37V208l2-36.54v-.19l.07-2V169a47.54,47.54,0,0,0-4.67-20.53,15.11,15.11,0,0,0,4.62-10.75c0-9.47-9.14-16.89-20.81-16.89a25.74,25.74,0,0,0-7.21,1l-13.29-19a14.61,14.61,0,0,0-10.79-6.38l-4.37-.52C175.26,94.46,164.78,93.2,150,93.2Z"/></g><g id="icons"><path class="cls-1" d="M204.11,218.59a7.6,7.6,0,0,1-7.6-7.57c-14.67-.81-30.26-1.23-46.4-1.24h-.23c-16.13,0-31.72.43-46.39,1.24a7.6,7.6,0,0,1-7.6,7.57H72.55A7.6,7.6,0,0,1,65,211v-4.6l-2-36.73-.08-2.13A40.66,40.66,0,0,1,69.67,145c-4.14-1.77-6.83-5-6.83-8.73,0-5.68,6.17-10.12,14-10.12a17.52,17.52,0,0,1,9.6,2.68L103,105.22a7.77,7.77,0,0,1,5.88-3.46l4.5-.54c11.93-1.44,22.23-2.68,36.58-2.68s24.69,1.24,36.62,2.68l4.5.54a7.77,7.77,0,0,1,5.88,3.46L213.5,128.8a17.54,17.54,0,0,1,9.57-2.66c7.87,0,14,4.44,14,10.12,0,3.7-2.67,6.94-6.79,8.71a40.65,40.65,0,0,1,6.84,22.57l-.08,2.07-2,36.79V211a7.6,7.6,0,0,1-7.6,7.59Z"/><path class="cls-1" d="M150,101.77c15.95,0,26.88,1.56,40.78,3.2a4.52,4.52,0,0,1,3.51,2.06L213,133.72c1.59-2.55,5.49-4.36,10.06-4.36,6,0,10.81,3.09,10.81,6.9,0,3.43-3.92,6.27-9,6.81a37.33,37.33,0,0,1,9.1,24.47l-.07,2-2,36.81V211a4.39,4.39,0,0,1-4.38,4.37H204.11a4.39,4.39,0,0,1-4.38-4.37v-3h0c-15.13-.91-31.94-1.41-49.65-1.42h-.24c-17.71,0-34.52.51-49.65,1.42h0v3a4.39,4.39,0,0,1-4.38,4.37H72.55A4.39,4.39,0,0,1,68.17,211v-4.69l-2-36.81-.07-2a37.33,37.33,0,0,1,9.1-24.47c-5.16-.52-9.1-3.37-9.1-6.81,0-3.81,4.84-6.9,10.81-6.9,4.59,0,8.51,1.82,10.08,4.4L105.69,107A4.52,4.52,0,0,1,109.2,105c13.9-1.64,24.83-3.2,40.78-3.2h0m0-6.46h0c-14.55,0-24.94,1.26-37,2.7l-4.43.54a11.06,11.06,0,0,0-8.23,4.85L85.49,124.61a21.79,21.79,0,0,0-8.61-1.7c-9.68,0-17.26,5.86-17.26,13.35a12.15,12.15,0,0,0,5.56,9.9,43.91,43.91,0,0,0-5.56,21.38v.23l.07,2v.12l2,36.63V211a10.84,10.84,0,0,0,10.83,10.82H95.89a10.86,10.86,0,0,0,10.38-7.72c13.85-.72,28.49-1.08,43.62-1.09h.23c15.12,0,29.76.37,43.61,1.09a10.86,10.86,0,0,0,10.38,7.72h23.34A10.84,10.84,0,0,0,238.28,211v-4.52l2-36.63v-.12l.07-2v-.23a43.92,43.92,0,0,0-5.57-21.41,12.17,12.17,0,0,0,5.53-9.87c0-7.49-7.59-13.35-17.27-13.35a21.8,21.8,0,0,0-8.57,1.69l-14.85-21.2a11.06,11.06,0,0,0-8.23-4.85L187,98c-12-1.44-22.42-2.7-37-2.7Z"/><path class="cls-2" d="M204.11,216.75a5.76,5.76,0,0,1-5.76-5.75v-1.72c-15.21-.88-31.43-1.33-48.23-1.34h-.24c-16.8,0-33,.46-48.23,1.34V211a5.76,5.76,0,0,1-5.76,5.75H72.55A5.76,5.76,0,0,1,66.79,211v-4.69l-2-36.74-.07-2A38.92,38.92,0,0,1,72.61,144c-4.71-1.17-7.92-4.21-7.92-7.77,0-4.64,5.35-8.28,12.19-8.28,4.06,0,7.76,1.33,10,3.49l17.69-25.23a5.89,5.89,0,0,1,4.55-2.65l4.51-.54c11.87-1.43,22.12-2.67,36.36-2.67s24.53,1.24,36.4,2.67l4.58.55a5.87,5.87,0,0,1,4.51,2.68l17.64,25.16c2.24-2.14,5.92-3.46,10-3.46,6.84,0,12.2,3.64,12.2,8.28,0,3.54-3.2,6.58-7.89,7.76a38.84,38.84,0,0,1,7.93,23.52l-.07,2-2,36.83V211a5.76,5.76,0,0,1-5.76,5.75Z"/><path class="cls-3" d="M150,101.77c15.95,0,26.88,1.56,40.78,3.2a4.52,4.52,0,0,1,3.51,2.06L213,133.72c1.59-2.55,5.49-4.36,10.06-4.36,6,0,10.81,3.09,10.81,6.9,0,3.43-3.92,6.27-9,6.81a37.33,37.33,0,0,1,9.1,24.47l-.07,2-2,36.81V211a4.39,4.39,0,0,1-4.38,4.37H204.11a4.39,4.39,0,0,1-4.38-4.37v-3h0c-15.13-.91-31.94-1.41-49.65-1.42h-.24c-17.71,0-34.52.51-49.65,1.42h0v3a4.39,4.39,0,0,1-4.38,4.37H72.55A4.39,4.39,0,0,1,68.17,211v-4.69l-2-36.81-.07-2a37.33,37.33,0,0,1,9.1-24.47c-5.16-.52-9.1-3.37-9.1-6.81,0-3.81,4.84-6.9,10.81-6.9,4.59,0,8.51,1.82,10.08,4.4L105.69,107A4.52,4.52,0,0,1,109.2,105c13.9-1.64,24.83-3.2,40.78-3.2h0M150,99h0c-14.32,0-24.61,1.24-36.53,2.68l-4.51.53a7.36,7.36,0,0,0-5.54,3.27l-16.8,24a16.83,16.83,0,0,0-9.72-2.86c-7.61,0-13.58,4.24-13.58,9.66,0,3.68,2.8,6.88,7.07,8.51a40.25,40.25,0,0,0-7.07,22.77v.1l.07,2v.05l2,36.73V211a7.14,7.14,0,0,0,7.14,7.13H95.89A7.14,7.14,0,0,0,103,211v-.42c14.81-.82,30.56-1.25,46.86-1.26h.23c16.29,0,32,.44,46.85,1.26V211a7.14,7.14,0,0,0,7.14,7.13h23.34a7.14,7.14,0,0,0,7.14-7.13v-4.62l2-36.73v-.05l.07-2v-.1a40.19,40.19,0,0,0-7.08-22.78c4.25-1.64,7-4.84,7-8.5,0-5.42-6-9.66-13.58-9.66a16.85,16.85,0,0,0-9.68,2.83l-16.79-24a7.36,7.36,0,0,0-5.54-3.27l-4.51-.53C174.63,100.24,164.34,99,150,99Z"/><path class="cls-3" d="M232.46,192.77,231.68,207v4.69a4.39,4.39,0,0,1-4.38,4.37H204a4.39,4.39,0,0,1-4.38-4.37v-3h0c-15.13-.9-31.94-1.4-49.65-1.41h-.24c-17.71,0-34.52.51-49.65,1.41h0v3a4.39,4.39,0,0,1-4.38,4.37H72.4A4.39,4.39,0,0,1,68,211.68V207l-.78-14.22h46.4a7.1,7.1,0,0,0,6.89,5.48h58.64a7.1,7.1,0,0,0,6.89-5.48Z"/><path class="cls-1" d="M203.09,72.61a32.08,32.08,0,0,0-9.4,1.66l.58,1.42.58,1.43a29.15,29.15,0,0,1,36.21,38.41l1.42.6,1.41.6h0a32.22,32.22,0,0,0-30.8-44.12Z"/><path class="cls-1" d="M203.32,81.38a23.08,23.08,0,0,0-6.31,1l.58,1.43.58,1.43a20.38,20.38,0,0,1,26.15,19A20.13,20.13,0,0,1,223,112.1l1.42.6,1.41.6a23.47,23.47,0,0,0-22.5-31.92Z"/><path class="cls-1" d="M203.58,91.24a13.21,13.21,0,0,0-2.83.37l.58,1.44.59,1.45a10.07,10.07,0,0,1,1.74-.19,10.53,10.53,0,0,1,10.8,10.24,10.21,10.21,0,0,1-.56,3.68l1.42.61,1.41.6a13.47,13.47,0,0,0,.8-5A13.61,13.61,0,0,0,203.58,91.24Z"/><path class="cls-1" d="M63.83,103.34a32.15,32.15,0,0,0,1.38,9.45l1.44-.54,1.44-.54A29.16,29.16,0,0,1,96.16,74.3a28.93,28.93,0,0,1,11.41,2.37l.65-1.4.64-1.39h0a32.23,32.23,0,0,0-45,29.46Z"/><path class="cls-1" d="M72.6,103.37a23.34,23.34,0,0,0,.85,6.35l1.44-.54,1.45-.54a20.39,20.39,0,0,1,27.56-24l.64-1.41.65-1.39A23.48,23.48,0,0,0,72.6,103.37Z"/><path class="cls-1" d="M82.47,103.41a12.73,12.73,0,0,0,.29,2.84l1.45-.54,1.46-.55a11,11,0,0,1-.14-1.74A10.53,10.53,0,0,1,99.76,93.6l.65-1.39.64-1.4a13.59,13.59,0,0,0-18.58,12.6Z"/><path class="cls-4" d="M148.3,107.09l-2.49,0a192.77,192.77,0,0,0-38.66,3.59l-16.9,25.65c16.56-1.24,35.74-2,56-2h4.08c20.29,0,39.47.77,56,2l-16.9-25.65a192.77,192.77,0,0,0-38.66-3.59l-2.49,0"/><path class="cls-5" d="M225,158.92a1.59,1.59,0,0,0-1.3-.18h0l-31.38,6.69a4.48,4.48,0,0,0-.11,9h.13l22.45-.19v0c1.69.17,4.78-2.21,7.4-5.85C225.15,164.19,226.41,160,225,158.92Z"/><rect class="cls-4" x="189.29" y="177.57" width="24.34" height="3.17" rx="1.54" ry="1.54"/><path class="cls-5" d="M71.68,158.92a1.59,1.59,0,0,1,1.3-.18h0l31.38,6.69a4.48,4.48,0,0,1,.11,9h-.13l-22.45-.19v0c-1.69.17-4.78-2.21-7.4-5.85C71.49,164.19,70.23,160,71.68,158.92Z"/><rect class="cls-4" x="83.01" y="177.57" width="24.34" height="3.17" rx="1.58" ry="1.58" transform="translate(190.36 358.31) rotate(-180)"/></g></svg>