<svg xmlns="http://www.w3.org/2000/svg" viewBox="0 0 100 100"><defs><style>.cls-1,.cls-2,.cls-5,.cls-6,.cls-9{fill:#fff;}.cls-2,.cls-5{stroke:#fff;}.cls-2,.cls-4,.cls-5,.cls-6,.cls-7{stroke-miterlimit:10;}.cls-2{stroke-width:3.36px;}.cls-3,.cls-4,.cls-7{fill:#1d1d1b;}.cls-4,.cls-6,.cls-7{stroke:#1d1d1b;}.cls-4{stroke-width:0.14px;}.cls-5{stroke-width:3.28px;}.cls-6,.cls-7{stroke-width:0.68px;}.cls-8{fill:#f50000;}.cls-9{font-size:11.47px;font-family:Arial-Black, Arial Black;}</style></defs><title>LCG col</title><g id="icons"><path class="cls-1" d="M58.36,90a5.16,5.16,0,0,1-2.6-.64L8.12,60.93A2.25,2.25,0,0,1,6.9,58.87V54.74a2.41,2.41,0,0,1,1.57-1.86l30.93-14.2a5.29,5.29,0,0,1,2.23-.45,5.16,5.16,0,0,1,2.6.63L91.88,67.3a2.26,2.26,0,0,1,1.22,2v4a2.39,2.39,0,0,1-1.58,2.09L60.59,89.55A5.44,5.44,0,0,1,58.36,90Z"/><path class="cls-2" d="M91.94,69.24v4c0,.38-.31.76-.9,1L60.11,88.5a4.57,4.57,0,0,1-3.75-.13L8.71,59.93a1.08,1.08,0,0,1-.65-1v-4a1.37,1.37,0,0,1,.9-1l30.93-14.2a4.53,4.53,0,0,1,3.75.13L91.29,68.3A1.12,1.12,0,0,1,91.94,69.24Z"/><path class="cls-3" d="M39.89,39.64,9,53.84c-1.1.51-1.21,1.39-.25,2L56.36,84.25a4.53,4.53,0,0,0,3.75.12L91,70.17c1.1-.5,1.21-1.38.25-2L43.64,39.77A4.57,4.57,0,0,0,39.89,39.64ZM76.68,74.71c.31.19.27.47-.08.64L72,77.46a1.5,1.5,0,0,1-1.21,0l-2.64-1.64c-.31-.18-.28-.47.07-.63L72.82,73a1.42,1.42,0,0,1,1.21,0Zm7.85-9.37c.31.19.27.47-.08.63L53.5,80.18a1.41,1.41,0,0,1-1.19-.05L11.1,55.8c-.31-.18-.27-.46.08-.63L42.12,41a1.43,1.43,0,0,1,1.2,0Z"/><path class="cls-4" d="M8.06,56.14v0Z"/><path class="cls-4" d="M91.94,70.78c0,.38-.31.76-.9,1L60.11,86a4.49,4.49,0,0,1-3.75-.13L8.71,57.45a1.22,1.22,0,0,1-.65-.85v2.7a1.09,1.09,0,0,0,.65,1L56.36,88.74a4.49,4.49,0,0,0,3.75.13L91,74.67c.59-.27.9-.65.9-1Z"/><path class="cls-5" d="M61.82,14.37a.93.93,0,0,0-.93-.92H43.23a.93.93,0,0,0-.93.92V21H61.82Z"/><path class="cls-5" d="M42.3,64.51a.93.93,0,0,0,.93.93H60.89a.93.93,0,0,0,.93-.93V57.86H42.3Z"/><rect class="cls-5" x="36.76" y="21.44" width="30.59" height="36.01" rx="2.47" ry="2.47"/><rect class="cls-1" x="38.02" y="22.53" width="28.36" height="33.8"/><path class="cls-6" d="M61.82,21V14.37a.93.93,0,0,0-.93-.92H43.23a.93.93,0,0,0-.93.92V21Z"/><path class="cls-6" d="M67.36,41h1.75a.25.25,0,0,0,.25-.25V36.14a.25.25,0,0,0-.25-.25H67.36Z"/><path class="cls-6" d="M42.3,57.86v6.65a.93.93,0,0,0,.93.93H60.89a.93.93,0,0,0,.93-.93V57.86Z"/><rect class="cls-3" x="39.75" y="24.74" width="24.63" height="29.51" rx="0.04" ry="0.04"/><path class="cls-7" d="M64.89,21.44H39.23a2.47,2.47,0,0,0-2.47,2.46V55a2.48,2.48,0,0,0,2.47,2.47H64.89A2.48,2.48,0,0,0,67.36,55V23.9A2.47,2.47,0,0,0,64.89,21.44Zm.66,33.29a.93.93,0,0,1-.93.92H39.5a.93.93,0,0,1-.93-.92V24.26a.93.93,0,0,1,.93-.93H64.62a.93.93,0,0,1,.93.93Z"/><path class="cls-8" d="M57,43.36a7.64,7.64,0,0,1,1-.82,2.7,2.7,0,0,1,3.94,2A2.75,2.75,0,0,1,61,47.08L57.4,50.27l-.39.3c-.32-.26-.65-.51-.95-.78L53,47.08a2.8,2.8,0,0,1-.73-3.18,2.74,2.74,0,0,1,2.83-1.68,2.62,2.62,0,0,1,1.77,1Z"/><text class="cls-9" transform="translate(43.33 37.83)">60</text></g></svg>