<svg xmlns="http://www.w3.org/2000/svg" viewBox="0 0 300 300"><defs><style>.cls-1,.cls-6{fill:#fff;}.cls-2,.cls-3,.cls-4{fill:#1d1d1b;}.cls-2{stroke:#1d1d1b;stroke-width:0.33px;}.cls-2,.cls-4{stroke-miterlimit:10;}.cls-4{stroke:#fff;}.cls-5{fill:#c03239;}.cls-6{font-size:27.43px;font-family:Arial-Black, Arial Black;}</style></defs><title>LCG</title><g id="shadow"><path class="cls-1" d="M161,244.49a13,13,0,0,1-6.58-1.63l-113.91-68a7.35,7.35,0,0,1-2.06-1.78H37.07V155.4h1.3a8.08,8.08,0,0,1,2.93-2.2l63.41-29.12V84.83a10.24,10.24,0,0,1,10.22-10.22h3V62.35a6.7,6.7,0,0,1,6.53-6.84h42.23a6.7,6.7,0,0,1,6.53,6.84V74.61h3A10.23,10.23,0,0,1,186.5,84.83v24.35a4.91,4.91,0,0,1,4.78,4.9v11.13a4.92,4.92,0,0,1-4.78,4.9V154.8l55.14,32.9a7.54,7.54,0,0,1,2,1.67h1.3l0,3.5V204h-.15c-.15,2.26-1.66,4.19-4.19,5.35l-74,34A13.59,13.59,0,0,1,161,244.49Z"/><path class="cls-1" d="M166.72,59a3.19,3.19,0,0,1,3,3.33V78.11h6.53A6.73,6.73,0,0,1,183,84.83v27.85h3.37a1.4,1.4,0,0,1,1.41,1.4v11.13a1.41,1.41,0,0,1-1.41,1.4H183v30.18l56.85,33.92a2.7,2.7,0,0,1,1.56,2.16h0v7.67h-.14v3.18c0,.92-.74,1.84-2.16,2.49l-73.95,33.95A10.29,10.29,0,0,1,161,241a9.75,9.75,0,0,1-4.79-1.13l-113.91-68a2.64,2.64,0,0,1-1.56-2.27h-.17V158.9h0c0-.93.72-1.86,2.15-2.52l65.45-30.06V84.83a6.73,6.73,0,0,1,6.72-6.72h6.53V62.35a3.19,3.19,0,0,1,3-3.33h42.23m0-7H124.49a10.19,10.19,0,0,0-10,10.33v8.77a13.73,13.73,0,0,0-13.25,13.71v37L39.84,150a12.26,12.26,0,0,0-2.93,1.88h-3.3l0,7v17.69H37a11.32,11.32,0,0,0,1.74,1.28l113.91,68A16.65,16.65,0,0,0,161,248a17.23,17.23,0,0,0,7.1-1.46l74-34a10.8,10.8,0,0,0,5.37-5h1V185.87h-3.36a11.83,11.83,0,0,0-1.64-1.18L190,152.81v-20a8.42,8.42,0,0,0,4.78-7.58V114.08A8.41,8.41,0,0,0,190,106.5V84.83a13.73,13.73,0,0,0-13.25-13.71V62.35a10.19,10.19,0,0,0-10-10.33Z"/></g><g id="icons"><path class="cls-1" d="M161.08,243.49A12,12,0,0,1,155,242L41.11,174a5.55,5.55,0,0,1-2.63-3.19,2.53,2.53,0,0,1-.32-1.23V158.9a2.75,2.75,0,0,1,.08-.65,5.68,5.68,0,0,1,3.57-4.14l74.06-34a12.63,12.63,0,0,1,5.24-1,12.12,12.12,0,0,1,6.07,1.48l114,68A5.15,5.15,0,0,1,244,192.4a2.42,2.42,0,0,1,0,.47v7.67a2.47,2.47,0,0,1-.13.82v2.36c0,2-1.34,3.72-3.62,4.76l-73.95,34A12.75,12.75,0,0,1,161.08,243.49Z"/><path class="cls-1" d="M121.11,121.54a9.6,9.6,0,0,1,4.78,1.13l114,68a2.71,2.71,0,0,1,1.57,2.16h0v7.67h-.13v3.18c0,.92-.74,1.84-2.16,2.49l-73.95,33.95a10.34,10.34,0,0,1-4.19.83,9.71,9.71,0,0,1-4.78-1.13l-113.91-68a2.63,2.63,0,0,1-1.56-2.27h-.17V158.9h0c0-.93.72-1.86,2.15-2.52l74.07-34a10.31,10.31,0,0,1,4.19-.82m0-5h0a15.09,15.09,0,0,0-6.28,1.28l-74.07,34a8.21,8.21,0,0,0-5,5.93,4.66,4.66,0,0,0-.13,1.13v10.69a4.94,4.94,0,0,0,.48,2.14,8,8,0,0,0,3.69,4.43l113.91,68a14.55,14.55,0,0,0,7.34,1.84,15.23,15.23,0,0,0,6.27-1.28l74-34c3.14-1.44,5-4.05,5.07-7v-2.06a5.06,5.06,0,0,0,.13-1.17v-7.67a4.61,4.61,0,0,0-.07-.84,7.76,7.76,0,0,0-3.95-5.62l-114-68a14.61,14.61,0,0,0-7.35-1.83Z"/><path class="cls-2" d="M241,196.91c0,.91-.75,1.82-2.15,2.46l-74,34a10.83,10.83,0,0,1-9-.31L42.06,165a2.82,2.82,0,0,1-1.56-2v6.44a2.56,2.56,0,0,0,1.56,2.41l113.91,68a10.83,10.83,0,0,0,9,.3l74-33.95c1.41-.65,2.14-1.57,2.15-2.49Z"/><path class="cls-3" d="M116.6,122.46l-74,34c-2.62,1.21-2.89,3.32-.58,4.7L156,229.1a10.79,10.79,0,0,0,9,.31l74-34c2.62-1.2,2.89-3.31.58-4.69l-113.91-68A10.79,10.79,0,0,0,116.6,122.46Zm87.94,83.85c.74.44.66,1.12-.19,1.51l-11,5.06a3.5,3.5,0,0,1-2.89-.1l-6.33-3.91c-.74-.45-.65-1.13.19-1.51l11-5.06a3.48,3.48,0,0,1,2.88.1Zm18.78-22.4c.73.43.65,1.11-.19,1.49l-74,34a3.45,3.45,0,0,1-2.85-.1L47.75,161.09c-.73-.44-.64-1.11.19-1.49l74-34a3.48,3.48,0,0,1,2.85.1Z"/><rect class="cls-1" x="112.11" y="81.54" width="67.82" height="80.81"/><path class="cls-3" d="M124.58,185.45a3.68,3.68,0,0,1-3.53-3.81V166.35h-6a7.23,7.23,0,0,1-7.22-7.22V84.83A7.23,7.23,0,0,1,115,77.61h6V62.35a3.7,3.7,0,0,1,3.53-3.84h42.23a3.7,3.7,0,0,1,3.53,3.84V77.61h6a7.23,7.23,0,0,1,7.22,7.22v27.35h2.87a1.9,1.9,0,0,1,1.9,1.9v11.13a1.9,1.9,0,0,1-1.9,1.9h-2.87v32a7.23,7.23,0,0,1-7.22,7.22h-6v15.29a3.68,3.68,0,0,1-3.53,3.81Zm-.9-3.81a1,1,0,0,0,.9,1h42.23a1,1,0,0,0,.89-1V166.35h-44Zm-8-96.86a.89.89,0,0,0-.89.89v72.85a.89.89,0,0,0,.89.9h60.07a.89.89,0,0,0,.89-.9V85.67a.89.89,0,0,0-.89-.89Zm52-7.17V62.35a1,1,0,0,0-.89-1H124.58a1,1,0,0,0-.9,1V77.61Z"/><path class="cls-3" d="M166.81,59a3.19,3.19,0,0,1,3,3.33V78.11h6.53a6.73,6.73,0,0,1,6.72,6.72v27.85h3.37a1.4,1.4,0,0,1,1.4,1.4v11.13a1.4,1.4,0,0,1-1.4,1.4h-3.37v32.52a6.73,6.73,0,0,1-6.72,6.72h-6.53v15.79a3.19,3.19,0,0,1-3,3.31H124.58a3.19,3.19,0,0,1-3-3.31V165.85H115a6.72,6.72,0,0,1-6.72-6.72V84.83A6.73,6.73,0,0,1,115,78.11h6.53V62.35a3.19,3.19,0,0,1,3-3.33h42.23M123.18,78.11h45V62.35a1.47,1.47,0,0,0-1.39-1.54H124.58a1.48,1.48,0,0,0-1.4,1.54V78.11m-7.52,81.81h60.07a1.4,1.4,0,0,0,1.39-1.4V85.67a1.39,1.39,0,0,0-1.39-1.39H115.66a1.39,1.39,0,0,0-1.39,1.39v72.85a1.4,1.4,0,0,0,1.39,1.4m8.92,23.24h42.23a1.46,1.46,0,0,0,1.39-1.52V165.85h-45v15.79a1.47,1.47,0,0,0,1.4,1.52M166.81,58H124.58a4.19,4.19,0,0,0-4,4.33V77.11H115a7.73,7.73,0,0,0-7.72,7.72v74.3a7.72,7.72,0,0,0,7.72,7.72h5.53v14.79a4.18,4.18,0,0,0,4,4.31h42.23a4.19,4.19,0,0,0,4-4.31V166.85h5.53a7.73,7.73,0,0,0,7.72-7.72V127.61h2.37a2.4,2.4,0,0,0,2.4-2.4V114.08a2.39,2.39,0,0,0-2.4-2.4h-2.37V84.83a7.74,7.74,0,0,0-7.72-7.72h-5.53V62.35a4.19,4.19,0,0,0-4-4.33ZM124.18,77.11V62.35c0-.29.19-.54.4-.54h42.23c.21,0,.39.25.39.54V77.11Zm-8.52,81.81a.39.39,0,0,1-.39-.4V85.67a.38.38,0,0,1,.39-.39h60.07a.39.39,0,0,1,.39.39v72.85a.4.4,0,0,1-.39.4Zm8.52,7.93h43v14.79c0,.28-.18.52-.39.52H124.58a.49.49,0,0,1-.4-.52V166.85Z"/><rect class="cls-1" x="125.24" y="63.1" width="41" height="12.67"/><rect class="cls-4" x="116.25" y="86.82" width="58.88" height="70.56" rx="0.11" ry="0.11"/><path class="cls-5" d="M156.43,131.35a18.39,18.39,0,0,1,2.45-2,6.46,6.46,0,0,1,9.41,4.83,6.59,6.59,0,0,1-2.21,6c-2.85,2.56-5.75,5.08-8.63,7.61-.27.24-.57.45-.93.72-.76-.62-1.54-1.21-2.27-1.85q-3.66-3.24-7.3-6.5a6.69,6.69,0,0,1-1.73-7.6,6.55,6.55,0,0,1,6.77-4,6.35,6.35,0,0,1,4.24,2.47Z"/><text class="cls-6" transform="translate(123.82 118.13)">60</text></g></svg>