<svg id="icons" xmlns="http://www.w3.org/2000/svg" viewBox="0 0 150 100.22"><defs><style>.cls-1{fill:#fff;}.cls-2{fill:#9c3;}</style></defs><rect class="cls-1" x="51.85" y="10.51" width="43.87" height="77.04" rx="6.79"/><circle class="cls-1" cx="69.56" cy="13.76" r="1.98"/><path class="cls-1" d="M92.58,80.76a3.66,3.66,0,0,1-3.65,3.66H58.64A3.66,3.66,0,0,1,55,80.76V17.3a3.66,3.66,0,0,1,3.66-3.65h6V15a2.09,2.09,0,0,0,2.09,2.08h14A2.08,2.08,0,0,0,82.89,15V13.65h6a3.66,3.66,0,0,1,3.65,3.65Z"/><path class="cls-2" d="M88.93,10.51H58.64a6.8,6.8,0,0,0-6.79,6.79V80.76a6.79,6.79,0,0,0,6.79,6.79H88.93a6.8,6.8,0,0,0,6.79-6.79V17.3A6.8,6.8,0,0,0,88.93,10.51ZM69.56,11.78a2,2,0,1,1-2,2A2,2,0,0,1,69.56,11.78Zm23,69a3.66,3.66,0,0,1-3.65,3.66H58.64A3.66,3.66,0,0,1,55,80.76V17.3a3.66,3.66,0,0,1,3.66-3.65h6V15a2.09,2.09,0,0,0,2.09,2.08h14A2.08,2.08,0,0,0,82.89,15V13.65h6a3.66,3.66,0,0,1,3.65,3.65Z"/><rect class="cls-2" x="65.13" y="78.28" width="19.93" height="1.8" rx="0.9"/></svg>