<svg id="icons" xmlns="http://www.w3.org/2000/svg" viewBox="0 0 150 150"><defs><style>.cls-1{fill:#fff;}.cls-2{font-size:17px;font-family:Lato-Regular, Lato;}.cls-3{letter-spacing:-0.02em;}.cls-4{letter-spacing:-0.01em;}.cls-5{letter-spacing:-0.02em;}.cls-6{letter-spacing:-0.01em;}.cls-7{letter-spacing:-0.02em;}.cls-8{fill:#9c3;}</style></defs><rect class="cls-1" x="51.85" y="11.94" width="43.87" height="77.04" rx="6.79"/><circle class="cls-1" cx="69.56" cy="15.19" r="1.98"/><path class="cls-1" d="M92.58,82.19a3.66,3.66,0,0,1-3.65,3.66H58.64A3.66,3.66,0,0,1,55,82.19V18.73a3.66,3.66,0,0,1,3.66-3.66h6v1.4a2.09,2.09,0,0,0,2.09,2.08h14a2.08,2.08,0,0,0,2.08-2.08v-1.4h6a3.66,3.66,0,0,1,3.65,3.66Z"/><text class="cls-2" transform="translate(10.53 111.42)">Lina<tspan class="cls-3" x="30.74" y="0">r</tspan><tspan x="36.58" y="0">o </tspan><tspan class="cls-4" x="50.57" y="0">C</tspan><tspan x="61.76" y="0">onsume</tspan><tspan class="cls-5" x="120.68" y="0">r</tspan><tspan class="cls-6" x="39.87" y="20.4">G</tspan><tspan class="cls-7" x="52.16" y="20.4">r</tspan><tspan x="58" y="20.4">oup</tspan></text><path class="cls-8" d="M88.93,11.94H58.64a6.8,6.8,0,0,0-6.79,6.79V82.19A6.79,6.79,0,0,0,58.64,89H88.93a6.8,6.8,0,0,0,6.79-6.79V18.73A6.8,6.8,0,0,0,88.93,11.94ZM69.56,13.21a2,2,0,1,1-2,2A2,2,0,0,1,69.56,13.21Zm23,69a3.66,3.66,0,0,1-3.65,3.66H58.64A3.66,3.66,0,0,1,55,82.19V18.73a3.66,3.66,0,0,1,3.66-3.66h6v1.4a2.09,2.09,0,0,0,2.09,2.08h14a2.08,2.08,0,0,0,2.08-2.08v-1.4h6a3.66,3.66,0,0,1,3.65,3.66Z"/><rect class="cls-8" x="65.13" y="78.28" width="19.93" height="1.8" rx="0.9"/></svg>