<svg xmlns="http://www.w3.org/2000/svg" viewBox="0 0 300 300"><defs><style>.cls-1{fill:#1d1d1b;opacity:0.2;}.cls-2{fill:#fff;}.cls-3{fill:#0cb2dd;}</style></defs><title>LDCG</title><g id="Background"><rect class="cls-1" x="-10.62" y="-57.51" width="1295.51" height="2590.82"/></g><g id="shadow"><path class="cls-2" d="M93.1,219.86a48.53,48.53,0,0,1-48.63-49.51,50.23,50.23,0,0,1,45.7-49.16,66.06,66.06,0,0,1,60.83-41,63.63,63.63,0,0,1,59.6,41,48.47,48.47,0,0,1,44.93,49.3c-.44,27.24-22.58,49.4-49.35,49.4Z"/><path class="cls-2" d="M151,83.64a60,60,0,0,1,57.09,40.9A45,45,0,0,1,252,170.41c-.4,25.09-20.85,46-45.85,46H93.1a45,45,0,0,1-45.13-46,46.84,46.84,0,0,1,44.66-45.87A62.43,62.43,0,0,1,151,83.64m0-7a69.55,69.55,0,0,0-63.24,41.29A53.74,53.74,0,0,0,41,170.29,52,52,0,0,0,93.1,223.36H206.18c28.67,0,52.38-23.71,52.85-52.84a52,52,0,0,0-46-52.64A67.13,67.13,0,0,0,151,76.64Z"/></g><g id="icons"><path class="cls-3" d="M93.1,218.86a47.52,47.52,0,0,1-47.63-48.49,49.21,49.21,0,0,1,45.4-48.23,65,65,0,0,1,60.13-41,62.63,62.63,0,0,1,58.89,41,47.47,47.47,0,0,1,44.64,48.34c-.43,26.69-22.12,48.41-48.35,48.41Z"/><path class="cls-2" d="M151,83.64a60,60,0,0,1,57.09,40.9A45,45,0,0,1,252,170.41c-.4,25.09-20.85,46-45.85,46H93.1a45,45,0,0,1-45.13-46,46.84,46.84,0,0,1,44.66-45.87A62.43,62.43,0,0,1,151,83.64m0-5a67.56,67.56,0,0,0-61.87,41.15A51.72,51.72,0,0,0,43,170.33a50,50,0,0,0,50.13,51H206.18c27.59,0,50.4-22.82,50.85-50.87a50,50,0,0,0-45.37-50.75A65.12,65.12,0,0,0,151,78.64Z"/><path class="cls-2" d="M190.52,195.55a2.38,2.38,0,0,0-2.38-2.37H158a10.65,10.65,0,0,0-4.83-4.39v-5.73h32.14a5.24,5.24,0,0,0,5.24-5.23v-11a5.25,5.25,0,0,0-5.24-5.24H153.14V159h32.14a5.25,5.25,0,0,0,5.24-5.24v-11a5.25,5.25,0,0,0-5.24-5.23H153.13v-2.6h32.15a5.23,5.23,0,0,0,5.23-5.23v-11a5.23,5.23,0,0,0-5.23-5.23H114.71a5.24,5.24,0,0,0-5.23,5.23v11a5.24,5.24,0,0,0,5.24,5.23h30.09v2.6H114.72a5.24,5.24,0,0,0-5.24,5.23v11a5.24,5.24,0,0,0,5.24,5.23h30.09v2.61H114.72a5.24,5.24,0,0,0-5.24,5.23v11a5.24,5.24,0,0,0,5.23,5.24h30.09v5.6a10.59,10.59,0,0,0-5.14,4.52H111.91a2.39,2.39,0,0,0-2.38,2.38v5.71a2.39,2.39,0,0,0,2.38,2.38h27.76a10.53,10.53,0,0,0,18.3,0h30.17a2.38,2.38,0,0,0,2.38-2.38Zm-5.24-29.23a.47.47,0,0,1,.48.48v11a.47.47,0,0,1-.48.47H173.54v-12Zm0-24.1a.48.48,0,0,1,.48.47v11a.47.47,0,0,1-.48.48H173.54v-12Zm0-24.11a.49.49,0,0,1,.48.48v11a.49.49,0,0,1-.48.48H173.54v-12Z"/></g></svg>