<svg xmlns="http://www.w3.org/2000/svg" viewBox="0 0 100 100"><defs><style>.cls-1{fill:#fff;}.cls-2{fill:#0cb2dd;}</style></defs><title>LDCG col</title><g id="icons"><path class="cls-1" d="M89.11,53.45A21.08,21.08,0,0,0,76,47.06a27.46,27.46,0,0,0-25.53-17.2,28,28,0,0,0-16.36,5.25,28.45,28.45,0,0,0-9.68,12A21.9,21.9,0,0,0,5,68.43,21.16,21.16,0,0,0,26.2,90H73.5A21.76,21.76,0,0,0,95,68.5,21.12,21.12,0,0,0,89.11,53.45Zm3.56,15A19.47,19.47,0,0,1,73.5,87.68H26.2A18.82,18.82,0,0,1,7.33,68.46,19.58,19.58,0,0,1,26,49.28,26.13,26.13,0,0,1,50.42,32.17,25.12,25.12,0,0,1,74.3,49.28,18.8,18.8,0,0,1,92.67,68.46Z"/><path class="cls-2" d="M74.3,49.28A25.12,25.12,0,0,0,50.42,32.17,26.13,26.13,0,0,0,26,49.28,19.58,19.58,0,0,0,7.33,68.46,18.82,18.82,0,0,0,26.2,87.68H73.5A19.47,19.47,0,0,0,92.67,68.46,18.8,18.8,0,0,0,74.3,49.28Z"/><path class="cls-1" d="M66,82.36H53.33a4.41,4.41,0,0,1-7.65,0H34.07a1,1,0,0,1-1-1V79a1,1,0,0,1,1-1H45.68a4.36,4.36,0,0,1,2.15-1.89V73.76H35.24a2.2,2.2,0,0,1-2.19-2.19V67a2.2,2.2,0,0,1,2.19-2.19H47.83V63.68H35.24a2.2,2.2,0,0,1-2.19-2.19V56.87a2.19,2.19,0,0,1,2.19-2.18H47.83V53.59H35.24a2.2,2.2,0,0,1-2.19-2.19V46.79a2.2,2.2,0,0,1,2.19-2.19H64.76a2.19,2.19,0,0,1,2.18,2.19V51.4a2.2,2.2,0,0,1-2.19,2.19H51.31v1.09H64.76A2.2,2.2,0,0,1,67,56.87v4.62a2.19,2.19,0,0,1-2.19,2.18H51.31v1.09H64.76A2.2,2.2,0,0,1,67,67v4.62a2.2,2.2,0,0,1-2.19,2.19H51.31v2.39a4.45,4.45,0,0,1,2,1.84H66a1,1,0,0,1,1,1v2.39A1,1,0,0,1,66,82.36Z"/><path class="cls-2" d="M64.76,71.77a.2.2,0,0,0,.2-.2V67a.2.2,0,0,0-.2-.2H59.85v5Z"/><path class="cls-2" d="M64.76,51.6a.2.2,0,0,0,.2-.2V46.79a.19.19,0,0,0-.19-.2H59.84v5Z"/><path class="cls-2" d="M64.76,61.68a.19.19,0,0,0,.2-.19V56.87a.2.2,0,0,0-.2-.2H59.85v5Z"/></g></svg>