<svg id="icons" xmlns="http://www.w3.org/2000/svg" viewBox="0 0 150 100.22"><defs><style>.cls-1{fill:#fff;}.cls-2{fill:#0cb2dd;}</style></defs><path class="cls-1" d="M52.06,79a20.92,20.92,0,0,1-21-21.34A21.64,21.64,0,0,1,50.6,36.51,28.36,28.36,0,0,1,76.65,19.06a27.33,27.33,0,0,1,25.53,17.43,20.77,20.77,0,0,1,19.17,21.24A21.55,21.55,0,0,1,100.08,79Z"/><path class="cls-2" d="M76.65,20.86a25.49,25.49,0,0,1,24.24,17.36A19.1,19.1,0,0,1,119.55,57.7a19.77,19.77,0,0,1-19.47,19.51h-48A19.11,19.11,0,0,1,32.9,57.7a19.89,19.89,0,0,1,19-19.48A26.52,26.52,0,0,1,76.65,20.86m0-3.6A30.16,30.16,0,0,0,49.37,34.85,23.43,23.43,0,0,0,29.31,57.64,22.69,22.69,0,0,0,52.06,80.8h48a23.34,23.34,0,0,0,23.06-23,22.68,22.68,0,0,0-19.7-22.94A29.14,29.14,0,0,0,76.65,17.26Z"/><path class="cls-2" d="M93.43,68.38a1,1,0,0,0-1-1H79.61a4.51,4.51,0,0,0-2-1.86V63.07H91.21a2.22,2.22,0,0,0,2.22-2.22V56.17a2.23,2.23,0,0,0-2.22-2.23H77.56V52.84H91.21a2.23,2.23,0,0,0,2.22-2.23V45.93a2.23,2.23,0,0,0-2.22-2.22H77.56V42.6H91.21a2.23,2.23,0,0,0,2.22-2.22V35.69a2.23,2.23,0,0,0-2.22-2.22h-30A2.23,2.23,0,0,0,59,35.7v4.68a2.22,2.22,0,0,0,2.22,2.22H74v1.11H61.24A2.23,2.23,0,0,0,59,45.93v4.69a2.23,2.23,0,0,0,2.22,2.22H74V54H61.24A2.22,2.22,0,0,0,59,56.17v4.68a2.23,2.23,0,0,0,2.22,2.23H74v2.38a4.49,4.49,0,0,0-2.18,1.92H60.05a1,1,0,0,0-1,1V70.8a1,1,0,0,0,1,1H71.84a4.47,4.47,0,0,0,7.77,0H92.42a1,1,0,0,0,1-1ZM91.21,56a.21.21,0,0,1,.2.21v4.68a.2.2,0,0,1-.2.2h-5V56Zm0-10.23a.2.2,0,0,1,.2.2v4.69a.2.2,0,0,1-.2.2h-5V45.73Zm0-10.24a.2.2,0,0,1,.2.2v4.69a.2.2,0,0,1-.2.2h-5V35.49Z"/></svg>