<svg id="icons" xmlns="http://www.w3.org/2000/svg" viewBox="0 0 150 150"><defs><style>.cls-1{font-size:17px;font-family:Lato-Regular, Lato;}.cls-2{letter-spacing:-0.02em;}.cls-3{letter-spacing:-0.01em;}.cls-4{letter-spacing:-0.01em;}.cls-5{letter-spacing:-0.01em;}.cls-6{letter-spacing:-0.01em;}.cls-7{letter-spacing:0em;}.cls-8{letter-spacing:-0.02em;}.cls-9{letter-spacing:-0.01em;}.cls-10{letter-spacing:-0.02em;}.cls-11{fill:#fff;}.cls-12{fill:#0cb2dd;}</style></defs><text class="cls-1" transform="translate(9.56 111.42)">Lina<tspan class="cls-2" x="30.74" y="0">r</tspan><tspan x="36.58" y="0">o </tspan><tspan class="cls-3" x="50.57" y="0">D</tspan><tspan class="cls-4" x="63.28" y="0">a</tspan><tspan x="71.62" y="0">ta</tspan><tspan class="cls-5" x="86.16" y="0">c</tspan><tspan x="94.13" y="0">e</tspan><tspan class="cls-6" x="103.1" y="0">n</tspan><tspan class="cls-7" x="112.47" y="0">t</tspan><tspan x="118.52" y="0">e</tspan><tspan class="cls-8" x="127.5" y="0">r</tspan><tspan x="10.88" y="20.4">&amp; Cloud </tspan><tspan class="cls-9" x="75.69" y="20.4">G</tspan><tspan class="cls-10" x="87.97" y="20.4">r</tspan><tspan x="93.81" y="20.4">oup</tspan></text><path class="cls-11" d="M52.06,80.44a20.92,20.92,0,0,1-21-21.34A21.63,21.63,0,0,1,50.6,37.94,28.36,28.36,0,0,1,76.65,20.49a27.32,27.32,0,0,1,25.53,17.43,20.77,20.77,0,0,1,19.17,21.24,21.55,21.55,0,0,1-21.27,21.28Z"/><path class="cls-12" d="M76.65,22.28a25.5,25.5,0,0,1,24.24,17.37,19.1,19.1,0,0,1,18.66,19.48,19.77,19.77,0,0,1-19.47,19.51h-48A19.11,19.11,0,0,1,32.9,59.13a19.88,19.88,0,0,1,19-19.48A26.53,26.53,0,0,1,76.65,22.28m0-3.59A30.16,30.16,0,0,0,49.37,36.28,23.43,23.43,0,0,0,29.31,59.07,22.69,22.69,0,0,0,52.06,82.23h48a23.34,23.34,0,0,0,23.06-23,22.68,22.68,0,0,0-19.7-22.94A29.13,29.13,0,0,0,76.65,18.69Z"/><path class="cls-12" d="M93.43,69.81a1,1,0,0,0-1-1H79.61a4.51,4.51,0,0,0-2-1.86V64.5H91.21a2.23,2.23,0,0,0,2.22-2.22V57.59a2.23,2.23,0,0,0-2.22-2.22H77.56v-1.1H91.21A2.22,2.22,0,0,0,93.43,52V47.36a2.22,2.22,0,0,0-2.22-2.22H77.56V44H91.21a2.23,2.23,0,0,0,2.22-2.22V37.12a2.23,2.23,0,0,0-2.22-2.22h-30A2.23,2.23,0,0,0,59,37.13v4.68A2.23,2.23,0,0,0,61.24,44H74v1.11H61.24A2.23,2.23,0,0,0,59,47.36v4.69a2.23,2.23,0,0,0,2.22,2.22H74v1.1H61.24A2.23,2.23,0,0,0,59,57.6v4.68a2.22,2.22,0,0,0,2.22,2.22H74v2.38a4.49,4.49,0,0,0-2.18,1.92H60.05a1,1,0,0,0-1,1v2.42a1,1,0,0,0,1,1H71.84a4.47,4.47,0,0,0,7.77,0H92.42a1,1,0,0,0,1-1ZM91.21,57.39a.2.2,0,0,1,.2.2v4.69a.2.2,0,0,1-.2.2h-5V57.39Zm0-10.23a.2.2,0,0,1,.2.2V52a.2.2,0,0,1-.2.2h-5V47.16Zm0-10.24a.2.2,0,0,1,.2.2v4.69a.2.2,0,0,1-.2.2h-5V36.92Z"/></svg>