<svg xmlns="http://www.w3.org/2000/svg" viewBox="0 0 300 300"><defs><style>.cls-1,.cls-4,.cls-5{fill:#1d1d1b;}.cls-1{opacity:0.2;}.cls-2{fill:#fff;}.cls-3{fill:#8b63a9;}.cls-5{stroke:#1d1d1b;stroke-miterlimit:10;stroke-width:0.35px;}</style></defs><title>LEDGE</title><g id="Background"><rect class="cls-1" x="-658.62" y="-57.51" width="1295.51" height="2590.82"/></g><g id="shadow"><path class="cls-2" d="M139.37,243.15a42.33,42.33,0,0,1-16.2-3.22,5.77,5.77,0,0,1-1.35-.44l-.13-.06a42.84,42.84,0,0,1-24.27-31l-.19-1.07-.16-1a42.34,42.34,0,0,1,.38-14.21q-.72,0-1.44,0A42.32,42.32,0,0,1,79.81,189a6.4,6.4,0,0,1-1.34-.45l-.14-.06a42.83,42.83,0,0,1-24.26-30.94l-.2-1.14-.15-1a42.78,42.78,0,0,1,13.14-37.18,6,6,0,0,1,1.06-.8,42.65,42.65,0,0,1,35.6-9.93,64.19,64.19,0,0,1,43.89-28.24,64.63,64.63,0,0,1,18-.27,16.62,16.62,0,0,1-1.31-6.5c0-8.63,6.51-15.66,14.51-15.66s14.51,7,14.51,15.66a16.42,16.42,0,0,1-4.25,11.08c.31,1.26.66,2.53,1.06,3.81a64,64,0,0,1,31,45.59c.1.66.19,1.33.28,2.06l6.56,2.14v9.58a42.78,42.78,0,0,1,18.19,27.54l.19,1.07.16,1a42.81,42.81,0,0,1-13.14,37.19,5.51,5.51,0,0,1-1.06.79,42.49,42.49,0,0,1-21.18,10,43,43,0,0,1-7,.58h0a42.23,42.23,0,0,1-16.21-3.22,5.84,5.84,0,0,1-1.34-.44l-.14-.06a44.11,44.11,0,0,1-7.37-4.31,43.08,43.08,0,0,1-10.26,14.8,6.77,6.77,0,0,1-1.06.79,42.53,42.53,0,0,1-21.18,10A43.19,43.19,0,0,1,139.37,243.15Z"/><path class="cls-2" d="M178.58,60.35c6.08,0,11,5.45,11,12.16a12.52,12.52,0,0,1-4.6,9.88,58.55,58.55,0,0,0,2,7.38,60.74,60.74,0,0,1,30.44,43.76c.22,1.38.36,2.76.48,4.14l6.32,2.06v3.82h-6.09c0,.75,0,1.5-.05,2.25.38.14.75.29,1.12.45a2.49,2.49,0,0,1,.82.22l0,0A39.22,39.22,0,0,1,242.49,175l.06.33c0,.19.07.38.1.57a.17.17,0,0,1,0,.07s0,.05,0,.07c0,.19,0,.38.08.57s0,.22.05.33a39.24,39.24,0,0,1-12.06,34.16l0,0a2.59,2.59,0,0,1-.65.42A39,39,0,0,1,210.33,221a39.88,39.88,0,0,1-6.41.53,39,39,0,0,1-15.24-3.11,2.49,2.49,0,0,1-.82-.22l0,0a39.31,39.31,0,0,1-10.62-7.07,39.45,39.45,0,0,1-11,18.13l0,0a2.59,2.59,0,0,1-.65.42,39,39,0,0,1-19.73,9.46,40.1,40.1,0,0,1-6.42.53,39,39,0,0,1-15.24-3.11,2.49,2.49,0,0,1-.82-.22l0,0a39.22,39.22,0,0,1-22.42-28.46l-.06-.33c0-.19-.07-.38-.1-.57a.17.17,0,0,1,0-.07s0-.05,0-.07c0-.19,0-.38-.08-.57s0-.22,0-.33a39,39,0,0,1,1.56-17.68,39.44,39.44,0,0,1-6.09.48,38.9,38.9,0,0,1-15.23-3.11,2.48,2.48,0,0,1-.82-.21l0,0a39.24,39.24,0,0,1-22.42-28.47l-.06-.33c0-.19-.07-.37-.1-.56a.22.22,0,0,1,0-.08.64.64,0,0,1,0-.07c0-.19,0-.38-.08-.57s0-.22-.05-.32A39.22,39.22,0,0,1,69.25,120.8l0,0a2.62,2.62,0,0,1,.65-.43,39.16,39.16,0,0,1,35.25-8.9A60.71,60.71,0,0,1,148,82.74a60.09,60.09,0,0,1,9.4-.73,60.84,60.84,0,0,1,15.07,1.9c.09-.37.19-.75.27-1.13a12.5,12.5,0,0,1-5.12-10.27c0-6.71,4.93-12.16,11-12.16m0-7c-9.93,0-18,8.6-18,19.16a20.08,20.08,0,0,0,.17,2.58c-1.13,0-2.26-.08-3.39-.08a67.92,67.92,0,0,0-55.49,28.72,44.91,44.91,0,0,0-5.79-.37,46.22,46.22,0,0,0-30.23,11.26,9.59,9.59,0,0,0-1.29,1l0,0,0,0h0l0,0a46.35,46.35,0,0,0-14.2,40.25c0,.07,0,.17,0,.28v.08l0,.18c0,.17,0,.35.08.52v.11c0,.2.06.37.09.54l0,.15,0,.11.06.3a46.27,46.27,0,0,0,26.22,33.44l.13.06a9.09,9.09,0,0,0,1.77.63,45.64,45.64,0,0,0,14.63,3.28,45.7,45.7,0,0,0,.22,11.26l0,.26v.09l0,.2c0,.17,0,.34.08.5v.14l.09.52,0,.16,0,.1.06.31a46.3,46.3,0,0,0,26.23,33.44l.11.06a10,10,0,0,0,1.79.62,46.18,46.18,0,0,0,47.5-7.9,10.09,10.09,0,0,0,1.28-1l0,0,0,0a46.21,46.21,0,0,0,9.35-12.24,46.12,46.12,0,0,0,4.46,2.34l.12.06a8.74,8.74,0,0,0,1.78.62,45.66,45.66,0,0,0,17.26,3.37,46.61,46.61,0,0,0,7.55-.62,46.06,46.06,0,0,0,22.69-10.65,9.52,9.52,0,0,0,1.29-1l0,0,0,0h0l0,0a46.33,46.33,0,0,0,14.2-40.24l0-.27v-.09l0-.2c0-.17,0-.33-.08-.5v-.1l0-.08c0-.13-.05-.3-.08-.47l0-.16,0-.12-.06-.29A46.18,46.18,0,0,0,231.24,145v-10.3l-4.83-1.58-2.06-.67a67.44,67.44,0,0,0-31.49-47.3c-.06-.22-.12-.44-.19-.66a20,20,0,0,0,3.92-11.93c0-10.56-8.08-19.16-18-19.16Z"/></g><g id="icons"><path class="cls-3" d="M139.37,242.36a41.43,41.43,0,0,1-16-3.19,5.19,5.19,0,0,1-1.23-.39l-.12-.06A42,42,0,0,1,98.2,208.34l-.2-1.1-.15-1a41.36,41.36,0,0,1,.58-14.93c-.81,0-1.62.07-2.42.07a41.52,41.52,0,0,1-16-3.18,5.21,5.21,0,0,1-1.23-.4l-.12-.05a42.06,42.06,0,0,1-23.85-30.39l-.2-1.11-.14-1a42.05,42.05,0,0,1,12.89-36.5,6,6,0,0,1,1-.73,41.77,41.77,0,0,1,20.84-9.88,42.67,42.67,0,0,1,6.85-.56,41.93,41.93,0,0,1,7.82.74,63.57,63.57,0,0,1,116.23,24.73,64.69,64.69,0,0,1,.76,10.76l.31.13.12.06a42.06,42.06,0,0,1,23.85,30.38l.19,1.11.15,1A42,42,0,0,1,232.61,213a5.35,5.35,0,0,1-1,.73,42,42,0,0,1-27.7,10.45h0a41.4,41.4,0,0,1-16-3.19,5.19,5.19,0,0,1-1.23-.39l-.11-.06a41.86,41.86,0,0,1-8.09-4.84,42,42,0,0,1-10.45,15.46,5.47,5.47,0,0,1-1,.73,42,42,0,0,1-27.7,10.45Z"/><path class="cls-2" d="M157.37,82a60.92,60.92,0,0,1,60.73,63.8c.38.14.75.29,1.12.45a2.49,2.49,0,0,1,.82.22l0,0A39.22,39.22,0,0,1,242.49,175l.06.33c0,.19.07.38.1.57v.07s0,.05,0,.07c0,.19,0,.38.08.57s0,.22.05.33a39.24,39.24,0,0,1-12.06,34.16l0,0a2.59,2.59,0,0,1-.65.42A39,39,0,0,1,210.33,221a39.88,39.88,0,0,1-6.41.53,39,39,0,0,1-15.24-3.11,2.49,2.49,0,0,1-.82-.22l0,0a39.31,39.31,0,0,1-10.62-7.07,39.45,39.45,0,0,1-11,18.13l0,0a2.59,2.59,0,0,1-.65.42,39,39,0,0,1-19.73,9.46,40.1,40.1,0,0,1-6.42.53,39,39,0,0,1-15.24-3.11,2.49,2.49,0,0,1-.82-.22l0,0a39.22,39.22,0,0,1-22.42-28.46l-.06-.33c0-.19-.07-.38-.1-.57a.17.17,0,0,1,0-.07s0-.05,0-.07c0-.19,0-.38-.08-.57s0-.22,0-.33a39,39,0,0,1,1.56-17.68,39.44,39.44,0,0,1-6.09.48,38.9,38.9,0,0,1-15.23-3.11,2.48,2.48,0,0,1-.82-.21l0,0a39.24,39.24,0,0,1-22.42-28.47l-.06-.33c0-.19-.07-.37-.1-.56v-.08a.64.64,0,0,1,0-.07c0-.19,0-.38-.08-.57s0-.22-.05-.32A39.22,39.22,0,0,1,69.25,120.8l0,0a2.62,2.62,0,0,1,.65-.43,39.16,39.16,0,0,1,35.25-8.9A61.09,61.09,0,0,1,157.37,82m0-5.42a66.81,66.81,0,0,0-10.26.8,66.1,66.1,0,0,0-44.5,28,44.88,44.88,0,0,0-6.54-.49,45.76,45.76,0,0,0-7.29.6,44.48,44.48,0,0,0-22,10.36,8.23,8.23,0,0,0-1.16.88l0,0,0,0,0,0h0a44.74,44.74,0,0,0-13.7,38.86l0,.23,0,.1,0,.22c0,.16.05.31.07.46v.14c0,.18.06.34.09.5l0,.16,0,.1,0,.28a44.72,44.72,0,0,0,25.35,32.31l.13.07a7.75,7.75,0,0,0,1.58.54,44,44,0,0,0,15.92,3.28,44.34,44.34,0,0,0,0,12.55c0,.07,0,.17,0,.27V207l0,.18c0,.16,0,.32.07.48v.12c0,.18.06.34.09.49l0,.17,0,.12,0,.28a44.75,44.75,0,0,0,25.35,32.31l.13.06a7.78,7.78,0,0,0,1.58.55,44.59,44.59,0,0,0,46.08-7.67,7.78,7.78,0,0,0,1.17-.88h0l0,0h0l0,0a44.75,44.75,0,0,0,9.76-13.31,46.12,46.12,0,0,0,5.77,3.17l.11,0a8.08,8.08,0,0,0,1.59.55A44.59,44.59,0,0,0,233.22,216a7.47,7.47,0,0,0,1.16-.87l0,0,0,0a44.74,44.74,0,0,0,13.72-38.87l0-.24,0-.1,0-.22c0-.15,0-.31-.07-.46V175l-.09-.51,0-.16,0-.09-.05-.29a44.76,44.76,0,0,0-24.23-31.78,66.33,66.33,0,0,0-66.22-65.57Z"/><circle class="cls-2" cx="96.05" cy="149.53" r="8.55" transform="translate(-0.43 0.27) rotate(-0.16)"/><path class="cls-2" d="M110,163.51h0l-.06.06a1.86,1.86,0,0,1-.41.28A19.23,19.23,0,0,1,105,167l-1.63-3.3a15.9,15.9,0,0,0-.23-28.44l1.67-3.37a19.64,19.64,0,0,1,10.65,14.39v.05a.09.09,0,0,1,0,0A19.68,19.68,0,0,1,110,163.51Z"/><path class="cls-2" d="M89,163.85l-1.67,3.37a19.67,19.67,0,0,1-10.7-14.42v-.05a.07.07,0,0,1,0-.05,19.62,19.62,0,0,1,5.51-17.11h0l.07-.06a2.21,2.21,0,0,1,.4-.28,19.61,19.61,0,0,1,5-3.41l1.63,3.31A15.9,15.9,0,0,0,89,163.85Z"/><path class="cls-2" d="M115.86,170.79s0,0,0,0a1.72,1.72,0,0,1-.48.31,28.79,28.79,0,0,1-6.23,4.27l-1.64-3.31a25.33,25.33,0,0,0,13.64-26,1.55,1.55,0,0,0,0-.21,2.57,2.57,0,0,0-.06-.4l-.09-.54s0,0,0-.07a25.32,25.32,0,0,0-13.66-17.93l1.67-3.37a29,29,0,0,1,15.6,20.58c0,.08,0,.17,0,.25s0,.27.07.41v.11l.06.42a2,2,0,0,1,0,.24A29,29,0,0,1,115.86,170.79Z"/><path class="cls-2" d="M84.88,172.22l-1.67,3.38A29,29,0,0,1,67.56,155l0-.25c0-.13-.05-.27-.07-.41v-.11l-.06-.42c0-.08,0-.16,0-.24a29,29,0,0,1,8.92-25.25l0,0a2.19,2.19,0,0,1,.48-.31,29,29,0,0,1,6.74-4.51l1.63,3.3A25.36,25.36,0,0,0,71,153.05a1.66,1.66,0,0,1,0,.22c0,.13,0,.26.06.39s.07.37.1.54a.64.64,0,0,0,0,.07A25.24,25.24,0,0,0,84.88,172.22Z"/><path class="cls-2" d="M217.85,196.29h0l-.06.06a2.29,2.29,0,0,1-.41.28,20.07,20.07,0,0,1-4.49,3.16l-1.63-3.31a15.91,15.91,0,0,0-.23-28.44l1.67-3.37a19.68,19.68,0,0,1,10.65,14.4v0a.06.06,0,0,1,0,0A19.66,19.66,0,0,1,217.85,196.29Z"/><path class="cls-2" d="M196.92,196.64,195.25,200a19.69,19.69,0,0,1-10.7-14.42v-.05a.09.09,0,0,1,0,0,19.65,19.65,0,0,1,5.51-17.12h0l.07-.06a1.6,1.6,0,0,1,.4-.28,19.61,19.61,0,0,1,5-3.41l1.63,3.3a15.91,15.91,0,0,0-.22,28.72Z"/><path class="cls-2" d="M223.76,203.57l0,0a2,2,0,0,1-.48.31,28.93,28.93,0,0,1-6.24,4.26l-1.63-3.3a25.33,25.33,0,0,0,13.64-26,1.12,1.12,0,0,0,0-.21c0-.14,0-.27-.06-.41l-.09-.53a.2.2,0,0,1,0-.07,25.32,25.32,0,0,0-13.66-17.93l1.67-3.37a29,29,0,0,1,15.6,20.58c0,.08,0,.16.05.24s0,.28.07.42v.11l.06.42a2,2,0,0,1,0,.24A29,29,0,0,1,223.76,203.57Z"/><path class="cls-2" d="M192.78,205l-1.67,3.38a29,29,0,0,1-15.65-20.62l-.05-.24c0-.14,0-.28-.07-.41V187l-.06-.42c0-.08,0-.17,0-.24a29,29,0,0,1,8.92-25.26l0,0a2.23,2.23,0,0,1,.48-.32,28.74,28.74,0,0,1,6.74-4.5l1.63,3.3a25.34,25.34,0,0,0-14.14,26.29,1.52,1.52,0,0,1,0,.21c0,.14,0,.27.06.4s.07.36.1.54a.64.64,0,0,1,0,.07A25.24,25.24,0,0,0,192.78,205Z"/><path class="cls-2" d="M153.3,214.45h0l-.06.06a2.29,2.29,0,0,1-.41.28,19.84,19.84,0,0,1-4.49,3.16l-1.63-3.31a15.9,15.9,0,0,0-.22-28.44l1.66-3.37a19.64,19.64,0,0,1,10.65,14.4v0l0,0A19.67,19.67,0,0,1,153.3,214.45Z"/><path class="cls-2" d="M132.37,214.8l-1.67,3.37A19.69,19.69,0,0,1,120,203.74v0s0,0,0,0a19.68,19.68,0,0,1,5.51-17.12h0l.06-.06a1.8,1.8,0,0,1,.4-.28,19.36,19.36,0,0,1,5-3.41l1.64,3.3a15.91,15.91,0,0,0-.23,28.72Z"/><path class="cls-2" d="M159.22,221.73l0,0a2,2,0,0,1-.48.31,28.86,28.86,0,0,1-6.23,4.26l-1.64-3.3A25.33,25.33,0,0,0,164.48,197l0-.21-.06-.4c0-.18-.07-.36-.1-.53s0-.05,0-.07a25.32,25.32,0,0,0-13.66-17.93l1.67-3.37a28.94,28.94,0,0,1,15.6,20.58c0,.08,0,.16.05.24s.05.28.07.42v.11c0,.14,0,.28.07.42l0,.24A29,29,0,0,1,159.22,221.73Z"/><path class="cls-2" d="M128.23,223.17l-1.66,3.37a29,29,0,0,1-15.66-20.61l0-.24c0-.14,0-.28-.07-.42v-.1l-.06-.42c0-.09,0-.17,0-.24a29,29,0,0,1,8.92-25.26l0,0a2.23,2.23,0,0,1,.48-.32,29.2,29.2,0,0,1,6.74-4.51l1.63,3.31A25.32,25.32,0,0,0,114.33,204l0,.21.06.4.09.54a.64.64,0,0,1,0,.07A25.29,25.29,0,0,0,128.23,223.17Z"/><circle class="cls-2" cx="203.95" cy="182.32" r="8.55" transform="translate(-0.52 0.58) rotate(-0.16)"/><circle class="cls-2" cx="139.4" cy="200.47" r="8.55" transform="translate(-0.57 0.4) rotate(-0.16)"/><path class="cls-4" d="M130.39,146.27v-9l11.69-3.25L162.43,102a80.83,80.83,0,0,0,7.42-18.19A15.36,15.36,0,0,1,165,72.51c0-8.2,6.16-14.87,13.72-14.87s13.73,6.67,13.73,14.87a15.56,15.56,0,0,1-4.33,10.84c1.35,5.87,3.73,11.74,7.76,19.28l20,31.06H218l-.3,1,9.4,3.06v8.51Zm61.72-12.58-13.29-8.37-13,8.37Zm-.36-9.38-3.33-5.18L186,120.69Zm-25.44-.14,5.27-3.4-2.22-1.4Zm12.46-8,5.46-3.53-.91-1.42-.26-.45c-1.55-2.88-2.91-5.61-4.09-8.22-1.1,2.41-2.34,4.93-3.75,7.58l-.27.45-1.44,2.28Z"/><path class="cls-2" d="M178.76,60.35c6.09,0,11,5.45,11,12.16a12.55,12.55,0,0,1-4.59,9.88C186.5,89,189,95.45,193.58,104l20.82,32.4h0v0l0,0,10,3.26v3.83H133.1v-4.18l10.69-3h0l21-33c4.3-8.11,6.74-14.37,8.09-20.59a12.5,12.5,0,0,1-5.12-10.27c0-6.71,4.93-12.16,11-12.16m0,59,9.19-5.92-2.32-3.62-.21-.35a112.25,112.25,0,0,1-6.47-14,113.41,113.41,0,0,1-6.16,13.39l-.2.35-2.86,4.49,9,5.68m21.83,13.75-11.39-17.72L181,120.72l19.67,12.38m-43.22,0,19.23-12.4-8.11-5.11L157.4,133.14m-.78,3.26h44.89L178.8,122.11,156.62,136.4m-1.29,0h.1l-.05-.09,0,.09m23.43-81.47c-9.06,0-16.43,7.89-16.43,17.58a18.24,18.24,0,0,0,4.5,12.1,81.7,81.7,0,0,1-6.74,16l-19.75,31.09-8.69,2.43-4,1.1V149H229.85V135.79l-3.74-1.22-5-1.62.59-1.95h-4.34l-19.11-29.74a77.42,77.42,0,0,1-7.13-17.16,18.41,18.41,0,0,0,4.07-11.58c0-9.69-7.37-17.58-16.44-17.58ZM177.26,112l0-.06.21-.35.06-.1.05-.1c.47-.88.92-1.75,1.36-2.6q.75,1.47,1.56,3l-1.78,1.15-1.49-.94ZM175,131l3.79-2.44,3.88,2.44Z"/><path class="cls-5" d="M150,150.21v-.42A1.48,1.48,0,0,0,150,150.21Z"/></g></svg>