<svg id="icons" xmlns="http://www.w3.org/2000/svg" viewBox="0 0 150 150"><defs><style>.cls-1{font-size:17px;font-family:Lato-Regular, Lato;}.cls-2{letter-spacing:-0.02em;}.cls-3{letter-spacing:-0.02em;}.cls-4{letter-spacing:-0.01em;}.cls-5{letter-spacing:-0.04em;}.cls-6{letter-spacing:0em;}.cls-7{letter-spacing:-0.01em;}.cls-8{letter-spacing:-0.01em;}.cls-9{letter-spacing:-0.02em;}.cls-10{fill:#909;}.cls-11{fill:#fff;}</style></defs><text class="cls-1" transform="translate(6.42 111.42)">Lina<tspan class="cls-2" x="30.74" y="0">r</tspan><tspan x="36.58" y="0">o </tspan><tspan class="cls-3" x="50.57" y="0">E</tspan><tspan x="60.03" y="0">d</tspan><tspan class="cls-4" x="69.55" y="0">g</tspan><tspan x="78.26" y="0">e &amp; </tspan><tspan class="cls-5" x="108.04" y="0">F</tspan><tspan class="cls-6" x="116.92" y="0">o</tspan><tspan x="126.51" y="0">g</tspan><tspan class="cls-7" x="0.81" y="20.4">C</tspan><tspan x="12" y="20.4">omputing </tspan><tspan class="cls-8" x="87.77" y="20.4">G</tspan><tspan class="cls-9" x="100.06" y="20.4">r</tspan><tspan x="105.9" y="20.4">oup</tspan></text><path class="cls-10" d="M105.42,70.06a5,5,0,0,0-5,4.55H94V67.88h1.24a20.71,20.71,0,0,0,20.46-20.44A20,20,0,0,0,98.23,27.1,25.83,25.83,0,0,0,74.47,11.53a26.74,26.74,0,0,0-24.19,15.6,20.78,20.78,0,0,0-17.8,20.21A20.13,20.13,0,0,0,52.67,67.88h1.55v6.73H47.73a5,5,0,1,0,0,.86h7.35V67.88H67.16V83.7H60.83a5,5,0,1,0,0,.85H68V67.88H80.12V84.55h7.19a4.94,4.94,0,0,0,1,2.56,4.85,4.85,0,0,0,.61.67,5,5,0,0,0,1.53,1,5.1,5.1,0,0,0,1.84.35,5,5,0,1,0,0-10,5.1,5.1,0,0,0-1.84.35,5,5,0,0,0-1.53,1,5.51,5.51,0,0,0-.61.67,5,5,0,0,0-1,2.56H81V67.88H93.16v7.58h7.3a5,5,0,1,0,5-5.41ZM101,31a16.88,16.88,0,0,1,6.83,4.33A16.81,16.81,0,0,0,97.7,30.25,17,17,0,0,1,101,31ZM69,15.37a23,23,0,0,0-2.95.94A23,23,0,0,1,69,15.37ZM55.9,23.93a23.47,23.47,0,0,1,2.35-2.63,23.78,23.78,0,0,1,4.17-3.22,23.78,23.78,0,0,0-4.17,3.22,23.47,23.47,0,0,0-2.35,2.63,23.18,23.18,0,0,0-3.41,6.19h0A23.18,23.18,0,0,1,55.9,23.93Zm-9.29,7.5c-.47.19-.92.4-1.37.63C45.69,31.83,46.14,31.62,46.61,31.43Zm-8.83,7.91a17.56,17.56,0,0,0-2.11,8,16.1,16.1,0,0,0,.06,1.71,16.1,16.1,0,0,1-.06-1.71A17.56,17.56,0,0,1,37.78,39.34Zm-2,10a17.2,17.2,0,0,0,.6,3.15A17.2,17.2,0,0,1,35.76,49.39ZM52.67,64.7A16.93,16.93,0,0,1,36.92,54.13,16.93,16.93,0,0,0,52.67,64.7H95.25a17.38,17.38,0,0,0,16.06-11.21A17.38,17.38,0,0,1,95.25,64.7H52.67Z"/><path class="cls-11" d="M42.77,78.58a3.53,3.53,0,1,1,3.5-4,3,3,0,0,1,0,.43,3,3,0,0,1,0,.42A3.53,3.53,0,0,1,42.77,78.58Z"/><path class="cls-11" d="M55.88,87.66a3.53,3.53,0,1,1,3.49-4,3.1,3.1,0,0,1,0,.86A3.51,3.51,0,0,1,55.88,87.66Z"/><path class="cls-11" d="M96,30.13a22.6,22.6,0,0,0-21.5-15.4,23.5,23.5,0,0,0-22,15.4A17.64,17.64,0,0,0,35.67,47.41a17,17,0,0,0,17,17.3H95.25a17.53,17.53,0,0,0,17.27-17.3A16.94,16.94,0,0,0,96,30.13Z"/><path class="cls-11" d="M74.47,14.73A22.6,22.6,0,0,1,96,30.13a16.94,16.94,0,0,1,16.55,17.28,17.53,17.53,0,0,1-17.27,17.3H52.67a17,17,0,0,1-17-17.3A17.64,17.64,0,0,1,52.49,30.13a23.5,23.5,0,0,1,22-15.4"/><path class="cls-11" d="M105.42,78.58a3.53,3.53,0,0,1-3.5-3.1,3,3,0,0,1,0-.42,3,3,0,0,1,0-.43,3.52,3.52,0,1,1,3.5,4Z"/><path class="cls-11" d="M92.26,87.66a3.53,3.53,0,0,1-3.49-3.08,3.15,3.15,0,0,1,0-.44,3,3,0,0,1,0-.43,3.52,3.52,0,1,1,3.49,4Z"/></svg>