<svg id="icons" xmlns="http://www.w3.org/2000/svg" viewBox="0 0 150 100.22"><defs><style>.cls-1{fill:#909;}.cls-2{fill:#fff;}</style></defs><path class="cls-1" d="M105.42,72a5,5,0,0,0-5,4.55H94V69.86h1.24a20.71,20.71,0,0,0,20.46-20.45A20,20,0,0,0,98.23,29.07,25.83,25.83,0,0,0,74.47,13.5,26.74,26.74,0,0,0,50.28,29.1a20.78,20.78,0,0,0-17.8,20.21A20.15,20.15,0,0,0,52.67,69.86h1.55v6.73H47.73a5,5,0,1,0,0,.85h7.35V69.86H67.16V85.67H60.83a5,5,0,1,0,0,.85H68V69.86H80.12V86.52h7.19a4.94,4.94,0,0,0,1,2.56,4.85,4.85,0,0,0,.61.67,5,5,0,0,0,1.53,1,5.1,5.1,0,0,0,1.84.35,5,5,0,1,0,0-10,5.1,5.1,0,0,0-1.84.35,5,5,0,0,0-1.53,1,5.51,5.51,0,0,0-.61.67,5,5,0,0,0-1,2.56H81V69.86H93.16v7.57h7.3a5,5,0,1,0,5-5.41ZM101,33a16.86,16.86,0,0,1,6.83,4.32A16.86,16.86,0,0,0,101,33a16.29,16.29,0,0,0-3.28-.75A16.29,16.29,0,0,1,101,33ZM69,17.34a23,23,0,0,0-2.95.94A23,23,0,0,1,69,17.34ZM55.9,25.9a24.39,24.39,0,0,1,2.35-2.63,23.78,23.78,0,0,1,4.17-3.22,23.78,23.78,0,0,0-4.17,3.22A24.39,24.39,0,0,0,55.9,25.9a23.33,23.33,0,0,0-3.41,6.19h0A23.33,23.33,0,0,1,55.9,25.9Zm-9.29,7.5c-.47.19-.92.4-1.37.63C45.69,33.8,46.14,33.59,46.61,33.4Zm-8.83,7.92a17.49,17.49,0,0,0-2.11,8,16.1,16.1,0,0,0,.06,1.71,16.1,16.1,0,0,1-.06-1.71A17.49,17.49,0,0,1,37.78,41.32Zm-2,10a17.2,17.2,0,0,0,.6,3.15A17.2,17.2,0,0,1,35.76,51.36ZM52.67,66.67A16.93,16.93,0,0,1,36.92,56.1,16.93,16.93,0,0,0,52.67,66.67H95.25a17.38,17.38,0,0,0,16.06-11.21A17.38,17.38,0,0,1,95.25,66.67H52.67Z"/><path class="cls-2" d="M42.77,80.55a3.53,3.53,0,1,1,3.5-4,3,3,0,0,1,0,.43,2.86,2.86,0,0,1,0,.42A3.53,3.53,0,0,1,42.77,80.55Z"/><path class="cls-2" d="M55.88,89.63a3.52,3.52,0,1,1,3.49-3.95,3.1,3.1,0,0,1,0,.86A3.51,3.51,0,0,1,55.88,89.63Z"/><path class="cls-2" d="M96,32.1a22.6,22.6,0,0,0-21.5-15.4,23.5,23.5,0,0,0-22,15.4A17.64,17.64,0,0,0,35.67,49.38a17,17,0,0,0,17,17.3H95.25a17.53,17.53,0,0,0,17.27-17.3A16.94,16.94,0,0,0,96,32.1Z"/><path class="cls-2" d="M74.47,16.7A22.6,22.6,0,0,1,96,32.1a16.94,16.94,0,0,1,16.55,17.28,17.53,17.53,0,0,1-17.27,17.3H52.67a17,17,0,0,1-17-17.3A17.64,17.64,0,0,1,52.49,32.1a23.5,23.5,0,0,1,22-15.4"/><path class="cls-2" d="M105.42,80.55a3.53,3.53,0,0,1-3.5-3.1,2.86,2.86,0,0,1,0-.42,3,3,0,0,1,0-.43,3.52,3.52,0,1,1,3.5,4Z"/><path class="cls-2" d="M92.26,89.63a3.53,3.53,0,0,1-3.49-3.08,3.15,3.15,0,0,1,0-.44,3,3,0,0,1,0-.43,3.52,3.52,0,1,1,3.49,3.95Z"/></svg>