<svg id="Layer_1" data-name="Layer 1" xmlns="http://www.w3.org/2000/svg" viewBox="0 0 302 230"><defs><style>.cls-1{fill:none;stroke-width:2.22px;}.cls-1,.cls-2,.cls-4,.cls-6,.cls-7{stroke:#e6e6e6;stroke-miterlimit:10;}.cls-2{fill:#9c3;}.cls-2,.cls-4,.cls-6,.cls-7{stroke-width:4.37px;}.cls-3{isolation:isolate;}.cls-4{fill:#0083ad;}.cls-5{fill:#fff;}.cls-6{fill:#d72c2f;}.cls-7{fill:#03234b;}</style></defs><line class="cls-1" x1="147.7" y1="177.7" x2="253.9" y2="118.1"/><line class="cls-1" x1="46.7" y1="109.7" x2="147.2" y2="50"/><line class="cls-1" x1="47.6" y1="114.6" x2="149.9" y2="176.5"/><line class="cls-1" x1="147.2" y1="50" x2="249.5" y2="111.9"/><line class="cls-1" x1="148.8" y1="48.8" x2="148.8" y2="182.3"/><line class="cls-1" x1="43.4" y1="113.7" x2="255" y2="116.3"/><circle class="cls-2" cx="149.1" cy="47.1" r="41.5"/><g class="cls-3"><path d="M137,50.1v1.5h-5.8V41.7H133v8.4Z"/><path d="M140,42.6a.6.6,0,0,1-.1.4c-.1.1-.1.2-.2.3s-.2.2-.3.2-.3.1-.4.1a.6.6,0,0,1-.4-.1c-.1-.1-.2-.1-.3-.2s-.2-.2-.2-.3a.6.6,0,0,1-.1-.4c0-.2,0-.3.1-.4s.1-.2.2-.3.2-.2.3-.2a.6.6,0,0,1,.4-.1c.2,0,.3,0,.4.1s.2.1.3.2.2.2.2.3S140,42.4,140,42.6Zm-.2,2v7h-1.7v-7Z"/><path d="M143.1,45.5l.4-.4c.2-.1.3-.2.5-.3a1.42,1.42,0,0,1,.6-.2c.2,0,.4-.1.7-.1a3,3,0,0,1,1,.2,1.79,1.79,0,0,1,.7.5,5.58,5.58,0,0,1,.5.8,3.59,3.59,0,0,1,.2,1.1v4.5H146V47.1a1.49,1.49,0,0,0-.3-1,1.27,1.27,0,0,0-.9-.4,1.88,1.88,0,0,0-.8.2,3,3,0,0,0-.7.5v5.1h-1.7v-7h1c.2,0,.4.1.4.3Z"/><path d="M149,45.6a4.36,4.36,0,0,1,2.9-1.1,3.59,3.59,0,0,1,1.1.2,1.56,1.56,0,0,1,.8.6,1.93,1.93,0,0,1,.5.9,3.59,3.59,0,0,1,.2,1.1v4.4h-.8c-.2,0-.3,0-.4-.1s-.2-.1-.2-.3l-.2-.5c-.2.2-.4.3-.5.4s-.3.2-.5.3-.4.1-.6.2-.4.1-.7.1a2,2,0,0,1-.8-.1.92.92,0,0,1-.6-.4c-.1-.2-.3-.4-.4-.6a2,2,0,0,1-.1-.8.75.75,0,0,1,.1-.5c.1-.2.2-.3.3-.5s.3-.3.5-.5a5.94,5.94,0,0,1,.8-.4c.3-.1.7-.2,1.1-.3a6.15,6.15,0,0,1,1.4-.1v-.4a1.33,1.33,0,0,0-.3-1,1.22,1.22,0,0,0-.9-.3,1.48,1.48,0,0,0-.7.1c-.2.1-.3.1-.5.2a.76.76,0,0,1-.4.2c-.1.1-.2.1-.4.1a.37.37,0,0,1-.3-.1l-.2-.2Zm3.9,3.1c-.5,0-.9.1-1.2.1a1.88,1.88,0,0,0-.8.2,1.38,1.38,0,0,0-.4.3.78.78,0,0,0,.2,1,1.45,1.45,0,0,0,.7.2,2.92,2.92,0,0,0,.9-.2,1.34,1.34,0,0,0,.7-.6v-1Z"/></g><g class="cls-3"><path d="M157.7,45.9a3.92,3.92,0,0,1,.8-1,2.1,2.1,0,0,1,1.1-.4,1.88,1.88,0,0,1,.8.2l-.1,1.3c0,.1-.1.1-.1.2a.35.35,0,0,1-.2.1h-.7a.75.75,0,0,0-.5.1c-.1.1-.3.1-.4.2a1.38,1.38,0,0,0-.3.4c-.1.2-.2.3-.2.5v4.3h-1.7v-7h1c.2,0,.3,0,.4.1a.37.37,0,0,1,.1.3Z"/></g><g class="cls-3"><path d="M164.1,44.5a3.19,3.19,0,0,1,1.4.3,3,3,0,0,1,1.8,1.8,3.42,3.42,0,0,1,.2,1.5,6.05,6.05,0,0,1-.2,1.5,4.13,4.13,0,0,1-.7,1.1,2.59,2.59,0,0,1-1.1.7,3.42,3.42,0,0,1-2.8,0,3,3,0,0,1-1.8-1.8,3.42,3.42,0,0,1-.2-1.5,6.8,6.8,0,0,1,.2-1.5,3,3,0,0,1,1.8-1.8A3.19,3.19,0,0,1,164.1,44.5Zm0,5.9a1.49,1.49,0,0,0,1.3-.6,2.86,2.86,0,0,0,.4-1.7,2.67,2.67,0,0,0-.4-1.7,1.71,1.71,0,0,0-2.6,0,3.81,3.81,0,0,0,0,3.4A1.49,1.49,0,0,0,164.1,50.4Z"/></g><circle class="cls-4" cx="45.1" cy="115.4" r="41.5"/><g class="cls-3"><path class="cls-5" d="M42,120H40.6c-.2,0-.3,0-.4-.1s-.2-.2-.2-.3l-.7-2H35.2l-.7,2c0,.1-.1.2-.2.3s-.2.1-.4.1H32.5l3.9-9.9h1.9Zm-3.2-3.8-1.2-3.3c-.1-.1-.1-.3-.2-.5s-.1-.4-.2-.6c-.1.2-.1.5-.2.7s-.1.4-.2.5l-1.2,3.3h3.2Z"/></g><g class="cls-3"><path class="cls-5" d="M44.4,114.2a3.92,3.92,0,0,1,.8-1,1.5,1.5,0,0,1,1.1-.4,1.88,1.88,0,0,1,.8.2l-.1,1.3c0,.1-.1.1-.1.2a.35.35,0,0,1-.2.1H46a.75.75,0,0,0-.5.1c-.1.1-.3.1-.4.2a1.38,1.38,0,0,0-.3.4.76.76,0,0,0-.2.5v4.3H42.9v-7h1c.2,0,.3,0,.4.1a.37.37,0,0,1,.1.3Z"/><path class="cls-5" d="M47.9,120v-7h1c.2,0,.4.1.4.3l.1.5.4-.4c.1-.1.3-.2.4-.3s.3-.1.5-.2a1.27,1.27,0,0,1,.6-.1,1.5,1.5,0,0,1,1.1.4,1.7,1.7,0,0,1,.6,1,2.09,2.09,0,0,1,.4-.6,1.76,1.76,0,0,1,.5-.4,1.42,1.42,0,0,1,.6-.2c.2,0,.4-.1.7-.1a3,3,0,0,1,1,.2,2.1,2.1,0,0,1,1.3,1.3,3.59,3.59,0,0,1,.2,1.1V120H56v-4.5a1.49,1.49,0,0,0-.3-1,1.22,1.22,0,0,0-.9-.3.9.9,0,0,0-.5.1c-.1.1-.3.1-.4.3s-.2.3-.3.4a1.27,1.27,0,0,0-.1.6v4.5H51.8v-4.5a1.33,1.33,0,0,0-.3-1,1.14,1.14,0,0,0-.8-.3,1.85,1.85,0,0,0-.7.2,2.65,2.65,0,0,0-.6.5v5.1H47.9Z"/></g><circle class="cls-6" cx="149.1" cy="182.9" r="41.5"/><circle class="cls-7" cx="256.95" cy="115.43" r="41.5"/><g class="cls-3"><path class="cls-5" d="M140.85,188h-1.8a.37.37,0,0,1-.3-.1l-.2-.2-2.3-3.8c0,.1-.1.2-.1.3l-2.2,3.5-.2.2a.37.37,0,0,1-.3.1h-1.7l3.3-5.1-3.2-4.8h1.8a.37.37,0,0,1,.3.1c.1,0,.1.1.2.2l2.2,3.6c0-.1.1-.2.2-.3l2.1-3.2c.1-.1.1-.2.2-.2s.1-.1.2-.1h1.8l-3.2,4.7Z"/><path class="cls-5" d="M143.75,178.9a.6.6,0,0,1-.1.4c-.1.1-.1.2-.2.3s-.2.2-.3.2a.85.85,0,0,1-.8,0c-.1-.1-.2-.1-.3-.2s-.2-.2-.2-.3a.6.6,0,0,1-.1-.4c0-.2,0-.3.1-.4s.1-.2.2-.3.2-.2.3-.2.3-.1.4-.1a.6.6,0,0,1,.4.1c.1.1.2.1.3.2s.2.2.2.3S143.75,178.8,143.75,178.9Zm-.3,2v7h-1.7v-7Z"/><path class="cls-5" d="M147,177.8V188h-1.7V177.8Z"/><path class="cls-5" d="M150.55,178.9a.6.6,0,0,1-.1.4c-.1.1-.1.2-.2.3s-.2.2-.3.2a.85.85,0,0,1-.8,0c-.1-.1-.2-.1-.3-.2s-.2-.2-.2-.3a.6.6,0,0,1-.1-.4c0-.2,0-.3.1-.4s.1-.2.2-.3.2-.2.3-.2.3-.1.4-.1.3,0,.4.1.2.1.3.2.2.2.2.3A.6.6,0,0,1,150.55,178.9Zm-.2,2v7h-1.7v-7Z"/><path class="cls-5" d="M153.65,181.8l.4-.4c.2-.1.3-.2.5-.3a1.42,1.42,0,0,1,.6-.2c.2,0,.4-.1.7-.1a3,3,0,0,1,1,.2,1.79,1.79,0,0,1,.7.5,5.58,5.58,0,0,1,.5.8,3.59,3.59,0,0,1,.2,1.1v4.5h-1.7v-4.4a1.49,1.49,0,0,0-.3-1,1.27,1.27,0,0,0-.9-.4,1.88,1.88,0,0,0-.8.2,1.79,1.79,0,0,0-.7.5v5.1h-1.7v-7h1c.2,0,.4.1.4.3Z"/><path class="cls-5" d="M166.05,188h-1.6a.37.37,0,0,1-.3-.1l-.2-.2-1.5-2.4c0,.1,0,.2-.1.2s-.1.1-.1.2l-1.3,2c0,.1-.1.1-.2.2a.37.37,0,0,1-.3.1H159l2.4-3.6-2.3-3.4h1.6a.37.37,0,0,1,.3.1l.2.2,1.5,2.3c0-.2.1-.3.2-.5l1.2-1.8c.1-.2.2-.3.4-.3h1.6l-2.3,3.3Z"/></g><g class="cls-3"><path class="cls-5" d="M255.55,111.9c-.1.1-.1.2-.2.2s-.1.1-.2.1a.37.37,0,0,1-.3-.1c-.1-.1-.2-.1-.4-.2s-.3-.2-.5-.2a1.7,1.7,0,0,0-.7-.1,1.48,1.48,0,0,0-.7.1c-.2.1-.4.1-.5.3a1.38,1.38,0,0,0-.3.4.9.9,0,0,0-.1.5,1.42,1.42,0,0,0,.2.6,1,1,0,0,0,.5.4c.2.1.5.2.7.3a60958124177564.05,60958124177564.05,0,0,0,1.6.6,3,3,0,0,1,.7.5,1.79,1.79,0,0,1,.5.7,3,3,0,0,1,.2,1,5.85,5.85,0,0,1-.2,1.3,3.59,3.59,0,0,1-.7,1,4.13,4.13,0,0,1-1.1.7,3.42,3.42,0,0,1-1.5.2,2.77,2.77,0,0,1-.9-.1,3.18,3.18,0,0,1-.9-.3,3,3,0,0,1-.8-.4,4.23,4.23,0,0,1-.7-.5l.5-.9c0-.1.1-.1.2-.2s.1-.1.2-.1a.76.76,0,0,1,.4.1,2.19,2.19,0,0,0,.5.3l.6.3a2.22,2.22,0,0,0,.9.1,1.59,1.59,0,0,0,1.2-.4,1.25,1.25,0,0,0,.4-1.1.85.85,0,0,0-.2-.6,1,1,0,0,0-.5-.4c-.2-.1-.5-.2-.7-.3a30479062088818.56,30479062088818.56,0,0,1-1.6-.6,1.79,1.79,0,0,1-.7-.5,2.18,2.18,0,0,1-.5-.8,3.59,3.59,0,0,1-.2-1.1,4.25,4.25,0,0,1,.2-1.1,4.7,4.7,0,0,1,.6-.9,1.7,1.7,0,0,1,1-.6,3.18,3.18,0,0,1,1.4-.2,4.15,4.15,0,0,1,1.6.3,3.53,3.53,0,0,1,1.3.8Z"/></g><g class="cls-3"><path class="cls-5" d="M264.65,111.6h-3V120h-1.8v-8.4h-3v-1.5h7.8Z"/></g></svg>