<svg xmlns="http://www.w3.org/2000/svg" viewBox="0 0 100 100"><defs><style>.cls-1,.cls-3{fill:#9d9d9c;}.cls-1{stroke:#fff;stroke-miterlimit:10;stroke-width:1.39px;}.cls-2{fill:#fff;}</style></defs><title>LEDGE grey</title><g id="icons"><path class="cls-1" d="M85.78,65.8s0-.08,0-.12,0-.15,0-.22V65.4a2.07,2.07,0,0,0,0-.22.5.5,0,0,0,0-.12,15.12,15.12,0,0,0-8.64-11h0a1.16,1.16,0,0,0-.32-.08l-.43-.17A23.47,23.47,0,0,0,32.72,40.57,15.06,15.06,0,0,0,19.13,44a1.07,1.07,0,0,0-.25.16v0a15.09,15.09,0,0,0-4.65,13.17s0,.08,0,.12,0,.15,0,.22v.06a2.07,2.07,0,0,0,0,.22.5.5,0,0,0,0,.12,15.12,15.12,0,0,0,8.64,11h0a1.16,1.16,0,0,0,.32.08,15.09,15.09,0,0,0,8.22,1,15.14,15.14,0,0,0-.6,6.82s0,.08,0,.13l0,.22v0c0,.07,0,.15,0,.22a.51.51,0,0,1,0,.13,15.12,15.12,0,0,0,8.65,11h0a1.09,1.09,0,0,0,.31.08,15.07,15.07,0,0,0,16-2.65.89.89,0,0,0,.25-.16l0,0a15.26,15.26,0,0,0,4.24-7,15.16,15.16,0,0,0,4.09,2.73h0a1,1,0,0,0,.31.08,15.13,15.13,0,0,0,16-2.65,1.07,1.07,0,0,0,.25-.16v0A15.09,15.09,0,0,0,85.78,65.8Z"/><circle class="cls-2" cx="29.2" cy="55.25" r="3.3" transform="translate(-0.16 0.08) rotate(-0.16)"/><path class="cls-2" d="M34.56,60.64h0l0,0a.83.83,0,0,1-.15.11A7.69,7.69,0,0,1,32.65,62L32,60.72a6.14,6.14,0,0,0-.09-11l.64-1.29A7.53,7.53,0,0,1,36.68,54h0v0A7.55,7.55,0,0,1,34.56,60.64Z"/><path class="cls-2" d="M26.49,60.78l-.65,1.3a7.59,7.59,0,0,1-4.12-5.57h0v0a7.58,7.58,0,0,1,2.13-6.6h0l0,0a.4.4,0,0,1,.15-.1A7.42,7.42,0,0,1,26,48.43l.62,1.27a6.14,6.14,0,0,0-.08,11.08Z"/><path class="cls-2" d="M36.84,63.45h0a.62.62,0,0,1-.19.12,10.73,10.73,0,0,1-2.4,1.64L33.61,64a9.77,9.77,0,0,0,5.26-10,.25.25,0,0,1,0-.08l0-.16a1.18,1.18,0,0,0,0-.2v0a9.76,9.76,0,0,0-5.27-6.91l.65-1.3a11.16,11.16,0,0,1,6,7.93.3.3,0,0,1,0,.1l0,.16v0s0,.11,0,.16l0,.09A11.21,11.21,0,0,1,36.84,63.45Z"/><path class="cls-2" d="M24.89,64l-.64,1.31a11.22,11.22,0,0,1-6-8v-.1l0-.16v0l0-.16s0-.06,0-.09a11.19,11.19,0,0,1,3.44-9.74h0a.71.71,0,0,1,.18-.12,11.47,11.47,0,0,1,2.6-1.74L25,46.48a9.76,9.76,0,0,0-5.45,10.13s0,.06,0,.08l0,.16,0,.21v0A9.72,9.72,0,0,0,24.89,64Z"/><path class="cls-2" d="M76.16,73.28h0l0,0a.91.91,0,0,1-.16.11,7.6,7.6,0,0,1-1.73,1.22l-.63-1.28a6.13,6.13,0,0,0-.09-11l.64-1.3a7.57,7.57,0,0,1,4.11,5.55v0h0A7.58,7.58,0,0,1,76.16,73.28Z"/><path class="cls-2" d="M68.09,73.42l-.64,1.3a7.59,7.59,0,0,1-4.13-5.56v0a7.56,7.56,0,0,1,2.12-6.6h0l0,0a.78.78,0,0,1,.15-.1,7.59,7.59,0,0,1,1.93-1.32l.63,1.28a6.13,6.13,0,0,0-.09,11.07Z"/><path class="cls-2" d="M78.44,76.09h0a.71.71,0,0,1-.18.12,10.79,10.79,0,0,1-2.41,1.64l-.63-1.27a9.76,9.76,0,0,0,5.26-10s0,0,0-.08l0-.16,0-.2v0a9.72,9.72,0,0,0-5.26-6.91l.64-1.3a11.2,11.2,0,0,1,6,7.93s0,.07,0,.1a.76.76,0,0,1,0,.16v0a.88.88,0,0,1,0,.16l0,.1A11.16,11.16,0,0,1,78.44,76.09Z"/><path class="cls-2" d="M66.49,76.65,65.85,78a11.18,11.18,0,0,1-6-8l0-.09,0-.16v0l0-.16s0-.06,0-.09a11.24,11.24,0,0,1,3.44-9.74h0a.88.88,0,0,1,.19-.12A11.2,11.2,0,0,1,66,57.84l.63,1.28a9.76,9.76,0,0,0-5.45,10.13.28.28,0,0,1,0,.09l0,.15,0,.21v0A9.76,9.76,0,0,0,66.49,76.65Z"/><path class="cls-2" d="M51.27,80.29h0l0,0a.91.91,0,0,1-.16.11,7.6,7.6,0,0,1-1.73,1.22l-.63-1.28a6.13,6.13,0,0,0-.08-11l.64-1.3a7.58,7.58,0,0,1,4.1,5.55v0A7.6,7.6,0,0,1,51.27,80.29Z"/><path class="cls-2" d="M43.2,80.42l-.64,1.3a7.61,7.61,0,0,1-4.13-5.56v0a7.59,7.59,0,0,1,2.12-6.6h0l0,0a.57.57,0,0,1,.16-.11,7.54,7.54,0,0,1,1.92-1.32l.63,1.28a6.13,6.13,0,0,0-.09,11.07Z"/><path class="cls-2" d="M53.55,83.09h0a.57.57,0,0,1-.18.12A11.18,11.18,0,0,1,51,84.87l-.62-1.28a9.75,9.75,0,0,0,5.25-10s0,0,0-.08a.78.78,0,0,1,0-.16c0-.06,0-.13,0-.2v0a9.76,9.76,0,0,0-5.27-6.91l.64-1.3a11.15,11.15,0,0,1,6,7.93s0,.07,0,.1l0,.16v0l0,.16v.1A11.16,11.16,0,0,1,53.55,83.09Z"/><path class="cls-2" d="M41.61,83.65,41,85a11.18,11.18,0,0,1-6-8l0-.09,0-.16v0l0-.17s0-.06,0-.09a11.21,11.21,0,0,1,3.43-9.74h0l.19-.13a10.71,10.71,0,0,1,2.6-1.73l.62,1.27a9.75,9.75,0,0,0-5.44,10.14.25.25,0,0,0,0,.08s0,.1,0,.15a1.55,1.55,0,0,0,0,.21v0A9.77,9.77,0,0,0,41.61,83.65Z"/><path class="cls-2" d="M29.42,56.62A1.38,1.38,0,0,1,29,53.89a1.38,1.38,0,0,1,.45,2.73Z"/><circle class="cls-2" cx="70.8" cy="67.9" r="3.3" transform="translate(-0.19 0.2) rotate(-0.16)"/><path class="cls-2" d="M71,69.26a1.38,1.38,0,1,1,1.14-1.59A1.38,1.38,0,0,1,71,69.26Z"/><circle class="cls-2" cx="45.91" cy="74.9" r="3.3" transform="translate(-0.21 0.13) rotate(-0.16)"/><path class="cls-2" d="M46.14,76.26a1.38,1.38,0,1,1,1.14-1.59A1.38,1.38,0,0,1,46.14,76.26Z"/><path class="cls-2" d="M41.94,54.5V50.17l4.68-1.31,7.74-12.18a31.52,31.52,0,0,0,2.73-6.61,6.42,6.42,0,0,1-1.79-4.51,5.81,5.81,0,1,1,11.59,0,6.54,6.54,0,0,1-1.62,4.32,29.71,29.71,0,0,0,2.87,7l7.54,11.72h1.25l-.17.57,3.49,1.14V54.5Zm22.55-5.86-3.38-2.12-3.29,2.12Zm-3.4-6.86,1.41-.91-.07-.12-.11-.19,0,0c-.41-.77-.79-1.51-1.13-2.22-.31.64-.64,1.29-1,2l0,0L60,40.5l-.28.45Z"/><path class="cls-3" d="M74.85,50.22v0h0l-8-12.49a29.63,29.63,0,0,1-3.24-8.33,4.83,4.83,0,0,0,1.78-3.81,4.27,4.27,0,1,0-8.49,0,4.79,4.79,0,0,0,2,4,30.55,30.55,0,0,1-3.12,7.94L47.61,50.19h0l-4.12,1.15V53H78.7V51.47Zm-5.33-1.3-7.59-4.77,3.2-2.06Zm.34,1.27H52.55l8.55-5.51ZM58.8,39.56a43.35,43.35,0,0,0,2.37-5.16,43,43,0,0,0,2.5,5.4l.08.14.89,1.39L61.1,43.62l-3.48-2.19,1.1-1.73Zm-1.66,2.62,3.13,2-7.42,4.78Zm-5.06,8v0h0Z"/></g></svg>