<svg id="LEGLogo" data-name="Layer 1" xmlns="http://www.w3.org/2000/svg" viewBox="0 0 500 500"><defs><style>.cls-1{fill:#fff;}</style></defs><title>LEG-Logo</title><path class="cls-1" d="M351.82,123.44h67.94a25.21,25.21,0,0,0,25.18-25.18V45.18A25.21,25.21,0,0,0,419.75,20H351.81L80.21,20A25.21,25.21,0,0,0,55,45.21V98.28a25.21,25.21,0,0,0,25.18,25.18H225V136H80.22A25.21,25.21,0,0,0,55,161.19v53.08a25.21,25.21,0,0,0,25.18,25.18H225V252H80.23a25.21,25.21,0,0,0-25.18,25.18v53.08a25.21,25.21,0,0,0,25.18,25.18H225v26.92a51,51,0,0,0-24.76,21.75H66.72a11.44,11.44,0,0,0-11.44,11.45V443a11.44,11.44,0,0,0,11.45,11.44H200.29a50.69,50.69,0,0,0,88.05,0H433.52A11.44,11.44,0,0,0,445,443V415.51a11.44,11.44,0,0,0-11.45-11.44H288.34A51.07,51.07,0,0,0,265.1,383V355.41H419.78A25.21,25.21,0,0,0,445,330.21V277.14A25.21,25.21,0,0,0,419.77,252H265.09V239.43H419.77a25.21,25.21,0,0,0,25.18-25.18V161.16A25.21,25.21,0,0,0,419.76,136H265.08V123.45h86.74ZM422,45.18V98.25a2.29,2.29,0,0,1-2.29,2.29h-56.5V42.9h56.5A2.29,2.29,0,0,1,422,45.18Zm0,232v53.08a2.29,2.29,0,0,1-2.29,2.29h-56.5V274.86h56.5A2.29,2.29,0,0,1,422.06,277.14Zm0-116v53.08a2.29,2.29,0,0,1-2.29,2.29h-56.5V158.88h56.5A2.29,2.29,0,0,1,422.05,161.16Z"/></svg>