<svg id="LHGLogo" data-name="Layer 1" xmlns="http://www.w3.org/2000/svg" viewBox="0 0 500 500"><defs><style>.cls-1{fill:#fff;}</style></defs><title>LHG-Logo</title><path class="cls-1" d="M480,445.86a13.79,13.79,0,0,1-13.78,13.82l-41.4,0-349.6.41-41.4,0a13.8,13.8,0,1,1,0-27.6l27.6,0L61.16,241.24,43.08,254.09a13.8,13.8,0,0,1-21.8-11.24l0-36.8A13.83,13.83,0,0,1,27,194.79L241.54,42.36a13.81,13.81,0,0,1,16,0L472.35,194.27a13.81,13.81,0,0,1,5.83,11.25l0,36.8a13.81,13.81,0,0,1-21.77,11.29L438.36,240.8l0.23,191.31,27.6,0A13.79,13.79,0,0,1,480,445.86Zm-69-13.72-0.24-207.77a13.47,13.47,0,0,1,.31-2.88L249.6,107.33,88.42,221.86a13.62,13.62,0,0,1,.32,2.89L89,432.53Zm-228.07-86.4,32.45,0,0,32.45-32.45,0ZM247.78,314l31.69,0,0-32.45-32.45,0,0,31.69-31.69,0,0,32.45,32.45,0Zm-33.3-64.87,32.45,0,0,32.45-32.45,0Zm-64.06,64.22,32.45,0,0,32.45-32.45,0Zm97,32.72,32.45,0,0,32.45-32.45,0Zm64.93,25,32.45,0,0,32.45-32.45,0Zm-32.52-57.83,32.45,0,0,32.45-32.45,0Zm41-41.08,32.45,0,0,32.45-32.45,0Zm-31.91-59.82,32.45,0,0,32.45-32.45,0Z"/></svg>