<?xml version="1.0" encoding="UTF-8"?><svg id="map" xmlns="http://www.w3.org/2000/svg" viewBox="0 0 100 90"><defs><style>.cls-1{fill:#fff;}.cls-2{fill:#9c3;}</style></defs><rect class="cls-1" x="30.41" y="10.59" width="39.18" height="68.81" rx="6.07" ry="6.07"/><circle class="cls-1" cx="46.23" cy="13.49" r="1.77"/><path class="cls-1" d="m66.79,73.34c0,1.8-1.47,3.27-3.27,3.27h-27.05c-1.8,0-3.27-1.47-3.27-3.27V16.66c0-1.8,1.47-3.27,3.27-3.27h5.39v1.25c0,1.02.84,1.86,1.86,1.86h12.55c1.03,0,1.86-.83,1.86-1.86v-1.25h5.39c1.8,0,3.27,1.46,3.27,3.27v56.68Z"/><path class="cls-2" d="m63.53,10.59h-27.05c-3.34,0-6.06,2.72-6.06,6.07v56.68c0,3.34,2.72,6.07,6.06,6.07h27.05c3.34,0,6.07-2.72,6.07-6.07V16.66c0-3.34-2.72-6.07-6.07-6.07Zm-17.3,1.13c.98,0,1.77.79,1.77,1.77s-.79,1.77-1.77,1.77-1.77-.79-1.77-1.77.79-1.77,1.77-1.77Zm20.56,61.62c0,1.8-1.47,3.27-3.27,3.27h-27.05c-1.8,0-3.27-1.47-3.27-3.27V16.66c0-1.8,1.47-3.27,3.27-3.27h5.39v1.25c0,1.02.84,1.86,1.86,1.86h12.55c1.03,0,1.86-.83,1.86-1.86v-1.25h5.39c1.8,0,3.27,1.46,3.27,3.27v56.68Z"/><rect class="cls-2" x="41.1" y="71.92" width="17.81" height="1.61" rx=".63" ry=".63"/></svg>