<svg id="Layer_1" data-name="Layer 1" xmlns="http://www.w3.org/2000/svg" viewBox="0 0 480 240"><defs><style>.cls-1{fill:#fff;}</style></defs><title>Linaro-Logo</title><g id="LinaroStandard"><polygon class="cls-1" points="157.16 99.76 112.55 99.76 112.55 9.76 94.41 9.76 94.41 113.16 157.16 113.16 157.16 99.76"/><path class="cls-1" d="M166.41,26.29a10,10,0,0,0,3,2.18,8.58,8.58,0,0,0,3.73.83A9,9,0,0,0,177,28.5a9.6,9.6,0,0,0,3-2.11,9.11,9.11,0,0,0,1.91-3,10.09,10.09,0,0,0,.66-3.63,10.32,10.32,0,0,0-.66-3.66A8.69,8.69,0,0,0,180,13a9.26,9.26,0,0,0-6.8-2.81,10,10,0,0,0-3.73.69,9,9,0,0,0-3,1.95,9.39,9.39,0,0,0-2,3,9.22,9.22,0,0,0-.76,3.76,9,9,0,0,0,.76,3.6A10.51,10.51,0,0,0,166.41,26.29Z"/><rect class="cls-1" x="164.46" y="41.89" width="17.16" height="71.26"/><path class="cls-1" d="M227.51,54a28.87,28.87,0,0,1,4-.29,17.57,17.57,0,0,1,5.61.82,9.84,9.84,0,0,1,4.12,2.64A11.66,11.66,0,0,1,243.74,62a26.48,26.48,0,0,1,.86,7.26v43.95h17.16V66a26.35,26.35,0,0,0-2-10.63,23.13,23.13,0,0,0-5.58-7.92,24.24,24.24,0,0,0-8.31-4.95,30.37,30.37,0,0,0-10.33-1.72,29.73,29.73,0,0,0-6.47.69,32.66,32.66,0,0,0-5.77,1.85,33.69,33.69,0,0,0-4.91,2.61,28.89,28.89,0,0,0-3.83,2.9l-0.3-1.88q-0.17-1-.4-2c-0.16-.64-0.3-1.23-0.43-1.78a8.47,8.47,0,0,0-.4-1.29H196.83a43.07,43.07,0,0,1,.76,6.76q0.1,3.34.1,5.44v59.05h17.16V58.06a31.51,31.51,0,0,1,4-1.78q2.14-.79,4.35-1.38A36.38,36.38,0,0,1,227.51,54Z"/><path class="cls-1" d="M343,102.2q-1.32.26-2.77,0.46a17.64,17.64,0,0,1-2,.2,7.09,7.09,0,0,1-2.44-.36,3.31,3.31,0,0,1-1.62-1.26,5.89,5.89,0,0,1-.92-2.44,23.17,23.17,0,0,1-.3-3.86V63.14a19.88,19.88,0,0,0-2.41-10.06,20.38,20.38,0,0,0-6.52-7,30,30,0,0,0-9.36-4,45.23,45.23,0,0,0-11-1.32,46.13,46.13,0,0,0-16.23,2.87,40.72,40.72,0,0,0-13.33,8l9,10.29a59.16,59.16,0,0,1,5.41-4.65,28.78,28.78,0,0,1,4.72-2.9,18.51,18.51,0,0,1,4.52-1.52,25.48,25.48,0,0,1,4.75-.43,18.26,18.26,0,0,1,5.41.76,11.07,11.07,0,0,1,4.19,2.34A10.83,10.83,0,0,1,315,59.58a16.32,16.32,0,0,1,1,6v2.57c-4,0-7.46.16-11.06,0.46a73.39,73.39,0,0,0-10.28,1.58,43.87,43.87,0,0,0-9,3.06,25.26,25.26,0,0,0-7.07,4.92A21.32,21.32,0,0,0,274,85.28a25.36,25.36,0,0,0-1.68,9.6,23.1,23.1,0,0,0,1.45,8.54,16.32,16.32,0,0,0,4.16,6.13,17.66,17.66,0,0,0,6.53,3.73,27.7,27.7,0,0,0,8.64,1.26,44.67,44.67,0,0,0,5.84-.4,33,33,0,0,0,6-1.39,31.7,31.7,0,0,0,11.71-7,10.18,10.18,0,0,0,4.26,6.5,14.35,14.35,0,0,0,8.28,2.28,27.58,27.58,0,0,0,4.85-.4,28.81,28.81,0,0,0,4.09-1,23.91,23.91,0,0,0,3.53-1.48q1.65-.86,3.23-1.85Zm-27-4.75c-2,1-2.93,1.85-4.33,2.51a26,26,0,0,1-4.18,1.55,24.38,24.38,0,0,1-4,.76,37.68,37.68,0,0,1-3.8.2,13.64,13.64,0,0,1-3.76-.49,6.9,6.9,0,0,1-2.94-1.68,7.79,7.79,0,0,1-1.88-3.1,15,15,0,0,1-.66-4.81,17.2,17.2,0,0,1,1.12-6.3,11.51,11.51,0,0,1,4-5,23.2,23.2,0,0,1,7.83-3.46A61,61,0,0,1,316,75.94V97.45Z"/><path class="cls-1" d="M351,47.57q0,1.78.06,3.5c0,1.14,0,2.09,0,2.84v59.25h17.29l-0.13-46.65a22.76,22.76,0,0,1,7.16-7.65,19.87,19.87,0,0,1,14.12-2.54,17.56,17.56,0,0,1,3.92,1.35l3.69-15.51a19.56,19.56,0,0,0-2.84-.92,23.33,23.33,0,0,0-5.41-.46,16,16,0,0,0-6.1,1.32,28.65,28.65,0,0,0-6.1,3.46,32,32,0,0,0-5.28,4.92,22.42,22.42,0,0,0-3.63,5.67,126.22,126.22,0,0,0-2-14.25H350.59c0.09,0.53.16,1.31,0.23,2.34S350.93,46.38,351,47.57Z"/><path class="cls-1" d="M468,63.5a32.72,32.72,0,0,0-6.24-11.88A29.27,29.27,0,0,0,451,43.68a38.14,38.14,0,0,0-15.57-2.9,39.32,39.32,0,0,0-15.74,2.9,31.38,31.38,0,0,0-11.12,7.85A32.41,32.41,0,0,0,402,63a43.53,43.53,0,0,0-2.18,13.86,49.28,49.28,0,0,0,2.34,15.67,32.94,32.94,0,0,0,6.89,12,30.4,30.4,0,0,0,11.25,7.69,40.9,40.9,0,0,0,15.41,2.71A34.22,34.22,0,0,0,450,112a32.12,32.12,0,0,0,10.82-7.92,34.69,34.69,0,0,0,6.79-11.72A42.93,42.93,0,0,0,470,78.12,51.6,51.6,0,0,0,468,63.5ZM450.86,85.64a32.75,32.75,0,0,1-3,8.77,18.36,18.36,0,0,1-5.21,6.27,12.18,12.18,0,0,1-7.52,2.38,13.06,13.06,0,0,1-7.82-2.35,18.39,18.39,0,0,1-5.34-6,28.7,28.7,0,0,1-3-8.18,42.15,42.15,0,0,1-1-8.84A42.83,42.83,0,0,1,419,67.73a25.83,25.83,0,0,1,3.2-7.92,15.94,15.94,0,0,1,5.31-5.24,14.06,14.06,0,0,1,7.36-1.91,15.59,15.59,0,0,1,7.85,1.85,15.28,15.28,0,0,1,5.28,5A21.49,21.49,0,0,1,451,66.8a42.79,42.79,0,0,1,.89,8.88A50,50,0,0,1,450.86,85.64Z"/><path class="cls-1" d="M202.59,124.25H164.07a6.25,6.25,0,0,0-6.25,6.25V169a6.25,6.25,0,0,0,6.25,6.25h38.52a6.25,6.25,0,0,0,6.25-6.25V130.49A6.24,6.24,0,0,0,202.59,124.25Z"/><path class="cls-1" d="M266.66,124.25H228.15a6.25,6.25,0,0,0-6.25,6.25V169a6.25,6.25,0,0,0,6.25,6.25h38.52a6.25,6.25,0,0,0,6.25-6.25V130.49A6.25,6.25,0,0,0,266.66,124.25Z"/><path class="cls-1" d="M330.74,124.25H292.22a6.25,6.25,0,0,0-6.25,6.25V169a6.25,6.25,0,0,0,6.25,6.25h38.52A6.25,6.25,0,0,0,337,169V130.49A6.24,6.24,0,0,0,330.74,124.25Z"/><path class="cls-1" d="M394.8,124.25H356.29a6.25,6.25,0,0,0-6.25,6.25V169a6.25,6.25,0,0,0,6.25,6.25H394.8a6.25,6.25,0,0,0,6.25-6.25V130.49A6.25,6.25,0,0,0,394.8,124.25Z"/><path class="cls-1" d="M458.88,124.25H420.36a6.25,6.25,0,0,0-6.25,6.25V169a6.25,6.25,0,0,0,6.25,6.25h38.51a6.25,6.25,0,0,0,6.25-6.25V130.49A6.25,6.25,0,0,0,458.88,124.25Z"/><rect class="cls-1" x="93.81" y="124.32" width="51.1" height="51.1" rx="6.26" ry="6.26"/><path class="cls-1" d="M58.45,124.24H26.1a5.25,5.25,0,0,0-5.25,5.25v32.35a5.25,5.25,0,0,0,5.25,5.25H58.45a5.25,5.25,0,0,0,5.25-5.25V129.48A5.24,5.24,0,0,0,58.45,124.24Z"/><path class="cls-1" d="M66.1,195.29H39.71a4.28,4.28,0,0,0-4.28,4.28V226a4.28,4.28,0,0,0,4.28,4.28H66.1A4.28,4.28,0,0,0,70.38,226V199.57A4.28,4.28,0,0,0,66.1,195.29Z"/><rect class="cls-1" x="73.51" y="124.29" width="14.65" height="14.64" rx="1.79" ry="1.79"/><path class="cls-1" d="M107.27,150H61.68a7.39,7.39,0,0,0-7.4,7.39v45.59a7.4,7.4,0,0,0,7.4,7.39h45.59a7.39,7.39,0,0,0,7.39-7.39V157.34A7.39,7.39,0,0,0,107.27,150Z"/><rect class="cls-1" x="10" y="135.09" width="21.12" height="21.12" rx="2.59" ry="2.59"/></g></svg>