<?xml version="1.0" encoding="UTF-8"?><svg id="map" xmlns="http://www.w3.org/2000/svg" viewBox="0 0 100 90"><defs><style>.cls-1{fill:#fff;}.cls-2{fill:#0cb2dd;}</style></defs><path class="cls-1" d="m28.42,71.17c-4.91,0-9.5-1.91-12.92-5.39-3.43-3.49-5.28-8.12-5.2-13.05.16-9.66,7.67-17.6,17.23-18.34,3.72-9.33,12.82-15.55,22.84-15.55s18.94,6.22,22.38,15.54c9.71.6,17.1,8.55,16.95,18.38-.16,10.15-8.41,18.41-18.39,18.41H28.42Z"/><path class="cls-2" d="m50.38,19.83c10.12,0,18.62,6.48,21.66,15.51,9.41.24,16.82,7.93,16.67,17.4-.15,9.52-7.91,17.43-17.39,17.43H28.42c-9.62,0-17.27-7.81-17.12-17.43.15-9.36,7.66-17,16.94-17.4,3.33-9.03,12.02-15.51,22.14-15.51m0-2c-10.23,0-19.52,6.22-23.54,15.61-9.78,1.07-17.38,9.29-17.54,19.26-.08,5.2,1.86,10.09,5.48,13.77,3.61,3.67,8.45,5.69,13.64,5.69h42.89c10.52,0,19.22-8.7,19.39-19.4.16-10.16-7.31-18.41-17.24-19.35-3.74-9.38-12.85-15.59-23.08-15.59h0Z"/><path class="cls-2" d="m65.37,62.28c0-.5-.4-.9-.9-.9h-11.44c-.42-.73-1.06-1.31-1.83-1.66v-2.17s6.84,0,6.84,0h5.36c1.09,0,1.98-.89,1.98-1.99v-4.18c0-1.09-.89-1.98-1.99-1.98h-5.36s-6.84,0-6.84,0v-.99s6.84,0,6.84,0h5.36c1.09,0,1.99-.89,1.98-1.99v-4.18c0-1.09-.89-1.98-1.99-1.98h-5.36s-6.84,0-6.84,0v-.99h6.84s5.36,0,5.36,0c1.09,0,1.98-.89,1.98-1.99v-4.18c0-1.09-.89-1.98-1.99-1.98h-5.36s-21.41,0-21.41,0c-1.09,0-1.98.89-1.98,1.99v4.18c0,1.09.89,1.98,1.99,1.98h11.41s0,.99,0,.99h-11.41c-1.09,0-1.99.89-1.98,1.99v4.18c0,1.09.89,1.98,1.99,1.98h11.41s0,.99,0,.99h-11.41c-1.09,0-1.98.89-1.98,1.99v4.18c0,1.09.89,1.98,1.99,1.98h11.41s0,2.12,0,2.12c-.82.34-1.51.95-1.95,1.71h-10.53c-.5,0-.9.4-.9.9v2.17c0,.5.4.9.9.9h10.53c.69,1.2,1.99,2.01,3.47,2.01,1.48,0,2.78-.81,3.47-2.02h11.44c.5,0,.9-.4.9-.9v-2.17Zm-1.99-11.09c.1,0,.18.08.18.18v4.18c0,.1-.08.18-.18.18h-4.45s0-4.54,0-4.54h4.45Zm0-9.14c.1,0,.18.08.18.18v4.18c0,.1-.08.18-.18.18h-4.45s0-4.54,0-4.54h4.45Zm0-9.14c.1,0,.18.08.18.18v4.18c0,.1-.08.18-.18.18h-4.45s0-4.54,0-4.54h4.45Z"/></svg>