<?xml version="1.0" encoding="UTF-8"?><svg id="map" xmlns="http://www.w3.org/2000/svg" viewBox="0 0 100 90"><defs><style>.cls-1{fill:#0083ad;}.cls-2{fill:#fff;}</style></defs><path class="cls-2" d="m83.29,68.49H16.71c-2.35,0-4.32-1.91-4.49-4.35l-.05-.76h75.66l-.05.76c-.08,1.11-.54,2.16-1.3,2.96-.85.9-1.98,1.39-3.2,1.39Z"/><path class="cls-2" d="m13.78,64.8c.4,1.32,1.58,2.27,2.93,2.27h66.57c.82,0,1.59-.34,2.17-.95.36-.37.62-.83.77-1.32H13.78Z"/><rect class="cls-2" x="21.25" y="21.51" width="57.49" height="39.8" rx="3.25" ry="3.25"/><path class="cls-2" d="m50,22.03c.56,0,1.01.45,1.01,1.01s-.45,1.01-1.01,1.01-1.01-.45-1.01-1.01.45-1.01,1.01-1.01Z"/><rect class="cls-2" x="24.3" y="24.49" width="51.41" height="34.11"/><path class="cls-1" d="m83.29,68.49H16.71c-2.35,0-4.32-1.91-4.49-4.35l-.05-.76h75.66l-.05.76c-.08,1.11-.54,2.16-1.3,2.96-.85.9-1.98,1.39-3.2,1.39Zm-69.51-3.69c.4,1.32,1.58,2.27,2.93,2.27h66.57c.82,0,1.59-.34,2.17-.95.36-.37.62-.83.77-1.32H13.78Z"/><path class="cls-1" d="m55.15,64.73c0,.26-.07.49-.15.66-.1.19-.23.31-.37.31h-9.25c-.28,0-.51-.43-.53-.97h10.31Z"/><path class="cls-1" d="m54.63,65.83h-9.25c-.36,0-.64-.46-.66-1.1v-.14s10.58,0,10.58,0v.14c-.02.27-.07.52-.17.72-.12.25-.3.38-.49.38Zm-9.63-.97c.05.42.23.7.38.7h9.25c.09,0,.18-.08.25-.23.06-.13.11-.29.13-.46h-10.01Z"/><path class="cls-1" d="m75.5,21.51H24.5c-1.79,0-3.25,1.46-3.25,3.25v33.3c0,1.79,1.46,3.25,3.25,3.25h51c1.79,0,3.25-1.46,3.25-3.25V24.76c0-1.79-1.46-3.25-3.25-3.25Zm-25.5.52c.56,0,1.01.45,1.01,1.01s-.45,1.01-1.01,1.01-1.01-.45-1.01-1.01.45-1.01,1.01-1.01Zm25.7,36.57H24.3V24.49h51.41v34.11Z"/></svg>