<?xml version="1.0" encoding="UTF-8"?><svg id="map" xmlns="http://www.w3.org/2000/svg" viewBox="0 0 100 90"><defs><style>.cls-1{fill:#fff;}.cls-2{fill:#909;}</style></defs><path class="cls-1" d="m77.98,62.66c-2.09,0-3.8,1.61-3.97,3.65-.02.11-.02.22-.02.34s0,.23.02.34c.17,2.05,1.89,3.65,3.97,3.65,2.2,0,4-1.79,4-3.99s-1.79-3.99-4-3.99Z"/><path class="cls-1" d="m66.23,70.78c-2.09,0-3.8,1.61-3.97,3.65-.02.11-.02.22-.02.34s0,.23.02.34c.17,2.05,1.89,3.65,3.97,3.65,2.2,0,4-1.79,4-3.99s-1.79-3.99-4-3.99Z"/><path class="cls-1" d="m33.73,70.78c-2.09,0-3.8,1.61-3.97,3.65-.02.11-.02.22-.02.34s0,.23.02.34c.17,2.05,1.89,3.65,3.97,3.65,2.2,0,4-1.79,4-3.99s-1.79-3.99-4-3.99Z"/><path class="cls-1" d="m22.02,62.66c-2.09,0-3.8,1.61-3.97,3.65-.02.11-.02.22-.02.34s0,.23.02.34c.17,2.05,1.89,3.65,3.97,3.65,2.2,0,4-1.79,4-3.99s-1.79-3.99-4-3.99Z"/><path class="cls-1" d="m30.86,58.42c-4.39,0-8.49-1.71-11.54-4.81-3.06-3.11-4.71-7.25-4.64-11.66.14-8.6,6.81-15.67,15.32-16.37,3.33-8.28,11.43-13.8,20.34-13.8s16.84,5.51,19.92,13.79c8.64.57,15.2,7.66,15.06,16.42-.15,9.07-7.51,16.44-16.42,16.44H30.86Z"/><path class="cls-2" d="m50.34,12.78c8.98,0,16.51,5.75,19.21,13.76,8.34.22,14.92,7.04,14.78,15.43-.14,8.44-7.01,15.46-15.42,15.46H30.86c-8.53,0-15.32-6.93-15.18-15.46.13-8.31,6.8-15.08,15.02-15.43,2.95-8.01,10.66-13.76,19.64-13.76m0-2c-9.12,0-17.41,5.52-21.03,13.86-8.72,1.02-15.48,8.38-15.63,17.29-.07,4.68,1.68,9.07,4.93,12.38,3.25,3.3,7.6,5.11,12.25,5.11h38.04c9.45,0,17.27-7.82,17.42-17.43.15-9.08-6.5-16.47-15.36-17.38-3.38-8.34-11.51-13.85-20.63-13.85h0Z"/><path class="cls-2" d="m26.45,66.28c-.19-2.28-2.1-4.07-4.43-4.07-2.46,0-4.45,2-4.45,4.45s2,4.45,4.45,4.45c2.32,0,4.24-1.79,4.43-4.07.02-.12.03-.25.03-.38s0-.26-.03-.38Zm-4.43,3.53c-1.74,0-3.15-1.41-3.15-3.15s1.41-3.15,3.15-3.15c1.6,0,2.93,1.21,3.12,2.77.02.12.03.25.03.38s0,.26-.03.38c-.19,1.56-1.52,2.77-3.12,2.77Z"/><path class="cls-2" d="m77.98,62.21c-2.32,0-4.24,1.79-4.42,4.07-.02.12-.03.25-.03.38s0,.26.03.38c.19,2.28,2.1,4.07,4.42,4.07,2.46,0,4.45-2,4.45-4.45s-2-4.45-4.45-4.45Zm0,7.6c-1.6,0-2.93-1.21-3.12-2.77-.02-.12-.03-.25-.03-.38s0-.26.03-.38c.19-1.56,1.52-2.77,3.12-2.77,1.74,0,3.15,1.41,3.15,3.15s-1.41,3.15-3.15,3.15Z"/><path class="cls-2" d="m66.23,70.33c-2.32,0-4.24,1.79-4.42,4.06-.02.12-.03.25-.03.38s0,.27.03.39c.19,2.28,2.1,4.06,4.42,4.06,2.46,0,4.45-2,4.45-4.45s-2-4.44-4.45-4.44Zm0,7.59c-1.6,0-2.93-1.21-3.12-2.76-.02-.12-.03-.26-.03-.39s0-.26.03-.38c.19-1.55,1.52-2.77,3.12-2.77,1.74,0,3.15,1.42,3.15,3.15s-1.41,3.15-3.15,3.15Z"/><path class="cls-2" d="m38.15,74.39c-.19-2.27-2.1-4.06-4.43-4.06-2.46,0-4.45,2-4.45,4.44s2,4.45,4.45,4.45c2.32,0,4.24-1.79,4.43-4.07.02-.12.03-.25.03-.38s0-.26-.03-.38Zm-4.43,3.53c-1.74,0-3.15-1.41-3.15-3.15s1.41-3.15,3.15-3.15c1.6,0,2.93,1.21,3.12,2.77.02.12.03.25.03.38s0,.26-.03.38c-.19,1.56-1.52,2.77-3.12,2.77Z"/><path class="cls-2" d="m32.66,66.28v.76h-7.51c.02-.12.03-.25.03-.38s0-.26-.03-.38h7.51Z"/><rect class="cls-2" x="32.25" y="59.09" width=".76" height="7.94"/><path class="cls-2" d="m44.21,74.39v.76h-7.36c.02-.12.03-.25.03-.38s0-.26-.03-.38h7.36Z"/><rect class="cls-2" x="43.8" y="58.71" width=".76" height="16.44"/><path class="cls-2" d="m74.83,66.66c0,.13,0,.26.03.38h-7.48v-.76h7.48c-.02.12-.03.25-.03.38Z"/><rect class="cls-2" x="67.03" y="59.04" width=".77" height="7.99"/><path class="cls-2" d="m63.08,74.77c0,.13,0,.27.03.39h-7.37v-.77h7.37c-.02.12-.03.25-.03.38Z"/><rect class="cls-2" x="55.38" y="58.82" width=".77" height="16.33"/><path class="cls-2" d="m26,47.08c0-1.33,1.04-2.44,2.33-2.46,1.32-.03,2.5,1.12,2.49,2.41,0,1.29-1.1,2.39-2.4,2.42-1.27.03-2.42-1.09-2.43-2.37Z"/><path class="cls-2" d="m41.37,47.08c0-1.33,1.04-2.44,2.33-2.46,1.32-.03,2.5,1.12,2.49,2.41,0,1.29-1.1,2.39-2.4,2.42-1.27.03-2.42-1.09-2.43-2.37Z"/><path class="cls-2" d="m49.16,42.81c-.01-1.92-1.53-3.48-3.44-3.57h0s-2.54,0-2.54,0c-.04-.07-.08-.13-.13-.19l-3.65-4.44c-.34-.41-.87-.66-1.43-.66h-7.91c-.56,0-1.09.24-1.43.66l-3.64,4.44c-.05.06-.1.13-.13.19h-2.19c-.46,0-.84.37-.84.84v5.53c0,.46.38.84.84.84h2.25c.29-1.64,1.7-2.92,3.37-2.95,1.74-.03,3.3,1.3,3.6,2.95h8.39c.29-1.64,1.7-2.92,3.37-2.95,1.74-.03,3.3,1.3,3.6,2.95h.48c.79,0,1.43-.64,1.43-1.43v-1.97c0-.08,0-.15-.02-.22Zm-15.92-2.74h-6.81s3.64-4.44,3.64-4.44h3.17v4.44Zm8.37,0h-6.78v-4.45h3.16s3.62,4.42,3.62,4.42v.03Z"/><g id="map-2"><path class="cls-2" d="m55.88,23.68h-1.3v-2.06h0c-.09-2.01-1.79-3.58-3.81-3.49-1.91.08-3.43,1.62-3.49,3.52v2.02h-1.3c-.3,0-.53.24-.53.53h0v7.4c0,.3.24.53.53.53h9.89c.3,0,.53-.24.53-.53h0v-7.4c0-.3-.24-.53-.53-.53h0Zm-3.76,6.17h-2.37l.63-1.98c-.62-.31-.87-1.05-.57-1.67.31-.62,1.05-.87,1.67-.57.62.31.87,1.05.57,1.67-.12.25-.32.44-.57.57l.63,1.98Zm1.27-6.17h-4.9v-2.02s0-.02,0-.03c.03-1.35,1.15-2.43,2.5-2.4,1.31.03,2.37,1.09,2.4,2.4v2.06Z"/></g><polygon class="cls-2" points="59.54 51.02 59.54 42.41 60.49 42.41 60.49 50.08 73.46 50.08 73.46 42.41 74.41 42.41 74.41 51.02 59.54 51.02"/><polygon class="cls-2" points="66.88 34 58.7 42.18 58.03 41.51 66.88 32.66 75.92 41.7 75.25 42.37 66.88 34"/><rect class="cls-2" x="63.18" y="43.73" width="3.07" height="6.51"/><rect class="cls-2" x="68.06" y="39.93" width="3.07" height="6.51"/></svg>