<svg xmlns="http://www.w3.org/2000/svg" viewBox="0 0 300 340"><defs><style>.cls-1{fill:none;stroke-width:2.22px;}.cls-1,.cls-13,.cls-16,.cls-2,.cls-20,.cls-5,.cls-8{stroke:#e6e6e6;stroke-miterlimit:10;}.cls-2{fill:#9c3;}.cls-13,.cls-16,.cls-2,.cls-20,.cls-5,.cls-8{stroke-width:4.37px;}.cls-14,.cls-3{font-size:13.65px;}.cls-14,.cls-3,.cls-9{font-family:Lato-Bold, Lato;font-weight:700;}.cls-4{letter-spacing:-0.01em;}.cls-5{fill:#eecc2f;}.cls-6{letter-spacing:-0.01em;}.cls-7{letter-spacing:0em;}.cls-8{fill:#346ab8;}.cls-9{font-size:13.67px;}.cls-14,.cls-9{fill:#fff;}.cls-10{letter-spacing:-0.01em;}.cls-11{letter-spacing:0em;}.cls-12{letter-spacing:-0.01em;}.cls-13{fill:#3253dc;}.cls-15{letter-spacing:-0.01em;}.cls-16{fill:#d72c2f;}.cls-17{letter-spacing:-0.01em;}.cls-18{letter-spacing:0em;}.cls-19{letter-spacing:-0.01em;}.cls-20{fill:#257639;}</style></defs><g id="upper"><line class="cls-1" x1="47.51" y1="233.28" x2="255.5" y2="116.43"/><line class="cls-1" x1="49.19" y1="113.02" x2="255.54" y2="237.74"/><line class="cls-1" x1="150.39" y1="47.19" x2="150.39" y2="282.8"/><line class="cls-1" x1="49.19" y1="113.02" x2="155.74" y2="296.57"/><line class="cls-1" x1="248.84" y1="119.69" x2="148.78" y2="299"/><line class="cls-1" x1="44.99" y1="112.11" x2="256.6" y2="114.62"/><circle class="cls-1" cx="150.38" cy="168.08" r="103.76"/><circle class="cls-2" cx="150.38" cy="45.44" r="41.51"/><text class="cls-3" transform="translate(131.42 50.01)">Lina<tspan class="cls-4" x="25.18" y="0">r</tspan><tspan x="30.08" y="0">o</tspan></text><circle class="cls-5" cx="254.15" cy="116.2" r="41.51"/><text class="cls-3" transform="translate(232.49 120.76)"><tspan class="cls-6">G</tspan><tspan x="9.83" y="0">o</tspan><tspan class="cls-7" x="17.67" y="0">o</tspan><tspan x="25.46" y="0">gle</tspan></text><circle class="cls-8" cx="45.85" cy="236.48" r="41.51"/><text class="cls-9" transform="translate(13.15 241.05)"><tspan class="cls-10">Q</tspan><tspan class="cls-11" x="10.96" y="0">ual</tspan><tspan class="cls-12" x="29" y="0">c</tspan><tspan x="35.47" y="0">omm</tspan></text><circle class="cls-13" cx="150.38" cy="294.56" r="41.51"/><text class="cls-14" transform="translate(123.22 299.12)"><tspan class="cls-15">S</tspan><tspan x="7.4" y="0">amsung</tspan></text><circle class="cls-16" cx="254.15" cy="233.16" r="41.51"/><text class="cls-9" transform="translate(231.24 237.74)"><tspan class="cls-17">H</tspan><tspan class="cls-11" x="10.4" y="0">u</tspan><tspan class="cls-18" x="18.11" y="0">a</tspan><tspan class="cls-19" x="24.99" y="0">w</tspan><tspan x="35.84" y="0">ei</tspan></text><circle class="cls-20" cx="45.85" cy="111.92" r="41.51"/><text class="cls-14" transform="translate(26.78 116.49)">OPPO</text></g></svg>