<svg xmlns="http://www.w3.org/2000/svg" viewBox="0 0 140 140"><defs><style>.cls-1{opacity:0.69;}.cls-2{fill:none;stroke:#9c3;stroke-linecap:round;stroke-miterlimit:10;stroke-width:3px;stroke-dasharray:0.5 7.97;}.cls-3{fill:#fff;}</style></defs><title>LINUX</title><g id="map"><g class="cls-1"><circle class="cls-2" cx="70" cy="70" r="63.32"/></g><path class="cls-3" d="M83,46.4c-1,5.86,1.51,10.19,5,14.24s6.35,8.47,7.58,13.77a15.13,15.13,0,0,1,0,7.62,1.5,1.5,0,0,0,.49,1.7,13.64,13.64,0,0,1,1.89,3.21A35.64,35.64,0,0,0,100,91.28c2,2.82,1.74,4.71-1.28,6.24a27.16,27.16,0,0,0-8.5,6,8.06,8.06,0,0,1-5.75,2.64,5.59,5.59,0,0,1-5.76-3.31,1.67,1.67,0,0,0-1.87-1.11,8.88,8.88,0,0,1-2.3-.2c-3.78-.88-7.46,0-11.16.57a1,1,0,0,0-.64.35c-2.38,3.6-5.77,3.26-9.22,2.29-2-.56-3.8-1.57-5.76-2.11-1.78-.48-3.65-.56-5.47-.87-3.14-.54-4-2-3.41-5.14A17.42,17.42,0,0,0,39.15,92c-.28-3.25.35-4.65,3.44-5.62,2.21-.7,3.1-2.59,4.44-4.08a1.1,1.1,0,0,0,.12-.73c-.4-4.72,1.18-8.94,3.5-12.88a84.57,84.57,0,0,1,5.56-8.13A18.35,18.35,0,0,0,60,47.83a48,48,0,0,1,.23-9.21c.66-4.69,3.86-7.63,8.56-8.18a19.23,19.23,0,0,1,5.67.08c4.53.85,6.74,4.1,7.61,8.31C82.59,41.39,82.7,44,83,46.4ZM55.81,65.72a21.83,21.83,0,0,0-3.9,8.45c-.84,4.3.4,7.07,4.06,9.47a13.78,13.78,0,0,1,2.74,2,26,26,0,0,1,3.63,4.68c.77,1.36.12,2.29-1.38,2.81-.25.09-.49.22-1.21.55,1.64,1.37,2.85,2.88,4.43,3.62,5.1,2.41,9.92,1.16,14.43-1.78a2,2,0,0,0,.77-1.23c.43-2.57.77-5.16,1.16-7.75.32-2.18.81-4.26,3-5.46a1.66,1.66,0,0,0,.58-.82c.72-1.82,1.72-2.47,3.57-1.86,2.39.79,5.15,1.25,5.62,4.79a2.1,2.1,0,0,0-.27-3,11.51,11.51,0,0,0-2.76-1.93c-.91-.45-1-1-1-1.92.4-5.14-2-9.11-5.51-12.55,3.17,3.89,5.35,8,3.93,13.16-1.39.29-1.78-.23-2-1.3A17,17,0,0,0,84.59,72c-1.2-2.78-2.6-5.47-3.76-8.27-1.4-3.38-2.63-6.84-3.88-10.1-2.12,1.15-4.26,2.46-6.52,3.51a5,5,0,0,1-5.62-.8c-.75-.64-1.56-1.21-2.07-1.6-1.37,3.87-2.53,7.69-4.08,11.36-1.86,4.44-4.09,8.74-4.47,13.68C51.22,74.69,53.72,70.27,55.81,65.72Zm.55,38.72c5.26,0,7.31-3.57,5.11-7.4-.41-.71-.93-1.36-1.37-2.05-2-3.14-4.06-6.28-6.09-9.43-.25-.39-.42-.83-.69-1.2-2.14-3-4.4-2.94-6.7-.13A9.75,9.75,0,0,1,43.26,87c-3.06,1.37-3.54,2.1-3.09,5.41A10.16,10.16,0,0,1,40,96.15c-.86,3.31-.3,4.31,3.07,4.85.31,0,.61.06.92.09a23.1,23.1,0,0,1,8,2A25.62,25.62,0,0,0,56.36,104.44ZM83.83,82a5.36,5.36,0,0,0-2.31,4.49,46.11,46.11,0,0,1-2,11.17,9.15,9.15,0,0,0-.39,2.27,4.73,4.73,0,0,0,5.64,5.21,10.23,10.23,0,0,0,5-2.5,28.89,28.89,0,0,1,8.54-5.92c2.54-1.22,2.83-2.5,1-4.72a11.79,11.79,0,0,1-2.32-4.93c-.79-3.36-3-4.13-5.71-2.13-3.57,2.58-6,1.76-7.21-2.4C84,82.4,83.91,82.25,83.83,82ZM68.37,57.29c2.86-1,5.77-2.18,8.07-4.36,1.22-1.15.76-2.55-.85-3.34s-3.52-1.67-5.31-2.42A4.87,4.87,0,0,0,65,48c-.87.72-1.76,1.42-2.65,2.12-1.43,1.12-1.58,2.1-.27,3.3a34.54,34.54,0,0,0,4.14,3.19A8.05,8.05,0,0,0,68.37,57.29Zm3-10.37a3.87,3.87,0,0,1,.24-1.45,16,16,0,0,1,1.58-1.81c.52.67,1.32,1.28,1.48,2a8.6,8.6,0,0,1-.34,2.81l1.46.53a5.11,5.11,0,0,0,1.1-4.78c-.48-2.14-2-3.61-3.65-3.61s-3.11,1.42-3.63,3.46S69.31,46.35,71.35,46.92ZM63.13,49.1a8.88,8.88,0,0,0,.08-1.26,13.8,13.8,0,0,1-.28-2.37c0-.43.6-.81.92-1.21A5.28,5.28,0,0,1,65,45.35a5.55,5.55,0,0,1,.36,1.57c1.52-.58,1.6-.6,1.34-2a6.3,6.3,0,0,0-.91-2.4c-1.09-1.63-2.82-1.5-3.82.19A5.15,5.15,0,0,0,63.13,49.1Z"/></g></svg>