<svg xmlns="http://www.w3.org/2000/svg" viewBox="0 0 300 300"><defs><style>.cls-1{fill:#1d1d1b;opacity:0.2;}.cls-2{fill:#fff;}.cls-3{fill:#f48414;}</style></defs><title>LITE</title><g id="Background"><rect class="cls-1" x="-334.62" y="-57.51" width="1295.51" height="2590.82"/></g><g id="shadow"><path class="cls-2" d="M93.1,219.86a48.53,48.53,0,0,1-48.63-49.51,50.23,50.23,0,0,1,45.7-49.16,66.06,66.06,0,0,1,60.83-41,63.63,63.63,0,0,1,59.6,41,48.47,48.47,0,0,1,44.93,49.3c-.44,27.24-22.58,49.4-49.35,49.4Z"/><path class="cls-2" d="M151,83.64a60,60,0,0,1,57.09,40.9A45,45,0,0,1,252,170.41c-.4,25.09-20.85,46-45.85,46H93.1a45,45,0,0,1-45.13-46,46.84,46.84,0,0,1,44.66-45.87A62.43,62.43,0,0,1,151,83.64m0-7a69.55,69.55,0,0,0-63.24,41.29A53.74,53.74,0,0,0,41,170.29,52,52,0,0,0,93.1,223.36H206.18c28.67,0,52.38-23.71,52.85-52.84a52,52,0,0,0-46-52.64A67.13,67.13,0,0,0,151,76.64Z"/></g><g id="icons"><path class="cls-3" d="M93.1,218.86a47.52,47.52,0,0,1-47.63-48.49,49.21,49.21,0,0,1,45.4-48.23,65,65,0,0,1,60.13-41,62.63,62.63,0,0,1,58.89,41,47.47,47.47,0,0,1,44.64,48.34c-.43,26.69-22.12,48.41-48.35,48.41Z"/><path class="cls-2" d="M151,83.64a60,60,0,0,1,57.09,40.9A45,45,0,0,1,252,170.41c-.4,25.09-20.85,46-45.85,46H93.1a45,45,0,0,1-45.13-46,46.84,46.84,0,0,1,44.66-45.87A62.43,62.43,0,0,1,151,83.64m0-5a67.56,67.56,0,0,0-61.87,41.15A51.72,51.72,0,0,0,43,170.33a50,50,0,0,0,50.13,51H206.18c27.59,0,50.4-22.82,50.85-50.87a50,50,0,0,0-45.37-50.75A65.12,65.12,0,0,0,151,78.64Z"/><path class="cls-2" d="M68.53,194A2.76,2.76,0,0,1,63,194a38.32,38.32,0,0,1,3-14.92A36.42,36.42,0,0,1,74.23,167a37.3,37.3,0,0,1,12.16-8.2,38.41,38.41,0,0,1,29.86,0,32.33,32.33,0,0,1,6,3.28l-6,2.94a29.92,29.92,0,0,0-14.93-3.8A32.92,32.92,0,0,0,68.53,194Z"/><path class="cls-2" d="M110.46,200.34a12.75,12.75,0,0,1-18-18,12.34,12.34,0,0,1,3.8-2.59l33-16.22-16.22,33.05A12.13,12.13,0,0,1,110.46,200.34Z"/><path class="cls-2" d="M137,196.8a2.72,2.72,0,0,1-2.76-2.76,32.58,32.58,0,0,0-5.87-18.72l2.76-5.61a40.53,40.53,0,0,1,5.61,9.32,38.8,38.8,0,0,1,3,15A2.72,2.72,0,0,1,137,196.8Z"/><path class="cls-2" d="M212.86,198.1c0,3.62-1.65,5.19-4.56,5.82a4.59,4.59,0,0,1-4.31,3.47,5.06,5.06,0,0,1-4.7-3.47c-2.91-.63-5-2.2-5-5.82V194h18.56Z"/><path class="cls-2" d="M216.3,183.41a10.24,10.24,0,0,0-3.41,7.5h-18.6a9.54,9.54,0,0,0-3.72-7.5,21.45,21.45,0,0,1-8.67-18.32c.31-11.15,9.91-20.47,21.38-20.78a21.65,21.65,0,0,1,22,21.72A20.78,20.78,0,0,1,216.3,183.41Z"/><path class="cls-3" d="M101.4,185A6.15,6.15,0,0,0,97,186.8a6.36,6.36,0,0,0,0,8.88,6.27,6.27,0,0,0,8.81,0,6.36,6.36,0,0,0,0-8.88A6.29,6.29,0,0,0,101.4,185Z"/><path class="cls-2" d="M160.69,159.58H144.27c-2.54,0-3.85-1.15-2.91-3.22l9.58-18.93c.95-2.07,2.48-1.92,3.4.15l9.3,18.7C164.56,158.36,163.23,159.58,160.69,159.58Z"/><circle class="cls-2" cx="152.31" cy="122.72" r="9.64"/><path class="cls-3" d="M156.36,122.72a4,4,0,1,0-4.05,4A4.06,4.06,0,0,0,156.36,122.72Z"/><path class="cls-2" d="M141.89,137.41l.05,0a2.08,2.08,0,0,1-1.3,3.71,2,2,0,0,1-1.25-.43h0a22.16,22.16,0,1,1,25.8,0h0l-.08.06a2,2,0,0,1-1.12.33,2.08,2.08,0,0,1-2.08-2.07,2,2,0,0,1,.82-1.65l.08-.06,0,0h0a18,18,0,1,0-20.92.12"/><path class="cls-2" d="M170.39,149.93l0,0a32.7,32.7,0,1,0-36.26,0l0,0a2,2,0,0,0,1.17.36,2.07,2.07,0,0,0,2.07-2.07,2.09,2.09,0,0,0-.91-1.72h0a28.55,28.55,0,1,1,31.61,0h0a2.07,2.07,0,0,0,1.14,3.8,2.12,2.12,0,0,0,1.14-.34"/></g></svg>