<svg xmlns="http://www.w3.org/2000/svg" viewBox="0 0 100 100"><defs><style>.cls-1{fill:#fff;}.cls-2{fill:#f48414;}</style></defs><title>LITE col</title><g id="icons"><path class="cls-1" d="M89.11,53.45A21.08,21.08,0,0,0,76,47.06a27.46,27.46,0,0,0-25.53-17.2,28,28,0,0,0-16.36,5.25,28.45,28.45,0,0,0-9.68,12A21.9,21.9,0,0,0,5,68.43,21.16,21.16,0,0,0,26.2,90H73.5A21.76,21.76,0,0,0,95,68.5,21.12,21.12,0,0,0,89.11,53.45Zm3.56,15A19.47,19.47,0,0,1,73.5,87.68H26.2A18.82,18.82,0,0,1,7.33,68.46,19.58,19.58,0,0,1,26,49.28,26.13,26.13,0,0,1,50.42,32.17,25.12,25.12,0,0,1,74.3,49.28,18.8,18.8,0,0,1,92.67,68.46Z"/><path class="cls-2" d="M74.3,49.28A25.12,25.12,0,0,0,50.42,32.17,26.13,26.13,0,0,0,26,49.28,19.58,19.58,0,0,0,7.33,68.46,18.82,18.82,0,0,0,26.2,87.68H73.5A19.47,19.47,0,0,0,92.67,68.46,18.8,18.8,0,0,0,74.3,49.28Z"/><path class="cls-1" d="M15.93,78.35a1.16,1.16,0,0,1-2.31,0,16,16,0,0,1,1.26-6.24A15.1,15.1,0,0,1,18.31,67a15.5,15.5,0,0,1,5.09-3.43,16.08,16.08,0,0,1,12.48,0A13.44,13.44,0,0,1,38.41,65l-2.49,1.23a12.52,12.52,0,0,0-6.25-1.59A13.77,13.77,0,0,0,15.93,78.35Z"/><path class="cls-1" d="M33.46,81A5.29,5.29,0,0,1,26,81a5.28,5.28,0,0,1,0-7.54,5.1,5.1,0,0,1,1.59-1.08l13.82-6.79L34.55,79.4A5.26,5.26,0,0,1,33.46,81Z"/><path class="cls-1" d="M44.58,79.5a1.14,1.14,0,0,1-1.16-1.15A13.65,13.65,0,0,0,41,70.52l1.16-2.35a17.18,17.18,0,0,1,2.34,3.9,16.26,16.26,0,0,1,1.26,6.28A1.13,1.13,0,0,1,44.58,79.5Z"/><path class="cls-1" d="M76.29,80a2.16,2.16,0,0,1-1.91,2.44,1.91,1.91,0,0,1-1.8,1.45,2.1,2.1,0,0,1-2-1.45A2.3,2.3,0,0,1,68.53,80V78.33h7.76Z"/><path class="cls-1" d="M77.73,73.9A4.29,4.29,0,0,0,76.3,77H68.53A4,4,0,0,0,67,73.9a9,9,0,0,1-3.63-7.66,9.19,9.19,0,0,1,9-8.69,9.06,9.06,0,0,1,9.2,9.08A8.7,8.7,0,0,1,77.73,73.9Z"/><path class="cls-2" d="M29.67,74.56a2.56,2.56,0,0,0-1.84.76,2.62,2.62,0,1,0,1.84-.76Z"/><path class="cls-1" d="M54.47,63.94H47.6c-1.06,0-1.61-.49-1.21-1.35l4-7.92c.4-.86,1-.8,1.43.06l3.88,7.83C56.09,63.42,55.53,63.94,54.47,63.94Z"/><circle class="cls-1" cx="50.97" cy="48.52" r="4.03"/><path class="cls-2" d="M52.66,48.52A1.69,1.69,0,1,0,51,50.21,1.69,1.69,0,0,0,52.66,48.52Z"/><path class="cls-1" d="M46.61,54.66l0,0a.87.87,0,0,1-.54,1.55.89.89,0,0,1-.53-.18h0a9.28,9.28,0,1,1,10.79,0h0l0,0a1,1,0,0,1-.47.14.87.87,0,0,1-.53-1.56l0,0h0a7.53,7.53,0,1,0-8.75.05"/><path class="cls-1" d="M58.53,59.9h0a13.68,13.68,0,1,0-15.16,0h0a.84.84,0,0,0,.49.15.87.87,0,0,0,.87-.87.85.85,0,0,0-.38-.71h0a11.94,11.94,0,1,1,13.22,0h0a.87.87,0,0,0-.38.72.86.86,0,0,0,.86.87.9.9,0,0,0,.48-.14"/></g></svg>