<svg id="icons" xmlns="http://www.w3.org/2000/svg" viewBox="0 0 150 150"><defs><style>.cls-1{font-size:17px;font-family:Lato-Regular, Lato;}.cls-2{letter-spacing:-0.02em;}.cls-3{letter-spacing:-0.02em;}.cls-4{letter-spacing:-0.12em;}.cls-5{letter-spacing:-0.03em;}.cls-6{letter-spacing:-0.01em;}.cls-7{letter-spacing:-0.01em;}.cls-8{fill:none;}.cls-9{fill:#fff;}.cls-10{fill:#f48414;}</style></defs><text class="cls-1" transform="translate(29.46 111.42)">Lina<tspan class="cls-2" x="30.74" y="0">r</tspan><tspan x="36.58" y="0">o </tspan><tspan class="cls-3" x="50.57" y="0">I</tspan><tspan class="cls-4" x="55.07" y="0">o</tspan><tspan class="cls-5" x="62.61" y="0">T</tspan><tspan x="72.14" y="0" xml:space="preserve"> &amp;</tspan><tspan class="cls-6" x="-21.06" y="20.4">E</tspan><tspan x="-11.48" y="20.4">mbedded </tspan><tspan class="cls-7" x="62.89" y="20.4">G</tspan><tspan class="cls-2" x="75.17" y="20.4">r</tspan><tspan x="81.01" y="20.4">oup</tspan></text><path class="cls-8" d="M92.86,63a2.6,2.6,0,0,0-1.87.77,2.66,2.66,0,0,0,1.87,4.54,2.66,2.66,0,0,0,1.87-4.54A2.63,2.63,0,0,0,92.86,63Z"/><path class="cls-9" d="M49.6,80.44a20.93,20.93,0,0,1-21-21.34A21.63,21.63,0,0,1,48.14,37.94a28.34,28.34,0,0,1,26-17.45A27.32,27.32,0,0,1,99.71,37.92a20.77,20.77,0,0,1,19.17,21.24A21.55,21.55,0,0,1,97.61,80.44Z"/><path class="cls-10" d="M74.18,22.28A25.51,25.51,0,0,1,98.43,39.65a19.09,19.09,0,0,1,18.65,19.48A19.77,19.77,0,0,1,97.61,78.64h-48A19.12,19.12,0,0,1,30.43,59.13a19.88,19.88,0,0,1,19-19.48A26.53,26.53,0,0,1,74.18,22.28m0-3.59A30.16,30.16,0,0,0,46.9,36.28,23.43,23.43,0,0,0,26.84,59.07,22.71,22.71,0,0,0,49.6,82.23h48a23.35,23.35,0,0,0,23.07-23A22.69,22.69,0,0,0,101,36.25,29.13,29.13,0,0,0,74.18,18.69Z"/><path class="cls-10" d="M42.89,66.05a3.09,3.09,0,0,1,3-3.13A3.08,3.08,0,1,1,46,69.08,3.12,3.12,0,0,1,42.89,66.05Z"/><path class="cls-10" d="M62.45,66.05a3.1,3.1,0,0,1,3-3.13,3.08,3.08,0,1,1-3,3.13Z"/><path class="cls-10" d="M72.38,60.61A4.58,4.58,0,0,0,68,56.06H64.77a1.46,1.46,0,0,0-.17-.24L60,50.15a2.39,2.39,0,0,0-1.82-.83H48.07a2.37,2.37,0,0,0-1.82.83l-4.63,5.66a1.31,1.31,0,0,0-.17.24H38.66a1.07,1.07,0,0,0-1.07,1.07v7.05a1.07,1.07,0,0,0,1.07,1.07h2.86a4.53,4.53,0,0,1,4.29-3.76,4.69,4.69,0,0,1,4.59,3.76H61.09a4.53,4.53,0,0,1,4.29-3.76A4.69,4.69,0,0,1,70,65.24h.61a1.83,1.83,0,0,0,1.83-1.83V60.9A1.36,1.36,0,0,0,72.38,60.61Zm-20.27-3.5H43.43l4.64-5.66h4Zm10.65,0H54.12V51.45h4l4.62,5.62Z"/><g id="map"><path class="cls-10" d="M80.94,36.24H79.29V33.62h0a4.65,4.65,0,0,0-9.29.05v2.57H68.34a.69.69,0,0,0-.68.68h0v9.43a.69.69,0,0,0,.68.68h12.6a.68.68,0,0,0,.68-.68h0V36.92a.68.68,0,0,0-.68-.68ZM76.15,44.1h-3l.81-2.52a1.59,1.59,0,1,1,2.13-.72,1.62,1.62,0,0,1-.72.72Zm1.62-7.86H71.52V33.62a3.12,3.12,0,0,1,6.24,0Z"/></g><polygon class="cls-10" points="85.6 71.07 85.6 60.11 86.81 60.11 86.81 69.87 103.33 69.87 103.33 60.11 104.54 60.11 104.54 71.07 85.6 71.07"/><polygon class="cls-10" points="94.95 49.39 84.53 59.81 83.68 58.96 94.95 47.69 106.47 59.2 105.61 60.05 94.95 49.39"/><rect class="cls-10" x="90.23" y="61.78" width="3.91" height="8.29"/><rect class="cls-10" x="96.45" y="56.95" width="3.91" height="8.29"/></svg>