<svg id="icons" xmlns="http://www.w3.org/2000/svg" viewBox="0 0 150 100.22"><defs><style>.cls-1{fill:none;}.cls-2{fill:#fff;}.cls-3{fill:#f48414;}</style></defs><path class="cls-1" d="M92.86,46.38a2.6,2.6,0,0,0-1.87.77,2.66,2.66,0,0,0,1.87,4.54,2.66,2.66,0,0,0,1.87-4.54A2.63,2.63,0,0,0,92.86,46.38Z"/><path class="cls-2" d="M49.6,79a20.93,20.93,0,0,1-21-21.34A21.64,21.64,0,0,1,48.14,36.51a28.34,28.34,0,0,1,26-17.45A27.33,27.33,0,0,1,99.71,36.49a20.77,20.77,0,0,1,19.17,21.24A21.55,21.55,0,0,1,97.61,79Z"/><path class="cls-3" d="M74.18,20.86A25.5,25.5,0,0,1,98.43,38.22,19.09,19.09,0,0,1,117.08,57.7,19.77,19.77,0,0,1,97.61,77.21h-48A19.12,19.12,0,0,1,30.43,57.7a19.89,19.89,0,0,1,19-19.48A26.52,26.52,0,0,1,74.18,20.86m0-3.6A30.16,30.16,0,0,0,46.9,34.85,23.43,23.43,0,0,0,26.84,57.64,22.71,22.71,0,0,0,49.6,80.8h48a23.35,23.35,0,0,0,23.07-23A22.69,22.69,0,0,0,101,34.82,29.14,29.14,0,0,0,74.18,17.26Z"/><path class="cls-3" d="M42.89,64.63a3.09,3.09,0,0,1,3-3.14A3.08,3.08,0,1,1,46,67.65,3.12,3.12,0,0,1,42.89,64.63Z"/><path class="cls-3" d="M62.45,64.63a3.1,3.1,0,0,1,3-3.14,3.08,3.08,0,1,1-3,3.14Z"/><path class="cls-3" d="M72.38,59.18A4.58,4.58,0,0,0,68,54.63H64.77l-.17-.24L60,48.72a2.39,2.39,0,0,0-1.82-.83H48.07a2.35,2.35,0,0,0-1.82.84l-4.63,5.65a1.77,1.77,0,0,0-.17.24H38.66a1.07,1.07,0,0,0-1.07,1.07v7.05a1.07,1.07,0,0,0,1.07,1.07h2.86a4.53,4.53,0,0,1,4.29-3.76,4.69,4.69,0,0,1,4.59,3.76H61.09a4.53,4.53,0,0,1,4.29-3.76A4.69,4.69,0,0,1,70,63.81h.61A1.83,1.83,0,0,0,72.41,62V59.47A1.36,1.36,0,0,0,72.38,59.18ZM52.11,55.69H43.43L48.07,50h4Zm10.65,0H54.12V50h4l4.62,5.63Z"/><g id="map"><path class="cls-3" d="M80.94,34.81H79.29V32.19h0a4.65,4.65,0,0,0-9.29.05v2.57H68.34a.69.69,0,0,0-.68.69h0v9.42a.68.68,0,0,0,.68.68h12.6a.67.67,0,0,0,.68-.68h0V35.5a.68.68,0,0,0-.68-.69Zm-4.79,7.86h-3l.81-2.52A1.59,1.59,0,0,1,73.22,38a1.59,1.59,0,0,1,2.85,1.41,1.57,1.57,0,0,1-.72.72Zm1.62-7.86H71.52V32.2a3.12,3.12,0,0,1,6.24,0Z"/></g><polygon class="cls-3" points="85.6 69.64 85.6 58.68 86.81 58.68 86.81 68.44 103.33 68.44 103.33 58.68 104.54 58.68 104.54 69.64 85.6 69.64"/><polygon class="cls-3" points="94.95 47.96 84.53 58.38 83.68 57.53 94.95 46.26 106.47 57.77 105.61 58.62 94.95 47.96"/><rect class="cls-3" x="90.23" y="60.36" width="3.91" height="8.29"/><rect class="cls-3" x="96.45" y="55.52" width="3.91" height="8.29"/></svg>