<svg id="Layer_1" data-name="Layer 1" xmlns="http://www.w3.org/2000/svg" viewBox="0 0 500 350"><defs><style>.cls-1{fill:#fff;}</style></defs><title>LITE-Logo</title><path class="cls-1" d="M262.8,106.44a8.28,8.28,0,1,0,8.28,8.28A8.29,8.29,0,0,0,262.8,106.44Z"/><path class="cls-1" d="M380.95,118.39a135.33,135.33,0,0,0-128.7-92.18c-60.15,0-111.8,38.51-131.57,92.18C65.56,120.76,20.91,165.46,20,221.11,19.09,278.27,64.58,324,121.75,324H376.63C433,324,479.08,277.66,480,221.11,480.89,164.85,436.84,119.83,380.95,118.39ZM66.66,275.18a6.22,6.22,0,0,1-12.45,0A86.68,86.68,0,0,1,61,241.53,82.24,82.24,0,0,1,79.5,214.1a84.25,84.25,0,0,1,27.42-18.48,86.56,86.56,0,0,1,67.29,0A70.8,70.8,0,0,1,187.83,203l-13.42,6.61a67.61,67.61,0,0,0-33.65-8.56A74.21,74.21,0,0,0,66.66,275.18Zm94.52,14.2a28.74,28.74,0,0,1-40.65-40.65,27.9,27.9,0,0,1,8.56-5.83l74.49-36.56L167,280.82A27.9,27.9,0,0,1,161.19,289.37Zm59.9-8a6.14,6.14,0,0,1-6.22-6.22A73.45,73.45,0,0,0,201.64,233l6.22-12.64a91.39,91.39,0,0,1,12.64,21,87.64,87.64,0,0,1,6.81,33.84A6.14,6.14,0,0,1,221.09,281.4ZM281.27,198h-37c-5.74,0-8.69-3.16-6.56-7.82l21.6-43c2.13-4.65,5.58-4.47,7.66.2l21,42.66C290,194.74,287,198,281.27,198Zm0.37-52.3a36.25,36.25,0,0,0-18.84-67.23H262c-19.9,0-35.46,15.92-35.46,36.24a36,36,0,0,0,17.41,31,3.82,3.82,0,1,1-4,6.52,43.61,43.61,0,0,1-21.07-37.5c0-24.61,18.91-43.88,43.06-43.88h0.8a43.9,43.9,0,0,1,22.85,81.39A3.82,3.82,0,0,1,281.64,145.7ZM262.8,134.47a19.74,19.74,0,1,1,19.74-19.74A19.77,19.77,0,0,1,262.8,134.47Zm36.59,37.61a3.82,3.82,0,0,1-4-6.5A59.77,59.77,0,0,0,263.78,55h-2a59.79,59.79,0,0,0-31.57,110.61,3.81,3.81,0,0,1-4,6.46,66.5,66.5,0,0,1-31.89-57A67.25,67.25,0,0,1,261.81,48h2a67.26,67.26,0,0,1,67.51,67.11A66.53,66.53,0,0,1,299.39,172.07ZM395,282.3c0,8.18-3.6,11.72-10.15,13.13-1.24,4.4-5,7.83-9.66,7.83a11,11,0,0,1-10.27-7.83c-6.56-1.41-10.92-5-10.92-13.13V275h41v7.3Zm9-30.4A21.93,21.93,0,0,0,396.31,269H354.39A20.51,20.51,0,0,0,346,251.89c-12.58-9.08-20.26-24.62-19.56-41.39,0.7-25.15,22.36-46.19,48.21-46.89,27.25-.7,49.6,21.78,49.6,49C424.25,228.71,416.57,243.51,404,251.89Z"/><path class="cls-1" d="M140.76,254.75a13.82,13.82,0,0,0-9.92,4.08,14.32,14.32,0,0,0,0,20,14.09,14.09,0,0,0,19.84,0,14.32,14.32,0,0,0,0-20A14.15,14.15,0,0,0,140.76,254.75Z"/></svg>