<svg xmlns="http://www.w3.org/2000/svg" viewBox="0 0 112.34 112.35"><defs><style>.cls-1,.cls-2{fill:#9ac43a;}.cls-1{opacity:0.3;}</style></defs><g id="map"><path d="M38.06,62.73v3.58H26.41V47h4.48V62.73Z"/><path d="M44.1,54.8h.72a1.64,1.64,0,0,0,1.43-.62l4.36-6.32a2.07,2.07,0,0,1,.83-.7,2.71,2.71,0,0,1,1.1-.19h3.91l-5.74,7.82A3.93,3.93,0,0,1,49.4,56a3,3,0,0,1,.91.52,3.62,3.62,0,0,1,.77.86l5.85,9h-4a3.16,3.16,0,0,1-.66,0,1.85,1.85,0,0,1-.47-.16,1.33,1.33,0,0,1-.35-.26,2.53,2.53,0,0,1-.28-.35l-4.38-6.73a1.38,1.38,0,0,0-.6-.53,2.71,2.71,0,0,0-1-.15H44.1v8.23H39.61V47H44.1Z"/><path d="M62.89,50.42v4.9H69.5v3.47H62.89v7.52H58.37V47H70.83v3.45Z"/><path d="M87.32,50.53H81.87V66.31H77.39V50.53H71.94V47H87.32Z"/><path class="cls-1" d="M112.17,56.76a56,56,0,0,1-21.55,43.5H56.09a44.17,44.17,0,0,0,44.17-43.5Z"/><path class="cls-2" d="M56.09,0a56.09,56.09,0,1,0,0,112.17H92.72V100.26H56.09a44.18,44.18,0,1,1,44.18-44.18v.17h11.9v-.17A56.13,56.13,0,0,0,56.09,0Z"/><polygon class="cls-2" points="112.34 106.08 101.48 99.81 101.48 112.35 112.34 106.08"/></g></svg>