<?xml version="1.0" encoding="utf-8"?>
<!-- Generator: Adobe Illustrator 22.0.0, SVG Export Plug-In . SVG Version: 6.00 Build 0)  -->
<svg version="1.1" id="Layer_1" xmlns="http://www.w3.org/2000/svg" xmlns:xlink="http://www.w3.org/1999/xlink" x="0px" y="0px"
	 viewBox="0 0 330 500" style="enable-background:new 0 0 330 500;" xml:space="preserve">
<style type="text/css">
	.st0{fill:#FFFFFF;}
</style>
<title>LMG-Logo</title>
<path class="st0" d="M264.1,20L63.3,21.1c-23.7,0.2-42.8,19.5-42.8,43.3l2.1,372.8c0.2,23.7,19.5,42.8,43.3,42.8l200.8-1.1
	c23.7-0.2,42.8-19.5,42.8-43.3l-2.1-372.8C307.1,39,287.8,19.9,264.1,20z M106.5,42.4l114.7-0.7l0.1,14.3l-114.7,0.7L106.5,42.4z
	 M166.1,450.8c-15.8,0.1-28.8-12.7-28.8-28.5c-0.1-15.8,12.7-28.8,28.5-28.8c15.8-0.1,28.8,12.7,28.8,28.5
	C194.7,437.7,182,450.7,166.1,450.8C166.1,450.8,166.1,450.8,166.1,450.8z M280.4,364.1l-229.4,1.3L49.3,78.6l229.4-1.3L280.4,364.1
	z"/>
<path class="st0" d="M264.1,20L63.3,21.1c-23.7,0.2-42.8,19.5-42.8,43.3l2.1,372.8c0.2,23.7,19.5,42.8,43.3,42.8l200.8-1.1
	c23.7-0.2,42.8-19.5,42.8-43.3l-2.1-372.8C307.1,39,287.8,19.9,264.1,20z M106.5,42.4l114.7-0.7l0.1,14.3l-114.7,0.7L106.5,42.4z
	 M166.1,450.8c-15.8,0.1-28.8-12.7-28.8-28.5c-0.1-15.8,12.7-28.8,28.5-28.8c15.8-0.1,28.8,12.7,28.8,28.5
	C194.7,437.7,182,450.7,166.1,450.8C166.1,450.8,166.1,450.8,166.1,450.8z M280.4,364.1l-229.4,1.3L49.3,78.6l229.4-1.3L280.4,364.1
	z"/>
</svg>
