<svg id="Layer_1" data-name="Layer 1" xmlns="http://www.w3.org/2000/svg" viewBox="0 0 500 372"><defs><style>.cls-1{fill:#fff;}</style></defs><title>LNG-Logo</title><path id="DZone" class="cls-1" d="M444,65.83a36.09,36.09,0,0,0-34.94,27.48L249.35,40.44a20.42,20.42,0,1,0-40.84.19,20.83,20.83,0,0,0,5.52,14l-168.71,193a23.53,23.53,0,0,0-6.42-1.23,19.22,19.22,0,0,0,0,38.43,19,19,0,0,0,17-10.69l153.24,36.78a34.65,34.65,0,0,0-.69,7.09A33.79,33.79,0,1,0,276,318a37,37,0,0,0-1.36-10.12l117.26-48.51a17.47,17.47,0,0,0,13,5.64c9.95,0,18.11-8.4,18.11-18.69a18.73,18.73,0,0,0-7.32-14.84L435,137.52a32.33,32.33,0,0,0,9,1.27c19.86,0,36-16.33,36-36.47S463.86,65.83,444,65.83ZM241,57.27l71.89,87.92-73.06,29.63L235.4,60.22A24,24,0,0,0,241,57.27ZM228.9,61.33l4.5,116.15L200.09,191a22.71,22.71,0,0,0-6-7L222.21,60A25.42,25.42,0,0,0,228.9,61.33ZM202.43,200.79a21.56,21.56,0,0,0-.29-3.87l31.51-12.75,4,99.82a38.27,38.27,0,0,0-8.09,2.2L196.1,215.66A20.67,20.67,0,0,0,202.43,200.79Zm60.55,90a34.37,34.37,0,0,0-18.82-7.17l-4-102.08L317,150.28l34.88,42.51Zm58.86-142.45,87.63-35.53a37.34,37.34,0,0,0,5.35,10.83l-59.65,65.57Zm86.33-41.8-90.66,36.74L244.58,53.89a20.5,20.5,0,0,0,4.14-8.53L408.13,98.15c-0.06,1.36-.12,2.74-0.12,4.12S408.09,105.16,408.16,106.52ZM217.65,57.77a0.27,0.27,0,0,0,.19.06l-28.1,123.74a20.43,20.43,0,0,0-27.35,24.65l-110.92,45a13.62,13.62,0,0,0-1.78-1.36ZM57.51,269.56a23.06,23.06,0,0,0,.42-4,18.39,18.39,0,0,0-2.41-9.12L164.92,212A20.87,20.87,0,0,0,182,221.43a21.42,21.42,0,0,0,10.12-2.78l33,69.73a34.84,34.84,0,0,0-14.62,17.67Zm215.36,33.81a44.35,44.35,0,0,0-6.33-9.18l88.51-97.5,33.68,41.11a19.11,19.11,0,0,0-2.17,8.57,19.5,19.5,0,0,0,2.28,9.24Zm138.4-74.19a16.94,16.94,0,0,0-6.34-1.27,18.36,18.36,0,0,0-13.36,5.83L358.31,193,418,127.44a35.22,35.22,0,0,0,12.27,8.7Z"/></svg>