<svg xmlns="http://www.w3.org/2000/svg" viewBox="0 0 300 300"><defs><style>.cls-1,.cls-10,.cls-2,.cls-3,.cls-4,.cls-5,.cls-6{fill:#fff;}.cls-1,.cls-2,.cls-3,.cls-5,.cls-6{stroke:#fff;}.cls-1,.cls-10,.cls-12,.cls-2,.cls-3,.cls-5,.cls-6,.cls-7,.cls-8,.cls-9{stroke-miterlimit:10;}.cls-1{stroke-width:7px;}.cls-2{stroke-width:2.34px;}.cls-10,.cls-3,.cls-9{stroke-width:2.67px;}.cls-5{stroke-width:0.27px;}.cls-12,.cls-6{stroke-width:6.93px;}.cls-7,.cls-9{fill:#f48414;}.cls-10,.cls-12,.cls-7,.cls-8,.cls-9{stroke:#1d1d1b;}.cls-7{stroke-width:2.32px;}.cls-12,.cls-8{fill:none;}.cls-8{stroke-width:1.33px;}.cls-11{fill:#1d1d1b;}</style></defs><title>LTN</title><g id="shadow"><path class="cls-1" d="M192.2,153V132.38c0-.22,0-.45,0-.67a9.59,9.59,0,0,0-17.46-5.51l-2.19-29.81a6,6,0,0,0-6-6h-4.05c0-.07,0-.13,0-.2V54.75c0-3.31-3.65-6.44-7.5-6.44h-2.6a7.51,7.51,0,0,0-7.5,7.5V90.43h-5.08a5.94,5.94,0,0,0-6,5.87l-.78,10.92c-3.44-6.08-9-10-15.36-10h-2.34a4.34,4.34,0,0,0-4.33,4.34v40.94a4.34,4.34,0,0,0,4.33,4.34h2.62a24.28,24.28,0,0,0,9.43,39.41L123.8,238v.09a6,6,0,0,0,6,6H177a6,6,0,0,0,6-6.05l-5.6-76.28a9.62,9.62,0,0,0,14.8-7l0-.3v0c0-.23,0-.45,0-.68S192.21,153.21,192.2,153Z"/></g><g id="icons"><path class="cls-2" d="M124.42,238.09l10.13-141.7a4.79,4.79,0,0,1,4.79-4.79h26.72a4.78,4.78,0,0,1,4.79,4.79l10.4,141.7a4.79,4.79,0,0,1-4.79,4.79H129.21A4.79,4.79,0,0,1,124.42,238.09Z"/><path class="cls-3" d="M111.91,142.54V101.6a3,3,0,0,1,3-3h2.34c9.94,0,17.72,10.31,17.72,23.47s-7.78,23.47-17.72,23.47H114.9A3,3,0,0,1,111.91,142.54Z"/><circle class="cls-4" cx="135.28" cy="163.44" r="24.31"/><path class="cls-5" d="M182.07,163.13a9.43,9.43,0,0,1-7.51-3.69h-1.94l0-5.33v-22.4a9.47,9.47,0,1,1,18.94,0c0,.22,0,.44,0,.67V153c0,.23,0,.45,0,.67s0,.45,0,.67v.06l0,.29A9.44,9.44,0,0,1,182.07,163.13Z"/><rect class="cls-5" x="175.3" y="138.55" width="8.28" height="8.28"/><rect class="cls-5" x="121.89" y="117.93" width="8.28" height="8.28"/><path class="cls-6" d="M154.52,95.33h-2.6a4,4,0,0,1-4-4V55.81a4,4,0,0,1,4-4h2.6c2.23,0,4,1.8,4,3V90.23C158.55,93.53,156.75,95.33,154.52,95.33Z"/><path class="cls-7" d="M139.93,96.93,130.06,236.7h46.17L166.1,96.93Zm29.64,132.76H136.73L146.6,103.6h12.83Z"/><line class="cls-8" x1="145.67" y1="115.45" x2="162.48" y2="137.11"/><line class="cls-8" x1="143.13" y1="153.78" x2="165.81" y2="183.01"/><line class="cls-8" x1="139.73" y1="191.37" x2="169.43" y2="229.64"/><line class="cls-8" x1="160.4" y1="115.64" x2="144.02" y2="136.58"/><line class="cls-8" x1="163.48" y1="153.96" x2="140.86" y2="185.35"/><line class="cls-8" x1="166.5" y1="191.51" x2="136.73" y2="230.52"/><path class="cls-9" d="M129.94,122.07c0,10-5.55,18.14-12.39,18.14V103.93C124.39,103.93,129.94,112.05,129.94,122.07Z"/><circle class="cls-10" cx="135.6" cy="163.44" r="18.98"/><path class="cls-11" d="M186.49,153.22V132.15a3.25,3.25,0,0,0,0-.44,4.14,4.14,0,1,0-8.28,0v22.4h0a4.13,4.13,0,0,0,8.22,0h0a3.4,3.4,0,0,0,0-.45A3.15,3.15,0,0,0,186.49,153.22Z"/><rect class="cls-11" x="170.01" y="138.55" width="8.28" height="8.28"/><rect class="cls-11" x="129.94" y="117.93" width="8.28" height="8.28"/><line class="cls-12" x1="153.27" y1="96.93" x2="153.27" y2="53.38"/><path class="cls-4" d="M83.06,164.22A45.89,45.89,0,0,1,93.94,134.5l-1.4-1.28L91.18,132a49.85,49.85,0,0,0,25.87,80.62l.39-1.82.39-1.83A46.22,46.22,0,0,1,83.06,164.22Z"/><path class="cls-4" d="M96.39,164.22a32.69,32.69,0,0,1,7.39-20.72l-1.39-1.27L101,141a36.52,36.52,0,0,0,18.8,58.55l.38-1.82.39-1.83A32.86,32.86,0,0,1,96.39,164.22Z"/><path class="cls-4" d="M183.13,56.74a38.73,38.73,0,0,0-11.52-1.4l.16,1.85.17,1.87A35.5,35.5,0,0,1,206.89,104a35.13,35.13,0,0,1-6.43,12.63l1.44,1.21,1.42,1.19h0a39.21,39.21,0,0,0-20.2-62.26Z"/><path class="cls-4" d="M180.3,67a28.62,28.62,0,0,0-7.72-1l.16,1.86.17,1.87a24.79,24.79,0,0,1,19.37,40l1.44,1.21,1.43,1.2A28.54,28.54,0,0,0,180.3,67Z"/><path class="cls-4" d="M177.1,78.59a16.39,16.39,0,0,0-3.43-.57l.17,1.88.17,1.89a12.94,12.94,0,0,1,2.1.4,12.8,12.8,0,0,1,7,19.83l1.43,1.21,1.43,1.2a16.53,16.53,0,0,0-8.84-25.84Z"/></g></svg>