<svg id="icons" xmlns="http://www.w3.org/2000/svg" viewBox="0 0 150 150"><defs><style>.cls-1{font-size:17px;font-family:Lato-Regular, Lato;}.cls-2{letter-spacing:-0.02em;}.cls-3{letter-spacing:-0.01em;}.cls-4{letter-spacing:0em;}.cls-5{letter-spacing:-0.01em;}.cls-6{letter-spacing:0em;}.cls-7{letter-spacing:-0.01em;}.cls-8{letter-spacing:-0.02em;}.cls-9{fill:#fff;}.cls-10{fill:#0083ad;}</style></defs><text class="cls-1" transform="translate(13.5 111.42)">Lina<tspan class="cls-2" x="30.74" y="0">r</tspan><tspan x="36.58" y="0">o</tspan><tspan class="cls-3" x="46.22" y="0"> </tspan><tspan class="cls-4" x="50.35" y="0">W</tspan><tspan x="67.89" y="0">ind</tspan><tspan class="cls-5" x="90.98" y="0">o</tspan><tspan class="cls-6" x="100.49" y="0">w</tspan><tspan x="113.77" y="0">s</tspan><tspan class="cls-7" x="37.18" y="20.4">G</tspan><tspan class="cls-8" x="49.47" y="20.4">r</tspan><tspan x="55.3" y="20.4">oup</tspan></text><path class="cls-9" d="M111.33,79.76H36.8a5.15,5.15,0,0,1-5-4.86L31.71,74h84.71l-.06.86a5.33,5.33,0,0,1-1.45,3.3A4.87,4.87,0,0,1,111.33,79.76Z"/><path class="cls-9" d="M33.51,75.63a3.51,3.51,0,0,0,3.29,2.54h74.53a3.27,3.27,0,0,0,2.42-1.06,3.7,3.7,0,0,0,.87-1.48Z"/><rect class="cls-9" x="41.88" y="27.16" width="64.37" height="44.55" rx="3.64"/><path class="cls-9" d="M74.07,27.74a1.13,1.13,0,1,1-1.13,1.13A1.13,1.13,0,0,1,74.07,27.74Z"/><rect class="cls-9" x="45.29" y="30.5" width="57.55" height="38.19"/><path class="cls-10" d="M111.33,79.76H36.8a5.15,5.15,0,0,1-5-4.87L31.71,74h84.71l-.06.85a5.34,5.34,0,0,1-1.45,3.31A4.87,4.87,0,0,1,111.33,79.76ZM33.51,75.63a3.51,3.51,0,0,0,3.29,2.54h74.53a3.27,3.27,0,0,0,2.42-1.06,3.7,3.7,0,0,0,.87-1.48Z"/><path class="cls-10" d="M79.83,75.55a1.79,1.79,0,0,1-.17.74.5.5,0,0,1-.42.34H68.89c-.32,0-.57-.48-.59-1.08Z"/><path class="cls-10" d="M79.24,76.78H68.88c-.4,0-.71-.51-.74-1.23v-.16H80v.16a2.19,2.19,0,0,1-.19.81A.66.66,0,0,1,79.24,76.78ZM68.46,75.7c.05.47.25.78.42.78H79.24c.1,0,.2-.1.29-.26a1.52,1.52,0,0,0,.14-.52Z"/><path class="cls-10" d="M102.61,27.16H45.52a3.64,3.64,0,0,0-3.64,3.64V68.08a3.65,3.65,0,0,0,3.64,3.64h57.09a3.65,3.65,0,0,0,3.64-3.64V30.8A3.64,3.64,0,0,0,102.61,27.16Zm-28.54.58a1.13,1.13,0,1,1-1.13,1.13A1.13,1.13,0,0,1,74.07,27.74Zm28.77,41H45.29V30.5h57.55Z"/></svg>