<svg id="icons" xmlns="http://www.w3.org/2000/svg" viewBox="0 0 150 100.22"><defs><style>.cls-1{fill:#fff;}.cls-2{fill:#0083ad;}</style></defs><path class="cls-1" d="M111.33,75.33H36.8a5.14,5.14,0,0,1-5-4.86l-.06-.85h84.71l-.06.85a5.36,5.36,0,0,1-1.45,3.31A4.9,4.9,0,0,1,111.33,75.33Z"/><path class="cls-1" d="M33.51,71.21a3.51,3.51,0,0,0,3.29,2.53h74.53a3.27,3.27,0,0,0,2.42-1.06,3.66,3.66,0,0,0,.87-1.47Z"/><rect class="cls-1" x="41.88" y="22.73" width="64.37" height="44.55" rx="3.64"/><path class="cls-1" d="M74.07,23.32a1.13,1.13,0,1,1-1.13,1.13A1.12,1.12,0,0,1,74.07,23.32Z"/><rect class="cls-1" x="45.29" y="26.07" width="57.55" height="38.19"/><path class="cls-2" d="M111.33,75.33H36.8a5.14,5.14,0,0,1-5-4.86l-.06-.85h84.71l-.06.85a5.36,5.36,0,0,1-1.45,3.31A4.9,4.9,0,0,1,111.33,75.33ZM33.51,71.21a3.51,3.51,0,0,0,3.29,2.53h74.53a3.27,3.27,0,0,0,2.42-1.06,3.66,3.66,0,0,0,.87-1.47Z"/><path class="cls-2" d="M79.83,71.12a1.76,1.76,0,0,1-.17.74.5.5,0,0,1-.42.34H68.89c-.32,0-.57-.48-.59-1.08Z"/><path class="cls-2" d="M79.24,72.36H68.88c-.4,0-.71-.52-.74-1.24V71H80v.15a2.19,2.19,0,0,1-.19.81A.68.68,0,0,1,79.24,72.36ZM68.46,71.27c.05.47.25.78.42.78H79.24c.1,0,.2-.09.29-.26a1.52,1.52,0,0,0,.14-.52Z"/><path class="cls-2" d="M102.61,22.73H45.52a3.64,3.64,0,0,0-3.64,3.64V63.65a3.64,3.64,0,0,0,3.64,3.64h57.09a3.64,3.64,0,0,0,3.64-3.64V26.37A3.64,3.64,0,0,0,102.61,22.73Zm-28.54.59a1.13,1.13,0,1,1-1.13,1.13A1.12,1.12,0,0,1,74.07,23.32Zm28.77,40.94H45.29V26.07h57.55Z"/></svg>