<svg xmlns="http://www.w3.org/2000/svg" viewBox="0 0 100 100"><defs><style>.cls-1,.cls-3{fill:#0083ad;}.cls-2,.cls-6{fill:#fff;}.cls-3,.cls-4,.cls-5,.cls-6{stroke:#1d1d1b;stroke-miterlimit:10;}.cls-3,.cls-4,.cls-6{stroke-width:1.28px;}.cls-4,.cls-5{fill:none;}.cls-5{stroke-width:0.64px;}</style></defs><title>Machine col</title><g id="icons"><path class="cls-1" d="M76.48,46.44c1.67,3.05,3.3,6,4.89,9a14.8,14.8,0,0,1,1.1,2.52c.41,1.39-.07,2.14-1.47,2.49-.85.22-1.72.41-2.84.67a26.82,26.82,0,0,0,.64,2.84c.55,1.66.39,2.35-1,3.33,1.09,1.3,1.13,1.9,0,3.19a2.89,2.89,0,0,0-.61,3.09c1.57,5-1.19,8.52-6.45,7.91-4-.46-7.92-1.35-11.87-2.1-.3-.06-.61-.49-.79-.82-2.5-4.73-5-9.46-7.45-14.21A1.89,1.89,0,0,0,49,63.13c-7-.69-14-1.46-20.95-2.16a6.53,6.53,0,0,1-5.26-2.88c-5.7-9-7.32-18.56-2.79-28.5,4.08-8.95,11.33-14.14,20.88-16.07a31.61,31.61,0,0,1,18.3,1.33c6.73,2.69,11.51,7.54,15.05,13.72a40.58,40.58,0,0,1,4.15,10.3C79.09,41.71,78.84,44.29,76.48,46.44Z"/><path class="cls-2" d="M62.29,17.21A11.07,11.07,0,0,1,67.85,28L65.77,47a4.77,4.77,0,0,1-5.25,4.22l-1.43,13a4.76,4.76,0,0,1,4.22,5.25L62.09,80.8c2.86.57,5.72,1.13,8.61,1.46,5.26.61,8-2.87,6.44-7.91a2.91,2.91,0,0,1,.62-3.09c1.12-1.28,1.09-1.89,0-3.19,1.34-1,1.49-1.67.95-3.33-.3-.9-.43-1.86-.65-2.84,1.13-.26,2-.45,2.85-.67,1.39-.35,1.88-1.1,1.46-2.49a14,14,0,0,0-1.09-2.52c-1.6-3-3.23-5.92-4.9-9,2.37-2.15,2.62-4.73,1.91-7.57a40.25,40.25,0,0,0-4.16-10.3A31.08,31.08,0,0,0,62.29,17.21Z"/><path class="cls-2" d="M30.08,61,27.19,87l20.33,2.26,2.9-26ZM45.71,86.7,29.52,84.9l.65-5.81,16.18,1.8Zm.87-7.89L30.4,77l.65-5.81L47.23,73Zm.88-7.88L31.28,69.12l.64-5.81,16.19,1.81Z"/><rect class="cls-3" x="29.79" y="80.02" width="16.29" height="5.85" transform="translate(9.42 -3.69) rotate(6.36)"/><rect class="cls-3" x="30.67" y="72.13" width="16.29" height="5.85" transform="translate(8.55 -3.84) rotate(6.36)"/><path class="cls-2" d="M84.47,57.4a16.54,16.54,0,0,0-1.26-2.91c-1.16-2.16-2.31-4.27-3.54-6.49L79,46.83c1.77-2.26,2.22-5,1.38-8.4A42.85,42.85,0,0,0,76,27.6C71.94,20.45,66.68,15.67,60,13a31.75,31.75,0,0,0-11.81-2.23,39,39,0,0,0-7.68.8,32.4,32.4,0,0,0-13.34,5.78,29.33,29.33,0,0,0-9,11.46C13.56,38.75,14.55,49,21,59.27a8.58,8.58,0,0,0,6.83,3.85l9.92,1c3.61.38,7.34.77,11,1.14l0,.06c2.55,4.93,5.09,9.76,7.47,14.24a3.4,3.4,0,0,0,2.24,1.89l2.86.56c3,.59,6.06,1.21,9.16,1.57a13.6,13.6,0,0,0,1.4.08,7.69,7.69,0,0,0,6.43-2.92c1.48-2,1.78-4.77.85-7.77-.18-.58-.12-.73.2-1.1a4.48,4.48,0,0,0,1.34-3,3.36,3.36,0,0,0-.26-1.28,3.87,3.87,0,0,0,.54-1.16,5.43,5.43,0,0,0-.26-3.12c-.07-.2-.12-.4-.18-.62l.9-.21a4.13,4.13,0,0,0,2.73-1.88A4,4,0,0,0,84.47,57.4ZM81,60.49c-.85.22-1.72.4-2.84.67A27.39,27.39,0,0,0,78.8,64c.55,1.66.39,2.35-1,3.33,1.09,1.3,1.13,1.9,0,3.19a2.89,2.89,0,0,0-.61,3.09c1.57,5-1.19,8.52-6.45,7.91-4-.46-7.92-1.35-11.87-2.1-.3-.06-.61-.49-.79-.82-2.5-4.73-5-9.46-7.45-14.21A1.89,1.89,0,0,0,49,63.2c-7-.69-14-1.46-20.95-2.16a6.53,6.53,0,0,1-5.26-2.88c-5.7-9-7.32-18.56-2.79-28.5,4.08-8.95,11.33-14.14,20.88-16.07a31.61,31.61,0,0,1,18.3,1.33c6.73,2.69,11.51,7.54,15.05,13.72a40.58,40.58,0,0,1,4.15,10.3c.71,2.84.46,5.42-1.9,7.57,1.67,3.05,3.3,6,4.89,9A14.8,14.8,0,0,1,82.47,58C82.88,59.39,82.4,60.14,81,60.49Z"/><path class="cls-4" d="M76.48,46.56c1.67,3,3.3,6,4.89,9a14.14,14.14,0,0,1,1.1,2.52c.41,1.38-.07,2.14-1.47,2.49-.85.21-1.72.4-2.84.66a27.59,27.59,0,0,0,.64,2.85c.55,1.66.39,2.35-1,3.33,1.09,1.29,1.13,1.9,0,3.19a2.88,2.88,0,0,0-.61,3.08c1.57,5-1.19,8.53-6.45,7.92-4-.46-7.92-1.35-11.87-2.1-.3-.06-.61-.49-.79-.82-2.5-4.73-5-9.46-7.45-14.22A1.86,1.86,0,0,0,49,63.25c-7-.69-14-1.46-20.95-2.16a6.51,6.51,0,0,1-5.26-2.89c-5.7-9-7.32-18.56-2.79-28.5,4.08-8.94,11.33-14.14,20.88-16.06A31.53,31.53,0,0,1,59.18,15c6.73,2.69,11.51,7.54,15.05,13.71A40.73,40.73,0,0,1,78.38,39C79.09,41.82,78.84,44.4,76.48,46.56Z"/><rect class="cls-3" x="31.55" y="64.25" width="16.29" height="5.85" transform="translate(7.68 -3.98) rotate(6.36)"/><path class="cls-5" d="M62.17,80.18l1.24-11.33a4.78,4.78,0,0,0-4.22-5.26l1.42-13a4.75,4.75,0,0,0,5.25-4.22l2.08-19a11.06,11.06,0,0,0-5.8-11"/><rect class="cls-6" x="37.43" y="29.74" width="11.98" height="11.98" transform="translate(4.12 -4.48) rotate(6.2)"/><line class="cls-5" x1="33.62" y1="30.06" x2="37.4" y2="30.47"/><polyline class="cls-5" points="36.81 36.41 32.1 35.9 28.86 37.44 25.39 37.06"/><circle class="cls-5" cx="32.51" cy="29.94" r="1.12"/><line class="cls-5" x1="28.42" y1="32.51" x2="37.07" y2="33.45"/><circle class="cls-5" cx="27.31" cy="32.39" r="1.12"/><circle class="cls-5" cx="24.36" cy="36.95" r="1.12"/><polyline class="cls-5" points="36.46 39.55 31.75 39.04 28.52 40.58 25.05 40.2"/><circle class="cls-5" cx="24.02" cy="40.09" r="1.12"/><line class="cls-5" x1="52.86" y1="41.29" x2="49.13" y2="40.89"/><polyline class="cls-5" points="49.71 35.01 54.37 35.52 57.57 34 60.99 34.37"/><circle class="cls-5" cx="53.96" cy="41.41" r="1.1"/><line class="cls-5" x1="58" y1="38.87" x2="49.45" y2="37.94"/><circle class="cls-5" cx="59.09" cy="38.99" r="1.1"/><circle class="cls-5" cx="62.01" cy="34.48" r="1.1"/><polyline class="cls-5" points="50.05 31.91 54.7 32.41 57.91 30.89 61.33 31.26"/><circle class="cls-5" cx="62.35" cy="31.37" r="1.1"/><line class="cls-5" x1="39.85" y1="25.26" x2="39.44" y2="29.04"/><line class="cls-5" x1="38.17" y1="41.63" x2="35.92" y2="61.71"/><line class="cls-5" x1="41.2" y1="41.96" x2="38.95" y2="62.04"/><line class="cls-5" x1="44.21" y1="42.29" x2="41.96" y2="62.37"/><line class="cls-5" x1="47.41" y1="42.63" x2="45.16" y2="62.71"/><polyline class="cls-5" points="45.6 29.54 46.11 24.82 48.34 22 48.72 18.53"/><ellipse class="cls-5" cx="39.97" cy="24.16" rx="1.12" ry="1.14" transform="translate(11.63 61.28) rotate(-83.8)"/><line class="cls-5" x1="43.41" y1="20.72" x2="42.47" y2="29.37"/><ellipse class="cls-5" cx="43.53" cy="19.61" rx="1.12" ry="1.14" transform="translate(19.33 60.76) rotate(-83.8)"/><ellipse class="cls-5" cx="48.71" cy="17.72" rx="1.12" ry="1.14" transform="translate(25.83 64.22) rotate(-83.8)"/><polyline class="cls-5" points="48.8 29.88 49.31 25.17 51.54 22.34 51.92 18.88"/><ellipse class="cls-5" cx="51.91" cy="18.06" rx="1.12" ry="1.14" transform="translate(28.34 67.71) rotate(-83.8)"/></g></svg>