<?xml version="1.0" encoding="UTF-8"?>
<svg id="Layer_3" data-name="Layer 3" xmlns="http://www.w3.org/2000/svg" viewBox="0 0 688.94 111.81">
  <defs>
    <style>
      .cls-1 {
        fill: #fff;
        stroke-width: 0px;
      }
    </style>
  </defs>
  <path class="cls-1" d="m61.23,75.96c-1.8,4.3-3.5,7.6-7.1,7.6s-5.3-3.3-7.1-7.6L23.22,18.75c-.4-1.1-1.2-2.1-1.9-2.1-.5,0-1.4.3-1.4,1.9v64.2h-5.4V18.55c0-3.9,2.6-6.6,6.6-6.6s5.8,2.6,7.6,6.9l23.7,57c.4.9.7,2.2,1.7,2.2s1.3-1.3,1.7-2.2l23.7-57c1.8-4.3,3.6-6.9,7.6-6.9s6.6,2.7,6.6,6.6v64.2h-5.4V18.55c0-1.6-.9-1.9-1.4-1.9-.7,0-1.5,1-1.9,2.1l-23.8,57.2Z"/>
  <path class="cls-1" d="m134.02,29.75c8.8,0,12.7,4.9,12.7,13.3v32.7c0,4.7-1.3,7-7.7,7h-20.4c-10.5,0-14.3-5-14.3-16s3.9-15.7,14.3-15.7h22.9v-8.9c0-4-1.9-7.7-7.5-7.7h-25.7v-4.7h25.7Zm-16.8,26c-6.4,0-7.5,4.6-7.5,11s1.1,11.3,7.5,11.3h21.8c1.8,0,2.5-1.2,2.5-2.4v-19.9h-24.3Z"/>
  <path class="cls-1" d="m171.52,99.86h-5.6l8-17.4-22.4-52.7h5.6l19.6,46.5,20.8-46.5h5.6l-31.6,70.1Z"/>
  <path class="cls-1" d="m236.32,21.55c0-3-.4-4-2.4-4h-8.1v-4.8h9.4c4,0,6.5,1.7,6.5,6.7v63.3h-5.4V21.55Z"/>
  <path class="cls-1" d="m294.12,69.16h-36.7c-2.6,0-6.7-1.2-6.7-5.7,0-1.9,1.1-3.9,2.5-5.6l35.8-42.3c1.7-2,3.3-3.6,6.4-3.6,3.6,0,3.9,2.3,3.9,5.6v46.8h7.4v4.8h-7.4v13.6h-5.2v-13.6Zm0-51.1c0-.3-.1-.4-.4-.4-.2,0-.6.3-1.1,1l-35,41.7c-1,1.2-1.5,2-1.5,2.4,0,1.3,1.3,1.6,2.1,1.6h35.9V18.05Z"/>
  <path class="cls-1" d="m314.72,52.76h30v5h-30v-5Z"/>
  <path class="cls-1" d="m360.22,21.55c0-3-.4-4-2.4-4h-8.1v-4.8h9.4c4,0,6.5,1.7,6.5,6.7v63.3h-5.4V21.55Z"/>
  <path class="cls-1" d="m413.12,22.25c1.1-1.9,1.2-2.8,1.2-3.1,0-1.5-1-1.6-1.7-1.6h-41v-4.8h42c2.8,0,6.5.4,6.5,5.3,0,3.1-1.5,5.5-2,6.3l-35,58.4h-6.1l36.1-60.5Z"/>
  <path class="cls-1" d="m447.41,77.96c0-1.9.4-3.6,2.7-5.5l34.9-27.6c4-3.2,5.3-6.1,5.3-13.5s-.1-13.8-9.9-13.8h-27.8v-4.8h27.3c12,0,16,5.3,16,18.3,0,8.1-1.3,12.7-7.9,17.9l-33.8,26.8c-.9.7-1.3,1.1-1.3,1.4,0,.8.6.8,1,.8h38v4.8h-39.3c-5.1,0-5.2-3.3-5.2-4.8Z"/>
  <path class="cls-1" d="m505.91,35.55c0-18,10.5-23.4,25.5-23.4s25.5,5.4,25.5,23.4v24.1c0,18-10.5,23.4-25.5,23.4s-25.5-5.4-25.5-23.4v-24.1Zm5.4,23.5c0,15,7.1,19.2,20.1,19.2s20.1-4.2,20.1-19.2v-23c0-15-7.1-19.1-20.1-19.1s-20.1,4.1-20.1,19.1v23Z"/>
  <path class="cls-1" d="m564.91,77.96c0-1.9.4-3.6,2.7-5.5l34.9-27.6c4-3.2,5.3-6.1,5.3-13.5s-.1-13.8-9.9-13.8h-27.8v-4.8h27.3c12,0,16,5.3,16,18.3,0,8.1-1.3,12.7-7.9,17.9l-33.8,26.8c-.9.7-1.3,1.1-1.3,1.4,0,.8.6.8,1,.8h38v4.8h-39.3c-5.1,0-5.2-3.3-5.2-4.8Z"/>
  <path class="cls-1" d="m661.82,69.16h-36.7c-2.6,0-6.7-1.2-6.7-5.7,0-1.9,1.1-3.9,2.5-5.6l35.8-42.3c1.7-2,3.3-3.6,6.4-3.6,3.6,0,3.9,2.3,3.9,5.6v46.8h7.4v4.8h-7.4v13.6h-5.2v-13.6Zm0-51.1c0-.3-.1-.4-.4-.4-.2,0-.6.3-1.1,1l-35,41.7c-1,1.2-1.5,2-1.5,2.4,0,1.3,1.3,1.6,2.1,1.6h35.9V18.05Z"/>
</svg>