<svg xmlns="http://www.w3.org/2000/svg" viewBox="0 0 300 300"><defs><style>.cls-1,.cls-3,.cls-5,.cls-8{fill:#fff;}.cls-1,.cls-5{stroke:#fff;}.cls-1,.cls-4,.cls-5,.cls-6,.cls-7,.cls-8{stroke-miterlimit:10;}.cls-1{stroke-width:15px;}.cls-2,.cls-4{fill:#0083ad;}.cls-4,.cls-6,.cls-7,.cls-8{stroke:#1d1d1b;}.cls-4,.cls-6,.cls-8{stroke-width:2.84px;}.cls-5{stroke-width:2.78px;}.cls-6,.cls-7{fill:none;}.cls-7{stroke-width:1.42px;}</style></defs><title>MI</title><g id="shadow"><path class="cls-1" d="M222.05,168.14a30.76,30.76,0,0,0-2.42-5.59c-3.54-6.59-7.17-13.14-10.87-19.91,5.25-4.78,5.8-10.5,4.23-16.8A89.89,89.89,0,0,0,203.77,103c-7.86-13.71-18.47-24.48-33.39-30.44-13.21-5.28-26.88-5.71-40.61-3-21.2,4.27-37.29,15.8-46.34,35.65C73.38,127.3,77,148.46,89.61,168.49c2.65,4.2,6.83,5.92,11.69,6.4l9.08.93-5.82,52.26,35.91,4,5.86-52.56,1.46.15a4.17,4.17,0,0,1,3.72,2.63q8.18,15.83,16.54,31.54c.39.74,1.07,1.7,1.76,1.83,8.76,1.66,17.5,3.64,26.34,4.66,11.67,1.35,17.78-6.38,14.29-17.56a6.44,6.44,0,0,1,1.38-6.86c2.49-2.85,2.41-4.2,0-7.08,3-2.17,3.31-3.7,2.1-7.38-.66-2-.95-4.14-1.43-6.31,2.5-.59,4.41-1,6.31-1.48C221.9,172.89,223,171.21,222.05,168.14Z"/></g><g id="icons"><path class="cls-2" d="M208.75,142.1c3.71,6.77,7.33,13.32,10.87,19.91a30.12,30.12,0,0,1,2.43,5.59c.92,3.07-.16,4.75-3.25,5.53-1.9.47-3.81.89-6.32,1.48.48,2.17.78,4.3,1.44,6.31,1.21,3.68.86,5.21-2.11,7.38,2.42,2.88,2.49,4.23,0,7.08a6.46,6.46,0,0,0-1.37,6.86c3.49,11.18-2.62,18.91-14.3,17.56-8.84-1-17.57-3-26.33-4.66-.69-.13-1.38-1.09-1.77-1.83-5.55-10.49-11.09-21-16.53-31.54a4.19,4.19,0,0,0-3.72-2.63c-15.5-1.53-31-3.24-46.49-4.79-4.87-.48-9-2.2-11.69-6.4-12.63-20-16.23-41.19-6.18-63.25,9-19.85,25.13-31.38,46.33-35.65,13.74-2.76,27.41-2.33,40.62,3,14.92,6,25.53,16.73,33.38,30.44A89.17,89.17,0,0,1,213,125.3C214.56,131.6,214,137.32,208.75,142.1Z"/><path class="cls-3" d="M177.26,75.69a24.51,24.51,0,0,1,12.34,24L185,141.86a10.59,10.59,0,0,1-11.66,9.37l-3.16,28.94a10.57,10.57,0,0,1,9.36,11.66l-2.71,25c6.34,1.27,12.69,2.51,19.1,3.25,11.68,1.35,17.79-6.38,14.3-17.57a6.44,6.44,0,0,1,1.37-6.85c2.49-2.85,2.42-4.2,0-7.08,3-2.17,3.32-3.7,2.11-7.38-.66-2-1-4.15-1.44-6.31,2.51-.59,4.42-1,6.32-1.49,3.09-.77,4.17-2.45,3.25-5.53a30.32,30.32,0,0,0-2.43-5.58c-3.54-6.6-7.16-13.14-10.86-19.91,5.24-4.78,5.8-10.5,4.22-16.8a89,89,0,0,0-9.22-22.86C197,91.26,188.55,82,177.26,75.69Z"/><path class="cls-3" d="M105.8,174.43l-6.43,57.65,45.13,5,6.43-57.65Zm34.67,57-35.92-4L106,214.55l35.92,4Zm1.95-17.5-35.92-4,1.44-12.89,35.92,4Zm2-17.5-35.92-4,1.44-12.89,35.92,4Z"/><rect class="cls-4" x="105.16" y="216.61" width="36.14" height="12.97" transform="translate(25.47 -12.28) rotate(6.36)"/><rect class="cls-4" x="107.11" y="199.11" width="36.14" height="12.97" transform="translate(23.54 -12.6) rotate(6.36)"/><path class="cls-5" d="M226.49,166.42A35.93,35.93,0,0,0,223.7,160c-2.57-4.8-5.14-9.47-7.85-14.42-.48-.86-.95-1.73-1.43-2.6,3.93-5,4.93-11.13,3.06-18.62a94.55,94.55,0,0,0-9.7-24C198.69,84.43,187,73.82,172.1,67.85a70.29,70.29,0,0,0-26.22-5,86.92,86.92,0,0,0-17,1.77A72.21,72.21,0,0,0,99.24,77.49a65.24,65.24,0,0,0-20,25.44c-10.07,22.1-7.89,44.86,6.48,67.64,3.14,5,8.23,7.85,15.15,8.55,7.34.73,14.8,1.51,22,2.27,8,.84,16.3,1.71,24.46,2.51l.08.15C153,195,158.69,205.69,164,215.64c.87,1.65,2.45,3.72,5,4.2,2.1.4,4.25.83,6.33,1.24,6.62,1.32,13.46,2.68,20.34,3.48a27.51,27.51,0,0,0,3.1.18c6.13,0,11.2-2.3,14.28-6.48,3.28-4.47,3.95-10.59,1.87-17.25-.4-1.28-.26-1.62.44-2.42,1.49-1.71,3-3.83,3-6.62a7.79,7.79,0,0,0-.59-2.85,8.51,8.51,0,0,0,1.2-2.56,11.94,11.94,0,0,0-.58-6.94c-.14-.43-.27-.89-.38-1.36l2-.49a9.1,9.1,0,0,0,6.06-4.16A9,9,0,0,0,226.49,166.42Zm-7.69,6.86c-1.9.48-3.81.9-6.32,1.48.48,2.17.78,4.3,1.44,6.31,1.21,3.69.86,5.22-2.11,7.39,2.42,2.88,2.49,4.22,0,7.08a6.44,6.44,0,0,0-1.37,6.85c3.49,11.18-2.62,18.91-14.3,17.56-8.84-1-17.57-3-26.33-4.66-.69-.13-1.38-1.09-1.77-1.82-5.55-10.49-11.09-21-16.53-31.55a4.21,4.21,0,0,0-3.72-2.63c-15.5-1.53-31-3.23-46.49-4.78-4.87-.49-9-2.2-11.69-6.41-12.63-20-16.23-41.19-6.18-63.25,9-19.85,25.13-31.38,46.33-35.64,13.74-2.77,27.41-2.34,40.62,2.94,14.92,6,25.53,16.73,33.38,30.44A89.31,89.31,0,0,1,213,125.45c1.58,6.3,1,12-4.23,16.8,3.71,6.77,7.33,13.32,10.87,19.91a30.71,30.71,0,0,1,2.43,5.59C223,170.83,221.89,172.5,218.8,173.28Z"/><path class="cls-6" d="M208.75,142.36c3.71,6.77,7.33,13.31,10.87,19.91a30.32,30.32,0,0,1,2.43,5.58c.92,3.08-.16,4.76-3.25,5.53-1.9.48-3.81.9-6.32,1.49.48,2.16.78,4.29,1.44,6.31,1.21,3.68.86,5.21-2.11,7.38,2.42,2.88,2.49,4.23,0,7.08a6.44,6.44,0,0,0-1.37,6.85c3.49,11.19-2.62,18.92-14.3,17.57-8.84-1-17.57-3-26.33-4.67-.69-.13-1.38-1.09-1.77-1.82-5.55-10.49-11.09-21-16.53-31.54a4.19,4.19,0,0,0-3.72-2.63c-15.5-1.54-31-3.24-46.49-4.79-4.87-.49-9-2.2-11.69-6.4C77,148.18,73.38,127,83.43,105c9-19.84,25.13-31.37,46.33-35.64,13.74-2.77,27.41-2.33,40.62,3,14.92,6,25.53,16.72,33.38,30.44A89,89,0,0,1,213,125.56C214.56,131.86,214,137.58,208.75,142.36Z"/><rect class="cls-4" x="109.06" y="181.61" width="36.14" height="12.97" transform="translate(21.61 -12.92) rotate(6.36)"/><path class="cls-7" d="M177,217l2.75-25.15a10.57,10.57,0,0,0-9.36-11.66l3.16-28.94a10.59,10.59,0,0,0,11.66-9.37l4.6-42.14A24.53,24.53,0,0,0,177,75.4"/><rect class="cls-8" x="122.1" y="105.04" width="26.59" height="26.59" transform="translate(13.58 -13.94) rotate(6.2)"/><line class="cls-7" x1="113.65" y1="105.75" x2="122.03" y2="106.66"/><polyline class="cls-7" points="120.72 119.84 110.27 118.71 103.08 122.12 95.39 121.29"/><circle class="cls-7" cx="111.19" cy="105.48" r="2.48"/><line class="cls-7" x1="102.12" y1="111.18" x2="121.31" y2="113.27"/><circle class="cls-7" cx="99.66" cy="110.91" r="2.48"/><circle class="cls-7" cx="93.1" cy="121.04" r="2.48"/><polyline class="cls-7" points="119.96 126.82 109.51 125.68 102.32 129.1 94.63 128.26"/><circle class="cls-7" cx="92.34" cy="128.01" r="2.48"/><line class="cls-7" x1="156.35" y1="130.67" x2="148.06" y2="129.77"/><polyline class="cls-7" points="149.36 116.74 159.69 117.86 166.79 114.49 174.39 115.31"/><circle class="cls-7" cx="158.78" cy="130.94" r="2.45"/><line class="cls-7" x1="167.74" y1="125.3" x2="148.77" y2="123.24"/><circle class="cls-7" cx="170.18" cy="125.57" r="2.45"/><circle class="cls-7" cx="176.65" cy="115.56" r="2.45"/><polyline class="cls-7" points="150.11 109.85 160.44 110.97 167.54 107.59 175.14 108.42"/><circle class="cls-7" cx="177.4" cy="108.67" r="2.45"/><line class="cls-7" x1="127.47" y1="95.11" x2="126.55" y2="103.49"/><line class="cls-7" x1="123.75" y1="131.42" x2="118.75" y2="175.98"/><line class="cls-7" x1="130.47" y1="132.15" x2="125.48" y2="176.72"/><line class="cls-7" x1="137.16" y1="132.88" x2="132.16" y2="177.44"/><line class="cls-7" x1="144.26" y1="133.65" x2="139.26" y2="178.21"/><polyline class="cls-7" points="140.23 104.58 141.37 94.13 146.32 87.85 147.16 80.17"/><ellipse class="cls-7" cx="127.73" cy="92.65" rx="2.48" ry="2.52" transform="translate(21.83 209.62) rotate(-83.8)"/><line class="cls-7" x1="135.37" y1="85.02" x2="133.28" y2="104.22"/><ellipse class="cls-7" cx="135.64" cy="82.56" rx="2.48" ry="2.52" transform="translate(38.9 208.48) rotate(-83.8)"/><ellipse class="cls-7" cx="147.13" cy="78.36" rx="2.48" ry="2.52" transform="translate(53.33 216.16) rotate(-83.8)"/><polyline class="cls-7" points="147.34 105.36 148.47 94.9 153.42 88.63 154.26 80.94"/><ellipse class="cls-7" cx="154.23" cy="79.13" rx="2.48" ry="2.52" transform="translate(58.9 223.9) rotate(-83.8)"/></g></svg>