<?xml version="1.0" encoding="UTF-8"?>
<svg id="Layer_1" data-name="Layer 1" xmlns="http://www.w3.org/2000/svg" viewBox="0 0 62.36 62.36">
  <defs>
    <style>
      .cls-1 {
        fill: #231f20;
        opacity: .9;
      }

      .cls-1, .cls-2 {
        stroke-width: 0px;
      }

      .cls-2 {
        fill: #fff;
      }
    </style>
  </defs>
  <circle class="cls-1" cx="31.18" cy="31.18" r="26.38"/>
  <path class="cls-2" d="M40.14,23.92c.12,0,.19,0,.27,0,1.36,0,2.72.03,4.08,0,1.74-.05,2.63,1.05,2.9,2.25.38,1.7.13,3.31-.8,4.78-.16.25-.22.42-.07.71.27.52.32,1.11.3,1.7-.04,1.34-.37,2.59-1.12,3.72-.19.29-.46.53-.69.79-.05.05-.11.13-.11.19.08,1.15-.21,2.22-.65,3.26-.23.54-.53,1.06-.96,1.47-.24.23-.53.4-.8.61-.06.05-.14.11-.16.18-.34,1.35-1.25,2.18-2.49,2.7-.7.29-1.44.45-2.2.45-1.63.02-3.25-.05-4.86-.36-1.12-.22-2.18-.62-3.16-1.19-1.86-1.08-3.88-1.59-5.99-1.84-.06,0-.16.05-.19.1-.53,1.04-1.38,1.55-2.55,1.54-1.66,0-3.32,0-4.99,0-1.63,0-2.76-1.13-2.76-2.75,0-5.18,0-10.36,0-15.54,0-1.62,1.13-2.75,2.74-2.75,1.68,0,3.35,0,5.03,0,1.08,0,1.89.45,2.43,1.38.09.16.18.09.28.05,2.28-.81,4.42-1.9,6.41-3.28,1.92-1.33,3.67-2.87,5.12-4.71.88-1.12,1.63-2.32,2.08-3.69.12-.37.21-.76.28-1.15.11-.63.46-.93,1.1-.88,2,.16,3.53,1.53,3.89,3.5.24,1.31.06,2.58-.29,3.84-.44,1.61-1.14,3.12-1.92,4.59-.05.1-.1.2-.18.34ZM23.68,41.55c.16.02.28.04.4.06,2.19.28,4.3.83,6.24,1.94.81.46,1.65.83,2.56,1.03,1.59.35,3.21.41,4.83.38.58-.01,1.15-.15,1.68-.41.79-.38,1.28-.97,1.29-1.89,0-.38.31-.75.68-.78.45-.04.72-.3.94-.64.54-.84.8-1.77.87-2.76.01-.15-.04-.25-.15-.35-.25-.24-.32-.54-.22-.87.09-.31.3-.55.62-.59.42-.05.65-.3.85-.61.38-.6.6-1.27.72-1.96.09-.53.13-1.05-.01-1.58-.06-.22-.15-.37-.43-.39-.42-.03-.73-.4-.74-.82-.02-.43.25-.83.66-.88.39-.05.59-.29.76-.59.37-.66.53-1.37.57-2.12.02-.5-.01-1-.22-1.47-.17-.38-.45-.58-.87-.57-.3,0-.6,0-.9,0-1.68,0-3.37,0-5.05,0-.26,0-.5-.04-.7-.22-.34-.3-.37-.74-.13-1.19.59-1.1,1.21-2.2,1.74-3.33.64-1.35,1.12-2.76,1.21-4.27.04-.64-.02-1.28-.29-1.87-.29-.63-.78-1.04-1.44-1.26-.02.05-.04.08-.04.12-.26,1-.68,1.93-1.19,2.82-1.2,2.06-2.79,3.77-4.59,5.31-2.79,2.37-5.92,4.16-9.4,5.34-.18.06-.24.14-.24.33,0,4.62,0,9.24,0,13.87,0,.08,0,.15,0,.24ZM21.93,34.44c0-2.59,0-5.17,0-7.76,0-.66-.35-1.01-1.01-1.01-1.66,0-3.32,0-4.99,0-.68,0-1.02.33-1.02,1.01,0,5.17,0,10.35,0,15.52,0,.67.33,1,1,1,1.66,0,3.32,0,4.99,0,.69,0,1.02-.34,1.02-1.03,0-2.58,0-5.16,0-7.74Z"/>
</svg>