<svg xmlns="http://www.w3.org/2000/svg" viewBox="0 0 222.07 183.3"><defs><style>.cls-1{fill:#0083ad;}.cls-2{font-size:17px;font-family:Lato;font-weight:800;}.cls-10,.cls-2{fill:#fff;}.cls-3{letter-spacing:-0.01em;}.cls-4{letter-spacing:-0.04em;}.cls-5{letter-spacing:-0.08em;}.cls-6{letter-spacing:-0.01em;}.cls-7{letter-spacing:0em;}.cls-8{letter-spacing:-0.01em;}.cls-9{letter-spacing:-0.01em;}.cls-11{fill:none;stroke:#fff;stroke-miterlimit:10;stroke-width:4px;}</style></defs><g id="map"><rect class="cls-1" width="222.07" height="183.3" rx="4.44"/><text class="cls-2" transform="translate(13.94 26.48)"><tspan class="cls-3">O</tspan><tspan x="13.72" y="0">ne</tspan><tspan class="cls-4" x="32.57" y="0"> </tspan><tspan class="cls-5" x="35.84" y="0">V</tspan><tspan class="cls-6" x="46.51" y="0">o</tspan><tspan class="cls-7" x="56.21" y="0">t</tspan><tspan x="62.65" y="0">e on the </tspan><tspan class="cls-8" x="128.54" y="0">B</tspan><tspan x="139.81" y="0">oa</tspan><tspan class="cls-9" x="158.48" y="0">r</tspan><tspan x="164.83" y="0">d</tspan></text><circle class="cls-10" cx="108.8" cy="78.97" r="15.33"/><path class="cls-10" d="M124.36,99.37h-4.89a23,23,0,0,1-21.35,0H93.23a7.47,7.47,0,0,0-7.47,7.47V138a7.52,7.52,0,0,0,.17,1.59h45.72a7.52,7.52,0,0,0,.17-1.59V106.84A7.46,7.46,0,0,0,124.36,99.37Z"/><circle class="cls-11" cx="108.79" cy="104.59" r="51.83"/></g></svg>