<svg xmlns="http://www.w3.org/2000/svg" viewBox="0 0 222.07 183.3"><defs><style>.cls-1{fill:#0083ad;}.cls-2{fill:#fff;}.cls-3{fill:none;stroke:#fff;stroke-miterlimit:10;stroke-width:4px;}</style></defs><g id="map"><rect class="cls-1" width="222.07" height="183.3" rx="4.44"/><path class="cls-2" d="M27.3,20.28a6.62,6.62,0,0,1-.47,2.5,6.06,6.06,0,0,1-1.3,2,5.94,5.94,0,0,1-2,1.34,7.3,7.3,0,0,1-5.26,0,5.89,5.89,0,0,1-2-1.34,6.08,6.08,0,0,1-1.31-2,7,7,0,0,1,0-5,5.92,5.92,0,0,1,3.35-3.35A7,7,0,0,1,20.87,14a6.77,6.77,0,0,1,2.63.49,5.9,5.9,0,0,1,3.33,3.34A6.61,6.61,0,0,1,27.3,20.28Zm-2.94,0a5.3,5.3,0,0,0-.24-1.65,3.47,3.47,0,0,0-.69-1.24,3,3,0,0,0-1.09-.79,4.16,4.16,0,0,0-2.95,0,3,3,0,0,0-1.1.79,3.31,3.31,0,0,0-.68,1.24,5.3,5.3,0,0,0-.24,1.65A5.39,5.39,0,0,0,17.61,22a3.31,3.31,0,0,0,.68,1.24,2.91,2.91,0,0,0,1.1.78,4.16,4.16,0,0,0,2.95,0,2.87,2.87,0,0,0,1.09-.78A3.47,3.47,0,0,0,24.12,22,5.39,5.39,0,0,0,24.36,20.28Z"/><path class="cls-2" d="M31,18.62a5.27,5.27,0,0,1,.52-.44,3.44,3.44,0,0,1,.58-.35,3.61,3.61,0,0,1,.68-.22,3.81,3.81,0,0,1,.78-.08,3,3,0,0,1,1.28.25,2.64,2.64,0,0,1,.94.7,3,3,0,0,1,.58,1.06,4.43,4.43,0,0,1,.19,1.34v5.6H33.91v-5.6a1.54,1.54,0,0,0-.3-1,1.07,1.07,0,0,0-.87-.36,1.92,1.92,0,0,0-.82.18,3.65,3.65,0,0,0-.73.5v6.29H28.55V17.67h1.64a.61.61,0,0,1,.64.44Z"/><path class="cls-2" d="M40.41,22.55a2.53,2.53,0,0,0,.67,1.6,2,2,0,0,0,1.41.49,2.36,2.36,0,0,0,.79-.11,4,4,0,0,0,.59-.24l.47-.25a1.07,1.07,0,0,1,.46-.11.53.53,0,0,1,.47.23l.77.94a3.64,3.64,0,0,1-.88.76,4.5,4.5,0,0,1-1,.46,5.06,5.06,0,0,1-1,.23,6.45,6.45,0,0,1-1,.07,4.76,4.76,0,0,1-1.74-.31,4,4,0,0,1-1.42-.89,4.12,4.12,0,0,1-1-1.48,5.46,5.46,0,0,1-.35-2.06,4.62,4.62,0,0,1,.3-1.67A4.09,4.09,0,0,1,39,18.82a4.13,4.13,0,0,1,1.36-.94,4.89,4.89,0,0,1,3.42-.08,3.51,3.51,0,0,1,1.25.79,3.71,3.71,0,0,1,.82,1.27,4.83,4.83,0,0,1,.29,1.71,3,3,0,0,1,0,.48.59.59,0,0,1-.09.3.43.43,0,0,1-.18.15.85.85,0,0,1-.3.05ZM43.73,21a2.57,2.57,0,0,0-.08-.62,1.66,1.66,0,0,0-.27-.53,1.42,1.42,0,0,0-.48-.38,1.74,1.74,0,0,0-.72-.14,1.55,1.55,0,0,0-1.17.43A2.17,2.17,0,0,0,40.45,21Z"/><path class="cls-2" d="M62.09,14.1l-5,12.38h-2.6l-5-12.38h2.31a.93.93,0,0,1,.6.17,1.19,1.19,0,0,1,.35.45l2.4,6.63c.11.29.22.6.33.94s.21.71.3,1.08q.12-.56.27-1.08c.1-.34.21-.65.32-.94l2.38-6.63a1,1,0,0,1,.34-.43.92.92,0,0,1,.6-.19Z"/><path class="cls-2" d="M65.41,17.53a5.09,5.09,0,0,1,1.83.32,3.71,3.71,0,0,1,1.41.9,4,4,0,0,1,.92,1.42,5.58,5.58,0,0,1,0,3.78,4,4,0,0,1-.92,1.44,4,4,0,0,1-1.41.91,5.09,5.09,0,0,1-1.83.32,5.15,5.15,0,0,1-1.84-.32,4.16,4.16,0,0,1-1.43-.91A3.91,3.91,0,0,1,61.22,24a5.58,5.58,0,0,1,0-3.78,3.93,3.93,0,0,1,2.35-2.32A5.15,5.15,0,0,1,65.41,17.53Zm0,7.13A1.49,1.49,0,0,0,66.75,24a3.61,3.61,0,0,0,.43-1.95,3.61,3.61,0,0,0-.43-1.95,1.51,1.51,0,0,0-1.34-.63,1.55,1.55,0,0,0-1.37.63,3.52,3.52,0,0,0-.43,1.95A3.52,3.52,0,0,0,64,24,1.54,1.54,0,0,0,65.41,24.66Z"/><path class="cls-2" d="M74.2,26.62a2.93,2.93,0,0,1-1.11-.19,2.24,2.24,0,0,1-.81-.51,2.35,2.35,0,0,1-.5-.82A3.19,3.19,0,0,1,71.62,24V19.49h-.75a.48.48,0,0,1-.35-.14.46.46,0,0,1-.15-.38v-1l1.41-.27.51-2.15a.53.53,0,0,1,.58-.41h1.38v2.57h2.18v1.81H74.25v4.37a.81.81,0,0,0,.15.51.51.51,0,0,0,.43.2.88.88,0,0,0,.24,0l.17-.07.14-.07a.33.33,0,0,1,.15,0,.31.31,0,0,1,.19.06,1.47,1.47,0,0,1,.15.17l.79,1.25a3.61,3.61,0,0,1-1.14.58A4.9,4.9,0,0,1,74.2,26.62Z"/><path class="cls-2" d="M79.66,22.55a2.43,2.43,0,0,0,.67,1.6,2,2,0,0,0,1.4.49,2.32,2.32,0,0,0,.79-.11,3.62,3.62,0,0,0,.59-.24l.48-.25a1,1,0,0,1,.45-.11.56.56,0,0,1,.48.23l.76.94a3.46,3.46,0,0,1-.88.76,4.1,4.1,0,0,1-1,.46,5.06,5.06,0,0,1-1,.23,6.35,6.35,0,0,1-1,.07,4.76,4.76,0,0,1-1.74-.31,4.11,4.11,0,0,1-1.42-.89,4.41,4.41,0,0,1-1-1.48A5.66,5.66,0,0,1,77,21.88a4.62,4.62,0,0,1,.3-1.67,4.09,4.09,0,0,1,.87-1.39,4.18,4.18,0,0,1,1.37-.94,4.53,4.53,0,0,1,1.81-.35A4.61,4.61,0,0,1,83,17.8a3.47,3.47,0,0,1,1.24.79A3.71,3.71,0,0,1,85,19.86a4.61,4.61,0,0,1,.29,1.71,3.25,3.25,0,0,1,0,.48.7.7,0,0,1-.1.3.34.34,0,0,1-.18.15.76.76,0,0,1-.29.05ZM83,21a2.57,2.57,0,0,0-.08-.62,1.46,1.46,0,0,0-.26-.53,1.65,1.65,0,0,0-.48-.38,1.76,1.76,0,0,0-.73-.14,1.55,1.55,0,0,0-1.17.43A2.24,2.24,0,0,0,79.69,21Z"/><path class="cls-2" d="M94.64,17.53a5.09,5.09,0,0,1,1.83.32,3.71,3.71,0,0,1,1.41.9,4,4,0,0,1,.92,1.42,5.58,5.58,0,0,1,0,3.78,4,4,0,0,1-.92,1.44,4,4,0,0,1-1.41.91,5.09,5.09,0,0,1-1.83.32,5.15,5.15,0,0,1-1.84-.32,4.16,4.16,0,0,1-1.43-.91A3.91,3.91,0,0,1,90.45,24a5.58,5.58,0,0,1,0-3.78,3.93,3.93,0,0,1,2.35-2.32A5.15,5.15,0,0,1,94.64,17.53Zm0,7.13A1.49,1.49,0,0,0,96,24a3.52,3.52,0,0,0,.43-1.95A3.52,3.52,0,0,0,96,20.12a1.51,1.51,0,0,0-1.34-.63,1.55,1.55,0,0,0-1.37.63,3.52,3.52,0,0,0-.43,1.95A3.52,3.52,0,0,0,93.27,24,1.54,1.54,0,0,0,94.64,24.66Z"/><path class="cls-2" d="M102.89,18.62a5.27,5.27,0,0,1,.52-.44,3.44,3.44,0,0,1,.58-.35,3.61,3.61,0,0,1,.68-.22,3.81,3.81,0,0,1,.78-.08,3,3,0,0,1,1.28.25,2.64,2.64,0,0,1,.94.7,3,3,0,0,1,.58,1.06,4.43,4.43,0,0,1,.2,1.34v5.6h-2.64v-5.6a1.54,1.54,0,0,0-.3-1,1.07,1.07,0,0,0-.87-.36,1.85,1.85,0,0,0-.81.18,3.44,3.44,0,0,0-.74.5v6.29h-2.64V17.67h1.64a.61.61,0,0,1,.64.44Z"/><path class="cls-2" d="M117.23,26.62a2.93,2.93,0,0,1-1.11-.19,2.24,2.24,0,0,1-.81-.51,2.21,2.21,0,0,1-.5-.82,3.18,3.18,0,0,1-.17-1.06V19.49h-.75a.52.52,0,0,1-.35-.14.49.49,0,0,1-.14-.38v-1l1.4-.27.52-2.15a.52.52,0,0,1,.58-.41h1.38v2.57h2.18v1.81h-2.18v4.37a.88.88,0,0,0,.14.51.52.52,0,0,0,.43.2.9.9,0,0,0,.25,0l.17-.07.13-.07a.37.37,0,0,1,.15,0,.29.29,0,0,1,.19.06.65.65,0,0,1,.15.17l.8,1.25a3.56,3.56,0,0,1-1.15.58A4.77,4.77,0,0,1,117.23,26.62Z"/><path class="cls-2" d="M123.23,18.44a4.57,4.57,0,0,1,1-.66,3.16,3.16,0,0,1,1.33-.25,3,3,0,0,1,1.28.25,2.73,2.73,0,0,1,.94.7,3.09,3.09,0,0,1,.57,1.06,4.43,4.43,0,0,1,.2,1.34v5.6H126v-5.6a1.54,1.54,0,0,0-.29-1,1.08,1.08,0,0,0-.88-.36,1.85,1.85,0,0,0-.81.18,3.71,3.71,0,0,0-.74.5v6.29H120.6V13.76h2.63Z"/><path class="cls-2" d="M132.46,22.55a2.48,2.48,0,0,0,.67,1.6,2,2,0,0,0,1.4.49,2.32,2.32,0,0,0,.79-.11,3.62,3.62,0,0,0,.59-.24l.48-.25a1,1,0,0,1,.45-.11.56.56,0,0,1,.48.23l.76.94a3.46,3.46,0,0,1-.88.76,4.22,4.22,0,0,1-1,.46,5.33,5.33,0,0,1-1,.23,6.35,6.35,0,0,1-1,.07,4.79,4.79,0,0,1-1.74-.31,4,4,0,0,1-1.41-.89,4.28,4.28,0,0,1-1-1.48,5.66,5.66,0,0,1-.35-2.06,4.62,4.62,0,0,1,.3-1.67,4.25,4.25,0,0,1,.87-1.39,4.18,4.18,0,0,1,1.37-.94,4.53,4.53,0,0,1,1.81-.35,4.61,4.61,0,0,1,1.61.27,3.6,3.6,0,0,1,1.25.79,3.69,3.69,0,0,1,.81,1.27,4.61,4.61,0,0,1,.29,1.71,3.25,3.25,0,0,1,0,.48.89.89,0,0,1-.09.3.4.4,0,0,1-.19.15.76.76,0,0,1-.29.05ZM135.77,21a2.57,2.57,0,0,0-.08-.62,1.46,1.46,0,0,0-.26-.53,1.42,1.42,0,0,0-.48-.38,1.76,1.76,0,0,0-.73-.14,1.56,1.56,0,0,0-1.17.43,2.24,2.24,0,0,0-.56,1.24Z"/><path class="cls-2" d="M148.24,14.1a9.14,9.14,0,0,1,2.19.23,4.18,4.18,0,0,1,1.47.68,2.46,2.46,0,0,1,.82,1,3.45,3.45,0,0,1,.26,1.39,3.09,3.09,0,0,1-.11.8,2.27,2.27,0,0,1-.38.72,3.22,3.22,0,0,1-.65.62,4.3,4.3,0,0,1-1,.48,3.47,3.47,0,0,1,1.81,1,2.51,2.51,0,0,1,.58,1.72,3.38,3.38,0,0,1-1.2,2.66,4.33,4.33,0,0,1-1.46.79,6.36,6.36,0,0,1-2,.28h-4.95V14.1Zm-1.68,2.15v3.06h1.49a5.44,5.44,0,0,0,.86-.07,1.91,1.91,0,0,0,.65-.24,1,1,0,0,0,.41-.47,1.74,1.74,0,0,0,.14-.74,2.22,2.22,0,0,0-.11-.74,1,1,0,0,0-.34-.47,1.41,1.41,0,0,0-.58-.26,4.19,4.19,0,0,0-.84-.07Zm2,8.06a2.46,2.46,0,0,0,.93-.14,1.5,1.5,0,0,0,.57-.38,1.28,1.28,0,0,0,.28-.51,2.38,2.38,0,0,0,.07-.59,1.91,1.91,0,0,0-.09-.61,1,1,0,0,0-.3-.46,1.5,1.5,0,0,0-.58-.29,3.19,3.19,0,0,0-.9-.1h-2v3.08Z"/><path class="cls-2" d="M158.7,17.53a5.09,5.09,0,0,1,1.83.32,3.83,3.83,0,0,1,1.42.9,4.1,4.1,0,0,1,.92,1.42,5.74,5.74,0,0,1,0,3.78,4.19,4.19,0,0,1-.92,1.44,4.12,4.12,0,0,1-1.42.91,5.09,5.09,0,0,1-1.83.32,5.19,5.19,0,0,1-1.84-.32,4.12,4.12,0,0,1-1.42-.91,4.07,4.07,0,0,1-.93-1.44,5.58,5.58,0,0,1,0-3.78,4,4,0,0,1,.93-1.42,3.83,3.83,0,0,1,1.42-.9A5.19,5.19,0,0,1,158.7,17.53Zm0,7.13A1.48,1.48,0,0,0,160,24a3.52,3.52,0,0,0,.43-1.95,3.52,3.52,0,0,0-.43-1.95,1.5,1.5,0,0,0-1.34-.63,1.52,1.52,0,0,0-1.36.63,3.52,3.52,0,0,0-.44,1.95,3.52,3.52,0,0,0,.44,1.95A1.51,1.51,0,0,0,158.7,24.66Z"/><path class="cls-2" d="M164.32,18.89a5.47,5.47,0,0,1,1.78-1.05,6.13,6.13,0,0,1,2.08-.34,3.66,3.66,0,0,1,1.44.26,3.05,3.05,0,0,1,1.09.72,3.12,3.12,0,0,1,.69,1.1,4.14,4.14,0,0,1,.23,1.39v5.51h-1.2a1.24,1.24,0,0,1-.57-.1.8.8,0,0,1-.32-.43l-.18-.48c-.23.19-.44.35-.64.49a4.53,4.53,0,0,1-.64.36,2.65,2.65,0,0,1-.69.22,4.15,4.15,0,0,1-.82.08,3.74,3.74,0,0,1-1.1-.16,2.43,2.43,0,0,1-.84-.46,2.17,2.17,0,0,1-.53-.76,2.89,2.89,0,0,1-.19-1,2.2,2.2,0,0,1,.24-1,2.47,2.47,0,0,1,.83-.89,5.2,5.2,0,0,1,1.58-.68,10.57,10.57,0,0,1,2.51-.3V21a1.65,1.65,0,0,0-.32-1.12,1.23,1.23,0,0,0-.91-.34,2.33,2.33,0,0,0-.76.1,3.82,3.82,0,0,0-.53.23l-.46.23a1.22,1.22,0,0,1-.53.1.73.73,0,0,1-.45-.13,1.08,1.08,0,0,1-.31-.33Zm4.75,4a9.38,9.38,0,0,0-1.3.14,3.4,3.4,0,0,0-.81.25,1,1,0,0,0-.41.35.82.82,0,0,0-.12.43.72.72,0,0,0,.25.63,1.19,1.19,0,0,0,.72.18,2.21,2.21,0,0,0,.89-.17,2.81,2.81,0,0,0,.78-.58Z"/><path class="cls-2" d="M175.78,19a3.83,3.83,0,0,1,.94-1.13,1.94,1.94,0,0,1,1.22-.4,1.55,1.55,0,0,1,1,.28l-.17,1.93a.36.36,0,0,1-.41.33h-.18l-.23,0-.24,0h-.22a1.32,1.32,0,0,0-.93.31,2.31,2.31,0,0,0-.58.85v5.35h-2.63V17.67h1.56a1.55,1.55,0,0,1,.33,0,.57.57,0,0,1,.22.11.38.38,0,0,1,.13.19,1.43,1.43,0,0,1,.09.29Z"/><path class="cls-2" d="M187.65,13.76V26.48H186a.62.62,0,0,1-.64-.44l-.21-.67a6.64,6.64,0,0,1-.55.51,3.6,3.6,0,0,1-.62.39,3.51,3.51,0,0,1-.73.26,3.58,3.58,0,0,1-.83.09,2.66,2.66,0,0,1-1.28-.31,2.91,2.91,0,0,1-1-.88,4.8,4.8,0,0,1-.67-1.42,6.93,6.93,0,0,1-.24-1.91,6,6,0,0,1,.27-1.83,4.72,4.72,0,0,1,.77-1.46,3.5,3.5,0,0,1,1.2-1A3.29,3.29,0,0,1,183,17.5a3,3,0,0,1,1.15.19,3.11,3.11,0,0,1,.85.53V13.76ZM185,20a1.6,1.6,0,0,0-.64-.46,2.07,2.07,0,0,0-.74-.14,1.53,1.53,0,0,0-.67.15,1.44,1.44,0,0,0-.53.46,2.36,2.36,0,0,0-.35.83A4.88,4.88,0,0,0,182,22.1a6.41,6.41,0,0,0,.1,1.18,2.64,2.64,0,0,0,.29.77,1.17,1.17,0,0,0,.44.42,1.32,1.32,0,0,0,.57.12,2.14,2.14,0,0,0,.52-.05,2,2,0,0,0,.43-.16,1.78,1.78,0,0,0,.37-.26,3,3,0,0,0,.34-.36Z"/><circle class="cls-2" cx="108.8" cy="78.97" r="15.33"/><path class="cls-2" d="M124.36,99.37h-4.89a23,23,0,0,1-21.35,0H93.23a7.47,7.47,0,0,0-7.47,7.47V138a7.52,7.52,0,0,0,.17,1.59h45.72a7.52,7.52,0,0,0,.17-1.59V106.84A7.46,7.46,0,0,0,124.36,99.37Z"/><circle class="cls-3" cx="108.79" cy="104.59" r="51.83"/></g></svg>