<?xml version="1.0" encoding="utf-8"?>
<!-- Generator: Adobe Illustrator 22.1.0, SVG Export Plug-In . SVG Version: 6.00 Build 0)  -->
<svg version="1.1" id="Layer_1" xmlns="http://www.w3.org/2000/svg" xmlns:xlink="http://www.w3.org/1999/xlink" x="0px" y="0px"
	 viewBox="0 0 1920 1080" style="enable-background:new 0 0 1920 1080;" xml:space="preserve">
<style type="text/css">
	.st0{fill:#F60000;stroke:#F60000;stroke-width:8.25;stroke-miterlimit:10;}
	.st1{fill:none;stroke:#fff;stroke-width:24;stroke-linecap:round;stroke-miterlimit:10;}
	.st2{fill:none;stroke:#F60000;stroke-width:20;stroke-linecap:round;stroke-miterlimit:10;}
	.st3{fill:#F60000;}
	.st4{fill:none;stroke:#F60000;stroke-width:7;stroke-miterlimit:10;}
    g > path {
        fill: white;
    }
</style>
<g id="Layer_1_1_">
</g>
<g id="Layer_2_1_">
	<path class="st0" d="M1094.3,688.3"/>
	<path class="st0" d="M1094.3,680.6"/>
	<path class="st1" d="M1173.8,475.1c-59.5,238.5-397.5,241.5-461.3-0.5"/>
	<path class="st1" d="M712.8,381.5c58.8-238.7,396.7-242.8,461.3-1"/>
	<line class="st1" x1="850.8" y1="530.2" x2="941.4" y2="313.5"/>
	<line class="st1" x1="1041.7" y1="530.4" x2="942.4" y2="314.9"/>
	<path class="st2" d="M944.1,435.6"/>
	<circle class="st3" cx="942.4" cy="432.2" r="11.3"/>
	<g>
		<path d="M812.7,707.3c15.8,0,29.4,12.7,29.4,28.5s-12.6,28.3-28.4,28.3s-28.3-12.5-28.3-28.3S796.9,707.3,812.7,707.3z
			 M813.7,756.2c11.3,0,20.5-9.1,20.5-20.4c0-11.2-9.2-20.6-20.5-20.6c-11.2,0-20.4,9.4-20.4,20.6
			C793.3,747,802.5,756.2,813.7,756.2z"/>
		<path d="M853.5,780.2c0,0.9-0.6-7.7-1.7,4.1l-4.6,0.1c-0.8-11.8-1.2-6.1-1.2-6.9v-44.2c0-0.8,0.7-1.5,1.5-1.5h2.4
			c0.6,0,1,0.3,1.3,1l0.8,2.1c0.6-0.6,3.8-3.9,9.6-3.9c8.7,0,15.1,7.6,15.1,16.6c0,9.2-6.8,16.5-15.4,16.5c-4.1,0-7.2-1.8-7.7-2.1
			L853.5,780.2L853.5,780.2z M860.3,757.3c5.2,0,9-4.3,9-9.7c0-5.3-3.3-9.8-8.7-9.8c-4.6,0-6.9,3.6-7.3,4.6V755
			C853.3,755,856.1,757.3,860.3,757.3z"/>
		<path d="M895.2,730.9c8.2,0,14.5,6.2,14.5,14.6c0,0.6-0.1,1.6-0.2,2.1c-0.1,0.8-0.7,1.3-1.4,1.3h-21.5c0.2,4.3,3.9,8.4,9.1,8.4
			c2.8,0,5.4-1.3,7-2.3c0.9-0.6,1.5-0.9,2.1-0.1l2.2,3c0.6,0.6,0.8,1.3-0.2,2.1c-2.3,2-6.4,3.9-11.7,3.9c-9.5,0-15.9-7.5-15.9-16.6
			C879.4,738.6,885.7,730.9,895.2,730.9z M902.4,744c-0.2-3.8-3.4-7-7.3-7c-4.3,0-7.6,3.1-8,7H902.4z"/>
		<path d="M914.4,733.2c0-0.8,0.7-1.5,1.5-1.5h2.3c0.6,0,1.1,0.4,1.3,0.9l0.9,2.7c0.6-0.6,4.7-4.4,11-4.4c9.6,0,13.2,6.8,13.2,15
			v15.9c0,0.8-0.7,1.5-1.5,1.5h-4.5c-0.9,0-1.5-0.7-1.5-1.5v-16.2c0-5-2.4-7.8-6.5-7.8c-5,0-8.4,3.6-8.8,4.7v19.2
			c0,1-0.5,1.5-1.8,1.5h-4.1c-0.8,0-1.5-0.7-1.5-1.5L914.4,733.2L914.4,733.2z"/>
		<path d="M946.8,761.2l24.2-53.1c0.2-0.5,0.9-0.9,1.3-0.9h0.8c0.4,0,1.1,0.4,1.3,0.9l24.1,53.1c0.5,1-0.2,2.1-1.3,2.1h-5
			c-0.9,0-1.5-0.5-1.8-1.2l-4.9-10.8h-25.8c-1.6,3.6-3.2,7.2-4.8,10.8c-0.2,0.6-0.9,1.2-1.8,1.2h-5
			C946.9,763.3,946.3,762.2,946.8,761.2z M982.5,744.5l-9.7-21.6h-0.4l-9.6,21.6H982.5z"/>
		<path d="M1009.5,708.5c0.2-0.6,0.8-1.2,1.4-1.2h1.3c0.5,0,1.2,0.4,1.3,0.9l16.5,40.3h0.3l16.4-40.3c0.2-0.5,0.8-0.9,1.3-0.9h1.3
			c0.6,0,1.3,0.6,1.4,1.2l9.7,53c0.2,1.1-0.3,1.8-1.4,1.8h-5.1c-0.7,0-1.3-0.6-1.5-1.1l-5.8-35.3c-0.1,0-0.2,0-0.2,0l-14.2,36.3
			c-0.2,0.5-0.6,0.9-1.3,0.9h-1.4c-0.6,0-1.2-0.4-1.3-0.9l-14.3-36.3c-0.1,0-0.2,0-0.3,0l-5.7,35.3c-0.1,0.6-0.8,1.1-1.4,1.1h-5.1
			c-1.1,0-1.7-0.7-1.5-1.8L1009.5,708.5z"/>
		<path d="M1063.8,707.5c0-0.8,0.6-1.5,1.5-1.5h18c9.7,0,17.7,7.9,17.7,17.4c0,9.8-8,17.7-17.6,17.7H1072v29.5
			c0,0.8-0.7,1.5-1.5,1.5h-5.1c-0.9,0-1.5-0.7-1.5-1.5L1063.8,707.5L1063.8,707.5z M1082.8,733.5c5.4,0,10-4.4,10-10.1
			c0-5.4-4.6-9.5-10-9.5h-10.9v19.6H1082.8z"/>
	</g>
	<line class="st4" x1="846.6" y1="780.9" x2="1071.8" y2="780.9"/>
	<circle class="st3" cx="849.7" cy="781.4" r="6.1"/>
	<circle class="st3" cx="1068" cy="766.8" r="6.1"/>
	<rect x="1063.8" y="770.5" class="st3" width="8" height="7"/>
</g>
</svg>
