<svg xmlns="http://www.w3.org/2000/svg" viewBox="0 0 140 140"><defs><style>.cls-1{opacity:0.69;}.cls-2{fill:none;stroke:#9c3;stroke-linecap:round;stroke-miterlimit:10;stroke-width:3px;stroke-dasharray:0.5 7.97;}.cls-3{fill:#fff;}</style></defs><title>OS</title><g id="map"><g class="cls-1"><circle class="cls-2" cx="70" cy="70" r="63.32"/></g><path class="cls-3" d="M74.45,70a18.54,18.54,0,0,1-1.25,6.85,16,16,0,0,1-3.5,5.46,16.37,16.37,0,0,1-5.45,3.61,19.68,19.68,0,0,1-14.12,0,16.37,16.37,0,0,1-5.45-3.61,16.09,16.09,0,0,1-3.52-5.46,19.51,19.51,0,0,1,0-13.69,16,16,0,0,1,3.52-5.45,16.37,16.37,0,0,1,5.45-3.61,19.68,19.68,0,0,1,14.12,0,16.27,16.27,0,0,1,5.45,3.63,16.09,16.09,0,0,1,3.5,5.45A18.38,18.38,0,0,1,74.45,70Zm-7.13,0a14.87,14.87,0,0,0-.7-4.75,10,10,0,0,0-2-3.58,8.61,8.61,0,0,0-3.18-2.25,10.9,10.9,0,0,0-4.24-.78,11,11,0,0,0-4.25.78,8.73,8.73,0,0,0-3.19,2.25,10.32,10.32,0,0,0-2,3.58,16.76,16.76,0,0,0,0,9.52,10,10,0,0,0,2,3.56,8.73,8.73,0,0,0,3.19,2.25,11.21,11.21,0,0,0,4.25.77,11.09,11.09,0,0,0,4.24-.77,8.61,8.61,0,0,0,3.18-2.25,9.75,9.75,0,0,0,2-3.56A15,15,0,0,0,67.32,70Z"/><path class="cls-3" d="M97.81,59.61a3,3,0,0,1-.66.78,1.49,1.49,0,0,1-.87.24,2.16,2.16,0,0,1-1.11-.36q-.58-.36-1.38-.78A13.46,13.46,0,0,0,92,58.71a7.2,7.2,0,0,0-2.39-.36A5.27,5.27,0,0,0,86,59.43a3.6,3.6,0,0,0-1.21,2.83,2.65,2.65,0,0,0,.66,1.84,5.76,5.76,0,0,0,1.74,1.27,17.18,17.18,0,0,0,2.45.95c.91.28,1.85.58,2.81.92a23.78,23.78,0,0,1,2.81,1.17,10,10,0,0,1,2.45,1.69,7.89,7.89,0,0,1,1.74,2.5,8.75,8.75,0,0,1,.66,3.59,11.43,11.43,0,0,1-.8,4.31A10.08,10.08,0,0,1,97,84a10.63,10.63,0,0,1-3.72,2.36,13.92,13.92,0,0,1-5,.86,15.73,15.73,0,0,1-3.2-.33A17.4,17.4,0,0,1,82,86a16.82,16.82,0,0,1-2.78-1.4,12.12,12.12,0,0,1-2.27-1.81l2-3.29a2,2,0,0,1,.68-.62,1.71,1.71,0,0,1,.88-.24,2.37,2.37,0,0,1,1.32.46c.47.31,1,.65,1.6,1a12.57,12.57,0,0,0,2.11,1,7.86,7.86,0,0,0,2.86.47,5.7,5.7,0,0,0,3.78-1.12,4.07,4.07,0,0,0,1.33-3.32,3.09,3.09,0,0,0-.66-2.06,5.35,5.35,0,0,0-1.73-1.33,13.53,13.53,0,0,0-2.44-.91c-.91-.26-1.85-.54-2.81-.85a22.52,22.52,0,0,1-2.81-1.12,8.81,8.81,0,0,1-2.44-1.71,8.45,8.45,0,0,1-1.73-2.65,10.21,10.21,0,0,1-.66-3.93,9.4,9.4,0,0,1,2.93-6.78,10.85,10.85,0,0,1,3.54-2.2,12.92,12.92,0,0,1,4.82-.84,16.31,16.31,0,0,1,5.63.94,12.79,12.79,0,0,1,4.38,2.61Z"/></g></svg>