<?xml version="1.0" encoding="UTF-8"?>
<svg id="_图层_1" data-name="图层 1" xmlns="http://www.w3.org/2000/svg" viewBox="0 0 444.01 111.54">
  <defs>
    <style>
      .cls-1 {
        fill: #002fa7;
      }
    </style>
  </defs>
  <g id="_图层_1-2" data-name="图层 1-2">
    <path class="cls-1" d="m95.69,26.47L50.76.53c-1.2-.69-2.69-.69-3.89,0L1.94,26.47C.74,27.17,0,28.45,0,29.84v51.88c0,1.39.74,2.67,1.94,3.37l44.93,25.92c1.2.69,2.69.69,3.89,0l44.93-25.92c1.23-.68,1.99-1.97,2-3.37V29.84c-.01-1.4-.77-2.69-2-3.37Zm-35.82,53.1c-3.5,4.47-10.51,5.76-15.2,2.83-4.41-2.76-4.8-8.09-1.25-11.88,3.59-3.67,9.08-4.73,13.78-2.65,4.63,2.26,6,7.47,2.67,11.7Zm8.32-41.55c-2.3,2.34-7.23,3.35-10.79,2.22-1.98-.64-3.07-1.95-3.13-3.05-.04-.8-1.32-1.58-2.72-2-1.54-.37-3.14-.43-4.7-.18-.63.07-1.24.19-1.85.36-1.41.42-2.74,1.09-3.9,2-1.08,1-1.72,2.4-1.78,3.87.05,1.05,1.01,1.94,2.47,2.49,1.61.53,3.33.65,5,.35,2.13-.61,4.39-.58,6.51.08,3.58,1.25,4.49,4.48,1.78,7.25-3.2,2.99-7.81,3.91-11.91,2.4-1.65-.66-2.75-2.23-2.81-4-.09-1.15-1.13-2.08-2.54-2.66-1.59-.52-3.28-.66-4.94-.4-.67.11-1.34.25-2,.42-1.67.38-3.2,1.19-4.45,2.36-.91.9-1.65,1.96-2.16,3.14-.21.53-.35,1.08-.42,1.65,0,1.41.85,2.68,2.15,3.24,1.64.76,3.47,1,5.25.68,2.28-.71,4.73-.57,6.92.37,3.64,1.76,4.03,5.94.64,9.4-3.55,3.62-9.58,4.78-13.16,2.55-1.78-1.09-2.68-3.17-2.25-5.21,0-.26-.03-.53-.07-.79-.06-.35-.17-.68-.33-1-.4-.76-1.01-1.39-1.76-1.81-1.59-.81-3.4-1.06-5.15-.72-2.4.65-4.76.59-6.3-.41-2.63-1.61-1.85-5.13,1.54-7.78,1.72-1.32,3.74-2.21,5.88-2.6,1.98-.39,3.83-1.25,5.42-2.49,1.26-.85,2.11-2.17,2.37-3.67.02-.42,0-.85-.08-1.27-.15-1.08.17-2.17.88-3,.87-.85,1.98-1.41,3.18-1.59.93-.12,1.87-.18,2.81-.17.67-.04,1.34-.13,2-.26,1.18-.32,2.28-.9,3.21-1.69.87-.6,1.49-1.49,1.76-2.51.04-.33.06-.67.06-1-.34-1.87,2.26-3.92,5.82-4.58,1.59-.31,3.23-.24,4.78.21h.14c1.04.16,1.94.8,2.44,1.73v.06c.06.12.1.25.13.38.53,1.02,1.52,1.74,2.66,1.92,1.56.38,3.18.43,4.76.15,2-.55,4.12-.6,6.14-.12,3.5.9,4.8,3.34,2.5,5.68Zm19.39,5.57c-2.15,2.72-7.68,3.83-12.08,2.42-4.19-1.33-5.44-4.54-3.27-6.82,2.17-2.28,7.08-3.34,11.17-2.28,4.26,1.1,6.33,3.96,4.18,6.68Z"/>
    <path d="m370,31.23h7.18c.51,0,.92.42.92.93v47c0,.51-.41.92-.92.93h-7.18c-.51,0-.93-.42-.93-.93v-47c0-.51.42-.93.93-.93Z"/>
    <path d="m329.91,39.4v-7.24c0-.52-.42-.93-.94-.93h-29.77c-.51,0-.93.42-.93.93v47c0,.51.41.93.92.94,0,0,0,0,.01,0h29.8c.52,0,.94-.42.94-.94h0v-7.26c-.03-.5-.44-.89-.94-.89h-20.18c-.51,0-.93-.42-.93-.93v-11.07c0-.51.42-.93.93-.93h18.18c.52,0,.93-.41.94-.93v-7.04c0-.52-.42-.94-.94-.94h-18.18c-.51,0-.93-.42-.93-.93v-7c0-.52.41-.93.93-.94h20.18c.49-.01.89-.41.91-.9Z"/>
    <path d="m441.49,43.47c-2.71.53-5.21,1.8-7.24,3.67-.05.04-.13.04-.17,0-.02-.02-.03-.05-.03-.08v-3.72c0-.51-.42-.93-.93-.93h-6.67c-.51,0-.93.42-.93.93v36c0,.51.4.92.91.93,0,0,.01,0,.02,0h6.67c.51,0,.93-.42.93-.93v-18.15c0-2.51.51-4.09,2-5.71,1.91-2.2,4.53-3.66,7.4-4.12.3-.01.54-.27.53-.57,0,0,0,0,0-.01v-7.09c0-.25-.19-.46-.45-.47-.01,0-.03,0-.04,0-.67.04-1.34.13-2,.26Z"/>
    <path d="m211.45,51.95c-1.66-2.91-4.08-5.31-7-6.95-2.91-1.68-6.21-2.57-9.57-2.56-3.65-.03-7.22,1.07-10.22,3.15-.21.15-.51.1-.65-.11-.06-.08-.09-.18-.09-.28v-.77c0-.51-.41-.92-.92-.92h-7.12c-.51,0-.92.41-.92.92v47.58c0,.51.41.92.92.92h7.12c.51,0,.92-.41.92-.92v-14.29c0-.25.2-.45.45-.45.09,0,.19.03.26.08,3.02,2.07,6.61,3.16,10.28,3.11,3.38.03,6.7-.83,9.63-2.51,2.89-1.67,5.27-4.09,6.89-7,1.68-2.89,2.57-6.18,2.57-9.53,0-3.33-.88-6.6-2.55-9.47Zm-9.26,16.69c-1.91,1.88-4.51,2.9-7.19,2.81-2.61.06-5.14-.94-7-2.78-1.9-1.93-2.92-4.56-2.81-7.27-.2-5.32,3.95-9.8,9.27-10,.22,0,.45,0,.67,0,2.67-.1,5.25.91,7.16,2.77,1.9,1.9,2.91,4.5,2.81,7.18.1,2.73-.96,5.38-2.91,7.29Z"/>
    <path d="m244.6,68.47c-4.02,3.73-10.23,3.73-14.25,0-1.11-1.11-1.92-2.49-2.34-4-.07-.25.07-.51.32-.58.04-.01.08-.02.13-.02h26.89c.48,0,.88-.37.93-.85.05-.59.08-1.18.08-1.79.02-3.32-.85-6.59-2.51-9.47-1.66-2.9-4.08-5.3-7-6.94-2.91-1.69-6.22-2.57-9.58-2.56-4.63-.02-9.09,1.74-12.46,4.92-4.04,3.57-6.31,8.73-6.19,14.12-.09,5.04,1.89,9.9,5.47,13.44,3.45,3.6,8.24,5.61,13.22,5.53,3.37.03,6.69-.83,9.62-2.51,2.32-1.33,4.32-3.17,5.84-5.37.18-.26.12-.62-.15-.81-.03-.02-.06-.04-.09-.05l-7.23-3.26c-.25-.09-.53,0-.7.2Zm-14.22-14.39c4.04-3.7,10.23-3.7,14.27,0,.61.61,1.13,1.31,1.54,2.07.12.23.03.51-.2.64-.07.04-.14.05-.21.05h-16.52c-.26,0-.47-.22-.46-.48,0-.07.02-.15.05-.21.41-.76.92-1.46,1.53-2.07Z"/>
    <path d="m277.52,42.47c-8.66.02-15.67,7.06-15.65,15.72v21c.02.51.43.92.94.95h7.19c.51-.03.92-.44.95-.95v-21c-.14-3.65,2.7-6.72,6.35-6.86,3.65-.14,6.72,2.7,6.86,6.35,0,.17,0,.34,0,.51v21c.02.51.43.92.94.95h7.16c.51-.03.92-.44.95-.95v-21c.02-8.67-6.99-15.7-15.66-15.72-.01,0-.02,0-.03,0Z"/>
    <path d="m348.5,80.11c8.67-.02,15.68-7.06,15.66-15.73v-21c-.03-.53-.47-.95-1-.95h-7.14c-.52,0-.94.41-.95.93,0,0,0,.01,0,.02v21c.14,3.65-2.7,6.72-6.35,6.86-3.65.14-6.72-2.7-6.86-6.35,0-.17,0-.34,0-.51v-21c-.03-.53-.47-.95-1-.95h-7.06c-.52,0-.94.41-.95.93,0,0,0,.01,0,.02v21c-.02,8.66,6.99,15.7,15.65,15.73Z"/>
    <path d="m145,30.84l-19.68,11.33c-.8.47-1.3,1.33-1.3,2.26v22.66c0,.93.5,1.79,1.3,2.26l19.68,11.33c.81.47,1.8.47,2.61,0l19.62-11.33c.81-.46,1.31-1.33,1.31-2.26v-22.66c0-.93-.5-1.79-1.31-2.26l-19.67-11.33c-.79-.45-1.77-.45-2.56,0Zm13.82,32.7l-12,7c-.3.16-.65.16-.95,0l-12-7c-.29-.18-.47-.49-.48-.83v-13.9c0-.34.19-.65.48-.83l12-6.95c.3-.16.65-.16.95,0l12,6.95c.29.18.47.49.48.83v13.9c-.02.35-.22.67-.53.83h.05Z"/>
    <path d="m408.91,68.47c-1.9,1.88-4.48,2.9-7.15,2.82-2.64.08-5.21-.92-7.09-2.78-1.12-1.11-1.92-2.49-2.34-4-.07-.25.07-.51.32-.58.04-.01.08-.02.13-.02h26.89c.48,0,.88-.37.93-.85,0-.59.08-1.18.08-1.79.01-3.32-.85-6.59-2.51-9.47-1.66-2.9-4.08-5.3-7-6.94-2.91-1.68-6.21-2.57-9.57-2.56-4.64-.03-9.1,1.74-12.47,4.92-4.01,3.57-6.25,8.73-6.13,14.1-.09,5.04,1.88,9.9,5.47,13.44,3.44,3.6,8.23,5.61,13.21,5.53,3.38.03,6.7-.83,9.63-2.51,2.32-1.33,4.32-3.17,5.84-5.37.18-.26.12-.62-.15-.81-.03-.02-.06-.04-.09-.05l-7.24-3.26c-.26-.12-.58-.05-.76.18Zm-14.21-14.39c4.02-3.74,10.24-3.77,14.3-.07.62.61,1.13,1.31,1.54,2.07.12.23.03.51-.2.64-.07.04-.14.05-.21.05h-16.55c-.25,0-.47-.19-.47-.45,0-.08.02-.17.06-.24.41-.74.92-1.41,1.53-2Z"/>
  </g>
</svg>