<?xml version="1.0" encoding="UTF-8"?>
<svg id="Layer_1" data-name="Layer 1" xmlns="http://www.w3.org/2000/svg" viewBox="0 0 400 400">
  <defs>
    <style>
      .cls-1, .cls-2, .cls-3, .cls-4 {
        stroke-width: 0px;
      }

      .cls-2 {
        fill: #a4d233;
      }

      .cls-3 {
        fill: #666;
      }

      .cls-4 {
        fill: #0084ab;
      }
    </style>
  </defs>
  <g>
    <path class="cls-1" d="M108.59,353.66c.03,5.89-.98,11.06-3.03,15.51-2.06,4.45-5.02,7.89-8.88,10.32-3.86,2.43-8.3,3.66-13.31,3.69-4.96.03-9.39-1.14-13.29-3.5-3.9-2.36-6.93-5.75-9.1-10.16-2.16-4.41-3.27-9.49-3.33-15.24l-.02-2.96c-.03-5.89,1-11.08,3.1-15.57,2.1-4.49,5.08-7.94,8.94-10.36,3.86-2.42,8.28-3.64,13.27-3.67,4.98-.03,9.42,1.15,13.31,3.52,3.89,2.38,6.91,5.79,9.06,10.26,2.15,4.47,3.24,9.63,3.27,15.49l.02,2.67ZM96.08,351.02c-.04-6.27-1.19-11.03-3.45-14.28-2.26-3.25-5.48-4.86-9.64-4.83-4.14.02-7.32,1.65-9.54,4.88-2.23,3.23-3.34,7.96-3.33,14.17l.02,2.92c.03,6.11,1.18,10.84,3.45,14.19,2.26,3.36,5.51,5.02,9.72,5,4.13-.02,7.3-1.67,9.5-4.92,2.2-3.26,3.3-8,3.29-14.21l-.02-2.92Z"/>
    <path class="cls-1" d="M129.91,361.02l.12,21.08-12.32.07-.34-59.81,23.33-.13c4.49-.03,8.45.77,11.87,2.4,3.42,1.62,6.05,3.94,7.91,6.96,1.85,3.02,2.79,6.46,2.81,10.32.03,5.86-1.95,10.49-5.94,13.9-3.99,3.41-9.54,5.13-16.63,5.17l-10.8.06ZM129.85,351.03l11.01-.06c3.26-.02,5.74-.8,7.44-2.34,1.7-1.54,2.55-3.74,2.53-6.59-.02-2.93-.89-5.29-2.63-7.09-1.74-1.8-4.12-2.72-7.16-2.75l-11.3.06.11,18.77Z"/>
    <path class="cls-1" d="M194.16,360.9l-23.13.13-.05-9.57,23.13-.13.05,9.57Z"/>
    <path class="cls-1" d="M249.33,331.58l-18.32.1.28,49.83-12.32.07-.28-49.83-18.08.1-.06-9.98,48.72-.28.06,9.98Z"/>
    <path class="cls-1" d="M292.48,355.16l-23.66.13.09,16.1,27.77-.16.06,9.9-40.1.23-.34-59.81,40.01-.23.06,9.98-27.69.16.08,14.26,23.66-.13.05,9.57Z"/>
    <path class="cls-1" d="M339.81,354.89l-23.66.13.09,16.1,27.77-.16.06,9.9-40.1.23-.34-59.81,40.01-.23.06,9.98-27.69.16.08,14.26,23.66-.13.05,9.57Z"/>
  </g>
  <g>
    <path class="cls-4" d="M292.18,72.22c-13.81-37.92-49.93-63.22-90.65-63.22s-77.58,25.32-92.56,63.26c-37.5,3-69.29,39.07-69.95,80.03-.35,21.59,8.35,43.02,23.87,58.78,13.72,13.95,31.23,21.63,49.3,21.63h.21v-7.03h-.21c-16.17,0-31.9-6.94-44.29-19.53-13.99-14.22-22.16-34.31-21.85-53.74.6-37.55,31.23-71.79,65.55-73.26l2.34-.1.81-2.2c13.4-36.37,48.28-60.81,86.78-60.81s72.57,24.4,84.78,60.72l.78,2.33,2.46.06c34.91.9,65,35.08,64.38,73.15-.29,18.06-7.67,36.52-20.26,50.66-12.94,14.54-29.47,22.59-46.58,22.72v7.03c38.71-.26,73.18-37.67,73.86-80.29.66-40.89-31.22-77.7-68.79-80.17Z"/>
    <path class="cls-3" d="M275.66,148h-13.66v-22.74c0-33.95-28.05-61.47-62-61.47s-62,27.52-62,61.47v22.74h-13.66c-10.45,0-18.34,8.28-18.34,18.73v94.57c0,10.45,7.89,19.69,18.34,19.69h151.31c10.45,0,18.34-9.24,18.34-19.69v-94.57c0-10.45-7.89-18.73-18.34-18.73ZM163,125.26c0-20.9,16.6-37.83,37.5-37.83s37.5,16.93,37.5,37.83v22.74h-75v-22.74ZM239.88,207c1.44,0,2.6,1.56,2.6,3s-1.17,3-2.6,3h-2.88v8h2.88c1.44,0,2.6,1.06,2.6,2.5s-1.17,2.5-2.6,2.5h-2.88v9h2.88c1.44,0,2.6,1.06,2.6,2.5s-1.17,2.5-2.6,2.5h-2.88v11.35c0,1.72-1.78,2.65-3.5,2.65h-10.5v2.81c0,1.44-1.06,2.6-2.5,2.6s-2.5-1.17-2.5-2.6v-2.81h-9v2.81c0,1.44-1.06,2.6-2.5,2.6s-2.5-1.17-2.5-2.6v-2.81h-8v2.81c0,1.44-1.06,2.6-2.5,2.6s-2.5-1.17-2.5-2.6v-2.81h-9v2.81c0,1.44-1.06,2.6-2.5,2.6s-2.5-1.17-2.5-2.6v-2.81h-11.24c-1.72,0-2.76-.93-2.76-2.65v-11.35h-2.99c-1.44,0-2.6-1.06-2.6-2.5s1.17-2.5,2.6-2.5h2.99v-9h-2.99c-1.44,0-2.6-1.06-2.6-2.5s1.17-2.5,2.6-2.5h2.99v-8h-2.99c-1.44,0-2.6-1.56-2.6-3s1.17-3,2.6-3h2.99v-8h-2.99c-1.44,0-2.6-1.06-2.6-2.5s1.17-2.5,2.6-2.5h2.99v-10.39c0-1.72,1.04-3.61,2.76-3.61h11.24v-3.06c0-1.44,1.06-2.6,2.5-2.6s2.5,1.17,2.5,2.6v3.06h9v-3.06c0-1.44,1.06-2.6,2.5-2.6s2.5,1.17,2.5,2.6v3.06h8v-3.06c0-1.44,1.06-2.6,2.5-2.6s2.5,1.17,2.5,2.6v3.06h9v-3.06c0-1.44,1.06-2.6,2.5-2.6s2.5,1.17,2.5,2.6v3.06h10.5c1.72,0,3.5,1.89,3.5,3.61v10.39h2.88c1.44,0,2.6,1.06,2.6,2.5s-1.17,2.5-2.6,2.5h-2.88v8h2.88Z"/>
    <rect class="cls-2" x="168.71" y="185.64" width="62.46" height="62.46" rx="2.64" ry="2.64"/>
  </g>
</svg>