<?xml version="1.0" encoding="utf-8"?>
<!-- Generator: Adobe Illustrator 25.2.3, SVG Export Plug-In . SVG Version: 6.00 Build 0)  -->
<svg version="1.1" id="Layer_1" xmlns="http://www.w3.org/2000/svg" xmlns:xlink="http://www.w3.org/1999/xlink" x="0px" y="0px"
	 viewBox="0 0 287 265" style="enable-background:new 0 0 287 265;" xml:space="preserve">
<style type="text/css">
	.st0{fill:none;stroke:#E6E6E6;stroke-width:2.22;stroke-miterlimit:10;}
	.st1{fill:none;stroke:#E6E6E6;stroke-width:1.9;stroke-miterlimit:10;}
	.st2{fill:#99CC33;stroke:#E6E6E6;stroke-width:4.37;stroke-miterlimit:10;}
	.st3{enable-background:new    ;}
	.st4{fill:#03234B;stroke:#E6E6E6;stroke-width:4.37;stroke-miterlimit:10;}
	.st5{fill:#FFFFFF;}
	.st6{fill:#0083AD;stroke:#E6E6E6;stroke-width:4.37;stroke-miterlimit:10;}
	.st7{fill:#D72C2F;stroke:#E6E6E6;stroke-width:4.37;stroke-miterlimit:10;}
	.st8{fill:#EECC2F;stroke:#E6E6E6;stroke-width:4.37;stroke-miterlimit:10;}
</style>
<g id="upper">
	<line class="st0" x1="83.5" y1="219.7" x2="147.8" y2="47.7"/>
	<line class="st0" x1="209.4" y1="222.8" x2="146.2" y2="49"/>
	<line class="st0" x1="83.3" y1="218.7" x2="248.1" y2="114.3"/>
	<line class="st0" x1="45.3" y1="114.3" x2="209.4" y2="222.8"/>
	<line class="st0" x1="41.1" y1="113.4" x2="252.7" y2="115.9"/>
	<ellipse class="st1" cx="146.5" cy="141.4" rx="103.8" ry="75.8"/>
	<circle class="st2" cx="146.5" cy="46.8" r="41.5"/>
	<g class="st3">
		<path d="M134.4,49.8v1.5h-5.8v-9.9h1.8v8.4H134.4z"/>
		<path d="M137.4,42.3c0,0.1,0,0.3-0.1,0.4c-0.1,0.1-0.1,0.2-0.2,0.3c-0.1,0.1-0.2,0.2-0.3,0.2s-0.3,0.1-0.4,0.1
			c-0.1,0-0.3,0-0.4-0.1c-0.1-0.1-0.2-0.1-0.3-0.2c-0.1-0.1-0.2-0.2-0.2-0.3c-0.1-0.1-0.1-0.3-0.1-0.4c0-0.2,0-0.3,0.1-0.4
			c0.1-0.1,0.1-0.2,0.2-0.3s0.2-0.2,0.3-0.2c0.1-0.1,0.3-0.1,0.4-0.1c0.2,0,0.3,0,0.4,0.1s0.2,0.1,0.3,0.2c0.1,0.1,0.2,0.2,0.2,0.3
			C137.4,42,137.4,42.1,137.4,42.3z M137.2,44.3v7h-1.7v-7H137.2z"/>
		<path d="M140.5,45.2c0.1-0.1,0.3-0.3,0.4-0.4c0.2-0.1,0.3-0.2,0.5-0.3s0.4-0.2,0.6-0.2s0.4-0.1,0.7-0.1c0.4,0,0.7,0.1,1,0.2
			c0.3,0.1,0.5,0.3,0.7,0.5c0.2,0.2,0.3,0.5,0.5,0.8s0.2,0.7,0.2,1.1v4.5h-1.7v-4.5c0-0.4-0.1-0.8-0.3-1c-0.2-0.2-0.5-0.4-0.9-0.4
			c-0.3,0-0.6,0.1-0.8,0.2s-0.5,0.3-0.7,0.5v5.1h-1.7v-7h1c0.2,0,0.4,0.1,0.4,0.3L140.5,45.2z"/>
		<path d="M146.4,45.3c0.8-0.7,1.8-1.1,2.9-1.1c0.4,0,0.8,0.1,1.1,0.2c0.3,0.1,0.6,0.3,0.8,0.6s0.4,0.5,0.5,0.9s0.2,0.7,0.2,1.1v4.4
			h-0.8c-0.2,0-0.3,0-0.4-0.1s-0.2-0.1-0.2-0.3l-0.2-0.5c-0.2,0.2-0.4,0.3-0.5,0.4c-0.2,0.1-0.3,0.2-0.5,0.3
			c-0.2,0.1-0.4,0.1-0.6,0.2c-0.2,0-0.4,0.1-0.7,0.1c-0.3,0-0.6,0-0.8-0.1c-0.2-0.1-0.5-0.2-0.6-0.4s-0.3-0.4-0.4-0.6
			c-0.1-0.2-0.1-0.5-0.1-0.8c0-0.2,0-0.4,0.1-0.5c0.1-0.2,0.2-0.3,0.3-0.5s0.3-0.3,0.5-0.5c0.2-0.1,0.5-0.3,0.8-0.4
			c0.3-0.1,0.7-0.2,1.1-0.3c0.4-0.1,0.9-0.1,1.4-0.1v-0.4c0-0.5-0.1-0.8-0.3-1c-0.2-0.2-0.5-0.3-0.9-0.3c-0.3,0-0.5,0-0.7,0.1
			c-0.2,0.1-0.3,0.1-0.5,0.2c-0.1,0.1-0.3,0.2-0.4,0.2c-0.1,0.1-0.2,0.1-0.4,0.1c-0.1,0-0.2,0-0.3-0.1s-0.1-0.1-0.2-0.2L146.4,45.3z
			 M150.3,48.3c-0.5,0-0.9,0.1-1.2,0.1s-0.6,0.1-0.8,0.2c-0.2,0.1-0.3,0.2-0.4,0.3c-0.1,0.1-0.1,0.3-0.1,0.4c0,0.3,0.1,0.5,0.3,0.6
			c0.2,0.1,0.4,0.2,0.7,0.2c0.3,0,0.6-0.1,0.9-0.2c0.3-0.1,0.5-0.3,0.7-0.6V48.3z"/>
	</g>
	<g class="st3">
		<path d="M155.1,45.5c0.2-0.4,0.5-0.7,0.8-1c0.3-0.2,0.7-0.4,1.1-0.4c0.3,0,0.6,0.1,0.8,0.2l-0.1,1.3c0,0.1-0.1,0.1-0.1,0.2
			c0,0-0.1,0.1-0.2,0.1c-0.1,0-0.2,0-0.3,0c-0.1,0-0.3,0-0.4,0c-0.2,0-0.4,0-0.5,0.1c-0.1,0.1-0.3,0.1-0.4,0.2s-0.2,0.2-0.3,0.4
			s-0.2,0.3-0.2,0.5v4.3h-1.7v-7h1c0.2,0,0.3,0,0.4,0.1s0.1,0.2,0.1,0.3L155.1,45.5z"/>
	</g>
	<g class="st3">
		<path d="M161.5,44.2c0.5,0,1,0.1,1.4,0.3c0.4,0.2,0.8,0.4,1.1,0.7c0.3,0.3,0.5,0.7,0.7,1.1c0.2,0.4,0.2,0.9,0.2,1.5
			c0,0.6-0.1,1.1-0.2,1.5c-0.2,0.4-0.4,0.8-0.7,1.1c-0.3,0.3-0.7,0.6-1.1,0.7c-0.4,0.2-0.9,0.3-1.4,0.3c-0.5,0-1-0.1-1.4-0.3
			c-0.4-0.2-0.8-0.4-1.1-0.7c-0.3-0.3-0.5-0.7-0.7-1.1c-0.2-0.4-0.2-0.9-0.2-1.5c0-0.6,0.1-1,0.2-1.5c0.2-0.4,0.4-0.8,0.7-1.1
			s0.7-0.5,1.1-0.7C160.5,44.3,161,44.2,161.5,44.2z M161.5,50.1c0.6,0,1-0.2,1.3-0.6c0.3-0.4,0.4-1,0.4-1.7c0-0.8-0.1-1.3-0.4-1.7
			c-0.3-0.4-0.7-0.6-1.3-0.6c-0.6,0-1,0.2-1.3,0.6s-0.4,1-0.4,1.7s0.1,1.3,0.4,1.7S160.9,50.1,161.5,50.1z"/>
	</g>
	<circle class="st4" cx="200.9" cy="218.2" r="41.5"/>
	<g class="st3">
		<path class="st5" d="M199.6,214.7c-0.1,0.1-0.1,0.2-0.2,0.2c-0.1,0-0.1,0.1-0.2,0.1c-0.1,0-0.2,0-0.3-0.1
			c-0.1-0.1-0.2-0.1-0.4-0.2c-0.2-0.1-0.3-0.2-0.5-0.2c-0.2-0.1-0.5-0.1-0.7-0.1c-0.3,0-0.5,0-0.7,0.1c-0.2,0.1-0.4,0.1-0.5,0.3
			c-0.1,0.1-0.2,0.2-0.3,0.4c-0.1,0.2-0.1,0.3-0.1,0.5c0,0.2,0.1,0.4,0.2,0.6c0.1,0.2,0.3,0.3,0.5,0.4c0.2,0.1,0.5,0.2,0.7,0.3
			c0.3,0.1,0.6,0.2,0.8,0.3s0.6,0.2,0.8,0.3c0.3,0.1,0.5,0.3,0.7,0.5c0.2,0.2,0.4,0.4,0.5,0.7c0.1,0.3,0.2,0.6,0.2,1
			c0,0.4-0.1,0.9-0.2,1.3c-0.2,0.4-0.4,0.7-0.7,1s-0.7,0.5-1.1,0.7c-0.4,0.2-0.9,0.2-1.5,0.2c-0.3,0-0.6,0-0.9-0.1
			c-0.3-0.1-0.6-0.1-0.9-0.3c-0.3-0.1-0.5-0.2-0.8-0.4s-0.5-0.3-0.7-0.5l0.5-0.9c0-0.1,0.1-0.1,0.2-0.2s0.1-0.1,0.2-0.1
			c0.1,0,0.2,0,0.4,0.1c0.1,0.1,0.3,0.2,0.5,0.3c0.2,0.1,0.4,0.2,0.6,0.3c0.2,0.1,0.5,0.1,0.9,0.1c0.5,0,0.9-0.1,1.2-0.4
			c0.3-0.2,0.4-0.6,0.4-1.1c0-0.3-0.1-0.5-0.2-0.6c-0.1-0.2-0.3-0.3-0.5-0.4s-0.5-0.2-0.7-0.3c-0.3-0.1-0.5-0.2-0.8-0.3
			c-0.3-0.1-0.6-0.2-0.8-0.3c-0.3-0.1-0.5-0.3-0.7-0.5c-0.2-0.2-0.4-0.5-0.5-0.8c-0.1-0.3-0.2-0.7-0.2-1.1c0-0.4,0.1-0.7,0.2-1.1
			c0.1-0.3,0.4-0.6,0.6-0.9s0.6-0.5,1-0.6c0.4-0.2,0.9-0.2,1.4-0.2c0.6,0,1.1,0.1,1.6,0.3c0.5,0.2,0.9,0.4,1.3,0.8L199.6,214.7z"/>
	</g>
	<g class="st3">
		<path class="st5" d="M208.7,214.4h-3v8.4h-1.8v-8.4h-3v-1.5h7.8V214.4z"/>
	</g>
	<circle class="st6" cx="44.6" cy="114.8" r="41.5"/>
	<g class="st3">
		<path class="st5" d="M41.6,119.4h-1.4c-0.2,0-0.3,0-0.4-0.1c-0.1-0.1-0.2-0.2-0.2-0.3l-0.7-2h-4.1l-0.7,2c0,0.1-0.1,0.2-0.2,0.3
			c-0.1,0.1-0.2,0.1-0.4,0.1H32l3.9-9.9h1.9L41.6,119.4z M38.4,115.7l-1.2-3.3c-0.1-0.1-0.1-0.3-0.2-0.5c-0.1-0.2-0.1-0.4-0.2-0.6
			c-0.1,0.2-0.1,0.5-0.2,0.7c-0.1,0.2-0.1,0.4-0.2,0.5l-1.2,3.3H38.4z"/>
	</g>
	<g class="st3">
		<path class="st5" d="M43.9,113.6c0.2-0.4,0.5-0.7,0.8-1s0.7-0.4,1.1-0.4c0.3,0,0.6,0.1,0.8,0.2l-0.1,1.3c0,0.1-0.1,0.1-0.1,0.2
			c0,0-0.1,0.1-0.2,0.1c-0.1,0-0.2,0-0.3,0c-0.1,0-0.3,0-0.4,0c-0.2,0-0.4,0-0.5,0.1s-0.3,0.1-0.4,0.2s-0.2,0.2-0.3,0.4
			c-0.1,0.1-0.2,0.3-0.2,0.5v4.3h-1.7v-7h1c0.2,0,0.3,0,0.4,0.1s0.1,0.2,0.1,0.3L43.9,113.6z"/>
		<path class="st5" d="M47.4,119.4v-7h1c0.2,0,0.4,0.1,0.4,0.3l0.1,0.5c0.1-0.1,0.3-0.3,0.4-0.4s0.3-0.2,0.4-0.3s0.3-0.1,0.5-0.2
			s0.4-0.1,0.6-0.1c0.4,0,0.8,0.1,1.1,0.4c0.3,0.2,0.5,0.6,0.6,1c0.1-0.2,0.2-0.4,0.4-0.6c0.2-0.2,0.3-0.3,0.5-0.4s0.4-0.2,0.6-0.2
			c0.2,0,0.4-0.1,0.7-0.1c0.4,0,0.7,0.1,1,0.2s0.6,0.3,0.8,0.5s0.4,0.5,0.5,0.8s0.2,0.7,0.2,1.1v4.5h-1.7v-4.5c0-0.4-0.1-0.8-0.3-1
			c-0.2-0.2-0.5-0.3-0.9-0.3c-0.2,0-0.3,0-0.5,0.1c-0.1,0.1-0.3,0.1-0.4,0.3c-0.1,0.1-0.2,0.3-0.3,0.4c-0.1,0.2-0.1,0.4-0.1,0.6v4.5
			h-1.7v-4.5c0-0.5-0.1-0.8-0.3-1c-0.2-0.2-0.5-0.3-0.8-0.3c-0.2,0-0.5,0.1-0.7,0.2c-0.2,0.1-0.4,0.3-0.6,0.5v5.1H47.4z"/>
	</g>
	<circle class="st7" cx="242.4" cy="114.8" r="41.5"/>
	<g class="st3">
		<path class="st5" d="M225.4,111v2.9h3.7v1.5h-3.7v4h-1.8v-9.9h6.2v1.5H225.4z"/>
	</g>
	<g class="st3">
		<path class="st5" d="M236.5,112.4v7h-1c-0.2,0-0.4-0.1-0.4-0.3l-0.1-0.6c-0.3,0.3-0.6,0.5-1,0.7c-0.3,0.2-0.8,0.3-1.2,0.3
			c-0.4,0-0.7-0.1-1-0.2c-0.3-0.1-0.5-0.3-0.7-0.6c-0.2-0.2-0.4-0.5-0.5-0.8c-0.1-0.3-0.2-0.7-0.2-1.1v-4.5h1.7v4.5
			c0,0.4,0.1,0.8,0.3,1c0.2,0.2,0.5,0.4,0.9,0.4c0.3,0,0.6-0.1,0.8-0.2c0.3-0.1,0.5-0.3,0.7-0.5v-5.1H236.5z"/>
		<path class="st5" d="M240,112.4v7.3c0,0.3,0,0.6-0.1,0.9c-0.1,0.3-0.2,0.5-0.4,0.7c-0.2,0.2-0.4,0.4-0.7,0.5
			c-0.3,0.1-0.6,0.2-1,0.2c-0.2,0-0.3,0-0.4,0s-0.3-0.1-0.4-0.1l0.1-0.9c0-0.1,0.1-0.1,0.1-0.2c0.1,0,0.2,0,0.3,0
			c0.2,0,0.3,0,0.4-0.1s0.2-0.1,0.3-0.2s0.1-0.2,0.1-0.3c0-0.1,0-0.3,0-0.5v-7.3H240z M240.2,110.3c0,0.1,0,0.3-0.1,0.4
			c-0.1,0.1-0.1,0.2-0.2,0.3c-0.1,0.1-0.2,0.2-0.3,0.2c-0.1,0.1-0.3,0.1-0.4,0.1c-0.1,0-0.3,0-0.4-0.1c-0.1-0.1-0.2-0.1-0.3-0.2
			s-0.2-0.2-0.2-0.3c-0.1-0.1-0.1-0.3-0.1-0.4c0-0.2,0-0.3,0.1-0.4c0.1-0.1,0.1-0.2,0.2-0.3s0.2-0.2,0.3-0.2s0.3-0.1,0.4-0.1
			c0.2,0,0.3,0,0.4,0.1c0.1,0.1,0.3,0.1,0.3,0.2c0.1,0.1,0.2,0.2,0.2,0.3C240.2,110.1,240.2,110.2,240.2,110.3z"/>
		<path class="st5" d="M243.7,110.3c0,0.1,0,0.3-0.1,0.4c-0.1,0.1-0.1,0.2-0.2,0.3s-0.2,0.2-0.3,0.2c-0.1,0.1-0.3,0.1-0.4,0.1
			c-0.1,0-0.3,0-0.4-0.1c-0.1-0.1-0.2-0.1-0.3-0.2s-0.2-0.2-0.2-0.3c-0.1-0.1-0.1-0.3-0.1-0.4c0-0.2,0-0.3,0.1-0.4
			c0.1-0.1,0.1-0.2,0.2-0.3s0.2-0.2,0.3-0.2s0.3-0.1,0.4-0.1c0.1,0,0.3,0,0.4,0.1c0.1,0.1,0.2,0.1,0.3,0.2s0.2,0.2,0.2,0.3
			C243.6,110.1,243.7,110.2,243.7,110.3z M243.4,112.4v7h-1.7v-7H243.4z"/>
		<path class="st5" d="M247.5,119.5c-0.6,0-1.1-0.2-1.4-0.5c-0.3-0.3-0.5-0.8-0.5-1.4v-3.9h-0.7c-0.1,0-0.2,0-0.2-0.1
			s-0.1-0.1-0.1-0.3v-0.7l1.1-0.2l0.4-1.9c0-0.1,0.1-0.2,0.1-0.2c0.1,0,0.1-0.1,0.2-0.1h0.9v2.2h1.9v1.2h-1.9v3.8
			c0,0.2,0.1,0.4,0.2,0.5c0.1,0.1,0.3,0.2,0.4,0.2c0.1,0,0.2,0,0.3,0c0.1,0,0.1-0.1,0.2-0.1s0.1-0.1,0.1-0.1c0,0,0.1,0,0.1,0
			c0,0,0.1,0,0.1,0c0,0,0.1,0.1,0.1,0.1l0.5,0.8c-0.2,0.2-0.5,0.4-0.8,0.5C248.2,119.5,247.8,119.5,247.5,119.5z"/>
		<path class="st5" d="M254.5,113.8c0,0.1-0.1,0.1-0.1,0.2c-0.1,0-0.1,0-0.2,0c-0.1,0-0.2,0-0.3-0.1c-0.1,0-0.2-0.1-0.3-0.2
			c-0.1-0.1-0.3-0.1-0.4-0.2s-0.3-0.1-0.6-0.1c-0.3,0-0.6,0.1-0.8,0.2c-0.2,0.1-0.3,0.3-0.3,0.6c0,0.2,0,0.3,0.1,0.4
			c0.1,0.1,0.2,0.2,0.4,0.3c0.2,0.1,0.3,0.1,0.6,0.2s0.4,0.1,0.6,0.2c0.2,0.1,0.4,0.2,0.6,0.2s0.4,0.2,0.5,0.4s0.3,0.3,0.4,0.5
			c0.1,0.2,0.1,0.4,0.1,0.7c0,0.3-0.1,0.6-0.2,0.9c-0.1,0.3-0.3,0.5-0.5,0.7c-0.2,0.2-0.5,0.4-0.9,0.5c-0.3,0.1-0.8,0.2-1.2,0.2
			c-0.2,0-0.5,0-0.7-0.1c-0.2,0-0.5-0.1-0.7-0.2s-0.4-0.2-0.6-0.3c-0.2-0.1-0.3-0.2-0.5-0.3l0.4-0.6c0-0.1,0.1-0.1,0.2-0.2
			s0.2-0.1,0.3-0.1s0.2,0,0.3,0.1c0.1,0.1,0.2,0.1,0.3,0.2s0.3,0.1,0.4,0.2c0.2,0.1,0.4,0.1,0.6,0.1c0.2,0,0.4,0,0.5-0.1
			s0.3-0.1,0.4-0.2c0.1-0.1,0.2-0.2,0.2-0.3s0.1-0.2,0.1-0.3c0-0.2,0-0.3-0.1-0.4c-0.1-0.1-0.2-0.2-0.4-0.3
			c-0.2-0.1-0.3-0.1-0.6-0.2c-0.2-0.1-0.4-0.1-0.6-0.2c-0.2-0.1-0.4-0.2-0.6-0.3c-0.2-0.1-0.4-0.2-0.6-0.4c-0.2-0.2-0.3-0.3-0.4-0.6
			c-0.1-0.2-0.1-0.5-0.1-0.8c0-0.3,0.1-0.6,0.2-0.8s0.3-0.5,0.5-0.7c0.2-0.2,0.5-0.3,0.8-0.5c0.3-0.1,0.7-0.2,1.1-0.2
			c0.5,0,0.9,0.1,1.3,0.2s0.7,0.4,1,0.6L254.5,113.8z"/>
		<path class="st5" d="M262.3,112.4v7h-1c-0.2,0-0.4-0.1-0.4-0.3l-0.1-0.6c-0.3,0.3-0.6,0.5-1,0.7c-0.3,0.2-0.8,0.3-1.2,0.3
			c-0.4,0-0.7-0.1-1-0.2c-0.3-0.1-0.5-0.3-0.7-0.6c-0.2-0.2-0.4-0.5-0.5-0.8c-0.1-0.3-0.2-0.7-0.2-1.1v-4.5h1.7v4.5
			c0,0.4,0.1,0.8,0.3,1c0.2,0.2,0.5,0.4,0.9,0.4c0.3,0,0.6-0.1,0.8-0.2c0.3-0.1,0.5-0.3,0.7-0.5v-5.1H262.3z"/>
	</g>
	<circle class="st8" cx="86.2" cy="218.2" r="41.5"/>
	<g class="st3">
		<path d="M73.7,217.9v4c-0.5,0.4-1,0.6-1.6,0.8c-0.6,0.2-1.2,0.3-1.8,0.3c-0.8,0-1.5-0.1-2.2-0.4c-0.7-0.2-1.2-0.6-1.7-1
			c-0.5-0.4-0.8-1-1.1-1.6c-0.2-0.6-0.4-1.3-0.4-2c0-0.7,0.1-1.4,0.4-2c0.2-0.6,0.6-1.2,1-1.6c0.4-0.4,1-0.8,1.6-1
			c0.6-0.2,1.3-0.4,2.1-0.4c0.4,0,0.8,0,1.1,0.1c0.3,0.1,0.7,0.2,1,0.3c0.3,0.1,0.6,0.2,0.8,0.4c0.2,0.2,0.5,0.3,0.7,0.5l-0.5,0.8
			c-0.1,0.1-0.2,0.2-0.3,0.2s-0.3,0-0.4-0.1c-0.2-0.1-0.3-0.2-0.5-0.3c-0.1-0.1-0.3-0.2-0.5-0.2c-0.2-0.1-0.4-0.1-0.6-0.2
			c-0.2,0-0.5-0.1-0.8-0.1c-0.5,0-0.9,0.1-1.3,0.2c-0.4,0.2-0.7,0.4-1,0.7c-0.3,0.3-0.5,0.7-0.6,1.1c-0.1,0.4-0.2,0.9-0.2,1.4
			c0,0.6,0.1,1.1,0.2,1.5c0.2,0.4,0.4,0.8,0.7,1.1c0.3,0.3,0.6,0.5,1.1,0.7c0.4,0.2,0.9,0.2,1.4,0.2c0.4,0,0.7,0,1-0.1
			c0.3-0.1,0.6-0.2,0.8-0.3v-1.8h-1.2c-0.1,0-0.2,0-0.3-0.1c-0.1-0.1-0.1-0.1-0.1-0.2v-1H73.7z"/>
	</g>
	<g class="st3">
		<path d="M78.3,215.7c0.5,0,1,0.1,1.4,0.3c0.4,0.2,0.8,0.4,1.1,0.7c0.3,0.3,0.5,0.7,0.7,1.1c0.2,0.4,0.2,0.9,0.2,1.5
			c0,0.6-0.1,1.1-0.2,1.5c-0.2,0.4-0.4,0.8-0.7,1.1c-0.3,0.3-0.7,0.6-1.1,0.7c-0.4,0.2-0.9,0.3-1.4,0.3c-0.5,0-1-0.1-1.4-0.3
			c-0.4-0.2-0.8-0.4-1.1-0.7c-0.3-0.3-0.5-0.7-0.7-1.1c-0.2-0.4-0.2-0.9-0.2-1.5c0-0.6,0.1-1,0.2-1.5c0.2-0.4,0.4-0.8,0.7-1.1
			c0.3-0.3,0.7-0.5,1.1-0.7C77.3,215.8,77.7,215.7,78.3,215.7z M78.3,221.6c0.6,0,1-0.2,1.3-0.6s0.4-1,0.4-1.7
			c0-0.8-0.1-1.3-0.4-1.7c-0.3-0.4-0.7-0.6-1.3-0.6c-0.6,0-1,0.2-1.3,0.6c-0.3,0.4-0.4,1-0.4,1.7s0.1,1.3,0.4,1.7
			C77.2,221.4,77.7,221.6,78.3,221.6z"/>
	</g>
	<g class="st3">
		<path d="M86.1,215.7c0.5,0,1,0.1,1.4,0.3c0.4,0.2,0.8,0.4,1.1,0.7c0.3,0.3,0.5,0.7,0.7,1.1c0.2,0.4,0.2,0.9,0.2,1.5
			c0,0.6-0.1,1.1-0.2,1.5c-0.2,0.4-0.4,0.8-0.7,1.1c-0.3,0.3-0.7,0.6-1.1,0.7c-0.4,0.2-0.9,0.3-1.4,0.3c-0.5,0-1-0.1-1.4-0.3
			c-0.4-0.2-0.8-0.4-1.1-0.7c-0.3-0.3-0.5-0.7-0.7-1.1c-0.2-0.4-0.2-0.9-0.2-1.5c0-0.6,0.1-1,0.2-1.5c0.2-0.4,0.4-0.8,0.7-1.1
			c0.3-0.3,0.7-0.5,1.1-0.7C85.1,215.8,85.6,215.7,86.1,215.7z M86.1,221.6c0.6,0,1-0.2,1.3-0.6s0.4-1,0.4-1.7
			c0-0.8-0.1-1.3-0.4-1.7c-0.3-0.4-0.7-0.6-1.3-0.6c-0.6,0-1,0.2-1.3,0.6c-0.3,0.4-0.4,1-0.4,1.7s0.1,1.3,0.4,1.7
			C85.1,221.4,85.5,221.6,86.1,221.6z"/>
	</g>
	<g class="st3">
		<path d="M96.9,216v0.6c0,0.2-0.1,0.3-0.4,0.4l-0.6,0.1c0.1,0.2,0.1,0.5,0.1,0.8c0,0.3-0.1,0.7-0.2,0.9c-0.1,0.3-0.3,0.5-0.6,0.7
			c-0.2,0.2-0.5,0.3-0.9,0.5c-0.3,0.1-0.7,0.2-1.1,0.2c-0.1,0-0.3,0-0.4,0s-0.3,0-0.4-0.1c-0.2,0.1-0.3,0.3-0.3,0.4
			c0,0.1,0.1,0.2,0.2,0.3c0.1,0.1,0.3,0.1,0.5,0.1s0.5,0,0.7,0.1s0.6,0,0.8,0c0.3,0,0.6,0.1,0.8,0.1s0.5,0.1,0.7,0.3
			s0.4,0.3,0.5,0.5c0.1,0.2,0.2,0.5,0.2,0.8c0,0.3-0.1,0.6-0.2,0.9c-0.2,0.3-0.4,0.6-0.7,0.8c-0.3,0.2-0.6,0.4-1.1,0.5
			s-0.9,0.2-1.4,0.2c-0.5,0-1-0.1-1.4-0.2s-0.7-0.2-1-0.4c-0.3-0.2-0.5-0.4-0.6-0.6s-0.2-0.5-0.2-0.7c0-0.3,0.1-0.6,0.3-0.8
			s0.5-0.4,0.8-0.5c-0.2-0.1-0.3-0.2-0.4-0.4c-0.1-0.2-0.2-0.4-0.2-0.6c0-0.1,0-0.2,0.1-0.3s0.1-0.2,0.2-0.3
			c0.1-0.1,0.2-0.2,0.3-0.3c0.1-0.1,0.2-0.2,0.4-0.3c-0.4-0.2-0.6-0.4-0.8-0.8s-0.3-0.7-0.3-1.1c0-0.3,0.1-0.7,0.2-0.9
			s0.3-0.5,0.6-0.7c0.2-0.2,0.5-0.3,0.9-0.5c0.3-0.1,0.7-0.2,1.1-0.2c0.3,0,0.6,0,0.8,0.1s0.5,0.2,0.7,0.3H96.9z M95.2,223.1
			c0-0.1,0-0.2-0.1-0.3s-0.2-0.2-0.3-0.2s-0.3-0.1-0.5-0.1c-0.2,0-0.4,0-0.6-0.1c-0.2,0-0.4,0-0.7,0c-0.2,0-0.4,0-0.7-0.1
			c-0.2,0.1-0.3,0.2-0.5,0.4c-0.1,0.1-0.2,0.3-0.2,0.5c0,0.1,0,0.2,0.1,0.3c0.1,0.1,0.2,0.2,0.3,0.3c0.1,0.1,0.3,0.1,0.5,0.2
			c0.2,0,0.5,0.1,0.8,0.1c0.3,0,0.6,0,0.8-0.1c0.2,0,0.4-0.1,0.6-0.2s0.3-0.2,0.3-0.3C95.2,223.4,95.2,223.3,95.2,223.1z
			 M93.3,219.1c0.2,0,0.4,0,0.5-0.1c0.2-0.1,0.3-0.1,0.4-0.2c0.1-0.1,0.2-0.2,0.2-0.4c0.1-0.1,0.1-0.3,0.1-0.5
			c0-0.3-0.1-0.6-0.3-0.8c-0.2-0.2-0.5-0.3-0.9-0.3s-0.7,0.1-0.9,0.3c-0.2,0.2-0.3,0.5-0.3,0.8c0,0.2,0,0.3,0.1,0.5
			c0.1,0.1,0.1,0.3,0.2,0.4s0.2,0.2,0.4,0.2C93,219.1,93.1,219.1,93.3,219.1z"/>
		<path d="M99.7,212.7v10.1H98v-10.1H99.7z"/>
		<path d="M102.7,219.5c0,0.4,0.1,0.7,0.2,0.9c0.1,0.3,0.2,0.5,0.4,0.6c0.2,0.2,0.4,0.3,0.6,0.4s0.5,0.1,0.7,0.1s0.5,0,0.7-0.1
			c0.2-0.1,0.4-0.1,0.5-0.2c0.1-0.1,0.3-0.1,0.4-0.2c0.1-0.1,0.2-0.1,0.3-0.1c0.1,0,0.2,0.1,0.3,0.2l0.5,0.6
			c-0.2,0.2-0.4,0.4-0.6,0.5c-0.2,0.1-0.5,0.3-0.7,0.4s-0.5,0.2-0.8,0.2c-0.3,0-0.5,0.1-0.8,0.1c-0.5,0-0.9-0.1-1.4-0.2
			c-0.4-0.2-0.8-0.4-1.1-0.7s-0.6-0.7-0.7-1.2c-0.2-0.5-0.3-1-0.3-1.6c0-0.5,0.1-0.9,0.2-1.3c0.2-0.4,0.4-0.8,0.7-1.1
			c0.3-0.3,0.6-0.6,1.1-0.7c0.4-0.2,0.9-0.3,1.4-0.3c0.4,0,0.8,0.1,1.2,0.2c0.4,0.1,0.7,0.3,1,0.6s0.5,0.6,0.6,1s0.2,0.8,0.2,1.3
			c0,0.3,0,0.4-0.1,0.5s-0.2,0.1-0.3,0.1H102.7z M105.9,218.5c0-0.2,0-0.4-0.1-0.6s-0.2-0.4-0.3-0.5c-0.1-0.1-0.3-0.3-0.5-0.3
			s-0.4-0.1-0.7-0.1c-0.5,0-0.9,0.1-1.1,0.4s-0.5,0.7-0.5,1.2H105.9z"/>
	</g>
</g>
</svg>
