<svg xmlns="http://www.w3.org/2000/svg" viewBox="0 0 287 265"><defs><style>.cls-1,.cls-2{fill:none;}.cls-1,.cls-12,.cls-14,.cls-2,.cls-3,.cls-6,.cls-9{stroke:#e6e6e6;stroke-miterlimit:10;}.cls-1{stroke-width:2.22px;}.cls-2{stroke-width:1.9px;}.cls-3{fill:#9c3;}.cls-12,.cls-14,.cls-3,.cls-6,.cls-9{stroke-width:4.37px;}.cls-4,.cls-7{font-size:13.65px;}.cls-10,.cls-4,.cls-7{font-family:Lato;font-weight:700;}.cls-5{letter-spacing:-0.01em;}.cls-6{fill:#03234b;}.cls-10,.cls-7{fill:#fff;}.cls-8{letter-spacing:-0.03em;}.cls-9{fill:#0083ad;}.cls-10{font-size:13.67px;}.cls-11{letter-spacing:0em;}.cls-12{fill:#d72c2f;}.cls-13{letter-spacing:-0.03em;}.cls-14{fill:#eecc2f;}.cls-15{letter-spacing:-0.01em;}.cls-16{letter-spacing:0em;}</style></defs><g id="upper"><line class="cls-1" x1="83.52" y1="219.71" x2="147.78" y2="47.69"/><line class="cls-1" x1="209.36" y1="222.81" x2="146.18" y2="49.01"/><line class="cls-1" x1="83.33" y1="218.67" x2="248.13" y2="114.32"/><line class="cls-1" x1="45.27" y1="114.34" x2="209.36" y2="222.81"/><line class="cls-1" x1="41.07" y1="113.43" x2="252.68" y2="115.94"/><ellipse class="cls-2" cx="146.46" cy="141.41" rx="103.76" ry="75.77"/><circle class="cls-3" cx="146.46" cy="46.76" r="41.51"/><text class="cls-4" transform="translate(127.5 51.33)">Lina<tspan class="cls-5" x="25.18" y="0">r</tspan><tspan x="30.08" y="0">o</tspan></text><circle class="cls-6" cx="200.85" cy="218.24" r="41.51"/><text class="cls-7" transform="translate(193.23 222.8)">S<tspan class="cls-8" x="7.49" y="0">T</tspan></text><circle class="cls-9" cx="44.64" cy="114.83" r="41.51"/><text class="cls-10" transform="translate(32.03 119.4)"><tspan class="cls-11">A</tspan><tspan x="9.48" y="0">rm</tspan></text><circle class="cls-12" cx="242.36" cy="114.83" r="41.51"/><text class="cls-10" transform="translate(222.41 119.4)"><tspan class="cls-13">F</tspan><tspan x="7.26" y="0">ujitsu</tspan></text><circle class="cls-14" cx="86.15" cy="218.24" r="41.51"/><text class="cls-4" transform="translate(64.49 222.8)"><tspan class="cls-15">G</tspan><tspan x="9.83" y="0">o</tspan><tspan class="cls-16" x="17.67" y="0">o</tspan><tspan x="25.46" y="0">gle</tspan></text></g></svg>