<svg xmlns="http://www.w3.org/2000/svg" viewBox="0 0 290 264"><defs><style>.cls-1,.cls-2{fill:none;}.cls-1,.cls-12,.cls-15,.cls-2,.cls-3,.cls-6,.cls-9{stroke:#e6e6e6;stroke-miterlimit:10;}.cls-1{stroke-width:2.22px;}.cls-2{stroke-width:1.9px;}.cls-3{fill:#9c3;}.cls-12,.cls-15,.cls-3,.cls-6,.cls-9{stroke-width:4.37px;}.cls-4,.cls-7{font-size:13.65px;}.cls-10,.cls-4,.cls-7{font-family:Lato;font-weight:700;}.cls-5{letter-spacing:-0.01em;}.cls-6{fill:#03234b;}.cls-10,.cls-7{fill:#fff;}.cls-8{letter-spacing:-0.03em;}.cls-9{fill:#0083ad;}.cls-10{font-size:13.67px;}.cls-11{letter-spacing:0em;}.cls-12{fill:#eecc2f;}.cls-13{letter-spacing:-0.01em;}.cls-14{letter-spacing:0em;}.cls-15{fill:#346ab8;}.cls-16{letter-spacing:-0.01em;}.cls-17{letter-spacing:0em;}.cls-18{letter-spacing:-0.01em;}</style></defs><g id="upper"><line class="cls-1" x1="83.36" y1="218.93" x2="147.62" y2="46.91"/><line class="cls-1" x1="209.19" y1="222.03" x2="146.02" y2="48.23"/><line class="cls-1" x1="83.16" y1="217.89" x2="247.96" y2="113.54"/><line class="cls-1" x1="45.1" y1="113.56" x2="209.19" y2="222.03"/><line class="cls-1" x1="40.91" y1="112.65" x2="252.51" y2="115.16"/><ellipse class="cls-2" cx="146.3" cy="140.63" rx="103.76" ry="75.77"/><circle class="cls-3" cx="146.3" cy="45.98" r="41.51"/><text class="cls-4" transform="translate(127.34 50.55)">Lina<tspan class="cls-5" x="25.18" y="0">r</tspan><tspan x="30.08" y="0">o</tspan></text><circle class="cls-6" cx="200.68" cy="218.02" r="41.51"/><text class="cls-7" transform="translate(193.07 222.58)">S<tspan class="cls-8" x="7.49" y="0">T</tspan></text><circle class="cls-9" cx="44.47" cy="114.05" r="41.51"/><text class="cls-10" transform="translate(31.86 118.62)"><tspan class="cls-11">A</tspan><tspan x="9.48" y="0">rm</tspan></text><circle class="cls-12" cx="245.53" cy="115.08" r="41.51"/><text class="cls-4" transform="translate(223.87 119.65)"><tspan class="cls-13">G</tspan><tspan x="9.83" y="0">o</tspan><tspan class="cls-14" x="17.67" y="0">o</tspan><tspan x="25.46" y="0">gle</tspan></text><circle class="cls-15" cx="87.7" cy="218.02" r="41.51"/><text class="cls-10" transform="translate(54.99 222.59)"><tspan class="cls-16">Q</tspan><tspan class="cls-17" x="10.96" y="0">ual</tspan><tspan class="cls-18" x="29" y="0">c</tspan><tspan x="35.47" y="0">omm</tspan></text></g></svg>