<?xml version="1.0" encoding="utf-8"?>
<!-- Generator: Adobe Illustrator 25.2.3, SVG Export Plug-In . SVG Version: 6.00 Build 0)  -->
<svg version="1.1" id="Layer_1" xmlns="http://www.w3.org/2000/svg" xmlns:xlink="http://www.w3.org/1999/xlink" x="0px" y="0px"
	 viewBox="0 0 290 264" style="enable-background:new 0 0 290 264;" xml:space="preserve">
<style type="text/css">
	.st0{fill:none;stroke:#E6E6E6;stroke-width:2.22;stroke-miterlimit:10;}
	.st1{fill:none;stroke:#E6E6E6;stroke-width:1.9;stroke-miterlimit:10;}
	.st2{fill:#99CC33;stroke:#E6E6E6;stroke-width:4.37;stroke-miterlimit:10;}
	.st3{enable-background:new    ;}
	.st4{fill:#03234B;stroke:#E6E6E6;stroke-width:4.37;stroke-miterlimit:10;}
	.st5{fill:#FFFFFF;}
	.st6{fill:#0083AD;stroke:#E6E6E6;stroke-width:4.37;stroke-miterlimit:10;}
	.st7{fill:#EECC2F;stroke:#E6E6E6;stroke-width:4.37;stroke-miterlimit:10;}
	.st8{fill:#346AB8;stroke:#E6E6E6;stroke-width:4.37;stroke-miterlimit:10;}
</style>
<g id="upper">
	<line class="st0" x1="83.4" y1="218.9" x2="147.6" y2="46.9"/>
	<line class="st0" x1="209.2" y1="222" x2="146" y2="48.2"/>
	<line class="st0" x1="83.2" y1="217.9" x2="248" y2="113.5"/>
	<line class="st0" x1="45.1" y1="113.6" x2="209.2" y2="222"/>
	<line class="st0" x1="40.9" y1="112.6" x2="252.5" y2="115.2"/>
	<ellipse class="st1" cx="146.3" cy="140.6" rx="103.8" ry="75.8"/>
	<circle class="st2" cx="146.3" cy="46" r="41.5"/>
	<g class="st3">
		<path d="M134.2,49v1.5h-5.8v-9.9h1.8V49H134.2z"/>
		<path d="M137.2,41.5c0,0.1,0,0.3-0.1,0.4c-0.1,0.1-0.1,0.2-0.2,0.3c-0.1,0.1-0.2,0.2-0.3,0.2s-0.3,0.1-0.4,0.1
			c-0.1,0-0.3,0-0.4-0.1c-0.1-0.1-0.2-0.1-0.3-0.2c-0.1-0.1-0.2-0.2-0.2-0.3c-0.1-0.1-0.1-0.3-0.1-0.4c0-0.2,0-0.3,0.1-0.4
			c0.1-0.1,0.1-0.2,0.2-0.3s0.2-0.2,0.3-0.2c0.1-0.1,0.3-0.1,0.4-0.1c0.2,0,0.3,0,0.4,0.1s0.2,0.1,0.3,0.2c0.1,0.1,0.2,0.2,0.2,0.3
			C137.2,41.2,137.2,41.4,137.2,41.5z M137,43.5v7h-1.7v-7H137z"/>
		<path d="M140.3,44.4c0.1-0.1,0.3-0.3,0.4-0.4c0.2-0.1,0.3-0.2,0.5-0.3s0.4-0.2,0.6-0.2s0.4-0.1,0.7-0.1c0.4,0,0.7,0.1,1,0.2
			c0.3,0.1,0.5,0.3,0.7,0.5c0.2,0.2,0.3,0.5,0.5,0.8c0.1,0.3,0.2,0.7,0.2,1.1v4.5h-1.7v-4.5c0-0.4-0.1-0.8-0.3-1
			c-0.2-0.2-0.5-0.4-0.9-0.4c-0.3,0-0.6,0.1-0.8,0.2s-0.5,0.3-0.7,0.5v5.1h-1.7v-7h1c0.2,0,0.4,0.1,0.4,0.3L140.3,44.4z"/>
		<path d="M146.3,44.5c0.8-0.7,1.8-1.1,2.9-1.1c0.4,0,0.8,0.1,1.1,0.2s0.6,0.3,0.8,0.6c0.2,0.2,0.4,0.5,0.5,0.9
			c0.1,0.3,0.2,0.7,0.2,1.1v4.4H151c-0.2,0-0.3,0-0.4-0.1c-0.1,0-0.2-0.1-0.2-0.3l-0.2-0.5c-0.2,0.2-0.4,0.3-0.5,0.4
			c-0.2,0.1-0.3,0.2-0.5,0.3c-0.2,0.1-0.4,0.1-0.6,0.2c-0.2,0-0.4,0.1-0.7,0.1c-0.3,0-0.6,0-0.8-0.1c-0.2-0.1-0.5-0.2-0.6-0.4
			c-0.2-0.2-0.3-0.4-0.4-0.6c-0.1-0.2-0.2-0.5-0.2-0.8c0-0.2,0-0.4,0.1-0.5c0.1-0.2,0.2-0.3,0.3-0.5s0.3-0.3,0.5-0.5
			c0.2-0.1,0.5-0.3,0.8-0.4s0.7-0.2,1.1-0.3c0.4-0.1,0.9-0.1,1.4-0.1v-0.4c0-0.5-0.1-0.8-0.3-1c-0.2-0.2-0.5-0.3-0.9-0.3
			c-0.3,0-0.5,0-0.7,0.1c-0.2,0.1-0.3,0.1-0.5,0.2c-0.1,0.1-0.3,0.2-0.4,0.2c-0.1,0.1-0.2,0.1-0.4,0.1c-0.1,0-0.2,0-0.3-0.1
			s-0.1-0.1-0.2-0.2L146.3,44.5z M150.1,47.6c-0.5,0-0.9,0.1-1.2,0.1s-0.6,0.1-0.8,0.2s-0.3,0.2-0.4,0.3c-0.1,0.1-0.1,0.3-0.1,0.4
			c0,0.3,0.1,0.5,0.3,0.6c0.2,0.1,0.4,0.2,0.7,0.2c0.3,0,0.6-0.1,0.9-0.2c0.3-0.1,0.5-0.3,0.7-0.6V47.6z"/>
	</g>
	<g class="st3">
		<path d="M154.9,44.8c0.2-0.4,0.5-0.7,0.8-1c0.3-0.2,0.7-0.4,1.1-0.4c0.3,0,0.6,0.1,0.8,0.2l-0.1,1.3c0,0.1-0.1,0.1-0.1,0.2
			c0,0-0.1,0.1-0.2,0.1c-0.1,0-0.2,0-0.3,0c-0.1,0-0.3,0-0.4,0c-0.2,0-0.4,0-0.5,0.1c-0.1,0.1-0.3,0.1-0.4,0.2s-0.2,0.2-0.3,0.4
			s-0.2,0.3-0.2,0.5v4.3h-1.7v-7h1c0.2,0,0.3,0,0.4,0.1s0.1,0.2,0.1,0.3L154.9,44.8z"/>
	</g>
	<g class="st3">
		<path d="M161.4,43.4c0.5,0,1,0.1,1.4,0.3c0.4,0.2,0.8,0.4,1.1,0.7s0.5,0.7,0.7,1.1c0.2,0.4,0.2,0.9,0.2,1.5c0,0.6-0.1,1.1-0.2,1.5
			c-0.2,0.4-0.4,0.8-0.7,1.1c-0.3,0.3-0.7,0.6-1.1,0.7c-0.4,0.2-0.9,0.3-1.4,0.3c-0.5,0-1-0.1-1.4-0.3c-0.4-0.2-0.8-0.4-1.1-0.7
			c-0.3-0.3-0.5-0.7-0.7-1.1c-0.2-0.4-0.2-0.9-0.2-1.5c0-0.6,0.1-1,0.2-1.5c0.2-0.4,0.4-0.8,0.7-1.1c0.3-0.3,0.7-0.5,1.1-0.7
			C160.4,43.5,160.8,43.4,161.4,43.4z M161.4,49.4c0.6,0,1-0.2,1.3-0.6c0.3-0.4,0.4-1,0.4-1.7c0-0.8-0.1-1.3-0.4-1.7
			c-0.3-0.4-0.7-0.6-1.3-0.6c-0.6,0-1,0.2-1.3,0.6c-0.3,0.4-0.4,1-0.4,1.7s0.1,1.3,0.4,1.7C160.3,49.2,160.8,49.4,161.4,49.4z"/>
	</g>
	<circle class="st4" cx="200.7" cy="218" r="41.5"/>
	<g class="st3">
		<path class="st5" d="M199.4,214.5c-0.1,0.1-0.1,0.2-0.2,0.2c-0.1,0-0.1,0.1-0.2,0.1c-0.1,0-0.2,0-0.3-0.1
			c-0.1-0.1-0.2-0.1-0.4-0.2c-0.2-0.1-0.3-0.2-0.5-0.2c-0.2-0.1-0.5-0.1-0.7-0.1c-0.3,0-0.5,0-0.7,0.1c-0.2,0.1-0.4,0.1-0.5,0.3
			c-0.1,0.1-0.2,0.2-0.3,0.4c-0.1,0.2-0.1,0.3-0.1,0.5c0,0.2,0.1,0.4,0.2,0.6s0.3,0.3,0.5,0.4s0.5,0.2,0.7,0.3
			c0.3,0.1,0.6,0.2,0.8,0.3s0.6,0.2,0.8,0.3c0.3,0.1,0.5,0.3,0.7,0.5c0.2,0.2,0.4,0.4,0.5,0.7c0.1,0.3,0.2,0.6,0.2,1
			c0,0.4-0.1,0.9-0.2,1.3c-0.2,0.4-0.4,0.7-0.7,1c-0.3,0.3-0.7,0.5-1.1,0.7c-0.4,0.2-0.9,0.2-1.5,0.2c-0.3,0-0.6,0-0.9-0.1
			c-0.3-0.1-0.6-0.1-0.9-0.3c-0.3-0.1-0.5-0.2-0.8-0.4c-0.2-0.2-0.5-0.3-0.7-0.5l0.5-0.9c0-0.1,0.1-0.1,0.2-0.2s0.2-0.1,0.2-0.1
			c0.1,0,0.2,0,0.4,0.1c0.1,0.1,0.3,0.2,0.5,0.3c0.2,0.1,0.4,0.2,0.6,0.3c0.2,0.1,0.5,0.1,0.9,0.1c0.5,0,0.9-0.1,1.2-0.4
			c0.3-0.2,0.4-0.6,0.4-1.1c0-0.3-0.1-0.5-0.2-0.6c-0.1-0.2-0.3-0.3-0.5-0.4s-0.5-0.2-0.7-0.3c-0.3-0.1-0.5-0.2-0.8-0.3
			c-0.3-0.1-0.6-0.2-0.8-0.3c-0.3-0.1-0.5-0.3-0.7-0.5c-0.2-0.2-0.4-0.5-0.5-0.8c-0.1-0.3-0.2-0.7-0.2-1.1c0-0.4,0.1-0.7,0.2-1.1
			c0.1-0.3,0.4-0.6,0.6-0.9c0.3-0.3,0.6-0.5,1-0.6c0.4-0.2,0.9-0.2,1.4-0.2c0.6,0,1.1,0.1,1.6,0.3c0.5,0.2,0.9,0.4,1.3,0.8
			L199.4,214.5z"/>
	</g>
	<g class="st3">
		<path class="st5" d="M208.6,214.2h-3v8.4h-1.8v-8.4h-3v-1.5h7.8V214.2z"/>
	</g>
	<circle class="st6" cx="44.5" cy="114" r="41.5"/>
	<g class="st3">
		<path class="st5" d="M41.4,118.6H40c-0.2,0-0.3,0-0.4-0.1c-0.1-0.1-0.2-0.2-0.2-0.3l-0.7-2h-4.1l-0.7,2c0,0.1-0.1,0.2-0.2,0.3
			c-0.1,0.1-0.2,0.1-0.4,0.1h-1.4l3.9-9.9h1.9L41.4,118.6z M38.2,114.9l-1.2-3.3c-0.1-0.1-0.1-0.3-0.2-0.5c-0.1-0.2-0.1-0.4-0.2-0.6
			c-0.1,0.2-0.1,0.5-0.2,0.7c-0.1,0.2-0.1,0.4-0.2,0.5l-1.2,3.3H38.2z"/>
	</g>
	<g class="st3">
		<path class="st5" d="M43.8,112.8c0.2-0.4,0.5-0.7,0.8-1s0.7-0.4,1.1-0.4c0.3,0,0.6,0.1,0.8,0.2l-0.1,1.3c0,0.1-0.1,0.1-0.1,0.2
			c0,0-0.1,0.1-0.2,0.1c-0.1,0-0.2,0-0.3,0c-0.1,0-0.3,0-0.4,0c-0.2,0-0.4,0-0.5,0.1s-0.3,0.1-0.4,0.2s-0.2,0.2-0.3,0.4
			c-0.1,0.1-0.2,0.3-0.2,0.5v4.3h-1.7v-7h1c0.2,0,0.3,0,0.4,0.1s0.1,0.2,0.1,0.3L43.8,112.8z"/>
		<path class="st5" d="M47.3,118.6v-7h1c0.2,0,0.4,0.1,0.4,0.3l0.1,0.5c0.1-0.1,0.3-0.3,0.4-0.4s0.3-0.2,0.4-0.3s0.3-0.1,0.5-0.2
			s0.4-0.1,0.6-0.1c0.4,0,0.8,0.1,1.1,0.4c0.3,0.2,0.5,0.6,0.6,1c0.1-0.2,0.2-0.4,0.4-0.6c0.2-0.2,0.3-0.3,0.5-0.4s0.4-0.2,0.6-0.2
			c0.2,0,0.4-0.1,0.7-0.1c0.4,0,0.7,0.1,1,0.2s0.6,0.3,0.8,0.5s0.4,0.5,0.5,0.8s0.2,0.7,0.2,1.1v4.5h-1.7v-4.5c0-0.4-0.1-0.8-0.3-1
			c-0.2-0.2-0.5-0.3-0.9-0.3c-0.2,0-0.3,0-0.5,0.1c-0.1,0.1-0.3,0.1-0.4,0.3c-0.1,0.1-0.2,0.3-0.3,0.4c-0.1,0.2-0.1,0.4-0.1,0.6v4.5
			h-1.7v-4.5c0-0.5-0.1-0.8-0.3-1c-0.2-0.2-0.5-0.3-0.8-0.3c-0.2,0-0.5,0.1-0.7,0.2c-0.2,0.1-0.4,0.3-0.6,0.5v5.1H47.3z"/>
	</g>
	
		<ellipse transform="matrix(0.1602 -0.9871 0.9871 0.1602 92.6064 339.0058)" class="st7" cx="245.5" cy="115.1" rx="41.5" ry="41.5"/>
	<g class="st3">
		<path d="M233.1,114.7v4c-0.5,0.4-1,0.6-1.6,0.8c-0.6,0.2-1.2,0.3-1.8,0.3c-0.8,0-1.5-0.1-2.2-0.4c-0.7-0.2-1.2-0.6-1.7-1
			c-0.5-0.4-0.8-1-1.1-1.6c-0.2-0.6-0.4-1.3-0.4-2c0-0.7,0.1-1.4,0.4-2c0.2-0.6,0.6-1.2,1-1.6c0.4-0.4,1-0.8,1.6-1
			c0.6-0.2,1.3-0.4,2.1-0.4c0.4,0,0.8,0,1.1,0.1c0.3,0.1,0.7,0.2,1,0.3c0.3,0.1,0.6,0.2,0.8,0.4c0.2,0.2,0.5,0.3,0.7,0.5l-0.5,0.8
			c-0.1,0.1-0.2,0.2-0.3,0.2s-0.3,0-0.4-0.1c-0.2-0.1-0.3-0.2-0.5-0.3c-0.1-0.1-0.3-0.2-0.5-0.2c-0.2-0.1-0.4-0.1-0.6-0.2
			c-0.2,0-0.5-0.1-0.8-0.1c-0.5,0-0.9,0.1-1.3,0.2c-0.4,0.2-0.7,0.4-1,0.7c-0.3,0.3-0.5,0.7-0.6,1.1c-0.1,0.4-0.2,0.9-0.2,1.4
			c0,0.6,0.1,1.1,0.2,1.5c0.2,0.4,0.4,0.8,0.7,1.1c0.3,0.3,0.6,0.5,1.1,0.7c0.4,0.2,0.9,0.2,1.4,0.2c0.4,0,0.7,0,1-0.1
			c0.3-0.1,0.6-0.2,0.8-0.3v-1.8h-1.2c-0.1,0-0.2,0-0.3-0.1c-0.1-0.1-0.1-0.1-0.1-0.2v-1H233.1z"/>
	</g>
	<g class="st3">
		<path d="M237.6,112.5c0.5,0,1,0.1,1.4,0.3c0.4,0.2,0.8,0.4,1.1,0.7c0.3,0.3,0.5,0.7,0.7,1.1c0.2,0.4,0.2,0.9,0.2,1.5
			c0,0.6-0.1,1.1-0.2,1.5c-0.2,0.4-0.4,0.8-0.7,1.1c-0.3,0.3-0.7,0.6-1.1,0.7c-0.4,0.2-0.9,0.3-1.4,0.3c-0.5,0-1-0.1-1.4-0.3
			c-0.4-0.2-0.8-0.4-1.1-0.7c-0.3-0.3-0.5-0.7-0.7-1.1c-0.2-0.4-0.2-0.9-0.2-1.5c0-0.6,0.1-1,0.2-1.5c0.2-0.4,0.4-0.8,0.7-1.1
			s0.7-0.5,1.1-0.7C236.6,112.6,237.1,112.5,237.6,112.5z M237.6,118.5c0.6,0,1-0.2,1.3-0.6c0.3-0.4,0.4-1,0.4-1.7
			c0-0.8-0.1-1.3-0.4-1.7c-0.3-0.4-0.7-0.6-1.3-0.6c-0.6,0-1,0.2-1.3,0.6s-0.4,1-0.4,1.7s0.1,1.3,0.4,1.7S237,118.5,237.6,118.5z"/>
	</g>
	<g class="st3">
		<path d="M245.5,112.5c0.5,0,1,0.1,1.4,0.3c0.4,0.2,0.8,0.4,1.1,0.7c0.3,0.3,0.5,0.7,0.7,1.1c0.2,0.4,0.2,0.9,0.2,1.5
			c0,0.6-0.1,1.1-0.2,1.5c-0.2,0.4-0.4,0.8-0.7,1.1c-0.3,0.3-0.7,0.6-1.1,0.7c-0.4,0.2-0.9,0.3-1.4,0.3c-0.5,0-1-0.1-1.4-0.3
			c-0.4-0.2-0.8-0.4-1.1-0.7c-0.3-0.3-0.5-0.7-0.7-1.1c-0.2-0.4-0.2-0.9-0.2-1.5c0-0.6,0.1-1,0.2-1.5c0.2-0.4,0.4-0.8,0.7-1.1
			s0.7-0.5,1.1-0.7C244.5,112.6,244.9,112.5,245.5,112.5z M245.5,118.5c0.6,0,1-0.2,1.3-0.6c0.3-0.4,0.4-1,0.4-1.7
			c0-0.8-0.1-1.3-0.4-1.7c-0.3-0.4-0.7-0.6-1.3-0.6c-0.6,0-1,0.2-1.3,0.6s-0.4,1-0.4,1.7s0.1,1.3,0.4,1.7S244.9,118.5,245.5,118.5z"
			/>
	</g>
	<g class="st3">
		<path d="M256.3,112.9v0.6c0,0.2-0.1,0.3-0.4,0.4l-0.6,0.1c0.1,0.2,0.1,0.5,0.1,0.8c0,0.3-0.1,0.7-0.2,0.9
			c-0.1,0.3-0.3,0.5-0.6,0.7c-0.2,0.2-0.5,0.3-0.9,0.5c-0.3,0.1-0.7,0.2-1.1,0.2c-0.1,0-0.3,0-0.4,0c-0.1,0-0.3,0-0.4-0.1
			c-0.2,0.1-0.3,0.3-0.3,0.4c0,0.1,0.1,0.2,0.2,0.3c0.1,0.1,0.3,0.1,0.5,0.1s0.5,0,0.7,0.1c0.3,0,0.6,0,0.8,0c0.3,0,0.6,0.1,0.8,0.1
			c0.3,0.1,0.5,0.1,0.7,0.3s0.4,0.3,0.5,0.5c0.1,0.2,0.2,0.5,0.2,0.8c0,0.3-0.1,0.6-0.2,0.9c-0.2,0.3-0.4,0.6-0.7,0.8
			c-0.3,0.2-0.6,0.4-1.1,0.5s-0.9,0.2-1.4,0.2c-0.5,0-1-0.1-1.4-0.2c-0.4-0.1-0.7-0.2-1-0.4c-0.3-0.2-0.5-0.4-0.6-0.6
			c-0.1-0.2-0.2-0.5-0.2-0.7c0-0.3,0.1-0.6,0.3-0.8c0.2-0.2,0.5-0.4,0.8-0.5c-0.2-0.1-0.3-0.2-0.4-0.4s-0.2-0.4-0.2-0.6
			c0-0.1,0-0.2,0.1-0.3c0-0.1,0.1-0.2,0.2-0.3c0.1-0.1,0.2-0.2,0.3-0.3c0.1-0.1,0.2-0.2,0.4-0.3c-0.4-0.2-0.6-0.4-0.8-0.8
			c-0.2-0.3-0.3-0.7-0.3-1.1c0-0.3,0.1-0.7,0.2-0.9s0.3-0.5,0.6-0.7c0.2-0.2,0.5-0.3,0.9-0.5c0.3-0.1,0.7-0.2,1.1-0.2
			c0.3,0,0.6,0,0.8,0.1s0.5,0.2,0.7,0.3H256.3z M254.6,120c0-0.1,0-0.2-0.1-0.3s-0.2-0.2-0.3-0.2c-0.1,0-0.3-0.1-0.5-0.1
			c-0.2,0-0.4,0-0.6-0.1c-0.2,0-0.4,0-0.7,0c-0.2,0-0.4,0-0.7-0.1c-0.2,0.1-0.3,0.2-0.5,0.4c-0.1,0.1-0.2,0.3-0.2,0.5
			c0,0.1,0,0.2,0.1,0.3c0.1,0.1,0.2,0.2,0.3,0.3c0.1,0.1,0.3,0.1,0.5,0.2c0.2,0,0.5,0.1,0.8,0.1c0.3,0,0.6,0,0.8-0.1
			c0.2,0,0.4-0.1,0.6-0.2c0.1-0.1,0.3-0.2,0.3-0.3C254.6,120.2,254.6,120.1,254.6,120z M252.7,116c0.2,0,0.4,0,0.5-0.1
			c0.2-0.1,0.3-0.1,0.4-0.2c0.1-0.1,0.2-0.2,0.2-0.4c0.1-0.1,0.1-0.3,0.1-0.5c0-0.3-0.1-0.6-0.3-0.8c-0.2-0.2-0.5-0.3-0.9-0.3
			s-0.7,0.1-0.9,0.3c-0.2,0.2-0.3,0.5-0.3,0.8c0,0.2,0,0.3,0.1,0.5c0.1,0.1,0.1,0.3,0.2,0.4s0.2,0.2,0.4,0.2
			C252.3,115.9,252.5,116,252.7,116z"/>
		<path d="M259.1,109.5v10.1h-1.7v-10.1H259.1z"/>
		<path d="M262.1,116.4c0,0.4,0.1,0.7,0.2,0.9c0.1,0.3,0.2,0.5,0.4,0.6c0.2,0.2,0.4,0.3,0.6,0.4c0.2,0.1,0.5,0.1,0.7,0.1
			c0.3,0,0.5,0,0.7-0.1s0.4-0.1,0.5-0.2c0.1-0.1,0.3-0.1,0.4-0.2c0.1-0.1,0.2-0.1,0.3-0.1c0.1,0,0.2,0.1,0.3,0.2l0.5,0.6
			c-0.2,0.2-0.4,0.4-0.6,0.5c-0.2,0.1-0.5,0.3-0.7,0.4c-0.3,0.1-0.5,0.2-0.8,0.2s-0.5,0.1-0.8,0.1c-0.5,0-0.9-0.1-1.4-0.2
			c-0.4-0.2-0.8-0.4-1.1-0.7s-0.6-0.7-0.7-1.2c-0.2-0.5-0.3-1-0.3-1.6c0-0.5,0.1-0.9,0.2-1.3s0.4-0.8,0.7-1.1
			c0.3-0.3,0.6-0.6,1.1-0.7c0.4-0.2,0.9-0.3,1.4-0.3c0.4,0,0.8,0.1,1.2,0.2c0.4,0.1,0.7,0.3,1,0.6s0.5,0.6,0.6,1s0.2,0.8,0.2,1.3
			c0,0.3,0,0.4-0.1,0.5s-0.2,0.1-0.3,0.1H262.1z M265.3,115.3c0-0.2,0-0.4-0.1-0.6s-0.2-0.4-0.3-0.5s-0.3-0.3-0.5-0.3
			c-0.2-0.1-0.4-0.1-0.7-0.1c-0.5,0-0.9,0.1-1.2,0.4c-0.3,0.3-0.5,0.7-0.5,1.2H265.3z"/>
	</g>
	<circle class="st8" cx="87.7" cy="218" r="41.5"/>
	<g class="st3">
		<path class="st5" d="M66,224.5h-1.5c-0.2,0-0.4,0-0.6-0.1c-0.2-0.1-0.3-0.2-0.5-0.3l-1.4-1.6c-0.2,0.1-0.5,0.1-0.7,0.1
			s-0.5,0-0.8,0c-0.7,0-1.4-0.1-2-0.4s-1.1-0.6-1.6-1.1c-0.4-0.5-0.8-1-1-1.6c-0.2-0.6-0.4-1.3-0.4-2s0.1-1.4,0.4-2
			c0.2-0.6,0.6-1.2,1-1.6c0.4-0.5,1-0.8,1.6-1.1s1.3-0.4,2-0.4c0.5,0,1,0.1,1.4,0.2s0.8,0.3,1.2,0.5s0.7,0.5,1,0.8
			c0.3,0.3,0.5,0.6,0.7,1c0.2,0.4,0.4,0.8,0.5,1.2s0.2,0.9,0.2,1.4c0,0.4,0,0.9-0.1,1.3s-0.2,0.8-0.4,1.1c-0.2,0.4-0.4,0.7-0.6,1
			s-0.5,0.6-0.8,0.8L66,224.5z M57.4,217.6c0,0.5,0.1,1,0.2,1.5s0.4,0.8,0.6,1.1c0.3,0.3,0.6,0.5,1,0.7c0.4,0.2,0.8,0.2,1.3,0.2
			s0.9-0.1,1.3-0.2c0.4-0.2,0.7-0.4,1-0.7c0.3-0.3,0.5-0.7,0.6-1.1c0.1-0.4,0.2-0.9,0.2-1.5c0-0.5-0.1-1-0.2-1.5
			c-0.1-0.4-0.4-0.8-0.6-1.1c-0.3-0.3-0.6-0.5-1-0.7c-0.4-0.2-0.8-0.2-1.3-0.2s-0.9,0.1-1.3,0.2c-0.4,0.2-0.7,0.4-1,0.7
			s-0.5,0.7-0.6,1.1S57.4,217.1,57.4,217.6z"/>
	</g>
	<g class="st3">
		<path class="st5" d="M72.8,215.6v7h-1c-0.2,0-0.4-0.1-0.4-0.3l-0.1-0.6c-0.3,0.3-0.6,0.5-1,0.7c-0.3,0.2-0.8,0.3-1.2,0.3
			c-0.4,0-0.7-0.1-1-0.2c-0.3-0.1-0.5-0.3-0.7-0.6c-0.2-0.2-0.4-0.5-0.5-0.8c-0.1-0.3-0.2-0.7-0.2-1.1v-4.5h1.7v4.5
			c0,0.4,0.1,0.8,0.3,1c0.2,0.2,0.5,0.4,0.9,0.4c0.3,0,0.6-0.1,0.8-0.2c0.3-0.1,0.5-0.3,0.7-0.5v-5.1H72.8z"/>
		<path class="st5" d="M74.3,216.6c0.8-0.7,1.8-1.1,2.9-1.1c0.4,0,0.8,0.1,1.1,0.2c0.3,0.1,0.6,0.3,0.8,0.6c0.2,0.2,0.4,0.5,0.5,0.9
			c0.1,0.3,0.2,0.7,0.2,1.1v4.4h-0.8c-0.2,0-0.3,0-0.4-0.1c-0.1,0-0.2-0.1-0.2-0.3l-0.2-0.5c-0.2,0.2-0.4,0.3-0.5,0.4
			c-0.2,0.1-0.3,0.2-0.5,0.3s-0.4,0.1-0.6,0.2c-0.2,0-0.4,0.1-0.7,0.1c-0.3,0-0.6,0-0.8-0.1c-0.3-0.1-0.5-0.2-0.6-0.4
			c-0.2-0.2-0.3-0.4-0.4-0.6c-0.1-0.2-0.2-0.5-0.2-0.8c0-0.2,0-0.4,0.1-0.5c0.1-0.2,0.2-0.3,0.3-0.5c0.1-0.2,0.3-0.3,0.5-0.5
			c0.2-0.1,0.5-0.3,0.8-0.4c0.3-0.1,0.7-0.2,1.1-0.3s0.9-0.1,1.4-0.1v-0.4c0-0.5-0.1-0.8-0.3-1c-0.2-0.2-0.5-0.3-0.9-0.3
			c-0.3,0-0.5,0-0.7,0.1s-0.3,0.1-0.5,0.2c-0.1,0.1-0.3,0.2-0.4,0.2c-0.1,0.1-0.2,0.1-0.4,0.1c-0.1,0-0.2,0-0.3-0.1
			s-0.1-0.1-0.2-0.2L74.3,216.6z M78.2,219.6c-0.5,0-0.9,0.1-1.2,0.1s-0.6,0.1-0.8,0.2c-0.2,0.1-0.3,0.2-0.4,0.3
			c-0.1,0.1-0.1,0.3-0.1,0.4c0,0.3,0.1,0.5,0.3,0.6c0.2,0.1,0.4,0.2,0.7,0.2c0.3,0,0.6-0.1,0.9-0.2c0.3-0.1,0.5-0.3,0.7-0.6V219.6z"
			/>
		<path class="st5" d="M83.1,212.4v10.2h-1.7v-10.2H83.1z"/>
	</g>
	<g class="st3">
		<path class="st5" d="M89.8,217.1c0,0.1-0.1,0.1-0.1,0.2c0,0-0.1,0.1-0.2,0.1c-0.1,0-0.2,0-0.3-0.1c-0.1-0.1-0.2-0.1-0.3-0.2
			c-0.1-0.1-0.2-0.1-0.4-0.2c-0.2-0.1-0.4-0.1-0.6-0.1c-0.3,0-0.6,0.1-0.8,0.2c-0.2,0.1-0.4,0.3-0.6,0.5c-0.1,0.2-0.3,0.4-0.3,0.7
			c-0.1,0.3-0.1,0.6-0.1,1c0,0.4,0,0.7,0.1,1c0.1,0.3,0.2,0.5,0.3,0.7s0.3,0.3,0.5,0.5s0.5,0.2,0.7,0.2c0.3,0,0.5,0,0.7-0.1
			c0.2-0.1,0.3-0.1,0.4-0.2c0.1-0.1,0.2-0.2,0.3-0.2c0.1-0.1,0.2-0.1,0.3-0.1c0.1,0,0.2,0.1,0.3,0.2l0.5,0.6
			c-0.2,0.2-0.4,0.4-0.6,0.6c-0.2,0.1-0.4,0.3-0.7,0.4c-0.2,0.1-0.5,0.2-0.7,0.2c-0.2,0-0.5,0.1-0.7,0.1c-0.4,0-0.8-0.1-1.2-0.2
			c-0.4-0.2-0.7-0.4-1-0.7s-0.5-0.7-0.7-1.1c-0.2-0.4-0.2-1-0.2-1.5c0-0.5,0.1-1,0.2-1.4c0.1-0.4,0.4-0.8,0.7-1.1s0.6-0.6,1.1-0.8
			s0.9-0.3,1.5-0.3c0.5,0,1,0.1,1.4,0.3c0.4,0.2,0.7,0.4,1.1,0.7L89.8,217.1z"/>
	</g>
	<g class="st3">
		<path class="st5" d="M94.4,215.5c0.5,0,1,0.1,1.4,0.3c0.4,0.2,0.8,0.4,1.1,0.7s0.5,0.7,0.7,1.1c0.2,0.4,0.2,0.9,0.2,1.5
			c0,0.6-0.1,1.1-0.2,1.5c-0.2,0.4-0.4,0.8-0.7,1.1s-0.7,0.6-1.1,0.7c-0.4,0.2-0.9,0.3-1.4,0.3c-0.5,0-1-0.1-1.4-0.3
			s-0.8-0.4-1.1-0.7c-0.3-0.3-0.5-0.7-0.7-1.1c-0.2-0.4-0.2-0.9-0.2-1.5c0-0.6,0.1-1,0.2-1.5c0.2-0.4,0.4-0.8,0.7-1.1
			c0.3-0.3,0.7-0.5,1.1-0.7S93.9,215.5,94.4,215.5z M94.4,221.4c0.6,0,1-0.2,1.3-0.6c0.3-0.4,0.4-1,0.4-1.7c0-0.8-0.1-1.3-0.4-1.7
			c-0.3-0.4-0.7-0.6-1.3-0.6c-0.6,0-1,0.2-1.3,0.6c-0.3,0.4-0.4,1-0.4,1.7c0,0.8,0.1,1.3,0.4,1.7C93.4,221.2,93.8,221.4,94.4,221.4z
			"/>
		<path class="st5" d="M99.1,222.6v-7h1c0.2,0,0.4,0.1,0.4,0.3l0.1,0.5c0.1-0.1,0.3-0.3,0.4-0.4s0.3-0.2,0.4-0.3s0.3-0.1,0.5-0.2
			s0.4-0.1,0.6-0.1c0.4,0,0.8,0.1,1.1,0.4c0.3,0.2,0.5,0.6,0.6,1c0.1-0.2,0.2-0.4,0.4-0.6c0.2-0.2,0.3-0.3,0.5-0.4s0.4-0.2,0.6-0.2
			c0.2,0,0.4-0.1,0.7-0.1c0.4,0,0.7,0.1,1,0.2s0.6,0.3,0.8,0.5s0.4,0.5,0.5,0.8s0.2,0.7,0.2,1.1v4.5h-1.7v-4.5c0-0.4-0.1-0.8-0.3-1
			c-0.2-0.2-0.5-0.3-0.9-0.3c-0.2,0-0.3,0-0.5,0.1c-0.1,0.1-0.3,0.1-0.4,0.3c-0.1,0.1-0.2,0.3-0.3,0.4c-0.1,0.2-0.1,0.4-0.1,0.6v4.5
			h-1.7v-4.5c0-0.5-0.1-0.8-0.3-1c-0.2-0.2-0.5-0.3-0.8-0.3c-0.2,0-0.5,0.1-0.7,0.2c-0.2,0.1-0.4,0.3-0.6,0.5v5.1H99.1z"/>
		<path class="st5" d="M110.6,222.6v-7h1c0.2,0,0.4,0.1,0.4,0.3l0.1,0.5c0.1-0.1,0.3-0.3,0.4-0.4s0.3-0.2,0.4-0.3s0.3-0.1,0.5-0.2
			s0.4-0.1,0.6-0.1c0.4,0,0.8,0.1,1.1,0.4c0.3,0.2,0.5,0.6,0.6,1c0.1-0.2,0.2-0.4,0.4-0.6c0.2-0.2,0.3-0.3,0.5-0.4s0.4-0.2,0.6-0.2
			c0.2,0,0.4-0.1,0.7-0.1c0.4,0,0.7,0.1,1,0.2s0.6,0.3,0.8,0.5s0.4,0.5,0.5,0.8s0.2,0.7,0.2,1.1v4.5h-1.7v-4.5c0-0.4-0.1-0.8-0.3-1
			c-0.2-0.2-0.5-0.3-0.9-0.3c-0.2,0-0.3,0-0.5,0.1c-0.1,0.1-0.3,0.1-0.4,0.3c-0.1,0.1-0.2,0.3-0.3,0.4c-0.1,0.2-0.1,0.4-0.1,0.6v4.5
			h-1.7v-4.5c0-0.5-0.1-0.8-0.3-1c-0.2-0.2-0.5-0.3-0.8-0.3c-0.2,0-0.5,0.1-0.7,0.2c-0.2,0.1-0.4,0.3-0.6,0.5v5.1H110.6z"/>
	</g>
</g>
</svg>
