<svg id="Layer_1" data-name="Layer 1" xmlns="http://www.w3.org/2000/svg" viewBox="0 0 298.42 268.83"><defs><style>.cls-1,.cls-2{fill:none;}.cls-1,.cls-2,.cls-3,.cls-5,.cls-7,.cls-8,.cls-9{stroke:#e6e6e6;}.cls-1,.cls-2,.cls-3,.cls-5,.cls-7,.cls-9{stroke-miterlimit:10;}.cls-1{stroke-width:2.22px;}.cls-2{stroke-width:1.9px;}.cls-3{fill:#9c3;}.cls-3,.cls-5,.cls-7,.cls-9{stroke-width:4.37px;}.cls-4{isolation:isolate;}.cls-5{fill:#03234b;}.cls-6{fill:#fff;}.cls-7{fill:#0083ad;}.cls-8{fill:#eecc2f;stroke-miterlimit:10;stroke-width:4.37px;}.cls-9{fill:#346ab8;}</style></defs><g id="upper"><line class="cls-1" x1="87.58" y1="219.73" x2="151.78" y2="47.73"/><line class="cls-1" x1="213.38" y1="222.83" x2="150.18" y2="49.03"/><line class="cls-1" x1="87.38" y1="218.73" x2="252.18" y2="114.33"/><line class="cls-1" x1="49.28" y1="114.43" x2="213.38" y2="222.83"/><line class="cls-1" x1="45.08" y1="113.43" x2="256.68" y2="116.03"/><ellipse class="cls-2" cx="150.48" cy="141.43" rx="103.8" ry="75.8"/><circle class="cls-3" cx="150.48" cy="46.83" r="41.5"/><g class="cls-4"><path d="M138.38,49.83v1.5h-5.8v-9.9h1.8v8.4Z"/><path d="M141.38,42.33a.6.6,0,0,1-.1.4c-.1.1-.1.2-.2.3s-.2.2-.3.2-.3.1-.4.1a.6.6,0,0,1-.4-.1c-.1-.1-.2-.1-.3-.2s-.2-.2-.2-.3a.6.6,0,0,1-.1-.4c0-.2,0-.3.1-.4s.1-.2.2-.3.2-.2.3-.2a.6.6,0,0,1,.4-.1c.2,0,.3,0,.4.1s.2.1.3.2.2.2.2.3A.6.6,0,0,1,141.38,42.33Zm-.2,2v7h-1.7v-7Z"/><path d="M144.48,45.23l.4-.4c.2-.1.3-.2.5-.3a1.42,1.42,0,0,1,.6-.2c.2,0,.4-.1.7-.1a3,3,0,0,1,1,.2,1.79,1.79,0,0,1,.7.5,5.58,5.58,0,0,1,.5.8,3.59,3.59,0,0,1,.2,1.1v4.5h-1.7v-4.5a1.49,1.49,0,0,0-.3-1,1.27,1.27,0,0,0-.9-.4,1.88,1.88,0,0,0-.8.2,3,3,0,0,0-.7.5v5.1H143v-7h1c.2,0,.4.1.4.3Z"/><path d="M150.48,45.33a4.36,4.36,0,0,1,2.9-1.1,3.59,3.59,0,0,1,1.1.2,1.56,1.56,0,0,1,.8.6,1.93,1.93,0,0,1,.5.9A3.59,3.59,0,0,1,156,47v4.4h-.8c-.2,0-.3,0-.4-.1s-.2-.1-.2-.3l-.2-.5c-.2.2-.4.3-.5.4s-.3.2-.5.3-.4.1-.6.2-.4.1-.7.1a2,2,0,0,1-.8-.1c-.2-.1-.5-.2-.6-.4a2.09,2.09,0,0,1-.4-.6,1.88,1.88,0,0,1-.2-.8.75.75,0,0,1,.1-.5c.1-.2.2-.3.3-.5s.3-.3.5-.5a5.94,5.94,0,0,1,.8-.4c.3-.1.7-.2,1.1-.3a6.15,6.15,0,0,1,1.4-.1v-.4a1.33,1.33,0,0,0-.3-1,1.22,1.22,0,0,0-.9-.3,1.48,1.48,0,0,0-.7.1c-.2.1-.3.1-.5.2a.76.76,0,0,1-.4.2c-.1.1-.2.1-.4.1a.37.37,0,0,1-.3-.1l-.2-.2Zm3.8,3.1c-.5,0-.9.1-1.2.1a1.88,1.88,0,0,0-.8.2,1.38,1.38,0,0,0-.4.3.78.78,0,0,0,.2,1,1.45,1.45,0,0,0,.7.2,2.92,2.92,0,0,0,.9-.2,1.34,1.34,0,0,0,.7-.6v-1Z"/></g><g class="cls-4"><path d="M159.08,45.63a3.92,3.92,0,0,1,.8-1,2.1,2.1,0,0,1,1.1-.4,1.88,1.88,0,0,1,.8.2l-.1,1.3c0,.1-.1.1-.1.2a.35.35,0,0,1-.2.1h-.7a.75.75,0,0,0-.5.1c-.1.1-.3.1-.4.2a1.38,1.38,0,0,0-.3.4c-.1.2-.2.3-.2.5v4.3h-1.7v-7h1c.2,0,.3,0,.4.1a.37.37,0,0,1,.1.3Z"/></g><g class="cls-4"><path d="M165.58,44.23a3.19,3.19,0,0,1,1.4.3,3,3,0,0,1,1.8,1.8,3.42,3.42,0,0,1,.2,1.5,6.05,6.05,0,0,1-.2,1.5,4.13,4.13,0,0,1-.7,1.1,2.59,2.59,0,0,1-1.1.7,3.42,3.42,0,0,1-2.8,0,3,3,0,0,1-1.8-1.8,3.42,3.42,0,0,1-.2-1.5,6.8,6.8,0,0,1,.2-1.5,3,3,0,0,1,1.8-1.8A2.9,2.9,0,0,1,165.58,44.23Zm0,6a1.49,1.49,0,0,0,1.3-.6,2.86,2.86,0,0,0,.4-1.7,2.67,2.67,0,0,0-.4-1.7,1.71,1.71,0,0,0-2.6,0,3.81,3.81,0,0,0,0,3.4A1.38,1.38,0,0,0,165.58,50.23Z"/></g><circle class="cls-5" cx="204.88" cy="218.83" r="41.5"/><g class="cls-4"><path class="cls-6" d="M203.58,215.33c-.1.1-.1.2-.2.2s-.1.1-.2.1a.37.37,0,0,1-.3-.1c-.1-.1-.2-.1-.4-.2s-.3-.2-.5-.2a1.7,1.7,0,0,0-.7-.1,1.48,1.48,0,0,0-.7.1c-.2.1-.4.1-.5.3a1.38,1.38,0,0,0-.3.4.9.9,0,0,0-.1.5,1.42,1.42,0,0,0,.2.6,1,1,0,0,0,.5.4c.2.1.5.2.7.3a6.89,6.89,0,0,1,.8.3c.2.1.6.2.8.3a2.62,2.62,0,0,1,1.2,1.2,3,3,0,0,1,.2,1,5.85,5.85,0,0,1-.2,1.3,3.59,3.59,0,0,1-.7,1,4.13,4.13,0,0,1-1.1.7,3.42,3.42,0,0,1-1.5.2,2.77,2.77,0,0,1-.9-.1,3.18,3.18,0,0,1-.9-.3,3,3,0,0,1-.8-.4c-.2-.2-.5-.3-.7-.5l.5-.9c0-.1.1-.1.2-.2a.31.31,0,0,1,.2-.1.76.76,0,0,1,.4.1,2.19,2.19,0,0,0,.5.3l.6.3a2.22,2.22,0,0,0,.9.1,1.59,1.59,0,0,0,1.2-.4,1.25,1.25,0,0,0,.4-1.1.85.85,0,0,0-.2-.6,1,1,0,0,0-.5-.4c-.2-.1-.5-.2-.7-.3s-.5-.2-.8-.3a6.89,6.89,0,0,1-.8-.3,1.79,1.79,0,0,1-.7-.5,2.18,2.18,0,0,1-.5-.8,3.59,3.59,0,0,1-.2-1.1,4.25,4.25,0,0,1,.2-1.1,4.7,4.7,0,0,1,.6-.9,2.07,2.07,0,0,1,1-.6,3.18,3.18,0,0,1,1.4-.2,4.15,4.15,0,0,1,1.6.3,3.53,3.53,0,0,1,1.3.8Z"/></g><g class="cls-4"><path class="cls-6" d="M212.78,215h-3v8.4H208V215h-3v-1.5h7.8Z"/></g><circle class="cls-7" cx="48.68" cy="114.83" r="41.5"/><g class="cls-4"><path class="cls-6" d="M45.58,119.43h-1.4c-.2,0-.3,0-.4-.1s-.2-.2-.2-.3l-.7-2h-4.1l-.7,2c0,.1-.1.2-.2.3s-.2.1-.4.1h-1.4l3.9-9.9h1.9Zm-3.2-3.7-1.2-3.3c-.1-.1-.1-.3-.2-.5s-.1-.4-.2-.6c-.1.2-.1.5-.2.7s-.1.4-.2.5l-1.2,3.3h3.2Z"/></g><g class="cls-4"><path class="cls-6" d="M48,113.63a3.92,3.92,0,0,1,.8-1,1.5,1.5,0,0,1,1.1-.4,1.88,1.88,0,0,1,.8.2l-.1,1.3c0,.1-.1.1-.1.2a.35.35,0,0,1-.2.1h-.7a.75.75,0,0,0-.5.1c-.1.1-.3.1-.4.2a1.38,1.38,0,0,0-.3.4.76.76,0,0,0-.2.5v4.3h-1.7v-7h1c.2,0,.3,0,.4.1a.37.37,0,0,1,.1.3Z"/><path class="cls-6" d="M51.48,119.43v-7h1c.2,0,.4.1.4.3l.1.5.4-.4c.1-.1.3-.2.4-.3s.3-.1.5-.2a1.27,1.27,0,0,1,.6-.1,1.5,1.5,0,0,1,1.1.4,1.7,1.7,0,0,1,.6,1,2.09,2.09,0,0,1,.4-.6,1.76,1.76,0,0,1,.5-.4,1.42,1.42,0,0,1,.6-.2c.2,0,.4-.1.7-.1a3,3,0,0,1,1,.2,2.1,2.1,0,0,1,1.3,1.3,3.59,3.59,0,0,1,.2,1.1v4.5h-1.7v-4.5a1.49,1.49,0,0,0-.3-1,1.22,1.22,0,0,0-.9-.3.9.9,0,0,0-.5.1c-.1.1-.3.1-.4.3s-.2.3-.3.4a1.27,1.27,0,0,0-.1.6v4.5h-1.7V115a1.33,1.33,0,0,0-.3-1,1.14,1.14,0,0,0-.8-.3,1.85,1.85,0,0,0-.7.2,2.65,2.65,0,0,0-.6.5v5.1h-1.5Z"/></g><circle class="cls-8" cx="249.73" cy="115.94" r="41.5"/><g class="cls-4"><path d="M237.28,115.53v4a4.81,4.81,0,0,1-1.6.8,5.66,5.66,0,0,1-1.8.3,5.38,5.38,0,0,1-2.2-.4,4.78,4.78,0,0,1-1.7-1,4.57,4.57,0,0,1-1.1-1.6,6.47,6.47,0,0,1-.4-2,4.48,4.48,0,0,1,.4-2,4.2,4.2,0,0,1,2.6-2.6,6.54,6.54,0,0,1,2.1-.4,3.75,3.75,0,0,1,1.1.1c.3.1.7.2,1,.3a2,2,0,0,1,.8.4c.2.2.5.3.7.5l-.5.8c-.1.1-.2.2-.3.2a.6.6,0,0,1-.4-.1c-.2-.1-.3-.2-.5-.3a.76.76,0,0,0-.5-.2c-.2-.1-.4-.1-.6-.2s-.5-.1-.8-.1a5.07,5.07,0,0,0-1.3.2,3.59,3.59,0,0,0-1,.7,2.38,2.38,0,0,0-.6,1.1,5.9,5.9,0,0,0-.2,1.4,6.05,6.05,0,0,0,.2,1.5,4.13,4.13,0,0,0,.7,1.1,3,3,0,0,0,1.1.7,3.18,3.18,0,0,0,1.4.2,3.08,3.08,0,0,0,1-.1,6.89,6.89,0,0,0,.8-.3v-1.8h-1.2a.37.37,0,0,1-.3-.1c-.1-.1-.1-.1-.1-.2v-1h3.2Z"/></g><g class="cls-4"><path d="M241.78,113.33a3.19,3.19,0,0,1,1.4.3,3,3,0,0,1,1.8,1.8,3.42,3.42,0,0,1,.2,1.5,6.05,6.05,0,0,1-.2,1.5,4.13,4.13,0,0,1-.7,1.1,2.59,2.59,0,0,1-1.1.7,3.42,3.42,0,0,1-2.8,0,3,3,0,0,1-1.8-1.8,3.42,3.42,0,0,1-.2-1.5,6.8,6.8,0,0,1,.2-1.5,3,3,0,0,1,1.8-1.8A3.19,3.19,0,0,1,241.78,113.33Zm0,6a1.49,1.49,0,0,0,1.3-.6,2.86,2.86,0,0,0,.4-1.7,2.67,2.67,0,0,0-.4-1.7,1.71,1.71,0,0,0-2.6,0,3.81,3.81,0,0,0,0,3.4A1.49,1.49,0,0,0,241.78,119.33Z"/></g><g class="cls-4"><path d="M249.68,113.33a3.19,3.19,0,0,1,1.4.3,3,3,0,0,1,1.8,1.8,3.42,3.42,0,0,1,.2,1.5,6.05,6.05,0,0,1-.2,1.5,4.13,4.13,0,0,1-.7,1.1,2.59,2.59,0,0,1-1.1.7,3.42,3.42,0,0,1-2.8,0,3,3,0,0,1-1.8-1.8,3.42,3.42,0,0,1-.2-1.5,6.8,6.8,0,0,1,.2-1.5,3,3,0,0,1,1.8-1.8A2.9,2.9,0,0,1,249.68,113.33Zm0,6a1.49,1.49,0,0,0,1.3-.6,2.86,2.86,0,0,0,.4-1.7,2.67,2.67,0,0,0-.4-1.7,1.71,1.71,0,0,0-2.6,0,3.81,3.81,0,0,0,0,3.4A1.49,1.49,0,0,0,249.68,119.33Z"/></g><g class="cls-4"><path d="M260.48,113.73v.6c0,.2-.1.3-.4.4l-.6.1a2,2,0,0,1,.1.8,2.39,2.39,0,0,1-.2.9,1.34,1.34,0,0,1-.6.7,3.3,3.3,0,0,1-2,.7h-.4a.6.6,0,0,1-.4-.1.54.54,0,0,0-.3.4c0,.1.1.2.2.3a.75.75,0,0,0,.5.1,1.7,1.7,0,0,1,.7.1h.8c.3,0,.6.1.8.1s.5.1.7.3.4.3.5.5a1.88,1.88,0,0,1,.2.8,2.92,2.92,0,0,1-.2.9,2.7,2.7,0,0,1-.7.8,2.81,2.81,0,0,1-1.1.5,6.75,6.75,0,0,1-1.4.2,5.9,5.9,0,0,1-1.4-.2,3,3,0,0,1-1-.4,1.7,1.7,0,0,1-.6-.6,1.85,1.85,0,0,1-.2-.7,1.14,1.14,0,0,1,.3-.8,2.18,2.18,0,0,1,.8-.5.78.78,0,0,1-.4-.4,1.42,1.42,0,0,1-.2-.6.37.37,0,0,1,.1-.3c0-.1.1-.2.2-.3l.3-.3a1.38,1.38,0,0,1,.4-.3,1.56,1.56,0,0,1-.8-.8,2,2,0,0,1-.3-1.1,2.39,2.39,0,0,1,.2-.9,1.87,1.87,0,0,1,.6-.7,3.3,3.3,0,0,1,2-.7,2,2,0,0,1,.8.1c.2.1.5.2.7.3h2.3Zm-1.7,7.1a.37.37,0,0,0-.1-.3c-.1-.1-.2-.2-.3-.2a4.33,4.33,0,0,0-.5-.1,1.27,1.27,0,0,1-.6-.1h-.7a2,2,0,0,1-.7-.1,1.76,1.76,0,0,0-.5.4.76.76,0,0,0-.2.5.37.37,0,0,0,.1.3l.3.3c.1.1.3.1.5.2s.5.1.8.1a2,2,0,0,0,.8-.1,1.42,1.42,0,0,0,.6-.2c.1-.1.3-.2.3-.3C258.78,121,258.78,120.93,258.78,120.83Zm-1.9-4a.75.75,0,0,0,.5-.1c.2-.1.3-.1.4-.2a.52.52,0,0,0,.2-.4.75.75,0,0,0,.1-.5,1.14,1.14,0,0,0-.3-.8,1.5,1.5,0,0,0-1.8,0,1.14,1.14,0,0,0-.3.8.9.9,0,0,0,.1.5c.1.1.1.3.2.4a.52.52,0,0,0,.4.2A4.33,4.33,0,0,0,256.88,116.83Z"/><path d="M263.28,110.33v10.1h-1.7v-10.1Z"/><path d="M266.28,117.23a2,2,0,0,0,.2.9.92.92,0,0,0,.4.6,2.09,2.09,0,0,0,.6.4,1.7,1.7,0,0,0,.7.1,1.48,1.48,0,0,0,.7-.1c.2-.1.4-.1.5-.2s.3-.1.4-.2a.37.37,0,0,1,.3-.1c.1,0,.2.1.3.2l.5.6a2.65,2.65,0,0,1-.6.5c-.2.1-.5.3-.7.4a2.35,2.35,0,0,1-.8.2c-.3,0-.5.1-.8.1a6.75,6.75,0,0,1-1.4-.2,4.13,4.13,0,0,1-1.1-.7,2.4,2.4,0,0,1-.7-1.2,4.15,4.15,0,0,1-.3-1.6,5.07,5.07,0,0,1,.2-1.3,2.59,2.59,0,0,1,.7-1.1,2.1,2.1,0,0,1,1.1-.7,3.19,3.19,0,0,1,1.4-.3,5,5,0,0,1,1.2.2,2.4,2.4,0,0,1,1.6,1.6,5.07,5.07,0,0,1,.2,1.3c0,.3,0,.4-.1.5a.37.37,0,0,1-.3.1Zm3.2-1.1a1.27,1.27,0,0,0-.1-.6,2.19,2.19,0,0,0-.3-.5.85.85,0,0,0-.5-.3,1.48,1.48,0,0,0-.7-.1,1.59,1.59,0,0,0-1.2.4,1.66,1.66,0,0,0-.5,1.2h3.3Z"/></g><circle class="cls-9" cx="91.88" cy="218.83" r="41.5"/><g class="cls-4"><path class="cls-6" d="M70.18,225.33h-1.5a1.27,1.27,0,0,1-.6-.1c-.2-.1-.3-.2-.5-.3l-1.4-1.6a1.7,1.7,0,0,1-.7.1h-.8a4.48,4.48,0,0,1-2-.4,5.72,5.72,0,0,1-1.6-1.1,5.37,5.37,0,0,1-1-1.6,6.47,6.47,0,0,1-.4-2,4.48,4.48,0,0,1,.4-2,4.35,4.35,0,0,1,1-1.6,4.57,4.57,0,0,1,1.6-1.1,4.48,4.48,0,0,1,2-.4,5.9,5.9,0,0,1,1.4.2,6.12,6.12,0,0,1,1.2.5,3.92,3.92,0,0,1,1,.8,3.59,3.59,0,0,1,.7,1,6.12,6.12,0,0,1,.5,1.2,5.9,5.9,0,0,1,.2,1.4,5.7,5.7,0,0,1-.1,1.3,3.58,3.58,0,0,1-.4,1.1,8.79,8.79,0,0,1-.6,1,3,3,0,0,1-.8.8Zm-8.6-6.9a7.72,7.72,0,0,0,.2,1.5,2.87,2.87,0,0,0,.6,1.1,3.59,3.59,0,0,0,1,.7,2.74,2.74,0,0,0,1.3.2,5.07,5.07,0,0,0,1.3-.2,3.59,3.59,0,0,0,1-.7,2.38,2.38,0,0,0,.6-1.1,6.05,6.05,0,0,0,.2-1.5,7.72,7.72,0,0,0-.2-1.5,3.88,3.88,0,0,0-.6-1.1,3.59,3.59,0,0,0-1-.7,2.74,2.74,0,0,0-1.3-.2,5.07,5.07,0,0,0-1.3.2,3.59,3.59,0,0,0-1,.7,2.38,2.38,0,0,0-.6,1.1A6.8,6.8,0,0,0,61.58,218.43Z"/></g><g class="cls-4"><path class="cls-6" d="M77,216.43v7H76c-.2,0-.4-.1-.4-.3l-.1-.6a3.59,3.59,0,0,1-1,.7,2.38,2.38,0,0,1-1.2.3,3,3,0,0,1-1-.2,1.34,1.34,0,0,1-.7-.6,2.18,2.18,0,0,1-.5-.8,3.59,3.59,0,0,1-.2-1.1v-4.5h1.7v4.5a1.49,1.49,0,0,0,.3,1,1.27,1.27,0,0,0,.9.4,1.88,1.88,0,0,0,.8-.2,1.79,1.79,0,0,0,.7-.5v-5.1Z"/><path class="cls-6" d="M78.48,217.43a4.36,4.36,0,0,1,2.9-1.1,3.59,3.59,0,0,1,1.1.2,1.56,1.56,0,0,1,.8.6,1.93,1.93,0,0,1,.5.9,3.59,3.59,0,0,1,.2,1.1v4.4h-.8c-.2,0-.3,0-.4-.1s-.2-.1-.2-.3l-.2-.5c-.2.2-.4.3-.5.4s-.3.2-.5.3-.4.1-.6.2-.4.1-.7.1a2,2,0,0,1-.8-.1.92.92,0,0,1-.6-.4,2.09,2.09,0,0,1-.4-.6,1.88,1.88,0,0,1-.2-.8.75.75,0,0,1,.1-.5c.1-.2.2-.3.3-.5s.3-.3.5-.5a5.94,5.94,0,0,1,.8-.4c.3-.1.7-.2,1.1-.3a6.15,6.15,0,0,1,1.4-.1V219a1.33,1.33,0,0,0-.3-1,1.22,1.22,0,0,0-.9-.3,1.48,1.48,0,0,0-.7.1c-.2.1-.3.1-.5.2a.76.76,0,0,1-.4.2c-.1.1-.2.1-.4.1a.37.37,0,0,1-.3-.1l-.2-.2Zm3.9,3c-.5,0-.9.1-1.2.1a1.88,1.88,0,0,0-.8.2,1.38,1.38,0,0,0-.4.3.78.78,0,0,0,.2,1,1.45,1.45,0,0,0,.7.2,2.92,2.92,0,0,0,.9-.2,1.34,1.34,0,0,0,.7-.6v-1Z"/><path class="cls-6" d="M87.28,213.23v10.2h-1.7v-10.2Z"/></g><g class="cls-4"><path class="cls-6" d="M94,217.93c0,.1-.1.1-.1.2a.35.35,0,0,1-.2.1.37.37,0,0,1-.3-.1c-.1-.1-.2-.1-.3-.2s-.2-.1-.4-.2a1.27,1.27,0,0,0-.6-.1,1.88,1.88,0,0,0-.8.2,2.65,2.65,0,0,0-.6.5,1.49,1.49,0,0,0-.3.7,5.05,5.05,0,0,0,0,2,4.88,4.88,0,0,0,.3.7c.1.2.3.3.5.5a1,1,0,0,0,.7.2,1.48,1.48,0,0,0,.7-.1c.2-.1.3-.1.4-.2s.2-.2.3-.2a.37.37,0,0,1,.3-.1c.1,0,.2.1.3.2l.5.6-.6.6a4.35,4.35,0,0,1-.7.4,1.85,1.85,0,0,1-.7.2c-.2,0-.5.1-.7.1a5,5,0,0,1-1.2-.2,3.59,3.59,0,0,1-1-.7,4.13,4.13,0,0,1-.7-1.1,3.64,3.64,0,0,1-.2-1.5,5.9,5.9,0,0,1,.2-1.4,2.59,2.59,0,0,1,.7-1.1,3.13,3.13,0,0,1,1.1-.8,3.65,3.65,0,0,1,1.5-.3,3.19,3.19,0,0,1,1.4.3,6.73,6.73,0,0,1,1.1.7Z"/></g><g class="cls-4"><path class="cls-6" d="M98.58,216.33a3.19,3.19,0,0,1,1.4.3,3,3,0,0,1,1.8,1.8,3.42,3.42,0,0,1,.2,1.5,6.05,6.05,0,0,1-.2,1.5,4.13,4.13,0,0,1-.7,1.1,2.59,2.59,0,0,1-1.1.7,3.42,3.42,0,0,1-2.8,0,3,3,0,0,1-1.8-1.8,3.42,3.42,0,0,1-.2-1.5,6.8,6.8,0,0,1,.2-1.5,3,3,0,0,1,1.8-1.8A3.19,3.19,0,0,1,98.58,216.33Zm0,5.9a1.49,1.49,0,0,0,1.3-.6,2.86,2.86,0,0,0,.4-1.7,2.67,2.67,0,0,0-.4-1.7,1.71,1.71,0,0,0-2.6,0,2.86,2.86,0,0,0-.4,1.7,2.67,2.67,0,0,0,.4,1.7A1.49,1.49,0,0,0,98.58,222.23Z"/><path class="cls-6" d="M103.28,223.43v-7h1c.2,0,.4.1.4.3l.1.5.4-.4c.1-.1.3-.2.4-.3s.3-.1.5-.2a1.27,1.27,0,0,1,.6-.1,1.5,1.5,0,0,1,1.1.4,1.7,1.7,0,0,1,.6,1,2.09,2.09,0,0,1,.4-.6,1.76,1.76,0,0,1,.5-.4,1.42,1.42,0,0,1,.6-.2c.2,0,.4-.1.7-.1a3,3,0,0,1,1,.2,2.1,2.1,0,0,1,1.3,1.3,3.59,3.59,0,0,1,.2,1.1v4.5h-1.7v-4.5a1.49,1.49,0,0,0-.3-1,1.22,1.22,0,0,0-.9-.3.9.9,0,0,0-.5.1c-.1.1-.3.1-.4.3s-.2.3-.3.4a1.27,1.27,0,0,0-.1.6v4.5h-1.7V219a1.33,1.33,0,0,0-.3-1,1.14,1.14,0,0,0-.8-.3,1.85,1.85,0,0,0-.7.2,2.65,2.65,0,0,0-.6.5v5.1h-1.5Z"/><path class="cls-6" d="M114.78,223.43v-7h1c.2,0,.4.1.4.3l.1.5.4-.4c.1-.1.3-.2.4-.3s.3-.1.5-.2a1.27,1.27,0,0,1,.6-.1,1.5,1.5,0,0,1,1.1.4,1.7,1.7,0,0,1,.6,1,2.09,2.09,0,0,1,.4-.6,1.76,1.76,0,0,1,.5-.4,1.42,1.42,0,0,1,.6-.2c.2,0,.4-.1.7-.1a3,3,0,0,1,1,.2,2.1,2.1,0,0,1,1.3,1.3,3.59,3.59,0,0,1,.2,1.1v4.5h-1.7v-4.5a1.49,1.49,0,0,0-.3-1,1.22,1.22,0,0,0-.9-.3.9.9,0,0,0-.5.1c-.1.1-.3.1-.4.3s-.2.3-.3.4a1.27,1.27,0,0,0-.1.6v4.5h-1.7V219a1.33,1.33,0,0,0-.3-1,1.14,1.14,0,0,0-.8-.3,1.85,1.85,0,0,0-.7.2,2.65,2.65,0,0,0-.6.5v5.1h-1.5Z"/></g></g></svg>