<?xml version="1.0" encoding="UTF-8"?>
<svg id="icons" xmlns="http://www.w3.org/2000/svg" viewBox="0 0 70 70">
  <defs>
    <style>
      .cls-1 {
        stroke: #909;
        stroke-width: 6px;
      }

      .cls-1, .cls-2 {
        fill: none;
        stroke-miterlimit: 10;
      }

      .cls-2 {
        opacity: .1;
        stroke: #000;
        stroke-width: 5px;
      }

      .cls-3 {
        stroke-width: 0px;
      }
    </style>
  </defs>
  <g>
    <path class="cls-3" d="M31.67,27.78c.04.18.16.33.35.39.17.06.37.03.51-.08l1.4-1.11v6.85h-1.76c-.14,0-.28.05-.37.15-.1.1-.15.24-.15.38v1.72c0,.15.05.28.15.37.1.1.24.15.38.15h7.23c.15,0,.28-.05.37-.15.1-.1.15-.24.15-.38v-1.72c0-.15-.05-.27-.15-.37s-.24-.15-.38-.15h-1.75v-10.36c0-.15-.05-.28-.15-.37-.1-.1-.24-.15-.38-.15h-2.27c-.11,0-.22.04-.3.09l-3.1,2.14c-.18.13-.26.35-.22.55l.45,2.05h0ZM34.86,23.53h2.19v10.9h2.28v1.6h-7.11v-1.6h2.29v-8.67l-2.29,1.81-.42-1.92,3.04-2.11h0Z"/>
    <path class="cls-3" d="M17.59,43.61c.06.19.24.33.45.35l4.52.36.14,4.19c0,.2.13.37.31.45.06.03.14.04.2.04.13,0,.25-.05.35-.13l8.41-7.58.4,1.11c.2.54.59.86,1.06.86.35,0,.69-.18.96-.52l1.49-1.83c.13-.15.31-.24.49-.24.11,0,.27.03.43.17l1.74,1.59c.27.25.58.38.88.38.21,0,.44-.06.63-.22l6.08,6.74c.1.11.24.17.38.17.05,0,.11,0,.15-.03.19-.06.33-.23.35-.43l.48-4.1,4.51-.42c.19-.02.36-.15.43-.33.07-.18.04-.38-.1-.53l-7.48-8.29s.02-.04.03-.05c.09-.15.24-.25.41-.3l2.3-.54c.49-.12.84-.4.95-.79.12-.39-.02-.82-.36-1.18l-1.64-1.7c-.13-.13-.19-.3-.18-.47,0-.17.09-.34.23-.45l1.78-1.55c.38-.33.55-.75.47-1.15-.08-.4-.4-.72-.87-.88l-2.24-.75c-.17-.05-.31-.17-.38-.34-.07-.15-.07-.34,0-.51l.86-2.2c.17-.44.15-.85-.06-1.17-.25-.35-.67-.53-1.23-.44l-2.33.37c-.37.06-.7-.19-.74-.56l-.25-2.34c-.08-.77-.6-1.12-1.07-1.12-.27,0-.55.1-.81.3l-1.89,1.42c-.29.22-.72.15-.92-.15l-1.32-1.96c-.26-.39-.62-.61-1.01-.61-.44,0-.82.28-1.05.76l-1.02,2.14c-.15.33-.55.46-.88.29l-2.07-1.13c-.53-.29-1.09-.24-1.43.12-.15.16-.35.46-.32.97l.09,2.35c0,.18-.05.35-.17.47-.12.13-.28.19-.47.19l-2.38-.03c-.49,0-.89.2-1.09.55-.2.35-.17.8.07,1.23l1.18,2.04c.09.15.11.34.06.5-.05.16-.16.31-.33.39l-2.1,1.07c-.45.23-.71.59-.74,1-.02.41.21.79.64,1.06l1.99,1.26c.15.1.25.25.29.42.04.17,0,.35-.11.49l-1.36,1.93c-.29.41-.35.85-.18,1.23.17.37.55.6,1.05.65l.95.07-7.48,6.75c-.15.14-.21.35-.15.55h.02ZM45.02,39.55s.06-.07.09-.11c.09-.06.16-.13.23-.22.22-.29.27-.69.15-1.12l-.21-.73,5.62,6.23-3.9.36c-.24.02-.44.21-.46.45l-.4,3.39-5.6-6.21.44-2.13c.02-.07.05-.15.08-.21.14-.07.3-.09.45-.05l2.28.59h0c.49.13.94.03,1.22-.26h.02ZM24.34,35.24c-.15,0-.22-.05-.23-.06v-.02h0s.03-.1.09-.2l1.36-1.93c.06-.09.12-.19.16-.29.14-.31.17-.65.11-.97-.09-.45-.35-.82-.74-1.06l-1.99-1.26c-.06-.05-.11-.08-.14-.11h0s-.04-.05-.04-.05.05-.08.18-.15l1.08-.55,1.02-.52c.41-.21.71-.56.84-1,.12-.42.07-.85-.13-1.24,0-.02-.02-.04-.03-.05l-1.18-2.04c-.06-.1-.07-.17-.07-.21v-.02s0,0,.02,0c.03-.02.09-.04.21-.04h.61l1.77.03c.45,0,.87-.18,1.19-.5.15-.16.27-.35.35-.55,0-.02,0-.04.02-.06.06-.19.09-.38.09-.59l-.09-2.35c0-.15.03-.23.06-.24.03,0,.09,0,.21.07l1.71.92.37.2.07.04c.23.11.46.16.71.16.43,0,.82-.16,1.12-.45.15-.14.27-.3.36-.49l1.02-2.14s.04-.07.05-.1c.04-.05.05-.07.07-.08h0s.02,0,.04.02c0,0,.02.02.03.03.03.03.06.06.11.12l.89,1.33.43.63c.1.15.23.28.37.39.28.22.63.34.99.34.11,0,.21,0,.31-.04.25-.05.47-.15.67-.3l.77-.58,1.12-.84c.1-.08.17-.09.2-.1h.02s.05.07.07.23l.25,2.34c.04.35.18.65.39.9.08.09.17.17.26.25.34.25.77.37,1.24.3l2.33-.38c.13-.02.23,0,.24,0v.02s0,.1-.05.22l-.86,2.2c-.02.05-.04.11-.05.16h0v.04c-.08.3-.07.62.03.91.02.06.05.13.07.19.04.07.08.15.13.22.2.3.49.53.85.65l1.67.55.57.19c.1.04.15.07.18.09,0,0,.02.02.03.03,0,0,0,.05-.05.1-.02.03-.05.05-.09.09l-1.12.97-.66.57c-.35.3-.55.71-.57,1.16s.15.88.46,1.22l1.64,1.7c.11.12.13.19.13.2h0s-.08.07-.2.1l-2.3.54c-.45.1-.82.37-1.05.76-.05.08-.09.17-.13.26h0c-.04.1-.05.2-.07.29h0c-.21.35-.31.62-.21.95l.65,2.26h0l-2.25-.58c-.09-.03-.19-.04-.28-.05h-.15c-.09,0-.17,0-.25.02h-.05c-.07,0-.15.04-.21.05-.03,0-.05.02-.08.04-.05.02-.09.04-.13.06-.05.03-.11.05-.15.09-.02,0-.04.03-.05.04-.08.05-.15.12-.22.19h0c-.35.25-.6.61-.69,1.04l-.41,1.99c-.02.11,0,.22.04.31h0s-.04-.02-.05-.03h0s-.05-.04-.08-.06l-1.74-1.59c-.13-.12-.27-.21-.43-.28-.21-.1-.44-.15-.67-.15-.28,0-.55.07-.8.21-.08.05-.16.1-.24.16-.08.07-.16.15-.24.24l-1.49,1.83s-.04.05-.05.06c-.02.02-.05.04-.06.05h0s-.05.03-.05.03h0s0,0-.02,0h0s-.07-.08-.11-.19l-.55-1.49c.14-.14.19-.35.12-.54l-.04-.1c-.15-.44-.47-.77-.89-.95-.15-.06-.29-.1-.44-.12h0c-.08-.03-.17-.05-.26-.07h0c-.09-.02-.18-.03-.28-.03-.11,0-.22,0-.33.04h0c-.11.02-.22.05-.32.1h0l-2.08.89v-.06l.32-2.34h0c.06-.45-.06-.91-.35-1.26-.26-.33-.65-.53-1.06-.59h0c-.05-.02-.12-.04-.17-.05-.08-.02-.16-.04-.25-.05l-.8-.06-1.55-.13h-.07ZM26.41,36.61l.52-.06s.09.07.13.12c.11.14.15.31.14.49l-.31,2.34c-.05.41.04.78.26,1.03.15.18.37.29.62.33.31.16.7.16,1.1,0l2.17-.93c.08-.04.16-.05.25-.05.12.07.21.18.26.32l.03.07-7.9,7.13-.12-3.54c0-.26-.21-.47-.47-.49l-3.79-.31,7.12-6.42h0Z"/>
  </g>
  <circle class="cls-2" cx="35" cy="35" r="30.42"/>
  <circle class="cls-1" cx="35" cy="35" r="25.16"/>
</svg>