<?xml version="1.0" encoding="UTF-8"?>
<svg id="Layer_1" data-name="Layer 1" xmlns="http://www.w3.org/2000/svg" viewBox="0 0 234.5 57.6">
  <defs>
    <style>
      .cls-1 {
        fill: #3253dc;
        stroke-width: 0px;
      }
    </style>
  </defs>
  <path class="cls-1" d="M65.62,20c.59,0,1.13.49,1.13,1.13v21.32c0,.59-.54,1.08-1.13,1.08h-2.89c-.54,0-1.08-.44-1.08-1.03v-1.96c-1.47,2.16-3.97,3.63-7.65,3.63-6.13,0-9.9-4.07-9.9-10.1v-12.99c0-.59.54-1.08,1.13-1.08h2.89c.59,0,1.08.49,1.08,1.08v12.16c0,3.92,2.06,6.52,6.13,6.52s6.32-2.7,6.32-6.47v-12.21c0-.59.54-1.08,1.08-1.08h2.89M22.97,8.19c-9.9,0-17.89,7.7-17.89,17.99s7.99,17.99,17.89,17.99c1.69,0,3.33-.23,4.88-.66l1.93,5.02c.2.54.59.88,1.32.88h3.09c.74,0,1.27-.49.93-1.42l-2.52-6.57c4.97-3.12,8.25-8.65,8.25-15.25,0-10.29-7.99-17.99-17.89-17.99M30.76,36.6l-2.25-5.86c-.2-.49-.59-.93-1.47-.93h-2.94c-.74,0-1.32.49-.98,1.42l2.97,7.71c-.99.24-2.03.37-3.12.37-7.25,0-12.4-5.69-12.4-13.14s5.15-13.14,12.4-13.14,12.4,5.69,12.4,13.14c0,4.33-1.74,8.05-4.61,10.42M229.34,42.35c.25.59-.05,1.18-.78,1.18h-3.24c-.59,0-1.08-.29-1.27-.88l-5.98-16.08-6.08,16.08c-.25.64-.69.88-1.27.88h-2.89c-.59,0-1.03-.24-1.27-.88l-6.13-16.18-6.03,16.18c-.25.59-.69.88-1.27.88h-3.04c-.59,0-1.03-.29-1.27-.88l-5.98-16.18-6.18,16.18c-.24.64-.69.88-1.27.88h-2.89c-.59,0-1.03-.24-1.27-.88l-6.03-16.18-6.03,16.18c-.2.59-.69.88-1.27.88h-3.14c-.74,0-1.03-.59-.78-1.18l8.19-21.42c.25-.64.69-.93,1.27-.93h3.53c.59,0,1.03.29,1.27.93l5.78,15.64,5.83-15.64c.25-.64.69-.93,1.27-.93h3.48c.59,0,1.03.29,1.27.93l5.78,15.64,5.78-15.64c.25-.64.69-.93,1.27-.93h3.48c.59,0,1.03.29,1.27.93l5.88,15.64,5.74-15.64c.25-.64.69-.93,1.27-.93h3.53c.59,0,1.03.29,1.27.93l8.19,21.42M93.66,20h-2.89c-.59,0-1.13.49-1.13,1.13v1.96c-1.47-2.21-4.31-3.77-7.7-3.77-6.37,0-11.86,5.05-11.86,12.4s5.49,12.45,11.81,12.45c3.43,0,6.23-1.57,7.75-3.77v2.06c0,.59.54,1.08,1.13,1.08h2.89c.59,0,1.08-.49,1.08-1.08v-21.32c0-.64-.49-1.13-1.08-1.13M82.48,39.46c-4.22,0-7.21-3.43-7.21-7.7s2.99-7.65,7.21-7.65,7.21,3.33,7.21,7.65-3.04,7.7-7.21,7.7M128.17,40.2c.64.78.1,1.37-.25,1.62-2.01,1.52-4.66,2.35-7.55,2.35-7.3,0-12.16-5.34-12.16-12.4s4.85-12.45,12.16-12.45c2.89,0,5.54.83,7.55,2.35.34.25.83.78.25,1.62l-1.37,1.91c-.54.74-1.18.54-1.72.2-1.27-.78-2.79-1.42-4.56-1.42-4.26,0-7.11,3.43-7.11,7.79s2.84,7.74,7.11,7.74c1.76,0,3.19-.69,4.46-1.42.54-.29,1.13-.54,1.72.24l1.47,1.86ZM141.8,19.36c-6.86,0-12.35,5.39-12.35,12.4s5.49,12.4,12.35,12.4,12.35-5.34,12.35-12.4-5.49-12.4-12.35-12.4M141.8,39.41c-4.22,0-7.21-3.38-7.21-7.65s2.99-7.65,7.21-7.65,7.21,3.33,7.21,7.65-2.99,7.65-7.21,7.65M103.81,8.83c.64,0,1.08.54,1.08,1.13v32.45c0,.59-.44,1.13-1.08,1.13h-2.89c-.59,0-1.13-.54-1.13-1.13V9.95c0-.59.54-1.13,1.13-1.13h2.89"/>
</svg>