<svg id="background" xmlns="http://www.w3.org/2000/svg" viewBox="0 0 39.09 38.86"><defs><style>.cls-1{fill:none;stroke:#9d9d9c;stroke-miterlimit:10;stroke-width:1.48px;}.cls-2{fill:#9d9d9c;}</style></defs><path class="cls-1" d="M34.83,12.51c0,11.79-6.55,21.64-15.31,24.07C10.76,34.15,4.2,24.3,4.2,12.51a30.33,30.33,0,0,1,.2-3.46A22.11,22.11,0,0,0,20.09,2.28,22.17,22.17,0,0,0,34.64,9,30.93,30.93,0,0,1,34.83,12.51Z"/><path class="cls-2" d="M29.8,11.59a2,2,0,0,0-1,.17A7.2,7.2,0,0,0,27,12.81L26.8,13l-.54.5c-1.85,1.7-3.69,3.42-5.47,5.19-1.28,1.27-2.43,2.68-3.65,4-1-.48-2-1-3.08-1.39a8.44,8.44,0,0,0-2.43-.52c-.31,0-.77.39-.93.72s.12.7.34.95c1.17,1.41,2.46,2.72,3.56,4.18a23.9,23.9,0,0,1,1.46,2.24l.41.71c.2.33.4.67.61,1s.43.52.59.48.41-.36.6-.57.08-.19.12-.28l.27-.63c.09-.24.2-.47.3-.71A45.31,45.31,0,0,1,26.44,17l.7-.78c.75-.8,1.53-1.58,2.35-2.33a6,6,0,0,0,.93-1A.75.75,0,0,0,29.8,11.59Z"/></svg>