<?xml version="1.0" encoding="UTF-8"?>
<svg id="Layer_1" data-name="Layer 1" xmlns="http://www.w3.org/2000/svg" viewBox="0 0 312.85 111.81">
  <defs>
    <style>
      .cls-1 {
        fill: #3253dc;
        stroke-width: 0px;
      }
    </style>
  </defs>
  <path class="cls-1" d="M92.7,45.05c.73,0,1.39.6,1.39,1.39v26.32c0,.73-.67,1.33-1.39,1.33h-3.57c-.67,0-1.33-.54-1.33-1.27v-2.42c-1.81,2.66-4.9,4.48-9.44,4.48-7.56,0-12.22-5.02-12.22-12.46v-16.03c0-.73.67-1.33,1.39-1.33h3.57c.73,0,1.33.6,1.33,1.33v15c0,4.84,2.54,8.05,7.56,8.05s7.8-3.33,7.8-7.99v-15.06c0-.73.67-1.33,1.33-1.33h3.57M40.07,30.47c-12.22,0-22.08,9.5-22.08,22.2s9.86,22.2,22.08,22.2c2.09,0,4.11-.28,6.02-.81l2.39,6.19c.24.67.73,1.09,1.63,1.09h3.81c.91,0,1.57-.61,1.15-1.75l-3.11-8.1c6.13-3.85,10.19-10.67,10.19-18.82,0-12.7-9.86-22.2-22.08-22.2M49.69,65.53l-2.78-7.24c-.24-.6-.73-1.15-1.81-1.15h-3.63c-.91,0-1.63.6-1.21,1.75l3.67,9.52c-1.22.3-2.5.46-3.85.46-8.95,0-15.3-7.02-15.3-16.21s6.35-16.21,15.3-16.21,15.31,7.02,15.31,16.21c0,5.34-2.14,9.94-5.69,12.86M294.75,72.63c.3.73-.06,1.45-.97,1.45h-3.99c-.73,0-1.33-.36-1.57-1.09l-7.38-19.84-7.5,19.84c-.3.79-.85,1.09-1.57,1.09h-3.57c-.73,0-1.27-.3-1.57-1.09l-7.56-19.96-7.44,19.96c-.3.73-.85,1.09-1.57,1.09h-3.75c-.73,0-1.27-.36-1.57-1.09l-7.38-19.96-7.62,19.96c-.3.79-.85,1.09-1.57,1.09h-3.57c-.73,0-1.27-.3-1.57-1.09l-7.44-19.96-7.44,19.96c-.24.73-.85,1.09-1.57,1.09h-3.87c-.91,0-1.27-.73-.97-1.45l10.1-26.44c.3-.79.85-1.15,1.57-1.15h4.36c.73,0,1.27.36,1.57,1.15l7.14,19.3,7.2-19.3c.3-.79.85-1.15,1.57-1.15h4.3c.73,0,1.27.36,1.57,1.15l7.14,19.3,7.14-19.3c.3-.79.85-1.15,1.57-1.15h4.3c.73,0,1.27.36,1.57,1.15l7.26,19.3,7.08-19.3c.3-.79.85-1.15,1.57-1.15h4.36c.73,0,1.27.36,1.57,1.15l10.1,26.44M127.31,45.05h-3.57c-.73,0-1.39.6-1.39,1.39v2.42c-1.81-2.72-5.32-4.66-9.5-4.66-7.86,0-14.64,6.23-14.64,15.3s6.78,15.37,14.58,15.37c4.23,0,7.68-1.94,9.56-4.66v2.54c0,.73.67,1.33,1.39,1.33h3.57c.73,0,1.33-.6,1.33-1.33v-26.32c0-.79-.61-1.39-1.33-1.39M113.51,69.06c-5.2,0-8.89-4.23-8.89-9.5s3.69-9.44,8.89-9.44,8.89,4.11,8.89,9.44-3.75,9.5-8.89,9.5M169.9,69.97c.79.97.12,1.69-.3,2-2.48,1.88-5.75,2.9-9.32,2.9-9.01,0-15-6.59-15-15.31s5.99-15.37,15-15.37c3.57,0,6.84,1.03,9.32,2.9.42.3,1.03.97.3,2l-1.69,2.36c-.67.91-1.45.67-2.12.24-1.57-.97-3.45-1.75-5.63-1.75-5.26,0-8.77,4.23-8.77,9.62s3.51,9.56,8.77,9.56c2.18,0,3.93-.85,5.51-1.75.67-.36,1.39-.67,2.12.3l1.81,2.3ZM186.71,44.26c-8.47,0-15.24,6.65-15.24,15.31s6.78,15.3,15.24,15.3,15.24-6.59,15.24-15.3-6.78-15.31-15.24-15.31M186.71,69c-5.2,0-8.89-4.17-8.89-9.44s3.69-9.44,8.89-9.44,8.89,4.11,8.89,9.44-3.69,9.44-8.89,9.44M139.83,31.25c.79,0,1.33.67,1.33,1.39v40.05c0,.73-.54,1.39-1.33,1.39h-3.57c-.73,0-1.39-.67-1.39-1.39v-40.05c0-.73.67-1.39,1.39-1.39h3.57"/>
</svg>