<?xml version="1.0" encoding="UTF-8"?>
<svg id="Layer_1" data-name="Layer 1" xmlns="http://www.w3.org/2000/svg" viewBox="0 0 303.25 87.53">
  <defs>
    <style>
      .cls-1 {
        fill: #2f409a;
      }

      .cls-1, .cls-2 {
        stroke-width: 0px;
      }

      .cls-2 {
        fill: #30419a;
      }
    </style>
  </defs>
  <path class="cls-2" d="M41.11,21.86c.64.21,1.31.14,1.97.21,3.11.32,6.16.87,9.03,2.18,1.13.51,2.18,1.15,3.06,2.02,2.25,2.2,2.57,5.74.77,8.57-1.23,1.93-3.03,3.23-4.96,4.38-1.01.6-2.09,1.08-3.13,1.62-1.75.9-2.06,1.8-1.21,3.57.69,1.43,1.7,2.65,2.71,3.85,5.78,6.87,12.6,12.48,20.49,16.81.15.08.46.11.39.36-.05.19-.32.23-.51.25-.33.03-.64-.08-.96-.16-6.99-1.87-13.4-5-19.43-8.93-4.05-2.64-7.83-5.6-11.11-9.16-.97-1.05-1.88-2.16-2.63-3.38-1.2-1.94-.88-3.03,1.18-4.03,2.33-1.12,4.55-2.39,6.37-4.27,1.05-1.09,1.9-2.31,1.9-3.9,0-1.94-1.03-3.34-2.55-4.41-1.72-1.21-3.7-1.76-5.74-1.97-6.86-.69-13.46.36-19.73,3.25-.79.36-1.53.82-2.29,1.23-.17.09-.36.24-.55.11-.21-.14-.09-.36-.09-.55.04-1.41.81-2.22,2.07-2.81,4.54-2.13,9.31-3.46,14.26-4.2,1.69-.25,3.38-.43,5.08-.53.09,0,.18,0,.22-.11h5.44Z"/>
  <path class="cls-1" d="M287.43,29.77c-.62,1.15-1.17,2.2-1.77,3.23-.32.56-.88.7-1.5.69-2.86-.01-5.73-.03-8.59,0-2.43.02-4.86-.12-7.28.1-.74.07-1.47.2-2.14.54-1.21.61-1.37,2.1-.31,2.95.9.71,1.98,1.04,3.04,1.4,3.91,1.31,7.83,2.57,11.73,3.9,2.13.73,4.17,1.66,5.96,3.05,1.2.93,2.17,2.03,2.51,3.56.54,2.47-.51,4.75-2.8,6.11-1.75,1.04-3.69,1.45-5.68,1.71-1.62.21-3.25.23-4.88.23-15.03,0-30.05,0-45.08,0-.13,0-.26-.01-.38,0-.42.05-.4-.12-.24-.42.46-.84.92-1.68,1.34-2.54.35-.73.91-.99,1.7-.99,3.24.02,6.49,0,9.73,0,.13,0,.25,0,.38,0,.21,0,.26-.08.16-.26-.06-.11-.12-.22-.19-.33-3.03-5.32-6.06-10.64-9.09-15.96-.41-.72-.67-.71-1.09.03-1.53,2.68-3.05,5.37-4.57,8.06-2.26,3.99-4.52,7.99-6.78,11.98-.13.23-.23.44-.59.44-2.97-.02-5.94-.01-8.92-.01-.07,0-.13-.01-.21-.02.01-.22.15-.34.24-.49,4.55-7.43,9.1-14.85,13.64-22.28.97-1.58,2.07-3.01,3.81-3.82,1.14-.53,2.34-.78,3.58-.81,2.12-.05,4.24-.02,6.36-.04.37,0,.45.23.59.45,4.57,7.46,9.14,14.91,13.69,22.38.32.53.65.72,1.27.72,6.13-.02,12.25,0,18.38-.01,1.23,0,2.47-.08,3.64-.53,1-.38,1.38-1.03,1.21-2.02-.11-.63-.53-1.01-1.05-1.31-1.04-.6-2.18-.96-3.31-1.34-3.62-1.2-7.25-2.36-10.86-3.59-2.3-.78-4.52-1.77-6.42-3.33-1.37-1.12-2.32-2.49-2.38-4.33-.07-2.16.83-3.85,2.65-5.02,1.54-.99,3.26-1.44,5.04-1.73,1.69-.27,3.38-.35,5.09-.35,6.54,0,13.09,0,19.63,0,.2,0,.39,0,.71,0Z"/>
  <path class="cls-1" d="M134.03,43.53c0,4.39,0,8.78,0,13.18,0,.42-.1.54-.53.54-2.28-.03-4.57,0-6.85-.03-1.74-.03-3.43-.3-4.85-1.44-.97-.78-1.72-1.76-2.52-2.69-4.58-5.36-9.16-10.74-13.74-16.1-.05-.06-.09-.11-.14-.16-.12-.14-.28-.31-.45-.26-.22.07-.1.31-.1.48,0,6.53-.01,13.05,0,19.58,0,.54-.15.65-.66.64-1.45-.04-2.9-.03-4.35,0-.44,0-.57-.08-.57-.55.02-8.8.01-17.61.01-26.41,0-.26-.09-.53.37-.52,2.5.06,5-.06,7.5.1,2.48.16,4.51,1.1,6.14,3.02,4.18,4.94,8.41,9.85,12.62,14.77.66.77,1.31,1.54,1.97,2.31.13.15.25.38.47.3.23-.09.11-.35.11-.53,0-6.45.01-12.91,0-19.36,0-.49.12-.64.62-.63,1.47.04,2.94.03,4.4,0,.43,0,.54.11.54.54-.02,4.41,0,8.82,0,13.23Z"/>
  <path class="cls-1" d="M176.6,57.2c.58-1.1,1.12-2.14,1.68-3.16.3-.54.81-.74,1.42-.74,2.1,0,4.2,0,6.31,0,3.53,0,7.07.01,10.6,0,1.1,0,2.21-.08,3.28-.4.78-.23,1.4-.61,1.49-1.51.09-.9-.31-1.53-1.08-1.96-1.43-.8-3.01-1.23-4.55-1.75-3.68-1.25-7.42-2.31-11.05-3.72-2.06-.81-4.05-1.78-5.65-3.37-2.69-2.67-2.26-6.69.92-8.75,1.57-1.01,3.33-1.46,5.15-1.75,1.58-.25,3.17-.33,4.77-.33,6.72,0,13.45,0,20.17,0,.11,0,.22,0,.42,0-.66,1.18-1.19,2.36-1.92,3.43-.31.46-.85.5-1.37.5-4.35,0-8.7-.01-13.05-.02-1.38,0-2.76,0-4.1.34-.31.08-.63.19-.91.34-1.06.55-1.25,1.96-.4,2.8.41.4.91.65,1.43.87,2.49,1.02,5.09,1.75,7.64,2.61,2.77.94,5.6,1.71,8.28,2.93,1.45.66,2.85,1.42,4.06,2.48,2.21,1.93,2.79,4.68,1.47,7.03-.84,1.5-2.21,2.36-3.76,2.96-2.17.84-4.46,1.16-6.76,1.17-8.08.05-16.17.03-24.25.03-.05,0-.11-.01-.24-.03Z"/>
  <path class="cls-2" d="M173.48,29.79c-.63,1.16-1.18,2.25-1.8,3.3-.33.55-.94.61-1.54.6-4.42-.01-8.84-.01-13.27-.02-1.31,0-2.61.02-3.87.41-1.82.56-2.76,1.68-2.88,3.57-.07.99-.03,1.99-.05,2.98,0,.25.07.37.33.35.14-.01.29,0,.43,0,6.67,0,13.34,0,20.01,0q.64,0,.33.58c-.4.75-.83,1.48-1.18,2.25-.39.86-1.03,1.15-1.95,1.15-5.42-.02-10.84,0-16.26,0-.47,0-.94,0-1.41,0-.19,0-.31.03-.3.26.05,1.55-.12,3.11.11,4.66.24,1.61,1.26,2.55,2.76,3.01,1.16.35,2.35.42,3.55.42,5.6,0,11.2,0,16.8,0h.69c-.65,1.19-1.15,2.37-1.85,3.43-.28.42-.77.5-1.26.5-2.32,0-4.64,0-6.96,0-3.64,0-7.29,0-10.93,0-2.38-.01-4.74-.25-6.99-1.09-3.55-1.32-5.44-3.91-5.67-7.64-.2-3.28-.19-6.58-.01-9.86.23-4.11,2.4-6.76,6.35-7.98,1.97-.61,4-.87,6.05-.87,6.78-.01,13.56,0,20.33,0,.11,0,.22,0,.45.02Z"/>
  <path class="cls-2" d="M92.03,40.98c-.64,1.19-1.16,2.36-1.87,3.43-.33.5-.9.55-1.46.55-4.35,0-8.7,0-13.05,0-1.54,0-3.08.01-4.62,0-.35,0-.46.09-.45.45.02,1.08,0,2.17.01,3.25.02,2.64,1.23,4.04,3.85,4.46.86.14,1.73.2,2.6.2,5.58,0,11.17,0,16.75,0,.2,0,.39,0,.69,0-.63,1.2-1.15,2.37-1.84,3.44-.25.39-.7.49-1.15.49-.92,0-1.85,0-2.77,0-5.06,0-10.11.01-15.17,0-2.57,0-5.1-.28-7.5-1.29-3.14-1.33-4.85-3.73-5.11-7.07-.28-3.57-.27-7.16-.01-10.73.29-3.94,2.62-6.32,6.3-7.49,1.76-.56,3.57-.84,5.4-.85,7.05-.04,14.1-.02,21.15-.03.05,0,.11.01.25.03-.66,1.15-1.16,2.35-1.91,3.4-.32.45-.85.49-1.38.49-4.44,0-8.88,0-13.32-.02-1.18,0-2.36.03-3.51.31-2.15.54-3.16,1.73-3.29,3.94-.05.9-.01,1.81-.03,2.71,0,.25.07.37.33.34.13-.01.25,0,.38,0,6.69,0,13.38,0,20.07,0h.67Z"/>
  <path class="cls-1" d="M22.35,55.93c-1.98,0-3.95,0-5.93,0-.35,0-.45-.09-.45-.45.01-3.98.01-7.96,0-11.93,0-.39.13-.47.49-.47,3.95.01,7.9.01,11.85,0,.41,0,.51.1.51.51-.02,3.94-.02,7.88,0,11.82,0,.45-.15.52-.55.52-1.98-.02-3.95,0-5.93,0Z"/>
</svg>