<svg xmlns="http://www.w3.org/2000/svg" viewBox="0 0 592.93 422.8"><defs><style>.cls-1,.cls-5{fill:#0cb2dd;}.cls-1{opacity:0.6;}.cls-2{fill:#fff;}.cls-3{fill:#9ac43a;}.cls-3,.cls-4,.cls-6,.cls-7,.cls-8{stroke:#fff;stroke-miterlimit:10;}.cls-3,.cls-4{stroke-width:2.27px;}.cls-4{fill:#8b63a9;}.cls-6,.cls-7,.cls-8{fill:none;}.cls-6{stroke-width:1.46px;}.cls-7{stroke-width:1.46px;}.cls-8{stroke-width:1.1px;}</style></defs><g id="upper"><path class="cls-1" d="M592.93,0V422.8h-1a124.07,124.07,0,0,0-234.74-33.29,124.09,124.09,0,0,0-157.48,14.3A56.93,56.93,0,0,0,165.65,371L312.88,223.78c-4.66-3.94-9.44-8.36-14.22-13.13-4.14-4.13-8-8.29-11.5-12.34L150.58,334.88a89.68,89.68,0,0,0-75.22-65.95,78.33,78.33,0,0,0,3.36-22.79,78.55,78.55,0,0,0-27.71-60,99.14,99.14,0,0,0,51.06-86.75A99.21,99.21,0,0,0,2.86.2C1.9.2,1,.21,0,.24V0Z"/><path class="cls-2" d="M469.42,318.34a124,124,0,0,0-112.23,71.17,124.09,124.09,0,0,0-157.48,14.3A56.93,56.93,0,0,0,165.65,371L312.88,223.78c-4.66-3.94-9.44-8.36-14.22-13.13-4.14-4.13-8-8.29-11.5-12.34L150.58,334.88a89.68,89.68,0,0,0-75.22-65.95,78.33,78.33,0,0,0,3.36-22.79,78.55,78.55,0,0,0-27.71-60,99.14,99.14,0,0,0,51.06-86.75A99.21,99.21,0,0,0,2.86.2C1.9.2,1,.21,0,.24V422.8H591.93A124.08,124.08,0,0,0,469.42,318.34Z"/><path class="cls-2" d="M313.9,222.77l-1,1c-4.66-3.94-9.44-8.36-14.22-13.13-4.14-4.13-8-8.29-11.5-12.34l1.14-1.14Z"/><path class="cls-3" d="M412.47,127.12,383.88,98.53c12.2-4.45,23.93-6.43,34.3-5.71C418.9,103.19,416.92,114.92,412.47,127.12Z"/><path class="cls-3" d="M319.13,221.64q-3.13,1.19-6.21,2.17l0,0c-4.66-3.94-9.44-8.36-14.22-13.13-4.14-4.13-8-8.29-11.5-12.34l0,0c.63-2.06,1.36-4.13,2.14-6.22,4,4.77,8.51,9.66,13.4,14.56C308.22,212.17,313.8,217.22,319.13,221.64Z"/><path class="cls-3" d="M362.77,195.22a169.63,169.63,0,0,1-18.16,13.4h0c-1.61,1-3.2,2-4.82,3-3.37,2-6.72,3.81-10.08,5.44l2.16,14.15,1.11,7.29,1.17,7.68,4.58-4.58,4-4,8.27-8.27,4-4,10.7-10.7Z"/><path class="cls-3" d="M299.58,171q1.41-2.43,3-4.83a171.11,171.11,0,0,1,13.23-17.89l-19.16-2.81-10.08,10.09-4,4L273,169l-4,4-4,4,6.85,1,7.4,1.07L294,181.26C295.68,177.83,297.53,174.4,299.58,171Z"/><path class="cls-4" d="M412.46,127.13l-.11.12L383.7,98.6c-19,6.93-39.12,19.86-57.11,37.85-3.84,3.84-7.46,7.77-10.82,11.79a171.11,171.11,0,0,0-13.23,17.89q-1.55,2.4-3,4.83c-2.05,3.44-3.9,6.87-5.59,10.3q-2.65,5.46-4.71,10.82c4,4.76,8.51,9.66,13.4,14.54,5.55,5.55,11.12,10.6,16.45,15q5.24-2,10.57-4.61c3.36-1.63,6.71-3.44,10.08-5.44,1.62-.94,3.21-1.91,4.82-3h0a169.63,169.63,0,0,0,18.16-13.4h0q6-5.06,11.76-10.8C392.59,166.37,405.53,146.18,412.46,127.13Z"/><path class="cls-5" d="M375.59,135.48a13.94,13.94,0,1,1-19.71,0A13.93,13.93,0,0,1,375.59,135.48Z"/><path class="cls-6" d="M389.41,145.33a23.68,23.68,0,1,1-23.7-23.66A23.69,23.69,0,0,1,389.41,145.33Z"/><path class="cls-7" d="M381.33,145.33a15.61,15.61,0,1,1-15.61-15.59A15.6,15.6,0,0,1,381.33,145.33Z"/><circle class="cls-8" cx="365.73" cy="125.9" r="1.33"/><circle class="cls-8" cx="365.73" cy="164.95" r="1.33"/><circle class="cls-8" cx="346.25" cy="145.32" r="1.33"/><circle class="cls-8" cx="385.3" cy="145.32" r="1.33"/><circle class="cls-8" cx="351.94" cy="131.45" r="1.33"/><circle class="cls-8" cx="379.55" cy="159.07" r="1.33"/><circle class="cls-8" cx="351.9" cy="158.96" r="1.33"/><circle class="cls-8" cx="379.51" cy="131.35" r="1.33"/></g></svg>