<?xml version="1.0" encoding="UTF-8"?><svg id="map" xmlns="http://www.w3.org/2000/svg" viewBox="0 0 569.42 183.3"><defs><style>.cls-1{fill:none;}.cls-2{fill:#fff;}.cls-3{fill:#585858;opacity:.8;}</style></defs><rect class="cls-3" width="569.42" height="183.3" rx="7.12" ry="7.12"/><path class="cls-2" d="m31.37,40.96h-2.23c-.25,0-.45-.06-.6-.17s-.27-.26-.35-.45l-.73-2.16h-4.71l-.73,2.16c-.06.16-.17.3-.34.43-.16.13-.36.19-.6.19h-2.24l4.79-12.38h2.94l4.79,12.38Zm-4.56-4.73l-1.15-3.39c-.08-.22-.18-.47-.27-.76-.1-.29-.19-.61-.29-.95-.08.35-.18.67-.27.96-.1.29-.19.55-.27.77l-1.14,3.37h3.39Z"/><path class="cls-2" d="m38.29,34.24c-.08.1-.16.17-.23.23s-.18.08-.31.08-.25-.03-.35-.09c-.1-.06-.22-.13-.35-.21-.13-.08-.28-.15-.46-.21s-.39-.09-.65-.09c-.32,0-.6.06-.84.18s-.43.29-.58.51c-.15.22-.27.49-.34.81-.07.32-.11.68-.11,1.08,0,.84.16,1.49.49,1.95s.77.68,1.35.68c.31,0,.55-.04.73-.11.18-.08.33-.16.46-.25.12-.09.24-.18.34-.26.1-.08.24-.12.4-.12.21,0,.37.08.48.23l.77.94c-.27.31-.56.56-.86.76-.3.2-.61.35-.92.46s-.63.19-.95.23-.63.06-.93.06c-.54,0-1.05-.1-1.54-.31-.49-.2-.92-.5-1.29-.89-.37-.39-.67-.87-.88-1.43-.22-.57-.33-1.21-.33-1.94,0-.63.09-1.23.29-1.78.19-.55.47-1.03.84-1.44.37-.4.83-.72,1.38-.96s1.18-.35,1.9-.35,1.3.11,1.82.33c.52.22.99.54,1.41.97l-.7.93Z"/><path class="cls-2" d="m46.41,34.24c-.08.1-.16.17-.23.23-.07.06-.18.08-.31.08s-.25-.03-.35-.09c-.1-.06-.22-.13-.35-.21-.13-.08-.28-.15-.46-.21-.18-.06-.39-.09-.65-.09-.32,0-.6.06-.84.18s-.43.29-.58.51c-.15.22-.27.49-.34.81-.07.32-.11.68-.11,1.08,0,.84.16,1.49.49,1.95.33.45.77.68,1.35.68.31,0,.55-.04.73-.11.18-.08.33-.16.45-.25.12-.09.24-.18.34-.26.1-.08.24-.12.4-.12.21,0,.37.08.48.23l.77.94c-.27.31-.56.56-.86.76-.3.2-.61.35-.92.46s-.63.19-.95.23-.63.06-.93.06c-.54,0-1.05-.1-1.54-.31-.49-.2-.92-.5-1.29-.89s-.67-.87-.88-1.43c-.22-.57-.33-1.21-.33-1.94,0-.63.09-1.23.28-1.78.19-.55.47-1.03.84-1.44.37-.4.83-.72,1.38-.96s1.18-.35,1.9-.35,1.3.11,1.82.33c.52.22.99.54,1.41.97l-.7.93Z"/><path class="cls-2" d="m50.22,37.03c.08.74.31,1.27.67,1.6.36.33.83.5,1.4.5.31,0,.57-.04.79-.11.22-.07.42-.16.59-.25s.33-.17.48-.25.3-.11.46-.11c.21,0,.37.08.48.23l.77.94c-.27.31-.57.56-.88.76s-.64.35-.97.46-.66.19-.99.23c-.33.04-.65.06-.95.06-.62,0-1.2-.1-1.74-.3-.54-.2-1.01-.5-1.42-.9-.41-.4-.73-.89-.96-1.48-.24-.59-.35-1.27-.35-2.06,0-.59.1-1.15.3-1.67.2-.53.49-.99.87-1.39.38-.4.83-.71,1.37-.94s1.14-.35,1.81-.35c.58,0,1.12.09,1.6.27.48.18.9.44,1.25.79s.62.77.82,1.27c.2.5.29,1.07.29,1.7,0,.2,0,.36-.03.48-.02.12-.05.22-.09.3-.05.07-.11.12-.18.15s-.17.04-.29.04h-5.08Zm3.31-1.53c0-.21-.03-.41-.08-.61s-.14-.38-.26-.53c-.12-.16-.28-.28-.48-.38-.2-.1-.44-.14-.72-.14-.5,0-.89.14-1.17.43s-.47.7-.56,1.24h3.28Z"/><path class="cls-2" d="m62.81,34.08c-.07.11-.14.18-.22.23-.08.05-.17.07-.29.07s-.25-.03-.37-.08c-.12-.05-.26-.11-.4-.17s-.31-.12-.49-.17c-.18-.05-.39-.08-.62-.08-.33,0-.59.06-.77.19-.18.13-.27.3-.27.53,0,.16.06.3.17.41.12.11.27.2.46.29.19.08.41.16.65.23.24.07.49.16.75.25.25.09.5.2.75.32.24.12.46.27.65.45.19.18.35.4.46.65s.17.56.17.92c0,.44-.08.84-.24,1.21-.16.37-.4.69-.71.95-.31.27-.7.47-1.16.62-.46.15-.99.22-1.59.22-.3,0-.6-.03-.9-.08-.3-.06-.59-.13-.87-.23-.28-.1-.54-.21-.78-.34-.24-.13-.44-.28-.61-.43l.61-.97c.07-.11.15-.2.26-.27.1-.06.24-.1.4-.1.15,0,.29.03.41.1.12.07.25.14.4.22s.31.15.5.22c.19.07.43.1.72.1.2,0,.38-.02.52-.06.14-.04.26-.1.34-.17s.15-.16.19-.25c.04-.09.06-.18.06-.28,0-.18-.06-.32-.18-.43-.12-.11-.27-.21-.47-.29-.19-.08-.41-.16-.66-.23-.25-.07-.5-.15-.75-.24s-.51-.2-.75-.33c-.25-.13-.47-.29-.66-.48-.19-.2-.35-.44-.47-.72-.12-.28-.18-.63-.18-1.03,0-.37.07-.73.22-1.07.14-.34.36-.63.65-.89s.65-.46,1.09-.61c.44-.15.95-.23,1.53-.23.32,0,.62.03.92.08s.58.14.84.24.5.22.71.36.41.29.57.45l-.59.93Z"/><path class="cls-2" d="m70.39,34.08c-.07.11-.14.18-.22.23-.08.05-.17.07-.29.07-.12,0-.25-.03-.37-.08-.12-.05-.26-.11-.4-.17s-.31-.12-.49-.17c-.18-.05-.39-.08-.62-.08-.33,0-.59.06-.77.19s-.27.3-.27.53c0,.16.06.3.17.41.12.11.27.2.46.29s.41.16.65.23c.24.07.49.16.75.25.25.09.5.2.75.32s.46.27.65.45c.19.18.35.4.46.65s.17.56.17.92c0,.44-.08.84-.24,1.21-.16.37-.4.69-.71.95-.31.27-.7.47-1.16.62-.46.15-.99.22-1.59.22-.3,0-.6-.03-.9-.08s-.59-.13-.87-.23c-.28-.1-.54-.21-.78-.34-.24-.13-.44-.28-.61-.43l.61-.97c.07-.11.15-.2.26-.27.1-.06.24-.1.4-.1.15,0,.29.03.41.1s.25.14.4.22.31.15.5.22c.19.07.43.1.72.1.2,0,.38-.02.52-.06.14-.04.25-.1.34-.17s.15-.16.19-.25c.04-.09.06-.18.06-.28,0-.18-.06-.32-.18-.43-.12-.11-.28-.21-.47-.29-.19-.08-.41-.16-.66-.23-.25-.07-.5-.15-.75-.24s-.51-.2-.75-.33c-.25-.13-.47-.29-.66-.48-.19-.2-.35-.44-.47-.72-.12-.28-.18-.63-.18-1.03,0-.37.07-.73.22-1.07.14-.34.36-.63.65-.89s.65-.46,1.09-.61c.44-.15.95-.23,1.53-.23.32,0,.62.03.92.08.3.06.58.14.84.24s.5.22.71.36c.22.14.41.29.57.45l-.6.93Z"/><path class="cls-2" d="m79.44,41.1c-.42,0-.79-.06-1.11-.18-.32-.12-.59-.29-.81-.52-.22-.22-.38-.49-.5-.81-.11-.32-.17-.67-.17-1.06v-4.56h-.75c-.14,0-.25-.04-.35-.13-.1-.09-.14-.22-.14-.39v-1.03l1.4-.27.52-2.15c.07-.27.26-.41.58-.41h1.38v2.58h2.18v1.8h-2.18v4.38c0,.2.05.37.15.51s.24.2.43.2c.1,0,.18,0,.24-.03.06-.02.12-.04.17-.07.05-.03.09-.05.14-.07.04-.02.09-.03.15-.03.08,0,.14.02.19.06.05.04.1.1.15.17l.8,1.25c-.34.25-.72.45-1.15.57-.43.13-.86.19-1.32.19Z"/><path class="cls-2" d="m86.79,32.01c.67,0,1.28.11,1.83.31.55.21,1.02.51,1.42.9.39.39.7.87.92,1.42.22.56.33,1.19.33,1.88s-.11,1.34-.33,1.9c-.22.56-.52,1.04-.92,1.44-.39.39-.87.7-1.42.91-.55.21-1.16.32-1.83.32s-1.29-.11-1.84-.32c-.55-.21-1.03-.52-1.43-.91-.4-.39-.71-.87-.93-1.44-.22-.56-.33-1.2-.33-1.9s.11-1.32.33-1.88c.22-.56.53-1.03.93-1.42.4-.39.88-.69,1.43-.9.55-.21,1.17-.31,1.84-.31Zm0,7.13c.61,0,1.05-.21,1.34-.64s.43-1.08.43-1.95-.14-1.52-.43-1.95-.73-.64-1.34-.64-1.08.21-1.37.64c-.29.42-.43,1.07-.43,1.95s.14,1.52.43,1.95c.29.43.75.64,1.37.64Z"/><path class="cls-2" d="m96.34,33.37c.53-.47,1.12-.82,1.77-1.05.65-.23,1.34-.34,2.09-.34.53,0,1.01.09,1.44.26s.79.41,1.09.72c.3.31.53.68.68,1.1.16.42.24.89.24,1.39v5.51h-1.21c-.25,0-.44-.03-.56-.1-.13-.07-.23-.21-.32-.42l-.19-.48c-.22.19-.43.35-.64.49-.2.14-.42.26-.63.36s-.45.17-.7.22c-.25.05-.52.07-.82.07-.4,0-.77-.05-1.1-.16-.33-.1-.61-.26-.84-.46-.23-.2-.41-.46-.53-.76-.12-.3-.19-.65-.19-1.05,0-.32.08-.64.24-.96.16-.33.43-.62.82-.89.39-.27.92-.49,1.58-.68.66-.18,1.5-.28,2.51-.31v-.37c0-.52-.11-.89-.32-1.12s-.51-.34-.91-.34c-.31,0-.57.03-.77.1-.2.07-.38.14-.53.23s-.31.16-.45.23c-.15.07-.32.1-.53.1-.18,0-.33-.04-.46-.14-.12-.09-.23-.2-.31-.32l-.48-.82Zm4.74,4c-.53.02-.96.07-1.3.14-.34.07-.61.15-.81.25-.2.1-.34.22-.41.35-.08.13-.11.27-.11.42,0,.3.08.51.25.63.16.12.41.18.72.18.34,0,.64-.06.89-.18.25-.12.51-.31.77-.58v-1.22Z"/><path class="cls-2" d="m114.86,34.08c-.07.11-.14.18-.22.23-.08.05-.17.07-.29.07s-.25-.03-.37-.08c-.12-.05-.26-.11-.4-.17s-.31-.12-.49-.17c-.18-.05-.39-.08-.62-.08-.33,0-.59.06-.77.19-.18.13-.27.3-.27.53,0,.16.06.3.17.41.12.11.27.2.46.29s.41.16.65.23c.24.07.49.16.75.25.25.09.5.2.75.32s.46.27.65.45c.19.18.35.4.46.65.12.25.17.56.17.92,0,.44-.08.84-.24,1.21-.16.37-.4.69-.71.95-.31.27-.7.47-1.16.62s-.99.22-1.59.22c-.3,0-.6-.03-.9-.08s-.59-.13-.87-.23c-.28-.1-.54-.21-.78-.34-.24-.13-.44-.28-.61-.43l.61-.97c.07-.11.15-.2.26-.27.1-.06.24-.1.4-.1.15,0,.29.03.41.1s.25.14.4.22.31.15.5.22c.19.07.43.1.72.1.2,0,.38-.02.52-.06.14-.04.26-.1.34-.17s.15-.16.19-.25c.04-.09.06-.18.06-.28,0-.18-.06-.32-.18-.43-.12-.11-.27-.21-.47-.29s-.41-.16-.66-.23c-.25-.07-.5-.15-.75-.24-.25-.09-.51-.2-.75-.33-.25-.13-.47-.29-.66-.48-.19-.2-.35-.44-.47-.72-.12-.28-.18-.63-.18-1.03,0-.37.07-.73.22-1.07.14-.34.36-.63.65-.89s.65-.46,1.09-.61.95-.23,1.53-.23c.32,0,.62.03.92.08.3.06.58.14.84.24s.5.22.71.36c.21.14.4.29.57.45l-.6.93Z"/><path class="cls-2" d="m119.8,29.73c0,.21-.04.41-.13.59s-.2.35-.35.48c-.15.14-.32.25-.51.33-.2.08-.4.12-.62.12s-.42-.04-.6-.12c-.19-.08-.35-.19-.5-.33-.14-.14-.26-.3-.34-.48-.08-.18-.12-.38-.12-.59s.04-.42.12-.6c.08-.19.2-.35.34-.49s.31-.25.5-.33c.19-.08.39-.12.6-.12s.43.04.62.12c.2.08.37.19.51.33s.26.31.35.49.13.39.13.6Zm-.27,2.41v8.81h-2.63v-8.81h2.63Z"/><path class="cls-2" d="m123.8,33.1c.17-.16.35-.31.53-.44.18-.14.38-.25.58-.34.21-.09.43-.17.67-.22.24-.05.5-.08.79-.08.48,0,.91.08,1.28.25s.68.4.94.7c.26.3.45.65.58,1.06.13.41.2.86.2,1.34v5.6h-2.64v-5.6c0-.43-.1-.77-.3-1.01-.2-.24-.49-.36-.88-.36-.29,0-.56.06-.81.18-.25.12-.5.29-.74.5v6.29h-2.63v-8.81h1.63c.33,0,.54.15.65.44l.15.51Z"/><path class="cls-2" d="m139.06,32.42v.96c0,.15-.04.26-.12.35-.08.08-.22.15-.42.2l-.64.14c.03.12.06.25.08.38.02.13.03.27.03.41,0,.44-.09.84-.28,1.19-.18.35-.44.65-.76.9-.32.25-.7.44-1.13.57-.44.13-.9.2-1.4.2-.14,0-.27,0-.4-.01s-.26-.02-.38-.05c-.19.12-.29.25-.29.4s.08.25.24.32c.16.07.37.11.63.14.26.03.56.04.89.05.33,0,.67.03,1.02.06.35.03.68.08,1.02.16s.63.19.89.36c.26.16.47.38.63.66.16.27.24.62.24,1.05,0,.4-.1.78-.29,1.16-.19.38-.48.72-.85,1.01-.37.29-.83.53-1.38.71-.54.18-1.17.27-1.87.27s-1.29-.07-1.79-.2c-.5-.13-.92-.3-1.25-.51-.33-.21-.58-.46-.74-.74-.16-.28-.24-.57-.24-.87,0-.39.11-.72.34-.98.23-.26.54-.47.95-.63-.21-.13-.39-.3-.51-.5-.12-.2-.19-.47-.19-.79,0-.13.02-.27.07-.41.05-.14.12-.29.22-.42s.22-.27.37-.4c.15-.12.32-.23.53-.33-.46-.24-.82-.57-1.09-.96-.27-.4-.4-.87-.4-1.4,0-.44.09-.84.28-1.19.19-.35.44-.65.77-.9.33-.25.71-.44,1.15-.57.44-.13.92-.2,1.44-.2.75,0,1.41.14,1.99.42h2.65Zm-2.6,8.87c0-.21-.09-.36-.28-.45-.19-.09-.43-.16-.73-.2-.3-.04-.64-.06-1.01-.07s-.74-.03-1.11-.06c-.16.11-.3.24-.4.38-.1.14-.16.3-.16.47,0,.12.03.24.08.34.05.1.15.19.28.26.14.07.32.13.55.17s.52.06.87.06c.38,0,.69-.02.93-.07.24-.04.44-.11.58-.19.14-.08.24-.17.3-.29.06-.11.08-.23.08-.36Zm-2.04-5.19c.44,0,.75-.11.95-.33.2-.22.29-.5.29-.85s-.1-.64-.29-.84-.51-.31-.95-.31-.75.1-.95.31-.29.48-.29.84c0,.17.02.33.07.47.05.14.12.26.22.37.1.11.23.19.39.25s.34.09.56.09Z"/><path class="cls-2" d="m142.8,28.24v12.72h-2.64v-12.72h2.64Z"/><path class="cls-2" d="m146.75,37.03c.08.74.31,1.27.67,1.6.36.33.83.5,1.4.5.31,0,.57-.04.79-.11.22-.07.42-.16.59-.25s.33-.17.48-.25.3-.11.46-.11c.21,0,.37.08.48.23l.77.94c-.27.31-.57.56-.88.76s-.64.35-.97.46-.66.19-.99.23c-.33.04-.65.06-.95.06-.62,0-1.2-.1-1.74-.3-.54-.2-1.01-.5-1.42-.9-.41-.4-.73-.89-.96-1.48-.24-.59-.35-1.27-.35-2.06,0-.59.1-1.15.3-1.67.2-.53.49-.99.87-1.39.38-.4.83-.71,1.37-.94s1.14-.35,1.81-.35c.58,0,1.12.09,1.6.27.48.18.9.44,1.25.79s.62.77.82,1.27c.2.5.29,1.07.29,1.7,0,.2,0,.36-.03.48-.02.12-.05.22-.09.3-.05.07-.11.12-.18.15s-.17.04-.29.04h-5.08Zm3.31-1.53c0-.21-.03-.41-.08-.61s-.14-.38-.26-.53c-.12-.16-.28-.28-.48-.38-.2-.1-.44-.14-.72-.14-.5,0-.89.14-1.17.43s-.47.7-.56,1.24h3.28Z"/><path class="cls-2" d="m163.93,34.54h4.4v5.23c-.63.46-1.31.8-2.03,1.01-.72.21-1.47.31-2.25.31-1.02,0-1.95-.16-2.78-.48s-1.55-.76-2.15-1.33c-.59-.56-1.05-1.23-1.38-2.01-.32-.77-.48-1.61-.48-2.52s.15-1.77.46-2.55c.31-.77.74-1.44,1.31-2,.57-.56,1.26-1,2.07-1.31.81-.31,1.71-.47,2.71-.47.52,0,1,.04,1.45.13s.87.2,1.25.35.73.32,1.05.53c.32.2.6.43.85.66l-.83,1.27c-.13.2-.3.32-.51.37-.21.04-.43,0-.67-.15-.23-.14-.44-.25-.64-.35-.2-.1-.41-.18-.62-.24s-.43-.11-.66-.14-.49-.04-.78-.04c-.54,0-1.02.09-1.45.28-.43.19-.8.46-1.1.8-.3.35-.54.76-.7,1.25s-.25,1.02-.25,1.62c0,.66.09,1.24.27,1.75.18.51.44.94.77,1.29.33.35.73.62,1.19.8.46.18.97.28,1.53.28.35,0,.66-.03.94-.1.28-.07.55-.16.82-.27v-1.88h-1.22c-.18,0-.32-.05-.42-.14-.1-.1-.15-.22-.15-.37v-1.58Z"/><path class="cls-2" d="m172.31,33.51c.27-.48.58-.85.94-1.12.35-.27.76-.41,1.22-.41.4,0,.72.09.97.28l-.17,1.94c-.03.12-.08.21-.14.25-.06.05-.15.07-.27.07-.04,0-.1,0-.18,0-.07,0-.15-.01-.23-.02s-.16-.02-.24-.03c-.08,0-.16-.01-.23-.01-.39,0-.69.1-.92.31-.23.2-.42.49-.58.85v5.35h-2.63v-8.81h1.56c.13,0,.24.01.33.03.09.02.16.06.22.11.06.05.1.11.14.19s.06.18.08.29l.14.74Z"/><path class="cls-2" d="m180.24,32.01c.67,0,1.28.11,1.83.31.55.21,1.02.51,1.42.9.39.39.7.87.92,1.42.22.56.33,1.19.33,1.88s-.11,1.34-.33,1.9c-.22.56-.52,1.04-.92,1.44-.39.39-.87.7-1.42.91-.55.21-1.16.32-1.83.32s-1.29-.11-1.84-.32c-.55-.21-1.03-.52-1.43-.91-.4-.39-.71-.87-.93-1.44-.22-.56-.33-1.2-.33-1.9s.11-1.32.33-1.88c.22-.56.53-1.03.93-1.42.4-.39.88-.69,1.43-.9.55-.21,1.17-.31,1.84-.31Zm0,7.13c.61,0,1.05-.21,1.34-.64s.43-1.08.43-1.95-.14-1.52-.43-1.95-.73-.64-1.34-.64-1.08.21-1.37.64c-.29.42-.43,1.07-.43,1.95s.14,1.52.43,1.95c.29.43.75.64,1.37.64Z"/><path class="cls-2" d="m193.96,32.15v8.81h-1.63c-.33,0-.54-.15-.65-.44l-.15-.51c-.17.16-.35.31-.53.45s-.38.25-.58.34c-.21.09-.43.17-.67.22-.24.05-.5.08-.79.08-.48,0-.91-.08-1.28-.25s-.68-.4-.94-.7c-.26-.3-.45-.65-.58-1.06s-.2-.86-.2-1.34v-5.59h2.63v5.59c0,.44.1.77.3,1.01s.49.36.88.36c.29,0,.56-.06.81-.18s.5-.29.74-.5v-6.28h2.63Z"/><path class="cls-2" d="m198.22,33.24c.35-.37.74-.67,1.18-.91.44-.23.96-.35,1.57-.35.46,0,.88.1,1.28.31.39.2.73.5,1.01.88s.51.86.67,1.42c.16.56.24,1.19.24,1.9,0,.66-.09,1.27-.28,1.84-.18.56-.44,1.05-.77,1.46-.33.41-.73.74-1.19.97-.46.23-.97.35-1.53.35-.46,0-.84-.07-1.16-.2-.31-.13-.6-.31-.85-.53v3.38h-2.63v-11.61h1.63c.33,0,.54.15.65.44l.2.65Zm.16,5.33c.2.22.41.37.65.46.23.09.48.14.73.14s.47-.05.67-.14c.2-.1.38-.25.53-.46.15-.21.27-.49.35-.83.08-.34.13-.75.13-1.24s-.03-.86-.1-1.17c-.07-.32-.16-.57-.28-.77-.12-.2-.27-.34-.44-.42-.17-.08-.36-.13-.57-.13-.39,0-.7.07-.95.21-.25.14-.49.35-.71.62v3.74Z"/><path class="cls-2" d="m360.79,82.1c7.3,0,13.42,4.67,15.61,11.18,6.78.18,12.12,5.72,12.01,12.54-.11,6.86-5.7,12.56-12.54,12.56h-30.91c-6.93,0-12.45-5.63-12.34-12.56.11-6.75,5.52-12.25,12.21-12.54,2.4-6.51,8.66-11.18,15.96-11.18m0-2.31c-7.55,0-14.43,4.49-17.56,11.32-7.24,1.04-12.8,7.22-12.92,14.67-.06,3.98,1.43,7.73,4.2,10.55,2.77,2.81,6.48,4.36,10.45,4.36h30.91c8.06,0,14.72-6.66,14.85-14.84.12-7.6-5.34-13.81-12.69-14.77-2.94-6.82-9.69-11.3-17.25-11.3h0Z"/><path class="cls-2" d="m371.6,112.7c0-.36-.29-.65-.65-.65h-8.25c-.3-.53-.76-.95-1.32-1.2v-1.57s4.93,0,4.93,0h3.86c.79,0,1.43-.64,1.43-1.43v-3.02c0-.79-.64-1.43-1.43-1.43h-3.86s-4.93,0-4.93,0v-.71s4.93,0,4.93,0h3.86c.79,0,1.43-.64,1.43-1.43v-3.02c0-.79-.64-1.43-1.43-1.43h-3.86s-4.93,0-4.93,0v-.71h4.93s3.86,0,3.86,0c.79,0,1.43-.64,1.43-1.43v-3.02c0-.79-.64-1.43-1.43-1.43h-3.86s-15.43,0-15.43,0c-.79,0-1.43.64-1.43,1.43v3.02c0,.79.64,1.43,1.43,1.43h8.23s0,.71,0,.71h-8.23c-.79,0-1.43.64-1.43,1.43v3.02c0,.79.64,1.43,1.43,1.43h8.23s0,.71,0,.71h-8.23c-.79,0-1.43.64-1.43,1.43v3.02c0,.79.64,1.43,1.43,1.43h8.23s0,1.53,0,1.53c-.59.25-1.09.68-1.41,1.24h-7.59c-.36,0-.65.29-.65.65v1.56c0,.36.29.65.65.65h7.59c.5.87,1.43,1.45,2.5,1.45,1.07,0,2-.59,2.5-1.45h8.25c.36,0,.65-.29.65-.65v-1.56Zm-1.43-7.99c.07,0,.13.06.13.13v3.02c0,.07-.06.13-.13.13h-3.21s0-3.28,0-3.28h3.21Zm0-6.59c.07,0,.13.06.13.13v3.02c0,.07-.06.13-.13.13h-3.21s0-3.28,0-3.28h3.21Zm0-6.59c.07,0,.13.06.13.13v3.02c0,.07-.06.13-.13.13h-3.21s0-3.28,0-3.28h3.21Z"/><path class="cls-2" d="m323.29,141.3v.89h-4.42v-7.79h1.05v6.91h3.37Z"/><path class="cls-2" d="m325.45,134.94c0,.09-.02.18-.06.26s-.09.15-.15.22-.14.11-.22.15c-.09.04-.18.05-.27.05s-.18-.02-.26-.05-.15-.09-.21-.15c-.06-.06-.11-.14-.15-.22-.04-.08-.05-.17-.05-.26s.02-.18.05-.27c.04-.09.08-.16.15-.22.06-.06.13-.11.21-.15s.17-.05.26-.05.18.02.27.05c.08.04.16.09.22.15s.11.14.15.22c.04.08.06.17.06.27Zm-.21,1.73v5.51h-.97v-5.51h.97Z"/><path class="cls-2" d="m327.75,137.47c.12-.13.25-.26.38-.36.13-.11.28-.2.43-.28.15-.08.31-.14.48-.18.17-.04.35-.06.55-.06.3,0,.57.05.8.15.23.1.42.24.58.42.15.18.27.4.35.66s.12.54.12.85v3.51h-.97v-3.51c0-.42-.1-.74-.29-.97-.19-.23-.48-.35-.87-.35-.29,0-.55.07-.8.21-.25.14-.48.32-.69.56v4.06h-.97v-5.51h.58c.14,0,.22.07.26.2l.08.6Z"/><path class="cls-2" d="m332.76,137.45c.3-.29.63-.51.98-.66s.74-.22,1.17-.22c.31,0,.58.05.82.15s.44.24.6.42c.16.18.29.4.37.66s.12.54.12.85v3.52h-.43c-.09,0-.17-.02-.22-.05-.05-.03-.09-.09-.12-.18l-.11-.52c-.15.13-.29.25-.42.36-.14.1-.28.19-.44.26s-.31.12-.49.16c-.17.04-.36.06-.57.06s-.42-.03-.6-.09c-.19-.06-.35-.15-.49-.27-.14-.12-.25-.27-.33-.45-.08-.18-.12-.4-.12-.65,0-.22.06-.43.18-.63s.31-.38.58-.54c.27-.16.62-.28,1.05-.38.43-.1.96-.16,1.59-.17v-.43c0-.43-.09-.75-.28-.97-.19-.22-.46-.33-.81-.33-.24,0-.44.03-.6.09-.16.06-.3.13-.42.2-.12.07-.22.14-.3.2-.09.06-.17.09-.25.09-.06,0-.12-.02-.17-.05-.05-.03-.09-.08-.12-.13l-.17-.31Zm3.13,2.25c-.45.01-.83.05-1.14.11s-.57.13-.77.22c-.2.09-.34.2-.43.32-.09.12-.13.26-.13.41s.02.27.07.38c.05.1.11.19.19.26s.18.12.29.15c.11.03.23.05.36.05.17,0,.33-.02.47-.05.14-.03.27-.08.4-.15.12-.06.24-.14.36-.23.11-.09.23-.19.33-.31v-1.14Z"/><path class="cls-2" d="m339.22,137.78c.17-.38.39-.67.64-.88.25-.21.56-.32.93-.32.12,0,.23.01.33.04s.2.06.29.12l-.07.72c-.02.09-.08.14-.16.14-.05,0-.12-.01-.22-.03-.1-.02-.21-.03-.33-.03-.17,0-.33.03-.46.08s-.26.13-.36.23-.2.22-.29.37c-.09.15-.16.31-.23.5v3.48h-.97v-5.51h.55c.1,0,.18.02.22.06.04.04.07.11.08.21l.06.84Z"/><path class="cls-2" d="m344.36,136.59c.4,0,.77.07,1.09.2.32.13.6.32.83.57.23.25.4.54.52.89.12.35.18.74.18,1.17s-.06.83-.18,1.17c-.12.35-.3.65-.52.89s-.5.44-.83.57c-.32.13-.69.2-1.09.2s-.77-.07-1.1-.2c-.32-.13-.6-.32-.83-.57s-.4-.54-.52-.89c-.12-.35-.18-.74-.18-1.17s.06-.82.18-1.17c.12-.35.3-.65.52-.89.23-.25.5-.44.83-.57.32-.13.69-.2,1.1-.2Zm0,4.92c.54,0,.95-.18,1.22-.55.27-.36.4-.87.4-1.53s-.13-1.17-.4-1.53c-.27-.37-.67-.55-1.22-.55-.28,0-.52.05-.72.14-.21.09-.38.23-.51.41s-.24.4-.3.66c-.07.26-.1.55-.1.88,0,.65.14,1.16.41,1.53s.68.55,1.23.55Z"/><path class="cls-2" d="m357.97,138.29c0,.58-.09,1.11-.28,1.59-.19.48-.45.89-.78,1.23-.34.34-.74.6-1.22.79-.47.19-1,.28-1.57.28h-2.91v-7.79h2.91c.57,0,1.1.09,1.57.28.47.19.88.45,1.22.79.34.34.6.75.78,1.23.18.48.28,1.01.28,1.59Zm-1.08,0c0-.48-.07-.91-.2-1.28s-.32-.7-.55-.96c-.24-.26-.53-.46-.87-.6s-.72-.21-1.14-.21h-1.85v6.08h1.85c.42,0,.8-.07,1.14-.21.34-.14.63-.34.87-.6s.42-.58.55-.95.2-.8.2-1.28Z"/><path class="cls-2" d="m358.98,137.45c.3-.29.63-.51.98-.66s.74-.22,1.17-.22c.31,0,.58.05.82.15s.44.24.6.42c.16.18.29.4.37.66s.12.54.12.85v3.52h-.43c-.09,0-.17-.02-.22-.05-.05-.03-.09-.09-.12-.18l-.11-.52c-.15.13-.29.25-.42.36-.14.1-.28.19-.44.26s-.31.12-.49.16c-.17.04-.36.06-.57.06s-.42-.03-.6-.09c-.19-.06-.35-.15-.49-.27-.14-.12-.25-.27-.33-.45-.08-.18-.12-.4-.12-.65,0-.22.06-.43.18-.63s.31-.38.58-.54c.27-.16.62-.28,1.05-.38.43-.1.96-.16,1.59-.17v-.43c0-.43-.09-.75-.28-.97-.19-.22-.46-.33-.81-.33-.24,0-.44.03-.6.09-.16.06-.3.13-.42.2-.12.07-.22.14-.3.2-.09.06-.17.09-.25.09-.06,0-.12-.02-.17-.05-.05-.03-.09-.08-.12-.13l-.17-.31Zm3.13,2.25c-.45.01-.83.05-1.14.11s-.57.13-.77.22c-.2.09-.34.2-.43.32-.09.12-.13.26-.13.41s.02.27.07.38c.05.1.11.19.19.26s.18.12.29.15c.11.03.23.05.36.05.17,0,.33-.02.47-.05.14-.03.27-.08.4-.15.12-.06.24-.14.36-.23.11-.09.23-.19.33-.31v-1.14Z"/><path class="cls-2" d="m366.15,142.27c-.43,0-.77-.12-1-.36-.23-.24-.35-.59-.35-1.05v-3.37h-.66c-.06,0-.11-.02-.15-.05-.04-.03-.06-.09-.06-.16v-.39l.9-.11.22-1.7c.01-.05.04-.1.07-.13.04-.03.09-.05.15-.05h.49v1.9h1.59v.7h-1.59v3.31c0,.23.06.4.17.52s.26.17.44.17c.1,0,.19-.01.26-.04.07-.03.14-.06.19-.09.05-.03.1-.06.14-.09.04-.03.07-.04.1-.04.05,0,.1.03.14.09l.28.46c-.17.16-.37.28-.6.37-.24.09-.48.13-.73.13Z"/><path class="cls-2" d="m368.21,137.45c.3-.29.63-.51.98-.66s.74-.22,1.17-.22c.31,0,.58.05.82.15s.44.24.6.42c.16.18.29.4.37.66s.12.54.12.85v3.52h-.43c-.09,0-.17-.02-.22-.05-.05-.03-.09-.09-.12-.18l-.11-.52c-.15.13-.29.25-.42.36-.14.1-.28.19-.44.26s-.31.12-.49.16c-.17.04-.36.06-.57.06s-.42-.03-.6-.09c-.19-.06-.35-.15-.49-.27-.14-.12-.25-.27-.33-.45-.08-.18-.12-.4-.12-.65,0-.22.06-.43.18-.63s.31-.38.58-.54c.27-.16.62-.28,1.05-.38.43-.1.96-.16,1.59-.17v-.43c0-.43-.09-.75-.28-.97-.19-.22-.46-.33-.81-.33-.24,0-.44.03-.6.09-.16.06-.3.13-.42.2-.12.07-.22.14-.3.2-.09.06-.17.09-.25.09-.06,0-.12-.02-.17-.05-.05-.03-.09-.08-.12-.13l-.17-.31Zm3.13,2.25c-.45.01-.83.05-1.14.11s-.57.13-.77.22c-.2.09-.34.2-.43.32-.09.12-.13.26-.13.41s.02.27.07.38c.05.1.11.19.19.26s.18.12.29.15c.11.03.23.05.36.05.17,0,.33-.02.47-.05.14-.03.27-.08.4-.15.12-.06.24-.14.36-.23.11-.09.23-.19.33-.31v-1.14Z"/><path class="cls-2" d="m377.59,137.65s-.06.07-.09.09c-.03.02-.07.03-.12.03-.05,0-.11-.02-.18-.07-.06-.05-.15-.1-.24-.15-.1-.05-.21-.1-.35-.15s-.31-.07-.51-.07c-.27,0-.51.05-.72.14s-.38.23-.52.42-.24.4-.32.66c-.07.26-.11.55-.11.86s.04.63.11.89.18.48.32.65c.14.18.31.31.51.4.2.09.42.14.67.14s.43-.03.58-.08.28-.12.38-.19.18-.13.25-.19.13-.08.2-.08c.08,0,.14.03.18.09l.27.35c-.12.15-.26.28-.41.38-.15.11-.32.19-.49.26-.18.07-.36.12-.55.16-.19.03-.39.05-.59.05-.34,0-.66-.06-.96-.19-.3-.13-.55-.31-.77-.55-.22-.24-.39-.54-.51-.89s-.19-.75-.19-1.2c0-.41.06-.79.17-1.14.11-.35.28-.65.5-.9.22-.25.49-.45.81-.59.32-.14.69-.21,1.11-.21.39,0,.73.06,1.02.19s.56.3.79.53l-.26.35Z"/><path class="cls-2" d="m383.32,141.41c-.12.15-.26.27-.43.38-.17.11-.35.19-.54.26-.19.07-.39.12-.59.15-.2.03-.4.05-.6.05-.38,0-.73-.06-1.05-.19-.32-.13-.6-.32-.83-.57-.23-.25-.42-.56-.55-.92s-.2-.79-.2-1.26c0-.38.06-.74.18-1.08.12-.33.29-.62.51-.87s.49-.44.81-.58c.32-.14.68-.21,1.08-.21.33,0,.64.06.92.17.28.11.52.27.73.48.21.21.37.47.48.77.12.31.17.66.17,1.05,0,.15-.02.25-.05.3s-.09.08-.19.08h-3.68c.01.35.06.65.14.91.09.26.2.47.36.64.15.17.33.3.54.39.21.09.45.13.71.13.24,0,.45-.03.63-.08s.33-.12.45-.18c.13-.06.23-.13.32-.18.08-.06.16-.08.22-.08.08,0,.14.03.18.09l.27.35Zm-.78-2.58c0-.22-.03-.43-.1-.62-.06-.19-.16-.35-.28-.48-.12-.14-.27-.24-.44-.32s-.37-.11-.59-.11c-.46,0-.83.14-1.1.41s-.44.64-.5,1.12h3.01Z"/><path class="cls-2" d="m385.51,137.47c.12-.13.25-.26.38-.36.13-.11.28-.2.43-.28.15-.08.31-.14.48-.18.17-.04.35-.06.55-.06.3,0,.57.05.8.15.23.1.42.24.58.42.15.18.27.4.35.66s.12.54.12.85v3.51h-.97v-3.51c0-.42-.1-.74-.29-.97-.19-.23-.48-.35-.87-.35-.29,0-.55.07-.8.21-.25.14-.48.32-.69.56v4.06h-.97v-5.51h.58c.14,0,.22.07.26.2l.08.6Z"/><path class="cls-2" d="m392.28,142.27c-.43,0-.77-.12-1-.36-.23-.24-.35-.59-.35-1.05v-3.37h-.66c-.06,0-.11-.02-.15-.05-.04-.03-.06-.09-.06-.16v-.39l.9-.11.22-1.7c.01-.05.04-.1.07-.13.04-.03.09-.05.15-.05h.49v1.9h1.59v.7h-1.59v3.31c0,.23.06.4.17.52s.26.17.44.17c.1,0,.19-.01.26-.04.07-.03.14-.06.19-.09.05-.03.1-.06.14-.09.04-.03.07-.04.1-.04.05,0,.1.03.14.09l.28.46c-.17.16-.37.28-.6.37-.24.09-.48.13-.73.13Z"/><path class="cls-2" d="m398.93,141.41c-.12.15-.26.27-.43.38-.17.11-.35.19-.54.26-.19.07-.39.12-.59.15-.2.03-.4.05-.6.05-.38,0-.73-.06-1.05-.19-.32-.13-.6-.32-.83-.57-.23-.25-.42-.56-.55-.92s-.2-.79-.2-1.26c0-.38.06-.74.18-1.08.12-.33.29-.62.51-.87s.49-.44.81-.58c.32-.14.68-.21,1.08-.21.33,0,.64.06.92.17.28.11.52.27.73.48.21.21.37.47.48.77.12.31.17.66.17,1.05,0,.15-.02.25-.05.3s-.09.08-.19.08h-3.68c.01.35.06.65.14.91.09.26.2.47.36.64.15.17.33.3.54.39.21.09.45.13.71.13.24,0,.45-.03.63-.08s.33-.12.45-.18c.13-.06.23-.13.32-.18.08-.06.16-.08.22-.08.08,0,.14.03.18.09l.27.35Zm-.78-2.58c0-.22-.03-.43-.1-.62-.06-.19-.16-.35-.28-.48-.12-.14-.27-.24-.44-.32s-.37-.11-.59-.11c-.46,0-.83.14-1.1.41s-.44.64-.5,1.12h3.01Z"/><path class="cls-2" d="m401.12,137.78c.17-.38.39-.67.64-.88.25-.21.56-.32.93-.32.12,0,.23.01.33.04s.2.06.29.12l-.07.72c-.02.09-.08.14-.16.14-.05,0-.12-.01-.22-.03-.1-.02-.21-.03-.33-.03-.17,0-.33.03-.46.08s-.26.13-.36.23-.2.22-.29.37c-.09.15-.16.31-.23.5v3.48h-.97v-5.51h.55c.1,0,.18.02.22.06.04.04.07.11.08.21l.06.84Z"/><path class="cls-2" d="m332.48,155.23h-.94c-.11,0-.19-.01-.26-.04-.06-.03-.14-.08-.21-.16l-.79-.79c-.34.33-.73.59-1.18.79-.44.19-.93.29-1.47.29-.29,0-.57-.05-.85-.15-.28-.1-.53-.24-.75-.43-.22-.19-.4-.41-.53-.68-.13-.27-.2-.57-.2-.91,0-.25.04-.49.13-.72.08-.23.2-.44.36-.63.15-.19.33-.36.54-.52.21-.15.43-.28.68-.39-.22-.28-.38-.56-.49-.82-.1-.26-.16-.54-.16-.82,0-.26.05-.51.14-.75.1-.23.23-.43.42-.61.18-.17.4-.31.66-.41.26-.1.55-.15.87-.15.29,0,.55.05.78.14.24.09.44.21.61.37.17.15.31.33.41.53s.16.41.17.63l-.6.12c-.12.03-.21-.03-.27-.17-.03-.09-.07-.19-.12-.29-.06-.1-.13-.19-.22-.28s-.2-.15-.32-.21-.27-.08-.44-.08c-.18,0-.35.03-.49.09s-.27.14-.38.24-.18.22-.24.36-.08.29-.08.45c0,.13.01.25.04.36.03.12.08.23.14.35s.14.24.24.36c.1.12.22.25.35.39l2.24,2.28c.14-.25.25-.5.33-.77.08-.27.14-.53.16-.8,0-.07.03-.12.07-.16.04-.04.09-.06.15-.06h.59c0,.42-.07.83-.2,1.23s-.31.78-.55,1.13l1.63,1.66Zm-5.02-3.84c-.38.2-.67.45-.87.74-.19.29-.29.6-.29.95,0,.24.04.44.13.62.09.18.2.33.34.45.14.12.3.22.48.28.18.06.37.09.55.09.41,0,.77-.07,1.1-.22.32-.15.61-.35.85-.6l-2.3-2.32Z"/><path class="cls-2" d="m341.82,153.62c.06,0,.11.02.15.07l.42.45c-.32.37-.71.66-1.16.86-.45.21-1,.31-1.65.31-.56,0-1.07-.1-1.52-.29-.46-.19-.85-.47-1.17-.82-.32-.35-.57-.77-.75-1.26-.18-.49-.27-1.03-.27-1.61s.09-1.13.28-1.62c.18-.49.44-.91.78-1.26.33-.35.74-.62,1.2-.82.47-.19.98-.29,1.55-.29s1.04.09,1.47.27c.42.18.8.42,1.12.72l-.35.48s-.05.07-.08.09c-.03.02-.08.04-.14.04-.07,0-.15-.04-.24-.11s-.22-.15-.37-.24c-.15-.09-.34-.17-.57-.24s-.51-.11-.84-.11c-.4,0-.77.07-1.1.21-.33.14-.62.34-.86.61-.24.26-.43.59-.56.97-.13.38-.2.81-.2,1.29s.07.92.21,1.3c.14.38.33.7.57.97.24.26.53.46.85.6.33.14.68.21,1.06.21.23,0,.44-.01.63-.04.19-.03.36-.07.52-.13.16-.06.3-.13.44-.22.14-.09.27-.19.41-.32.06-.05.12-.08.19-.08Z"/><path class="cls-2" d="m344.39,147.22v8.01h-.97v-8.01h.97Z"/><path class="cls-2" d="m348.28,149.64c.4,0,.77.07,1.09.2.32.13.6.32.83.57.23.25.4.54.52.89.12.35.18.74.18,1.17s-.06.83-.18,1.17c-.12.35-.3.65-.52.89s-.5.44-.83.57c-.32.13-.69.2-1.09.2s-.77-.07-1.1-.2c-.32-.13-.6-.32-.83-.57s-.4-.54-.52-.89c-.12-.35-.18-.74-.18-1.17s.06-.82.18-1.17c.12-.35.3-.65.52-.89.23-.25.5-.44.83-.57.32-.13.69-.2,1.1-.2Zm0,4.92c.54,0,.95-.18,1.22-.55.27-.36.4-.87.4-1.53s-.13-1.17-.4-1.53c-.27-.37-.67-.55-1.22-.55-.28,0-.52.05-.72.14-.21.09-.38.23-.51.41s-.24.4-.3.66c-.07.26-.1.55-.1.88,0,.65.14,1.16.41,1.53s.68.55,1.23.55Z"/><path class="cls-2" d="m356.65,149.72v5.51h-.58c-.14,0-.22-.07-.26-.2l-.08-.59c-.24.26-.51.48-.81.64-.3.16-.64.24-1.02.24-.3,0-.57-.05-.8-.15-.23-.1-.42-.24-.58-.42-.16-.18-.27-.4-.35-.66-.08-.26-.12-.54-.12-.85v-3.51h.97v3.51c0,.42.1.74.29.97.19.23.48.34.87.34.29,0,.55-.07.8-.2.25-.14.48-.32.69-.56v-4.06h.97Z"/><path class="cls-2" d="m362.74,147.22v8.01h-.58c-.14,0-.23-.07-.26-.2l-.09-.67c-.24.28-.5.51-.8.69-.3.17-.65.26-1.04.26-.32,0-.6-.06-.86-.18-.26-.12-.48-.3-.66-.54s-.32-.53-.42-.88c-.1-.35-.15-.76-.15-1.21,0-.41.05-.78.16-1.13.11-.35.26-.65.47-.91.2-.26.45-.46.75-.61.3-.15.63-.22,1-.22.34,0,.63.06.87.17.24.11.46.27.64.48v-3.05h.97Zm-.97,3.81c-.18-.24-.38-.41-.59-.51-.21-.1-.45-.14-.71-.14-.51,0-.9.18-1.18.55-.28.37-.41.89-.41,1.57,0,.36.03.67.09.92.06.26.15.47.27.63s.27.29.44.36c.17.08.37.11.59.11.32,0,.6-.07.83-.22s.46-.35.66-.61v-2.66Z"/><path class="cls-2" d="m373.61,151.49v2.99c-.39.28-.81.49-1.25.63-.44.14-.93.21-1.46.21-.63,0-1.19-.1-1.7-.29-.5-.19-.93-.47-1.29-.82-.36-.35-.63-.77-.82-1.26-.19-.49-.29-1.03-.29-1.61s.09-1.14.28-1.63c.19-.49.45-.91.8-1.26.34-.35.76-.62,1.26-.81.49-.19,1.04-.29,1.65-.29.31,0,.59.02.86.07s.51.11.73.2c.23.09.43.19.63.31.19.12.37.26.54.41l-.3.48c-.05.07-.11.12-.18.14-.07.02-.16,0-.25-.05-.09-.05-.19-.11-.3-.19-.11-.07-.25-.14-.41-.21-.16-.07-.35-.12-.57-.17-.22-.05-.48-.07-.78-.07-.44,0-.84.07-1.19.21-.36.14-.66.35-.91.61s-.44.59-.58.97c-.13.38-.2.8-.2,1.28s.07.93.21,1.31c.14.39.34.71.6.98.26.27.57.48.94.62.37.14.79.21,1.25.21.36,0,.68-.04.96-.12s.56-.19.82-.34v-1.71h-1.21c-.07,0-.12-.02-.17-.06-.04-.04-.06-.09-.06-.15v-.6h2.39Z"/><path class="cls-2" d="m375.83,150.83c.17-.38.39-.67.64-.88.25-.21.56-.32.93-.32.12,0,.23.01.33.04s.2.06.29.12l-.07.72c-.02.09-.08.14-.16.14-.05,0-.12-.01-.22-.03-.1-.02-.21-.03-.33-.03-.17,0-.33.03-.46.08s-.26.13-.36.23-.2.22-.29.37c-.09.15-.16.31-.23.5v3.48h-.97v-5.51h.55c.1,0,.18.02.22.06.04.04.07.11.08.21l.06.84Z"/><path class="cls-2" d="m380.97,149.64c.4,0,.77.07,1.09.2.32.13.6.32.83.57.23.25.4.54.52.89.12.35.18.74.18,1.17s-.06.83-.18,1.17c-.12.35-.3.65-.52.89s-.5.44-.83.57c-.32.13-.69.2-1.09.2s-.77-.07-1.1-.2c-.32-.13-.6-.32-.83-.57s-.4-.54-.52-.89c-.12-.35-.18-.74-.18-1.17s.06-.82.18-1.17c.12-.35.3-.65.52-.89.23-.25.5-.44.83-.57.32-.13.69-.2,1.1-.2Zm0,4.92c.54,0,.95-.18,1.22-.55.27-.36.4-.87.4-1.53s-.13-1.17-.4-1.53c-.27-.37-.67-.55-1.22-.55-.28,0-.52.05-.72.14-.21.09-.38.23-.51.41s-.24.4-.3.66c-.07.26-.1.55-.1.88,0,.65.14,1.16.41,1.53s.68.55,1.23.55Z"/><path class="cls-2" d="m389.35,149.72v5.51h-.58c-.14,0-.22-.07-.26-.2l-.08-.59c-.24.26-.51.48-.81.64-.3.16-.64.24-1.02.24-.3,0-.57-.05-.8-.15-.23-.1-.42-.24-.58-.42-.16-.18-.27-.4-.35-.66-.08-.26-.12-.54-.12-.85v-3.51h.97v3.51c0,.42.1.74.29.97.19.23.48.34.87.34.29,0,.55-.07.8-.2.25-.14.48-.32.69-.56v-4.06h.97Z"/><path class="cls-2" d="m391.8,150.58c.23-.29.5-.52.8-.69.3-.17.65-.26,1.04-.26.32,0,.61.06.86.18s.48.3.66.54c.18.24.32.53.42.88s.15.76.15,1.21c0,.41-.05.78-.16,1.13-.11.35-.27.65-.47.91-.2.26-.45.46-.75.6-.3.15-.63.22-1,.22-.34,0-.63-.06-.87-.17s-.45-.27-.64-.48v2.44h-.97v-7.37h.58c.14,0,.22.07.26.2l.09.65Zm.05,3.33c.18.24.37.41.58.51.21.1.45.15.71.15.51,0,.91-.18,1.19-.55.28-.37.41-.89.41-1.57,0-.36-.03-.67-.1-.92s-.16-.47-.27-.63-.27-.29-.44-.36c-.17-.08-.37-.11-.59-.11-.32,0-.59.07-.83.22-.24.15-.46.35-.65.61v2.66Z"/><path class="cls-2" d="m194.17,141.3v.89h-4.42v-7.79h1.05v6.91h3.37Z"/><path class="cls-2" d="m196.33,134.94c0,.09-.02.18-.06.26s-.09.15-.15.22-.14.11-.22.15-.17.05-.27.05-.18-.02-.26-.05c-.08-.04-.15-.09-.21-.15s-.11-.14-.15-.22-.05-.17-.05-.26.02-.18.05-.27c.04-.09.08-.16.15-.22s.13-.11.21-.15c.08-.04.17-.05.26-.05s.18.02.27.05.16.09.22.15.11.14.15.22c.04.08.06.17.06.27Zm-.21,1.73v5.51h-.97v-5.51h.97Z"/><path class="cls-2" d="m198.63,137.47c.12-.13.25-.26.38-.36.13-.11.28-.2.43-.28.15-.08.31-.14.48-.18.17-.04.35-.06.55-.06.3,0,.57.05.8.15.23.1.42.24.58.42s.27.4.35.66.12.54.12.85v3.51h-.97v-3.51c0-.42-.1-.74-.29-.97-.19-.23-.48-.35-.87-.35-.29,0-.55.07-.8.21s-.48.32-.69.56v4.06h-.97v-5.51h.58c.14,0,.22.07.26.2l.08.6Z"/><path class="cls-2" d="m203.64,137.45c.3-.29.63-.51.98-.66s.74-.22,1.17-.22c.31,0,.58.05.82.15s.44.24.6.42c.16.18.29.4.37.66.08.26.12.54.12.85v3.52h-.43c-.09,0-.17-.02-.22-.05-.05-.03-.09-.09-.12-.18l-.11-.52c-.14.13-.29.25-.42.36-.14.1-.28.19-.43.26-.15.07-.32.12-.49.16s-.36.06-.57.06-.42-.03-.6-.09c-.19-.06-.35-.15-.49-.27s-.25-.27-.33-.45c-.08-.18-.12-.4-.12-.65,0-.22.06-.43.18-.63.12-.2.31-.38.58-.54.27-.16.62-.28,1.05-.38.43-.1.96-.16,1.59-.17v-.43c0-.43-.09-.75-.28-.97s-.46-.33-.81-.33c-.24,0-.44.03-.6.09-.16.06-.3.13-.42.2-.12.07-.22.14-.3.2-.09.06-.17.09-.25.09-.07,0-.12-.02-.17-.05-.05-.03-.09-.08-.12-.13l-.17-.31Zm3.13,2.25c-.45.01-.83.05-1.14.11s-.57.13-.77.22c-.2.09-.34.2-.43.32-.09.12-.13.26-.13.41s.02.27.07.38c.05.1.11.19.19.26.08.07.18.12.29.15s.23.05.36.05c.17,0,.33-.02.47-.05.14-.03.27-.08.4-.15.12-.06.25-.14.36-.23.11-.09.23-.19.33-.31v-1.14Z"/><path class="cls-2" d="m210.11,137.78c.17-.38.39-.67.64-.88.25-.21.56-.32.93-.32.12,0,.23.01.33.04.11.03.2.06.29.12l-.07.72c-.02.09-.08.14-.16.14-.05,0-.13-.01-.22-.03-.1-.02-.21-.03-.33-.03-.17,0-.33.03-.46.08-.14.05-.26.13-.37.23-.11.1-.2.22-.29.37-.08.15-.16.31-.23.5v3.48h-.97v-5.51h.55c.11,0,.18.02.22.06s.07.11.08.21l.07.84Z"/><path class="cls-2" d="m215.25,136.59c.4,0,.76.07,1.09.2.32.13.6.32.83.57.23.25.4.54.52.89.12.35.18.74.18,1.17s-.06.83-.18,1.17c-.12.35-.3.65-.52.89-.23.25-.5.44-.83.57-.32.13-.68.2-1.09.2s-.77-.07-1.1-.2c-.33-.13-.6-.32-.83-.57-.23-.25-.4-.54-.53-.89-.12-.35-.18-.74-.18-1.17s.06-.82.18-1.17c.12-.35.3-.65.53-.89.23-.25.5-.44.83-.57.32-.13.69-.2,1.1-.2Zm0,4.92c.54,0,.95-.18,1.22-.55.27-.36.4-.87.4-1.53s-.13-1.17-.4-1.53c-.27-.37-.67-.55-1.22-.55-.28,0-.52.05-.72.14s-.38.23-.51.41c-.14.18-.24.4-.3.66-.07.26-.1.55-.1.88,0,.65.13,1.16.4,1.53.27.36.68.55,1.23.55Z"/><path class="cls-2" d="m226.91,141.32v.86h-4.81v-7.79h4.8v.86h-3.75v2.59h3.03v.83h-3.03v2.66h3.75Z"/><path class="cls-2" d="m232.48,134.17v8.01h-.58c-.14,0-.22-.07-.26-.2l-.09-.67c-.24.28-.5.51-.8.69-.3.17-.65.26-1.04.26-.32,0-.6-.06-.86-.18-.26-.12-.48-.3-.66-.54-.18-.24-.32-.53-.42-.88s-.15-.76-.15-1.21c0-.41.05-.78.16-1.13.11-.35.26-.65.47-.91.2-.26.45-.46.75-.61.3-.15.63-.22,1-.22.34,0,.63.06.87.17.24.11.46.27.64.48v-3.05h.97Zm-.97,3.81c-.18-.24-.38-.41-.59-.51-.21-.1-.45-.14-.71-.14-.51,0-.9.18-1.18.55-.28.37-.41.89-.41,1.57,0,.36.03.67.09.92.06.26.15.47.27.63.12.17.27.29.44.36.17.08.37.11.59.11.32,0,.6-.07.83-.22s.46-.35.66-.61v-2.66Z"/><path class="cls-2" d="m238.67,136.89v.36c0,.12-.08.2-.23.23l-.62.08c.12.24.18.5.18.79,0,.27-.05.51-.16.73s-.25.41-.43.56-.4.28-.65.36c-.25.08-.53.12-.83.12-.26,0-.5-.03-.73-.09-.12.07-.2.15-.27.23-.06.08-.09.16-.09.25,0,.13.05.23.16.3.11.07.25.12.42.14.17.03.37.05.59.05.22,0,.45.02.69.04.23.02.46.04.69.08.22.04.42.1.59.2.17.09.31.22.42.38.11.16.16.37.16.62,0,.24-.06.46-.18.69-.12.22-.29.42-.51.59-.22.17-.49.31-.81.41-.32.1-.68.16-1.08.16s-.75-.04-1.05-.12c-.3-.08-.55-.19-.75-.32-.2-.13-.35-.29-.45-.47s-.15-.36-.15-.55c0-.27.08-.5.26-.69.17-.19.4-.34.7-.45-.16-.07-.29-.17-.39-.29s-.14-.29-.14-.49c0-.08.01-.16.04-.25.03-.08.07-.17.13-.26.06-.08.13-.17.22-.24.09-.08.19-.14.3-.2-.27-.15-.48-.35-.64-.61s-.23-.54-.23-.88c0-.27.05-.51.16-.73.1-.22.25-.41.43-.56.18-.15.41-.27.66-.36.26-.08.54-.12.84-.12.24,0,.46.03.67.08.21.05.4.13.57.23h1.5Zm-.98,5.59c0-.13-.04-.24-.11-.33-.08-.08-.18-.15-.31-.2-.13-.05-.28-.08-.45-.1-.17-.02-.35-.04-.54-.05-.19-.01-.38-.02-.58-.03s-.38-.03-.57-.05c-.2.09-.37.21-.5.36-.13.14-.19.31-.19.5,0,.12.03.24.09.35s.16.2.29.28c.13.08.29.14.49.19.2.04.43.07.7.07s.49-.02.7-.07c.21-.05.38-.11.52-.2s.25-.19.33-.31.11-.25.11-.4Zm-1.75-2.99c.2,0,.37-.03.52-.08.15-.05.27-.13.38-.23s.18-.21.23-.35c.05-.14.08-.29.08-.45,0-.34-.1-.61-.31-.8s-.5-.3-.89-.3-.69.1-.89.3c-.21.2-.31.47-.31.8,0,.16.03.31.08.45.05.14.13.25.23.35s.23.17.38.23c.15.05.32.08.52.08Z"/><path class="cls-2" d="m244.05,141.41c-.12.15-.26.27-.43.38s-.34.19-.54.26-.39.12-.59.15c-.2.03-.4.05-.6.05-.38,0-.73-.06-1.05-.19-.32-.13-.6-.32-.83-.57-.23-.25-.42-.56-.55-.92-.13-.37-.2-.79-.2-1.26,0-.38.06-.74.18-1.08.12-.33.29-.62.51-.87.22-.24.49-.44.81-.58.32-.14.68-.21,1.08-.21.33,0,.63.06.92.17.28.11.52.27.73.48s.37.47.48.77.17.66.17,1.05c0,.15-.02.25-.05.3s-.09.08-.18.08h-3.68c.01.35.06.65.14.91.08.26.2.47.36.64.15.17.33.3.54.39.21.09.45.13.71.13.24,0,.45-.03.63-.08s.33-.12.45-.18c.13-.06.23-.13.32-.18.08-.06.16-.08.22-.08.08,0,.14.03.19.09l.27.35Zm-.78-2.58c0-.22-.03-.43-.09-.62-.06-.19-.16-.35-.28-.48-.12-.14-.27-.24-.44-.32s-.37-.11-.59-.11c-.46,0-.83.14-1.1.41-.27.27-.44.64-.5,1.12h3.01Z"/><path class="cls-2" d="m181.51,153.62c.06,0,.11.02.15.07l.42.45c-.32.37-.71.66-1.16.86-.46.21-1,.31-1.65.31-.56,0-1.07-.1-1.52-.29-.46-.19-.85-.47-1.17-.82-.32-.35-.57-.77-.75-1.26s-.27-1.03-.27-1.61.09-1.13.28-1.62c.18-.49.45-.91.78-1.26s.74-.62,1.2-.82.98-.29,1.55-.29,1.04.09,1.47.27c.42.18.8.42,1.12.72l-.35.48s-.05.07-.08.09c-.04.02-.08.04-.14.04-.07,0-.15-.04-.24-.11-.09-.07-.22-.15-.37-.24-.15-.09-.34-.17-.57-.24-.23-.07-.51-.11-.84-.11-.4,0-.77.07-1.1.21-.33.14-.62.34-.86.61s-.43.59-.56.97c-.13.38-.2.81-.2,1.29s.07.92.21,1.3c.14.38.33.7.57.97.24.26.53.46.85.6.33.14.68.21,1.06.21.23,0,.44-.01.63-.04s.36-.07.52-.13c.16-.06.3-.13.44-.22s.27-.19.41-.32c.06-.05.12-.08.18-.08Z"/><path class="cls-2" d="m185.29,149.64c.4,0,.76.07,1.09.2.32.13.6.32.83.57.23.25.4.54.52.89.12.35.18.74.18,1.17s-.06.83-.18,1.17c-.12.35-.3.65-.52.89-.23.25-.5.44-.83.57-.32.13-.68.2-1.09.2s-.77-.07-1.1-.2c-.33-.13-.6-.32-.83-.57-.23-.25-.4-.54-.53-.89-.12-.35-.18-.74-.18-1.17s.06-.82.18-1.17c.12-.35.3-.65.53-.89.23-.25.5-.44.83-.57.32-.13.69-.2,1.1-.2Zm0,4.92c.54,0,.95-.18,1.22-.55.27-.36.4-.87.4-1.53s-.13-1.17-.4-1.53c-.27-.37-.67-.55-1.22-.55-.28,0-.52.05-.72.14s-.38.23-.51.41c-.14.18-.24.4-.3.66-.07.26-.1.55-.1.88,0,.65.13,1.16.4,1.53.27.36.68.55,1.23.55Z"/><path class="cls-2" d="m189.14,155.23v-5.51h.58c.14,0,.22.07.26.2l.07.57c.2-.25.43-.45.69-.61.25-.16.55-.24.88-.24.37,0,.67.1.9.31s.4.49.5.84c.08-.2.18-.37.31-.52s.27-.26.42-.36c.16-.09.32-.16.5-.21s.35-.07.54-.07c.29,0,.55.05.77.14s.42.23.58.41c.16.18.28.4.36.66.08.26.12.56.12.89v3.51h-.97v-3.51c0-.43-.09-.76-.28-.98-.19-.22-.46-.33-.82-.33-.16,0-.31.03-.45.08s-.27.14-.38.25c-.11.11-.19.25-.26.41-.06.17-.1.36-.1.57v3.51h-.97v-3.51c0-.44-.09-.77-.27-.99-.18-.22-.44-.33-.78-.33-.24,0-.46.06-.66.19-.2.13-.39.3-.56.52v4.11h-.97Z"/><path class="cls-2" d="m199.01,150.58c.23-.29.5-.52.8-.69.3-.17.65-.26,1.04-.26.32,0,.61.06.86.18s.48.3.66.54c.18.24.32.53.42.88.1.35.15.76.15,1.21,0,.41-.05.78-.16,1.13-.11.35-.27.65-.47.91-.21.26-.46.46-.75.6-.3.15-.63.22-1,.22-.34,0-.63-.06-.87-.17s-.45-.27-.64-.48v2.44h-.97v-7.37h.58c.14,0,.22.07.26.2l.09.65Zm.05,3.33c.18.24.37.41.58.51.21.1.45.15.71.15.51,0,.91-.18,1.19-.55.28-.37.41-.89.41-1.57,0-.36-.03-.67-.09-.92s-.16-.47-.27-.63c-.12-.17-.27-.29-.44-.36s-.37-.11-.59-.11c-.32,0-.59.07-.83.22s-.46.35-.66.61v2.66Z"/><path class="cls-2" d="m208.71,149.72v5.51h-.58c-.14,0-.22-.07-.26-.2l-.08-.59c-.24.26-.51.48-.8.64-.3.16-.64.24-1.02.24-.3,0-.57-.05-.8-.15s-.42-.24-.58-.42c-.16-.18-.27-.4-.35-.66-.08-.26-.12-.54-.12-.85v-3.51h.97v3.51c0,.42.09.74.29.97.19.23.48.34.87.34.29,0,.55-.07.8-.2.25-.14.48-.32.69-.56v-4.06h.97Z"/><path class="cls-2" d="m215.35,155.23h-.97v-4.7h-2.84v3.31c0,.23.06.4.17.52s.26.17.43.17c.1,0,.19-.01.26-.04.08-.03.14-.06.19-.09s.1-.06.14-.09c.04-.03.07-.04.1-.04.05,0,.1.03.14.09l.28.46c-.17.16-.37.28-.6.37-.24.09-.48.13-.73.13-.44,0-.77-.12-1-.36-.23-.24-.35-.59-.35-1.05v-3.37h-.66c-.06,0-.11-.02-.15-.05-.04-.03-.06-.09-.06-.16v-.39l.9-.12.22-1.7c.01-.05.04-.1.07-.13.04-.03.09-.05.15-.05h.49v1.9h3.81v5.4Zm.24-7.28c0,.09-.02.18-.06.26-.04.08-.09.15-.15.21s-.14.11-.22.15-.17.05-.27.05-.18-.02-.26-.05c-.08-.04-.15-.09-.21-.15s-.11-.13-.15-.21-.05-.17-.05-.26.02-.18.05-.27.08-.16.15-.22.13-.11.21-.15c.08-.04.17-.05.26-.05s.18.02.27.05.16.09.22.15.11.14.15.22c.04.08.06.17.06.27Z"/><path class="cls-2" d="m217.85,150.52c.12-.13.25-.26.38-.36.13-.11.28-.2.43-.28.15-.08.31-.14.48-.18.17-.04.35-.06.55-.06.3,0,.57.05.8.15.23.1.42.24.58.42s.27.4.35.66.12.54.12.85v3.51h-.97v-3.51c0-.42-.1-.74-.29-.97-.19-.23-.48-.35-.87-.35-.29,0-.55.07-.8.21s-.48.32-.69.56v4.06h-.97v-5.51h.58c.14,0,.22.07.26.2l.08.6Z"/><path class="cls-2" d="m227.66,149.94v.36c0,.12-.08.2-.23.23l-.62.08c.12.24.18.5.18.79,0,.27-.05.51-.16.73s-.25.41-.43.56-.4.28-.65.36c-.25.08-.53.12-.83.12-.26,0-.5-.03-.73-.09-.12.07-.2.15-.27.23-.06.08-.09.16-.09.25,0,.13.05.23.16.3.11.07.25.12.42.14.17.03.37.05.59.05.22,0,.45.02.69.04.23.02.46.04.69.08.22.04.42.1.59.2.17.09.31.22.42.38.11.16.16.37.16.62,0,.24-.06.46-.18.69-.12.22-.29.42-.51.59-.22.17-.49.31-.81.41-.32.1-.68.16-1.08.16s-.75-.04-1.05-.12c-.3-.08-.55-.19-.75-.32-.2-.13-.35-.29-.45-.47s-.15-.36-.15-.55c0-.27.08-.5.26-.69.17-.19.4-.34.7-.45-.16-.07-.29-.17-.39-.29s-.14-.29-.14-.49c0-.08.01-.16.04-.25.03-.08.07-.17.13-.26.06-.08.13-.17.22-.24.09-.08.19-.14.3-.2-.27-.15-.48-.35-.64-.61s-.23-.54-.23-.88c0-.27.05-.51.16-.73.1-.22.25-.41.43-.56.18-.15.41-.27.66-.36.26-.08.54-.12.84-.12.24,0,.46.03.67.08.21.05.4.13.57.23h1.5Zm-.98,5.59c0-.13-.04-.24-.11-.33-.08-.08-.18-.15-.31-.2-.13-.05-.28-.08-.45-.1-.17-.02-.35-.04-.54-.05-.19-.01-.38-.02-.58-.03s-.38-.03-.57-.05c-.2.09-.37.21-.5.36-.13.14-.19.31-.19.5,0,.12.03.24.09.35s.16.2.29.28c.13.08.29.14.49.19.2.04.43.07.7.07s.49-.02.7-.07c.21-.05.38-.11.52-.2s.25-.19.33-.31.11-.25.11-.4Zm-1.75-2.99c.2,0,.37-.03.52-.08.15-.05.27-.13.38-.23s.18-.21.23-.35c.05-.14.08-.29.08-.45,0-.34-.1-.61-.31-.8s-.5-.3-.89-.3-.69.1-.89.3c-.21.2-.31.47-.31.8,0,.16.03.31.08.45.05.14.13.25.23.35s.23.17.38.23c.15.05.32.08.52.08Z"/><path class="cls-2" d="m238.01,151.49v2.99c-.39.28-.81.49-1.25.63-.44.14-.93.21-1.46.21-.63,0-1.19-.1-1.7-.29-.5-.19-.93-.47-1.29-.82-.36-.35-.63-.77-.82-1.26-.19-.49-.29-1.03-.29-1.61s.09-1.14.28-1.63.45-.91.8-1.26c.34-.35.76-.62,1.26-.81.49-.19,1.04-.29,1.65-.29.31,0,.59.02.86.07s.51.11.73.2c.22.09.43.19.62.31.19.12.37.26.54.41l-.3.48c-.05.07-.11.12-.18.14-.07.02-.16,0-.25-.05-.09-.05-.19-.11-.3-.19-.11-.07-.25-.14-.41-.21-.16-.07-.35-.12-.57-.17-.22-.05-.48-.07-.78-.07-.44,0-.83.07-1.19.21s-.66.35-.91.61-.44.59-.58.97c-.13.38-.2.8-.2,1.28s.07.93.21,1.31.34.71.6.98c.26.27.57.48.94.62.37.14.78.21,1.25.21.36,0,.68-.04.96-.12s.56-.19.82-.34v-1.71h-1.21c-.07,0-.12-.02-.17-.06s-.06-.09-.06-.15v-.6h2.39Z"/><path class="cls-2" d="m240.22,150.83c.17-.38.39-.67.64-.88.25-.21.56-.32.93-.32.12,0,.23.01.33.04.11.03.2.06.29.12l-.07.72c-.02.09-.08.14-.16.14-.05,0-.13-.01-.22-.03-.1-.02-.21-.03-.33-.03-.17,0-.33.03-.46.08-.14.05-.26.13-.37.23-.11.1-.2.22-.29.37-.08.15-.16.31-.23.5v3.48h-.97v-5.51h.55c.11,0,.18.02.22.06s.07.11.08.21l.07.84Z"/><path class="cls-2" d="m245.36,149.64c.4,0,.76.07,1.09.2.32.13.6.32.83.57.23.25.4.54.52.89.12.35.18.74.18,1.17s-.06.83-.18,1.17c-.12.35-.3.65-.52.89-.23.25-.5.44-.83.57-.32.13-.68.2-1.09.2s-.77-.07-1.1-.2c-.33-.13-.6-.32-.83-.57-.23-.25-.4-.54-.53-.89-.12-.35-.18-.74-.18-1.17s.06-.82.18-1.17c.12-.35.3-.65.53-.89.23-.25.5-.44.83-.57.32-.13.69-.2,1.1-.2Zm0,4.92c.54,0,.95-.18,1.22-.55.27-.36.4-.87.4-1.53s-.13-1.17-.4-1.53c-.27-.37-.67-.55-1.22-.55-.28,0-.52.05-.72.14s-.38.23-.51.41c-.14.18-.24.4-.3.66-.07.26-.1.55-.1.88,0,.65.13,1.16.4,1.53.27.36.68.55,1.23.55Z"/><path class="cls-2" d="m253.73,149.72v5.51h-.58c-.14,0-.22-.07-.26-.2l-.08-.59c-.24.26-.51.48-.8.64-.3.16-.64.24-1.02.24-.3,0-.57-.05-.8-.15s-.42-.24-.58-.42c-.16-.18-.27-.4-.35-.66-.08-.26-.12-.54-.12-.85v-3.51h.97v3.51c0,.42.09.74.29.97.19.23.48.34.87.34.29,0,.55-.07.8-.2.25-.14.48-.32.69-.56v-4.06h.97Z"/><path class="cls-2" d="m256.19,150.58c.23-.29.5-.52.8-.69.3-.17.65-.26,1.04-.26.32,0,.61.06.86.18s.48.3.66.54c.18.24.32.53.42.88.1.35.15.76.15,1.21,0,.41-.05.78-.16,1.13-.11.35-.27.65-.47.91-.21.26-.46.46-.75.6-.3.15-.63.22-1,.22-.34,0-.63-.06-.87-.17s-.45-.27-.64-.48v2.44h-.97v-7.37h.58c.14,0,.22.07.26.2l.09.65Zm.05,3.33c.18.24.37.41.58.51.21.1.45.15.71.15.51,0,.91-.18,1.19-.55.28-.37.41-.89.41-1.57,0-.36-.03-.67-.09-.92s-.16-.47-.27-.63c-.12-.17-.27-.29-.44-.36s-.37-.11-.59-.11c-.32,0-.59.07-.83.22s-.46.35-.66.61v2.66Z"/><path class="cls-2" d="m217.66,79.53c6.47,0,11.9,4.14,13.84,9.92,6.01.16,10.75,5.07,10.65,11.12-.1,6.08-5.06,11.14-11.12,11.14h-27.42c-6.15,0-11.04-4.99-10.94-11.14.1-5.99,4.9-10.87,10.83-11.12,2.13-5.77,7.68-9.92,14.15-9.92m0-2.05c-6.7,0-12.8,3.98-15.58,10.04-6.42.92-11.35,6.4-11.46,13.01-.06,3.53,1.27,6.86,3.73,9.36,2.45,2.49,5.75,3.87,9.27,3.87h27.42c7.15,0,13.05-5.9,13.17-13.16.11-6.74-4.74-12.25-11.25-13.1-2.61-6.05-8.59-10.02-15.29-10.02h0Z"/><path class="cls-1" d="m202.5,89.22c-.45,0-.87.17-1.2.5-.66.68-.66,1.77,0,2.43.33.33.78.5,1.2.5s.87-.17,1.2-.5c.66-.66.66-1.75,0-2.43-.33-.33-.78-.5-1.2-.5Z"/><path class="cls-2" d="m200.44,118.09c-.13-1.64-1.51-2.93-3.19-2.93-1.77,0-3.21,1.44-3.21,3.21s1.44,3.21,3.21,3.21c1.67,0,3.06-1.29,3.19-2.93.01-.09.02-.18.02-.27s0-.19-.02-.27Zm-3.19,2.54c-1.25,0-2.27-1.02-2.27-2.27s1.02-2.27,2.27-2.27c1.16,0,2.12.87,2.25,1.99.01.09.02.18.02.27s0,.19-.02.27c-.13,1.12-1.09,1.99-2.25,1.99Z"/><path class="cls-2" d="m237.58,115.16c-1.67,0-3.05,1.29-3.19,2.93-.01.09-.02.18-.02.27s0,.19.02.27c.13,1.64,1.51,2.93,3.19,2.93,1.77,0,3.21-1.44,3.21-3.21s-1.44-3.21-3.21-3.21Zm0,5.48c-1.16,0-2.12-.87-2.25-1.99-.01-.09-.02-.18-.02-.27s0-.19.02-.27c.13-1.12,1.09-1.99,2.25-1.99,1.25,0,2.27,1.02,2.27,2.27s-1.02,2.27-2.27,2.27Z"/><path class="cls-2" d="m229.12,121.02c-1.67,0-3.05,1.29-3.19,2.93-.01.09-.02.18-.02.27s0,.19.02.28c.13,1.64,1.51,2.93,3.19,2.93,1.77,0,3.21-1.44,3.21-3.21s-1.44-3.2-3.21-3.2Zm0,5.47c-1.16,0-2.11-.87-2.25-1.99-.01-.09-.02-.19-.02-.28s0-.19.02-.27c.13-1.12,1.09-1.99,2.25-1.99,1.25,0,2.27,1.02,2.27,2.27s-1.02,2.27-2.27,2.27Z"/><path class="cls-2" d="m208.88,123.94c-.13-1.64-1.51-2.93-3.19-2.93-1.77,0-3.21,1.44-3.21,3.2s1.44,3.21,3.21,3.21c1.67,0,3.05-1.29,3.19-2.93.01-.09.02-.18.02-.27s0-.19-.02-.27Zm-3.19,2.54c-1.25,0-2.27-1.02-2.27-2.27s1.02-2.27,2.27-2.27c1.16,0,2.12.88,2.25,1.99.01.09.02.18.02.27s0,.19-.02.27c-.13,1.12-1.09,1.99-2.25,1.99Z"/><path class="cls-2" d="m204.92,118.09v.55h-5.41c.01-.09.02-.18.02-.27s0-.19-.02-.27h5.41Z"/><rect class="cls-2" x="204.63" y="112.91" width=".55" height="5.73"/><path class="cls-2" d="m213.25,123.94v.55h-5.3c.01-.09.02-.18.02-.27s0-.19-.02-.27h5.3Z"/><rect class="cls-2" x="212.95" y="112.64" width=".55" height="11.85"/><path class="cls-2" d="m235.32,118.37c0,.1,0,.19.02.27h-5.39v-.55h5.39c-.01.09-.02.18-.02.27Z"/><rect class="cls-2" x="229.69" y="112.88" width=".55" height="5.76"/><path class="cls-2" d="m226.85,124.22c0,.1,0,.19.02.28h-5.31v-.56h5.31c-.01.09-.02.18-.02.27Z"/><rect class="cls-2" x="221.3" y="112.72" width=".55" height="11.77"/><path class="cls-2" d="m51.68,141.3v.89h-4.42v-7.79h1.05v6.91h3.37Z"/><path class="cls-2" d="m53.85,134.94c0,.09-.02.18-.06.26s-.09.15-.15.22-.14.11-.22.15c-.09.04-.18.05-.27.05s-.18-.02-.26-.05-.15-.09-.21-.15c-.06-.06-.11-.14-.15-.22-.04-.08-.05-.17-.05-.26s.02-.18.05-.27c.04-.09.08-.16.15-.22.06-.06.13-.11.21-.15s.17-.05.26-.05.18.02.27.05c.08.04.16.09.22.15s.11.14.15.22c.04.08.06.17.06.27Zm-.21,1.73v5.51h-.97v-5.51h.97Z"/><path class="cls-2" d="m56.14,137.47c.12-.13.25-.26.38-.36.13-.11.28-.2.43-.28.15-.08.31-.14.48-.18.17-.04.35-.06.55-.06.3,0,.57.05.8.15.23.1.42.24.58.42.15.18.27.4.35.66s.12.54.12.85v3.51h-.97v-3.51c0-.42-.1-.74-.29-.97-.19-.23-.48-.35-.87-.35-.29,0-.55.07-.8.21-.25.14-.48.32-.69.56v4.06h-.97v-5.51h.58c.14,0,.22.07.26.2l.08.6Z"/><path class="cls-2" d="m61.15,137.45c.3-.29.63-.51.98-.66s.74-.22,1.17-.22c.31,0,.58.05.82.15s.44.24.6.42c.16.18.29.4.37.66s.12.54.12.85v3.52h-.43c-.09,0-.17-.02-.22-.05-.05-.03-.09-.09-.12-.18l-.11-.52c-.15.13-.29.25-.42.36-.14.1-.28.19-.44.26s-.31.12-.49.16c-.17.04-.36.06-.57.06s-.42-.03-.6-.09c-.19-.06-.35-.15-.49-.27-.14-.12-.25-.27-.33-.45-.08-.18-.12-.4-.12-.65,0-.22.06-.43.18-.63s.31-.38.58-.54c.27-.16.62-.28,1.05-.38.43-.1.96-.16,1.59-.17v-.43c0-.43-.09-.75-.28-.97-.19-.22-.46-.33-.81-.33-.24,0-.44.03-.6.09-.16.06-.3.13-.42.2-.12.07-.22.14-.3.2-.09.06-.17.09-.25.09-.06,0-.12-.02-.17-.05-.05-.03-.09-.08-.12-.13l-.17-.31Zm3.13,2.25c-.45.01-.83.05-1.14.11s-.57.13-.77.22c-.2.09-.34.2-.43.32-.09.12-.13.26-.13.41s.02.27.07.38c.05.1.11.19.19.26s.18.12.29.15c.11.03.23.05.36.05.17,0,.33-.02.47-.05.14-.03.27-.08.4-.15.12-.06.24-.14.36-.23.11-.09.23-.19.33-.31v-1.14Z"/><path class="cls-2" d="m67.62,137.78c.17-.38.39-.67.64-.88.25-.21.56-.32.93-.32.12,0,.23.01.33.04s.2.06.29.12l-.07.72c-.02.09-.08.14-.16.14-.05,0-.12-.01-.22-.03-.1-.02-.21-.03-.33-.03-.17,0-.33.03-.46.08s-.26.13-.36.23-.2.22-.29.37c-.09.15-.16.31-.23.5v3.48h-.97v-5.51h.55c.1,0,.18.02.22.06.04.04.07.11.08.21l.06.84Z"/><path class="cls-2" d="m72.76,136.59c.4,0,.77.07,1.09.2.32.13.6.32.83.57.23.25.4.54.52.89.12.35.18.74.18,1.17s-.06.83-.18,1.17c-.12.35-.3.65-.52.89s-.5.44-.83.57c-.32.13-.69.2-1.09.2s-.77-.07-1.1-.2c-.32-.13-.6-.32-.83-.57s-.4-.54-.52-.89c-.12-.35-.18-.74-.18-1.17s.06-.82.18-1.17c.12-.35.3-.65.52-.89.23-.25.5-.44.83-.57.32-.13.69-.2,1.1-.2Zm0,4.92c.54,0,.95-.18,1.22-.55.27-.36.4-.87.4-1.53s-.13-1.17-.4-1.53c-.27-.37-.67-.55-1.22-.55-.28,0-.52.05-.72.14-.21.09-.38.23-.51.41s-.24.4-.3.66c-.07.26-.1.55-.1.88,0,.65.14,1.16.41,1.53s.68.55,1.23.55Z"/><path class="cls-2" d="m85.08,140.57c.06,0,.11.02.15.07l.42.45c-.32.37-.71.66-1.16.86-.45.21-1,.31-1.65.31-.56,0-1.07-.1-1.52-.29-.46-.19-.85-.47-1.17-.82-.32-.35-.57-.77-.75-1.26-.18-.49-.27-1.03-.27-1.61s.09-1.13.28-1.62c.18-.49.44-.91.78-1.26.33-.35.74-.62,1.2-.82.47-.19.98-.29,1.55-.29s1.04.09,1.47.27c.42.18.8.42,1.12.72l-.35.48s-.05.07-.08.09c-.03.02-.08.04-.14.04-.07,0-.15-.04-.24-.11s-.22-.15-.37-.24c-.15-.09-.34-.17-.57-.24s-.51-.11-.84-.11c-.4,0-.77.07-1.1.21-.33.14-.62.34-.86.61-.24.26-.43.59-.56.97-.13.38-.2.81-.2,1.29s.07.92.21,1.3c.14.38.33.7.57.97.24.26.53.46.85.6.33.14.68.21,1.06.21.23,0,.44-.01.63-.04.19-.03.36-.07.52-.13.16-.06.3-.13.44-.22.14-.09.27-.19.41-.32.06-.05.12-.08.19-.08Z"/><path class="cls-2" d="m88.86,136.59c.4,0,.77.07,1.09.2.32.13.6.32.83.57.23.25.4.54.52.89.12.35.18.74.18,1.17s-.06.83-.18,1.17c-.12.35-.3.65-.52.89s-.5.44-.83.57c-.32.13-.69.2-1.09.2s-.77-.07-1.1-.2c-.32-.13-.6-.32-.83-.57s-.4-.54-.52-.89c-.12-.35-.18-.74-.18-1.17s.06-.82.18-1.17c.12-.35.3-.65.52-.89.23-.25.5-.44.83-.57.32-.13.69-.2,1.1-.2Zm0,4.92c.54,0,.95-.18,1.22-.55.27-.36.4-.87.4-1.53s-.13-1.17-.4-1.53c-.27-.37-.67-.55-1.22-.55-.28,0-.52.05-.72.14-.21.09-.38.23-.51.41s-.24.4-.3.66c-.07.26-.1.55-.1.88,0,.65.14,1.16.41,1.53s.68.55,1.23.55Z"/><path class="cls-2" d="m93.62,137.47c.12-.13.25-.26.38-.36.13-.11.28-.2.43-.28.15-.08.31-.14.48-.18.17-.04.35-.06.55-.06.3,0,.57.05.8.15.23.1.42.24.58.42.15.18.27.4.35.66s.12.54.12.85v3.51h-.97v-3.51c0-.42-.1-.74-.29-.97-.19-.23-.48-.35-.87-.35-.29,0-.55.07-.8.21-.25.14-.48.32-.69.56v4.06h-.97v-5.51h.58c.14,0,.22.07.26.2l.08.6Z"/><path class="cls-2" d="m101.98,137.58c-.04.08-.11.12-.2.12-.05,0-.12-.02-.18-.06-.07-.04-.15-.08-.25-.13-.1-.05-.22-.09-.36-.14-.14-.04-.3-.06-.49-.06-.16,0-.31.02-.44.06-.13.04-.24.1-.33.17-.09.07-.16.16-.21.25s-.07.2-.07.31c0,.14.04.26.12.35s.19.18.32.24c.13.07.29.13.46.18.17.05.35.11.52.17.18.06.35.13.52.2.17.07.32.16.46.27.13.11.24.24.32.4s.12.35.12.57c0,.25-.05.49-.14.7-.09.22-.23.4-.4.56-.18.16-.4.28-.65.37-.26.09-.55.14-.89.14-.38,0-.73-.06-1.04-.19-.31-.12-.58-.29-.79-.48l.23-.37s.06-.08.1-.11c.04-.02.09-.04.15-.04.07,0,.13.03.21.08.07.05.16.11.26.17.1.06.23.12.38.17.15.05.33.08.55.08.19,0,.35-.02.5-.07.14-.05.26-.11.35-.2s.16-.18.21-.29c.05-.11.07-.22.07-.35,0-.15-.04-.28-.12-.38s-.19-.19-.32-.26c-.13-.07-.29-.13-.46-.19-.17-.05-.35-.11-.53-.17-.18-.06-.36-.12-.53-.2-.17-.07-.33-.17-.46-.28-.13-.11-.24-.25-.32-.42s-.12-.37-.12-.6c0-.21.04-.41.13-.61.09-.19.21-.36.38-.51.17-.15.37-.26.61-.35.24-.09.52-.13.83-.13.36,0,.69.06.98.17.29.11.54.27.75.47l-.22.35Z"/><path class="cls-2" d="m108.01,136.67v5.51h-.58c-.14,0-.22-.07-.26-.2l-.08-.59c-.24.26-.51.48-.81.64-.3.16-.64.24-1.02.24-.3,0-.57-.05-.8-.15-.23-.1-.42-.24-.58-.42-.16-.18-.27-.4-.35-.66-.08-.26-.12-.54-.12-.85v-3.51h.97v3.51c0,.42.1.74.29.97.19.23.48.34.87.34.29,0,.55-.07.8-.2.25-.14.48-.32.69-.56v-4.06h.97Z"/><path class="cls-2" d="m109.55,142.18v-5.51h.58c.14,0,.22.07.26.2l.07.57c.2-.25.43-.45.69-.61s.55-.24.88-.24c.37,0,.67.1.9.31.23.21.4.49.5.84.08-.2.18-.37.31-.52s.27-.26.42-.36.32-.16.5-.21.35-.07.54-.07c.29,0,.55.05.77.14s.42.23.58.41.28.4.36.66c.08.26.12.56.12.89v3.51h-.97v-3.51c0-.43-.09-.76-.28-.98-.19-.22-.46-.33-.82-.33-.16,0-.31.03-.45.08-.14.06-.27.14-.38.25s-.19.25-.26.41c-.06.17-.09.36-.09.57v3.51h-.97v-3.51c0-.44-.09-.77-.27-.99-.18-.22-.44-.33-.78-.33-.24,0-.46.06-.66.19-.2.13-.39.3-.56.52v4.11h-.97Z"/><path class="cls-2" d="m122.96,141.41c-.12.15-.26.27-.43.38-.17.11-.35.19-.54.26-.19.07-.39.12-.59.15-.2.03-.4.05-.6.05-.38,0-.73-.06-1.05-.19-.32-.13-.6-.32-.83-.57-.23-.25-.42-.56-.55-.92s-.2-.79-.2-1.26c0-.38.06-.74.18-1.08.12-.33.29-.62.51-.87s.49-.44.81-.58c.32-.14.68-.21,1.08-.21.33,0,.64.06.92.17.28.11.52.27.73.48.21.21.37.47.48.77.12.31.17.66.17,1.05,0,.15-.02.25-.05.3s-.09.08-.19.08h-3.68c.01.35.06.65.14.91.09.26.2.47.36.64.15.17.33.3.54.39.21.09.45.13.71.13.24,0,.45-.03.63-.08s.33-.12.45-.18c.13-.06.23-.13.32-.18.08-.06.16-.08.22-.08.08,0,.14.03.18.09l.27.35Zm-.78-2.58c0-.22-.03-.43-.1-.62-.06-.19-.16-.35-.28-.48-.12-.14-.27-.24-.44-.32s-.37-.11-.59-.11c-.46,0-.83.14-1.1.41s-.44.64-.5,1.12h3.01Z"/><path class="cls-2" d="m125.15,137.78c.17-.38.39-.67.64-.88.25-.21.56-.32.93-.32.12,0,.23.01.33.04s.2.06.29.12l-.07.72c-.02.09-.08.14-.16.14-.05,0-.12-.01-.22-.03-.1-.02-.21-.03-.33-.03-.17,0-.33.03-.46.08s-.26.13-.36.23-.2.22-.29.37c-.09.15-.16.31-.23.5v3.48h-.97v-5.51h.55c.1,0,.18.02.22.06.04.04.07.11.08.21l.06.84Z"/><path class="cls-2" d="m79.1,151.49v2.99c-.39.28-.81.49-1.25.63-.44.14-.93.21-1.46.21-.63,0-1.19-.1-1.7-.29-.5-.19-.93-.47-1.29-.82-.36-.35-.63-.77-.82-1.26-.19-.49-.29-1.03-.29-1.61s.09-1.14.28-1.63c.19-.49.45-.91.8-1.26.34-.35.76-.62,1.26-.81.49-.19,1.04-.29,1.65-.29.31,0,.59.02.86.07s.51.11.73.2c.23.09.43.19.63.31.19.12.37.26.54.41l-.3.48c-.05.07-.11.12-.18.14-.07.02-.16,0-.25-.05-.09-.05-.19-.11-.3-.19-.11-.07-.25-.14-.41-.21-.16-.07-.35-.12-.57-.17-.22-.05-.48-.07-.78-.07-.44,0-.84.07-1.19.21-.36.14-.66.35-.91.61s-.44.59-.58.97c-.13.38-.2.8-.2,1.28s.07.93.21,1.31c.14.39.34.71.6.98.26.27.57.48.94.62.37.14.79.21,1.25.21.36,0,.68-.04.96-.12s.56-.19.82-.34v-1.71h-1.21c-.07,0-.12-.02-.17-.06-.04-.04-.06-.09-.06-.15v-.6h2.39Z"/><path class="cls-2" d="m81.32,150.83c.17-.38.39-.67.64-.88.25-.21.56-.32.93-.32.12,0,.23.01.33.04s.2.06.29.12l-.07.72c-.02.09-.08.14-.16.14-.05,0-.12-.01-.22-.03-.1-.02-.21-.03-.33-.03-.17,0-.33.03-.46.08s-.26.13-.36.23-.2.22-.29.37c-.09.15-.16.31-.23.5v3.48h-.97v-5.51h.55c.1,0,.18.02.22.06.04.04.07.11.08.21l.06.84Z"/><path class="cls-2" d="m86.46,149.64c.4,0,.77.07,1.09.2.32.13.6.32.83.57.23.25.4.54.52.89.12.35.18.74.18,1.17s-.06.83-.18,1.17c-.12.35-.3.65-.52.89s-.5.44-.83.57c-.32.13-.69.2-1.09.2s-.77-.07-1.1-.2c-.32-.13-.6-.32-.83-.57s-.4-.54-.52-.89c-.12-.35-.18-.74-.18-1.17s.06-.82.18-1.17c.12-.35.3-.65.52-.89.23-.25.5-.44.83-.57.32-.13.69-.2,1.1-.2Zm0,4.92c.54,0,.95-.18,1.22-.55.27-.36.4-.87.4-1.53s-.13-1.17-.4-1.53c-.27-.37-.67-.55-1.22-.55-.28,0-.52.05-.72.14-.21.09-.38.23-.51.41s-.24.4-.3.66c-.07.26-.1.55-.1.88,0,.65.14,1.16.41,1.53s.68.55,1.23.55Z"/><path class="cls-2" d="m94.83,149.72v5.51h-.58c-.14,0-.22-.07-.26-.2l-.08-.59c-.24.26-.51.48-.81.64-.3.16-.64.24-1.02.24-.3,0-.57-.05-.8-.15-.23-.1-.42-.24-.58-.42-.16-.18-.27-.4-.35-.66-.08-.26-.12-.54-.12-.85v-3.51h.97v3.51c0,.42.1.74.29.97.19.23.48.34.87.34.29,0,.55-.07.8-.2.25-.14.48-.32.69-.56v-4.06h.97Z"/><path class="cls-2" d="m97.29,150.58c.23-.29.5-.52.8-.69.3-.17.65-.26,1.04-.26.32,0,.61.06.86.18s.48.3.66.54c.18.24.32.53.42.88s.15.76.15,1.21c0,.41-.05.78-.16,1.13-.11.35-.27.65-.47.91-.2.26-.45.46-.75.6-.3.15-.63.22-1,.22-.34,0-.63-.06-.87-.17s-.45-.27-.64-.48v2.44h-.97v-7.37h.58c.14,0,.22.07.26.2l.09.65Zm.05,3.33c.18.24.37.41.58.51.21.1.45.15.71.15.51,0,.91-.18,1.19-.55.28-.37.41-.89.41-1.57,0-.36-.03-.67-.1-.92s-.16-.47-.27-.63-.27-.29-.44-.36c-.17-.08-.37-.11-.59-.11-.32,0-.59.07-.83.22-.24.15-.46.35-.65.61v2.66Z"/><path class="cls-2" d="m95.98,76.15h-19.5c-2.41,0-4.37,1.96-4.37,4.37v40.86c0,2.41,1.96,4.37,4.37,4.37h19.5c2.41,0,4.37-1.96,4.37-4.37v-40.86c0-2.41-1.96-4.37-4.37-4.37Zm-12.47.82c.7,0,1.28.57,1.28,1.28s-.57,1.28-1.28,1.28-1.28-.57-1.28-1.28.57-1.28,1.28-1.28Zm14.82,44.41c0,1.3-1.06,2.35-2.35,2.35h-19.5c-1.3,0-2.35-1.06-2.35-2.35v-40.86c0-1.3,1.06-2.35,2.35-2.35h3.89v.9c0,.74.6,1.34,1.34,1.34h9.04c.74,0,1.34-.6,1.34-1.34v-.9h3.89c1.3,0,2.35,1.06,2.35,2.35v40.86Z"/><rect class="cls-2" x="79.81" y="120.35" width="12.83" height="1.16" rx=".58" ry=".58"/><path class="cls-2" d="m459.68,141.3v.89h-4.42v-7.79h1.05v6.91h3.37Z"/><path class="cls-2" d="m461.84,134.94c0,.09-.02.18-.06.26s-.09.15-.15.22-.14.11-.22.15-.17.05-.27.05-.18-.02-.26-.05c-.08-.04-.15-.09-.21-.15s-.11-.14-.15-.22-.05-.17-.05-.26.02-.18.05-.27c.04-.09.08-.16.15-.22s.13-.11.21-.15c.08-.04.17-.05.26-.05s.18.02.27.05.16.09.22.15.11.14.15.22c.04.08.06.17.06.27Zm-.21,1.73v5.51h-.97v-5.51h.97Z"/><path class="cls-2" d="m464.13,137.47c.12-.13.25-.26.38-.36.13-.11.28-.2.43-.28.15-.08.31-.14.48-.18.17-.04.35-.06.55-.06.3,0,.57.05.8.15.23.1.42.24.58.42s.27.4.35.66.12.54.12.85v3.51h-.97v-3.51c0-.42-.1-.74-.29-.97-.19-.23-.48-.35-.87-.35-.29,0-.55.07-.8.21s-.48.32-.69.56v4.06h-.97v-5.51h.58c.14,0,.22.07.26.2l.08.6Z"/><path class="cls-2" d="m469.15,137.45c.3-.29.63-.51.98-.66s.74-.22,1.17-.22c.31,0,.58.05.82.15s.44.24.6.42c.16.18.29.4.37.66.08.26.12.54.12.85v3.52h-.43c-.09,0-.17-.02-.22-.05-.05-.03-.09-.09-.12-.18l-.11-.52c-.14.13-.29.25-.42.36-.14.1-.28.19-.43.26-.15.07-.32.12-.49.16s-.36.06-.57.06-.42-.03-.6-.09c-.19-.06-.35-.15-.49-.27s-.25-.27-.33-.45c-.08-.18-.12-.4-.12-.65,0-.22.06-.43.18-.63.12-.2.31-.38.58-.54.27-.16.62-.28,1.05-.38.43-.1.96-.16,1.59-.17v-.43c0-.43-.09-.75-.28-.97s-.46-.33-.81-.33c-.24,0-.44.03-.6.09-.16.06-.3.13-.42.2-.12.07-.22.14-.3.2-.09.06-.17.09-.25.09-.07,0-.12-.02-.17-.05-.05-.03-.09-.08-.12-.13l-.17-.31Zm3.13,2.25c-.45.01-.83.05-1.14.11s-.57.13-.77.22c-.2.09-.34.2-.43.32-.09.12-.13.26-.13.41s.02.27.07.38c.05.1.11.19.19.26.08.07.18.12.29.15s.23.05.36.05c.17,0,.33-.02.47-.05.14-.03.27-.08.4-.15.12-.06.25-.14.36-.23.11-.09.23-.19.33-.31v-1.14Z"/><path class="cls-2" d="m475.61,137.78c.17-.38.39-.67.64-.88.25-.21.56-.32.93-.32.12,0,.23.01.33.04.11.03.2.06.29.12l-.07.72c-.02.09-.08.14-.16.14-.05,0-.13-.01-.22-.03-.1-.02-.21-.03-.33-.03-.17,0-.33.03-.46.08-.14.05-.26.13-.37.23-.11.1-.2.22-.29.37-.08.15-.16.31-.23.5v3.48h-.97v-5.51h.55c.11,0,.18.02.22.06s.07.11.08.21l.07.84Z"/><path class="cls-2" d="m480.75,136.59c.4,0,.76.07,1.09.2.32.13.6.32.83.57.23.25.4.54.52.89.12.35.18.74.18,1.17s-.06.83-.18,1.17c-.12.35-.3.65-.52.89-.23.25-.5.44-.83.57-.32.13-.68.2-1.09.2s-.77-.07-1.1-.2c-.33-.13-.6-.32-.83-.57-.23-.25-.4-.54-.53-.89-.12-.35-.18-.74-.18-1.17s.06-.82.18-1.17c.12-.35.3-.65.53-.89.23-.25.5-.44.83-.57.32-.13.69-.2,1.1-.2Zm0,4.92c.54,0,.95-.18,1.22-.55.27-.36.4-.87.4-1.53s-.13-1.17-.4-1.53c-.27-.37-.67-.55-1.22-.55-.28,0-.52.05-.72.14s-.38.23-.51.41c-.14.18-.24.4-.3.66-.07.26-.1.55-.1.88,0,.65.13,1.16.4,1.53.27.36.68.55,1.23.55Z"/><path class="cls-2" d="m497.56,134.39l-2.43,7.79h-.95l-1.97-5.94c-.02-.06-.04-.12-.05-.18-.02-.07-.03-.13-.05-.21-.02.07-.04.14-.05.21-.02.06-.04.13-.05.18l-1.99,5.94h-.95l-2.43-7.79h.88c.09,0,.17.02.24.07.06.05.1.11.12.18l1.61,5.42c.03.1.05.2.07.32s.05.23.07.36c.03-.13.05-.25.08-.36s.06-.22.09-.31l1.83-5.42c.02-.06.06-.12.13-.17.06-.05.14-.08.23-.08h.3c.09,0,.17.02.23.07.06.05.1.11.13.18l1.83,5.42c.03.09.06.2.09.3.03.11.05.22.08.34.02-.12.04-.23.06-.34.02-.11.04-.21.07-.3l1.62-5.42c.02-.06.06-.12.12-.17s.14-.08.23-.08h.82Z"/><path class="cls-2" d="m499.68,134.94c0,.09-.02.18-.06.26s-.09.15-.15.22-.14.11-.22.15-.17.05-.27.05-.18-.02-.26-.05c-.08-.04-.15-.09-.21-.15s-.11-.14-.15-.22-.05-.17-.05-.26.02-.18.05-.27c.04-.09.08-.16.15-.22s.13-.11.21-.15c.08-.04.17-.05.26-.05s.18.02.27.05.16.09.22.15.11.14.15.22c.04.08.06.17.06.27Zm-.21,1.73v5.51h-.97v-5.51h.97Z"/><path class="cls-2" d="m501.98,137.47c.12-.13.25-.26.38-.36.13-.11.28-.2.43-.28.15-.08.31-.14.48-.18.17-.04.35-.06.55-.06.3,0,.57.05.8.15.23.1.42.24.58.42s.27.4.35.66.12.54.12.85v3.51h-.97v-3.51c0-.42-.1-.74-.29-.97-.19-.23-.48-.35-.87-.35-.29,0-.55.07-.8.21s-.48.32-.69.56v4.06h-.97v-5.51h.58c.14,0,.22.07.26.2l.08.6Z"/><path class="cls-2" d="m511.69,134.17v8.01h-.58c-.14,0-.22-.07-.26-.2l-.09-.67c-.24.28-.5.51-.8.69-.3.17-.65.26-1.04.26-.32,0-.6-.06-.86-.18-.26-.12-.48-.3-.66-.54-.18-.24-.32-.53-.42-.88s-.15-.76-.15-1.21c0-.41.05-.78.16-1.13.11-.35.26-.65.47-.91.2-.26.45-.46.75-.61.3-.15.63-.22,1-.22.34,0,.63.06.87.17.24.11.46.27.64.48v-3.05h.97Zm-.97,3.81c-.18-.24-.38-.41-.59-.51-.21-.1-.45-.14-.71-.14-.51,0-.9.18-1.18.55-.28.37-.41.89-.41,1.57,0,.36.03.67.09.92.06.26.15.47.27.63.12.17.27.29.44.36.17.08.37.11.59.11.32,0,.6-.07.83-.22s.46-.35.66-.61v-2.66Z"/><path class="cls-2" d="m515.55,136.59c.4,0,.76.07,1.09.2.32.13.6.32.83.57.23.25.4.54.52.89.12.35.18.74.18,1.17s-.06.83-.18,1.17c-.12.35-.3.65-.52.89-.23.25-.5.44-.83.57-.32.13-.68.2-1.09.2s-.77-.07-1.1-.2c-.33-.13-.6-.32-.83-.57-.23-.25-.4-.54-.53-.89-.12-.35-.18-.74-.18-1.17s.06-.82.18-1.17c.12-.35.3-.65.53-.89.23-.25.5-.44.83-.57.32-.13.69-.2,1.1-.2Zm0,4.92c.54,0,.95-.18,1.22-.55.27-.36.4-.87.4-1.53s-.13-1.17-.4-1.53c-.27-.37-.67-.55-1.22-.55-.28,0-.52.05-.72.14s-.38.23-.51.41c-.14.18-.24.4-.3.66-.07.26-.1.55-.1.88,0,.65.13,1.16.4,1.53.27.36.68.55,1.23.55Z"/><path class="cls-2" d="m526.91,136.67l-1.78,5.51h-.77c-.09,0-.16-.06-.2-.19l-1.22-3.74c-.03-.08-.05-.17-.07-.25-.02-.08-.04-.17-.05-.25-.02.08-.04.17-.05.25-.02.09-.04.17-.07.26l-1.24,3.73c-.03.12-.11.19-.22.19h-.73l-1.78-5.51h.76c.08,0,.14.02.19.06s.09.09.11.14l1.06,3.55c.06.26.11.51.15.74.03-.12.07-.24.1-.36.03-.12.07-.25.11-.38l1.16-3.57c.02-.05.05-.1.09-.14.05-.04.1-.05.17-.05h.42c.07,0,.13.02.18.05.05.04.08.08.1.14l1.14,3.57c.04.13.08.25.11.38.03.12.06.24.09.36.02-.12.04-.24.07-.36.03-.12.06-.25.09-.38l1.08-3.55c.02-.06.05-.11.1-.14s.11-.06.18-.06h.73Z"/><path class="cls-2" d="m531.02,137.58c-.04.08-.11.12-.2.12-.05,0-.12-.02-.18-.06-.07-.04-.15-.08-.25-.13-.1-.05-.22-.09-.36-.14-.14-.04-.3-.06-.49-.06-.16,0-.31.02-.44.06-.13.04-.24.1-.33.17-.09.07-.16.16-.21.25-.05.1-.07.2-.07.31,0,.14.04.26.12.35.08.09.19.18.32.24s.29.13.46.18c.17.05.34.11.52.17.18.06.35.13.52.2.17.07.32.16.46.27.13.11.24.24.32.4.08.16.12.35.12.57,0,.25-.05.49-.14.7-.09.22-.22.4-.4.56s-.39.28-.65.37c-.26.09-.55.14-.89.14-.38,0-.73-.06-1.04-.19s-.58-.29-.79-.48l.23-.37s.06-.08.1-.11c.04-.02.09-.04.15-.04s.13.03.21.08c.07.05.16.11.26.17s.23.12.38.17.33.08.55.08c.19,0,.35-.02.5-.07.14-.05.26-.11.35-.2.09-.08.16-.18.21-.29.04-.11.07-.22.07-.35,0-.15-.04-.28-.12-.38-.08-.1-.19-.19-.32-.26-.13-.07-.29-.13-.46-.19-.17-.05-.35-.11-.53-.17-.18-.06-.36-.12-.53-.2-.17-.07-.33-.17-.46-.28-.13-.11-.24-.25-.32-.42-.08-.17-.12-.37-.12-.6,0-.21.04-.41.13-.61.09-.19.21-.36.38-.51.17-.15.37-.26.61-.35.24-.09.52-.13.83-.13.36,0,.69.06.98.17s.54.27.75.47l-.22.35Z"/><path class="cls-2" d="m485.37,151.49v2.99c-.39.28-.81.49-1.25.63-.44.14-.93.21-1.46.21-.63,0-1.19-.1-1.7-.29-.5-.19-.93-.47-1.29-.82-.36-.35-.63-.77-.82-1.26-.19-.49-.29-1.03-.29-1.61s.09-1.14.28-1.63.45-.91.8-1.26c.34-.35.76-.62,1.26-.81.49-.19,1.04-.29,1.65-.29.31,0,.59.02.86.07s.51.11.73.2c.22.09.43.19.62.31.19.12.37.26.54.41l-.3.48c-.05.07-.11.12-.18.14-.07.02-.16,0-.25-.05-.09-.05-.19-.11-.3-.19-.11-.07-.25-.14-.41-.21-.16-.07-.35-.12-.57-.17-.22-.05-.48-.07-.78-.07-.44,0-.83.07-1.19.21s-.66.35-.91.61-.44.59-.58.97c-.13.38-.2.8-.2,1.28s.07.93.21,1.31.34.71.6.98c.26.27.57.48.94.62.37.14.78.21,1.25.21.36,0,.68-.04.96-.12s.56-.19.82-.34v-1.71h-1.21c-.07,0-.12-.02-.17-.06s-.06-.09-.06-.15v-.6h2.39Z"/><path class="cls-2" d="m487.59,150.83c.17-.38.39-.67.64-.88.25-.21.56-.32.93-.32.12,0,.23.01.33.04.11.03.2.06.29.12l-.07.72c-.02.09-.08.14-.16.14-.05,0-.13-.01-.22-.03-.1-.02-.21-.03-.33-.03-.17,0-.33.03-.46.08-.14.05-.26.13-.37.23-.11.1-.2.22-.29.37-.08.15-.16.31-.23.5v3.48h-.97v-5.51h.55c.11,0,.18.02.22.06s.07.11.08.21l.07.84Z"/><path class="cls-2" d="m492.73,149.64c.4,0,.76.07,1.09.2.32.13.6.32.83.57.23.25.4.54.52.89.12.35.18.74.18,1.17s-.06.83-.18,1.17c-.12.35-.3.65-.52.89-.23.25-.5.44-.83.57-.32.13-.68.2-1.09.2s-.77-.07-1.1-.2c-.33-.13-.6-.32-.83-.57-.23-.25-.4-.54-.53-.89-.12-.35-.18-.74-.18-1.17s.06-.82.18-1.17c.12-.35.3-.65.53-.89.23-.25.5-.44.83-.57.32-.13.69-.2,1.1-.2Zm0,4.92c.54,0,.95-.18,1.22-.55.27-.36.4-.87.4-1.53s-.13-1.17-.4-1.53c-.27-.37-.67-.55-1.22-.55-.28,0-.52.05-.72.14s-.38.23-.51.41c-.14.18-.24.4-.3.66-.07.26-.1.55-.1.88,0,.65.13,1.16.4,1.53.27.36.68.55,1.23.55Z"/><path class="cls-2" d="m501.1,149.72v5.51h-.58c-.14,0-.22-.07-.26-.2l-.08-.59c-.24.26-.51.48-.8.64-.3.16-.64.24-1.02.24-.3,0-.57-.05-.8-.15s-.42-.24-.58-.42c-.16-.18-.27-.4-.35-.66-.08-.26-.12-.54-.12-.85v-3.51h.97v3.51c0,.42.09.74.29.97.19.23.48.34.87.34.29,0,.55-.07.8-.2.25-.14.48-.32.69-.56v-4.06h.97Z"/><path class="cls-2" d="m503.56,150.58c.23-.29.5-.52.8-.69.3-.17.65-.26,1.04-.26.32,0,.61.06.86.18s.48.3.66.54c.18.24.32.53.42.88.1.35.15.76.15,1.21,0,.41-.05.78-.16,1.13-.11.35-.27.65-.47.91-.21.26-.46.46-.75.6-.3.15-.63.22-1,.22-.34,0-.63-.06-.87-.17s-.45-.27-.64-.48v2.44h-.97v-7.37h.58c.14,0,.22.07.26.2l.09.65Zm.05,3.33c.18.24.37.41.58.51.21.1.45.15.71.15.51,0,.91-.18,1.19-.55.28-.37.41-.89.41-1.57,0-.36-.03-.67-.09-.92s-.16-.47-.27-.63c-.12-.17-.27-.29-.44-.36s-.37-.11-.59-.11c-.32,0-.59.07-.83.22s-.46.35-.66.61v2.66Z"/><path class="cls-2" d="m516.54,121.95h-47.98c-1.69,0-3.11-1.38-3.24-3.13l-.04-.55h54.54l-.04.55c-.06.8-.39,1.56-.93,2.13-.61.65-1.43,1-2.3,1Zm-50.1-2.66c.29.95,1.14,1.63,2.11,1.63h47.98c.59,0,1.14-.24,1.56-.68.26-.27.45-.6.55-.95h-52.21Z"/><path class="cls-2" d="m496.26,119.23c0,.19-.05.35-.11.48-.07.14-.16.22-.27.22h-6.67c-.2,0-.36-.31-.38-.7h7.43Z"/><path class="cls-2" d="m495.88,120.03h-6.67c-.26,0-.46-.33-.48-.79v-.1s7.63,0,7.63,0v.1c-.01.19-.05.38-.12.52-.09.18-.22.28-.36.28Zm-6.94-.7c.03.3.16.5.27.5h6.67c.06,0,.13-.06.18-.17.05-.09.08-.21.09-.34h-7.22Z"/><path class="cls-2" d="m510.92,88.08h-36.76c-1.29,0-2.34,1.05-2.34,2.34v24c0,1.29,1.05,2.34,2.34,2.34h36.76c1.29,0,2.34-1.05,2.34-2.34v-24c0-1.29-1.05-2.34-2.34-2.34Zm-18.38.38c.4,0,.73.33.73.73s-.33.73-.73.73-.73-.33-.73-.73.33-.73.73-.73Zm18.53,26.36h-37.05v-24.59h37.05v24.59Z"/></svg>