<svg xmlns="http://www.w3.org/2000/svg" viewBox="0 0 497.99 183.3"><defs><style>.cls-1{fill:#585858;opacity:0.8;}.cls-2{fill:#fff;}.cls-3{opacity:0.69;}.cls-4,.cls-5{fill:none;}.cls-4{stroke:#9c3;stroke-linecap:round;stroke-miterlimit:10;stroke-width:1.72px;stroke-dasharray:0.29 4.57;}</style></defs><g id="map"><rect class="cls-1" width="497.99" height="183.3" rx="6.66"/><path class="cls-2" d="M26.25,26.48H24a1,1,0,0,1-.61-.17,1.19,1.19,0,0,1-.35-.45l-.73-2.16H17.63l-.73,2.16a1,1,0,0,1-.33.43.92.92,0,0,1-.6.19H13.73L18.52,14.1h2.94Zm-4.56-4.73-1.15-3.4c-.08-.21-.17-.46-.27-.76s-.19-.6-.29-.94q-.12.51-.27,1c-.1.29-.19.55-.27.76L18.3,21.75Z"/><path class="cls-2" d="M33.17,19.76a1.66,1.66,0,0,1-.23.23.52.52,0,0,1-.31.08.68.68,0,0,1-.35-.09l-.36-.21a2.19,2.19,0,0,0-.46-.21,2,2,0,0,0-.65-.09,1.86,1.86,0,0,0-.84.18,1.58,1.58,0,0,0-.58.51,2.3,2.3,0,0,0-.34.81,5.05,5.05,0,0,0-.11,1.08A3.27,3.27,0,0,0,29.43,24a1.56,1.56,0,0,0,1.35.68,1.8,1.8,0,0,0,.72-.12,2.21,2.21,0,0,0,.46-.25l.34-.26a.65.65,0,0,1,.4-.12.54.54,0,0,1,.47.23l.77.94a3.76,3.76,0,0,1-.86.76,4.16,4.16,0,0,1-.92.46,4.69,4.69,0,0,1-.95.23,6,6,0,0,1-.93.07,4,4,0,0,1-1.54-.31,3.69,3.69,0,0,1-1.29-.89A4.29,4.29,0,0,1,26.56,24a5.56,5.56,0,0,1-.32-1.94,5.44,5.44,0,0,1,.28-1.78,4.14,4.14,0,0,1,.84-1.44,3.91,3.91,0,0,1,1.38-.95,4.88,4.88,0,0,1,1.9-.35,4.65,4.65,0,0,1,1.82.33,4.45,4.45,0,0,1,1.41,1Z"/><path class="cls-2" d="M41.29,19.76a2.49,2.49,0,0,1-.23.23.54.54,0,0,1-.31.08.74.74,0,0,1-.36-.09L40,19.77a2.19,2.19,0,0,0-.46-.21,2,2,0,0,0-.65-.09,1.83,1.83,0,0,0-.84.18,1.5,1.5,0,0,0-.58.51,2.13,2.13,0,0,0-.34.81,4.49,4.49,0,0,0-.11,1.08A3.27,3.27,0,0,0,37.55,24a1.56,1.56,0,0,0,1.34.68,1.82,1.82,0,0,0,.73-.12,2.21,2.21,0,0,0,.46-.25l.34-.26a.62.62,0,0,1,.39-.12.56.56,0,0,1,.48.23l.77.94a4,4,0,0,1-.86.76,4,4,0,0,1-.93.46,4.6,4.6,0,0,1-.94.23,6,6,0,0,1-.93.07,4,4,0,0,1-1.54-.31,3.69,3.69,0,0,1-1.29-.89A4.13,4.13,0,0,1,34.68,24a5.33,5.33,0,0,1-.33-1.94,5.45,5.45,0,0,1,.29-1.78,4.14,4.14,0,0,1,.84-1.44,3.91,3.91,0,0,1,1.38-.95,4.84,4.84,0,0,1,1.9-.35,4.65,4.65,0,0,1,1.82.33,4.45,4.45,0,0,1,1.41,1Z"/><path class="cls-2" d="M45.1,22.54a2.48,2.48,0,0,0,.67,1.61,2,2,0,0,0,1.4.49,2.32,2.32,0,0,0,.79-.11,3.62,3.62,0,0,0,.59-.24L49,24a1,1,0,0,1,.45-.11.56.56,0,0,1,.48.23l.77.94a3.84,3.84,0,0,1-.88.76,4.5,4.5,0,0,1-1,.46,5.16,5.16,0,0,1-1,.23,6.35,6.35,0,0,1-1,.07,4.74,4.74,0,0,1-1.73-.31,4,4,0,0,1-1.42-.89,4.12,4.12,0,0,1-1-1.48,5.45,5.45,0,0,1-.36-2.06,4.43,4.43,0,0,1,.31-1.67,4.22,4.22,0,0,1,.86-1.39A4.28,4.28,0,0,1,45,17.88a4.89,4.89,0,0,1,3.42-.08,3.6,3.6,0,0,1,1.25.79,3.55,3.55,0,0,1,.81,1.27,4.57,4.57,0,0,1,.3,1.71,3,3,0,0,1,0,.48.89.89,0,0,1-.09.3.43.43,0,0,1-.18.15.87.87,0,0,1-.3,0ZM48.41,21a2.15,2.15,0,0,0-.08-.62,1.46,1.46,0,0,0-.26-.53,1.42,1.42,0,0,0-.48-.38,1.74,1.74,0,0,0-.72-.14,1.59,1.59,0,0,0-1.18.43A2.24,2.24,0,0,0,45.13,21Z"/><path class="cls-2" d="M57.7,19.6a.66.66,0,0,1-.22.22.54.54,0,0,1-.29.07.87.87,0,0,1-.38-.08l-.4-.17-.49-.18a2.33,2.33,0,0,0-.62-.08,1.36,1.36,0,0,0-.77.19.63.63,0,0,0-.27.54.5.5,0,0,0,.18.4,1.45,1.45,0,0,0,.46.29,6.06,6.06,0,0,0,.65.23l.75.25a6.26,6.26,0,0,1,.75.32,2.69,2.69,0,0,1,.65.45,1.94,1.94,0,0,1,.47.65,2.29,2.29,0,0,1,.17.92,3,3,0,0,1-.24,1.2,2.45,2.45,0,0,1-.71.95,3.31,3.31,0,0,1-1.16.63,5.45,5.45,0,0,1-1.59.22,4.68,4.68,0,0,1-.91-.09,5.06,5.06,0,0,1-.87-.23,4.17,4.17,0,0,1-.77-.34,3.94,3.94,0,0,1-.62-.43l.62-1a.75.75,0,0,1,.26-.27.76.76,0,0,1,.4-.1.81.81,0,0,1,.41.11l.4.22a3.24,3.24,0,0,0,.49.22,2.12,2.12,0,0,0,.72.1,1.9,1.9,0,0,0,.52-.06.91.91,0,0,0,.34-.18.61.61,0,0,0,.19-.24.72.72,0,0,0,.06-.29.57.57,0,0,0-.18-.43,1.64,1.64,0,0,0-.47-.29,5.57,5.57,0,0,0-.66-.23l-.75-.24a5,5,0,0,1-.75-.33,2.47,2.47,0,0,1-.66-.49,2.25,2.25,0,0,1-.47-.71,2.67,2.67,0,0,1-.18-1A2.6,2.6,0,0,1,52,19.25a2.44,2.44,0,0,1,.65-.89,3.25,3.25,0,0,1,1.09-.6,4.4,4.4,0,0,1,1.53-.23,5.62,5.62,0,0,1,.92.08,5.15,5.15,0,0,1,.84.24,4.28,4.28,0,0,1,.71.36,2.94,2.94,0,0,1,.57.46Z"/><path class="cls-2" d="M65.27,19.6a.66.66,0,0,1-.22.22.5.5,0,0,1-.29.07.8.8,0,0,1-.37-.08L64,19.64l-.49-.18a2.33,2.33,0,0,0-.62-.08,1.39,1.39,0,0,0-.77.19.62.62,0,0,0-.26.54.5.5,0,0,0,.17.4,1.58,1.58,0,0,0,.46.29,6.28,6.28,0,0,0,.66.23l.75.25a6.88,6.88,0,0,1,.74.32,2.75,2.75,0,0,1,.66.45,2.06,2.06,0,0,1,.46.65,2.13,2.13,0,0,1,.17.92,3,3,0,0,1-.23,1.2,2.56,2.56,0,0,1-.71.95,3.45,3.45,0,0,1-1.17.63,5.45,5.45,0,0,1-1.59.22,4.58,4.58,0,0,1-.9-.09,5.06,5.06,0,0,1-.87-.23,4.59,4.59,0,0,1-.78-.34,3.83,3.83,0,0,1-.61-.43l.61-1a.84.84,0,0,1,.26-.27.83.83,0,0,1,.81,0c.13.06.26.14.4.22a3.39,3.39,0,0,0,.5.22,2.12,2.12,0,0,0,.72.1,1.88,1.88,0,0,0,.51-.06.84.84,0,0,0,.34-.18.61.61,0,0,0,.19-.24.72.72,0,0,0,.06-.29.57.57,0,0,0-.18-.43,1.51,1.51,0,0,0-.47-.29,6.06,6.06,0,0,0-.65-.23l-.76-.24a6.12,6.12,0,0,1-.75-.33,2.47,2.47,0,0,1-.66-.49,2.25,2.25,0,0,1-.47-.71,2.88,2.88,0,0,1-.17-1,2.76,2.76,0,0,1,.21-1.07,2.56,2.56,0,0,1,.65-.89,3.25,3.25,0,0,1,1.09-.6,4.48,4.48,0,0,1,1.53-.23,5.43,5.43,0,0,1,.92.08,5.15,5.15,0,0,1,.84.24,4.28,4.28,0,0,1,.71.36,2.94,2.94,0,0,1,.57.46Z"/><path class="cls-2" d="M74.32,26.62a2.93,2.93,0,0,1-1.11-.19,2.24,2.24,0,0,1-.81-.51,2.33,2.33,0,0,1-.49-.82A3,3,0,0,1,71.74,24V19.48H71a.49.49,0,0,1-.35-.13A.46.46,0,0,1,70.5,19v-1l1.4-.27.52-2.15a.52.52,0,0,1,.58-.41h1.37v2.57h2.19v1.8H74.37v4.38a.83.83,0,0,0,.15.51.51.51,0,0,0,.43.2.78.78,0,0,0,.24,0l.17-.07.14-.07a.33.33,0,0,1,.15,0,.29.29,0,0,1,.19.06.52.52,0,0,1,.15.17l.8,1.25a3.66,3.66,0,0,1-1.15.58A4.9,4.9,0,0,1,74.32,26.62Z"/><path class="cls-2" d="M81.67,17.53a5.32,5.32,0,0,1,1.83.31,3.94,3.94,0,0,1,2.33,2.33,5.08,5.08,0,0,1,.33,1.88,5.19,5.19,0,0,1-.33,1.9,4,4,0,0,1-.91,1.44,4.12,4.12,0,0,1-1.42.91,5.09,5.09,0,0,1-1.83.32,5.19,5.19,0,0,1-1.84-.32,4.12,4.12,0,0,1-1.42-.91A4.07,4.07,0,0,1,77.48,24a5.19,5.19,0,0,1-.33-1.9,5.08,5.08,0,0,1,.33-1.88,4,4,0,0,1,2.35-2.33A5.42,5.42,0,0,1,81.67,17.53Zm0,7.13A1.48,1.48,0,0,0,83,24a3.52,3.52,0,0,0,.43-1.95A3.52,3.52,0,0,0,83,20.12a1.5,1.5,0,0,0-1.34-.64,1.53,1.53,0,0,0-1.36.64,3.52,3.52,0,0,0-.44,1.95A3.52,3.52,0,0,0,80.31,24,1.51,1.51,0,0,0,81.67,24.66Z"/><path class="cls-2" d="M91.22,18.89A5.32,5.32,0,0,1,93,17.84a6.23,6.23,0,0,1,2.09-.34,3.69,3.69,0,0,1,1.44.26,3.05,3.05,0,0,1,1.09.72,3.24,3.24,0,0,1,.68,1.1A3.9,3.9,0,0,1,98.53,21v5.51H97.32a1.17,1.17,0,0,1-.56-.1.75.75,0,0,1-.32-.43l-.19-.48a6.44,6.44,0,0,1-.64.49,3.94,3.94,0,0,1-.63.36,2.72,2.72,0,0,1-.7.22,4.07,4.07,0,0,1-.82.08,3.72,3.72,0,0,1-1.09-.16,2.43,2.43,0,0,1-.84-.46,2,2,0,0,1-.53-.77,2.61,2.61,0,0,1-.19-1,2.2,2.2,0,0,1,.24-1,2.36,2.36,0,0,1,.82-.89,5.2,5.2,0,0,1,1.58-.68,10.63,10.63,0,0,1,2.51-.3V21a1.6,1.6,0,0,0-.32-1.12,1.19,1.19,0,0,0-.9-.34,2.4,2.4,0,0,0-.77.1,4.43,4.43,0,0,0-.53.23c-.15.09-.31.16-.45.23a1.25,1.25,0,0,1-.53.1A.78.78,0,0,1,92,20a1,1,0,0,1-.3-.33Zm4.74,4a9.38,9.38,0,0,0-1.3.14,3.4,3.4,0,0,0-.81.25,1.12,1.12,0,0,0-.41.35.89.89,0,0,0-.11.43.74.74,0,0,0,.24.63,1.25,1.25,0,0,0,.73.18,2.24,2.24,0,0,0,.89-.17,2.93,2.93,0,0,0,.77-.58Z"/><path class="cls-2" d="M109.74,19.6a.66.66,0,0,1-.22.22.5.5,0,0,1-.29.07.83.83,0,0,1-.37-.08l-.41-.17-.49-.18a2.28,2.28,0,0,0-.62-.08,1.39,1.39,0,0,0-.77.19.65.65,0,0,0-.26.54.5.5,0,0,0,.17.4,1.58,1.58,0,0,0,.46.29,6.28,6.28,0,0,0,.66.23l.75.25a6.88,6.88,0,0,1,.74.32,2.57,2.57,0,0,1,.66.45,1.92,1.92,0,0,1,.46.65,2.13,2.13,0,0,1,.18.92,3,3,0,0,1-.24,1.2,2.56,2.56,0,0,1-.71.95,3.36,3.36,0,0,1-1.17.63,5.45,5.45,0,0,1-1.59.22,4.58,4.58,0,0,1-.9-.09,5.06,5.06,0,0,1-.87-.23,4.59,4.59,0,0,1-.78-.34,3.83,3.83,0,0,1-.61-.43l.61-1a.84.84,0,0,1,.26-.27.79.79,0,0,1,.4-.1.85.85,0,0,1,.42.11l.39.22a3.39,3.39,0,0,0,.5.22,2.12,2.12,0,0,0,.72.1,1.88,1.88,0,0,0,.51-.06.84.84,0,0,0,.34-.18.61.61,0,0,0,.19-.24.72.72,0,0,0,.06-.29.57.57,0,0,0-.18-.43,1.58,1.58,0,0,0-.46-.29c-.2-.08-.42-.16-.66-.23l-.76-.24a6.12,6.12,0,0,1-.75-.33,2.83,2.83,0,0,1-.66-.49,2.08,2.08,0,0,1-.46-.71,2.67,2.67,0,0,1-.18-1,2.76,2.76,0,0,1,.21-1.07,2.69,2.69,0,0,1,.65-.89,3.35,3.35,0,0,1,1.09-.6,4.48,4.48,0,0,1,1.53-.23,5.43,5.43,0,0,1,.92.08,5.15,5.15,0,0,1,.84.24,4.84,4.84,0,0,1,.72.36,3.7,3.7,0,0,1,.57.46Z"/><path class="cls-2" d="M114.68,15.25a1.31,1.31,0,0,1-.13.59,1.42,1.42,0,0,1-.35.49,1.6,1.6,0,0,1-.51.33,1.68,1.68,0,0,1-.63.12,1.53,1.53,0,0,1-.6-.12,1.67,1.67,0,0,1-.5-.33,1.54,1.54,0,0,1-.34-.49,1.45,1.45,0,0,1-.12-.59,1.56,1.56,0,0,1,1.56-1.55,1.68,1.68,0,0,1,.63.12,1.47,1.47,0,0,1,.51.34,1.42,1.42,0,0,1,.35.49A1.38,1.38,0,0,1,114.68,15.25Zm-.27,2.42v8.81h-2.64V17.67Z"/><path class="cls-2" d="M118.68,18.62a5.37,5.37,0,0,1,.53-.44,3.08,3.08,0,0,1,.58-.35,3.51,3.51,0,0,1,.67-.22,3.91,3.91,0,0,1,.79-.08,3,3,0,0,1,1.28.25,2.73,2.73,0,0,1,.94.7,3,3,0,0,1,.58,1.06,4.43,4.43,0,0,1,.19,1.34v5.6h-2.63v-5.6a1.54,1.54,0,0,0-.3-1,1.08,1.08,0,0,0-.88-.36,1.85,1.85,0,0,0-.81.18,3.06,3.06,0,0,0-.73.5v6.29h-2.64V17.67h1.63a.61.61,0,0,1,.65.44Z"/><path class="cls-2" d="M133.94,17.94v1a.5.5,0,0,1-.12.35.91.91,0,0,1-.42.19l-.64.15c0,.12.06.25.08.38a2.73,2.73,0,0,1,0,.41,2.46,2.46,0,0,1-.28,1.19,2.57,2.57,0,0,1-.75.89,3.39,3.39,0,0,1-1.14.57,4.51,4.51,0,0,1-1.4.2h-.4a2.32,2.32,0,0,1-.38,0,.49.49,0,0,0-.29.4.33.33,0,0,0,.24.32,2.11,2.11,0,0,0,.62.14l.89,0,1,.06a6.85,6.85,0,0,1,1,.16,2.72,2.72,0,0,1,.89.35,2,2,0,0,1,.63.66,2.09,2.09,0,0,1,.24,1.05,2.59,2.59,0,0,1-.29,1.17,3.1,3.1,0,0,1-.85,1,4.48,4.48,0,0,1-1.38.71,5.9,5.9,0,0,1-1.87.27,7.24,7.24,0,0,1-1.79-.2,4.33,4.33,0,0,1-1.24-.51,2.18,2.18,0,0,1-.74-.74,1.73,1.73,0,0,1-.24-.87,1.4,1.4,0,0,1,.34-1,2.36,2.36,0,0,1,1-.63,1.62,1.62,0,0,1-.51-.5,1.7,1.7,0,0,1-.12-1.21,1.7,1.7,0,0,1,.22-.42,2.28,2.28,0,0,1,.37-.4,2.67,2.67,0,0,1,.53-.33,2.91,2.91,0,0,1-1.09-1,2.45,2.45,0,0,1-.4-1.4,2.53,2.53,0,0,1,.28-1.2,2.76,2.76,0,0,1,.77-.9,4,4,0,0,1,1.15-.57,5.06,5.06,0,0,1,1.44-.2,4.38,4.38,0,0,1,2,.43Zm-2.6,8.86a.46.46,0,0,0-.28-.45,2.46,2.46,0,0,0-.73-.2,9.81,9.81,0,0,0-1-.07c-.37,0-.74,0-1.11-.07a1.83,1.83,0,0,0-.4.38.77.77,0,0,0-.08.81.64.64,0,0,0,.29.27,1.81,1.81,0,0,0,.54.17,5.22,5.22,0,0,0,.87.06,6,6,0,0,0,.94-.06,2.07,2.07,0,0,0,.58-.19.65.65,0,0,0,.3-.29A.74.74,0,0,0,131.34,26.8Zm-2-5.19a1.08,1.08,0,0,0,1.24-1.17,1.17,1.17,0,0,0-.29-.84,1.26,1.26,0,0,0-.95-.31,1.25,1.25,0,0,0-1,.31,1.17,1.17,0,0,0-.29.84,1.35,1.35,0,0,0,.07.46.91.91,0,0,0,.22.37,1.14,1.14,0,0,0,.39.25A1.57,1.57,0,0,0,129.3,21.61Z"/><path class="cls-2" d="M137.68,13.76V26.48H135V13.76Z"/><path class="cls-2" d="M141.63,22.54a2.54,2.54,0,0,0,.67,1.61,2,2,0,0,0,1.41.49,2.36,2.36,0,0,0,.79-.11,4,4,0,0,0,.59-.24l.47-.25a1.07,1.07,0,0,1,.46-.11.53.53,0,0,1,.47.23l.77.94a3.64,3.64,0,0,1-.88.76,4.5,4.5,0,0,1-1,.46,5.06,5.06,0,0,1-1,.23,6.45,6.45,0,0,1-.95.07,4.76,4.76,0,0,1-1.74-.31,4,4,0,0,1-2.38-2.37,5.46,5.46,0,0,1-.35-2.06,4.62,4.62,0,0,1,.3-1.67,4.09,4.09,0,0,1,.87-1.39,4.13,4.13,0,0,1,1.36-.94A4.89,4.89,0,0,1,145,17.8a3.51,3.51,0,0,1,1.25.79,3.71,3.71,0,0,1,.82,1.27,4.79,4.79,0,0,1,.29,1.71,3,3,0,0,1,0,.48.59.59,0,0,1-.09.3.38.38,0,0,1-.18.15.85.85,0,0,1-.29,0ZM145,21a2.57,2.57,0,0,0-.08-.62,1.66,1.66,0,0,0-.27-.53,1.42,1.42,0,0,0-.48-.38,1.74,1.74,0,0,0-.72-.14,1.55,1.55,0,0,0-1.17.43,2.17,2.17,0,0,0-.56,1.24Z"/><path class="cls-2" d="M158.81,20.06h4.4v5.23a6.39,6.39,0,0,1-2,1,8,8,0,0,1-2.25.32,7.78,7.78,0,0,1-2.79-.48A6.46,6.46,0,0,1,154,24.81a5.64,5.64,0,0,1-1.38-2,6.5,6.5,0,0,1-.48-2.52,7,7,0,0,1,.45-2.54,5.72,5.72,0,0,1,1.32-2A6,6,0,0,1,156,14.43a7.52,7.52,0,0,1,2.71-.47,7.38,7.38,0,0,1,1.45.13,6.42,6.42,0,0,1,1.26.35,5.71,5.71,0,0,1,1,.52,5.85,5.85,0,0,1,.85.67l-.83,1.26a.84.84,0,0,1-.51.37.92.92,0,0,1-.67-.16l-.64-.35a3.61,3.61,0,0,0-.62-.24,4.54,4.54,0,0,0-.66-.14c-.23,0-.49,0-.78,0a3.54,3.54,0,0,0-1.45.29,3.07,3.07,0,0,0-1.11.8,3.85,3.85,0,0,0-.7,1.24,5.7,5.7,0,0,0,0,3.37,3.65,3.65,0,0,0,.77,1.3,3.25,3.25,0,0,0,1.19.8,4.17,4.17,0,0,0,1.53.28,3.85,3.85,0,0,0,.94-.11,3.94,3.94,0,0,0,.82-.27V22.15h-1.22A.59.59,0,0,1,159,22a.5.5,0,0,1-.15-.37Z"/><path class="cls-2" d="M167.19,19a3.83,3.83,0,0,1,.94-1.13,1.94,1.94,0,0,1,1.22-.4,1.55,1.55,0,0,1,1,.28l-.17,1.93a.36.36,0,0,1-.41.33h-.18l-.23,0-.24,0h-.22a1.32,1.32,0,0,0-.93.31,2.31,2.31,0,0,0-.58.85v5.35h-2.63V17.67h1.56a1.55,1.55,0,0,1,.33,0,.57.57,0,0,1,.22.11A.38.38,0,0,1,167,18a1.43,1.43,0,0,1,.09.29Z"/><path class="cls-2" d="M175.12,17.53a5.32,5.32,0,0,1,1.83.31,3.86,3.86,0,0,1,1.41.91,4,4,0,0,1,.92,1.42,5.08,5.08,0,0,1,.33,1.88,5.19,5.19,0,0,1-.33,1.9,4,4,0,0,1-.92,1.44,4,4,0,0,1-1.41.91,5.09,5.09,0,0,1-1.83.32,5.15,5.15,0,0,1-1.84-.32,4.16,4.16,0,0,1-1.43-.91,3.91,3.91,0,0,1-.92-1.44,5.19,5.19,0,0,1-.33-1.9,5.08,5.08,0,0,1,.33-1.88,3.83,3.83,0,0,1,.92-1.42,4,4,0,0,1,1.43-.91A5.38,5.38,0,0,1,175.12,17.53Zm0,7.13a1.49,1.49,0,0,0,1.34-.64,3.52,3.52,0,0,0,.43-1.95,3.52,3.52,0,0,0-.43-1.95,1.52,1.52,0,0,0-1.34-.64,1.56,1.56,0,0,0-1.37.64,3.52,3.52,0,0,0-.43,1.95,3.52,3.52,0,0,0,.43,1.95A1.54,1.54,0,0,0,175.12,24.66Z"/><path class="cls-2" d="M188.84,17.67v8.81h-1.63a.63.63,0,0,1-.65-.44l-.15-.51a5.37,5.37,0,0,1-.53.44,2.59,2.59,0,0,1-.58.34,3.52,3.52,0,0,1-.67.23,3.84,3.84,0,0,1-.79.08,3.21,3.21,0,0,1-1.28-.25,2.75,2.75,0,0,1-.94-.71,3.09,3.09,0,0,1-.57-1.06,4.38,4.38,0,0,1-.2-1.34V17.67h2.64v5.59a1.52,1.52,0,0,0,.29,1,1.08,1.08,0,0,0,.88.36,1.73,1.73,0,0,0,.81-.19,3.27,3.27,0,0,0,.74-.49V17.67Z"/><path class="cls-2" d="M193.1,18.75a4.51,4.51,0,0,1,1.18-.9,3.21,3.21,0,0,1,1.56-.35,2.77,2.77,0,0,1,1.28.3,3,3,0,0,1,1,.89,4.4,4.4,0,0,1,.67,1.41A6.9,6.9,0,0,1,199,22a5.72,5.72,0,0,1-.28,1.84A4.52,4.52,0,0,1,198,25.3a3.59,3.59,0,0,1-1.19,1,3.38,3.38,0,0,1-1.53.35,3,3,0,0,1-1.16-.2,3.27,3.27,0,0,1-.85-.53v3.39h-2.63V17.67h1.63a.6.6,0,0,1,.64.44Zm.16,5.33a1.66,1.66,0,0,0,.65.46,2,2,0,0,0,.73.14,1.53,1.53,0,0,0,.67-.15,1.35,1.35,0,0,0,.53-.46,2.36,2.36,0,0,0,.35-.83,4.91,4.91,0,0,0,.13-1.24,5.6,5.6,0,0,0-.1-1.17,2.21,2.21,0,0,0-.29-.77,1,1,0,0,0-.43-.42,1.2,1.2,0,0,0-.57-.13,2,2,0,0,0-1,.21,2.84,2.84,0,0,0-.71.62Z"/><circle class="cls-2" cx="54.24" cy="89.12" r="2.1" transform="translate(-0.25 0.15) rotate(-0.16)"/><path class="cls-2" d="M57.65,92.54h0l0,0-.1.07a4.82,4.82,0,0,1-1.1.77l-.4-.81a3.9,3.9,0,0,0-.05-7l.4-.82A4.8,4.8,0,0,1,59,88.33h0A4.82,4.82,0,0,1,57.65,92.54Z"/><path class="cls-2" d="M52.52,92.63l-.41.82a4.8,4.8,0,0,1-2.62-3.53h0a4.82,4.82,0,0,1,1.35-4.2h0l.1-.07a4.91,4.91,0,0,1,1.22-.84l.4.81a3.9,3.9,0,0,0,0,7Z"/><path class="cls-2" d="M59.1,94.33h0a.36.36,0,0,1-.12.08,7,7,0,0,1-1.53,1l-.4-.81a6.18,6.18,0,0,0,3.34-6.38v-.05s0-.06,0-.1,0-.08,0-.13h0A6.23,6.23,0,0,0,57,83.57l.41-.82a7.1,7.1,0,0,1,3.82,5,.13.13,0,0,1,0,.06.36.36,0,0,1,0,.1h0v0s0,.07,0,.1v.06A7.13,7.13,0,0,1,59.1,94.33Z"/><path class="cls-2" d="M51.5,94.68l-.4.83a7.12,7.12,0,0,1-3.84-5.05V90.4s0-.07,0-.11h0l0-.11a.11.11,0,0,0,0,0,7.11,7.11,0,0,1,2.19-6.19h0l.12-.07a7.13,7.13,0,0,1,1.65-1.11l.4.81A6.2,6.2,0,0,0,48.1,90v0s0,.07,0,.1a.69.69,0,0,1,0,.13v0A6.19,6.19,0,0,0,51.5,94.68Z"/><path class="cls-2" d="M84.08,100.57h0l-.1.07a4.53,4.53,0,0,1-1.1.77l-.4-.81a3.89,3.89,0,0,0,0-7l.41-.83a4.85,4.85,0,0,1,2.61,3.53h0A4.82,4.82,0,0,1,84.08,100.57Z"/><path class="cls-2" d="M79,100.66l-.41.82A4.82,4.82,0,0,1,75.92,98h0a4.82,4.82,0,0,1,1.35-4.19h0a.31.31,0,0,1,.09-.07,4.78,4.78,0,0,1,1.23-.84l.4.81a3.9,3.9,0,0,0-.06,7Z"/><path class="cls-2" d="M85.53,102.36h0a.36.36,0,0,1-.12.08,6.71,6.71,0,0,1-1.52,1l-.4-.8a6.22,6.22,0,0,0,3.34-6.38v-.06s0-.06,0-.09a.68.68,0,0,0,0-.14h0a6.17,6.17,0,0,0-3.35-4.39l.41-.83a7.08,7.08,0,0,1,3.82,5s0,0,0,.06,0,.07,0,.1v0h0s0,.07,0,.1v.06A7.13,7.13,0,0,1,85.53,102.36Z"/><path class="cls-2" d="M77.94,102.71l-.41.83a7.12,7.12,0,0,1-3.84-5.05v-.06a.3.3,0,0,0,0-.1v0h0l0-.1v-.06A7.1,7.1,0,0,1,75.82,92h0l.11-.08a7.46,7.46,0,0,1,1.65-1.11l.4.81A6.21,6.21,0,0,0,74.53,98v.06s0,.06,0,.09l0,.14h0A6.2,6.2,0,0,0,77.94,102.71Z"/><path class="cls-2" d="M68.27,105h0l0,0-.1.07a4.82,4.82,0,0,1-1.1.77l-.4-.81a3.9,3.9,0,0,0-.05-7l.4-.82a4.8,4.8,0,0,1,2.61,3.53h0A4.82,4.82,0,0,1,68.27,105Z"/><path class="cls-2" d="M63.14,105.11l-.41.82a4.8,4.8,0,0,1-2.62-3.53h0a4.82,4.82,0,0,1,1.35-4.2h0l.1-.07a4.91,4.91,0,0,1,1.22-.84l.4.81a3.9,3.9,0,0,0,0,7Z"/><path class="cls-2" d="M69.72,106.81h0a.36.36,0,0,1-.12.08,7,7,0,0,1-1.53,1l-.4-.81A6.18,6.18,0,0,0,71,100.74v0s0-.06,0-.1,0-.08,0-.13h0a6.23,6.23,0,0,0-3.35-4.4l.41-.82a7.1,7.1,0,0,1,3.82,5,.13.13,0,0,1,0,.06.36.36,0,0,1,0,.1v0h0s0,.07,0,.1v.06A7.13,7.13,0,0,1,69.72,106.81Z"/><path class="cls-2" d="M62.12,107.16l-.4.83a7.12,7.12,0,0,1-3.84-5v-.06s0-.07,0-.11h0l0-.1a.13.13,0,0,0,0-.06A7.11,7.11,0,0,1,60,96.4h0l.12-.07a7.13,7.13,0,0,1,1.65-1.11l.4.81a6.2,6.2,0,0,0-3.46,6.44v.05s0,.07,0,.1a.69.69,0,0,1,0,.13v0A6.19,6.19,0,0,0,62.12,107.16Z"/><circle class="cls-2" cx="80.67" cy="97.15" r="2.1" transform="matrix(1, 0, 0, 1, -0.28, 0.23)"/><circle class="cls-2" cx="64.86" cy="101.6" r="2.1" transform="translate(-0.29 0.19) rotate(-0.16)"/><path class="cls-2" d="M74.5,67.27a2.85,2.85,0,0,1,2.7,3,3.05,3.05,0,0,1-1.13,2.42A19.21,19.21,0,0,0,78.13,78l5.1,7.93h0l2.45.8v.94H63.32v-1l2.62-.73h0l5.14-8.09a19.53,19.53,0,0,0,2-5,3.07,3.07,0,0,1-1.25-2.52,2.85,2.85,0,0,1,2.69-3m0,14.46,2.25-1.46-.57-.88,0-.09a27,27,0,0,1-1.58-3.43,27.67,27.67,0,0,1-1.51,3.28l0,.08-.7,1.1,2.21,1.4m5.35,3.36-2.79-4.34-2,1.31,4.82,3m-10.59,0,4.71-3-2-1.26L69.27,85.1m-.19.8h11l-5.57-3.5-5.43,3.5m-.32,0h0v0l0,0M74.5,65a5.09,5.09,0,0,0-4.94,5.22,5.45,5.45,0,0,0,1,3.16,19.53,19.53,0,0,1-1.43,3.27L64.51,84l-1.8.5-1.64.46v5H87.94V85.09l-1.55-.51-.47-.15.19-.77H84.46l-4.39-6.83a19.18,19.18,0,0,1-1.53-3.56,5.47,5.47,0,0,0,.91-3,5.09,5.09,0,0,0-5-5.22Z"/><path class="cls-2" d="M77.22,74.65a.86.86,0,0,1,0,.23A14.87,14.87,0,0,1,84,85.2c0,.12,0,.24,0,.36h1.34c0-.19-.05-.38-.08-.56a16.21,16.21,0,0,0-5.53-9.88,15.64,15.64,0,0,0-2.85-2,3.42,3.42,0,0,1-.23.47A1.21,1.21,0,0,1,77.22,74.65Z"/><path class="cls-2" d="M91.51,95.63V95.5s0-.08,0-.11v0a.36.36,0,0,1,0-.11V95.1A10.91,10.91,0,0,0,86,87.56v.89H84.78a9.61,9.61,0,0,1,5.34,6.9s0,.05,0,.08l0,.14h0v0a.68.68,0,0,1,0,.14.22.22,0,0,1,0,.08,9.61,9.61,0,0,1-3,8.37h0a.62.62,0,0,1-.16.1,9.55,9.55,0,0,1-4.83,2.32,10.5,10.5,0,0,1-1.57.13,9.61,9.61,0,0,1-3.74-.76.66.66,0,0,1-.2-.06h0a9.87,9.87,0,0,1-2.6-1.74,9.6,9.6,0,0,1-2.69,4.45h0a.57.57,0,0,1-.16.11,9.59,9.59,0,0,1-4.83,2.32,10.61,10.61,0,0,1-1.58.12,9.42,9.42,0,0,1-3.73-.76.46.46,0,0,1-.2-.05h0a9.63,9.63,0,0,1-5.49-7,.19.19,0,0,1,0-.08l0-.14h0v0a.68.68,0,0,0,0-.14.22.22,0,0,0,0-.08,9.65,9.65,0,0,1,.38-4.33A9.7,9.7,0,0,1,50.5,98a.46.46,0,0,1-.2,0h0a9.63,9.63,0,0,1-5.49-7s0,0,0-.08a.78.78,0,0,0,0-.14h0v0a.59.59,0,0,0,0-.14s0-.06,0-.08a9.62,9.62,0,0,1,3-8.37h0l.16-.1a9.58,9.58,0,0,1,4.84-2.32,9.43,9.43,0,0,1,3.8.14,14.84,14.84,0,0,1,10.47-7,14.95,14.95,0,0,1,4.75,0,2.62,2.62,0,0,1-.06-.57,2.68,2.68,0,0,1,.11-.76,15.88,15.88,0,0,0-2.49-.2,16.2,16.2,0,0,0-13.41,7.06,10.74,10.74,0,0,0-3.39,0,10.92,10.92,0,0,0-5.39,2.54,1.46,1.46,0,0,0-.28.21h0a10.94,10.94,0,0,0-3.36,9.52v.14s0,.08,0,.11v0s0,.08,0,.12v.13a11,11,0,0,0,6.2,7.91h0l0,0a2,2,0,0,0,.39.14,10.7,10.7,0,0,0,3.9.8,11,11,0,0,0,0,3.08v.13s0,.08,0,.11v0s0,.08,0,.12v.13a11,11,0,0,0,6.2,7.91h0l0,0a1.74,1.74,0,0,0,.38.14,11,11,0,0,0,4.11.8,11.89,11.89,0,0,0,1.79-.14A10.84,10.84,0,0,0,72,109.84a2,2,0,0,0,.29-.22h0a11.25,11.25,0,0,0,2.39-3.26,11.66,11.66,0,0,0,1.39.76h0l0,0a2.23,2.23,0,0,0,.39.13,10.91,10.91,0,0,0,4.11.81,10.69,10.69,0,0,0,1.78-.15,10.84,10.84,0,0,0,5.39-2.54,1.54,1.54,0,0,0,.29-.21h0A11,11,0,0,0,91.51,95.63Z"/><rect class="cls-2" x="73.74" y="78.85" width="1.44" height="1.59"/><rect class="cls-2" x="73.45" y="83.81" width="2.36" height="1.4"/><g class="cls-3"><circle class="cls-4" cx="67.46" cy="91.65" r="37.13"/></g><path class="cls-2" d="M427.2,72a14.71,14.71,0,0,1,14,10A11,11,0,0,1,452,93.22a11.41,11.41,0,0,1-11.23,11.25H413A11,11,0,0,1,402,93.22,11.48,11.48,0,0,1,412.9,82a15.3,15.3,0,0,1,14.3-10m0-2.07A17.41,17.41,0,0,0,411.46,80a13.53,13.53,0,0,0-11.57,13.15A13.11,13.11,0,0,0,413,106.55h27.7A13.46,13.46,0,0,0,454,93.25,13,13,0,0,0,442.65,80,16.8,16.8,0,0,0,427.2,69.89Z"/><path class="cls-2" d="M436.88,99.38a.59.59,0,0,0-.58-.59h-7.39a2.62,2.62,0,0,0-1.18-1.08v-1.4h7.87A1.28,1.28,0,0,0,436.88,95v-2.7a1.28,1.28,0,0,0-1.28-1.28h-7.88v-.64h7.88a1.28,1.28,0,0,0,1.28-1.28v-2.7a1.28,1.28,0,0,0-1.28-1.28h-7.88v-.64h7.88a1.28,1.28,0,0,0,1.28-1.29v-2.7a1.28,1.28,0,0,0-1.28-1.28H418.31A1.29,1.29,0,0,0,417,80.52v2.71a1.29,1.29,0,0,0,1.28,1.28h7.37v.64h-7.37A1.28,1.28,0,0,0,417,86.43v2.7a1.28,1.28,0,0,0,1.28,1.28h7.38v.64h-7.38A1.29,1.29,0,0,0,417,92.33V95a1.29,1.29,0,0,0,1.28,1.28h7.38v1.37a2.53,2.53,0,0,0-1.26,1.11h-6.8a.58.58,0,0,0-.59.58v1.4a.58.58,0,0,0,.59.58h6.8a2.58,2.58,0,0,0,4.48,0h7.39a.58.58,0,0,0,.58-.58Zm-1.28-7.16a.12.12,0,0,1,.12.11V95a.12.12,0,0,1-.12.12h-2.88V92.22Zm0-5.91a.12.12,0,0,1,.12.12v2.7a.13.13,0,0,1-.12.12h-2.88V86.31Zm0-5.9a.12.12,0,0,1,.12.11v2.71a.12.12,0,0,1-.12.11h-2.88V80.41Z"/><g class="cls-3"><circle class="cls-4" cx="426.96" cy="91.65" r="37.13"/></g><path class="cls-2" d="M334.55,87.15h0L309.09,72.67h0a1,1,0,0,0-.47-.13,1,1,0,0,0-.35.07h0l0,0L279.8,85.43h0a1,1,0,0,0-.6.89V93.7h0a1,1,0,0,0,.54.75h0l25.69,14.32h0a.9.9,0,0,0,.46.12.88.88,0,0,0,.33-.06h0l.06,0,28.1-12.86h0a1,1,0,0,0,.64-.9V88A.94.94,0,0,0,334.55,87.15ZM282,94.64l-1.82-1V90.45l1.82,1Zm2.62,1.46-1.83-1V91.91l1.83,1Zm2.62,1.47-1.83-1V93.38l1.83,1ZM289.84,99,288,98V94.84l1.83,1Zm2.62,1.46-1.83-1V96.3l1.83,1Zm2.61,1.46-1.82-1V97.76l1.82,1Zm2.62,1.46-1.83-1V99.22l1.83,1Zm2.61,1.46-1.82-1v-3.17l1.82,1Zm2.62,1.46-1.83-1v-3.17l1.83,1Zm2.61,1.46-1.82-1V103.6l1.82,1Zm2.71-.92-2,.92v-3.15l2-.92Zm2.87-1.32-2,.92v-3.15l2-.92Zm2.87-1.33-2,.93V102l2-.93Zm2.87-1.32-2,.92v-3.14l2-.93Zm2.88-1.32-2,.92V99.35l2-.92Zm2.87-1.33-2,.93V98l2-.93Zm2.87-1.32-2,.92V96.71l2-.93Zm2.87-1.32-2,.92V95.38l2-.92Zm2.88-1.33-2,.93V94.06l2-.93ZM334.09,95l-2,.92V92.74l2-.93Zm-28.17,6L280.16,86.5l28.42-12.81,25.51,14.48Z"/><g class="cls-3"><circle class="cls-4" cx="307.12" cy="91.65" r="37.13"/></g><path class="cls-2" d="M296.87,89.14c-1,.46-2.09.93-3.14,1.38h0c-.78-.43-.71-1.1.15-1.48a3.71,3.71,0,0,1,3,.07Z"/><path class="cls-2" d="M298.72,90.15q-1.58.7-3.15,1.38l-1.42-.78,3.14-1.38Z"/><path class="cls-2" d="M301.15,91.49c-1,.47-2.1.93-3.15,1.39l-2-1.12q1.57-.7,3.15-1.38Z"/><path class="cls-2" d="M302.51,93.81a3.73,3.73,0,0,1-2.95-.08l-1.15-.63,3.16-1.37,1.1.6C303.44,92.76,303.37,93.42,302.51,93.81Z"/><path class="cls-2" d="M315.55,81.23l-2.88,1.24-.31.13-.52-.29c-.77-.42-.7-1.09.15-1.47a3.71,3.71,0,0,1,3,.07Z"/><path class="cls-2" d="M320.65,84.05a8.82,8.82,0,0,1-4.58.55H316l-3.21-1.77c1-.44,2.12-.93,3.16-1.37Z"/><path class="cls-2" d="M320.66,85.62a3.75,3.75,0,0,1-3-.08l-1.12-.62c.61,0,1.24,0,1.86.08a3,3,0,0,0,1.47-.25l1.08-.48C321.57,84.68,321.44,85.26,320.66,85.62Z"/><path class="cls-2" d="M303.26,85c0,.34-.07.68-.1,1s-.22.47-.65.65l-5.05,2.19-1.23-.68Z"/><path class="cls-2" d="M310.45,90.28a15.53,15.53,0,0,1-.19,1.79.66.66,0,0,1-.39.4c-.8.38-1.61.74-2.44,1.09h0a3.9,3.9,0,0,1-2.11-.35l-.58-.32.6-.28a1.92,1.92,0,0,1,1.29-.16,2.19,2.19,0,0,0,1.72-.35c.34-.31.3-.62-.17-.9a2.72,2.72,0,0,0-1.82-.25c-.65.14-1,.45-1,.8a1.5,1.5,0,0,0,.15.38l-1.22.53-2.17-1.2c.31-.13.62-.26.94-.41a1.75,1.75,0,0,1,.7-.06,2.66,2.66,0,0,0,2-.29c.39-.31.33-.69-.17-1a2.83,2.83,0,0,0-1.84-.2c-.71.17-1,.49-.87.93a.3.3,0,0,1-.19.34l-1,.43-2-1.13L302.2,89a5.88,5.88,0,0,1,2.84-.49c3.11.16,3.12.12,5.12,1.34A.52.52,0,0,1,310.45,90.28Z"/><path class="cls-2" d="M315.62,90.76l-.15.06-.67-.38-.59.27c-.34-.21-.3-.52.1-.7a1.86,1.86,0,0,1,1.41,0C316.07,90.26,316,90.58,315.62,90.76Z"/><path class="cls-2" d="M314.56,85.07a1.79,1.79,0,0,1-1.4-.07c-.36-.21-.31-.52.11-.69a1.85,1.85,0,0,1,1-.08h0l.58.31h0C315,84.74,314.84,85,314.56,85.07Z"/><path class="cls-2" d="M319,86.82l-3.25,1.42a2.69,2.69,0,0,1-1.34.23c-1,0-1.93,0-2.9-.11a2.81,2.81,0,0,1-.94-.24c-.83-.43-1.54-.93-2.42-1.33s-1.25-.92-1-1.53c.07-.18.09-.3.51-.38.69-.13,1-.49.89-.84s-.75-.63-1.45-.66h-.12l3.19-1.44,1.69.94c-1.08.57-1.68,1.19-1.47,2.06.06.27-.08.46-.66.6-.84.2-1,.75-.44,1.13a2.86,2.86,0,0,0,2.32.14c.7-.3.82-.9,0-1.14s-.69-.58-.64-.92A4.11,4.11,0,0,0,311,84c0-.26.2-.43.58-.6l.61-.26,1.46.8h-.09c-.7.07-1.23.38-1.26.73s.44.7,1.12.8a2.58,2.58,0,0,0,1.86-.35,1.2,1.2,0,0,1,.32-.11Z"/><path class="cls-2" d="M321.45,91.78l-.4-.22c-1-.54-1.59-1.06-1.61-1.68l1.57.87C321.53,91,321.67,91.43,321.45,91.78Z"/><path class="cls-2" d="M306,80.53l-1.58.7a1.76,1.76,0,0,1,.2.34c.13.34-.2.67-.82.83a2.85,2.85,0,0,1-1.86-.15c-.5-.25-.62-.61-.29-.93a2.07,2.07,0,0,1,1.67-.39,2,2,0,0,0,1.29-.18l.71-.31a17.7,17.7,0,0,0-4.3,0L300.34,79c0-.08-.2-.13-.36-.12a.4.4,0,0,0-.13,0c-.08,0-.12.09-.09.14l.7,1.5a14.13,14.13,0,0,0-3.57,1,7,7,0,0,0-2.43,1.66l-2.92-.5a.43.43,0,0,0-.38.1c-.06.08,0,.16.18.19l2.89.49c-1.12,1.49-.66,3.18,1.5,4.37l7.6-3.43c0-.25.05-.51.07-.76s.2-.46.6-.64l4.42-2A12.5,12.5,0,0,0,306,80.53Zm-8.89,4.41a1.38,1.38,0,0,1-1.11,0c-.29-.16-.26-.41.06-.55a1.4,1.4,0,0,1,1.12,0C297.47,84.55,297.45,84.8,297.12,84.94Z"/><path class="cls-2" d="M309.61,81.66,304,84.21c0-.13,0-.25.06-.39a.9.9,0,0,1,.54-.55l4.34-2A7.75,7.75,0,0,1,309.61,81.66Z"/><path class="cls-2" d="M303.75,82.06a1.75,1.75,0,0,1-1.4,0c-.37-.2-.36-.51,0-.7a1.79,1.79,0,0,1,1.4,0C304.16,81.57,304.15,81.87,303.75,82.06Z"/><path class="cls-2" d="M305.07,90.65a1.82,1.82,0,0,1-1.4-.07c-.35-.22-.3-.53.12-.7a1.76,1.76,0,0,1,1.39.07C305.53,90.16,305.48,90.48,305.07,90.65Z"/><path class="cls-2" d="M307.62,92.06a1.72,1.72,0,0,1-1.39,0c-.36-.2-.33-.52.06-.7a1.75,1.75,0,0,1,1.4.05C308.06,91.57,308,91.88,307.62,92.06Z"/><path class="cls-2" d="M319.34,91a.89.89,0,0,1-.52-.73,1.34,1.34,0,0,1,0-.72l-.95-.52,1.11-.5c.86-.39,1-1,.33-1.49L316,88.54a3.18,3.18,0,0,1-1.46.24c-1.1-.06-2.19-.06-3.28-.13a2.67,2.67,0,0,1-1-.25c-1.11-.59-2.16-1.22-3.26-1.81-.43-.23-.66-.46-.55-.77a3.12,3.12,0,0,0,.08-.52c.05-.21,0-.36-.45-.48s-.73-.38-.73-.64c0,0,0-.06,0-.1l-1.45.66c-.06.48-.1,1-.13,1.43,0,.3-.24.5-.69.69-1.73.75-3.46,1.49-5.18,2.25l1.43.79,3.46-1.51a3.1,3.1,0,0,1,1.11-.19c1.24,0,2.49.06,3.72.13a3.08,3.08,0,0,1,1.13.27A7.23,7.23,0,0,1,311,89.94c.36.51-.09,1.15,0,1.73s-.3.92-1.07,1.25l2.86,1.58a3.75,3.75,0,0,0,3,.07c.86-.39.92-1,.15-1.48l-3.1-1.71,1-.48a1.19,1.19,0,0,1-.23-.16c-.32-.32-.18-.71.37-.95a3,3,0,0,1,1.93-.06c.62.2.85.57.6,1a2.65,2.65,0,0,1-.17.22l2.77,1.56h0a3.6,3.6,0,0,0,1.81-.24l.32-.18Zm-6.15,2.17a3,3,0,0,1,2.28.06c.6.33.53.86-.13,1.14a2.89,2.89,0,0,1-2.22-.09C312.55,94,312.57,93.47,313.19,93.18Z"/><path class="cls-2" d="M313.55,94.08a1.79,1.79,0,0,0,1.4.07c.4-.17.44-.5.09-.71a1.9,1.9,0,0,0-1.41-.06C313.24,93.56,313.2,93.88,313.55,94.08Z"/><path class="cls-2" d="M315,94.15a1.79,1.79,0,0,1-1.4-.07c-.35-.2-.31-.52.08-.7a1.9,1.9,0,0,1,1.41.06C315.39,93.65,315.35,94,315,94.15Z"/><path class="cls-2" d="M311.19,86.55a1.86,1.86,0,0,1-1.41,0c-.37-.2-.36-.52,0-.7a1.72,1.72,0,0,1,1.39,0C311.58,86.06,311.58,86.37,311.19,86.55Z"/><path class="cls-2" d="M307.57,84.55a1.79,1.79,0,0,1-1.4-.06c-.36-.2-.31-.51.1-.69a1.72,1.72,0,0,1,1.39,0C308,84.06,308,84.37,307.57,84.55Z"/><path class="cls-2" d="M187.53,72.25a14.7,14.7,0,0,1,14,10A11,11,0,0,1,212.29,93.5a11.41,11.41,0,0,1-11.24,11.26h-27.7a11,11,0,0,1-11-11.26,11.46,11.46,0,0,1,10.94-11.23,15.27,15.27,0,0,1,14.29-10m0-2.07A17.38,17.38,0,0,0,171.8,80.32a13.53,13.53,0,0,0-11.58,13.15,13.11,13.11,0,0,0,13.13,13.36h27.7a13.47,13.47,0,0,0,13.31-13.29A13,13,0,0,0,203,80.3a16.81,16.81,0,0,0-15.46-10.12Z"/><path class="cls-2" d="M167.33,99.29a.67.67,0,0,1-.67.68.67.67,0,0,1-.68-.68,9.34,9.34,0,0,1,.74-3.65,8.77,8.77,0,0,1,2-3,9,9,0,0,1,3-2,9.4,9.4,0,0,1,7.31,0,7.28,7.28,0,0,1,1.48.8l-1.46.72a7.36,7.36,0,0,0-3.65-.93A8.07,8.07,0,0,0,167.33,99.29Z"/><path class="cls-2" d="M177.61,100.84a3.1,3.1,0,0,1-2.2.91,3.13,3.13,0,0,1-2.22-5.33,2.92,2.92,0,0,1,.93-.64l8.09-4-4,8.1A3.32,3.32,0,0,1,177.61,100.84Z"/><path class="cls-2" d="M184.12,100a.67.67,0,0,1-.68-.68A8,8,0,0,0,182,94.71l.68-1.38a9.93,9.93,0,0,1,1.37,2.29,9.44,9.44,0,0,1,.74,3.67A.67.67,0,0,1,184.12,100Z"/><path class="cls-2" d="M202.69,100.29a1.26,1.26,0,0,1-1.12,1.42,1.12,1.12,0,0,1-1,.85,1.23,1.23,0,0,1-1.15-.85,1.34,1.34,0,0,1-1.23-1.42v-1h4.55Z"/><path class="cls-2" d="M203.53,96.69a2.5,2.5,0,0,0-.83,1.83h-4.56a2.32,2.32,0,0,0-.91-1.83,5.28,5.28,0,0,1-2.13-4.49,5.39,5.39,0,0,1,5.24-5.09,5.3,5.3,0,0,1,5.39,5.32A5.08,5.08,0,0,1,203.53,96.69Z"/><path class="cls-5" d="M175.39,97.07a1.47,1.47,0,0,0-1.08.45,1.53,1.53,0,0,0,1.08,2.62,1.53,1.53,0,0,0,1.07-2.62A1.5,1.5,0,0,0,175.39,97.07Z"/><path class="cls-2" d="M189.91,90.85h-4c-.63,0-.95-.28-.72-.79l2.35-4.64c.23-.5.61-.47.83,0L190.63,90C190.86,90.55,190.53,90.85,189.91,90.85Z"/><path class="cls-2" d="M187.86,79.46a2.36,2.36,0,1,0,2.36,2.36A2.36,2.36,0,0,0,187.86,79.46Zm0,3.35a1,1,0,1,1,1-1A1,1,0,0,1,187.86,82.81Z"/><path class="cls-2" d="M185.3,85.42h0a.51.51,0,0,1-.32.91.49.49,0,0,1-.31-.11h0a5.43,5.43,0,1,1,6.32,0h0l0,0a.51.51,0,0,1-.28.08.51.51,0,0,1-.3-.91l0,0h0a4.41,4.41,0,1,0-5.13,0"/><path class="cls-2" d="M192.29,88.49h0a8,8,0,1,0-8.88,0h0a.55.55,0,0,0,.29.09.5.5,0,0,0,.5-.51.48.48,0,0,0-.22-.42h0a7,7,0,1,1,7.75,0h0a.5.5,0,0,0-.23.42.51.51,0,0,0,.51.51.54.54,0,0,0,.28-.08"/><g class="cls-3"><circle class="cls-4" cx="187.29" cy="91.65" r="37.13"/></g><path class="cls-2" d="M18,149.52v1H12.76v-9.31H14v8.26Z"/><path class="cls-2" d="M20.63,141.92a.68.68,0,0,1-.07.32.93.93,0,0,1-.18.26,1.27,1.27,0,0,1-.27.18.87.87,0,0,1-.32.06.78.78,0,0,1-.31-.06,1,1,0,0,1-.26-.18.93.93,0,0,1-.18-.26.83.83,0,0,1-.06-.32.87.87,0,0,1,.06-.32,1,1,0,0,1,.18-.27.78.78,0,0,1,.26-.17.64.64,0,0,1,.31-.07.71.71,0,0,1,.32.07,1,1,0,0,1,.27.17,1,1,0,0,1,.18.27A.71.71,0,0,1,20.63,141.92ZM20.38,144v6.58H19.23V144Z"/><path class="cls-2" d="M23.37,145a4.73,4.73,0,0,1,.46-.44,2.78,2.78,0,0,1,.51-.33,2.32,2.32,0,0,1,.57-.22,2.7,2.7,0,0,1,.65-.07,2.61,2.61,0,0,1,1,.17,1.82,1.82,0,0,1,.68.51,2.07,2.07,0,0,1,.42.79,3.31,3.31,0,0,1,.15,1v4.19H26.6v-4.19a1.76,1.76,0,0,0-.34-1.16,1.28,1.28,0,0,0-1-.41,1.85,1.85,0,0,0-.95.25,2.88,2.88,0,0,0-.83.67v4.84H22.28V144H23a.28.28,0,0,1,.3.24Z"/><path class="cls-2" d="M29.36,144.92a4,4,0,0,1,1.18-.79,3.71,3.71,0,0,1,1.4-.26,2.35,2.35,0,0,1,1,.19,2,2,0,0,1,.72.5,2.1,2.1,0,0,1,.44.79,3.24,3.24,0,0,1,.15,1v4.21h-.51a.48.48,0,0,1-.26,0,.37.37,0,0,1-.14-.22l-.13-.62q-.27.24-.51.42a2.8,2.8,0,0,1-.52.32,3.58,3.58,0,0,1-.58.19,3,3,0,0,1-.69.07,2.46,2.46,0,0,1-.72-.11,1.77,1.77,0,0,1-.59-.32,1.45,1.45,0,0,1-.39-.54,1.87,1.87,0,0,1-.15-.78,1.47,1.47,0,0,1,.21-.75,2,2,0,0,1,.7-.64,4.49,4.49,0,0,1,1.25-.46,9.07,9.07,0,0,1,1.9-.2v-.52a1.76,1.76,0,0,0-.33-1.16,1.19,1.19,0,0,0-1-.39,2.18,2.18,0,0,0-.72.11,2.59,2.59,0,0,0-.5.24l-.36.24a.51.51,0,0,1-.3.1.32.32,0,0,1-.2-.06.54.54,0,0,1-.15-.15Zm3.74,2.69a9.67,9.67,0,0,0-1.36.13,3.64,3.64,0,0,0-.92.26,1.41,1.41,0,0,0-.51.38.83.83,0,0,0-.16.5,1.06,1.06,0,0,0,.09.45.79.79,0,0,0,.23.31.91.91,0,0,0,.34.17,1.49,1.49,0,0,0,.43.06,2,2,0,0,0,.56-.07,2.64,2.64,0,0,0,.47-.17,3.18,3.18,0,0,0,.43-.28,4.61,4.61,0,0,0,.4-.37Z"/><path class="cls-2" d="M37.09,145.31a3.13,3.13,0,0,1,.77-1.06,1.68,1.68,0,0,1,1.11-.38,1.75,1.75,0,0,1,.4,0,1.16,1.16,0,0,1,.34.14l-.08.87a.19.19,0,0,1-.2.16,1,1,0,0,1-.26,0,1.88,1.88,0,0,0-1,0,1.3,1.3,0,0,0-.43.27,2.26,2.26,0,0,0-.35.44,4.17,4.17,0,0,0-.27.6v4.16H36V144h.67a.37.37,0,0,1,.26.07.45.45,0,0,1,.1.25Z"/><path class="cls-2" d="M43.24,143.89a3.38,3.38,0,0,1,1.3.24,2.7,2.7,0,0,1,1,.68,2.79,2.79,0,0,1,.63,1.07,4.56,4.56,0,0,1,0,2.8,2.86,2.86,0,0,1-.63,1.07,2.83,2.83,0,0,1-1,.68,3.67,3.67,0,0,1-2.61,0,2.91,2.91,0,0,1-1-.68,3,3,0,0,1-.62-1.07,4.56,4.56,0,0,1,0-2.8,2.9,2.9,0,0,1,.62-1.07,2.78,2.78,0,0,1,1-.68A3.36,3.36,0,0,1,43.24,143.89Zm0,5.87a1.69,1.69,0,0,0,1.45-.65,3,3,0,0,0,.48-1.82,3.07,3.07,0,0,0-.48-1.84,1.69,1.69,0,0,0-1.45-.65,2,2,0,0,0-.87.17,1.67,1.67,0,0,0-.61.48,2.21,2.21,0,0,0-.36.79,4.21,4.21,0,0,0-.12,1,3,3,0,0,0,.48,1.82A1.75,1.75,0,0,0,43.24,149.76Z"/><path class="cls-2" d="M57.18,149.55v1H51.43v-9.31h5.74v1H52.69v3.09h3.63v1H52.69v3.18Z"/><path class="cls-2" d="M63.84,141v9.57h-.69a.29.29,0,0,1-.31-.24l-.1-.8a3.56,3.56,0,0,1-1,.82,2.41,2.41,0,0,1-1.24.32,2.47,2.47,0,0,1-1-.22,2.21,2.21,0,0,1-.79-.64,3.16,3.16,0,0,1-.5-1.06,5.27,5.27,0,0,1-.17-1.44,4.56,4.56,0,0,1,.19-1.36,3.4,3.4,0,0,1,.56-1.09,2.49,2.49,0,0,1,.89-.72,2.62,2.62,0,0,1,1.2-.27,2.31,2.31,0,0,1,1,.21,2.24,2.24,0,0,1,.77.57V141Zm-1.16,4.56A1.8,1.8,0,0,0,62,145a1.91,1.91,0,0,0-.84-.17,1.68,1.68,0,0,0-1.41.65,3.07,3.07,0,0,0-.5,1.88,5,5,0,0,0,.11,1.1,2.16,2.16,0,0,0,.33.75,1.26,1.26,0,0,0,.52.43,1.8,1.8,0,0,0,.71.14,1.91,1.91,0,0,0,1-.26,2.71,2.71,0,0,0,.78-.74Z"/><path class="cls-2" d="M71.23,144.25v.43q0,.21-.27.27l-.75.1a2,2,0,0,1,.22.95,2.05,2.05,0,0,1-.18.87,2.17,2.17,0,0,1-.51.68A2.43,2.43,0,0,1,69,148a3.21,3.21,0,0,1-1,.15,3.05,3.05,0,0,1-.87-.11,1.13,1.13,0,0,0-.32.28.47.47,0,0,0-.11.3.39.39,0,0,0,.19.35,1.34,1.34,0,0,0,.5.17,4.88,4.88,0,0,0,.72.07l.81,0a7.07,7.07,0,0,1,.82.1,2.9,2.9,0,0,1,.72.23,1.44,1.44,0,0,1,.5.45,1.29,1.29,0,0,1,.19.74,1.7,1.7,0,0,1-.21.82,2.14,2.14,0,0,1-.61.71,3.15,3.15,0,0,1-1,.49A4,4,0,0,1,68,153a4.73,4.73,0,0,1-1.26-.15,2.71,2.71,0,0,1-.89-.38,1.6,1.6,0,0,1-.54-.56,1.3,1.3,0,0,1-.18-.65,1.16,1.16,0,0,1,.31-.83,2,2,0,0,1,.83-.54,1.17,1.17,0,0,1-.46-.35.88.88,0,0,1-.17-.59.77.77,0,0,1,0-.29,1.15,1.15,0,0,1,.16-.31,1.75,1.75,0,0,1,.26-.29,2,2,0,0,1,.37-.24,2,2,0,0,1-.76-.72,1.92,1.92,0,0,1-.28-1.05,2,2,0,0,1,.19-.88,2,2,0,0,1,.51-.67A2.48,2.48,0,0,1,67,144a3.24,3.24,0,0,1,1-.15,3.44,3.44,0,0,1,.8.09,2.7,2.7,0,0,1,.67.28Zm-1.17,6.68a.56.56,0,0,0-.14-.39.87.87,0,0,0-.37-.23,2,2,0,0,0-.53-.12c-.21,0-.42,0-.65-.06l-.69,0c-.24,0-.46,0-.68-.06a1.9,1.9,0,0,0-.6.42.93.93,0,0,0-.23.61.78.78,0,0,0,.12.41.86.86,0,0,0,.35.33,2,2,0,0,0,.58.22,3.52,3.52,0,0,0,.84.08,4.28,4.28,0,0,0,.84-.08,2.36,2.36,0,0,0,.62-.24,1.2,1.2,0,0,0,.4-.37A.9.9,0,0,0,70.06,150.93ZM68,147.36a2,2,0,0,0,.62-.1A1.48,1.48,0,0,0,69,147a1.07,1.07,0,0,0,.28-.42,1.57,1.57,0,0,0,.09-.54,1.27,1.27,0,0,0-.37-1,1.76,1.76,0,0,0-2.13,0,1.27,1.27,0,0,0-.37,1,1.37,1.37,0,0,0,.1.54,1.17,1.17,0,0,0,.27.42,1.42,1.42,0,0,0,.45.27A1.92,1.92,0,0,0,68,147.36Z"/><path class="cls-2" d="M77.67,149.65a1.84,1.84,0,0,1-.51.45,3,3,0,0,1-.64.32,4.1,4.1,0,0,1-.71.18,4.39,4.39,0,0,1-.72.07,3.29,3.29,0,0,1-1.26-.24,2.68,2.68,0,0,1-1-.67,3,3,0,0,1-.65-1.1,4.39,4.39,0,0,1-.24-1.51,3.88,3.88,0,0,1,.21-1.29,3,3,0,0,1,.61-1,2.69,2.69,0,0,1,1-.69,3.13,3.13,0,0,1,1.29-.25,3,3,0,0,1,1.09.19,2.51,2.51,0,0,1,.87.58,2.54,2.54,0,0,1,.58.92,3.49,3.49,0,0,1,.21,1.25.72.72,0,0,1-.06.36.23.23,0,0,1-.22.1H73.1a3.82,3.82,0,0,0,.17,1.08,2.1,2.1,0,0,0,.42.77,1.72,1.72,0,0,0,.65.46,2.34,2.34,0,0,0,.85.16,2.37,2.37,0,0,0,.75-.11,2.77,2.77,0,0,0,.54-.21,3.9,3.9,0,0,0,.38-.22.5.5,0,0,1,.27-.1.27.27,0,0,1,.22.11Zm-.93-3.09a2.15,2.15,0,0,0-.12-.73,1.44,1.44,0,0,0-.33-.58,1.47,1.47,0,0,0-.53-.38,2,2,0,0,0-2,.35,2.17,2.17,0,0,0-.6,1.34Z"/><path class="cls-2" d="M90.75,150.57H89.63a.9.9,0,0,1-.31,0,.66.66,0,0,1-.25-.19l-.95-1a4.48,4.48,0,0,1-1.4.94,4.37,4.37,0,0,1-1.75.35,3,3,0,0,1-1-.18,2.69,2.69,0,0,1-.9-.51,2.53,2.53,0,0,1-.63-.81,2.42,2.42,0,0,1-.24-1.09,2.47,2.47,0,0,1,.15-.86,2.56,2.56,0,0,1,.43-.75,3.14,3.14,0,0,1,.64-.62,4.63,4.63,0,0,1,.81-.47,3.88,3.88,0,0,1-.58-1,2.55,2.55,0,0,1-.19-1,2.35,2.35,0,0,1,.17-.89,2.16,2.16,0,0,1,.5-.73,2.41,2.41,0,0,1,.79-.49,3.06,3.06,0,0,1,1-.17,2.61,2.61,0,0,1,.94.16,2.36,2.36,0,0,1,.72.44,2,2,0,0,1,.49.63,1.91,1.91,0,0,1,.2.75l-.72.15c-.14,0-.25,0-.32-.2a1.7,1.7,0,0,0-.14-.35,1.46,1.46,0,0,0-.26-.34,1.28,1.28,0,0,0-.39-.24,1.21,1.21,0,0,0-.52-.1,1.59,1.59,0,0,0-.59.1,1.51,1.51,0,0,0-.45.29,1.44,1.44,0,0,0-.28.44,1.57,1.57,0,0,0,0,1,1.81,1.81,0,0,0,.16.42,2.71,2.71,0,0,0,.29.43,5.71,5.71,0,0,0,.42.47l2.68,2.73a4.93,4.93,0,0,0,.4-.92,4.66,4.66,0,0,0,.19-1,.37.37,0,0,1,.08-.19.21.21,0,0,1,.18-.07h.71a4.84,4.84,0,0,1-.23,1.46,5,5,0,0,1-.66,1.35Zm-6-4.58a2.74,2.74,0,0,0-1,.88,2,2,0,0,0-.35,1.13,1.58,1.58,0,0,0,.16.74,1.62,1.62,0,0,0,.41.55,1.7,1.7,0,0,0,.57.33,1.93,1.93,0,0,0,.67.12,3.1,3.1,0,0,0,1.31-.27,3.45,3.45,0,0,0,1-.72Z"/><path class="cls-2" d="M96.64,142.29v3.25h3.83v1H96.64v4H95.38v-9.31h5.74v1Z"/><path class="cls-2" d="M104.67,143.89a3.38,3.38,0,0,1,1.3.24,2.7,2.7,0,0,1,1,.68,2.79,2.79,0,0,1,.63,1.07,4.56,4.56,0,0,1,0,2.8,2.86,2.86,0,0,1-.63,1.07,2.83,2.83,0,0,1-1,.68,3.67,3.67,0,0,1-2.61,0,2.78,2.78,0,0,1-1-.68,2.86,2.86,0,0,1-.63-1.07,4.56,4.56,0,0,1,0-2.8,2.79,2.79,0,0,1,.63-1.07,2.66,2.66,0,0,1,1-.68A3.36,3.36,0,0,1,104.67,143.89Zm0,5.87a1.69,1.69,0,0,0,1.45-.65,3,3,0,0,0,.48-1.82,3.07,3.07,0,0,0-.48-1.84,1.69,1.69,0,0,0-1.45-.65,1.91,1.91,0,0,0-.86.17,1.62,1.62,0,0,0-.62.48,2.21,2.21,0,0,0-.36.79,4.21,4.21,0,0,0-.12,1,3,3,0,0,0,.48,1.82A1.75,1.75,0,0,0,104.67,149.76Z"/><path class="cls-2" d="M114.79,144.25v.43c0,.14-.09.23-.28.27l-.74.1a2.14,2.14,0,0,1,.22.95,2,2,0,0,1-.7,1.55,2.24,2.24,0,0,1-.78.42,3.41,3.41,0,0,1-1.86,0,1.28,1.28,0,0,0-.32.28.53.53,0,0,0-.11.3.39.39,0,0,0,.2.35,1.22,1.22,0,0,0,.5.17,4.74,4.74,0,0,0,.71.07l.82,0a7.35,7.35,0,0,1,.82.1,2.82,2.82,0,0,1,.71.23,1.27,1.27,0,0,1,.7,1.19,1.7,1.7,0,0,1-.21.82,2.41,2.41,0,0,1-.61.71,3.27,3.27,0,0,1-1,.49,4.08,4.08,0,0,1-1.3.19,4.73,4.73,0,0,1-1.26-.15,2.87,2.87,0,0,1-.9-.38,1.6,1.6,0,0,1-.54-.56,1.4,1.4,0,0,1-.17-.65,1.19,1.19,0,0,1,.3-.83,2,2,0,0,1,.84-.54,1.17,1.17,0,0,1-.46-.35.89.89,0,0,1-.18-.59,1,1,0,0,1,0-.29,1.53,1.53,0,0,1,.16-.31,1.82,1.82,0,0,1,.27-.29,1.61,1.61,0,0,1,.36-.24,2,2,0,0,1-.76-.72A2,2,0,0,1,109,146a1.92,1.92,0,0,1,.7-1.55,2.38,2.38,0,0,1,.79-.42,3.22,3.22,0,0,1,1-.15,3.32,3.32,0,0,1,.8.09,2.77,2.77,0,0,1,.68.28Zm-1.18,6.68a.56.56,0,0,0-.14-.39.83.83,0,0,0-.36-.23,2.14,2.14,0,0,0-.54-.12c-.2,0-.42,0-.65-.06l-.69,0c-.23,0-.46,0-.67-.06a1.69,1.69,0,0,0-.6.42.93.93,0,0,0-.23.61.87.87,0,0,0,.11.41,1,1,0,0,0,.35.33,2,2,0,0,0,.59.22,3.47,3.47,0,0,0,.84.08,4.1,4.1,0,0,0,.83-.08,2.3,2.3,0,0,0,.63-.24,1.27,1.27,0,0,0,.39-.37A.9.9,0,0,0,113.61,150.93Zm-2.09-3.57a1.92,1.92,0,0,0,.62-.1,1.42,1.42,0,0,0,.45-.27,1.17,1.17,0,0,0,.27-.42A1.57,1.57,0,0,0,113,146a1.3,1.3,0,0,0-.36-1,1.47,1.47,0,0,0-1.07-.36,1.49,1.49,0,0,0-1.07.36,1.3,1.3,0,0,0-.36,1,1.57,1.57,0,0,0,.09.54,1.19,1.19,0,0,0,.28.42,1.42,1.42,0,0,0,.45.27A1.85,1.85,0,0,0,111.52,147.36Z"/><path class="cls-2" d="M19.92,165.65a.25.25,0,0,1,.18.08l.5.54a3.88,3.88,0,0,1-1.39,1,4.68,4.68,0,0,1-2,.37,4.65,4.65,0,0,1-1.82-.35,4.09,4.09,0,0,1-1.4-1,4.63,4.63,0,0,1-.9-1.51,5.66,5.66,0,0,1-.31-1.93,5.47,5.47,0,0,1,.33-1.93,4.46,4.46,0,0,1,.93-1.51,4.28,4.28,0,0,1,1.44-1,4.84,4.84,0,0,1,1.85-.34,4.57,4.57,0,0,1,1.76.31,4.83,4.83,0,0,1,1.34.87l-.42.58a.24.24,0,0,1-.1.1.29.29,0,0,1-.17,0,.56.56,0,0,1-.28-.13,4.34,4.34,0,0,0-.44-.28,3.49,3.49,0,0,0-.69-.29,3.55,3.55,0,0,0-1-.12,3.34,3.34,0,0,0-1.32.25,2.9,2.9,0,0,0-1,.72,3.42,3.42,0,0,0-.68,1.16,5,5,0,0,0,0,3.09,3.5,3.5,0,0,0,.69,1.16,2.86,2.86,0,0,0,1,.72,3.3,3.3,0,0,0,1.27.24,4.35,4.35,0,0,0,.75-.05,3,3,0,0,0,.62-.15,3.16,3.16,0,0,0,.52-.26,4.06,4.06,0,0,0,.49-.38A.3.3,0,0,1,19.92,165.65Z"/><path class="cls-2" d="M24.43,160.89a3.31,3.31,0,0,1,1.3.24,2.66,2.66,0,0,1,1,.68,2.92,2.92,0,0,1,.63,1.07,4.56,4.56,0,0,1,0,2.8,3,3,0,0,1-.63,1.07,2.78,2.78,0,0,1-1,.68,3.31,3.31,0,0,1-1.3.24,3.35,3.35,0,0,1-1.3-.24,2.91,2.91,0,0,1-1-.68,3,3,0,0,1-.62-1.07,4.56,4.56,0,0,1,0-2.8,2.9,2.9,0,0,1,.62-1.07,2.78,2.78,0,0,1,1-.68A3.35,3.35,0,0,1,24.43,160.89Zm0,5.87a1.7,1.7,0,0,0,1.46-.65,3,3,0,0,0,.48-1.82,3.07,3.07,0,0,0-.48-1.84,1.7,1.7,0,0,0-1.46-.65,2,2,0,0,0-.86.17,1.67,1.67,0,0,0-.61.48,2.21,2.21,0,0,0-.36.79,4.21,4.21,0,0,0-.12,1,3,3,0,0,0,.48,1.82A1.74,1.74,0,0,0,24.43,166.76Z"/><path class="cls-2" d="M29,167.57V161h.7a.28.28,0,0,1,.3.24l.09.68a3.32,3.32,0,0,1,.81-.74,2,2,0,0,1,1.06-.28,1.52,1.52,0,0,1,1.07.37,2,2,0,0,1,.6,1,2,2,0,0,1,.37-.62,2,2,0,0,1,.5-.43,2.55,2.55,0,0,1,.59-.25,2.79,2.79,0,0,1,.64-.07,2.45,2.45,0,0,1,.93.16,1.78,1.78,0,0,1,.69.49,2.1,2.1,0,0,1,.43.78,3.43,3.43,0,0,1,.15,1.06v4.19H36.8v-4.19a1.81,1.81,0,0,0-.34-1.17,1.2,1.2,0,0,0-1-.4,1.4,1.4,0,0,0-.54.1,1.37,1.37,0,0,0-.45.3,1.42,1.42,0,0,0-.31.49,2,2,0,0,0-.11.68v4.19H32.9v-4.19a1.85,1.85,0,0,0-.31-1.18,1.15,1.15,0,0,0-.93-.39,1.52,1.52,0,0,0-.8.23,2.63,2.63,0,0,0-.67.63v4.9Z"/><path class="cls-2" d="M40.83,162a3.44,3.44,0,0,1,1-.83,2.54,2.54,0,0,1,1.25-.31,2.47,2.47,0,0,1,1,.22,2.21,2.21,0,0,1,.79.64,3.36,3.36,0,0,1,.5,1.06,5.3,5.3,0,0,1,.17,1.45,4.56,4.56,0,0,1-.19,1.36,3.35,3.35,0,0,1-.56,1.08,2.61,2.61,0,0,1-.9.72,2.57,2.57,0,0,1-1.19.27,2.28,2.28,0,0,1-1.8-.78v2.91H39.72V161h.7a.28.28,0,0,1,.3.24Zm.06,4a1.82,1.82,0,0,0,.69.6,1.93,1.93,0,0,0,.85.18,1.66,1.66,0,0,0,1.41-.66,3.06,3.06,0,0,0,.5-1.87,4.35,4.35,0,0,0-.12-1.1,2.13,2.13,0,0,0-.32-.76,1.28,1.28,0,0,0-.53-.43,1.61,1.61,0,0,0-.71-.14,1.87,1.87,0,0,0-1,.26,2.81,2.81,0,0,0-.78.73Z"/><path class="cls-2" d="M52.42,161v6.58h-.69a.3.3,0,0,1-.31-.24l-.09-.7a3.5,3.5,0,0,1-1,.76,2.56,2.56,0,0,1-1.22.29,2.33,2.33,0,0,1-.95-.18,2,2,0,0,1-.7-.5,2.38,2.38,0,0,1-.42-.79,3.64,3.64,0,0,1-.14-1V161H48.1v4.2a1.82,1.82,0,0,0,.34,1.16,1.31,1.31,0,0,0,1.05.41,2,2,0,0,0,.95-.25,2.88,2.88,0,0,0,.83-.67V161Z"/><path class="cls-2" d="M60.37,167.57H59.21V162H55.82v3.95a.83.83,0,0,0,.2.62.72.72,0,0,0,.52.2,1,1,0,0,0,.31,0,1,1,0,0,0,.23-.11l.17-.1a.19.19,0,0,1,.12-.05.19.19,0,0,1,.16.11l.34.55a2.18,2.18,0,0,1-.72.44,2.35,2.35,0,0,1-.87.16,1.59,1.59,0,0,1-1.2-.44,1.73,1.73,0,0,1-.42-1.25v-4h-.79a.28.28,0,0,1-.18-.06.24.24,0,0,1-.07-.19v-.47l1.08-.14.27-2a.3.3,0,0,1,.08-.16.28.28,0,0,1,.18-.06h.59v2.27h4.55Zm.28-8.69a.64.64,0,0,1-.07.31.68.68,0,0,1-.18.26,1,1,0,0,1-.26.18.87.87,0,0,1-.32.06.78.78,0,0,1-.31-.06.88.88,0,0,1-.44-.44.78.78,0,0,1-.06-.31.87.87,0,0,1,.06-.32,1.06,1.06,0,0,1,.18-.27.68.68,0,0,1,.26-.18.78.78,0,0,1,.31-.06.87.87,0,0,1,.32.06.68.68,0,0,1,.26.18.88.88,0,0,1,.25.59Z"/><path class="cls-2" d="M63.36,162a3.73,3.73,0,0,1,.45-.44,2.78,2.78,0,0,1,.51-.33,2.32,2.32,0,0,1,.57-.22,2.78,2.78,0,0,1,.66-.07,2.55,2.55,0,0,1,1,.17,1.94,1.94,0,0,1,.69.51,2.38,2.38,0,0,1,.42.79,3.64,3.64,0,0,1,.14,1v4.19H66.59v-4.19a1.82,1.82,0,0,0-.34-1.16,1.3,1.3,0,0,0-1-.41,1.91,1.91,0,0,0-1,.25,2.85,2.85,0,0,0-.82.67v4.84H62.27V161H63a.29.29,0,0,1,.31.24Z"/><path class="cls-2" d="M75.08,161.25v.43c0,.14-.09.23-.28.27l-.74.1a2.14,2.14,0,0,1,.22.95,2,2,0,0,1-.7,1.55,2.43,2.43,0,0,1-.78.42,3.41,3.41,0,0,1-1.86,0,1.28,1.28,0,0,0-.32.28.53.53,0,0,0-.11.3.41.41,0,0,0,.19.35,1.33,1.33,0,0,0,.51.17,4.74,4.74,0,0,0,.71.07l.82,0a7.35,7.35,0,0,1,.82.1,3,3,0,0,1,.71.23,1.27,1.27,0,0,1,.7,1.19,1.71,1.71,0,0,1-.22.82,2.23,2.23,0,0,1-.6.71,3.27,3.27,0,0,1-1,.49,4.08,4.08,0,0,1-1.3.19,4.73,4.73,0,0,1-1.26-.15,2.87,2.87,0,0,1-.9-.38,1.6,1.6,0,0,1-.54-.56,1.29,1.29,0,0,1-.17-.65,1.19,1.19,0,0,1,.3-.83,2,2,0,0,1,.84-.54,1.21,1.21,0,0,1-.47-.35.94.94,0,0,1-.17-.59,1,1,0,0,1,0-.29,1.53,1.53,0,0,1,.16-.31A1.82,1.82,0,0,1,70,165a1.61,1.61,0,0,1,.36-.24,2,2,0,0,1-.76-.72,2,2,0,0,1-.27-1.05,1.92,1.92,0,0,1,.7-1.55,2.38,2.38,0,0,1,.79-.42,3.18,3.18,0,0,1,1-.15,3.32,3.32,0,0,1,.8.09,2.94,2.94,0,0,1,.68.28Zm-1.18,6.68a.56.56,0,0,0-.14-.39.83.83,0,0,0-.36-.23,2.14,2.14,0,0,0-.54-.12c-.2,0-.42,0-.65-.06l-.69,0c-.23,0-.46,0-.68-.06a1.75,1.75,0,0,0-.59.42.93.93,0,0,0-.23.61.87.87,0,0,0,.11.41.93.93,0,0,0,.35.33,2,2,0,0,0,.59.22,3.44,3.44,0,0,0,.83.08,4.13,4.13,0,0,0,.84-.08,2.3,2.3,0,0,0,.63-.24,1.27,1.27,0,0,0,.39-.37A.9.9,0,0,0,73.9,167.93Zm-2.09-3.57a1.92,1.92,0,0,0,.62-.1,1.42,1.42,0,0,0,.45-.27,1.17,1.17,0,0,0,.27-.42,1.57,1.57,0,0,0,.09-.54,1.3,1.3,0,0,0-.36-1,1.47,1.47,0,0,0-1.07-.36,1.49,1.49,0,0,0-1.07.36,1.3,1.3,0,0,0-.36,1,1.57,1.57,0,0,0,.09.54,1.19,1.19,0,0,0,.28.42,1.42,1.42,0,0,0,.45.27A1.85,1.85,0,0,0,71.81,164.36Z"/><path class="cls-2" d="M87.45,163.1v3.57a5.31,5.31,0,0,1-1.5.76,6.15,6.15,0,0,1-3.78-.1,4.59,4.59,0,0,1-1.54-1,4.07,4.07,0,0,1-1-1.51,5.6,5.6,0,0,1,0-3.87,4.27,4.27,0,0,1,1-1.51,4.18,4.18,0,0,1,1.5-1,5.41,5.41,0,0,1,2-.34,5.48,5.48,0,0,1,1,.08,4.53,4.53,0,0,1,.88.23,4.36,4.36,0,0,1,.75.37,5.16,5.16,0,0,1,.64.49l-.36.57a.34.34,0,0,1-.21.17.43.43,0,0,1-.3-.06l-.36-.22a2.78,2.78,0,0,0-.49-.25,4.24,4.24,0,0,0-.68-.21,5,5,0,0,0-.93-.08,3.83,3.83,0,0,0-1.43.25,3.15,3.15,0,0,0-1.08.74,3.2,3.2,0,0,0-.69,1.16,5,5,0,0,0,0,3.09,3.27,3.27,0,0,0,.71,1.18,3,3,0,0,0,1.13.73,4.12,4.12,0,0,0,1.49.26,4,4,0,0,0,1.15-.15,5.26,5.26,0,0,0,1-.4v-2.05H84.86a.32.32,0,0,1-.2-.07.24.24,0,0,1-.07-.18v-.71Z"/><path class="cls-2" d="M90.1,162.31a3.11,3.11,0,0,1,.76-1.06,1.73,1.73,0,0,1,1.12-.38,1.83,1.83,0,0,1,.4,0,1.28,1.28,0,0,1,.34.14l-.09.87a.18.18,0,0,1-.19.16,1.16,1.16,0,0,1-.27,0,1.64,1.64,0,0,0-.4,0,1.59,1.59,0,0,0-.55.09,1.34,1.34,0,0,0-.44.27,2.23,2.23,0,0,0-.34.44,4.17,4.17,0,0,0-.28.6v4.16H89V161h.66a.35.35,0,0,1,.26.07.45.45,0,0,1,.1.25Z"/><path class="cls-2" d="M96.24,160.89a3.38,3.38,0,0,1,1.3.24,2.66,2.66,0,0,1,1,.68,3.06,3.06,0,0,1,.63,1.07,4.77,4.77,0,0,1,0,2.8,3.16,3.16,0,0,1-.63,1.07,2.78,2.78,0,0,1-1,.68,3.67,3.67,0,0,1-2.61,0,2.78,2.78,0,0,1-1-.68,3.16,3.16,0,0,1-.63-1.07,4.33,4.33,0,0,1-.22-1.4,4.37,4.37,0,0,1,.22-1.4,3.06,3.06,0,0,1,.63-1.07,2.66,2.66,0,0,1,1-.68A3.4,3.4,0,0,1,96.24,160.89Zm0,5.87a1.71,1.71,0,0,0,1.46-.65,3,3,0,0,0,.48-1.82,3.07,3.07,0,0,0-.48-1.84,1.71,1.71,0,0,0-1.46-.65,1.91,1.91,0,0,0-.86.17,1.52,1.52,0,0,0-.61.48,2.07,2.07,0,0,0-.37.79,4.21,4.21,0,0,0-.12,1,3,3,0,0,0,.49,1.82A1.72,1.72,0,0,0,96.24,166.76Z"/><path class="cls-2" d="M106.25,161v6.58h-.69a.29.29,0,0,1-.31-.24l-.09-.7a3.83,3.83,0,0,1-1,.76,2.6,2.6,0,0,1-1.23.29,2.37,2.37,0,0,1-1-.18,2,2,0,0,1-.69-.5,2.07,2.07,0,0,1-.42-.79,3.64,3.64,0,0,1-.14-1V161h1.16v4.2a1.76,1.76,0,0,0,.34,1.16,1.28,1.28,0,0,0,1,.41,2,2,0,0,0,1-.25,2.85,2.85,0,0,0,.82-.67V161Z"/><path class="cls-2" d="M109.19,162a3.59,3.59,0,0,1,1-.83,2.54,2.54,0,0,1,1.25-.31,2.47,2.47,0,0,1,1,.22,2.21,2.21,0,0,1,.79.64,3.36,3.36,0,0,1,.5,1.06,5.3,5.3,0,0,1,.17,1.45,4.56,4.56,0,0,1-.19,1.36,3.35,3.35,0,0,1-.56,1.08,2.61,2.61,0,0,1-.9.72,2.57,2.57,0,0,1-1.19.27,2.28,2.28,0,0,1-1.8-.78v2.91h-1.17V161h.7a.28.28,0,0,1,.3.24Zm.06,4a1.82,1.82,0,0,0,.69.6,2,2,0,0,0,.85.18,1.66,1.66,0,0,0,1.41-.66,3.06,3.06,0,0,0,.5-1.87,4.35,4.35,0,0,0-.12-1.1,2.13,2.13,0,0,0-.32-.76,1.28,1.28,0,0,0-.53-.43,1.64,1.64,0,0,0-.71-.14,1.87,1.87,0,0,0-1,.26,2.81,2.81,0,0,0-.78.73Z"/><path class="cls-2" d="M157.3,149.52v1H152v-9.31h1.25v8.26Z"/><path class="cls-2" d="M159.89,141.92a.83.83,0,0,1-.07.32,1.2,1.2,0,0,1-.18.26,1.27,1.27,0,0,1-.27.18.88.88,0,0,1-.64,0,1.14,1.14,0,0,1-.25-.18.76.76,0,0,1-.18-.26.83.83,0,0,1-.06-.32.87.87,0,0,1,.06-.32.8.8,0,0,1,.18-.27.85.85,0,0,1,.25-.17.77.77,0,0,1,.64,0,1,1,0,0,1,.27.17,1.27,1.27,0,0,1,.18.27A.88.88,0,0,1,159.89,141.92Zm-.25,2.07v6.58h-1.16V144Z"/><path class="cls-2" d="M162.63,145a3.81,3.81,0,0,1,.46-.44,2.78,2.78,0,0,1,.51-.33,2.32,2.32,0,0,1,.57-.22,2.7,2.7,0,0,1,.65-.07,2.52,2.52,0,0,1,1,.17,1.78,1.78,0,0,1,.69.51,2.07,2.07,0,0,1,.42.79,3.31,3.31,0,0,1,.14,1v4.19h-1.16v-4.19a1.76,1.76,0,0,0-.34-1.16,1.28,1.28,0,0,0-1-.41,1.91,1.91,0,0,0-1,.25,3,3,0,0,0-.82.67v4.84h-1.16V144h.69a.29.29,0,0,1,.31.24Z"/><path class="cls-2" d="M168.62,144.92a4,4,0,0,1,1.18-.79,3.71,3.71,0,0,1,1.4-.26,2.35,2.35,0,0,1,1,.19,2.07,2.07,0,0,1,.72.5,2.1,2.1,0,0,1,.44.79,3.24,3.24,0,0,1,.15,1v4.21H173a.48.48,0,0,1-.26,0,.37.37,0,0,1-.14-.22l-.13-.62q-.27.24-.51.42a3.17,3.17,0,0,1-.52.32,3.58,3.58,0,0,1-.58.19,3,3,0,0,1-.69.07,2.36,2.36,0,0,1-.72-.11,1.68,1.68,0,0,1-.59-.32,1.47,1.47,0,0,1-.4-.54,2.05,2.05,0,0,1-.14-.78,1.47,1.47,0,0,1,.21-.75,2,2,0,0,1,.7-.64,4.49,4.49,0,0,1,1.25-.46,9.07,9.07,0,0,1,1.9-.2v-.52a1.76,1.76,0,0,0-.33-1.16,1.19,1.19,0,0,0-1-.39,2.14,2.14,0,0,0-.72.11,2.59,2.59,0,0,0-.5.24l-.36.24a.51.51,0,0,1-.3.1.37.37,0,0,1-.21-.06.67.67,0,0,1-.14-.15Zm3.74,2.69a9.52,9.52,0,0,0-1.36.13,3.52,3.52,0,0,0-.92.26,1.41,1.41,0,0,0-.51.38.83.83,0,0,0-.16.5,1.25,1.25,0,0,0,.08.45.92.92,0,0,0,.24.31.91.91,0,0,0,.34.17,1.44,1.44,0,0,0,.43.06,1.88,1.88,0,0,0,.55-.07,2.48,2.48,0,0,0,.48-.17,4,4,0,0,0,.43-.28,4.61,4.61,0,0,0,.4-.37Z"/><path class="cls-2" d="M176.35,145.31a3,3,0,0,1,.77-1.06,1.68,1.68,0,0,1,1.11-.38,1.75,1.75,0,0,1,.4,0,1.16,1.16,0,0,1,.34.14l-.08.87a.19.19,0,0,1-.2.16,1,1,0,0,1-.26,0,1.88,1.88,0,0,0-1,0,1.3,1.3,0,0,0-.43.27,1.94,1.94,0,0,0-.35.44,4.17,4.17,0,0,0-.27.6v4.16h-1.17V144h.67a.37.37,0,0,1,.26.07.45.45,0,0,1,.09.25Z"/><path class="cls-2" d="M182.49,143.89a3.31,3.31,0,0,1,1.3.24,2.66,2.66,0,0,1,1,.68,2.92,2.92,0,0,1,.63,1.07,4.37,4.37,0,0,1,.22,1.4,4.33,4.33,0,0,1-.22,1.4,3,3,0,0,1-.63,1.07,2.78,2.78,0,0,1-1,.68,3.31,3.31,0,0,1-1.3.24,3.43,3.43,0,0,1-1.31-.24,2.77,2.77,0,0,1-1.61-1.75,4.56,4.56,0,0,1,0-2.8,2.9,2.9,0,0,1,.62-1.07,2.83,2.83,0,0,1,1-.68A3.43,3.43,0,0,1,182.49,143.89Zm0,5.87a1.71,1.71,0,0,0,1.46-.65,3,3,0,0,0,.48-1.82,3.07,3.07,0,0,0-.48-1.84,1.71,1.71,0,0,0-1.46-.65,1.94,1.94,0,0,0-.86.17,1.59,1.59,0,0,0-.61.48,2.21,2.21,0,0,0-.36.79,4.21,4.21,0,0,0-.12,1,3,3,0,0,0,.48,1.82A1.73,1.73,0,0,0,182.49,149.76Z"/><path class="cls-2" d="M192,150.57h-1.26v-9.31H192Z"/><path class="cls-2" d="M196.63,143.89a3.35,3.35,0,0,1,1.3.24,2.66,2.66,0,0,1,1,.68,3.06,3.06,0,0,1,.63,1.07,4.77,4.77,0,0,1,0,2.8,3.16,3.16,0,0,1-.63,1.07,2.78,2.78,0,0,1-1,.68,3.35,3.35,0,0,1-1.3.24,3.43,3.43,0,0,1-1.31-.24,2.78,2.78,0,0,1-1-.68,3.16,3.16,0,0,1-.63-1.07,4.77,4.77,0,0,1,0-2.8,3.06,3.06,0,0,1,.63-1.07,2.66,2.66,0,0,1,1-.68A3.43,3.43,0,0,1,196.63,143.89Zm0,5.87a1.71,1.71,0,0,0,1.46-.65,3,3,0,0,0,.48-1.82,3.07,3.07,0,0,0-.48-1.84,1.71,1.71,0,0,0-1.46-.65,1.94,1.94,0,0,0-.86.17,1.59,1.59,0,0,0-.61.48,2.21,2.21,0,0,0-.36.79,4.21,4.21,0,0,0-.12,1,3,3,0,0,0,.48,1.82A1.72,1.72,0,0,0,196.63,149.76Z"/><path class="cls-2" d="M206.19,142.32h-3v8.25h-1.26v-8.25h-3v-1.06h7.29Z"/><path class="cls-2" d="M218.46,150.57h-1.12a.9.9,0,0,1-.31,0,.75.75,0,0,1-.25-.19l-.94-1a4.64,4.64,0,0,1-1.41.94,4.34,4.34,0,0,1-1.75.35,3,3,0,0,1-1-.18,2.55,2.55,0,0,1-.89-.51,2.4,2.4,0,0,1-.88-1.9,2.47,2.47,0,0,1,.15-.86,3.11,3.11,0,0,1,.43-.75,3.42,3.42,0,0,1,.64-.62,4.38,4.38,0,0,1,.82-.47,3.94,3.94,0,0,1-.59-1,2.75,2.75,0,0,1-.19-1,2.35,2.35,0,0,1,.17-.89,2.16,2.16,0,0,1,.5-.73,2.52,2.52,0,0,1,.79-.49,3.11,3.11,0,0,1,1-.17,2.43,2.43,0,0,1,1.67.6,2.09,2.09,0,0,1,.69,1.38l-.72.15c-.15,0-.25,0-.32-.2a1.32,1.32,0,0,0-.15-.35,1.23,1.23,0,0,0-.26-.34,1.12,1.12,0,0,0-.38-.24,1.25,1.25,0,0,0-.53-.1,1.54,1.54,0,0,0-.58.1,1.29,1.29,0,0,0-.45.29,1.14,1.14,0,0,0-.28.44,1.4,1.4,0,0,0-.1.54,2.12,2.12,0,0,0,0,.44,1.48,1.48,0,0,0,.17.42,2.62,2.62,0,0,0,.28.43,4.48,4.48,0,0,0,.43.47l2.68,2.73a5.64,5.64,0,0,0,.39-.92,4.69,4.69,0,0,0,.2-1,.3.3,0,0,1,.08-.19.21.21,0,0,1,.18-.07h.71a5.19,5.19,0,0,1-.24,1.46,5.25,5.25,0,0,1-.65,1.35Zm-6-4.58a2.7,2.7,0,0,0-1,.88,2,2,0,0,0-.35,1.13,1.72,1.72,0,0,0,.16.74,1.62,1.62,0,0,0,.41.55,1.75,1.75,0,0,0,.58.33,1.88,1.88,0,0,0,.66.12,3.07,3.07,0,0,0,1.31-.27,3.37,3.37,0,0,0,1-.72Z"/><path class="cls-2" d="M141.66,166.55v1h-5.74v-9.31h5.74v1h-4.48v3.09h3.63v1h-3.63v3.18Z"/><path class="cls-2" d="M143,167.57V161h.69a.29.29,0,0,1,.31.24l.08.68a3.36,3.36,0,0,1,.82-.74,1.92,1.92,0,0,1,1-.28,1.56,1.56,0,0,1,1.08.37,2.07,2.07,0,0,1,.59,1,2.22,2.22,0,0,1,.37-.62,2.24,2.24,0,0,1,.5-.43,2.63,2.63,0,0,1,.6-.25,2.73,2.73,0,0,1,.64-.07,2.49,2.49,0,0,1,.93.16,1.68,1.68,0,0,1,.68.49,2.12,2.12,0,0,1,.44.78,3.43,3.43,0,0,1,.15,1.06v4.19h-1.17v-4.19a1.76,1.76,0,0,0-.34-1.17,1.18,1.18,0,0,0-1-.4,1.4,1.4,0,0,0-.54.1,1.37,1.37,0,0,0-.45.3,1.29,1.29,0,0,0-.31.49,1.76,1.76,0,0,0-.12.68v4.19h-1.16v-4.19a1.85,1.85,0,0,0-.32-1.18,1.12,1.12,0,0,0-.93-.39,1.48,1.48,0,0,0-.79.23,2.47,2.47,0,0,0-.67.63v4.9Z"/><path class="cls-2" d="M154.82,161.94a3.42,3.42,0,0,1,.94-.77,2.49,2.49,0,0,1,1.21-.28,2.36,2.36,0,0,1,1,.22,2.11,2.11,0,0,1,.79.64,3.08,3.08,0,0,1,.5,1,5.09,5.09,0,0,1,.17,1.35,5.15,5.15,0,0,1-.2,1.46,3.27,3.27,0,0,1-.56,1.12,2.49,2.49,0,0,1-.89.72,2.7,2.7,0,0,1-1.19.26,2.28,2.28,0,0,1-1.09-.25,2.32,2.32,0,0,1-.78-.69l-.06.6a.27.27,0,0,1-.3.24h-.74V158h1.16Zm0,4.05a1.85,1.85,0,0,0,.7.6,1.9,1.9,0,0,0,.83.18,1.68,1.68,0,0,0,1.43-.66,3.22,3.22,0,0,0,.49-2,2.86,2.86,0,0,0-.44-1.78,1.48,1.48,0,0,0-1.25-.57,1.86,1.86,0,0,0-1,.26,3,3,0,0,0-.78.73Z"/><path class="cls-2" d="M166.28,166.65a1.84,1.84,0,0,1-.51.45,3.19,3.19,0,0,1-.64.32,4.35,4.35,0,0,1-.71.18,4.39,4.39,0,0,1-.72.07,3.29,3.29,0,0,1-1.26-.24,2.68,2.68,0,0,1-1-.67,3.16,3.16,0,0,1-.66-1.1,4.65,4.65,0,0,1-.23-1.51,3.88,3.88,0,0,1,.21-1.29,3,3,0,0,1,.61-1,2.61,2.61,0,0,1,1-.69,3.13,3.13,0,0,1,1.29-.25,3,3,0,0,1,1.09.19,2.51,2.51,0,0,1,.87.58,2.54,2.54,0,0,1,.58.92,3.72,3.72,0,0,1,.2,1.25.91.91,0,0,1,0,.36.24.24,0,0,1-.23.1h-4.4a3.81,3.81,0,0,0,.18,1.08,2.1,2.1,0,0,0,.42.77,1.65,1.65,0,0,0,.65.46,2.3,2.3,0,0,0,.85.16,2.37,2.37,0,0,0,.75-.11,2.77,2.77,0,0,0,.54-.21,3.9,3.9,0,0,0,.38-.22.48.48,0,0,1,.26-.1.28.28,0,0,1,.23.11Zm-.94-3.09a2.15,2.15,0,0,0-.11-.73,1.72,1.72,0,0,0-.33-.58,1.56,1.56,0,0,0-.53-.38,1.76,1.76,0,0,0-.71-.13,1.82,1.82,0,0,0-1.32.48,2.29,2.29,0,0,0-.6,1.34Z"/><path class="cls-2" d="M173.25,158v9.57h-.69a.29.29,0,0,1-.31-.24l-.11-.8a3.38,3.38,0,0,1-1,.82,2.54,2.54,0,0,1-2.27.1,2.21,2.21,0,0,1-.79-.64,3,3,0,0,1-.5-1.06,5.25,5.25,0,0,1-.18-1.44,4.56,4.56,0,0,1,.2-1.36,3.4,3.4,0,0,1,.56-1.09,2.49,2.49,0,0,1,.89-.72,2.57,2.57,0,0,1,1.19-.27,2.35,2.35,0,0,1,1,.21,2.24,2.24,0,0,1,.77.57V158Zm-1.16,4.56a1.87,1.87,0,0,0-.7-.61,1.93,1.93,0,0,0-.85-.17,1.68,1.68,0,0,0-1.41.65,3.07,3.07,0,0,0-.49,1.88,5,5,0,0,0,.11,1.1,2,2,0,0,0,.33.75,1.2,1.2,0,0,0,.52.43,1.8,1.8,0,0,0,.71.14,1.93,1.93,0,0,0,1-.26,2.84,2.84,0,0,0,.78-.74Z"/><path class="cls-2" d="M180.53,158v9.57h-.69a.29.29,0,0,1-.31-.24l-.11-.8a3.38,3.38,0,0,1-1,.82,2.54,2.54,0,0,1-2.27.1,2.21,2.21,0,0,1-.79-.64,3,3,0,0,1-.5-1.06,5.25,5.25,0,0,1-.18-1.44,4.56,4.56,0,0,1,.2-1.36,3.4,3.4,0,0,1,.56-1.09,2.49,2.49,0,0,1,.89-.72,2.6,2.6,0,0,1,1.19-.27,2.35,2.35,0,0,1,1,.21,2.24,2.24,0,0,1,.77.57V158Zm-1.16,4.56a1.87,1.87,0,0,0-.7-.61,1.93,1.93,0,0,0-.85-.17,1.68,1.68,0,0,0-1.41.65,3.07,3.07,0,0,0-.49,1.88,5,5,0,0,0,.11,1.1,2,2,0,0,0,.33.75,1.2,1.2,0,0,0,.52.43,1.8,1.8,0,0,0,.71.14,1.93,1.93,0,0,0,1-.26,2.84,2.84,0,0,0,.78-.74Z"/><path class="cls-2" d="M187.7,166.65a1.84,1.84,0,0,1-.51.45,3,3,0,0,1-.64.32,4.23,4.23,0,0,1-.7.18,4.62,4.62,0,0,1-.73.07,3.2,3.2,0,0,1-1.25-.24,2.63,2.63,0,0,1-1-.67,3,3,0,0,1-.65-1.1,4.39,4.39,0,0,1-.24-1.51,3.88,3.88,0,0,1,.22-1.29,3,3,0,0,1,.6-1,2.69,2.69,0,0,1,1-.69,3.13,3.13,0,0,1,1.29-.25,3,3,0,0,1,1.09.19,2.48,2.48,0,0,1,1.45,1.5,3.49,3.49,0,0,1,.21,1.25.72.72,0,0,1-.06.36.23.23,0,0,1-.22.1h-4.4a3.82,3.82,0,0,0,.17,1.08,2,2,0,0,0,.43.77,1.65,1.65,0,0,0,.65.46,2.24,2.24,0,0,0,.84.16,2.37,2.37,0,0,0,.75-.11,3.16,3.16,0,0,0,.55-.21,3.62,3.62,0,0,0,.37-.22.5.5,0,0,1,.27-.1.27.27,0,0,1,.22.11Zm-.93-3.09a2.15,2.15,0,0,0-.12-.73,1.44,1.44,0,0,0-.33-.58,1.47,1.47,0,0,0-.53-.38,1.73,1.73,0,0,0-.71-.13,1.78,1.78,0,0,0-1.31.48,2.29,2.29,0,0,0-.6,1.34Z"/><path class="cls-2" d="M194.67,158v9.57H194a.29.29,0,0,1-.31-.24l-.1-.8a3.38,3.38,0,0,1-1,.82,2.56,2.56,0,0,1-2.28.1,2.21,2.21,0,0,1-.79-.64,3.16,3.16,0,0,1-.5-1.06,5.69,5.69,0,0,1-.17-1.44,4.56,4.56,0,0,1,.19-1.36,3.4,3.4,0,0,1,.56-1.09,2.44,2.44,0,0,1,.9-.72,2.57,2.57,0,0,1,1.19-.27,2.38,2.38,0,0,1,1,.21,2.45,2.45,0,0,1,.77.57V158Zm-1.15,4.56a1.89,1.89,0,0,0-.71-.61,1.91,1.91,0,0,0-.84-.17,1.68,1.68,0,0,0-1.41.65,3.07,3.07,0,0,0-.5,1.88,5,5,0,0,0,.11,1.1,2.36,2.36,0,0,0,.33.75,1.22,1.22,0,0,0,.53.43,1.71,1.71,0,0,0,.7.14,1.88,1.88,0,0,0,1-.26,2.74,2.74,0,0,0,.79-.74Z"/><path class="cls-2" d="M207.67,163.1v3.57a5.31,5.31,0,0,1-1.5.76,6.12,6.12,0,0,1-3.77-.1,4.49,4.49,0,0,1-1.54-1,4.22,4.22,0,0,1-1-1.51,5.22,5.22,0,0,1-.34-1.93,5.45,5.45,0,0,1,.33-1.94,4.41,4.41,0,0,1,.95-1.51,4.31,4.31,0,0,1,1.51-1,5.36,5.36,0,0,1,2-.34,5.59,5.59,0,0,1,1,.08,4.53,4.53,0,0,1,.88.23,4.26,4.26,0,0,1,.74.37,5.26,5.26,0,0,1,.65.49l-.36.57a.36.36,0,0,1-.22.17.4.4,0,0,1-.29-.06l-.36-.22a2.78,2.78,0,0,0-.49-.25,4.24,4.24,0,0,0-.68-.21,5.15,5.15,0,0,0-.94-.08,3.78,3.78,0,0,0-1.42.25,3.19,3.19,0,0,0-1.09.74,3.33,3.33,0,0,0-.68,1.16,4.29,4.29,0,0,0-.25,1.52,4.74,4.74,0,0,0,.25,1.57,3.44,3.44,0,0,0,.72,1.18,3,3,0,0,0,1.13.73,4.12,4.12,0,0,0,1.49.26,4.06,4.06,0,0,0,1.15-.15,5.17,5.17,0,0,0,1-.4v-2.05h-1.44a.3.3,0,0,1-.2-.07.25.25,0,0,1-.08-.18v-.71Z"/><path class="cls-2" d="M210.32,162.31a3.13,3.13,0,0,1,.77-1.06,1.76,1.76,0,0,1,1.51-.33,1.16,1.16,0,0,1,.34.14l-.08.87a.19.19,0,0,1-.2.16,1.09,1.09,0,0,1-.26,0,1.64,1.64,0,0,0-.4,0,1.55,1.55,0,0,0-.55.09,1.25,1.25,0,0,0-.44.27,1.91,1.91,0,0,0-.34.44,3.32,3.32,0,0,0-.28.6v4.16h-1.16V161h.66a.37.37,0,0,1,.26.07.45.45,0,0,1,.1.25Z"/><path class="cls-2" d="M216.47,160.89a3.38,3.38,0,0,1,1.3.24,2.83,2.83,0,0,1,1,.68,2.9,2.9,0,0,1,.62,1.07,4.56,4.56,0,0,1,0,2.8,2.77,2.77,0,0,1-1.61,1.75,3.67,3.67,0,0,1-2.61,0,2.78,2.78,0,0,1-1-.68,2.86,2.86,0,0,1-.63-1.07,4.56,4.56,0,0,1,0-2.8,2.79,2.79,0,0,1,.63-1.07,2.66,2.66,0,0,1,1-.68A3.4,3.4,0,0,1,216.47,160.89Zm0,5.87a1.69,1.69,0,0,0,1.45-.65,3,3,0,0,0,.48-1.82,3.07,3.07,0,0,0-.48-1.84,1.69,1.69,0,0,0-1.45-.65,1.91,1.91,0,0,0-.86.17,1.62,1.62,0,0,0-.62.48,2.21,2.21,0,0,0-.36.79,4.21,4.21,0,0,0-.12,1,3,3,0,0,0,.48,1.82A1.75,1.75,0,0,0,216.47,166.76Z"/><path class="cls-2" d="M226.48,161v6.58h-.69a.29.29,0,0,1-.31-.24l-.09-.7a3.7,3.7,0,0,1-1,.76,2.53,2.53,0,0,1-1.22.29,2.33,2.33,0,0,1-.95-.18,1.86,1.86,0,0,1-.69-.5,2.07,2.07,0,0,1-.42-.79,3.31,3.31,0,0,1-.14-1V161h1.15v4.2a1.76,1.76,0,0,0,.35,1.16,1.27,1.27,0,0,0,1,.41,2,2,0,0,0,1-.25,3,3,0,0,0,.82-.67V161Z"/><path class="cls-2" d="M229.41,162a3.48,3.48,0,0,1,1-.83,2.53,2.53,0,0,1,1.24-.31,2.48,2.48,0,0,1,1,.22,2.1,2.1,0,0,1,.78.64,3.17,3.17,0,0,1,.51,1.06,5.71,5.71,0,0,1,.17,1.45,4.56,4.56,0,0,1-.19,1.36,3.18,3.18,0,0,1-.57,1.08,2.49,2.49,0,0,1-.89.72,2.62,2.62,0,0,1-1.2.27,2.34,2.34,0,0,1-1-.21,2.38,2.38,0,0,1-.77-.57v2.91h-1.16V161h.7a.28.28,0,0,1,.3.24Zm.06,4a1.81,1.81,0,0,0,1.54.78,1.66,1.66,0,0,0,1.42-.66,3.06,3.06,0,0,0,.5-1.87,4.35,4.35,0,0,0-.12-1.1,2,2,0,0,0-.33-.76A1.26,1.26,0,0,0,232,162a1.64,1.64,0,0,0-.71-.14,1.87,1.87,0,0,0-1,.26,2.84,2.84,0,0,0-.79.73Z"/><path class="cls-2" d="M294.88,149.52v1H289.6v-9.31h1.25v8.26Z"/><path class="cls-2" d="M297.47,141.92a.68.68,0,0,1-.07.32,1.2,1.2,0,0,1-.18.26,1.27,1.27,0,0,1-.27.18.88.88,0,0,1-.64,0,1.14,1.14,0,0,1-.25-.18.93.93,0,0,1-.18-.26.83.83,0,0,1-.06-.32.87.87,0,0,1,.06-.32,1,1,0,0,1,.18-.27.85.85,0,0,1,.25-.17.77.77,0,0,1,.64,0,1,1,0,0,1,.27.17,1.27,1.27,0,0,1,.18.27A.71.71,0,0,1,297.47,141.92Zm-.25,2.07v6.58h-1.16V144Z"/><path class="cls-2" d="M300.21,145a3.81,3.81,0,0,1,.46-.44,2.78,2.78,0,0,1,.51-.33,2.32,2.32,0,0,1,.57-.22,2.7,2.7,0,0,1,.65-.07,2.52,2.52,0,0,1,1,.17,1.78,1.78,0,0,1,.69.51,2.07,2.07,0,0,1,.42.79,3.31,3.31,0,0,1,.15,1v4.19h-1.17v-4.19a1.76,1.76,0,0,0-.34-1.16,1.28,1.28,0,0,0-1-.41,1.85,1.85,0,0,0-.95.25,2.88,2.88,0,0,0-.83.67v4.84h-1.16V144h.7a.28.28,0,0,1,.3.24Z"/><path class="cls-2" d="M306.2,144.92a4,4,0,0,1,1.18-.79,3.71,3.71,0,0,1,1.4-.26,2.35,2.35,0,0,1,1,.19,2,2,0,0,1,.72.5,2.1,2.1,0,0,1,.44.79,3.24,3.24,0,0,1,.15,1v4.21h-.51a.48.48,0,0,1-.26,0,.37.37,0,0,1-.14-.22l-.13-.62q-.27.24-.51.42a3.17,3.17,0,0,1-.52.32,3.58,3.58,0,0,1-.58.19,3,3,0,0,1-.69.07,2.46,2.46,0,0,1-.72-.11,1.77,1.77,0,0,1-.59-.32,1.45,1.45,0,0,1-.39-.54,1.87,1.87,0,0,1-.15-.78,1.47,1.47,0,0,1,.21-.75,2,2,0,0,1,.7-.64,4.49,4.49,0,0,1,1.25-.46,9.07,9.07,0,0,1,1.9-.2v-.52a1.76,1.76,0,0,0-.33-1.16,1.19,1.19,0,0,0-1-.39,2.18,2.18,0,0,0-.72.11,2.59,2.59,0,0,0-.5.24l-.36.24a.51.51,0,0,1-.3.1.32.32,0,0,1-.2-.06.54.54,0,0,1-.15-.15Zm3.74,2.69a9.67,9.67,0,0,0-1.36.13,3.64,3.64,0,0,0-.92.26,1.41,1.41,0,0,0-.51.38.83.83,0,0,0-.16.5,1.06,1.06,0,0,0,.09.45.79.79,0,0,0,.23.31.91.91,0,0,0,.34.17,1.49,1.49,0,0,0,.43.06,2,2,0,0,0,.56-.07,2.64,2.64,0,0,0,.47-.17,3.18,3.18,0,0,0,.43-.28,4.61,4.61,0,0,0,.4-.37Z"/><path class="cls-2" d="M313.93,145.31a3.13,3.13,0,0,1,.77-1.06,1.68,1.68,0,0,1,1.11-.38,1.75,1.75,0,0,1,.4,0,1.16,1.16,0,0,1,.34.14l-.08.87a.19.19,0,0,1-.2.16,1,1,0,0,1-.26,0,1.88,1.88,0,0,0-1,0,1.3,1.3,0,0,0-.43.27,2.26,2.26,0,0,0-.35.44,4.17,4.17,0,0,0-.27.6v4.16h-1.17V144h.67a.37.37,0,0,1,.26.07.39.39,0,0,1,.09.25Z"/><path class="cls-2" d="M320.08,143.89a3.38,3.38,0,0,1,1.3.24,2.7,2.7,0,0,1,1,.68,2.79,2.79,0,0,1,.63,1.07,4.56,4.56,0,0,1,0,2.8,2.86,2.86,0,0,1-.63,1.07,2.83,2.83,0,0,1-1,.68,3.67,3.67,0,0,1-2.61,0,2.91,2.91,0,0,1-1-.68,3,3,0,0,1-.62-1.07,4.56,4.56,0,0,1,0-2.8,2.9,2.9,0,0,1,.62-1.07,2.78,2.78,0,0,1,1-.68A3.36,3.36,0,0,1,320.08,143.89Zm0,5.87a1.69,1.69,0,0,0,1.45-.65,3,3,0,0,0,.48-1.82,3.07,3.07,0,0,0-.48-1.84,1.69,1.69,0,0,0-1.45-.65,2,2,0,0,0-.87.17,1.67,1.67,0,0,0-.61.48,2.21,2.21,0,0,0-.36.79,4.21,4.21,0,0,0-.12,1,3,3,0,0,0,.48,1.82A1.75,1.75,0,0,0,320.08,149.76Z"/><path class="cls-2" d="M265.23,165.65a.25.25,0,0,1,.18.08l.5.54a3.88,3.88,0,0,1-1.39,1,5.17,5.17,0,0,1-3.79,0,4.09,4.09,0,0,1-1.4-1,4.44,4.44,0,0,1-.89-1.51,5.89,5.89,0,0,1,0-3.86,4.46,4.46,0,0,1,.93-1.51,4.28,4.28,0,0,1,1.44-1,4.84,4.84,0,0,1,1.85-.34,4.57,4.57,0,0,1,1.76.31,4.69,4.69,0,0,1,1.34.87l-.42.58a.24.24,0,0,1-.1.1.25.25,0,0,1-.16,0,.56.56,0,0,1-.29-.13,4.34,4.34,0,0,0-.44-.28,3.38,3.38,0,0,0-.68-.29,3.68,3.68,0,0,0-1-.12,3.34,3.34,0,0,0-1.32.25,3,3,0,0,0-1,.72,3.4,3.4,0,0,0-.67,1.16,4.65,4.65,0,0,0-.24,1.54,4.38,4.38,0,0,0,.25,1.55,3.33,3.33,0,0,0,.68,1.16,3.05,3.05,0,0,0,1,.72,3.3,3.3,0,0,0,1.27.24,4.28,4.28,0,0,0,.75-.05,3,3,0,0,0,.62-.15,2.81,2.81,0,0,0,.52-.26,3.4,3.4,0,0,0,.49-.38A.32.32,0,0,1,265.23,165.65Z"/><path class="cls-2" d="M269.75,160.89a3.38,3.38,0,0,1,1.3.24,2.7,2.7,0,0,1,1,.68,2.79,2.79,0,0,1,.63,1.07,4.56,4.56,0,0,1,0,2.8,2.86,2.86,0,0,1-.63,1.07,2.83,2.83,0,0,1-1,.68,3.67,3.67,0,0,1-2.61,0,2.78,2.78,0,0,1-1-.68,2.86,2.86,0,0,1-.63-1.07,4.56,4.56,0,0,1,0-2.8,2.79,2.79,0,0,1,.63-1.07,2.66,2.66,0,0,1,1-.68A3.36,3.36,0,0,1,269.75,160.89Zm0,5.87a1.69,1.69,0,0,0,1.45-.65,3,3,0,0,0,.48-1.82,3.07,3.07,0,0,0-.48-1.84,1.69,1.69,0,0,0-1.45-.65,1.91,1.91,0,0,0-.86.17,1.62,1.62,0,0,0-.62.48,2.21,2.21,0,0,0-.36.79,4.21,4.21,0,0,0-.12,1,3,3,0,0,0,.48,1.82A1.75,1.75,0,0,0,269.75,166.76Z"/><path class="cls-2" d="M275.43,162a4.73,4.73,0,0,1,.46-.44,2.78,2.78,0,0,1,.51-.33A2.32,2.32,0,0,1,277,161a2.7,2.7,0,0,1,.65-.07,2.61,2.61,0,0,1,1,.17,1.94,1.94,0,0,1,.69.51,2.2,2.2,0,0,1,.41.79,3.31,3.31,0,0,1,.15,1v4.19h-1.17v-4.19a1.76,1.76,0,0,0-.34-1.16,1.26,1.26,0,0,0-1-.41,1.86,1.86,0,0,0-1,.25,2.85,2.85,0,0,0-.82.67v4.84h-1.17V161h.7a.28.28,0,0,1,.3.24Z"/><path class="cls-2" d="M285.43,162.08a.26.26,0,0,1-.24.14.55.55,0,0,1-.22-.07l-.3-.16a2.61,2.61,0,0,0-.43-.16,2,2,0,0,0-.58-.08,1.74,1.74,0,0,0-.53.08,1.16,1.16,0,0,0-.4.2,1,1,0,0,0-.25.3.82.82,0,0,0-.09.38.6.6,0,0,0,.15.42,1.16,1.16,0,0,0,.38.29,3.15,3.15,0,0,0,.55.22l.63.2a6.62,6.62,0,0,1,.62.24,2,2,0,0,1,.55.32,1.53,1.53,0,0,1,.39.48,1.59,1.59,0,0,1,.14.68,2.13,2.13,0,0,1-.16.84,1.88,1.88,0,0,1-.48.67,2.29,2.29,0,0,1-.78.45,3.44,3.44,0,0,1-1.07.16,3.35,3.35,0,0,1-1.25-.23,3,3,0,0,1-.94-.57l.27-.44a.3.3,0,0,1,.12-.13.35.35,0,0,1,.18-.05.45.45,0,0,1,.25.09,3.71,3.71,0,0,0,.32.2,2.38,2.38,0,0,0,.45.21,2.1,2.1,0,0,0,.66.09,1.74,1.74,0,0,0,.59-.09,1.22,1.22,0,0,0,.42-.24.94.94,0,0,0,.26-.34,1.16,1.16,0,0,0,.08-.42.68.68,0,0,0-.15-.45,1.37,1.37,0,0,0-.39-.31,4.19,4.19,0,0,0-.55-.22l-.63-.2a5.33,5.33,0,0,1-.63-.23,2.2,2.2,0,0,1-.55-.34,1.41,1.41,0,0,1-.38-.49,1.59,1.59,0,0,1-.15-.72,1.69,1.69,0,0,1,.16-.73,1.76,1.76,0,0,1,.45-.61,2.51,2.51,0,0,1,.74-.42,3,3,0,0,1,1-.15,3.13,3.13,0,0,1,1.17.2,2.8,2.8,0,0,1,.89.56Z"/><path class="cls-2" d="M292.64,161v6.58H292a.29.29,0,0,1-.31-.24l-.09-.7a3.83,3.83,0,0,1-1,.76,2.6,2.6,0,0,1-1.23.29,2.37,2.37,0,0,1-.95-.18,2,2,0,0,1-.69-.5,2.07,2.07,0,0,1-.42-.79,3.64,3.64,0,0,1-.14-1V161h1.16v4.2a1.76,1.76,0,0,0,.34,1.16,1.28,1.28,0,0,0,1,.41,2,2,0,0,0,1-.25,2.85,2.85,0,0,0,.82-.67V161Z"/><path class="cls-2" d="M294.47,167.57V161h.7a.28.28,0,0,1,.3.24l.09.68a3.19,3.19,0,0,1,.82-.74,1.92,1.92,0,0,1,1.05-.28,1.56,1.56,0,0,1,1.08.37,2.07,2.07,0,0,1,.59,1,2.22,2.22,0,0,1,.37-.62,2.24,2.24,0,0,1,.5-.43,2.63,2.63,0,0,1,.6-.25,2.73,2.73,0,0,1,.64-.07,2.43,2.43,0,0,1,.92.16,1.78,1.78,0,0,1,.69.49,2.1,2.1,0,0,1,.43.78,3.43,3.43,0,0,1,.15,1.06v4.19h-1.16v-4.19a1.76,1.76,0,0,0-.34-1.17,1.18,1.18,0,0,0-1-.4,1.49,1.49,0,0,0-.55.1,1.37,1.37,0,0,0-.45.3,1.42,1.42,0,0,0-.31.49,2,2,0,0,0-.11.68v4.19h-1.16v-4.19a1.85,1.85,0,0,0-.32-1.18,1.12,1.12,0,0,0-.93-.39,1.46,1.46,0,0,0-.79.23,2.34,2.34,0,0,0-.67.63v4.9Z"/><path class="cls-2" d="M310.51,166.65a2,2,0,0,1-.52.45,2.74,2.74,0,0,1-.64.32,4,4,0,0,1-.7.18,4.39,4.39,0,0,1-.72.07,3.22,3.22,0,0,1-1.26-.24,2.6,2.6,0,0,1-1-.67,3.16,3.16,0,0,1-.66-1.1,4.65,4.65,0,0,1-.23-1.51,3.88,3.88,0,0,1,.21-1.29,2.88,2.88,0,0,1,.61-1,2.53,2.53,0,0,1,1-.69,3.11,3.11,0,0,1,1.28-.25,3,3,0,0,1,1.1.19,2.71,2.71,0,0,1,.87.58,2.52,2.52,0,0,1,.57.92,3.49,3.49,0,0,1,.21,1.25.72.72,0,0,1-.06.36.23.23,0,0,1-.22.1h-4.4a3.82,3.82,0,0,0,.17,1.08,2.27,2.27,0,0,0,.43.77,1.65,1.65,0,0,0,.65.46,2.24,2.24,0,0,0,.84.16,2.44,2.44,0,0,0,.76-.11,2.77,2.77,0,0,0,.54-.21,3.9,3.9,0,0,0,.38-.22.48.48,0,0,1,.26-.1.25.25,0,0,1,.22.11Zm-.94-3.09a2.43,2.43,0,0,0-.11-.73,1.72,1.72,0,0,0-.33-.58,1.56,1.56,0,0,0-.53-.38,2,2,0,0,0-2,.35,2.29,2.29,0,0,0-.6,1.34Z"/><path class="cls-2" d="M313.13,162.31a3.11,3.11,0,0,1,.76-1.06,1.73,1.73,0,0,1,1.12-.38,1.83,1.83,0,0,1,.4,0,1.28,1.28,0,0,1,.34.14l-.09.87a.18.18,0,0,1-.19.16,1.16,1.16,0,0,1-.27,0,1.64,1.64,0,0,0-.4,0,1.59,1.59,0,0,0-.55.09,1.34,1.34,0,0,0-.44.27,2.23,2.23,0,0,0-.34.44,4.17,4.17,0,0,0-.28.6v4.16H312V161h.66a.35.35,0,0,1,.26.07.45.45,0,0,1,.1.25Z"/><path class="cls-2" d="M327.65,163.1v3.57a5.12,5.12,0,0,1-1.49.76,6.15,6.15,0,0,1-3.78-.1,4.59,4.59,0,0,1-1.54-1,4.22,4.22,0,0,1-1-1.51,5.43,5.43,0,0,1-.34-1.93,5.23,5.23,0,0,1,.34-1.94,4.27,4.27,0,0,1,.95-1.51,4.18,4.18,0,0,1,1.5-1,5.4,5.4,0,0,1,2-.34,5.52,5.52,0,0,1,1,.08,4.53,4.53,0,0,1,.88.23,4.36,4.36,0,0,1,.75.37,5.16,5.16,0,0,1,.64.49l-.36.57a.34.34,0,0,1-.21.17.43.43,0,0,1-.3-.06l-.36-.22a2.78,2.78,0,0,0-.49-.25,4.24,4.24,0,0,0-.68-.21,5,5,0,0,0-.93-.08,3.83,3.83,0,0,0-1.43.25,3.15,3.15,0,0,0-1.08.74,3.2,3.2,0,0,0-.69,1.16,5,5,0,0,0,0,3.09,3.27,3.27,0,0,0,.71,1.18,3,3,0,0,0,1.13.73,4.12,4.12,0,0,0,1.49.26,4,4,0,0,0,1.15-.15,5.26,5.26,0,0,0,1-.4v-2.05h-1.45a.32.32,0,0,1-.2-.07.25.25,0,0,1-.08-.18v-.71Z"/><path class="cls-2" d="M330.31,162.31a3.11,3.11,0,0,1,.76-1.06,1.73,1.73,0,0,1,1.12-.38,1.83,1.83,0,0,1,.4,0,1.28,1.28,0,0,1,.34.14l-.09.87a.18.18,0,0,1-.19.16,1.16,1.16,0,0,1-.27,0,1.64,1.64,0,0,0-.4,0,1.59,1.59,0,0,0-.55.09,1.34,1.34,0,0,0-.44.27,1.91,1.91,0,0,0-.34.44,4.17,4.17,0,0,0-.28.6v4.16h-1.16V161h.66a.35.35,0,0,1,.26.07.45.45,0,0,1,.1.25Z"/><path class="cls-2" d="M336.45,160.89a3.38,3.38,0,0,1,1.3.24,2.74,2.74,0,0,1,1,.68,2.9,2.9,0,0,1,.62,1.07,4.56,4.56,0,0,1,0,2.8,3,3,0,0,1-.62,1.07,2.87,2.87,0,0,1-1,.68,3.67,3.67,0,0,1-2.61,0,2.78,2.78,0,0,1-1-.68,3.16,3.16,0,0,1-.63-1.07,4.33,4.33,0,0,1-.22-1.4,4.37,4.37,0,0,1,.22-1.4,3.06,3.06,0,0,1,.63-1.07,2.66,2.66,0,0,1,1-.68A3.4,3.4,0,0,1,336.45,160.89Zm0,5.87a1.72,1.72,0,0,0,1.46-.65,3,3,0,0,0,.48-1.82,3.07,3.07,0,0,0-.48-1.84,1.72,1.72,0,0,0-1.46-.65,1.91,1.91,0,0,0-.86.17,1.52,1.52,0,0,0-.61.48,2.07,2.07,0,0,0-.37.79,4.21,4.21,0,0,0-.12,1,3,3,0,0,0,.49,1.82A1.72,1.72,0,0,0,336.45,166.76Z"/><path class="cls-2" d="M346.46,161v6.58h-.69a.29.29,0,0,1-.31-.24l-.09-.7a3.83,3.83,0,0,1-1,.76,2.6,2.6,0,0,1-1.23.29,2.37,2.37,0,0,1-.95-.18,2,2,0,0,1-.69-.5,2.07,2.07,0,0,1-.42-.79,3.64,3.64,0,0,1-.14-1V161h1.16v4.2a1.76,1.76,0,0,0,.34,1.16,1.28,1.28,0,0,0,1,.41,2,2,0,0,0,1-.25,2.85,2.85,0,0,0,.82-.67V161Z"/><path class="cls-2" d="M349.4,162a3.44,3.44,0,0,1,1-.83,2.54,2.54,0,0,1,1.25-.31,2.47,2.47,0,0,1,1,.22,2.21,2.21,0,0,1,.79.64,3.36,3.36,0,0,1,.5,1.06,5.71,5.71,0,0,1,.17,1.45,4.56,4.56,0,0,1-.19,1.36,3.35,3.35,0,0,1-.56,1.08,2.61,2.61,0,0,1-.9.72,2.57,2.57,0,0,1-1.19.27,2.28,2.28,0,0,1-1.8-.78v2.91h-1.17V161h.7a.28.28,0,0,1,.3.24Zm.06,4a1.82,1.82,0,0,0,.69.6,1.93,1.93,0,0,0,.85.18,1.66,1.66,0,0,0,1.41-.66,3.06,3.06,0,0,0,.5-1.87,4.35,4.35,0,0,0-.12-1.1,2.13,2.13,0,0,0-.32-.76,1.28,1.28,0,0,0-.53-.43,1.64,1.64,0,0,0-.71-.14,1.87,1.87,0,0,0-1,.26,2.68,2.68,0,0,0-.78.73Z"/><path class="cls-2" d="M401,149.52v1h-5.28v-9.31H397v8.26Z"/><path class="cls-2" d="M403.58,141.92a.68.68,0,0,1-.07.32,1.2,1.2,0,0,1-.18.26,1.27,1.27,0,0,1-.27.18.88.88,0,0,1-.64,0,1.14,1.14,0,0,1-.25-.18.93.93,0,0,1-.18-.26.83.83,0,0,1-.06-.32.87.87,0,0,1,.06-.32,1,1,0,0,1,.18-.27.85.85,0,0,1,.25-.17.77.77,0,0,1,.64,0,1,1,0,0,1,.27.17,1.27,1.27,0,0,1,.18.27A.71.71,0,0,1,403.58,141.92Zm-.25,2.07v6.58h-1.16V144Z"/><path class="cls-2" d="M406.32,145a3.81,3.81,0,0,1,.46-.44,2.78,2.78,0,0,1,.51-.33,2.32,2.32,0,0,1,.57-.22,2.7,2.7,0,0,1,.65-.07,2.52,2.52,0,0,1,.95.17,1.78,1.78,0,0,1,.69.51,2.07,2.07,0,0,1,.42.79,3.31,3.31,0,0,1,.15,1v4.19h-1.17v-4.19a1.76,1.76,0,0,0-.34-1.16,1.28,1.28,0,0,0-1-.41,1.85,1.85,0,0,0-.95.25,2.88,2.88,0,0,0-.83.67v4.84h-1.16V144h.69a.29.29,0,0,1,.31.24Z"/><path class="cls-2" d="M412.31,144.92a4,4,0,0,1,1.18-.79,3.71,3.71,0,0,1,1.4-.26,2.35,2.35,0,0,1,1,.19,2,2,0,0,1,.72.5,2.1,2.1,0,0,1,.44.79,3.24,3.24,0,0,1,.15,1v4.21h-.51a.48.48,0,0,1-.26,0,.37.37,0,0,1-.14-.22l-.13-.62q-.27.24-.51.42a3.17,3.17,0,0,1-.52.32,3.58,3.58,0,0,1-.58.19,3,3,0,0,1-.69.07,2.46,2.46,0,0,1-.72-.11,1.68,1.68,0,0,1-.59-.32,1.34,1.34,0,0,1-.39-.54,1.87,1.87,0,0,1-.15-.78,1.47,1.47,0,0,1,.21-.75,2,2,0,0,1,.7-.64,4.49,4.49,0,0,1,1.25-.46,9.07,9.07,0,0,1,1.9-.2v-.52a1.76,1.76,0,0,0-.33-1.16,1.19,1.19,0,0,0-1-.39,2.18,2.18,0,0,0-.72.11,2.59,2.59,0,0,0-.5.24l-.36.24a.51.51,0,0,1-.3.1.37.37,0,0,1-.21-.06.67.67,0,0,1-.14-.15Zm3.74,2.69a9.52,9.52,0,0,0-1.36.13,3.52,3.52,0,0,0-.92.26,1.41,1.41,0,0,0-.51.38.83.83,0,0,0-.16.5,1.25,1.25,0,0,0,.08.45.92.92,0,0,0,.24.31.91.91,0,0,0,.34.17,1.44,1.44,0,0,0,.43.06,1.88,1.88,0,0,0,.55-.07,2.48,2.48,0,0,0,.48-.17,3.18,3.18,0,0,0,.43-.28,4.61,4.61,0,0,0,.4-.37Z"/><path class="cls-2" d="M420,145.31a3.13,3.13,0,0,1,.77-1.06,1.68,1.68,0,0,1,1.11-.38,1.75,1.75,0,0,1,.4,0,1.16,1.16,0,0,1,.34.14l-.08.87a.19.19,0,0,1-.2.16,1,1,0,0,1-.26,0,1.88,1.88,0,0,0-1,0,1.3,1.3,0,0,0-.43.27,1.94,1.94,0,0,0-.35.44,4.17,4.17,0,0,0-.27.6v4.16h-1.17V144h.67a.37.37,0,0,1,.26.07.45.45,0,0,1,.09.25Z"/><path class="cls-2" d="M426.18,143.89a3.31,3.31,0,0,1,1.3.24,2.66,2.66,0,0,1,1,.68,2.92,2.92,0,0,1,.63,1.07,4.56,4.56,0,0,1,0,2.8,3,3,0,0,1-.63,1.07,2.78,2.78,0,0,1-1,.68,3.31,3.31,0,0,1-1.3.24,3.35,3.35,0,0,1-1.3-.24,2.91,2.91,0,0,1-1-.68,3,3,0,0,1-.62-1.07,4.56,4.56,0,0,1,0-2.8,2.9,2.9,0,0,1,.62-1.07,2.78,2.78,0,0,1,1-.68A3.35,3.35,0,0,1,426.18,143.89Zm0,5.87a1.71,1.71,0,0,0,1.46-.65,3,3,0,0,0,.48-1.82,3.07,3.07,0,0,0-.48-1.84,1.71,1.71,0,0,0-1.46-.65,2,2,0,0,0-.86.17,1.67,1.67,0,0,0-.61.48,2.21,2.21,0,0,0-.36.79,4.21,4.21,0,0,0-.12,1,3,3,0,0,0,.48,1.82A1.74,1.74,0,0,0,426.18,149.76Z"/><path class="cls-2" d="M442.45,145.92a5.32,5.32,0,0,1-.33,1.91,4.1,4.1,0,0,1-2.39,2.41,5.1,5.1,0,0,1-1.87.33h-3.48v-9.31h3.48a4.9,4.9,0,0,1,1.87.34,4.12,4.12,0,0,1,1.46.94,4.24,4.24,0,0,1,.93,1.48A5.23,5.23,0,0,1,442.45,145.92Zm-1.29,0a4.82,4.82,0,0,0-.23-1.53,3.26,3.26,0,0,0-.67-1.15,2.72,2.72,0,0,0-1-.71,3.47,3.47,0,0,0-1.36-.25h-2.22v7.27h2.22a3.66,3.66,0,0,0,1.36-.24,2.83,2.83,0,0,0,1-.71,3.17,3.17,0,0,0,.67-1.15A4.82,4.82,0,0,0,441.16,145.92Z"/><path class="cls-2" d="M443.66,144.92a3.84,3.84,0,0,1,1.17-.79,3.71,3.71,0,0,1,1.4-.26,2.32,2.32,0,0,1,1,.19,2,2,0,0,1,.72.5,2.12,2.12,0,0,1,.45.79,3.25,3.25,0,0,1,.14,1v4.21H448a.48.48,0,0,1-.26,0,.37.37,0,0,1-.14-.22l-.13-.62a4.71,4.71,0,0,1-.51.42,2.8,2.8,0,0,1-.52.32,3.29,3.29,0,0,1-.58.19,2.93,2.93,0,0,1-.69.07,2.46,2.46,0,0,1-.72-.11,1.77,1.77,0,0,1-.59-.32,1.57,1.57,0,0,1-.39-.54,1.87,1.87,0,0,1-.15-.78,1.39,1.39,0,0,1,.22-.75,1.87,1.87,0,0,1,.69-.64,4.45,4.45,0,0,1,1.26-.46,8.9,8.9,0,0,1,1.89-.2v-.52a1.76,1.76,0,0,0-.33-1.16,1.19,1.19,0,0,0-1-.39,2.08,2.08,0,0,0-.71.11,2.33,2.33,0,0,0-.5.24l-.37.24a.51.51,0,0,1-.3.1.32.32,0,0,1-.2-.06.54.54,0,0,1-.15-.15Zm3.73,2.69a9.67,9.67,0,0,0-1.36.13,3.44,3.44,0,0,0-.91.26,1.38,1.38,0,0,0-.52.38.9.9,0,0,0-.16.5,1.06,1.06,0,0,0,.09.45.79.79,0,0,0,.23.31,1,1,0,0,0,.34.17,1.49,1.49,0,0,0,.43.06,2,2,0,0,0,.56-.07,2.17,2.17,0,0,0,.47-.17,2.65,2.65,0,0,0,.43-.28,4.61,4.61,0,0,0,.4-.37Z"/><path class="cls-2" d="M452.22,150.68a1.59,1.59,0,0,1-1.2-.44,1.73,1.73,0,0,1-.41-1.25v-4h-.8a.24.24,0,0,1-.17-.06.24.24,0,0,1-.08-.19v-.47l1.08-.13.27-2a.26.26,0,0,1,.09-.16.24.24,0,0,1,.18-.06h.58v2.27h1.91V145h-1.91v3.95a.87.87,0,0,0,.2.62.73.73,0,0,0,.52.2,1,1,0,0,0,.32,0,1,1,0,0,0,.23-.11l.17-.1a.16.16,0,0,1,.12-.05.19.19,0,0,1,.16.11l.34.55a2.18,2.18,0,0,1-.72.44A2.44,2.44,0,0,1,452.22,150.68Z"/><path class="cls-2" d="M454.69,144.92a4,4,0,0,1,1.18-.79,3.71,3.71,0,0,1,1.4-.26,2.35,2.35,0,0,1,1,.19,2,2,0,0,1,.72.5,2.1,2.1,0,0,1,.44.79,3.24,3.24,0,0,1,.15,1v4.21h-.51a.48.48,0,0,1-.26,0,.37.37,0,0,1-.14-.22l-.13-.62q-.27.24-.51.42a3.17,3.17,0,0,1-.52.32,3.58,3.58,0,0,1-.58.19,3,3,0,0,1-.69.07,2.46,2.46,0,0,1-.72-.11,1.68,1.68,0,0,1-.59-.32,1.34,1.34,0,0,1-.39-.54,1.87,1.87,0,0,1-.15-.78,1.47,1.47,0,0,1,.21-.75,2,2,0,0,1,.7-.64,4.49,4.49,0,0,1,1.25-.46,9.07,9.07,0,0,1,1.9-.2v-.52a1.76,1.76,0,0,0-.33-1.16,1.19,1.19,0,0,0-1-.39,2.18,2.18,0,0,0-.72.11,2.59,2.59,0,0,0-.5.24l-.36.24a.51.51,0,0,1-.3.1.37.37,0,0,1-.21-.06.67.67,0,0,1-.14-.15Zm3.74,2.69a9.52,9.52,0,0,0-1.36.13,3.52,3.52,0,0,0-.92.26,1.41,1.41,0,0,0-.51.38.83.83,0,0,0-.16.5,1.25,1.25,0,0,0,.08.45.92.92,0,0,0,.24.31.91.91,0,0,0,.34.17,1.44,1.44,0,0,0,.43.06,1.88,1.88,0,0,0,.55-.07,2.48,2.48,0,0,0,.48-.17,4,4,0,0,0,.43-.28,4.61,4.61,0,0,0,.4-.37Z"/><path class="cls-2" d="M396.38,165.65a.25.25,0,0,1,.18.08l.5.54a3.88,3.88,0,0,1-1.39,1,5.17,5.17,0,0,1-3.79,0,4.19,4.19,0,0,1-1.4-1,4.44,4.44,0,0,1-.89-1.51,5.89,5.89,0,0,1,0-3.86,4.46,4.46,0,0,1,.93-1.51,4.28,4.28,0,0,1,1.44-1,4.84,4.84,0,0,1,1.85-.34,4.57,4.57,0,0,1,1.76.31,4.69,4.69,0,0,1,1.34.87l-.42.58a.24.24,0,0,1-.1.1.25.25,0,0,1-.16,0,.56.56,0,0,1-.29-.13,4.34,4.34,0,0,0-.44-.28,3.38,3.38,0,0,0-.68-.29,3.68,3.68,0,0,0-1-.12,3.34,3.34,0,0,0-1.32.25,3,3,0,0,0-1,.72,3.4,3.4,0,0,0-.67,1.16,4.65,4.65,0,0,0-.24,1.54,4.38,4.38,0,0,0,.25,1.55,3.33,3.33,0,0,0,.68,1.16,3.05,3.05,0,0,0,1,.72,3.3,3.3,0,0,0,1.27.24,4.28,4.28,0,0,0,.75-.05,3,3,0,0,0,.62-.15,2.81,2.81,0,0,0,.52-.26,3.4,3.4,0,0,0,.49-.38A.32.32,0,0,1,396.38,165.65Z"/><path class="cls-2" d="M403.46,166.65a1.84,1.84,0,0,1-.51.45,3,3,0,0,1-.64.32,4.23,4.23,0,0,1-.7.18,4.62,4.62,0,0,1-.73.07,3.2,3.2,0,0,1-1.25-.24,2.63,2.63,0,0,1-1-.67,3,3,0,0,1-.65-1.1,4.39,4.39,0,0,1-.24-1.51,3.64,3.64,0,0,1,.22-1.29,3,3,0,0,1,.6-1,2.69,2.69,0,0,1,1-.69,3.13,3.13,0,0,1,1.29-.25,3,3,0,0,1,1.09.19,2.48,2.48,0,0,1,1.45,1.5,3.49,3.49,0,0,1,.21,1.25.72.72,0,0,1-.06.36.23.23,0,0,1-.22.1h-4.4a3.82,3.82,0,0,0,.17,1.08,2.12,2.12,0,0,0,.43.77,1.65,1.65,0,0,0,.65.46,2.24,2.24,0,0,0,.84.16,2.37,2.37,0,0,0,.75-.11,2.77,2.77,0,0,0,.54-.21,3,3,0,0,0,.38-.22.5.5,0,0,1,.27-.1.27.27,0,0,1,.22.11Zm-.93-3.09a2.15,2.15,0,0,0-.12-.73,1.44,1.44,0,0,0-.33-.58,1.47,1.47,0,0,0-.53-.38,1.71,1.71,0,0,0-.7-.13,1.78,1.78,0,0,0-1.32.48,2.29,2.29,0,0,0-.6,1.34Z"/><path class="cls-2" d="M406.08,162a3.73,3.73,0,0,1,.45-.44,2.78,2.78,0,0,1,.51-.33,2.32,2.32,0,0,1,.57-.22,2.78,2.78,0,0,1,.66-.07,2.55,2.55,0,0,1,1,.17,1.78,1.78,0,0,1,.69.51,2.38,2.38,0,0,1,.42.79,3.64,3.64,0,0,1,.14,1v4.19h-1.16v-4.19a1.82,1.82,0,0,0-.34-1.16,1.3,1.3,0,0,0-1-.41,1.91,1.91,0,0,0-1,.25,2.85,2.85,0,0,0-.82.67v4.84H405V161h.69a.29.29,0,0,1,.31.24Z"/><path class="cls-2" d="M414.17,167.68a1.59,1.59,0,0,1-1.2-.44,1.73,1.73,0,0,1-.42-1.25v-4h-.79a.28.28,0,0,1-.18-.06.27.27,0,0,1-.07-.19v-.47l1.08-.13.27-2a.3.3,0,0,1,.08-.16.28.28,0,0,1,.18-.06h.59v2.27h1.9V162h-1.9v3.95a.87.87,0,0,0,.2.62.72.72,0,0,0,.52.2,1,1,0,0,0,.32,0l.23-.11.16-.1a.19.19,0,0,1,.12-.05.18.18,0,0,1,.16.11l.34.55a2.18,2.18,0,0,1-.72.44A2.35,2.35,0,0,1,414.17,167.68Z"/><path class="cls-2" d="M422.12,166.65a1.84,1.84,0,0,1-.51.45,3.19,3.19,0,0,1-.64.32,4.35,4.35,0,0,1-.71.18,4.39,4.39,0,0,1-.72.07,3.22,3.22,0,0,1-1.26-.24,2.68,2.68,0,0,1-1-.67,3.16,3.16,0,0,1-.66-1.1,4.65,4.65,0,0,1-.23-1.51,3.88,3.88,0,0,1,.21-1.29,2.88,2.88,0,0,1,.61-1,2.61,2.61,0,0,1,1-.69,3.11,3.11,0,0,1,1.28-.25,3,3,0,0,1,1.1.19,2.6,2.6,0,0,1,.87.58,2.68,2.68,0,0,1,.58.92,3.72,3.72,0,0,1,.2,1.25.72.72,0,0,1-.06.36c0,.07-.11.1-.22.1h-4.4a3.81,3.81,0,0,0,.18,1.08,2.1,2.1,0,0,0,.42.77,1.65,1.65,0,0,0,.65.46,2.26,2.26,0,0,0,.85.16,2.37,2.37,0,0,0,.75-.11,2.77,2.77,0,0,0,.54-.21,3.9,3.9,0,0,0,.38-.22.48.48,0,0,1,.26-.1.25.25,0,0,1,.22.11Zm-.94-3.09a2.43,2.43,0,0,0-.11-.73,1.72,1.72,0,0,0-.33-.58,1.56,1.56,0,0,0-.53-.38,1.8,1.8,0,0,0-.71-.13,1.82,1.82,0,0,0-1.32.48,2.29,2.29,0,0,0-.6,1.34Z"/><path class="cls-2" d="M424.74,162.31a3,3,0,0,1,.77-1.06,1.68,1.68,0,0,1,1.11-.38,1.75,1.75,0,0,1,.4,0,1.28,1.28,0,0,1,.34.14l-.09.87a.18.18,0,0,1-.19.16,1.16,1.16,0,0,1-.27,0,1.56,1.56,0,0,0-.39,0,1.6,1.6,0,0,0-.56.09,1.34,1.34,0,0,0-.44.27,2.23,2.23,0,0,0-.34.44,5.62,5.62,0,0,0-.28.6v4.16h-1.16V161h.66c.13,0,.22,0,.26.07a.45.45,0,0,1,.1.25Z"/><path class="cls-2" d="M439.27,163.1v3.57a5.31,5.31,0,0,1-1.5.76,6.15,6.15,0,0,1-3.78-.1,4.59,4.59,0,0,1-1.54-1,4.2,4.2,0,0,1-1-1.51,5.6,5.6,0,0,1,0-3.87,4.27,4.27,0,0,1,1-1.51,4.18,4.18,0,0,1,1.5-1,5.41,5.41,0,0,1,2-.34,5.48,5.48,0,0,1,1,.08,4.53,4.53,0,0,1,.88.23,4.36,4.36,0,0,1,.75.37,5.16,5.16,0,0,1,.64.49l-.36.57a.32.32,0,0,1-.21.17.43.43,0,0,1-.3-.06l-.36-.22a2.47,2.47,0,0,0-.49-.25,4.24,4.24,0,0,0-.68-.21,5,5,0,0,0-.93-.08,3.83,3.83,0,0,0-1.43.25,3.15,3.15,0,0,0-1.08.74,3.2,3.2,0,0,0-.69,1.16,5,5,0,0,0,0,3.09,3.41,3.41,0,0,0,.71,1.18,3,3,0,0,0,1.13.73,4.12,4.12,0,0,0,1.49.26,4,4,0,0,0,1.15-.15,5.26,5.26,0,0,0,1-.4v-2.05h-1.45a.32.32,0,0,1-.2-.07.24.24,0,0,1-.07-.18v-.71Z"/><path class="cls-2" d="M441.92,162.31a3,3,0,0,1,.77-1.06,1.68,1.68,0,0,1,1.11-.38,1.75,1.75,0,0,1,.4,0,1.28,1.28,0,0,1,.34.14l-.09.87a.18.18,0,0,1-.19.16,1.16,1.16,0,0,1-.27,0,1.56,1.56,0,0,0-.39,0,1.6,1.6,0,0,0-.56.09,1.34,1.34,0,0,0-.44.27,2.23,2.23,0,0,0-.34.44,5.62,5.62,0,0,0-.28.6v4.16h-1.16V161h.66c.13,0,.22,0,.26.07a.45.45,0,0,1,.1.25Z"/><path class="cls-2" d="M448.06,160.89a3.35,3.35,0,0,1,1.3.24,2.66,2.66,0,0,1,1,.68,3.06,3.06,0,0,1,.63,1.07,4.77,4.77,0,0,1,0,2.8,3.16,3.16,0,0,1-.63,1.07,2.78,2.78,0,0,1-1,.68,3.35,3.35,0,0,1-1.3.24,3.43,3.43,0,0,1-1.31-.24,2.78,2.78,0,0,1-1-.68,3.16,3.16,0,0,1-.63-1.07,4.33,4.33,0,0,1-.22-1.4,4.37,4.37,0,0,1,.22-1.4,3.06,3.06,0,0,1,.63-1.07,2.66,2.66,0,0,1,1-.68A3.43,3.43,0,0,1,448.06,160.89Zm0,5.87a1.71,1.71,0,0,0,1.46-.65,3,3,0,0,0,.48-1.82,3.07,3.07,0,0,0-.48-1.84,1.71,1.71,0,0,0-1.46-.65,1.91,1.91,0,0,0-.86.17,1.59,1.59,0,0,0-.61.48,2.21,2.21,0,0,0-.36.79,3.77,3.77,0,0,0-.13,1,3,3,0,0,0,.49,1.82A1.72,1.72,0,0,0,448.06,166.76Z"/><path class="cls-2" d="M458.07,161v6.58h-.69a.29.29,0,0,1-.31-.24l-.09-.7a3.83,3.83,0,0,1-1,.76,2.59,2.59,0,0,1-1.22.29,2.38,2.38,0,0,1-1-.18,2,2,0,0,1-.69-.5,2.07,2.07,0,0,1-.42-.79,3.64,3.64,0,0,1-.14-1V161h1.16v4.2a1.76,1.76,0,0,0,.34,1.16,1.28,1.28,0,0,0,1,.41,2,2,0,0,0,1-.25,2.85,2.85,0,0,0,.82-.67V161Z"/><path class="cls-2" d="M461,162a3.59,3.59,0,0,1,1-.83,2.54,2.54,0,0,1,1.25-.31,2.47,2.47,0,0,1,1,.22,2.21,2.21,0,0,1,.79.64,3.16,3.16,0,0,1,.5,1.06,5.27,5.27,0,0,1,.18,1.45,4.56,4.56,0,0,1-.2,1.36,3.35,3.35,0,0,1-.56,1.08,2.61,2.61,0,0,1-.9.72,2.57,2.57,0,0,1-1.19.27,2.38,2.38,0,0,1-1-.21,2.34,2.34,0,0,1-.76-.57v2.91H459.9V161h.7a.28.28,0,0,1,.3.24Zm.06,4a1.82,1.82,0,0,0,.69.6,2,2,0,0,0,.85.18,1.65,1.65,0,0,0,1.41-.66,3.06,3.06,0,0,0,.5-1.87,4.35,4.35,0,0,0-.12-1.1,2.13,2.13,0,0,0-.32-.76,1.28,1.28,0,0,0-.53-.43,1.61,1.61,0,0,0-.71-.14,1.9,1.9,0,0,0-1,.26,3,3,0,0,0-.78.73Z"/></g></svg>