<svg xmlns="http://www.w3.org/2000/svg" viewBox="0 0 497.99 183.3"><defs><style>.cls-1{fill:#585858;opacity:0.8;}.cls-2{fill:#fff;}.cls-3{opacity:0.69;}.cls-4,.cls-5{fill:none;}.cls-4{stroke:#9c3;stroke-linecap:round;stroke-miterlimit:10;stroke-width:1.72px;stroke-dasharray:0.29 4.57;}</style></defs><g id="map"><rect class="cls-1" x="0.33" y="0.27" width="497.99" height="183.3" rx="6.66"/><path class="cls-2" d="M26.58,26.75H24.35a.93.93,0,0,1-.6-.17,1.19,1.19,0,0,1-.35-.45L22.67,24H18l-.73,2.16a1,1,0,0,1-.34.43.92.92,0,0,1-.6.19H14.05l4.79-12.38h2.95ZM22,22l-1.14-3.39c-.09-.22-.18-.47-.27-.76s-.2-.61-.29-.95c-.09.34-.18.66-.28,1a8.06,8.06,0,0,1-.27.76L18.62,22Z"/><path class="cls-2" d="M33.5,20a1.66,1.66,0,0,1-.23.23.49.49,0,0,1-.32.08.7.7,0,0,1-.35-.09L32.25,20a4.09,4.09,0,0,0-.46-.21,2,2,0,0,0-.65-.09,1.8,1.8,0,0,0-.84.18,1.5,1.5,0,0,0-.58.51,2.13,2.13,0,0,0-.34.81,4.52,4.52,0,0,0-.11,1.09,3.33,3.33,0,0,0,.48,1.94A1.59,1.59,0,0,0,31.1,25a2,2,0,0,0,.73-.11,2.32,2.32,0,0,0,.45-.26l.35-.26A.61.61,0,0,1,33,24.2a.56.56,0,0,1,.48.23l.76.95a4.26,4.26,0,0,1-.85.76,4.73,4.73,0,0,1-.93.46,5.37,5.37,0,0,1-.94.23,7.5,7.5,0,0,1-.93.06,3.85,3.85,0,0,1-1.54-.31,3.94,3.94,0,0,1-1.3-.88,4.32,4.32,0,0,1-.88-1.44,5.28,5.28,0,0,1-.33-1.93,5.51,5.51,0,0,1,.29-1.79,4,4,0,0,1,.84-1.43,3.81,3.81,0,0,1,1.38-1A4.84,4.84,0,0,1,31,17.8a4.6,4.6,0,0,1,1.81.33,4.54,4.54,0,0,1,1.42,1Z"/><path class="cls-2" d="M41.62,20a1.66,1.66,0,0,1-.23.23.51.51,0,0,1-.32.08.68.68,0,0,1-.35-.09L40.37,20c-.13-.07-.29-.14-.46-.21a2.1,2.1,0,0,0-.66-.09,1.78,1.78,0,0,0-.83.18,1.61,1.61,0,0,0-.59.51,2.5,2.5,0,0,0-.34.81,5.08,5.08,0,0,0-.11,1.09,3.33,3.33,0,0,0,.49,1.94,1.59,1.59,0,0,0,1.35.68,2,2,0,0,0,.73-.11,2.67,2.67,0,0,0,.45-.26l.35-.26a.61.61,0,0,1,.39-.12.56.56,0,0,1,.48.23l.76.95a4.31,4.31,0,0,1-.86.76,4.4,4.4,0,0,1-.92.46,5.26,5.26,0,0,1-1,.23,7.22,7.22,0,0,1-.92.06,3.9,3.9,0,0,1-1.55-.31,3.8,3.8,0,0,1-1.29-.88A4.32,4.32,0,0,1,35,24.26a5.28,5.28,0,0,1-.33-1.93A5.79,5.79,0,0,1,35,20.54a4,4,0,0,1,.85-1.43,3.85,3.85,0,0,1,1.37-1,4.88,4.88,0,0,1,1.9-.35,4.24,4.24,0,0,1,3.23,1.3Z"/><path class="cls-2" d="M45.42,22.82a2.48,2.48,0,0,0,.68,1.6,2,2,0,0,0,1.4.5,2.64,2.64,0,0,0,.79-.11,4.76,4.76,0,0,0,.59-.25l.48-.25a1,1,0,0,1,.45-.11.56.56,0,0,1,.48.23l.76.95a3.91,3.91,0,0,1-.88.76,4.77,4.77,0,0,1-1,.46,5.9,5.9,0,0,1-1,.23,7.94,7.94,0,0,1-1,.06,5,5,0,0,1-1.74-.3,4,4,0,0,1-1.42-.9,4.41,4.41,0,0,1-1-1.48,5.61,5.61,0,0,1-.35-2.05,4.72,4.72,0,0,1,.3-1.68,4.05,4.05,0,0,1,2.24-2.33,4.53,4.53,0,0,1,1.81-.35,4.3,4.3,0,0,1,1.6.28,3.38,3.38,0,0,1,1.25.79,3.53,3.53,0,0,1,.82,1.27,4.77,4.77,0,0,1,.29,1.7c0,.2,0,.36,0,.49a.7.7,0,0,1-.1.29.31.31,0,0,1-.18.16,1.12,1.12,0,0,1-.29,0Zm3.32-1.53a2.43,2.43,0,0,0-.08-.61,1.69,1.69,0,0,0-.26-.54,1.47,1.47,0,0,0-.48-.37,1.61,1.61,0,0,0-.73-.15,1.55,1.55,0,0,0-1.17.43,2.27,2.27,0,0,0-.56,1.24Z"/><path class="cls-2" d="M58,19.87a.7.7,0,0,1-.22.23.59.59,0,0,1-.29.07.84.84,0,0,1-.37-.09l-.41-.17a3.79,3.79,0,0,0-.48-.17,2,2,0,0,0-.63-.08,1.25,1.25,0,0,0-.76.19.6.6,0,0,0-.27.53.57.57,0,0,0,.17.41,1.81,1.81,0,0,0,.46.28c.2.08.42.16.66.23l.75.25a8,8,0,0,1,.75.32,2.69,2.69,0,0,1,.65.45,2,2,0,0,1,.46.65,2.16,2.16,0,0,1,.18.92,3,3,0,0,1-.24,1.21,2.73,2.73,0,0,1-.71.95,3.46,3.46,0,0,1-1.16.62,5.25,5.25,0,0,1-1.6.22,4.58,4.58,0,0,1-.9-.09,6.15,6.15,0,0,1-.87-.22,5.57,5.57,0,0,1-.78-.35,3.28,3.28,0,0,1-.61-.43l.61-1a1,1,0,0,1,.26-.27.82.82,0,0,1,.4-.09.84.84,0,0,1,.42.1l.39.22a3.39,3.39,0,0,0,.5.22,2.12,2.12,0,0,0,.72.1,2,2,0,0,0,.52-.06.85.85,0,0,0,.34-.18.69.69,0,0,0,.18-.24.71.71,0,0,0,.06-.28.59.59,0,0,0-.18-.44,1.58,1.58,0,0,0-.46-.29c-.2-.08-.42-.16-.66-.23s-.5-.15-.75-.24a5.63,5.63,0,0,1-.76-.33,3.09,3.09,0,0,1-.66-.48,2.4,2.4,0,0,1-.46-.72,2.86,2.86,0,0,1,0-2.1,2.4,2.4,0,0,1,.65-.88A3.05,3.05,0,0,1,54,18a5.07,5.07,0,0,1,2.46-.14,3.78,3.78,0,0,1,.83.24,4,4,0,0,1,.72.36,4.35,4.35,0,0,1,.57.45Z"/><path class="cls-2" d="M65.59,19.87a.68.68,0,0,1-.21.23.66.66,0,0,1-.3.07.87.87,0,0,1-.37-.09l-.4-.17a4.65,4.65,0,0,0-.49-.17,2,2,0,0,0-.62-.08,1.29,1.29,0,0,0-.77.19.6.6,0,0,0-.27.53.57.57,0,0,0,.17.41,1.88,1.88,0,0,0,.47.28,6.06,6.06,0,0,0,.65.23l.75.25a6.26,6.26,0,0,1,.75.32,2.69,2.69,0,0,1,.65.45,2,2,0,0,1,.47.65,2.32,2.32,0,0,1,.17.92A3,3,0,0,1,66,25.1a2.61,2.61,0,0,1-.71.95,3.46,3.46,0,0,1-1.16.62,5.14,5.14,0,0,1-1.59.22,4.6,4.6,0,0,1-.91-.09,6.15,6.15,0,0,1-.87-.22,5.57,5.57,0,0,1-.78-.35,3.65,3.65,0,0,1-.61-.43l.61-1a1,1,0,0,1,.26-.27.83.83,0,0,1,.41-.09.8.8,0,0,1,.41.1l.4.22A3.24,3.24,0,0,0,62,25a2.12,2.12,0,0,0,.72.1,1.9,1.9,0,0,0,.52-.06.85.85,0,0,0,.34-.18.72.72,0,0,0,.19-.24.71.71,0,0,0,.06-.28.59.59,0,0,0-.18-.44,1.64,1.64,0,0,0-.47-.29,5.57,5.57,0,0,0-.66-.23q-.37-.11-.75-.24a5,5,0,0,1-.75-.33,2.66,2.66,0,0,1-.66-.48,2.43,2.43,0,0,1-.47-.72,2.86,2.86,0,0,1,0-2.1,2.4,2.4,0,0,1,.65-.88A3.1,3.1,0,0,1,61.62,18a4.65,4.65,0,0,1,1.53-.23,4.7,4.7,0,0,1,.92.09,3.72,3.72,0,0,1,.84.24,3.63,3.63,0,0,1,.71.36,3.33,3.33,0,0,1,.57.45Z"/><path class="cls-2" d="M74.65,26.89a3.15,3.15,0,0,1-1.11-.18,2.16,2.16,0,0,1-1.31-1.33,3.29,3.29,0,0,1-.17-1.07V19.76h-.74a.52.52,0,0,1-.35-.13.5.5,0,0,1-.15-.39v-1l1.4-.27.52-2.15a.53.53,0,0,1,.58-.41H74.7V18h2.18v1.8H74.7v4.38a.8.8,0,0,0,.15.5.51.51,0,0,0,.43.2.88.88,0,0,0,.24,0l.17-.07.13-.07.15,0a.27.27,0,0,1,.19.05.86.86,0,0,1,.15.17l.8,1.25A3.56,3.56,0,0,1,76,26.7,4.42,4.42,0,0,1,74.65,26.89Z"/><path class="cls-2" d="M82,17.8a5.09,5.09,0,0,1,1.83.32,4,4,0,0,1,2.33,2.32,5.58,5.58,0,0,1,0,3.78,4,4,0,0,1-.92,1.44,3.86,3.86,0,0,1-1.41.91,5.09,5.09,0,0,1-1.83.32,5.15,5.15,0,0,1-1.84-.32,4,4,0,0,1-1.43-.91,4,4,0,0,1-.93-1.44,5.74,5.74,0,0,1,0-3.78A4,4,0,0,1,78.73,19a4.14,4.14,0,0,1,1.43-.9A5.15,5.15,0,0,1,82,17.8Zm0,7.13a1.49,1.49,0,0,0,1.34-.64,3.59,3.59,0,0,0,.43-1.95,3.55,3.55,0,0,0-.43-1.94A1.49,1.49,0,0,0,82,19.76a1.54,1.54,0,0,0-1.37.64,3.46,3.46,0,0,0-.43,1.94,3.5,3.5,0,0,0,.43,1.95A1.54,1.54,0,0,0,82,24.93Z"/><path class="cls-2" d="M91.54,19.16a5.47,5.47,0,0,1,1.78-1.05,6.17,6.17,0,0,1,2.08-.34,3.81,3.81,0,0,1,1.44.26,3,3,0,0,1,1.09.72,3.21,3.21,0,0,1,.69,1.1,3.94,3.94,0,0,1,.24,1.39v5.51H97.65a1.24,1.24,0,0,1-.57-.1.86.86,0,0,1-.32-.42l-.18-.49a7.85,7.85,0,0,1-.64.49,3.7,3.7,0,0,1-.63.37,3.18,3.18,0,0,1-.7.22,4.18,4.18,0,0,1-.82.07,3.48,3.48,0,0,1-1.1-.16,2.16,2.16,0,0,1-.83-.46,2.19,2.19,0,0,1-.54-.76,2.85,2.85,0,0,1-.18-1.05,2.2,2.2,0,0,1,.24-1,2.35,2.35,0,0,1,.82-.89,5.21,5.21,0,0,1,1.58-.67,10,10,0,0,1,2.51-.31v-.38A1.62,1.62,0,0,0,96,20.13a1.17,1.17,0,0,0-.91-.35,2.31,2.31,0,0,0-.76.11,2.35,2.35,0,0,0-.53.23c-.16.08-.31.16-.46.22a1.17,1.17,0,0,1-.52.11.74.74,0,0,1-.46-.14A1.18,1.18,0,0,1,92,20Zm4.75,4a8.21,8.21,0,0,0-1.3.13,3,3,0,0,0-.81.26.91.91,0,0,0-.41.35.79.79,0,0,0-.12.42.72.72,0,0,0,.25.63,1.13,1.13,0,0,0,.72.19,2,2,0,0,0,.89-.18,2.63,2.63,0,0,0,.78-.58Z"/><path class="cls-2" d="M110.07,19.87a.7.7,0,0,1-.22.23.65.65,0,0,1-.29.07.88.88,0,0,1-.38-.09l-.4-.17a4.65,4.65,0,0,0-.49-.17,2,2,0,0,0-.62-.08,1.29,1.29,0,0,0-.77.19.6.6,0,0,0-.27.53.54.54,0,0,0,.18.41,1.65,1.65,0,0,0,.46.28,6.06,6.06,0,0,0,.65.23l.75.25a6.26,6.26,0,0,1,.75.32,2.69,2.69,0,0,1,.65.45,2,2,0,0,1,.47.65,2.32,2.32,0,0,1,.17.92,3,3,0,0,1-.24,1.21,2.5,2.5,0,0,1-.71.95,3.46,3.46,0,0,1-1.16.62,5.14,5.14,0,0,1-1.59.22,4.58,4.58,0,0,1-.9-.09,6,6,0,0,1-.88-.22,5,5,0,0,1-.77-.35,3.37,3.37,0,0,1-.62-.43l.62-1a.75.75,0,0,1,.26-.27.76.76,0,0,1,.4-.09.8.8,0,0,1,.41.1l.4.22a3.24,3.24,0,0,0,.49.22,2.12,2.12,0,0,0,.72.1,1.9,1.9,0,0,0,.52-.06.79.79,0,0,0,.34-.18.61.61,0,0,0,.19-.24.71.71,0,0,0,.06-.28.59.59,0,0,0-.18-.44,1.64,1.64,0,0,0-.47-.29,5.57,5.57,0,0,0-.66-.23l-.75-.24a5.51,5.51,0,0,1-.75-.33,2.66,2.66,0,0,1-.66-.48,2.43,2.43,0,0,1-.47-.72,2.64,2.64,0,0,1-.18-1,2.81,2.81,0,0,1,.22-1.07,2.4,2.4,0,0,1,.65-.88,3.1,3.1,0,0,1,1.09-.61,5,5,0,0,1,2.45-.14,3.72,3.72,0,0,1,.84.24,3.63,3.63,0,0,1,.71.36,3.33,3.33,0,0,1,.57.45Z"/><path class="cls-2" d="M115,15.52a1.53,1.53,0,0,1-.12.6,1.62,1.62,0,0,1-.87.81,1.59,1.59,0,0,1-.62.12,1.46,1.46,0,0,1-.6-.12,1.56,1.56,0,0,1-.5-.33,1.45,1.45,0,0,1-.34-.48,1.56,1.56,0,0,1,0-1.2,1.39,1.39,0,0,1,.34-.49,1.56,1.56,0,0,1,.5-.33,1.46,1.46,0,0,1,.6-.12,1.59,1.59,0,0,1,.62.12,1.65,1.65,0,0,1,.52.33,1.57,1.57,0,0,1,.35.49A1.53,1.53,0,0,1,115,15.52Zm-.27,2.42v8.81H112.1V17.94Z"/><path class="cls-2" d="M119,18.89a4.42,4.42,0,0,1,.53-.44,3.08,3.08,0,0,1,.58-.35,4,4,0,0,1,.67-.22,3.84,3.84,0,0,1,.79-.08,3.16,3.16,0,0,1,1.27.25,2.55,2.55,0,0,1,.94.7,3,3,0,0,1,.58,1.06,4.43,4.43,0,0,1,.2,1.34v5.6h-2.64v-5.6a1.56,1.56,0,0,0-.3-1,1.05,1.05,0,0,0-.87-.36A1.73,1.73,0,0,0,120,20a3.27,3.27,0,0,0-.74.49v6.29h-2.63V17.94h1.63a.63.63,0,0,1,.65.44Z"/><path class="cls-2" d="M134.27,18.21v1a.5.5,0,0,1-.13.35.91.91,0,0,1-.42.2l-.64.14c0,.12.06.25.09.38s0,.27,0,.41a2.57,2.57,0,0,1-.27,1.19,2.85,2.85,0,0,1-.76.9,3.87,3.87,0,0,1-1.13.57,5,5,0,0,1-1.41.2l-.39,0a2.45,2.45,0,0,1-.39,0c-.19.12-.29.25-.29.4a.32.32,0,0,0,.24.31,2,2,0,0,0,.63.14c.26,0,.56,0,.89.05l1,.06a6.78,6.78,0,0,1,1,.16,2.6,2.6,0,0,1,.89.36,1.87,1.87,0,0,1,.63.65,2.09,2.09,0,0,1,.24,1.05,2.59,2.59,0,0,1-.29,1.17,3.12,3.12,0,0,1-.85,1,4.72,4.72,0,0,1-1.38.71,5.94,5.94,0,0,1-1.87.27,7.19,7.19,0,0,1-1.79-.2,4.4,4.4,0,0,1-1.25-.51,2.06,2.06,0,0,1-.73-.74,1.67,1.67,0,0,1-.24-.86,1.41,1.41,0,0,1,.34-1,2.32,2.32,0,0,1,.95-.63,1.44,1.44,0,0,1-.51-.5,1.47,1.47,0,0,1-.19-.79,1.67,1.67,0,0,1,.07-.42,1.7,1.7,0,0,1,.22-.42,2.28,2.28,0,0,1,.37-.4,2.58,2.58,0,0,1,.52-.33,2.8,2.8,0,0,1-1.08-1,2.66,2.66,0,0,1-.12-2.59,2.47,2.47,0,0,1,.77-.9,3.44,3.44,0,0,1,1.15-.57,4.71,4.71,0,0,1,1.43-.2,4.48,4.48,0,0,1,2,.42Zm-2.61,8.87a.47.47,0,0,0-.28-.46,2.38,2.38,0,0,0-.73-.2,9.6,9.6,0,0,0-1-.07q-.57,0-1.11-.06a1.85,1.85,0,0,0-.41.37.81.81,0,0,0-.15.48.68.68,0,0,0,.08.34.65.65,0,0,0,.28.26,2,2,0,0,0,.55.17,4.24,4.24,0,0,0,.87.07,5.93,5.93,0,0,0,.94-.07,2.19,2.19,0,0,0,.58-.19.74.74,0,0,0,.3-.28A.73.73,0,0,0,131.66,27.08Zm-2-5.2a1.24,1.24,0,0,0,.95-.32,1.21,1.21,0,0,0,.3-.85,1.14,1.14,0,0,0-.3-.84,1.6,1.6,0,0,0-1.89,0,1.14,1.14,0,0,0-.3.84,1.4,1.4,0,0,0,.08.47.94.94,0,0,0,.22.37,1.08,1.08,0,0,0,.39.24A1.51,1.51,0,0,0,129.62,21.88Z"/><path class="cls-2" d="M138,14V26.75h-2.64V14Z"/><path class="cls-2" d="M142,22.82a2.48,2.48,0,0,0,.67,1.6,2,2,0,0,0,1.4.5,2.6,2.6,0,0,0,.79-.11,4.76,4.76,0,0,0,.59-.25l.48-.25a1,1,0,0,1,.45-.11.56.56,0,0,1,.48.23l.76.95a4.09,4.09,0,0,1-.87.76,5,5,0,0,1-1,.46,6.25,6.25,0,0,1-1,.23,7.94,7.94,0,0,1-1,.06,5,5,0,0,1-1.73-.3,3.83,3.83,0,0,1-1.42-.9,4.12,4.12,0,0,1-1-1.48,5.4,5.4,0,0,1-.36-2.05,4.72,4.72,0,0,1,.3-1.68,4.25,4.25,0,0,1,.87-1.39,4.18,4.18,0,0,1,1.37-.94,4.56,4.56,0,0,1,1.81-.35,4.39,4.39,0,0,1,1.61.28,3.46,3.46,0,0,1,1.25.79,3.38,3.38,0,0,1,.81,1.27,4.56,4.56,0,0,1,.3,1.7,3.28,3.28,0,0,1,0,.49.9.9,0,0,1-.09.29.37.37,0,0,1-.19.16,1.06,1.06,0,0,1-.29,0Zm3.31-1.53a2,2,0,0,0-.08-.61,1.5,1.5,0,0,0-.26-.54,1.29,1.29,0,0,0-.48-.37,1.82,1.82,0,0,0-1.9.28,2.27,2.27,0,0,0-.56,1.24Z"/><path class="cls-2" d="M159.14,20.34h4.4v5.22a6.46,6.46,0,0,1-2,1,8.32,8.32,0,0,1-2.25.31,7.73,7.73,0,0,1-2.78-.48,6.35,6.35,0,0,1-2.15-1.33,5.8,5.8,0,0,1-1.37-2,6.4,6.4,0,0,1-.49-2.52,7,7,0,0,1,.46-2.55,5.79,5.79,0,0,1,1.31-2,6,6,0,0,1,2.07-1.31,7.52,7.52,0,0,1,2.71-.47,8.32,8.32,0,0,1,1.45.13,7.34,7.34,0,0,1,1.25.35,5.85,5.85,0,0,1,1.9,1.19l-.83,1.27a.81.81,0,0,1-.5.36.86.86,0,0,1-.67-.15A6,6,0,0,0,161,17a5.36,5.36,0,0,0-.62-.25,4.53,4.53,0,0,0-.66-.13,6.26,6.26,0,0,0-.78,0,3.59,3.59,0,0,0-1.46.29,3.15,3.15,0,0,0-1.1.8,3.62,3.62,0,0,0-.7,1.25,5.1,5.1,0,0,0-.25,1.62,5.27,5.27,0,0,0,.27,1.75,3.75,3.75,0,0,0,.77,1.29,3.33,3.33,0,0,0,1.19.8,4.06,4.06,0,0,0,1.54.28,3.93,3.93,0,0,0,.94-.1,6,6,0,0,0,.82-.27V22.43h-1.23a.57.57,0,0,1-.42-.15.48.48,0,0,1-.15-.36Z"/><path class="cls-2" d="M167.52,19.3a3.52,3.52,0,0,1,.94-1.12,2,2,0,0,1,1.22-.41,1.52,1.52,0,0,1,1,.28L170.47,20a.34.34,0,0,1-.14.25.4.4,0,0,1-.26.07h-.18l-.23,0-.24,0h-.23a1.31,1.31,0,0,0-.92.31,2.4,2.4,0,0,0-.58.85v5.35h-2.64V17.94h1.57a1.39,1.39,0,0,1,.32,0,.65.65,0,0,1,.22.11.45.45,0,0,1,.14.19,1.71,1.71,0,0,1,.08.29Z"/><path class="cls-2" d="M175.45,17.8a5,5,0,0,1,1.82.32,4,4,0,0,1,1.42.9,4.1,4.1,0,0,1,.92,1.42,5.58,5.58,0,0,1,0,3.78,4.09,4.09,0,0,1-.92,1.44,3.9,3.9,0,0,1-1.42.91,5,5,0,0,1-1.82.32,5.11,5.11,0,0,1-1.84-.32,3.94,3.94,0,0,1-1.43-.91,4,4,0,0,1-.93-1.44,5.74,5.74,0,0,1,0-3.78,4,4,0,0,1,.93-1.42,4,4,0,0,1,1.43-.9A5.11,5.11,0,0,1,175.45,17.8Zm0,7.13a1.5,1.5,0,0,0,1.34-.64,3.6,3.6,0,0,0,.42-1.95,3.56,3.56,0,0,0-.42-1.94,1.5,1.5,0,0,0-1.34-.64,1.52,1.52,0,0,0-1.37.64,3.46,3.46,0,0,0-.43,1.94,3.5,3.5,0,0,0,.43,1.95A1.52,1.52,0,0,0,175.45,24.93Z"/><path class="cls-2" d="M189.17,17.94v8.81h-1.64a.61.61,0,0,1-.64-.44l-.15-.51a5.5,5.5,0,0,1-.53.45,3.2,3.2,0,0,1-1.26.56,3.81,3.81,0,0,1-.78.08,3,3,0,0,1-1.28-.25,2.64,2.64,0,0,1-.94-.7,3,3,0,0,1-.58-1.07,4.34,4.34,0,0,1-.19-1.34V17.94h2.63v5.59a1.5,1.5,0,0,0,.3,1,1.07,1.07,0,0,0,.87.36,1.92,1.92,0,0,0,.82-.18,3.28,3.28,0,0,0,.73-.5V17.94Z"/><path class="cls-2" d="M193.42,19a4.72,4.72,0,0,1,1.18-.91,3.34,3.34,0,0,1,1.57-.35,2.69,2.69,0,0,1,1.28.31,2.9,2.9,0,0,1,1,.88,4.49,4.49,0,0,1,.66,1.41,6.57,6.57,0,0,1,.25,1.9,6,6,0,0,1-.28,1.84,4.52,4.52,0,0,1-.77,1.46,3.56,3.56,0,0,1-1.19,1,3.45,3.45,0,0,1-1.54.35,2.89,2.89,0,0,1-2-.72v3.38H191V17.94h1.63a.63.63,0,0,1,.65.44Zm.17,5.33a1.86,1.86,0,0,0,.64.46A2,2,0,0,0,195,25a1.6,1.6,0,0,0,.67-.14,1.34,1.34,0,0,0,.54-.47,2.56,2.56,0,0,0,.35-.83,5.42,5.42,0,0,0,.13-1.24,5.54,5.54,0,0,0-.11-1.17,2.3,2.3,0,0,0-.28-.77,1.17,1.17,0,0,0-.44-.42,1.33,1.33,0,0,0-.57-.13,1.83,1.83,0,0,0-.95.22,2.38,2.38,0,0,0-.71.62Z"/><circle class="cls-2" cx="297.35" cy="89.39" r="2.1" transform="translate(-0.25 0.85) rotate(-0.16)"/><path class="cls-2" d="M300.76,92.82h0l-.1.07a4.27,4.27,0,0,1-1.1.77l-.4-.81a3.89,3.89,0,0,0-.05-7l.41-.83a4.83,4.83,0,0,1,2.6,3.53h0A4.85,4.85,0,0,1,300.76,92.82Z"/><path class="cls-2" d="M295.63,92.9l-.41.83a4.83,4.83,0,0,1-2.62-3.54h0A4.79,4.79,0,0,1,294,86h0l.1-.07a4.87,4.87,0,0,1,1.22-.83l.4.81a3.9,3.9,0,0,0-.05,7Z"/><path class="cls-2" d="M302.21,94.6h0a.25.25,0,0,1-.12.08,7.41,7.41,0,0,1-1.53,1l-.4-.81a6.18,6.18,0,0,0,3.34-6.38v-.05s0-.07,0-.1,0-.09,0-.13v0a6.19,6.19,0,0,0-3.35-4.39l.41-.83a7.1,7.1,0,0,1,3.82,5,.13.13,0,0,1,0,.06.44.44,0,0,1,0,.1v0h0s0,.07,0,.1v.06A7.13,7.13,0,0,1,302.21,94.6Z"/><path class="cls-2" d="M294.62,95l-.41.83a7.1,7.1,0,0,1-3.84-5v-.06s0-.07,0-.1v0h0l0-.1a.13.13,0,0,0,0-.06,7.13,7.13,0,0,1,2.19-6.19h0l.12-.08a7.09,7.09,0,0,1,1.65-1.1l.4.8a6.21,6.21,0,0,0-3.46,6.45v0s0,.06,0,.09a.68.68,0,0,1,0,.14h0A6.2,6.2,0,0,0,294.62,95Z"/><path class="cls-2" d="M327.19,100.85h0l-.1.07a4.56,4.56,0,0,1-1.1.78l-.4-.81a3.89,3.89,0,0,0-.05-7l.41-.83a4.87,4.87,0,0,1,2.61,3.53h0A4.85,4.85,0,0,1,327.19,100.85Z"/><path class="cls-2" d="M322.06,100.93l-.41.83A4.86,4.86,0,0,1,319,98.22h0A4.82,4.82,0,0,1,320.38,94h0l0,0,.09-.07a4.75,4.75,0,0,1,1.23-.83l.4.81a3.89,3.89,0,0,0-.06,7Z"/><path class="cls-2" d="M328.64,102.63h0a.35.35,0,0,1-.12.07,6.74,6.74,0,0,1-1.52,1.05l-.4-.81a6.21,6.21,0,0,0,3.34-6.38v0a.3.3,0,0,0,0-.1.51.51,0,0,0,0-.13v0a6.19,6.19,0,0,0-3.35-4.39l.41-.83a7.08,7.08,0,0,1,3.82,5s0,0,0,.06,0,.07,0,.11h0s0,.07,0,.11v0A7.11,7.11,0,0,1,328.64,102.63Z"/><path class="cls-2" d="M321.05,103l-.41.83a7.12,7.12,0,0,1-3.84-5V98.7a.36.36,0,0,0,0-.1h0v0l0-.1v-.06a7.1,7.1,0,0,1,2.18-6.19h0l.11-.08A7.3,7.3,0,0,1,320.7,91l.4.81a6.2,6.2,0,0,0-3.46,6.44v0s0,.06,0,.1l0,.13v0A6.2,6.2,0,0,0,321.05,103Z"/><path class="cls-2" d="M311.38,105.3h0l-.1.07a4.27,4.27,0,0,1-1.1.77l-.4-.8a3.9,3.9,0,0,0-.05-7l.41-.83a4.83,4.83,0,0,1,2.6,3.53h0A4.85,4.85,0,0,1,311.38,105.3Z"/><path class="cls-2" d="M306.25,105.38l-.41.83a4.83,4.83,0,0,1-2.62-3.54h0a4.79,4.79,0,0,1,1.35-4.19h0v0l.1-.07a4.87,4.87,0,0,1,1.22-.83l.4.81a3.9,3.9,0,0,0-.05,7Z"/><path class="cls-2" d="M312.83,107.08h0a.35.35,0,0,1-.12.07,7.41,7.41,0,0,1-1.53,1l-.4-.81a6.21,6.21,0,0,0,3.35-6.38v0s0-.07,0-.1,0-.09,0-.13v0a6.19,6.19,0,0,0-3.35-4.39l.41-.83a7.1,7.1,0,0,1,3.82,5,.13.13,0,0,1,0,.06.44.44,0,0,1,0,.1v0h0s0,.07,0,.1v.06A7.13,7.13,0,0,1,312.83,107.08Z"/><path class="cls-2" d="M305.24,107.43l-.41.83a7.1,7.1,0,0,1-3.84-5.05v-.06s0-.07,0-.1v0h0l0-.1a.13.13,0,0,0,0-.06,7.13,7.13,0,0,1,2.19-6.19h0l.12-.08a7.09,7.09,0,0,1,1.65-1.1l.4.8a6.21,6.21,0,0,0-3.46,6.45v.05s0,.06,0,.1a.51.51,0,0,1,0,.13h0A6.2,6.2,0,0,0,305.24,107.43Z"/><circle class="cls-2" cx="323.78" cy="97.42" r="2.1" transform="translate(-0.28 0.92) rotate(-0.16)"/><circle class="cls-2" cx="307.97" cy="101.87" r="2.1" transform="translate(-0.29 0.88) rotate(-0.16)"/><path class="cls-2" d="M317.61,67.55a2.85,2.85,0,0,1,2.7,3A3.11,3.11,0,0,1,319.19,73a18.9,18.9,0,0,0,2.05,5.29l5.1,7.94h0l2.44.8v.94H306.43v-1l2.62-.73h0l5.14-8.1a19.39,19.39,0,0,0,2-5,3.07,3.07,0,0,1-1.25-2.52,2.84,2.84,0,0,1,2.69-3m0,14.45,2.25-1.45-.57-.89-.05-.08a27.74,27.74,0,0,1-1.58-3.44,27.67,27.67,0,0,1-1.51,3.28l-.05.09-.7,1.1L317.62,82M323,85.37,320.18,81l-2,1.3,4.82,3m-10.59,0,4.71-3-2-1.25-2.72,4.29m-.19.8h11l-5.57-3.51-5.43,3.51m-.32,0h0v0l0,0m5.74-20.88a5.09,5.09,0,0,0-4.94,5.22,5.42,5.42,0,0,0,1,3.16A19.53,19.53,0,0,1,312.24,77l-4.62,7.29-1.79.5-1.65.46v5h26.87V85.36l-1.55-.51-.25-.08.3-.84h-2l-4.39-6.83a19.18,19.18,0,0,1-1.53-3.56,5.47,5.47,0,0,0,.91-3,5.09,5.09,0,0,0-4.95-5.22Z"/><path class="cls-2" d="M320.34,74.92a.85.85,0,0,1,0,.23,14.87,14.87,0,0,1,6.78,10.32c0,.12,0,.24.05.36h1.34c0-.19-.05-.37-.08-.56A16.22,16.22,0,0,0,320,73.45a3.29,3.29,0,0,1-.23.46A1.22,1.22,0,0,1,320.34,74.92Z"/><path class="cls-2" d="M334.62,95.91v-.14s0-.07,0-.11v0a.52.52,0,0,1,0-.11v-.14a10.91,10.91,0,0,0-5.47-7.54v.89h-1.17a9.63,9.63,0,0,1,5.34,6.9s0,0,0,.08l0,.14v0h0a.78.78,0,0,1,0,.14.25.25,0,0,1,0,.08,9.6,9.6,0,0,1-2.95,8.37h0a.44.44,0,0,1-.16.1,9.51,9.51,0,0,1-4.83,2.32,9.32,9.32,0,0,1-1.57.13,9.61,9.61,0,0,1-3.74-.76l-.2-.05h0a9.83,9.83,0,0,1-2.6-1.73,9.62,9.62,0,0,1-2.69,4.44h0l-.16.1a9.55,9.55,0,0,1-4.83,2.32,9.44,9.44,0,0,1-1.58.13,9.6,9.6,0,0,1-3.73-.76.66.66,0,0,1-.2-.06h0a9.62,9.62,0,0,1-5.49-7,.28.28,0,0,1,0-.09l0-.13v0a.68.68,0,0,0,0-.14.22.22,0,0,0,0-.08,9.67,9.67,0,0,1,.38-4.33,9.45,9.45,0,0,1-1.49.12,9.56,9.56,0,0,1-3.73-.76.66.66,0,0,1-.2-.06h0a9.61,9.61,0,0,1-5.49-7,.19.19,0,0,1,0-.08l0-.13v0a.68.68,0,0,0,0-.14.22.22,0,0,0,0-.08,9.62,9.62,0,0,1,3-8.37h0a.57.57,0,0,1,.16-.11,9.58,9.58,0,0,1,4.84-2.32,10.38,10.38,0,0,1,1.57-.12,9.72,9.72,0,0,1,2.23.26,15,15,0,0,1,12.78-7.21,15.16,15.16,0,0,1,2.44.2,2.62,2.62,0,0,1-.06-.57,2.74,2.74,0,0,1,.11-.76,15.88,15.88,0,0,0-2.49-.2,16.33,16.33,0,0,0-2.51.2A16.17,16.17,0,0,0,299,78.59a10.77,10.77,0,0,0-1.6-.12,11.89,11.89,0,0,0-1.79.14,10.92,10.92,0,0,0-5.39,2.54,1.51,1.51,0,0,0-.28.22h0a11,11,0,0,0-3.36,9.53V91s0,.08,0,.12h0v0s0,.08,0,.12v.07l0,.07a10.92,10.92,0,0,0,6.19,7.9h0l0,0a3,3,0,0,0,.39.13,10.7,10.7,0,0,0,3.9.8,11,11,0,0,0,0,3.08v.13s0,.08,0,.12v0h0s0,.08,0,.12v.07l0,.07a10.92,10.92,0,0,0,6.19,7.9h0l.05,0a2.43,2.43,0,0,0,.38.13,10.92,10.92,0,0,0,11.29-1.88,1.94,1.94,0,0,0,.29-.21h0a11.12,11.12,0,0,0,2.39-3.26,11.72,11.72,0,0,0,1.39.77h0l0,0a1.63,1.63,0,0,0,.39.13,10.77,10.77,0,0,0,5.89.66,10.91,10.91,0,0,0,5.4-2.54,1.86,1.86,0,0,0,.28-.21h0A11,11,0,0,0,334.62,95.91Z"/><rect class="cls-2" x="316.85" y="79.13" width="1.44" height="1.59"/><rect class="cls-2" x="316.56" y="84.08" width="2.36" height="1.4"/><g class="cls-3"><circle class="cls-4" cx="310.57" cy="91.92" r="37.13" transform="translate(170.08 383.76) rotate(-80.78)"/></g><path class="cls-2" d="M261.15,149.79v1.06h-5.29v-9.32h1.26v8.26Z"/><path class="cls-2" d="M263.73,142.2a.81.81,0,0,1-.06.31.83.83,0,0,1-.19.26.68.68,0,0,1-.26.18.87.87,0,0,1-.32.06.83.83,0,0,1-.32-.06.76.76,0,0,1-.26-.18.78.78,0,0,1-.17-.26.67.67,0,0,1-.07-.31.75.75,0,0,1,.07-.33.78.78,0,0,1,.17-.26.76.76,0,0,1,.26-.18.83.83,0,0,1,.32-.07.88.88,0,0,1,.32.07.68.68,0,0,1,.26.18.83.83,0,0,1,.19.26A.92.92,0,0,1,263.73,142.2Zm-.24,2.06v6.59h-1.16v-6.59Z"/><path class="cls-2" d="M266.48,145.22a3.73,3.73,0,0,1,.45-.44,2.78,2.78,0,0,1,.51-.33,2.32,2.32,0,0,1,.57-.22,2.78,2.78,0,0,1,.66-.07,2.37,2.37,0,0,1,.95.18,2,2,0,0,1,.69.5,2.48,2.48,0,0,1,.42.79,3.64,3.64,0,0,1,.14,1v4.2h-1.16v-4.2a1.84,1.84,0,0,0-.34-1.16,1.3,1.3,0,0,0-1-.41,1.91,1.91,0,0,0-1,.25,3,3,0,0,0-.82.67v4.85h-1.17v-6.59h.7a.29.29,0,0,1,.31.24Z"/><path class="cls-2" d="M272.47,145.19a3.67,3.67,0,0,1,1.18-.78,3.48,3.48,0,0,1,1.39-.26,2.57,2.57,0,0,1,1,.18,2.16,2.16,0,0,1,.72.5,2.25,2.25,0,0,1,.44.79,3.31,3.31,0,0,1,.15,1v4.21h-.51a.51.51,0,0,1-.27-.06.42.42,0,0,1-.14-.22l-.13-.62c-.17.16-.34.3-.5.43a3.5,3.5,0,0,1-.53.31,2.63,2.63,0,0,1-.58.19,2.84,2.84,0,0,1-.68.07,2.09,2.09,0,0,1-.72-.11,1.6,1.6,0,0,1-.59-.32,1.47,1.47,0,0,1-.4-.54,1.87,1.87,0,0,1-.14-.78,1.47,1.47,0,0,1,.21-.75,1.87,1.87,0,0,1,.69-.64,4.92,4.92,0,0,1,1.26-.46,9.8,9.8,0,0,1,1.9-.2v-.51a1.79,1.79,0,0,0-.33-1.17,1.21,1.21,0,0,0-1-.39,2.1,2.1,0,0,0-.72.11,2.59,2.59,0,0,0-.5.24l-.37.24a.53.53,0,0,1-.3.11.34.34,0,0,1-.2-.06.7.7,0,0,1-.14-.16Zm3.74,2.69a9.37,9.37,0,0,0-1.36.13,4,4,0,0,0-.92.26,1.19,1.19,0,0,0-.51.39.78.78,0,0,0-.16.49,1.06,1.06,0,0,0,.08.45.9.9,0,0,0,.23.31.82.82,0,0,0,.35.17,1.42,1.42,0,0,0,.42.06,2.4,2.4,0,0,0,.56-.06,2,2,0,0,0,.48-.18,2.87,2.87,0,0,0,.43-.28,4.49,4.49,0,0,0,.4-.37Z"/><path class="cls-2" d="M280.2,145.58a2.87,2.87,0,0,1,.77-1.05,1.63,1.63,0,0,1,1.11-.38,1.75,1.75,0,0,1,.4,0,1.28,1.28,0,0,1,.34.14l-.09.87a.18.18,0,0,1-.19.16,1.16,1.16,0,0,1-.27,0,2.34,2.34,0,0,0-.39,0,1.6,1.6,0,0,0-.56.09,1.34,1.34,0,0,0-.44.27,2,2,0,0,0-.34.45,4.24,4.24,0,0,0-.28.6v4.16H279.1v-6.59h.66a.38.38,0,0,1,.26.07.45.45,0,0,1,.1.25Z"/><path class="cls-2" d="M286.34,144.16a3.38,3.38,0,0,1,1.3.24,2.78,2.78,0,0,1,1,.68,3.16,3.16,0,0,1,.63,1.07,4.81,4.81,0,0,1,0,2.81,3.11,3.11,0,0,1-.63,1.06,2.66,2.66,0,0,1-1,.68,3.38,3.38,0,0,1-1.3.24,3.43,3.43,0,0,1-1.31-.24,2.66,2.66,0,0,1-1-.68,3.11,3.11,0,0,1-.63-1.06,4.6,4.6,0,0,1,0-2.81,3.16,3.16,0,0,1,.63-1.07,2.78,2.78,0,0,1,1-.68A3.43,3.43,0,0,1,286.34,144.16Zm0,5.87a1.68,1.68,0,0,0,1.46-.65,3,3,0,0,0,.48-1.82,3.07,3.07,0,0,0-.48-1.84,1.71,1.71,0,0,0-1.46-.65,1.91,1.91,0,0,0-.86.17,1.52,1.52,0,0,0-.61.48,2.31,2.31,0,0,0-.37.79,4.21,4.21,0,0,0-.12,1.05,3,3,0,0,0,.49,1.82A1.69,1.69,0,0,0,286.34,150Z"/><path class="cls-2" d="M300.28,149.82v1h-5.74v-9.32h5.74v1H295.8v3.09h3.62v1H295.8v3.18Z"/><path class="cls-2" d="M307,141.27v9.58h-.69a.3.3,0,0,1-.32-.24l-.1-.8a3.55,3.55,0,0,1-1,.82,2.54,2.54,0,0,1-1.25.31,2.32,2.32,0,0,1-1-.22,2.08,2.08,0,0,1-.78-.64,2.85,2.85,0,0,1-.5-1.05,5.33,5.33,0,0,1-.18-1.45,4.56,4.56,0,0,1,.2-1.36,3.22,3.22,0,0,1,.56-1.09,2.6,2.6,0,0,1,.89-.72,2.57,2.57,0,0,1,1.19-.26,2.38,2.38,0,0,1,1,.2,2.66,2.66,0,0,1,.77.57v-3.65Zm-1.16,4.56a2,2,0,0,0-.7-.61,2.11,2.11,0,0,0-.85-.17,1.66,1.66,0,0,0-1.41.66,3,3,0,0,0-.49,1.87,4.44,4.44,0,0,0,.11,1.1,2.07,2.07,0,0,0,.32.75,1.39,1.39,0,0,0,.53.44,1.76,1.76,0,0,0,.71.13,1.84,1.84,0,0,0,1-.26,3,3,0,0,0,.78-.73Z"/><path class="cls-2" d="M314.34,144.52V145c0,.14-.09.24-.28.27l-.74.1a2.14,2.14,0,0,1,.22,1,2,2,0,0,1-.19.88,2,2,0,0,1-.51.67,2.45,2.45,0,0,1-.78.43,3.12,3.12,0,0,1-1,.15,3.58,3.58,0,0,1-.87-.11,1.09,1.09,0,0,0-.32.27.53.53,0,0,0-.11.3.41.41,0,0,0,.19.35,1.33,1.33,0,0,0,.51.17,4.74,4.74,0,0,0,.71.07l.82,0a7.35,7.35,0,0,1,.82.1,2.58,2.58,0,0,1,.71.24,1.15,1.15,0,0,1,.5.45,1.27,1.27,0,0,1,.2.74,1.59,1.59,0,0,1-.22.81,2.23,2.23,0,0,1-.6.71,3,3,0,0,1-1,.49,4.08,4.08,0,0,1-1.3.19,5.21,5.21,0,0,1-1.26-.14,3.13,3.13,0,0,1-.9-.39,1.66,1.66,0,0,1-.54-.55,1.3,1.3,0,0,1-.17-.66,1.21,1.21,0,0,1,.3-.83,2.18,2.18,0,0,1,.84-.54,1.12,1.12,0,0,1-.47-.35.93.93,0,0,1-.17-.58,1,1,0,0,1,.05-.3,1.46,1.46,0,0,1,.16-.3,1.48,1.48,0,0,1,.27-.29,1.61,1.61,0,0,1,.36-.24,2.13,2.13,0,0,1-.76-.73,2,2,0,0,1-.27-1,2.05,2.05,0,0,1,.18-.87,1.92,1.92,0,0,1,.52-.67,2.23,2.23,0,0,1,.79-.43,3.18,3.18,0,0,1,1-.15,2.87,2.87,0,0,1,.8.1,2.54,2.54,0,0,1,.68.27Zm-1.18,6.68a.56.56,0,0,0-.14-.39.93.93,0,0,0-.36-.23,2.14,2.14,0,0,0-.54-.12l-.65-.05-.69,0-.68-.07a1.77,1.77,0,0,0-.59.43.88.88,0,0,0-.23.6.84.84,0,0,0,.11.41.93.93,0,0,0,.35.33,1.77,1.77,0,0,0,.59.22,3.44,3.44,0,0,0,.83.08,3.52,3.52,0,0,0,.84-.08,2.3,2.3,0,0,0,.63-.24,1.16,1.16,0,0,0,.39-.37A.87.87,0,0,0,313.16,151.2Zm-2.09-3.57a1.68,1.68,0,0,0,.62-.1,1.13,1.13,0,0,0,.45-.27,1.17,1.17,0,0,0,.27-.42,1.53,1.53,0,0,0,.09-.54,1.3,1.3,0,0,0-.36-1,1.47,1.47,0,0,0-1.07-.36,1.49,1.49,0,0,0-1.07.36,1.3,1.3,0,0,0-.36,1,1.53,1.53,0,0,0,.09.54,1.19,1.19,0,0,0,.28.42,1.13,1.13,0,0,0,.45.27A1.63,1.63,0,0,0,311.07,147.63Z"/><path class="cls-2" d="M320.78,149.92a2.29,2.29,0,0,1-.52.46,3.44,3.44,0,0,1-.64.31,5.13,5.13,0,0,1-.7.19,4.37,4.37,0,0,1-.72.06,3.4,3.4,0,0,1-1.26-.23,2.87,2.87,0,0,1-1-.68,3.31,3.31,0,0,1-.65-1.1,4.65,4.65,0,0,1-.23-1.51,3.88,3.88,0,0,1,.21-1.29,3,3,0,0,1,.61-1,2.81,2.81,0,0,1,1-.69,3.19,3.19,0,0,1,1.29-.25,2.83,2.83,0,0,1,1.1.2,2.53,2.53,0,0,1,.87.57,2.6,2.6,0,0,1,.57.92,3.52,3.52,0,0,1,.21,1.25.74.74,0,0,1-.06.37.24.24,0,0,1-.22.09h-4.4a3.76,3.76,0,0,0,.17,1.08,2.27,2.27,0,0,0,.43.77,1.78,1.78,0,0,0,.65.47,2.24,2.24,0,0,0,.84.15,2.86,2.86,0,0,0,.76-.1,3.54,3.54,0,0,0,.54-.22,3.9,3.9,0,0,0,.38-.22.48.48,0,0,1,.26-.1.25.25,0,0,1,.22.11Zm-.94-3.08a2.45,2.45,0,0,0-.11-.74,1.83,1.83,0,0,0-.33-.58,1.66,1.66,0,0,0-.53-.38,2,2,0,0,0-2,.35,2.32,2.32,0,0,0-.6,1.35Z"/><path class="cls-2" d="M333.86,150.85h-1.13a.81.81,0,0,1-.3,0,.68.68,0,0,1-.26-.19l-.94-1a4.64,4.64,0,0,1-1.41.94,4.34,4.34,0,0,1-1.75.35,3.21,3.21,0,0,1-1-.17,2.91,2.91,0,0,1-.89-.51,2.71,2.71,0,0,1-.64-.82,2.39,2.39,0,0,1-.24-1.09,2.47,2.47,0,0,1,.15-.86,3.11,3.11,0,0,1,.43-.75,3.77,3.77,0,0,1,.64-.62,4.34,4.34,0,0,1,.82-.46,4.18,4.18,0,0,1-.59-1,2.75,2.75,0,0,1-.19-1,2.21,2.21,0,0,1,.18-.89,2.13,2.13,0,0,1,.49-.73,2.49,2.49,0,0,1,.79-.48,2.89,2.89,0,0,1,1.05-.18,2.52,2.52,0,0,1,.93.16,2.41,2.41,0,0,1,.73.44,2.15,2.15,0,0,1,.48.64,2,2,0,0,1,.21.75l-.72.14c-.15,0-.25,0-.32-.2a1.48,1.48,0,0,0-.15-.35,1.37,1.37,0,0,0-.64-.58,1.24,1.24,0,0,0-.52-.1,1.55,1.55,0,0,0-.59.11,1.17,1.17,0,0,0-.45.29,1.15,1.15,0,0,0-.28.43,1.4,1.4,0,0,0-.1.54,2,2,0,0,0,.05.44,1.48,1.48,0,0,0,.17.42,2.55,2.55,0,0,0,.29.44,4.18,4.18,0,0,0,.42.46l2.68,2.73a5.29,5.29,0,0,0,.39-.92,4.74,4.74,0,0,0,.2-1,.31.31,0,0,1,.08-.2.21.21,0,0,1,.18-.07h.71a5.26,5.26,0,0,1-.24,1.47,5.35,5.35,0,0,1-.65,1.34Zm-6-4.59a2.78,2.78,0,0,0-1,.88,2,2,0,0,0-.35,1.13,1.8,1.8,0,0,0,.16.75,1.68,1.68,0,0,0,.41.54,1.59,1.59,0,0,0,.58.33,1.92,1.92,0,0,0,.66.12,3.07,3.07,0,0,0,1.31-.27,3.34,3.34,0,0,0,1-.71Z"/><path class="cls-2" d="M339.74,142.56v3.26h3.83v1h-3.83v4h-1.26v-9.32h5.74v1Z"/><path class="cls-2" d="M347.77,144.16a3.35,3.35,0,0,1,1.3.24,2.78,2.78,0,0,1,1,.68,3.16,3.16,0,0,1,.63,1.07,4.81,4.81,0,0,1,0,2.81,3.11,3.11,0,0,1-.63,1.06,2.66,2.66,0,0,1-1,.68,3.35,3.35,0,0,1-1.3.24,3.43,3.43,0,0,1-1.31-.24,2.66,2.66,0,0,1-1-.68,3.11,3.11,0,0,1-.63-1.06,4.81,4.81,0,0,1,0-2.81,3.16,3.16,0,0,1,.63-1.07,2.78,2.78,0,0,1,1-.68A3.43,3.43,0,0,1,347.77,144.16Zm0,5.87a1.68,1.68,0,0,0,1.46-.65,3,3,0,0,0,.48-1.82,3.07,3.07,0,0,0-.48-1.84,1.71,1.71,0,0,0-1.46-.65,1.94,1.94,0,0,0-.86.17,1.59,1.59,0,0,0-.61.48,2.3,2.3,0,0,0-.36.79,4.21,4.21,0,0,0-.12,1.05,3,3,0,0,0,.48,1.82A1.69,1.69,0,0,0,347.77,150Z"/><path class="cls-2" d="M357.89,144.52V145c0,.14-.09.24-.27.27l-.75.1a2,2,0,0,1,.22,1,2.13,2.13,0,0,1-.18.88,2.25,2.25,0,0,1-.51.67,2.45,2.45,0,0,1-.78.43,3.21,3.21,0,0,1-1,.15,3.45,3.45,0,0,1-.87-.11,1,1,0,0,0-.32.27.53.53,0,0,0-.11.3.39.39,0,0,0,.19.35,1.34,1.34,0,0,0,.5.17,4.88,4.88,0,0,0,.72.07l.82,0a7.17,7.17,0,0,1,.81.1,2.54,2.54,0,0,1,.72.24,1.24,1.24,0,0,1,.69,1.19,1.69,1.69,0,0,1-.21.81,2.14,2.14,0,0,1-.61.71,3,3,0,0,1-1,.49,4,4,0,0,1-1.3.19,5.21,5.21,0,0,1-1.26-.14,2.94,2.94,0,0,1-.89-.39,1.66,1.66,0,0,1-.54-.55,1.31,1.31,0,0,1-.18-.66,1.17,1.17,0,0,1,.31-.83,2.18,2.18,0,0,1,.84-.54,1.12,1.12,0,0,1-.47-.35.93.93,0,0,1-.17-.58,1,1,0,0,1,.05-.3,1.46,1.46,0,0,1,.16-.3,1.42,1.42,0,0,1,.26-.29,2,2,0,0,1,.37-.24,2.05,2.05,0,0,1-.76-.73,1.92,1.92,0,0,1-.28-1,2.06,2.06,0,0,1,.19-.87,1.79,1.79,0,0,1,.51-.67,2.37,2.37,0,0,1,.8-.43,3.18,3.18,0,0,1,1-.15,2.92,2.92,0,0,1,.8.1,2.35,2.35,0,0,1,.67.27Zm-1.17,6.68a.56.56,0,0,0-.14-.39.9.9,0,0,0-.37-.23,2,2,0,0,0-.53-.12l-.65-.05-.69,0-.68-.07a1.77,1.77,0,0,0-.59.43.85.85,0,0,0-.24.6.75.75,0,0,0,.12.41.86.86,0,0,0,.35.33,1.71,1.71,0,0,0,.58.22,3.52,3.52,0,0,0,.84.08,3.63,3.63,0,0,0,.84-.08,2.44,2.44,0,0,0,.63-.24,1.16,1.16,0,0,0,.39-.37A.87.87,0,0,0,356.72,151.2Zm-2.09-3.57a1.72,1.72,0,0,0,.62-.1,1.29,1.29,0,0,0,.45-.27,1.17,1.17,0,0,0,.27-.42,1.53,1.53,0,0,0,.09-.54,1.27,1.27,0,0,0-.37-1,1.76,1.76,0,0,0-2.13,0,1.3,1.3,0,0,0-.37,1,1.33,1.33,0,0,0,.1.54,1.17,1.17,0,0,0,.27.42,1.13,1.13,0,0,0,.45.27A1.72,1.72,0,0,0,354.63,147.63Z"/><path class="cls-2" d="M263,165.92a.23.23,0,0,1,.18.09l.51.54a4.17,4.17,0,0,1-1.39,1,5.19,5.19,0,0,1-3.8,0,3.92,3.92,0,0,1-1.39-1,4.31,4.31,0,0,1-.9-1.51,5.62,5.62,0,0,1-.32-1.93,5.47,5.47,0,0,1,.33-1.93,4.33,4.33,0,0,1,.94-1.51,4.11,4.11,0,0,1,1.44-1,4.59,4.59,0,0,1,1.85-.35,4.52,4.52,0,0,1,1.75.32,4.34,4.34,0,0,1,1.34.86l-.41.58a.38.38,0,0,1-.11.11.25.25,0,0,1-.16,0,.51.51,0,0,1-.29-.13,4.34,4.34,0,0,0-.44-.28,3.41,3.41,0,0,0-.68-.28,3.26,3.26,0,0,0-1-.13,3.34,3.34,0,0,0-1.32.25,2.89,2.89,0,0,0-1,.73,3.26,3.26,0,0,0-.67,1.15,4.65,4.65,0,0,0-.24,1.54,4.48,4.48,0,0,0,.25,1.56,3.44,3.44,0,0,0,.68,1.15,3.05,3.05,0,0,0,1,.72,3.34,3.34,0,0,0,1.27.25,5.54,5.54,0,0,0,.75-.05,3.5,3.5,0,0,0,.62-.16,2.61,2.61,0,0,0,.53-.26,4,4,0,0,0,.48-.38A.39.39,0,0,1,263,165.92Z"/><path class="cls-2" d="M267.54,161.16a3.38,3.38,0,0,1,1.3.24,2.78,2.78,0,0,1,1,.68,3.16,3.16,0,0,1,.63,1.07,4.81,4.81,0,0,1,0,2.81,3.11,3.11,0,0,1-.63,1.06,2.66,2.66,0,0,1-1,.68,3.67,3.67,0,0,1-2.61,0,2.66,2.66,0,0,1-1-.68,3.11,3.11,0,0,1-.63-1.06,4.6,4.6,0,0,1,0-2.81,3.16,3.16,0,0,1,.63-1.07,2.78,2.78,0,0,1,1-.68A3.4,3.4,0,0,1,267.54,161.16Zm0,5.87a1.68,1.68,0,0,0,1.46-.65,3,3,0,0,0,.48-1.82,3.07,3.07,0,0,0-.48-1.84,1.71,1.71,0,0,0-1.46-.65,1.91,1.91,0,0,0-.86.17,1.52,1.52,0,0,0-.61.48,2.31,2.31,0,0,0-.37.79,4.21,4.21,0,0,0-.12,1.05,3,3,0,0,0,.49,1.82A1.69,1.69,0,0,0,267.54,167Z"/><path class="cls-2" d="M272.14,167.85v-6.59h.69a.29.29,0,0,1,.31.24l.08.68a3.57,3.57,0,0,1,.82-.74,1.92,1.92,0,0,1,1-.28,1.54,1.54,0,0,1,1.08.37,2.12,2.12,0,0,1,.59,1,2.37,2.37,0,0,1,.37-.62,2.53,2.53,0,0,1,.5-.43,2.22,2.22,0,0,1,.6-.24,2.29,2.29,0,0,1,.64-.08,2.49,2.49,0,0,1,.93.16,1.78,1.78,0,0,1,.68.49,2.12,2.12,0,0,1,.44.78,3.48,3.48,0,0,1,.15,1.06v4.2H279.9v-4.2a1.76,1.76,0,0,0-.34-1.17,1.18,1.18,0,0,0-1-.4,1.62,1.62,0,0,0-.54.1,1.37,1.37,0,0,0-.45.3,1.29,1.29,0,0,0-.31.49,1.79,1.79,0,0,0-.12.68v4.2H276v-4.2a1.87,1.87,0,0,0-.32-1.18,1.12,1.12,0,0,0-.93-.39,1.48,1.48,0,0,0-.79.23,2.83,2.83,0,0,0-.67.63v4.91Z"/><path class="cls-2" d="M283.93,162.28a3.55,3.55,0,0,1,1-.82,2.47,2.47,0,0,1,1.25-.31,2.51,2.51,0,0,1,1,.21,2.11,2.11,0,0,1,.78.65,2.85,2.85,0,0,1,.5,1.05,5.33,5.33,0,0,1,.18,1.45,4.56,4.56,0,0,1-.2,1.36,3.08,3.08,0,0,1-.56,1.08,2.44,2.44,0,0,1-.9.72,2.57,2.57,0,0,1-1.19.27,2.38,2.38,0,0,1-1-.21,2.3,2.3,0,0,1-.76-.57v2.92h-1.16v-8.82h.69a.29.29,0,0,1,.31.24Zm.06,4a1.88,1.88,0,0,0,.7.61,2.07,2.07,0,0,0,.84.17,1.66,1.66,0,0,0,1.42-.66,3,3,0,0,0,.49-1.87,5,5,0,0,0-.11-1.1,2.32,2.32,0,0,0-.33-.76,1.22,1.22,0,0,0-.53-.43,1.71,1.71,0,0,0-.7-.14,1.93,1.93,0,0,0-1,.26,2.84,2.84,0,0,0-.78.74Z"/><path class="cls-2" d="M295.53,161.26v6.59h-.69a.29.29,0,0,1-.31-.24l-.09-.71a3.7,3.7,0,0,1-1,.76,2.53,2.53,0,0,1-1.22.29,2.37,2.37,0,0,1-.95-.18,1.83,1.83,0,0,1-.69-.5,2.07,2.07,0,0,1-.42-.79,3.64,3.64,0,0,1-.14-1v-4.2h1.16v4.2a1.75,1.75,0,0,0,.34,1.16,1.27,1.27,0,0,0,1,.41,1.91,1.91,0,0,0,1-.25,2.85,2.85,0,0,0,.82-.67v-4.85Z"/><path class="cls-2" d="M303.47,167.85h-1.16v-5.62h-3.39v4a.85.85,0,0,0,.2.62.73.73,0,0,0,.52.2A.8.8,0,0,0,300,167l.23-.1.17-.11a.17.17,0,0,1,.28.06l.34.55a2,2,0,0,1-.73.44,2.35,2.35,0,0,1-.87.16,1.59,1.59,0,0,1-1.2-.43,1.74,1.74,0,0,1-.42-1.26v-4H297a.24.24,0,0,1-.17-.06.24.24,0,0,1-.08-.19v-.46l1.08-.15.27-2a.24.24,0,0,1,.09-.16.21.21,0,0,1,.18-.07h.58v2.27h4.55Zm.29-8.7a.71.71,0,0,1-.07.32,1.14,1.14,0,0,1-.18.25,1,1,0,0,1-.27.18.81.81,0,0,1-.31.06.83.83,0,0,1-.32-.06.93.93,0,0,1-.26-.18.85.85,0,0,1-.17-.25.77.77,0,0,1,0-.64,1,1,0,0,1,.17-.27,1.2,1.2,0,0,1,.26-.18.83.83,0,0,1,.32-.06.81.81,0,0,1,.31.06.83.83,0,0,1,.45.45A.71.71,0,0,1,303.76,159.15Z"/><path class="cls-2" d="M306.46,162.22a4.73,4.73,0,0,1,.46-.44,2.78,2.78,0,0,1,.51-.33,2.32,2.32,0,0,1,.57-.22,2.7,2.7,0,0,1,.65-.07,2.33,2.33,0,0,1,1,.18,1.86,1.86,0,0,1,.69.5,2.14,2.14,0,0,1,.42.79,3.31,3.31,0,0,1,.15,1v4.2h-1.17v-4.2a1.78,1.78,0,0,0-.34-1.16,1.28,1.28,0,0,0-1-.41,1.85,1.85,0,0,0-.95.25,3.06,3.06,0,0,0-.83.67v4.85h-1.16v-6.59h.7a.28.28,0,0,1,.3.24Z"/><path class="cls-2" d="M318.18,161.52V162c0,.14-.09.24-.27.27l-.75.1a2,2,0,0,1,.22,1,2.13,2.13,0,0,1-.18.88,2.25,2.25,0,0,1-.51.67,2.45,2.45,0,0,1-.78.43,3.21,3.21,0,0,1-1,.15,3.45,3.45,0,0,1-.87-.11,1,1,0,0,0-.32.27.53.53,0,0,0-.11.3.39.39,0,0,0,.19.35,1.34,1.34,0,0,0,.5.17,4.88,4.88,0,0,0,.72.07l.81,0a7.07,7.07,0,0,1,.82.1,2.54,2.54,0,0,1,.72.24,1.24,1.24,0,0,1,.69,1.19,1.69,1.69,0,0,1-.21.81,2.14,2.14,0,0,1-.61.71,3,3,0,0,1-1,.49,4,4,0,0,1-1.3.19,5.21,5.21,0,0,1-1.26-.14,2.94,2.94,0,0,1-.89-.39,1.66,1.66,0,0,1-.54-.55,1.31,1.31,0,0,1-.18-.66,1.17,1.17,0,0,1,.31-.83,2.22,2.22,0,0,1,.83-.54,1.09,1.09,0,0,1-.46-.35.87.87,0,0,1-.17-.58.79.79,0,0,1,.05-.3,1.1,1.1,0,0,1,.16-.3,1.42,1.42,0,0,1,.26-.29,2,2,0,0,1,.37-.24,2.05,2.05,0,0,1-.76-.73,2.1,2.1,0,0,1-.09-1.92,1.79,1.79,0,0,1,.51-.67,2.42,2.42,0,0,1,.79-.43,3.24,3.24,0,0,1,1-.15,3,3,0,0,1,.8.1,2.48,2.48,0,0,1,.67.27ZM317,168.2a.56.56,0,0,0-.13-.39,1,1,0,0,0-.37-.23,2,2,0,0,0-.54-.12l-.64-.05-.69,0-.68-.07a1.77,1.77,0,0,0-.59.43.85.85,0,0,0-.24.6.75.75,0,0,0,.12.41.86.86,0,0,0,.35.33,1.71,1.71,0,0,0,.58.22,3.52,3.52,0,0,0,.84.08,3.63,3.63,0,0,0,.84-.08,2.58,2.58,0,0,0,.63-.24,1.16,1.16,0,0,0,.39-.37A.86.86,0,0,0,317,168.2Zm-2.08-3.57a1.72,1.72,0,0,0,.62-.1,1.16,1.16,0,0,0,.44-.27,1.07,1.07,0,0,0,.28-.42,1.53,1.53,0,0,0,.09-.54,1.27,1.27,0,0,0-.37-1,1.76,1.76,0,0,0-2.13,0,1.27,1.27,0,0,0-.37,1,1.33,1.33,0,0,0,.1.54,1.17,1.17,0,0,0,.27.42,1.13,1.13,0,0,0,.45.27A1.68,1.68,0,0,0,314.92,164.63Z"/><path class="cls-2" d="M330.55,163.37v3.57a5.31,5.31,0,0,1-1.5.76,6.12,6.12,0,0,1-3.77-.1,4.35,4.35,0,0,1-1.54-1,4.22,4.22,0,0,1-1-1.51,5.18,5.18,0,0,1-.34-1.93,5.45,5.45,0,0,1,.33-1.94,4.27,4.27,0,0,1,.95-1.51,4.41,4.41,0,0,1,1.5-1,5.41,5.41,0,0,1,2-.34,6.63,6.63,0,0,1,1,.08,4.72,4.72,0,0,1,.88.23,5.68,5.68,0,0,1,.74.37,4.49,4.49,0,0,1,.65.5l-.36.57a.38.38,0,0,1-.22.16.35.35,0,0,1-.3-.06l-.35-.22a3.19,3.19,0,0,0-.49-.25,3.56,3.56,0,0,0-.69-.2,4.19,4.19,0,0,0-.93-.09,3.78,3.78,0,0,0-1.42.26,3,3,0,0,0-1.09.73,3.28,3.28,0,0,0-.69,1.16,4.53,4.53,0,0,0-.24,1.52,4.74,4.74,0,0,0,.25,1.57,3.34,3.34,0,0,0,.72,1.18,3,3,0,0,0,1.13.74,4.53,4.53,0,0,0,2.64.1,4.81,4.81,0,0,0,1-.4v-2H328a.24.24,0,0,1-.19-.07.25.25,0,0,1-.08-.18v-.71Z"/><path class="cls-2" d="M333.2,162.58a3,3,0,0,1,.77-1.05,1.63,1.63,0,0,1,1.11-.38,1.75,1.75,0,0,1,.4,0,1.16,1.16,0,0,1,.34.14l-.08.87a.19.19,0,0,1-.2.16,1,1,0,0,1-.26,0,2.35,2.35,0,0,0-.4,0,1.64,1.64,0,0,0-.56.09,1.3,1.3,0,0,0-.43.27,2.06,2.06,0,0,0-.35.45,3.37,3.37,0,0,0-.27.6v4.16H332.1v-6.59h.67a.43.43,0,0,1,.26.07.45.45,0,0,1,.09.25Z"/><path class="cls-2" d="M339.34,161.16a3.4,3.4,0,0,1,1.31.24,2.83,2.83,0,0,1,1,.68,2.86,2.86,0,0,1,.63,1.07,4.6,4.6,0,0,1,0,2.81,2.82,2.82,0,0,1-.63,1.06,2.7,2.7,0,0,1-1,.68,3.4,3.4,0,0,1-1.31.24,3.35,3.35,0,0,1-1.3-.24,2.78,2.78,0,0,1-1-.68,2.94,2.94,0,0,1-.62-1.06,4.6,4.6,0,0,1,0-2.81,3,3,0,0,1,.62-1.07,2.91,2.91,0,0,1,1-.68A3.35,3.35,0,0,1,339.34,161.16Zm0,5.87a1.67,1.67,0,0,0,1.46-.65,3,3,0,0,0,.48-1.82,3.07,3.07,0,0,0-.48-1.84,1.7,1.7,0,0,0-1.46-.65,2,2,0,0,0-.86.17,1.67,1.67,0,0,0-.61.48,2.3,2.3,0,0,0-.36.79,4.21,4.21,0,0,0-.12,1.05,3,3,0,0,0,.48,1.82A1.71,1.71,0,0,0,339.34,167Z"/><path class="cls-2" d="M349.36,161.26v6.59h-.69a.3.3,0,0,1-.32-.24l-.09-.71a3.5,3.5,0,0,1-1,.76,2.53,2.53,0,0,1-1.22.29,2.33,2.33,0,0,1-.95-.18,1.87,1.87,0,0,1-.7-.5,2.2,2.2,0,0,1-.41-.79,3.31,3.31,0,0,1-.14-1v-4.2H345v4.2a1.8,1.8,0,0,0,.34,1.16,1.31,1.31,0,0,0,1.05.41,1.91,1.91,0,0,0,1-.25,3,3,0,0,0,.82-.67v-4.85Z"/><path class="cls-2" d="M352.29,162.28a3.55,3.55,0,0,1,1-.82,2.47,2.47,0,0,1,1.25-.31,2.51,2.51,0,0,1,1,.21,2.11,2.11,0,0,1,.78.65,2.85,2.85,0,0,1,.5,1.05,5.33,5.33,0,0,1,.18,1.45,4.56,4.56,0,0,1-.2,1.36,3.08,3.08,0,0,1-.56,1.08,2.44,2.44,0,0,1-.9.72,2.57,2.57,0,0,1-1.19.27,2.31,2.31,0,0,1-1-.21,2.24,2.24,0,0,1-.77-.57v2.92h-1.16v-8.82h.69a.29.29,0,0,1,.31.24Zm.06,4a1.88,1.88,0,0,0,.7.61,2.07,2.07,0,0,0,.84.17,1.66,1.66,0,0,0,1.42-.66,3,3,0,0,0,.49-1.87,5,5,0,0,0-.11-1.1,2.32,2.32,0,0,0-.33-.76,1.22,1.22,0,0,0-.53-.43,1.71,1.71,0,0,0-.7-.14,1.93,1.93,0,0,0-1,.26,2.84,2.84,0,0,0-.78.74Z"/><path class="cls-2" d="M433.64,72.52a14.71,14.71,0,0,1,14,10,11,11,0,0,1,10.76,11.24A11.41,11.41,0,0,1,447.16,105h-27.7A11,11,0,0,1,408.4,93.78a11.48,11.48,0,0,1,10.94-11.24,15.3,15.3,0,0,1,14.3-10m0-2.07A17.4,17.4,0,0,0,417.9,80.59a13.53,13.53,0,0,0-11.57,13.15,13.08,13.08,0,0,0,13.13,13.36h27.7a13.46,13.46,0,0,0,13.3-13.29,13,13,0,0,0-11.37-13.23,16.78,16.78,0,0,0-15.45-10.13Z"/><path class="cls-2" d="M413.44,99.57a.67.67,0,0,1-.68.67.66.66,0,0,1-.67-.67,9.52,9.52,0,0,1,.73-3.66,9.06,9.06,0,0,1,2-3,9.22,9.22,0,0,1,3-2,9.42,9.42,0,0,1,7.32,0,8.12,8.12,0,0,1,1.48.8l-1.46.72a7.4,7.4,0,0,0-3.66-.93A8.07,8.07,0,0,0,413.44,99.57Z"/><path class="cls-2" d="M423.71,101.11a3.07,3.07,0,0,1-2.2.91,3.13,3.13,0,0,1-2.22-5.33,3.19,3.19,0,0,1,.93-.63l8.1-4-4,8.1A2.84,2.84,0,0,1,423.71,101.11Z"/><path class="cls-2" d="M430.22,100.24a.67.67,0,0,1-.68-.67A8,8,0,0,0,428.11,95l.67-1.37a9.33,9.33,0,0,1,2.12,6A.67.67,0,0,1,430.22,100.24Z"/><path class="cls-2" d="M448.8,100.56a1.28,1.28,0,0,1-1.12,1.43,1.14,1.14,0,0,1-1.06.85,1.25,1.25,0,0,1-1.15-.85,1.35,1.35,0,0,1-1.22-1.43v-1h4.55Z"/><path class="cls-2" d="M449.64,97a2.54,2.54,0,0,0-.84,1.84h-4.55a2.37,2.37,0,0,0-.91-1.84,5.24,5.24,0,0,1-2.13-4.49,5.39,5.39,0,0,1,5.24-5.09,5.31,5.31,0,0,1,5.39,5.32A5.1,5.1,0,0,1,449.64,97Z"/><path class="cls-5" d="M421.49,97.35a1.5,1.5,0,0,0-1.08.44,1.53,1.53,0,1,0,2.16,0A1.53,1.53,0,0,0,421.49,97.35Z"/><path class="cls-2" d="M436,91.12h-4c-.62,0-.94-.28-.71-.78l2.35-4.64c.23-.51.6-.47.83,0l2.28,4.59C437,90.82,436.64,91.12,436,91.12Z"/><path class="cls-2" d="M434,79.73a2.36,2.36,0,1,0,2.36,2.36A2.36,2.36,0,0,0,434,79.73Zm0,3.35a1,1,0,1,1,1-1A1,1,0,0,1,434,83.08Z"/><path class="cls-2" d="M431.41,85.69h0a.5.5,0,0,1,.19.4.51.51,0,0,1-.51.51.46.46,0,0,1-.3-.11h0a5.43,5.43,0,1,1,8.59-4.41,5.45,5.45,0,0,1-2.27,4.42h0a.54.54,0,0,1-.28.08.51.51,0,0,1-.51-.51.51.51,0,0,1,.2-.4h0a4.41,4.41,0,1,0-5.12,0"/><path class="cls-2" d="M438.39,88.76h0a8,8,0,1,0-8.88,0h0a.52.52,0,0,0,.29.09.51.51,0,0,0,.51-.51.52.52,0,0,0-.22-.42h0a7,7,0,1,1,7.75,0h0a.51.51,0,0,0-.23.43.5.5,0,0,0,.51.5.54.54,0,0,0,.28-.08"/><g class="cls-3"><circle class="cls-4" cx="433.4" cy="91.92" r="37.13"/></g><path class="cls-2" d="M403.4,149.79v1.06h-5.28v-9.32h1.25v8.26Z"/><path class="cls-2" d="M406,142.2a.67.67,0,0,1-.07.31,1,1,0,0,1-.18.26.8.8,0,0,1-.27.18.88.88,0,0,1-.64,0,.72.72,0,0,1-.25-.18.81.81,0,0,1-.18-.26.81.81,0,0,1-.06-.31.92.92,0,0,1,.06-.33.81.81,0,0,1,.18-.26.72.72,0,0,1,.25-.18.77.77,0,0,1,.64,0,.8.8,0,0,1,.27.18,1,1,0,0,1,.18.26A.75.75,0,0,1,406,142.2Zm-.25,2.06v6.59h-1.16v-6.59Z"/><path class="cls-2" d="M408.73,145.22a3.81,3.81,0,0,1,.46-.44,2.78,2.78,0,0,1,.51-.33,2.32,2.32,0,0,1,.57-.22,2.7,2.7,0,0,1,.65-.07,2.33,2.33,0,0,1,.95.18,1.86,1.86,0,0,1,.69.5,2.14,2.14,0,0,1,.42.79,3.31,3.31,0,0,1,.14,1v4.2H412v-4.2a1.78,1.78,0,0,0-.34-1.16,1.28,1.28,0,0,0-1-.41,1.91,1.91,0,0,0-1,.25,3.18,3.18,0,0,0-.82.67v4.85h-1.16v-6.59h.69a.29.29,0,0,1,.31.24Z"/><path class="cls-2" d="M414.72,145.19a3.78,3.78,0,0,1,1.18-.78,3.53,3.53,0,0,1,1.4-.26,2.52,2.52,0,0,1,1,.18,2,2,0,0,1,.72.5,2.1,2.1,0,0,1,.44.79,3.31,3.31,0,0,1,.15,1v4.21h-.51a.48.48,0,0,1-.26-.06.37.37,0,0,1-.14-.22l-.13-.62-.51.43a4,4,0,0,1-.52.31,2.81,2.81,0,0,1-.58.19,3,3,0,0,1-.69.07,2.13,2.13,0,0,1-.72-.11,1.68,1.68,0,0,1-.59-.32,1.47,1.47,0,0,1-.4-.54,2.05,2.05,0,0,1-.14-.78,1.47,1.47,0,0,1,.21-.75,2,2,0,0,1,.7-.64,4.84,4.84,0,0,1,1.25-.46,9.8,9.8,0,0,1,1.9-.2v-.51a1.79,1.79,0,0,0-.33-1.17,1.19,1.19,0,0,0-1-.39,2.14,2.14,0,0,0-.72.11,2.59,2.59,0,0,0-.5.24l-.36.24a.53.53,0,0,1-.3.11.37.37,0,0,1-.21-.06,1.07,1.07,0,0,1-.14-.16Zm3.74,2.69a9.52,9.52,0,0,0-1.36.13,4,4,0,0,0-.92.26,1.32,1.32,0,0,0-.51.39.78.78,0,0,0-.16.49,1.25,1.25,0,0,0,.08.45.92.92,0,0,0,.24.31.78.78,0,0,0,.34.17,1.44,1.44,0,0,0,.43.06,2.32,2.32,0,0,0,.55-.06,2,2,0,0,0,.48-.18,2.87,2.87,0,0,0,.43-.28,3.44,3.44,0,0,0,.4-.37Z"/><path class="cls-2" d="M422.45,145.58a3,3,0,0,1,.77-1.05,1.63,1.63,0,0,1,1.11-.38,1.75,1.75,0,0,1,.4,0,1.16,1.16,0,0,1,.34.14l-.08.87a.19.19,0,0,1-.2.16,1,1,0,0,1-.26,0,2.35,2.35,0,0,0-.4,0,1.64,1.64,0,0,0-.56.09,1.3,1.3,0,0,0-.43.27,2.06,2.06,0,0,0-.35.45,3.37,3.37,0,0,0-.27.6v4.16h-1.17v-6.59H422a.43.43,0,0,1,.26.07.45.45,0,0,1,.09.25Z"/><path class="cls-2" d="M428.59,144.16a3.31,3.31,0,0,1,1.3.24,2.78,2.78,0,0,1,1,.68,3,3,0,0,1,.63,1.07,4.6,4.6,0,0,1,0,2.81,3,3,0,0,1-.63,1.06,2.66,2.66,0,0,1-1,.68,3.31,3.31,0,0,1-1.3.24,3.43,3.43,0,0,1-1.31-.24,2.83,2.83,0,0,1-1-.68,2.94,2.94,0,0,1-.62-1.06,4.6,4.6,0,0,1,0-2.81,2.77,2.77,0,0,1,1.61-1.75A3.43,3.43,0,0,1,428.59,144.16Zm0,5.87a1.68,1.68,0,0,0,1.46-.65,3,3,0,0,0,.48-1.82,3.07,3.07,0,0,0-.48-1.84,1.71,1.71,0,0,0-1.46-.65,2,2,0,0,0-.86.17,1.59,1.59,0,0,0-.61.48,2.3,2.3,0,0,0-.36.79,4.21,4.21,0,0,0-.12,1.05,3,3,0,0,0,.48,1.82A1.71,1.71,0,0,0,428.59,150Z"/><path class="cls-2" d="M438.05,150.85h-1.26v-9.32h1.26Z"/><path class="cls-2" d="M442.73,144.16a3.35,3.35,0,0,1,1.3.24,2.78,2.78,0,0,1,1,.68,3.16,3.16,0,0,1,.63,1.07,4.6,4.6,0,0,1,0,2.81A3.11,3.11,0,0,1,445,150a2.66,2.66,0,0,1-1,.68,3.35,3.35,0,0,1-1.3.24,3.43,3.43,0,0,1-1.31-.24,2.66,2.66,0,0,1-1-.68,3.11,3.11,0,0,1-.63-1.06,4.81,4.81,0,0,1,0-2.81,3.16,3.16,0,0,1,.63-1.07,2.78,2.78,0,0,1,1-.68A3.43,3.43,0,0,1,442.73,144.16Zm0,5.87a1.68,1.68,0,0,0,1.46-.65,3,3,0,0,0,.48-1.82,3.07,3.07,0,0,0-.48-1.84,1.71,1.71,0,0,0-1.46-.65,1.94,1.94,0,0,0-.86.17,1.59,1.59,0,0,0-.61.48,2.3,2.3,0,0,0-.36.79,4.21,4.21,0,0,0-.12,1.05,3,3,0,0,0,.48,1.82A1.69,1.69,0,0,0,442.73,150Z"/><path class="cls-2" d="M452.29,142.59h-3v8.26H448v-8.26h-3v-1.06h7.29Z"/><path class="cls-2" d="M464.57,150.85h-1.13a.81.81,0,0,1-.3,0,.68.68,0,0,1-.26-.19l-.94-1a4.64,4.64,0,0,1-1.41.94,4.34,4.34,0,0,1-1.75.35,3.21,3.21,0,0,1-1-.17,2.91,2.91,0,0,1-.89-.51,2.56,2.56,0,0,1-.64-.82,2.39,2.39,0,0,1-.24-1.09,2.47,2.47,0,0,1,.15-.86,3.11,3.11,0,0,1,.43-.75,3.77,3.77,0,0,1,.64-.62,4.34,4.34,0,0,1,.82-.46,4.18,4.18,0,0,1-.59-1,2.75,2.75,0,0,1-.19-1,2.21,2.21,0,0,1,.18-.89,2.13,2.13,0,0,1,.49-.73,2.49,2.49,0,0,1,.79-.48,2.89,2.89,0,0,1,1.05-.18,2.52,2.52,0,0,1,.93.16,2.41,2.41,0,0,1,.73.44,2.15,2.15,0,0,1,.48.64,2,2,0,0,1,.21.75l-.72.14c-.15,0-.25,0-.32-.2a1.48,1.48,0,0,0-.15-.35,1.35,1.35,0,0,0-.26-.33,1.14,1.14,0,0,0-.38-.25,1.24,1.24,0,0,0-.52-.1,1.55,1.55,0,0,0-.59.11,1.17,1.17,0,0,0-.45.29,1,1,0,0,0-.28.43,1.4,1.4,0,0,0-.1.54,2,2,0,0,0,.05.44,1.48,1.48,0,0,0,.17.42,2.55,2.55,0,0,0,.29.44,4.18,4.18,0,0,0,.42.46l2.68,2.73a5.29,5.29,0,0,0,.39-.92,4.74,4.74,0,0,0,.2-1,.31.31,0,0,1,.08-.2.21.21,0,0,1,.18-.07h.71a5.26,5.26,0,0,1-.24,1.47,5.35,5.35,0,0,1-.65,1.34Zm-6-4.59a2.78,2.78,0,0,0-1,.88,2,2,0,0,0-.35,1.13,1.8,1.8,0,0,0,.16.75,1.68,1.68,0,0,0,.41.54,1.59,1.59,0,0,0,.58.33,1.92,1.92,0,0,0,.66.12,3.07,3.07,0,0,0,1.31-.27,3.34,3.34,0,0,0,1-.71Z"/><path class="cls-2" d="M387.76,166.82v1H382v-9.32h5.74v1h-4.48v3.09h3.63v1h-3.63v3.18Z"/><path class="cls-2" d="M389.07,167.85v-6.59h.69a.29.29,0,0,1,.31.24l.08.68a3.57,3.57,0,0,1,.82-.74,1.92,1.92,0,0,1,1-.28,1.56,1.56,0,0,1,1.08.37,2.12,2.12,0,0,1,.59,1,2.37,2.37,0,0,1,.37-.62,2.53,2.53,0,0,1,.5-.43,2.22,2.22,0,0,1,.6-.24,2.29,2.29,0,0,1,.64-.08,2.49,2.49,0,0,1,.93.16,1.78,1.78,0,0,1,.68.49,2.12,2.12,0,0,1,.44.78,3.48,3.48,0,0,1,.15,1.06v4.2h-1.17v-4.2a1.76,1.76,0,0,0-.34-1.17,1.18,1.18,0,0,0-1-.4,1.62,1.62,0,0,0-.54.1,1.37,1.37,0,0,0-.45.3,1.29,1.29,0,0,0-.31.49,1.79,1.79,0,0,0-.12.68v4.2h-1.16v-4.2a1.87,1.87,0,0,0-.32-1.18,1.12,1.12,0,0,0-.93-.39,1.48,1.48,0,0,0-.79.23,2.83,2.83,0,0,0-.67.63v4.91Z"/><path class="cls-2" d="M400.92,162.21a3.61,3.61,0,0,1,.94-.77,2.49,2.49,0,0,1,1.21-.28,2.36,2.36,0,0,1,1,.22,2.21,2.21,0,0,1,.79.64,3,3,0,0,1,.5,1,5,5,0,0,1,.17,1.34,5.1,5.1,0,0,1-.2,1.46,3.19,3.19,0,0,1-.56,1.12,2.49,2.49,0,0,1-.89.72,2.69,2.69,0,0,1-1.18.26,2.18,2.18,0,0,1-1.1-.25,2.32,2.32,0,0,1-.78-.69l-.06.6a.28.28,0,0,1-.29.25h-.75v-9.58h1.16Zm0,4a1.88,1.88,0,0,0,.7.61,2.07,2.07,0,0,0,.84.17,1.68,1.68,0,0,0,1.42-.66,3.2,3.2,0,0,0,.49-1.95,2.86,2.86,0,0,0-.44-1.78,1.48,1.48,0,0,0-1.25-.57,1.86,1.86,0,0,0-1,.26,2.84,2.84,0,0,0-.78.74Z"/><path class="cls-2" d="M412.38,166.92a2,2,0,0,1-.51.46,3.78,3.78,0,0,1-.64.31,5.71,5.71,0,0,1-.71.19,4.37,4.37,0,0,1-.72.06,3.48,3.48,0,0,1-1.26-.23,2.83,2.83,0,0,1-1-.68,3.16,3.16,0,0,1-.66-1.1,4.65,4.65,0,0,1-.23-1.51,3.88,3.88,0,0,1,.21-1.29,3.13,3.13,0,0,1,.61-1,2.85,2.85,0,0,1,1-.69,3.13,3.13,0,0,1,1.29-.25,2.82,2.82,0,0,1,1.09.2,2.35,2.35,0,0,1,.87.57,2.63,2.63,0,0,1,.58.92,3.52,3.52,0,0,1,.21,1.25.74.74,0,0,1-.06.37.25.25,0,0,1-.22.09H407.8a4.12,4.12,0,0,0,.18,1.08,2.1,2.1,0,0,0,.42.77,1.78,1.78,0,0,0,.65.47,2.3,2.3,0,0,0,.85.15,2.72,2.72,0,0,0,.75-.1,3.54,3.54,0,0,0,.54-.22,3.9,3.9,0,0,0,.38-.22.48.48,0,0,1,.26-.1.28.28,0,0,1,.23.11Zm-.93-3.08a2.17,2.17,0,0,0-.12-.74,1.66,1.66,0,0,0-.33-.58,1.56,1.56,0,0,0-.53-.38,2,2,0,0,0-2,.35,2.27,2.27,0,0,0-.61,1.35Z"/><path class="cls-2" d="M419.35,158.27v9.58h-.69a.29.29,0,0,1-.31-.24l-.11-.8a3.55,3.55,0,0,1-1,.82,2.52,2.52,0,0,1-1.25.31,2.28,2.28,0,0,1-1-.22,2.11,2.11,0,0,1-.79-.64,3,3,0,0,1-.5-1.05,5.33,5.33,0,0,1-.18-1.45,4.56,4.56,0,0,1,.2-1.36,3.4,3.4,0,0,1,.56-1.09,2.56,2.56,0,0,1,2.08-1,2.36,2.36,0,0,1,1,.2,2.53,2.53,0,0,1,.77.57v-3.65Zm-1.16,4.56a1.88,1.88,0,0,0-.7-.61,2.08,2.08,0,0,0-.85-.17,1.66,1.66,0,0,0-1.41.66,3.11,3.11,0,0,0-.49,1.87,5,5,0,0,0,.11,1.1,1.92,1.92,0,0,0,.33.75,1.3,1.3,0,0,0,.52.44,1.8,1.8,0,0,0,.71.13,1.84,1.84,0,0,0,1-.26,3,3,0,0,0,.78-.73Z"/><path class="cls-2" d="M426.63,158.27v9.58h-.69a.29.29,0,0,1-.31-.24l-.11-.8a3.55,3.55,0,0,1-1,.82,2.52,2.52,0,0,1-1.25.31,2.28,2.28,0,0,1-1-.22,2.11,2.11,0,0,1-.79-.64A3,3,0,0,1,421,166a5.33,5.33,0,0,1-.18-1.45,4.56,4.56,0,0,1,.2-1.36,3.4,3.4,0,0,1,.56-1.09,2.6,2.6,0,0,1,.89-.72,2.57,2.57,0,0,1,1.19-.26,2.36,2.36,0,0,1,1,.2,2.53,2.53,0,0,1,.77.57v-3.65Zm-1.16,4.56a1.88,1.88,0,0,0-.7-.61,2.08,2.08,0,0,0-.85-.17,1.66,1.66,0,0,0-1.41.66,3.11,3.11,0,0,0-.49,1.87,5,5,0,0,0,.11,1.1,1.92,1.92,0,0,0,.33.75,1.3,1.3,0,0,0,.52.44,1.8,1.8,0,0,0,.71.13,1.82,1.82,0,0,0,1-.26,3,3,0,0,0,.78-.73Z"/><path class="cls-2" d="M433.8,166.92a2,2,0,0,1-.51.46,3.44,3.44,0,0,1-.64.31,5.56,5.56,0,0,1-.7.19,4.59,4.59,0,0,1-.73.06,3.39,3.39,0,0,1-1.25-.23,2.78,2.78,0,0,1-1-.68,3,3,0,0,1-.65-1.1,4.39,4.39,0,0,1-.24-1.51,3.88,3.88,0,0,1,.22-1.29,3.1,3.1,0,0,1,.6-1,3,3,0,0,1,1-.69,3.13,3.13,0,0,1,1.29-.25,2.78,2.78,0,0,1,1.09.2,2.48,2.48,0,0,1,.88.57,2.76,2.76,0,0,1,.57.92,3.52,3.52,0,0,1,.21,1.25.74.74,0,0,1-.06.37.24.24,0,0,1-.22.09h-4.4a3.76,3.76,0,0,0,.17,1.08,2.12,2.12,0,0,0,.43.77,1.78,1.78,0,0,0,.65.47,2.24,2.24,0,0,0,.84.15,2.72,2.72,0,0,0,.75-.1,4.19,4.19,0,0,0,.55-.22l.38-.22a.48.48,0,0,1,.26-.1.27.27,0,0,1,.22.11Zm-.93-3.08a2.45,2.45,0,0,0-.11-.74,1.68,1.68,0,0,0-.34-.58,1.47,1.47,0,0,0-.53-.38,1.71,1.71,0,0,0-.7-.13,1.78,1.78,0,0,0-1.32.48,2.32,2.32,0,0,0-.6,1.35Z"/><path class="cls-2" d="M440.77,158.27v9.58h-.69a.3.3,0,0,1-.31-.24l-.1-.8a3.55,3.55,0,0,1-1,.82,2.54,2.54,0,0,1-1.25.31,2.32,2.32,0,0,1-1-.22,2.11,2.11,0,0,1-.79-.64,3.2,3.2,0,0,1-.5-1.05,5.77,5.77,0,0,1-.17-1.45,4.56,4.56,0,0,1,.19-1.36,3.4,3.4,0,0,1,.56-1.09,2.63,2.63,0,0,1,.9-.72,2.57,2.57,0,0,1,1.19-.26,2.38,2.38,0,0,1,1,.2,2.8,2.8,0,0,1,.77.57v-3.65Zm-1.15,4.56a1.91,1.91,0,0,0-.71-.61,2.07,2.07,0,0,0-.84-.17,1.66,1.66,0,0,0-1.41.66,3,3,0,0,0-.5,1.87,4.4,4.4,0,0,0,.12,1.1,2.07,2.07,0,0,0,.32.75,1.32,1.32,0,0,0,.53.44,1.71,1.71,0,0,0,.7.13,1.8,1.8,0,0,0,1-.26,2.84,2.84,0,0,0,.79-.73Z"/><path class="cls-2" d="M453.77,163.37v3.57a5.18,5.18,0,0,1-1.5.76,6.12,6.12,0,0,1-3.77-.1,4.35,4.35,0,0,1-1.54-1,4.22,4.22,0,0,1-1-1.51,5.18,5.18,0,0,1-.34-1.93,5.45,5.45,0,0,1,.33-1.94,4.19,4.19,0,0,1,2.46-2.48,5.36,5.36,0,0,1,2-.34,6.63,6.63,0,0,1,1,.08,4.53,4.53,0,0,1,.88.23,4.64,4.64,0,0,1,.74.37,4.49,4.49,0,0,1,.65.5l-.36.57a.38.38,0,0,1-.22.16.33.33,0,0,1-.29-.06,3.9,3.9,0,0,1-.36-.22,2.78,2.78,0,0,0-.49-.25,3.45,3.45,0,0,0-.68-.2,4.35,4.35,0,0,0-.94-.09,3.82,3.82,0,0,0-1.42.26,3,3,0,0,0-1.09.73,3.42,3.42,0,0,0-.68,1.16,5,5,0,0,0,0,3.09,3.19,3.19,0,0,0,.71,1.18,3.13,3.13,0,0,0,1.13.74,4.12,4.12,0,0,0,1.49.25,4.06,4.06,0,0,0,1.15-.15,4.89,4.89,0,0,0,1-.4v-2h-1.45a.26.26,0,0,1-.2-.07.25.25,0,0,1-.08-.18v-.71Z"/><path class="cls-2" d="M456.42,162.58a3,3,0,0,1,.77-1.05,1.65,1.65,0,0,1,1.11-.38,1.75,1.75,0,0,1,.4,0,1.16,1.16,0,0,1,.34.14l-.08.87a.19.19,0,0,1-.2.16,1.09,1.09,0,0,1-.26,0,2.35,2.35,0,0,0-.4,0,1.55,1.55,0,0,0-.55.09,1.25,1.25,0,0,0-.44.27,1.77,1.77,0,0,0-.34.45,2.78,2.78,0,0,0-.28.6v4.16h-1.16v-6.59H456a.4.4,0,0,1,.26.07.45.45,0,0,1,.1.25Z"/><path class="cls-2" d="M462.57,161.16a3.38,3.38,0,0,1,1.3.24,2.77,2.77,0,0,1,1.61,1.75,4.6,4.6,0,0,1,0,2.81,2.94,2.94,0,0,1-.62,1.06,2.83,2.83,0,0,1-1,.68,3.67,3.67,0,0,1-2.61,0,2.66,2.66,0,0,1-1-.68,2.82,2.82,0,0,1-.63-1.06,4.6,4.6,0,0,1,0-2.81,2.86,2.86,0,0,1,.63-1.07,2.78,2.78,0,0,1,1-.68A3.4,3.4,0,0,1,462.57,161.16Zm0,5.87a1.66,1.66,0,0,0,1.45-.65,3,3,0,0,0,.48-1.82,3.07,3.07,0,0,0-.48-1.84,1.69,1.69,0,0,0-1.45-.65,1.91,1.91,0,0,0-.86.17,1.52,1.52,0,0,0-.61.48,2.14,2.14,0,0,0-.37.79,4.21,4.21,0,0,0-.12,1.05,2.94,2.94,0,0,0,.49,1.82A1.69,1.69,0,0,0,462.57,167Z"/><path class="cls-2" d="M472.58,161.26v6.59h-.69a.29.29,0,0,1-.31-.24l-.09-.71a3.7,3.7,0,0,1-1,.76,2.53,2.53,0,0,1-1.22.29,2.33,2.33,0,0,1-.95-.18,1.76,1.76,0,0,1-.69-.5,2.07,2.07,0,0,1-.42-.79,3.31,3.31,0,0,1-.14-1v-4.2h1.15v4.2a1.75,1.75,0,0,0,.35,1.16,1.27,1.27,0,0,0,1,.41,1.91,1.91,0,0,0,1-.25,3,3,0,0,0,.82-.67v-4.85Z"/><path class="cls-2" d="M475.52,162.28a3.27,3.27,0,0,1,1-.82,2.66,2.66,0,0,1,2.28-.1,2.14,2.14,0,0,1,.79.65,3.2,3.2,0,0,1,.5,1.05,5.77,5.77,0,0,1,.17,1.45,4.56,4.56,0,0,1-.19,1.36,3.09,3.09,0,0,1-.57,1.08,2.49,2.49,0,0,1-.89.72,2.62,2.62,0,0,1-1.2.27,2.34,2.34,0,0,1-1-.21,2.24,2.24,0,0,1-.77-.57v2.92h-1.16v-8.82h.7a.28.28,0,0,1,.3.24Zm.05,4a2,2,0,0,0,.7.61,2.07,2.07,0,0,0,.84.17,1.66,1.66,0,0,0,1.42-.66,3,3,0,0,0,.5-1.87,4.4,4.4,0,0,0-.12-1.1,2,2,0,0,0-.33-.76,1.26,1.26,0,0,0-.52-.43,1.8,1.8,0,0,0-.71-.14,1.87,1.87,0,0,0-1,.26,2.74,2.74,0,0,0-.79.74Z"/><path class="cls-2" d="M92.85,87.42h0L67.39,72.94h0a.9.9,0,0,0-.48-.14,1,1,0,0,0-.35.07h0L38.09,85.7h0a1,1,0,0,0-.6.89V94h0a1,1,0,0,0,.54.76h0l25.69,14.32h0a.94.94,0,0,0,.45.12,1,1,0,0,0,.34-.07h0l.07,0,28.1-12.86h0a.94.94,0,0,0,.63-.9V88.25A1,1,0,0,0,92.85,87.42Zm-52.56,7.5-1.83-1V90.73l1.83,1Zm2.61,1.46-1.82-1V92.19l1.82,1Zm2.62,1.46-1.83-1V93.65l1.83,1Zm2.61,1.46-1.82-1V95.11l1.82,1Zm2.62,1.46-1.83-1V96.57l1.83,1Zm2.61,1.46-1.82-1V98l1.82,1ZM56,103.68l-1.83-1V99.49l1.83,1Zm2.62,1.46-1.83-1V101l1.83,1Zm2.61,1.46-1.82-1v-3.17l1.82,1Zm2.62,1.47-1.83-1v-3.17l1.83,1Zm2.7-.93-2,.93v-3.15l2-.93Zm2.87-1.32-2,.92v-3.15l2-.92Zm2.88-1.32-2,.92v-3.15l2-.92Zm2.87-1.33-2,.93V101l2-.93ZM78,101.85l-2,.92V99.62l2-.92Zm2.87-1.32-2,.92V98.3l2-.92Zm2.87-1.33-2,.93V97l2-.93Zm2.88-1.32-2,.92V95.65l2-.92Zm2.87-1.32-2,.92V94.33l2-.92Zm2.87-1.33-2,.93V93l2-.93Zm-28.17,6L38.45,86.77,66.88,74l25.5,14.48Z"/><g class="cls-3"><circle class="cls-4" cx="65.42" cy="91.92" r="37.13"/></g><path class="cls-2" d="M55.17,89.41,52,90.8l0,0c-.77-.43-.7-1.09.16-1.48a3.69,3.69,0,0,1,3,.08Z"/><path class="cls-2" d="M57,90.43l-3.15,1.38L52.45,91l3.13-1.39Z"/><path class="cls-2" d="M59.44,91.77,56.3,93.15l-2-1.11,3.14-1.39Z"/><path class="cls-2" d="M60.81,94.08a3.71,3.71,0,0,1-3-.07l-1.15-.63L59.87,92l1.09.6C61.74,93,61.67,93.69,60.81,94.08Z"/><path class="cls-2" d="M73.84,81.51,71,82.74l-.3.13-.53-.29c-.77-.42-.7-1.09.15-1.47a3.78,3.78,0,0,1,3,.07Z"/><path class="cls-2" d="M78.94,84.33a8.91,8.91,0,0,1-4.58.55h-.07l-3.2-1.77,3.15-1.38Z"/><path class="cls-2" d="M79,85.89a3.8,3.8,0,0,1-3-.07l-1.12-.62c.62,0,1.25,0,1.87.07A3,3,0,0,0,78.2,85l1.09-.49C79.86,85,79.73,85.54,79,85.89Z"/><path class="cls-2" d="M61.55,85.29c0,.34-.07.68-.1,1s-.21.47-.64.65c-1.68.74-3.37,1.46-5.05,2.19l-1.24-.68Z"/><path class="cls-2" d="M68.75,90.56a15.64,15.64,0,0,1-.2,1.78.7.7,0,0,1-.39.41c-.79.37-1.61.73-2.44,1.08h0a3.86,3.86,0,0,1-2.1-.35L63,93.16l.61-.28a1.89,1.89,0,0,1,1.28-.16,2.1,2.1,0,0,0,1.72-.35c.34-.31.31-.62-.16-.9a2.7,2.7,0,0,0-1.83-.24c-.64.13-1,.44-1,.79a1.5,1.5,0,0,0,.15.38l-1.22.54-2.17-1.2c.32-.14.63-.27.94-.42a1.64,1.64,0,0,1,.71,0,2.73,2.73,0,0,0,2-.29c.4-.31.33-.69-.16-1a2.84,2.84,0,0,0-1.84-.2c-.72.17-1,.49-.87.93a.31.31,0,0,1-.2.34l-.95.43-2-1.13,2.51-1.11a5.71,5.71,0,0,1,2.83-.48c3.11.15,3.12.12,5.12,1.34A.54.54,0,0,1,68.75,90.56Z"/><path class="cls-2" d="M73.92,91l-.16.06-.67-.37L72.5,91c-.34-.21-.3-.51.1-.69a1.86,1.86,0,0,1,1.41,0C74.36,90.53,74.32,90.86,73.92,91Z"/><path class="cls-2" d="M72.85,85.34a1.76,1.76,0,0,1-1.39-.07c-.36-.2-.32-.51.1-.69a1.87,1.87,0,0,1,1-.08,0,0,0,0,1,0,0l.58.31h0C73.25,85,73.14,85.22,72.85,85.34Z"/><path class="cls-2" d="M77.25,87.09,74,88.52a2.88,2.88,0,0,1-1.33.23c-1-.06-1.94-.06-2.9-.12a2.65,2.65,0,0,1-1-.23c-.83-.43-1.54-.93-2.42-1.33s-1.25-.93-1-1.53c.06-.18.09-.31.5-.38.69-.13,1-.5.9-.85a1.72,1.72,0,0,0-1.46-.66H65.2l3.19-1.43,1.7.93c-1.08.57-1.69,1.19-1.47,2.06.06.27-.08.46-.67.61-.84.2-1,.75-.44,1.12a2.85,2.85,0,0,0,2.33.14c.69-.3.82-.89,0-1.13s-.69-.58-.64-.93a4.11,4.11,0,0,0,.07-.78c0-.26.2-.43.58-.6l.61-.26,1.47.81h-.1c-.69.07-1.23.38-1.26.74s.45.69,1.12.79a2.62,2.62,0,0,0,1.87-.35,1.3,1.3,0,0,1,.32-.11Z"/><path class="cls-2" d="M79.74,92.05l-.39-.22c-1-.53-1.59-1.06-1.62-1.67l1.58.86C79.83,91.31,80,91.7,79.74,92.05Z"/><path class="cls-2" d="M64.3,80.8l-1.57.7a3.07,3.07,0,0,1,.19.34c.14.34-.19.67-.82.84a2.89,2.89,0,0,1-1.85-.15c-.51-.26-.62-.62-.3-.93a2.08,2.08,0,0,1,1.67-.4A1.89,1.89,0,0,0,62.91,81l.71-.31a17.7,17.7,0,0,0-4.3,0l-.69-1.48c0-.08-.19-.13-.36-.11a.28.28,0,0,0-.13,0c-.08,0-.11.09-.09.14l.7,1.51a14,14,0,0,0-3.57,1,7,7,0,0,0-2.43,1.67l-2.92-.5a.41.41,0,0,0-.38.09c-.05.08,0,.17.19.19l2.88.49c-1.11,1.5-.65,3.18,1.5,4.38l7.6-3.44c0-.25.05-.51.07-.76s.2-.46.61-.64l4.42-2A12.6,12.6,0,0,0,64.3,80.8Zm-8.88,4.41a1.38,1.38,0,0,1-1.11,0c-.29-.17-.27-.42.06-.56a1.42,1.42,0,0,1,1.11,0C55.77,84.82,55.74,85.07,55.42,85.21Z"/><path class="cls-2" d="M67.9,81.93l-5.65,2.55c0-.13,0-.25.07-.38a.9.9,0,0,1,.53-.56l4.34-2C67.44,81.7,67.68,81.81,67.9,81.93Z"/><path class="cls-2" d="M62,82.33a1.72,1.72,0,0,1-1.39,0c-.37-.19-.36-.51,0-.7a1.81,1.81,0,0,1,1.39,0C62.45,81.84,62.44,82.14,62,82.33Z"/><path class="cls-2" d="M63.36,90.92a1.78,1.78,0,0,1-1.4-.07c-.35-.21-.29-.52.13-.69a1.69,1.69,0,0,1,1.38.06C63.82,90.44,63.77,90.75,63.36,90.92Z"/><path class="cls-2" d="M65.92,92.33a1.71,1.71,0,0,1-1.4,0c-.36-.2-.33-.51.07-.7a1.77,1.77,0,0,1,1.39,0C66.36,91.85,66.33,92.15,65.92,92.33Z"/><path class="cls-2" d="M77.63,91.28a.89.89,0,0,1-.52-.73,1.33,1.33,0,0,1,0-.72l-1-.52,1.12-.5c.86-.39,1-1,.32-1.49l-3.38,1.49a3.16,3.16,0,0,1-1.46.25c-1.09-.06-2.19-.07-3.28-.14a2.49,2.49,0,0,1-1-.25c-1.11-.59-2.15-1.22-3.26-1.81-.43-.23-.65-.46-.54-.77a4.63,4.63,0,0,0,.07-.52c0-.21,0-.36-.45-.48s-.72-.38-.72-.64a.38.38,0,0,1,0-.1L62.17,85c-.06.49-.1,1-.13,1.43,0,.3-.24.5-.69.69l-5.18,2.25,1.43.79,3.46-1.51a2.91,2.91,0,0,1,1.11-.18c1.24,0,2.49,0,3.72.12a3.18,3.18,0,0,1,1.14.28,7.29,7.29,0,0,1,2.23,1.33c.36.51-.08,1.16,0,1.73s-.31.93-1.08,1.25L71,94.77a3.75,3.75,0,0,0,3,.07c.86-.39.93-1,.15-1.47L71,91.65l1-.47a1.84,1.84,0,0,1-.22-.17c-.33-.32-.19-.71.36-1a3,3,0,0,1,1.94,0c.62.2.85.56.59.95a2.39,2.39,0,0,1-.16.22l2.76,1.57h0a3.73,3.73,0,0,0,1.81-.25,1.49,1.49,0,0,0,.31-.18Zm-6.15,2.17a3,3,0,0,1,2.29.06c.59.33.53.86-.13,1.14a2.91,2.91,0,0,1-2.23-.09C70.84,94.24,70.87,93.74,71.48,93.45Z"/><path class="cls-2" d="M71.84,94.36a1.83,1.83,0,0,0,1.4.06c.4-.17.45-.5.1-.7a1.81,1.81,0,0,0-1.41-.06C71.53,93.83,71.49,94.15,71.84,94.36Z"/><path class="cls-2" d="M73.24,94.42a1.83,1.83,0,0,1-1.4-.06c-.35-.21-.31-.53.09-.7a1.81,1.81,0,0,1,1.41.06C73.69,93.92,73.64,94.25,73.24,94.42Z"/><path class="cls-2" d="M69.48,86.83a1.88,1.88,0,0,1-1.4,0c-.38-.2-.37-.51,0-.7a1.72,1.72,0,0,1,1.39,0C69.88,86.33,69.87,86.64,69.48,86.83Z"/><path class="cls-2" d="M65.86,84.82a1.8,1.8,0,0,1-1.39,0c-.37-.21-.32-.52.09-.7a1.68,1.68,0,0,1,1.39.06C66.31,84.33,66.27,84.65,65.86,84.82Z"/><path class="cls-2" d="M53.17,149.79v1.06H47.89v-9.32h1.25v8.26Z"/><path class="cls-2" d="M55.76,142.2a.67.67,0,0,1-.07.31,1,1,0,0,1-.18.26.8.8,0,0,1-.27.18.88.88,0,0,1-.64,0,.72.72,0,0,1-.25-.18.81.81,0,0,1-.18-.26.81.81,0,0,1-.06-.31.92.92,0,0,1,.06-.33.81.81,0,0,1,.18-.26.72.72,0,0,1,.25-.18.77.77,0,0,1,.64,0,.8.8,0,0,1,.27.18,1,1,0,0,1,.18.26A.75.75,0,0,1,55.76,142.2Zm-.25,2.06v6.59H54.35v-6.59Z"/><path class="cls-2" d="M58.5,145.22a3.81,3.81,0,0,1,.46-.44,2.78,2.78,0,0,1,.51-.33,2.32,2.32,0,0,1,.57-.22,2.7,2.7,0,0,1,.65-.07,2.33,2.33,0,0,1,1,.18,1.86,1.86,0,0,1,.69.5,2.14,2.14,0,0,1,.42.79,3.31,3.31,0,0,1,.14,1v4.2H61.73v-4.2a1.78,1.78,0,0,0-.34-1.16,1.28,1.28,0,0,0-1-.41,1.91,1.91,0,0,0-1,.25,3.18,3.18,0,0,0-.82.67v4.85H57.41v-6.59h.69a.29.29,0,0,1,.31.24Z"/><path class="cls-2" d="M64.49,145.19a3.78,3.78,0,0,1,1.18-.78,3.53,3.53,0,0,1,1.4-.26,2.52,2.52,0,0,1,1,.18,2,2,0,0,1,.72.5,2.1,2.1,0,0,1,.44.79,3.31,3.31,0,0,1,.15,1v4.21h-.51a.48.48,0,0,1-.26-.06.37.37,0,0,1-.14-.22l-.13-.62-.51.43a4,4,0,0,1-.52.31,2.81,2.81,0,0,1-.58.19A3,3,0,0,1,66,151a2.17,2.17,0,0,1-.72-.11,1.68,1.68,0,0,1-.59-.32,1.34,1.34,0,0,1-.39-.54,1.87,1.87,0,0,1-.15-.78,1.47,1.47,0,0,1,.21-.75,2,2,0,0,1,.7-.64,4.84,4.84,0,0,1,1.25-.46,9.8,9.8,0,0,1,1.9-.2v-.51a1.79,1.79,0,0,0-.33-1.17,1.19,1.19,0,0,0-1-.39,2.18,2.18,0,0,0-.72.11,2.59,2.59,0,0,0-.5.24l-.36.24a.53.53,0,0,1-.3.11.37.37,0,0,1-.21-.06,1.07,1.07,0,0,1-.14-.16Zm3.74,2.69a9.52,9.52,0,0,0-1.36.13,4,4,0,0,0-.92.26,1.32,1.32,0,0,0-.51.39.78.78,0,0,0-.16.49,1.25,1.25,0,0,0,.08.45.92.92,0,0,0,.24.31.78.78,0,0,0,.34.17,1.44,1.44,0,0,0,.43.06,2.32,2.32,0,0,0,.55-.06,2,2,0,0,0,.48-.18,2.44,2.44,0,0,0,.43-.28,3.44,3.44,0,0,0,.4-.37Z"/><path class="cls-2" d="M72.22,145.58a3,3,0,0,1,.77-1.05,1.63,1.63,0,0,1,1.11-.38,1.75,1.75,0,0,1,.4,0,1.16,1.16,0,0,1,.34.14l-.08.87a.19.19,0,0,1-.2.16,1,1,0,0,1-.26,0,2.35,2.35,0,0,0-.4,0,1.64,1.64,0,0,0-.56.09,1.3,1.3,0,0,0-.43.27,1.8,1.8,0,0,0-.35.45,3.37,3.37,0,0,0-.27.6v4.16H71.12v-6.59h.67a.43.43,0,0,1,.26.07.45.45,0,0,1,.09.25Z"/><path class="cls-2" d="M78.36,144.16a3.31,3.31,0,0,1,1.3.24,2.78,2.78,0,0,1,1,.68,3,3,0,0,1,.63,1.07,4.6,4.6,0,0,1,0,2.81,3,3,0,0,1-.63,1.06,2.66,2.66,0,0,1-1,.68,3.31,3.31,0,0,1-1.3.24,3.35,3.35,0,0,1-1.3-.24,2.78,2.78,0,0,1-1-.68,2.94,2.94,0,0,1-.62-1.06,4.6,4.6,0,0,1,0-2.81,3,3,0,0,1,.62-1.07,2.91,2.91,0,0,1,1-.68A3.35,3.35,0,0,1,78.36,144.16Zm0,5.87a1.68,1.68,0,0,0,1.46-.65,3,3,0,0,0,.48-1.82,3.07,3.07,0,0,0-.48-1.84,1.71,1.71,0,0,0-1.46-.65,2,2,0,0,0-.86.17,1.67,1.67,0,0,0-.61.48,2.3,2.3,0,0,0-.36.79,4.21,4.21,0,0,0-.12,1.05,3,3,0,0,0,.48,1.82A1.71,1.71,0,0,0,78.36,150Z"/><path class="cls-2" d="M23.52,165.92a.23.23,0,0,1,.18.09l.5.54a4,4,0,0,1-1.39,1,5.17,5.17,0,0,1-3.79,0,4,4,0,0,1-1.4-1,4.44,4.44,0,0,1-.89-1.51,5.39,5.39,0,0,1-.32-1.93,5.47,5.47,0,0,1,.33-1.93,4.46,4.46,0,0,1,.93-1.51,4.11,4.11,0,0,1,1.44-1,4.66,4.66,0,0,1,1.85-.35,4.57,4.57,0,0,1,1.76.32,4.46,4.46,0,0,1,1.34.86l-.42.58a.35.35,0,0,1-.1.11.29.29,0,0,1-.17,0,.49.49,0,0,1-.28-.13,4.34,4.34,0,0,0-.44-.28,3.28,3.28,0,0,0-.69-.28,3.19,3.19,0,0,0-1-.13,3.34,3.34,0,0,0-1.32.25,2.89,2.89,0,0,0-1,.73,3.28,3.28,0,0,0-.68,1.15,4.65,4.65,0,0,0-.24,1.54,4.73,4.73,0,0,0,.25,1.56,3.46,3.46,0,0,0,.69,1.15,3,3,0,0,0,1,.72,3.31,3.31,0,0,0,1.27.25,5.54,5.54,0,0,0,.75-.05,3.74,3.74,0,0,0,.62-.16,2.53,2.53,0,0,0,.52-.26,3.4,3.4,0,0,0,.49-.38A.34.34,0,0,1,23.52,165.92Z"/><path class="cls-2" d="M28,161.16a3.38,3.38,0,0,1,1.3.24,2.83,2.83,0,0,1,1,.68,2.86,2.86,0,0,1,.63,1.07A4.6,4.6,0,0,1,31,166a2.82,2.82,0,0,1-.63,1.06,2.7,2.7,0,0,1-1,.68,3.67,3.67,0,0,1-2.61,0,2.66,2.66,0,0,1-1-.68,2.82,2.82,0,0,1-.63-1.06,4.6,4.6,0,0,1,0-2.81,2.86,2.86,0,0,1,.63-1.07,2.78,2.78,0,0,1,1-.68A3.36,3.36,0,0,1,28,161.16ZM28,167a1.66,1.66,0,0,0,1.45-.65,3,3,0,0,0,.48-1.82,3.07,3.07,0,0,0-.48-1.84,1.69,1.69,0,0,0-1.45-.65,2,2,0,0,0-.87.17,1.67,1.67,0,0,0-.61.48,2.3,2.3,0,0,0-.36.79,4.21,4.21,0,0,0-.12,1.05,3,3,0,0,0,.48,1.82A1.72,1.72,0,0,0,28,167Z"/><path class="cls-2" d="M33.72,162.22a4.73,4.73,0,0,1,.46-.44,2.78,2.78,0,0,1,.51-.33,2.32,2.32,0,0,1,.57-.22,2.7,2.7,0,0,1,.65-.07,2.42,2.42,0,0,1,1,.18,2,2,0,0,1,.69.5,2.28,2.28,0,0,1,.41.79,3.31,3.31,0,0,1,.15,1v4.2H37v-4.2a1.78,1.78,0,0,0-.34-1.16,1.28,1.28,0,0,0-1-.41,1.86,1.86,0,0,0-1,.25,3.22,3.22,0,0,0-.83.67v4.85H32.63v-6.59h.7a.28.28,0,0,1,.3.24Z"/><path class="cls-2" d="M43.72,162.35a.26.26,0,0,1-.24.14.4.4,0,0,1-.22-.07l-.3-.16a2.61,2.61,0,0,0-.43-.16A2,2,0,0,0,42,162a1.74,1.74,0,0,0-.53.08,1.36,1.36,0,0,0-.4.2.87.87,0,0,0-.25.3.82.82,0,0,0-.09.38.64.64,0,0,0,.14.42,1.32,1.32,0,0,0,.39.29,2.52,2.52,0,0,0,.55.22l.62.2a5.87,5.87,0,0,1,.63.24,2.27,2.27,0,0,1,.55.32,1.47,1.47,0,0,1,.38.48,1.45,1.45,0,0,1,.15.68,2.06,2.06,0,0,1-.16.84,1.79,1.79,0,0,1-.48.67,2.49,2.49,0,0,1-.78.45,3.21,3.21,0,0,1-1.07.16,3.35,3.35,0,0,1-1.25-.22,3.1,3.1,0,0,1-1-.58l.28-.44a.3.3,0,0,1,.12-.13.35.35,0,0,1,.18-.05.45.45,0,0,1,.25.09l.31.21a2.88,2.88,0,0,0,.46.2,2.06,2.06,0,0,0,.66.09,1.78,1.78,0,0,0,.59-.09,1.22,1.22,0,0,0,.42-.24.81.81,0,0,0,.25-.34A1,1,0,0,0,43,166a.68.68,0,0,0-.15-.45,1.19,1.19,0,0,0-.39-.3,2.52,2.52,0,0,0-.55-.22l-.63-.2-.63-.24a2.51,2.51,0,0,1-.55-.33,1.45,1.45,0,0,1-.38-.5,1.59,1.59,0,0,1-.15-.72,1.72,1.72,0,0,1,.16-.73,1.76,1.76,0,0,1,.45-.61,2.39,2.39,0,0,1,.74-.42,3,3,0,0,1,1-.15,3.34,3.34,0,0,1,1.17.2,2.83,2.83,0,0,1,.89.57Z"/><path class="cls-2" d="M50.93,161.26v6.59h-.69a.29.29,0,0,1-.31-.24l-.09-.71a3.7,3.7,0,0,1-1,.76,2.53,2.53,0,0,1-1.22.29,2.37,2.37,0,0,1-.95-.18,1.83,1.83,0,0,1-.69-.5,2.07,2.07,0,0,1-.42-.79,3.64,3.64,0,0,1-.14-1v-4.2h1.16v4.2a1.75,1.75,0,0,0,.34,1.16,1.27,1.27,0,0,0,1,.41,1.91,1.91,0,0,0,1-.25,2.85,2.85,0,0,0,.82-.67v-4.85Z"/><path class="cls-2" d="M52.76,167.85v-6.59h.7a.28.28,0,0,1,.3.24l.09.68a3.38,3.38,0,0,1,.82-.74,1.92,1.92,0,0,1,1-.28,1.52,1.52,0,0,1,1.07.37,2.06,2.06,0,0,1,.6,1,2.13,2.13,0,0,1,.37-.62,2.28,2.28,0,0,1,.5-.43,2.22,2.22,0,0,1,.6-.24,2.29,2.29,0,0,1,.64-.08,2.43,2.43,0,0,1,.92.16,1.89,1.89,0,0,1,.69.49,2.1,2.1,0,0,1,.43.78,3.48,3.48,0,0,1,.15,1.06v4.2H60.53v-4.2a1.76,1.76,0,0,0-.34-1.17,1.18,1.18,0,0,0-1-.4,1.68,1.68,0,0,0-.55.1,1.37,1.37,0,0,0-.45.3,1.42,1.42,0,0,0-.31.49,2,2,0,0,0-.11.68v4.2H56.64v-4.2a1.87,1.87,0,0,0-.32-1.18,1.15,1.15,0,0,0-.93-.39,1.52,1.52,0,0,0-.8.23,2.79,2.79,0,0,0-.66.63v4.91Z"/><path class="cls-2" d="M68.8,166.92a2.29,2.29,0,0,1-.52.46,3.44,3.44,0,0,1-.64.31,5.13,5.13,0,0,1-.7.19,4.46,4.46,0,0,1-.72.06,3.4,3.4,0,0,1-1.26-.23,2.87,2.87,0,0,1-1-.68,3.15,3.15,0,0,1-.65-1.1,4.65,4.65,0,0,1-.23-1.51,3.88,3.88,0,0,1,.21-1.29,3,3,0,0,1,.61-1,2.81,2.81,0,0,1,1-.69,3.16,3.16,0,0,1,1.29-.25,2.83,2.83,0,0,1,1.1.2,2.53,2.53,0,0,1,.87.57,2.76,2.76,0,0,1,.57.92,3.52,3.52,0,0,1,.21,1.25.74.74,0,0,1-.06.37.24.24,0,0,1-.22.09h-4.4a3.76,3.76,0,0,0,.17,1.08,2.27,2.27,0,0,0,.43.77,1.78,1.78,0,0,0,.65.47,2.24,2.24,0,0,0,.84.15,2.72,2.72,0,0,0,.75-.1,3.7,3.7,0,0,0,.55-.22,3.9,3.9,0,0,0,.38-.22.48.48,0,0,1,.26-.1.25.25,0,0,1,.22.11Zm-.94-3.08a2.45,2.45,0,0,0-.11-.74,1.83,1.83,0,0,0-.33-.58,1.66,1.66,0,0,0-.53-.38,2,2,0,0,0-2,.35,2.32,2.32,0,0,0-.6,1.35Z"/><path class="cls-2" d="M71.42,162.58a2.85,2.85,0,0,1,.76-1.05,1.66,1.66,0,0,1,1.11-.38,1.7,1.7,0,0,1,.4,0,1.22,1.22,0,0,1,.35.14l-.09.87a.18.18,0,0,1-.19.16,1.16,1.16,0,0,1-.27,0,2.35,2.35,0,0,0-.4,0,1.59,1.59,0,0,0-.55.09,1.25,1.25,0,0,0-.44.27,1.77,1.77,0,0,0-.34.45,3.36,3.36,0,0,0-.28.6v4.16H70.32v-6.59H71a.4.4,0,0,1,.26.07.45.45,0,0,1,.1.25Z"/><path class="cls-2" d="M85.94,163.37v3.57a5.12,5.12,0,0,1-1.49.76,5.78,5.78,0,0,1-1.75.25,5.65,5.65,0,0,1-2-.35,4.44,4.44,0,0,1-1.54-1,4.22,4.22,0,0,1-1-1.51,5.18,5.18,0,0,1-.34-1.93,5.45,5.45,0,0,1,.33-1.94,4.19,4.19,0,0,1,2.46-2.48,5.4,5.4,0,0,1,2-.34,6.63,6.63,0,0,1,1,.08,4.53,4.53,0,0,1,.88.23,5.23,5.23,0,0,1,.75.37,4.41,4.41,0,0,1,.64.5l-.36.57a.36.36,0,0,1-.22.16.33.33,0,0,1-.29-.06l-.36-.22a2.78,2.78,0,0,0-.49-.25,3.45,3.45,0,0,0-.68-.2,4.28,4.28,0,0,0-.94-.09,3.82,3.82,0,0,0-1.42.26,2.91,2.91,0,0,0-1.08.73,3.28,3.28,0,0,0-.69,1.16,5,5,0,0,0,0,3.09,3.19,3.19,0,0,0,.71,1.18,3.13,3.13,0,0,0,1.13.74,4.12,4.12,0,0,0,1.49.25,4,4,0,0,0,1.15-.15,4.67,4.67,0,0,0,1-.4v-2H83.36a.26.26,0,0,1-.2-.07.25.25,0,0,1-.08-.18v-.71Z"/><path class="cls-2" d="M88.6,162.58a2.85,2.85,0,0,1,.76-1.05,1.66,1.66,0,0,1,1.11-.38,1.7,1.7,0,0,1,.4,0,1.22,1.22,0,0,1,.35.14l-.09.87a.18.18,0,0,1-.19.16,1.09,1.09,0,0,1-.27,0,2.35,2.35,0,0,0-.4,0,1.55,1.55,0,0,0-.55.09,1.25,1.25,0,0,0-.44.27,1.77,1.77,0,0,0-.34.45,3.36,3.36,0,0,0-.28.6v4.16H87.5v-6.59h.66a.4.4,0,0,1,.26.07.45.45,0,0,1,.1.25Z"/><path class="cls-2" d="M94.74,161.16a3.38,3.38,0,0,1,1.3.24,2.77,2.77,0,0,1,1.61,1.75,4.6,4.6,0,0,1,0,2.81A2.94,2.94,0,0,1,97,167a2.83,2.83,0,0,1-1,.68,3.67,3.67,0,0,1-2.61,0,2.66,2.66,0,0,1-1-.68,3,3,0,0,1-.63-1.06,4.6,4.6,0,0,1,0-2.81,3,3,0,0,1,.63-1.07,2.78,2.78,0,0,1,1-.68A3.4,3.4,0,0,1,94.74,161.16Zm0,5.87a1.66,1.66,0,0,0,1.45-.65,2.94,2.94,0,0,0,.49-1.82,3,3,0,0,0-.49-1.84,1.69,1.69,0,0,0-1.45-.65,1.91,1.91,0,0,0-.86.17,1.52,1.52,0,0,0-.61.48,2.14,2.14,0,0,0-.37.79,4.21,4.21,0,0,0-.12,1.05,2.94,2.94,0,0,0,.49,1.82A1.69,1.69,0,0,0,94.74,167Z"/><path class="cls-2" d="M104.75,161.26v6.59h-.69a.29.29,0,0,1-.31-.24l-.09-.71a3.7,3.7,0,0,1-1,.76,2.53,2.53,0,0,1-1.22.29,2.37,2.37,0,0,1-1-.18,1.83,1.83,0,0,1-.69-.5,2.07,2.07,0,0,1-.42-.79,3.64,3.64,0,0,1-.14-1v-4.2h1.16v4.2a1.75,1.75,0,0,0,.34,1.16,1.27,1.27,0,0,0,1,.41,1.91,1.91,0,0,0,1-.25,2.85,2.85,0,0,0,.82-.67v-4.85Z"/><path class="cls-2" d="M107.69,162.28a3.27,3.27,0,0,1,1-.82,2.66,2.66,0,0,1,2.28-.1,2.14,2.14,0,0,1,.79.65,3.2,3.2,0,0,1,.5,1.05,5.77,5.77,0,0,1,.17,1.45,4.56,4.56,0,0,1-.19,1.36,3.09,3.09,0,0,1-.57,1.08,2.49,2.49,0,0,1-.89.72,2.6,2.6,0,0,1-1.19.27,2.35,2.35,0,0,1-1-.21,2.21,2.21,0,0,1-.76-.57v2.92h-1.17v-8.82h.7a.28.28,0,0,1,.3.24Zm.06,4a1.86,1.86,0,0,0,.69.61,2.08,2.08,0,0,0,.85.17,1.66,1.66,0,0,0,1.41-.66,3,3,0,0,0,.5-1.87,4.4,4.4,0,0,0-.12-1.1,2,2,0,0,0-.33-.76,1.2,1.2,0,0,0-.52-.43,1.8,1.8,0,0,0-.71-.14,1.87,1.87,0,0,0-1,.26,2.59,2.59,0,0,0-.78.74Z"/><path class="cls-2" d="M183.5,72.24a14.7,14.7,0,0,1,14,10,11,11,0,0,1,10.76,11.24A11.41,11.41,0,0,1,197,104.75h-27.7a11,11,0,0,1-11.06-11.26A11.48,11.48,0,0,1,169.2,82.25a15.29,15.29,0,0,1,14.3-10m0-2.08a17.41,17.41,0,0,0-15.74,10.15,13.53,13.53,0,0,0-11.57,13.15,13.11,13.11,0,0,0,13.13,13.36H197a13.46,13.46,0,0,0,13.3-13.3A13,13,0,0,0,199,80.29,16.8,16.8,0,0,0,183.5,70.16Z"/><path class="cls-2" d="M193.18,99.65a.58.58,0,0,0-.58-.58h-7.39A2.65,2.65,0,0,0,184,98v-1.4h7.88a1.28,1.28,0,0,0,1.28-1.28v-2.7a1.28,1.28,0,0,0-1.28-1.29H184v-.63h7.88a1.28,1.28,0,0,0,1.28-1.28V86.7a1.28,1.28,0,0,0-1.28-1.28H184v-.64h7.88a1.28,1.28,0,0,0,1.28-1.28V80.8a1.28,1.28,0,0,0-1.28-1.29H174.61a1.28,1.28,0,0,0-1.28,1.28v2.7a1.28,1.28,0,0,0,1.28,1.28H182v.64h-7.37a1.29,1.29,0,0,0-1.28,1.28v2.7a1.29,1.29,0,0,0,1.28,1.29H182v.63h-7.37a1.29,1.29,0,0,0-1.28,1.29v2.7a1.28,1.28,0,0,0,1.28,1.28H182V98a2.6,2.6,0,0,0-1.27,1.11h-6.79a.58.58,0,0,0-.59.58v1.4a.58.58,0,0,0,.59.58h6.8a2.58,2.58,0,0,0,4.48,0h7.39a.58.58,0,0,0,.58-.58Zm-1.28-7.16a.12.12,0,0,1,.12.12v2.7a.12.12,0,0,1-.12.11H189V92.49Zm0-5.91a.13.13,0,0,1,.12.12v2.7a.12.12,0,0,1-.12.12H189V86.58Zm0-5.9a.12.12,0,0,1,.12.12v2.7a.12.12,0,0,1-.12.11H189V80.68Z"/><g class="cls-3"><circle class="cls-4" cx="183.26" cy="91.92" r="37.13" transform="translate(-11.33 156.51) rotate(-45)"/></g><path class="cls-2" d="M139.89,149.65v1.07h-5.3v-9.35h1.26v8.28Z"/><path class="cls-2" d="M142.49,142a.83.83,0,0,1-.07.32,1,1,0,0,1-.18.26.8.8,0,0,1-.27.18.88.88,0,0,1-.32.07.83.83,0,0,1-.32-.07.76.76,0,0,1-.26-.18.78.78,0,0,1-.17-.26.68.68,0,0,1-.07-.32.71.71,0,0,1,.07-.32,1,1,0,0,1,.17-.27,1.2,1.2,0,0,1,.26-.18.83.83,0,0,1,.32-.06.87.87,0,0,1,.32.06.83.83,0,0,1,.45.45A.88.88,0,0,1,142.49,142Zm-.25,2.08v6.61h-1.16v-6.61Z"/><path class="cls-2" d="M145.24,145.07a3.81,3.81,0,0,1,.46-.44,3.48,3.48,0,0,1,.51-.34,2.74,2.74,0,0,1,1.23-.29,2.33,2.33,0,0,1,.95.18,1.89,1.89,0,0,1,.7.51,2.43,2.43,0,0,1,.42.8,3.59,3.59,0,0,1,.14,1v4.21h-1.17v-4.21a1.75,1.75,0,0,0-.34-1.16,1.26,1.26,0,0,0-1-.42,1.91,1.91,0,0,0-1,.25,3.06,3.06,0,0,0-.83.67v4.87h-1.17v-6.61h.7a.29.29,0,0,1,.31.24Z"/><path class="cls-2" d="M151.26,145a3.76,3.76,0,0,1,1.18-.79,3.71,3.71,0,0,1,1.4-.26,2.48,2.48,0,0,1,1,.18,2.28,2.28,0,0,1,.73.51,2.25,2.25,0,0,1,.44.79,3.31,3.31,0,0,1,.15,1v4.23h-.51a.51.51,0,0,1-.27-.06.42.42,0,0,1-.14-.22l-.13-.62a4.71,4.71,0,0,1-.51.42,2.6,2.6,0,0,1-1.1.51,3,3,0,0,1-.69.07,2.19,2.19,0,0,1-.73-.11,1.77,1.77,0,0,1-.59-.32,1.45,1.45,0,0,1-.39-.54,1.87,1.87,0,0,1-.15-.78,1.5,1.5,0,0,1,.21-.76,2,2,0,0,1,.7-.64,4.45,4.45,0,0,1,1.26-.46A9.1,9.1,0,0,1,155,147v-.52a1.71,1.71,0,0,0-.34-1.16,1.17,1.17,0,0,0-1-.4,2.1,2.1,0,0,0-.72.11,2.59,2.59,0,0,0-.5.24l-.37.24a.53.53,0,0,1-.3.11.32.32,0,0,1-.2-.06.57.57,0,0,1-.15-.16Zm3.75,2.7a9.67,9.67,0,0,0-1.37.13,4.52,4.52,0,0,0-.92.26,1.29,1.29,0,0,0-.52.39.87.87,0,0,0-.16.49,1,1,0,0,0,.09.45.81.81,0,0,0,.23.31,1,1,0,0,0,.35.18,1.42,1.42,0,0,0,.42.06,1.91,1.91,0,0,0,.56-.07,2,2,0,0,0,.48-.18,2.32,2.32,0,0,0,.44-.28,3.37,3.37,0,0,0,.4-.37Z"/><path class="cls-2" d="M159,145.43a3.13,3.13,0,0,1,.77-1.06,1.73,1.73,0,0,1,1.12-.38,1.75,1.75,0,0,1,.4,0,1.16,1.16,0,0,1,.34.14l-.08.87a.19.19,0,0,1-.2.16,1.16,1.16,0,0,1-.27,0,2.35,2.35,0,0,0-.4,0,1.59,1.59,0,0,0-.55.09,1.44,1.44,0,0,0-.44.28,2,2,0,0,0-.35.44,4.17,4.17,0,0,0-.27.6v4.18h-1.17v-6.61h.66a.38.38,0,0,1,.27.07.45.45,0,0,1,.09.25Z"/><path class="cls-2" d="M165.18,144a3.38,3.38,0,0,1,1.3.25,2.78,2.78,0,0,1,1,.68,2.86,2.86,0,0,1,.63,1.07,4.63,4.63,0,0,1,0,2.82,2.86,2.86,0,0,1-.63,1.07,2.78,2.78,0,0,1-1,.68,3.38,3.38,0,0,1-1.3.24,3.45,3.45,0,0,1-1.32-.24,2.78,2.78,0,0,1-1-.68,2.86,2.86,0,0,1-.63-1.07,4.63,4.63,0,0,1,0-2.82,2.86,2.86,0,0,1,.63-1.07,2.78,2.78,0,0,1,1-.68A3.45,3.45,0,0,1,165.18,144Zm0,5.9a1.71,1.71,0,0,0,1.46-.65,3.75,3.75,0,0,0,0-3.67,1.69,1.69,0,0,0-1.46-.66,2,2,0,0,0-.87.17,1.53,1.53,0,0,0-.61.49,2,2,0,0,0-.37.78,4.24,4.24,0,0,0-.12,1.06,3,3,0,0,0,.49,1.83A1.72,1.72,0,0,0,165.18,149.9Z"/><path class="cls-2" d="M181.5,146.05a5.32,5.32,0,0,1-.33,1.91,4.17,4.17,0,0,1-.94,1.47,4.06,4.06,0,0,1-1.46.95,4.92,4.92,0,0,1-1.88.34H173.4v-9.35h3.49a4.92,4.92,0,0,1,1.88.34,4.06,4.06,0,0,1,1.46.95,4.12,4.12,0,0,1,.94,1.48A5.28,5.28,0,0,1,181.5,146.05Zm-1.29,0a4.57,4.57,0,0,0-.24-1.54,3.17,3.17,0,0,0-.67-1.15,2.86,2.86,0,0,0-1-.72,3.71,3.71,0,0,0-1.37-.25h-2.22v7.3h2.22a3.72,3.72,0,0,0,1.37-.24,2.86,2.86,0,0,0,1-.72,3.22,3.22,0,0,0,.67-1.14A4.65,4.65,0,0,0,180.21,146.05Z"/><path class="cls-2" d="M182.71,145a4,4,0,0,1,1.18-.79,3.71,3.71,0,0,1,1.4-.26,2.57,2.57,0,0,1,1,.18,2.07,2.07,0,0,1,1.17,1.3,3.31,3.31,0,0,1,.15,1v4.23h-.52a.48.48,0,0,1-.26-.06.37.37,0,0,1-.14-.22l-.13-.62q-.27.24-.51.42a3.17,3.17,0,0,1-.52.32,3.13,3.13,0,0,1-1.28.26,2.17,2.17,0,0,1-.72-.11,1.68,1.68,0,0,1-.59-.32,1.47,1.47,0,0,1-.4-.54,1.87,1.87,0,0,1-.15-.78,1.52,1.52,0,0,1,.22-.76,1.91,1.91,0,0,1,.7-.64,4.45,4.45,0,0,1,1.26-.46,9,9,0,0,1,1.9-.2v-.52a1.76,1.76,0,0,0-.33-1.16,1.18,1.18,0,0,0-1-.4,2.1,2.1,0,0,0-.72.11,2.43,2.43,0,0,0-.51.24l-.36.24a.56.56,0,0,1-.31.11.36.36,0,0,1-.2-.06.73.73,0,0,1-.14-.16Zm3.75,2.7a9.82,9.82,0,0,0-1.37.13,4.72,4.72,0,0,0-.92.26,1.32,1.32,0,0,0-.51.39.8.8,0,0,0-.16.49,1.17,1.17,0,0,0,.08.45.83.83,0,0,0,.24.31.92.92,0,0,0,.34.18,1.49,1.49,0,0,0,.43.06,2,2,0,0,0,.56-.07,2,2,0,0,0,.48-.18,2.26,2.26,0,0,0,.43-.28,2.74,2.74,0,0,0,.4-.37Z"/><path class="cls-2" d="M191.31,150.82a1.58,1.58,0,0,1-1.21-.44,1.73,1.73,0,0,1-.42-1.25v-4h-.79a.28.28,0,0,1-.18-.06.24.24,0,0,1-.07-.19v-.47l1.08-.13.27-2a.29.29,0,0,1,.09-.16.24.24,0,0,1,.18-.06h.58v2.28h1.92v.84h-1.92v4a.83.83,0,0,0,.21.62.72.72,0,0,0,.52.2,1,1,0,0,0,.32-.05l.23-.11a1.11,1.11,0,0,0,.16-.11.24.24,0,0,1,.12,0,.2.2,0,0,1,.17.11l.34.55a2.07,2.07,0,0,1-.73.44A2.35,2.35,0,0,1,191.31,150.82Z"/><path class="cls-2" d="M193.79,145a3.88,3.88,0,0,1,1.18-.79,3.71,3.71,0,0,1,1.4-.26,2.48,2.48,0,0,1,1,.18,2.28,2.28,0,0,1,.73.51,2.25,2.25,0,0,1,.44.79,3.31,3.31,0,0,1,.15,1v4.23h-.51a.45.45,0,0,1-.26-.06.43.43,0,0,1-.15-.22l-.13-.62a4.71,4.71,0,0,1-.51.42,2.6,2.6,0,0,1-1.1.51,3,3,0,0,1-.69.07,2.09,2.09,0,0,1-.72-.11,1.6,1.6,0,0,1-.59-.32,1.37,1.37,0,0,1-.4-.54,1.87,1.87,0,0,1-.15-.78,1.42,1.42,0,0,1,.22-.76,1.87,1.87,0,0,1,.69-.64,4.57,4.57,0,0,1,1.26-.46,9.1,9.1,0,0,1,1.91-.2v-.52a1.71,1.71,0,0,0-.34-1.16,1.17,1.17,0,0,0-1-.4,2.18,2.18,0,0,0-.72.11,2.59,2.59,0,0,0-.5.24l-.37.24a.53.53,0,0,1-.3.11.32.32,0,0,1-.2-.06.43.43,0,0,1-.14-.16Zm3.75,2.7a9.67,9.67,0,0,0-1.37.13,4.52,4.52,0,0,0-.92.26,1.19,1.19,0,0,0-.51.39.8.8,0,0,0-.16.49,1,1,0,0,0,.08.45.81.81,0,0,0,.23.31,1.06,1.06,0,0,0,.35.18,1.44,1.44,0,0,0,.43.06,2,2,0,0,0,.56-.07,2,2,0,0,0,.48-.18,2.26,2.26,0,0,0,.43-.28,3.37,3.37,0,0,0,.4-.37Z"/><path class="cls-2" d="M205,145.28a.38.38,0,0,1-.11.11.2.2,0,0,1-.14,0,.33.33,0,0,1-.21-.08l-.29-.18a3.73,3.73,0,0,0-.43-.18,2.17,2.17,0,0,0-.62-.08,2.13,2.13,0,0,0-.86.17,1.88,1.88,0,0,0-.62.5,2.32,2.32,0,0,0-.38.79,4.18,4.18,0,0,0-.12,1,3.87,3.87,0,0,0,.13,1.07,2.2,2.2,0,0,0,.39.78,1.67,1.67,0,0,0,.61.48,1.85,1.85,0,0,0,.8.17,1.9,1.9,0,0,0,1.15-.33l.3-.22a.36.36,0,0,1,.24-.1.24.24,0,0,1,.22.11l.32.42a2.14,2.14,0,0,1-.49.46,3,3,0,0,1-.59.31,2.94,2.94,0,0,1-.66.19,4,4,0,0,1-.7.06,2.88,2.88,0,0,1-1.15-.23,2.55,2.55,0,0,1-.93-.66,3.19,3.19,0,0,1-.61-1.07,4.27,4.27,0,0,1-.22-1.44,4.51,4.51,0,0,1,.2-1.36,3.15,3.15,0,0,1,.6-1.08,2.69,2.69,0,0,1,1-.71,3.2,3.2,0,0,1,1.32-.26,3.1,3.1,0,0,1,1.23.23,2.9,2.9,0,0,1,.95.64Z"/><path class="cls-2" d="M211.91,149.79a2,2,0,0,1-.51.45,3,3,0,0,1-.64.32,4.38,4.38,0,0,1-.71.19,4.46,4.46,0,0,1-.72.06,3.5,3.5,0,0,1-1.27-.23,3,3,0,0,1-1-.68,3.19,3.19,0,0,1-.65-1.11,4.39,4.39,0,0,1-.24-1.51,3.88,3.88,0,0,1,.22-1.29,2.92,2.92,0,0,1,.61-1,2.61,2.61,0,0,1,1-.69,3.13,3.13,0,0,1,1.29-.26,3,3,0,0,1,1.1.2,2.51,2.51,0,0,1,.87.58,2.63,2.63,0,0,1,.58.92A3.54,3.54,0,0,1,212,147a.8.8,0,0,1-.06.37.24.24,0,0,1-.22.09h-4.42a3.88,3.88,0,0,0,.18,1.09,2.28,2.28,0,0,0,.42.77,1.72,1.72,0,0,0,.65.46,2.34,2.34,0,0,0,.85.16,2.44,2.44,0,0,0,.76-.11,3.59,3.59,0,0,0,.54-.21l.38-.22a.48.48,0,0,1,.27-.1.24.24,0,0,1,.22.11Zm-.93-3.1a2.21,2.21,0,0,0-.12-.74,1.66,1.66,0,0,0-.33-.58A1.56,1.56,0,0,0,210,145a2,2,0,0,0-2,.36,2.29,2.29,0,0,0-.6,1.34Z"/><path class="cls-2" d="M214.54,145.07a3.73,3.73,0,0,1,.45-.44,3.11,3.11,0,0,1,.52-.34,2.78,2.78,0,0,1,.57-.21,2.71,2.71,0,0,1,.66-.08,2.37,2.37,0,0,1,.95.18,1.78,1.78,0,0,1,.69.51,2.11,2.11,0,0,1,.42.8,3.26,3.26,0,0,1,.15,1v4.21h-1.17v-4.21a1.8,1.8,0,0,0-.34-1.16,1.27,1.27,0,0,0-1-.42,1.92,1.92,0,0,0-1,.25,3.18,3.18,0,0,0-.82.67v4.87h-1.17v-6.61h.7a.29.29,0,0,1,.31.24Z"/><path class="cls-2" d="M222.66,150.82a1.56,1.56,0,0,1-1.2-.44,1.7,1.7,0,0,1-.43-1.25v-4h-.79a.28.28,0,0,1-.18-.06.24.24,0,0,1-.07-.19v-.47l1.08-.13.27-2a.29.29,0,0,1,.09-.16.24.24,0,0,1,.18-.06h.59v2.28h1.91v.84H222.2v4a.83.83,0,0,0,.2.62.72.72,0,0,0,.52.2,1,1,0,0,0,.32-.05l.23-.11a1.11,1.11,0,0,0,.16-.11.24.24,0,0,1,.12,0,.19.19,0,0,1,.17.11l.34.55a2,2,0,0,1-.73.44A2.35,2.35,0,0,1,222.66,150.82Z"/><path class="cls-2" d="M230.64,149.79a2.25,2.25,0,0,1-.52.45,3,3,0,0,1-.64.32,4.09,4.09,0,0,1-1.43.25,3.5,3.5,0,0,1-1.27-.23,2.83,2.83,0,0,1-1-.68,3.21,3.21,0,0,1-.66-1.11,4.4,4.4,0,0,1-.23-1.51,3.88,3.88,0,0,1,.21-1.29,2.92,2.92,0,0,1,.61-1,2.61,2.61,0,0,1,1-.69A3.13,3.13,0,0,1,228,144a3,3,0,0,1,1.1.2,2.51,2.51,0,0,1,.87.58,2.63,2.63,0,0,1,.58.92,3.54,3.54,0,0,1,.21,1.26.8.8,0,0,1-.06.37.24.24,0,0,1-.22.09H226a3.88,3.88,0,0,0,.18,1.09,2.28,2.28,0,0,0,.42.77,1.68,1.68,0,0,0,.66.46,2.24,2.24,0,0,0,.84.16,2.39,2.39,0,0,0,.76-.11,3.59,3.59,0,0,0,.54-.21l.38-.22a.5.5,0,0,1,.27-.1.24.24,0,0,1,.22.11Zm-.94-3.1a2.21,2.21,0,0,0-.12-.74,1.51,1.51,0,0,0-.33-.58,1.56,1.56,0,0,0-.53-.38,1.8,1.8,0,0,0-.71-.13,1.75,1.75,0,0,0-1.32.49,2.24,2.24,0,0,0-.61,1.34Z"/><path class="cls-2" d="M233.27,145.43a2.88,2.88,0,0,1,.77-1.06,1.68,1.68,0,0,1,1.11-.38,1.75,1.75,0,0,1,.4,0,1.16,1.16,0,0,1,.34.14l-.08.87a.19.19,0,0,1-.2.16,1,1,0,0,1-.26,0,2.35,2.35,0,0,0-.4,0,1.6,1.6,0,0,0-.56.09,1.57,1.57,0,0,0-.44.28,2,2,0,0,0-.34.44,4.17,4.17,0,0,0-.28.6v4.18h-1.17v-6.61h.67a.37.37,0,0,1,.26.07.45.45,0,0,1,.1.25Z"/><path class="cls-2" d="M150.92,166.37h-1.13a.9.9,0,0,1-.31,0,.91.91,0,0,1-.25-.19l-.95-.95a4.7,4.7,0,0,1-1.41.94,4.39,4.39,0,0,1-1.76.35,3,3,0,0,1-1-.18,2.91,2.91,0,0,1-.89-.51,2.46,2.46,0,0,1-.64-.82,2.39,2.39,0,0,1-.24-1.09,2.56,2.56,0,0,1,.58-1.62,3.43,3.43,0,0,1,.64-.62,4.38,4.38,0,0,1,.82-.47,4,4,0,0,1-.59-1,2.52,2.52,0,0,1-.19-1,2.39,2.39,0,0,1,.17-.89,2.18,2.18,0,0,1,1.3-1.22,2.87,2.87,0,0,1,1-.18,2.54,2.54,0,0,1,.94.17,2.22,2.22,0,0,1,.73.44,2,2,0,0,1,.49.63,1.87,1.87,0,0,1,.2.76l-.72.14c-.14,0-.25,0-.32-.2a1.32,1.32,0,0,0-.15-.35,1.06,1.06,0,0,0-.26-.34,1.12,1.12,0,0,0-.38-.24,1.25,1.25,0,0,0-.53-.1,1.59,1.59,0,0,0-.59.1,1.51,1.51,0,0,0-.45.29,1.27,1.27,0,0,0-.28.44,1.4,1.4,0,0,0-.1.54,2,2,0,0,0,.05.44,1.85,1.85,0,0,0,.17.42,2.22,2.22,0,0,0,.29.44,5.71,5.71,0,0,0,.42.47l2.69,2.73a4.42,4.42,0,0,0,.4-.92,4.7,4.7,0,0,0,.19-.95.37.37,0,0,1,.08-.2.25.25,0,0,1,.19-.07h.71a5.26,5.26,0,0,1-.24,1.47,5,5,0,0,1-.66,1.35Zm-6-4.6a2.78,2.78,0,0,0-1,.88,2,2,0,0,0-.35,1.14,1.65,1.65,0,0,0,.16.75,1.68,1.68,0,0,0,.41.54,1.77,1.77,0,0,0,.58.34,2.19,2.19,0,0,0,.67.11,3.1,3.1,0,0,0,1.31-.27,3.17,3.17,0,0,0,1-.71Z"/><path class="cls-2" d="M162.13,164.44a.23.23,0,0,1,.18.09l.5.54a4.1,4.1,0,0,1-1.39,1,4.93,4.93,0,0,1-2,.37,4.7,4.7,0,0,1-1.83-.35,4,4,0,0,1-1.4-1,4.31,4.31,0,0,1-.9-1.51,5.72,5.72,0,0,1-.32-1.94,5.53,5.53,0,0,1,.33-1.94,4.49,4.49,0,0,1,.94-1.51,4.14,4.14,0,0,1,1.44-1,4.85,4.85,0,0,1,1.86-.35,4.53,4.53,0,0,1,1.76.32,4.35,4.35,0,0,1,1.35.87l-.42.58a.52.52,0,0,1-.1.11.39.39,0,0,1-.17,0,.46.46,0,0,1-.28-.13c-.12-.08-.27-.18-.45-.28a3.38,3.38,0,0,0-.68-.29,3.68,3.68,0,0,0-1-.12,3.35,3.35,0,0,0-1.33.25,3,3,0,0,0-1,.72,3.37,3.37,0,0,0-.68,1.17,4.61,4.61,0,0,0-.24,1.54,4.68,4.68,0,0,0,.25,1.56,3.5,3.5,0,0,0,.69,1.16,3.05,3.05,0,0,0,1,.72,3.21,3.21,0,0,0,1.28.25,5.54,5.54,0,0,0,.75,0,3,3,0,0,0,.62-.15,2.4,2.4,0,0,0,.53-.27,4,4,0,0,0,.48-.38A.34.34,0,0,1,162.13,164.44Z"/><path class="cls-2" d="M165.21,156.76v9.61H164v-9.61Z"/><path class="cls-2" d="M169.87,159.66a3.35,3.35,0,0,1,1.3.24,2.8,2.8,0,0,1,1,.69,3.06,3.06,0,0,1,.63,1.07,4.44,4.44,0,0,1,.21,1.41,4.34,4.34,0,0,1-.21,1.4,3.06,3.06,0,0,1-.63,1.07,2.8,2.8,0,0,1-1,.69,3.54,3.54,0,0,1-1.3.23,3.65,3.65,0,0,1-1.32-.23,2.76,2.76,0,0,1-1-.69,3.06,3.06,0,0,1-.63-1.07,4.07,4.07,0,0,1-.22-1.4,4.17,4.17,0,0,1,.22-1.41,3.06,3.06,0,0,1,.63-1.07,2.76,2.76,0,0,1,1-.69A3.45,3.45,0,0,1,169.87,159.66Zm0,5.9a1.69,1.69,0,0,0,1.46-.66,3.06,3.06,0,0,0,.48-1.83,3.09,3.09,0,0,0-.48-1.84,1.69,1.69,0,0,0-1.46-.66,2.06,2.06,0,0,0-.86.17,1.67,1.67,0,0,0-.62.49,2.3,2.3,0,0,0-.36.79,4.21,4.21,0,0,0-.12,1,3.06,3.06,0,0,0,.48,1.83A1.73,1.73,0,0,0,169.87,165.56Z"/><path class="cls-2" d="M179.91,159.76v6.61h-.69a.29.29,0,0,1-.31-.24l-.09-.71a3.74,3.74,0,0,1-1,.77,2.53,2.53,0,0,1-1.22.29,2.42,2.42,0,0,1-1-.18,1.86,1.86,0,0,1-.69-.51,2,2,0,0,1-.42-.79,3.31,3.31,0,0,1-.14-1v-4.22h1.16V164a1.75,1.75,0,0,0,.34,1.16,1.31,1.31,0,0,0,1.05.41,2,2,0,0,0,1-.24,3.06,3.06,0,0,0,.82-.68v-4.87Z"/><path class="cls-2" d="M187.22,156.76v9.61h-.69a.29.29,0,0,1-.31-.24l-.11-.8a3.55,3.55,0,0,1-1,.82,2.45,2.45,0,0,1-1.26.31,2.5,2.5,0,0,1-1-.21,2.14,2.14,0,0,1-.79-.65,3.2,3.2,0,0,1-.5-1,5.42,5.42,0,0,1-.17-1.46,4.56,4.56,0,0,1,.19-1.36,3.4,3.4,0,0,1,.56-1.09,2.66,2.66,0,0,1,.9-.73,2.71,2.71,0,0,1,1.2-.26,2.54,2.54,0,0,1,1,.2,2.66,2.66,0,0,1,.77.57v-3.66Zm-1.16,4.58a1.87,1.87,0,0,0-.7-.61,2,2,0,0,0-.85-.18,1.66,1.66,0,0,0-1.42.66,3.09,3.09,0,0,0-.49,1.88,4.53,4.53,0,0,0,.11,1.11,2.07,2.07,0,0,0,.32.75,1.31,1.31,0,0,0,.53.44,1.8,1.8,0,0,0,.71.13,1.82,1.82,0,0,0,1-.26,2.84,2.84,0,0,0,.79-.73Z"/><path class="cls-2" d="M200.27,161.88v3.59a5.23,5.23,0,0,1-1.51.76,6,6,0,0,1-1.75.25,5.65,5.65,0,0,1-2-.35,4.41,4.41,0,0,1-1.55-1,4.22,4.22,0,0,1-1-1.51,5.27,5.27,0,0,1-.35-1.94,5.54,5.54,0,0,1,.34-1.95,4.19,4.19,0,0,1,2.46-2.48,5.43,5.43,0,0,1,2-.35,6.72,6.72,0,0,1,1,.08,5.65,5.65,0,0,1,.88.24,3.74,3.74,0,0,1,.75.37,4.34,4.34,0,0,1,.64.49l-.36.58a.36.36,0,0,1-.21.16.35.35,0,0,1-.3-.06l-.36-.22a2.78,2.78,0,0,0-.49-.25,4.38,4.38,0,0,0-.69-.21,4.24,4.24,0,0,0-.93-.08,3.8,3.8,0,0,0-1.43.25,3.1,3.1,0,0,0-1.09.74,3.28,3.28,0,0,0-.69,1.16,5.06,5.06,0,0,0,0,3.11,3.27,3.27,0,0,0,.71,1.18,3.17,3.17,0,0,0,1.14.74,4.12,4.12,0,0,0,1.49.25,4.55,4.55,0,0,0,1.16-.14,5.93,5.93,0,0,0,1-.41v-2.06h-1.46a.27.27,0,0,1-.2-.07.22.22,0,0,1-.07-.17v-.72Z"/><path class="cls-2" d="M202.93,161.09a2.91,2.91,0,0,1,.77-1.06,1.65,1.65,0,0,1,1.11-.38,1.84,1.84,0,0,1,.41,0,1,1,0,0,1,.34.15l-.09.86a.19.19,0,0,1-.19.17l-.27,0a1.88,1.88,0,0,0-1,0,1.3,1.3,0,0,0-.43.27,1.94,1.94,0,0,0-.35.44,5,5,0,0,0-.28.61v4.17h-1.16v-6.61h.66a.33.33,0,0,1,.26.08.41.41,0,0,1,.1.24Z"/><path class="cls-2" d="M209.09,159.66a3.4,3.4,0,0,1,1.31.24,2.68,2.68,0,0,1,1,.69,3.06,3.06,0,0,1,.63,1.07,4.44,4.44,0,0,1,.22,1.41,4.33,4.33,0,0,1-.22,1.4,3.06,3.06,0,0,1-.63,1.07,2.68,2.68,0,0,1-1,.69,3.6,3.6,0,0,1-1.31.23,3.64,3.64,0,0,1-1.31-.23,2.8,2.8,0,0,1-1-.69,3.06,3.06,0,0,1-.63-1.07,4.34,4.34,0,0,1-.21-1.4,4.44,4.44,0,0,1,.21-1.41,3.06,3.06,0,0,1,.63-1.07,2.8,2.8,0,0,1,1-.69A3.43,3.43,0,0,1,209.09,159.66Zm0,5.9a1.68,1.68,0,0,0,1.46-.66,3,3,0,0,0,.49-1.83,3,3,0,0,0-.49-1.84,1.68,1.68,0,0,0-1.46-.66,2.06,2.06,0,0,0-.86.17,1.64,1.64,0,0,0-.61.49,2.14,2.14,0,0,0-.37.79,4.21,4.21,0,0,0-.12,1,3,3,0,0,0,.49,1.83A1.7,1.7,0,0,0,209.09,165.56Z"/><path class="cls-2" d="M219.14,159.76v6.61h-.69a.3.3,0,0,1-.32-.24l-.09-.71a3.7,3.7,0,0,1-1,.77,2.6,2.6,0,0,1-1.23.29,2.33,2.33,0,0,1-.95-.18,1.89,1.89,0,0,1-.7-.51,2,2,0,0,1-.42-.79,3.64,3.64,0,0,1-.14-1v-4.22h1.16V164a1.8,1.8,0,0,0,.34,1.16,1.31,1.31,0,0,0,1.05.41,2,2,0,0,0,1-.24,3.1,3.1,0,0,0,.83-.68v-4.87Z"/><path class="cls-2" d="M222.09,160.79a3.59,3.59,0,0,1,1-.83,2.5,2.5,0,0,1,1.26-.31,2.32,2.32,0,0,1,1,.22,2.11,2.11,0,0,1,.79.64,3,3,0,0,1,.5,1.06,5.35,5.35,0,0,1,.18,1.46,4.3,4.3,0,0,1-.2,1.36,3.22,3.22,0,0,1-.56,1.09,2.86,2.86,0,0,1-.9.72,2.58,2.58,0,0,1-1.2.26,2.38,2.38,0,0,1-1-.2,2.49,2.49,0,0,1-.76-.57v2.92H221v-8.85h.7a.29.29,0,0,1,.3.25Zm.06,4a1.86,1.86,0,0,0,.69.61,2,2,0,0,0,.85.17,1.68,1.68,0,0,0,1.42-.65,3.09,3.09,0,0,0,.5-1.88,5.08,5.08,0,0,0-.11-1.11,2.32,2.32,0,0,0-.33-.76,1.39,1.39,0,0,0-.53-.44,1.8,1.8,0,0,0-.71-.13,1.84,1.84,0,0,0-1,.26,3,3,0,0,0-.78.73Z"/></g></svg>