<svg xmlns="http://www.w3.org/2000/svg" viewBox="0 0 497.99 53.2"><defs><style>.cls-1{fill:#0083ad;opacity:0.8;}.cls-2,.cls-3{fill:#fff;}.cls-3,.cls-4{stroke:#fff;stroke-miterlimit:10;opacity:0.6;}.cls-3{stroke-width:1.04px;}.cls-4{fill:none;stroke-width:1.12px;}</style></defs><g id="map"><rect class="cls-1" width="497.99" height="53.2" rx="3.59"/><path class="cls-2" d="M26.25,30H24a.93.93,0,0,1-.6-.17,1.12,1.12,0,0,1-.35-.45l-.73-2.15H17.63l-.73,2.15A1,1,0,0,1,16,30H13.72l4.79-12.38h2.95Zm-4.57-4.73-1.14-3.39c-.09-.22-.18-.47-.27-.76s-.2-.61-.29-.95c-.09.35-.18.67-.28,1s-.18.55-.27.77l-1.14,3.37Z"/><path class="cls-2" d="M33.17,23.32a1.66,1.66,0,0,1-.23.23.49.49,0,0,1-.32.09.71.71,0,0,1-.35-.1l-.35-.21a2.88,2.88,0,0,0-.46-.2,1.78,1.78,0,0,0-.65-.1,1.8,1.8,0,0,0-.84.18,1.5,1.5,0,0,0-.58.51,2.13,2.13,0,0,0-.34.81,4.52,4.52,0,0,0-.11,1.09,3.33,3.33,0,0,0,.48,1.94,1.57,1.57,0,0,0,1.35.68,2,2,0,0,0,.73-.11,1.9,1.9,0,0,0,.45-.26l.35-.26a.6.6,0,0,1,.39-.11.55.55,0,0,1,.48.22l.76,1a4,4,0,0,1-.86.76,4.4,4.4,0,0,1-.92.46,5.37,5.37,0,0,1-.94.23,7.5,7.5,0,0,1-.93.06A4,4,0,0,1,27.44,29a4.32,4.32,0,0,1-.88-1.44,5.28,5.28,0,0,1-.33-1.93,5.4,5.4,0,0,1,.29-1.78,3.88,3.88,0,0,1,2.22-2.4,4.84,4.84,0,0,1,1.9-.35,4.6,4.6,0,0,1,1.81.34,4.35,4.35,0,0,1,1.42,1Z"/><path class="cls-2" d="M41.29,23.32a1.66,1.66,0,0,1-.23.23.51.51,0,0,1-.32.09.68.68,0,0,1-.35-.1L40,23.33a3.34,3.34,0,0,0-.46-.2,1.83,1.83,0,0,0-.66-.1,1.78,1.78,0,0,0-.83.18,1.61,1.61,0,0,0-.59.51,2.5,2.5,0,0,0-.34.81,5.08,5.08,0,0,0-.11,1.09,3.33,3.33,0,0,0,.49,1.94,1.57,1.57,0,0,0,1.35.68,2,2,0,0,0,.73-.11,2.13,2.13,0,0,0,.45-.26l.34-.26a.65.65,0,0,1,.4-.11.55.55,0,0,1,.48.22l.76,1a4.31,4.31,0,0,1-.86.76,4.65,4.65,0,0,1-.92.46,5.26,5.26,0,0,1-1,.23,7.22,7.22,0,0,1-.92.06,3.9,3.9,0,0,1-1.55-.31A3.8,3.8,0,0,1,35.56,29a4.32,4.32,0,0,1-.88-1.44,5.28,5.28,0,0,1-.33-1.93,5.15,5.15,0,0,1,.29-1.78,3.7,3.7,0,0,1,.84-1.44,4,4,0,0,1,1.37-1,4.88,4.88,0,0,1,1.9-.35,4.65,4.65,0,0,1,1.82.34,4.42,4.42,0,0,1,1.41,1Z"/><path class="cls-2" d="M45.09,26.11a2.46,2.46,0,0,0,.68,1.6,2,2,0,0,0,1.4.5A2.64,2.64,0,0,0,48,28.1a4.76,4.76,0,0,0,.59-.25l.48-.24a.88.88,0,0,1,.45-.11.55.55,0,0,1,.48.22l.76,1a3.91,3.91,0,0,1-.88.76,4.77,4.77,0,0,1-1,.46,5.9,5.9,0,0,1-1,.23,7.94,7.94,0,0,1-1,.06,5,5,0,0,1-1.74-.3,4,4,0,0,1-1.42-.9,4.31,4.31,0,0,1-1-1.48,5.61,5.61,0,0,1-.35-2.05,4.72,4.72,0,0,1,.3-1.68,4,4,0,0,1,.87-1.38A4.1,4.1,0,0,1,45,21.44a4.79,4.79,0,0,1,3.41-.07,3.38,3.38,0,0,1,1.25.79,3.62,3.62,0,0,1,.82,1.27,4.77,4.77,0,0,1,.29,1.7c0,.2,0,.36,0,.49a.7.7,0,0,1-.1.29.31.31,0,0,1-.18.16.81.81,0,0,1-.29,0Zm3.32-1.53a2.49,2.49,0,0,0-.08-.61,1.4,1.4,0,0,0-.27-.53,1.21,1.21,0,0,0-.48-.38,1.54,1.54,0,0,0-.72-.15,1.59,1.59,0,0,0-1.17.43,2.27,2.27,0,0,0-.56,1.24Z"/><path class="cls-2" d="M57.69,23.16a.7.7,0,0,1-.22.23.59.59,0,0,1-.29.07,1,1,0,0,1-.37-.08l-.41-.18a3.46,3.46,0,0,0-.49-.17,1.94,1.94,0,0,0-.62-.08,1.31,1.31,0,0,0-.77.19.63.63,0,0,0-.26.53.53.53,0,0,0,.17.41,1.56,1.56,0,0,0,.46.28l.66.24.75.24a8,8,0,0,1,.75.32,2.69,2.69,0,0,1,.65.45,2,2,0,0,1,.46.65,2.16,2.16,0,0,1,.18.92,3,3,0,0,1-.24,1.21,2.64,2.64,0,0,1-.71.95,3.38,3.38,0,0,1-1.16.62,5.25,5.25,0,0,1-1.6.22,5.47,5.47,0,0,1-.9-.08,7.92,7.92,0,0,1-.87-.23,4.62,4.62,0,0,1-.78-.35,2.87,2.87,0,0,1-.61-.43l.61-1a.81.81,0,0,1,.26-.26.72.72,0,0,1,.4-.1.84.84,0,0,1,.42.1l.39.22a3.39,3.39,0,0,0,.5.22,2.12,2.12,0,0,0,.72.1,2,2,0,0,0,.52-.06,1,1,0,0,0,.34-.17.83.83,0,0,0,.18-.25.67.67,0,0,0,.06-.28.55.55,0,0,0-.18-.43,1.59,1.59,0,0,0-.46-.3c-.2-.08-.42-.16-.66-.23l-.76-.24a6.12,6.12,0,0,1-.75-.33,2.79,2.79,0,0,1-.66-.48,2.4,2.4,0,0,1-.46-.72,2.6,2.6,0,0,1-.18-1A2.55,2.55,0,0,1,52,22.82a2.36,2.36,0,0,1,.65-.89,3.05,3.05,0,0,1,1.08-.61,5.07,5.07,0,0,1,2.46-.14,5.33,5.33,0,0,1,.83.24,4,4,0,0,1,.72.36,4.35,4.35,0,0,1,.57.45Z"/><path class="cls-2" d="M65.26,23.16a.68.68,0,0,1-.21.23.66.66,0,0,1-.3.07,1,1,0,0,1-.37-.08L64,23.2a4.65,4.65,0,0,0-.49-.17,2,2,0,0,0-.62-.08,1.29,1.29,0,0,0-.77.19.61.61,0,0,0-.27.53.57.57,0,0,0,.17.41,1.63,1.63,0,0,0,.47.28l.65.24q.38.11.75.24a7,7,0,0,1,.75.32,2.69,2.69,0,0,1,.65.45,2,2,0,0,1,.47.65,2.32,2.32,0,0,1,.17.92,3,3,0,0,1-.24,1.21,2.53,2.53,0,0,1-.71.95A3.29,3.29,0,0,1,63.8,30a5.16,5.16,0,0,1-1.6.22,5.47,5.47,0,0,1-.9-.08,7.92,7.92,0,0,1-.87-.23,4.62,4.62,0,0,1-.78-.35,3.15,3.15,0,0,1-.61-.43l.61-1a.81.81,0,0,1,.26-.26.73.73,0,0,1,.41-.1.8.8,0,0,1,.41.1l.4.22a3.24,3.24,0,0,0,.49.22,2.12,2.12,0,0,0,.72.1,2,2,0,0,0,.52-.06,1,1,0,0,0,.34-.17.87.87,0,0,0,.19-.25.67.67,0,0,0,.06-.28.55.55,0,0,0-.18-.43,1.65,1.65,0,0,0-.47-.3,5.57,5.57,0,0,0-.66-.23q-.37-.11-.75-.24a5,5,0,0,1-.75-.33,2.32,2.32,0,0,1-1.13-1.2,2.6,2.6,0,0,1-.18-1,2.55,2.55,0,0,1,.22-1.06,2.36,2.36,0,0,1,.65-.89,3.1,3.1,0,0,1,1.09-.61,4.65,4.65,0,0,1,1.53-.23,4.7,4.7,0,0,1,.92.09,5.15,5.15,0,0,1,.84.24,3.94,3.94,0,0,1,.71.36,3.33,3.33,0,0,1,.57.45Z"/><path class="cls-2" d="M74.32,30.18A3.15,3.15,0,0,1,73.21,30a2.26,2.26,0,0,1-.81-.52,2.22,2.22,0,0,1-.5-.81,3.23,3.23,0,0,1-.17-1.06V23.05H71a.47.47,0,0,1-.34-.13.5.5,0,0,1-.15-.39v-1l1.4-.27.52-2.15a.53.53,0,0,1,.58-.41h1.38v2.58h2.18v1.8H74.37v4.38a.8.8,0,0,0,.15.5.49.49,0,0,0,.43.2.88.88,0,0,0,.24,0l.17-.07.13-.06.15,0a.33.33,0,0,1,.19,0,.71.71,0,0,1,.15.18l.8,1.25a3.75,3.75,0,0,1-1.15.57A4.42,4.42,0,0,1,74.32,30.18Z"/><path class="cls-2" d="M81.67,21.09a5.09,5.09,0,0,1,1.83.32,4,4,0,0,1,1.41.9,4.05,4.05,0,0,1,.92,1.42,5.13,5.13,0,0,1,.33,1.89,5.23,5.23,0,0,1-.33,1.9A4,4,0,0,1,84.91,29a3.86,3.86,0,0,1-1.41.91,5.09,5.09,0,0,1-1.83.32,5.15,5.15,0,0,1-1.84-.32A4,4,0,0,1,78.4,29a3.87,3.87,0,0,1-.92-1.43,5.23,5.23,0,0,1-.33-1.9,5.13,5.13,0,0,1,.33-1.89,3.92,3.92,0,0,1,.92-1.42,4.14,4.14,0,0,1,1.43-.9A5.15,5.15,0,0,1,81.67,21.09Zm0,7.14A1.5,1.5,0,0,0,83,27.58a3.56,3.56,0,0,0,.43-1.95A3.55,3.55,0,0,0,83,23.69a1.49,1.49,0,0,0-1.34-.64,1.54,1.54,0,0,0-1.37.64,3.46,3.46,0,0,0-.43,1.94,3.48,3.48,0,0,0,.43,1.95A1.54,1.54,0,0,0,81.67,28.23Z"/><path class="cls-2" d="M91.21,22.45A5.47,5.47,0,0,1,93,21.4a6.43,6.43,0,0,1,2.08-.34,3.81,3.81,0,0,1,1.44.26A3,3,0,0,1,97.6,22a3.21,3.21,0,0,1,.69,1.1,4,4,0,0,1,.23,1.4V30h-1.2a1.24,1.24,0,0,1-.57-.1.81.81,0,0,1-.32-.42L96.25,29c-.22.19-.44.35-.64.5a4.43,4.43,0,0,1-.63.36,3.18,3.18,0,0,1-.7.22,4.18,4.18,0,0,1-.82.07,3.48,3.48,0,0,1-1.1-.16,2.28,2.28,0,0,1-.84-.46A2.21,2.21,0,0,1,91,28.8a2.82,2.82,0,0,1-.18-1.05,2.25,2.25,0,0,1,.23-1,2.41,2.41,0,0,1,.83-.9,5.21,5.21,0,0,1,1.58-.67A10.51,10.51,0,0,1,96,24.91v-.37a1.63,1.63,0,0,0-.32-1.12,1.18,1.18,0,0,0-.91-.34,2.33,2.33,0,0,0-.76.1,2.91,2.91,0,0,0-.53.23l-.46.23a1.34,1.34,0,0,1-.52.1A.74.74,0,0,1,92,23.6a1.18,1.18,0,0,1-.31-.32Zm4.75,4a9.59,9.59,0,0,0-1.3.13,3.35,3.35,0,0,0-.81.26.91.91,0,0,0-.41.35.79.79,0,0,0-.12.42.75.75,0,0,0,.25.64,1.19,1.19,0,0,0,.72.18,2,2,0,0,0,.89-.18,2.63,2.63,0,0,0,.78-.58Z"/><path class="cls-2" d="M109.74,23.16a.7.7,0,0,1-.22.23.62.62,0,0,1-.29.07,1,1,0,0,1-.38-.08l-.4-.18A4.65,4.65,0,0,0,108,23a2,2,0,0,0-.62-.08,1.29,1.29,0,0,0-.77.19.61.61,0,0,0-.27.53.54.54,0,0,0,.18.41,1.44,1.44,0,0,0,.46.28l.65.24q.38.11.75.24a6.26,6.26,0,0,1,.75.32,2.69,2.69,0,0,1,.65.45,2,2,0,0,1,.47.65,2.32,2.32,0,0,1,.17.92,3,3,0,0,1-.24,1.21,2.43,2.43,0,0,1-.71.95,3.29,3.29,0,0,1-1.16.62,5.14,5.14,0,0,1-1.59.22,5.69,5.69,0,0,1-.91-.08,7.92,7.92,0,0,1-.87-.23,4.18,4.18,0,0,1-.77-.35,3,3,0,0,1-.62-.43l.62-1a.65.65,0,0,1,.26-.26.68.68,0,0,1,.4-.1.8.8,0,0,1,.41.1l.4.22a3.24,3.24,0,0,0,.49.22,2.12,2.12,0,0,0,.72.1,1.9,1.9,0,0,0,.52-.06.9.9,0,0,0,.34-.17.72.72,0,0,0,.19-.25.67.67,0,0,0,.06-.28.55.55,0,0,0-.18-.43,1.65,1.65,0,0,0-.47-.3,5.57,5.57,0,0,0-.66-.23c-.24-.07-.5-.15-.75-.24a5,5,0,0,1-.75-.33,2.32,2.32,0,0,1-1.13-1.2,2.6,2.6,0,0,1-.18-1,2.72,2.72,0,0,1,.22-1.06,2.36,2.36,0,0,1,.65-.89,3.1,3.1,0,0,1,1.09-.61,4.65,4.65,0,0,1,1.53-.23,4.7,4.7,0,0,1,.92.09,5.15,5.15,0,0,1,.84.24,3.63,3.63,0,0,1,.71.36,3.33,3.33,0,0,1,.57.45Z"/><path class="cls-2" d="M114.67,18.82a1.48,1.48,0,0,1-.12.59,1.62,1.62,0,0,1-.87.81,1.44,1.44,0,0,1-.62.13,1.32,1.32,0,0,1-.6-.13,1.56,1.56,0,0,1-.5-.33,1.45,1.45,0,0,1-.34-.48,1.48,1.48,0,0,1-.12-.59,1.54,1.54,0,0,1,.12-.61,1.49,1.49,0,0,1,.34-.49,1.56,1.56,0,0,1,.5-.33,1.46,1.46,0,0,1,.6-.12,1.59,1.59,0,0,1,.62.12,1.65,1.65,0,0,1,.52.33,1.69,1.69,0,0,1,.35.49A1.54,1.54,0,0,1,114.67,18.82Zm-.27,2.41V30h-2.63V21.23Z"/><path class="cls-2" d="M118.68,22.18a5.62,5.62,0,0,1,.53-.44,2.59,2.59,0,0,1,.58-.34,2.77,2.77,0,0,1,.67-.22,3.21,3.21,0,0,1,.78-.09,3,3,0,0,1,1.28.26,2.5,2.5,0,0,1,.94.69A3,3,0,0,1,124,23.1a4.48,4.48,0,0,1,.2,1.34V30H121.6v-5.6a1.51,1.51,0,0,0-.3-1,1.05,1.05,0,0,0-.87-.36,1.85,1.85,0,0,0-.81.18,3.39,3.39,0,0,0-.74.49V30h-2.63V21.23h1.63a.61.61,0,0,1,.64.44Z"/><path class="cls-2" d="M133.94,21.5v1a.48.48,0,0,1-.13.35.82.82,0,0,1-.42.2l-.64.14a2.57,2.57,0,0,1,.08.38,2.73,2.73,0,0,1,0,.41,2.57,2.57,0,0,1-.27,1.19,2.85,2.85,0,0,1-.76.9,3.64,3.64,0,0,1-1.13.57,5,5,0,0,1-1.41.2h-.4l-.38-.05c-.19.12-.29.25-.29.4a.34.34,0,0,0,.24.32,2.31,2.31,0,0,0,.63.13,7.8,7.8,0,0,0,.89.05l1,.06a8.35,8.35,0,0,1,1,.16,2.6,2.6,0,0,1,.89.36,1.82,1.82,0,0,1,.63.66,2,2,0,0,1,.24,1.05,2.59,2.59,0,0,1-.29,1.16,3.12,3.12,0,0,1-.85,1,4.49,4.49,0,0,1-1.38.71,5.94,5.94,0,0,1-1.87.27,7.19,7.19,0,0,1-1.79-.2,4.4,4.4,0,0,1-1.25-.51,2.06,2.06,0,0,1-.73-.74,1.67,1.67,0,0,1-.24-.86,1.43,1.43,0,0,1,.34-1,2.32,2.32,0,0,1,1-.63,1.38,1.38,0,0,1-.7-1.29,1.22,1.22,0,0,1,.07-.41,1.59,1.59,0,0,1,.22-.43,1.93,1.93,0,0,1,.37-.39,2.23,2.23,0,0,1,.52-.34,2.8,2.8,0,0,1-1.08-1,2.66,2.66,0,0,1-.12-2.59,2.47,2.47,0,0,1,.77-.9,3.44,3.44,0,0,1,1.15-.57,4.71,4.71,0,0,1,1.43-.2,4.48,4.48,0,0,1,2,.42Zm-2.61,8.87a.48.48,0,0,0-.28-.46,2.38,2.38,0,0,0-.73-.2,9.6,9.6,0,0,0-1-.07q-.57,0-1.11-.06a1.67,1.67,0,0,0-.41.38.75.75,0,0,0-.15.47.66.66,0,0,0,.08.34A.6.6,0,0,0,128,31a2.36,2.36,0,0,0,.55.18,5.22,5.22,0,0,0,.87.06,4.94,4.94,0,0,0,.94-.07A1.88,1.88,0,0,0,131,31a.74.74,0,0,0,.3-.28A.73.73,0,0,0,131.33,30.37Zm-2-5.2A1.09,1.09,0,0,0,130.54,24a1.14,1.14,0,0,0-.3-.84,1.6,1.6,0,0,0-1.89,0,1.14,1.14,0,0,0-.3.84,1.4,1.4,0,0,0,.08.47.94.94,0,0,0,.22.37,1,1,0,0,0,.39.24A1.51,1.51,0,0,0,129.29,25.17Z"/><path class="cls-2" d="M137.68,17.32V30H135V17.32Z"/><path class="cls-2" d="M141.63,26.11a2.45,2.45,0,0,0,.67,1.6,2,2,0,0,0,1.4.5,2.6,2.6,0,0,0,.79-.11,4.76,4.76,0,0,0,.59-.25l.48-.24a.88.88,0,0,1,.45-.11.55.55,0,0,1,.48.22l.76,1a3.91,3.91,0,0,1-.88.76,4.69,4.69,0,0,1-1,.46,6.25,6.25,0,0,1-1,.23,7.94,7.94,0,0,1-.95.06,5,5,0,0,1-1.73-.3,3.83,3.83,0,0,1-1.42-.9,4,4,0,0,1-1-1.48,5.4,5.4,0,0,1-.36-2.05,4.72,4.72,0,0,1,.3-1.68,4.13,4.13,0,0,1,2.24-2.33,4.81,4.81,0,0,1,3.42-.07,3.46,3.46,0,0,1,1.25.79,3.6,3.6,0,0,1,.81,1.27,4.56,4.56,0,0,1,.3,1.7,3.28,3.28,0,0,1,0,.49.9.9,0,0,1-.09.29.37.37,0,0,1-.19.16.78.78,0,0,1-.29,0Zm3.31-1.53a2.09,2.09,0,0,0-.08-.61,1.38,1.38,0,0,0-.26-.53,1.21,1.21,0,0,0-.48-.38,1.59,1.59,0,0,0-.72-.15,1.63,1.63,0,0,0-1.18.43,2.27,2.27,0,0,0-.56,1.24Z"/><path class="cls-2" d="M155,22.32a4.72,4.72,0,0,1,1.18-.91,3.34,3.34,0,0,1,1.57-.35,2.62,2.62,0,0,1,1.27.31,3,3,0,0,1,1,.88,4.55,4.55,0,0,1,.66,1.42,6.85,6.85,0,0,1,.24,1.9,6,6,0,0,1-.27,1.83,4.53,4.53,0,0,1-.78,1.46,3.37,3.37,0,0,1-2.72,1.32A3.06,3.06,0,0,1,156,30a3.27,3.27,0,0,1-.85-.53v3.38h-2.63V21.23h1.63a.63.63,0,0,1,.65.44Zm.16,5.33a1.85,1.85,0,0,0,.65.46,2,2,0,0,0,.73.13,1.6,1.6,0,0,0,.67-.14,1.36,1.36,0,0,0,.53-.46,2.66,2.66,0,0,0,.36-.83,5.54,5.54,0,0,0,.12-1.24,5.64,5.64,0,0,0-.1-1.18,2.65,2.65,0,0,0-.28-.77,1.17,1.17,0,0,0-.44-.42,1.32,1.32,0,0,0-.57-.12,1.94,1.94,0,0,0-.95.21,2.71,2.71,0,0,0-.72.62Z"/><path class="cls-2" d="M164.79,22.59a3.52,3.52,0,0,1,.94-1.12,2,2,0,0,1,1.22-.41,1.55,1.55,0,0,1,1,.28l-.17,1.94a.42.42,0,0,1-.14.25.45.45,0,0,1-.27.07h-.18l-.23,0-.24,0-.23,0a1.36,1.36,0,0,0-.92.31,2.4,2.4,0,0,0-.58.85V30h-2.64V21.23h1.57a1.55,1.55,0,0,1,.33,0,.76.76,0,0,1,.22.11.43.43,0,0,1,.13.19,1.71,1.71,0,0,1,.08.29Z"/><path class="cls-2" d="M172.72,21.09a5.09,5.09,0,0,1,1.83.32,4,4,0,0,1,1.41.9,4.05,4.05,0,0,1,.92,1.42,5.13,5.13,0,0,1,.33,1.89,5.23,5.23,0,0,1-.33,1.9A4,4,0,0,1,176,29a3.86,3.86,0,0,1-1.41.91,5.09,5.09,0,0,1-1.83.32,5.15,5.15,0,0,1-1.84-.32,4,4,0,0,1-1.43-.91,3.87,3.87,0,0,1-.92-1.43,5.23,5.23,0,0,1-.33-1.9,5.13,5.13,0,0,1,.33-1.89,3.92,3.92,0,0,1,.92-1.42,4.14,4.14,0,0,1,1.43-.9A5.15,5.15,0,0,1,172.72,21.09Zm0,7.14a1.5,1.5,0,0,0,1.34-.65,3.48,3.48,0,0,0,.43-1.95,3.46,3.46,0,0,0-.43-1.94,1.49,1.49,0,0,0-1.34-.64,1.54,1.54,0,0,0-1.37.64,3.46,3.46,0,0,0-.43,1.94,3.48,3.48,0,0,0,.43,1.95A1.54,1.54,0,0,0,172.72,28.23Z"/><path class="cls-2" d="M181.23,21.23v8.83a4,4,0,0,1-.16,1.17,2.36,2.36,0,0,1-.52,1,2.44,2.44,0,0,1-1,.65,3.9,3.9,0,0,1-1.47.24,3.65,3.65,0,0,1-.59,0,4.21,4.21,0,0,1-.58-.11l.09-1.39a.34.34,0,0,1,.12-.26.61.61,0,0,1,.4-.09,1.87,1.87,0,0,0,.51-.05.57.57,0,0,0,.31-.18.77.77,0,0,0,.16-.34,2.92,2.92,0,0,0,0-.56V21.23Zm.27-2.41a1.34,1.34,0,0,1-.13.59,1.68,1.68,0,0,1-1.48.94,1.39,1.39,0,0,1-.61-.13,1.61,1.61,0,0,1-.84-.81,1.48,1.48,0,0,1-.12-.59,1.54,1.54,0,0,1,.12-.61,1.87,1.87,0,0,1,.34-.49,1.81,1.81,0,0,1,.5-.33,1.54,1.54,0,0,1,.61-.12,1.63,1.63,0,0,1,.62.12,1.5,1.5,0,0,1,.51.33,1.52,1.52,0,0,1,.35.49A1.39,1.39,0,0,1,181.5,18.82Z"/><path class="cls-2" d="M185.24,26.11a2.51,2.51,0,0,0,.67,1.6,2,2,0,0,0,1.4.5,2.6,2.6,0,0,0,.79-.11,4.94,4.94,0,0,0,.6-.25l.47-.24a1,1,0,0,1,.46-.11.54.54,0,0,1,.47.22l.77,1a4.14,4.14,0,0,1-.88.76,5,5,0,0,1-1,.46,5.79,5.79,0,0,1-1,.23,7.78,7.78,0,0,1-.94.06,5,5,0,0,1-1.74-.3,3.91,3.91,0,0,1-1.42-.9,4,4,0,0,1-1-1.48,5.4,5.4,0,0,1-.35-2.05,4.72,4.72,0,0,1,.3-1.68,4.18,4.18,0,0,1,.86-1.38,4.31,4.31,0,0,1,1.37-.95,4.81,4.81,0,0,1,3.42-.07,3.46,3.46,0,0,1,1.25.79,3.62,3.62,0,0,1,.82,1.27,4.77,4.77,0,0,1,.29,1.7,3.28,3.28,0,0,1,0,.49.59.59,0,0,1-.09.29.39.39,0,0,1-.18.16.87.87,0,0,1-.3,0Zm3.32-1.53a2.49,2.49,0,0,0-.08-.61,1.56,1.56,0,0,0-.27-.53,1.21,1.21,0,0,0-.48-.38,1.81,1.81,0,0,0-1.89.28,2.28,2.28,0,0,0-.57,1.24Z"/><path class="cls-2" d="M198.71,23.32a1.25,1.25,0,0,1-.23.23.46.46,0,0,1-.31.09.68.68,0,0,1-.35-.1l-.36-.21a2.88,2.88,0,0,0-.46-.2,1.74,1.74,0,0,0-.65-.1,1.86,1.86,0,0,0-.84.18,1.58,1.58,0,0,0-.58.51,2.3,2.3,0,0,0-.34.81,5.08,5.08,0,0,0-.11,1.09,3.25,3.25,0,0,0,.49,1.94,1.54,1.54,0,0,0,1.35.68,2,2,0,0,0,.72-.11,2.22,2.22,0,0,0,.46-.26l.34-.26a.65.65,0,0,1,.4-.11.54.54,0,0,1,.47.22l.77,1a4.31,4.31,0,0,1-.86.76,4.65,4.65,0,0,1-.92.46,5.47,5.47,0,0,1-.95.23,7.5,7.5,0,0,1-.93.06,3.85,3.85,0,0,1-1.54-.31A3.8,3.8,0,0,1,193,29a4.34,4.34,0,0,1-.89-1.44,5.5,5.5,0,0,1-.32-1.93,5.4,5.4,0,0,1,.28-1.78,3.88,3.88,0,0,1,2.22-2.4,4.88,4.88,0,0,1,1.9-.35,4.65,4.65,0,0,1,1.82.34,4.42,4.42,0,0,1,1.41,1Z"/><path class="cls-2" d="M203.66,30.18a3.15,3.15,0,0,1-1.11-.18,2.26,2.26,0,0,1-.81-.52,2.07,2.07,0,0,1-.49-.81,3,3,0,0,1-.17-1.06V23.05h-.75a.49.49,0,0,1-.35-.13.5.5,0,0,1-.15-.39v-1l1.41-.27.52-2.15a.52.52,0,0,1,.57-.41h1.38v2.58h2.19v1.8h-2.19v4.38a.8.8,0,0,0,.15.5.49.49,0,0,0,.43.2.78.78,0,0,0,.24,0l.17-.07.14-.06a.33.33,0,0,1,.15,0,.38.38,0,0,1,.19,0,1,1,0,0,1,.15.18l.79,1.25A3.81,3.81,0,0,1,205,30,4.53,4.53,0,0,1,203.66,30.18Z"/><rect class="cls-3" x="255.76" y="22.1" width="210.7" height="8.76" rx="3.36"/><rect class="cls-4" x="236.69" y="13.7" width="245.11" height="25.57" rx="5.48"/></g></svg>