<svg xmlns="http://www.w3.org/2000/svg" viewBox="0 0 222.07 183.3"><defs><style>.cls-1{fill:#0083ad;}.cls-2,.cls-3{fill:#fff;}.cls-3,.cls-4{stroke:#fff;stroke-miterlimit:10;opacity:0.6;}.cls-4{fill:none;}</style></defs><g id="map"><rect class="cls-1" width="222.07" height="183.3" rx="4.44"/><path class="cls-2" d="M26.25,26.48H24a1,1,0,0,1-.6-.17,1.19,1.19,0,0,1-.35-.45l-.73-2.16H17.63l-.73,2.16a1,1,0,0,1-.34.43.92.92,0,0,1-.6.19H13.72L18.51,14.1h2.95Zm-4.57-4.73-1.14-3.4c-.09-.21-.18-.46-.28-.76s-.19-.6-.28-.94c-.09.34-.18.66-.28,1a8.06,8.06,0,0,1-.27.76l-1.14,3.38Z"/><path class="cls-2" d="M33.17,19.76a2.49,2.49,0,0,1-.23.23.56.56,0,0,1-.32.08.7.7,0,0,1-.35-.09l-.35-.21a2.19,2.19,0,0,0-.46-.21,2,2,0,0,0-.65-.09,1.8,1.8,0,0,0-.84.18,1.5,1.5,0,0,0-.58.51,2.13,2.13,0,0,0-.34.81,4.49,4.49,0,0,0-.11,1.08A3.34,3.34,0,0,0,29.42,24a1.59,1.59,0,0,0,1.35.68,1.82,1.82,0,0,0,.73-.12,1.9,1.9,0,0,0,.45-.25l.35-.26a.61.61,0,0,1,.39-.12.56.56,0,0,1,.48.23l.76.94a3.56,3.56,0,0,1-.86.76,4,4,0,0,1-.92.46,4.54,4.54,0,0,1-.95.23,5.79,5.79,0,0,1-.92.07,4,4,0,0,1-1.54-.31,3.73,3.73,0,0,1-1.3-.89A4.27,4.27,0,0,1,26.56,24a5.33,5.33,0,0,1-.33-1.94,5.45,5.45,0,0,1,.29-1.78,4.14,4.14,0,0,1,.84-1.44,3.91,3.91,0,0,1,1.38-.95,4.83,4.83,0,0,1,1.89-.35,4.62,4.62,0,0,1,1.82.33,4.38,4.38,0,0,1,1.42,1Z"/><path class="cls-2" d="M41.29,19.76a2.49,2.49,0,0,1-.23.23.58.58,0,0,1-.32.08.68.68,0,0,1-.35-.09L40,19.77a2.45,2.45,0,0,0-.46-.21,2.1,2.1,0,0,0-.66-.09,1.78,1.78,0,0,0-.83.18,1.61,1.61,0,0,0-.59.51,2.5,2.5,0,0,0-.34.81,5.05,5.05,0,0,0-.11,1.08A3.34,3.34,0,0,0,37.54,24a1.59,1.59,0,0,0,1.35.68,1.85,1.85,0,0,0,.73-.12,2.12,2.12,0,0,0,.45-.25l.34-.26a.65.65,0,0,1,.4-.12.56.56,0,0,1,.48.23l.76.94a3.76,3.76,0,0,1-.86.76,4.16,4.16,0,0,1-.92.46,4.54,4.54,0,0,1-1,.23,5.79,5.79,0,0,1-.92.07,4.08,4.08,0,0,1-1.55-.31,3.69,3.69,0,0,1-1.29-.89A4.27,4.27,0,0,1,34.68,24a5.33,5.33,0,0,1-.33-1.94,5.44,5.44,0,0,1,.28-1.78,4,4,0,0,1,.85-1.44,4,4,0,0,1,1.37-.95,4.88,4.88,0,0,1,1.9-.35,4.65,4.65,0,0,1,1.82.33,4.45,4.45,0,0,1,1.41,1Z"/><path class="cls-2" d="M45.09,22.54a2.49,2.49,0,0,0,.68,1.61,2,2,0,0,0,1.4.49,2.36,2.36,0,0,0,.79-.11,3.62,3.62,0,0,0,.59-.24L49,24a1,1,0,0,1,.45-.11.56.56,0,0,1,.48.23l.76.94a3.46,3.46,0,0,1-.88.76,4.29,4.29,0,0,1-1,.46,5.06,5.06,0,0,1-1,.23,6.35,6.35,0,0,1-1,.07,4.76,4.76,0,0,1-1.74-.31,4.11,4.11,0,0,1-1.42-.89,4.41,4.41,0,0,1-1-1.48,5.66,5.66,0,0,1-.35-2.06,4.62,4.62,0,0,1,.3-1.67A4.05,4.05,0,0,1,45,17.88a4.86,4.86,0,0,1,3.41-.08,3.51,3.51,0,0,1,1.25.79,3.71,3.71,0,0,1,.82,1.27,4.79,4.79,0,0,1,.29,1.71c0,.2,0,.36,0,.48a.7.7,0,0,1-.1.3.34.34,0,0,1-.18.15.81.81,0,0,1-.29,0ZM48.41,21a2.57,2.57,0,0,0-.08-.62,1.48,1.48,0,0,0-.27-.53,1.42,1.42,0,0,0-.48-.38,1.68,1.68,0,0,0-.72-.14,1.55,1.55,0,0,0-1.17.43A2.24,2.24,0,0,0,45.13,21Z"/><path class="cls-2" d="M57.69,19.6a.66.66,0,0,1-.22.22.5.5,0,0,1-.29.07.83.83,0,0,1-.37-.08l-.41-.17-.49-.18a2.28,2.28,0,0,0-.62-.08,1.39,1.39,0,0,0-.77.19.65.65,0,0,0-.26.54.5.5,0,0,0,.17.4,1.58,1.58,0,0,0,.46.29c.2.08.42.16.66.23l.75.25a8,8,0,0,1,.75.32,2.69,2.69,0,0,1,.65.45,1.92,1.92,0,0,1,.46.65,2.13,2.13,0,0,1,.18.92,3,3,0,0,1-.24,1.2,2.56,2.56,0,0,1-.71.95,3.36,3.36,0,0,1-1.17.63,5.45,5.45,0,0,1-1.59.22,4.58,4.58,0,0,1-.9-.09,5.06,5.06,0,0,1-.87-.23,4.59,4.59,0,0,1-.78-.34,3.83,3.83,0,0,1-.61-.43l.61-1a1,1,0,0,1,.26-.27.79.79,0,0,1,.4-.1.85.85,0,0,1,.42.11l.39.22a3.39,3.39,0,0,0,.5.22,2.12,2.12,0,0,0,.72.1,2,2,0,0,0,.52-.06,1,1,0,0,0,.34-.18.69.69,0,0,0,.18-.24.72.72,0,0,0,.06-.29.57.57,0,0,0-.18-.43,1.58,1.58,0,0,0-.46-.29c-.2-.08-.42-.16-.66-.23l-.76-.24a6.12,6.12,0,0,1-.75-.33,2.83,2.83,0,0,1-.66-.49,2.23,2.23,0,0,1-.46-.71,2.67,2.67,0,0,1-.18-1A2.76,2.76,0,0,1,52,19.25a2.59,2.59,0,0,1,.66-.89,3.2,3.2,0,0,1,1.08-.6,4.48,4.48,0,0,1,1.53-.23,5.64,5.64,0,0,1,.93.08,5.33,5.33,0,0,1,.83.24,4.84,4.84,0,0,1,.72.36,3.7,3.7,0,0,1,.57.46Z"/><path class="cls-2" d="M65.26,19.6a.64.64,0,0,1-.21.22.56.56,0,0,1-.3.07.85.85,0,0,1-.37-.08l-.4-.17-.49-.18a2.33,2.33,0,0,0-.62-.08,1.36,1.36,0,0,0-.77.19.63.63,0,0,0-.27.54.53.53,0,0,0,.17.4,1.64,1.64,0,0,0,.47.29,6.06,6.06,0,0,0,.65.23l.75.25a7,7,0,0,1,.75.32,2.69,2.69,0,0,1,.65.45,1.94,1.94,0,0,1,.47.65,2.29,2.29,0,0,1,.17.92,3,3,0,0,1-.24,1.2,2.45,2.45,0,0,1-.71.95,3.31,3.31,0,0,1-1.16.63,5.52,5.52,0,0,1-1.6.22,4.58,4.58,0,0,1-.9-.09,5.06,5.06,0,0,1-.87-.23,4.59,4.59,0,0,1-.78-.34,4.34,4.34,0,0,1-.61-.43l.61-1a1,1,0,0,1,.26-.27.83.83,0,0,1,.41-.1.81.81,0,0,1,.41.11l.4.22a3.24,3.24,0,0,0,.49.22,2.12,2.12,0,0,0,.72.1,2,2,0,0,0,.52-.06,1,1,0,0,0,.34-.18.65.65,0,0,0,.25-.53.57.57,0,0,0-.18-.43,1.64,1.64,0,0,0-.47-.29,5.57,5.57,0,0,0-.66-.23q-.37-.11-.75-.24a5,5,0,0,1-.75-.33,2.47,2.47,0,0,1-.66-.49,2.1,2.1,0,0,1-.47-.71,2.67,2.67,0,0,1-.18-1,2.6,2.6,0,0,1,.22-1.07,2.44,2.44,0,0,1,.65-.89,3.25,3.25,0,0,1,1.09-.6,4.4,4.4,0,0,1,1.53-.23,5.62,5.62,0,0,1,.92.08,5.15,5.15,0,0,1,.84.24,4.72,4.72,0,0,1,.71.36,3.28,3.28,0,0,1,.57.46Z"/><path class="cls-2" d="M74.32,26.62a2.93,2.93,0,0,1-1.11-.19,2.24,2.24,0,0,1-.81-.51,2.35,2.35,0,0,1-.5-.82A3.18,3.18,0,0,1,71.73,24V19.48H71a.47.47,0,0,1-.34-.13.46.46,0,0,1-.15-.38v-1l1.4-.27.52-2.15a.52.52,0,0,1,.58-.41h1.38v2.57h2.18v1.8H74.37v4.38a.83.83,0,0,0,.15.51.51.51,0,0,0,.43.2.88.88,0,0,0,.24,0l.17-.07.13-.07.15,0a.27.27,0,0,1,.19.06.52.52,0,0,1,.15.17l.8,1.25a3.56,3.56,0,0,1-1.15.58A4.77,4.77,0,0,1,74.32,26.62Z"/><path class="cls-2" d="M81.67,17.53a5.32,5.32,0,0,1,1.83.31,3.86,3.86,0,0,1,1.41.91,4,4,0,0,1,.92,1.42,5.08,5.08,0,0,1,.33,1.88,5.19,5.19,0,0,1-.33,1.9,4,4,0,0,1-.92,1.44,4,4,0,0,1-1.41.91,5.42,5.42,0,0,1-3.67,0,4.16,4.16,0,0,1-1.43-.91A4.07,4.07,0,0,1,77.47,24a5.41,5.41,0,0,1-.32-1.9,5.29,5.29,0,0,1,.32-1.88,4,4,0,0,1,2.36-2.33A5.34,5.34,0,0,1,81.67,17.53Zm0,7.13A1.49,1.49,0,0,0,83,24a3.61,3.61,0,0,0,.43-1.95A3.61,3.61,0,0,0,83,20.12a1.52,1.52,0,0,0-1.34-.64,1.56,1.56,0,0,0-1.37.64,3.52,3.52,0,0,0-.43,1.95A3.52,3.52,0,0,0,80.3,24,1.54,1.54,0,0,0,81.67,24.66Z"/><path class="cls-2" d="M93.88,18.75a4.68,4.68,0,0,1,1.18-.9,3.22,3.22,0,0,1,1.57-.35,2.73,2.73,0,0,1,1.27.3,3,3,0,0,1,1,.89,4.39,4.39,0,0,1,.66,1.41,6.89,6.89,0,0,1,.25,1.9,6,6,0,0,1-.28,1.84,4.72,4.72,0,0,1-.77,1.46,3.69,3.69,0,0,1-1.19,1,3.45,3.45,0,0,1-1.54.35,2.79,2.79,0,0,1-2-.73v3.39H91.41V17.67H93a.61.61,0,0,1,.65.44Zm.17,5.33a1.63,1.63,0,0,0,.64.46,2,2,0,0,0,.73.14,1.47,1.47,0,0,0,.67-.15,1.29,1.29,0,0,0,.53-.46,2.56,2.56,0,0,0,.36-.83A5.48,5.48,0,0,0,97.1,22a5.6,5.6,0,0,0-.1-1.17,2.44,2.44,0,0,0-.28-.77,1,1,0,0,0-.44-.42,1.2,1.2,0,0,0-.57-.13,1.94,1.94,0,0,0-.95.21,2.53,2.53,0,0,0-.71.62Z"/><path class="cls-2" d="M103.65,19a3.83,3.83,0,0,1,.94-1.13,1.94,1.94,0,0,1,1.22-.4,1.55,1.55,0,0,1,1,.28l-.17,1.93a.36.36,0,0,1-.41.33H106l-.23,0-.24,0h-.23a1.31,1.31,0,0,0-.92.31,2.31,2.31,0,0,0-.58.85v5.35h-2.64V17.67h1.57a1.55,1.55,0,0,1,.33,0,.57.57,0,0,1,.22.11.38.38,0,0,1,.13.19,1.48,1.48,0,0,1,.08.29Z"/><path class="cls-2" d="M111.58,17.53a5.32,5.32,0,0,1,1.83.31,3.86,3.86,0,0,1,1.41.91,4,4,0,0,1,.92,1.42,5.08,5.08,0,0,1,.33,1.88,5.19,5.19,0,0,1-.33,1.9,4,4,0,0,1-.92,1.44,4,4,0,0,1-1.41.91,5.09,5.09,0,0,1-1.83.32,5.15,5.15,0,0,1-1.84-.32,4.16,4.16,0,0,1-1.43-.91,3.91,3.91,0,0,1-.92-1.44,5.19,5.19,0,0,1-.33-1.9,5.08,5.08,0,0,1,.33-1.88,3.83,3.83,0,0,1,.92-1.42,4,4,0,0,1,1.43-.91A5.38,5.38,0,0,1,111.58,17.53Zm0,7.13a1.49,1.49,0,0,0,1.34-.64,3.52,3.52,0,0,0,.43-1.95,3.52,3.52,0,0,0-.43-1.95,1.52,1.52,0,0,0-1.34-.64,1.56,1.56,0,0,0-1.37.64,3.52,3.52,0,0,0-.43,1.95,3.52,3.52,0,0,0,.43,1.95A1.54,1.54,0,0,0,111.58,24.66Z"/><path class="cls-2" d="M120.09,17.67V26.5a4.08,4.08,0,0,1-.16,1.17,2.5,2.5,0,0,1-.52,1,2.55,2.55,0,0,1-1,.65,3.9,3.9,0,0,1-1.47.24,5.3,5.3,0,0,1-.59,0l-.58-.12.09-1.38a.38.38,0,0,1,.12-.27.7.7,0,0,1,.4-.08,2.37,2.37,0,0,0,.51-.05.73.73,0,0,0,.31-.18.81.81,0,0,0,.16-.35,2.81,2.81,0,0,0,0-.55V17.67Zm.27-2.42a1.31,1.31,0,0,1-.13.59,1.42,1.42,0,0,1-.35.49,1.5,1.5,0,0,1-.51.33,1.63,1.63,0,0,1-.62.12,1.54,1.54,0,0,1-.61-.12,1.63,1.63,0,0,1-.49-.33,1.57,1.57,0,0,1-.35-.49,1.45,1.45,0,0,1-.12-.59,1.53,1.53,0,0,1,.12-.6,1.57,1.57,0,0,1,.35-.49,1.49,1.49,0,0,1,.49-.34,1.54,1.54,0,0,1,.61-.12,1.63,1.63,0,0,1,.62.12,1.39,1.39,0,0,1,.51.34,1.42,1.42,0,0,1,.35.49A1.38,1.38,0,0,1,120.36,15.25Z"/><path class="cls-2" d="M124.1,22.54a2.54,2.54,0,0,0,.67,1.61,2,2,0,0,0,1.4.49,2.42,2.42,0,0,0,.8-.11,4,4,0,0,0,.59-.24L128,24a1.07,1.07,0,0,1,.46-.11.53.53,0,0,1,.47.23l.77.94a3.64,3.64,0,0,1-.88.76,4.5,4.5,0,0,1-1,.46,5,5,0,0,1-1,.23,6.22,6.22,0,0,1-.94.07,4.76,4.76,0,0,1-1.74-.31,4,4,0,0,1-1.42-.89,4.12,4.12,0,0,1-1-1.48,5.46,5.46,0,0,1-.35-2.06,4.62,4.62,0,0,1,.3-1.67,4.22,4.22,0,0,1,.86-1.39,4.28,4.28,0,0,1,1.37-.94,4.89,4.89,0,0,1,3.42-.08,3.6,3.6,0,0,1,1.25.79,3.71,3.71,0,0,1,.82,1.27,4.79,4.79,0,0,1,.29,1.71,3,3,0,0,1,0,.48.59.59,0,0,1-.09.3.43.43,0,0,1-.18.15.87.87,0,0,1-.3,0ZM127.42,21a2.57,2.57,0,0,0-.08-.62,1.66,1.66,0,0,0-.27-.53,1.42,1.42,0,0,0-.48-.38,1.74,1.74,0,0,0-.72-.14,1.55,1.55,0,0,0-1.17.43,2.24,2.24,0,0,0-.57,1.24Z"/><path class="cls-2" d="M137.57,19.76a1.66,1.66,0,0,1-.23.23.52.52,0,0,1-.31.08.68.68,0,0,1-.35-.09l-.36-.21a2.19,2.19,0,0,0-.46-.21,2,2,0,0,0-.65-.09,1.86,1.86,0,0,0-.84.18,1.58,1.58,0,0,0-.58.51,2.3,2.3,0,0,0-.34.81,5.05,5.05,0,0,0-.11,1.08,3.27,3.27,0,0,0,.49,1.95,1.56,1.56,0,0,0,1.35.68,1.8,1.8,0,0,0,.72-.12,2.21,2.21,0,0,0,.46-.25l.34-.26a.65.65,0,0,1,.4-.12.53.53,0,0,1,.47.23l.77.94a3.76,3.76,0,0,1-.86.76,4.16,4.16,0,0,1-.92.46,4.69,4.69,0,0,1-.95.23,6,6,0,0,1-.93.07,4,4,0,0,1-1.54-.31,3.69,3.69,0,0,1-1.29-.89A4.29,4.29,0,0,1,131,24a5.56,5.56,0,0,1-.32-1.94,5.44,5.44,0,0,1,.28-1.78,4.14,4.14,0,0,1,.84-1.44,3.91,3.91,0,0,1,1.38-.95,4.88,4.88,0,0,1,1.9-.35,4.65,4.65,0,0,1,1.82.33,4.45,4.45,0,0,1,1.41,1Z"/><path class="cls-2" d="M142.52,26.62a2.93,2.93,0,0,1-1.11-.19,2.24,2.24,0,0,1-.81-.51,2.33,2.33,0,0,1-.49-.82,3,3,0,0,1-.17-1.06V19.48h-.75a.49.49,0,0,1-.35-.13.46.46,0,0,1-.14-.38v-1l1.4-.27.52-2.15a.51.51,0,0,1,.57-.41h1.38v2.57h2.19v1.8h-2.19v4.38a.83.83,0,0,0,.15.51.51.51,0,0,0,.43.2.78.78,0,0,0,.24,0l.17-.07.14-.07a.33.33,0,0,1,.15,0,.29.29,0,0,1,.19.06.66.66,0,0,1,.15.17l.8,1.25a3.66,3.66,0,0,1-1.15.58A4.9,4.9,0,0,1,142.52,26.62Z"/><path class="cls-2" d="M151.5,19.6a.66.66,0,0,1-.22.22.52.52,0,0,1-.29.07.87.87,0,0,1-.38-.08l-.4-.17-.49-.18a2.33,2.33,0,0,0-.62-.08,1.36,1.36,0,0,0-.77.19.63.63,0,0,0-.27.54.5.5,0,0,0,.18.4,1.45,1.45,0,0,0,.46.29,6.06,6.06,0,0,0,.65.23l.75.25a6.26,6.26,0,0,1,.75.32,2.69,2.69,0,0,1,.65.45,1.94,1.94,0,0,1,.47.65,2.29,2.29,0,0,1,.17.92,3,3,0,0,1-.24,1.2,2.36,2.36,0,0,1-.71.95,3.31,3.31,0,0,1-1.16.63,5.45,5.45,0,0,1-1.59.22,4.58,4.58,0,0,1-.9-.09,4.94,4.94,0,0,1-.88-.23,4.17,4.17,0,0,1-.77-.34,3.94,3.94,0,0,1-.62-.43l.62-1a.75.75,0,0,1,.26-.27.76.76,0,0,1,.4-.1.81.81,0,0,1,.41.11l.4.22a3.24,3.24,0,0,0,.49.22,2.12,2.12,0,0,0,.72.1,1.9,1.9,0,0,0,.52-.06.91.91,0,0,0,.34-.18.61.61,0,0,0,.19-.24.72.72,0,0,0,.06-.29.57.57,0,0,0-.18-.43,1.64,1.64,0,0,0-.47-.29,5.57,5.57,0,0,0-.66-.23l-.75-.24a5.51,5.51,0,0,1-.75-.33,2.47,2.47,0,0,1-.66-.49,2.25,2.25,0,0,1-.47-.71,2.67,2.67,0,0,1-.18-1,2.77,2.77,0,0,1,.22-1.07,2.44,2.44,0,0,1,.65-.89,3.25,3.25,0,0,1,1.09-.6,4.4,4.4,0,0,1,1.53-.23,5.52,5.52,0,0,1,.92.08,5.15,5.15,0,0,1,.84.24,4.28,4.28,0,0,1,.71.36,2.94,2.94,0,0,1,.57.46Z"/><path class="cls-2" d="M27.8,40.67l-2.73,8.81H22.93a.41.41,0,0,1-.29-.1.65.65,0,0,1-.19-.34l-1.26-4.4c-.06-.19-.12-.39-.16-.58s-.1-.39-.14-.59c0,.2-.08.4-.13.6s-.1.39-.16.59L19.32,49a.54.54,0,0,1-.56.44h-2L14,40.67h2.11a.77.77,0,0,1,.47.13.61.61,0,0,1,.26.32l.89,4c.07.3.14.59.19.87s.11.56.15.84l.24-.84q.12-.42.27-.87l1.1-4a.69.69,0,0,1,.26-.33.72.72,0,0,1,.44-.13h1.17a.77.77,0,0,1,.47.13.63.63,0,0,1,.26.33l1.06,4c.08.3.17.59.25.87s.15.57.22.86c.05-.28.1-.57.16-.85s.14-.58.22-.88l.93-4a.66.66,0,0,1,.26-.32.72.72,0,0,1,.44-.13Z"/><path class="cls-2" d="M31.71,38.25a1.45,1.45,0,0,1-.13.59,1.57,1.57,0,0,1-.35.49,1.72,1.72,0,0,1-.51.33,1.68,1.68,0,0,1-.63.12,1.5,1.5,0,0,1-.6-.12,1.56,1.56,0,0,1-.5-.33,1.54,1.54,0,0,1-.34-.49,1.45,1.45,0,0,1-.12-.59A1.49,1.49,0,0,1,29,37.16a1.43,1.43,0,0,1,.5-.34,1.5,1.5,0,0,1,.6-.12,1.68,1.68,0,0,1,.63.12,1.69,1.69,0,0,1,.86.83A1.54,1.54,0,0,1,31.71,38.25Zm-.28,2.42v8.81H28.8V40.67Z"/><path class="cls-2" d="M36.43,49.62a2.93,2.93,0,0,1-1.11-.19,2.24,2.24,0,0,1-.81-.51A2.33,2.33,0,0,1,34,48.1,3,3,0,0,1,33.85,47V42.48H33.1a.49.49,0,0,1-.35-.13.46.46,0,0,1-.14-.38v-1l1.4-.27.52-2.15a.52.52,0,0,1,.58-.41h1.37v2.57h2.19v1.8H36.48v4.38a.83.83,0,0,0,.15.51.51.51,0,0,0,.43.2.78.78,0,0,0,.24,0l.17-.07.14-.07a.33.33,0,0,1,.15,0,.29.29,0,0,1,.19.06.52.52,0,0,1,.15.17l.8,1.25a3.66,3.66,0,0,1-1.15.58A4.9,4.9,0,0,1,36.43,49.62Z"/><path class="cls-2" d="M42.44,41.44a4.51,4.51,0,0,1,1-.66,3.19,3.19,0,0,1,1.33-.25,3,3,0,0,1,1.28.25,2.64,2.64,0,0,1,.94.7,2.87,2.87,0,0,1,.58,1.06,4.43,4.43,0,0,1,.2,1.34v5.6H45.16v-5.6a1.54,1.54,0,0,0-.3-1,1.05,1.05,0,0,0-.87-.36,1.85,1.85,0,0,0-.81.18,3.11,3.11,0,0,0-.74.5v6.29H39.81V36.76h2.63Z"/><path class="cls-2" d="M52.46,38.25a1.45,1.45,0,0,1-.12.59,1.75,1.75,0,0,1-.35.49,1.65,1.65,0,0,1-.52.33,1.59,1.59,0,0,1-.62.12,1.54,1.54,0,0,1-.61-.12,1.63,1.63,0,0,1-.49-.33,1.39,1.39,0,0,1-.34-.49,1.31,1.31,0,0,1-.13-.59,1.38,1.38,0,0,1,.13-.6,1.39,1.39,0,0,1,.34-.49,1.49,1.49,0,0,1,.49-.34,1.54,1.54,0,0,1,.61-.12,1.59,1.59,0,0,1,.62.12,1.51,1.51,0,0,1,.52.34,1.75,1.75,0,0,1,.35.49A1.53,1.53,0,0,1,52.46,38.25Zm-.27,2.42v8.81H49.56V40.67Z"/><path class="cls-2" d="M56.47,41.62a5.27,5.27,0,0,1,.52-.44,3.16,3.16,0,0,1,.59-.35,3.29,3.29,0,0,1,.67-.22,3.81,3.81,0,0,1,.78-.08,3,3,0,0,1,1.28.25,2.64,2.64,0,0,1,.94.7,2.87,2.87,0,0,1,.58,1.06,4.43,4.43,0,0,1,.2,1.34v5.6H59.39v-5.6a1.54,1.54,0,0,0-.3-1,1.07,1.07,0,0,0-.87-.36,1.85,1.85,0,0,0-.81.18,3.11,3.11,0,0,0-.74.5v6.29H54V40.67h1.63a.6.6,0,0,1,.64.44Z"/><path class="cls-2" d="M70.81,49.62a2.93,2.93,0,0,1-1.11-.19,2.24,2.24,0,0,1-.81-.51,2.35,2.35,0,0,1-.5-.82A3.18,3.18,0,0,1,68.22,47V42.48h-.75a.47.47,0,0,1-.34-.13A.46.46,0,0,1,67,42v-1l1.4-.27.52-2.15a.52.52,0,0,1,.58-.41h1.38v2.57H73v1.8H70.86v4.38a.83.83,0,0,0,.15.51.49.49,0,0,0,.42.2.9.9,0,0,0,.25,0l.17-.07L72,47.4a.37.37,0,0,1,.15,0,.29.29,0,0,1,.19.06.52.52,0,0,1,.15.17l.8,1.25a3.56,3.56,0,0,1-1.15.58A4.77,4.77,0,0,1,70.81,49.62Z"/><path class="cls-2" d="M76.81,41.44a4.57,4.57,0,0,1,1-.66,3.16,3.16,0,0,1,1.33-.25,3,3,0,0,1,1.28.25,2.73,2.73,0,0,1,.94.7A3,3,0,0,1,82,42.54a4.43,4.43,0,0,1,.2,1.34v5.6H79.53v-5.6a1.54,1.54,0,0,0-.29-1,1.08,1.08,0,0,0-.88-.36,1.85,1.85,0,0,0-.81.18,3.33,3.33,0,0,0-.74.5v6.29H74.18V36.76h2.63Z"/><path class="cls-2" d="M86,45.54a2.48,2.48,0,0,0,.67,1.61,2,2,0,0,0,1.4.49,2.32,2.32,0,0,0,.79-.11,3.62,3.62,0,0,0,.59-.24L90,47a1,1,0,0,1,.45-.11.56.56,0,0,1,.48.23l.76.94a3.46,3.46,0,0,1-.88.76,4.22,4.22,0,0,1-1,.46,5.33,5.33,0,0,1-1,.23,6.35,6.35,0,0,1-.95.07,4.83,4.83,0,0,1-1.74-.31,4,4,0,0,1-1.41-.89,4.12,4.12,0,0,1-1-1.48,5.45,5.45,0,0,1-.36-2.06,4.62,4.62,0,0,1,.3-1.67,4.09,4.09,0,0,1,.87-1.39,4.18,4.18,0,0,1,1.37-.94,4.53,4.53,0,0,1,1.81-.35,4.61,4.61,0,0,1,1.61.27,3.6,3.6,0,0,1,1.25.79,3.69,3.69,0,0,1,.81,1.27,4.58,4.58,0,0,1,.29,1.71,3.25,3.25,0,0,1,0,.48.89.89,0,0,1-.09.3.4.4,0,0,1-.19.15.78.78,0,0,1-.29,0ZM89.35,44a2.15,2.15,0,0,0-.08-.62,1.46,1.46,0,0,0-.26-.53,1.42,1.42,0,0,0-.48-.38,1.76,1.76,0,0,0-.73-.14,1.58,1.58,0,0,0-1.17.43A2.24,2.24,0,0,0,86.07,44Z"/><path class="cls-2" d="M105,40.94v1a.46.46,0,0,1-.13.35.82.82,0,0,1-.42.19l-.63.15c0,.12.06.25.08.38a2.73,2.73,0,0,1,0,.41,2.54,2.54,0,0,1-1,2.08,3.34,3.34,0,0,1-1.13.57,4.56,4.56,0,0,1-1.4.2h-.4a2.6,2.6,0,0,1-.39,0,.5.5,0,0,0-.28.4.33.33,0,0,0,.23.32,2.27,2.27,0,0,0,.63.14l.89,0,1,.06a6.85,6.85,0,0,1,1,.16,2.81,2.81,0,0,1,.89.35,2,2,0,0,1,.63.66,2.09,2.09,0,0,1,.24,1,2.59,2.59,0,0,1-.29,1.17,3.1,3.1,0,0,1-.85,1,4.59,4.59,0,0,1-1.38.71,5.94,5.94,0,0,1-1.87.27,7.19,7.19,0,0,1-1.79-.2,4.4,4.4,0,0,1-1.25-.51,2.23,2.23,0,0,1-.73-.74,1.73,1.73,0,0,1-.24-.87,1.4,1.4,0,0,1,.34-1,2.29,2.29,0,0,1,1-.63,1.62,1.62,0,0,1-.51-.5,1.58,1.58,0,0,1-.19-.8,1.6,1.6,0,0,1,.07-.41,1.7,1.7,0,0,1,.22-.42,2.28,2.28,0,0,1,.37-.4,2.67,2.67,0,0,1,.53-.33,2.83,2.83,0,0,1-1.09-1,2.45,2.45,0,0,1-.4-1.4,2.53,2.53,0,0,1,.28-1.2,2.76,2.76,0,0,1,.77-.9,3.86,3.86,0,0,1,1.15-.57,5.06,5.06,0,0,1,1.44-.2,4.41,4.41,0,0,1,2,.43Zm-2.6,8.86a.47.47,0,0,0-.28-.45,2.46,2.46,0,0,0-.73-.2,9.81,9.81,0,0,0-1-.07c-.37,0-.74,0-1.11-.07a1.63,1.63,0,0,0-.4.38.74.74,0,0,0-.16.47.63.63,0,0,0,.08.34.67.67,0,0,0,.28.27,2,2,0,0,0,.55.17,5.22,5.22,0,0,0,.87.06,6.08,6.08,0,0,0,.94-.06,2.07,2.07,0,0,0,.58-.19.76.76,0,0,0,.3-.29A.74.74,0,0,0,102.36,49.8Zm-2-5.19a1.1,1.1,0,0,0,1.24-1.17,1.14,1.14,0,0,0-.3-.84,1.6,1.6,0,0,0-1.89,0,1.13,1.13,0,0,0-.29.84,1.35,1.35,0,0,0,.07.46.91.91,0,0,0,.22.37,1,1,0,0,0,.39.25A1.57,1.57,0,0,0,100.32,44.61Z"/><path class="cls-2" d="M108.53,42a3.68,3.68,0,0,1,.94-1.13,1.94,1.94,0,0,1,1.22-.4,1.57,1.57,0,0,1,1,.28l-.17,1.93a.36.36,0,0,1-.41.33h-.18l-.23,0-.24,0h-.23a1.31,1.31,0,0,0-.92.31,2.31,2.31,0,0,0-.58.85v5.35h-2.64V40.67h1.57a1.39,1.39,0,0,1,.32,0,.46.46,0,0,1,.22.11.4.4,0,0,1,.14.19,1.48,1.48,0,0,1,.08.29Z"/><path class="cls-2" d="M116.46,40.53a5.32,5.32,0,0,1,1.83.31,3.86,3.86,0,0,1,1.41.91,4.1,4.1,0,0,1,.92,1.42,5.08,5.08,0,0,1,.33,1.88,5.19,5.19,0,0,1-.33,1.9,4.19,4.19,0,0,1-.92,1.44,4,4,0,0,1-1.41.91,5.42,5.42,0,0,1-3.67,0,4.16,4.16,0,0,1-1.43-.91,4.07,4.07,0,0,1-.93-1.44,5.41,5.41,0,0,1-.32-1.9,5.29,5.29,0,0,1,.32-1.88,4,4,0,0,1,2.36-2.33A5.34,5.34,0,0,1,116.46,40.53Zm0,7.13A1.5,1.5,0,0,0,117.8,47a3.61,3.61,0,0,0,.43-2,3.61,3.61,0,0,0-.43-2,1.53,1.53,0,0,0-1.34-.64,1.55,1.55,0,0,0-1.37.64,3.52,3.52,0,0,0-.43,2,3.52,3.52,0,0,0,.43,2A1.52,1.52,0,0,0,116.46,47.66Z"/><path class="cls-2" d="M130.18,40.67v8.81h-1.63a.63.63,0,0,1-.65-.44l-.15-.51a5.37,5.37,0,0,1-.53.44,2.84,2.84,0,0,1-.58.34,3.39,3.39,0,0,1-.68.23,3.81,3.81,0,0,1-.78.08,3.21,3.21,0,0,1-1.28-.25,2.75,2.75,0,0,1-.94-.71,3.11,3.11,0,0,1-.58-1.06,4.38,4.38,0,0,1-.19-1.34V40.67h2.63v5.59a1.52,1.52,0,0,0,.3,1,1.08,1.08,0,0,0,.88.36,1.78,1.78,0,0,0,.81-.19,3.22,3.22,0,0,0,.73-.49V40.67Z"/><path class="cls-2" d="M134.44,41.75a4.46,4.46,0,0,1,1.17-.9,3.22,3.22,0,0,1,1.57-.35,2.77,2.77,0,0,1,1.28.3,3,3,0,0,1,1,.89,4.39,4.39,0,0,1,.66,1.41,6.53,6.53,0,0,1,.25,1.9,6,6,0,0,1-.28,1.84,4.52,4.52,0,0,1-.77,1.46,3.59,3.59,0,0,1-1.19,1,3.45,3.45,0,0,1-1.54.35,2.83,2.83,0,0,1-2-.73v3.39H132V40.67h1.63a.61.61,0,0,1,.65.44Zm.16,5.33a1.7,1.7,0,0,0,.64.46,2.06,2.06,0,0,0,.73.14,1.54,1.54,0,0,0,.68-.15,1.35,1.35,0,0,0,.53-.46,2.56,2.56,0,0,0,.35-.83,5.42,5.42,0,0,0,.13-1.24,5.54,5.54,0,0,0-.11-1.17,2.22,2.22,0,0,0-.28-.77,1,1,0,0,0-.44-.42,1.2,1.2,0,0,0-.57-.13,1.94,1.94,0,0,0-.95.21,2.53,2.53,0,0,0-.71.62Z"/><rect class="cls-3" x="23.09" y="88.47" width="174.52" height="9.82" rx="4.91"/><rect class="cls-3" x="23.09" y="121.05" width="174.52" height="9.82" rx="4.91"/><rect class="cls-3" x="23.09" y="153.63" width="174.52" height="9.82" rx="4.91"/><rect class="cls-4" x="12.43" y="81.08" width="196.73" height="25.57" rx="4.91"/><rect class="cls-4" x="12.43" y="113.66" width="196.73" height="25.57" rx="4.91"/><rect class="cls-4" x="12.43" y="146.24" width="196.73" height="25.57" rx="4.91"/></g></svg>