<?xml version="1.0" encoding="utf-8"?>
<!-- Generator: Adobe Illustrator 25.2.3, SVG Export Plug-In . SVG Version: 6.00 Build 0)  -->
<svg version="1.1" id="Layer_1" xmlns="http://www.w3.org/2000/svg" xmlns:xlink="http://www.w3.org/1999/xlink" x="0px" y="0px"
	 viewBox="0 0 245 100" style="enable-background:new 0 0 245 100;" xml:space="preserve">
<style type="text/css">
	.st0{fill:none;stroke:#E6E6E6;stroke-width:2.22;stroke-miterlimit:10;}
	.st1{fill:#99CC33;stroke:#E6E6E6;stroke-width:4.37;stroke-miterlimit:10;}
	.st2{enable-background:new    ;}
	.st3{fill:#346AB8;stroke:#E6E6E6;stroke-width:4.37;stroke-miterlimit:10;}
	.st4{fill:#FFFFFF;}
</style>
<g id="upper">
	<line class="st0" x1="35.7" y1="49.6" x2="215.2" y2="49.6"/>
	<circle class="st1" cx="48" cy="50.9" r="41.5"/>
	<g class="st2">
		<path d="M35.9,53.9v1.5h-5.8v-9.9H32v8.4H35.9z"/>
		<path d="M38.9,46.4c0,0.1,0,0.3-0.1,0.4c-0.1,0.1-0.1,0.2-0.2,0.3c-0.1,0.1-0.2,0.2-0.3,0.2s-0.3,0.1-0.4,0.1
			c-0.1,0-0.3,0-0.4-0.1c-0.1-0.1-0.2-0.1-0.3-0.2c-0.1-0.1-0.2-0.2-0.2-0.3c-0.1-0.1-0.1-0.3-0.1-0.4c0-0.2,0-0.3,0.1-0.4
			c0.1-0.1,0.1-0.2,0.2-0.3s0.2-0.2,0.3-0.2c0.1-0.1,0.3-0.1,0.4-0.1c0.2,0,0.3,0,0.4,0.1s0.2,0.1,0.3,0.2c0.1,0.1,0.2,0.2,0.2,0.3
			C38.9,46.1,38.9,46.2,38.9,46.4z M38.7,48.4v7H37v-7H38.7z"/>
		<path d="M42,49.3c0.1-0.1,0.3-0.3,0.4-0.4c0.2-0.1,0.3-0.2,0.5-0.3s0.4-0.2,0.6-0.2s0.4-0.1,0.7-0.1c0.4,0,0.7,0.1,1,0.2
			c0.3,0.1,0.5,0.3,0.7,0.5c0.2,0.2,0.3,0.5,0.5,0.8c0.1,0.3,0.2,0.7,0.2,1.1v4.5h-1.7V51c0-0.4-0.1-0.8-0.3-1
			c-0.2-0.2-0.5-0.4-0.9-0.4c-0.3,0-0.6,0.1-0.8,0.2s-0.5,0.3-0.7,0.5v5.1h-1.7v-7h1c0.2,0,0.4,0.1,0.4,0.3L42,49.3z"/>
		<path d="M48,49.4c0.8-0.7,1.8-1.1,2.9-1.1c0.4,0,0.8,0.1,1.1,0.2c0.3,0.1,0.6,0.3,0.8,0.6c0.2,0.2,0.4,0.5,0.5,0.9
			c0.1,0.3,0.2,0.7,0.2,1.1v4.4h-0.8c-0.2,0-0.3,0-0.4-0.1s-0.2-0.1-0.2-0.3L52,54.6c-0.2,0.2-0.4,0.3-0.5,0.4
			c-0.2,0.1-0.3,0.2-0.5,0.3s-0.4,0.1-0.6,0.2c-0.2,0-0.4,0.1-0.7,0.1c-0.3,0-0.6,0-0.8-0.1c-0.3-0.1-0.5-0.2-0.6-0.4
			s-0.3-0.4-0.4-0.6c-0.1-0.2-0.1-0.5-0.1-0.8c0-0.2,0-0.4,0.1-0.5c0.1-0.2,0.2-0.3,0.3-0.5c0.1-0.2,0.3-0.3,0.5-0.5
			c0.2-0.1,0.5-0.3,0.8-0.4c0.3-0.1,0.7-0.2,1.1-0.3c0.4-0.1,0.9-0.1,1.4-0.1V51c0-0.5-0.1-0.8-0.3-1c-0.2-0.2-0.5-0.3-0.9-0.3
			c-0.3,0-0.5,0-0.7,0.1c-0.2,0.1-0.3,0.1-0.5,0.2c-0.1,0.1-0.3,0.2-0.4,0.2c-0.1,0.1-0.2,0.1-0.4,0.1c-0.1,0-0.2,0-0.3-0.1
			s-0.1-0.1-0.2-0.2L48,49.4z M51.8,52.4c-0.5,0-0.9,0.1-1.2,0.1s-0.6,0.1-0.8,0.2s-0.3,0.2-0.4,0.3c-0.1,0.1-0.1,0.3-0.1,0.4
			c0,0.3,0.1,0.5,0.3,0.6c0.2,0.1,0.4,0.2,0.7,0.2c0.3,0,0.6-0.1,0.9-0.2c0.3-0.1,0.5-0.3,0.7-0.6V52.4z"/>
	</g>
	<g class="st2">
		<path d="M56.6,49.6c0.2-0.4,0.5-0.7,0.8-1c0.3-0.2,0.7-0.4,1.1-0.4c0.3,0,0.6,0.1,0.8,0.2l-0.1,1.3c0,0.1-0.1,0.1-0.1,0.2
			c0,0-0.1,0.1-0.2,0.1c-0.1,0-0.2,0-0.3,0c-0.1,0-0.3,0-0.4,0c-0.2,0-0.4,0-0.5,0.1c-0.1,0.1-0.3,0.1-0.4,0.2s-0.2,0.2-0.3,0.4
			s-0.2,0.3-0.2,0.5v4.3h-1.7v-7h1c0.2,0,0.3,0,0.4,0.1s0.1,0.2,0.1,0.3L56.6,49.6z"/>
	</g>
	<g class="st2">
		<path d="M63.1,48.3c0.5,0,1,0.1,1.4,0.3c0.4,0.2,0.8,0.4,1.1,0.7c0.3,0.3,0.5,0.7,0.7,1.1c0.2,0.4,0.2,0.9,0.2,1.5
			c0,0.6-0.1,1.1-0.2,1.5c-0.2,0.4-0.4,0.8-0.7,1.1c-0.3,0.3-0.7,0.6-1.1,0.7c-0.4,0.2-0.9,0.3-1.4,0.3c-0.5,0-1-0.1-1.4-0.3
			c-0.4-0.2-0.8-0.4-1.1-0.7c-0.3-0.3-0.5-0.7-0.7-1.1c-0.2-0.4-0.2-0.9-0.2-1.5c0-0.6,0.1-1,0.2-1.5c0.2-0.4,0.4-0.8,0.7-1.1
			c0.3-0.3,0.7-0.5,1.1-0.7C62.1,48.4,62.5,48.3,63.1,48.3z M63.1,54.2c0.6,0,1-0.2,1.3-0.6s0.4-1,0.4-1.7c0-0.8-0.1-1.3-0.4-1.7
			c-0.3-0.4-0.7-0.6-1.3-0.6c-0.6,0-1,0.2-1.3,0.6c-0.3,0.4-0.4,1-0.4,1.7s0.1,1.3,0.4,1.7C62,54,62.5,54.2,63.1,54.2z"/>
	</g>
	<circle class="st3" cx="197" cy="49.1" r="41.5"/>
	<g class="st2">
		<path class="st4" d="M175.3,55.6h-1.5c-0.2,0-0.4,0-0.6-0.1c-0.2-0.1-0.3-0.2-0.5-0.3l-1.4-1.6c-0.2,0.1-0.5,0.1-0.7,0.1
			c-0.2,0-0.5,0-0.8,0c-0.7,0-1.4-0.1-2-0.4s-1.1-0.6-1.6-1.1s-0.8-1-1-1.6c-0.2-0.6-0.4-1.3-0.4-2s0.1-1.4,0.4-2
			c0.2-0.6,0.6-1.2,1-1.6s1-0.8,1.6-1.1s1.3-0.4,2-0.4c0.5,0,1,0.1,1.4,0.2c0.4,0.1,0.8,0.3,1.2,0.5s0.7,0.5,1,0.8
			c0.3,0.3,0.5,0.6,0.7,1c0.2,0.4,0.4,0.8,0.5,1.2c0.1,0.4,0.2,0.9,0.2,1.4c0,0.4,0,0.9-0.1,1.3c-0.1,0.4-0.2,0.8-0.4,1.1
			c-0.2,0.4-0.4,0.7-0.6,1s-0.5,0.6-0.8,0.8L175.3,55.6z M166.7,48.8c0,0.5,0.1,1,0.2,1.5c0.1,0.4,0.4,0.8,0.6,1.1
			c0.3,0.3,0.6,0.5,1,0.7c0.4,0.2,0.8,0.2,1.3,0.2c0.5,0,0.9-0.1,1.3-0.2c0.4-0.2,0.7-0.4,1-0.7c0.3-0.3,0.5-0.7,0.6-1.1
			c0.1-0.4,0.2-0.9,0.2-1.5c0-0.5-0.1-1-0.2-1.5c-0.1-0.4-0.4-0.8-0.6-1.1c-0.3-0.3-0.6-0.5-1-0.7c-0.4-0.2-0.8-0.2-1.3-0.2
			c-0.5,0-0.9,0.1-1.3,0.2c-0.4,0.2-0.7,0.4-1,0.7c-0.3,0.3-0.5,0.7-0.6,1.1C166.8,47.7,166.7,48.2,166.7,48.8z"/>
	</g>
	<g class="st2">
		<path class="st4" d="M182.1,46.7v7h-1c-0.2,0-0.4-0.1-0.4-0.3l-0.1-0.6c-0.3,0.3-0.6,0.5-1,0.7c-0.3,0.2-0.8,0.3-1.2,0.3
			c-0.4,0-0.7-0.1-1-0.2c-0.3-0.1-0.5-0.3-0.7-0.6c-0.2-0.2-0.4-0.5-0.5-0.8c-0.1-0.3-0.2-0.7-0.2-1.1v-4.5h1.7v4.5
			c0,0.4,0.1,0.8,0.3,1c0.2,0.2,0.5,0.4,0.9,0.4c0.3,0,0.6-0.1,0.8-0.2c0.3-0.1,0.5-0.3,0.7-0.5v-5.1H182.1z"/>
		<path class="st4" d="M183.6,47.7c0.8-0.7,1.8-1.1,2.9-1.1c0.4,0,0.8,0.1,1.1,0.2c0.3,0.1,0.6,0.3,0.8,0.6s0.4,0.5,0.5,0.9
			c0.1,0.3,0.2,0.7,0.2,1.1v4.4h-0.8c-0.2,0-0.3,0-0.4-0.1c-0.1,0-0.2-0.1-0.2-0.3l-0.2-0.5c-0.2,0.2-0.4,0.3-0.5,0.4
			c-0.2,0.1-0.3,0.2-0.5,0.3c-0.2,0.1-0.4,0.1-0.6,0.2c-0.2,0-0.4,0.1-0.7,0.1c-0.3,0-0.6,0-0.8-0.1c-0.3-0.1-0.5-0.2-0.6-0.4
			c-0.2-0.2-0.3-0.4-0.4-0.6c-0.1-0.2-0.2-0.5-0.2-0.8c0-0.2,0-0.4,0.1-0.5s0.2-0.3,0.3-0.5c0.1-0.2,0.3-0.3,0.5-0.5
			c0.2-0.1,0.5-0.3,0.8-0.4c0.3-0.1,0.7-0.2,1.1-0.3c0.4-0.1,0.9-0.1,1.4-0.1v-0.4c0-0.5-0.1-0.8-0.3-1c-0.2-0.2-0.5-0.3-0.9-0.3
			c-0.3,0-0.5,0-0.7,0.1s-0.3,0.1-0.5,0.2c-0.1,0.1-0.3,0.2-0.4,0.2c-0.1,0.1-0.2,0.1-0.4,0.1c-0.1,0-0.2,0-0.3-0.1
			s-0.1-0.1-0.2-0.2L183.6,47.7z M187.5,50.7c-0.5,0-0.9,0.1-1.2,0.1c-0.3,0.1-0.6,0.1-0.8,0.2c-0.2,0.1-0.3,0.2-0.4,0.3
			c-0.1,0.1-0.1,0.3-0.1,0.4c0,0.3,0.1,0.5,0.3,0.6c0.2,0.1,0.4,0.2,0.7,0.2c0.3,0,0.6-0.1,0.9-0.2c0.3-0.1,0.5-0.3,0.7-0.6V50.7z"
			/>
		<path class="st4" d="M192.4,43.6v10.2h-1.7V43.6H192.4z"/>
	</g>
	<g class="st2">
		<path class="st4" d="M199.1,48.2c0,0.1-0.1,0.1-0.1,0.2c0,0-0.1,0.1-0.2,0.1c-0.1,0-0.2,0-0.3-0.1c-0.1-0.1-0.2-0.1-0.3-0.2
			c-0.1-0.1-0.2-0.1-0.4-0.2c-0.2-0.1-0.4-0.1-0.6-0.1c-0.3,0-0.6,0.1-0.8,0.2c-0.2,0.1-0.4,0.3-0.6,0.5c-0.1,0.2-0.3,0.4-0.3,0.7
			c-0.1,0.3-0.1,0.6-0.1,1c0,0.4,0,0.7,0.1,1c0.1,0.3,0.2,0.5,0.3,0.7s0.3,0.3,0.5,0.5c0.2,0.1,0.5,0.2,0.7,0.2s0.5,0,0.7-0.1
			c0.2-0.1,0.3-0.1,0.4-0.2c0.1-0.1,0.2-0.2,0.3-0.2c0.1-0.1,0.2-0.1,0.3-0.1c0.1,0,0.2,0.1,0.3,0.2l0.5,0.6
			c-0.2,0.2-0.4,0.4-0.6,0.6c-0.2,0.1-0.4,0.3-0.7,0.4c-0.2,0.1-0.5,0.2-0.7,0.2c-0.2,0-0.5,0.1-0.7,0.1c-0.4,0-0.8-0.1-1.2-0.2
			c-0.4-0.2-0.7-0.4-1-0.7s-0.5-0.7-0.7-1.1c-0.2-0.4-0.2-1-0.2-1.5c0-0.5,0.1-1,0.2-1.4c0.1-0.4,0.4-0.8,0.7-1.1s0.6-0.6,1.1-0.8
			s0.9-0.3,1.5-0.3c0.5,0,1,0.1,1.4,0.3c0.4,0.2,0.7,0.4,1.1,0.7L199.1,48.2z"/>
	</g>
	<g class="st2">
		<path class="st4" d="M203.7,46.6c0.5,0,1,0.1,1.4,0.3s0.8,0.4,1.1,0.7c0.3,0.3,0.5,0.7,0.7,1.1c0.2,0.4,0.2,0.9,0.2,1.5
			c0,0.6-0.1,1.1-0.2,1.5c-0.2,0.4-0.4,0.8-0.7,1.1c-0.3,0.3-0.7,0.6-1.1,0.7s-0.9,0.3-1.4,0.3c-0.5,0-1-0.1-1.4-0.3
			c-0.4-0.2-0.8-0.4-1.1-0.7c-0.3-0.3-0.5-0.7-0.7-1.1c-0.2-0.4-0.2-0.9-0.2-1.5c0-0.6,0.1-1,0.2-1.5c0.2-0.4,0.4-0.8,0.7-1.1
			c0.3-0.3,0.7-0.5,1.1-0.7C202.7,46.7,203.2,46.6,203.7,46.6z M203.7,52.5c0.6,0,1-0.2,1.3-0.6c0.3-0.4,0.4-1,0.4-1.7
			c0-0.8-0.1-1.3-0.4-1.7s-0.7-0.6-1.3-0.6c-0.6,0-1,0.2-1.3,0.6c-0.3,0.4-0.4,1-0.4,1.7c0,0.8,0.1,1.3,0.4,1.7
			C202.7,52.3,203.1,52.5,203.7,52.5z"/>
		<path class="st4" d="M208.4,53.7v-7h1c0.2,0,0.4,0.1,0.4,0.3l0.1,0.5c0.1-0.1,0.3-0.3,0.4-0.4c0.1-0.1,0.3-0.2,0.4-0.3
			c0.2-0.1,0.3-0.1,0.5-0.2c0.2,0,0.4-0.1,0.6-0.1c0.4,0,0.8,0.1,1.1,0.4s0.5,0.6,0.6,1c0.1-0.2,0.2-0.4,0.4-0.6
			c0.2-0.2,0.3-0.3,0.5-0.4c0.2-0.1,0.4-0.2,0.6-0.2c0.2,0,0.4-0.1,0.7-0.1c0.4,0,0.7,0.1,1,0.2s0.6,0.3,0.8,0.5s0.4,0.5,0.5,0.8
			c0.1,0.3,0.2,0.7,0.2,1.1v4.5h-1.7v-4.5c0-0.4-0.1-0.8-0.3-1s-0.5-0.3-0.9-0.3c-0.2,0-0.3,0-0.5,0.1c-0.1,0.1-0.3,0.1-0.4,0.3
			c-0.1,0.1-0.2,0.3-0.3,0.4c-0.1,0.2-0.1,0.4-0.1,0.6v4.5h-1.7v-4.5c0-0.5-0.1-0.8-0.3-1s-0.5-0.3-0.8-0.3c-0.2,0-0.5,0.1-0.7,0.2
			c-0.2,0.1-0.4,0.3-0.6,0.5v5.1H208.4z"/>
		<path class="st4" d="M219.9,53.7v-7h1c0.2,0,0.4,0.1,0.4,0.3l0.1,0.5c0.1-0.1,0.3-0.3,0.4-0.4c0.1-0.1,0.3-0.2,0.4-0.3
			c0.2-0.1,0.3-0.1,0.5-0.2c0.2,0,0.4-0.1,0.6-0.1c0.4,0,0.8,0.1,1.1,0.4s0.5,0.6,0.6,1c0.1-0.2,0.2-0.4,0.4-0.6
			c0.2-0.2,0.3-0.3,0.5-0.4c0.2-0.1,0.4-0.2,0.6-0.2c0.2,0,0.4-0.1,0.7-0.1c0.4,0,0.7,0.1,1,0.2s0.6,0.3,0.8,0.5s0.4,0.5,0.5,0.8
			c0.1,0.3,0.2,0.7,0.2,1.1v4.5h-1.7v-4.5c0-0.4-0.1-0.8-0.3-1s-0.5-0.3-0.9-0.3c-0.2,0-0.3,0-0.5,0.1c-0.1,0.1-0.3,0.1-0.4,0.3
			c-0.1,0.1-0.2,0.3-0.3,0.4c-0.1,0.2-0.1,0.4-0.1,0.6v4.5H224v-4.5c0-0.5-0.1-0.8-0.3-1s-0.5-0.3-0.8-0.3c-0.2,0-0.5,0.1-0.7,0.2
			c-0.2,0.1-0.4,0.3-0.6,0.5v5.1H219.9z"/>
	</g>
</g>
</svg>
