<?xml version="1.0" encoding="UTF-8"?>
<svg id="icons" xmlns="http://www.w3.org/2000/svg" viewBox="0 0 70 70">
  <defs>
    <style>
      .cls-1 {
        stroke: #c03;
        stroke-width: 6px;
      }

      .cls-1, .cls-2 {
        fill: none;
        stroke-miterlimit: 10;
      }

      .cls-2 {
        opacity: .1;
        stroke: #000;
        stroke-width: 5px;
      }

      .cls-3 {
        stroke-width: 0px;
      }
    </style>
  </defs>
  <g>
    <path class="cls-3" d="M33.44,37.61l-.03-.32c-.19.29-.41.55-.65.8-.69.67-1.57,1.14-2.56,1.33-.64.12-1.29.11-1.94-.03-1.3-.27-2.41-1.04-3.13-2.14-.73-1.11-.97-2.44-.7-3.74.42-1.97,1.97-3.48,3.94-3.84.3-.06.6-.09.91-.09.35,0,.68.04,1.03.11,1.05.23,1.97.77,2.65,1.55l-.1-1.43c-.68-.53-1.48-.89-2.35-1.07-.76-.17-1.55-.18-2.31-.04-2.37.45-4.23,2.25-4.73,4.61-.33,1.55-.03,3.14.84,4.46s2.19,2.24,3.74,2.57c.41.09.83.13,1.24.13.35,0,.72-.03,1.07-.1,1.31-.25,2.46-.9,3.32-1.84-.13-.29-.22-.6-.25-.92Z"/>
    <path class="cls-3" d="M36.37,43.16c-1.45-.81-1.76-1.05-1.83-1.09-.15-.15-.4-.19-.6-.07l-.31.2c-.76.48-1.55.97-2.33,1.12-.2.04-.36.19-.4.39v.05c-.02.09-.11.47-.57,2.1-.68.06-1.37.06-2.07,0-.5-1.76-.56-2.18-.57-2.26,0-.22-.15-.43-.37-.48-.95-.22-1.84-.58-2.66-1.09-.11-.07-.25-.09-.37-.06-.09.02-.17.06-.24.14-.05.05-.4.3-2.01,1.2-.52-.44-1.01-.93-1.46-1.47.9-1.6,1.15-1.94,1.2-2.01.06-.06.11-.15.14-.24.03-.13,0-.25-.06-.36-.51-.83-.88-1.72-1.1-2.66-.05-.23-.25-.37-.47-.37h0c-.07,0-.5-.07-2.27-.57-.06-.68-.06-1.37,0-2.08.94-.26,1.49-.41,1.83-.48.33-.07.43-.08.45-.08.09,0,.17-.03.25-.08.11-.06.19-.18.22-.31.22-.95.59-1.84,1.1-2.65.12-.2.09-.45-.07-.61-.05-.05-.31-.41-1.2-2.01.44-.53.93-1.02,1.47-1.46,1.6.9,1.94,1.15,2,1.2.06.06.15.12.24.14.13.03.26,0,.37-.06.83-.51,1.72-.88,2.66-1.1.23-.05.37-.25.37-.48,0-.07.07-.51.57-2.27.67-.06,1.37-.06,2.08,0,.49,1.76.55,2.19.56,2.27,0,.22.15.43.38.47.76.18,1.49.45,2.17.83.15-.28.35-.55.58-.79-.69-.39-1.44-.69-2.22-.9-.07-.37-.24-1.04-.59-2.29-.09-.35-.46-.54-.77-.56-.77-.07-1.55-.07-2.32,0-.28.02-.65.2-.78.56-.35,1.25-.52,1.92-.59,2.29-.82.22-1.61.55-2.34.97-.32-.22-.92-.58-2.07-1.22-.31-.15-.69-.02-.91.16-.6.49-1.15,1.05-1.64,1.64-.18.22-.31.6-.15.95.63,1.13.98,1.72,1.19,2.04-.42.72-.75,1.5-.96,2.35-.37.06-1.05.24-2.29.58-.35.1-.54.47-.56.78-.08.77-.08,1.55,0,2.32.04.31.23.68.57.78,1.25.35,1.91.52,2.28.59.23.82.55,1.61.97,2.34-.21.31-.56.9-1.19,2.03-.18.32-.05.72.15.95.49.6,1.05,1.15,1.64,1.64.24.2.64.33.95.15,1.13-.64,1.72-.98,2.04-1.2.74.43,1.52.75,2.34.97.07.37.24,1.04.59,2.28.1.35.47.54.77.56.39.04.78.06,1.17.06s.77-.02,1.15-.05c.3-.04.67-.23.77-.57.29-1.03.47-1.65.56-2.05.85-.23,1.64-.73,2.35-1.18l.03-.02c.32.22.91.57,2.03,1.19.08.05.16.07.25.08,0,0-.08-1.11-.08-1.11Z"/>
    <path class="cls-3" d="M43.71,52.01h-4.45c-.68,0-1.27-.56-1.32-1.25l-.8-10.79c-1.26-.28-2.59-1.26-2.69-2.42l-.61-8.25v-.19c0-1.89,1.51-3.47,3.36-3.52h8.57c1.87.05,3.38,1.63,3.38,3.54v.04l-.62,8.39c-.1,1.16-1.43,2.15-2.69,2.43l-.8,10.79c-.05.69-.65,1.25-1.32,1.25h-.02ZM45.75,26.55h-8.54c-1.32.04-2.4,1.18-2.4,2.56v.12l.61,8.23c.06.71,1.21,1.45,2.11,1.58h.11c.24.04.43.23.45.46l.83,11.17c.02.18.17.35.35.35h4.45c.17,0,.34-.16.35-.35l.83-11.17c.02-.24.2-.43.44-.45l.12-.02c.9-.14,2.04-.87,2.11-1.59l.61-8.36c0-1.37-1.09-2.51-2.42-2.54h.02ZM48.64,29.11h0Z"/>
    <path class="cls-3" d="M41.48,24.65c-1.77,0-3.22-1.45-3.22-3.22s1.45-3.22,3.22-3.22,3.22,1.45,3.22,3.22-1.45,3.22-3.22,3.22ZM41.48,19.2c-1.24,0-2.24,1.01-2.24,2.24s1.01,2.24,2.24,2.24,2.24-1.01,2.24-2.24-1.01-2.24-2.24-2.24Z"/>
    <path class="cls-3" d="M41.48,52.01c-.27,0-.49-.22-.49-.49v-12.76c0-.27.22-.49.49-.49s.49.22.49.49v12.76c0,.27-.22.49-.49.49Z"/>
    <path class="cls-3" d="M37.59,40.03c-.25,0-.46-.19-.48-.45l-.69-9.32c-.02-.26.18-.5.45-.52.25-.02.5.18.52.45l.69,9.32c.02.26-.18.5-.45.52h-.04Z"/>
    <path class="cls-3" d="M45.37,40.03h-.04c-.27-.02-.47-.25-.45-.52l.69-9.32c.02-.27.27-.46.52-.45.27.02.47.25.45.52l-.69,9.32c-.02.25-.24.45-.48.45Z"/>
  </g>
  <circle class="cls-2" cx="35" cy="35" r="30.42"/>
  <circle class="cls-1" cx="35" cy="35" r="25.16"/>
</svg>