<?xml version="1.0" encoding="UTF-8"?>
<svg id="Layer_1" data-name="Layer 1" xmlns="http://www.w3.org/2000/svg" viewBox="0 0 322.73 127.91">
  <defs>
    <style>
      .cls-1 {
        fill: #100f0d;
      }

      .cls-1, .cls-2 {
        stroke-width: 0px;
      }

      .cls-2 {
        fill: #bd372f;
      }
    </style>
  </defs>
  <path class="cls-2" d="M48.1,14.19c0,3.3,0,6.59-.01,9.89,0,.43.14.66.51.83.84.39,1.72.66,2.62.87.37.09.51.19.41.64-.56,2.4-1.08,4.82-1.59,7.23-.07.35-.21.45-.55.45-1.35-.02-2.7,0-4.04-.02-.37,0-.52.1-.61.46-.52,2.12-1.05,4.24-1.61,6.36-.1.37-.03.44.33.44,1.37-.02,2.74,0,4.1-.01.35,0,.43.07.35.43-.57,2.79-1.23,5.57-1.62,8.39-.29,2.15-.59,4.35.03,6.52.84,2.95,2.83,4.49,5.91,4.54,3.04.05,5.87-.79,8.59-2.07.22-.1.34-.26.41-.48.53-1.7,1.06-3.41,1.61-5.11.11-.35.04-.44-.33-.43-.9.02-1.81.01-2.72,0-1.22,0-1.55-.34-1.44-1.57.1-1.25.5-2.43.78-3.65.45-2.02.96-4.02,1.41-6.04.1-.44.28-.56.72-.55,1.31.03,2.62,0,3.92.02.38,0,.51-.11.6-.48.51-2.09,1.04-4.17,1.59-6.24.11-.42.07-.56-.4-.55-1.31.03-2.62,0-3.92.02-.41,0-.51-.11-.44-.51.41-2.29.81-4.58,1.2-6.88.05-.3.2-.34.45-.34,3.68.07,7.36.19,10.98.96,1.34.29,1.33.3,1.34,1.67,0,2.09,0,4.18.05,6.27.04,1.32.36,2.58,1.01,3.75.53.95,1.23,1.74,2.25,2.19.22.1.34.21.34.48-.05,2.97.13,5.95-.23,8.91-.12,1-.31,1.98-.55,2.96-.09.35-.26.47-.59.57-4.69,1.31-8.93,3.48-12.59,6.72-1.61,1.42-2.96,3.07-3.93,4.99-1.73,3.42-1.48,6.87,0,10.29.2.46.09.55-.31.69-3.97,1.42-7.49.47-10.74-2-2.56-1.94-4.36-4.47-5.81-7.29-1.32-2.55-2.41-5.21-3.71-7.76-.56-1.09-1.15-2.16-1.93-3.12-1.79-2.19-4.35-2.36-6.41-.4-.52.5-.98,1.07-1.49,1.58-1.37,1.38-3.04,1.53-4.63.4-1.21-.86-2.01-2.07-2.71-3.34-.6-1.09-1.14-2.22-1.49-3.41-.39-1.32-1.16-2.37-2.12-3.31-1.15-1.12-2.36-2.18-3.51-3.31-1.54-1.5-2.52-3.31-2.84-5.46-.12-.82-.13-.82.66-.82,5.27,0,10.54,0,15.81.01.53,0,.66-.13.66-.66-.02-7.78-.01-15.56-.01-23.33,0-.14-.01-.28-.02-.42h16.3Z"/>
  <path class="cls-1" d="M160.89,67.13c-.41.57-.78,1.09-1.15,1.61-1.08,1.5-2.16,3-3.23,4.5-.2.28-.39.56-.53.87-.44.96-.11,1.73.91,2,.51.13.35.45.35.73,0,.39-.32.22-.5.22-3.14.01-6.28.01-9.42,0-.18,0-.5.15-.47-.25.02-.27-.16-.61.3-.73,2.13-.53,3.56-1.89,4.81-3.66,2.02-2.87,4.2-5.64,6.34-8.43.28-.37.28-.6,0-.96-2.38-3.03-4.74-6.08-7.1-9.14-.37-.48-.68-.99-1.03-1.49-.7-1-1.67-1.63-2.85-1.88-.54-.11-.48-.43-.46-.79.02-.43.37-.22.55-.23,3.86-.01,7.73-.01,11.59,0,.19,0,.52-.19.54.24.02.34.06.61-.44.71-.89.19-1.3.95-1.08,1.84.08.33.22.64.41.93,1.22,1.84,2.44,3.68,3.65,5.52.04.06.1.12.17.19,1.51-1.93,3.01-3.84,4.5-5.76.26-.33.44-.72.55-1.13.26-.91-.05-1.48-.97-1.62-.43-.06-.5-.22-.49-.61.01-.46.33-.32.55-.32,3.14,0,6.28,0,9.42,0,.19,0,.53-.16.5.28-.02.31.08.61-.4.71-1.68.35-3.12,1.14-4.32,2.37-.18.19-.35.39-.5.6-1.95,2.75-3.89,5.51-5.83,8.27-.15.22-.34.39-.1.72,2.88,3.99,5.73,8,8.61,11.99.74,1.03.85,1.01,1.67-.02.86-1.07,1.45-2.3,1.98-3.57,2.86-6.92,5.73-13.85,8.58-20.78.17-.42.36-.61.86-.6,1.45.05,2.9.03,4.34,0,.35,0,.53.09.67.42,3.27,7.73,6.56,15.45,9.84,23.18.56,1.31,1.45,2.32,2.74,2.92.46.22.36.53.34.83-.03.41-.38.2-.57.2-3.52.02-7.04.02-10.56,0-.2,0-.57.23-.58-.26-.01-.34-.05-.6.46-.68,1.13-.17,1.61-.91,1.26-2.01-.48-1.51-1.07-2.97-1.61-4.46-.08-.23-.23-.28-.46-.28-3.54,0-7.08,0-10.62,0-.29,0-.42.11-.52.38-.47,1.3-.99,2.58-1.46,3.88-.48,1.32-.08,2.12,1.29,2.5.48.13.28.44.31.7.04.34-.25.24-.42.24-5.59,0-11.19,0-16.78,0-.2,0-.48.1-.45-.28.02-.28-.12-.61.37-.65.34-.03.66-.18.94-.37.65-.43.86-1.05.59-1.78-.08-.21-.17-.42-.3-.59-1.58-2.07-3.17-4.14-4.79-6.26ZM187.6,54.91c-1.49,3.58-2.92,7.03-4.37,10.48-.17.41.02.41.33.41,2.39,0,4.78,0,7.17,0,.29,0,.58,0,.95,0-1.37-3.65-2.71-7.22-4.08-10.89Z"/>
  <path class="cls-1" d="M183.52,103.72c.22-.39.43-.73.62-1.07,3.04-5.49,6.08-10.99,9.1-16.49.19-.35.4-.51.83-.5,2.19.03,4.39,0,6.58.02.19,0,.54-.19.53.25,0,.29.13.6-.34.77-1.76.63-2.32,1.45-2.32,3.35-.01,6.27-.01,12.54,0,18.81,0,1.9.55,2.69,2.32,3.36.47.18.33.48.34.77.01.44-.35.24-.53.24-3.4.01-6.8.01-10.2,0-.19,0-.54.18-.55-.24,0-.29-.12-.59.34-.77,1.8-.69,2.33-1.5,2.34-3.54.02-3.44,0-6.87,0-10.31,0-.84,0-1.68,0-2.58-.25.13-.31.36-.4.54-3.1,5.62-6.19,11.24-9.28,16.87-.17.31-.32.53-.76.53-.43,0-.54-.25-.69-.53-3.08-5.74-6.17-11.48-9.25-17.22-.1-.19-.2-.37-.32-.58-.18.2-.11.38-.11.55,0,4.16,0,8.32,0,12.48,0,.26.02.52.02.78.04,1.52.75,2.55,2.22,3.01.26.08.46.15.46.51,0,.42-.1.54-.53.54-2.54-.02-5.07,0-7.61-.02-.17,0-.47.13-.48-.18-.01-.28-.19-.65.25-.83,1.52-.61,2.02-1.84,2.01-3.37,0-6.27,0-12.54,0-18.81,0-1.53-.51-2.75-2.03-3.36-.4-.16-.24-.51-.24-.78,0-.32.29-.21.46-.21,2.58,0,5.15,0,7.73-.02.43,0,.54.24.68.53,2.82,5.63,5.64,11.26,8.45,16.89.1.2.2.39.33.65Z"/>
  <path class="cls-1" d="M125.76,99.65c.08.09.11.15.15.16,2.47,1.04,4.22,2.89,5.62,5.1.95,1.49,1.84,3.01,2.77,4.51.39.63.87,1.2,1.45,1.69.49.41,1.04.67,1.68.77.14.02.34-.09.38.17.04.25-.11.34-.3.44-.71.35-1.46.58-2.24.65-2.29.23-4.5.05-6.45-1.35-1.32-.95-2.23-2.24-2.96-3.67-.58-1.12-1.11-2.27-1.67-3.4-.35-.7-.74-1.38-1.22-2-.82-1.04-1.87-1.63-3.2-1.66-.95-.02-1.89,0-2.84-.02-.32,0-.41.1-.41.41.02,2.69,0,5.39.04,8.08.02,1.3.56,2.3,1.9,2.68.48.14.34.47.34.76,0,.38-.31.24-.49.24-3.3,0-6.6,0-9.9,0-.18,0-.5.15-.51-.22,0-.28-.17-.64.32-.78,1.41-.42,1.93-1.49,1.94-2.85.03-2.99.02-5.99.03-8.98,0-3.32,0-6.63,0-9.95,0-.54,0-1.08-.09-1.62-.17-1.05-.73-1.79-1.74-2.1-.5-.15-.49-.46-.44-.82.06-.43.41-.23.63-.23,5.05,0,10.1,0,15.15.02,1.88,0,3.72.35,5.45,1.11,4.25,1.87,4.71,5.73,3.73,8.5-.71,2.02-2.35,3.02-4.26,3.67-.91.31-1.84.48-2.84.66ZM116.54,93.95s-.01,0-.02,0c0,1.17,0,2.33,0,3.5,0,.31.04.46.42.46,1.25-.03,2.5.03,3.74-.03,1.58-.07,3.11-.39,4.45-1.31,1.3-.89,1.97-2.1,1.74-3.7-.3-2.09-1.83-3.57-4.01-3.89-1.52-.23-3.05-.09-4.58-.11-1.22-.01-1.69.43-1.72,1.65-.03,1.14,0,2.29,0,3.44Z"/>
  <path class="cls-1" d="M236.07,93.82c0,.3,0,.45,0,.61,0,4.72,0,9.45,0,14.17,0,.36.02.72.06,1.08.15,1.14.73,1.98,1.79,2.46.23.11.44.19.45.55.01.45-.1.57-.56.56-2.51-.02-5.03,0-7.55-.02-.18,0-.5.16-.51-.21,0-.31-.13-.63.36-.81,1.77-.64,2.33-1.45,2.34-3.35.02-6.33,0-12.66,0-19,0-.1,0-.2,0-.3-.07-1.67-.61-2.41-2.22-2.86-.49-.14-.52-.41-.48-.78.05-.45.41-.23.61-.24,2.31-.02,4.63,0,6.94-.02.45,0,.74.14,1.03.46,4.23,4.66,8.46,9.32,12.7,13.97.25.28.51.55.77.83.19-.14.11-.32.11-.46,0-3.36,0-6.71,0-10.07,0-.22-.01-.44-.02-.66-.04-1.52-.74-2.55-2.21-3.01-.24-.07-.5-.08-.5-.47,0-.41.04-.59.54-.59,2.53.03,5.07.01,7.61.02.18,0,.5-.15.51.22,0,.29.16.62-.29.81-1.36.54-1.92,1.63-1.96,3.03-.01.34-.02.68-.02,1.02,0,7.22,0,14.43,0,21.65,0,.27.19.68-.16.79-.37.12-.74.04-1.08-.31-3.22-3.4-6.47-6.78-9.71-10.16-2.81-2.93-5.62-5.87-8.54-8.91Z"/>
  <path class="cls-1" d="M50.84,101.07v-.69c0-3.26,0-6.51,0-9.77,0-.52-.04-1.04-.08-1.56-.1-1.14-.62-2-1.75-2.34-.49-.14-.43-.45-.41-.78.03-.46.39-.25.6-.25,2.45-.02,4.91-.02,7.36,0,.2,0,.57-.22.59.25.01.32.08.62-.4.78-1.74.6-2.27,1.46-2.27,3.57,0,7.4,0,14.79-.01,22.19,0,.25.2.63-.16.74-.37.11-.74.05-1.08-.31-5.91-6.2-11.84-12.37-17.77-18.56-.14-.14-.23-.32-.36-.5-.22.27-.15.46-.15.63,0,4.66,0,9.33,0,13.99,0,.36.03.72.06,1.08.11,1.22.69,2.13,1.84,2.61.51.21.38.59.37.95,0,.22-.21.14-.33.14-2.47,0-4.95,0-7.42,0-.17,0-.41.06-.38-.23.03-.25-.17-.62.21-.73,1.72-.51,2-1.86,2-3.37,0-6.31,0-12.62,0-18.93,0-.36-.05-.72-.09-1.08-.12-1.08-.66-1.86-1.72-2.17-.48-.15-.43-.46-.41-.79.03-.45.4-.24.6-.24,2.19-.02,4.39,0,6.58-.02.37,0,.62.1.88.38,4.27,4.7,8.55,9.4,12.83,14.09.24.27.48.53.85.93Z"/>
  <path class="cls-1" d="M128.73,47.17c-.56.11-.93,0-1.3-.4-.96-1.01-2.23-1.4-3.57-1.57-2.46-.31-4.94-.27-7.41-.22-1.08.02-1.28.27-1.28,1.43-.01,3.11,0,6.23,0,9.34,0,5.45,0,10.89,0,16.34,0,.52.01,1.05.06,1.57.11,1.13.6,2.01,1.75,2.35.52.15.44.5.41.84-.03.42-.39.2-.57.2-3.54.02-7.08.02-10.62,0-.18,0-.5.18-.52-.2,0-.3-.16-.63.34-.82,1.75-.65,2.31-1.48,2.31-3.37,0-8.76,0-17.52,0-26.28,0-.92-.27-1.26-1.18-1.34-1.83-.17-3.66-.08-5.48-.03-.88.03-1.77.08-2.64.24-1.36.24-2.57.77-3.58,1.72-.16.16-.36.34-.57.19-.19-.14.02-.33.07-.49.64-1.79,1.29-3.58,1.93-5.37.11-.3.25-.43.6-.43,9.51.01,19.03,0,28.54,0,.23,0,.43-.01.53.27.71,2,1.44,3.99,2.17,6.02Z"/>
  <path class="cls-1" d="M215.7,113.23c-3.56,0-7.12,0-10.68,0-.22,0-.58.2-.64-.2-.05-.34-.08-.67.4-.86,1.18-.44,1.69-1.42,1.83-2.61.04-.32.04-.64.04-.96,0-6.11,0-12.22,0-18.33,0-.48-.04-.96-.1-1.44-.14-1.05-.72-1.8-1.74-2.09-.51-.15-.48-.47-.43-.82.06-.42.42-.22.63-.22,6.7-.01,13.4,0,20.1-.02.44,0,.61.12.74.55.48,1.65,1.01,3.3,1.56,4.93.13.38,0,.58-.27.75-.29.19-.36-.16-.48-.29-1.35-1.5-3.08-2.18-5.03-2.24-2.39-.08-4.79-.05-7.18-.03-1,0-1.42.46-1.44,1.46-.03,1.93,0,3.86-.02,5.79,0,.29.05.43.39.43,2.45-.04,4.91.06,7.36-.06.61-.03,1.19-.17,1.73-.47.38-.21.74-.47.82-.91.1-.55.48-.43.81-.41.4.03.23.37.23.56.01,2.07,0,4.14,0,6.21,0,.23.08.53-.32.48-.25-.03-.61.19-.67-.33-.09-.81-.7-1.12-1.4-1.28-.77-.18-1.56-.16-2.34-.16-2.03-.01-4.06,0-6.1-.01-.36,0-.53.04-.52.47.03,2.25.01,4.5.01,6.75,0,.22,0,.44.04.66.1.66.44.99,1.1,1.09.24.04.48.07.72.07,2.74-.02,5.47.06,8.21-.05,2.08-.08,3.91-.69,5.18-2.47.28-.39.48,0,.71.06.23.06.36.19.24.48-.7,1.75-1.39,3.5-2.05,5.26-.13.35-.38.29-.63.29-3.6,0-7.2,0-10.8,0Z"/>
  <path class="cls-1" d="M133.53,77.06c-3.68,0-7.36,0-11.05,0-.19,0-.53.18-.55-.25-.01-.33-.08-.63.42-.76,1.69-.45,2.27-1.17,2.28-2.92.02-6.55.02-13.1,0-19.66,0-1.79-.57-2.49-2.3-2.96-.47-.13-.39-.41-.4-.72,0-.43.31-.28.52-.28,6.76,0,13.52,0,20.28-.01.39,0,.56.12.69.47.62,1.65,1.27,3.29,1.91,4.93.08.2.3.44-.08.59-.3.11-.55.46-.92.01-1.31-1.6-3.08-2.28-5.09-2.33-2.31-.05-4.63-.04-6.94-.02-1.34.01-1.75.47-1.76,1.81,0,1.77,0,3.54-.01,5.31,0,.38.08.51.49.5,2.49-.02,4.99-.01,7.48-.02.52,0,1.04-.07,1.55-.21.64-.17,1.06-.59,1.23-1.21.14-.5.5-.37.82-.36.36.02.22.33.22.52,0,2.09,0,4.18,0,6.27,0,.2.09.49-.27.47-.28-.01-.61.13-.74-.3-.29-1.02-1.06-1.39-2.04-1.46-2.79-.19-5.59-.04-8.38-.09-.26,0-.35.08-.35.34.01,2.51,0,5.02.03,7.54,0,.75.34,1.13,1.06,1.13,3.4.01,6.8.17,10.19-.08,1.7-.13,3.09-.94,4.25-2.16.12-.13.19-.45.49-.24.24.17.29.36.2.66-.54,1.68-1.06,3.36-1.54,5.06-.12.44-.36.44-.7.43-3.66,0-7.32,0-10.98,0Z"/>
  <path class="cls-1" d="M304.47,85.2c.59,2.23,1.14,4.35,1.71,6.48.1.37-.1.37-.34.31-.1-.03-.19-.14-.28-.22-3.32-2.84-7.16-3.41-11.31-2.56-.63.13-1.21.43-1.68.89-1.14,1.1-1.04,2.77.24,3.7.91.66,1.97.99,3.02,1.31,2.4.73,4.86,1.25,7.16,2.28.79.35,1.54.77,2.26,1.25,4.11,2.75,3.96,8.26,1.89,10.87-1.42,1.79-3.36,2.7-5.52,3.2-3.37.77-6.75.61-10.13.07-.69-.11-1.38-.26-2.07-.39-.33-.06-.61-.09-.78.33-.13.3-.47.47-.8.47-.34,0-.3-.38-.39-.59-.9-2.16-1.79-4.33-2.67-6.51-.09-.23-.36-.49.09-.68.34-.15.55-.39.95.05,3.56,3.9,8,5.27,13.15,4.36,1.48-.26,2.75-.96,3.17-2.59.32-1.25-.04-2.3-1.05-3.12-.97-.79-2.14-1.17-3.32-1.52-2.17-.65-4.41-1.07-6.52-1.93-1.41-.58-2.71-1.31-3.72-2.48-2-2.3-2.74-7.19,1.14-10.26,2.81-2.23,6.07-2.91,9.58-2.64,1.65.13,3.24.59,4.86.84.13.02.33.17.36,0,.08-.61.7-.5,1-.91Z"/>
  <path class="cls-1" d="M77.99,85.21c.62,2.31,1.22,4.53,1.82,6.75-.6.16-1.01.01-1.44-.4-1.88-1.83-4.23-2.56-6.79-2.68-1.47-.07-2.93,0-4.35.46-.66.21-1.27.51-1.74,1.03-.93,1.01-.82,2.49.27,3.33.97.76,2.13,1.09,3.29,1.44,2.36.71,4.79,1.21,7.07,2.16,1.44.6,2.76,1.37,3.9,2.46,2.88,2.76,3.29,9.41-2.12,12.02-1.99.96-4.11,1.34-6.3,1.44-2.81.13-5.59-.14-8.32-.75-.69-.16-1.16.08-1.63.46-.62.49-.83.44-1.09-.29-.76-2.17-1.52-4.35-2.29-6.52-.12-.33-.17-.55.24-.76.36-.18.54-.22.84.12,3.52,4.06,8.03,5.22,13.18,4.35.82-.14,1.57-.49,2.2-1.05,1.45-1.29,1.39-3.49-.14-4.68-1.22-.95-2.68-1.33-4.13-1.74-2.16-.61-4.37-1.05-6.42-2.02-2.13-1.01-3.76-2.46-4.35-4.84-.78-3.18.23-5.95,2.9-7.89,2.75-1.99,5.87-2.59,9.2-2.33,1.53.12,3.01.5,4.49.87.37.09.65.13.81-.33.13-.39.58-.37.91-.61Z"/>
  <path class="cls-1" d="M216.56,49.51c1.79.02,3.42.08,5.01.49.15.04.32.07.46.14.56.32,1.02.39,1.2-.41.05-.21.24-.22.44-.23.21,0,.27.13.33.29.68,1.91,1.35,3.82,2.03,5.72.09.25,0,.39-.22.45-.24.06-.43.44-.73.1-2.37-2.72-5.52-3.41-8.93-3.36-1.03.02-2.04.18-3,.59-1.03.44-1.83,1.09-1.93,2.31-.1,1.27.66,2.01,1.66,2.56,1.37.75,2.88,1.1,4.36,1.51,2.3.64,4.6,1.25,6.72,2.42,5.14,2.83,4.8,9.05,2.15,11.94-1.64,1.78-3.72,2.69-6.04,3.12-3.67.69-7.28.45-10.8-.84-.55-.2-.97-.07-1.16.48-.15.43-.5.5-.81.63-.28.12-.25-.19-.31-.35-.76-2.26-1.52-4.52-2.28-6.78-.04-.13-.09-.27-.13-.4-.08-.25-.29-.52.13-.68.31-.12.54-.36.91.06,3.48,3.97,7.93,5.14,13.02,4.39.72-.11,1.4-.37,2.01-.77,1.77-1.17,1.91-3.58.27-4.93-.98-.81-2.17-1.19-3.37-1.54-2.15-.64-4.37-1.06-6.45-1.92-2-.82-3.8-1.92-4.68-4-1.46-3.46-.83-7.56,3.76-9.73,2.08-.98,4.29-1.31,6.41-1.25Z"/>
  <path class="cls-1" d="M137.8,97.28c0-2.35,0-4.7,0-7.05,0-.61-.06-1.2-.25-1.78-.34-1.05-1.02-1.74-2.13-1.85-.47-.05-.35-.31-.37-.57-.03-.33.17-.34.41-.34,3.52,0,7.04,0,10.56,0,.22,0,.43,0,.37.3-.05.21.21.55-.26.6-1.54.15-2.25,1.4-2.41,2.8-.02.2-.03.4-.03.6,0,4.76-.03,9.53.02,14.29.04,3.24,1.94,5.27,5.16,5.7,1.71.23,3.41.24,5.08-.26,2.62-.79,4.18-2.71,4.22-5.44.06-4.82.03-9.65.01-14.47,0-1.52-.73-2.59-2.23-3.07-.23-.07-.51-.07-.51-.46,0-.41.04-.6.54-.6,2.53.03,5.07.01,7.6.02.19,0,.5-.13.49.25,0,.27.14.62-.29.74-1.46.42-1.96,1.51-1.96,2.89-.02,4.64-.02,9.28-.03,13.93,0,2.52-.55,4.86-2.33,6.77-1.52,1.63-3.45,2.53-5.59,2.99-3.65.79-7.24.58-10.7-.88-3.5-1.48-5.3-4.17-5.36-7.98-.04-2.37,0-4.74,0-7.11h0Z"/>
  <path class="cls-1" d="M16.84,94.87c0-4.46,0-8.92,0-13.38,0-.46-.01-.92-.08-1.38-.16-1.18-.82-1.98-1.95-2.37-.17-.06-.33-.13-.5-.19-.15-.05-.13-.18-.14-.3,0-.16.1-.2.23-.19.12,0,.24,0,.36,0,3.52,0,7.04,0,10.56,0,.19,0,.47-.16.56.16.1.33-.2.4-.4.5-1.19.55-1.7,1.53-1.78,2.79-.02.32-.03.64-.03.96,0,8.96,0,17.92,0,26.88,0,.36,0,.72.03,1.08.1,1.2.61,2.14,1.74,2.69.2.1.44.14.46.48.02.46-.04.65-.59.65-3.54-.03-7.08-.01-10.62-.02-.18,0-.54.19-.53-.25.01-.29-.12-.59.34-.76,1.76-.65,2.31-1.46,2.31-3.36.01-4.66,0-9.32,0-13.98h0Z"/>
  <path class="cls-1" d="M94.34,85.67c3.56,0,7.12.01,10.68-.01.52,0,.72.17.88.64.58,1.75,1.21,3.48,1.82,5.22.1.28.25.53-.19.72-.38.16-.59.21-.87-.18-.83-1.18-1.79-2.24-3.31-2.53-1.65-.31-3.33-.22-4.99-.17-.43.01-.7.3-.77.72-.06.42-.1.84-.1,1.26,0,5.75,0,11.5,0,17.24,0,.36.04.72.06,1.08.07,1.41.81,2.29,2.18,2.57.51.1.45.4.44.74-.01.47-.38.27-.58.27-3.38.01-6.76.01-10.14,0-.18,0-.53.21-.55-.22-.02-.34-.1-.66.45-.8,1.2-.31,1.63-.9,1.72-2.16.03-.48.05-.96.05-1.45,0-5.95,0-11.9,0-17.85,0-1.44-.02-1.46-1.44-1.45-.86,0-1.73.01-2.59.03-1.59.04-2.99.55-4.12,1.71-.34.34-.66.71-1,1.04-.12.12-.17.43-.43.27-.25-.15-.36-.35-.25-.7.54-1.83,1.06-3.66,1.55-5.5.1-.39.27-.5.65-.5,3.62.01,7.24,0,10.86,0Z"/>
  <path class="cls-1" d="M271.4,85.67c3.6,0,7.2,0,10.8-.01.41,0,.59.11.73.5.61,1.78,1.27,3.55,1.9,5.32.09.26.31.52-.14.74-.41.2-.67.24-.91-.21-.14-.26-.37-.48-.55-.71-.96-1.23-2.23-1.88-3.79-1.94-1.25-.05-2.49-.05-3.74-.03-.72,0-.97.25-1.07.96-.05.34-.04.68-.04,1.02,0,5.77,0,11.54,0,17.3,0,.24,0,.48.01.72.07,1.7.62,2.45,2.27,2.88.48.13.47.38.46.74-.01.47-.37.28-.58.28-3.4.01-6.8.01-10.2,0-.19,0-.54.2-.56-.22-.01-.31-.13-.66.38-.8,1.22-.35,1.75-1.26,1.84-2.47,0-.1.02-.2.02-.3.08-6.27.07-12.54,0-18.81-.01-1.15-.25-1.32-1.38-1.32-.97,0-1.93.01-2.9.03-1.59.03-2.94.58-4,1.79-.3.35-.61.7-.93,1.03-.1.11-.17.37-.4.19-.18-.14-.4-.26-.3-.58.57-1.92,1.13-3.85,1.67-5.77.1-.36.35-.32.61-.32,3.6,0,7.2,0,10.8,0Z"/>
  <path class="cls-2" d="M52.18,52.67c-.88,0-1.77-.01-2.65,0-.34,0-.49,0-.39-.45,1.61-7.55,3.2-15.11,4.78-22.66.07-.33.2-.45.56-.45,1.79.02,3.58.02,5.37,0,.45,0,.47.13.39.52-1.6,7.51-3.19,15.03-4.76,22.55-.09.42-.26.5-.64.49-.88-.02-1.77,0-2.65,0Z"/>
  <path class="cls-2" d="M58.54,27.33c-1.94,0-3.63-1.5-3.63-3.22,0-2.03,1.62-3.62,3.66-3.6,2.02.02,3.62,1.62,3.62,3.6,0,1.7-1.72,3.22-3.64,3.22Z"/>
</svg>