<?xml version="1.0" encoding="UTF-8"?>
<svg id="Layer_1" data-name="Layer 1" xmlns="http://www.w3.org/2000/svg" xmlns:xlink="http://www.w3.org/1999/xlink" viewBox="0 0 400 250">
  <defs>
    <style>
      .cls-1 {
        clip-path: url(#clippath);
      }

      .cls-2 {
        fill: none;
      }

      .cls-2, .cls-3, .cls-4, .cls-5, .cls-6 {
        stroke-width: 0px;
      }

      .cls-4 {
        fill: #0cb2dd;
      }

      .cls-5 {
        fill: #fff;
      }

      .cls-6 {
        fill: #009641;
      }
    </style>
    <clipPath id="clippath">
      <rect class="cls-2" x="145.76" y="35.29" width="55.58" height="108.99"/>
    </clipPath>
  </defs>
  <g>
    <path class="cls-3" d="M43.9,209.02l-10.48.06.16,28.51-7.05.04-.16-28.51-10.34.06-.03-5.71,27.88-.16.03,5.71Z"/>
    <path class="cls-3" d="M60.29,218.38c-.93-.12-1.74-.18-2.45-.17-2.57.01-4.25.89-5.04,2.64l.09,16.64-6.79.04-.14-25.43,6.42-.04.21,3.03c1.35-2.34,3.23-3.52,5.64-3.54.75,0,1.46.09,2.12.29l-.06,6.54Z"/>
    <path class="cls-3" d="M78.89,234.75c-1.67,2.05-3.98,3.08-6.94,3.1-2.73.02-4.81-.76-6.25-2.32-1.44-1.56-2.19-3.85-2.24-6.87l-.1-16.67,6.79-.04.09,16.45c.01,2.65,1.23,3.97,3.64,3.96,2.3-.01,3.88-.82,4.73-2.43l-.1-18.03,6.82-.04.14,25.43-6.39.04-.2-2.58Z"/>
    <path class="cls-3" d="M104.34,230.16c0-.83-.42-1.48-1.25-1.96-.83-.47-2.15-.89-3.97-1.26-6.06-1.24-9.1-3.79-9.12-7.66-.01-2.26.91-4.15,2.78-5.67,1.86-1.52,4.31-2.29,7.33-2.31,3.23-.02,5.82.73,7.76,2.24,1.94,1.51,2.92,3.48,2.94,5.91l-6.79.04c0-.97-.32-1.77-.95-2.4-.63-.63-1.61-.94-2.94-.94-1.14,0-2.03.27-2.65.79-.62.52-.93,1.18-.93,1.98,0,.75.36,1.36,1.08,1.82.72.46,1.92.85,3.62,1.18,1.69.33,3.12.7,4.28,1.12,3.6,1.3,5.4,3.57,5.42,6.81.01,2.32-.97,4.2-2.95,5.65-1.98,1.45-4.55,2.18-7.7,2.2-2.13.01-4.03-.36-5.68-1.11-1.66-.75-2.96-1.78-3.91-3.1-.95-1.32-1.43-2.75-1.43-4.28l6.44-.04c.07,1.21.52,2.13,1.36,2.77s1.95.95,3.34.94c1.3,0,2.28-.26,2.95-.76.66-.5.99-1.15.99-1.95Z"/>
    <path class="cls-3" d="M123.31,205.4l.04,6.25,4.35-.03.03,4.98-4.35.03.07,12.69c0,.94.19,1.61.55,2.02.36.41,1.05.61,2.07.6.75,0,1.42-.06,2-.18l.03,5.15c-1.33.41-2.7.63-4.11.63-4.76.03-7.21-2.36-7.33-7.17l-.08-13.7-3.71.02-.03-4.98,3.71-.02-.04-6.25,6.79-.04Z"/>
    <path class="cls-3" d="M143.34,237.44c-3.73.02-6.77-1.1-9.13-3.38-2.36-2.27-3.54-5.32-3.57-9.12v-.66c-.02-2.55.46-4.84,1.44-6.86.98-2.02,2.37-3.58,4.17-4.68,1.8-1.1,3.87-1.66,6.18-1.67,3.48-.02,6.22,1.06,8.24,3.24,2.01,2.18,3.03,5.29,3.05,9.32l.02,2.77-16.2.09c.23,1.66.9,2.99,2.01,3.99,1.11,1,2.51,1.49,4.2,1.48,2.62-.02,4.66-.97,6.12-2.88l3.36,3.72c-1.01,1.45-2.38,2.58-4.12,3.4-1.74.82-3.66,1.23-5.78,1.24ZM142.44,216.55c-1.35,0-2.44.47-3.27,1.39-.83.92-1.36,2.23-1.59,3.93l9.45-.05v-.54c-.04-1.51-.46-2.68-1.24-3.5-.79-.82-1.9-1.23-3.35-1.22Z"/>
    <path class="cls-3" d="M156.52,223.99c-.02-3.96.85-7.13,2.61-9.49,1.76-2.36,4.19-3.55,7.28-3.57,2.48-.01,4.53.9,6.15,2.74l-.07-12.98,6.82-.04.21,36.11-6.14.04-.34-2.7c-1.68,2.13-3.85,3.2-6.52,3.21-2.99.02-5.4-1.15-7.23-3.5-1.82-2.35-2.75-5.62-2.77-9.82ZM163.32,224.46c.01,2.39.44,4.21,1.28,5.48.84,1.27,2.05,1.9,3.63,1.89,2.1-.01,3.58-.91,4.43-2.69l-.06-10.05c-.86-1.77-2.33-2.65-4.41-2.64-3.28.02-4.9,2.69-4.87,8.01Z"/>
    <path class="cls-3" d="M205.74,222.63l-13.54.08.08,13.99-7.05.04-.2-34.23,22.28-.13.03,5.71-15.23.09.05,8.84,13.54-.08.03,5.69Z"/>
    <path class="cls-3" d="M210.92,204.57c0-1.02.33-1.86,1.01-2.52.68-.66,1.6-1,2.78-1,1.16,0,2.09.32,2.78.97.69.65,1.04,1.49,1.05,2.51,0,1.03-.34,1.88-1.03,2.54-.69.66-1.61,1-2.76,1-1.14,0-2.07-.32-2.77-.97-.7-.65-1.05-1.5-1.06-2.53ZM218.32,236.54l-6.82.04-.14-25.43,6.82-.04.14,25.43Z"/>
    <path class="cls-3" d="M238.1,217.37c-.93-.12-1.74-.18-2.45-.17-2.57.01-4.25.89-5.04,2.64l.09,16.64-6.79.04-.14-25.43,6.42-.04.21,3.03c1.35-2.34,3.23-3.52,5.64-3.54.75,0,1.46.09,2.12.29l-.06,6.54Z"/>
    <path class="cls-3" d="M247.7,210.94l.23,2.84c1.79-2.22,4.22-3.34,7.29-3.36,3.27-.02,5.53,1.26,6.77,3.84,1.77-2.6,4.31-3.9,7.62-3.92,2.76-.02,4.82.78,6.17,2.37,1.36,1.6,2.04,4.01,2.06,7.24l.09,16.24-6.82.04-.09-16.22c0-1.44-.3-2.49-.86-3.16-.57-.66-1.57-.99-2.99-.98-2.04.01-3.44.99-4.21,2.94l.12,17.47-6.79.04-.09-16.2c0-1.47-.3-2.54-.89-3.19-.58-.66-1.57-.98-2.97-.97-1.93.01-3.32.82-4.17,2.42l.1,17.98-6.79.04-.14-25.43,6.37-.04Z"/>
    <path class="cls-3" d="M305.22,226.81l3.25-16.22,6.56-.04-6.34,25.47-5.69.03-4.91-15.98-4.73,16.04-5.67.03-6.63-25.4,6.56-.04,3.41,16.15,4.56-16.2,4.91-.03,4.72,16.17Z"/>
    <path class="cls-3" d="M333.27,235.89c-.32-.61-.55-1.37-.69-2.28-1.63,1.84-3.77,2.77-6.4,2.79-2.49.01-4.56-.69-6.21-2.13-1.65-1.43-2.48-3.24-2.49-5.44-.02-2.7.97-4.77,2.96-6.22s4.87-2.2,8.65-2.24l3.13-.02v-1.46c-.02-1.18-.32-2.11-.93-2.82-.61-.7-1.56-1.05-2.86-1.04-1.14,0-2.04.29-2.69.84-.65.55-.97,1.31-.96,2.26l-6.79.04c0-1.47.44-2.84,1.34-4.1.9-1.26,2.18-2.25,3.84-2.97s3.52-1.09,5.59-1.1c3.13-.02,5.63.76,7.48,2.32,1.85,1.56,2.78,3.77,2.8,6.63l.06,11.02c.03,2.41.38,4.24,1.04,5.47v.4s-6.86.04-6.86.04ZM327.62,231.19c1,0,1.93-.23,2.77-.69.84-.45,1.47-1.05,1.87-1.81l-.03-4.37h-2.54c-3.4.03-5.2,1.22-5.41,3.57l-.02.4c0,.85.31,1.54.91,2.09.6.55,1.42.81,2.45.81Z"/>
    <path class="cls-3" d="M358.52,216.68c-.93-.12-1.74-.18-2.45-.17-2.57.01-4.25.89-5.04,2.64l.09,16.64-6.79.04-.14-25.43,6.42-.04.21,3.03c1.35-2.34,3.23-3.52,5.64-3.54.75,0,1.46.09,2.12.29l-.06,6.54Z"/>
    <path class="cls-3" d="M373.61,236.13c-3.73.02-6.77-1.1-9.13-3.38-2.36-2.27-3.54-5.32-3.57-9.12v-.66c-.02-2.55.46-4.84,1.44-6.86.98-2.02,2.37-3.58,4.17-4.68,1.8-1.1,3.87-1.66,6.18-1.67,3.48-.02,6.22,1.06,8.24,3.24,2.01,2.18,3.03,5.29,3.05,9.31l.02,2.77-16.2.09c.23,1.66.9,2.99,2.01,3.98,1.11,1,2.51,1.49,4.2,1.48,2.62-.01,4.66-.97,6.12-2.88l3.36,3.72c-1.01,1.45-2.38,2.58-4.12,3.4-1.74.82-3.66,1.23-5.78,1.24ZM372.71,215.23c-1.35,0-2.44.47-3.27,1.39-.83.92-1.36,2.23-1.59,3.93l9.45-.05v-.54c-.04-1.51-.46-2.68-1.24-3.5-.79-.82-1.9-1.23-3.35-1.22Z"/>
  </g>
  <g>
    <g>
      <path class="cls-6" d="M263.35,157.84h-125.98c-2.1,0-3.81-1.71-3.81-3.81V28.05c0-2.1,1.71-3.81,3.81-3.81h125.98c2.1,0,3.81,1.71,3.81,3.81v125.98c0,2.1-1.71,3.81-3.81,3.81ZM137.37,26.78c-.7,0-1.27.57-1.27,1.27v125.98c0,.7.57,1.27,1.27,1.27h125.98c.7,0,1.27-.57,1.27-1.27V28.05c0-.7-.57-1.27-1.27-1.27h-125.98Z"/>
      <path class="cls-6" d="M186.89,25.71c-.7,0-1.27-.57-1.27-1.27v-11.01c0-.7.57-1.27,1.27-1.27s1.27.57,1.27,1.27v11.01c0,.7-.57,1.27-1.27,1.27Z"/>
      <path class="cls-6" d="M213.21,25.71c-.7,0-1.27-.57-1.27-1.27v-11.01c0-.7.57-1.27,1.27-1.27s1.27.57,1.27,1.27v11.01c0,.7-.57,1.27-1.27,1.27Z"/>
      <path class="cls-6" d="M239.53,25.71c-.7,0-1.27-.57-1.27-1.27v-11.01c0-.7.57-1.27,1.27-1.27s1.27.57,1.27,1.27v11.01c0,.7-.57,1.27-1.27,1.27Z"/>
      <path class="cls-6" d="M160.57,25.71c-.7,0-1.27-.57-1.27-1.27v-11.01c0-.7.57-1.27,1.27-1.27s1.27.57,1.27,1.27v11.01c0,.7-.57,1.27-1.27,1.27Z"/>
      <path class="cls-6" d="M239.53,169.93c-.7,0-1.27-.57-1.27-1.27v-11.01c0-.7.57-1.27,1.27-1.27s1.27.57,1.27,1.27v11.01c0,.7-.57,1.27-1.27,1.27Z"/>
      <path class="cls-6" d="M160.57,169.93c-.7,0-1.27-.57-1.27-1.27v-11.01c0-.7.57-1.27,1.27-1.27s1.27.57,1.27,1.27v11.01c0,.7-.57,1.27-1.27,1.27Z"/>
      <path class="cls-6" d="M133.45,105.47h-11.01c-.7,0-1.27-.57-1.27-1.27s.57-1.27,1.27-1.27h11.01c.7,0,1.27.57,1.27,1.27s-.57,1.27-1.27,1.27Z"/>
      <path class="cls-6" d="M133.45,79.15h-11.01c-.7,0-1.27-.57-1.27-1.27s.57-1.27,1.27-1.27h11.01c.7,0,1.27.57,1.27,1.27s-.57,1.27-1.27,1.27Z"/>
      <path class="cls-6" d="M133.45,52.83h-11.01c-.7,0-1.27-.57-1.27-1.27s.57-1.27,1.27-1.27h11.01c.7,0,1.27.57,1.27,1.27s-.57,1.27-1.27,1.27Z"/>
      <path class="cls-6" d="M133.45,131.79h-11.01c-.7,0-1.27-.57-1.27-1.27s.57-1.27,1.27-1.27h11.01c.7,0,1.27.57,1.27,1.27s-.57,1.27-1.27,1.27Z"/>
      <path class="cls-6" d="M277.97,105.47h-11.01c-.7,0-1.27-.57-1.27-1.27s.57-1.27,1.27-1.27h11.01c.7,0,1.27.57,1.27,1.27s-.57,1.27-1.27,1.27Z"/>
      <path class="cls-6" d="M277.97,79.15h-11.01c-.7,0-1.27-.57-1.27-1.27s.57-1.27,1.27-1.27h11.01c.7,0,1.27.57,1.27,1.27s-.57,1.27-1.27,1.27Z"/>
      <path class="cls-6" d="M277.97,52.83h-11.01c-.7,0-1.27-.57-1.27-1.27s.57-1.27,1.27-1.27h11.01c.7,0,1.27.57,1.27,1.27s-.57,1.27-1.27,1.27Z"/>
      <path class="cls-6" d="M277.97,131.79h-11.01c-.7,0-1.27-.57-1.27-1.27s.57-1.27,1.27-1.27h11.01c.7,0,1.27.57,1.27,1.27s-.57,1.27-1.27,1.27Z"/>
      <path class="cls-6" d="M213.21,169.93c-.7,0-1.27-.57-1.27-1.27v-11.01c0-.7.57-1.27,1.27-1.27s1.27.57,1.27,1.27v11.01c0,.7-.57,1.27-1.27,1.27Z"/>
      <path class="cls-6" d="M186.89,169.93c-.7,0-1.27-.57-1.27-1.27v-11.01c0-.7.57-1.27,1.27-1.27s1.27.57,1.27,1.27v11.01c0,.7-.57,1.27-1.27,1.27Z"/>
    </g>
    <g>
      <circle class="cls-4" cx="200.2" cy="91.04" r="51.38"/>
      <g class="cls-1">
        <circle class="cls-6" cx="200.2" cy="91.04" r="51.38"/>
      </g>
      <g>
        <path class="cls-5" d="M217.67,85.3h-3.15v-5.08c0-7.89-6.43-14.28-14.32-14.28s-14.32,6.4-14.32,14.28v5.08h-3.38c-2.43,0-4.18,2.12-4.18,4.55v21.98c0,2.43,1.75,4.31,4.18,4.31h35.16c2.43,0,4.41-1.89,4.41-4.31v-21.98c0-2.43-1.98-4.55-4.41-4.55ZM191.55,80.22c0-4.86,3.8-8.79,8.65-8.79s8.65,3.93,8.65,8.79v5.08h-17.31v-5.08Z"/>
        <g>
          <rect class="cls-5" x="191.4" y="93.05" width="17.19" height="17.19" rx=".73" ry=".73"/>
          <path class="cls-5" d="M209.35,106.83h-18.56c-.33,0-.61-.27-.61-.61s.27-.61.61-.61h18.56c.33,0,.61.27.61.61s-.27.61-.61.61Z"/>
          <path class="cls-5" d="M209.35,103.69h-18.56c-.33,0-.61-.27-.61-.61s.27-.61.61-.61h18.56c.33,0,.61.27.61.61s-.27.61-.61.61Z"/>
          <path class="cls-5" d="M209.35,100.54h-18.56c-.33,0-.61-.27-.61-.61s.27-.61.61-.61h18.56c.33,0,.61.27.61.61s-.27.61-.61.61Z"/>
          <path class="cls-5" d="M209.35,97.39h-18.56c-.33,0-.61-.27-.61-.61s.27-.61.61-.61h18.56c.33,0,.61.27.61.61s-.27.61-.61.61Z"/>
          <path class="cls-5" d="M195.35,111.39c-.33,0-.61-.27-.61-.61v-18.56c0-.33.27-.61.61-.61s.61.27.61.61v18.56c0,.33-.27.61-.61.61Z"/>
          <path class="cls-5" d="M198.5,111.39c-.33,0-.61-.27-.61-.61v-18.56c0-.33.27-.61.61-.61s.61.27.61.61v18.56c0,.33-.27.61-.61.61Z"/>
          <path class="cls-5" d="M201.65,111.39c-.33,0-.61-.27-.61-.61v-18.56c0-.33.27-.61.61-.61s.61.27.61.61v18.56c0,.33-.27.61-.61.61Z"/>
          <path class="cls-5" d="M204.79,111.39c-.33,0-.61-.27-.61-.61v-18.56c0-.33.27-.61.61-.61s.61.27.61.61v18.56c0,.33-.27.61-.61.61Z"/>
        </g>
        <rect class="cls-6" x="192.82" y="94.25" width="14.51" height="14.51" rx=".61" ry=".61"/>
      </g>
    </g>
  </g>
</svg>