<?xml version="1.0" encoding="UTF-8"?>
<svg id="Layer_1" data-name="Layer 1" xmlns="http://www.w3.org/2000/svg" viewBox="0 0 62.36 62.36">
  <defs>
    <style>
      .cls-1 {
        fill: #8dc63f;
      }

      .cls-1, .cls-2 {
        stroke-width: 0px;
      }

      .cls-2 {
        fill: #fff;
      }
    </style>
  </defs>
  <circle class="cls-1" cx="31.18" cy="31.18" r="26.38"/>
  <g>
    <path class="cls-2" d="M31.18,50.98l-.25-.07c-4.67-1.3-8.91-4.59-11.93-9.27-3.03-4.7-4.7-10.63-4.7-16.68,0-1.24.07-2.49.21-3.71l.09-.84h.85c5.89-.06,11.45-2.46,15.65-6.76l.68-.7.68.7c3.9,4,9.06,6.39,14.51,6.72l.8.05.09.8c.14,1.24.21,2.5.21,3.75,0,6.06-1.67,11.98-4.7,16.68-3.02,4.68-7.26,7.97-11.93,9.27l-.25.07ZM16.32,22.28c-.07.88-.11,1.78-.11,2.67,0,5.7,1.56,11.25,4.4,15.65,2.71,4.2,6.46,7.17,10.58,8.39,4.12-1.22,7.87-4.19,10.58-8.39,2.84-4.4,4.4-9.96,4.4-15.65,0-.92-.04-1.84-.12-2.75-5.31-.51-10.32-2.81-14.26-6.55-4.26,4.05-9.69,6.38-15.46,6.64Z"/>
    <path class="cls-2" d="M41.88,23.99c-.36-.02-.76.03-1.08.18-.64.31-1.32.63-1.83,1.1-.07.06-.14.13-.21.19-.19.17-.38.35-.57.52-1.93,1.77-3.84,3.56-5.69,5.4-1.33,1.32-2.53,2.78-3.79,4.18-1.08-.49-2.11-1.05-3.2-1.44-.81-.3-1.68-.49-2.54-.54-.32-.02-.8.41-.96.75-.11.23.13.73.35.99,1.22,1.46,2.57,2.83,3.71,4.35.56.74,1.04,1.53,1.51,2.33.14.24.29.49.43.73.21.35.42.7.63,1.04.14.22.45.54.61.5.24-.05.43-.37.62-.6.07-.07.09-.19.13-.29.09-.22.18-.44.27-.66.1-.25.21-.49.31-.73,1.99-4.55,4.53-8.73,7.78-12.42.24-.27.49-.54.73-.81.77-.84,1.59-1.65,2.44-2.43.35-.32.69-.67.96-1.06.42-.61.11-1.25-.64-1.3Z"/>
  </g>
</svg>