<svg xmlns="http://www.w3.org/2000/svg" viewBox="0 0 180.92 86.96"><defs><style>.cls-1{fill:#7f3179;}</style></defs><g id="map"><g id="Layer_2" data-name="Layer 2"><path class="cls-1" d="M52.49,35.74a26.1,26.1,0,0,1-3,2.6c-.23.13-.43.26-.65.4-.7.44-1.36.91-2,1.37-3.39,2.54-5.43,5.15-4.72,6.25a.6.6,0,0,0,.16.19c.6-.23,1.23-.5,1.9-.81a36.87,36.87,0,0,0,3.37-1.86,32.78,32.78,0,0,0,3-2.23c-1.48,1.53-2.34,2.89-2.09,3.71a.67.67,0,0,0,.1.23.85.85,0,0,0,.16.17,1.59,1.59,0,0,0,1.19.33,7,7,0,0,0,1.87-.28,2.06,2.06,0,0,0,.45-.13,2.08,2.08,0,0,1,.61,0,1.11,1.11,0,0,1,.74.46.08.08,0,0,1,0,.09,1.21,1.21,0,0,1,0,1,4.72,4.72,0,0,1-.27.61,9.77,9.77,0,0,0-1.31,1.82,1.93,1.93,0,0,0-.27,1.63.2.2,0,0,0,0,.08.45.45,0,0,0,.18.18,1.9,1.9,0,0,0,1.35.34,8.78,8.78,0,0,0,1.84-.34,52.79,52.79,0,0,1,7.8-4.2,6.81,6.81,0,0,1,.74-.31h0c.74-.31,1.49-.59,2.14-.86h0l.52-.19L67,45.8l.91-.3c.31-.09.43-.15.64-.21a35.89,35.89,0,0,1,4.2-1.07h.4A93.51,93.51,0,0,0,95.64,43.1a55.63,55.63,0,0,0,14-5.19h0s5.33.74,7.89,3.11a23.38,23.38,0,0,1,5.3,7.74c.74,2,1.12,3.84,2.29,3.33s2.3-3.71,2.09-6.48-1.88-8.23-3.92-11A7.84,7.84,0,0,0,119.73,32a8.84,8.84,0,0,0,.9-.68c1-1,3.66-4.15,6.56-7.31s4.7-7.48,6.16-9.2,6.68-5.7,8.27-7a13.25,13.25,0,0,1,3-1.95A19.35,19.35,0,0,0,148.23,4c.75-.59.75-2.28.52-3.12-.18-.65-.78-.74-1.56-.87s-2.66.61-3.92,1.06a10.26,10.26,0,0,1-4.51.23,16,16,0,0,0-3.82-.62c-1.41,0-5.37,1.66-7.82,2.91s-5.25,3.86-7.27,5.19A23.22,23.22,0,0,1,110.27,12a9.5,9.5,0,0,1-3.86-.8l-1.6-.66a1.17,1.17,0,0,0-.24-.09,69.26,69.26,0,0,0-9.56-3C81.67,4.14,69.38,4.93,63.77,8.9a1.28,1.28,0,0,0-.21.14h0a.92.92,0,0,0-.29.66,1,1,0,0,0,.94,1.06h.2a73.75,73.75,0,0,1,10.82-.13c1.79.11,3.54.29,5.19.51h0a30.29,30.29,0,0,1,3.66.58h0l1.62.34h.16A9.8,9.8,0,0,1,89,13.35l.3.25a1.54,1.54,0,0,1,.59,1.12c0,.82-1,1.54-2.7,2.07l.17-.07c-1.1.32-2.23.64-3.32,1s-2.22.75-3.26,1.18c-3.25,1.16-7.11,2.69-11,4.45-.07,0-7,3.42-8,4.1a21.4,21.4,0,0,0-5,4.32"/><path d="M13.78,86.57a8.07,8.07,0,0,1-8.29-7.85V63.53H1.25a1.25,1.25,0,0,1,0-2.5H5.49V54.61a1.31,1.31,0,0,1,1.4-1.2,1.29,1.29,0,0,1,1.2,1.2V61H17a1.25,1.25,0,1,1,0,2.5H8.09v14.7a5.48,5.48,0,0,0,5.69,5.83H17a1.26,1.26,0,1,1,0,2.51H13.78Z"/><path d="M39.42,62A1.3,1.3,0,0,1,42,62V77.12a10.07,10.07,0,0,1-20.14,0V62a1.3,1.3,0,0,1,2.6,0V77.12a7.47,7.47,0,0,0,14.94.47,3.68,3.68,0,0,0,0-.47Z"/><path d="M57.68,75.77,48.79,86.38a1.32,1.32,0,0,1-1.84.19,1.27,1.27,0,0,1-.2-1.77l.06-.06L56,73.8,46.79,62.86a1.3,1.3,0,0,1,2-1.69l8.9,10.7,8.89-10.7a1.31,1.31,0,0,1,1.85,0,1.3,1.3,0,0,1,.13,1.7L59.31,73.8l9.27,10.94a1.25,1.25,0,0,1-.09,1.78l-.06,0a1.31,1.31,0,0,1-1.83-.19Z"/><path d="M103.52,70.71a7.1,7.1,0,0,0-7-7.18H91v22A1.31,1.31,0,0,1,89.78,87a1.29,1.29,0,0,1-1.39-1.2.67.67,0,0,1,0-.2v-22H76.05v22A1.31,1.31,0,0,1,74.84,87a1.29,1.29,0,0,1-1.39-1.2.67.67,0,0,1,0-.2V62.47A1.38,1.38,0,0,1,74.73,61H96.47a9.64,9.64,0,0,1,9.69,9.59V85.5A1.31,1.31,0,0,1,105,86.9a1.29,1.29,0,0,1-1.39-1.2.67.67,0,0,1,0-.2Z"/><path d="M118.12,86.57a7.45,7.45,0,0,1,0-14.9H125a1.27,1.27,0,0,1,1.26,1.26A1.25,1.25,0,0,1,125,74.18h-6.84a4.94,4.94,0,0,0,0,9.88h10.75V70c0-4-2.46-6.51-6.42-6.51h-8a1.25,1.25,0,0,1-1.25-1.25A1.24,1.24,0,0,1,114.41,61h8a8.57,8.57,0,0,1,9,9V85.12a1.36,1.36,0,0,1-1.24,1.48H130Z"/><path d="M140,74.08V85.55a1.3,1.3,0,1,1-2.6.2V51.82a1.3,1.3,0,0,1,2.6,0V73.6l13.79-12.48a1.26,1.26,0,0,1,1.78-.13,1.28,1.28,0,0,1,.14,1.79l-.19.18L143.37,73.8l12.1,10.89a1.24,1.24,0,0,1,.17,1.75l0,0a1.27,1.27,0,0,1-1.79.09l-.08-.09Z"/><path d="M170.65,86.57c-7.52,0-13.25-5.45-13.25-12.77S163.12,61,170.65,61h2.56c4.62,0,7.71,3.27,7.71,7.17s-3.09,7.14-7.71,7.14h-7.77a1.26,1.26,0,0,1,0-2.51h7.77c3.08,0,5.1-2.07,5.1-4.63a4.76,4.76,0,0,0-5.1-4.67h-2.56c-6,0-10.65,4.34-10.65,10.27s4.63,10.26,10.65,10.26h6.89a1.26,1.26,0,1,1,0,2.51Z"/></g></g></svg>