<svg xmlns="http://www.w3.org/2000/svg" viewBox="0 0 179.98 89.26"><defs><style>.cls-1{fill:#9c3;}</style></defs><g id="map"><g id="Layer_2" data-name="Layer 2"><path class="cls-1" d="M47.3,37.38a27.68,27.68,0,0,1-3.1,2.72l-.68.41c-.72.47-1.42,1-2.08,1.44-3.55,2.66-5.68,5.38-4.93,6.54a.58.58,0,0,0,.16.19c.63-.23,1.28-.52,2-.85a37.73,37.73,0,0,0,3.52-1.94,32.67,32.67,0,0,0,3.17-2.33c-1.55,1.6-2.44,3-2.18,3.88a.64.64,0,0,0,.1.24.73.73,0,0,0,.17.18,1.68,1.68,0,0,0,1.24.34,7.16,7.16,0,0,0,2-.3,1.85,1.85,0,0,0,.47-.13,2.29,2.29,0,0,1,.64,0,1.24,1.24,0,0,1,.78.48.17.17,0,0,1,0,.1,1.33,1.33,0,0,1,0,1.07,3.64,3.64,0,0,1-.3.63A9.75,9.75,0,0,0,46.9,52a2,2,0,0,0-.29,1.71v.07a.5.5,0,0,0,.19.19,2,2,0,0,0,1.4.36,8.91,8.91,0,0,0,1.92-.36,53.81,53.81,0,0,1,8.15-4.4,7.35,7.35,0,0,1,.77-.32h0l2.24-.9h0l.54-.2.56-.22c.33-.12.63-.22.95-.31s.44-.16.67-.22a34.86,34.86,0,0,1,4.39-1.12h.41a98.17,98.17,0,0,0,23.6-1.17A58.25,58.25,0,0,0,107,39.64h0s5.57.77,8.25,3.26A24.43,24.43,0,0,1,120.89,51c.77,2.07,1.16,4,2.39,3.47s2.41-3.87,2.19-6.77-2-8.64-4.13-11.5a8.2,8.2,0,0,0-3.69-2.73,9.23,9.23,0,0,0,.93-.72c1-1,3.84-4.33,6.86-7.63s4.92-7.84,6.44-9.63,7-6,8.66-7.32a13.85,13.85,0,0,1,3.1-2,20.91,20.91,0,0,0,3.82-2c.78-.62.78-2.39.54-3.27-.19-.68-.83-.77-1.63-.9s-2.79.63-4.1,1.1a10.9,10.9,0,0,1-4.72.24,16.62,16.62,0,0,0-4-.65c-1.47,0-5.62,1.73-8.18,3s-5.49,4-7.59,5.43a24.45,24.45,0,0,1-10,3.34,10,10,0,0,1-4-.84c-.55-.23-1.12-.47-1.69-.69a1.33,1.33,0,0,0-.24-.1,75,75,0,0,0-10-3.13c-14-3.43-26.8-2.6-32.67,1.55a1.64,1.64,0,0,0-.22.14h0a1.05,1.05,0,0,0,.67,1.8h.22a77.75,77.75,0,0,1,11.32-.13c1.87.12,3.7.3,5.42.53h0a32.83,32.83,0,0,1,3.83.61h0c.56.12,1.14.22,1.7.35h.16A10.74,10.74,0,0,1,85.53,14c.11.11.21.17.31.27a1.59,1.59,0,0,1,.61,1.16c0,.86-1.09,1.61-2.82,2.17l.18-.08c-1.15.34-2.33.68-3.47,1.07s-2.32.77-3.41,1.23c-3.4,1.21-7.44,2.81-11.55,4.65-.07,0-7.31,3.58-8.4,4.28a22.29,22.29,0,0,0-5.21,4.52"/><path d="M14.42,88.85a8.43,8.43,0,0,1-8.67-8.21,4.34,4.34,0,0,1,0-.51V64.76H1.31a1.31,1.31,0,0,1,0-2.62H5.75V55.43a1.36,1.36,0,0,1,2.72,0v6.71h9.3a1.31,1.31,0,1,1,0,2.62H8.47V80.13a5.73,5.73,0,0,0,5.95,6.1h3.32a1.32,1.32,0,0,1,1.32,1.31,1.31,1.31,0,0,1-1.31,1.31H14.42Z"/><path d="M41.23,63.2a1.36,1.36,0,0,1,2.72,0V79a10.54,10.54,0,0,1-21.07,0V63.2a1.37,1.37,0,0,1,2.73,0V79a7.81,7.81,0,0,0,15.62.5,4.17,4.17,0,0,0,0-.5Z"/><path d="M60.33,77.55,51,88.64a1.36,1.36,0,0,1-1.91.2A1.32,1.32,0,0,1,48.9,87l.05-.07,9.66-11.43L48.94,64.06A1.37,1.37,0,0,1,51,62.29l9.3,11.19,9.31-11.19a1.38,1.38,0,1,1,2.11,1.77h0L62,75.49l9.7,11.45a1.31,1.31,0,0,1-.1,1.86l-.06,0a1.36,1.36,0,0,1-1.91-.2Z"/><path d="M77.47,88.85a1.31,1.31,0,0,1,0-2.62h11a4.74,4.74,0,0,0,5-4.74c0-2.72-2.11-4.65-5-4.65H83.11c-4.44,0-7.71-3.1-7.71-7.26a7.43,7.43,0,0,1,7.43-7.41H94.15a1.31,1.31,0,0,1,0,2.62h-11a4.77,4.77,0,0,0-5,4.55c0,.08,0,.16,0,.23a4.7,4.7,0,0,0,5,4.66h5.34c4.49,0,7.76,3.18,7.76,7.31S93,88.91,88.45,88.91Z"/><path d="M119.25,63.2a1.36,1.36,0,0,1,2.72,0V79a10.53,10.53,0,0,1-21.06,0V63.2a1.36,1.36,0,0,1,2.72,0V79a7.81,7.81,0,1,0,15.62.5,4.17,4.17,0,0,0,0-.5Z"/><path class="cls-1" d="M127.62,53.37a1.92,1.92,0,1,1,1.91,1.92,1.91,1.91,0,0,1-1.91-1.92Z"/><path d="M128.17,63.2a1.36,1.36,0,0,1,2.72,0V87.79a1.36,1.36,0,0,1-2.72.21.74.74,0,0,1,0-.21Z"/><path d="M149,88.85a8.43,8.43,0,0,1-8.64-8.22c0-.17,0-.33,0-.5V64.76h-4.43a1.31,1.31,0,1,1,0-2.62h4.44V55.43a1.36,1.36,0,0,1,2.72,0v6.71h9.31a1.31,1.31,0,0,1,0,2.62h-9.31V80.13a5.73,5.73,0,0,0,6,6.1h3.33a1.31,1.31,0,0,1,0,2.62Z"/><path d="M169.25,88.85c-7.86,0-13.86-5.7-13.86-13.36s6-13.35,13.86-13.35h2.67c4.84,0,8.06,3.43,8.06,7.51s-3.22,7.46-8.06,7.46h-8.11a1.32,1.32,0,0,1-1.32-1.31,1.31,1.31,0,0,1,1.31-1.31h8.12c3.22,0,5.34-2.17,5.34-4.84s-2.12-4.89-5.34-4.89h-2.67c-6.3,0-11.14,4.54-11.14,10.73S163,86.23,169.25,86.23h7.2a1.31,1.31,0,0,1,0,2.62Z"/></g></g></svg>