<svg xmlns="http://www.w3.org/2000/svg" viewBox="0 0 39.09 38.86"><defs><style>.cls-1{fill:#9d9d9c;}</style></defs><g id="map"><path class="cls-1" d="M37.33,20.22A8.93,8.93,0,0,1,28.51,29H26.44V27.55h2.07a7.46,7.46,0,0,0,7.34-7.35,7.2,7.2,0,0,0-7-7.34,9.63,9.63,0,0,0-9.14-6.55,10,10,0,0,0-9.34,6.55A7.51,7.51,0,0,0,3.19,20.2a7.21,7.21,0,0,0,7.22,7.35H12.6V29H10.41a8.69,8.69,0,0,1-8.7-8.86,9,9,0,0,1,7.6-8.7A11.49,11.49,0,0,1,19.68,4.83a11.11,11.11,0,0,1,10.18,6.63,8.68,8.68,0,0,1,7.47,8.76Z"/><polygon class="cls-1" points="25.53 21.5 19.52 15.48 13.28 21.72 14.16 22.6 18.89 17.88 18.89 34.03 20.15 34.03 20.15 17.88 24.64 22.39 25.53 21.5"/></g></svg>