<svg xmlns="http://www.w3.org/2000/svg" viewBox="0 0 62.56 56.98"><defs><style>.cls-1{fill:#fff;}</style></defs><g id="map"><g id="map-2" data-name="map"><path class="cls-1" d="M55.06,29.54A11.93,11.93,0,0,1,43.28,41.27H40.52V39.33h2.76a10,10,0,0,0,9.81-9.81,9.63,9.63,0,0,0-9.35-9.81A12.86,12.86,0,0,0,31.53,11a13.34,13.34,0,0,0-12.47,8.74,10,10,0,0,0-9.59,9.81,9.63,9.63,0,0,0,9.44,9.81H22v1.94H19.11A11.61,11.61,0,0,1,7.49,29.68c0-.08,0-.16,0-.24A12,12,0,0,1,17.65,17.82,15.35,15.35,0,0,1,31.49,9a14.85,14.85,0,0,1,13.6,8.85A11.6,11.6,0,0,1,55.06,29.54Z"/><polygon class="cls-1" points="39.3 31.25 31.28 23.21 22.95 31.55 24.12 32.72 30.44 26.42 30.44 47.98 32.12 47.98 32.12 26.42 38.12 32.44 39.3 31.25"/></g></g></svg>