<svg id="Layer_1" data-name="Layer 1" xmlns="http://www.w3.org/2000/svg" viewBox="0 0 50 50"><title>DeveloperServices-icons</title><path d="M33.54,21.27a8.83,8.83,0,0,0-8.39-6,9.18,9.18,0,0,0-8.58,6A6.87,6.87,0,0,0,10,28a6.61,6.61,0,0,0,6.64,6.74H27v-2.4H27a2.58,2.58,0,0,0,2-.94l1.68-2L30,28.84l-1.68,2a1.7,1.7,0,0,1-1.3.61H20.69c-.94,0-1.7-.45-1.7-1.39s.76-1.39,1.7-1.39h5.54l4.32-4.55a3.14,3.14,0,0,1,3.3,3.22l-.65,5.9.07,1.49A6.83,6.83,0,0,0,40,28,6.59,6.59,0,0,0,33.54,21.27ZM15.46,31.72,13.1,25.81a.39.39,0,0,1,.73-.29l2.36,5.91a.39.39,0,0,1-.22.51l-.15,0A.39.39,0,0,1,15.46,31.72Zm7,.77a.26.26,0,1,1,0,.52H16.06a.26.26,0,1,1,0-.52Zm3.06-7.61a4.27,4.27,0,1,1,4.27-4.27A4.27,4.27,0,0,1,25.55,24.89Z"/></svg>