<svg id="Layer_1" data-name="Layer 1" xmlns="http://www.w3.org/2000/svg" viewBox="0 0 50 50"><title>DeveloperServices-icons</title><path d="M14.23,19.74a1.83,1.83,0,0,0-1.83,1.83h0v7.69h0a1.83,1.83,0,0,0,3.66,0h0V21.57h0A1.83,1.83,0,0,0,14.23,19.74Z"/><path d="M37.61,21.57a1.83,1.83,0,0,0-3.66,0h0v7.69h0a1.83,1.83,0,0,0,3.66,0h0V21.57Z"/><path d="M16.8,20.06h-.09V32.13A1.84,1.84,0,0,0,18.54,34h1.54v4.21h0a1.83,1.83,0,0,0,3.66,0h0V34h2.5v4.21a1.83,1.83,0,0,0,3.66,0V34h1.54a1.84,1.84,0,0,0,1.83-1.83V20.06H16.8Z"/><path d="M33.27,19.42v-.88a6.64,6.64,0,0,0-.11-.74,7.48,7.48,0,0,0-4-5l1.26-2.33a.3.3,0,1,0-.52-.28l-1.28,2.36a9.23,9.23,0,0,0-7.22,0l-1.29-2.37a.3.3,0,1,0-.52.28l1.27,2.34a7.52,7.52,0,0,0-3.92,4.75,6.63,6.63,0,0,0-.2,1.63c0,.08,0,.17,0,.25Zm-4.5-4.49a.78.78,0,1,1-.78.78A.78.78,0,0,1,28.77,14.93Zm-7.54,0a.78.78,0,1,1-.78.78A.78.78,0,0,1,21.23,14.93Z"/></svg>