<svg id="Layer_1" data-name="Layer 1" xmlns="http://www.w3.org/2000/svg" viewBox="0 0 420 480"><defs><style>.cls-1{font-size:80.84px;font-weight:700;}.cls-1,.cls-2{font-family:Roboto;}.cls-2{font-size:50.21px;}.cls-3{fill:#0cb2dd;}.cls-4{fill:#f48414;}.cls-5{fill:#009641;}.cls-6{fill:#8b63a9;}</style></defs><title>devicetree-Logo</title><text class="cls-1" transform="translate(19.95 392.57) rotate(-0.33)">d<tspan x="45.55" y="0">e</tspan><tspan x="88.74" y="0">vicet</tspan><tspan x="264.19" y="0">r</tspan><tspan x="292.93" y="0">ee</tspan></text><text class="cls-2" transform="translate(167.81 446.39)">.o<tspan x="40.11" y="0">r</tspan><tspan x="56.54" y="0">g</tspan></text><path d="M314.48,261H106a6.31,6.31,0,0,1-6.31-6.31V46.3A6.31,6.31,0,0,1,106,40H314.48a6.31,6.31,0,0,1,6.31,6.31V254.74A6.31,6.31,0,0,1,314.48,261ZM106,44.2a2.1,2.1,0,0,0-2.1,2.1V254.74a2.1,2.1,0,0,0,2.1,2.1H314.48a2.1,2.1,0,0,0,2.1-2.1V46.3a2.1,2.1,0,0,0-2.1-2.1H106Z"/><path d="M188,42.42a2.1,2.1,0,0,1-2.1-2.1V22.1a2.1,2.1,0,0,1,4.2,0V40.32A2.1,2.1,0,0,1,188,42.42Z"/><path d="M231.53,42.42a2.1,2.1,0,0,1-2.1-2.1V22.1a2.1,2.1,0,1,1,4.2,0V40.32A2.1,2.1,0,0,1,231.53,42.42Z"/><path d="M275.08,42.42a2.1,2.1,0,0,1-2.1-2.1V22.1a2.1,2.1,0,1,1,4.2,0V40.32A2.1,2.1,0,0,1,275.08,42.42Z"/><path d="M144.43,42.42a2.1,2.1,0,0,1-2.1-2.1V22.1a2.1,2.1,0,1,1,4.2,0V40.32A2.1,2.1,0,0,1,144.43,42.42Z"/><path d="M275.08,281a2.1,2.1,0,0,1-2.1-2.1V260.72a2.1,2.1,0,1,1,4.2,0v18.22A2.1,2.1,0,0,1,275.08,281Z"/><path d="M144.43,281a2.1,2.1,0,0,1-2.1-2.1V260.72a2.1,2.1,0,1,1,4.2,0v18.22A2.1,2.1,0,0,1,144.43,281Z"/><path d="M99.55,174.4H81.33a2.1,2.1,0,0,1,0-4.2H99.55A2.1,2.1,0,0,1,99.55,174.4Z"/><path d="M99.55,130.85H81.33a2.1,2.1,0,1,1,0-4.2H99.55A2.1,2.1,0,0,1,99.55,130.85Z"/><path d="M99.55,87.3H81.33a2.1,2.1,0,1,1,0-4.2H99.55A2.1,2.1,0,0,1,99.55,87.3Z"/><path d="M99.55,218H81.33a2.1,2.1,0,1,1,0-4.2H99.55A2.1,2.1,0,0,1,99.55,218Z"/><path d="M338.67,174.4H320.45a2.1,2.1,0,1,1,0-4.2h18.22A2.1,2.1,0,1,1,338.67,174.4Z"/><path d="M338.67,130.85H320.45a2.1,2.1,0,1,1,0-4.2h18.22A2.1,2.1,0,1,1,338.67,130.85Z"/><path d="M338.67,87.3H320.45a2.1,2.1,0,1,1,0-4.2h18.22A2.1,2.1,0,1,1,338.67,87.3Z"/><path d="M338.67,218H320.45a2.1,2.1,0,1,1,0-4.2h18.22A2.1,2.1,0,1,1,338.67,218Z"/><path d="M210.27,241.54a2.23,2.23,0,0,1-2.23-2.23l-0.36-129.76a2.23,2.23,0,0,1,2.23-2.24h0a2.23,2.23,0,0,1,2.23,2.23L212.5,239.3a2.23,2.23,0,0,1-2.23,2.24h0Z"/><path class="cls-3" d="M210.26,75.47a21.45,21.45,0,1,0,21.45,21.45,21.47,21.47,0,0,0-21.45-21.45h0Z"/><path d="M231.67,241.63a2.23,2.23,0,0,1-2.23-2.22V156.75l42.14-23.29a2.23,2.23,0,0,1,2.16,3.91l-39.83,22v80a2.23,2.23,0,0,1-2.22,2.24h0Z"/><path class="cls-4" d="M278.86,113.31a21.45,21.45,0,1,0,21.45,21.45,21.47,21.47,0,0,0-21.45-21.45h0Z"/><path d="M187.84,241.54h0a2.23,2.23,0,0,1-2.22-2.24V202.86l-39.83-22a2.23,2.23,0,1,1,2.16-3.91l42.14,23.29v39.09A2.23,2.23,0,0,1,187.84,241.54Z"/><path class="cls-5" d="M141.66,155a21.45,21.45,0,1,0,21.45,21.45A21.47,21.47,0,0,0,141.66,155h0Z"/><path d="M210.26,159.72a2.22,2.22,0,0,1-1.11-.3L157.3,129.53a2.23,2.23,0,0,1,2.23-3.87l51.86,29.89A2.23,2.23,0,0,1,210.26,159.72Z"/><path class="cls-6" d="M157.62,103.67a21.45,21.45,0,1,0,21.45,21.45,21.47,21.47,0,0,0-21.45-21.45h0Z"/><path d="M142.42,239.86a2.49,2.49,0,0,1,2.68-2.23l129.31-.36a2.5,2.5,0,0,1,2.7,2.23h0a2.49,2.49,0,0,1-2.68,2.23l-129.31.36a2.5,2.5,0,0,1-2.7-2.23h0Z"/><path d="M231.53,281a2.1,2.1,0,0,1-2.1-2.1V260.72a2.1,2.1,0,1,1,4.2,0v18.22A2.1,2.1,0,0,1,231.53,281Z"/><path d="M188,281a2.1,2.1,0,0,1-2.1-2.1V260.72a2.1,2.1,0,0,1,4.2,0v18.22A2.1,2.1,0,0,1,188,281Z"/></svg>