<svg id="Layer_1" data-name="Layer 1" xmlns="http://www.w3.org/2000/svg" viewBox="0 0 513 500"><defs><style>.cls-1{fill:#666;}.cls-2{fill:#1a1a1a;}.cls-3{fill:#ffe817;}.cls-4{fill:gray;}.cls-5{fill:#009645;}</style></defs><title>OpenDataPlane-Logo</title><path class="cls-1" d="M256,20c-1,0-1.11,0-2,1h-0.22a26.31,26.31,0,0,0-18.46,8.1L116.86,147.7a28.33,28.33,0,0,0-8.59,20.3H256V20Z"/><path class="cls-2" d="M108.27,168s0,0.45,0,.83a29.85,29.85,0,0,0,8.6,20.08L235.36,307.46c5,5,11.41,7.54,18,8.54h1.2c0.69,0,.48-0.2,1.48-0.19V168H108.27Z"/><path class="cls-1" d="M256,315.81a23.48,23.48,0,0,0,2.88-.08,29.65,29.65,0,0,0,18.61-8.51L396.06,189a29.85,29.85,0,0,0,8.67-21H256V315.81Z"/><path class="cls-2" d="M277.64,28.65a30.05,30.05,0,0,0-18.28-8.48A25.16,25.16,0,0,0,256,20V168H404.73a28.83,28.83,0,0,0-8.6-20.54Z"/><path class="cls-3" d="M256.61,57.25L146.47,167.38,256.61,277.52,366.74,167.38ZM210.07,167.38l46.54-46.54,46.54,46.54-46.54,46.54Z"/><path class="cls-1" d="M256.61,64L153.34,167.26,256.61,270.53,359.88,167.26ZM203.54,167.42l53.06-53.06,53.06,53.06-53.06,53.06Z"/><path class="cls-4" d="M425,468.37a3.63,3.63,0,1,1,1.06,2.58A3.51,3.51,0,0,1,425,468.37Z"/><path class="cls-4" d="M455.42,453v12.34q0,6.67-6.27,6.67h-5.71q-6.27,0-6.27-6.67V453q0-6.67,6.27-6.67h5.71Q455.42,446.32,455.42,453Zm-6.78,13.75V451.53a1,1,0,0,0-.28-0.71,0.89,0.89,0,0,0-.68-0.3H444.9a0.89,0.89,0,0,0-.68.3,1,1,0,0,0-.28.71v15.22a1,1,0,0,0,.28.71,0.89,0.89,0,0,0,.68.3h2.78a0.89,0.89,0,0,0,.68-0.3A1,1,0,0,0,448.64,466.75Z"/><path class="cls-4" d="M470.54,446.32h1.31v6.57h-3.34a1.54,1.54,0,0,0-1.72,1.77V471.5H460V446.83h6.17v2.38A4.67,4.67,0,0,1,470.54,446.32Z"/><path class="cls-4" d="M493.14,446.83v26.55q0,6.67-6.27,6.67h-5.06q-6.27,0-6.27-6.67v-0.81h6.12v1.62a1,1,0,0,0,.28.71,0.89,0.89,0,0,0,.68.3h2.78a0.89,0.89,0,0,0,.68-0.3,1,1,0,0,0,.28-0.71v-5.06a6.59,6.59,0,0,1-4.15,1.21h-1.06q-6.27,0-6.27-6.67V453q0-6.67,6.27-6.67h1.06q3.64,0,5.21,2.33v-1.82h5.71Zm-6.78,17.65V452.19a1,1,0,0,0-.28-0.71,0.89,0.89,0,0,0-.68-0.3h-2.78a0.89,0.89,0,0,0-.68.3,1,1,0,0,0-.28.71v12.29a1,1,0,0,0,.28.71,0.89,0.89,0,0,0,.68.3h2.78a0.89,0.89,0,0,0,.68-0.3A1,1,0,0,0,486.36,464.47Z"/><path class="cls-5" d="M53,391.12v35.09q0,11.5-10.8,11.5H30.66q-10.8,0-10.8-11.5V391.12q0-11.5,10.8-11.5H42.24Q53,379.63,53,391.12ZM40.85,427.61v-38a1.75,1.75,0,0,0-.48-1.22,1.53,1.53,0,0,0-1.18-.52H33.71a1.53,1.53,0,0,0-1.18.52,1.74,1.74,0,0,0-.48,1.22v38a1.74,1.74,0,0,0,.48,1.22,1.53,1.53,0,0,0,1.18.52h5.49a1.53,1.53,0,0,0,1.18-.52A1.75,1.75,0,0,0,40.85,427.61Z"/><path class="cls-5" d="M82.21,437.71H80.39a11.35,11.35,0,0,1-7.14-2.09v15.07H61.57V394.34h9.84v3.14q2.7-4,9-4h1.83Q93,393.47,93,405v21.25Q93,437.71,82.21,437.71Zm-9-34.14v24a1.74,1.74,0,0,0,.48,1.22,1.53,1.53,0,0,0,1.18.52h4.79a1.54,1.54,0,0,0,1.18-.52,1.75,1.75,0,0,0,.48-1.22v-24a1.76,1.76,0,0,0-.48-1.22,1.54,1.54,0,0,0-1.18-.52H74.9a1.53,1.53,0,0,0-1.18.52A1.75,1.75,0,0,0,73.24,403.57Z"/><path class="cls-5" d="M121.57,393.47q10.8,0,10.8,11.5v13.76H112.6v8.88a1.74,1.74,0,0,0,.48,1.22,1.53,1.53,0,0,0,1.18.52H119a1.53,1.53,0,0,0,1.18-.52,1.75,1.75,0,0,0,.48-1.22v-4.7h11.67v3.31q0,11.5-10.8,11.5h-9.84q-10.8,0-10.8-11.5V405q0-11.5,10.8-11.5h9.84Zm-9,17.59h8.1v-7.84a1.75,1.75,0,0,0-.48-1.22,1.53,1.53,0,0,0-1.18-.52h-4.79a1.53,1.53,0,0,0-1.18.52,1.75,1.75,0,0,0-.48,1.22v7.84Z"/><path class="cls-5" d="M150.49,436.84H138.82v-42.5h10.62v2.18q2.7-3,8.19-3h1.83q10.8,0,10.8,11.5v31.87H158.58V403.57a1.76,1.76,0,0,0-.48-1.22,1.54,1.54,0,0,0-1.18-.52h-4.79a1.53,1.53,0,0,0-1.18.52,1.75,1.75,0,0,0-.48,1.22v33.27Z"/><path class="cls-5" d="M201,380.5q10.8,0,10.8,11.49v33.35q0,11.5-10.8,11.5H178.61V380.5H201Zm-1.39,46.24V390.51a1.76,1.76,0,0,0-.48-1.22,1.54,1.54,0,0,0-1.18-.52h-7.14v39.71h7.14a1.54,1.54,0,0,0,1.18-.52A1.75,1.75,0,0,0,199.6,426.74Z"/><path class="cls-5" d="M242,394.34h9.84v42.5H242V433.7q-2.7,4-9,4h-1.83q-10.8,0-10.8-11.5V405q0-11.5,10.8-11.5H233q6.27,0,9,4v-3.14Zm-1.83,33.27v-24a1.75,1.75,0,0,0-.48-1.22,1.54,1.54,0,0,0-1.18-.52h-4.79a1.53,1.53,0,0,0-1.18.52,1.75,1.75,0,0,0-.48,1.22v24a1.74,1.74,0,0,0,.48,1.22,1.53,1.53,0,0,0,1.18.52h4.79a1.54,1.54,0,0,0,1.18-.52A1.75,1.75,0,0,0,240.18,427.61Z"/><path class="cls-5" d="M275.28,430.13h3.48v7.58h-8.19q-10.8,0-10.8-11.5v-41.1h11.67v9.23h7.31v8.45h-7.31V426q0,2.44,1,3.31A4.15,4.15,0,0,0,275.28,430.13Z"/><path class="cls-5" d="M306.45,394.34h9.84v42.5h-9.84V433.7q-2.7,4-9,4h-1.83q-10.8,0-10.8-11.5V405q0-11.5,10.8-11.5h1.83q6.27,0,9,4v-3.14Zm-1.83,33.27v-24a1.75,1.75,0,0,0-.48-1.22,1.54,1.54,0,0,0-1.18-.52h-4.79a1.53,1.53,0,0,0-1.18.52,1.75,1.75,0,0,0-.48,1.22v24a1.74,1.74,0,0,0,.48,1.22,1.53,1.53,0,0,0,1.18.52H303a1.54,1.54,0,0,0,1.18-.52A1.75,1.75,0,0,0,304.62,427.61Z"/><path class="cls-5" d="M346.6,380.5q10.8,0,10.8,11.49v11.23q0,11.5-10.8,11.5h-9.84v22.12H324.56V380.5h22Zm-1.39,24.12v-14a1.75,1.75,0,0,0-.48-1.22,1.54,1.54,0,0,0-1.18-.52h-6.79v17.5h6.79a1.54,1.54,0,0,0,1.18-.52A1.75,1.75,0,0,0,345.2,404.62Z"/><path class="cls-5" d="M374.72,436.84H363.06V380.5h11.67v56.34Z"/><path class="cls-5" d="M404.16,394.34H414v42.5h-9.84V433.7q-2.7,4-9,4h-1.83q-10.8,0-10.8-11.5V405q0-11.5,10.8-11.5h1.83q6.27,0,9,4v-3.14Zm-1.83,33.27v-24a1.75,1.75,0,0,0-.48-1.22,1.54,1.54,0,0,0-1.18-.52h-4.79a1.53,1.53,0,0,0-1.18.52,1.75,1.75,0,0,0-.48,1.22v24a1.74,1.74,0,0,0,.48,1.22,1.53,1.53,0,0,0,1.18.52h4.79a1.54,1.54,0,0,0,1.18-.52A1.75,1.75,0,0,0,402.33,427.61Z"/><path class="cls-5" d="M433.59,436.84H421.92v-42.5h10.62v2.18q2.7-3,8.19-3h1.83q10.8,0,10.8,11.5v31.87H441.69V403.57a1.75,1.75,0,0,0-.48-1.22,1.54,1.54,0,0,0-1.18-.52h-4.79a1.53,1.53,0,0,0-1.18.52,1.75,1.75,0,0,0-.48,1.22v33.27Z"/><path class="cls-5" d="M481.92,393.47q10.8,0,10.8,11.5v13.76H473v8.88a1.74,1.74,0,0,0,.48,1.22,1.53,1.53,0,0,0,1.18.52h4.79a1.54,1.54,0,0,0,1.18-.52,1.75,1.75,0,0,0,.48-1.22v-4.7h11.67v3.31q0,11.5-10.8,11.5h-9.84q-10.8,0-10.8-11.5V405q0-11.5,10.8-11.5h9.84Zm-9,17.59h8.1v-7.84a1.75,1.75,0,0,0-.48-1.22,1.54,1.54,0,0,0-1.18-.52h-4.79a1.53,1.53,0,0,0-1.18.52,1.75,1.75,0,0,0-.48,1.22v7.84Z"/></svg>