<svg id="Layer_1" data-name="Layer 1" xmlns="http://www.w3.org/2000/svg" viewBox="0 0 600 240"><defs><style>.cls-1,.cls-2,.cls-3{fill:#fff;}.cls-2{font-size:84.74px;font-weight:700;}.cls-2,.cls-3{font-family:Roboto;}.cls-3{font-size:52.63px;}</style></defs><title>OPTEE-Logo</title><path class="cls-1" d="M206.33,66.68A71.1,71.1,0,0,0,139.4,20,73.87,73.87,0,0,0,71.06,66.71C43.37,68.92,19.9,95.55,19.41,125.8A61,61,0,0,0,37,169.2c10.13,10.3,23.06,16,36.4,16h0.16V180H73.44c-11.94,0-23.55-5.12-32.7-14.42A56.55,56.55,0,0,1,24.6,125.88C25,98.15,47.66,72.87,73,71.78l1.73-.07,0.6-1.62a68.66,68.66,0,0,1,64.08-44.9A65.91,65.91,0,0,1,202,70l0.58,1.72,1.81,0c25.78,0.67,48,25.9,47.54,54a58.7,58.7,0,0,1-15,37.41c-9.55,10.73-21.76,16.68-34.39,16.77v5.19c28.58-.19,54-27.81,54.54-59.28C257.61,95.69,234.07,68.51,206.33,66.68Z"/><path class="cls-1" d="M194.13,122H184V105.84a45.5,45.5,0,0,0-91,0V122H82.41C74.69,122,69,128.75,69,136.46v69.83C69,214,74.69,220,82.41,220H194.13A13.66,13.66,0,0,0,208,206.29V136.46C208,128.75,201.84,122,194.13,122ZM111,105.84a27.5,27.5,0,1,1,55,0V122H111V105.84Z"/><rect x="110.68" y="146.62" width="54.63" height="54.63" rx="2.31" ry="2.31"/><path d="M167.71,190.41h-59a1.92,1.92,0,0,1,0-3.85h59A1.92,1.92,0,0,1,167.71,190.41Z"/><path d="M167.71,180.41h-59a1.92,1.92,0,0,1,0-3.85h59A1.92,1.92,0,0,1,167.71,180.41Z"/><path d="M167.71,170.41h-59a1.92,1.92,0,0,1,0-3.85h59A1.92,1.92,0,0,1,167.71,170.41Z"/><path d="M167.71,160.41h-59a1.92,1.92,0,0,1,0-3.85h59A1.92,1.92,0,0,1,167.71,160.41Z"/><path d="M123.23,204.9A1.92,1.92,0,0,1,121.3,203V144a1.92,1.92,0,0,1,3.85,0v59A1.92,1.92,0,0,1,123.23,204.9Z"/><path d="M133.23,204.9A1.92,1.92,0,0,1,131.3,203V144a1.92,1.92,0,0,1,3.85,0v59A1.92,1.92,0,0,1,133.23,204.9Z"/><path d="M143.23,204.9A1.92,1.92,0,0,1,141.3,203V144a1.92,1.92,0,0,1,3.85,0v59A1.92,1.92,0,0,1,143.23,204.9Z"/><path d="M153.23,204.9A1.92,1.92,0,0,1,151.3,203V144a1.92,1.92,0,1,1,3.85,0v59A1.92,1.92,0,0,1,153.23,204.9Z"/><rect class="cls-1" x="115.17" y="150.43" width="46.12" height="46.12" rx="1.95" ry="1.95"/><text class="cls-2" transform="translate(281.08 123.79) rotate(-0.33)">OP-TEE</text><text class="cls-3" transform="translate(486.51 177.56)">.o<tspan x="42.04" y="0">r</tspan><tspan x="59.26" y="0">g</tspan></text></svg>