<svg id="Layer_1" data-name="Layer 1" xmlns="http://www.w3.org/2000/svg" viewBox="0 0 360 500"><defs><style>.cls-1{font-size:84.14px;font-weight:700;}.cls-1,.cls-2,.cls-3{fill:#fff;}.cls-1,.cls-2{font-family:Roboto;}.cls-2{font-size:52.26px;}</style></defs><title>OPTEE-Logo</title><text class="cls-1" transform="translate(34.27 409.52) rotate(-0.33)">OP-TEE</text><text class="cls-2" transform="translate(136.08 465.84)">.o<tspan x="41.75" y="0">r</tspan><tspan x="58.84" y="0">g</tspan></text><path class="cls-3" d="M272.18,83.22A96.29,96.29,0,0,0,181.54,20C140.87,20,104,45.32,89,83.26c-37.5,3-69.29,39.07-70,80a82.61,82.61,0,0,0,23.87,58.78C56.62,236,74.13,243.69,92.2,243.69h0.21v-7H92.2c-16.17,0-31.9-6.94-44.29-19.53-14-14.22-22.16-34.31-21.85-53.74,0.6-37.55,31.23-71.79,65.55-73.26l2.34-.1,0.81-2.2C108.16,51.47,143,27,181.54,27a89.26,89.26,0,0,1,84.78,60.72l0.78,2.33,2.46,0.06c34.91,0.9,65,35.08,64.38,73.15-0.29,18.06-7.67,36.52-20.26,50.66-12.94,14.54-29.47,22.59-46.58,22.72v7c38.71-.26,73.18-37.67,73.86-80.29C341.63,122.51,309.75,85.69,272.18,83.22Z"/><path class="cls-3" d="M255.66,159H242V136.26c0-33.95-28.05-61.47-62-61.47s-62,27.52-62,61.47V159H104.34C93.89,159,86,167.28,86,177.73v94.57C86,282.76,93.89,292,104.34,292H255.66c10.45,0,18.34-9.24,18.34-19.69V177.73C274,167.28,266.11,159,255.66,159ZM143,136.26a37.5,37.5,0,1,1,75,0V159H143V136.26Z"/><rect x="142.64" y="191.49" width="73.99" height="73.99" rx="3.12" ry="3.12"/><path d="M219.88,250.79H140a2.6,2.6,0,0,1,0-5.21h79.87A2.6,2.6,0,0,1,219.88,250.79Z"/><path d="M219.88,237.25H140a2.6,2.6,0,1,1,0-5.21h79.87A2.6,2.6,0,0,1,219.88,237.25Z"/><path d="M219.88,223.71H140a2.6,2.6,0,1,1,0-5.21h79.87A2.6,2.6,0,0,1,219.88,223.71Z"/><path d="M219.88,210.16H140a2.6,2.6,0,0,1,0-5.21h79.87A2.6,2.6,0,0,1,219.88,210.16Z"/><path d="M159.63,270.41a2.6,2.6,0,0,1-2.6-2.6V187.94a2.6,2.6,0,1,1,5.21,0v79.87A2.6,2.6,0,0,1,159.63,270.41Z"/><path d="M173.17,270.41a2.6,2.6,0,0,1-2.6-2.6V187.94a2.6,2.6,0,0,1,5.21,0v79.87A2.6,2.6,0,0,1,173.17,270.41Z"/><path d="M186.72,270.41a2.6,2.6,0,0,1-2.6-2.6V187.94a2.6,2.6,0,0,1,5.21,0v79.87A2.6,2.6,0,0,1,186.72,270.41Z"/><path d="M200.26,270.41a2.6,2.6,0,0,1-2.6-2.6V187.94a2.6,2.6,0,0,1,5.21,0v79.87A2.6,2.6,0,0,1,200.26,270.41Z"/><rect class="cls-3" x="148.71" y="196.64" width="62.46" height="62.46" rx="2.64" ry="2.64"/></svg>