<?xml version="1.0" encoding="utf-8"?>
<!-- Generator: Adobe Illustrator 21.1.0, SVG Export Plug-In . SVG Version: 6.00 Build 0)  -->
<svg version="1.1" xmlns="http://www.w3.org/2000/svg" xmlns:xlink="http://www.w3.org/1999/xlink" x="0px" y="0px"
	 viewBox="0 0 360 500" style="enable-background:new 0 0 360 500;" xml:space="preserve">
<style type="text/css">
	.st0{display:none;}
	.st1{display:inline;}
	.st2{fill:#0084AB;}
	.st3{fill:#FFFFFF;}
	.st4{fill:#A4D233;}
	.st5{fill:#666666;}
	.st6{fill:#808080;}
</style>
<g id="BG" class="st0">
	<rect x="-67.1" y="-1561.3" class="st1" width="1038.1" height="1575.2"/>
</g>
<g id="Layer_1">
	<g>
		<g>
			<path class="st3" d="M88.6,380.7c0,5.9-1,11.1-3,15.5c-2.1,4.4-5,7.9-8.9,10.3c-3.9,2.4-8.3,3.7-13.3,3.7c-5,0-9.4-1.1-13.3-3.5
				s-6.9-5.7-9.1-10.2c-2.2-4.4-3.3-9.5-3.3-15.2l0-3c0-5.9,1-11.1,3.1-15.6c2.1-4.5,5.1-7.9,8.9-10.4c3.9-2.4,8.3-3.6,13.3-3.7
				s9.4,1.1,13.3,3.5c3.9,2.4,6.9,5.8,9.1,10.3c2.1,4.5,3.2,9.6,3.3,15.5L88.6,380.7z M76.1,378c0-6.3-1.2-11-3.5-14.3
				c-2.3-3.2-5.5-4.9-9.6-4.8c-4.1,0-7.3,1.7-9.5,4.9c-2.2,3.2-3.3,8-3.3,14.2l0,2.9c0,6.1,1.2,10.8,3.4,14.2c2.3,3.4,5.5,5,9.7,5
				c4.1,0,7.3-1.7,9.5-4.9c2.2-3.3,3.3-8,3.3-14.2L76.1,378z"/>
			<path class="st3" d="M109.9,388l0.1,21.1l-12.3,0.1l-0.3-59.8l23.3-0.1c4.5,0,8.4,0.8,11.9,2.4c3.4,1.6,6.1,3.9,7.9,7
				c1.9,3,2.8,6.5,2.8,10.3c0,5.9-1.9,10.5-5.9,13.9c-4,3.4-9.5,5.1-16.6,5.2L109.9,388z M109.9,378l11-0.1c3.3,0,5.7-0.8,7.4-2.3
				c1.7-1.5,2.5-3.7,2.5-6.6c0-2.9-0.9-5.3-2.6-7.1c-1.7-1.8-4.1-2.7-7.2-2.8l-11.3,0.1L109.9,378z"/>
			<path class="st3" d="M174.2,387.9L151,388l-0.1-9.6l23.1-0.1L174.2,387.9z"/>
			<path class="st3" d="M229.3,358.6l-18.3,0.1l0.3,49.8l-12.3,0.1l-0.3-49.8l-18.1,0.1l-0.1-10l48.7-0.3L229.3,358.6z"/>
			<path class="st3" d="M272.5,382.2l-23.7,0.1l0.1,16.1l27.8-0.2l0.1,9.9l-40.1,0.2l-0.3-59.8l40-0.2l0.1,10l-27.7,0.2l0.1,14.3
				l23.7-0.1L272.5,382.2z"/>
			<path class="st3" d="M319.8,381.9l-23.7,0.1l0.1,16.1L324,398l0.1,9.9l-40.1,0.2l-0.3-59.8l40-0.2l0.1,10l-27.7,0.2l0.1,14.3
				l23.7-0.1L319.8,381.9z"/>
		</g>
		<g>
			<path class="st3" d="M139.8,464c0-0.6,0.2-1.1,0.6-1.5s0.9-0.6,1.6-0.6c0.7,0,1.2,0.2,1.6,0.6c0.4,0.4,0.6,0.9,0.6,1.5
				s-0.2,1.1-0.6,1.5c-0.4,0.4-0.9,0.6-1.6,0.6c-0.7,0-1.2-0.2-1.6-0.6S139.8,464.6,139.8,464z"/>
			<path class="st3" d="M150.9,451.6c0-2.7,0.5-5,1.5-7.2c1-2.1,2.5-3.8,4.4-5c1.9-1.2,4-1.8,6.4-1.8c3.7,0,6.7,1.3,8.9,3.9
				s3.4,6,3.4,10.2v0.6c0,2.7-0.5,5.1-1.5,7.2c-1,2.1-2.5,3.8-4.4,4.9s-4,1.7-6.4,1.7c-3.7,0-6.6-1.3-8.9-3.9s-3.4-6-3.4-10.2V451.6
				z M153.9,452.5c0,3.3,0.9,6,2.6,8.1c1.7,2.1,4,3.2,6.7,3.2c2.8,0,5-1.1,6.7-3.2c1.7-2.1,2.6-4.9,2.6-8.4v-0.6
				c0-2.1-0.4-4-1.2-5.8c-0.8-1.8-1.9-3.1-3.3-4.1s-3-1.4-4.8-1.4c-2.7,0-4.9,1.1-6.7,3.2s-2.6,4.9-2.6,8.4V452.5z"/>
			<path class="st3" d="M194.6,440.8c-0.6-0.1-1.3-0.2-2.1-0.2c-1.9,0-3.5,0.5-4.8,1.6c-1.3,1.1-2.3,2.6-2.8,4.6v19h-3v-27.6h3
				l0.1,4.4c1.6-3.3,4.2-4.9,7.8-4.9c0.9,0,1.5,0.1,2,0.3L194.6,440.8z"/>
			<path class="st3" d="M197.7,451.8c0-4.3,1-7.7,2.9-10.3c1.9-2.5,4.5-3.8,7.8-3.8c3.8,0,6.6,1.5,8.6,4.5l0.2-4h2.9v27
				c0,3.6-1,6.4-3,8.4s-4.7,3.1-8.1,3.1c-1.9,0-3.8-0.4-5.5-1.3c-1.7-0.9-3.1-2-4.1-3.4l1.7-1.8c2.2,2.7,4.7,4,7.7,4
				c2.6,0,4.5-0.8,6-2.3c1.4-1.5,2.2-3.6,2.2-6.3v-3.5c-2,2.7-4.8,4.1-8.5,4.1c-3.2,0-5.8-1.3-7.7-3.8c-1.9-2.6-2.9-6-2.9-10.3
				V451.8z M200.8,452.3c0,3.5,0.7,6.3,2.1,8.3c1.4,2,3.4,3,6,3c3.8,0,6.4-1.7,8-5.1v-12.8c-0.7-1.8-1.7-3.1-3.1-4
				c-1.3-0.9-3-1.4-4.8-1.4c-2.6,0-4.6,1-6,3C201.5,445.4,200.8,448.4,200.8,452.3z"/>
		</g>
		<g>
			<path class="st2" d="M272.2,83.2C258.4,45.3,222.3,20,181.5,20C140.9,20,104,45.3,89,83.3c-37.5,3-69.3,39.1-70,80
				c-0.3,21.6,8.4,43,23.9,58.8c13.7,13.9,31.2,21.6,49.3,21.6h0.2c0-2.3,0-4.7,0-7h-0.2c-16.2,0-31.9-6.9-44.3-19.5
				c-14-14.2-22.2-34.3-21.8-53.7c0.6-37.6,31.2-71.8,65.6-73.3l2.3-0.1l0.8-2.2C108.2,51.5,143,27,181.5,27
				c38.5,0,72.6,24.4,84.8,60.7l0.8,2.3l2.5,0.1c34.9,0.9,65,35.1,64.4,73.1c-0.3,18.1-7.7,36.5-20.3,50.7
				c-12.9,14.5-29.5,22.6-46.6,22.7c0,2.3,0,4.7,0,7c38.7-0.3,73.2-37.7,73.9-80.3C341.6,122.5,309.8,85.7,272.2,83.2z"/>
			<path class="st5" d="M255.7,159.2h-13.7v-22.9c0-33.9-28.1-61.5-62-61.5s-62,27.5-62,61.5v22.9h-13.6c-10.5,0-18.4,8.1-18.4,18.6
				v94.6c0,10.4,7.9,19.9,18.4,19.9h151.3c10.4,0,18.3-9.4,18.3-19.9v-94.6C273.9,167.3,266.1,159.2,255.7,159.2z M142.9,136.3
				c0-20.9,16.6-37.8,37.5-37.8c20.9,0,37.5,16.9,37.5,37.8v22.9h-75V136.3z M219.9,218.2c1.4,0,2.6,1.6,2.6,3c0,1.4-1.2,3-2.6,3
				h-2.9v8h2.9c1.4,0,2.6,1.1,2.6,2.5s-1.2,2.5-2.6,2.5h-2.9v9h2.9c1.4,0,2.6,1.1,2.6,2.5s-1.2,2.5-2.6,2.5h-2.9v11.2
				c0,1.7-1.7,2.8-3.4,2.8h-10.6v2.6c0,1.4-1.1,2.6-2.5,2.6s-2.5-1.2-2.5-2.6v-2.6h-9v2.6c0,1.4-1.1,2.6-2.5,2.6
				c-1.4,0-2.5-1.2-2.5-2.6v-2.6h-8v2.6c0,1.4-1.1,2.6-2.5,2.6c-1.4,0-2.5-1.2-2.5-2.6v-2.6h-9v2.6c0,1.4-1.1,2.6-2.5,2.6
				s-2.5-1.2-2.5-2.6v-2.6h-11.2c-1.7,0-2.8-1.1-2.8-2.8v-11.2H140c-1.4,0-2.6-1.1-2.6-2.5s1.2-2.5,2.6-2.5h2.9v-9H140
				c-1.4,0-2.6-1.1-2.6-2.5s1.2-2.5,2.6-2.5h2.9v-8H140c-1.4,0-2.6-1.6-2.6-3c0-1.4,1.2-3,2.6-3h2.9v-8H140c-1.4,0-2.6-1.1-2.6-2.5
				c0-1.4,1.2-2.5,2.6-2.5h2.9v-10.6c0-1.7,1.1-3.4,2.8-3.4h11.2v-3.2c0-1.4,1.1-2.6,2.5-2.6s2.5,1.2,2.5,2.6v3.2h9v-3.2
				c0-1.4,1.1-2.6,2.5-2.6c1.4,0,2.5,1.2,2.5,2.6v3.2h8v-3.2c0-1.4,1.1-2.6,2.5-2.6c1.4,0,2.5,1.2,2.5,2.6v3.2h9v-3.2
				c0-1.4,1.1-2.6,2.5-2.6s2.5,1.2,2.5,2.6v3.2h10.6c1.7,0,3.4,1.7,3.4,3.4v10.6h2.9c1.4,0,2.6,1.1,2.6,2.5c0,1.4-1.2,2.5-2.6,2.5
				h-2.9v8H219.9z"/>
			<path class="st4" d="M151.3,196.6c-1.5,0-2.6,1.2-2.6,2.6v57.2c0,1.5,1.2,2.6,2.6,2.6h57.2c1.5,0,2.6-1.2,2.6-2.6v-57.2
				c0-1.5-1.2-2.6-2.6-2.6H151.3z"/>
		</g>
	</g>
</g>
</svg>
