<?xml version="1.0" encoding="utf-8"?>
<!-- Generator: Adobe Illustrator 21.1.0, SVG Export Plug-In . SVG Version: 6.00 Build 0)  -->
<svg version="1.1" xmlns="http://www.w3.org/2000/svg" xmlns:xlink="http://www.w3.org/1999/xlink" x="0px" y="0px"
	 viewBox="0 0 600 240" style="enable-background:new 0 0 600 240;" xml:space="preserve">
<style type="text/css">
	.st0{display:none;}
	.st1{display:inline;}
	.st2{fill:#0084AB;}
	.st3{fill:#FFFFFF;}
	.st4{fill:#A4D233;}
	.st5{fill:#666666;}
	.st6{fill:#808080;}
</style>
<g id="BG" class="st0">
</g>
<g id="Layer_1">
	<g>
		<path d="M335.8,94.7c0,5.9-1,11.1-3.1,15.6c-2.1,4.5-5.1,7.9-8.9,10.4c-3.9,2.4-8.4,3.7-13.4,3.7c-5,0-9.5-1.1-13.4-3.5
			c-3.9-2.4-7-5.8-9.2-10.2c-2.2-4.4-3.3-9.6-3.4-15.4l0-3c0-5.9,1-11.2,3.1-15.7c2.1-4.5,5.1-8,9-10.4c3.9-2.4,8.3-3.7,13.4-3.7
			c5,0,9.5,1.2,13.4,3.5c3.9,2.4,7,5.8,9.1,10.3c2.2,4.5,3.3,9.7,3.3,15.6L335.8,94.7z M323.2,92.1c0-6.3-1.2-11.1-3.5-14.4
			c-2.3-3.3-5.5-4.9-9.7-4.9c-4.2,0-7.4,1.7-9.6,4.9c-2.2,3.3-3.4,8-3.4,14.3l0,2.9c0,6.2,1.2,10.9,3.5,14.3c2.3,3.4,5.5,5.1,9.8,5
			c4.2,0,7.4-1.7,9.6-5c2.2-3.3,3.3-8.1,3.3-14.3L323.2,92.1z"/>
		<path d="M357.3,102.1l0.1,21.2l-12.4,0.1l-0.3-60.2l23.5-0.1c4.5,0,8.5,0.8,12,2.4c3.4,1.6,6.1,4,8,7c1.9,3,2.8,6.5,2.8,10.4
			c0,5.9-2,10.6-6,14c-4,3.4-9.6,5.2-16.7,5.2L357.3,102.1z M357.2,92.1l11.1-0.1c3.3,0,5.8-0.8,7.5-2.4c1.7-1.6,2.6-3.8,2.5-6.6
			c0-3-0.9-5.3-2.6-7.1c-1.7-1.8-4.2-2.7-7.2-2.8l-11.4,0.1L357.2,92.1z"/>
		<path d="M422,102l-23.3,0.1l-0.1-9.6l23.3-0.1L422,102z"/>
		<path d="M477.5,72.5l-18.5,0.1l0.3,50.2l-12.4,0.1l-0.3-50.2l-18.2,0.1l-0.1-10.1l49.1-0.3L477.5,72.5z"/>
		<path d="M521,96.2l-23.8,0.1l0.1,16.2l28-0.2l0.1,10l-40.4,0.2l-0.3-60.2l40.3-0.2l0.1,10.1L497,72.4l0.1,14.4l23.8-0.1L521,96.2z
			"/>
		<path d="M568.6,96l-23.8,0.1l0.1,16.2l28-0.2l0.1,10l-40.4,0.2l-0.3-60.2l40.3-0.2l0.1,10.1l-27.9,0.2l0.1,14.4l23.8-0.1L568.6,96
			z"/>
	</g>
	<g>
		<path d="M490.2,175.7c0-0.6,0.2-1.1,0.6-1.5c0.4-0.4,0.9-0.6,1.6-0.6c0.7,0,1.2,0.2,1.6,0.6c0.4,0.4,0.6,0.9,0.6,1.5
			s-0.2,1.1-0.6,1.5c-0.4,0.4-0.9,0.6-1.6,0.6c-0.7,0-1.2-0.2-1.6-0.6C490.4,176.8,490.2,176.3,490.2,175.7z"/>
		<path d="M501.4,163.2c0-2.7,0.5-5.1,1.6-7.2c1-2.1,2.5-3.8,4.4-5c1.9-1.2,4-1.8,6.4-1.8c3.7,0,6.7,1.3,9,3.9
			c2.3,2.6,3.4,6,3.4,10.3v0.6c0,2.7-0.5,5.1-1.6,7.3s-2.5,3.8-4.4,5c-1.9,1.2-4,1.7-6.5,1.7c-3.7,0-6.7-1.3-9-3.9
			c-2.3-2.6-3.5-6-3.5-10.3V163.2z M504.5,164.1c0,3.3,0.9,6.1,2.6,8.2c1.7,2.1,4,3.2,6.8,3.2c2.8,0,5-1.1,6.7-3.2
			c1.7-2.1,2.6-4.9,2.6-8.4v-0.6c0-2.1-0.4-4.1-1.2-5.8c-0.8-1.8-1.9-3.1-3.3-4.1c-1.4-1-3-1.5-4.9-1.5c-2.7,0-5,1.1-6.7,3.2
			c-1.7,2.2-2.6,5-2.6,8.4V164.1z"/>
		<path d="M545.4,152.4c-0.7-0.1-1.3-0.2-2.1-0.2c-1.9,0-3.5,0.5-4.9,1.6s-2.3,2.6-2.8,4.7v19.1h-3.1v-27.8h3l0.1,4.4
			c1.6-3.3,4.2-4.9,7.8-4.9c0.9,0,1.5,0.1,2,0.3L545.4,152.4z"/>
		<path d="M548.5,163.4c0-4.4,1-7.8,2.9-10.3c1.9-2.5,4.5-3.8,7.9-3.8c3.8,0,6.7,1.5,8.6,4.5l0.2-4h2.9V177c0,3.6-1,6.4-3,8.5
			c-2,2.1-4.7,3.1-8.1,3.1c-1.9,0-3.8-0.4-5.5-1.3c-1.8-0.9-3.1-2-4.2-3.5l1.7-1.9c2.2,2.7,4.8,4,7.8,4c2.6,0,4.6-0.8,6-2.3
			c1.4-1.5,2.2-3.6,2.2-6.3V174c-2,2.7-4.8,4.1-8.6,4.1c-3.2,0-5.8-1.3-7.8-3.9s-2.9-6-2.9-10.4V163.4z M551.7,163.9
			c0,3.5,0.7,6.3,2.1,8.4c1.4,2,3.4,3.1,6,3.1c3.8,0,6.5-1.7,8-5.1v-12.9c-0.7-1.8-1.8-3.1-3.1-4.1c-1.4-0.9-3-1.4-4.9-1.4
			c-2.6,0-4.6,1-6,3C552.4,157,551.7,160,551.7,163.9z"/>
	</g>
	<g>
		<path class="st2" d="M206.3,66.7c-10.2-28-36.9-46.7-66.9-46.7c-30,0-57.3,18.7-68.3,46.7c-27.7,2.2-51.2,28.8-51.7,59.1
			c-0.3,15.9,6.2,31.8,17.6,43.4c10.1,10.3,23.1,16,36.4,16h0.2c0-1.7,0-3.5,0-5.2h-0.2c-11.9,0-23.6-5.1-32.7-14.4
			c-10.3-10.5-16.4-25.3-16.1-39.7C25,98.1,47.7,72.9,73,71.8l1.7-0.1l0.6-1.6c9.9-26.9,35.6-44.9,64.1-44.9
			c28.4,0,53.6,18,62.6,44.8l0.6,1.7l1.8,0c25.8,0.7,48,25.9,47.5,54c-0.2,13.3-5.7,27-15,37.4c-9.6,10.7-21.8,16.7-34.4,16.8
			c0,1.7,0,3.5,0,5.2c28.6-0.2,54-27.8,54.5-59.3C257.6,95.7,234.1,68.5,206.3,66.7z"/>
		<path class="st5" d="M194.1,122H184v-16.2c0-25.1-20.4-45.4-45.5-45.4S93,80.8,93,105.8V122H82.4c-7.7,0-13.4,6.7-13.4,14.5v69.8
			c0,7.7,5.7,13.7,13.4,13.7h111.7c7.7,0,13.9-6,13.9-13.7v-69.8C208,128.7,201.8,122,194.1,122z M111,105.8
			c0-15.4,12.1-27.9,27.5-27.9S166,90.4,166,105.8V122h-55V105.8z M167.7,167c1.1,0,1.9,0.4,1.9,1.5s-0.9,1.5-1.9,1.5H165v7h2.7
			c1.1,0,1.9,0.4,1.9,1.5c0,1.1-0.9,1.5-1.9,1.5H165v7h2.7c1.1,0,1.9,0.4,1.9,1.5s-0.9,1.5-1.9,1.5H165v8.9c0,1.3-0.7,2.1-2,2.1h-8
			v2c0,1.1-0.9,1.9-2,1.9s-2-0.9-2-1.9v-2h-6v2c0,1.1-0.9,1.9-2,1.9c-1.1,0-2-0.9-2-1.9v-2h-6v2c0,1.1-0.9,1.9-2,1.9
			c-1.1,0-2-0.9-2-1.9v-2h-6v2c0,1.1-0.9,1.9-2,1.9c-1.1,0-2-0.9-2-1.9v-2h-8c-1.3,0-2-0.8-2-2.1V190h-2.3c-1.1,0-1.9-0.4-1.9-1.5
			s0.9-1.5,1.9-1.5h2.3v-7h-2.3c-1.1,0-1.9-0.4-1.9-1.5c0-1.1,0.9-1.5,1.9-1.5h2.3v-7h-2.3c-1.1,0-1.9-0.4-1.9-1.5s0.9-1.5,1.9-1.5
			h2.3v-7h-2.3c-1.1,0-1.9-0.4-1.9-1.5c0-1.1,0.9-1.5,1.9-1.5h2.3v-8.1c0-1.3,0.7-1.9,2-1.9h8v-3c0-1.1,0.9-1.9,2-1.9
			c1.1,0,2,0.9,2,1.9v3h6v-3c0-1.1,0.9-1.9,2-1.9c1.1,0,2,0.9,2,1.9v3h6v-3c0-1.1,0.9-1.9,2-1.9c1.1,0,2,0.9,2,1.9v3h6v-3
			c0-1.1,0.9-1.9,2-1.9s2,0.9,2,1.9v3h8c1.3,0,2,0.7,2,1.9v8.1h2.7c1.1,0,1.9,0.4,1.9,1.5c0,1.1-0.9,1.5-1.9,1.5H165v7H167.7z"/>
		<path class="st4" d="M117.1,150.4c-1.1,0-1.9,0.9-1.9,1.9v42.2c0,1.1,0.9,1.9,1.9,1.9h42.2c1.1,0,1.9-0.9,1.9-1.9v-42.2
			c0-1.1-0.9-1.9-1.9-1.9H117.1z"/>
	</g>
</g>
</svg>
