<svg xmlns="http://www.w3.org/2000/svg" viewBox="0 0 110 110"><defs><style>.cls-1,.cls-2{fill:#fff;}.cls-1,.cls-3{stroke:#fff;stroke-miterlimit:10;}.cls-1{stroke-width:0;}.cls-3{fill:none;stroke-width:1.16px;}</style></defs><title>AI  NO CIRCLE</title><g id="map"><path class="cls-1" d="M65.82,25.06a9.74,9.74,0,0,1,4.9,9.55L68.89,51.34a4.19,4.19,0,0,1-4.63,3.72L63,66.55a4.2,4.2,0,0,1,3.72,4.63L65.65,81.1c2.52.5,5,1,7.59,1.29,4.63.54,7.06-2.53,5.67-7a2.57,2.57,0,0,1,.55-2.73c1-1.13,1-1.66,0-2.81,1.18-.86,1.32-1.47.83-2.93-.26-.8-.37-1.65-.56-2.51,1-.23,1.75-.39,2.5-.58,1.23-.31,1.66-1,1.29-2.2a12.11,12.11,0,0,0-1-2.22c-1.41-2.62-2.84-5.22-4.32-7.9,2.09-1.9,2.31-4.17,1.68-6.67a35.28,35.28,0,0,0-3.66-9.08A27.35,27.35,0,0,0,65.82,25.06Z"/><path class="cls-2" d="M37.45,64.27,34.89,87.16l17.92,2,2.56-22.89ZM51.21,86.91,37,85.32l.57-5.12,14.26,1.59ZM52,80,37.73,78.37l.57-5.12,14.26,1.59ZM52.76,73,38.5,71.42l.57-5.12,14.26,1.59Z"/><rect class="cls-3" x="37.19" y="81.02" width="14.35" height="5.15" transform="translate(9.53 -4.4) rotate(6.36)"/><rect class="cls-3" x="37.97" y="74.07" width="14.35" height="5.15" transform="translate(8.77 -4.53) rotate(6.36)"/><path class="cls-2" d="M74.34,83.48a8.94,8.94,0,0,1-1.14-.07c-2.7-.31-5.4-.85-8-1.37l-2.51-.49a2.28,2.28,0,0,1-1.42-1.25c-2.11-4-4.37-8.28-6.57-12.54-.21-.4-.32-.46-.66-.49-3.23-.32-6.45-.66-9.68-1-2.93-.3-5.85-.61-8.78-.9a6.7,6.7,0,0,1-5.41-3c-5.55-8.8-6.4-17.58-2.52-26.09,3.62-7.95,10.06-12.91,19.13-14.74a29,29,0,0,1,16.71,1.22c5.75,2.3,10.25,6.4,13.77,12.54A36.64,36.64,0,0,1,81,44.62c.73,2.9.27,5.24-1.4,7.1l.79,1.43c1.07,2,2.12,3.87,3.16,5.8a12.86,12.86,0,0,1,1,2.41,2.81,2.81,0,0,1-.12,2.23,2.85,2.85,0,0,1-1.9,1.27L81,65.22a11.19,11.19,0,0,0,.34,1.41c.44,1.34.5,2.38-.44,3.41.67,1.15.47,2.1-.6,3.33A1.55,1.55,0,0,0,80,75.11c.79,2.52.5,4.78-.8,6.35A6.06,6.06,0,0,1,74.34,83.48ZM63.22,79.56l2.37.46c2.57.51,5.23,1,7.85,1.35,1.85.21,3.32-.22,4.15-1.22s1-2.59.42-4.43a3.55,3.55,0,0,1,.76-3.7c.62-.72.62-.72,0-1.48L78,69.7l.89-.65c.75-.55.84-.66.47-1.78A16,16,0,0,1,79,65.45c0-.26-.1-.52-.16-.78l-.22-1,1.92-.44,1.56-.37c.51-.13.61-.28.62-.29a.94.94,0,0,0-.06-.61,10.94,10.94,0,0,0-.89-2c-1-1.92-2.08-3.84-3.15-5.78L77,51.32l.6-.55c1.57-1.43,2-3.17,1.38-5.65a34.72,34.72,0,0,0-3.56-8.82C72.18,30.59,68,26.78,62.71,24.66a26.57,26.57,0,0,0-15.54-1.12C38.78,25.23,32.84,29.8,29.5,37.11c-3.62,8-2.84,15.85,2.39,24.14a4.74,4.74,0,0,0,3.87,2.07l8.8.9c3.22.34,6.44.68,9.66,1a2.68,2.68,0,0,1,2.29,1.59c2.2,4.26,4.45,8.53,6.56,12.52A2.33,2.33,0,0,0,63.22,79.56Zm.05,0Z"/><path class="cls-2" d="M53.29,73.71,37.84,72l.7-6.3L54,67.41ZM39.16,70.94,52.24,72.4l.43-3.94L39.6,67Z"/><rect class="cls-2" x="43.92" y="36.72" width="10.56" height="10.56" transform="translate(4.83 -5.07) rotate(6.2)"/><path class="cls-2" d="M54.4,48.47,42.72,47.2,44,35.52l11.68,1.27ZM44,46.15l9.31,1,1-9.31-9.31-1Z"/><rect class="cls-2" x="41.93" y="35.51" width="0.6" height="3.35" transform="translate(0.7 75.14) rotate(-83.8)"/><polygon class="cls-2" points="36.42 43.81 33.28 43.47 33.35 42.87 36.32 43.2 39.17 41.84 43.4 42.3 43.34 42.89 39.27 42.45 36.42 43.81"/><path class="cls-2" d="M39.59,38.18h-.14a1.29,1.29,0,0,1-1.14-1.41,1.35,1.35,0,0,1,.47-.87A1.29,1.29,0,0,1,40.86,37h0a1.29,1.29,0,0,1-1.27,1.15Zm0-2a.66.66,0,0,0-.43.15.68.68,0,0,0,.35,1.21.67.67,0,0,0,.51-.14.71.71,0,0,0,.25-.46.69.69,0,0,0-.61-.76Z"/><rect class="cls-2" x="39.5" y="35.74" width="0.6" height="7.67" transform="translate(-3.84 74.86) rotate(-83.8)"/><path class="cls-2" d="M35,40.33h-.14a1.3,1.3,0,0,1-1.14-1.42,1.28,1.28,0,0,1,2.55.28h0A1.28,1.28,0,0,1,35,40.33Zm0-2a.68.68,0,0,0-.08,1.36.68.68,0,1,0,.15-1.36Z"/><path class="cls-2" d="M32.41,44.35h-.14a1.27,1.27,0,0,1-.86-.48,1.23,1.23,0,0,1-.28-.94,1.32,1.32,0,0,1,.47-.86,1.29,1.29,0,0,1,.94-.27,1.27,1.27,0,0,1,1.14,1.41h0a1.26,1.26,0,0,1-.47.86A1.3,1.3,0,0,1,32.41,44.35Zm0-2a.66.66,0,0,0-.42.15.61.61,0,0,0-.25.46.64.64,0,0,0,.14.5.71.71,0,0,0,.46.25.69.69,0,0,0,.5-.14.68.68,0,0,0,.26-.46.69.69,0,0,0-.61-.76Z"/><polygon class="cls-2" points="36.12 46.58 32.98 46.24 33.05 45.64 36.02 45.97 38.87 44.61 43.1 45.07 43.04 45.66 38.97 45.22 36.12 46.58"/><rect class="cls-2" x="55.57" y="45.06" width="0.6" height="3.31" transform="translate(3.39 97.21) rotate(-83.79)"/><polygon class="cls-2" points="58.9 42.12 54.71 41.66 54.77 41.07 58.79 41.51 61.62 40.16 64.72 40.5 64.65 41.09 61.72 40.78 58.9 42.12"/><path class="cls-2" d="M58.48,48.27h-.13a1.25,1.25,0,0,1-1.13-1.4h0a1.27,1.27,0,1,1,1.26,1.41Zm0-1.94a.67.67,0,0,0-.67.6h0a.67.67,0,0,0,.15.49.66.66,0,0,0,.45.25.67.67,0,0,0,.15-1.34Z"/><rect class="cls-2" x="57.98" y="40.57" width="0.6" height="7.58" transform="translate(7.89 97.5) rotate(-83.8)"/><path class="cls-2" d="M63,46.14h-.14a1.23,1.23,0,0,1-.85-.46,1.28,1.28,0,0,1-.27-.94h0a1.25,1.25,0,0,1,.46-.85,1.28,1.28,0,0,1,.94-.27,1.25,1.25,0,0,1,.85.46,1.28,1.28,0,0,1,.27.94,1.25,1.25,0,0,1-.46.85A1.3,1.3,0,0,1,63,46.14Zm0-1.94a.66.66,0,0,0-.42.15.66.66,0,0,0-.25.45h0a.66.66,0,0,0,.14.49.71.71,0,0,0,.46.25.64.64,0,0,0,.49-.15.66.66,0,0,0,.25-.45.63.63,0,0,0-.15-.49.66.66,0,0,0-.45-.25Z"/><path class="cls-2" d="M65.58,42.17h-.14a1.26,1.26,0,0,1-.85-.47,1.24,1.24,0,0,1-.27-.93,1.26,1.26,0,0,1,1.4-1.13,1.27,1.27,0,0,1-.14,2.54Zm0-2a.68.68,0,0,0-.67.6.65.65,0,0,0,.15.5.66.66,0,0,0,.45.25.67.67,0,0,0,.14-1.34Z"/><polygon class="cls-2" points="59.19 39.38 55.01 38.92 55.07 38.33 59.09 38.77 61.91 37.43 65.01 37.77 64.95 38.36 62.02 38.04 59.19 39.38"/><path class="cls-2" d="M65.88,39.43h-.14A1.27,1.27,0,0,1,64.62,38h0a1.23,1.23,0,0,1,.46-.85A1.28,1.28,0,0,1,66,36.9a1.25,1.25,0,0,1,.85.46,1.28,1.28,0,0,1,.27.94,1.22,1.22,0,0,1-.47.85A1.25,1.25,0,0,1,65.88,39.43Zm0-1.94a.66.66,0,0,0-.67.6h0a.66.66,0,0,0,.14.49.71.71,0,0,0,.46.25.64.64,0,0,0,.49-.15.66.66,0,0,0,.25-.45.63.63,0,0,0-.15-.49.66.66,0,0,0-.45-.25Z"/><rect class="cls-2" x="44.2" y="34.14" width="3.35" height="0.6" transform="translate(6.68 76.33) rotate(-83.81)"/><rect class="cls-2" x="34.68" y="55.74" width="17.8" height="0.6" transform="translate(-16.96 93.12) rotate(-83.62)"/><rect class="cls-2" x="37.35" y="56.03" width="17.8" height="0.6" transform="translate(-14.87 96.04) rotate(-83.62)"/><rect class="cls-2" x="40" y="56.32" width="17.8" height="0.6" transform="translate(-12.8 98.93) rotate(-83.62)"/><rect class="cls-2" x="42.82" y="56.63" width="17.8" height="0.6" transform="translate(-10.6 102) rotate(-83.62)"/><polygon class="cls-2" points="51.42 36.57 50.82 36.51 51.28 32.27 53.25 29.78 53.57 26.81 54.17 26.87 53.82 30.01 51.86 32.51 51.42 36.57"/><path class="cls-2" d="M46.16,33.08H46a1.28,1.28,0,1,1,.14,0Zm-.08-.6a.69.69,0,0,0,.77-.61.68.68,0,0,0-.62-.75.7.7,0,0,0-.77.6.69.69,0,0,0,.62.76Z"/><rect class="cls-2" x="44.94" y="32.28" width="7.67" height="0.6" transform="translate(11.12 77.56) rotate(-83.81)"/><path class="cls-2" d="M49.3,29.08h-.14a1.28,1.28,0,1,1,.27-2.55,1.32,1.32,0,0,1,.88.48,1.27,1.27,0,0,1,.28.93,1.3,1.3,0,0,1-.48.87A1.33,1.33,0,0,1,49.3,29.08Zm-.08-.61a.69.69,0,0,0,.52-.14.71.71,0,0,0,.25-.46.7.7,0,0,0-.14-.5.74.74,0,0,0-.48-.26.7.7,0,0,0-.52.15.68.68,0,0,0,.37,1.21Z"/><path class="cls-2" d="M53.86,27.41h-.14A1.28,1.28,0,1,1,54,24.85a1.34,1.34,0,0,1,.88.48,1.27,1.27,0,0,1,.27.93,1.29,1.29,0,0,1-1.29,1.15Zm-.08-.6a.73.73,0,0,0,.52-.15.63.63,0,0,0,.25-.46.66.66,0,0,0-.14-.5.74.74,0,0,0-.48-.26.76.76,0,0,0-.52.15.68.68,0,0,0-.25.46.71.71,0,0,0,.62.76Z"/><polygon class="cls-2" points="54.24 36.88 53.64 36.81 54.1 32.58 56.07 30.08 56.39 27.12 56.99 27.18 56.65 30.32 54.68 32.81 54.24 36.88"/><path class="cls-2" d="M56.68,27.71h-.14a1.3,1.3,0,0,1-1.16-1.41,1.27,1.27,0,0,1,.48-.86,1.29,1.29,0,1,1,.82,2.28Zm-.08-.6a.68.68,0,1,0-.37-1.21.66.66,0,0,0-.25.45.69.69,0,0,0,.62.76Z"/></g></svg>