<svg xmlns="http://www.w3.org/2000/svg" viewBox="0 0 150 150"><defs><style>.cls-1{opacity:0.69;}.cls-2,.cls-5{fill:none;}.cls-2{stroke:#9c3;stroke-linecap:round;stroke-width:3px;stroke-dasharray:0.5 8.04;}.cls-2,.cls-3,.cls-5{stroke-miterlimit:10;}.cls-3,.cls-4{fill:#fff;}.cls-3,.cls-5{stroke:#fff;}.cls-3{stroke-width:0;}.cls-5{stroke-width:1.16px;}</style></defs><title>AI</title><g id="map"><g class="cls-1"><circle class="cls-2" cx="75" cy="75" r="65.26" transform="translate(-15.23 130.76) rotate(-76.72)"/></g><path class="cls-3" d="M87.92,45.39a9.74,9.74,0,0,1,4.9,9.54L91,71.67a4.2,4.2,0,0,1-4.63,3.72L85.11,86.88a4.19,4.19,0,0,1,3.71,4.63l-1.07,9.92c2.52.5,5,1,7.58,1.29,4.64.53,7.07-2.54,5.68-7a2.54,2.54,0,0,1,.55-2.72c1-1.13,1-1.67,0-2.81,1.17-.86,1.31-1.47.83-2.93-.26-.8-.38-1.65-.57-2.51,1-.23,1.76-.4,2.51-.59,1.23-.3,1.66-1,1.29-2.19a12.11,12.11,0,0,0-1-2.22c-1.41-2.62-2.85-5.22-4.32-7.91,2.09-1.89,2.3-4.17,1.68-6.67a35.57,35.57,0,0,0-3.66-9.07A27.36,27.36,0,0,0,87.92,45.39Z"/><path class="cls-4" d="M59.54,84.6,57,107.49l17.92,2L77.46,86.6Zm13.77,22.64-14.26-1.59.57-5.12,14.26,1.59Zm.78-6.95L59.82,98.7l.57-5.12,14.27,1.59Zm.77-7L60.6,91.75l.57-5.12,14.26,1.59Z"/><rect class="cls-5" x="59.29" y="101.35" width="14.35" height="5.15" transform="translate(11.92 -6.72) rotate(6.36)"/><rect class="cls-5" x="60.06" y="94.4" width="14.35" height="5.15" transform="translate(11.15 -6.85) rotate(6.36)"/><path class="cls-4" d="M96.43,103.81a8.9,8.9,0,0,1-1.13-.07c-2.7-.31-5.41-.85-8-1.37l-2.51-.49a2.22,2.22,0,0,1-1.42-1.26c-2.11-4-4.37-8.27-6.57-12.53-.21-.41-.32-.46-.67-.49-3.22-.32-6.45-.66-9.67-1-2.93-.3-5.86-.61-8.79-.9a6.74,6.74,0,0,1-5.41-3c-5.55-8.81-6.39-17.58-2.52-26.09,3.63-8,10.06-12.91,19.14-14.74a29,29,0,0,1,16.71,1.22c5.75,2.3,10.25,6.4,13.77,12.53a36.79,36.79,0,0,1,3.76,9.34c.73,2.91.27,5.24-1.4,7.1l.79,1.44c1.07,2,2.12,3.87,3.16,5.8a13.55,13.55,0,0,1,1,2.41,2.78,2.78,0,0,1-.12,2.22,2.84,2.84,0,0,1-1.91,1.27c-.49.13-1,.24-1.55.37a13.24,13.24,0,0,0,.34,1.41c.45,1.34.51,2.38-.43,3.41.67,1.15.47,2.1-.61,3.33a1.56,1.56,0,0,0-.33,1.74c.79,2.52.5,4.78-.8,6.35A6.08,6.08,0,0,1,96.43,103.81ZM85.31,99.88l2.37.47c2.58.51,5.24,1,7.86,1.34a4.51,4.51,0,0,0,4.15-1.21c.84-1,1-2.6.42-4.43a3.57,3.57,0,0,1,.75-3.71c.62-.71.62-.71,0-1.47l-.71-.84.89-.65c.75-.55.83-.66.47-1.78a13.88,13.88,0,0,1-.44-1.83c0-.25-.1-.51-.16-.78l-.22-1,1.91-.44,1.57-.38c.51-.12.6-.27.61-.28s.08-.16,0-.61a10.94,10.94,0,0,0-.89-2c-1-1.93-2.08-3.84-3.15-5.79l-1.55-2.82.6-.55c1.57-1.43,2-3.17,1.37-5.66a34.62,34.62,0,0,0-3.55-8.81C94.27,50.91,90.11,47.11,84.8,45a26.56,26.56,0,0,0-15.54-1.12c-8.38,1.69-14.33,6.25-17.66,13.57C48,65.39,48.76,73.28,54,81.58a4.71,4.71,0,0,0,3.87,2.06l8.79.91c3.22.34,6.45.68,9.67,1a2.66,2.66,0,0,1,2.29,1.59c2.2,4.25,4.45,8.53,6.56,12.52A2.22,2.22,0,0,0,85.31,99.88Zm.06.06Z"/><path class="cls-4" d="M75.39,94,59.94,92.32l.7-6.31,15.45,1.72ZM61.26,91.27l13.07,1.45.44-3.93L61.69,87.33Z"/><rect class="cls-4" x="66.02" y="57.05" width="10.56" height="10.56" transform="translate(7.15 -7.34) rotate(6.2)"/><path class="cls-4" d="M76.5,68.8,64.82,67.53l1.27-11.68,11.68,1.27ZM66.13,66.47l9.31,1,1-9.31-9.3-1Z"/><rect class="cls-4" x="64.03" y="55.84" width="0.6" height="3.35" transform="translate(0.2 115.24) rotate(-83.8)"/><polygon class="cls-4" points="58.52 64.14 55.38 63.79 55.44 63.2 58.41 63.52 61.27 62.17 65.5 62.63 65.44 63.22 61.37 62.78 58.52 64.14"/><path class="cls-4" d="M61.69,58.5h-.14A1.28,1.28,0,1,1,63,57.36h0a1.27,1.27,0,0,1-1.27,1.14Zm0-2a.7.7,0,0,0-.68.61.69.69,0,0,0,1.11.61.63.63,0,0,0,.25-.46.68.68,0,0,0-.6-.76Z"/><rect class="cls-4" x="61.59" y="56.07" width="0.6" height="7.67" transform="translate(-4.34 114.96) rotate(-83.8)"/><path class="cls-4" d="M57.11,60.66H57a1.27,1.27,0,0,1-1.14-1.41,1.28,1.28,0,1,1,2.55.28h0A1.29,1.29,0,0,1,57.11,60.66Zm0-2A.69.69,0,0,0,57,60.06a.7.7,0,0,0,.76-.61.69.69,0,0,0-.61-.75Z"/><path class="cls-4" d="M54.5,64.68h-.14a1.24,1.24,0,0,1-.86-.47,1.28,1.28,0,0,1-.27-.94,1.26,1.26,0,0,1,.47-.86,1.33,1.33,0,0,1,.94-.28,1.3,1.3,0,0,1,1.14,1.42h0a1.32,1.32,0,0,1-.47.86A1.3,1.3,0,0,1,54.5,64.68Zm0-2a.72.72,0,0,0-.43.16.68.68,0,0,0-.1,1,.68.68,0,0,0,.46.25.65.65,0,0,0,.5-.15.68.68,0,0,0-.35-1.21Z"/><polygon class="cls-4" points="58.22 66.91 55.08 66.56 55.14 65.97 58.11 66.29 60.97 64.94 65.2 65.4 65.14 65.99 61.07 65.55 58.22 66.91"/><rect class="cls-4" x="77.67" y="65.39" width="0.6" height="3.31" transform="translate(2.89 137.31) rotate(-83.79)"/><polygon class="cls-4" points="80.99 62.44 76.81 61.99 76.87 61.4 80.89 61.83 83.71 60.49 86.81 60.83 86.75 61.42 83.81 61.1 80.99 62.44"/><path class="cls-4" d="M80.58,68.6h-.14a1.25,1.25,0,0,1-.85-.46,1.28,1.28,0,0,1-.27-.94h0a1.27,1.27,0,1,1,1.26,1.41Zm0-1.94a.67.67,0,0,0-.67.6h0a.63.63,0,0,0,.15.49.66.66,0,0,0,.45.25.67.67,0,0,0,.14-1.34Z"/><rect class="cls-4" x="80.08" y="60.89" width="0.6" height="7.58" transform="translate(7.39 137.6) rotate(-83.8)"/><path class="cls-4" d="M85.11,66.47H85a1.29,1.29,0,0,1-1.13-1.4h0a1.28,1.28,0,0,1,.47-.85,1.26,1.26,0,0,1,.93-.28,1.32,1.32,0,0,1,.86.47,1.27,1.27,0,0,1,.27.93,1.28,1.28,0,0,1-.47.86A1.27,1.27,0,0,1,85.11,66.47Zm0-2a.75.75,0,0,0-.43.15.69.69,0,0,0-.24.45h0a.69.69,0,0,0,.14.5.66.66,0,0,0,.45.25.69.69,0,0,0,.5-.15.66.66,0,0,0,.25-.45.67.67,0,0,0-.15-.49.66.66,0,0,0-.45-.25Z"/><path class="cls-4" d="M87.68,62.49h-.14a1.28,1.28,0,0,1-.85-.47A1.27,1.27,0,0,1,87.82,60a1.27,1.27,0,0,1-.14,2.53Zm0-1.94a.68.68,0,0,0-.53,1.1.69.69,0,0,0,.46.24.67.67,0,0,0,.74-.59.68.68,0,0,0-.6-.75Z"/><polygon class="cls-4" points="81.29 59.71 77.11 59.25 77.17 58.66 81.19 59.09 84.01 57.76 87.11 58.09 87.05 58.69 84.11 58.37 81.29 59.71"/><path class="cls-4" d="M88,59.76h-.14a1.29,1.29,0,0,1-1.13-1.4h0a1.28,1.28,0,0,1,.47-.85,1.26,1.26,0,0,1,.93-.28,1.32,1.32,0,0,1,.86.47,1.27,1.27,0,0,1,.27.93,1.28,1.28,0,0,1-.47.86A1.27,1.27,0,0,1,88,59.76Zm0-1.95a.66.66,0,0,0-.43.15.65.65,0,0,0-.24.45h0a.69.69,0,0,0,.14.5.66.66,0,0,0,.45.25.74.74,0,0,0,.5-.15.66.66,0,0,0,.25-.45.69.69,0,0,0-.15-.5.65.65,0,0,0-.45-.24Z"/><rect class="cls-4" x="66.29" y="54.47" width="3.35" height="0.6" transform="translate(6.19 116.43) rotate(-83.81)"/><rect class="cls-4" x="56.78" y="76.07" width="17.8" height="0.6" transform="translate(-17.52 133.15) rotate(-83.62)"/><rect class="cls-4" x="59.45" y="76.36" width="17.8" height="0.6" transform="translate(-15.43 136.06) rotate(-83.62)"/><rect class="cls-4" x="62.1" y="76.65" width="17.8" height="0.6" transform="translate(-13.36 138.96) rotate(-83.62)"/><rect class="cls-4" x="64.92" y="76.96" width="17.8" height="0.6" transform="translate(-11.16 142.03) rotate(-83.62)"/><polygon class="cls-4" points="73.51 56.9 72.92 56.83 73.38 52.6 75.35 50.1 75.67 47.14 76.26 47.2 75.92 50.34 73.95 52.83 73.51 56.9"/><path class="cls-4" d="M68.26,53.41h-.15a1.29,1.29,0,1,1,.15,0Zm-.08-.6A.7.7,0,0,0,69,52.2a.71.71,0,0,0-.62-.76.72.72,0,0,0-.78.61.71.71,0,0,0,.63.76Z"/><rect class="cls-4" x="67.04" y="52.61" width="7.67" height="0.6" transform="translate(10.63 117.66) rotate(-83.81)"/><path class="cls-4" d="M71.4,49.4h-.15A1.3,1.3,0,0,1,70.1,48a1.27,1.27,0,0,1,.48-.86,1.3,1.3,0,0,1,1-.27,1.32,1.32,0,0,1,.88.48,1.25,1.25,0,0,1,.27.93,1.22,1.22,0,0,1-.47.86A1.29,1.29,0,0,1,71.4,49.4Zm-.08-.6a.66.66,0,0,0,.51-.15.64.64,0,0,0,.26-.45.65.65,0,0,0-.15-.5.66.66,0,0,0-.47-.26.69.69,0,0,0-.52.15.64.64,0,0,0-.26.45.7.7,0,0,0,.63.76Z"/><path class="cls-4" d="M76,47.73h-.14a1.3,1.3,0,0,1-1.16-1.42,1.27,1.27,0,0,1,.48-.86,1.3,1.3,0,0,1,1-.27,1.32,1.32,0,0,1,.88.48,1.26,1.26,0,0,1,.28.93A1.29,1.29,0,0,1,76,47.73Zm-.08-.6A.7.7,0,0,0,76.4,47a.66.66,0,0,0,.25-.45.69.69,0,0,0-.14-.5.72.72,0,0,0-1-.11.66.66,0,0,0-.25.46.68.68,0,0,0,.62.75Z"/><polygon class="cls-4" points="76.33 57.2 75.74 57.14 76.2 52.9 78.17 50.41 78.49 47.44 79.08 47.51 78.74 50.65 76.78 53.14 76.33 57.2"/><path class="cls-4" d="M78.78,48h-.14a1.3,1.3,0,0,1-1.16-1.41,1.31,1.31,0,0,1,1.43-1.14A1.28,1.28,0,0,1,78.78,48Zm-.08-.6a.68.68,0,1,0,.15-1.36.72.72,0,0,0-.52.14.67.67,0,0,0-.25.46.68.68,0,0,0,.62.76Z"/></g></svg>