<svg xmlns="http://www.w3.org/2000/svg" viewBox="0 0 110 110"><defs><style>.cls-1,.cls-2,.cls-4,.cls-5{fill:#fff;}.cls-1,.cls-3,.cls-4,.cls-5,.cls-6{stroke:#fff;stroke-miterlimit:10;}.cls-1{stroke-width:0;}.cls-3,.cls-6{fill:none;}.cls-3,.cls-5{stroke-width:1.16px;}.cls-4{stroke-width:1.14px;}.cls-6{stroke-width:0.58px;}</style></defs><title>AI NO CIRCLE</title><g id="map"><path class="cls-1" d="M65.5,26.66a9.44,9.44,0,0,1,4.76,9.25L68.48,52.15A4.07,4.07,0,0,1,64,55.76L62.77,66.9a4.09,4.09,0,0,1,3.61,4.5l-1,9.62c2.45.49,4.9,1,7.37,1.25,4.49.52,6.85-2.46,5.5-6.76a2.48,2.48,0,0,1,.53-2.64c1-1.1.93-1.62,0-2.73,1.15-.84,1.28-1.43.81-2.85A24.72,24.72,0,0,1,79,64.86c1-.22,1.7-.38,2.43-.57,1.19-.3,1.61-.94,1.25-2.13A11.64,11.64,0,0,0,81.74,60C80.38,57.47,79,55,77.55,52.34c2-1.84,2.24-4.05,1.63-6.47a34,34,0,0,0-3.55-8.81A26.47,26.47,0,0,0,65.5,26.66Z"/><path class="cls-2" d="M38,64.7,35.5,86.9l17.38,1.94,2.48-22.21Zm13.36,22L37.49,85.12l.56-5,13.83,1.54Zm.75-6.74L38.24,78.38l.56-5L52.63,75Zm.75-6.74L39,71.63l.56-5,13.83,1.54Z"/><rect class="cls-3" x="37.73" y="80.94" width="13.92" height="5" transform="translate(9.52 -4.44) rotate(6.36)"/><rect class="cls-3" x="38.48" y="74.2" width="13.92" height="5" transform="translate(8.77 -4.56) rotate(6.36)"/><path class="cls-4" d="M84.47,61.61a13.6,13.6,0,0,0-1.08-2.48c-1-1.86-2-3.65-3-5.56-.19-.33-.37-.67-.55-1,1.51-1.93,1.9-4.29,1.17-7.18a36.17,36.17,0,0,0-3.73-9.26c-3.5-6.11-8-10.2-13.75-12.49a27,27,0,0,0-10.1-1.91,33.62,33.62,0,0,0-6.56.68,27.85,27.85,0,0,0-11.4,4.94,25.16,25.16,0,0,0-7.72,9.8c-3.88,8.51-3,17.28,2.49,26.06a7.36,7.36,0,0,0,5.84,3.29c2.83.28,5.7.58,8.48.88,3.09.32,6.28.65,9.43,1a.09.09,0,0,0,0,.06c2.17,4.21,4.35,8.34,6.37,12.17a2.93,2.93,0,0,0,1.93,1.62l2.44.48c2.54.5,5.18,1,7.83,1.34.41,0,.81.07,1.2.07a6.56,6.56,0,0,0,5.49-2.5A7.29,7.29,0,0,0,80,74.94c-.16-.5-.1-.63.17-.94a3.85,3.85,0,0,0,1.15-2.55,3,3,0,0,0-.23-1.1,3.06,3.06,0,0,0,.46-1,4.5,4.5,0,0,0-.22-2.67c-.06-.17-.1-.35-.15-.53l.77-.19a3.22,3.22,0,0,0,2.53-4.37Zm-3,2.64c-.73.19-1.46.35-2.43.57.19.84.3,1.66.55,2.43.47,1.42.34,2-.81,2.85.93,1.11,1,1.63,0,2.73a2.5,2.5,0,0,0-.53,2.64c1.35,4.3-1,7.28-5.5,6.76-3.41-.39-6.78-1.15-10.15-1.79-.26,0-.53-.42-.68-.71q-3.21-6.06-6.37-12.15a1.59,1.59,0,0,0-1.43-1c-6-.59-11.94-1.25-17.91-1.85a5.58,5.58,0,0,1-4.51-2.46c-4.86-7.72-6.25-15.87-2.38-24.37C32.84,30.24,39,25.8,47.2,24.16a27,27,0,0,1,15.65,1.13c5.75,2.3,9.83,6.45,12.86,11.73a34,34,0,0,1,3.55,8.81c.61,2.42.4,4.63-1.63,6.47,1.43,2.61,2.83,5.13,4.19,7.67a12.4,12.4,0,0,1,.94,2.15C83.11,63.31,82.7,64,81.5,64.25Z"/><path class="cls-3" d="M77.63,52.34C79.06,55,80.46,57.47,81.82,60a12.4,12.4,0,0,1,.94,2.15c.35,1.19-.06,1.83-1.26,2.13-.73.19-1.46.35-2.43.57.19.84.3,1.66.55,2.43.47,1.42.34,2-.81,2.85.93,1.11,1,1.63,0,2.73a2.5,2.5,0,0,0-.53,2.64c1.35,4.3-1,7.28-5.5,6.76-3.41-.39-6.78-1.15-10.15-1.79-.26,0-.53-.42-.68-.71q-3.21-6.06-6.37-12.15a1.59,1.59,0,0,0-1.43-1c-6-.59-11.94-1.25-17.91-1.85a5.58,5.58,0,0,1-4.51-2.46c-4.86-7.72-6.25-15.87-2.38-24.37C32.84,30.28,39,25.84,47.2,24.2a27,27,0,0,1,15.65,1.13c5.75,2.3,9.83,6.45,12.86,11.73a34,34,0,0,1,3.55,8.81C79.87,48.29,79.66,50.5,77.63,52.34Z"/><rect class="cls-3" x="39.23" y="67.46" width="13.92" height="5" transform="translate(8.03 -4.69) rotate(6.36)"/><rect class="cls-5" x="44.25" y="37.96" width="10.24" height="10.24" transform="translate(4.94 -5.08) rotate(6.2)"/><line class="cls-6" x1="41" y1="38.24" x2="44.23" y2="38.59"/><polyline class="cls-6" points="43.72 43.67 39.69 43.23 36.92 44.54 33.96 44.22"/><circle class="cls-6" cx="40.05" cy="38.13" r="0.95"/><line class="cls-6" x1="36.55" y1="40.33" x2="43.95" y2="41.13"/><circle class="cls-6" cx="35.61" cy="40.23" r="0.95"/><circle class="cls-6" cx="33.08" cy="44.13" r="0.95"/><polyline class="cls-6" points="43.43 46.35 39.4 45.92 36.63 47.23 33.67 46.91"/><circle class="cls-6" cx="32.79" cy="46.81" r="0.95"/><line class="cls-6" x1="57.44" y1="47.84" x2="54.25" y2="47.49"/><polyline class="cls-6" points="54.75 42.47 58.73 42.9 61.47 41.6 64.4 41.92"/><circle class="cls-6" cx="58.38" cy="47.94" r="0.94"/><line class="cls-6" x1="61.84" y1="45.77" x2="54.53" y2="44.98"/><circle class="cls-6" cx="62.77" cy="45.87" r="0.94"/><circle class="cls-6" cx="65.27" cy="42.02" r="0.94"/><polyline class="cls-6" points="55.04 39.81 59.02 40.25 61.76 38.95 64.69 39.27"/><circle class="cls-6" cx="65.56" cy="39.36" r="0.94"/><line class="cls-6" x1="46.32" y1="34.14" x2="45.97" y2="37.37"/><line class="cls-6" x1="44.89" y1="48.13" x2="42.96" y2="65.29"/><line class="cls-6" x1="47.48" y1="48.41" x2="45.55" y2="65.58"/><line class="cls-6" x1="50.05" y1="48.69" x2="48.13" y2="65.86"/><line class="cls-6" x1="52.79" y1="48.99" x2="50.86" y2="66.15"/><polyline class="cls-6" points="51.24 37.79 51.67 33.76 53.58 31.34 53.91 28.38"/><ellipse class="cls-6" cx="46.42" cy="33.19" rx="0.95" ry="0.97" transform="translate(8.41 75.75) rotate(-83.8)"/><line class="cls-6" x1="49.36" y1="30.25" x2="48.56" y2="37.65"/><ellipse class="cls-6" cx="49.47" cy="29.3" rx="0.95" ry="0.97" transform="translate(14.99 75.31) rotate(-83.8)"/><ellipse class="cls-6" cx="53.89" cy="27.68" rx="0.95" ry="0.97" transform="translate(20.55 78.27) rotate(-83.8)"/><polyline class="cls-6" points="53.97 38.09 54.41 34.06 56.32 31.64 56.64 28.68"/><ellipse class="cls-6" cx="56.63" cy="27.98" rx="0.95" ry="0.97" transform="translate(22.69 81.26) rotate(-83.8)"/></g></svg>