<svg xmlns="http://www.w3.org/2000/svg" viewBox="0 0 140 140"><defs><style>.cls-1{opacity:0.69;}.cls-2,.cls-5,.cls-8{fill:none;}.cls-2{stroke:#9c3;stroke-linecap:round;stroke-width:3px;stroke-dasharray:0.5 7.97;}.cls-2,.cls-3,.cls-5,.cls-6,.cls-7,.cls-8{stroke-miterlimit:10;}.cls-3,.cls-4,.cls-6,.cls-7{fill:#fff;}.cls-3,.cls-5,.cls-6,.cls-7,.cls-8{stroke:#fff;}.cls-3{stroke-width:0;}.cls-5,.cls-7{stroke-width:1.16px;}.cls-6{stroke-width:1.14px;}.cls-8{stroke-width:0.58px;}</style></defs><title>AI</title><g id="map"><g class="cls-1"><circle class="cls-2" cx="70" cy="70" r="63.32"/></g><path class="cls-3" d="M82.54,41.27a9.46,9.46,0,0,1,4.75,9.26L85.51,66.77A4.06,4.06,0,0,1,81,70.37L79.81,81.52A4.07,4.07,0,0,1,83.41,86l-1,9.63c2.44.49,4.89,1,7.36,1.25,4.5.52,6.85-2.46,5.51-6.77a2.48,2.48,0,0,1,.52-2.64c1-1.1.93-1.61,0-2.72,1.15-.84,1.28-1.43.82-2.85A24.71,24.71,0,0,1,96,79.48l2.44-.57c1.19-.3,1.6-.94,1.25-2.13a12.08,12.08,0,0,0-.94-2.15C97.41,72.09,96,69.57,94.59,67c2-1.84,2.23-4,1.62-6.48a34.12,34.12,0,0,0-3.55-8.8A26.54,26.54,0,0,0,82.54,41.27Z"/><path class="cls-4" d="M55,79.31l-2.47,22.21,17.38,1.94,2.48-22.21Zm13.36,22L54.52,99.73l.56-5,13.83,1.54Zm.75-6.75L55.28,93l.55-5,13.84,1.54Zm.75-6.74L56,86.25l.55-5,13.84,1.55Z"/><rect class="cls-5" x="54.76" y="95.56" width="13.92" height="5" transform="translate(11.24 -6.23) rotate(6.36)"/><rect class="cls-5" x="55.51" y="88.82" width="13.92" height="5" transform="translate(10.5 -6.36) rotate(6.36)"/><path class="cls-6" d="M101.5,76.23a14.53,14.53,0,0,0-1.07-2.49c-1-1.85-2-3.65-3-5.55l-.55-1C98.36,65.26,98.75,62.9,98,60a36.56,36.56,0,0,0-3.74-9.26c-3.5-6.11-8-10.2-13.74-12.49a27,27,0,0,0-10.1-1.91,32.89,32.89,0,0,0-6.57.68A27.77,27.77,0,0,0,52.48,42a25.09,25.09,0,0,0-7.72,9.8c-3.88,8.51-3,17.28,2.5,26.06a7.36,7.36,0,0,0,5.83,3.29c2.83.28,5.7.58,8.48.87,3.09.33,6.28.66,9.43,1L71,83c2.17,4.21,4.35,8.34,6.38,12.17a2.92,2.92,0,0,0,1.92,1.62l2.44.48c2.55.5,5.18,1,7.83,1.33a9.89,9.89,0,0,0,1.2.07,6.58,6.58,0,0,0,5.5-2.49A7.34,7.34,0,0,0,97,89.55c-.15-.49-.1-.62.17-.93a3.87,3.87,0,0,0,1.15-2.55,2.85,2.85,0,0,0-.23-1.1,3.3,3.3,0,0,0,.47-1,4.62,4.62,0,0,0-.23-2.68c0-.16-.1-.34-.15-.52L99,80.6a3.57,3.57,0,0,0,2.34-1.6A3.48,3.48,0,0,0,101.5,76.23Zm-3,2.64-2.44.57a24.71,24.71,0,0,0,.56,2.43c.46,1.42.33,2-.81,2.85.93,1.11,1,1.62,0,2.72a2.48,2.48,0,0,0-.52,2.64c1.34,4.31-1,7.29-5.51,6.77-3.41-.39-6.77-1.15-10.15-1.8-.26,0-.53-.42-.68-.7q-3.21-6.06-6.37-12.15a1.59,1.59,0,0,0-1.43-1c-6-.59-11.94-1.25-17.91-1.85a5.58,5.58,0,0,1-4.5-2.46C43.9,69.16,42.51,61,46.39,52.51c3.48-7.65,9.68-12.09,17.85-13.73a27,27,0,0,1,15.64,1.13c5.75,2.3,9.84,6.45,12.86,11.73a34.12,34.12,0,0,1,3.55,8.8c.61,2.43.4,4.64-1.62,6.48,1.42,2.61,2.82,5.13,4.18,7.67a12.4,12.4,0,0,1,.94,2.15C100.14,77.93,99.73,78.57,98.54,78.87Z"/><path class="cls-5" d="M94.67,67c1.42,2.61,2.82,5.13,4.18,7.67a12.08,12.08,0,0,1,.94,2.15c.35,1.19-.06,1.83-1.25,2.13l-2.44.57a24.71,24.71,0,0,0,.56,2.43c.46,1.42.33,2-.81,2.85.93,1.11,1,1.62,0,2.72a2.48,2.48,0,0,0-.52,2.64c1.34,4.31-1,7.29-5.51,6.77-3.41-.39-6.77-1.15-10.15-1.8-.26,0-.53-.42-.68-.7q-3.21-6.06-6.37-12.15a1.59,1.59,0,0,0-1.43-1c-6-.59-11.94-1.25-17.91-1.85a5.58,5.58,0,0,1-4.5-2.46c-4.87-7.72-6.26-15.87-2.38-24.37,3.48-7.65,9.68-12.09,17.85-13.73A27,27,0,0,1,79.88,40c5.75,2.3,9.84,6.45,12.86,11.73a34.12,34.12,0,0,1,3.55,8.8C96.9,62.91,96.69,65.12,94.67,67Z"/><rect class="cls-5" x="56.26" y="82.08" width="13.92" height="5" transform="translate(9.76 -6.48) rotate(6.36)"/><rect class="cls-7" x="61.28" y="52.58" width="10.24" height="10.24" transform="translate(6.62 -6.84) rotate(6.2)"/><line class="cls-8" x1="58.03" y1="52.85" x2="61.26" y2="53.21"/><polyline class="cls-8" points="60.75 58.28 56.73 57.85 53.96 59.16 50.99 58.84"/><circle class="cls-8" cx="57.08" cy="52.75" r="0.95"/><line class="cls-8" x1="53.59" y1="54.95" x2="60.98" y2="55.75"/><circle class="cls-8" cx="52.64" cy="54.84" r="0.95"/><circle class="cls-8" cx="50.11" cy="58.74" r="0.95"/><polyline class="cls-8" points="60.46 60.97 56.43 60.53 53.66 61.85 50.7 61.53"/><circle class="cls-8" cx="49.82" cy="61.43" r="0.95"/><line class="cls-8" x1="74.48" y1="62.46" x2="71.29" y2="62.11"/><polyline class="cls-8" points="71.79 57.09 75.77 57.52 78.5 56.22 81.43 56.54"/><circle class="cls-8" cx="75.41" cy="62.56" r="0.94"/><line class="cls-8" x1="78.87" y1="60.39" x2="71.56" y2="59.59"/><circle class="cls-8" cx="79.81" cy="60.49" r="0.94"/><circle class="cls-8" cx="82.3" cy="56.63" r="0.94"/><polyline class="cls-8" points="72.08 54.43 76.05 54.87 78.79 53.57 81.72 53.88"/><circle class="cls-8" cx="82.59" cy="53.98" r="0.94"/><line class="cls-8" x1="63.35" y1="48.76" x2="63" y2="51.98"/><line class="cls-8" x1="61.92" y1="62.75" x2="59.99" y2="79.91"/><line class="cls-8" x1="64.51" y1="63.03" x2="62.59" y2="80.19"/><line class="cls-8" x1="67.09" y1="63.31" x2="65.16" y2="80.47"/><line class="cls-8" x1="69.82" y1="63.6" x2="67.9" y2="80.77"/><polyline class="cls-8" points="68.27 52.41 68.71 48.38 70.62 45.96 70.94 43"/><ellipse class="cls-8" cx="63.45" cy="47.81" rx="0.95" ry="0.97" transform="translate(9.07 105.72) rotate(-83.8)"/><line class="cls-8" x1="66.4" y1="44.87" x2="65.59" y2="52.26"/><ellipse class="cls-8" cx="66.5" cy="43.92" rx="0.95" ry="0.97" transform="translate(15.65 105.29) rotate(-83.8)"/><ellipse class="cls-8" cx="70.93" cy="42.3" rx="0.95" ry="0.97" transform="translate(21.21 108.24) rotate(-83.8)"/><polyline class="cls-8" points="71.01 52.7 71.44 48.68 73.35 46.26 73.67 43.3"/><ellipse class="cls-8" cx="73.66" cy="42.6" rx="0.95" ry="0.97" transform="translate(23.35 111.23) rotate(-83.8)"/></g></svg>