<svg xmlns="http://www.w3.org/2000/svg" viewBox="0 0 110 110"><defs><style>.cls-1{fill:#fff;}</style></defs><title>AUTO NO CIRCLE</title><g id="map"><path class="cls-1" d="M74.9,27.38a12.27,12.27,0,0,0-3.66.64l.22.56.23.55a11.52,11.52,0,0,1,3.24-.56A11.36,11.36,0,0,1,85.8,44.1l.55.23.55.23h0a12.56,12.56,0,0,0-12-17.18Z"/><path class="cls-1" d="M75,30.79a8.74,8.74,0,0,0-2.46.41l.23.55.22.56A7.69,7.69,0,0,1,75,32a7.94,7.94,0,0,1,7.63,10.77l.56.23.54.24A9.13,9.13,0,0,0,75,30.79Z"/><path class="cls-1" d="M75.09,34.63a5,5,0,0,0-1.1.15l.23.56.23.56a3.73,3.73,0,0,1,.68-.07,4.1,4.1,0,0,1,4.2,4,4,4,0,0,1-.22,1.43l.55.24.55.23a5.28,5.28,0,0,0-5.12-7.09Z"/><path class="cls-1" d="M22.21,39.35A12.8,12.8,0,0,0,22.75,43l.56-.21.56-.21A11.35,11.35,0,0,1,39.25,29l.25-.55.25-.54h0a12.3,12.3,0,0,0-4.94-1A12.57,12.57,0,0,0,22.21,39.35Z"/><path class="cls-1" d="M25.63,39.36A9.2,9.2,0,0,0,26,41.83l.56-.21.57-.21a7.68,7.68,0,0,1-.27-2,8,8,0,0,1,8-7.91,7.81,7.81,0,0,1,3,.61l.25-.54.25-.55a9.14,9.14,0,0,0-12.69,8.39Z"/><path class="cls-1" d="M29.47,39.37a5.8,5.8,0,0,0,.11,1.11l.57-.21.57-.21a5.06,5.06,0,0,1,0-.68,4.11,4.11,0,0,1,4.11-4.09,4.22,4.22,0,0,1,1.43.26l.25-.54.25-.54a5.13,5.13,0,0,0-1.92-.37A5.3,5.3,0,0,0,29.47,39.37Z"/><path class="cls-1" d="M88,53.68a4.76,4.76,0,0,0,2.15-3.85c0-2.91-3-5.2-6.73-5.2a8.53,8.53,0,0,0-3.33.66L74.34,37a4.3,4.3,0,0,0-3.2-1.89l-1.73-.2A108.51,108.51,0,0,0,55,33.88h0a108.51,108.51,0,0,0-14.4,1.06l-1.73.2A4.3,4.3,0,0,0,35.66,37L29.87,45.3a8.45,8.45,0,0,0-3.35-.67c-3.77,0-6.73,2.29-6.73,5.2A4.73,4.73,0,0,0,22,53.69,17.1,17.1,0,0,0,19.79,62v.09l0,.76v.05l.79,14.27V79a4.22,4.22,0,0,0,4.22,4.21h9.09a4.22,4.22,0,0,0,4-3c5.4-.28,11.11-.43,17-.43h.09c5.89,0,11.59.15,17,.43a4.22,4.22,0,0,0,4,3h9.09A4.22,4.22,0,0,0,89.39,79V77.19l.79-14.27v-.05l0-.76V62A17.14,17.14,0,0,0,88,53.68ZM88.77,62v0l0,.76h0L88,77.15V79a2.79,2.79,0,0,1-2.78,2.78H76.08A2.78,2.78,0,0,1,73.3,79v-.16c-5.77-.33-11.91-.49-18.25-.5H55c-6.35,0-12.49.17-18.26.5V79a2.78,2.78,0,0,1-2.78,2.78H24.83A2.79,2.79,0,0,1,22.05,79v-1.8l-.79-14.31h0l0-.76v0A15.71,15.71,0,0,1,24,53.15a3.78,3.78,0,0,1-2.75-3.32c0-2.11,2.32-3.76,5.29-3.76a6.55,6.55,0,0,1,3.78,1.11l6.55-9.34A2.86,2.86,0,0,1,39,36.57l1.75-.21a108.1,108.1,0,0,1,14.23-1h0a108.1,108.1,0,0,1,14.23,1l1.75.21a2.86,2.86,0,0,1,2.16,1.27l6.54,9.33a6.59,6.59,0,0,1,3.77-1.1c3,0,5.29,1.65,5.29,3.76A3.76,3.76,0,0,1,86,53.14,15.67,15.67,0,0,1,88.77,62Z"/><path class="cls-1" d="M85.22,52.28c.22-.07.43-.15.63-.23a2.65,2.65,0,0,0,1.83-2.22c0-1.48-1.89-2.68-4.22-2.68a4.61,4.61,0,0,0-3.91,1.69L72.26,38.45a1.75,1.75,0,0,0-1.37-.81A120.74,120.74,0,0,0,55,36.4h0a120.74,120.74,0,0,0-15.88,1.24,1.75,1.75,0,0,0-1.37.81l-7.3,10.41a2.84,2.84,0,0,0-.82-.84,1.64,1.64,0,0,0-.22-.14,5.56,5.56,0,0,0-2.88-.73c-2.33,0-4.21,1.2-4.21,2.68s1.53,2.45,3.54,2.66A14.53,14.53,0,0,0,22.31,62l0,.76.49,8.81h18a2.78,2.78,0,0,0,2.69,2.14H66.47a2.79,2.79,0,0,0,2.7-2.14h18l.49-8.81,0-.76a14.49,14.49,0,0,0-3.54-9.53A6.14,6.14,0,0,0,85.22,52.28ZM38.39,66.54a.62.62,0,0,1-.62.62H29.52a.62.62,0,0,1-.62-.62h0a.62.62,0,0,1,.62-.62h8.25a.62.62,0,0,1,.62.62Zm-1.13-1.85h0l-8.75-.07h0c-.66.07-1.87-.86-2.89-2.28-1.16-1.62-1.65-3.26-1.09-3.67a.65.65,0,0,1,.51-.07h0l12.22,2.6a1.75,1.75,0,0,1,0,3.5ZM55.84,48.6H54.26c-7.91,0-15.38.3-21.83.78l6.58-10A75.48,75.48,0,0,1,54.07,38h2a75.48,75.48,0,0,1,15.06,1.4l6.58,10C71.22,48.9,63.75,48.6,55.84,48.6Zm24,18a.6.6,0,0,1-.6.6H70.91a.6.6,0,0,1-.6-.6v0a.6.6,0,0,1,.6-.6h8.28a.6.6,0,0,1,.6.6Zm4.41-7.9c.56.41.07,2.05-1.09,3.67-1,1.42-2.22,2.35-2.88,2.28h0l-8.74.07h0a1.75,1.75,0,0,1,0-3.5l12.23-2.6h0A.65.65,0,0,1,84.2,58.66Z"/></g></svg>