<svg xmlns="http://www.w3.org/2000/svg" viewBox="0 0 140 140"><defs><style>.cls-1{opacity:0.69;}.cls-2{fill:none;stroke:#9c3;stroke-linecap:round;stroke-miterlimit:10;stroke-width:3px;stroke-dasharray:0.5 7.97;}.cls-3{fill:#fff;}</style></defs><title>AUTO</title><g id="map"><g class="cls-1"><circle class="cls-2" cx="70" cy="70" r="63.32"/></g><path class="cls-3" d="M89.31,42.08a12.24,12.24,0,0,0-3.55.62l.21.54.22.54A11,11,0,0,1,99.88,58.3l.54.22.53.23h0A12.17,12.17,0,0,0,89.31,42.08Z"/><path class="cls-3" d="M89.4,45.39a9,9,0,0,0-2.39.39l.22.54.22.54a7.59,7.59,0,0,1,2-.31,7.71,7.71,0,0,1,7.9,7.5,7.63,7.63,0,0,1-.5,3l.54.23.53.22a8.87,8.87,0,0,0-8.5-12.06Z"/><path class="cls-3" d="M89.5,49.12a4.84,4.84,0,0,0-1.08.14l.22.54.23.55a3.51,3.51,0,0,1,.66-.07,4,4,0,0,1,4.08,3.87,4,4,0,0,1-.22,1.39l.54.23.53.22a5.28,5.28,0,0,0,.31-1.87A5.14,5.14,0,0,0,89.5,49.12Z"/><path class="cls-3" d="M38.19,53.69a12.38,12.38,0,0,0,.52,3.57l.54-.2.55-.21A11,11,0,0,1,54.72,43.61l.24-.53.25-.52h0a12.34,12.34,0,0,0-4.8-1A12.2,12.2,0,0,0,38.19,53.69Z"/><path class="cls-3" d="M41.5,53.7a8.64,8.64,0,0,0,.33,2.4l.54-.2.55-.21a7.63,7.63,0,0,1-.26-2A7.72,7.72,0,0,1,50.4,46a7.51,7.51,0,0,1,2.93.59l.25-.53.24-.52a8.68,8.68,0,0,0-3.42-.7A8.87,8.87,0,0,0,41.5,53.7Z"/><path class="cls-3" d="M45.23,53.71a5.49,5.49,0,0,0,.11,1.08l.55-.21.55-.2a4.89,4.89,0,0,1,0-.66A4,4,0,0,1,51.77,50l.24-.53.25-.53a5.27,5.27,0,0,0-1.87-.35A5.14,5.14,0,0,0,45.23,53.71Z"/><path class="cls-3" d="M102.05,67.59a4.59,4.59,0,0,0,2.09-3.73c0-2.83-2.87-5-6.52-5a8.07,8.07,0,0,0-3.24.64l-5.62-8a4.2,4.2,0,0,0-3.11-1.83L84,49.41a105.87,105.87,0,0,0-14-1h0a105.87,105.87,0,0,0-14,1l-1.67.2a4.2,4.2,0,0,0-3.11,1.83l-5.62,8a8.34,8.34,0,0,0-3.25-.64c-3.66,0-6.53,2.21-6.53,5a4.6,4.6,0,0,0,2.1,3.74,16.61,16.61,0,0,0-2.1,8.08v.09l0,.74v0l.77,13.84v1.71a4.09,4.09,0,0,0,4.09,4.09h8.82a4.09,4.09,0,0,0,3.92-2.92c5.24-.27,10.77-.41,16.49-.41H70c5.72,0,11.25.14,16.49.41a4.09,4.09,0,0,0,3.92,2.92h8.82a4.09,4.09,0,0,0,4.09-4.09V90.4l.77-13.84v0l0-.74v-.09A16.66,16.66,0,0,0,102.05,67.59Zm.71,8.11v0l0,.74h0L102,90.37v1.74a2.7,2.7,0,0,1-2.7,2.7H90.45a2.7,2.7,0,0,1-2.7-2.7V92c-5.6-.31-11.55-.47-17.71-.47H70c-6.16,0-12.11.16-17.71.47v.16a2.7,2.7,0,0,1-2.7,2.7H40.73a2.7,2.7,0,0,1-2.7-2.7V90.37l-.77-13.89h0l0-.74v0a15.13,15.13,0,0,1,2.67-8.6,3.66,3.66,0,0,1-2.67-3.22c0-2,2.25-3.65,5.13-3.65A6.37,6.37,0,0,1,46,61.29l6.35-9.06A2.76,2.76,0,0,1,54.48,51l1.71-.21a105.37,105.37,0,0,1,13.8-1h0a105.37,105.37,0,0,1,13.8,1l1.71.21a2.76,2.76,0,0,1,2.09,1.23L94,61.28a6.38,6.38,0,0,1,3.66-1.07c2.87,0,5.13,1.61,5.13,3.65a3.64,3.64,0,0,1-2.66,3.21,15.26,15.26,0,0,1,2.67,8.61Z"/><path class="cls-3" d="M99.32,66.23a4,4,0,0,0,.61-.22,2.55,2.55,0,0,0,1.77-2.15c0-1.44-1.83-2.6-4.08-2.6a4.48,4.48,0,0,0-3.8,1.64L86.75,52.82A1.68,1.68,0,0,0,85.42,52,117.39,117.39,0,0,0,70,50.83h0A117.39,117.39,0,0,0,54.58,52a1.68,1.68,0,0,0-1.33.78l-7.07,10.1a2.83,2.83,0,0,0-.8-.82L45.17,62a5.6,5.6,0,0,0-2.8-.7c-2.26,0-4.09,1.16-4.09,2.6s1.49,2.38,3.44,2.58a14.1,14.1,0,0,0-3.44,9.24l0,.74L38.78,85H56.25A2.7,2.7,0,0,0,58.87,87H81.13A2.7,2.7,0,0,0,83.75,85h17.47l.47-8.55,0-.74a14.1,14.1,0,0,0-3.44-9.24A5.81,5.81,0,0,0,99.32,66.23ZM53.88,80.08a.6.6,0,0,1-.6.59h-8a.6.6,0,0,1-.6-.59h0a.59.59,0,0,1,.6-.59h8a.59.59,0,0,1,.6.59Zm-1.09-1.8h0l-8.49-.07h0c-.64.06-1.81-.84-2.8-2.21-1.13-1.57-1.61-3.17-1.06-3.56a.61.61,0,0,1,.49-.07h0l11.86,2.53a1.7,1.7,0,0,1,0,3.39Zm18-15.61H69.28c-7.67,0-14.92.29-21.18.76l6.39-9.7A73.36,73.36,0,0,1,69.1,52.38H71a73.43,73.43,0,0,1,14.61,1.35L92,63.43C85.74,63,78.49,62.67,70.82,62.67ZM94.05,80.09a.58.58,0,0,1-.58.58h-8a.58.58,0,0,1-.58-.58v0a.58.58,0,0,1,.58-.58h8a.58.58,0,0,1,.58.58Zm4.28-7.66c.55.39.07,2-1.06,3.56-1,1.37-2.16,2.27-2.8,2.21h0L86,78.28h0a1.7,1.7,0,0,1,0-3.39l11.86-2.53h0A.61.61,0,0,1,98.33,72.43Z"/></g></svg>