<svg xmlns="http://www.w3.org/2000/svg" viewBox="0 0 110 110"><defs><style>.cls-1{fill:#fff;}</style></defs><title>AUTO NO CIRCLE</title><g id="map"><path class="cls-1" d="M74.31,28.2a11.92,11.92,0,0,0-3.55.63l.21.53.22.54a11.3,11.3,0,0,1,3.15-.54A11,11,0,0,1,84.88,44.42l.54.23.53.22h0A12.17,12.17,0,0,0,74.31,28.2Z"/><path class="cls-1" d="M74.4,31.51a8.61,8.61,0,0,0-2.39.4l.22.53.22.54a8,8,0,0,1,2-.31,7.71,7.71,0,0,1,7.9,7.5,7.6,7.6,0,0,1-.5,2.95l.53.23.54.23a9,9,0,0,0,.59-3.44A8.87,8.87,0,0,0,74.4,31.51Z"/><path class="cls-1" d="M74.5,35.24a5.5,5.5,0,0,0-1.08.14l.22.55.23.54a3.51,3.51,0,0,1,.66-.07,4,4,0,0,1,3.86,5.26l.54.23.53.23a5.34,5.34,0,0,0,.31-1.88A5.14,5.14,0,0,0,74.5,35.24Z"/><path class="cls-1" d="M23.19,39.81a12.38,12.38,0,0,0,.52,3.57l.54-.2.55-.2A11,11,0,0,1,35.41,28.84a10.86,10.86,0,0,1,4.31.89L40,29.2l.25-.52h0a12,12,0,0,0-4.8-1A12.19,12.19,0,0,0,23.19,39.81Z"/><path class="cls-1" d="M26.5,39.82a8.59,8.59,0,0,0,.33,2.4l.54-.2.55-.2a7.69,7.69,0,0,1,7.48-9.67,7.89,7.89,0,0,1,2.93.59l.25-.52.24-.53A8.87,8.87,0,0,0,26.5,39.82Z"/><path class="cls-1" d="M30.23,39.84a5.32,5.32,0,0,0,.11,1.07l.55-.2.55-.21a4.65,4.65,0,0,1-.05-.66,4,4,0,0,1,5.38-3.71l.24-.52.25-.53a5.06,5.06,0,0,0-1.87-.36A5.15,5.15,0,0,0,30.23,39.84Z"/><path class="cls-1" d="M87.05,53.72A4.59,4.59,0,0,0,89.14,50c0-2.83-2.87-5.05-6.52-5.05a8.25,8.25,0,0,0-3.24.64l-5.62-8a4.18,4.18,0,0,0-3.11-1.84L69,35.53a107.61,107.61,0,0,0-14-1h0a107.61,107.61,0,0,0-14,1l-1.67.2a4.18,4.18,0,0,0-3.11,1.84l-5.62,8a8.16,8.16,0,0,0-3.25-.65c-3.66,0-6.53,2.22-6.53,5.05a4.6,4.6,0,0,0,2.1,3.74,16.55,16.55,0,0,0-2.1,8.08v.09l0,.74v0l.77,13.85v1.7a4.09,4.09,0,0,0,4.09,4.09h8.82a4.09,4.09,0,0,0,3.92-2.91C43.71,79.14,49.24,79,55,79H55c5.72,0,11.25.15,16.49.42a4.09,4.09,0,0,0,3.92,2.91h8.82a4.09,4.09,0,0,0,4.09-4.09v-1.7l.77-13.85v0l0-.74v-.09A16.63,16.63,0,0,0,87.05,53.72Zm.71,8.11v0l0,.74h0L87,76.49v1.74a2.7,2.7,0,0,1-2.7,2.7H75.45a2.7,2.7,0,0,1-2.7-2.7v-.15c-5.6-.32-11.55-.48-17.71-.48H55c-6.16,0-12.11.16-17.71.48v.15a2.7,2.7,0,0,1-2.7,2.7H25.73a2.7,2.7,0,0,1-2.7-2.7V76.49l-.77-13.88h0l0-.74v0a15.19,15.19,0,0,1,2.67-8.61A3.64,3.64,0,0,1,22.24,50c0-2.05,2.25-3.65,5.13-3.65A6.37,6.37,0,0,1,31,47.42l6.35-9.07a2.79,2.79,0,0,1,2.09-1.23l1.71-.2a103.67,103.67,0,0,1,13.8-1h0a103.67,103.67,0,0,1,13.8,1l1.71.2a2.79,2.79,0,0,1,2.09,1.23L79,47.41a6.31,6.31,0,0,1,3.66-1.07c2.87,0,5.13,1.6,5.13,3.65a3.67,3.67,0,0,1-2.66,3.21,15.21,15.21,0,0,1,2.67,8.61Z"/><path class="cls-1" d="M84.32,52.36a4,4,0,0,0,.61-.23A2.54,2.54,0,0,0,86.7,50c0-1.44-1.83-2.61-4.08-2.61A4.49,4.49,0,0,0,78.81,49L71.75,38.94a1.74,1.74,0,0,0-1.33-.78A117.39,117.39,0,0,0,55,37h0a117.39,117.39,0,0,0-15.41,1.21,1.74,1.74,0,0,0-1.33.78L31.18,49a2.8,2.8,0,0,0-.8-.81l-.21-.14a5.5,5.5,0,0,0-2.8-.71c-2.26,0-4.09,1.17-4.09,2.61s1.49,2.37,3.44,2.57a14.11,14.11,0,0,0-3.44,9.25l0,.74.47,8.55H41.25a2.7,2.7,0,0,0,2.62,2.07H66.13a2.7,2.7,0,0,0,2.62-2.07H86.22l.47-8.55,0-.74a14.11,14.11,0,0,0-3.44-9.25A6.84,6.84,0,0,0,84.32,52.36ZM38.88,66.2a.6.6,0,0,1-.6.6h-8a.6.6,0,0,1-.6-.6h0a.6.6,0,0,1,.6-.6h8a.6.6,0,0,1,.6.6Zm-1.09-1.8h0l-8.49-.07h0c-.64.07-1.81-.83-2.8-2.21-1.13-1.57-1.61-3.16-1.06-3.56a.57.57,0,0,1,.49-.06h0L37.75,61a1.7,1.7,0,0,1,0,3.39Zm18-15.61H54.28c-7.67,0-14.92.29-21.18.76l6.39-9.69A72.59,72.59,0,0,1,54.1,38.5H56a72.66,72.66,0,0,1,14.61,1.36L77,49.55C70.74,49.08,63.49,48.79,55.82,48.79ZM79.05,66.22a.58.58,0,0,1-.58.58h-8a.58.58,0,0,1-.58-.58v0a.58.58,0,0,1,.58-.58h8a.58.58,0,0,1,.58.58Zm4.28-7.67c.55.4.07,2-1.06,3.56-1,1.38-2.16,2.28-2.8,2.21h0L71,64.4h0A1.7,1.7,0,0,1,71,61l11.86-2.53h0A.57.57,0,0,1,83.33,58.55Z"/></g></svg>