<svg xmlns="http://www.w3.org/2000/svg" viewBox="0 0 150 150"><defs><style>.cls-1{opacity:0.69;}.cls-2{fill:none;stroke:#9c3;stroke-linecap:round;stroke-miterlimit:10;stroke-width:3px;stroke-dasharray:0.5 8.04;}.cls-3{fill:#fff;}</style></defs><title>AUTO</title><g id="map"><g class="cls-1"><circle class="cls-2" cx="75" cy="75" r="65.26" transform="translate(-15.23 130.76) rotate(-76.72)"/></g><path class="cls-3" d="M94.9,46.22a12.6,12.6,0,0,0-3.66.64l.22.56.23.55a11.52,11.52,0,0,1,3.24-.56A11.36,11.36,0,0,1,105.8,62.94l.55.23.55.24h0a12.56,12.56,0,0,0-12-17.19Z"/><path class="cls-3" d="M95,49.63a8.74,8.74,0,0,0-2.46.41l.23.55.22.56a8.12,8.12,0,0,1,2-.32,7.94,7.94,0,0,1,7.63,10.77l.56.23.54.24A9.13,9.13,0,0,0,95,49.63Z"/><path class="cls-3" d="M95.09,53.47a5,5,0,0,0-1.1.15l.23.56.23.56a4.89,4.89,0,0,1,.68-.07,4.1,4.1,0,0,1,4.2,4,4,4,0,0,1-.22,1.43l.55.24.55.23a5.28,5.28,0,0,0-5.12-7.09Z"/><path class="cls-3" d="M42.21,58.19a12.8,12.8,0,0,0,.54,3.68l.56-.21.56-.21A11.37,11.37,0,0,1,54.81,46.88a11.16,11.16,0,0,1,4.44.92l.25-.55.25-.54h0A12.56,12.56,0,0,0,42.21,58.19Z"/><path class="cls-3" d="M45.63,58.2A9.09,9.09,0,0,0,46,60.67l.56-.21.57-.21a7.68,7.68,0,0,1-.27-2,8,8,0,0,1,8-7.91,7.81,7.81,0,0,1,3,.61l.25-.54.25-.54a9,9,0,0,0-3.52-.72A9.14,9.14,0,0,0,45.63,58.2Z"/><path class="cls-3" d="M49.47,58.21a5.8,5.8,0,0,0,.11,1.11l.57-.21.57-.21a5.06,5.06,0,0,1,0-.68,4.11,4.11,0,0,1,4.11-4.09,4.22,4.22,0,0,1,1.43.27l.25-.55.25-.54a5.13,5.13,0,0,0-1.92-.37A5.31,5.31,0,0,0,49.47,58.21Z"/><path class="cls-3" d="M108,72.52a4.75,4.75,0,0,0,2.15-3.84c0-2.92-3-5.21-6.73-5.21a8.53,8.53,0,0,0-3.33.66l-5.79-8.26A4.3,4.3,0,0,0,91.14,54l-1.73-.2A108.51,108.51,0,0,0,75,52.72h0a108.51,108.51,0,0,0-14.4,1.06l-1.73.2a4.3,4.3,0,0,0-3.2,1.89l-5.79,8.27a8.45,8.45,0,0,0-3.35-.67c-3.77,0-6.73,2.29-6.73,5.21A4.73,4.73,0,0,0,42,72.53a17.13,17.13,0,0,0-2.17,8.33V81l0,.76v.05L40.61,96v1.76A4.22,4.22,0,0,0,44.83,102h9.09a4.22,4.22,0,0,0,4-3c5.4-.28,11.11-.42,17-.43h.09c5.89,0,11.59.15,17,.43a4.22,4.22,0,0,0,4,3h9.09a4.22,4.22,0,0,0,4.22-4.21V96l.79-14.27v-.05l0-.76v-.09A17.14,17.14,0,0,0,108,72.52Zm.73,8.36v0l0,.76h0L108,96v1.8a2.79,2.79,0,0,1-2.78,2.78H96.08a2.78,2.78,0,0,1-2.78-2.78v-.16c-5.77-.33-11.91-.49-18.25-.49H75c-6.35,0-12.49.16-18.26.49v.16a2.78,2.78,0,0,1-2.78,2.78H44.83a2.79,2.79,0,0,1-2.78-2.78V96l-.79-14.31h0l0-.76v0A15.71,15.71,0,0,1,44,72a3.78,3.78,0,0,1-2.75-3.31c0-2.12,2.32-3.77,5.29-3.77A6.55,6.55,0,0,1,50.3,66l6.55-9.34A2.86,2.86,0,0,1,59,55.41l1.75-.21a108.1,108.1,0,0,1,14.23-1h0a108.1,108.1,0,0,1,14.23,1l1.75.21a2.86,2.86,0,0,1,2.16,1.27L99.69,66a6.54,6.54,0,0,1,3.77-1.11c3,0,5.29,1.65,5.29,3.77A3.76,3.76,0,0,1,106,72a15.7,15.7,0,0,1,2.76,8.88Z"/><path class="cls-3" d="M105.22,71.12a5.85,5.85,0,0,0,.63-.23,2.65,2.65,0,0,0,1.83-2.21c0-1.49-1.89-2.69-4.22-2.69a4.58,4.58,0,0,0-3.91,1.7l-7.29-10.4a1.72,1.72,0,0,0-1.37-.8A120.67,120.67,0,0,0,75,55.24h0a120.67,120.67,0,0,0-15.88,1.25,1.72,1.72,0,0,0-1.37.8L50.44,67.7a2.84,2.84,0,0,0-.82-.84,1.64,1.64,0,0,0-.22-.14A5.66,5.66,0,0,0,46.52,66c-2.33,0-4.21,1.2-4.21,2.69,0,1.33,1.53,2.44,3.54,2.65a14.53,14.53,0,0,0-3.54,9.53l0,.76.49,8.81h18a2.78,2.78,0,0,0,2.69,2.14H86.47a2.79,2.79,0,0,0,2.7-2.14h18l.49-8.81,0-.76a14.53,14.53,0,0,0-3.54-9.53A6.14,6.14,0,0,0,105.22,71.12ZM58.39,85.39a.62.62,0,0,1-.62.61H49.52a.62.62,0,0,1-.62-.61h0a.61.61,0,0,1,.62-.61h8.25a.61.61,0,0,1,.62.61Zm-1.13-1.86h0l-8.75-.07h0c-.66.07-1.87-.86-2.89-2.28-1.16-1.62-1.65-3.26-1.09-3.67a.65.65,0,0,1,.51-.07h0L57.22,80a1.75,1.75,0,0,1,0,3.49ZM75.84,67.44H74.26c-7.91,0-15.38.3-21.83.79l6.58-10a75.51,75.51,0,0,1,15.06-1.39h2a75.51,75.51,0,0,1,15.06,1.39l6.58,10C91.22,67.74,83.75,67.44,75.84,67.44Zm24,18a.6.6,0,0,1-.6.6H90.91a.6.6,0,0,1-.6-.6v0a.6.6,0,0,1,.6-.6h8.28a.6.6,0,0,1,.6.6Zm4.41-7.9c.56.41.07,2-1.09,3.67-1,1.42-2.22,2.35-2.88,2.28h0l-8.74.07h0a1.75,1.75,0,0,1,0-3.49l12.23-2.61h0A.65.65,0,0,1,104.2,77.5Z"/></g></svg>