<svg xmlns="http://www.w3.org/2000/svg" viewBox="0 0 110 110"><defs><style>.cls-1{fill:#fff;}</style></defs><title>CONSUMER  NO CIRCLE</title><g id="map"><path class="cls-1" d="M104.32,48.58h0l-45.79-26h0a1.75,1.75,0,0,0-.86-.23,1.59,1.59,0,0,0-.62.12h0l-.07,0-51.11,23h0a1.72,1.72,0,0,0-1.07,1.6V60.36h0a1.73,1.73,0,0,0,1,1.36h0L52,87.48h0a1.71,1.71,0,0,0,.81.21,1.74,1.74,0,0,0,.61-.11h0l.12,0,50.53-23.12h0a1.71,1.71,0,0,0,1.14-1.62V50.08A1.71,1.71,0,0,0,104.32,48.58ZM9.81,62.06,6.53,60.22v-5.7l3.28,1.84Zm4.71,2.63-3.29-1.84v-5.7L14.52,59Zm4.7,2.62-3.28-1.83v-5.7l3.28,1.83Zm4.7,2.63-3.28-1.83v-5.7l3.28,1.83Zm4.71,2.63-3.29-1.84V65l3.29,1.84Zm4.7,2.62L30,73.36v-5.7l3.29,1.83ZM38,77.82,34.75,76v-5.7L38,72.12Zm4.7,2.63-3.28-1.84v-5.7l3.28,1.84Zm4.71,2.63-3.29-1.84v-5.7l3.29,1.84Zm4.7,2.62-3.28-1.83v-5.7L52.14,80ZM57,84,53.4,85.7V80L57,78.38Zm5.17-2.38-3.61,1.66V77.66L62.17,76Zm5.16-2.38L63.73,81V75.28l3.6-1.66ZM72.5,76.9l-3.61,1.67V72.9l3.61-1.66Zm5.16-2.38-3.6,1.67V70.52l3.6-1.66Zm5.17-2.37-3.61,1.66V68.15l3.61-1.67ZM88,69.77l-3.6,1.66V65.77L88,64.1Zm5.17-2.38-3.61,1.66V63.39l3.61-1.66ZM98.32,65l-3.61,1.66V61l3.6-1.66Zm5.17-2.38-3.61,1.66V58.63L103.49,57ZM52.83,73.45l-46.32-26,51.11-23,45.87,26Z"/><path class="cls-1" d="M37.16,51.82,31.5,54.3c-1.32-.77-1.17-1.93.34-2.61A6.68,6.68,0,0,1,37.16,51.82Z"/><path class="cls-1" d="M40.51,53.67l-5.66,2.48h0l-2.6-1.44,5.66-2.48Z"/><path class="cls-1" d="M44.94,56.1l-5.65,2.5-3.71-2.05,5.63-2.48-.7-.4Z"/><path class="cls-1" d="M47.42,60.28a6.68,6.68,0,0,1-5.32-.13L40,59q2.82-1.24,5.67-2.48l2,1.09C49.09,58.39,49,59.58,47.42,60.28Z"/><path class="cls-1" d="M53.7,36.38c-1,.44-1.93.87-2.91,1.29a5.79,5.79,0,0,1,.35.61c.23.62-.35,1.2-1.48,1.5a5,5,0,0,1-3.32-.27c-.9-.46-1.1-1.1-.52-1.66a3.67,3.67,0,0,1,3-.71,3.47,3.47,0,0,0,2.31-.32l1.36-.6a32.29,32.29,0,0,0-7.73.09l-1.24-2.67a.68.68,0,0,0-.65-.19.7.7,0,0,0-.23.06c-.14.06-.21.16-.17.26l1.26,2.69a26.19,26.19,0,0,0-6.42,1.87,13.11,13.11,0,0,0-4.38,3l-5.24-.9a.77.77,0,0,0-.68.17c-.1.14.05.29.33.34l5.19.88c-2,2.7-1.18,5.72,2.7,7.87L48.8,43.56c.05-.47.09-.94.13-1.41S49.28,41.32,50,41l7.91-3.56A22.27,22.27,0,0,0,53.7,36.38Zm-16,7.94a2.46,2.46,0,0,1-2-.07c-.51-.29-.46-.73.11-1a2.54,2.54,0,0,1,2,.07C38.33,43.62,38.28,44.07,37.7,44.32Z"/><path class="cls-1" d="M60.16,38.43,49.92,43.06q0-.36.12-.72a1.62,1.62,0,0,1,1-1l7.76-3.56C59.26,38,59.72,38.19,60.16,38.43Z"/><path class="cls-1" d="M79.87,42.65a15.25,15.25,0,0,1-8.26,1h0l-5.71-3.15L71.45,38Z"/><path class="cls-1" d="M70.72,37.61l-5.19,2.26-.48.21-.86-.47c-1.39-.77-1.27-2,.27-2.66a6.72,6.72,0,0,1,5.32.14Z"/><path class="cls-1" d="M80,45.55a6.68,6.68,0,0,1-5.32-.13l-2-1.13c1.08,0,2.17.06,3.24.13A5.14,5.14,0,0,0,78.58,44l2-.92C81.69,43.81,81.49,44.89,80,45.55Z"/><path class="cls-1" d="M64.78,41l-1.09.47c-.68.31-1.06.61-1,1.08a8.19,8.19,0,0,1-.14,1.39c-.08.62-.32,1.18,1.15,1.65s1.16,1.5-.08,2a5,5,0,0,1-4.15-.26c-1-.66-.72-1.65.77-2,1-.25,1.31-.59,1.19-1.08-.38-1.55.7-2.67,2.65-3.68l-3-1.65L55.59,41.4h0c1.25.05,2.37.56,2.6,1.18s-.35,1.28-1.59,1.51c-.74.15-.8.36-.91.69-.4,1.09.14,1.95,1.83,2.73s2.85,1.61,4.34,2.39a4.82,4.82,0,0,0,1.69.41c1.72.11,3.47.11,5.19.21a4.86,4.86,0,0,0,2.39-.41l5.66-2.48Zm5.46,3.61a4.65,4.65,0,0,1-3.34.63c-1.2-.19-2.06-.81-2-1.43s1-1.19,2.25-1.31l.22,0h0l1.05.6a3.26,3.26,0,0,0-1.84.13c-.75.31-.82.86-.18,1.24a3.12,3.12,0,0,0,2.49.12c.53-.22.72-.6.54-.92l1.33.75A1.67,1.67,0,0,0,70.24,44.59Z"/><path class="cls-1" d="M81.44,56.66l-.6-.34c-1.75-1-2.87-1.91-2.9-3l2.74,1.51C81.63,55.31,81.88,56,81.44,56.66Z"/><path class="cls-1" d="M70.83,54.85l-.12,0-1.2-.66-1.19.54c-.63-.36-.57-.93.16-1.25A3.25,3.25,0,0,1,71,53.6C71.62,54,71.55,54.53,70.83,54.85Z"/><path class="cls-1" d="M61.44,54a24.87,24.87,0,0,1-.36,3.2,1.18,1.18,0,0,1-.69.73q-2.16,1-4.42,2a6.76,6.76,0,0,1-3.52-.65l-1.18-.65,1.12-.5a3.38,3.38,0,0,1,2.31-.29,3.82,3.82,0,0,0,3.07-.63c.61-.55.54-1.11-.3-1.61a4.83,4.83,0,0,0-3.25-.43c-1.16.23-1.86.79-1.73,1.42a3.43,3.43,0,0,0,.27.68l-2.2,1h0L46.65,56l1.61-.7a3,3,0,0,1,1.25-.11A4.8,4.8,0,0,0,53,54.67c.7-.55.58-1.23-.3-1.72a5,5,0,0,0-3.3-.36c-1.28.31-1.77.88-1.55,1.67a.57.57,0,0,1-.36.61l-1.63.72-3.59-2,4.36-1.94a10.21,10.21,0,0,1,5.07-.87c5.58.27,5.59.21,9.18,2.39A1,1,0,0,1,61.44,54Z"/><path class="cls-1" d="M48.52,44.59c-.07.58-.13,1.17-.17,1.75s-.38.85-1.14,1.18l-8.88,3.89-2.22-1.22Z"/><path class="cls-1" d="M77.77,55.34A1.58,1.58,0,0,1,76.85,54a2.31,2.31,0,0,1,.08-1.31l-1.83-1,2-.91c1.61-.73,1.78-1.95.43-2.77l-5.91,2.6a5.4,5.4,0,0,1-2.62.44c-2-.1-3.92-.11-5.86-.23a4.71,4.71,0,0,1-1.79-.45c-2-1.06-3.86-2.18-5.84-3.25-.76-.41-1.17-.82-1-1.37a7.18,7.18,0,0,0,.13-.93c.09-.38,0-.64-.8-.86s-1.3-.68-1.3-1.14a.28.28,0,0,1,0-.09l-3,1.34c-.11.84-.17,1.66-.23,2.49,0,.54-.43.89-1.22,1.24q-4.56,2-9.11,4l2.55,1.4h0l6.06-2.65a5.29,5.29,0,0,1,2-.33c2.22,0,4.45.1,6.66.23a5.56,5.56,0,0,1,2,.49c1.46.75,3.35,1.48,4,2.39s-.16,2.06-.06,3.1-.51,1.61-1.79,2.17l5.26,2.9a6.77,6.77,0,0,0,5.32.13c1.54-.7,1.66-1.89.27-2.66l-5.58-3.07,1.77-.8a1.7,1.7,0,0,1-.42-.31c-.59-.58-.33-1.27.64-1.7A5.21,5.21,0,0,1,71.24,53c1.11.36,1.52,1,1.06,1.7-.08.13-.18.25-.29.4l4.81,2.72a6.81,6.81,0,0,0,3.59-.4,3.17,3.17,0,0,0,.55-.31ZM66.46,59.23a5.27,5.27,0,0,1,4.09.11c1,.59.94,1.53-.24,2a5.08,5.08,0,0,1-4-.15C65.3,60.65,65.36,59.75,66.46,59.23Z"/><path class="cls-1" d="M49.56,39.16a3.11,3.11,0,0,1-2.5,0c-.66-.35-.65-.91,0-1.25a3.19,3.19,0,0,1,2.5.06C50.3,38.28,50.27,38.83,49.56,39.16Z"/><path class="cls-1" d="M51.79,54.58a3.17,3.17,0,0,1-2.5-.14c-.62-.37-.53-.92.23-1.24a3.09,3.09,0,0,1,2.48.13C52.63,53.71,52.53,54.28,51.79,54.58Z"/><path class="cls-1" d="M56.49,57.06A3.08,3.08,0,0,1,54,57c-.65-.36-.6-.92.11-1.25a3.19,3.19,0,0,1,2.5.08C57.28,56.19,57.23,56.73,56.49,57.06Z"/><path class="cls-1" d="M69.61,61a3.2,3.2,0,0,1-2.51-.1c-.63-.37-.56-1,.16-1.26a3.29,3.29,0,0,1,2.51.11C70.4,60.07,70.32,60.65,69.61,61Z"/><path class="cls-1" d="M63,47.16a3.21,3.21,0,0,1-2.51,0c-.67-.35-.65-.92.05-1.25a3,3,0,0,1,2.49.05C63.66,46.28,63.65,46.83,63,47.16Z"/><path class="cls-1" d="M56.6,43.49a3.23,3.23,0,0,1-2.5-.09c-.65-.37-.57-.93.17-1.25a3.05,3.05,0,0,1,2.48.1C57.4,42.62,57.33,43.18,56.6,43.49Z"/></g></svg>