<svg xmlns="http://www.w3.org/2000/svg" viewBox="0 0 150 150"><defs><style>.cls-1{fill:#fff;}.cls-2{opacity:0.69;}.cls-3{fill:none;stroke:#9c3;stroke-linecap:round;stroke-miterlimit:10;stroke-width:3px;stroke-dasharray:0.5 8.06;}</style></defs><title>CONSUMER</title><g id="map"><path class="cls-1" d="M124.32,66.9h0l-45.79-26h0a1.66,1.66,0,0,0-.86-.24,1.59,1.59,0,0,0-.62.12h0l-.07,0-51.11,23h0a1.73,1.73,0,0,0-1.07,1.6V78.69h0a1.71,1.71,0,0,0,1,1.35h0L72,105.8h0a1.72,1.72,0,0,0,.81.22,1.74,1.74,0,0,0,.61-.12h0l0,0,.12,0,50.53-23.12h0a1.71,1.71,0,0,0,1.14-1.62V68.4A1.72,1.72,0,0,0,124.32,66.9ZM29.81,80.38l-3.28-1.83v-5.7l3.28,1.83ZM34.52,83l-3.29-1.84v-5.7l3.29,1.84Zm4.7,2.62L35.94,83.8V78.1l3.28,1.84Zm4.7,2.63-3.28-1.83v-5.7l3.28,1.83Zm4.71,2.63-3.29-1.84V83.36l3.29,1.83Zm4.7,2.63L50,91.68V86l3.29,1.84ZM58,96.14l-3.28-1.83v-5.7L58,90.44Zm4.7,2.63-3.28-1.83v-5.7l3.28,1.83Zm4.71,2.63-3.29-1.84v-5.7l3.29,1.84Zm4.7,2.62-3.28-1.83v-5.7l3.28,1.84ZM77,102.37,73.4,104V98.37L77,96.7ZM82.17,100l-3.61,1.66V96l3.61-1.67Zm5.16-2.38-3.6,1.66V93.61L87.33,92Zm5.17-2.38-3.61,1.66V91.23l3.61-1.66Zm5.16-2.38-3.6,1.66V88.85l3.6-1.66Zm5.17-2.38-3.61,1.66V86.47l3.61-1.66ZM108,88.09l-3.6,1.66V84.09l3.6-1.66Zm5.17-2.38-3.61,1.66V81.71l3.61-1.66Zm5.16-2.38L114.71,85V79.33l3.6-1.66ZM123.49,81l-3.61,1.66V77l3.61-1.66ZM72.83,91.77l-46.32-26,51.11-23,45.87,26Z"/><g class="cls-2"><circle class="cls-3" cx="75" cy="75" r="66.76" transform="translate(-22.99 115.59) rotate(-67.5)"/></g><path class="cls-1" d="M57.16,70.15,51.5,72.63c-1.32-.77-1.17-1.93.34-2.62A6.72,6.72,0,0,1,57.16,70.15Z"/><path class="cls-1" d="M60.51,72l-5.66,2.48h0L52.24,73l5.66-2.48Z"/><path class="cls-1" d="M64.94,74.43l-5.65,2.5-3.71-2.05,5.63-2.48-.7-.41Z"/><path class="cls-1" d="M67.42,78.61a6.72,6.72,0,0,1-5.32-.14L60,77.34q2.82-1.25,5.67-2.48l2,1.09C69.09,76.72,69,77.91,67.42,78.61Z"/><path class="cls-1" d="M73.7,54.71c-1,.44-1.93.86-2.91,1.28a5.86,5.86,0,0,1,.35.62c.23.61-.35,1.19-1.48,1.5a5.11,5.11,0,0,1-3.32-.27c-.9-.46-1.1-1.1-.52-1.66a3.6,3.6,0,0,1,3-.71,3.47,3.47,0,0,0,2.31-.32l1.36-.6a31.78,31.78,0,0,0-7.73.09L63.51,52c-.07-.15-.36-.23-.65-.19a.41.41,0,0,0-.23.06c-.14.06-.21.15-.17.25l1.26,2.69a26.2,26.2,0,0,0-6.42,1.88,13,13,0,0,0-4.38,3l-5.24-.91a.8.8,0,0,0-.68.17c-.1.14,0,.29.33.35l5.19.88c-2,2.7-1.18,5.72,2.7,7.87L68.8,61.89c0-.47.09-.94.13-1.42s.35-.82,1.08-1.15l7.91-3.56A20.85,20.85,0,0,0,73.7,54.71Zm-16,7.94a2.42,2.42,0,0,1-2-.08c-.51-.29-.46-.73.11-1a2.5,2.5,0,0,1,2,.07C58.33,62,58.28,62.4,57.7,62.65Z"/><path class="cls-1" d="M80.16,56.76,69.92,61.39q0-.36.12-.72a1.6,1.6,0,0,1,1-1l7.76-3.56A13.75,13.75,0,0,1,80.16,56.76Z"/><path class="cls-1" d="M99.87,61a15.34,15.34,0,0,1-8.26,1,.06.06,0,0,1,0,0l-5.71-3.15,5.6-2.5Z"/><path class="cls-1" d="M90.72,55.93c-1.73.77-3.45,1.52-5.19,2.27l-.48.21-.86-.48c-1.39-.76-1.27-2,.27-2.65a6.72,6.72,0,0,1,5.32.14Z"/><path class="cls-1" d="M100,63.88a6.72,6.72,0,0,1-5.32-.14l-2-1.13c1.08,0,2.17.07,3.24.13a5,5,0,0,0,2.66-.46c.66-.31,1.32-.6,2-.92C101.69,62.14,101.49,63.22,100,63.88Z"/><path class="cls-1" d="M84.78,59.3l-1.09.48c-.68.31-1.06.61-1,1.08a8.07,8.07,0,0,1-.14,1.38c-.08.62-.32,1.19,1.15,1.66s1.16,1.5-.08,2a5,5,0,0,1-4.15-.25c-1-.67-.72-1.65.77-2,1.05-.25,1.31-.6,1.19-1.08-.38-1.56.7-2.67,2.65-3.68l-3-1.65-5.47,2.46h0c1.25.06,2.37.56,2.6,1.19s-.35,1.27-1.59,1.51c-.74.15-.8.36-.91.69-.4,1.09.14,1.94,1.83,2.73s2.85,1.61,4.34,2.38a5,5,0,0,0,1.69.42c1.72.1,3.47.1,5.19.2a4.64,4.64,0,0,0,2.39-.41L96.83,66Zm5.46,3.62a4.7,4.7,0,0,1-3.34.63c-1.2-.19-2.06-.81-2-1.44s1-1.18,2.25-1.31a.78.78,0,0,0,.22,0h0l1.05.61a3.35,3.35,0,0,0-1.84.12c-.75.31-.82.87-.18,1.25a3.16,3.16,0,0,0,2.49.12c.53-.22.72-.6.54-.92l1.33.75A1.67,1.67,0,0,0,90.24,62.92Z"/><path class="cls-1" d="M101.44,75c-.2-.13-.4-.23-.6-.34-1.75-1-2.87-1.91-2.9-3.06l2.74,1.52C101.63,73.64,101.88,74.36,101.44,75Z"/><path class="cls-1" d="M90.83,73.18l-.12,0-1.2-.67-1.19.54c-.63-.35-.57-.92.16-1.25a3.25,3.25,0,0,1,2.51.09C91.62,72.28,91.55,72.86,90.83,73.18Z"/><path class="cls-1" d="M81.44,72.28a24.83,24.83,0,0,1-.36,3.21,1.18,1.18,0,0,1-.69.73c-1.44.67-2.91,1.31-4.42,2a6.86,6.86,0,0,1-3.52-.65l-1.18-.65,1.12-.5a3.38,3.38,0,0,1,2.31-.29,3.86,3.86,0,0,0,3.07-.63c.61-.55.54-1.12-.3-1.62a4.83,4.83,0,0,0-3.25-.42c-1.16.23-1.86.79-1.73,1.42a3.13,3.13,0,0,0,.27.67l-2.2,1h0l-3.9-2.17,1.61-.69a3.14,3.14,0,0,1,1.25-.12A4.76,4.76,0,0,0,73,73c.7-.54.58-1.23-.3-1.71a5,5,0,0,0-3.3-.36c-1.28.3-1.77.88-1.55,1.67a.58.58,0,0,1-.36.61c-.55.23-1.08.48-1.63.72l-3.59-2c1.46-.65,2.9-1.28,4.36-1.94a10.21,10.21,0,0,1,5.07-.86c5.58.27,5.59.21,9.18,2.38A1,1,0,0,1,81.44,72.28Z"/><path class="cls-1" d="M68.52,62.92c-.07.57-.13,1.17-.17,1.75s-.38.84-1.14,1.17c-3,1.3-5.92,2.61-8.88,3.9l-2.22-1.23Z"/><path class="cls-1" d="M97.77,73.67a1.61,1.61,0,0,1-.92-1.31,2.31,2.31,0,0,1,.08-1.31L95.1,70l2-.9c1.61-.73,1.78-1.95.43-2.77L91.63,69A5.4,5.4,0,0,1,89,69.4c-2-.1-3.92-.12-5.86-.23a4.71,4.71,0,0,1-1.79-.45c-2-1.06-3.86-2.19-5.84-3.25-.76-.42-1.17-.82-1-1.38a7,7,0,0,0,.13-.92c.09-.39,0-.64-.8-.87s-1.3-.67-1.3-1.13a.38.38,0,0,1,0-.1l-3,1.35c-.11.84-.17,1.65-.23,2.49,0,.54-.43.89-1.22,1.24q-4.56,2-9.11,4l2.55,1.4h0l6.06-2.65a5.1,5.1,0,0,1,2-.33c2.22,0,4.45.1,6.66.23a5.77,5.77,0,0,1,2,.48c1.46.75,3.35,1.48,4,2.4s-.16,2.06-.06,3.1-.51,1.61-1.79,2.17l5.26,2.89a6.68,6.68,0,0,0,5.32.13c1.54-.69,1.66-1.88.27-2.65l-5.58-3.08,1.77-.79a2.41,2.41,0,0,1-.42-.31c-.59-.59-.33-1.28.64-1.71a5.21,5.21,0,0,1,3.47-.09c1.11.37,1.52,1,1.06,1.71-.08.13-.18.25-.29.4,1.6.89,3.2,1.81,4.81,2.72a6.81,6.81,0,0,0,3.59-.41,2.61,2.61,0,0,0,.55-.3C99.9,74.86,98.84,74.26,97.77,73.67ZM86.46,77.55a5.27,5.27,0,0,1,4.09.12c1,.59.94,1.53-.24,2a5.08,5.08,0,0,1-4-.15C85.3,79,85.36,78.07,86.46,77.55Z"/><path class="cls-1" d="M69.56,57.49a3.11,3.11,0,0,1-2.5-.06c-.66-.34-.65-.9,0-1.25a3.24,3.24,0,0,1,2.5.06C70.3,56.61,70.27,57.16,69.56,57.49Z"/><path class="cls-1" d="M71.79,72.91a3.13,3.13,0,0,1-2.5-.15c-.62-.36-.53-.92.23-1.23a3.09,3.09,0,0,1,2.48.13C72.63,72,72.53,72.61,71.79,72.91Z"/><path class="cls-1" d="M76.49,75.39A3.12,3.12,0,0,1,74,75.32c-.65-.36-.6-.92.11-1.25a3.11,3.11,0,0,1,2.5.08C77.28,74.51,77.23,75.05,76.49,75.39Z"/><path class="cls-1" d="M89.61,79.28a3.2,3.2,0,0,1-2.51-.1c-.63-.36-.56-.94.16-1.25a3.34,3.34,0,0,1,2.51.1C90.4,78.4,90.32,79,89.61,79.28Z"/><path class="cls-1" d="M83,65.49a3.21,3.21,0,0,1-2.51,0c-.67-.36-.65-.92,0-1.25a3.08,3.08,0,0,1,2.49,0C83.66,64.61,83.65,65.16,83,65.49Z"/><path class="cls-1" d="M76.6,61.82a3.18,3.18,0,0,1-2.5-.1c-.65-.36-.57-.92.17-1.25a3.14,3.14,0,0,1,2.48.1C77.4,61,77.33,61.51,76.6,61.82Z"/></g></svg>