<svg xmlns="http://www.w3.org/2000/svg" viewBox="0 0 110 110"><defs><style>.cls-1{fill:#fff;}.cls-2{fill:#787878;}</style></defs><title>CONSUMER NO CIRCLE</title><g id="map"><path class="cls-1" d="M47.91,57.81,37.7,52.18a6.49,6.49,0,0,0-5.17-.13c-1.49.67-1.61,1.83-.26,2.58l10.22,5.63a6.51,6.51,0,0,0,5.16.13C49.15,59.71,49.27,58.56,47.91,57.81Z"/><path class="cls-1" d="M102.85,48.77h0L58.44,23.51h0a1.7,1.7,0,0,0-.84-.23,1.53,1.53,0,0,0-.6.12h0l-.07,0L7.33,45.77h0a1.67,1.67,0,0,0-1,1.55V60.2h0a1.68,1.68,0,0,0,.94,1.32h0l44.82,25h0a1.6,1.6,0,0,0,.79.21,1.67,1.67,0,0,0,.59-.11h0l.11,0,49-22.43h0a1.69,1.69,0,0,0,1.11-1.57V50.23A1.67,1.67,0,0,0,102.85,48.77ZM11.16,61.85,8,60.07V54.54l3.18,1.78Zm4.56,2.55-3.18-1.78V57.09l3.18,1.78ZM20.29,67,17.1,65.17V59.64l3.19,1.78Zm4.56,2.54-3.19-1.78V62.19L24.85,64ZM29.41,72l-3.18-1.78V64.73l3.18,1.78ZM34,74.59l-3.18-1.78V67.28L34,69.06Zm4.57,2.55-3.19-1.78V69.83l3.19,1.78Zm4.56,2.55-3.19-1.78V72.38l3.19,1.78Zm4.56,2.55-3.18-1.78V74.93l3.18,1.78Zm4.56,2.55L49,83V77.48l3.18,1.78Zm4.72-1.61-3.49,1.61V79.3l3.49-1.62Zm5-2.31-3.49,1.61V77L62,75.38Zm5-2.31-3.49,1.61V74.68L67,73.07Zm5-2.31-3.5,1.61V72.37L72,70.76Zm5-2.31-3.5,1.61V70.06L77,68.45Zm5-2.31-3.5,1.62v-5.5L82,66.14Zm5-2.3-3.5,1.61V65.45L87,63.83ZM92,67l-3.5,1.61V63.14L92,61.52Zm5-2.31-3.5,1.61V60.83L97,59.22Zm5-2.31L98.54,64V58.52l3.5-1.61ZM52.9,72.9,8,47.64,57.54,25.3,102,50.56Z"/><path class="cls-1" d="M45.06,37.13l-1.21-2.58c-.06-.14-.34-.23-.62-.2a.7.7,0,0,0-.23.06c-.14.06-.2.16-.16.25l1.22,2.62a24.92,24.92,0,0,0-6.23,1.82A12.25,12.25,0,0,0,33.59,42l-5.09-.87a.75.75,0,0,0-.66.16c-.1.14.05.29.32.33l5,.86c-1.95,2.61-1.14,5.55,2.62,7.63L60,39.19C56.24,37.11,50.47,36.42,45.06,37.13Z"/><path class="cls-1" d="M63.92,40.33,74.14,46a6.51,6.51,0,0,0,5.16.12c1.5-.67,1.61-1.83.26-2.57L69.35,37.88a6.53,6.53,0,0,0-5.17-.12C62.69,38.43,62.57,39.59,63.92,40.33Z"/><path class="cls-1" d="M52.53,59.34a7,7,0,0,0,5.57.14L60,58.6l5.41,3a6.46,6.46,0,0,0,5.16.13c1.5-.67,1.62-1.83.26-2.58l-5.4-3,3.61-1.63,5.41,3a6.53,6.53,0,0,0,5.17.13c1.49-.68,1.61-1.83.26-2.58l-5.41-3,1.94-.88c1.62-.73,1.74-2,.28-2.78L60.88,39.67,36.68,50.6Z"/><ellipse class="cls-2" cx="35.88" cy="44.32" rx="0.68" ry="1.36" transform="translate(-8.76 79.8) rotate(-89.49)"/><path class="cls-2" d="M40.25,54.22c-1.8.81-3.62,1.6-5.43,2.41h0l-.69-.39,5.46-2.4Z"/><path class="cls-2" d="M37.13,52.46l-5.46,2.39L31,54.46l5.46-2.39Z"/><path class="cls-2" d="M57.22,38.46l-7.55,3.36a1.56,1.56,0,0,0-.94,1c0,.23-.08.46-.11.69L47.53,44c0-.45.09-.9.12-1.34s.35-.79,1.05-1.1l7.71-3.38Q56.83,38.28,57.22,38.46Z"/><path class="cls-2" d="M49.45,38.4c1-.43,2-.88,3-1.32-.37-.07-.75-.12-1.14-.17l-1.5.66a3.46,3.46,0,0,1-2.24.32,3.53,3.53,0,0,0-2.89.68c-.56.54-.36,1.16.5,1.6a4.87,4.87,0,0,0,3.22.26c1.08-.28,1.65-.85,1.42-1.45A6.25,6.25,0,0,0,49.45,38.4Zm-1.19,1.44a3,3,0,0,1-2.42-.05c-.64-.34-.62-.88,0-1.21a3.13,3.13,0,0,1,2.42.05C49,39,49,39.52,48.26,39.84Z"/><path class="cls-2" d="M69.44,38.77,64,41.16l-.74-.42.46-.2q2.53-1.07,5-2.16Z"/><path class="cls-2" d="M78.12,43.67l-1.89.84a5.12,5.12,0,0,1-2.54.42c-1.08-.07-2.17-.11-3.26-.13h0l-1-.58.17,0a15.25,15.25,0,0,0,7.9-.94l.56.31Z"/><path class="cls-2" d="M44.44,56.58,39,59l-.69-.4,5.44-2.4Z"/><path class="cls-2" d="M48.48,44.39c-.1.84-.18,1.67-.23,2.51,0,.52-.41.86-1.18,1.19L38.15,52l-.7-.39,8.69-3.81c.74-.33,1.08-.66,1.11-1.15s.1-1.2.17-1.8Z"/><path class="cls-2" d="M60.7,56.48c.08,1-.58,1.65-2,2.22h0l-.32-.19-1.95.86a6.24,6.24,0,0,1-2,.47q2.27-1,4.43-2a1.13,1.13,0,0,0,.67-.7,23.17,23.17,0,0,0,.34-3.09.91.91,0,0,0-.5-.75c-3.46-2.11-3.48-2-8.87-2.31a9.83,9.83,0,0,0-4.91.84l-4.31,1.91-.67-.37,5.95-2.61a5.25,5.25,0,0,1,1.93-.31c2.15,0,4.31.1,6.45.22a5.32,5.32,0,0,1,2,.47c1.42.73,3.25,1.43,3.88,2.32S60.61,55.48,60.7,56.48Z"/><path class="cls-2" d="M51.45,53.13a4.88,4.88,0,0,0-3.19-.34c-1.24.3-1.71.85-1.5,1.61a.55.55,0,0,1-.35.59l-1.67.74.72.41,1.66-.73a3,3,0,0,1,1.21-.1,4.64,4.64,0,0,0,3.41-.51C52.42,54.26,52.3,53.61,51.45,53.13Zm-.91,1.58a3.11,3.11,0,0,1-2.42-.13c-.61-.36-.51-.89.22-1.2a2.94,2.94,0,0,1,2.4.13C51.34,53.87,51.25,54.42,50.54,54.71Z"/><path class="cls-2" d="M55.91,55.66a4.66,4.66,0,0,0-3.15-.41c-1.12.22-1.79.76-1.67,1.37a3.46,3.46,0,0,0,.26.66l-2.18.95.69.39L51,58.11a3.27,3.27,0,0,1,2.23-.28,3.7,3.7,0,0,0,3-.61C56.79,56.68,56.72,56.15,55.91,55.66ZM55,57.15a3,3,0,0,1-2.41-.06c-.63-.35-.58-.9.11-1.21a3,3,0,0,1,2.42.07C55.72,56.31,55.68,56.83,55,57.15Z"/><path class="cls-2" d="M68.56,59.36a5,5,0,0,0-4-.11c-1.06.51-1.11,1.37-.12,1.93a4.93,4.93,0,0,0,3.85.15C69.47,60.84,69.58,59.93,68.56,59.36Zm-.91,1.57a3.07,3.07,0,0,1-2.42-.11c-.61-.35-.55-.91.15-1.21a3.23,3.23,0,0,1,2.43.1C68.42,60.07,68.34,60.63,67.65,60.93Z"/><path class="cls-2" d="M68.77,44.88a2.06,2.06,0,0,0-.51.21A4.52,4.52,0,0,1,65,45.7c-1.16-.19-2-.79-1.94-1.39s1-1.15,2.19-1.26l.21,0h0l1,.58a3.23,3.23,0,0,0-1.78.12c-.72.31-.79.84-.17,1.2a3,3,0,0,0,2.41.12c.51-.21.69-.58.52-.89Z"/><path class="cls-2" d="M61.83,46.08c-1.43-.46-1.19-1-1.11-1.6a8.81,8.81,0,0,0,.13-1.35c0-.45.34-.74,1-1L63,41.6l-.7-.39c-1.92,1-3,2.08-2.63,3.6.11.47-.13.8-1.15,1-1.44.35-1.71,1.31-.75,1.95a4.9,4.9,0,0,0,4,.25C63,47.53,63.17,46.5,61.83,46.08Zm-.7,1.54a3.19,3.19,0,0,1-2.43,0c-.65-.34-.63-.89,0-1.21a3,3,0,0,1,2.41,0C61.82,46.76,61.81,47.3,61.13,47.62Z"/><path class="cls-2" d="M75.16,48.49l-.66-.38L69,50.55a4.81,4.81,0,0,1-2.31.39c-1.67-.09-3.36-.1-5-.2a4.34,4.34,0,0,1-1.63-.4c-1.45-.75-2.68-1.61-4.2-2.3s-2.16-1.6-1.77-2.65c.11-.32.16-.52.88-.66,1.2-.23,1.77-.86,1.54-1.47s-1.31-1.09-2.52-1.14h-.28L51,43.27h0c-.17.52.24,1.08,1.22,1.34.8.21.87.47.78.83a8.86,8.86,0,0,1-.13.9c-.19.54.2.93.94,1.32,1.92,1,3.72,2.12,5.64,3.15a4.68,4.68,0,0,0,1.73.44c1.89.11,3.79.12,5.68.22a5.31,5.31,0,0,0,2.53-.43l5.77-2.55ZM52.45,44.05c-.62-.35-.55-.89.17-1.2a3,3,0,0,1,2.4.09c.62.36.56.91-.14,1.21A3.14,3.14,0,0,1,52.45,44.05Z"/><path class="cls-2" d="M79,57a1.61,1.61,0,0,1-.48.45l-3.23-1.81a1.58,1.58,0,0,1-.9-1.27,2.4,2.4,0,0,1,.1-1.31l1,.55c0,1.1,1.09,2,2.8,3Z"/><path class="cls-2" d="M75.07,58.16a5.53,5.53,0,0,1-2.24-.6l-4.31-2.44.31-.11c.7-.3.77-.86.16-1.2a3.14,3.14,0,0,0-2.43-.08c-.7.31-.77.86-.15,1.21l0,0-.76.34a1.88,1.88,0,0,1-.44-.33c-.57-.55-.32-1.23.63-1.64a5.1,5.1,0,0,1,3.35-.09c1.07.35,1.47,1,1,1.65-.08.12-.18.24-.29.38Z"/></g></svg>