<svg xmlns="http://www.w3.org/2000/svg" viewBox="0 0 140 140"><defs><style>.cls-1{fill:#fff;}.cls-2{fill:#787878;}.cls-3{opacity:0.69;}.cls-4{fill:none;stroke:#9c3;stroke-linecap:round;stroke-miterlimit:10;stroke-width:3px;stroke-dasharray:0.5 7.98;}</style></defs><title>CONSUMER</title><g id="map"><path class="cls-1" d="M62.91,71.18,52.7,65.55a6.53,6.53,0,0,0-5.17-.13c-1.49.68-1.61,1.83-.26,2.58l10.22,5.63a6.51,6.51,0,0,0,5.16.13C64.15,73.08,64.27,71.93,62.91,71.18Z"/><path class="cls-1" d="M117.85,62.14h0L73.44,36.89h0a1.7,1.7,0,0,0-.84-.23,1.73,1.73,0,0,0-.6.12h0l-.07,0L22.33,59.14h0a1.67,1.67,0,0,0-1,1.55V73.58h0a1.66,1.66,0,0,0,.94,1.31h0l44.82,25h0a1.6,1.6,0,0,0,.79.21,1.67,1.67,0,0,0,.59-.11h0l.11,0,49-22.43h0a1.67,1.67,0,0,0,1.11-1.57V63.6A1.67,1.67,0,0,0,117.85,62.14ZM26.16,75.22,23,73.44V67.91l3.18,1.78Zm4.56,2.55L27.54,76V70.46l3.18,1.78Zm4.57,2.55L32.1,78.54V73l3.19,1.78Zm4.56,2.55-3.19-1.78V75.56l3.19,1.78Zm4.56,2.55-3.18-1.78V78.11l3.18,1.78ZM49,88l-3.18-1.78V80.66L49,82.43Zm4.57,2.55-3.19-1.78V83.2L53.54,85Zm4.56,2.55-3.19-1.78V85.75l3.19,1.78Zm4.56,2.55-3.18-1.78V88.3l3.18,1.78Zm4.56,2.55L64,96.38V90.85l3.18,1.78Zm4.72-1.61-3.49,1.61V92.67l3.49-1.61Zm5-2.31-3.49,1.61V90.36L77,88.75Zm5-2.31-3.49,1.61V88.05L82,86.44Zm5-2.31-3.5,1.62v-5.5L87,84.13Zm5-2.3-3.5,1.61v-5.5L92,81.82ZM97,85l-3.5,1.61V81.13L97,79.51Zm5-2.31-3.5,1.61V78.82l3.5-1.61Zm5-2.31L103.52,82V76.51L107,74.9Zm5-2.31-3.5,1.61V74.2l3.5-1.61Zm5-2.31-3.5,1.61V71.89l3.5-1.61ZM67.9,86.27,23,61,72.54,38.67,117,63.93Z"/><path class="cls-1" d="M60.06,50.5l-1.21-2.58c-.06-.14-.34-.23-.62-.2a1.09,1.09,0,0,0-.23.06c-.14.07-.2.16-.16.26l1.22,2.61a25.34,25.34,0,0,0-6.23,1.82,12.38,12.38,0,0,0-4.24,2.91l-5.09-.87a.73.73,0,0,0-.66.17c-.1.13,0,.28.32.32l5,.86c-1.94,2.62-1.14,5.55,2.62,7.63L75,52.56C71.24,50.49,65.47,49.8,60.06,50.5Z"/><path class="cls-1" d="M78.92,53.71l10.22,5.63a6.51,6.51,0,0,0,5.16.13c1.5-.68,1.61-1.83.26-2.58L84.35,51.26a6.49,6.49,0,0,0-5.17-.13C77.69,51.8,77.57,53,78.92,53.71Z"/><path class="cls-1" d="M67.53,72.71a7,7,0,0,0,5.57.14L75,72l5.41,3a6.51,6.51,0,0,0,5.16.12c1.5-.67,1.62-1.83.26-2.57l-5.4-3,3.61-1.63,5.41,3a6.49,6.49,0,0,0,5.17.13c1.49-.67,1.61-1.83.26-2.58l-5.41-3,1.94-.88c1.62-.73,1.74-2,.28-2.78L75.88,53,51.68,64Z"/><ellipse class="cls-2" cx="50.88" cy="57.69" rx="0.68" ry="1.36" transform="translate(-7.26 108.05) rotate(-89.49)"/><path class="cls-2" d="M55.25,67.6,49.82,70h0l-.69-.39,5.46-2.4Z"/><path class="cls-2" d="M52.13,65.83l-5.46,2.4-.69-.4,5.46-2.39Z"/><path class="cls-2" d="M72.22,51.83l-7.55,3.36a1.56,1.56,0,0,0-.94,1c0,.23-.08.46-.11.69l-1.09.48c0-.45.09-.89.12-1.34s.35-.79,1.05-1.09l7.71-3.39Q71.83,51.65,72.22,51.83Z"/><path class="cls-2" d="M64.45,51.77c1-.43,2-.88,3-1.32-.37-.07-.75-.12-1.14-.17l-1.5.67a3.46,3.46,0,0,1-2.24.31,3.53,3.53,0,0,0-2.89.68c-.56.55-.36,1.17.5,1.61a4.87,4.87,0,0,0,3.22.25c1.08-.28,1.65-.85,1.42-1.44A5.24,5.24,0,0,0,64.45,51.77Zm-1.19,1.44a3,3,0,0,1-2.42,0c-.64-.35-.62-.89,0-1.21a3,3,0,0,1,2.42,0C64,52.36,64,52.89,63.26,53.21Z"/><path class="cls-2" d="M84.44,52.14,79,54.53l-.74-.42.46-.19,5-2.17Z"/><path class="cls-2" d="M93.12,57l-1.89.84a5.12,5.12,0,0,1-2.54.42c-1.08-.07-2.17-.11-3.26-.13h0l-1-.57.18,0a15.12,15.12,0,0,0,7.89-.94L93,57Z"/><path class="cls-2" d="M59.44,70,54,72.35,53.29,72l5.44-2.41Z"/><path class="cls-2" d="M63.48,57.76c-.1.84-.18,1.67-.23,2.51,0,.52-.41.86-1.18,1.19l-8.92,3.92-.7-.39,8.69-3.81c.74-.32,1.08-.65,1.11-1.15s.1-1.2.17-1.8Z"/><path class="cls-2" d="M75.7,69.85c.08,1-.58,1.65-2,2.22h0l-.32-.18-2,.85a6.24,6.24,0,0,1-2,.47q2.27-1,4.43-2a1.14,1.14,0,0,0,.67-.71,23.17,23.17,0,0,0,.34-3.09.91.91,0,0,0-.5-.75c-3.46-2.1-3.48-2-8.87-2.31a10,10,0,0,0-4.91.84l-4.31,1.91-.67-.37,5.95-2.61a5.47,5.47,0,0,1,1.93-.31c2.15,0,4.31.1,6.45.22a5.32,5.32,0,0,1,1.95.47c1.42.73,3.25,1.43,3.88,2.32S75.61,68.85,75.7,69.85Z"/><path class="cls-2" d="M66.45,66.51a4.82,4.82,0,0,0-3.19-.35c-1.24.3-1.71.85-1.5,1.61a.55.55,0,0,1-.35.59l-1.67.74.72.41,1.66-.72a2.79,2.79,0,0,1,1.21-.11,4.7,4.7,0,0,0,3.41-.5C67.42,67.64,67.3,67,66.45,66.51Zm-.91,1.57A3.11,3.11,0,0,1,63.12,68c-.61-.36-.51-.89.22-1.2a3,3,0,0,1,2.4.13C66.34,67.25,66.25,67.79,65.54,68.08Z"/><path class="cls-2" d="M70.91,69a4.72,4.72,0,0,0-3.15-.41c-1.12.22-1.79.76-1.67,1.38a3.39,3.39,0,0,0,.26.65l-2.18,1,.69.38c.38-.16.76-.34,1.14-.51a3.27,3.27,0,0,1,2.23-.28,3.7,3.7,0,0,0,3-.61C71.79,70.06,71.72,69.52,70.91,69Zm-1,1.49a3,3,0,0,1-2.41-.06c-.63-.35-.58-.9.11-1.21a3.08,3.08,0,0,1,2.42.07C70.72,69.68,70.68,70.21,70,70.52Z"/><path class="cls-2" d="M83.56,72.73a5,5,0,0,0-4-.1c-1.06.5-1.11,1.37-.12,1.92a4.93,4.93,0,0,0,3.85.15C84.47,74.21,84.58,73.3,83.56,72.73Zm-.91,1.57a3.12,3.12,0,0,1-2.42-.1c-.61-.36-.55-.92.15-1.21a3.14,3.14,0,0,1,2.43.1C83.42,73.44,83.34,74,82.65,74.3Z"/><path class="cls-2" d="M83.77,58.26a1.75,1.75,0,0,0-.51.2,4.52,4.52,0,0,1-3.23.61c-1.16-.19-2-.78-1.94-1.39s1-1.15,2.19-1.26l.21,0h0l1,.58a3.23,3.23,0,0,0-1.78.13c-.72.3-.79.83-.17,1.19a3,3,0,0,0,2.41.12c.51-.21.69-.58.52-.89Z"/><path class="cls-2" d="M76.83,59.45c-1.43-.45-1.19-1-1.11-1.6a8.81,8.81,0,0,0,.13-1.35c0-.45.34-.74,1-1L78,55l-.7-.4c-1.92,1-3,2.08-2.63,3.6.11.47-.13.8-1.15,1-1.44.35-1.71,1.31-.75,2a4.9,4.9,0,0,0,4,.25C78,60.9,78.17,59.87,76.83,59.45ZM76.13,61a3.19,3.19,0,0,1-2.43,0c-.65-.34-.63-.89,0-1.21a3,3,0,0,1,2.41,0C76.82,60.14,76.81,60.67,76.13,61Z"/><path class="cls-2" d="M90.16,61.86l-.66-.37c-1.85.8-3.69,1.62-5.53,2.43a4.69,4.69,0,0,1-2.31.39c-1.67-.09-3.36-.09-5-.2a4.34,4.34,0,0,1-1.63-.4c-1.45-.75-2.68-1.6-4.2-2.3s-2.16-1.6-1.77-2.65c.11-.31.16-.52.88-.66,1.2-.23,1.77-.85,1.54-1.47s-1.31-1.08-2.52-1.13h-.28L66,56.64h0c-.17.53.24,1.08,1.22,1.34.8.21.87.47.78.83a8.86,8.86,0,0,1-.13.9c-.19.54.2.93.94,1.33,1.92,1,3.72,2.11,5.64,3.14a4.68,4.68,0,0,0,1.73.44c1.89.11,3.79.12,5.68.22a5.08,5.08,0,0,0,2.53-.43l5.77-2.55ZM67.45,57.43c-.62-.36-.55-.9.17-1.21a3,3,0,0,1,2.4.09c.62.36.56.91-.14,1.21A3.19,3.19,0,0,1,67.45,57.43Z"/><path class="cls-2" d="M94,70.34a1.77,1.77,0,0,1-.48.46L90.31,69a1.57,1.57,0,0,1-.9-1.27,2.4,2.4,0,0,1,.1-1.31l1,.55c0,1.11,1.09,2,2.8,3Z"/><path class="cls-2" d="M90.07,71.53a5.53,5.53,0,0,1-2.24-.6l-4.31-2.44.31-.1c.7-.31.77-.87.16-1.21a3.14,3.14,0,0,0-2.43-.08c-.7.31-.77.86-.15,1.21l0,0-.76.34a1.85,1.85,0,0,1-.44-.32c-.57-.56-.32-1.23.63-1.64a5,5,0,0,1,3.35-.1c1.07.35,1.47,1,1,1.65a4.28,4.28,0,0,1-.29.38Z"/><g class="cls-3"><circle class="cls-4" cx="70" cy="70" r="64.77"/></g></g></svg>