<?xml version="1.0" encoding="utf-8"?>
<!-- Generator: Adobe Illustrator 23.0.6, SVG Export Plug-In . SVG Version: 6.00 Build 0)  -->
<svg version="1.1" id="Layer_1" xmlns="http://www.w3.org/2000/svg" xmlns:xlink="http://www.w3.org/1999/xlink" x="0px" y="0px"
	 viewBox="0 0 110 110" style="enable-background:new 0 0 110 110;" xml:space="preserve">
<style type="text/css">
	.st0{fill:#FFFFFF;}
	.st1{fill:none;stroke:#FFFFFF;stroke-width:0.7391;stroke-miterlimit:10;}
	.st2{font-family:'Lato-Black';}
	.st3{font-size:4.5706px;}
</style>
<title>AUTO NO CIRCLE</title>
<g>
	<path class="st0" d="M66,87c-1.6,0-3-1-3.5-2.5h-3.3c-0.5,1.5-1.9,2.5-3.5,2.5c-1.6,0-3-1-3.5-2.5h-3.3C48.3,85.9,47,87,45.3,87
		s-3-1-3.5-2.5H31.7c-3.4,0-6.1-2.8-6.1-6.1V68.2c-1.5-0.5-2.5-1.9-2.5-3.5c0-1.6,1-3,2.5-3.5v-3.3c-1.5-0.5-2.5-1.9-2.5-3.5
		c0-1.6,1-3,2.5-3.5v-3.3c-1.5-0.5-2.5-1.9-2.5-3.5c0-1.6,1-3,2.5-3.5V30.4c0-3.4,2.8-6.1,6.1-6.1h10.1c0.5-1.5,1.9-2.5,3.5-2.5
		s3,1,3.5,2.5h3.3c0.5-1.5,1.9-2.5,3.5-2.5c1.6,0,3,1,3.5,2.5h3.3c0.5-1.5,1.9-2.5,3.5-2.5c1.6,0,3,1,3.5,2.5h10.1
		c3.4,0,6.1,2.8,6.1,6.1v10.1c1.5,0.5,2.5,1.9,2.5,3.5c0,1.6-1,3-2.5,3.5v3.3c1.5,0.5,2.5,1.9,2.5,3.5c0,1.6-1,3-2.5,3.5v3.3
		c1.5,0.5,2.5,1.9,2.5,3.5c0,1.6-1,3-2.5,3.5v10.1c0,3.4-2.8,6.1-6.1,6.1H69.5C69,85.9,67.6,87,66,87z M57,82h7.8v1.2
		c0,0.7,0.6,1.3,1.3,1.3c0.7,0,1.3-0.6,1.3-1.3V82h12.3c2.1,0,3.7-1.7,3.7-3.7V66h1.2c0.7,0,1.3-0.6,1.3-1.3c0-0.7-0.6-1.3-1.3-1.3
		h-1.2v-7.8h1.2c0.7,0,1.3-0.6,1.3-1.3c0-0.7-0.6-1.3-1.3-1.3h-1.2v-7.8h1.2c0.7,0,1.3-0.6,1.3-1.3c0-0.7-0.6-1.3-1.3-1.3h-1.2V30.4
		c0-2.1-1.7-3.7-3.7-3.7H67.3v-1.2c0-0.7-0.6-1.3-1.3-1.3c-0.7,0-1.3,0.6-1.3,1.3v1.2H57v-1.2c0-0.7-0.6-1.3-1.3-1.3
		c-0.7,0-1.3,0.6-1.3,1.3v1.2h-7.8v-1.2c0-0.7-0.6-1.3-1.3-1.3c-0.7,0-1.3,0.6-1.3,1.3v1.2H31.7c-2.1,0-3.7,1.7-3.7,3.7v12.3h-1.2
		c-0.7,0-1.3,0.6-1.3,1.3c0,0.7,0.6,1.3,1.3,1.3H28v7.8h-1.2c-0.7,0-1.3,0.6-1.3,1.3c0,0.7,0.6,1.3,1.3,1.3H28v7.8h-1.2
		c-0.7,0-1.3,0.6-1.3,1.3c0,0.7,0.6,1.3,1.3,1.3H28v12.3c0,2.1,1.7,3.7,3.7,3.7h12.3v1.2c0,0.7,0.6,1.3,1.3,1.3
		c0.7,0,1.3-0.6,1.3-1.3V82h7.8v1.2c0,0.7,0.6,1.3,1.3,1.3c0.7,0,1.3-0.6,1.3-1.3V82z"/>
	<g>
		<path class="st1" d="M39.5,40.9c-0.8,0-1.4,0.5-1.8,1.6c-0.4,1.1-0.7,2.5-0.7,4.4c0,3.9,0.9,5.9,2.7,5.9c0.5,0,1.1-0.1,1.6-0.4
			c0.5-0.2,1-0.5,1.5-0.9v4.6c-1,0.7-2.2,1.1-3.4,1.1c-1.8,0-3.2-0.9-4.2-2.7c-1-1.8-1.5-4.3-1.5-7.7c0-2.1,0.2-3.9,0.7-5.5
			c0.5-1.6,1.2-2.8,2-3.7c0.9-0.9,1.9-1.3,3.1-1.3c1.3,0,2.6,0.5,3.8,1.4l-1,4.3c-0.4-0.4-0.9-0.6-1.3-0.9
			C40.5,41,40,40.9,39.5,40.9z"/>
		<path class="st1" d="M56.3,46.8c0,3.4-0.5,6-1.5,7.8c-1,1.8-2.5,2.7-4.4,2.7c-1.9,0-3.4-0.9-4.4-2.7c-1-1.8-1.5-4.4-1.5-7.8
			c0-3.4,0.5-6,1.5-7.7c1-1.8,2.5-2.7,4.4-2.7c1.9,0,3.4,0.9,4.4,2.6C55.8,40.8,56.3,43.4,56.3,46.8z M47.9,46.8
			c0,3.9,0.8,5.9,2.5,5.9c0.8,0,1.4-0.5,1.9-1.4c0.4-1,0.6-2.4,0.6-4.5c0-2-0.2-3.5-0.6-4.5c-0.4-1-1-1.4-1.8-1.4
			C48.8,40.9,47.9,42.9,47.9,46.8z"/>
		<path class="st1" d="M61.7,49.6V57h-3.3V36.7h4c3.3,0,5,2,5,6c0,2.3-0.7,4.2-2.1,5.4l3.5,8.8h-3.7l-2.6-7.4H61.7z M61.7,45.5h0.6
			c1.1,0,1.7-0.8,1.7-2.5c0-1.4-0.6-2.1-1.7-2.1h-0.6V45.5z"/>
		<path class="st1" d="M77.7,57H70V36.7h7.7v4.2h-4.4v3.4h4.1v4.4h-4.1v4.1h4.4V57z"/>
	</g>
	<text transform="matrix(1.4362 0 0 1 33.4521 72.9779)" class="st0 st2 st3">ENGINEERING</text>
</g>
</svg>
