<?xml version="1.0" encoding="utf-8"?>
<!-- Generator: Adobe Illustrator 23.0.6, SVG Export Plug-In . SVG Version: 6.00 Build 0)  -->
<svg version="1.1" id="Layer_1" xmlns="http://www.w3.org/2000/svg" xmlns:xlink="http://www.w3.org/1999/xlink" x="0px" y="0px"
	 viewBox="0 0 150 150" style="enable-background:new 0 0 150 150;" xml:space="preserve">
<style type="text/css">
	.st0{opacity:0.69;}
	.st1{fill:none;stroke:#99CC33;stroke-width:3;stroke-linecap:round;stroke-miterlimit:10;stroke-dasharray:0.5001,8.0013;}
	.st2{fill:#FFFFFF;}
	.st3{fill:none;stroke:#FFFFFF;stroke-width:0.7391;stroke-miterlimit:10;}
	.st4{font-family:'Lato-Black';}
	.st5{font-size:5.1575px;}
</style>
<title>AUTO</title>
<g class="st0">
	<circle class="st1" cx="75.6" cy="75.2" r="66.3"/>
</g>
<g>
	<path class="st2" d="M87.3,114.8c-1.8,0-3.4-1.2-4-2.8h-3.8c-0.6,1.6-2.1,2.8-4,2.8s-3.4-1.2-4-2.8h-3.8c-0.6,1.6-2.1,2.8-4,2.8
		c-1.8,0-3.4-1.2-4-2.8H48.6c-3.8,0-6.9-3.1-6.9-6.9V93.7c-1.6-0.6-2.8-2.1-2.8-4c0-1.8,1.2-3.4,2.8-4V82c-1.6-0.6-2.8-2.1-2.8-4
		s1.2-3.4,2.8-4v-3.8c-1.6-0.6-2.8-2.1-2.8-4c0-1.8,1.2-3.4,2.8-4V51c0-3.8,3.1-6.9,6.9-6.9H60c0.6-1.6,2.1-2.8,4-2.8
		c1.8,0,3.4,1.2,4,2.8h3.8c0.6-1.6,2.1-2.8,4-2.8s3.4,1.2,4,2.8h3.8c0.6-1.6,2.1-2.8,4-2.8c1.8,0,3.4,1.2,4,2.8h11.4
		c3.8,0,6.9,3.1,6.9,6.9v11.4c1.6,0.6,2.8,2.1,2.8,4c0,1.8-1.2,3.4-2.8,4v3.8c1.6,0.6,2.8,2.1,2.8,4s-1.2,3.4-2.8,4v3.8
		c1.6,0.6,2.8,2.1,2.8,4c0,1.8-1.2,3.4-2.8,4v11.4c0,3.8-3.1,6.9-6.9,6.9H91.2C90.7,113.6,89.1,114.8,87.3,114.8z M77.1,109.3h8.8
		v1.4c0,0.8,0.6,1.4,1.4,1.4c0.8,0,1.4-0.6,1.4-1.4v-1.4h13.9c2.3,0,4.2-1.9,4.2-4.2V91.2h1.4c0.8,0,1.4-0.6,1.4-1.4
		c0-0.8-0.6-1.4-1.4-1.4h-1.4v-8.8h1.4c0.8,0,1.4-0.6,1.4-1.4s-0.6-1.4-1.4-1.4h-1.4v-8.8h1.4c0.8,0,1.4-0.6,1.4-1.4
		c0-0.8-0.6-1.4-1.4-1.4h-1.4V51c0-2.3-1.9-4.2-4.2-4.2H88.7v-1.4c0-0.8-0.6-1.4-1.4-1.4c-0.8,0-1.4,0.6-1.4,1.4v1.4h-8.8v-1.4
		c0-0.8-0.6-1.4-1.4-1.4s-1.4,0.6-1.4,1.4v1.4h-8.8v-1.4c0-0.8-0.6-1.4-1.4-1.4c-0.8,0-1.4,0.6-1.4,1.4v1.4H48.6
		c-2.3,0-4.2,1.9-4.2,4.2v13.9H43c-0.8,0-1.4,0.6-1.4,1.4c0,0.8,0.6,1.4,1.4,1.4h1.4v8.8H43c-0.8,0-1.4,0.6-1.4,1.4s0.6,1.4,1.4,1.4
		h1.4v8.8H43c-0.8,0-1.4,0.6-1.4,1.4c0,0.8,0.6,1.4,1.4,1.4h1.4v13.9c0,2.3,1.9,4.2,4.2,4.2h13.9v1.4c0,0.8,0.6,1.4,1.4,1.4
		c0.8,0,1.4-0.6,1.4-1.4v-1.4h8.8v1.4c0,0.8,0.6,1.4,1.4,1.4s1.4-0.6,1.4-1.4V109.3z"/>
	<g>
		<path class="st3" d="M57.4,62.9c-0.9,0-1.6,0.6-2.1,1.8c-0.5,1.2-0.7,2.9-0.7,5c0,4.4,1,6.6,3,6.6c0.6,0,1.2-0.1,1.8-0.4
			c0.6-0.3,1.1-0.6,1.7-1V80c-1.1,0.8-2.4,1.3-3.9,1.3c-2.1,0-3.7-1-4.8-3c-1.1-2-1.7-4.9-1.7-8.7c0-2.4,0.3-4.4,0.8-6.2
			c0.5-1.8,1.3-3.2,2.3-4.1c1-1,2.2-1.4,3.5-1.4c1.5,0,2.9,0.5,4.3,1.6l-1.1,4.9c-0.5-0.4-1-0.7-1.5-1C58.5,63,58,62.9,57.4,62.9z"
			/>
		<path class="st3" d="M76.3,69.5c0,3.8-0.6,6.8-1.7,8.8s-2.8,3-5,3c-2.2,0-3.8-1-5-3c-1.1-2-1.7-4.9-1.7-8.8c0-3.8,0.6-6.7,1.7-8.7
			c1.1-2,2.8-3,5-3c2.2,0,3.8,1,5,3C75.8,62.7,76.3,65.7,76.3,69.5z M66.9,69.5c0,4.4,0.9,6.6,2.8,6.6c0.9,0,1.6-0.5,2.1-1.6
			c0.5-1.1,0.7-2.7,0.7-5c0-2.3-0.2-4-0.7-5.1c-0.5-1.1-1.1-1.6-2.1-1.6C67.8,62.8,66.9,65.1,66.9,69.5z"/>
		<path class="st3" d="M82.4,72.7V81h-3.7V58.1h4.5c3.7,0,5.6,2.3,5.6,6.8c0,2.6-0.8,4.7-2.3,6.1l4,10h-4.2l-2.9-8.3H82.4z M82.4,68
			h0.7c1.3,0,1.9-1,1.9-2.9c0-1.6-0.6-2.4-1.9-2.4h-0.7V68z"/>
		<path class="st3" d="M100.5,81h-8.7V58.1h8.7v4.7h-5v3.9h4.6v5h-4.6v4.6h5V81z"/>
	</g>
	<text transform="matrix(1.4362 0 0 1 50.5305 99.0273)" class="st2 st4 st5">ENGINEERING</text>
</g>
</svg>
