<svg xmlns="http://www.w3.org/2000/svg" viewBox="0 0 140 140"><defs><style>.cls-1{fill:#fff;}.cls-2{opacity:0.69;}.cls-3{fill:none;stroke:#9c3;stroke-linecap:round;stroke-miterlimit:10;stroke-width:3px;stroke-dasharray:0.5 7.98;}</style></defs><title>LDCC</title><g id="map"><path class="cls-1" d="M70.43,35.65a25.66,25.66,0,0,1,24.4,17.48,19.21,19.21,0,0,1,18.77,19.6A19.89,19.89,0,0,1,94,92.37H45.68A19.23,19.23,0,0,1,26.4,72.73a20,20,0,0,1,19.08-19.6,26.68,26.68,0,0,1,25-17.48m0-3.61A30.36,30.36,0,0,0,43,49.73,23.6,23.6,0,0,0,22.78,72.67,22.86,22.86,0,0,0,45.68,96H94a23.51,23.51,0,0,0,23.21-23.2A22.83,22.83,0,0,0,97.39,49.71,29.31,29.31,0,0,0,70.43,32Z"/><path class="cls-1" d="M87.32,83.48a1,1,0,0,0-1-1H73.41a4.58,4.58,0,0,0-2.07-1.87V78.14H85.08a2.24,2.24,0,0,0,2.24-2.24V71.19A2.25,2.25,0,0,0,85.08,69H71.34V67.84H85.08a2.25,2.25,0,0,0,2.24-2.24V60.89a2.24,2.24,0,0,0-2.24-2.24H71.34V57.54H85.08a2.24,2.24,0,0,0,2.23-2.24V50.59a2.23,2.23,0,0,0-2.23-2.24H54.92a2.25,2.25,0,0,0-2.24,2.24V55.3a2.24,2.24,0,0,0,2.24,2.24H67.78v1.11H54.92a2.25,2.25,0,0,0-2.24,2.24V65.6a2.24,2.24,0,0,0,2.24,2.24H67.78V69H54.92a2.24,2.24,0,0,0-2.24,2.23v4.72a2.23,2.23,0,0,0,2.23,2.23H67.78v2.39a4.6,4.6,0,0,0-2.2,1.93H53.72a1,1,0,0,0-1,1v2.44a1,1,0,0,0,1,1H65.58a4.51,4.51,0,0,0,7.83,0H86.3a1,1,0,0,0,1-1ZM85.08,71a.2.2,0,0,1,.2.2V75.9a.2.2,0,0,1-.2.21h-5V71Zm0-10.31a.21.21,0,0,1,.2.21V65.6a.21.21,0,0,1-.2.21h-5V60.69Zm0-10.3a.2.2,0,0,1,.2.21V55.3a.2.2,0,0,1-.2.2h-5V50.38Z"/><g class="cls-2"><circle class="cls-3" cx="70" cy="70" r="64.77" transform="translate(-28.99 70) rotate(-45)"/></g></g></svg>