<svg xmlns="http://www.w3.org/2000/svg" viewBox="0 0 110 110"><defs><style>.cls-1{fill:#fff;}</style></defs><title>Artboard 130 copy 12</title><g id="map"><path class="cls-1" d="M55.43,26.64a25.66,25.66,0,0,1,24.4,17.48A19.21,19.21,0,0,1,98.6,63.72,19.9,19.9,0,0,1,79,83.36H30.68A19.23,19.23,0,0,1,11.4,63.72a20,20,0,0,1,19.08-19.6,26.68,26.68,0,0,1,25-17.48m0-3.61A30.36,30.36,0,0,0,28,40.72,23.6,23.6,0,0,0,7.78,63.66,22.85,22.85,0,0,0,30.68,87H79a23.5,23.5,0,0,0,23.21-23.19A22.83,22.83,0,0,0,82.39,40.7,29.31,29.31,0,0,0,55.43,23Z"/><path class="cls-1" d="M72.32,74.47a1,1,0,0,0-1-1H58.41a4.58,4.58,0,0,0-2.07-1.87V69.13H70.08a2.24,2.24,0,0,0,2.24-2.24V62.18a2.25,2.25,0,0,0-2.24-2.24H56.34V58.83H70.08a2.25,2.25,0,0,0,2.24-2.24V51.88a2.24,2.24,0,0,0-2.24-2.24H56.34V48.53H70.08a2.24,2.24,0,0,0,2.23-2.24V41.58a2.23,2.23,0,0,0-2.23-2.24H39.92a2.24,2.24,0,0,0-2.24,2.24v4.71a2.24,2.24,0,0,0,2.24,2.24H52.78v1.11H39.92a2.25,2.25,0,0,0-2.24,2.24v4.71a2.24,2.24,0,0,0,2.24,2.24H52.78v1.11H39.92a2.25,2.25,0,0,0-2.24,2.24V66.9a2.23,2.23,0,0,0,2.23,2.23H52.78v2.39a4.55,4.55,0,0,0-2.2,1.93H38.72a1,1,0,0,0-1,1v2.44a1,1,0,0,0,1,1H50.58a4.51,4.51,0,0,0,7.83,0H71.3a1,1,0,0,0,1-1ZM70.08,62a.2.2,0,0,1,.2.2v4.71a.21.21,0,0,1-.2.21h-5V62Zm0-10.31a.2.2,0,0,1,.2.21v4.71a.2.2,0,0,1-.2.2h-5V51.67Zm0-10.3a.2.2,0,0,1,.2.21v4.71a.2.2,0,0,1-.2.2h-5V41.37Z"/></g></svg>