<svg xmlns="http://www.w3.org/2000/svg" viewBox="0 0 110 110"><defs><style>.cls-1{fill:#fff;}</style></defs><title>LEDGE NO CIRCLE</title><g id="map"><circle class="cls-1" cx="31.37" cy="54.93" r="3.77" transform="translate(-0.16 0.09) rotate(-0.16)"/><path class="cls-1" d="M37.36,61h0l0,0a.83.83,0,0,1-.18.13,8.7,8.7,0,0,1-2,1.39l-.72-1.46a7,7,0,0,0-.09-12.53l.73-1.48a8.66,8.66,0,0,1,4.69,6.34v0A8.66,8.66,0,0,1,37.36,61Z"/><path class="cls-1" d="M28.14,61.2l-.74,1.48a8.67,8.67,0,0,1-4.71-6.35v0a8.63,8.63,0,0,1,2.43-7.53h0l0,0a1.18,1.18,0,0,1,.18-.13,8.65,8.65,0,0,1,2.2-1.5l.72,1.46a7,7,0,0,0-.1,12.65Z"/><path class="cls-1" d="M40,64.25h0a.77.77,0,0,1-.21.14A12.51,12.51,0,0,1,37,66.28l-.71-1.46a11.15,11.15,0,0,0,6-11.47s0-.06,0-.09l0-.18c0-.08,0-.16,0-.24v0a11.12,11.12,0,0,0-6-7.89l.73-1.49a12.78,12.78,0,0,1,6.88,9.07.36.36,0,0,0,0,.1l0,.19v.05a1.1,1.1,0,0,1,0,.18l0,.11A12.74,12.74,0,0,1,40,64.25Z"/><path class="cls-1" d="M26.31,64.88l-.73,1.49a12.76,12.76,0,0,1-6.9-9.08l0-.11,0-.18v0l0-.18s0-.07,0-.11a12.77,12.77,0,0,1,3.93-11.12h0a.77.77,0,0,1,.21-.14,12.86,12.86,0,0,1,3-2l.72,1.46a11.14,11.14,0,0,0-6.23,11.58s0,.06,0,.09l0,.18c0,.08,0,.16,0,.24v0A11.14,11.14,0,0,0,26.31,64.88Z"/><path class="cls-1" d="M84.89,75.49h0l0,0a.81.81,0,0,1-.18.12,8.4,8.4,0,0,1-2,1.39L82,75.57a7,7,0,0,0-.09-12.52l.73-1.49a8.68,8.68,0,0,1,4.69,6.34v0A8.66,8.66,0,0,1,84.89,75.49Z"/><path class="cls-1" d="M75.67,75.64l-.74,1.48a8.64,8.64,0,0,1-4.71-6.35v0a8.66,8.66,0,0,1,2.43-7.54h0l0,0a.71.71,0,0,1,.18-.12,8.43,8.43,0,0,1,2.2-1.51L75.77,63a7,7,0,0,0-.1,12.65Z"/><path class="cls-1" d="M87.49,78.69h0a.6.6,0,0,1-.21.14,12.51,12.51,0,0,1-2.75,1.88l-.71-1.46a11.14,11.14,0,0,0,6-11.47s0-.06,0-.09l0-.18c0-.08,0-.16,0-.23v0a11.12,11.12,0,0,0-6-7.9l.73-1.49a12.78,12.78,0,0,1,6.88,9.07.52.52,0,0,0,0,.11l0,.18v0a1.1,1.1,0,0,1,0,.18l0,.11A12.74,12.74,0,0,1,87.49,78.69Z"/><path class="cls-1" d="M73.84,79.33l-.73,1.48a12.76,12.76,0,0,1-6.9-9.08l0-.1,0-.19v0l0-.19a.43.43,0,0,1,0-.11A12.77,12.77,0,0,1,70,60h0a.77.77,0,0,1,.21-.14,12.51,12.51,0,0,1,3-2L74,59.3a11.15,11.15,0,0,0-6.23,11.58s0,.06,0,.09l0,.18c0,.08,0,.16,0,.24v0A11.16,11.16,0,0,0,73.84,79.33Z"/><path class="cls-1" d="M56.46,83.48h0l0,0-.18.13a8.61,8.61,0,0,1-2,1.39l-.72-1.46a7,7,0,0,0-.1-12.52l.74-1.49a8.68,8.68,0,0,1,4.69,6.34v0A8.68,8.68,0,0,1,56.46,83.48Z"/><path class="cls-1" d="M47.23,83.64l-.73,1.48a8.63,8.63,0,0,1-4.71-6.35v0a8.66,8.66,0,0,1,2.43-7.54h0l0,0a.83.83,0,0,1,.18-.13,8.77,8.77,0,0,1,2.19-1.5L47.33,71a7,7,0,0,0-.1,12.65Z"/><path class="cls-1" d="M59.06,86.69h0a.77.77,0,0,1-.21.14,13,13,0,0,1-2.75,1.88l-.72-1.46a11.15,11.15,0,0,0,6-11.47s0-.06,0-.09a1.1,1.1,0,0,0,0-.18c0-.08,0-.16-.05-.24v0a11.11,11.11,0,0,0-6-7.89L56,65.87a12.77,12.77,0,0,1,6.87,9.07.36.36,0,0,1,0,.11c0,.06,0,.12,0,.18v0l0,.18,0,.11A12.8,12.8,0,0,1,59.06,86.69Z"/><path class="cls-1" d="M45.41,87.32l-.73,1.49a12.76,12.76,0,0,1-6.9-9.08l0-.1,0-.19v0l0-.18s0-.07,0-.11A12.77,12.77,0,0,1,41.6,68h0a1,1,0,0,1,.22-.14,12.8,12.8,0,0,1,3-2l.72,1.46a11.15,11.15,0,0,0-6.22,11.58.28.28,0,0,0,0,.09l0,.18a2,2,0,0,0,0,.24v0A11.13,11.13,0,0,0,45.41,87.32Z"/><circle class="cls-1" cx="78.77" cy="69.33" r="3.77" transform="translate(-0.2 0.22) rotate(-0.16)"/><circle class="cls-1" cx="50.33" cy="77.33" r="3.77" transform="translate(-0.22 0.14) rotate(-0.16)"/><path class="cls-1" d="M68.12,15.6A5.12,5.12,0,0,1,73,21a5.52,5.52,0,0,1-2,4.35,33.79,33.79,0,0,0,3.71,9.52L83.82,49.1h0l0,0,4.39,1.43v1.68H48V50.42l4.71-1.32h0L62,34.55a34.75,34.75,0,0,0,3.56-9.07A5.51,5.51,0,0,1,63.27,21a5.12,5.12,0,0,1,4.85-5.36m0,26L72.18,39l-1-1.59-.09-.15a50.65,50.65,0,0,1-2.85-6.18A49.88,49.88,0,0,1,65.5,37l-.09.15-1.26,2,4,2.5m9.62,6.06-5-7.81-3.65,2.35,8.67,5.46m-19,0,8.47-5.46L63.6,40l-4.89,7.72m-.35,1.43H78.14l-10-6.29L58.36,49.1m-.57,0h.05l0,0,0,0M68.12,13A7.7,7.7,0,0,0,60.69,21a8.23,8.23,0,0,0,2,5.38,36,36,0,0,1-2.92,6.92L51.07,46.89l-3.76,1-1.88.53v6.37H90.81V48.7L89,48.12l-2-.66.27-.92h-2l-8.36-13a33.83,33.83,0,0,1-3.1-7.43A8.3,8.3,0,0,0,75.55,21,7.71,7.71,0,0,0,68.12,13Zm-.41,25.26v0l0-.05,0,0,.43-.83.44.85-.54.35-.4-.25Zm-.59,8.24,1-.67,1.06.67Z"/><path class="cls-1" d="M72.56,28.87a2,2,0,0,1,0,.42A26.74,26.74,0,0,1,84.71,47.84l.09.65h2.41c0-.34-.09-.68-.14-1A29.27,29.27,0,0,0,72,26.21a4.67,4.67,0,0,1-.41.84A2.19,2.19,0,0,1,72.56,28.87Z"/><path class="cls-1" d="M98.25,66.6s0-.07,0-.11v0l0-.09,0-.21v-.07a1.77,1.77,0,0,0,0-.2v-.12s0-.08,0-.12a19.69,19.69,0,0,0-9.83-13.56v1.6H86.15a17.27,17.27,0,0,1,9.59,12.41l0,.14c0,.08,0,.17,0,.25v.06c0,.09,0,.17,0,.25a.77.77,0,0,1,0,.15,17.26,17.26,0,0,1-5.31,15v0a1.45,1.45,0,0,1-.29.19,17.28,17.28,0,0,1-18.23,3,1.36,1.36,0,0,1-.36-.1h0A17.31,17.31,0,0,1,67,82a17.39,17.39,0,0,1-4.85,8l0,0a1.38,1.38,0,0,1-.28.19,17.24,17.24,0,0,1-8.7,4.16,16.93,16.93,0,0,1-2.82.23,17.14,17.14,0,0,1-6.72-1.37,1.12,1.12,0,0,1-.36-.09h0a17.28,17.28,0,0,1-9.88-12.54s0-.1,0-.14,0-.17,0-.25v-.07c0-.08,0-.16,0-.25a.68.68,0,0,0,0-.14,17.23,17.23,0,0,1,.69-7.79,17.48,17.48,0,0,1-2.68.21,17.05,17.05,0,0,1-6.71-1.37,1.06,1.06,0,0,1-.36-.09h0a17.29,17.29,0,0,1-9.87-12.54l0-.15c0-.08,0-.16,0-.24v-.07a2.17,2.17,0,0,1,0-.25.78.78,0,0,1,0-.14,17.28,17.28,0,0,1,5.31-15.05h0a1.12,1.12,0,0,1,.29-.19,17.22,17.22,0,0,1,8.69-4.17,18.07,18.07,0,0,1,2.82-.23,17.34,17.34,0,0,1,4,.48A26.75,26.75,0,0,1,54.1,25.46a27.82,27.82,0,0,1,4.15-.32,26.51,26.51,0,0,1,4.38.37,5,5,0,0,1-.11-1,4.73,4.73,0,0,1,.2-1.37,29.08,29.08,0,0,0-4.47-.36,29.72,29.72,0,0,0-4.52.35A29.15,29.15,0,0,0,34.12,35.46a18.43,18.43,0,0,0-2.88-.22,19.23,19.23,0,0,0-3.21.27,19.58,19.58,0,0,0-9.69,4.56,3.75,3.75,0,0,0-.51.38l0,0h0a19.68,19.68,0,0,0-6.05,17.12s0,.08,0,.12v0l0,.08,0,.21v.06a1.3,1.3,0,0,0,0,.21v.13s0,.08,0,.12A19.72,19.72,0,0,0,23.05,72.8h0l.08,0a4.13,4.13,0,0,0,.7.24,19.65,19.65,0,0,0,7,1.45,19.26,19.26,0,0,0,0,5.52s0,.08,0,.12v.12l0,.21v.07l0,.21,0,.07v.05A.5.5,0,0,0,31,81,19.71,19.71,0,0,0,42.14,95.24h0l.08,0a2.9,2.9,0,0,0,.7.24A19.5,19.5,0,0,0,50.32,97a20.34,20.34,0,0,0,3.21-.26,19.66,19.66,0,0,0,9.7-4.56,4.91,4.91,0,0,0,.51-.39v0h0a19.69,19.69,0,0,0,4.3-5.87,20.3,20.3,0,0,0,2.5,1.38h0l.08,0a3.05,3.05,0,0,0,.7.24A19.35,19.35,0,0,0,78.75,89,20.56,20.56,0,0,0,82,88.71a19.66,19.66,0,0,0,9.69-4.56,4.91,4.91,0,0,0,.51-.39h0v0A19.69,19.69,0,0,0,98.25,66.6Z"/></g></svg>