<svg xmlns="http://www.w3.org/2000/svg" viewBox="0 0 110 110"><defs><style>.cls-1{fill:#fff;}</style></defs><title>LEDGE NO CIRCLE</title><g id="map"><circle class="cls-1" cx="31.94" cy="55.6" r="3.66" transform="translate(-0.16 0.09) rotate(-0.16)"/><path class="cls-1" d="M37.88,61.57h0l0,0a.71.71,0,0,1-.18.12,8.4,8.4,0,0,1-1.92,1.35l-.69-1.41A6.8,6.8,0,0,0,35,49.51l.71-1.44a8.38,8.38,0,0,1,4.55,6.15v0A8.36,8.36,0,0,1,37.88,61.57Z"/><path class="cls-1" d="M28.94,61.72l-.71,1.44A8.39,8.39,0,0,1,23.65,57v0A8.41,8.41,0,0,1,26,49.64h0l0,0,.17-.12A8.5,8.5,0,0,1,28.34,48L29,49.45a6.8,6.8,0,0,0-.09,12.27Z"/><path class="cls-1" d="M40.41,64.69h0a1.37,1.37,0,0,1-.2.13,12.59,12.59,0,0,1-2.67,1.82l-.7-1.41a10.83,10.83,0,0,0,5.83-11.13s0-.06,0-.09l0-.17c0-.08,0-.16,0-.23v0a10.77,10.77,0,0,0-5.83-7.66l.71-1.44a12.4,12.4,0,0,1,6.67,8.79s0,.07,0,.11l0,.17v0l0,.18v.1A12.39,12.39,0,0,1,40.41,64.69Z"/><path class="cls-1" d="M27.17,65.3l-.71,1.44a12.35,12.35,0,0,1-6.69-8.81l0-.1c0-.06,0-.12,0-.18v0l0-.18a.43.43,0,0,0,0-.11,12.42,12.42,0,0,1,3.82-10.79h0a.86.86,0,0,1,.2-.13,12.3,12.3,0,0,1,2.88-1.93l.7,1.41a10.82,10.82,0,0,0-6,11.24s0,.06,0,.09l0,.17a1.85,1.85,0,0,0,0,.23v0A10.8,10.8,0,0,0,27.17,65.3Z"/><path class="cls-1" d="M84,75.59h0l0,0a.57.57,0,0,1-.18.12,8,8,0,0,1-1.91,1.35l-.7-1.41a6.8,6.8,0,0,0-.1-12.15l.72-1.44a8.4,8.4,0,0,1,4.55,6.15v0A8.41,8.41,0,0,1,84,75.59Z"/><path class="cls-1" d="M75.05,75.73l-.71,1.44A8.4,8.4,0,0,1,69.77,71v0a8.41,8.41,0,0,1,2.36-7.32h0l0,0,.18-.12a8.3,8.3,0,0,1,2.13-1.46l.7,1.41a6.8,6.8,0,0,0-.1,12.27Z"/><path class="cls-1" d="M86.52,78.7h0a.69.69,0,0,1-.2.13,12,12,0,0,1-2.67,1.82L83,79.25a10.81,10.81,0,0,0,5.82-11.13.28.28,0,0,0,0-.09l0-.17a1.85,1.85,0,0,0,0-.23v0a10.81,10.81,0,0,0-5.84-7.66l.71-1.44a12.35,12.35,0,0,1,6.67,8.79.43.43,0,0,1,0,.11,1.13,1.13,0,0,1,0,.18v0l0,.18v.11A12.38,12.38,0,0,1,86.52,78.7Z"/><path class="cls-1" d="M73.28,79.31l-.71,1.44A12.4,12.4,0,0,1,65.88,72l0-.11,0-.18v0l0-.18s0-.07,0-.1a12.39,12.39,0,0,1,3.81-10.8h0a.74.74,0,0,1,.21-.13,12.24,12.24,0,0,1,2.87-1.93l.7,1.41a10.82,10.82,0,0,0-6,11.24s0,.06,0,.09l0,.17c0,.08,0,.15,0,.23v0A10.79,10.79,0,0,0,73.28,79.31Z"/><path class="cls-1" d="M56.41,83.35h0l0,0-.17.11a8.1,8.1,0,0,1-1.92,1.35l-.7-1.41a6.79,6.79,0,0,0-.09-12.15l.71-1.44A8.4,8.4,0,0,1,58.76,76v0A8.41,8.41,0,0,1,56.41,83.35Z"/><path class="cls-1" d="M47.46,83.49l-.71,1.44a8.4,8.4,0,0,1-4.57-6.16v0a8.42,8.42,0,0,1,2.36-7.31h0l0,0a.66.66,0,0,1,.17-.12,8.48,8.48,0,0,1,2.13-1.46l.7,1.41a6.8,6.8,0,0,0-.1,12.27Z"/><path class="cls-1" d="M58.94,86.46h0a.74.74,0,0,1-.21.13,11.93,11.93,0,0,1-2.66,1.82L55.36,87a10.83,10.83,0,0,0,5.83-11.13s0-.06,0-.09a1,1,0,0,0,0-.17c0-.08,0-.15,0-.23v0a10.81,10.81,0,0,0-5.84-7.66L56,66.26a12.4,12.4,0,0,1,6.67,8.79s0,.07,0,.11l0,.18v0c0,.06,0,.12,0,.18l0,.11A12.41,12.41,0,0,1,58.94,86.46Z"/><path class="cls-1" d="M45.7,87.07,45,88.52a12.42,12.42,0,0,1-6.7-8.81l0-.11,0-.17v-.05l0-.18s0-.07,0-.1A12.45,12.45,0,0,1,42,68.3h0a.74.74,0,0,1,.21-.13,12.1,12.1,0,0,1,2.88-1.93l.69,1.41a10.85,10.85,0,0,0-6,11.24s0,.06,0,.09,0,.11,0,.17a2.23,2.23,0,0,1,0,.23v0A10.8,10.8,0,0,0,45.7,87.07Z"/><circle class="cls-1" cx="78.06" cy="69.61" r="3.66" transform="translate(-0.2 0.22) rotate(-0.16)"/><circle class="cls-1" cx="50.47" cy="77.37" r="3.66" transform="translate(-0.22 0.14) rotate(-0.16)"/><path class="cls-1" d="M67.29,17.49A5,5,0,0,1,72,22.69a5.36,5.36,0,0,1-2,4.22,32.74,32.74,0,0,0,3.6,9.23L82.52,50h0v0l4.27,1.39v1.64h-39V51.26L52.35,50h0l9-14.12a34.09,34.09,0,0,0,3.46-8.8,5.31,5.31,0,0,1-2.19-4.38,5,5,0,0,1,4.7-5.2m0,25.21,3.93-2.53-1-1.54-.09-.15a49,49,0,0,1-2.76-6,50.38,50.38,0,0,1-2.64,5.72l-.08.15-1.22,1.92L67.3,42.7m9.33,5.88L71.77,41l-3.54,2.28,8.4,5.29m-18.47,0,8.22-5.3-3.47-2.19L58.16,48.6M57.83,50H77l-9.7-6.11L57.83,50m-.55,0h0l0,0,0,0m10-36.42a8.89,8.89,0,0,0-8.62,9.12,9.41,9.41,0,0,0,1.75,5.51,35.25,35.25,0,0,1-2.5,5.7L49.85,46.62l-3.12.87-2.87.8V57H90.73V48.56L88,47.68l-.55-.18.46-1.42H84.67L77,34.16A33.54,33.54,0,0,1,74.33,28a9.47,9.47,0,0,0,1.59-5.26,8.89,8.89,0,0,0-8.63-9.12Z"/><path class="cls-1" d="M72,30.36a2.58,2.58,0,0,1,0,.4,26,26,0,0,1,11.82,18l.09.63h2.34c0-.33-.09-.65-.14-1A28.32,28.32,0,0,0,71.48,27.78a4.79,4.79,0,0,1-.4.82A2.09,2.09,0,0,1,72,30.36Z"/><path class="cls-1" d="M97,67a.52.52,0,0,0,0-.11v-.12l0-.21v-.07l0-.19v-.12l0-.12a19.08,19.08,0,0,0-9.53-13.15v1.55h-2a16.78,16.78,0,0,1,9.31,12,.59.59,0,0,1,0,.14c0,.08,0,.16,0,.24v.06l0,.24a.78.78,0,0,1,0,.14,16.75,16.75,0,0,1-5.15,14.6h0a1.07,1.07,0,0,1-.28.19,16.72,16.72,0,0,1-8.43,4,17.18,17.18,0,0,1-2.75.22A16.79,16.79,0,0,1,71.53,85a1.4,1.4,0,0,1-.35-.1h0a16.77,16.77,0,0,1-4.54-3,16.81,16.81,0,0,1-4.71,7.75v0a1.12,1.12,0,0,1-.28.18,16.69,16.69,0,0,1-8.43,4,17.05,17.05,0,0,1-2.74.22,16.69,16.69,0,0,1-6.52-1.32,1.4,1.4,0,0,1-.35-.1h0A16.81,16.81,0,0,1,34,80.52l0-.14c0-.08,0-.16,0-.24v-.06a1.87,1.87,0,0,0,0-.25.78.78,0,0,0,0-.14,16.6,16.6,0,0,1,.67-7.55,17.82,17.82,0,0,1-2.6.2A16.58,16.58,0,0,1,25.42,71a1,1,0,0,1-.35-.09h0a16.77,16.77,0,0,1-9.58-12.16.78.78,0,0,1,0-.14c0-.08,0-.16,0-.24V58.3l0-.24a.68.68,0,0,1,0-.14,16.75,16.75,0,0,1,5.15-14.6h0a1,1,0,0,1,.28-.18,16.6,16.6,0,0,1,8.43-4A16,16,0,0,1,32,38.86a16.85,16.85,0,0,1,3.9.46A25.94,25.94,0,0,1,54.12,27.06a25.15,25.15,0,0,1,4-.32,26,26,0,0,1,4.25.36,4.71,4.71,0,0,1-.11-1,4.51,4.51,0,0,1,.2-1.33,28.55,28.55,0,0,0-4.34-.35,29.27,29.27,0,0,0-4.38.34,28.27,28.27,0,0,0-19,12,18.85,18.85,0,0,0-2.8-.21,19.19,19.19,0,0,0-12.52,4.68,3.57,3.57,0,0,0-.49.38h0v0h0A19.14,19.14,0,0,0,13,58.25a.52.52,0,0,0,0,.11v.12a1.77,1.77,0,0,0,0,.2v.06a1.55,1.55,0,0,1,0,.21v.12l0,.12A19.1,19.1,0,0,0,24,73h0l.08,0a3.2,3.2,0,0,0,.68.23,18.74,18.74,0,0,0,6.8,1.4,19,19,0,0,0,0,5.37s0,.07,0,.11v.12l0,.2v.07c0,.06,0,.13,0,.2v.12a.5.5,0,0,1,0,.12,19.13,19.13,0,0,0,10.8,13.79h0l.08,0a3.2,3.2,0,0,0,.68.23,18.78,18.78,0,0,0,7.17,1.41A18.95,18.95,0,0,0,63,91.75a3.66,3.66,0,0,0,.5-.38h0a19.09,19.09,0,0,0,4.17-5.69A19.17,19.17,0,0,0,70.11,87h0l.09,0a3.12,3.12,0,0,0,.67.23A18.78,18.78,0,0,0,78,88.67a18.16,18.16,0,0,0,3.12-.26A19,19,0,0,0,90.57,84a4.49,4.49,0,0,0,.49-.37l0,0,0,0A19.13,19.13,0,0,0,97,67Z"/><rect class="cls-1" x="65.96" y="37.69" width="2.52" height="2.77"/><rect class="cls-1" x="65.46" y="46.34" width="4.12" height="2.44"/></g></svg>