<svg xmlns="http://www.w3.org/2000/svg" viewBox="0 0 150 150"><defs><style>.cls-1{fill:#fff;}.cls-2{opacity:0.69;}.cls-3{fill:none;stroke:#9c3;stroke-linecap:round;stroke-miterlimit:10;stroke-width:3px;stroke-dasharray:0.5 8.06;}</style></defs><title>LEDGE</title><g id="map"><circle class="cls-1" cx="51.37" cy="70.49" r="3.77" transform="translate(-0.2 0.15) rotate(-0.16)"/><path class="cls-1" d="M57.36,76.6h0l0,0a.83.83,0,0,1-.18.13,8.7,8.7,0,0,1-2,1.39l-.72-1.46a7,7,0,0,0-.09-12.53l.73-1.48A8.66,8.66,0,0,1,59.78,69v0A8.66,8.66,0,0,1,57.36,76.6Z"/><path class="cls-1" d="M48.14,76.76l-.74,1.48a8.67,8.67,0,0,1-4.71-6.35v0a8.63,8.63,0,0,1,2.43-7.53h0l0,0a1.18,1.18,0,0,1,.18-.13,8.65,8.65,0,0,1,2.2-1.5l.72,1.46a7,7,0,0,0-.1,12.65Z"/><path class="cls-1" d="M60,79.81h0a.77.77,0,0,1-.21.14A12.51,12.51,0,0,1,57,81.84l-.71-1.46a11.15,11.15,0,0,0,6-11.47s0-.06,0-.09l0-.18c0-.08,0-.16,0-.24v0a11.12,11.12,0,0,0-6-7.89L56.91,59a12.78,12.78,0,0,1,6.88,9.07.36.36,0,0,0,0,.1l0,.19v.05a1.1,1.1,0,0,1,0,.18l0,.11A12.74,12.74,0,0,1,60,79.81Z"/><path class="cls-1" d="M46.31,80.44l-.73,1.49a12.76,12.76,0,0,1-6.9-9.08l0-.11,0-.18v0l0-.18a.43.43,0,0,1,0-.11A12.77,12.77,0,0,1,42.51,61.1h0a.77.77,0,0,1,.21-.14,12.86,12.86,0,0,1,3-2l.72,1.46A11.14,11.14,0,0,0,40.19,72s0,.06,0,.09l0,.18c0,.08,0,.16,0,.24v0A11.12,11.12,0,0,0,46.31,80.44Z"/><path class="cls-1" d="M104.89,91.05h0l0,0a.81.81,0,0,1-.18.12,8.4,8.4,0,0,1-2,1.39L102,91.13a7,7,0,0,0-.09-12.52l.73-1.49a8.68,8.68,0,0,1,4.69,6.34v.05A8.66,8.66,0,0,1,104.89,91.05Z"/><path class="cls-1" d="M95.67,91.2l-.74,1.48a8.64,8.64,0,0,1-4.71-6.35v0a8.66,8.66,0,0,1,2.43-7.54h0l0,0a.71.71,0,0,1,.18-.12,8.43,8.43,0,0,1,2.2-1.51l.72,1.46a7,7,0,0,0-.1,12.65Z"/><path class="cls-1" d="M107.49,94.25h0a.6.6,0,0,1-.21.14,12.51,12.51,0,0,1-2.75,1.88l-.71-1.46a11.14,11.14,0,0,0,6-11.47s0-.06,0-.09l0-.18c0-.08,0-.16,0-.23v0a11.14,11.14,0,0,0-6-7.9l.73-1.49a12.78,12.78,0,0,1,6.88,9.07.52.52,0,0,0,0,.11l0,.18v0a1.1,1.1,0,0,1,0,.18l0,.11A12.74,12.74,0,0,1,107.49,94.25Z"/><path class="cls-1" d="M93.84,94.89l-.73,1.48a12.76,12.76,0,0,1-6.9-9.08l0-.1,0-.19v0l0-.19a.36.36,0,0,1,0-.11A12.77,12.77,0,0,1,90,75.54h0a.77.77,0,0,1,.21-.14,12.51,12.51,0,0,1,3-2L94,74.86a11.15,11.15,0,0,0-6.23,11.58s0,.06,0,.1l0,.17c0,.08,0,.16,0,.24v0A11.16,11.16,0,0,0,93.84,94.89Z"/><path class="cls-1" d="M76.46,99.05h0l0,0-.18.13a8.61,8.61,0,0,1-2,1.39l-.72-1.46a7,7,0,0,0-.1-12.52l.74-1.49a8.68,8.68,0,0,1,4.69,6.34v0A8.68,8.68,0,0,1,76.46,99.05Z"/><path class="cls-1" d="M67.23,99.2l-.73,1.48a8.63,8.63,0,0,1-4.71-6.35v0a8.66,8.66,0,0,1,2.43-7.54h0l0,0a.83.83,0,0,1,.18-.13,8.77,8.77,0,0,1,2.19-1.5l.72,1.46a7,7,0,0,0-.1,12.65Z"/><path class="cls-1" d="M79.06,102.25h0a.77.77,0,0,1-.21.14,12.75,12.75,0,0,1-2.75,1.88l-.72-1.46a11.15,11.15,0,0,0,6-11.47s0-.06,0-.09a1.1,1.1,0,0,0,0-.18c0-.08,0-.16,0-.23v0a11.11,11.11,0,0,0-6-7.89L76,81.43a12.77,12.77,0,0,1,6.87,9.07.36.36,0,0,1,0,.11c0,.06,0,.12,0,.18v0L83,91l0,.11A12.8,12.8,0,0,1,79.06,102.25Z"/><path class="cls-1" d="M65.41,102.89l-.73,1.48a12.76,12.76,0,0,1-6.9-9.08l0-.1,0-.19v0l0-.19s0-.07,0-.11A12.77,12.77,0,0,1,61.6,83.54h0a1,1,0,0,1,.22-.14,12.8,12.8,0,0,1,3-2l.72,1.46a11.16,11.16,0,0,0-6.22,11.58s0,.06,0,.09l0,.18a2,2,0,0,0,0,.24v0A11.17,11.17,0,0,0,65.41,102.89Z"/><circle class="cls-1" cx="98.77" cy="84.89" r="3.77" transform="translate(-0.24 0.28) rotate(-0.16)"/><circle class="cls-1" cx="70.33" cy="92.89" r="3.77" transform="translate(-0.26 0.2) rotate(-0.16)"/><path class="cls-1" d="M88.12,31.16A5.12,5.12,0,0,1,93,36.52a5.52,5.52,0,0,1-2,4.35,33.79,33.79,0,0,0,3.71,9.52l9.17,14.27h0l0,0,4.39,1.43v1.69H68V66l4.7-1.32h0L82,50.11A34.75,34.75,0,0,0,85.52,41a5.51,5.51,0,0,1-2.25-4.52,5.12,5.12,0,0,1,4.85-5.36m0,26,4.05-2.61-1-1.59-.09-.15a50.65,50.65,0,0,1-2.85-6.18,49.88,49.88,0,0,1-2.71,5.9l-.09.15-1.26,2,4,2.5m9.62,6.06-5-7.81-3.65,2.35,8.67,5.46m-19,0,8.47-5.46L83.6,55.52l-4.89,7.71m-.35,1.43H98.14l-10-6.29-9.77,6.29m-.57,0h0l0,0,0,0M88.12,28.59a7.7,7.7,0,0,0-7.43,7.93,8.23,8.23,0,0,0,2,5.38,36,36,0,0,1-2.92,6.92L71.08,62.45l-3.77,1L65.43,64v6.37h45.38V64.26L109,63.68,107,63l.27-.92h-2l-8.36-13a33.83,33.83,0,0,1-3.1-7.43,8.28,8.28,0,0,0,1.78-5.14,7.71,7.71,0,0,0-7.43-7.93Zm-.41,25.26v0l0,0,0-.05.43-.83.44.85-.54.35-.4-.25Zm-.59,8.24,1-.67,1.06.67Z"/><path class="cls-1" d="M92.56,44.43a2,2,0,0,1,0,.42A26.74,26.74,0,0,1,104.71,63.4l.09.65h2.41c0-.34-.09-.68-.14-1a29.2,29.2,0,0,0-9.95-17.76A28.49,28.49,0,0,0,92,41.78a4.93,4.93,0,0,1-.41.83A2.19,2.19,0,0,1,92.56,44.43Z"/><path class="cls-1" d="M118.25,82.16s0-.07,0-.11v0l0-.09,0-.21v-.07a1.77,1.77,0,0,0,0-.2v-.12s0-.08,0-.12a19.69,19.69,0,0,0-9.83-13.56v1.6h-2.11a17.27,17.27,0,0,1,9.59,12.41l0,.14c0,.08,0,.17,0,.25v.06c0,.09,0,.17,0,.25a.77.77,0,0,1,0,.15,17.26,17.26,0,0,1-5.31,15v0a1.45,1.45,0,0,1-.29.19,17.28,17.28,0,0,1-18.23,3,1.36,1.36,0,0,1-.36-.1h0A17.31,17.31,0,0,1,87,97.56a17.39,17.39,0,0,1-4.85,8l0,0a1.38,1.38,0,0,1-.28.19,17.24,17.24,0,0,1-8.7,4.16,16.93,16.93,0,0,1-2.82.23,17.14,17.14,0,0,1-6.72-1.37,1.12,1.12,0,0,1-.36-.09h0a17.28,17.28,0,0,1-9.88-12.54s0-.1,0-.14,0-.17,0-.25v-.07c0-.08,0-.16,0-.25a.68.68,0,0,0,0-.14,17.23,17.23,0,0,1,.69-7.79,17.48,17.48,0,0,1-2.68.21,17.05,17.05,0,0,1-6.71-1.37,1.06,1.06,0,0,1-.36-.09h0a17.29,17.29,0,0,1-9.87-12.54l0-.15c0-.08,0-.16,0-.24v-.07a2.17,2.17,0,0,1,0-.25.68.68,0,0,1,0-.14,17.28,17.28,0,0,1,5.31-15.05h0a1.12,1.12,0,0,1,.29-.19,17.22,17.22,0,0,1,8.69-4.17,18.07,18.07,0,0,1,2.82-.23,17.34,17.34,0,0,1,4,.48A26.75,26.75,0,0,1,74.1,41a27.82,27.82,0,0,1,4.15-.32,26.51,26.51,0,0,1,4.38.37,5,5,0,0,1-.11-1,4.73,4.73,0,0,1,.2-1.37,29.08,29.08,0,0,0-4.47-.36,29.72,29.72,0,0,0-4.52.35A29.15,29.15,0,0,0,54.12,51a18.43,18.43,0,0,0-2.88-.22,19.23,19.23,0,0,0-3.21.27,19.58,19.58,0,0,0-9.69,4.56,3.75,3.75,0,0,0-.51.38l0,0h0a19.68,19.68,0,0,0-6,17.12s0,.08,0,.12v0l0,.08,0,.21v.06a1.3,1.3,0,0,0,0,.21V74s0,.08,0,.12A19.72,19.72,0,0,0,43.05,88.36h0l.08,0a4.13,4.13,0,0,0,.7.24,19.65,19.65,0,0,0,7,1.45,19.26,19.26,0,0,0,0,5.52s0,.08,0,.12v.12l0,.21v.07l0,.21,0,.07v0a.5.5,0,0,0,0,.12A19.69,19.69,0,0,0,62.14,110.8h0l.08,0a2.9,2.9,0,0,0,.7.24,19.5,19.5,0,0,0,7.39,1.45,20.34,20.34,0,0,0,3.21-.26,19.66,19.66,0,0,0,9.7-4.56,4.91,4.91,0,0,0,.51-.39v0h0a19.69,19.69,0,0,0,4.3-5.87,20.3,20.3,0,0,0,2.5,1.38h0l.08,0a3.05,3.05,0,0,0,.7.24,19.35,19.35,0,0,0,7.39,1.45,20.56,20.56,0,0,0,3.22-.26,19.66,19.66,0,0,0,9.69-4.56,3.83,3.83,0,0,0,.51-.39h0v0A19.69,19.69,0,0,0,118.25,82.16Z"/><g class="cls-2"><circle class="cls-3" cx="75" cy="75" r="66.76" transform="translate(-22.99 115.59) rotate(-67.5)"/></g></g></svg>