<svg xmlns="http://www.w3.org/2000/svg" viewBox="0 0 140 140"><defs><style>.cls-1{fill:#fff;}.cls-2{opacity:0.69;}.cls-3{fill:none;stroke:#9c3;stroke-linecap:round;stroke-miterlimit:10;stroke-width:3px;stroke-dasharray:0.5 7.98;}</style></defs><title>LEDGE</title><g id="map"><circle class="cls-1" cx="46.38" cy="65.36" r="3.66" transform="matrix(1, 0, 0, 1, -0.19, 0.13)"/><path class="cls-1" d="M52.33,71.33h0l0,0a.71.71,0,0,1-.18.12,8.19,8.19,0,0,1-1.92,1.35l-.69-1.41a6.8,6.8,0,0,0-.1-12.16l.71-1.44A8.36,8.36,0,0,1,54.67,64v0A8.4,8.4,0,0,1,52.33,71.33Z"/><path class="cls-1" d="M43.38,71.48l-.71,1.44a8.39,8.39,0,0,1-4.58-6.17v0a8.39,8.39,0,0,1,2.35-7.31h0l0,0a.57.57,0,0,1,.18-.12,8.3,8.3,0,0,1,2.13-1.46l.7,1.42a6.8,6.8,0,0,0-.1,12.27Z"/><path class="cls-1" d="M54.85,74.44h0a.9.9,0,0,1-.2.14A12.34,12.34,0,0,1,52,76.41L51.27,75A10.81,10.81,0,0,0,57.1,63.87s0-.07,0-.09l0-.18a2.23,2.23,0,0,0,0-.23v0a10.83,10.83,0,0,0-5.84-7.66l.71-1.44A12.37,12.37,0,0,1,58.56,63s0,.07,0,.1l0,.18v0l0,.18v.1A12.37,12.37,0,0,1,54.85,74.44Z"/><path class="cls-1" d="M41.61,75.06,40.9,76.5a12.37,12.37,0,0,1-6.69-8.81l0-.1,0-.18v0l0-.18s0-.07,0-.1a12.36,12.36,0,0,1,3.81-10.79h0a.9.9,0,0,1,.2-.14A12.26,12.26,0,0,1,41,54.22l.7,1.41a10.81,10.81,0,0,0-6,11.23s0,.06,0,.09l0,.17a1.57,1.57,0,0,0,0,.23v0A10.83,10.83,0,0,0,41.61,75.06Z"/><path class="cls-1" d="M98.44,85.34h0l0,0a.66.66,0,0,1-.17.12,8.4,8.4,0,0,1-1.92,1.35l-.7-1.41a6.8,6.8,0,0,0-.09-12.16l.71-1.44A8.42,8.42,0,0,1,100.79,78v0A8.42,8.42,0,0,1,98.44,85.34Z"/><path class="cls-1" d="M89.49,85.49l-.71,1.44a8.4,8.4,0,0,1-4.57-6.16v0a8.4,8.4,0,0,1,2.36-7.32h0l0,0a1,1,0,0,1,.17-.12,8.56,8.56,0,0,1,2.13-1.46l.7,1.42a6.8,6.8,0,0,0-.1,12.27Z"/><path class="cls-1" d="M101,88.45h0a.6.6,0,0,1-.2.14,12.53,12.53,0,0,1-2.66,1.82L97.39,89a10.84,10.84,0,0,0,5.83-11.13s0-.06,0-.09a1.11,1.11,0,0,1,0-.17c0-.08,0-.16-.05-.23v0a10.79,10.79,0,0,0-5.84-7.66L98,68.25a12.38,12.38,0,0,1,6.66,8.8.36.36,0,0,1,0,.1c0,.06,0,.12,0,.18v0l0,.18,0,.1A12.42,12.42,0,0,1,101,88.45Z"/><path class="cls-1" d="M87.72,89.07,87,90.51a12.4,12.4,0,0,1-6.69-8.81l0-.1,0-.18v0l0-.18s0-.07,0-.1A12.4,12.4,0,0,1,84,70.3h0a1.1,1.1,0,0,1,.21-.14,12.37,12.37,0,0,1,2.88-1.92l.69,1.41a10.83,10.83,0,0,0-6,11.24.28.28,0,0,1,0,.09l0,.17c0,.07,0,.15,0,.23v0A10.82,10.82,0,0,0,87.72,89.07Z"/><path class="cls-1" d="M70.85,93.1h0l0,0a.66.66,0,0,1-.17.12,8.4,8.4,0,0,1-1.92,1.35L68,93.19A6.8,6.8,0,0,0,67.94,81l.71-1.44a8.4,8.4,0,0,1,4.55,6.16v0A8.39,8.39,0,0,1,70.85,93.1Z"/><path class="cls-1" d="M61.91,93.25l-.72,1.44a8.4,8.4,0,0,1-4.57-6.16v0A8.4,8.4,0,0,1,59,81.17h0l0,0,.17-.12a8.32,8.32,0,0,1,2.14-1.45L62,81a6.79,6.79,0,0,0-.09,12.27Z"/><path class="cls-1" d="M73.38,96.21h0a.77.77,0,0,1-.21.14,12.28,12.28,0,0,1-2.66,1.82l-.7-1.41a10.83,10.83,0,0,0,5.83-11.13.28.28,0,0,1,0-.09l0-.17c0-.08,0-.16,0-.23v0a10.8,10.8,0,0,0-5.83-7.66L70.42,76a12.42,12.42,0,0,1,6.67,8.8s0,.07,0,.1l0,.18v0a1.1,1.1,0,0,1,0,.18l0,.1A12.39,12.39,0,0,1,73.38,96.21Z"/><path class="cls-1" d="M60.14,96.83l-.71,1.44a12.39,12.39,0,0,1-6.7-8.81v-.1c0-.06,0-.12,0-.18v-.05l0-.18s0-.06,0-.1a12.43,12.43,0,0,1,3.81-10.79h0a.78.78,0,0,1,.2-.14A12.58,12.58,0,0,1,59.54,76l.7,1.41a10.81,10.81,0,0,0-6,11.24.28.28,0,0,0,0,.09s0,.11,0,.17a1.57,1.57,0,0,1,0,.23v0A10.8,10.8,0,0,0,60.14,96.83Z"/><circle class="cls-1" cx="92.5" cy="79.37" r="3.66" transform="translate(-0.23 0.26) rotate(-0.16)"/><circle class="cls-1" cx="64.91" cy="87.13" r="3.66" transform="translate(-0.25 0.19) rotate(-0.16)"/><path class="cls-1" d="M81.73,27.25a5,5,0,0,1,4.71,5.19,5.4,5.4,0,0,1-2,4.23,33,33,0,0,0,3.6,9.23L97,59.75h0v0l4.27,1.39V62.8h-39V61l4.57-1.27h0l9-14.12a33.73,33.73,0,0,0,3.46-8.8A5.32,5.32,0,0,1,77,32.44a5,5,0,0,1,4.7-5.19m0,25.21,3.93-2.53-1-1.55-.09-.15a47.66,47.66,0,0,1-2.76-6A48.64,48.64,0,0,1,79.2,48l-.09.15L77.89,50l3.85,2.43m9.33,5.88-4.86-7.58L82.67,53l8.4,5.3m-18.47,0,8.22-5.3-3.46-2.18L72.6,58.35m-.33,1.4H91.45l-9.7-6.11-9.48,6.11m-.55,0h0l0,0,0,0m10-36.43a8.89,8.89,0,0,0-8.62,9.12A9.46,9.46,0,0,0,74.86,38a35.31,35.31,0,0,1-2.5,5.71L64.29,56.37l-3.12.87L58.3,58v8.69h46.87V58.32l-2.71-.88-.64-.21.42-1.39H99.11L91.45,43.91a33.48,33.48,0,0,1-2.68-6.2,9.53,9.53,0,0,0,1.59-5.27,8.89,8.89,0,0,0-8.63-9.12Z"/><path class="cls-1" d="M86.48,40.11a1.84,1.84,0,0,1,0,.41,25.93,25.93,0,0,1,11.82,18q.06.31.09.63h2.34c0-.33-.09-.66-.14-1a28.29,28.29,0,0,0-9.64-17.23,27.78,27.78,0,0,0-5-3.39,4.07,4.07,0,0,1-.4.81A2.11,2.11,0,0,1,86.48,40.11Z"/><path class="cls-1" d="M111.4,76.72s0-.07,0-.1v-.13l0-.2v-.07l0-.2V75.9a.52.52,0,0,1,0-.11,19.12,19.12,0,0,0-9.54-13.16v1.56h-2a16.76,16.76,0,0,1,9.3,12l0,.14c0,.08,0,.16,0,.24v.07a2,2,0,0,0,0,.24.68.68,0,0,0,0,.14A16.8,16.8,0,0,1,104,91.65h0a1,1,0,0,1-.28.18,16.56,16.56,0,0,1-8.43,4,16,16,0,0,1-2.74.23A16.63,16.63,0,0,1,86,94.78a1.06,1.06,0,0,1-.35-.09h0a16.89,16.89,0,0,1-4.54-3,16.92,16.92,0,0,1-4.7,7.75h0a.9.9,0,0,1-.28.18,16.52,16.52,0,0,1-8.43,4,16,16,0,0,1-2.74.23,16.7,16.7,0,0,1-6.52-1.33,1.06,1.06,0,0,1-.35-.09h0a16.77,16.77,0,0,1-9.58-12.16l0-.15c0-.08,0-.16,0-.24v-.06a2,2,0,0,0,0-.24.68.68,0,0,0,0-.14A16.66,16.66,0,0,1,49,81.89a16.48,16.48,0,0,1-9.11-1.12,1,1,0,0,1-.35-.09h0A16.79,16.79,0,0,1,29.91,68.5s0-.09,0-.14,0-.16-.05-.24v-.06l0-.24a.78.78,0,0,1,0-.14,16.75,16.75,0,0,1,5.15-14.6l0,0a1.06,1.06,0,0,1,.27-.18,16.76,16.76,0,0,1,8.44-4,16.88,16.88,0,0,1,6.63.24A26,26,0,0,1,68.56,36.81a26.33,26.33,0,0,1,4-.31,25,25,0,0,1,4.25.36,4.78,4.78,0,0,1-.1-1,4.57,4.57,0,0,1,.19-1.34,28.54,28.54,0,0,0-4.34-.34,28.37,28.37,0,0,0-23.4,12.33,18.75,18.75,0,0,0-2.8-.21A19,19,0,0,0,33.87,51a3.57,3.57,0,0,0-.49.38h0A19.11,19.11,0,0,0,27.48,68s0,.07,0,.11v0l0,.08,0,.21v.06l0,.2,0,.07v0a.5.5,0,0,0,0,.12,19.13,19.13,0,0,0,10.8,13.8h0l.08,0a3.44,3.44,0,0,0,.68.24A18.75,18.75,0,0,0,46,84.41a18.51,18.51,0,0,0,0,5.36s0,.07,0,.11V90l0,.2v.06a1.55,1.55,0,0,1,0,.21v.11a.5.5,0,0,1,0,.12A19.14,19.14,0,0,0,57,104.51h0l.08,0a3.2,3.2,0,0,0,.68.23,19,19,0,0,0,7.17,1.41,19.22,19.22,0,0,0,3.12-.26,19,19,0,0,0,9.4-4.42,3.14,3.14,0,0,0,.5-.38h0l0,0h0a19.09,19.09,0,0,0,4.17-5.69,20.51,20.51,0,0,0,2.43,1.34h0l.08,0a3,3,0,0,0,.68.23,19,19,0,0,0,7.17,1.41A19.15,19.15,0,0,0,105,93.74a2.87,2.87,0,0,0,.49-.37h0l0,0A19.14,19.14,0,0,0,111.4,76.72Z"/><rect class="cls-1" x="80.41" y="47.45" width="2.52" height="2.77"/><rect class="cls-1" x="79.9" y="56.1" width="4.12" height="2.44"/><g class="cls-2"><circle class="cls-3" cx="69.44" cy="69.77" r="64.77"/></g></g></svg>