<svg xmlns="http://www.w3.org/2000/svg" viewBox="0 0 150 150"><defs><style>.cls-1{fill:#fff;}.cls-2{opacity:0.69;}.cls-3{fill:none;stroke:#9c3;stroke-linecap:round;stroke-miterlimit:10;stroke-width:3px;stroke-dasharray:0.5 8.06;}</style></defs><title>LDCC</title><g id="map"><path class="cls-1" d="M75.44,39.6a26.45,26.45,0,0,1,25.15,18,19.8,19.8,0,0,1,19.35,20.21A20.5,20.5,0,0,1,99.75,98.06H49.94A19.83,19.83,0,0,1,30.06,77.82,20.62,20.62,0,0,1,49.73,57.61a27.49,27.49,0,0,1,25.71-18m0-2.37A29.91,29.91,0,0,0,48.07,55.36,22.94,22.94,0,0,0,27.69,77.78a22.2,22.2,0,0,0,22.25,22.65H99.75a22.86,22.86,0,0,0,22.56-22.58,22,22,0,0,0-20-22.51A28.85,28.85,0,0,0,75.44,37.23Z"/><path class="cls-1" d="M92.85,88.89a1,1,0,0,0-1-1H78.51a4.64,4.64,0,0,0-2.13-1.93V83.39H90.54a2.31,2.31,0,0,0,2.31-2.31V76.23a2.31,2.31,0,0,0-2.31-2.31H76.38V72.77H90.54a2.31,2.31,0,0,0,2.31-2.3V65.61a2.32,2.32,0,0,0-2.31-2.31H76.38V62.16H90.54a2.31,2.31,0,0,0,2.31-2.3V55a2.32,2.32,0,0,0-2.31-2.31H59.46A2.31,2.31,0,0,0,57.15,55v4.86a2.32,2.32,0,0,0,2.31,2.31H72.71V63.3H59.46a2.31,2.31,0,0,0-2.31,2.3v4.86a2.31,2.31,0,0,0,2.31,2.3H72.71v1.15H59.46a2.32,2.32,0,0,0-2.31,2.31v4.86a2.31,2.31,0,0,0,2.31,2.3H72.71v2.47a4.66,4.66,0,0,0-2.26,2H58.22a1,1,0,0,0-1,1.05v2.51a1,1,0,0,0,1,1H70.45a4.64,4.64,0,0,0,8.06,0H91.8a1,1,0,0,0,1-1ZM90.54,76a.21.21,0,0,1,.21.21v4.85a.21.21,0,0,1-.21.21H85.37V76Zm0-10.62a.21.21,0,0,1,.21.21v4.86a.21.21,0,0,1-.21.21H85.37V65.4Zm0-10.62a.21.21,0,0,1,.21.21v4.86a.21.21,0,0,1-.21.21H85.37V54.78Z"/><g class="cls-2"><circle class="cls-3" cx="75" cy="75" r="66.76"/></g></g></svg>