<svg xmlns="http://www.w3.org/2000/svg" xmlns:xlink="http://www.w3.org/1999/xlink" viewBox="0 0 110 110"><defs><style>.cls-1{fill:#fff;}.cls-2{fill:url(#linear-gradient);}.cls-3{fill:url(#linear-gradient-2);}.cls-4{fill:url(#linear-gradient-3);}.cls-5{fill:url(#linear-gradient-4);}.cls-6{fill:url(#linear-gradient-5);}.cls-7{fill:url(#linear-gradient-6);}.cls-8{fill:url(#linear-gradient-7);}.cls-9{fill:url(#linear-gradient-8);}</style><linearGradient id="linear-gradient" x1="73.32" y1="29.73" x2="108.87" y2="29.73" gradientTransform="matrix(1, 0, -0.15, 1, -67.05, 0)" gradientUnits="userSpaceOnUse"><stop offset="0" stop-color="#fff" stop-opacity="0"/><stop offset="0.24" stop-color="#fff" stop-opacity="0.01"/><stop offset="0.39" stop-color="#fff" stop-opacity="0.04"/><stop offset="0.52" stop-color="#fff" stop-opacity="0.1"/><stop offset="0.64" stop-color="#fff" stop-opacity="0.18"/><stop offset="0.74" stop-color="#fff" stop-opacity="0.29"/><stop offset="0.84" stop-color="#fff" stop-opacity="0.42"/><stop offset="0.93" stop-color="#fff" stop-opacity="0.57"/><stop offset="1" stop-color="#fff" stop-opacity="0.7"/></linearGradient><linearGradient id="linear-gradient-2" x1="73.32" y1="39.62" x2="108.87" y2="39.62" xlink:href="#linear-gradient"/><linearGradient id="linear-gradient-3" x1="73.32" y1="42.86" x2="108.87" y2="42.86" xlink:href="#linear-gradient"/><linearGradient id="linear-gradient-4" x1="73.32" y1="53.09" x2="108.87" y2="53.09" xlink:href="#linear-gradient"/><linearGradient id="linear-gradient-5" x1="73.32" y1="56.16" x2="108.87" y2="56.16" xlink:href="#linear-gradient"/><linearGradient id="linear-gradient-6" x1="73.32" y1="66.05" x2="108.87" y2="66.05" xlink:href="#linear-gradient"/><linearGradient id="linear-gradient-7" x1="73.32" y1="73.29" x2="108.87" y2="73.29" xlink:href="#linear-gradient"/><linearGradient id="linear-gradient-8" x1="73.32" y1="77.55" x2="108.87" y2="77.55" xlink:href="#linear-gradient"/></defs><title>HPC NO CIRCLE</title><g id="map"><path class="cls-1" d="M74.11,64.08l.94-6a.22.22,0,0,0-.22-.26h-6.4l-1,6.53h6.39A.31.31,0,0,0,74.11,64.08Zm-1.65-1.65H69.63l.42-2.71h2.83Z"/><path class="cls-1" d="M82.76,28.45a4,4,0,0,0-3.14-1.4H41.18a5.77,5.77,0,0,0-5.5,4.76l-.94,6a4.12,4.12,0,0,0,1,3.55l-.24.2A5.6,5.6,0,0,0,33.64,45l-.94,6a4.13,4.13,0,0,0,1,3.57,5.68,5.68,0,0,0-2.16,3.56l-.93,6a4,4,0,0,0,4,4.76H49.14A10,10,0,0,0,47,70.53H32.88a3.9,3.9,0,0,0-3.7,3.21l-.48,3.11a2.67,2.67,0,0,0,2.7,3.2H45.52A6.45,6.45,0,0,0,51.06,83a9.06,9.06,0,0,0,6.43-2.9H72.93a3.7,3.7,0,0,0,2.41-.94,3.76,3.76,0,0,0,1.29-2.26l.48-3.11a2.68,2.68,0,0,0-2.7-3.21H59a6.18,6.18,0,0,0-1.47-1.59v-.1h15.6a5.77,5.77,0,0,0,5.5-4.76l.94-6a4.12,4.12,0,0,0-1-3.56l.24-.19A5.66,5.66,0,0,0,80.66,51l.93-6a4.11,4.11,0,0,0-1-3.56,5.68,5.68,0,0,0,2.16-3.56l.93-6A4.12,4.12,0,0,0,82.76,28.45Zm-1,3.36-.94,6a3.45,3.45,0,0,1-3.29,2.85H60l-.22,1.42H77.28a2.38,2.38,0,0,1,2.4,2.85l-.93,6a3.46,3.46,0,0,1-3.3,2.85H57.94l-.22,1.42H75.23a2.39,2.39,0,0,1,2.41,2.85l-.93,6a3.47,3.47,0,0,1-3.3,2.85H55.9l-.48,3.12a4.57,4.57,0,0,1,2.25,2.39H74.11a1.08,1.08,0,0,1,1.09,1.3l-.48,3.11a1.57,1.57,0,0,1-1.5,1.29H56.79A6.91,6.91,0,0,1,51.35,81a4.76,4.76,0,0,1-4.53-2.9H31.7a1.07,1.07,0,0,1-1.09-1.29l.48-3.11a1.57,1.57,0,0,1,1.5-1.3H47.71A7.2,7.2,0,0,1,50.89,70l.48-3H35a2.37,2.37,0,0,1-2.4-2.85l.93-6a3.47,3.47,0,0,1,3.3-2.86H53.19l.22-1.42H37A2.38,2.38,0,0,1,34.61,51l.93-6a3.46,3.46,0,0,1,3.3-2.85H55.23l.22-1.42H39.06a2.39,2.39,0,0,1-2.41-2.86l.94-6A3.46,3.46,0,0,1,40.88,29H79.32A2.39,2.39,0,0,1,81.73,31.81Z"/><path class="cls-1" d="M78.92,31.55h-6.4l-1,6.52h6.4a.31.31,0,0,0,.3-.26l.93-6A.21.21,0,0,0,78.92,31.55Zm-2.37,4.62H73.71l.42-2.71H77Z"/><path class="cls-1" d="M76.16,51l.93-6a.22.22,0,0,0-.22-.26H70.48l-1,6.53h6.4A.33.33,0,0,0,76.16,51ZM74.5,49.3H71.67l.42-2.71h2.84Z"/><polygon class="cls-2" points="1.55 30.49 37.09 30.49 37.33 28.97 1.78 28.97 1.55 30.49"/><polygon class="cls-3" points="0.02 40.38 35.56 40.38 35.8 38.86 0.25 38.86 0.02 40.38"/><polygon class="cls-4" points="-0.48 43.62 35.06 43.62 35.3 42.1 -0.25 42.1 -0.48 43.62"/><polygon class="cls-5" points="-2.07 53.85 33.48 53.85 33.71 52.33 -1.83 52.33 -2.07 53.85"/><polygon class="cls-6" points="-2.54 56.92 33 56.92 33.24 55.4 -2.31 55.4 -2.54 56.92"/><polygon class="cls-7" points="-4.08 66.81 31.47 66.81 31.71 65.29 -3.84 65.29 -4.08 66.81"/><polygon class="cls-8" points="-5.2 74.05 30.35 74.05 30.59 72.53 -4.96 72.53 -5.2 74.05"/><polygon class="cls-9" points="-5.86 78.31 29.69 78.31 29.93 76.79 -5.62 76.79 -5.86 78.31"/></g></svg>