<svg xmlns="http://www.w3.org/2000/svg" xmlns:xlink="http://www.w3.org/1999/xlink" viewBox="0 0 150 150"><defs><style>.cls-1{opacity:0.69;}.cls-2{fill:none;stroke:#9c3;stroke-linecap:round;stroke-miterlimit:10;stroke-width:3px;stroke-dasharray:0.5 8.04;}.cls-3{fill:#fff;}.cls-4{fill:url(#linear-gradient);}.cls-5{fill:url(#linear-gradient-2);}.cls-6{fill:url(#linear-gradient-3);}.cls-7{fill:url(#linear-gradient-4);}.cls-8{fill:url(#linear-gradient-5);}.cls-9{fill:url(#linear-gradient-6);}.cls-10{fill:url(#linear-gradient-7);}.cls-11{fill:url(#linear-gradient-8);}</style><linearGradient id="linear-gradient" x1="-144.38" y1="49.88" x2="-107.75" y2="49.88" gradientTransform="matrix(1, 0, -0.15, 1, 173.16, 0)" gradientUnits="userSpaceOnUse"><stop offset="0" stop-color="#fff" stop-opacity="0"/><stop offset="0.24" stop-color="#fff" stop-opacity="0.01"/><stop offset="0.39" stop-color="#fff" stop-opacity="0.04"/><stop offset="0.52" stop-color="#fff" stop-opacity="0.1"/><stop offset="0.64" stop-color="#fff" stop-opacity="0.18"/><stop offset="0.74" stop-color="#fff" stop-opacity="0.29"/><stop offset="0.84" stop-color="#fff" stop-opacity="0.42"/><stop offset="0.93" stop-color="#fff" stop-opacity="0.57"/><stop offset="1" stop-color="#fff" stop-opacity="0.7"/></linearGradient><linearGradient id="linear-gradient-2" x1="-144.38" y1="60.07" x2="-107.75" y2="60.07" xlink:href="#linear-gradient"/><linearGradient id="linear-gradient-3" x1="-144.38" y1="63.41" x2="-107.75" y2="63.41" xlink:href="#linear-gradient"/><linearGradient id="linear-gradient-4" x1="-144.38" y1="73.96" x2="-107.75" y2="73.96" xlink:href="#linear-gradient"/><linearGradient id="linear-gradient-5" x1="-144.38" y1="77.12" x2="-107.75" y2="77.12" xlink:href="#linear-gradient"/><linearGradient id="linear-gradient-6" x1="-144.38" y1="87.31" x2="-107.75" y2="87.31" xlink:href="#linear-gradient"/><linearGradient id="linear-gradient-7" x1="-144.38" y1="94.78" x2="-107.75" y2="94.78" xlink:href="#linear-gradient"/><linearGradient id="linear-gradient-8" x1="-144.38" y1="99.17" x2="-107.75" y2="99.17" xlink:href="#linear-gradient"/></defs><title>HPC</title><g id="map"><g class="cls-1"><circle class="cls-2" cx="75" cy="75" r="65.26"/></g><path class="cls-3" d="M95.73,85.29l1-6.2a.22.22,0,0,0-.23-.26H89.88l-1,6.72h6.59A.32.32,0,0,0,95.73,85.29ZM94,83.58H91.11l.43-2.79h2.92Z"/><path class="cls-3" d="M104.65,48.56a4.17,4.17,0,0,0-3.25-1.44H61.78A6,6,0,0,0,56.11,52l-1,6.19a4.24,4.24,0,0,0,1.08,3.67l-.24.2a5.81,5.81,0,0,0-2,3.47l-1,6.2a4.22,4.22,0,0,0,1.08,3.67A5.84,5.84,0,0,0,51.9,79.1l-1,6.19a4.1,4.1,0,0,0,4.14,4.9H70a10,10,0,0,0-2.21,1.75H53.23a4,4,0,0,0-3.81,3.3l-.5,3.21a2.76,2.76,0,0,0,2.79,3.3H66.26a6.65,6.65,0,0,0,5.71,3,9.36,9.36,0,0,0,6.63-3H94.51a3.84,3.84,0,0,0,2.48-1,3.91,3.91,0,0,0,1.33-2.34l.5-3.2A2.76,2.76,0,0,0,96,91.93H80.13a6.56,6.56,0,0,0-1.52-1.63v-.11H94.7a6,6,0,0,0,5.67-4.91l1-6.19a4.21,4.21,0,0,0-1.08-3.67,2.43,2.43,0,0,0,.25-.2,5.86,5.86,0,0,0,2-3.47l1-6.19a4.24,4.24,0,0,0-1.08-3.67,5.9,5.9,0,0,0,2.22-3.67l1-6.19A4.26,4.26,0,0,0,104.65,48.56ZM103.58,52l-1,6.19a3.56,3.56,0,0,1-3.39,2.94h-18l-.23,1.46H99a2.46,2.46,0,0,1,2.48,2.94l-1,6.19a3.56,3.56,0,0,1-3.4,2.94h-18l-.22,1.47h18a2.46,2.46,0,0,1,2.48,2.94l-1,6.19A3.55,3.55,0,0,1,95,88.22H77l-.5,3.22a4.78,4.78,0,0,1,2.33,2.46H95.73a1.11,1.11,0,0,1,1.12,1.34l-.49,3.2a1.63,1.63,0,0,1-1.55,1.34H77.87a7.1,7.1,0,0,1-5.6,3,4.91,4.91,0,0,1-4.67-3H52a1.11,1.11,0,0,1-1.12-1.33l.5-3.21a1.61,1.61,0,0,1,1.54-1.34H68.51a7.45,7.45,0,0,1,3.29-2.53l.49-3.15H55.39a2.46,2.46,0,0,1-2.48-2.94l1-6.19a3.57,3.57,0,0,1,3.4-2.94H74.16l.23-1.47H57.49A2.45,2.45,0,0,1,55,71.76l1-6.2a3.56,3.56,0,0,1,3.39-2.94h16.9l.23-1.46H59.6a2.46,2.46,0,0,1-2.48-2.94l1-6.19a3.57,3.57,0,0,1,3.4-2.94H101.1A2.46,2.46,0,0,1,103.58,52Z"/><path class="cls-3" d="M100.68,51.76H94.09l-1,6.73h6.59a.32.32,0,0,0,.31-.27l1-6.19A.23.23,0,0,0,100.68,51.76Zm-2.44,4.76H95.32l.43-2.79h2.92Z"/><path class="cls-3" d="M97.84,71.75l1-6.19a.23.23,0,0,0-.23-.27H92l-1,6.73h6.59A.33.33,0,0,0,97.84,71.75Zm-1.71-1.7H93.21l.43-2.79h2.93Z"/><polygon class="cls-4" points="20.94 50.66 57.58 50.66 57.82 49.1 21.18 49.1 20.94 50.66"/><polygon class="cls-5" points="19.36 60.85 56 60.85 56.24 59.29 19.6 59.29 19.36 60.85"/><polygon class="cls-6" points="18.84 64.19 55.48 64.19 55.72 62.63 19.08 62.63 18.84 64.19"/><polygon class="cls-7" points="17.21 74.74 53.85 74.74 54.09 73.18 17.45 73.18 17.21 74.74"/><polygon class="cls-8" points="16.72 77.9 53.36 77.9 53.6 76.34 16.96 76.34 16.72 77.9"/><polygon class="cls-9" points="15.14 88.1 51.78 88.1 52.02 86.53 15.38 86.53 15.14 88.1"/><polygon class="cls-10" points="13.99 95.56 50.62 95.56 50.87 94 14.23 94 13.99 95.56"/><polygon class="cls-11" points="13.31 99.95 49.94 99.95 50.19 98.39 13.55 98.39 13.31 99.95"/></g></svg>