<svg xmlns="http://www.w3.org/2000/svg" xmlns:xlink="http://www.w3.org/1999/xlink" viewBox="0 0 140 140"><defs><style>.cls-1{opacity:0.69;}.cls-2{fill:none;stroke:#9c3;stroke-linecap:round;stroke-miterlimit:10;stroke-width:3px;stroke-dasharray:0.5 7.97;}.cls-3{fill:#fff;}.cls-4{fill:url(#linear-gradient);}.cls-5{fill:url(#linear-gradient-2);}.cls-6{fill:url(#linear-gradient-3);}.cls-7{fill:url(#linear-gradient-4);}.cls-8{fill:url(#linear-gradient-5);}.cls-9{fill:url(#linear-gradient-6);}.cls-10{fill:url(#linear-gradient-7);}.cls-11{fill:url(#linear-gradient-8);}</style><linearGradient id="linear-gradient" x1="32.56" y1="45.63" x2="68.11" y2="45.63" gradientTransform="matrix(1, 0, -0.15, 1, -7.83, 0)" gradientUnits="userSpaceOnUse"><stop offset="0" stop-color="#fff" stop-opacity="0"/><stop offset="0.24" stop-color="#fff" stop-opacity="0.01"/><stop offset="0.39" stop-color="#fff" stop-opacity="0.04"/><stop offset="0.52" stop-color="#fff" stop-opacity="0.1"/><stop offset="0.64" stop-color="#fff" stop-opacity="0.18"/><stop offset="0.74" stop-color="#fff" stop-opacity="0.29"/><stop offset="0.84" stop-color="#fff" stop-opacity="0.42"/><stop offset="0.93" stop-color="#fff" stop-opacity="0.57"/><stop offset="1" stop-color="#fff" stop-opacity="0.7"/></linearGradient><linearGradient id="linear-gradient-2" x1="32.56" y1="55.52" x2="68.11" y2="55.52" xlink:href="#linear-gradient"/><linearGradient id="linear-gradient-3" x1="32.56" y1="58.76" x2="68.11" y2="58.76" xlink:href="#linear-gradient"/><linearGradient id="linear-gradient-4" x1="32.56" y1="68.99" x2="68.11" y2="68.99" xlink:href="#linear-gradient"/><linearGradient id="linear-gradient-5" x1="32.56" y1="72.06" x2="68.11" y2="72.06" xlink:href="#linear-gradient"/><linearGradient id="linear-gradient-6" x1="32.56" y1="81.95" x2="68.11" y2="81.95" xlink:href="#linear-gradient"/><linearGradient id="linear-gradient-7" x1="32.56" y1="89.19" x2="68.11" y2="89.19" xlink:href="#linear-gradient"/><linearGradient id="linear-gradient-8" x1="32.56" y1="93.45" x2="68.11" y2="93.45" xlink:href="#linear-gradient"/></defs><title>HPC</title><g id="map"><g class="cls-1"><circle class="cls-2" cx="70" cy="70" r="63.32"/></g><path class="cls-3" d="M90.11,80l.94-6a.22.22,0,0,0-.22-.26h-6.4l-1,6.53h6.39A.31.31,0,0,0,90.11,80Zm-1.65-1.65H85.63l.42-2.71h2.83Z"/><path class="cls-3" d="M98.76,44.35A4,4,0,0,0,95.62,43H57.18a5.78,5.78,0,0,0-5.5,4.76l-.94,6a4.13,4.13,0,0,0,1,3.56l-.24.2a5.57,5.57,0,0,0-1.91,3.36l-.94,6a4.1,4.1,0,0,0,1,3.56A5.73,5.73,0,0,0,47.59,74l-.93,6a4,4,0,0,0,4,4.76H65.14A10,10,0,0,0,63,86.43H48.88a3.9,3.9,0,0,0-3.7,3.21l-.48,3.11A2.67,2.67,0,0,0,47.4,96H61.52a6.44,6.44,0,0,0,5.54,2.89A9,9,0,0,0,73.49,96H88.93A3.7,3.7,0,0,0,91.34,95a3.79,3.79,0,0,0,1.29-2.27l.48-3.11a2.67,2.67,0,0,0-2.7-3.2H75a6.18,6.18,0,0,0-1.47-1.59v-.1h15.6A5.77,5.77,0,0,0,94.61,80l.94-6a4.11,4.11,0,0,0-1-3.56l.24-.2a5.61,5.61,0,0,0,1.92-3.36l.93-6a4.11,4.11,0,0,0-1-3.56,5.7,5.7,0,0,0,2.16-3.56l.93-6A4.12,4.12,0,0,0,98.76,44.35Zm-1,3.36-.94,6a3.46,3.46,0,0,1-3.29,2.85H76L75.77,58H93.28a2.38,2.38,0,0,1,2.4,2.85l-.93,6a3.47,3.47,0,0,1-3.3,2.85H73.94l-.22,1.42H91.23A2.39,2.39,0,0,1,93.64,74l-.93,6a3.47,3.47,0,0,1-3.3,2.85H71.9L71.42,86a4.57,4.57,0,0,1,2.25,2.39H90.11a1.08,1.08,0,0,1,1.09,1.29l-.48,3.11a1.57,1.57,0,0,1-1.5,1.3H72.79a6.9,6.9,0,0,1-5.44,2.89A4.75,4.75,0,0,1,62.82,94H47.7a1.07,1.07,0,0,1-1.09-1.29l.48-3.11a1.57,1.57,0,0,1,1.5-1.3H63.71a7.2,7.2,0,0,1,3.18-2.46l.48-3H51A2.37,2.37,0,0,1,48.57,80l.93-6a3.47,3.47,0,0,1,3.3-2.85H69.19l.22-1.42H53a2.39,2.39,0,0,1-2.41-2.85l.93-6A3.47,3.47,0,0,1,54.84,58H71.23l.22-1.42H55.06a2.39,2.39,0,0,1-2.41-2.85l.94-6a3.46,3.46,0,0,1,3.29-2.85H95.32A2.39,2.39,0,0,1,97.73,47.71Z"/><path class="cls-3" d="M94.92,47.45h-6.4L87.5,54h6.4a.32.32,0,0,0,.3-.26l.93-6A.21.21,0,0,0,94.92,47.45Zm-2.37,4.62H89.71l.42-2.71H93Z"/><path class="cls-3" d="M92.16,66.85l.93-6a.22.22,0,0,0-.22-.26H86.48l-1,6.53h6.4A.33.33,0,0,0,92.16,66.85ZM90.5,65.2H87.67l.42-2.71h2.84Z"/><polygon class="cls-4" points="17.55 46.39 53.09 46.39 53.33 44.87 17.78 44.87 17.55 46.39"/><polygon class="cls-5" points="16.02 56.28 51.56 56.28 51.8 54.76 16.25 54.76 16.02 56.28"/><polygon class="cls-6" points="15.52 59.52 51.06 59.52 51.3 58 15.75 58 15.52 59.52"/><polygon class="cls-7" points="13.93 69.75 49.48 69.75 49.71 68.23 14.17 68.23 13.93 69.75"/><polygon class="cls-8" points="13.46 72.82 49 72.82 49.24 71.3 13.69 71.3 13.46 72.82"/><polygon class="cls-9" points="11.93 82.71 47.47 82.71 47.71 81.19 12.16 81.19 11.93 82.71"/><polygon class="cls-10" points="10.8 89.95 46.35 89.95 46.59 88.43 11.04 88.43 10.8 89.95"/><polygon class="cls-11" points="10.14 94.2 45.69 94.2 45.93 92.69 10.38 92.69 10.14 94.2"/></g></svg>