<svg xmlns="http://www.w3.org/2000/svg" xmlns:xlink="http://www.w3.org/1999/xlink" viewBox="0 0 110 110"><defs><style>.cls-1{fill:#fff;}.cls-2{fill:url(#linear-gradient);}.cls-3{fill:url(#linear-gradient-2);}.cls-4{fill:url(#linear-gradient-3);}.cls-5{fill:url(#linear-gradient-4);}.cls-6{fill:url(#linear-gradient-5);}.cls-7{fill:url(#linear-gradient-6);}.cls-8{fill:url(#linear-gradient-7);}.cls-9{fill:url(#linear-gradient-8);}</style><linearGradient id="linear-gradient" x1="-113.74" y1="28.95" x2="-77.1" y2="28.95" gradientTransform="matrix(1, 0, -0.15, 1, 118.62, 0)" gradientUnits="userSpaceOnUse"><stop offset="0" stop-color="#fff" stop-opacity="0"/><stop offset="0.24" stop-color="#fff" stop-opacity="0.01"/><stop offset="0.39" stop-color="#fff" stop-opacity="0.04"/><stop offset="0.52" stop-color="#fff" stop-opacity="0.1"/><stop offset="0.64" stop-color="#fff" stop-opacity="0.18"/><stop offset="0.74" stop-color="#fff" stop-opacity="0.29"/><stop offset="0.84" stop-color="#fff" stop-opacity="0.42"/><stop offset="0.93" stop-color="#fff" stop-opacity="0.57"/><stop offset="1" stop-color="#fff" stop-opacity="0.7"/></linearGradient><linearGradient id="linear-gradient-2" x1="-113.74" y1="39.15" x2="-77.1" y2="39.15" xlink:href="#linear-gradient"/><linearGradient id="linear-gradient-3" x1="-113.74" y1="42.49" x2="-77.1" y2="42.49" xlink:href="#linear-gradient"/><linearGradient id="linear-gradient-4" x1="-113.74" y1="53.03" x2="-77.1" y2="53.03" xlink:href="#linear-gradient"/><linearGradient id="linear-gradient-5" x1="-113.74" y1="56.2" x2="-77.1" y2="56.2" xlink:href="#linear-gradient"/><linearGradient id="linear-gradient-6" x1="-113.74" y1="66.39" x2="-77.1" y2="66.39" xlink:href="#linear-gradient"/><linearGradient id="linear-gradient-7" x1="-113.74" y1="73.85" x2="-77.1" y2="73.85" xlink:href="#linear-gradient"/><linearGradient id="linear-gradient-8" x1="-113.74" y1="78.24" x2="-77.1" y2="78.24" xlink:href="#linear-gradient"/></defs><title>HPC  NO CIRCLE</title><g id="map"><path class="cls-1" d="M75.07,64.36l1-6.19a.22.22,0,0,0-.22-.27H69.22l-1,6.73h6.59A.32.32,0,0,0,75.07,64.36Zm-1.7-1.7H70.44l.44-2.79H73.8Z"/><path class="cls-1" d="M84,27.63a4.16,4.16,0,0,0-3.24-1.43H41.12a6,6,0,0,0-5.67,4.9l-1,6.2A4.24,4.24,0,0,0,35.57,41l-.25.2a5.8,5.8,0,0,0-2,3.47l-1,6.19a4.25,4.25,0,0,0,1.09,3.67,5.87,5.87,0,0,0-2.23,3.67l-1,6.19a4.1,4.1,0,0,0,4.14,4.91H49.33A10,10,0,0,0,47.12,71H32.57a4,4,0,0,0-3.81,3.31l-.5,3.2a2.76,2.76,0,0,0,2.79,3.3H45.6a6.62,6.62,0,0,0,5.7,3,9.38,9.38,0,0,0,6.64-3h15.9a3.79,3.79,0,0,0,2.49-1,3.91,3.91,0,0,0,1.33-2.33l.5-3.21A2.76,2.76,0,0,0,75.37,71H59.46a6.25,6.25,0,0,0-1.52-1.64l0-.1H74a6,6,0,0,0,5.67-4.91l1-6.19a4.24,4.24,0,0,0-1.08-3.67l.25-.2a5.8,5.8,0,0,0,2-3.47l1-6.2A4.25,4.25,0,0,0,81.69,41a5.87,5.87,0,0,0,2.23-3.67l1-6.19A4.23,4.23,0,0,0,84,27.63ZM82.91,31.1l-1,6.19a3.55,3.55,0,0,1-3.39,2.94H60.51l-.23,1.47h18a2.45,2.45,0,0,1,2.48,2.93l-1,6.2a3.57,3.57,0,0,1-3.4,2.93H58.4l-.23,1.46h18a2.45,2.45,0,0,1,2.48,2.94l-1,6.19a3.56,3.56,0,0,1-3.39,2.94h-18l-.5,3.22A4.72,4.72,0,0,1,58.12,73H75.07a1.11,1.11,0,0,1,1.12,1.33l-.5,3.21a1.61,1.61,0,0,1-1.54,1.33H57.21a7.11,7.11,0,0,1-5.6,3,4.91,4.91,0,0,1-4.67-3H31.35a1.12,1.12,0,0,1-1.13-1.34l.5-3.21A1.63,1.63,0,0,1,32.27,73H47.85a7.43,7.43,0,0,1,3.28-2.54l.49-3.14H34.73a2.44,2.44,0,0,1-2.48-2.94l1-6.19a3.57,3.57,0,0,1,3.4-2.94H53.5l.23-1.46H36.83a2.46,2.46,0,0,1-2.48-2.94l1-6.19a3.56,3.56,0,0,1,3.39-2.94h16.9l.22-1.47H38.94a2.46,2.46,0,0,1-2.48-2.94l1-6.2a3.56,3.56,0,0,1,3.4-2.93H80.43A2.45,2.45,0,0,1,82.91,31.1Z"/><path class="cls-1" d="M80,30.83H73.43l-1.05,6.73H79a.32.32,0,0,0,.31-.27l1-6.19A.22.22,0,0,0,80,30.83Zm-2.44,4.76H74.65l.44-2.79H78Z"/><path class="cls-1" d="M77.18,50.83l1-6.2a.22.22,0,0,0-.23-.26H71.32l-1,6.72h6.6A.34.34,0,0,0,77.18,50.83Zm-1.71-1.7H72.55L73,46.34h2.93Z"/><polygon class="cls-2" points="0.28 29.74 36.91 29.74 37.16 28.17 0.52 28.17 0.28 29.74"/><polygon class="cls-3" points="-1.3 39.93 35.34 39.93 35.58 38.37 -1.06 38.37 -1.3 39.93"/><polygon class="cls-4" points="-1.82 43.27 34.82 43.27 35.06 41.71 -1.58 41.71 -1.82 43.27"/><polygon class="cls-5" points="-3.45 53.81 33.19 53.81 33.43 52.25 -3.21 52.25 -3.45 53.81"/><polygon class="cls-6" points="-3.94 56.98 32.7 56.98 32.94 55.41 -3.7 55.41 -3.94 56.98"/><polygon class="cls-7" points="-5.52 67.17 31.12 67.17 31.36 65.61 -5.28 65.61 -5.52 67.17"/><polygon class="cls-8" points="-6.68 74.63 29.96 74.63 30.2 73.07 -6.43 73.07 -6.68 74.63"/><polygon class="cls-9" points="-7.36 79.02 29.28 79.02 29.52 77.46 -7.11 77.46 -7.36 79.02"/></g></svg>