<svg xmlns="http://www.w3.org/2000/svg" viewBox="0 0 110 110"><defs><style>.cls-1{fill:#fff;}.cls-2{fill:none;}</style></defs><title>LITE NO CIRCLE</title><g id="map"><path class="cls-1" d="M55.43,26.64a25.66,25.66,0,0,1,24.4,17.48A19.21,19.21,0,0,1,98.6,63.72,19.9,19.9,0,0,1,79,83.36H30.68A19.23,19.23,0,0,1,11.4,63.72a20,20,0,0,1,19.08-19.6,26.68,26.68,0,0,1,25-17.48m0-3.61A30.36,30.36,0,0,0,28,40.72,23.6,23.6,0,0,0,7.78,63.66,22.85,22.85,0,0,0,30.68,87H79a23.5,23.5,0,0,0,23.21-23.19A22.83,22.83,0,0,0,82.39,40.7,29.31,29.31,0,0,0,55.43,23Z"/><path class="cls-1" d="M20.18,73.82a1.18,1.18,0,0,1-2.36,0,16.42,16.42,0,0,1,1.29-6.38,15.57,15.57,0,0,1,3.51-5.2,15.9,15.9,0,0,1,5.2-3.5,16.4,16.4,0,0,1,12.75,0,13.76,13.76,0,0,1,2.59,1.4L40.61,61.4a12.83,12.83,0,0,0-6.38-1.63A14.08,14.08,0,0,0,20.18,73.82Z"/><path class="cls-1" d="M38.1,76.51A5.44,5.44,0,1,1,32,67.7l14.12-6.93L39.21,74.89A5.2,5.2,0,0,1,38.1,76.51Z"/><path class="cls-1" d="M49.46,75a1.16,1.16,0,0,1-1.18-1.18,13.91,13.91,0,0,0-2.51-8L47,63.42a17.42,17.42,0,0,1,2.4,4,16.53,16.53,0,0,1,1.29,6.41A1.16,1.16,0,0,1,49.46,75Z"/><path class="cls-1" d="M81.87,75.56a2.2,2.2,0,0,1-2,2.48,2,2,0,0,1-1.85,1.49,2.15,2.15,0,0,1-2-1.49,2.33,2.33,0,0,1-2.14-2.48V73.81h7.94Z"/><path class="cls-1" d="M83.33,69.28a4.39,4.39,0,0,0-1.45,3.2H73.93a4.07,4.07,0,0,0-1.59-3.2,9.19,9.19,0,0,1-3.71-7.83,9.38,9.38,0,0,1,9.14-8.88,9.26,9.26,0,0,1,9.41,9.28A8.88,8.88,0,0,1,83.33,69.28Z"/><path class="cls-2" d="M34.23,70a2.62,2.62,0,0,0-1.88.78,2.68,2.68,0,0,0,1.88,4.57,2.65,2.65,0,0,0,1.88-.78,2.71,2.71,0,0,0,0-3.79A2.65,2.65,0,0,0,34.23,70Z"/><path class="cls-1" d="M59.57,59.1h-7c-1.09,0-1.65-.5-1.24-1.38l4.09-8.09c.41-.89,1.06-.82,1.46.06l4,8C61.22,58.57,60.65,59.1,59.57,59.1Z"/><path class="cls-1" d="M56,39.22a4.12,4.12,0,1,0,4.12,4.12A4.13,4.13,0,0,0,56,39.22Zm0,5.85a1.73,1.73,0,1,1,1.73-1.73A1.74,1.74,0,0,1,56,45.07Z"/><path class="cls-1" d="M51.54,49.62h0a.92.92,0,0,1,.33.7.89.89,0,0,1-.89.89.92.92,0,0,1-.54-.18h0a9.47,9.47,0,1,1,11,0h0l0,0a.85.85,0,0,1-.48.15.89.89,0,0,1-.53-1.6l0,0h0a7.7,7.7,0,1,0-9,.05"/><path class="cls-1" d="M63.72,55h0a14,14,0,1,0-15.49,0h0a.85.85,0,0,0,.5.16.88.88,0,0,0,.88-.89.85.85,0,0,0-.39-.73h0a12.2,12.2,0,1,1,13.51,0h0a.88.88,0,0,0,.49,1.62.93.93,0,0,0,.49-.14"/></g></svg>