<svg xmlns="http://www.w3.org/2000/svg" viewBox="0 0 140 140"><defs><style>.cls-1{fill:#fff;}.cls-2,.cls-4{fill:none;}.cls-3{opacity:0.69;}.cls-4{stroke:#9c3;stroke-linecap:round;stroke-miterlimit:10;stroke-width:3px;stroke-dasharray:0.5 7.98;}</style></defs><title>LITE</title><g id="map"><path class="cls-1" d="M70.43,36.15a25.66,25.66,0,0,1,24.4,17.48,19.21,19.21,0,0,1,18.77,19.6A19.9,19.9,0,0,1,94,92.87H45.68A19.23,19.23,0,0,1,26.4,73.23a20,20,0,0,1,19.08-19.6,26.68,26.68,0,0,1,25-17.48m0-3.61A30.36,30.36,0,0,0,43,50.23,23.6,23.6,0,0,0,22.78,73.17a22.85,22.85,0,0,0,22.9,23.31H94a23.5,23.5,0,0,0,23.21-23.19A22.83,22.83,0,0,0,97.39,50.21a29.31,29.31,0,0,0-27-17.67Z"/><path class="cls-1" d="M35.18,83.33a1.18,1.18,0,0,1-2.36,0A16.42,16.42,0,0,1,34.11,77a15.57,15.57,0,0,1,3.51-5.2,15.9,15.9,0,0,1,5.2-3.5,16.4,16.4,0,0,1,12.75,0,13.76,13.76,0,0,1,2.59,1.4l-2.55,1.26a12.83,12.83,0,0,0-6.38-1.63A14.08,14.08,0,0,0,35.18,83.33Z"/><path class="cls-1" d="M53.1,86A5.44,5.44,0,1,1,47,77.21l14.12-6.93L54.21,84.4A5.2,5.2,0,0,1,53.1,86Z"/><path class="cls-1" d="M64.46,84.51a1.16,1.16,0,0,1-1.18-1.18,13.91,13.91,0,0,0-2.51-8L62,72.93a17.42,17.42,0,0,1,2.4,4,16.53,16.53,0,0,1,1.29,6.41A1.16,1.16,0,0,1,64.46,84.51Z"/><path class="cls-1" d="M96.87,85.07a2.2,2.2,0,0,1-2,2.48A2,2,0,0,1,93.07,89a2.15,2.15,0,0,1-2-1.49,2.33,2.33,0,0,1-2.14-2.48V83.32h7.94Z"/><path class="cls-1" d="M98.33,78.79A4.39,4.39,0,0,0,96.88,82H88.93a4.07,4.07,0,0,0-1.59-3.2A9.19,9.19,0,0,1,83.63,71a9.38,9.38,0,0,1,9.14-8.88,9.26,9.26,0,0,1,9.41,9.28A8.88,8.88,0,0,1,98.33,78.79Z"/><path class="cls-2" d="M49.23,79.46a2.62,2.62,0,0,0-1.88.78,2.68,2.68,0,0,0,1.88,4.57A2.65,2.65,0,0,0,51.11,84a2.71,2.71,0,0,0,0-3.79A2.65,2.65,0,0,0,49.23,79.46Z"/><path class="cls-1" d="M74.57,68.61h-7c-1.09,0-1.65-.5-1.24-1.38l4.09-8.09c.41-.89,1.06-.82,1.46.06l4,8C76.22,68.08,75.66,68.61,74.57,68.61Z"/><path class="cls-1" d="M71,48.73a4.12,4.12,0,1,0,4.12,4.12A4.13,4.13,0,0,0,71,48.73Zm0,5.85a1.73,1.73,0,1,1,1.73-1.73A1.74,1.74,0,0,1,71,54.58Z"/><path class="cls-1" d="M66.54,59.13h0a.92.92,0,0,1,.33.7.89.89,0,0,1-.89.89.92.92,0,0,1-.54-.18h0a9.47,9.47,0,1,1,11,0h0l0,0a.85.85,0,0,1-.48.15.89.89,0,0,1-.53-1.6l0,0h0a7.7,7.7,0,1,0-8.95,0"/><path class="cls-1" d="M78.72,64.48h0a14,14,0,1,0-15.49,0h0a.85.85,0,0,0,.5.16.88.88,0,0,0,.88-.89.85.85,0,0,0-.39-.73h0a12.2,12.2,0,1,1,13.51,0h0a.88.88,0,0,0,.49,1.62.93.93,0,0,0,.49-.14"/><g class="cls-3"><circle class="cls-4" cx="70" cy="70" r="64.77" transform="translate(-14.21 122.04) rotate(-76.72)"/></g></g></svg>