<svg xmlns="http://www.w3.org/2000/svg" viewBox="0 0 150 150"><defs><style>.cls-1{fill:#fff;}.cls-2,.cls-4{fill:none;}.cls-3{opacity:0.69;}.cls-4{stroke:#9c3;stroke-linecap:round;stroke-miterlimit:10;stroke-width:3px;stroke-dasharray:0.5 8.06;}</style></defs><title>LITE</title><g id="map"><path class="cls-1" d="M75.44,40.11a26.46,26.46,0,0,1,25.15,18,19.8,19.8,0,0,1,19.35,20.2A20.5,20.5,0,0,1,99.75,98.57H49.94A19.83,19.83,0,0,1,30.06,78.33a20.62,20.62,0,0,1,19.67-20.2,27.5,27.5,0,0,1,25.71-18m0-2.37A29.92,29.92,0,0,0,48.07,55.88,22.93,22.93,0,0,0,27.69,78.29a22.2,22.2,0,0,0,22.25,22.65H99.75a22.85,22.85,0,0,0,22.56-22.57,22,22,0,0,0-20-22.52A28.84,28.84,0,0,0,75.44,37.74Z"/><path class="cls-1" d="M39.11,88.74a1.22,1.22,0,1,1-2.43,0A17,17,0,0,1,38,82.17a16,16,0,0,1,3.61-5.36A16.41,16.41,0,0,1,47,73.2a16.92,16.92,0,0,1,13.15,0,13.64,13.64,0,0,1,2.66,1.44l-2.62,1.29a13.24,13.24,0,0,0-6.58-1.67A14.5,14.5,0,0,0,39.11,88.74Z"/><path class="cls-1" d="M57.58,91.52a5.6,5.6,0,0,1-7.9,0,5.58,5.58,0,0,1,0-8,5.77,5.77,0,0,1,1.67-1.14l14.56-7.14L58.72,89.84A5.32,5.32,0,0,1,57.58,91.52Z"/><path class="cls-1" d="M69.29,90a1.21,1.21,0,0,1-1.22-1.22,14.39,14.39,0,0,0-2.58-8.25L66.71,78a18.47,18.47,0,0,1,2.47,4.11,17.19,17.19,0,0,1,1.33,6.61A1.2,1.2,0,0,1,69.29,90Z"/><path class="cls-1" d="M102.69,90.53a2.27,2.27,0,0,1-2,2.56,2,2,0,0,1-1.9,1.53,2.23,2.23,0,0,1-2.07-1.53,2.4,2.4,0,0,1-2.19-2.56V88.72h8.17Z"/><path class="cls-1" d="M104.2,84.06a4.53,4.53,0,0,0-1.5,3.3H94.51a4.18,4.18,0,0,0-1.64-3.3A9.46,9.46,0,0,1,89.05,76a9.68,9.68,0,0,1,9.42-9.15,9.53,9.53,0,0,1,9.69,9.56A9.16,9.16,0,0,1,104.2,84.06Z"/><path class="cls-2" d="M53.59,84.75a2.69,2.69,0,0,0-1.93.8,2.78,2.78,0,0,0,0,3.91,2.74,2.74,0,0,0,3.87,0,2.76,2.76,0,0,0-1.94-4.71Z"/><path class="cls-1" d="M79.71,73.56H72.48c-1.12,0-1.7-.5-1.29-1.42l4.23-8.34c.41-.91,1.09-.84,1.49.07L81,72.11C81.42,73,80.83,73.56,79.71,73.56Z"/><path class="cls-1" d="M76,53.08a4.25,4.25,0,1,0,4.25,4.24A4.25,4.25,0,0,0,76,53.08Zm0,6a1.78,1.78,0,1,1,1.78-1.78A1.78,1.78,0,0,1,76,59.1Z"/><path class="cls-1" d="M71.43,63.79l0,0a.92.92,0,0,1-.57,1.63,1,1,0,0,1-.56-.18h0a9.76,9.76,0,1,1,11.36,0h0l0,0a.84.84,0,0,1-.49.15.91.91,0,0,1-.56-1.64l0,0v0h0a7.93,7.93,0,1,0-9.22,0"/><path class="cls-1" d="M84,69.31h0a14.41,14.41,0,1,0-16,0h0a.91.91,0,1,0,1-1.51h0a12.57,12.57,0,1,1,13.92,0h0a.9.9,0,0,0-.41.76.91.91,0,0,0,.91.91,1,1,0,0,0,.5-.15"/><g class="cls-3"><circle class="cls-4" cx="75" cy="75" r="66.76" transform="translate(-18.52 125.05) rotate(-73.15)"/></g></g></svg>