<svg xmlns="http://www.w3.org/2000/svg" viewBox="0 0 140 140"><defs><style>.cls-1{fill:#fff;}</style></defs><g id="map"><path class="cls-1" d="M91.06,16.42H48.93a9.46,9.46,0,0,0-9.44,9.44v88.28a9.46,9.46,0,0,0,9.44,9.44H91.06a9.46,9.46,0,0,0,9.45-9.44V25.86A9.46,9.46,0,0,0,91.06,16.42ZM64.13,18.18a2.76,2.76,0,1,1-2.76,2.76A2.76,2.76,0,0,1,64.13,18.18Zm32,96a5.09,5.09,0,0,1-5.09,5.08H48.93a5.09,5.09,0,0,1-5.08-5.08V25.86a5.09,5.09,0,0,1,5.08-5.08h8.4v1.94a2.9,2.9,0,0,0,2.9,2.89H79.77a2.9,2.9,0,0,0,2.9-2.89V20.78h8.39a5.09,5.09,0,0,1,5.09,5.08Z"/><rect class="cls-1" x="56.14" y="111.92" width="27.73" height="2.5" rx="1.25"/></g></svg>