<svg xmlns="http://www.w3.org/2000/svg" viewBox="0 0 140 140"><defs><style>.cls-1{fill:#fff;}</style></defs><g id="map"><path class="cls-1" d="M70.59,30.8A35.46,35.46,0,0,1,104.31,55a26.57,26.57,0,0,1,26,27.09C130,96.88,118,109.2,103.18,109.2H36.39A26.6,26.6,0,0,1,9.73,82.05,27.67,27.67,0,0,1,36.11,55,36.89,36.89,0,0,1,70.59,30.8m0-5A42,42,0,0,0,32.64,50.27,32.59,32.59,0,0,0,4.74,82a31.59,31.59,0,0,0,31.65,32.22h66.79c17.41,0,31.8-14.38,32.08-32.06a31.54,31.54,0,0,0-27.41-31.9A40.5,40.5,0,0,0,70.59,25.81Z"/><path class="cls-1" d="M93.93,96.91a1.41,1.41,0,0,0-1.4-1.41H74.71a6.33,6.33,0,0,0-2.86-2.58V89.53h19a3.09,3.09,0,0,0,3.09-3.09V79.92a3.09,3.09,0,0,0-3.09-3.09h-19V75.29h19a3.09,3.09,0,0,0,3.09-3.09V65.68a3.1,3.1,0,0,0-3.09-3.09h-19V61.05h19A3.09,3.09,0,0,0,93.93,58V51.45a3.1,3.1,0,0,0-3.09-3.1H49.16a3.09,3.09,0,0,0-3.09,3.09V58a3.09,3.09,0,0,0,3.09,3.1H66.93v1.54H49.16a3.09,3.09,0,0,0-3.09,3.09V72.2a3.09,3.09,0,0,0,3.09,3.09H66.93v1.54H49.16a3.09,3.09,0,0,0-3.09,3.09v6.52a3.1,3.1,0,0,0,3.09,3.09H66.94v3.3a6.24,6.24,0,0,0-3,2.67H47.5a1.4,1.4,0,0,0-1.4,1.4v3.37a1.41,1.41,0,0,0,1.4,1.41H63.9a6.23,6.23,0,0,0,10.81,0H92.53a1.4,1.4,0,0,0,1.4-1.41ZM90.84,79.64a.28.28,0,0,1,.28.28v6.52a.28.28,0,0,1-.28.28H83.91V79.64Zm0-14.24a.28.28,0,0,1,.28.28V72.2a.28.28,0,0,1-.28.28H83.91V65.4Zm0-14.24a.29.29,0,0,1,.28.29V58a.28.28,0,0,1-.28.28H83.9V51.17Z"/></g></svg>