<svg xmlns="http://www.w3.org/2000/svg" viewBox="0 0 110 110"><defs><style>.cls-1{fill:#fff;}</style></defs><title>LDCC NO CIRCLE</title><g id="map"><path class="cls-1" d="M55.44,25.77a26.46,26.46,0,0,1,25.15,18A19.82,19.82,0,0,1,99.94,64,20.5,20.5,0,0,1,79.75,84.23H29.94A19.83,19.83,0,0,1,10.06,64,20.63,20.63,0,0,1,29.73,43.78a27.51,27.51,0,0,1,25.71-18m0-2.37A29.93,29.93,0,0,0,28.07,41.53,23,23,0,0,0,7.69,64,22.2,22.2,0,0,0,29.94,86.6H79.75A22.86,22.86,0,0,0,102.31,64a22,22,0,0,0-20-22.52A28.85,28.85,0,0,0,55.44,23.4Z"/><path class="cls-1" d="M72.85,75.07a1,1,0,0,0-1-1H58.51a4.64,4.64,0,0,0-2.13-1.93V69.56H70.54a2.31,2.31,0,0,0,2.31-2.3V62.4a2.32,2.32,0,0,0-2.31-2.31H56.38V59H70.54a2.32,2.32,0,0,0,2.31-2.31V51.78a2.31,2.31,0,0,0-2.31-2.3H56.38V48.33H70.54A2.32,2.32,0,0,0,72.85,46V41.16a2.31,2.31,0,0,0-2.31-2.3H39.46a2.3,2.3,0,0,0-2.31,2.31V46a2.31,2.31,0,0,0,2.31,2.31H52.71v1.15H39.46a2.31,2.31,0,0,0-2.31,2.3v4.86A2.32,2.32,0,0,0,39.46,59H52.71V60.1H39.46a2.31,2.31,0,0,0-2.31,2.3v4.86a2.32,2.32,0,0,0,2.31,2.31H52.71V72a4.66,4.66,0,0,0-2.26,2H38.22a1,1,0,0,0-1,1v2.51a1,1,0,0,0,1,1H50.45a4.64,4.64,0,0,0,8.06,0H71.8a1,1,0,0,0,1-1ZM70.54,62.19a.21.21,0,0,1,.21.21v4.86a.21.21,0,0,1-.21.21H65.37V62.19Zm0-10.62a.21.21,0,0,1,.21.21v4.86a.21.21,0,0,1-.21.21H65.37V51.57Zm0-10.62a.21.21,0,0,1,.21.21V46a.21.21,0,0,1-.21.21H65.37V41Z"/></g></svg>