<svg xmlns="http://www.w3.org/2000/svg" viewBox="0 0 140 140"><defs><style>.cls-1{fill:#fff;}.cls-2{fill:none;}</style></defs><g id="map"><path class="cls-1" d="M70.52,20.48A31.45,31.45,0,0,1,100.43,41.9a23.56,23.56,0,0,1,23,24C123.24,79.07,112.53,90,99.43,90H40.19A23.58,23.58,0,0,1,16.55,65.93a24.53,24.53,0,0,1,23.39-24A32.72,32.72,0,0,1,70.52,20.48m0-4.44a37.2,37.2,0,0,0-33.65,21.7A28.91,28.91,0,0,0,12.12,65.86,28,28,0,0,0,40.19,94.43H99.43c15.44,0,28.2-12.75,28.45-28.43a28,28,0,0,0-24.31-28.29A35.93,35.93,0,0,0,70.52,16Z"/><path class="cls-2" d="M37.76,41.42a3.58,3.58,0,0,0-2.59,1.07,3.75,3.75,0,0,0,0,5.25,3.68,3.68,0,0,0,5.19,0,3.75,3.75,0,0,0,0-5.25A3.67,3.67,0,0,0,37.76,41.42Z"/><path class="cls-1" d="M33.32,103.79a6.94,6.94,0,1,0,0,1.19,3.73,3.73,0,0,0,0-.59A3.94,3.94,0,0,0,33.32,103.79Zm-6.89,5.5a4.9,4.9,0,1,1,4.86-5.5,3.94,3.94,0,0,1,0,.6,3.73,3.73,0,0,1,0,.59A4.9,4.9,0,0,1,26.43,109.29Z"/><path class="cls-1" d="M113.57,97.46a6.92,6.92,0,0,0-6.89,6.33,3.94,3.94,0,0,0,0,.6,3.73,3.73,0,0,0,0,.59,6.92,6.92,0,1,0,6.89-7.52Zm0,11.83a4.9,4.9,0,0,1-4.86-4.31,3.73,3.73,0,0,1,0-.59,3.94,3.94,0,0,1,0-.6,4.9,4.9,0,1,1,4.86,5.5Z"/><path class="cls-1" d="M95.27,110.11a6.91,6.91,0,0,0-6.89,6.32,3.81,3.81,0,0,0,0,.59,4,4,0,0,0,0,.61,6.92,6.92,0,1,0,6.89-7.52Zm0,11.82a4.91,4.91,0,0,1-4.86-4.3,4,4,0,0,1,0-.61,3.81,3.81,0,0,1,0-.59,4.9,4.9,0,1,1,4.86,5.5Z"/><path class="cls-1" d="M51.55,116.43a6.94,6.94,0,1,0,0,1.19,3.94,3.94,0,0,0,0-.6A3.81,3.81,0,0,0,51.55,116.43Zm-6.89,5.5a4.91,4.91,0,1,1,4.86-5.5,3.81,3.81,0,0,1,0,.59,3.94,3.94,0,0,1,0,.6A4.9,4.9,0,0,1,44.66,121.93Z"/><path class="cls-1" d="M43,103.79V105H31.29a3.73,3.73,0,0,0,0-.59,3.94,3.94,0,0,0,0-.6Z"/><rect class="cls-1" x="42.36" y="92.6" width="1.19" height="12.37"/><path class="cls-1" d="M61,116.43v1.19H49.52a3.94,3.94,0,0,0,0-.6,3.81,3.81,0,0,0,0-.59Z"/><rect class="cls-1" x="60.35" y="92.01" width="1.19" height="25.6"/><path class="cls-1" d="M108.67,104.39a3.73,3.73,0,0,0,0,.59H97.07v-1.19h11.64A3.94,3.94,0,0,0,108.67,104.39Z"/><rect class="cls-1" x="96.51" y="92.52" width="1.19" height="12.44"/><path class="cls-1" d="M90.37,117a4,4,0,0,0,0,.61H78.93v-1.2H90.41A3.81,3.81,0,0,0,90.37,117Z"/><rect class="cls-1" x="78.38" y="92.18" width="1.19" height="25.43"/></g></svg>