<svg xmlns="http://www.w3.org/2000/svg" viewBox="0 0 140 140"><defs><style>.cls-1{fill:#fff;}.cls-2{fill:none;}</style></defs><g id="map"><path class="cls-1" d="M70.59,30.8A35.46,35.46,0,0,1,104.31,55a26.57,26.57,0,0,1,26,27.09C130,96.87,118,109.2,103.18,109.2H36.39A26.6,26.6,0,0,1,9.73,82.05,27.67,27.67,0,0,1,36.11,55,36.89,36.89,0,0,1,70.59,30.8m0-5A42,42,0,0,0,32.64,50.27,32.59,32.59,0,0,0,4.74,82a31.59,31.59,0,0,0,31.65,32.22h66.79c17.41,0,31.8-14.38,32.08-32.06a31.54,31.54,0,0,0-27.41-31.9A40.5,40.5,0,0,0,70.59,25.81Z"/><path class="cls-2" d="M41.3,90.66a3.63,3.63,0,0,0-2.6,1.07,3.75,3.75,0,0,0,0,5.25,3.68,3.68,0,0,0,5.19,0,3.75,3.75,0,0,0,0-5.25A3.71,3.71,0,0,0,41.3,90.66Z"/><path class="cls-1" d="M27.06,91.69a4.32,4.32,0,0,1,4.13-4.37,4.29,4.29,0,1,1,.17,8.57A4.33,4.33,0,0,1,27.06,91.69Z"/><path class="cls-1" d="M54.28,91.69a4.32,4.32,0,0,1,4.13-4.37,4.29,4.29,0,1,1,.17,8.57A4.33,4.33,0,0,1,54.28,91.69Z"/><path class="cls-1" d="M68.09,84.11A6.39,6.39,0,0,0,62,77.78H57.5a2.62,2.62,0,0,0-.24-.34L50.8,69.57a3.27,3.27,0,0,0-2.52-1.16h-14a3.3,3.3,0,0,0-2.53,1.16l-6.45,7.86c-.09.11-.16.23-.24.34H21.18a1.49,1.49,0,0,0-1.49,1.49v9.8a1.49,1.49,0,0,0,1.49,1.49h4a6.3,6.3,0,0,1,6-5.23,6.53,6.53,0,0,1,6.38,5.23H52.38a6.3,6.3,0,0,1,6-5.23,6.53,6.53,0,0,1,6.38,5.23h.86A2.54,2.54,0,0,0,68.12,88v-3.5A2.8,2.8,0,0,0,68.09,84.11ZM39.88,79.25H27.81l6.46-7.87h5.61Zm14.82,0h-12V71.38h5.59l6.42,7.83Z"/><g id="map-2" data-name="map"><path class="cls-1" d="M80,50.22h-2.3V46.58h0a6.46,6.46,0,0,0-12.92.06v3.58h-2.3a1,1,0,0,0-.95,1h0V64.28a1,1,0,0,0,.95.94H80a1,1,0,0,0,1-.94h0V51.17a1,1,0,0,0-1-1ZM73.33,61.16h-4.2l1.12-3.51a2.21,2.21,0,1,1,2,0Zm2.25-10.94H66.89V46.58a4.34,4.34,0,0,1,8.68,0Z"/></g><polygon class="cls-1" points="86.48 98.67 86.48 83.42 88.15 83.42 88.15 96.99 111.14 96.99 111.14 83.42 112.81 83.42 112.81 98.67 86.48 98.67"/><polygon class="cls-1" points="99.48 68.51 84.98 83.01 83.8 81.82 99.48 66.14 115.5 82.16 114.31 83.34 99.48 68.51"/><rect class="cls-1" x="92.92" y="85.75" width="5.44" height="11.53"/><rect class="cls-1" x="101.57" y="79.03" width="5.44" height="11.53"/></g></svg>