<svg xmlns="http://www.w3.org/2000/svg" viewBox="0 0 110 110"><defs><style>.cls-1{fill:#fff;}.cls-2{fill:none;}</style></defs><title>LITE  NO CIRCLE</title><g id="map"><path class="cls-1" d="M55.44,25.77a26.46,26.46,0,0,1,25.15,18A19.82,19.82,0,0,1,99.94,64,20.5,20.5,0,0,1,79.75,84.23H29.94A19.83,19.83,0,0,1,10.06,64,20.63,20.63,0,0,1,29.73,43.78a27.51,27.51,0,0,1,25.71-18m0-2.37A29.93,29.93,0,0,0,28.07,41.53,23,23,0,0,0,7.69,64,22.2,22.2,0,0,0,29.94,86.6H79.75A22.86,22.86,0,0,0,102.31,64a22,22,0,0,0-20-22.52A28.85,28.85,0,0,0,55.44,23.4Z"/><path class="cls-1" d="M19.11,74.4a1.22,1.22,0,1,1-2.43,0A17,17,0,0,1,18,67.83a16,16,0,0,1,3.61-5.36A16.41,16.41,0,0,1,27,58.86a16.92,16.92,0,0,1,13.15,0,13.64,13.64,0,0,1,2.66,1.44l-2.62,1.29a13.24,13.24,0,0,0-6.58-1.67A14.5,14.5,0,0,0,19.11,74.4Z"/><path class="cls-1" d="M37.58,77.18a5.6,5.6,0,0,1-7.9,0,5.58,5.58,0,0,1,0-8,5.64,5.64,0,0,1,1.67-1.14L45.87,61,38.72,75.5A5.32,5.32,0,0,1,37.58,77.18Z"/><path class="cls-1" d="M49.29,75.62a1.21,1.21,0,0,1-1.22-1.22,14.39,14.39,0,0,0-2.58-8.25l1.22-2.47a18.47,18.47,0,0,1,2.47,4.11,17.19,17.19,0,0,1,1.33,6.61A1.2,1.2,0,0,1,49.29,75.62Z"/><path class="cls-1" d="M82.69,76.19a2.28,2.28,0,0,1-2,2.56,2,2,0,0,1-1.9,1.53,2.23,2.23,0,0,1-2.07-1.53,2.41,2.41,0,0,1-2.19-2.56V74.38h8.17Z"/><path class="cls-1" d="M84.2,69.72A4.53,4.53,0,0,0,82.7,73H74.51a4.18,4.18,0,0,0-1.64-3.3,9.46,9.46,0,0,1-3.82-8.07,9.67,9.67,0,0,1,9.42-9.15,9.53,9.53,0,0,1,9.69,9.56A9.16,9.16,0,0,1,84.2,69.72Z"/><path class="cls-2" d="M33.59,70.41a2.69,2.69,0,0,0-1.93.8,2.78,2.78,0,0,0,0,3.91,2.74,2.74,0,0,0,3.87,0,2.76,2.76,0,0,0-1.94-4.71Z"/><path class="cls-1" d="M59.71,59.22H52.48c-1.12,0-1.7-.51-1.29-1.42l4.23-8.34c.41-.91,1.09-.84,1.49.07L61,57.77C61.41,58.68,60.83,59.22,59.71,59.22Z"/><path class="cls-1" d="M56,38.73A4.25,4.25,0,1,0,60.27,43,4.26,4.26,0,0,0,56,38.73Zm0,6A1.78,1.78,0,1,1,57.8,43,1.78,1.78,0,0,1,56,44.76Z"/><path class="cls-1" d="M51.43,49.45l0,0a.92.92,0,0,1-1.13,1.44h0a9.76,9.76,0,1,1,11.36,0h0l0,0a.84.84,0,0,1-.49.15.92.92,0,0,1-.92-.91.9.9,0,0,1,.36-.73l0,0h0a7.93,7.93,0,1,0-9.22.05"/><path class="cls-1" d="M64,55h0a14.41,14.41,0,1,0-16,0h0a.91.91,0,1,0,1-1.51h0a12.57,12.57,0,1,1,13.92,0h0a.9.9,0,0,0-.41.76.91.91,0,0,0,.91.91A1,1,0,0,0,64,55"/></g></svg>