<svg xmlns="http://www.w3.org/2000/svg" viewBox="0 0 140 140"><defs><style>.cls-1{fill:#fff;}</style></defs><g id="map"><path class="cls-1" d="M121.84,106.58H18.16a7.16,7.16,0,0,1-7-6.77l-.08-1.18H128.91l-.08,1.18a7.45,7.45,0,0,1-2,4.61A6.78,6.78,0,0,1,121.84,106.58ZM13.59,100.84a4.87,4.87,0,0,0,4.57,3.53H121.84a4.61,4.61,0,0,0,3.37-1.47,5.21,5.21,0,0,0,1.19-2.06Z"/><path class="cls-1" d="M78,100.72a2.57,2.57,0,0,1-.23,1c-.15.3-.36.48-.58.48H62.79c-.43,0-.78-.67-.81-1.51Z"/><path class="cls-1" d="M77.2,102.44H62.79c-.56,0-1-.72-1-1.71v-.22H78.24v.22a2.71,2.71,0,0,1-.27,1.11A.9.9,0,0,1,77.2,102.44Zm-15-1.51c.08.65.36,1.09.59,1.09H77.2c.14,0,.28-.14.4-.37a2.1,2.1,0,0,0,.2-.72Z"/><path class="cls-1" d="M109.71,33.42H30.29a5.07,5.07,0,0,0-5.06,5.06V90.33a5.07,5.07,0,0,0,5.06,5.06h79.42a5.07,5.07,0,0,0,5.06-5.06V38.48A5.07,5.07,0,0,0,109.71,33.42ZM70,34.23a1.57,1.57,0,1,1-1.57,1.57A1.57,1.57,0,0,1,70,34.23Zm40,57H30V38.06H110Z"/></g></svg>