<svg xmlns="http://www.w3.org/2000/svg" viewBox="0 0 110 110"><defs><style>.cls-1{fill:#fff;}</style></defs><title>MULTIMEDIA NO CIRCLE</title><g id="map"><path class="cls-1" d="M91,52.24a2.16,2.16,0,0,0,2.16-2.17V16.88A2.16,2.16,0,0,0,91,14.71H45.34a2.17,2.17,0,0,0-2.16,2.17v20H19A2.16,2.16,0,0,0,16.88,39V72.19A2.16,2.16,0,0,0,19,74.36H43.18V93.11a2.17,2.17,0,0,0,2.16,2.18H91a2.17,2.17,0,0,0,2.16-2.18V59.92A2.16,2.16,0,0,0,91,57.75H66.82V52.24ZM45,18a1.44,1.44,0,0,1,1.45-1.45H89.88A1.44,1.44,0,0,1,91.32,18V49a1.44,1.44,0,0,1-1.44,1.45H66.82V39a2.17,2.17,0,0,0-2.17-2.17H45Zm44.9,41.59A1.44,1.44,0,0,1,91.32,61V92a1.44,1.44,0,0,1-1.44,1.45H46.43A1.44,1.44,0,0,1,45,92V74.36H64.65a2.17,2.17,0,0,0,2.17-2.17V59.55ZM65,57.75V71.11a1.44,1.44,0,0,1-1.45,1.45H20.11a1.43,1.43,0,0,1-1.43-1.45v-31a1.43,1.43,0,0,1,1.43-1.45H63.57A1.44,1.44,0,0,1,65,40.08V57.75Z"/><path class="cls-1" d="M78.48,39.82V20.56l.27-.08a2.26,2.26,0,0,1,.36.66A10.25,10.25,0,0,0,82,26.38c1.35,1.47,2.69,3,3.13,5,.64,2.93-.42,5.45-2,7.83,0,0-.11,0-.31.06.14-.39.26-.71.38-1,.34-.9.74-1.78,1-2.7a6.58,6.58,0,0,0-4.61-8.19c-.17,0-.34,0-.63-.05v.93c0,4.35-.12,8.7,0,13,.11,3.09-3.66,5-6.14,4.26a2.11,2.11,0,0,1-1.34-2.78c.53-2.26,3.62-3.9,6-3.21Z"/><polygon class="cls-1" points="52.77 55.46 34.54 44.93 34.54 65.98 52.77 55.46"/><polygon class="cls-1" points="47.4 90.83 88.89 90.83 88.89 71.82 85.19 67.26 71.84 82.14 64.45 77.58 47.4 90.83"/><circle class="cls-1" cx="74.23" cy="68.13" r="2.44"/></g></svg>