<svg xmlns="http://www.w3.org/2000/svg" viewBox="0 0 140 140"><defs><style>.cls-1{opacity:0.69;}.cls-2{fill:none;stroke:#9c3;stroke-linecap:round;stroke-miterlimit:10;stroke-width:3px;stroke-dasharray:0.5 7.97;}.cls-3{fill:#fff;}</style></defs><title>MULTIMEDIA</title><g id="map"><g class="cls-1"><circle class="cls-2" cx="70" cy="70" r="63.32"/></g><path class="cls-3" d="M98.87,68.31A2.17,2.17,0,0,0,101,66.14V33a2.17,2.17,0,0,0-2.17-2.17H53.26A2.17,2.17,0,0,0,51.09,33V52.9H27a2.17,2.17,0,0,0-2.17,2.17V88.26A2.17,2.17,0,0,0,27,90.43H51.09v18.75a2.18,2.18,0,0,0,2.17,2.18H98.87a2.18,2.18,0,0,0,2.17-2.18V76a2.17,2.17,0,0,0-2.17-2.17H74.74V68.31ZM52.89,34a1.45,1.45,0,0,1,1.45-1.45H97.79A1.45,1.45,0,0,1,99.24,34v31a1.45,1.45,0,0,1-1.45,1.45H74.74V55.07a2.18,2.18,0,0,0-2.18-2.17H52.89Zm44.9,41.59a1.45,1.45,0,0,1,1.45,1.45v31a1.45,1.45,0,0,1-1.45,1.45H54.34a1.45,1.45,0,0,1-1.45-1.45V90.43H72.56a2.18,2.18,0,0,0,2.18-2.17V75.62Zm-24.85-1.8V87.18a1.45,1.45,0,0,1-1.45,1.45H28a1.44,1.44,0,0,1-1.44-1.45v-31A1.44,1.44,0,0,1,28,54.7H71.49a1.45,1.45,0,0,1,1.45,1.45V73.82Z"/><path class="cls-3" d="M86.4,55.89V36.63l.27-.08a2.52,2.52,0,0,1,.36.66,10.17,10.17,0,0,0,2.86,5.24c1.35,1.47,2.7,3,3.14,5,.64,2.93-.43,5.44-2,7.83,0,0-.1,0-.3.06.14-.39.25-.71.38-1,.34-.9.74-1.79,1-2.7a6.58,6.58,0,0,0-4.61-8.19,4.58,4.58,0,0,0-.63-.05v.93c0,4.34-.12,8.7,0,13,.11,3.09-3.66,5-6.14,4.26a2.12,2.12,0,0,1-1.34-2.79c.53-2.25,3.61-3.9,6-3.21Z"/><polygon class="cls-3" points="60.69 71.53 42.46 61 42.46 82.05 60.69 71.53"/><polygon class="cls-3" points="55.32 106.89 96.8 106.89 96.8 87.89 93.11 83.33 79.75 98.21 72.37 93.64 55.32 106.89"/><circle class="cls-3" cx="82.14" cy="84.2" r="2.44"/></g></svg>