<svg xmlns="http://www.w3.org/2000/svg" viewBox="0 0 110 110"><defs><style>.cls-1{fill:#fff;}</style></defs><title>SECURITY NO CIRCLE</title><g id="map"><path class="cls-1" d="M93.84,56.78C94,46.92,86.31,38,77.24,37.44A23.24,23.24,0,0,0,55.37,22.18,24.13,24.13,0,0,0,33,37.45c-9,.72-16.72,9.42-16.88,19.31a19.91,19.91,0,0,0,5.76,14.18,16.91,16.91,0,0,0,10.4,5.14v7a4.62,4.62,0,0,0,4.42,4.76H73.25a4.62,4.62,0,0,0,4.43-4.76v-7C86.32,75,93.69,66.45,93.84,56.78ZM64.62,70a.73.73,0,0,1,0,1.45h-.69v1.93h.69a.6.6,0,1,1,0,1.2h-.69v2.18h.69a.6.6,0,1,1,0,1.2h-.69v2.74c0,.42-.43.64-.85.64H60.55V82a.61.61,0,1,1-1.21,0V81.3H57.17V82A.6.6,0,1,1,56,82V81.3H54V82a.6.6,0,1,1-1.2,0V81.3H50.66V82a.61.61,0,1,1-1.21,0V81.3H46.74a.59.59,0,0,1-.67-.64V77.92h-.72a.6.6,0,1,1,0-1.2h.72V74.54h-.72a.6.6,0,1,1,0-1.2h.72V71.41h-.72a.73.73,0,0,1,0-1.45h.72V68h-.72a.61.61,0,1,1,0-1.21h.72v-2.5c0-.42.25-.87.67-.87h2.71v-.74a.61.61,0,1,1,1.21,0v.74h2.17v-.74a.6.6,0,1,1,1.2,0v.74H56v-.74a.6.6,0,1,1,1.2,0v.74h2.17v-.74a.61.61,0,1,1,1.21,0v.74h2.53a.94.94,0,0,1,.85.87v2.5h.69a.61.61,0,1,1,0,1.21h-.69V70ZM46.07,55.72V50.24a9.05,9.05,0,1,1,18.1,0v5.48ZM77.68,74.34V60.24a4.41,4.41,0,0,0-4.43-4.52H70V50.24a15,15,0,0,0-29.92,0v5.48h-3.3a4.41,4.41,0,0,0-4.42,4.52V74.38a15.25,15.25,0,0,1-9.19-4.63,18.5,18.5,0,0,1-5.28-13c.15-9.06,7.54-17.32,15.82-17.67l.57,0,.19-.53A22.45,22.45,0,0,1,55.37,23.88,21.55,21.55,0,0,1,75.83,38.53l.19.56.59,0c8.42.22,15.68,8.46,15.54,17.65A19.22,19.22,0,0,1,87.26,69,15.6,15.6,0,0,1,77.68,74.34Z"/></g></svg>