<svg xmlns="http://www.w3.org/2000/svg" viewBox="0 0 140 140"><defs><style>.cls-1{fill:#fff;}.cls-2{opacity:0.69;}.cls-3{fill:none;stroke:#9c3;stroke-linecap:round;stroke-miterlimit:10;stroke-width:3px;stroke-dasharray:0.5 7.97;}</style></defs><title>SECURITY</title><g id="map"><path class="cls-1" d="M108,71.09c.15-9.87-7.54-18.75-16.6-19.35A23.24,23.24,0,0,0,69.49,36.49,24.15,24.15,0,0,0,47.15,51.75c-9,.72-16.72,9.42-16.88,19.31A20,20,0,0,0,36,85.24a16.91,16.91,0,0,0,10.4,5.14v7a4.62,4.62,0,0,0,4.43,4.76H87.37a4.62,4.62,0,0,0,4.43-4.76v-7C100.44,89.31,107.8,80.76,108,71.09ZM78.74,84.26a.73.73,0,0,1,0,1.45H78v1.93h.7a.6.6,0,1,1,0,1.2H78V91h.7a.6.6,0,1,1,0,1.2H78V95c0,.42-.43.64-.84.64H74.66v.68a.6.6,0,1,1-1.2,0V95.6H71.29v.68a.61.61,0,1,1-1.21,0V95.6H68.15v.68a.61.61,0,1,1-1.21,0V95.6H64.77v.68a.61.61,0,1,1-1.21,0V95.6H60.85a.59.59,0,0,1-.66-.64V92.22h-.72a.6.6,0,1,1,0-1.2h.72V88.84h-.72a.6.6,0,1,1,0-1.2h.72V85.71h-.72a.73.73,0,0,1,0-1.45h.72V82.33h-.72a.61.61,0,1,1,0-1.21h.72v-2.5c0-.42.25-.87.66-.87h2.71V77a.61.61,0,1,1,1.21,0v.74h2.17V77a.61.61,0,1,1,1.21,0v.74h1.93V77a.61.61,0,1,1,1.21,0v.74h2.17V77a.6.6,0,1,1,1.2,0v.74H77.2a.94.94,0,0,1,.84.87v2.5h.7a.61.61,0,1,1,0,1.21H78v1.93ZM60.19,70V64.54a9,9,0,1,1,18.09,0V70ZM91.8,88.64V74.54A4.41,4.41,0,0,0,87.37,70h-3.3V64.54a15,15,0,0,0-29.92,0V70H50.86a4.41,4.41,0,0,0-4.43,4.52V88.68a15.31,15.31,0,0,1-9.19-4.63,18.44,18.44,0,0,1-5.27-13c.14-9.07,7.54-17.33,15.82-17.68l.56,0,.2-.53A22.43,22.43,0,0,1,69.49,38.18,21.53,21.53,0,0,1,89.94,52.83l.19.56.59,0c8.43.22,15.69,8.46,15.54,17.65a19.15,19.15,0,0,1-4.89,12.22A15.6,15.6,0,0,1,91.8,88.64Z"/><g class="cls-2"><circle class="cls-3" cx="70" cy="70" r="63.32"/></g></g></svg>