<svg xmlns="http://www.w3.org/2000/svg" viewBox="0 0 140 140"><defs><style>.cls-1{opacity:0.69;}.cls-2{fill:none;stroke:#9c3;stroke-linecap:round;stroke-miterlimit:10;stroke-width:3px;stroke-dasharray:0.5 7.97;}.cls-3{fill:#fff;}</style></defs><title>STEWARDSHIP</title><g id="map"><g class="cls-1"><circle class="cls-2" cx="70.74" cy="70" r="63.32"/></g><path class="cls-3" d="M92,100.36l-7,3.75-1.52.83-2.79-3.54c-1.09-1.39-2.17-2.76-3.28-4.13a2.57,2.57,0,0,0-1.76-.92h-.35c-.88.07-1.76.16-2.64.25-.54.06-1.07.12-1.6.16a2.38,2.38,0,0,0-2,1.42l-4.36,8.66-9.22-2.78c.05-.63.1-1.24.17-1.84q.43-3.84.93-7.67a2.58,2.58,0,0,0-1-2.52c-.9-.69-1.8-1.45-2.66-2.17l-.44-.37a2.36,2.36,0,0,0-1.35-.58,2.47,2.47,0,0,0-1,.12q-3.45,1.17-6.91,2.29l-2.37.78-4.57-8.53,3.36-2.64c1.47-1.16,2.93-2.31,4.38-3.48a2.3,2.3,0,0,0,.86-1.92c-.13-1.51-.28-3-.45-4.49a2.36,2.36,0,0,0-1.23-1.79q-4.38-2.23-8.8-4.44l.5-1.62c.12-.44.26-.87.4-1.31A18,18,0,0,0,38.37,64c.35.18.69.36,1,.51A19.06,19.06,0,0,0,46,66.24a19.88,19.88,0,0,0,6.14-.44l1.33,1.35a16,16,0,0,0-.28,2,17.5,17.5,0,0,0,22.1,18.38c.21.17.43.33.63.48,1,.77,2,1.51,2.93,2.23,4.07,3,8.07,5.75,11.87,8.1l.8.5c.08.23.16.47.24.69Z"/><path class="cls-3" d="M106.7,76.54c-.2.66-.39,1.32-.59,2l-.77,2.53-.93,3.11c-.21-.22-.44-.44-.66-.64-3.08-3-6.56-6.08-10.34-9.17-1.45-1.2-2.79-2.25-4.1-3.26-.2-.16-.4-.32-.56-.43l-.7-.53a17.29,17.29,0,0,0-4.13-10.74A17.48,17.48,0,0,0,72,53.25h-.16a16.81,16.81,0,0,0-5.86.53,17.72,17.72,0,0,0,.88-8.9l.52-.06c.76-.07,1.52-.15,2.29-.21A2.79,2.79,0,0,0,72.15,43q1.78-3.59,3.61-7.15l.66-1.3h0c1,.28,1.94.56,2.89.85l2.53.76,3.81,1.15c-.38,3.08-.75,6.28-1.16,9.79a2.47,2.47,0,0,0,.83,2c1.14,1,2.29,1.91,3.42,2.8a2.41,2.41,0,0,0,1.26.47,2.48,2.48,0,0,0,.91-.09c2.19-.7,4.37-1.43,6.54-2.14l2.79-.91,4.57,8.52-.58.46-2,1.55-5.18,4.1a2.35,2.35,0,0,0-.87,1.93c.14,1.67.29,3.2.46,4.67A2.2,2.2,0,0,0,98,72.14l7.23,3.66Z"/><path class="cls-3" d="M108.16,93.92a5.22,5.22,0,0,0-.43-1.48h0a6,6,0,0,0-1.13-1.63s.08,0,.09,0c-1.47-1.64-3.15-3.38-5-5.18l-.16-.15c-2.93-2.84-6.29-5.82-10-8.85-1.22-1-2.45-2-3.73-3a2.92,2.92,0,0,0-.28-.21c-.19-.16-.39-.32-.58-.46A168.36,168.36,0,0,0,70.44,61.83q-1.71-1-3.3-1.89l-2-2-2.71-2.79-.26-.27a14.75,14.75,0,0,0,1.82-6A14,14,0,0,0,61.84,40c-.29-.42-.57-.83-.89-1.21l-.43-.5a15.82,15.82,0,0,0-12.1-5.15l3.93,6.07,1.43,2.21,0,0,1.58,2.42a4.5,4.5,0,0,1,0,4.79,5,5,0,0,1-1.74,1.75l-1.43.85L47.74,54l0,0a5.31,5.31,0,0,1-4.53.41,5.23,5.23,0,0,1-.72-.34,4.36,4.36,0,0,1-1.57-1.48l-7-10.73a14.34,14.34,0,0,0,.52,14.62,15.84,15.84,0,0,0,1.79,2.24,15,15,0,0,0,3.54,2.65,8.39,8.39,0,0,0,.85.42,16.68,16.68,0,0,0,11,1.06c.47-.11.92-.25,1.37-.4l1.43,1.46,2.48,2.53c.59.71,1.22,1.44,1.92,2.18h0c1,1.12,2.13,2.29,3.32,3.48A157.25,157.25,0,0,0,75,83.47c.88.73,1.8,1.45,2.73,2.16l.79.59q1.06.82,2.1,1.59C83.83,90.21,87,92.4,90,94.33c.76.5,1.51,1,2.26,1.44,2.56,1.58,5,3,7.24,4.15-.07,0-.09-.1-.15-.14a5.14,5.14,0,0,0,1.82.67h0a4.7,4.7,0,0,0,1.06.1,5.83,5.83,0,0,0,4.71-2.2A5.6,5.6,0,0,0,108.16,93.92Z"/></g></svg>