<svg xmlns="http://www.w3.org/2000/svg" viewBox="0 0 110 110"><defs><style>.cls-1{fill:#fff;}</style></defs><title>STEWARDSHIP NO CIRCLE</title><g id="map"><path class="cls-1" d="M76.79,85.36l-7,3.75-1.53.83L65.47,86.4c-1.09-1.39-2.17-2.76-3.28-4.13a2.57,2.57,0,0,0-1.76-.92h-.35c-.88.07-1.76.16-2.64.25-.54.06-1.08.12-1.6.16a2.39,2.39,0,0,0-2,1.42l-4.36,8.66-9.21-2.78c0-.63.09-1.24.16-1.84q.45-3.84.93-7.67a2.55,2.55,0,0,0-1-2.52c-.9-.69-1.8-1.45-2.66-2.17l-.44-.37a2.32,2.32,0,0,0-1.35-.58,2.45,2.45,0,0,0-1,.12c-2.31.78-4.61,1.54-6.92,2.29l-2.36.78-4.57-8.53,3.35-2.64c1.47-1.16,2.93-2.31,4.38-3.48a2.31,2.31,0,0,0,.87-1.92c-.14-1.51-.28-3-.45-4.49A2.39,2.39,0,0,0,28,54.25Q23.6,52,19.19,49.81l.49-1.62c.13-.44.27-.87.4-1.31A17.43,17.43,0,0,0,23.17,49a11.2,11.2,0,0,0,1,.52,19.06,19.06,0,0,0,6.55,1.72,19.91,19.91,0,0,0,6.14-.44l1.33,1.35a18.15,18.15,0,0,0-.29,2A17.51,17.51,0,0,0,60.05,72.51q.31.26.63.48c1,.77,2,1.51,2.93,2.23,4.07,3,8.07,5.75,11.87,8.1l.8.5.23.69Z"/><path class="cls-1" d="M91.5,61.54c-.2.66-.4,1.32-.59,2l-.77,2.53c-.31,1-.63,2.07-.93,3.11-.22-.22-.44-.44-.66-.64-3.09-3-6.56-6.08-10.34-9.17-1.46-1.2-2.79-2.25-4.1-3.26l-.56-.43-.71-.53a17.28,17.28,0,0,0-4.12-10.74,17.5,17.5,0,0,0-11.91-6.14h-.16a16.76,16.76,0,0,0-5.85.53,16.76,16.76,0,0,0,1-4.6,17.12,17.12,0,0,0-.14-4.3l.52-.06c.76-.08,1.51-.15,2.28-.21A2.82,2.82,0,0,0,57,28q1.78-3.59,3.6-7.15l.66-1.3h0l2.9.86,2.53.76,3.8,1.15c-.37,3.08-.75,6.28-1.15,9.79a2.46,2.46,0,0,0,.82,2c1.15,1,2.29,1.91,3.42,2.8a2.44,2.44,0,0,0,1.27.47,2.48,2.48,0,0,0,.91-.09c2.18-.7,4.36-1.43,6.54-2.14l2.78-.91,4.57,8.52-.58.46-2,1.55-5.19,4.1A2.34,2.34,0,0,0,81,50.8c.14,1.67.28,3.2.45,4.67a2.23,2.23,0,0,0,1.31,1.67L90,60.8Z"/><path class="cls-1" d="M93,78.92a5.49,5.49,0,0,0-.44-1.48h0a5.75,5.75,0,0,0-1.13-1.63l.1,0c-1.47-1.64-3.15-3.38-5-5.18l-.16-.15c-2.92-2.84-6.29-5.82-10-8.85-1.21-1-2.44-2-3.73-3a1.94,1.94,0,0,0-.27-.21c-.2-.16-.39-.32-.58-.46A169.56,169.56,0,0,0,55.24,46.83c-1.14-.67-2.24-1.3-3.31-1.89l-2-2-2.71-2.79L47,39.87a14.9,14.9,0,0,0,1.82-6,13.86,13.86,0,0,0-.45-5A13.64,13.64,0,0,0,46.63,25a12.17,12.17,0,0,0-.89-1.21c-.13-.17-.28-.34-.43-.5a15.8,15.8,0,0,0-12.09-5.15l3.93,6.07,1.43,2.21,0,0,1.57,2.42a4.5,4.5,0,0,1,0,4.79,4.91,4.91,0,0,1-1.74,1.74L37,36.27,32.53,39l0,0a5.31,5.31,0,0,1-4.53.41,5.23,5.23,0,0,1-.72-.34,4.31,4.31,0,0,1-1.58-1.48l-7-10.73a14.34,14.34,0,0,0,.52,14.62A14.54,14.54,0,0,0,21,43.7a15.11,15.11,0,0,0,3.53,2.65c.28.15.57.3.86.42a16.67,16.67,0,0,0,11,1.06c.46-.11.91-.25,1.37-.4l1.42,1.46,2.48,2.53c.59.71,1.23,1.44,1.93,2.18h0c1,1.12,2.12,2.29,3.32,3.48A158.69,158.69,0,0,0,59.78,68.47c.88.73,1.81,1.45,2.73,2.16l.8.59,2.09,1.59c3.22,2.4,6.38,4.59,9.39,6.52l2.26,1.44c2.57,1.58,5,3,7.24,4.15-.06,0-.09-.1-.14-.14a5.07,5.07,0,0,0,1.82.67h0a4.7,4.7,0,0,0,1.06.1,5.85,5.85,0,0,0,4.71-2.2A5.6,5.6,0,0,0,93,78.92Z"/></g></svg>